<svg version="1.1" xmlns="http://www.w3.org/2000/svg" xmlns:xlink="http://www.w3.org/1999/xlink" x="0px" y="0px" width="1200px"
	 height="1600px" viewBox="0 0 1200 1600" enable-background="new 0 0 1200 1600" xml:space="preserve">
<g id="Layer_1">
	<path d="M826.7,769c0.3,1.1,1,2.3,1.6,2.7c0.7,0.399,0.8,0,0.4-1.101c-0.4-1-0.7-2.199-0.7-2.699s-0.4-0.9-0.9-0.9
		S826.4,767.9,826.7,769z"/>
	<path d="M258.75,850.775"/>
	<path d="M387.016,763.686c0.553,1.407,1.741,4.602,2.611,7.112c2.456,15.202,1.503,4.088,1.032,0.979
		c-0.315-1.935-1.502-5.129-2.612-7.113C386.938,762.681,386.462,762.277,387.016,763.686z"/>
	<path d="M390.1,793.6c0,1.101,0.3,1.4,0.6,0.601c0.3-0.7,0.2-1.601-0.1-1.9C390.3,791.9,390,792.5,390.1,793.6z"/>
	<path d="M907.1,853.6c0,1.101,0.301,1.4,0.601,0.601c0.3-0.7,0.2-1.601-0.101-1.9C907.3,851.9,907,852.5,907.1,853.6z"/>
	<path d="M956.905,850.779"/>
	<g>
		<path d="M437.4,574.1c-0.601,0.801-1.7,3-2.4,4.9s-2.2,4.3-3.2,5.3s-1.8,2.4-1.8,3.101c0,0.8-0.7,1.6-1.5,2
			c-1,0.3-1.5-0.101-1.5-1.2c0-0.9-1.1,0.8-2.3,3.899c-4,9.5-13.6,23.601-23.5,34.2C387.4,641.2,385,643.5,385,642
			c0-0.9-0.7-0.7-2.2,0.6c-1.2,1-1.8,1.301-1.4,0.601c1.5-2.601-0.6-3.3-3.1-1c-3.8,3.6-8.6,12.2-14.4,25.8
			c-2.9,6.9-10.4,22.7-16.6,35.2L336,726l-6.2,4.6c-11.4,8.301-27.3,14.7-42.1,16.801c-10.2,1.5-11.3,1.899-19.5,7
			c-4.9,2.899-11.1,6.5-13.9,7.899c-5.2,2.7-8.9,7.4-10,12.7c-0.3,1.5-1.8,3.7-3.4,4.9c-4,3-7.4,9.399-9.3,17.6
			c-2,8.6-1.7,12.9,0.8,13.3c0.9,0.2,4-0.6,6.8-1.8c4.9-2.1,10-2.1,11.4,0.1c0.3,0.5-0.7,3.101-2.2,5.7c-2.5,4.4-2.7,5.4-2.6,17.2
			c0.1,13.5,1.1,20.7,3.9,26.7c0.988,2.066,3.211,5.392,4.425,4.685C256.5,862,263.3,858.6,272.3,858.5c5.6-0.1,11.1-0.5,12.2-0.8
			c2.6-0.8,5.5,2.925,6.375,7.55c0.65,3.439,5,15.362,8.665,17.652c2.4,2.5,2.96-0.502,7.561-4.803c5.2-4.8,6.9-5.399,14-4.8
			c6.4,0.5,10.6-1,16.7-6c5.7-4.6,8.6-7.8,12.5-13.3c3.1-4.3,3.2-4.9,3.2-14c-0.1-5.2-0.5-10.8-0.9-12.3c-0.5-1.5-0.5-2.7,0-2.601
			c1,0.301,12.2-1.899,14.4-2.8c0.8-0.399,1.7-0.7,2-0.8s1.2-0.4,2-0.7s4-1.3,7-2.2c9.1-2.699,13.9-7,18.7-16.699
			c5.7-11.601,8.1-19.301,10-31.801c1.6-10.899,2.8-13.8,10.1-24.6c1.9-2.8,4.2-5.9,5.2-7c1.9-2.3,7.8-10.7,19.4-28
			C463.1,678.3,469.1,666.8,476.6,643c0.801-2.5,2.101-5.9,2.9-7.7c0.9-1.7,1.9-5.3,2.4-7.8c0.5-2.6,2.3-6.6,4-9
			c1.699-2.4,3.1-4.7,3.1-5.1c0-0.4,0.6-1.5,1.4-2.301c0.699-0.899,1.6-3.1,1.899-4.899c0.601-2.9,0.5-3.101-1.2-2.3
			c-1,0.6-3.1,2.699-4.699,4.8c-1.601,2.1-5.301,6.5-8.301,9.7c-3.899,4.3-5.1,6.1-4,6.5c1.5,0.6,1.9,3.5,0.601,4.699
			c-0.4,0.4-0.7,1.801-0.7,3.101c0,2.1-4.7,16.899-6.9,21.8c-0.5,1.1-1.899,4.7-3.1,8c-3.9,10.3-10.9,24-14.4,28.1
			c-1.8,2.101-8.199,11.101-14.1,19.9S422,729.9,418.6,734c-7.2,8.8-8.6,11-13.7,20.6c-2.2,4.301-3.5,8.101-3.2,9.2
			c0.7,2.7-1.3,11.7-4.9,23.2c-2.4,7.3-3.3,9-3.9,7.5c-0.7-1.9-0.8-1.9-0.8,0.2c-0.1,1.3-0.4,2.3-0.8,2.3c-0.5,0-0.8,1.3-0.9,2.9
			c-0.3,7.3-3.5,10.3-16.5,15.1c-7.8,2.8-23.2,5.9-24.4,4.9c-1.9-1.9-2.2-0.801-0.8,3.3c2.7,7.8-0.7,24.5-6.8,33.399
			c-3.4,5-11.5,11.2-15.6,12c-1.9,0.4-4.2,0-6.3-1.1c-2.2-1.1-3.5-1.3-3.9-0.6c-1.4,2.1-18.1-4.101-21.8-8.101
			c-1.6-1.8-1.6-2-0.1-2.899c0.9-0.5,4.4-4.2,7.9-8.101l6.2-7.3l7.1-0.6c8.7-0.801,12.6-2.7,19-9.301
			c8.3-8.699,11.3-12.899,12.7-17.6c1.7-6,3-7.4,9.7-10.1c3.1-1.2,8.7-3.7,12.3-5.5c6.4-3.2,6.6-3.4,9.7-10.601
			c1.7-4,4-9.8,5.2-12.8c2.1-5.8,2.7-14,1-14c-0.5,0-1,0.4-1,1c0,2-0.2,2.5-1.4,4c-0.7,0.8-1.9,3.5-2.6,6
			c-1.7,5.7-6.5,15.6-9.5,19.6c-1.7,2.301-3.9,3.5-8.7,4.801c-3.4,1-8.2,2.5-10.5,3.3c-2.4,0.8-4.7,1.2-5.3,0.8
			c-0.6-0.3-1.7,0.1-2.6,0.9c-0.8,0.899-6.25,3.725-5.65,3.725c0.7,0,7.163-4.616,5.65,0.475c-0.5,2-0.4,2.5,0.6,1.9
			c0.9-0.6,1,0,0.5,2.6c-1.5,7-9,16.4-17.5,21.9c-6.6,4.3-17.2,4.2-31.1-0.1c-0.997-0.305-8.24-4.379-5.566-7.567
			c1.902-2.268,25.92-9.968,26.738-10.858c1.929-2.1-27.471,9.625-27.971,9.926c-2.2,1.399-3-8.9-1-12.7
			c0.7-1.101,1.3-4.601,1.4-7.601c0.4-11.899,1.5-13.399,15-20.6c7.1-3.8,17.5-7.9,17.5-6.8c0,0.3,1-0.101,2.3-0.9
			c1.2-0.8,4-1.8,6.2-2.2c3.7-0.699,5.4-2,5.5-4c0-0.399-0.8-0.5-1.7-0.199c-1.6,0.6-1.6,0.6,0-1.2c0.9-1,1.7-2.4,1.7-3
			c0-0.7,0.75-2.138,1.25-2.138s3.825-3.163,4.125-4.063c2.375-1.75-4.275,2.7-9.275,8.2c-2.5,2.7-5.4,4.8-6.5,4.8
			c-4.2,0.1-16.6,3.8-23.8,7.3c-10.1,4.9-14.5,9.7-14.6,16.2c-0.1,2.7-0.6,5.3-1.2,5.9c-0.5,0.5-1,2-1,3.3
			c0,1.399-1.5,3.899-3.6,5.899c-3.5,3.5-3.7,3.601-9.2,3c-14.6-1.699-22.825-6.475-25.825-20.6
			c-0.831-2.16,6.731-0.446,13.356-0.071c0.928,0.053-13.516-2.452-13.512-3.401c0.012-3.445,0.763-7.13,2.281-11.528
			c1.7-5,1.3-4.6,17-13.8c13.2-7.7,16.7-9.2,21-9.2c6,0,20.9-5,33-11.2c18.6-9.3,18-8.7,30-32.8c2.3-4.7,4.9-10,5.6-11.9
			c2.9-7.199,19.1-38.699,20.6-40.1c1.4-1.3,1.5-1.3,1,0.2c-1.1,3,0.1,2,4.4-4c5-6.7,8-9.7,11.8-11.601c4.7-2.5,25.7-29,30.9-39.199
			c1.9-3.601,3.101-5.101,3.2-3.9c0,1.7,0.5,1.5,2.8-1.4c1.5-1.899,3.7-5.3,4.9-7.5l2.2-4.1l0.1,4c0,3.2,0.3,3.7,1.1,2.2
			c0.5-0.9,2.101-1.7,3.4-1.7c1.4,0,2.5-0.3,2.6-0.8c0-0.4,0.2-1.601,0.4-2.7s-0.4-3.1-1.3-4.5c-0.9-1.4-2.4-4-3.2-5.9
			C438.8,573.4,438.2,573,437.4,574.1z M427.7,595.2c-0.3,0.8-0.601,0.5-0.601-0.601c-0.1-1.1,0.2-1.699,0.5-1.3
			C427.9,593.6,428,594.5,427.7,595.2z M243,790.4c0,1.399,0.7,3.1,1.5,4c0.8,0.8,1.5,2.8,1.5,4.5c0,2.699-0.4,3.1-5.2,4.5
			c-2.9,0.8-5.4,1.3-5.7,1.1c-0.7-0.8,2.1-9.9,4.1-13.3C241.5,787.4,243,787.1,243,790.4z M269,816c1.9,0.5,5.5,0.7,7.8,0.5
			c3.8-0.3,4.3-0.2,3.7,1.3c-1.1,3-3.5,13.601-3.5,15.9c0,1.7,0.9,2.5,4,3.399c2.6,0.801,4.4,0.9,5,0.301c1-1,15.3,0.5,16.5,1.8
			c0.4,0.399-1.4,2.899-4,5.7c-5.7,6.1-9.3,7.3-21.3,7.199c-8.2-0.1-8.8-0.199-15.5-4.3c-10.9-6.6-14.3-13.8-11.3-24
			c0.8-2.899,2.5-6.7,3.5-8.5l2-3.2l4.8,1.4C263.3,814.3,267.1,815.4,269,816z M287.9,829.2c0.1,3.6-0.1,3.8-3,3.8h-3.2l0.6-5
			c0.3-2.7,1.1-6,1.8-7.2c1.2-2.2,1.2-2.2,2.5,1.2C287.3,823.9,287.9,827.2,287.9,829.2z M257.9,849.5l3,4.5l-2.2,1.5
			c-2.7,1.9-5.3,1.9-6,0.2c-0.3-0.8-0.8-4-1.2-7.101c-0.7-5.6-0.7-5.8,1.3-4.699C253.9,844.5,256.2,847,257.9,849.5z M304.8,866.5
			c5.3,1.9,6.1,3.3,3.2,5.5c-1.4,1.1-3.7,2.8-5.2,4c-2.7,2-2.7,2-3.7,0.1c-0.6-1.1-1.1-4.3-1.1-7.1c0-4.6,0.2-5.1,1.8-4.5
			C300.7,864.9,303,865.8,304.8,866.5z"/>
		<path d="M775.655,576.104c-0.8,1.9-2.3,4.5-3.2,5.9c-0.899,1.4-1.5,3.4-1.3,4.5s0.4,2.3,0.4,2.7c0.1,0.5,1.199,0.8,2.6,0.8
			c1.3,0,2.9,0.8,3.4,1.7c0.8,1.5,1.1,1,1.1-2.2l0.1-4l2.2,4.1c1.2,2.2,3.4,5.601,4.9,7.5c2.3,2.9,2.8,3.101,2.8,1.4
			c0.1-1.2,1.3,0.3,3.2,3.9c5.2,10.199,26.2,36.699,30.899,39.199c3.801,1.9,6.801,4.9,11.801,11.601c4.3,6,5.5,7,4.399,4
			c-0.5-1.5-0.399-1.5,1-0.2c1.5,1.4,17.7,32.9,20.601,40.1c0.699,1.9,3.3,7.2,5.6,11.9c12,24.1,11.4,23.5,30,32.8
			c12.1,6.2,27,11.2,33,11.2c4.3,0,7.8,1.5,21,9.2c15.7,9.2,15.3,8.8,17,13.8c1.518,4.397,2.27,8.082,2.281,11.527
			c0.004,0.95-14.44,3.455-13.512,3.402c6.625-0.375,14.187-2.09,13.355,0.07c-3,14.125-11.225,18.9-25.825,20.6
			c-5.5,0.601-5.7,0.5-9.2-3c-2.1-2-3.6-4.5-3.6-5.899c0-1.3-0.5-2.8-1-3.3c-0.6-0.601-1.1-3.2-1.2-5.9c-0.1-6.5-4.5-11.3-14.6-16.2
			c-7.2-3.5-19.601-7.2-23.8-7.3c-1.101,0-4-2.1-6.5-4.8c-5-5.5-11.65-9.95-9.275-8.2c0.3,0.899,3.625,4.063,4.125,4.063
			s1.25,1.438,1.25,2.138c0,0.6,0.8,2,1.7,3c1.6,1.8,1.6,1.8,0,1.2c-0.9-0.301-1.7-0.2-1.7,0.199c0.1,2,1.8,3.301,5.5,4
			c2.2,0.4,5,1.4,6.2,2.2c1.3,0.8,2.3,1.2,2.3,0.9c0-1.101,10.4,3,17.5,6.8c13.5,7.2,14.6,8.7,15,20.6c0.1,3,0.7,6.5,1.4,7.601
			c2,3.8,1.199,14.1-1,12.7c-0.5-0.301-29.9-12.025-27.972-9.926c0.817,0.891,24.836,8.591,26.737,10.858
			c2.674,3.188-4.569,7.263-5.566,7.567c-13.899,4.3-24.5,4.399-31.1,0.1c-8.5-5.5-16-14.9-17.5-21.9c-0.5-2.6-0.4-3.199,0.5-2.6
			c1,0.6,1.1,0.1,0.6-1.9c-1.512-5.09,4.95-0.475,5.65-0.475c0.6,0-4.85-2.825-5.65-3.725c-0.899-0.801-2-1.2-2.6-0.9
			c-0.6,0.4-2.9,0-5.3-0.8c-2.3-0.8-7.101-2.3-10.5-3.3c-4.8-1.301-7-2.5-8.7-4.801c-3-4-7.8-13.899-9.5-19.6
			c-0.7-2.5-1.9-5.2-2.6-6c-1.2-1.5-1.4-2-1.4-4c0-0.6-0.5-1-1-1c-1.7,0-1.1,8.2,1,14c1.2,3,3.5,8.8,5.2,12.8
			c3.1,7.2,3.3,7.4,9.7,10.601c3.6,1.8,9.199,4.3,12.3,5.5c6.7,2.699,8,4.1,9.7,10.1c1.399,4.7,4.399,8.9,12.699,17.6
			c6.4,6.601,10.301,8.5,19,9.301l7.101,0.6l6.2,7.3c3.5,3.9,7,7.601,7.899,8.101c1.5,0.899,1.5,1.1-0.1,2.899
			c-3.7,4-20.4,10.2-21.8,8.101c-0.4-0.7-1.7-0.5-3.9,0.6c-2.1,1.1-4.4,1.5-6.3,1.1c-4.101-0.8-12.2-7-15.601-12
			c-6.1-8.899-9.5-25.6-6.8-33.399c1.4-4.101,1.101-5.2-0.8-3.3c-1.2,1-16.6-2.101-24.4-4.9c-13-4.8-16.199-7.8-16.5-15.1
			c-0.1-1.601-0.399-2.9-0.899-2.9c-0.4,0-0.7-1-0.8-2.3c0-2.101-0.101-2.101-0.801-0.2c-0.6,1.5-1.5-0.2-3.899-7.5
			c-3.601-11.5-5.601-20.5-4.9-23.2c0.3-1.1-1-4.899-3.2-9.2c-5.1-9.6-6.5-11.8-13.699-20.6c-3.4-4.1-11-14.7-16.9-23.5
			s-12.3-17.8-14.1-19.9c-3.5-4.1-10.5-17.8-14.4-28.1c-1.2-3.3-2.6-6.9-3.1-8c-2.2-4.9-6.9-19.7-6.9-21.8c0-1.3-0.3-2.7-0.7-3.101
			c-1.3-1.199-0.899-4.1,0.601-4.699c1.1-0.4-0.101-2.2-4-6.5c-3-3.2-6.7-7.601-8.301-9.7c-1.6-2.101-3.699-4.2-4.699-4.8
			c-1.7-0.801-1.801-0.601-1.2,2.3c0.3,1.8,1.2,4,1.899,4.899c0.801,0.801,1.4,1.9,1.4,2.301c0,0.399,1.4,2.699,3.1,5.1
			c1.7,2.4,3.5,6.4,4,9c0.5,2.5,1.5,6.1,2.4,7.8c0.8,1.8,2.1,5.2,2.9,7.7c7.5,23.8,13.5,35.3,35.199,67.5
			c11.601,17.3,17.5,25.7,19.4,28c1,1.1,3.3,4.2,5.2,7c7.3,10.8,8.5,13.7,10.1,24.6c1.9,12.5,4.3,20.2,10,31.801
			c4.8,9.699,9.601,14,18.7,16.699c3,0.9,6.2,1.9,7,2.2s1.7,0.601,2,0.7s1.2,0.4,2,0.8c2.2,0.9,13.4,3.101,14.4,2.8
			c0.5-0.1,0.5,1.101,0,2.601c-0.4,1.5-0.801,7.1-0.9,12.3c0,9.1,0.1,9.7,3.2,14c3.899,5.5,6.8,8.7,12.5,13.3c6.1,5,10.3,6.5,16.7,6
			c7.1-0.6,8.8,0,14,4.8c4.6,4.301,5.16,7.303,7.561,4.803c3.664-2.29,8.014-14.213,8.664-17.652c0.875-4.625,3.775-8.35,6.375-7.55
			c1.1,0.3,6.6,0.7,12.2,0.8c9,0.1,15.8,3.5,18.175,4.885c1.213,0.707,3.437-2.618,4.425-4.685c2.8-6,3.8-13.2,3.9-26.7
			c0.1-11.8-0.101-12.8-2.601-17.2c-1.5-2.6-2.5-5.2-2.199-5.7c1.399-2.199,6.5-2.199,11.399-0.1c2.8,1.2,5.9,2,6.8,1.8
			c2.5-0.399,2.801-4.7,0.801-13.3c-1.9-8.2-5.301-14.6-9.301-17.6c-1.6-1.2-3.1-3.4-3.399-4.9c-1.101-5.3-4.8-10-10-12.7
			c-2.8-1.399-9-5-13.9-7.899c-8.2-5.101-9.3-5.5-19.5-7c-14.8-2.101-30.7-8.5-42.1-16.801l-6.2-4.6l-11.3-22.8
			c-6.2-12.5-13.7-28.3-16.601-35.2c-5.8-13.6-10.6-22.2-14.399-25.8c-2.5-2.3-4.601-1.601-3.101,1c0.4,0.7-0.199,0.399-1.399-0.601
			c-1.5-1.3-2.2-1.5-2.2-0.6c0,1.5-2.4-0.8-16.2-15.7c-9.899-10.6-19.5-24.7-23.5-34.2c-1.2-3.1-2.3-4.8-2.3-3.899
			c0,1.1-0.5,1.5-1.5,1.2c-0.8-0.4-1.5-1.2-1.5-2c0-0.7-0.8-2.101-1.8-3.101s-2.5-3.399-3.2-5.3s-1.8-4.1-2.4-4.9
			C777.455,573.004,776.855,573.404,775.655,576.104z M788.056,593.304c0.3-0.399,0.6,0.2,0.5,1.3c0,1.101-0.301,1.4-0.601,0.601
			C787.655,594.504,787.755,593.604,788.056,593.304z M976.455,791.204c2,3.399,4.8,12.5,4.101,13.3c-0.301,0.2-2.801-0.3-5.7-1.1
			c-4.8-1.4-5.2-1.801-5.2-4.5c0-1.7,0.7-3.7,1.5-4.5c0.8-0.9,1.5-2.601,1.5-4C972.655,787.104,974.155,787.404,976.455,791.204z
			 M954.955,813.504l4.8-1.4l2,3.2c1,1.8,2.7,5.601,3.5,8.5c3,10.2-0.399,17.4-11.3,24c-6.7,4.101-7.3,4.2-15.5,4.3
			c-12,0.101-15.6-1.1-21.3-7.199c-2.6-2.801-4.4-5.301-4-5.7c1.2-1.3,15.5-2.8,16.5-1.8c0.6,0.6,2.4,0.5,5-0.301
			c3.1-0.899,4-1.699,4-3.399c0-2.3-2.4-12.9-3.5-15.9c-0.6-1.5-0.1-1.6,3.7-1.3c2.3,0.2,5.899,0,7.8-0.5
			C948.556,815.404,952.355,814.304,954.955,813.504z M929.056,822.004c1.3-3.4,1.3-3.4,2.5-1.2c0.699,1.2,1.5,4.5,1.8,7.2l0.6,5
			h-3.2c-2.899,0-3.1-0.2-3-3.8C927.755,827.204,928.355,823.904,929.056,822.004z M962.855,843.904c2-1.101,2-0.9,1.3,4.699
			c-0.4,3.101-0.9,6.301-1.2,7.101c-0.7,1.7-3.3,1.7-6-0.2l-2.2-1.5l3-4.5C959.455,847.004,961.755,844.504,962.855,843.904z
			 M915.855,864.504c1.6-0.6,1.8-0.1,1.8,4.5c0,2.8-0.5,6-1.1,7.1c-1,1.9-1,1.9-3.7-0.1c-1.5-1.2-3.8-2.9-5.2-4
			c-2.9-2.2-2.1-3.6,3.2-5.5C912.655,865.804,914.955,864.904,915.855,864.504z"/>
	</g>
	<path d="M827.608,764.668c-1.109,1.983-2.297,5.178-2.612,7.113c-0.472,3.108-1.425,14.223,1.032-0.979
		c0.87-2.51,2.058-5.706,2.611-7.112C829.193,762.281,828.718,762.685,827.608,764.668z"/>
	<path d="M825.056,792.304c-0.301,0.3-0.4,1.2-0.101,1.9c0.3,0.8,0.601,0.5,0.601-0.601
		C825.655,792.504,825.355,791.904,825.056,792.304z"/>
</g>
<g id="Layer_2">
	<g>
		<g>
			<path fill="#262626" d="M248.746,804.38c-0.601,1.666-4.119,2.357-7.284,3.404c-2.892,0.958-5.394,2.385-7.009,1.645
				c-3.384-1.548-2.725-8.471-0.2-13.985c2.525-5.517,6.221-10.698,8.253-7.57C245.405,792.333,249.968,800.992,248.746,804.38z"/>
			<path fill="#262626" d="M290.729,830.17c2.054,4.259-5.716,4.429-8.402,4.299c-1.837-0.089-1.798-3.726-1.246-8.83
				c0.509-4.702,2.349-10.313,4.035-8.217C287.146,819.941,288.032,824.574,290.729,830.17z"/>
			<path fill="#262626" d="M261.325,851.142c1.407,1.079,5.526,4.154,4.175,4.733c-2.625,1.125-7.949,3.01-9.608,3.276
				c-2.654,0.427-5.415-3.014-6.165-7.683c-0.75-4.67-1.604-10.293,0.845-9.181C253.518,843.624,256.396,847.36,261.325,851.142z"/>
			<path fill="#262626" d="M310.258,867.53c3.865,0.723-6.47,11.185-8.85,12.753c-2.38,1.57-3.583-3.417-5.685-7.997
				c-2.294-4.998-3.908-10.073-1.052-10.059C298.107,862.245,303.766,866.316,310.258,867.53z"/>
		</g>
		<g>
			<path fill="#262626" d="M966.502,804.732c0.602,1.666,4.119,2.357,7.283,3.404c2.893,0.958,5.395,2.385,7.01,1.645
				c3.384-1.548,2.725-8.471,0.2-13.985c-2.525-5.517-6.222-10.698-8.253-7.57C969.843,792.686,965.279,801.345,966.502,804.732z"/>
			<path fill="#262626" d="M924.519,830.522c-2.054,4.259,5.716,4.429,8.401,4.299c1.838-0.089,1.799-3.726,1.246-8.83
				c-0.51-4.702-2.349-10.313-4.035-8.217C928.103,820.294,927.216,824.927,924.519,830.522z"/>
			<path fill="#262626" d="M953.923,851.494c-1.407,1.079-5.526,4.154-4.175,4.733c2.625,1.125,7.949,3.01,9.608,3.276
				c2.654,0.427,5.415-3.014,6.165-7.683c0.75-4.67,1.604-10.293-0.846-9.181C961.73,843.977,958.852,847.713,953.923,851.494z"/>
			<path fill="#262626" d="M904.99,867.883c-3.865,0.723,6.471,11.185,8.85,12.753c2.38,1.57,3.582-3.417,5.685-7.997
				c2.294-4.998,3.908-10.073,1.052-10.059C917.141,862.598,911.482,866.669,904.99,867.883z"/>
		</g>
	</g>
</g>
</svg>
