<svg width="2400" height="3200" xmlns="http://www.w3.org/2000/svg" viewBox="0 0 2400 3200"><path d="M 1033.67 714.84 C 1032.48 714.75 1030.07 714.5 1028.32 714.28 C 1026.58 714.06 1024.61 713.24 1023.95 712.44 C 1023.29 711.65 1022.44 711.0 1022.05 711.0 C 1021.67 711.0 1015.99 705.59 1009.43 698.97 C 1002.87 692.36 995.62 684.82 993.33 682.22 C 991.04 679.63 987.84 675.92 986.22 674.0 C 984.6 672.08 981.15 667.17 978.55 663.11 C 975.96 659.04 973.67 654.88 973.47 653.85 C 973.27 652.83 972.79 651.47 972.39 650.82 C 971.99 650.18 971.26 647.82 970.77 645.58 C 970.28 643.33 969.66 640.15 969.41 638.5 C 969.15 636.85 968.94 631.11 968.94 625.75 C 968.94 619.9 969.58 613.69 970.54 610.25 C 971.42 607.09 972.63 603.15 973.25 601.5 C 973.86 599.85 975.97 596.02 977.93 593.0 C 979.89 589.98 981.72 586.99 982.0 586.37 C 982.27 585.75 984.08 583.29 986.0 580.9 C 987.92 578.51 990.57 575.54 991.88 574.29 C 993.19 573.04 996.79 570.82 999.88 569.34 C 1004.57 567.1 1006.93 566.65 1014.17 566.58 C 1021.66 566.51 1023.24 566.8 1025.88 568.75 C 1027.55 569.99 1029.5 571.01 1030.21 571.03 C 1030.92 571.05 1032.4 571.78 1033.5 572.65 C 1034.6 573.52 1035.05 574.41 1034.5 574.63 C 1033.95 574.85 1032.92 575.4 1032.21 575.85 C 1031.24 576.46 1031.18 577.34 1031.96 579.4 C 1032.53 580.9 1033.0 583.0 1033.0 584.07 C 1033.0 585.13 1032.66 585.99 1032.25 585.98 C 1031.84 585.98 1029.92 584.57 1028.0 582.86 C 1026.08 581.15 1022.63 578.94 1020.34 577.95 C 1018.06 576.96 1014.13 575.84 1011.62 575.47 C 1007.76 574.89 1006.05 575.25 1000.51 577.85 C 996.42 579.76 992.02 582.9 988.83 586.18 C 986.01 589.07 982.7 593.6 981.47 596.26 C 980.24 598.91 978.41 601.99 977.4 603.11 C 975.85 604.83 975.56 606.88 975.55 616.32 C 975.55 622.47 975.83 628.85 976.17 630.5 C 976.52 632.15 977.32 636.65 977.96 640.5 C 978.6 644.35 979.81 649.3 980.66 651.5 C 981.51 653.7 983.38 658.2 984.82 661.5 C 986.26 664.8 988.7 669.39 990.24 671.71 C 991.78 674.02 999.02 681.96 1006.33 689.34 C 1015.01 698.12 1021.36 703.65 1024.64 705.32 C 1027.4 706.72 1032.37 708.17 1035.69 708.54 C 1039.82 709.01 1042.46 708.83 1044.11 707.96 C 1045.42 707.26 1047.23 705.86 1048.12 704.84 C 1049.01 703.83 1050.24 703.0 1050.87 703.0 C 1051.49 703.0 1052.0 703.83 1052.0 704.85 C 1052.0 705.86 1051.16 707.66 1050.13 708.85 C 1049.11 710.03 1047.76 711.0 1047.13 711.0 C 1046.51 711.0 1046.0 711.37 1046.0 711.83 C 1046.0 712.28 1043.72 713.18 1040.92 713.83 C 1038.13 714.47 1034.87 714.93 1033.67 714.84 Z M 1397.94 714.36 C 1396.05 714.58 1392.6 714.45 1390.29 714.07 C 1387.97 713.69 1385.04 712.51 1383.79 711.46 C 1382.53 710.41 1380.94 708.89 1380.25 708.08 C 1379.56 707.28 1379.0 705.58 1379.0 704.31 C 1379.0 703.04 1379.27 702.0 1379.59 702.0 C 1379.92 702.0 1382.05 703.61 1384.34 705.59 C 1388.18 708.9 1388.9 709.14 1393.68 708.76 C 1396.77 708.51 1401.4 707.08 1405.18 705.21 C 1408.65 703.48 1413.62 700.37 1416.2 698.29 C 1418.79 696.2 1420.94 694.05 1420.98 693.5 C 1421.03 692.95 1422.15 691.26 1423.48 689.75 C 1424.81 688.24 1426.11 687.0 1426.36 687.0 C 1426.61 687.0 1429.89 683.82 1433.66 679.93 C 1438.11 675.33 1441.84 670.22 1444.34 665.28 C 1446.45 661.12 1448.32 656.99 1448.5 656.1 C 1448.69 655.22 1449.61 652.7 1450.56 650.5 C 1451.51 648.3 1452.45 644.92 1452.65 643.0 C 1452.84 641.08 1453.73 636.45 1454.62 632.72 C 1455.75 627.95 1456.1 623.06 1455.78 616.22 C 1455.36 607.01 1455.1 606.08 1450.96 598.5 C 1448.24 593.52 1444.26 588.23 1440.43 584.5 C 1436.37 580.53 1432.6 577.89 1429.35 576.72 C 1425.24 575.25 1423.29 575.11 1417.69 575.9 C 1412.46 576.64 1409.89 577.64 1406.11 580.42 C 1403.44 582.38 1400.55 585.0 1399.68 586.24 C 1398.12 588.48 1398.1 588.47 1398.05 584.88 C 1398.02 582.63 1398.81 580.23 1400.17 578.51 C 1402.28 575.83 1402.28 575.78 1400.31 576.4 C 1399.19 576.76 1397.54 576.76 1396.64 576.42 C 1395.74 576.07 1395.0 575.27 1395.0 574.63 C 1395.0 574.0 1396.01 572.83 1397.25 572.03 C 1398.49 571.23 1400.06 570.7 1400.75 570.83 C 1401.44 570.97 1402.0 570.65 1402.0 570.12 C 1402.0 569.59 1403.69 568.59 1405.75 567.9 C 1407.81 567.21 1410.62 566.43 1412.0 566.17 C 1413.38 565.92 1416.75 565.77 1419.5 565.84 C 1422.25 565.92 1425.4 566.39 1426.5 566.89 C 1427.6 567.39 1429.98 568.36 1431.8 569.04 C 1433.61 569.72 1437.33 572.58 1440.07 575.39 C 1442.8 578.2 1447.73 584.52 1451.02 589.43 C 1455.09 595.52 1457.81 600.99 1459.56 606.6 C 1461.53 612.91 1462.19 617.37 1462.38 625.67 C 1462.52 631.63 1462.23 637.85 1461.74 639.5 C 1461.25 641.15 1460.62 644.08 1460.33 646.0 C 1460.05 647.92 1459.41 649.93 1458.91 650.45 C 1458.41 650.97 1458.0 652.02 1458.0 652.78 C 1458.0 653.53 1456.24 657.15 1454.1 660.83 C 1451.95 664.5 1446.74 671.55 1442.52 676.5 C 1438.3 681.45 1429.18 691.27 1422.25 698.32 C 1412.81 707.93 1408.61 711.49 1405.51 712.55 C 1403.24 713.32 1399.83 714.13 1397.94 714.36 Z M 1037.8 685.53 C 1037.52 685.81 1036.78 685.44 1036.16 684.7 C 1035.55 683.95 1034.35 681.68 1033.5 679.65 C 1032.65 677.62 1031.91 674.05 1031.85 671.73 C 1031.79 669.4 1032.02 664.85 1032.37 661.61 C 1032.71 658.37 1033.39 655.22 1033.88 654.61 C 1034.37 654.0 1035.21 651.4 1035.75 648.83 C 1036.36 645.91 1036.38 641.98 1035.81 638.33 C 1035.31 635.12 1034.47 632.07 1033.95 631.55 C 1033.43 631.03 1033.0 629.82 1033.0 628.87 C 1033.0 627.91 1032.16 626.87 1031.12 626.54 C 1029.9 626.15 1029.04 624.64 1028.65 622.22 C 1028.32 620.17 1027.03 617.18 1025.78 615.58 C 1024.52 613.97 1021.7 610.4 1019.5 607.65 C 1017.3 604.91 1013.48 601.27 1011.0 599.58 C 1008.52 597.89 1005.1 596.0 1003.38 595.39 C 1000.9 594.5 999.76 594.58 997.81 595.76 C 996.46 596.58 994.04 599.29 992.43 601.79 C 990.82 604.29 988.52 608.39 987.33 610.92 C 985.4 615.02 985.16 615.21 985.08 612.79 C 985.04 611.29 985.93 607.72 987.07 604.83 C 988.2 601.95 990.45 598.33 992.06 596.79 C 993.67 595.26 995.37 594.0 995.84 594.0 C 996.31 594.0 997.73 593.1 999.0 592.0 C 1000.4 590.79 1002.74 590.0 1004.96 590.0 C 1007.45 590.0 1009.71 590.88 1012.04 592.75 C 1013.92 594.26 1017.84 597.7 1020.73 600.4 C 1023.63 603.09 1026.0 606.12 1026.0 607.15 C 1026.0 608.33 1026.72 609.0 1028.0 609.0 C 1029.1 609.0 1030.0 609.48 1030.0 610.06 C 1030.0 610.65 1031.06 613.46 1032.35 616.31 C 1033.65 619.17 1035.96 625.3 1037.5 629.94 C 1039.73 636.67 1040.31 640.34 1040.39 648.07 C 1040.48 655.68 1040.15 658.17 1038.88 659.63 C 1037.99 660.66 1036.91 662.85 1036.49 664.5 C 1036.07 666.15 1035.67 669.52 1035.61 672.0 C 1035.56 674.48 1036.14 678.41 1036.92 680.75 C 1037.69 683.1 1038.09 685.24 1037.8 685.53 Z M 1393.68 685.0 C 1393.19 685.0 1393.0 684.44 1393.27 683.75 C 1393.53 683.06 1394.31 679.97 1395.0 676.88 C 1396.1 671.96 1396.04 670.64 1394.52 666.38 C 1393.56 663.69 1392.09 660.1 1391.24 658.4 C 1390.06 656.02 1389.83 653.24 1390.24 646.4 C 1390.54 641.5 1391.53 635.25 1392.44 632.5 C 1393.35 629.75 1394.47 626.6 1394.91 625.5 C 1395.36 624.4 1397.02 620.59 1398.61 617.03 C 1400.2 613.47 1402.05 609.87 1402.73 609.03 C 1403.41 608.19 1406.56 604.79 1409.73 601.48 C 1412.9 598.18 1416.99 594.43 1418.81 593.16 C 1420.63 591.89 1423.55 590.63 1425.31 590.36 C 1427.84 589.97 1429.74 590.69 1434.5 593.83 C 1437.8 596.01 1441.12 598.83 1441.87 600.08 C 1442.63 601.34 1443.67 603.74 1444.2 605.43 C 1444.72 607.12 1445.35 610.08 1445.59 612.0 C 1445.97 615.02 1445.54 614.54 1442.46 608.5 C 1440.5 604.65 1437.15 599.79 1435.02 597.71 L 1431.15 593.91 C 1421.35 598.43 1417.6 600.63 1416.5 601.72 C 1415.4 602.81 1413.38 605.02 1412.0 606.64 C 1410.62 608.25 1408.07 611.62 1406.31 614.11 C 1404.56 616.61 1402.83 619.84 1402.46 621.29 C 1402.1 622.73 1401.17 624.44 1400.4 625.08 C 1399.63 625.72 1399.0 626.81 1399.0 627.5 C 1399.0 628.19 1398.36 629.29 1397.58 629.94 C 1396.8 630.58 1395.84 633.0 1395.45 635.3 C 1395.06 637.61 1394.76 641.81 1394.79 644.66 C 1394.81 647.5 1395.37 650.82 1396.02 652.03 C 1396.67 653.25 1397.4 656.1 1397.65 658.37 C 1397.9 660.64 1398.5 664.08 1398.98 666.0 C 1399.46 667.92 1399.52 671.53 1399.12 674.02 C 1398.72 676.5 1397.53 679.99 1396.48 681.77 C 1395.43 683.55 1394.17 685.0 1393.68 685.0 Z M 1025.9 649.43 C 1025.57 649.76 1023.77 648.68 1021.9 647.03 C 1020.03 645.38 1018.16 644.02 1017.75 644.02 C 1017.34 644.01 1017.0 643.55 1017.0 643.0 C 1017.0 642.45 1017.46 642.0 1018.01 642.0 C 1018.57 642.0 1020.71 643.54 1022.76 645.42 C 1024.81 647.3 1026.23 649.11 1025.9 649.43 Z M 1407.06 648.81 C 1406.31 649.06 1405.94 648.69 1406.19 647.94 C 1406.43 647.22 1407.22 646.43 1407.94 646.19 C 1408.69 645.94 1409.06 646.31 1408.81 647.06 C 1408.57 647.78 1407.78 648.57 1407.06 648.81 Z M 1410.47 646.0 C 1410.21 646.0 1410.0 645.57 1410.0 645.04 C 1410.0 644.5 1410.9 643.59 1412.0 643.0 C 1413.1 642.41 1414.0 641.3 1414.0 640.54 C 1414.0 639.78 1412.11 638.1 1409.8 636.82 C 1407.49 635.55 1404.75 633.04 1403.71 631.26 C 1402.68 629.48 1402.0 627.51 1402.2 626.89 C 1402.41 626.27 1403.66 627.34 1404.99 629.28 C 1406.31 631.21 1409.14 633.56 1411.27 634.5 C 1413.4 635.44 1415.49 637.15 1415.91 638.29 C 1416.5 639.88 1416.0 641.05 1413.81 643.19 C 1412.23 644.73 1410.72 646.0 1410.47 646.0 Z M 1017.15 639.53 C 1016.06 640.93 1014.9 641.64 1014.58 641.12 C 1014.26 640.6 1014.25 639.51 1014.57 638.68 C 1014.88 637.86 1016.43 636.65 1017.99 636.0 C 1019.56 635.35 1022.12 633.52 1023.67 631.94 C 1025.23 630.35 1026.84 629.04 1027.25 629.03 C 1027.66 629.01 1028.0 629.4 1028.0 629.89 C 1028.0 630.39 1026.69 632.19 1025.1 633.89 C 1023.5 635.6 1021.51 637.0 1020.67 637.0 C 1019.83 637.0 1018.25 638.14 1017.15 639.53 Z " opacity="1.0" fill="#000000" stroke="none" fill-rule="evenodd"/></svg>