<svg width="2400" height="3200" xmlns="http://www.w3.org/2000/svg" viewBox="0 0 2400 3200"><path d="M 1036.48 712.48 C 1034.84 712.76 1032.15 712.39 1030.5 711.65 C 1028.85 710.91 1026.15 709.17 1024.5 707.79 C 1022.85 706.41 1020.1 704.56 1018.38 703.68 C 1016.66 702.8 1010.39 697.23 1004.45 691.29 C 997.55 684.4 991.35 677.01 987.31 670.85 C 983.83 665.54 979.85 658.74 978.48 655.73 C 977.1 652.72 974.85 646.52 973.49 641.95 C 971.54 635.47 971.0 631.44 971.01 623.57 C 971.02 618.03 971.72 610.58 972.56 607.01 C 973.4 603.45 975.17 598.68 976.49 596.43 C 977.81 594.18 982.2 588.96 986.25 584.85 C 990.3 580.73 995.71 576.35 998.28 575.11 C 1001.29 573.65 1006.46 572.47 1012.91 571.77 C 1021.75 570.81 1023.43 570.89 1027.69 572.48 C 1030.34 573.46 1033.51 575.18 1034.74 576.3 C 1035.97 577.41 1038.51 581.29 1040.37 584.91 C 1042.24 588.54 1045.44 596.67 1047.48 603.0 C 1049.52 609.33 1052.02 618.77 1053.03 624.0 C 1054.04 629.23 1055.34 638.67 1055.93 645.0 C 1056.51 651.33 1056.99 663.7 1056.99 672.5 C 1056.99 681.3 1056.5 690.3 1055.9 692.5 C 1055.3 694.7 1052.95 698.92 1050.68 701.89 C 1048.41 704.85 1044.95 708.33 1043.01 709.61 C 1041.06 710.9 1038.12 712.19 1036.48 712.48 Z M 1394.63 713.0 C 1394.01 713.0 1391.56 712.04 1389.18 710.86 C 1386.62 709.59 1382.86 706.24 1379.91 702.61 C 1377.19 699.25 1374.46 694.7 1373.86 692.5 C 1373.12 689.83 1372.95 680.7 1373.33 665.0 C 1373.64 652.08 1374.4 638.12 1375.01 634.0 C 1375.63 629.88 1377.06 622.67 1378.19 618.0 C 1379.32 613.33 1381.59 605.45 1383.24 600.5 C 1384.88 595.55 1387.71 588.58 1389.51 585.0 C 1391.32 581.42 1393.86 577.55 1395.15 576.38 C 1396.44 575.22 1399.66 573.46 1402.31 572.48 C 1406.56 570.89 1408.26 570.81 1417.04 571.76 C 1423.64 572.48 1428.55 573.62 1431.69 575.17 C 1434.29 576.45 1439.86 580.99 1444.06 585.27 C 1448.36 589.64 1452.81 595.32 1454.25 598.27 C 1455.66 601.14 1457.3 606.17 1457.91 609.43 C 1458.51 612.7 1458.99 619.22 1458.98 623.93 C 1458.96 628.65 1458.54 634.08 1458.05 636.0 C 1457.55 637.92 1456.5 641.78 1455.71 644.57 C 1454.92 647.35 1452.89 652.53 1451.19 656.07 C 1449.49 659.6 1445.67 666.24 1442.7 670.81 C 1439.68 675.46 1432.38 684.16 1426.12 690.55 C 1419.97 696.84 1413.49 702.72 1411.72 703.63 C 1409.95 704.54 1407.21 706.36 1405.63 707.68 C 1404.05 709.0 1401.18 710.73 1399.26 711.54 C 1397.33 712.34 1395.25 713.0 1394.63 713.0 Z " opacity="1.0" fill="#000000" stroke="none" fill-rule="evenodd"/></svg>