<svg version="1.0" xmlns="http://www.w3.org/2000/svg"
 width="1200.000000pt" height="1600.000000pt" viewBox="0 0 1200.000000 1600.000000"
 preserveAspectRatio="xMidYMid meet">

<g transform="translate(0.000000,1600.000000) scale(0.100000,-0.100000)"
fill="#000000" stroke="none">
<path d="M4992 13119 c-45 -23 -104 -86 -121 -132 -18 -46 -13 -158 9 -221 39
-115 141 -241 243 -301 60 -34 87 -29 127 27 29 40 30 44 30 154 0 126 -14
245 -37 314 -31 95 -65 158 -89 169 -40 18 -115 13 -162 -10z"/>
<path d="M6993 13129 c-26 -14 -76 -120 -98 -209 -10 -39 -19 -128 -22 -225
l-5 -160 31 -42 c43 -59 68 -63 137 -22 79 47 158 138 207 238 41 82 42 88 42
182 0 93 -1 99 -31 141 -51 70 -103 102 -177 105 -34 1 -72 -2 -84 -8z"/>
</g>
</svg>
