<?xml version="1.0" standalone="no"?>
<!DOCTYPE svg PUBLIC "-//W3C//DTD SVG 20010904//EN"
 "http://www.w3.org/TR/2001/REC-SVG-20010904/DTD/svg10.dtd">
<svg version="1.0" xmlns="http://www.w3.org/2000/svg"
 width="1200.000000pt" height="1600.000000pt" viewBox="0 0 1200.000000 1600.000000"
 preserveAspectRatio="xMidYMid meet">

<g transform="translate(0.000000,1600.000000) scale(0.100000,-0.100000)"
fill="#000000" stroke="none">
<path d="M5314 14973 c-41 -37 -64 -81 -64 -122 0 -28 -4 -41 -13 -41 -42 0
-79 -96 -79 -204 0 -81 -8 -104 -107 -331 -19 -44 -62 -195 -81 -289 -21 -101
-25 -229 -11 -303 8 -40 7 -43 -13 -43 -34 -1 -59 -44 -51 -91 8 -47 75 -189
99 -209 14 -11 16 -24 11 -69 -10 -84 4 -108 118 -201 65 -54 84 -53 57 0 -11
22 -26 40 -34 40 -16 0 -106 94 -107 112 0 7 -2 23 -3 36 -2 13 4 27 13 32 11
6 13 13 6 23 -82 113 -115 186 -115 253 0 36 16 47 43 30 25 -15 37 7 27 50
-15 66 -12 292 5 367 25 114 73 252 130 379 53 116 53 117 52 215 -1 74 3 106
16 130 25 47 36 48 54 6 16 -37 16 -37 23 -13 4 14 5 39 2 57 -7 48 6 101 30
123 51 47 79 12 104 -127 20 -116 16 -220 -8 -226 -10 -3 -18 -14 -18 -26 0
-24 34 -96 59 -125 14 -16 12 -16 -19 3 -40 24 -126 29 -132 9 -3 -7 5 -33 18
-58 12 -25 25 -64 29 -87 l7 -43 -51 0 c-65 0 -121 -22 -121 -48 0 -10 11 -29
24 -41 38 -36 52 -78 33 -99 -31 -36 -116 -220 -128 -279 -13 -61 -7 -92 11
-63 18 29 18 4 0 -36 -22 -46 -36 -175 -26 -229 6 -28 11 -35 24 -31 15 5 17
-2 14 -59 -3 -46 1 -70 12 -86 14 -21 16 -21 22 -4 4 10 2 25 -4 35 -12 20
-18 137 -7 163 12 29 -5 34 -25 7 l-20 -25 0 45 c0 41 27 180 45 238 6 18 4
21 -9 16 -20 -8 -20 -6 0 70 17 66 76 175 127 233 l31 36 -53 49 c-50 46 -52
50 -35 63 24 17 94 28 127 20 17 -5 26 -2 30 9 7 18 -29 142 -43 151 -6 3 -10
15 -10 26 0 18 4 19 38 13 68 -12 110 -35 135 -72 29 -44 35 -62 47 -137 7
-46 6 -60 -5 -72 -22 -22 -29 -62 -18 -104 7 -27 6 -43 -2 -60 -22 -40 29
-149 68 -149 23 0 20 38 -5 60 -9 8 -20 27 -24 43 -5 23 -3 27 15 27 26 0 26
1 0 51 -24 47 -19 101 9 97 24 -4 18 62 -14 161 -21 64 -82 183 -104 201 -3 3
-13 17 -23 32 -21 34 -23 62 -2 54 12 -4 15 4 15 39 0 52 16 68 25 25 4 -16
11 -32 16 -35 5 -4 9 -13 9 -22 0 -17 51 -105 110 -193 21 -30 48 -75 60 -100
12 -25 27 -51 33 -58 6 -7 21 -39 34 -70 19 -47 23 -75 23 -164 0 -94 -3 -114
-27 -170 -15 -35 -33 -69 -40 -76 -7 -7 -13 -16 -13 -20 1 -4 15 9 33 29 19
22 44 71 61 122 26 75 29 92 23 165 -8 103 -34 167 -144 351 -98 164 -130 235
-197 438 -26 78 -56 153 -67 167 -24 30 -58 33 -85 9z"/>
<path d="M6757 14973 c-8 -10 -30 -63 -47 -118 -68 -211 -122 -339 -185 -440
-14 -22 -29 -49 -35 -60 -5 -11 -21 -38 -35 -60 -62 -98 -94 -181 -105 -271
-10 -86 -10 -92 18 -169 34 -97 59 -145 73 -145 8 0 8 4 0 13 -6 8 -22 44 -36
81 -45 119 -29 292 36 391 11 17 37 58 57 92 20 34 58 95 83 135 25 40 56 100
69 133 33 83 40 87 40 26 0 -48 2 -52 20 -46 31 10 25 -10 -34 -98 -70 -106
-80 -127 -104 -217 -32 -120 -32 -121 -14 -127 38 -14 43 -64 11 -117 l-21
-36 20 0 c12 0 23 -3 26 -8 7 -12 -22 -72 -35 -72 -7 0 -9 -3 -6 -6 3 -4 2
-15 -4 -25 -8 -16 -6 -19 11 -19 28 0 74 72 72 113 0 18 -1 63 -1 101 0 46 -5
76 -17 93 -33 52 5 196 66 247 31 25 128 52 141 39 5 -5 -3 -31 -17 -59 -14
-28 -26 -70 -27 -95 l-2 -44 61 -1 c59 -1 104 -16 104 -34 0 -4 -23 -29 -51
-53 l-51 -45 30 -32 c30 -31 97 -139 120 -192 6 -15 14 -51 17 -80 6 -49 5
-52 -9 -34 -18 23 -21 5 -5 -26 18 -34 39 -148 39 -213 0 -57 -1 -58 -16 -37
-8 12 -18 22 -22 22 -4 0 -6 -40 -4 -89 2 -53 -1 -98 -8 -110 -7 -13 -7 -27
-2 -37 15 -27 37 43 34 110 -3 51 -1 58 11 48 12 -10 16 -7 22 20 12 56 5 160
-16 220 -22 67 -23 76 -7 60 22 -22 25 -13 16 46 -8 58 -80 217 -125 279 -23
31 -23 34 -7 64 9 18 27 42 41 55 25 23 25 25 9 49 -9 14 -26 26 -39 27 -12 1
-38 2 -57 3 -19 1 -41 3 -47 4 -21 2 -15 62 12 119 38 82 35 87 -40 82 -16 -1
-43 -9 -59 -17 -15 -8 -27 -11 -25 -6 2 4 17 32 32 61 28 54 29 92 1 92 -8 0
-14 11 -15 28 0 15 -2 36 -5 47 -6 31 24 215 43 258 20 45 52 50 82 11 18 -23
21 -40 20 -111 -1 -46 1 -86 4 -89 3 -3 13 13 23 35 17 38 19 40 36 24 27 -24
40 -86 37 -177 -3 -77 -1 -85 40 -171 56 -116 106 -257 133 -370 17 -72 21
-120 20 -235 -1 -80 -2 -161 -4 -180 -3 -34 -2 -35 30 -32 42 4 47 -11 27 -88
-14 -56 -42 -106 -102 -189 -16 -22 -16 -24 0 -33 19 -10 22 -50 6 -80 -19
-36 -69 -86 -97 -97 -15 -6 -33 -25 -41 -42 -29 -65 13 -50 108 41 l74 71 -6
66 c-4 60 -2 70 19 98 37 49 94 180 94 217 0 41 -24 78 -50 78 -18 0 -19 5
-14 63 3 34 7 67 9 74 7 23 -15 196 -36 276 -31 123 -83 274 -129 372 -37 81
-40 95 -43 189 -4 114 -28 179 -72 196 -21 8 -25 16 -25 47 0 64 -60 133 -114
133 -7 0 -20 -8 -29 -17z"/>
<path d="M5171 13214 c0 -11 3 -14 6 -6 3 7 2 16 -1 19 -3 4 -6 -2 -5 -13z"/>
<path d="M5176 12935 c4 -8 10 -12 15 -9 14 8 10 24 -6 24 -9 0 -12 -6 -9 -15z"/>
<path d="M6960 12934 c0 -8 5 -12 10 -9 6 3 10 10 10 16 0 5 -4 9 -10 9 -5 0
-10 -7 -10 -16z"/>
</g>
</svg>
