<svg version="1.0" xmlns="http://www.w3.org/2000/svg"
 width="1200.000000pt" height="1600.000000pt" viewBox="0 0 1200.000000 1600.000000"
 preserveAspectRatio="xMidYMid meet">

<g transform="translate(0.000000,1600.000000) scale(0.100000,-0.100000)"
fill="#000000" stroke="none">
<path d="M6145 14013 c-67 -25 -72 -25 -135 -12 -109 23 -257 16 -395 -19
-134 -34 -153 -41 -210 -77 -22 -14 -47 -28 -55 -32 -26 -11 -142 -106 -181
-148 -54 -57 -134 -215 -159 -315 -21 -79 -22 -100 -16 -290 3 -113 9 -229 12
-258 l7 -53 41 6 c63 9 96 25 112 56 8 16 21 29 29 29 8 0 15 4 15 9 0 23 274
101 419 120 118 16 219 24 299 26 l73 1 22 43 c26 52 31 43 14 -25 -8 -32 -10
-60 -5 -74 5 -13 4 -38 -2 -58 -6 -22 -6 -40 -1 -45 14 -14 58 80 86 181 l24
87 0 -65 c1 -70 9 -110 21 -110 4 0 18 16 31 36 23 34 26 35 69 30 25 -3 97
-10 161 -16 215 -18 469 -83 531 -137 9 -8 25 -13 35 -12 27 5 43 -9 43 -36 0
-25 13 -32 72 -40 l35 -4 12 82 c6 45 11 169 11 276 0 168 -3 203 -21 265 -26
87 -79 195 -127 259 -41 54 -163 157 -222 187 -22 11 -43 26 -47 34 -9 17
-186 69 -295 86 -42 7 -107 11 -146 8 -52 -3 -68 -1 -61 8 10 12 2 24 -15 23
-6 0 -42 -12 -81 -26z m45 -21 c0 -5 48 -12 108 -16 151 -9 225 -23 307 -56
162 -68 298 -170 378 -282 89 -126 106 -159 128 -256 20 -87 21 -111 14 -276
-8 -203 -18 -246 -59 -246 -15 0 -26 5 -26 10 0 6 3 10 8 10 4 0 8 44 9 98 3
97 -7 103 -21 12 -10 -68 -15 -73 -61 -50 -136 67 -346 113 -610 135 -159 12
-160 12 -175 -9 -14 -19 -15 -10 -20 114 -3 79 0 184 8 254 7 65 11 123 10
128 -2 5 -22 -82 -45 -194 -50 -240 -78 -349 -85 -328 -2 8 -1 31 4 50 12 49
38 230 37 260 0 21 -28 -51 -93 -237 -10 -31 -14 -33 -56 -31 -80 3 -272 -13
-397 -33 -137 -21 -253 -55 -362 -105 -41 -19 -75 -33 -76 -32 -1 2 -7 21 -13
43 -11 38 -11 38 -6 -20 2 -32 10 -63 17 -67 18 -11 2 -20 -26 -13 -42 11 -50
51 -55 265 -3 173 -1 204 17 279 18 73 59 164 81 181 3 3 22 28 40 55 19 28
50 66 70 85 71 72 223 166 343 214 85 34 302 47 429 25 63 -11 69 -11 115 13
55 29 63 31 63 20z"/>
</g>
</svg>
<svg version="1.0" xmlns="http://www.w3.org/2000/svg"
 width="1200.000000pt" height="1600.000000pt" viewBox="0 0 1200.000000 1600.000000"
 preserveAspectRatio="xMidYMid meet">

<g transform="translate(0.000000,1600.000000) scale(0.100000,-0.100000)"
fill="#000000" stroke="none">
<path d="M6483 14153 c-7 -3 -58 -13 -115 -23 -137 -24 -492 -22 -613 3 -86
18 -145 22 -145 9 0 -4 -30 -16 -67 -25 -76 -20 -173 -64 -173 -78 0 -5 -4 -9
-10 -9 -37 0 -229 -155 -286 -232 -17 -22 -116 -183 -115 -185 4 -11 -1 -33
-6 -30 -5 3 -8 -7 -9 -21 0 -15 -8 -54 -18 -87 -26 -95 -38 -248 -28 -356 5
-52 8 -108 5 -126 -4 -24 1 -40 22 -67 l27 -35 48 37 c27 20 59 44 71 52 16
12 23 30 28 75 l7 60 8 -63 c4 -34 11 -64 15 -66 4 -3 41 -2 83 1 l76 6 -1
161 c-1 156 5 213 39 359 15 61 21 72 73 118 31 28 83 63 116 79 70 33 244 77
328 83 l58 4 39 -45 c24 -28 48 -46 64 -48 31 -3 31 0 6 46 -17 30 -19 31 -14
9 3 -15 1 -30 -5 -33 -6 -4 -9 -1 -5 7 3 8 -13 28 -41 49 -43 34 -52 37 -140
43 -51 4 -97 5 -102 2 -5 -3 -29 -8 -53 -12 -25 -4 -46 -11 -48 -16 -3 -8 -96
-59 -108 -59 -2 0 3 11 12 25 10 15 12 25 5 25 -6 0 -17 -15 -24 -32 -12 -28
-101 -116 -127 -126 -21 -8 14 95 52 150 64 95 206 218 252 218 8 0 18 5 22
11 8 14 -27 4 -81 -23 -42 -21 -134 -95 -172 -137 -30 -34 -97 -159 -135 -255
l-33 -81 -3 -240 -3 -241 -56 -10 -56 -10 -13 33 c-8 18 -14 41 -14 52 0 11
-7 27 -16 36 -11 11 -15 26 -10 48 3 20 2 26 -3 17 -7 -13 -22 -109 -25 -167
-1 -15 -6 -21 -16 -18 -8 2 -35 -14 -60 -35 l-44 -40 -13 22 c-10 20 -9 25 7
39 18 16 19 24 11 100 -21 215 -7 374 44 484 7 17 19 43 25 59 29 77 223 316
256 316 6 0 23 9 38 21 14 11 26 18 26 14 0 -4 24 7 54 24 29 17 61 31 70 31
9 0 16 6 16 14 0 17 142 48 218 47 73 0 227 -19 271 -33 45 -14 154 -14 217 0
27 6 99 18 159 26 102 14 118 14 214 -2 73 -13 106 -23 113 -35 5 -9 15 -17
23 -17 7 0 21 -7 29 -16 9 -8 16 -13 16 -9 0 3 12 -1 28 -9 15 -9 38 -21 52
-26 47 -20 69 -36 142 -106 87 -81 107 -108 141 -190 63 -148 97 -337 99 -534
0 -111 4 -149 15 -162 12 -13 12 -21 3 -38 -11 -21 -12 -20 -56 20 -25 23 -51
40 -58 37 -6 -3 -13 3 -14 12 -8 71 -30 191 -31 172 -1 -23 -24 -108 -43 -162
-10 -27 -8 -27 -91 -14 l-38 6 7 182 c8 222 -2 298 -56 421 -89 201 -188 315
-323 371 -54 22 -36 -1 21 -27 60 -28 188 -157 225 -225 24 -45 45 -123 33
-123 -3 0 -11 6 -18 13 -29 28 -105 85 -143 107 -55 32 -199 77 -238 75 -18
-1 -57 -2 -88 -3 -46 -2 -63 -8 -95 -33 -47 -37 -58 -54 -46 -75 7 -13 14 -9
37 23 16 21 34 42 39 46 13 9 147 1 214 -13 139 -30 244 -84 324 -167 32 -33
39 -50 60 -143 19 -87 23 -136 23 -282 0 -97 2 -178 5 -181 9 -8 138 -17 154
-11 10 4 16 19 17 43 0 20 4 45 9 56 7 16 9 12 9 -20 2 -62 10 -80 44 -100 18
-10 46 -31 64 -48 l32 -30 25 29 c14 16 29 40 32 53 11 37 -4 328 -20 401 -21
95 -57 253 -60 265 -15 50 -110 189 -167 245 -25 25 -79 68 -120 95 -41 28
-76 53 -79 56 -12 15 -151 79 -201 92 -30 9 -67 20 -84 25 -16 5 -35 7 -42 5z"/>
<path d="M5760 14098 c8 -8 100 -37 100 -32 0 2 -11 9 -25 14 -34 13 -81 24
-75 18z"/>
<path d="M6288 14064 c-38 -20 -36 -28 2 -9 17 9 30 18 30 20 0 7 -1 6 -32
-11z"/>
<path d="M5620 14055 c-22 -8 -28 -13 -15 -13 11 0 36 6 55 13 22 8 28 13 15
13 -11 0 -36 -6 -55 -13z"/>
<path d="M5905 14056 c23 -18 14 -21 -18 -6 -20 10 -20 9 -3 -2 33 -22 126
-121 126 -134 0 -7 6 -19 13 -26 8 -7 20 -25 27 -38 7 -14 15 -20 17 -13 2 6
-5 29 -15 50 -25 47 -132 175 -152 181 -9 3 -7 -2 5 -12z"/>
<path d="M6239 14057 c-8 -7 -36 -38 -62 -70 -26 -32 -47 -54 -47 -50 0 4 -11
-16 -25 -45 -29 -62 -32 -80 -10 -58 8 8 15 22 15 30 0 9 4 16 10 16 5 0 17
14 26 31 8 17 32 50 52 73 32 35 67 87 60 86 -2 0 -10 -6 -19 -13z"/>
<path d="M6545 14040 c27 -12 43 -12 25 0 -8 5 -22 9 -30 9 -10 0 -8 -3 5 -9z"/>
<path d="M5708 14023 c6 -2 18 -2 25 0 6 3 1 5 -13 5 -14 0 -19 -2 -12 -5z"/>
<path d="M5811 14001 c74 -48 221 -208 225 -245 0 -6 2 -24 2 -39 1 -17 6 -26
13 -21 6 3 8 17 5 30 -7 25 8 34 17 12 4 -10 8 -9 16 2 8 12 11 7 11 -20 0
-26 3 -31 10 -20 5 8 10 28 10 44 0 51 161 229 244 270 l31 16 -31 0 c-47 0
-134 -72 -211 -175 -38 -50 -50 -60 -77 -61 -26 0 -36 6 -54 35 -59 92 -184
201 -230 201 -23 0 -21 -3 19 -29z"/>
<path d="M5520 14010 l-25 -8 25 -1 c14 0 32 4 40 9 13 9 13 10 0 9 -8 -1 -26
-5 -40 -9z"/>
<path d="M6142 13750 c-16 -26 -16 -51 1 -45 9 4 21 65 13 65 -1 0 -7 -9 -14
-20z"/>
<path d="M4921 13534 c0 -11 3 -14 6 -6 3 7 2 16 -1 19 -3 4 -6 -2 -5 -13z"/>
</g>
</svg>
