<?xml version="1.0" standalone="no"?>
<!DOCTYPE svg PUBLIC "-//W3C//DTD SVG 20010904//EN"
 "http://www.w3.org/TR/2001/REC-SVG-20010904/DTD/svg10.dtd">
<svg version="1.0" xmlns="http://www.w3.org/2000/svg"
 width="1200.000000pt" height="1600.000000pt" viewBox="0 0 1200.000000 1600.000000"
 preserveAspectRatio="xMidYMid meet">

<g transform="translate(0.000000,1600.000000) scale(0.100000,-0.100000)"
fill="#000000" stroke="none">
<path d="M6196 9613 c-4 -5 -121 -8 -259 -9 -217 0 -260 -3 -307 -19 -33 -11
-48 -20 -37 -22 21 -5 21 -12 1 -34 -15 -16 -11 -16 37 2 29 11 85 22 124 25
l70 4 -105 -30 c-58 -16 -114 -30 -125 -30 -14 0 -16 -3 -7 -8 19 -12 11 -111
-9 -117 -27 -9 -35 -46 -29 -130 l5 -80 41 38 c56 50 105 34 56 -19 -10 -11
-22 -32 -25 -46 -4 -16 -30 -45 -66 -72 -80 -62 -93 -83 -75 -124 8 -21 20
-32 33 -32 18 0 21 -5 17 -42 -4 -49 -19 -59 -40 -26 -13 19 -25 24 -70 26
l-54 2 -90 -157 c-49 -87 -102 -185 -117 -218 -15 -33 -57 -121 -94 -195 -37
-74 -77 -160 -89 -190 -13 -30 -30 -68 -38 -85 -8 -16 -23 -57 -34 -90 -31
-97 -74 -214 -117 -315 -98 -229 -129 -362 -132 -556 -1 -59 -4 -112 -7 -116
-16 -25 -26 -320 -30 -823 l-3 -560 -36 -170 c-20 -93 -43 -213 -51 -265 -19
-116 -70 -368 -96 -469 -17 -66 -41 -173 -54 -240 -5 -22 -13 -55 -55 -226 -6
-22 -14 -64 -20 -94 -5 -29 -14 -62 -20 -72 -5 -11 -8 -19 -5 -19 2 0 0 -16
-6 -36 -13 -50 -19 -77 -20 -91 -1 -7 -6 -13 -11 -13 -5 0 -7 -9 -4 -20 3 -11
1 -23 -5 -26 -5 -3 -7 -12 -4 -20 3 -8 2 -14 -2 -14 -4 0 -8 -19 -8 -41 -1
-23 -5 -44 -10 -48 -5 -3 -10 -15 -12 -26 -7 -48 -15 -82 -27 -112 -10 -24
-11 -33 -2 -37 8 -3 8 -5 -1 -5 -7 -1 -10 -6 -7 -11 3 -5 2 -10 -4 -10 -5 0
-9 -12 -7 -28 1 -15 -1 -32 -5 -37 -5 -6 -10 -26 -12 -45 -2 -19 -10 -48 -16
-64 -6 -16 -9 -31 -7 -33 3 -3 1 -16 -5 -30 -5 -13 -11 -45 -14 -71 -2 -26 -9
-65 -14 -87 -6 -22 -13 -78 -17 -125 -3 -47 -9 -86 -13 -88 -4 -1 -6 -32 -4
-69 1 -36 -2 -72 -7 -78 -10 -12 -10 -305 0 -305 5 0 8 -64 10 -182 1 -21 5
-40 11 -43 5 -4 6 -17 3 -31 -4 -14 1 -44 11 -70 9 -24 14 -51 11 -59 -3 -8
-1 -15 5 -15 7 0 9 -10 5 -25 -4 -15 -2 -25 4 -25 7 0 9 -8 5 -20 -3 -11 -3
-20 2 -20 4 0 9 -17 10 -37 1 -21 7 -39 13 -41 5 -2 10 -16 10 -32 0 -15 7
-33 15 -40 8 -7 13 -15 11 -19 -2 -3 1 -17 7 -31 12 -29 14 -42 21 -130 2 -36
10 -87 16 -114 13 -58 12 -241 -2 -294 -5 -20 -10 -45 -11 -54 -1 -10 -5 -18
-9 -18 -13 0 -9 -48 6 -83 7 -18 24 -41 38 -53 13 -11 40 -42 58 -67 32 -45
36 -47 82 -47 43 0 53 -5 100 -47 29 -27 87 -63 128 -82 41 -19 78 -39 81 -44
4 -6 21 -7 38 -4 16 4 33 2 36 -3 20 -32 151 -72 290 -89 44 -6 123 -17 176
-25 148 -24 663 -64 975 -76 281 -11 579 -4 799 20 50 6 155 15 235 20 344 23
462 48 885 187 208 68 383 150 580 273 83 51 183 113 223 136 48 29 101 73
150 126 137 146 201 208 214 208 8 0 32 9 53 21 29 15 70 23 145 29 115 9 323
50 404 81 108 40 286 228 363 384 44 88 51 117 62 250 6 66 13 133 17 149 5
22 4 27 -6 21 -10 -6 -12 -1 -7 26 5 24 4 30 -3 19 -5 -8 -10 -25 -10 -37 0
-12 -4 -25 -10 -28 -5 -3 -10 -1 -10 4 0 6 -4 11 -9 11 -10 0 -31 -77 -31
-117 0 -40 -180 -331 -223 -360 -43 -29 -295 -62 -362 -46 -25 6 -48 6 -53 1
-5 -5 -16 0 -27 12 l-19 21 -23 -27 c-13 -15 -29 -24 -37 -21 -20 8 -241 -110
-338 -180 -44 -32 -145 -120 -225 -195 -79 -76 -151 -138 -159 -138 -8 0 -17
-7 -20 -15 -4 -8 -11 -15 -18 -16 -6 0 -45 -25 -86 -55 -157 -114 -381 -255
-465 -293 -16 -7 -37 -17 -45 -22 -121 -68 -215 -100 -295 -103 -38 -1 -76 -5
-83 -9 -7 -5 -22 -5 -35 -1 -12 4 -45 8 -74 9 -44 1 -59 7 -107 44 -164 127
-467 557 -526 746 -6 22 -34 87 -60 146 -27 58 -58 136 -69 175 -11 38 -45
141 -75 229 -81 240 -117 427 -136 706 -5 85 -14 183 -19 219 -23 153 -34 413
-28 645 9 350 37 576 101 820 19 72 45 193 57 270 12 77 41 219 66 315 69 275
111 478 118 570 9 116 44 248 98 366 25 54 48 113 52 131 3 18 18 49 31 69 27
39 43 105 79 324 13 80 31 170 40 200 22 78 31 319 16 450 -7 58 -24 175 -38
260 -14 85 -28 184 -33 220 -4 36 -19 108 -33 160 -44 164 -97 343 -106 354
-5 6 -11 25 -15 41 -18 79 -225 460 -286 527 l-39 42 -41 -23 c-22 -12 -48
-20 -58 -16 -11 3 -34 -1 -53 -9 -39 -16 -63 -8 -57 19 2 11 21 24 49 34 25 9
60 28 78 44 l33 27 -35 41 c-20 22 -54 54 -76 70 -30 22 -50 52 -79 112 -22
45 -40 89 -40 97 0 8 -3 25 -7 36 -4 14 -2 23 9 27 11 4 26 -14 55 -69 23 -42
41 -80 41 -85 0 -5 5 -9 11 -9 18 0 3 119 -23 186 -21 54 -22 56 -52 49 -106
-21 -304 -47 -446 -56 -155 -11 -172 -10 -274 10 -59 11 -121 21 -136 21 -47
0 -43 16 8 38 181 78 502 94 732 38 129 -32 139 -32 116 -7 -27 30 -108 69
-160 76 -43 7 -47 9 -28 19 20 11 20 12 2 34 -14 17 -29 22 -62 22 -25 0 -48
-3 -52 -7z"/>
<path d="M5470 9531 c0 -10 19 -25 25 -20 1 2 -3 10 -11 17 -8 7 -14 8 -14 3z"/>
<path d="M6900 9222 c0 -4 31 -41 70 -82 38 -41 86 -103 107 -137 20 -35 41
-63 46 -63 4 0 -5 19 -21 43 -16 23 -36 56 -45 72 -9 17 -27 44 -42 60 -14 17
-42 49 -62 73 -34 40 -53 52 -53 34z"/>
<path d="M4776 8563 c-6 -14 -5 -15 5 -6 7 7 10 15 7 18 -3 3 -9 -2 -12 -12z"/>
<path d="M7832 7095 c0 -16 2 -22 5 -12 2 9 2 23 0 30 -3 6 -5 -1 -5 -18z"/>
<path d="M7852 6840 c0 -14 2 -19 5 -12 2 6 2 18 0 25 -3 6 -5 1 -5 -13z"/>
<path d="M7092 6068 c-26 -64 -62 -172 -62 -182 1 -6 19 36 41 93 22 58 38
109 37 113 -2 5 -9 -6 -16 -24z"/>
<path d="M1988 2573 c-14 -13 -20 -14 -32 -3 -26 21 -18 2 26 -63 120 -179
275 -344 467 -495 l114 -90 146 -41 c214 -59 453 -117 561 -135 135 -23 295
-32 304 -17 16 25 111 1 159 -41 30 -27 57 -36 57 -20 0 5 -3 12 -7 16 -5 4
-8 11 -8 14 0 4 -6 21 -12 37 -18 44 -36 89 -38 95 -1 3 -5 12 -8 20 -4 8 -11
35 -15 60 -5 27 -13 44 -21 42 -36 -7 -438 81 -651 144 -47 14 -107 31 -135
39 -205 55 -281 83 -419 152 -104 52 -269 143 -276 152 -3 3 -32 24 -64 46
-33 22 -64 44 -71 50 -65 58 -60 56 -77 38z"/>
<path d="M3811 1630 c14 -31 19 -36 19 -24 0 6 -7 19 -16 30 -14 18 -14 18 -3
-6z"/>
<path d="M3825 1580 c3 -5 8 -10 11 -10 2 0 4 5 4 10 0 6 -5 10 -11 10 -5 0
-7 -4 -4 -10z"/>
<path d="M3846 1527 c3 -10 9 -15 12 -12 3 3 0 11 -7 18 -10 9 -11 8 -5 -6z"/>
</g>
</svg>
