<svg width="2400" height="3200" xmlns="http://www.w3.org/2000/svg" viewBox="0 0 2400 3200"><path d="M 1215.78 1406.53 C 1215.01 1406.83 1212.39 1405.64 1209.94 1403.89 C 1207.5 1402.14 1204.67 1399.85 1203.65 1398.79 C 1202.63 1397.73 1202.03 1396.64 1202.3 1396.36 C 1202.58 1396.08 1204.7 1397.05 1207.01 1398.51 C 1209.32 1399.97 1212.74 1401.41 1214.61 1401.71 C 1217.39 1402.16 1218.0 1401.94 1218.0 1400.51 C 1218.0 1399.06 1217.43 1398.86 1214.78 1399.39 C 1212.84 1399.78 1211.95 1399.68 1212.53 1399.13 C 1213.06 1398.63 1214.51 1397.92 1215.75 1397.55 C 1216.99 1397.17 1218.0 1397.29 1218.0 1397.83 C 1218.0 1398.35 1218.7 1399.06 1219.56 1399.39 C 1220.42 1399.72 1222.43 1399.31 1224.01 1398.49 C 1225.6 1397.67 1227.39 1397.0 1227.98 1397.0 C 1228.58 1397.0 1226.79 1399.03 1224.0 1401.5 C 1221.21 1403.97 1218.54 1406.0 1218.05 1406.0 C 1217.56 1406.0 1216.54 1406.24 1215.78 1406.53 Z M 1064.56 1336.39 C 1062.68 1338.76 1062.08 1339.08 1062.05 1337.74 C 1062.02 1336.77 1062.42 1335.19 1062.94 1334.24 C 1063.45 1333.28 1065.2 1329.58 1066.81 1326.0 C 1068.43 1322.42 1071.18 1315.9 1072.94 1311.5 C 1074.7 1307.1 1076.49 1302.83 1076.92 1302.0 C 1077.34 1301.17 1078.25 1298.03 1078.94 1295.0 C 1079.62 1291.97 1080.6 1287.92 1081.1 1286.0 C 1081.61 1284.08 1082.41 1276.88 1082.89 1270.0 C 1083.36 1263.12 1083.62 1255.92 1083.46 1254.0 C 1083.3 1252.08 1082.45 1243.75 1081.57 1235.5 C 1080.69 1227.25 1079.3 1218.29 1078.48 1215.59 C 1077.67 1212.89 1077.0 1209.65 1077.0 1208.38 C 1077.0 1207.12 1074.72 1199.2 1071.93 1190.79 C 1069.15 1182.38 1066.64 1174.15 1066.36 1172.5 C 1066.09 1170.85 1065.2 1166.58 1064.38 1163.0 C 1063.56 1159.42 1062.21 1152.0 1061.37 1146.5 C 1060.32 1139.66 1059.61 1124.18 1059.13 1097.5 C 1058.66 1071.16 1058.05 1057.83 1057.27 1056.43 C 1056.64 1055.29 1056.12 1052.59 1056.12 1050.43 C 1056.12 1048.27 1055.64 1044.93 1055.06 1043.01 C 1054.48 1041.09 1054.0 1038.89 1054.0 1038.13 C 1054.0 1037.01 1054.28 1036.99 1055.52 1038.02 C 1056.36 1038.72 1056.85 1039.48 1056.61 1039.73 C 1056.36 1039.97 1057.18 1042.27 1058.42 1044.83 C 1059.66 1047.4 1061.46 1052.2 1062.44 1055.5 C 1063.41 1058.8 1065.06 1063.3 1066.11 1065.5 C 1067.15 1067.7 1068.0 1069.84 1068.0 1070.25 C 1068.0 1070.66 1067.11 1071.0 1066.02 1071.0 C 1064.24 1071.0 1064.1 1071.48 1064.65 1075.75 C 1064.99 1078.36 1065.87 1082.3 1066.62 1084.5 C 1067.36 1086.7 1067.98 1089.23 1067.99 1090.13 C 1067.99 1091.02 1068.7 1092.34 1069.57 1093.05 C 1070.43 1093.77 1071.72 1095.51 1072.44 1096.93 C 1073.16 1098.34 1074.06 1100.51 1074.44 1101.75 C 1074.86 1103.1 1074.71 1104.0 1074.08 1104.0 C 1073.49 1104.0 1071.81 1101.3 1070.34 1098.0 C 1068.87 1094.7 1067.29 1092.0 1066.83 1092.0 C 1066.37 1092.0 1066.0 1090.88 1066.0 1089.5 C 1066.0 1088.12 1065.59 1087.0 1065.08 1087.0 C 1064.58 1087.0 1063.97 1087.56 1063.73 1088.25 C 1063.49 1088.94 1063.47 1093.33 1063.68 1098.0 C 1063.89 1102.67 1064.53 1113.22 1065.09 1121.44 C 1065.65 1129.66 1066.76 1139.34 1067.55 1142.94 C 1068.35 1146.55 1069.89 1154.49 1070.99 1160.59 C 1072.09 1166.69 1073.86 1175.01 1074.93 1179.09 C 1076.0 1183.17 1077.59 1189.2 1078.47 1192.5 C 1079.35 1195.8 1080.45 1199.4 1080.92 1200.5 C 1081.39 1201.6 1082.48 1204.97 1083.36 1208.0 C 1084.23 1211.03 1085.61 1215.97 1086.42 1219.0 C 1087.22 1222.03 1088.25 1227.2 1088.69 1230.5 C 1089.14 1233.8 1089.5 1248.94 1089.5 1264.16 C 1089.5 1279.37 1089.84 1291.6 1090.25 1291.35 C 1090.66 1291.09 1091.0 1291.36 1091.0 1291.94 C 1091.0 1292.52 1090.38 1293.0 1089.61 1293.0 C 1088.81 1293.0 1087.94 1294.52 1087.55 1296.59 C 1087.18 1298.56 1086.38 1301.26 1085.78 1302.59 C 1085.17 1303.92 1084.3 1305.0 1083.84 1305.0 C 1083.38 1305.0 1083.0 1305.43 1083.0 1305.95 C 1083.0 1306.47 1079.41 1312.84 1075.02 1320.09 C 1070.63 1327.35 1065.92 1334.68 1064.56 1336.39 Z M 1369.08 1339.0 C 1368.62 1339.0 1367.14 1337.54 1365.79 1335.75 C 1364.44 1333.96 1361.18 1328.93 1358.54 1324.56 C 1355.9 1320.19 1352.66 1314.67 1351.33 1312.29 C 1350.0 1309.91 1347.81 1306.34 1346.46 1304.35 C 1345.11 1302.35 1343.52 1298.93 1342.93 1296.73 C 1342.33 1294.53 1341.63 1285.48 1341.37 1276.61 C 1341.1 1267.75 1340.82 1256.22 1340.73 1251.0 C 1340.65 1245.78 1340.94 1238.58 1341.37 1235.0 C 1341.8 1231.42 1342.54 1227.6 1343.0 1226.5 C 1343.46 1225.4 1344.09 1222.92 1344.4 1221.0 C 1344.7 1219.08 1345.9 1214.35 1347.05 1210.5 C 1348.21 1206.65 1350.5 1198.78 1352.14 1193.0 C 1353.78 1187.22 1355.74 1179.8 1356.49 1176.5 C 1357.24 1173.2 1358.57 1166.9 1359.44 1162.5 C 1360.31 1158.1 1361.91 1149.33 1363.0 1143.0 C 1364.09 1136.67 1365.49 1128.43 1366.1 1124.68 C 1366.71 1120.92 1367.34 1113.27 1367.51 1107.68 C 1367.68 1102.08 1367.58 1095.4 1367.29 1092.83 C 1366.94 1089.73 1366.35 1088.31 1365.55 1088.62 C 1364.89 1088.87 1363.7 1090.72 1362.92 1092.72 C 1362.14 1094.72 1360.96 1097.28 1360.29 1098.43 C 1359.63 1099.57 1358.63 1101.51 1358.07 1102.75 C 1357.51 1103.99 1356.59 1105.0 1356.02 1105.0 C 1355.46 1105.0 1355.0 1104.65 1355.0 1104.21 C 1355.0 1103.78 1355.86 1101.73 1356.92 1099.67 C 1357.97 1097.6 1359.4 1095.23 1360.09 1094.39 C 1360.78 1093.56 1362.23 1090.54 1363.29 1087.69 C 1364.36 1084.83 1365.45 1080.11 1365.72 1077.18 C 1366.09 1072.97 1365.84 1071.6 1364.51 1070.63 C 1362.95 1069.49 1362.97 1069.1 1364.8 1064.95 C 1365.88 1062.5 1367.31 1058.7 1367.97 1056.5 C 1368.63 1054.3 1370.29 1049.47 1371.67 1045.76 C 1373.04 1042.05 1374.63 1038.73 1375.19 1038.38 C 1375.86 1037.97 1376.01 1039.1 1375.63 1041.62 C 1375.3 1043.76 1374.8 1047.75 1374.51 1050.5 C 1374.22 1053.25 1373.55 1057.97 1373.01 1061.0 C 1372.47 1064.03 1372.09 1073.03 1372.17 1081.0 C 1372.24 1088.97 1372.0 1104.46 1371.64 1115.41 C 1371.28 1126.36 1370.54 1139.41 1369.99 1144.41 C 1369.45 1149.41 1368.3 1156.42 1367.44 1160.0 C 1366.59 1163.58 1365.46 1167.88 1364.94 1169.57 C 1364.42 1171.26 1364.0 1173.61 1364.0 1174.79 C 1364.0 1175.97 1363.36 1178.41 1362.57 1180.22 C 1361.79 1182.02 1360.95 1184.17 1360.7 1185.0 C 1360.46 1185.83 1360.18 1186.83 1360.08 1187.23 C 1359.99 1187.63 1359.23 1189.6 1358.4 1191.59 C 1357.56 1193.58 1357.11 1195.44 1357.38 1195.71 C 1357.65 1195.98 1357.4 1197.4 1356.82 1198.85 C 1356.24 1200.31 1354.89 1205.1 1353.82 1209.5 C 1352.74 1213.9 1351.0 1223.35 1349.94 1230.5 C 1348.75 1238.59 1348.0 1249.16 1347.97 1258.5 C 1347.94 1266.75 1348.38 1277.06 1348.95 1281.42 C 1349.53 1285.78 1350.51 1290.95 1351.14 1292.92 C 1351.76 1294.89 1352.64 1297.4 1353.08 1298.5 C 1353.51 1299.6 1354.18 1301.62 1354.54 1303.0 C 1354.91 1304.38 1357.7 1311.12 1360.73 1318.0 C 1363.76 1324.88 1367.07 1332.41 1368.08 1334.75 C 1369.1 1337.09 1369.55 1339.0 1369.08 1339.0 Z M 1136.12 1231.83 C 1135.45 1232.9 1135.15 1232.83 1134.64 1231.5 C 1134.29 1230.59 1134.0 1226.92 1134.0 1223.35 C 1134.0 1219.79 1134.47 1216.0 1135.04 1214.93 C 1135.6 1213.87 1136.68 1213.0 1137.43 1213.0 C 1138.49 1213.0 1138.6 1213.83 1137.92 1216.75 C 1137.44 1218.81 1137.03 1222.75 1137.01 1225.5 C 1136.99 1228.25 1136.59 1231.1 1136.12 1231.83 Z M 1296.3 1231.43 C 1295.8 1232.32 1295.08 1232.74 1294.69 1232.36 C 1294.31 1231.98 1294.0 1228.88 1294.0 1225.48 C 1294.0 1222.08 1293.5 1217.86 1292.88 1216.1 C 1292.27 1214.34 1292.06 1212.61 1292.41 1212.26 C 1292.76 1211.91 1293.82 1212.39 1294.76 1213.33 C 1295.97 1214.54 1296.57 1217.17 1296.84 1222.42 C 1297.04 1226.48 1296.8 1230.54 1296.3 1231.43 Z M 1279.21 1192.0 C 1278.72 1192.0 1277.54 1191.14 1276.59 1190.1 C 1275.62 1189.03 1275.29 1187.94 1275.82 1187.61 C 1276.35 1187.29 1277.2 1187.58 1277.73 1188.26 C 1278.26 1188.94 1279.01 1190.06 1279.4 1190.75 C 1279.8 1191.44 1279.71 1192.0 1279.21 1192.0 Z M 1157.07 1187.16 C 1156.11 1188.35 1155.05 1188.9 1154.73 1188.37 C 1154.41 1187.85 1155.57 1186.06 1157.32 1184.4 C 1159.07 1182.74 1162.78 1179.5 1165.56 1177.19 C 1168.35 1174.89 1170.98 1173.0 1171.42 1173.0 C 1171.86 1173.0 1173.85 1171.76 1175.86 1170.25 C 1177.87 1168.74 1180.41 1166.96 1181.5 1166.3 C 1182.6 1165.65 1186.38 1163.73 1189.9 1162.04 C 1193.42 1160.35 1196.5 1159.17 1196.75 1159.42 C 1197.0 1159.66 1196.89 1160.37 1196.51 1160.99 C 1196.12 1161.61 1193.41 1163.21 1190.47 1164.56 C 1187.53 1165.9 1184.65 1167.0 1184.06 1167.0 C 1183.48 1167.0 1183.0 1167.43 1183.0 1167.95 C 1183.0 1168.47 1181.76 1169.57 1180.25 1170.39 C 1178.74 1171.22 1176.6 1172.32 1175.5 1172.84 C 1174.4 1173.35 1172.24 1174.95 1170.7 1176.39 C 1169.16 1177.83 1167.57 1179.0 1167.17 1179.0 C 1166.77 1179.0 1164.97 1180.35 1163.16 1182.0 C 1161.35 1183.65 1159.64 1185.0 1159.35 1185.0 C 1159.06 1185.0 1158.03 1185.97 1157.07 1187.16 Z M 1269.85 1181.79 C 1269.66 1182.29 1268.37 1181.98 1266.98 1181.1 C 1265.59 1180.22 1261.99 1177.66 1258.98 1175.41 C 1255.97 1173.16 1250.8 1169.83 1247.5 1168.0 C 1244.2 1166.18 1240.83 1164.32 1240.0 1163.88 C 1239.17 1163.43 1236.44 1162.18 1233.91 1161.08 C 1231.39 1159.99 1228.75 1158.4 1228.04 1157.55 C 1227.33 1156.7 1227.04 1156.0 1227.39 1156.0 C 1227.74 1156.0 1228.81 1156.4 1229.76 1156.88 C 1230.72 1157.37 1232.85 1158.32 1234.5 1159.0 C 1236.15 1159.68 1238.17 1160.62 1239.0 1161.1 C 1239.83 1161.58 1242.08 1162.74 1244.0 1163.68 C 1245.92 1164.62 1248.17 1165.65 1249.0 1165.96 C 1249.83 1166.27 1253.54 1168.48 1257.25 1170.88 C 1260.96 1173.27 1264.0 1175.62 1264.0 1176.11 C 1264.0 1176.6 1264.61 1177.0 1265.35 1177.0 C 1266.08 1177.0 1267.48 1177.87 1268.45 1178.94 C 1269.41 1180.01 1270.05 1181.29 1269.85 1181.79 Z M 1202.25 1158.43 C 1200.85 1158.87 1200.0 1158.72 1200.0 1158.04 C 1200.0 1157.43 1200.79 1156.69 1201.75 1156.4 C 1202.71 1156.1 1204.28 1155.44 1205.24 1154.93 C 1206.19 1154.42 1207.49 1154.0 1208.12 1154.0 C 1208.75 1154.0 1208.2 1154.84 1206.88 1155.86 C 1205.57 1156.89 1203.49 1158.04 1202.25 1158.43 Z M 1080.19 1113.0 C 1079.74 1113.0 1078.61 1111.41 1077.69 1109.47 C 1076.76 1107.52 1076.0 1105.63 1076.0 1105.27 C 1076.0 1104.91 1077.12 1106.14 1078.5 1108.0 C 1079.88 1109.86 1081.0 1111.75 1081.0 1112.19 C 1081.0 1112.64 1080.63 1113.0 1080.19 1113.0 Z M 1352.53 1110.69 C 1351.17 1112.24 1350.05 1112.92 1350.03 1112.21 C 1350.01 1111.51 1350.73 1109.82 1351.62 1108.46 C 1352.5 1107.11 1353.63 1106.0 1354.12 1106.0 C 1354.6 1106.0 1355.0 1106.42 1355.0 1106.94 C 1355.0 1107.46 1353.89 1109.15 1352.53 1110.69 Z M 1149.0 1097.44 C 1145.97 1097.56 1138.89 1097.28 1133.26 1096.81 C 1124.77 1096.09 1122.09 1095.43 1117.6 1092.97 C 1114.63 1091.34 1111.69 1090.0 1111.08 1090.0 C 1110.46 1090.0 1107.0 1088.2 1103.38 1086.0 C 1099.76 1083.8 1096.46 1082.0 1096.05 1082.0 C 1095.64 1082.0 1094.5 1081.1 1093.5 1080.0 C 1092.5 1078.9 1091.08 1078.0 1090.35 1078.0 C 1089.61 1078.0 1089.0 1077.55 1089.0 1077.0 C 1089.0 1076.45 1088.52 1076.0 1087.93 1076.0 C 1087.34 1076.0 1086.17 1075.31 1085.32 1074.47 C 1084.2 1073.34 1083.44 1073.22 1082.48 1074.01 C 1081.77 1074.61 1080.96 1074.74 1080.7 1074.3 C 1080.43 1073.86 1079.04 1071.39 1077.61 1068.81 C 1076.17 1066.23 1075.0 1063.64 1075.0 1063.06 C 1075.0 1062.48 1075.65 1062.0 1076.45 1062.0 C 1077.25 1062.0 1078.26 1062.6 1078.7 1063.34 C 1079.14 1064.07 1080.22 1065.09 1081.1 1065.59 C 1081.99 1066.09 1084.93 1068.42 1087.65 1070.76 C 1090.37 1073.11 1096.14 1077.04 1100.47 1079.51 C 1104.8 1081.98 1108.91 1084.0 1109.61 1084.0 C 1110.31 1084.0 1111.12 1084.39 1111.42 1084.87 C 1111.71 1085.34 1115.0 1086.67 1118.73 1087.81 C 1122.45 1088.95 1127.08 1090.16 1129.0 1090.49 C 1130.92 1090.82 1134.75 1091.47 1137.5 1091.94 C 1140.25 1092.41 1143.53 1093.12 1144.79 1093.53 C 1146.05 1093.93 1149.88 1093.72 1153.29 1093.07 C 1156.71 1092.41 1161.3 1091.41 1163.5 1090.83 C 1165.7 1090.25 1168.4 1089.44 1169.5 1089.02 C 1170.6 1088.61 1174.31 1087.33 1177.75 1086.18 C 1181.19 1085.02 1184.0 1084.46 1184.0 1084.92 C 1184.0 1085.38 1183.44 1086.18 1182.75 1086.71 C 1182.06 1087.24 1179.92 1088.24 1178.0 1088.93 C 1176.08 1089.63 1173.6 1090.54 1172.5 1090.96 C 1171.4 1091.38 1168.89 1092.24 1166.93 1092.86 C 1164.96 1093.49 1162.71 1094.0 1161.93 1094.01 C 1161.14 1094.01 1159.15 1094.73 1157.5 1095.61 C 1155.85 1096.48 1152.03 1097.31 1149.0 1097.44 Z M 1285.87 1097.8 C 1281.55 1097.65 1276.7 1097.06 1275.08 1096.51 C 1273.47 1095.95 1271.81 1095.16 1271.41 1094.75 C 1271.0 1094.34 1269.73 1093.99 1268.58 1093.99 C 1267.44 1093.98 1264.48 1093.27 1262.01 1092.41 C 1259.54 1091.55 1257.06 1090.49 1256.51 1090.07 C 1255.95 1089.64 1253.14 1088.47 1250.25 1087.45 C 1247.36 1086.44 1245.0 1085.24 1245.0 1084.8 C 1245.0 1084.36 1245.87 1084.0 1246.94 1084.0 C 1248.01 1084.0 1249.12 1084.38 1249.41 1084.85 C 1249.7 1085.32 1252.43 1086.45 1255.47 1087.35 C 1258.51 1088.26 1263.36 1089.64 1266.25 1090.42 C 1269.14 1091.2 1274.07 1092.39 1277.21 1093.07 C 1281.73 1094.04 1284.52 1094.04 1290.71 1093.06 C 1294.99 1092.37 1299.17 1091.56 1300.0 1091.25 C 1300.83 1090.95 1302.59 1090.51 1303.92 1090.29 C 1305.26 1090.07 1307.14 1089.46 1308.11 1088.94 C 1309.08 1088.42 1310.72 1088.0 1311.77 1088.0 C 1312.82 1088.0 1318.56 1085.53 1324.54 1082.5 C 1330.52 1079.48 1337.09 1075.65 1339.15 1074.0 C 1341.2 1072.35 1343.08 1071.0 1343.32 1071.0 C 1343.57 1071.0 1345.95 1068.98 1348.63 1066.51 C 1351.31 1064.04 1354.06 1062.02 1354.75 1062.01 C 1355.44 1062.0 1355.98 1062.34 1355.95 1062.75 C 1355.93 1063.16 1355.04 1065.08 1353.98 1067.0 C 1352.92 1068.92 1351.79 1071.17 1351.46 1072.0 C 1351.13 1072.83 1349.69 1074.36 1348.27 1075.42 C 1346.84 1076.48 1345.98 1076.85 1346.35 1076.24 C 1346.73 1075.63 1346.64 1074.89 1346.15 1074.59 C 1345.66 1074.29 1344.46 1074.94 1343.48 1076.02 C 1342.49 1077.11 1341.29 1078.0 1340.8 1078.0 C 1340.31 1078.0 1339.37 1078.46 1338.71 1079.01 C 1338.04 1079.57 1335.76 1081.17 1333.63 1082.56 C 1331.5 1083.96 1325.43 1087.13 1320.13 1089.62 C 1314.83 1092.1 1309.74 1094.54 1308.81 1095.04 C 1307.88 1095.54 1304.1 1096.42 1300.41 1097.01 C 1296.73 1097.6 1290.18 1097.96 1285.87 1097.8 Z " opacity="1.0" fill="#000000" stroke="none" fill-rule="evenodd"/></svg>