<svg version="1.1" id="Layer_1" xmlns="http://www.w3.org/2000/svg" xmlns:xlink="http://www.w3.org/1999/xlink" x="0px" y="0px"
	 width="1200px" height="1600px" viewBox="0 0 1200 1600" enable-background="new 0 0 1200 1600" xml:space="preserve">
<g transform="translate(0.000000,1600.000000) scale(0.100000,-0.100000)">
	<path d="M5264.003,10827.996c17.998-60,26.992-163.994,30.996-335.996c2.998-207.002,17.002-306.006,59.004-437.002
		c33.994-102.998,42.998-147.002,56.992-275c11.006-100.996,10-125-5-195.996c-8.994-45-35-123.008-56.992-174.004
		c-22.002-50-38.008-94.004-35-97.002c5.996-5.996,60.996,77.998,101.992,157.002c16.006,30,31.006,55.996,34.004,57.002
		c2.998,2.002,2.002,80.996-0.996,175c-5,163.994-8.008,180.996-46.006,312.998c-52.002,179.004-85,369.004-80.996,472.002
		l2.998,77.998l22.002-45c12.002-25,22.002-37.998,22.998-30c0,9.004-7.002,25-15,35.996c-19.004,28.008-37.002,107.002-25,114.004
		c10,5.996-29.004,130.996-54.004,175.996C5265.996,10832,5260.996,10837,5264.003,10827.996z"/>
	<path d="M6854.003,10762.996c-9.004-27.002-23.008-62.998-30-80c-9.004-22.002-9.004-35-2.002-38.994
		c10-6.006,7.002-48.008-7.002-89.004c-5-15-4.004-15.996,2.998-5.996c7.998,10.996,11.006,8.994,17.002-9.004
		c17.002-52.998-27.998-337.998-82.998-530.996c-45-155-54.004-218.008-47.998-337.002c5-76.006,2.998-109.004-6.006-120
		c-10-12.998-10-14.004,0-7.998c7.998,5,12.002,0.996,12.002-10c0-27.002,127.002-240,137.002-230
		c2.002,1.992-5,25.996-17.002,52.998c-85.996,188.994-85,187.002-84.004,357.998c1.006,127.998,5,164.004,27.002,245
		c84.004,305.996,77.998,265.996,87.998,540c4.004,140,11.006,267.002,15,282.998
		C6885.996,10825.994,6872.998,10814.002,6854.003,10762.996z"/>
	<path d="M5385,10659.998c9.004-15.996,22.002-30,30.996-30c9.004,0,12.002-5,8.008-12.002c-4.004-5.996-3.008-7.998,2.998-5
		c5,2.998,25.996-5,45-17.998c67.002-45,150.996-77.002,217.998-82.002c54.004-3.994,77.998-0.996,142.998,22.002
		c42.998,15,80,32.002,82.998,35.996c3.008,5-6.992,4.004-22.998-1.992c-75.996-29.004-150-39.004-208.994-28.008
		C5577.998,10559.998,5495,10597,5427.001,10657C5380.996,10697.996,5365,10699.002,5385,10659.998z"/>
	<path d="M6725,10654.002c-57.002-50-147.998-92.002-237.002-110c-72.998-15-80-15-150,3.994
		C6217.001,10582,6212.998,10582,6230,10572c7.998-6.006,50.996-22.002,94.004-37.002c112.998-39.004,188.994-32.002,301.992,30
		c45,24.004,85,40.996,89.004,37.002c4.004-4.004,5.996-2.002,5,2.998c-5,20.996,0.996,29.004,9.004,15.996
		c6.992-10.996,13.994-6.992,30,20C6795.996,10700.994,6784.003,10705.994,6725,10654.002z"/>
	<path d="M6790,10509.002c-7.002-11.006-10-23.008-7.002-25c2.002-2.002,9.004,6.992,15,20.996
		C6812.001,10534.998,6805,10537.996,6790,10509.002z"/>
	<path d="M5390,10449.998c5.996-10.996,12.998-20,15.996-20c2.002,0,0,9.004-5.996,20s-12.998,20-15.996,20
		C5382.001,10469.998,5384.003,10460.994,5390,10449.998z"/>
	<path d="M6755.996,10452.996c-5.996-13.994-5-15,5-5.996c7.002,7.002,10,15,7.002,17.998S6759.003,10462.996,6755.996,10452.996z"
		/>
	<path d="M6032.998,8995.994c35-31.992,51.006-32.998,89.004-0.996c30.996,25.996,30,32.002-2.002,15
		c-12.998-7.002-20.996-7.002-25,0s-12.998,7.002-25.996,0c-13.008-7.998-26.006-7.002-41.006,0
		C6009.003,9019.002,6010,9017,6032.998,8995.994z"/>
	<path d="M6054.003,10255.994c-9.004-15-49.004-41.992-88.008-60.996c-102.998-50.996-110-55.996-186.992-127.998l-69.004-65
		l0.996-59.004c1.006-43.994,3.008-52.002,9.004-32.998c4.004,14.004,7.998,37.998,9.004,52.998c0.996,20,15.996,42.998,55,80
		c73.994,71.006,88.994,82.002,207.998,146.006c30.996,15.996,65,35,75,41.992c15,9.004,35.996,1.006,122.998-45.996
		c105-57.002,127.998-74.004,207.998-147.002c39.004-35.996,44.004-45.996,51.006-100.996c5.996-41.006,8.994-52.002,10.996-32.002
		c5.996,57.998-0.996,110-15.996,117.998c-8.008,4.004-31.006,26.006-51.006,47.998c-35,38.008-125.996,100-187.998,128.008
		c-15.996,7.998-40,17.998-52.002,23.994c-12.998,6.006-25,17.998-27.998,27.998c-2.998,9.004-12.002,20-20,23.008
		c-10,2.998-12.002,0-9.004-12.002c5-15,4.004-15-8.994,0.996C6072.001,10280.994,6070.996,10280.994,6054.003,10255.994z"/>
</g>
</svg>
