<svg width="2400" height="3200" xmlns="http://www.w3.org/2000/svg" viewBox="0 0 2400 3200"><path d="M 1215.0 1364.0 C 1214.64 1364.0 1213.27 1362.85 1211.95 1361.45 C 1210.49 1359.89 1208.88 1356.1 1207.82 1351.7 C 1206.87 1347.74 1206.07 1342.81 1206.04 1340.75 C 1206.02 1338.63 1205.5 1337.0 1204.86 1337.0 C 1204.23 1337.0 1203.1 1337.79 1202.34 1338.75 C 1201.57 1339.71 1199.84 1342.62 1198.48 1345.22 C 1197.11 1347.81 1196.0 1350.85 1196.0 1351.97 C 1196.0 1353.09 1195.54 1354.0 1194.98 1354.0 C 1194.43 1354.0 1188.69 1351.37 1182.23 1348.15 C 1175.78 1344.93 1169.27 1342.0 1167.77 1341.63 C 1166.27 1341.27 1162.22 1338.34 1158.77 1335.12 C 1155.32 1331.9 1150.75 1328.08 1148.61 1326.63 C 1146.47 1325.18 1143.46 1324.0 1141.92 1324.0 C 1140.38 1324.0 1138.84 1324.45 1138.5 1325.0 C 1138.16 1325.55 1137.27 1326.0 1136.51 1326.0 C 1135.76 1326.0 1134.51 1325.37 1133.74 1324.6 C 1132.84 1323.69 1130.68 1323.31 1127.59 1323.5 C 1124.24 1323.71 1122.23 1324.45 1120.78 1326.01 C 1119.64 1327.23 1117.22 1328.85 1115.39 1329.61 C 1113.56 1330.37 1111.65 1331.0 1111.15 1331.0 C 1110.65 1331.0 1110.05 1328.32 1109.81 1325.04 C 1109.54 1321.36 1108.73 1318.36 1107.69 1317.21 C 1106.76 1316.18 1106.0 1314.58 1106.0 1313.64 C 1106.0 1312.7 1105.25 1311.65 1104.34 1311.3 C 1103.24 1310.88 1101.96 1311.56 1100.55 1313.33 C 1099.38 1314.8 1097.86 1316.0 1097.17 1316.0 C 1096.48 1316.0 1094.03 1316.96 1091.71 1318.14 C 1089.39 1319.32 1086.11 1321.35 1084.41 1322.64 C 1082.7 1323.94 1080.82 1325.0 1080.22 1325.0 C 1079.62 1325.0 1078.85 1324.1 1078.5 1323.0 C 1078.15 1321.9 1078.14 1320.13 1078.48 1319.06 C 1078.9 1317.74 1078.48 1316.79 1077.15 1316.08 C 1075.68 1315.29 1074.9 1315.41 1073.95 1316.56 C 1073.04 1317.66 1072.38 1317.78 1071.6 1317.0 C 1070.82 1316.22 1070.83 1315.72 1071.61 1315.21 C 1072.22 1314.82 1073.28 1312.08 1073.98 1309.12 C 1074.69 1306.17 1076.21 1302.24 1077.38 1300.39 C 1078.62 1298.43 1080.75 1296.69 1082.5 1296.2 C 1085.31 1295.41 1085.49 1295.08 1085.27 1290.93 C 1085.14 1288.49 1084.82 1283.8 1084.56 1280.5 C 1084.3 1277.2 1083.58 1261.9 1082.97 1246.5 C 1082.36 1231.1 1081.45 1215.84 1080.96 1212.58 C 1080.35 1208.6 1078.95 1204.99 1076.68 1201.57 C 1074.82 1198.78 1072.53 1195.0 1071.59 1193.18 C 1070.65 1191.35 1069.21 1186.41 1068.39 1182.18 C 1067.57 1177.96 1065.81 1163.05 1064.46 1149.05 C 1063.12 1135.05 1061.73 1115.48 1061.38 1105.55 C 1061.02 1095.62 1060.36 1086.78 1059.91 1085.89 C 1059.4 1084.9 1059.83 1082.33 1061.04 1079.13 C 1062.87 1074.33 1062.91 1073.44 1061.61 1066.24 C 1060.85 1061.98 1059.94 1057.8 1059.58 1056.95 C 1059.23 1056.09 1057.6 1054.6 1055.96 1053.64 C 1054.33 1052.67 1052.3 1050.55 1051.46 1048.93 C 1050.62 1047.3 1049.68 1042.27 1049.37 1037.74 C 1048.83 1029.91 1048.49 1028.96 1042.52 1018.5 C 1039.07 1012.45 1035.47 1005.25 1034.51 1002.5 C 1033.56 999.75 1032.55 993.67 1032.27 989.0 C 1031.94 983.4 1032.3 977.65 1033.35 972.13 C 1034.34 966.9 1036.32 961.08 1038.62 956.63 C 1040.64 952.71 1044.23 946.57 1046.58 942.99 C 1048.94 939.41 1054.09 932.78 1058.03 928.24 C 1061.97 923.71 1065.53 920.0 1065.94 920.0 C 1066.35 920.0 1069.34 917.47 1072.59 914.37 C 1075.84 911.27 1080.07 907.9 1081.99 906.87 C 1083.9 905.84 1086.68 905.0 1088.16 905.0 C 1089.64 905.0 1096.39 903.66 1103.17 902.03 C 1109.95 900.39 1121.67 897.93 1129.21 896.55 C 1136.76 895.17 1148.23 893.34 1154.71 892.49 C 1161.2 891.64 1173.92 890.51 1183.0 889.99 C 1192.08 889.46 1206.47 889.03 1215.0 889.03 C 1223.53 889.03 1237.97 889.46 1247.1 889.99 C 1256.24 890.52 1270.41 891.89 1278.6 893.04 C 1286.8 894.18 1299.35 896.25 1306.5 897.63 C 1313.65 899.0 1323.86 901.23 1329.18 902.57 C 1334.51 903.9 1340.14 905.0 1341.7 905.0 C 1343.25 905.0 1346.28 905.94 1348.42 907.09 C 1350.56 908.23 1352.92 909.78 1353.66 910.52 C 1354.4 911.25 1355.0 912.24 1355.0 912.71 C 1355.0 913.18 1356.24 914.31 1357.75 915.22 C 1359.26 916.12 1362.75 919.03 1365.5 921.68 C 1368.25 924.33 1372.24 928.52 1374.37 931.0 C 1376.5 933.48 1380.51 938.84 1383.27 942.92 C 1386.03 947.0 1389.99 953.97 1392.06 958.42 C 1394.59 963.82 1396.2 969.09 1396.92 974.32 C 1397.51 978.62 1398.0 984.29 1398.0 986.91 C 1398.0 989.53 1397.12 995.12 1396.04 999.33 C 1394.7 1004.6 1392.09 1010.37 1387.71 1017.8 C 1381.67 1028.03 1381.29 1029.05 1380.71 1036.62 C 1380.37 1041.03 1379.59 1045.95 1378.98 1047.57 C 1378.37 1049.18 1377.05 1051.4 1376.06 1052.5 C 1374.79 1053.9 1374.02 1057.04 1373.47 1063.0 C 1373.04 1067.67 1372.76 1074.88 1372.84 1079.0 C 1372.92 1083.12 1373.24 1088.0 1373.55 1089.83 C 1374.02 1092.57 1373.77 1093.25 1372.14 1093.67 C 1370.54 1094.09 1370.06 1095.34 1369.58 1100.34 C 1369.25 1103.73 1368.55 1117.08 1368.03 1130.0 C 1367.5 1142.92 1366.8 1155.53 1366.47 1158.0 C 1366.14 1160.47 1365.61 1163.17 1365.29 1164.0 C 1364.96 1164.83 1364.55 1166.4 1364.36 1167.5 C 1364.18 1168.6 1363.52 1171.53 1362.91 1174.0 C 1362.3 1176.47 1360.9 1181.42 1359.81 1185.0 C 1358.71 1188.58 1356.96 1193.41 1355.91 1195.74 C 1354.86 1198.07 1354.0 1200.66 1354.0 1201.5 C 1354.0 1202.33 1352.65 1208.52 1351.01 1215.26 C 1349.36 1221.99 1347.49 1229.75 1346.85 1232.5 C 1346.21 1235.25 1345.63 1240.88 1345.56 1245.0 C 1345.49 1249.12 1345.07 1253.08 1344.63 1253.79 C 1344.19 1254.51 1344.25 1255.63 1344.77 1256.29 C 1345.28 1256.96 1345.65 1264.25 1345.58 1272.5 C 1345.52 1280.75 1345.09 1288.27 1344.64 1289.22 C 1344.02 1290.49 1344.69 1291.77 1347.25 1294.22 C 1349.14 1296.02 1351.67 1299.22 1352.86 1301.33 C 1354.05 1303.44 1355.5 1307.25 1356.07 1309.81 C 1356.64 1312.36 1357.64 1314.78 1358.3 1315.18 C 1359.15 1315.71 1359.18 1316.22 1358.4 1317.0 C 1357.62 1317.78 1356.96 1317.66 1356.05 1316.56 C 1355.09 1315.4 1354.33 1315.29 1352.81 1316.1 C 1351.37 1316.87 1350.99 1317.81 1351.41 1319.5 C 1351.73 1320.79 1351.73 1322.55 1351.39 1323.42 C 1351.06 1324.29 1350.4 1325.0 1349.93 1325.0 C 1349.45 1325.0 1346.26 1323.19 1342.83 1320.97 C 1339.4 1318.75 1335.44 1316.66 1334.04 1316.33 C 1332.65 1316.0 1330.56 1314.59 1329.41 1313.2 C 1328.04 1311.54 1326.74 1310.88 1325.66 1311.3 C 1324.72 1311.66 1324.0 1313.03 1324.0 1314.47 C 1324.0 1315.86 1323.62 1317.0 1323.16 1317.0 C 1322.7 1317.0 1321.8 1318.15 1321.16 1319.55 C 1320.52 1320.95 1320.0 1324.1 1320.0 1326.55 C 1320.0 1329.0 1319.54 1331.0 1318.97 1331.0 C 1318.4 1331.0 1316.44 1330.37 1314.61 1329.61 C 1312.78 1328.85 1310.36 1327.23 1309.23 1326.02 C 1307.76 1324.44 1305.74 1323.72 1302.09 1323.47 C 1299.29 1323.27 1297.0 1323.51 1297.0 1323.99 C 1297.0 1324.47 1296.12 1325.14 1295.05 1325.49 C 1293.95 1325.83 1292.01 1325.4 1290.63 1324.49 C 1288.33 1322.99 1287.9 1323.01 1284.27 1324.86 C 1282.12 1325.96 1276.86 1330.04 1272.57 1333.94 C 1268.28 1337.83 1263.59 1341.31 1262.14 1341.66 C 1260.69 1342.01 1254.22 1344.93 1247.77 1348.15 C 1241.31 1351.37 1235.67 1354.0 1235.22 1354.0 C 1234.78 1354.0 1233.9 1352.09 1233.26 1349.75 C 1232.63 1347.41 1230.86 1343.59 1229.33 1341.25 C 1227.8 1338.91 1225.98 1337.0 1225.28 1337.0 C 1224.5 1337.0 1224.0 1338.28 1223.99 1340.25 C 1223.99 1342.04 1223.14 1347.01 1222.12 1351.3 C 1220.97 1356.1 1219.36 1360.05 1217.95 1361.55 C 1216.69 1362.9 1215.36 1364.0 1215.0 1364.0 Z " opacity="1.0" fill="#000000" stroke="none" fill-rule="evenodd"/></svg>