<svg version="1.0" xmlns="http://www.w3.org/2000/svg"
 width="1200.000000pt" height="1600.000000pt" viewBox="0 0 1200.000000 1600.000000"
 preserveAspectRatio="xMidYMid meet">

<g transform="translate(0.000000,1600.000000) scale(0.100000,-0.100000)"
fill="#000000" stroke="none">
<path d="M5694 9605 c-138 -19 -183 -46 -375 -224 -38 -35 -69 -72 -69 -82 0
-9 -9 -27 -19 -40 -16 -19 -22 -22 -32 -11 -16 15 -42 15 -91 2 -50 -14 -64
-30 -84 -98 -21 -67 -39 -92 -68 -92 -12 0 -54 -8 -95 -17 -65 -15 -77 -22
-101 -55 -48 -66 -112 -176 -135 -235 -21 -52 -29 -61 -79 -87 -77 -39 -210
-203 -220 -270 -7 -43 -26 -71 -51 -71 -13 0 -96 -99 -213 -255 -39 -52 -82
-105 -96 -118 -43 -39 -166 -232 -218 -342 -65 -138 -62 -133 -73 -134 -6 0
-36 51 -67 114 -41 82 -91 217 -174 470 -159 485 -200 596 -222 596 -9 1 -24
4 -33 8 -12 5 -20 -4 -34 -41 -28 -75 -52 -105 -75 -93 -10 6 -21 10 -23 10
-3 0 -22 -52 -42 -115 -20 -63 -44 -124 -55 -137 -17 -21 -20 -22 -35 -7 -16
15 -15 19 4 57 12 23 21 44 21 47 0 17 -178 -212 -212 -274 -9 -17 -22 -31
-27 -31 -6 0 -28 24 -49 53 -76 103 -171 244 -167 248 2 2 -25 41 -60 87 -62
80 -64 82 -76 60 -6 -13 -22 -38 -36 -55 l-24 -33 -54 55 c-56 58 -81 70 -70
34 14 -44 14 -97 1 -108 -11 -9 -19 -5 -37 19 -66 85 -82 101 -90 88 -5 -7 -9
-34 -9 -59 0 -51 -18 -77 -38 -57 -7 7 -12 19 -12 28 0 22 -28 60 -45 60 -18
0 -115 -116 -141 -168 -10 -20 -118 -138 -239 -262 -688 -704 -969 -1064
-1110 -1425 -40 -101 -79 -175 -120 -229 l-36 -47 25 -20 26 -20 -37 -57 c-20
-31 -48 -76 -63 -98 -27 -40 -28 -47 -29 -179 -3 -186 16 -270 76 -343 23 -30
43 -62 43 -72 0 -10 4 -21 8 -24 5 -3 0 -67 -10 -143 -11 -76 -23 -226 -28
-333 -5 -107 -16 -238 -24 -290 -23 -139 -40 -387 -31 -455 l7 -59 51 57 c29
32 55 57 60 57 20 0 2 -70 -38 -150 -25 -50 -52 -121 -60 -159 -22 -103 -37
-323 -29 -420 8 -96 16 -90 34 27 13 78 36 119 63 109 22 -8 23 -97 1 -249
-15 -109 -15 -251 1 -291 7 -17 8 -17 26 -1 25 22 42 7 45 -38 25 -329 84
-487 207 -558 56 -32 76 -38 60 -17 -6 6 -16 29 -22 49 -10 31 -10 40 1 52 12
12 21 6 60 -38 38 -43 50 -67 72 -146 15 -52 45 -149 66 -215 21 -66 57 -183
80 -260 112 -377 334 -831 537 -1104 147 -197 264 -324 439 -477 l69 -61 -33
106 c-66 208 -95 273 -170 384 -62 92 -82 133 -136 280 -164 446 -261 823
-325 1272 -11 77 -22 174 -26 215 -5 72 -4 77 26 124 l31 49 50 -53 c66 -68
184 -145 223 -145 26 0 34 -8 73 -80 122 -221 385 -571 770 -1020 142 -165
329 -361 338 -352 3 3 -10 40 -29 84 -19 43 -46 114 -61 158 -14 44 -39 98
-54 121 -250 373 -426 674 -671 1146 -89 171 -92 178 -82 215 23 80 5 350 -29
438 -12 31 4 55 32 47 23 -6 23 5 -5 109 -15 58 -35 103 -60 137 -30 43 -34
52 -21 62 10 9 18 9 27 1 8 -6 29 -17 49 -25 l35 -15 -42 102 c-77 186 -90
206 -275 422 -33 39 -60 76 -60 82 0 20 69 -16 117 -60 l41 -40 -9 44 c-36
158 -147 395 -243 515 -62 78 -264 269 -274 259 -11 -11 -32 19 -32 45 0 35
29 119 69 199 32 63 32 64 9 57 -89 -25 -149 -15 -129 23 5 9 37 90 71 181 34
91 100 251 145 355 46 105 95 219 110 254 47 113 316 600 366 663 16 20 29 41
29 46 0 5 41 69 92 143 80 117 92 139 90 174 -2 60 30 84 69 50 15 -15 17 -13
24 22 7 41 30 73 51 73 33 0 174 -66 212 -99 l43 -37 -16 -40 c-9 -21 -38 -84
-65 -139 -30 -61 -59 -139 -74 -200 -28 -115 -66 -311 -66 -343 0 -11 -12 -29
-26 -39 -52 -36 -106 -87 -119 -114 -13 -23 -13 -29 0 -39 12 -10 6 -22 -37
-73 -90 -108 -207 -308 -214 -366 l-2 -23 22 21 c12 12 25 19 28 16 3 -4 16 8
28 24 23 34 57 43 46 14 -4 -10 -26 -49 -49 -88 -39 -64 -42 -75 -42 -140 l0
-71 55 58 c31 32 61 58 68 58 23 0 12 -47 -21 -86 -53 -62 -128 -192 -143
-248 -21 -77 -46 -284 -39 -317 l7 -30 27 38 c39 54 57 67 68 51 7 -12 16
-228 15 -370 -1 -32 1 -58 2 -58 2 0 14 16 26 37 18 31 23 34 35 22 10 -11 11
-26 2 -71 -9 -50 -8 -60 6 -76 10 -10 17 -31 17 -46 0 -76 55 -222 120 -317
22 -32 46 -84 55 -119 84 -325 396 -977 705 -1475 83 -134 231 -345 257 -366
15 -13 16 -10 10 36 -3 28 -9 91 -13 140 -6 78 -13 101 -49 175 -24 47 -54
112 -68 146 -14 33 -46 103 -70 155 -75 157 -212 605 -317 1034 -82 333 -80
302 -31 443 22 65 41 128 41 139 0 29 31 53 68 53 l32 0 -27 49 -28 49 24 21
c22 19 24 30 29 139 5 133 -9 279 -39 403 -12 46 -21 113 -20 149 0 36 -3 97
-8 135 -7 58 -6 73 7 88 13 14 15 37 13 103 -1 47 1 84 7 84 23 0 36 61 40
194 4 125 6 139 23 143 23 6 23 5 0 51 -31 63 -9 211 60 392 15 41 29 81 31
89 2 8 10 23 18 33 14 17 16 16 53 -20 41 -39 193 -231 271 -343 26 -38 46
-78 46 -93 0 -24 3 -26 41 -26 46 0 77 -21 56 -38 -7 -6 -35 -21 -62 -33 l-50
-22 32 -7 c51 -12 114 -54 173 -116 53 -56 54 -57 34 -73 -20 -15 -19 -17 32
-66 l52 -52 -30 -62 -31 -61 31 -62 c18 -33 32 -66 32 -72 0 -11 110 -13 128
-2 18 11 34 -21 23 -43 -9 -17 -6 -23 19 -41 28 -20 30 -20 57 -3 15 10 34 26
41 35 23 32 38 -1 50 -115 13 -118 28 -162 54 -162 25 0 34 -13 53 -80 20 -69
57 -146 79 -164 9 -8 42 -50 73 -95 131 -188 264 -342 375 -434 43 -35 78 -68
78 -73 0 -5 -15 -32 -34 -61 -39 -62 -70 -123 -81 -158 -7 -24 -5 -23 28 9 30
28 39 32 51 22 13 -11 11 -20 -23 -69 -121 -182 -205 -393 -231 -583 -10 -76
-5 -195 8 -159 10 32 23 40 38 25 12 -12 12 -29 -5 -124 -42 -233 -38 -358 15
-421 l25 -29 -11 -233 c-5 -128 -15 -321 -21 -428 -10 -184 -10 -198 9 -258
11 -34 38 -93 61 -131 36 -61 43 -68 66 -63 14 2 27 7 29 11 3 4 16 60 31 124
14 65 53 202 85 305 32 103 74 241 94 306 42 138 51 154 76 131 16 -15 18 -12
24 36 13 93 57 213 131 349 41 74 82 155 91 180 9 25 24 53 32 63 14 15 17 16
32 2 19 -17 12 -28 142 225 79 154 98 185 98 162 0 -7 8 -12 18 -12 33 0 146
134 211 252 18 31 38 61 44 67 16 12 187 -59 271 -113 59 -38 75 -44 59 -23
-19 23 -23 64 -9 76 10 9 33 -8 107 -81 l94 -93 93 92 c79 78 96 90 107 79 14
-14 10 -51 -8 -73 -16 -21 0 -15 59 23 58 37 214 110 248 116 21 3 23 1 106
-133 25 -39 72 -101 105 -137 56 -60 62 -64 77 -48 16 15 18 15 32 -6 9 -12
16 -27 16 -32 0 -5 41 -87 91 -183 85 -161 93 -172 109 -158 15 14 18 14 30 0
7 -9 27 -49 45 -89 18 -41 59 -123 93 -182 62 -112 104 -228 117 -322 7 -50 8
-52 25 -37 25 22 34 7 71 -116 17 -57 59 -195 94 -306 35 -111 76 -255 90
-320 15 -65 30 -121 33 -124 4 -4 17 -10 29 -13 19 -6 27 3 63 63 23 39 51 99
62 133 18 59 19 74 9 253 -6 105 -16 297 -21 428 l-10 239 24 28 c25 30 46
105 46 165 0 54 -29 263 -47 332 -14 55 -14 64 0 77 18 19 31 6 43 -39 l7 -30
9 30 c10 36 2 146 -18 234 -33 145 -113 335 -197 465 -39 61 -43 71 -30 84 12
13 18 11 45 -14 l30 -29 -7 25 c-11 35 -42 96 -82 158 -19 30 -33 58 -31 64 2
6 39 40 83 77 96 80 204 204 322 366 47 66 99 134 114 150 30 33 71 117 89
186 14 52 27 70 44 63 28 -11 48 52 62 196 8 83 24 112 46 82 7 -10 25 -27 40
-36 26 -17 28 -17 58 4 25 18 28 24 19 41 -13 24 6 53 26 41 8 -4 37 -5 67 -4
l53 4 30 66 c33 74 33 77 0 147 l-24 49 53 51 c51 49 52 51 32 66 -20 16 -19
17 34 73 59 62 122 104 173 116 l32 7 -50 22 c-27 12 -55 27 -62 33 -21 17 10
38 56 38 37 0 41 2 41 26 0 14 14 46 32 72 68 100 239 319 280 359 43 42 44
43 61 23 9 -11 15 -20 12 -20 -3 0 7 -30 21 -67 45 -117 74 -225 83 -308 7
-69 5 -85 -10 -117 -23 -46 -23 -45 0 -51 17 -4 19 -18 23 -143 4 -133 17
-194 40 -194 6 0 8 -37 7 -84 -2 -62 1 -89 11 -101 8 -10 13 -27 12 -39 -2
-12 -7 -82 -12 -156 -4 -74 -18 -180 -31 -235 -19 -83 -23 -131 -23 -282 -1
-181 -1 -181 24 -203 l25 -22 -28 -49 -27 -49 33 0 c37 0 67 -25 67 -54 0 -10
18 -72 41 -139 48 -142 50 -111 -31 -442 -107 -433 -254 -912 -323 -1050 -19
-38 -49 -104 -67 -145 -18 -41 -49 -109 -70 -150 -31 -62 -38 -90 -44 -160 -4
-47 -9 -110 -13 -140 -6 -51 -5 -54 11 -41 9 8 52 64 95 125 336 474 758 1308
859 1697 13 48 36 100 65 145 69 107 117 234 117 310 0 15 7 35 16 45 14 15
15 27 6 76 -8 46 -8 61 3 72 12 12 17 9 35 -22 12 -21 24 -37 26 -37 1 0 3 26
2 58 0 31 0 125 1 209 3 182 10 196 65 132 20 -24 36 -47 37 -53 0 -6 5 2 9
17 10 33 -2 162 -25 280 -18 88 -61 173 -142 278 -42 54 -56 99 -31 99 7 0 37
-27 68 -59 l55 -59 0 72 c0 66 -3 77 -42 141 -23 39 -45 78 -49 88 -11 29 23
20 46 -14 12 -16 25 -28 28 -24 3 3 16 -4 28 -16 l22 -21 -2 23 c-7 59 -129
266 -222 375 -37 44 -41 54 -29 64 13 10 13 16 0 39 -13 27 -67 78 -119 114
-14 10 -26 28 -26 39 0 30 -37 221 -65 341 -15 60 -42 134 -70 190 -26 51 -56
115 -66 142 l-19 50 42 37 c38 33 178 98 212 98 21 0 44 -33 51 -73 7 -35 9
-37 24 -22 38 34 78 6 67 -47 -6 -29 3 -47 82 -163 49 -71 95 -142 103 -156 8
-15 32 -53 53 -85 79 -118 305 -537 356 -659 20 -49 69 -162 107 -250 39 -88
96 -230 128 -315 32 -85 64 -167 71 -181 24 -48 -19 -62 -108 -36 l-44 14 28
-52 c39 -72 78 -180 78 -215 0 -22 -6 -33 -22 -39 -24 -9 -171 -135 -224 -192
-64 -69 -136 -174 -183 -268 -44 -87 -109 -260 -126 -336 l-6 -30 43 40 c48
46 118 83 118 62 0 -6 -27 -43 -60 -82 -184 -214 -206 -249 -280 -432 l-37
-92 36 15 c19 8 43 21 52 30 14 13 18 13 28 0 10 -12 5 -24 -25 -67 -26 -35
-45 -79 -61 -138 -28 -104 -28 -115 -5 -109 28 8 44 -16 32 -47 -34 -88 -52
-358 -29 -438 10 -36 7 -44 -77 -205 -149 -286 -272 -509 -396 -716 -104 -173
-156 -254 -280 -440 -15 -23 -40 -77 -54 -121 -15 -44 -42 -115 -61 -158 -19
-44 -33 -81 -31 -83 7 -7 159 138 207 197 25 32 98 117 161 191 340 392 601
738 735 973 44 76 55 90 75 87 32 -3 155 75 220 142 29 30 57 53 61 50 4 -2
19 -26 34 -52 l27 -47 -17 -150 c-35 -309 -121 -727 -210 -1020 -20 -66 -72
-218 -116 -338 -72 -199 -85 -226 -153 -325 -76 -110 -101 -168 -168 -383
l-33 -105 120 105 c127 113 282 288 402 453 217 299 415 718 542 1143 148 494
153 507 200 562 38 44 46 49 58 37 12 -12 12 -21 2 -52 -6 -20 -16 -43 -22
-49 -16 -21 4 -15 60 17 124 71 179 220 207 563 3 37 21 54 40 38 8 -7 13 -21
11 -32 -2 -10 0 -19 4 -19 5 0 14 36 21 81 13 80 10 153 -10 294 -16 115 -13
204 7 212 27 10 49 -30 63 -114 6 -43 15 -84 19 -91 14 -25 21 153 11 280 -13
177 -34 267 -86 370 -40 79 -57 148 -36 148 4 0 30 -25 58 -57 l52 -57 7 66
c8 78 -8 303 -36 483 -12 78 -20 178 -20 250 0 69 -9 194 -23 295 -26 199 -24
208 44 290 54 65 73 162 68 341 -3 119 -6 138 -27 169 -12 19 -40 63 -61 97
l-39 62 25 20 25 20 -36 47 c-43 56 -74 115 -121 232 -147 365 -433 732 -1100
1412 -134 136 -240 253 -252 277 -28 53 -119 163 -136 163 -19 0 -46 -33 -46
-57 0 -11 -6 -25 -13 -32 -21 -16 -37 7 -38 53 0 23 -4 49 -8 60 -7 19 -18 9
-90 -84 -18 -24 -26 -28 -37 -19 -13 11 -13 64 1 108 11 36 -14 24 -70 -34
l-54 -55 -24 33 c-14 17 -30 42 -36 55 -12 22 -14 20 -74 -58 -34 -45 -62 -84
-62 -88 0 -9 -158 -240 -190 -277 -29 -35 -17 -45 -118 99 -34 49 -81 110
-105 135 -43 46 -43 46 -26 11 20 -41 20 -128 0 -148 -11 -11 -17 -9 -35 14
-11 14 -21 38 -21 51 0 13 -10 37 -21 52 -12 16 -19 33 -16 38 7 11 -17 171
-27 180 -4 4 -15 2 -25 -4 -25 -16 -42 3 -73 80 -17 42 -27 56 -38 51 -8 -4
-23 -7 -34 -9 -11 -1 -23 -15 -31 -36 -94 -266 -125 -357 -186 -549 -105 -329
-212 -591 -243 -594 -10 -1 -10 -2 -76 135 -54 115 -168 292 -223 349 -19 19
-71 84 -116 144 -124 165 -175 225 -188 221 -18 -6 -40 27 -50 76 -15 70 -145
228 -219 266 -51 25 -58 34 -80 86 -24 61 -135 248 -157 265 -15 11 -138 42
-170 42 -32 0 -45 17 -73 97 -25 71 -31 78 -84 93 -46 13 -73 13 -88 -2 -16
-16 -48 13 -55 50 -5 27 -51 73 -185 190 -87 75 -143 100 -264 117 -129 18
-620 18 -754 0z"/>
<path d="M340 3220 c0 -5 5 -10 11 -10 5 0 7 5 4 10 -3 6 -8 10 -11 10 -2 0
-4 -4 -4 -10z"/>
</g>
</svg>
