<svg version="1.1" xmlns="http://www.w3.org/2000/svg" xmlns:xlink="http://www.w3.org/1999/xlink" x="0px" y="0px" width="1200px"
	 height="1600px" viewBox="0 0 1200 1600" enable-background="new 0 0 1200 1600" xml:space="preserve">
<g id="Layer_2">
	<g opacity="0.2">
		<g>
			<path d="M546.9,503.5l-9.2-0.6c-7.9-0.4-10.5-1.101-18.4-4.601c-5.1-2.2-13.399-6.7-18.5-10c-5.1-3.3-16.899-10.2-26.3-15.3
				c-32.1-17.4-40.3-22.7-51.3-32.9c-12.7-11.8-23.2-23.899-31.8-36.8c-7.2-10.7-15.7-27.5-17.3-33.8c-2.5-10.2-3.5-13.1-5.1-15
				c-1-1.1-3-4.5-4.4-7.5c-5.6-11.8-14.3-20.5-27.6-27.4c-10.9-5.699-27-9.699-27-6.6c0,0.5,2.5,4.6,5.6,9.1
				c7,10.301,7.8,12.4,6.3,16.101c-2.8,6.899-13.6,13.8-32.9,21c-5.8,2.2-11,4.399-11.6,4.899c-0.7,0.5-2,1.101-3,1.301
				c-2.8,0.6-27.9,12.899-34.9,17.1c-8.2,5-13.3,7.6-14.4,7.3c-0.5-0.2-3.3,1.4-6.3,3.5c-29.5,20.9-33.8,24.3-52.1,41.4
				c-21.2,19.8-36,37.3-52.6,62.2C101.7,515.5,85,546,81.2,557c-5.7,16.5-10.3,40-10.2,52.5c0.1,4.6,0.3,4.1,3-6.4
				c3.5-13.8,6.4-19.8,12.6-26.899c4.6-5.3,4.7-5.3,2.5-6.8C88,568.6,87,567.5,87,567s2.3-4,5.2-7.7
				c2.483-3.282,6.143-9.077,8.684-13.625c-2.53,4.734-6.271,10.574-8.484,13.525c-4.6,5.899-5.5,9.2-2.8,10.2
				c1.1,0.399,3.7-1.4,7.9-5.5c1.671-1.624,3.293-3.014,4.601-3.997c0.529,0.314,2.81,0.115,8.199-0.604c5.1-0.6,11.9-1.2,15.1-1.2
				c4.229-0.056,5.881-0.271,5.031-0.574c1.489,0.221,2.961,0.448,4.414,0.677c-1.273,0.016-1.716,0.209-1.044,0.497
				c0.6,0.2,1.8,0.2,2.5,0c0.168-0.084,0.241-0.16,0.241-0.226c1.482,0.24,2.938,0.482,4.362,0.728
				c-1.32,0.01-1.785,0.206-1.103,0.498c0.6,0.2,1.8,0.2,2.5,0c0.157-0.079,0.235-0.15,0.245-0.213
				c1.957,0.344,3.846,0.691,5.652,1.037c-2.469-0.221-3.693-0.196-2.696,0.076c2.8,0.801,26.7,7.601,28.5,8.101
				c1.3,0.399,1.3,0.399,0-0.601c-0.079-0.058-0.171-0.119-0.273-0.182c0.846,0.364,1.708,0.744,2.577,1.134
				c-0.204,0.135,0.041,0.54,0.696,0.949c0.8,0.5,2,1,2.5,1c0.334,0,0.381-0.158,0.226-0.382c1.815,0.85,3.655,1.737,5.498,2.654
				c-0.135,0.001-0.224,0.035-0.224,0.128c0,0.199,2.9,2.1,6.5,4.1c9.6,5.3,26.1,17.9,34,25.9C238.1,616.1,248.8,634.6,252,649.1
				c2,9,6.6,21.601,5.5,14.9c-1.8-10.7-1.7-19.6,0.2-25.3c1.1-3.101,1.7-5.7,1.2-5.7c-0.056,0-0.11-0.022-0.164-0.056
				c0.053,0.028,0.107,0.056,0.164,0.056c0.6,0,1.1-0.4,1.1-0.9c0-1.199,6.6-9.1,7.2-8.6c0.128,0.153,0.592,0.167,1.344,0.059
				c-0.423,0.144-0.9,0.321-1.444,0.541c-1.3,0.5-2.1,1.2-1.8,1.5c0.3,0.301,1.8-0.1,3.4-1c1.5-0.822,2.032-1.313,1.771-1.435
				c2.521-0.613,6.349-1.81,11.029-3.464c3.887-1.362,9.287-2.446,15.017-3.183c0.04,0.056,0.127,0.117,0.283,0.183
				c0.6,0.2,1.8,0.2,2.5,0c0.453-0.227,0.277-0.396-0.438-0.465c3.518-0.389,7.095-0.644,10.476-0.751
				c-0.286,0.093-0.24,0.23,0.162,0.417c2.5,1.1,16.7,1.899,15.7,0.899c-0.008-0.008-0.026-0.016-0.037-0.024
				c0.112,0.042,0.233,0.081,0.336,0.125c0.799,0.363,3.979,1.096,7.88,1.814c-0.498-0.063-1.003-0.135-1.48-0.215l-3.4-0.5l3.5,1.1
				c1.9,0.601,4.1,1.5,4.8,2.101c0.9,0.8,1.2,0.6,1.2-0.601c0-0.468-0.165-0.879-0.433-1.168c0.145,0.023,0.288,0.046,0.433,0.069
				c3.505,0.566,6.62,1.129,9.499,1.72c-0.261,0.115-0.187,0.297,0.301,0.48c0.639,0.273,1.423,0.205,1.787-0.036
				c1.322,0.291,2.605,0.589,3.839,0.901c-0.162,0.211,2.591,1.523,7.074,3.234c20.3,7.9,30.8,14.2,35.8,21.5
				c3.9,5.7,12.8,14.601,18.5,18.601l3.3,2.3l-4.2-6.8c-4.2-6.9-8-14.9-7.7-16.2c0.271-1.265-2.389-6.266-3.202-6.339
				c-0.011-1.419-0.706-4.682-1.598-7.261c-0.346-1.014-0.606-1.825-0.784-2.496c0.083,0.21,0.174,0.413,0.284,0.597
				c0.9,1.5,1,1.3,1.1-1.5c0-2.058-0.258-3.156-0.66-3.176c0.846-1.132,2.431-4.616,3.66-7.925c0.704-2.019,1.42-3.84,2.165-5.529
				c0.24-0.051,1.109-1.067,2.635-3.17c7.2-9.9,16.8-15.5,32.2-19c2.062-0.446,3.221-0.768,3.499-0.965
				c1.12,0.082,2.128,0.267,3.001,0.564c2.898,0.935,3.791,0.981,4.956-0.078c0.746,1.584,1.228,3.059,1.144,3.478
				c0,0.5,1.301,1.899,2.9,3.199l3,2.301v-4.4c0-2.149-0.241-3.805-0.506-3.915c0.598-0.741,1.255-3.679,3.006-11.286
				c2.129-9.134,6.932-20.384,12.037-28.116l4.563-4.284c2.7-2.5,7-6.101,9.7-7.9c3.074-2.174,4.518-3.336,4.668-3.782
				c0.793-0.379,1.575-0.724,2.332-1.018c2.3-0.9,5.2-2.5,6.4-3.601c2.2-1.8,2.2-2,0.6-3.8c-2.08-2.302-11.163-9.016-18.896-14.163
				c7.83,5.171,16.709,11.685,18.896,14.163c1.601,1.7,1.601,2.101,0.2,3.2c-2.5,2.1-1.7,2.9,1.8,1.8c2.9-0.899,4-0.6,9.8,2.601
				c3.601,2,7.4,3.6,8.4,3.6s5.2,1.1,9.2,2.6c4.399,1.5,10.899,2.7,15.8,3.101l8.4,0.6l1.1-2.7c0.5-1.5,1-4,1-5.6
				c0-4.2-6.6-23.2-9.5-27.7L546.9,503.5z M426.3,593c0.272-0.123,0.543-0.235,0.814-0.353c-0.391,0.169-0.779,0.343-1.166,0.519
				C426.068,593.111,426.178,593.055,426.3,593z M457.371,586.625c-0.004-0.01-0.008-0.02-0.012-0.03
				C457.363,586.605,457.367,586.616,457.371,586.625z M454.943,500.025c-0.628,0.342-1.297,0.744-1.943,1.175
				c-1.326,0.936-2.452,2.17-3.386,3.703C450.908,502.309,452.395,501.117,454.943,500.025z M446.833,513.204
				c-0.55,3.479-0.695,7.63-0.433,12.496c0.458,8.627,2.03,20.362,3.966,31.4c-1.983-10.865-3.329-21.239-3.966-30.4
				C445.904,520.095,445.957,516.964,446.833,513.204z M434.916,488.61c-0.207-3.877-0.891-5.567-3.015-9.209
				c-0.362-0.656-0.842-1.395-1.384-2.162c0.609,0.838,1.153,1.644,1.583,2.361C434.315,483.601,434.998,484.746,434.916,488.61z
				 M429.691,591.586c-0.19,0.074-0.381,0.151-0.572,0.228C429.31,591.739,429.501,591.66,429.691,591.586z M428.426,592.093
				c-0.407,0.168-0.814,0.339-1.22,0.515C427.613,592.431,428.02,592.259,428.426,592.093z M423.8,469.8
				c-3.185-2.677-7.529-6.776-12.193-11.409C416.258,463.009,420.597,467.103,423.8,469.8z M355.3,461.9
				c0.556,23.396,2.768,45.266,6.838,66.598C357.811,506.796,355.921,487.454,355.3,461.9z M368.371,404.427
				c-0.285-0.449-0.544-0.861-0.771-1.227c-0.524-0.854-0.976-1.565-1.371-2.154c0.521,0.723,1.104,1.643,1.771,2.754
				C368.115,403.998,368.24,404.208,368.371,404.427z M362.354,400.819c-1.798,4.147-4.242,14.781-5.954,26.081
				c-0.094,0.626-0.183,1.238-0.266,1.842c0.775-6.967,2.047-13.37,3.966-20.742C360.987,404.61,361.683,402.248,362.354,400.819z
				 M292.866,422.395c10.077-19.875,16.446-30.164,24.134-38.695c1.392-1.535,2.409-2.747,3.112-3.717
				c-0.692,1.006-1.691,2.226-3.012,3.717C309.318,392.231,302.944,402.521,292.866,422.395c-0.672,1.325-1.36,2.692-2.066,4.105
				C291.506,425.087,292.194,423.72,292.866,422.395z M317.8,375.3c1.898,0.277,3.017,0.7,3.358,1.481
				c-0.02-0.027-0.035-0.055-0.058-0.081c-0.851-1.135-3.873-1.562-8.194-1.288C314.986,375.196,316.746,375.133,317.8,375.3z
				 M300.282,377.818c-1.635,0.511-3.252,1.075-4.667,1.639c0.193-0.084,0.394-0.173,0.585-0.256
				C297.26,378.734,298.682,378.265,300.282,377.818z M277.061,388.219c-12.766,6.528-28.471,15.206-41.846,23.187
				C248.677,403.268,263.527,395.028,277.061,388.219z M168.407,461.928c-24.108,22.594-45.879,47.97-60.087,70.733
				C122.415,509.913,143.896,484.765,168.407,461.928z M171.193,459.347c-0.355,0.328-0.711,0.654-1.065,0.983
				C170.483,460.002,170.837,459.674,171.193,459.347z M108.319,532.662c-0.528,0.846-1.027,1.683-1.535,2.521
				C107.287,534.346,107.796,533.506,108.319,532.662z M104.702,558.385c0.081-0.009,0.151-0.008,0.198,0.016
				C104.838,558.387,104.767,558.394,104.702,558.385z M105.861,558.496c0.76-0.021,1.89-0.145,3.215-0.353
				C107.809,558.366,106.668,558.493,105.861,558.496z M124,556.7c-2.042-0.199-4.159-0.225-6.202-0.089
				c2.304-0.232,4.437-0.241,6.102-0.012c0.661,0.089,1.32,0.18,1.978,0.271C125.298,556.814,124.685,556.758,124,556.7z
				 M161.175,563.372c1.515,0.398,2.805,0.777,3.825,1.128c0.361,0.123,0.736,0.258,1.11,0.392
				C164.542,564.377,162.864,563.861,161.175,563.372z M215.848,592.014c-2.462-2.249-9.396-6.873-16.071-10.969
				C207.326,585.383,213.47,589.472,215.848,592.014z M217.17,593.426c0.749,0.648,1.552,1.074,2.03,1.074
				C218.594,594.5,217.816,594.04,217.17,593.426z M225.951,600.578c0.701,0.529,1.359,1.091,1.849,1.622
				c2.454,2.593,4.562,4.898,6.384,6.983C229.812,604.336,227.587,601.958,225.951,600.578z M247.6,629
				c-1.303,0-5.026-6.403-5.538-9.227c0.363,0.668,0.677,1.311,0.938,1.927c3.6,8.6,7.4,9.6,4.9,1.399c-0.8-2.8-0.9-4.399-0.2-5.3
				c0.378-0.433,0.668-3.49,0.872-8.532c-0.191,4.95-0.453,8.061-0.772,8.433c-0.7,0.8-0.6,2.3,0.1,4.399
				C249.4,626.4,249.3,629,247.6,629z M248.9,592.5c-0.004,0.594-0.009,1.178-0.014,1.758
				C248.891,593.676,248.896,593.099,248.9,592.5z M257.158,622.674c0.014,0.039,0.028,0.09,0.042,0.125c0.6,1.5,1,4.4,0.9,6.4
				c-0.115,1.261-0.028,2.311,0.176,2.989C257.776,630.782,257.403,627.554,257.158,622.674z M316,615.5
				c-0.315-0.018-0.618-0.033-0.913-0.048c3.695,0.09,6.865,0.412,9.043,0.996C322.528,616.102,319.375,615.72,316,615.5z
				 M273.67,505.393c13.462-37.426,32.969-73.917,56.73-105.693C306.7,431.419,287.156,468.008,273.67,505.393z M273.449,506.003
				c0.017-0.048,0.033-0.096,0.05-0.144C273.482,505.907,273.466,505.955,273.449,506.003z M389.8,637.2c-1.4-2.3-2.4-3-3.1-2.3
				c-0.7,0.699-3.4-0.301-8.6-2.801c-0.584-0.292-1.172-0.582-1.76-0.868c7.173,3.397,9.825,4.204,10.66,3.368
				c0.9-0.8,1.4-0.8,1.7,0c0.8,2.301,6.5,9.4,7.5,9.4c0.262,0,0.244-0.447,0.013-1.155c0.499,0.996,0.787,1.627,0.787,1.754
				C397,645.9,392,640.7,389.8,637.2z M412.183,603.06c-0.589,0.743-1.146,1.496-1.642,2.224
				C411.063,604.502,411.612,603.765,412.183,603.06z M457.516,586.982c0.389,0.904,0.753,1.56,1.083,1.918
				c0.306,0.344,0.55,0.628,0.764,0.777C458.809,589.519,458.198,588.633,457.516,586.982z M462.628,500.34
				c3.446,1.031,7.784,3.022,13.185,5.985C471.595,504.026,466.495,501.733,462.628,500.34z M475.788,549.073
				c0.403-0.581,0.808-1.143,1.212-1.673c0.303-0.399,0.636-0.803,0.984-1.208c-0.027,0.035-0.059,0.073-0.084,0.107
				L475.788,549.073z M475.95,506.4c0.186,0.102,0.362,0.196,0.55,0.3c0.117,0.067,0.24,0.14,0.36,0.209
				C476.561,506.74,476.261,506.57,475.95,506.4z"/>
			<path d="M1127.6,602.5c-0.899-22.7-7.899-45.4-22.199-72.5c-19.9-37.8-42.601-67.7-72.101-95.3c-18.3-17.101-22.6-20.5-52.1-41.4
				c-3-2.1-5.8-3.7-6.3-3.5c-1.101,0.3-6.2-2.3-14.4-7.3c-6.2-3.7-32.1-16.6-34.2-16.9c-0.6-0.1-2.6-1-4.5-1.899
				c-1.8-0.9-9.2-4-16.5-6.8c-14.6-5.5-23.6-11.301-27.1-17.301c-2-3.5-2.101-3.899-0.7-7.3c0.8-1.899,4-7.1,7-11.399
				c3-4.301,5.5-8.101,5.5-8.4c0-1-7.5-0.4-12.9,1.1c-11.3,3-27.1,12.5-33.399,20c-4,4.7-10.7,15.601-10.7,17.2
				c0,0.9-0.8,2.5-1.9,3.601c-1,1.199-2.3,3.899-2.899,6.1c-6.7,25.5-23.5,51.7-49.9,77.6C766.8,449.5,757.7,455.4,725,473
				c-7.4,4-19.1,10.8-26,15c-16.7,10.4-28.5,15-38.3,15h-7.3l-2.801,4.2c-3.1,4.8-9.6,23.5-9.6,27.8c0,1.6,0.5,4.1,1,5.6l1.1,2.7
				l8.4-0.6c4.7-0.3,11.5-1.7,15.7-3c4-1.4,8.5-2.8,10-3.101c1.5-0.399,5.1-2,8-3.699c4.7-2.801,5.7-3.101,9.1-2.2
				c3.46,0.976,4.474,0.532,2.915-1.045c1.312,1.207,3.506,2.444,6.416,3.519c0.084,0.339,1.82,1.692,5.27,3.926
				c3.399,2.2,9,6.801,12.399,10.2l5.01,5.01c4.588,7.576,8.75,17.664,10.69,25.99c1.688,7.336,2.36,10.33,2.942,11.198
				c-0.48-0.119-0.95,1.807-1.143,4.403l-0.3,4.8l4.8-4c4.4-3.8,4.601-4.101,3.101-5.8c-0.193-0.22-0.358-0.43-0.489-0.656
				c0.111,0.156,0.238,0.305,0.389,0.456c1.3,1.3,2.101,1.3,5.2,0.3c0.97-0.33,2.112-0.517,3.382-0.581
				c0.471,0.329,2.021,0.873,4.818,1.581c11.2,2.7,19.1,7,25.899,14.3c3.2,3.4,6.4,7.101,7.101,8.2
				c1.081,1.802,1.184,1.965,0.755,0.519c0.524,1.279,1.038,2.626,1.545,4.081c1.3,3.5,3,7.2,3.8,8.101
				c0.196,0.246,0.357,0.472,0.489,0.698c-0.111-0.132-0.24-0.263-0.389-0.398c-1.2-1.2-1.4-0.7-1.5,3.6v5.101l1.399-3.7
				c0.297-0.709,0.518-1.286,0.681-1.785c-0.174,0.741-0.464,1.665-0.881,2.885c-0.849,2.454-1.512,5.509-1.585,7.025
				c-0.037-0.192-0.074-0.4-0.114-0.625c-0.5-2.7-0.7-2.9-0.801-0.9c0,1.4-0.8,3.4-1.6,4.5c-0.8,1-1.5,2.7-1.5,3.7
				c0,0.9-0.4,2.5-0.8,3.5c-2.7,5.7-5.8,11.3-8.4,15.101l-3,4.399l2.9-1.8c6.3-4,12.5-10,17.8-17c3-4.1,6.8-8.2,8.3-9.3
				c5-3.4,19.3-10.4,29.601-14.3c4.471-1.789,7.289-3.114,7.167-3.333c1.301-0.33,2.652-0.644,4.05-0.949
				c0.056,0.027,0.109,0.055,0.183,0.082c0.7,0.3,1.601,0.2,1.9-0.101c0.201-0.151,0.148-0.301-0.093-0.401
				c2.851-0.583,5.932-1.139,9.393-1.698c0.325-0.051,0.65-0.103,0.974-0.154c-0.612,0.372-0.974,0.845-0.974,1.354
				c0,1.1,0.3,1.3,1.3,0.5c0.601-0.601,2.8-1.5,4.7-2c2.135-0.61,2.363-0.958,1.066-0.956c2.735-0.552,4.81-1.061,5.434-1.344
				c0.102-0.042,0.221-0.081,0.33-0.122c0.284,0.357,2.612,0.587,6.47,0.422c6.1-0.347,10.418-1.27,9.765-1.704
				c3.262,0.115,6.695,0.365,10.073,0.739c-0.71,0.069-0.866,0.239-0.338,0.465c0.601,0.2,1.8,0.2,2.5,0
				c0.129-0.064,0.197-0.123,0.227-0.177c5.714,0.737,11.097,1.818,14.974,3.177c4.083,1.444,7.52,2.54,10.005,3.203L931,624.4
				c2.8,1.699,5,2.1,3.5,0.699c-0.6-0.5-2.1-1.199-3.5-1.5l-2.403-0.672c2.451,0.649,3.955,0.87,4.203,0.572
				c0.601-0.5,7.2,7.4,7.2,8.6c0,0.18,0.081,0.338,0.192,0.478c-0.51,0.137-0.211,1.511,0.907,4.522c2.101,5.301,2.5,16.4,0.9,25.4
				c-0.4,2.7-0.7,5.1-0.5,5.3c0.5,0.601,5.3-15.1,6.6-21.3c2.301-12,15.101-32.7,27.101-44c8.6-8.2,24.6-20.2,33.3-25
				c3.6-2,6.5-3.9,6.5-4.1c0-0.094-0.09-0.127-0.225-0.128c1.859-0.924,3.715-1.819,5.545-2.676
				c-0.156,0.236-0.108,0.404,0.18,0.404c0.6,0,1.7-0.5,2.5-1c0.669-0.418,0.979-0.832,0.716-0.958
				c0.919-0.412,1.831-0.814,2.724-1.197c-0.182,0.095-0.335,0.182-0.439,0.255c-1.3,1-1.3,1,0,0.601c3.4-1,26.6-7.601,28.5-8
				c1.5-0.4,1.4-0.5-0.5-0.4c-0.347,0-0.754,0.013-1.197,0.034c1.512-0.285,3.081-0.57,4.693-0.853
				c0.019,0.064,0.113,0.138,0.304,0.22c0.601,0.2,1.8,0.2,2.5,0c0.585-0.292,0.118-0.488-1.202-0.498
				c1.437-0.247,2.905-0.492,4.399-0.734c0.009,0.068,0.1,0.145,0.303,0.232c0.601,0.2,1.8,0.2,2.5,0
				c0.576-0.288,0.13-0.481-1.145-0.497c1.234-0.195,2.483-0.388,3.744-0.577L1079,558.3c18.3,1.4,18.5,1.4,27.2,10.601
				c12.7,13.3,14.6,16.8,19.399,34.6l2.4,9L1127.6,602.5z M992.7,429.7c26.208,19.054,51.056,42.122,71.355,65.863
				C1043.823,472.057,1018.726,448.665,992.7,429.7c-10.576-7.719-29.239-19.276-46.767-29.246
				C963.495,410.271,980.803,420.993,992.7,429.7z M941.9,629.2c-0.101-2,0.3-4.9,0.899-6.4c0.001-0.002,0.002-0.006,0.003-0.009
				c-0.188,3.886-0.47,6.51-0.869,8.063C941.961,630.36,941.955,629.807,941.9,629.2z M882.9,383.7
				c-0.842-0.951-1.539-1.781-2.125-2.526c0.603,0.734,1.334,1.568,2.225,2.526c7.944,8.815,14.48,19.508,25.154,40.714
				C897.48,403.208,890.94,392.516,882.9,383.7z M905.451,379.924c-1.714-0.719-3.171-1.285-4.499-1.744
				c1.09,0.335,2.07,0.679,2.848,1.021C904.342,379.434,904.898,379.68,905.451,379.924z M892.706,376.229
				c-0.295-0.043-0.596-0.087-0.906-0.13c-4.711-0.712-7.704-0.971-9.701-0.783c0.035-0.005,0.065-0.012,0.102-0.017
				C884.123,374.997,888.351,375.437,892.706,376.229z M879.768,375.934c-0.262,0.142-0.492,0.306-0.696,0.493
				C879.24,376.238,879.474,376.075,879.768,375.934z M858.467,390.038c-1.564,1.771-1.558,2.507-0.367,8.662
				C856.856,392.483,856.807,391.752,858.467,390.038z M834.597,577.55c3.524-9.243,6.509-17.672,9.067-25.742
				C840.989,560.522,837.974,569.079,834.597,577.55z M819.378,593.138c2.606-6.852,4.994-13.655,7.177-20.444
				C824.253,579.97,821.832,586.862,819.378,593.138z M837.858,528.516c4.072-21.338,6.286-43.214,6.842-66.616
				C844.079,487.461,842.188,506.807,837.858,528.516z M778.717,595.547c-4.108-2.242-9.265-4.406-13.621-5.695
				c2.749,0.769,5.658,1.824,8.604,3.147C775.534,593.831,777.188,594.673,778.717,595.547z M761.622,527.403
				C763.503,515.914,765,501.456,765,493.1C765,501.838,763.479,516.723,761.622,527.403z M753.166,513.204
				c0.877,3.76,0.93,6.891,0.434,13.496c-0.439,6.355-1.348,13.928-2.541,21.709c1.254-8.243,2.202-16.327,2.541-22.709
				C753.861,520.834,753.717,516.683,753.166,513.204z M750.386,504.903c-0.934-1.532-2.06-2.767-3.386-3.703
				c-0.619-0.417-1.158-0.763-1.665-1.05C747.711,501.208,749.141,502.407,750.386,504.903z M750.876,549.592
				c-0.066,0.423-0.131,0.845-0.199,1.27C750.744,550.438,750.81,550.015,750.876,549.592z M696.5,529
				c-1.112-0.874-1.324-1.316-0.568-2.31c-0.307,0.817,0.079,1.77,1.065,2.752C696.848,529.302,696.686,529.156,696.5,529z
				 M734.5,501.4c-4.627,1.729-12.225,5.992-19.506,10.635c3.132-2.081,6.13-3.973,8.506-5.335
				c5.709-3.167,10.252-5.272,13.84-6.351C736.505,500.644,735.575,500.99,734.5,501.4z M740.727,589.608
				c0.192-0.16,0.409-0.411,0.674-0.708c0.698-0.756,1.544-2.83,2.46-5.813C742.675,587.229,741.681,589.307,740.727,589.608z
				 M748.5,576.9c-0.745,2.017-1.328,3.63-1.783,4.965c0.66-2.054,1.63-4.801,2.983-8.565c2.8-7.6,5.7-17,6.6-20.8
				c0.473-2.046,1.137-5,1.821-8.054c-0.077,0.606-0.121,1.108-0.121,1.454C758,549.1,754.5,560.6,748.5,576.9z M786.356,601.394
				c1.671,1.762,3.12,3.751,4.433,6.068C789.489,605.346,787.904,603.171,786.356,601.394z M797.163,639.291
				c0.825,0.217,4.711-6.692,9.145-15.796c-0.723,1.535-1.777,3.691-3.208,6.605C798.444,639.58,797.658,641.106,797.163,639.291z
				 M813.3,634.9c-0.7-0.7-1.7,0-3.1,2.3c-2.4,3.899-7.2,8.6-7.2,7.1c0-0.524,1.224-2.962,2.868-5.705
				c-0.264,0.583-0.587,1.202-0.968,1.806c-1.101,2-1.601,3.6-1.101,3.6c1,0,6.7-7.1,7.5-9.4c0.3-0.8,0.8-0.8,1.7,0
				c0.836,0.836,3.488,0.03,10.659-3.367c-0.588,0.286-1.175,0.575-1.759,0.867C816.7,634.6,814,635.6,813.3,634.9z M857.6,483.5
				c1.258-10.77,1.918-32.029,1.914-50.773C859.518,451.495,858.858,472.779,857.6,483.5z M860.6,388
				c-0.043,0-0.123,0.048-0.224,0.124l0.324-0.324l1.177,1.573C861.17,388.503,860.712,388,860.6,388z M870.614,401.076
				c3.418,4.618,6.762,9.356,10.018,14.202C877.551,410.796,873.931,405.672,870.614,401.076z M898.714,444.838
				c12.056,21.67,22.263,44.469,29.91,66.921C920.903,489.757,910.502,466.322,898.714,444.838z M952.4,629
				c-1.7,0-1.801-2.6-0.301-6.9c0.7-2.1,0.801-3.6,0.101-4.399c-0.319-0.372-0.581-3.483-0.772-8.433
				c0.203,5.042,0.493,8.1,0.872,8.532c0.7,0.9,0.601,2.5-0.2,5.3c-2.5,8.2,1.301,7.2,4.9-1.399
				c0.261-0.617,0.575-1.259,0.938-1.927C957.426,622.598,953.702,629,952.4,629z M951.1,592.5c0.004,0.593,0.01,1.163,0.015,1.739
				C951.108,593.665,951.104,593.087,951.1,592.5z M965.823,609.176c1.82-2.083,3.927-4.386,6.377-6.976
				c0.49-0.531,1.148-1.093,1.85-1.622C972.415,601.957,970.191,604.333,965.823,609.176z M980.8,594.5
				c0.479,0,1.281-0.426,2.03-1.074C982.184,594.04,981.406,594.5,980.8,594.5z M984.149,592.017
				c2.376-2.542,8.523-6.634,16.077-10.974C993.548,585.141,986.609,589.769,984.149,592.017z M1030.713,566.087
				c1.502-0.591,2.943-1.128,4.287-1.587c0.799-0.275,1.762-0.566,2.87-0.872C1035.347,564.443,1032.809,565.313,1030.713,566.087z
				 M1074.8,556.8l-1.807,0.229c1.031-0.146,2.067-0.29,3.106-0.43c1.538-0.212,3.476-0.221,5.577-0.039
				C1079.434,556.393,1077.266,556.471,1074.8,556.8z M1094.261,558.499c0.424,0.005,0.718-0.025,0.839-0.098
				c0.042-0.021,0.1-0.026,0.167-0.021c-0.022,0.007-0.05,0.008-0.066,0.021C1095.05,558.476,1094.723,558.507,1094.261,558.499z
				 M1109.6,569.8c-0.399,0.3-3.5-2.3-7-5.7c-1.42-1.42-2.82-2.687-4.02-3.67c1.171,0.929,2.528,2.118,3.92,3.471
				c3.386,3.305,5.714,5.089,7.073,5.458C1109.628,569.594,1109.641,569.75,1109.6,569.8z"/>
			<path d="M451.9,590c-0.601,0-0.7,0.4-0.4,1c0.3,0.5,1.1,1,1.6,1c0.601,0,0.7-0.5,0.4-1C453.2,590.4,452.4,590,451.9,590z"/>
		</g>
	</g>
</g>
<g id="Layer_1">
	<g transform="translate(0.000000,1600.000000) scale(0.100000,-0.100000)">
		<path d="M3092.002,12887.996c-18.003-17.998-16.001-22.002,33.999-90c58.999-80,100-160.996,85-165.996
			c-6.001-2.002-11.001-10-11.001-17.002c0-37.002-105-109.004-225-155.996c-41.001-15-93.999-37.002-117.998-48.008
			c-23.003-10-100-45-172.002-75.996c-127.002-55-328.999-160.996-410-215c-22.002-15-45-25-52.002-22.998
			c-5.996,2.002-15-1.006-18.999-7.998c-5-8.008-2.998-10,7.002-4.004c7.998,5,11.001,4.004,6.001,0c-4.004-5-15-9.004-25-10
			c-19.004-0.996-178.003-110-302.002-207.998c-167.002-130-458.999-422.002-587.998-587.002c-149.004-190-331.001-480-450-715.996
			c-104.004-206.006-184.004-598.008-149.004-729.004l14.004-50l12.998,60c47.998,225.996,73.999,294.004,151.001,390
			C965,10340.994,1010,10377.996,1060,10384.002c235,30,337.002,16.992,641.001-81.006c236.001-75,521.001-282.998,648.999-472.998
			c82.002-122.002,127.002-217.002,150-317.002c20-85,77.998-252.998,91.001-262.998c2.998-2.998,8.999-12.002,11.997-20
			c11.001-30.996,6.001,47.998-8.999,135c-21.001,119.004-15,224.004,17.002,290c21.997,45.996,31.001,54.004,105,90.996
			c95,47.002,155,62.002,272.998,70c95,7.002,283.003-10,342.002-30c21.001-6.992,40-8.994,41.001-3.994
			c5,13.994,185-36.006,293.999-81.006c161.997-67.998,236.997-115.996,280-177.998c47.998-70,166.997-180.996,232.998-217.002
			c28.999-15,55.005-25.996,58.003-22.998c2.002,2.998-12.998,22.998-34.004,44.004C4162.001,9367.996,4080,9514.998,4080,9547
			c0,10-5,23.994-11.001,30c-17.998,17.998-37.998,135.996-30,178.994c18.999,101.006,108.999,219.004,208.003,271.006
			c72.002,37.998,153.994,62.998,207.998,62.998c52.002,0,124.004-52.002,162.002-117.002
			c13.994-23.994,28.994-42.998,33.994-42.998c12.002,0,12.002,0.996-11.992,55.996c-18.008,40-21.006,60-16.006,123.008
			c12.998,162.998,81.006,325.996,175,416.992c70,70,190,140,251.006,149.004c41.992,5.996,53.994,2.998,100.996-25
			c29.004-17.002,67.002-34.004,84.004-37.002c16.992-2.998,62.998-15.996,101.992-28.994c85-28.008,198.008-40,235-26.006
			c22.002,9.004,28.008,19.004,33.008,59.004c10.996,82.002-81.006,335-133.008,362.002c-8.994,5-50.996,8.994-92.998,8.994
			c-65.996,1.006-88.994,6.006-170,40c-52.002,21.006-137.002,66.006-188.994,99.004c-93.008,58.994-200,120-354.004,202.998
			c-44.004,24.004-140.996,80-215,122.998c-119.004,71.006-150,95-261.001,206.006c-231.001,230-373.999,453.994-442.998,691.992
			c-8.999,31.006-16.001,68.008-16.001,82.002c0,17.998-3.999,25-13.999,21.006c-8.999-3.008-27.002,21.992-55,78.994
			c-81.001,162.998-232.002,282.998-435,346.006C3148.999,12902.996,3108.999,12904.998,3092.002,12887.996z M3270,12804.998
			c117.002-59.004,193.999-107.998,252.002-162.998c53.999-51.006,107.998-130,111.997-166.006l3.003-23.994l-66.001,22.998
			c-36.001,12.002-102.002,40-146.001,62.002s-96.001,45.996-115,52.998c-47.002,19.004-67.002,45.996-75,100
			c-5,30-20,62.002-46.001,95.996c-21.001,28.008-38.999,54.004-38.999,57.002C3150,12859.002,3186.001,12847,3270,12804.998z
			 M3427.998,12514.002c75-36.006,157.002-69.004,181.001-74.004c43.999-7.998,75-32.998,68.003-55
			c-2.002-5-21.001-10-42.002-10.996c-56.001-1.006-56.001-22.002,0-26.006l46.001-2.998l31.997-75.996
			c51.001-115,220-382.002,348.003-547.002c26.001-32.002,85-91.006,131.997-131.006c81.006-66.992,117.998-103.994,86.006-85.996
			c-9.004,5-10,5-4.004-2.002c5.996-5,65.996-42.002,135-82.998c69.004-40,179.004-105,245-145s149.004-87.002,185-105
			c35.996-17.002,110.996-59.004,167.002-92.998c77.002-47.002,97.998-64.004,87.998-72.002c-15.996-12.002-35-77.998-35-120.996
			c0-33.008,15.996-52.002,69.004-79.004c43.994-22.002,53.994-10.996,56.992,67.002c2.002,35,3.008,70.996,3.008,80
			c0.996,15,5,15.996,26.992,5.996c19.004-8.994,24.004-17.002,19.004-32.002c-2.998-11.992-9.004-56.992-12.002-100.996
			c-5-72.998-2.998-82.002,16.006-99.004c10.996-10.996,20.996-15.996,20.996-12.998s30-5,67.002-18.994
			c37.998-14.004,80.996-24.004,102.002-22.002c32.998,2.998,35.996,5.996,38.994,37.002c4.004,37.998-33.994,207.998-50,228.994
			c-7.998,9.004-3.994,12.002,14.004,12.002c22.002,0,27.998-10,65.996-127.002c45-140.996,62.998-208.994,54.004-217.998
			c-11.006-10.996-70-4.004-174.004,19.004c-117.002,26.992-152.998,41.992-212.998,90.996c-57.002,45.996-339.004,220.996-410,255
			c-102.002,47.998-180,70-247.002,69.004H4445l37.998-17.002l37.998-17.002l-28.994-22.002
			c-32.998-23.994-62.002-95-62.002-150.996c0-34.004,14.004-151.006,45.996-372.998c8.008-58.008,23.008-137.002,34.004-174.004
			c10.996-37.998,17.998-70,15.996-72.002c-3.994-5-70,167.998-90.996,240c-9.004,32.002-19.004,56.006-20.996,54.004
			c-7.002-6.006,23.994-112.998,67.998-242.002c20.996-60,40.996-117.998,45-127.998c5-17.002,0.996-17.998-64.004-12.002
			c-80.996,7.998-153.994-9.004-245.996-57.002c-97.002-52.002-170-150-200-267.998l-13.003-50L3982.001,9802
			c-11.001,28.994-23.003,67.002-25,82.998c-3.003,20.996-4.004,15.996-6.001-17.002c0-25,7.998-75,18.999-108.994
			c10-35,17.998-65,16.001-66.006c-3.999-3.994-111.001,237.002-153.999,347.002c-79.004,202.002-158.003,482.002-201.001,715
			c-42.002,225-53.003,337.998-58.003,630c-5.996,305.996-0.996,367.998,41.001,542.998c22.002,90,23.003,92.002,35,65
			c18.999-42.002,112.002-178.994,172.002-252.998c28.999-35.996,43.999-57.998,32.998-50
			c-61.997,49.004,213.003-254.004,326.001-359.004c132.002-121.992,150-155.996,150-287.998c0-120.996,52.998-468.994,74.004-490
			c15-15,12.998,9.004-10,102.002c-28.008,114.004-46.006,352.998-35,455c5.996,60.996,5,67.998-22.002,107.998
			c-15,22.998-95,111.006-176.001,196.006c-208.003,213.994-396.001,457.998-476.001,615c-12.998,25.996-42.998,65-66.001,85.996
			c-38.999,35-42.998,37.002-50,19.004c-11.001-28.008-10-46.006,1.001-39.004c6.001,2.998,10-2.998,10-14.004
			c0-10,5-20.996,11.001-22.998c7.998-2.998,2.998-57.998-17.002-187.998c-23.999-164.004-27.998-212.002-27.998-425
			c0-344.004,32.998-610,115-937.998c62.998-247.998,217.998-675,248.999-685c6.001-2.002,10-9.004,10-15
			c0-11.006,90-211.006,150-332.002l30-60l-42.998,45c-64.004,70-84.004,95.996-92.002,120
			c-3.999,12.002-33.999,49.004-67.002,82.998c-32.998,34.004-75.996,86.006-95,115c-20,27.998-37.998,52.002-40,52.002
			c-5,0-3.999-0.996,60-104.004c26.001-42.998,45-76.992,40-73.994c-3.999,2.002-47.998,23.994-97.998,48.994
			c-126.001,65-218.999,95-375,120C3316.001,9832,3245,9847,3232.998,9852c-55,25.996-432.998-12.002-432.998-44.004
			c0-5-5-5.996-11.001-2.002c-6.001,3.008-13.999,2.002-17.998-3.994c-3.003-6.006-23.999-12.998-46.001-15
			c-22.002-2.998-52.002-10-67.002-15c-25-10-25.996-10-17.998,17.002c8.999,33.994,36.001,86.992,62.002,123.994
			c10.996,16.006,17.998,31.006,15,34.004c-8.003,7.998-66.001-75-94.004-134.004c-12.998-28.994-28.999-55-33.999-58.994
			c-6.997-4.004-7.998,95-6.001,282.998c4.004,260.996,7.002,300,31.001,420c51.001,252.998,148.003,542.998,267.002,795
			c158.999,335.996,296.001,567.002,457.998,772.002c65,82.998,78.003,75,58.999-36.006c-20-122.002-16.997-652.998,5-822.998
			C3465,10692,3570,10339.002,3767.001,9945.994c61.997-123.994,141.997-265.996,150-265.996c2.998,0-9.004,25-27.002,57.002
			c-242.998,430-385,847.002-445,1300c-30,228.994-37.002,455.996-26.001,780.996c12.002,319.004,8.003,387.998-25,427.998
			c-16.997,21.006-16.997,21.006,1.001-75.996c5-32.998,0-42.002-85-145c-137.998-165.996-237.002-322.998-351.001-552.998
			c-176.001-357.002-281.997-621.006-338.999-847.002c-60-235-70-335-68.999-685c0-167.998-3.999-327.002-8.003-355
			c-8.999-49.004-8.999-49.004-20.996,60c-20,182.998-33.003,595-21.001,709.004c35,350.996,112.998,670,246.001,1005.996
			c76.997,195,113.999,270,223.999,455.996c91.997,157.002,116.001,193.008,206.001,315c33.999,48.008,62.998,91.006,62.998,97.002
			c0,6.006,2.998,12.002,7.998,14.004c4.004,2.002,5,37.002,2.002,77.998c-5,69.004-6.001,72.998-17.998,50.996
			c-8.003-11.992-12.002-30.996-9.004-41.992c5-18.008-11.997-27.002-87.998-44.004c-16.001-2.998-47.002-15-70-25
			c-22.002-10-76.001-32.002-120-50c-331.001-130-877.002-462.998-1195-727.998c-101.001-84.004-315-299.004-381.001-382.002
			C1225,10915.994,980,10562.996,980,10537.996c0-5,5-5.996,12.002-2.002c6.997,4.004,7.998,3.008,3.999-5
			c-3.999-5.996-11.001-8.994-16.001-5.996s-17.998-14.004-30-37.002c-11.001-23.994-15-35-7.998-25c30,42.998,37.998,50,22.998,20
			c-7.998-17.998-21.001-35.996-28.999-40c-7.002-3.994-21.001-22.998-30-42.002c-35-65.996-118.003-202.998-122.002-197.998
			c-6.001,6.006,41.001,166.006,83.003,282.002c41.997,117.998,93.999,224.004,125,257.998c12.998,14.004,57.998,82.002,100.996,150
			c43.003,69.004,127.002,191.006,186.001,271.006c60,78.994,107.002,146.992,103.999,150c-2.998,1.992,7.002,11.992,21.001,20.996
			c13.999,10,23.999,20.996,21.001,25c-8.999,15,247.002,247.998,493.999,449.004c113.003,90.996,252.002,185.996,361.001,245.996
			c57.998,30.996,110,60.996,115,65c28.999,22.998,295,157.998,422.998,215c81.001,35.996,154.004,70,162.002,75
			s47.002,27.002,85,47.998c38.999,22.002,95,57.998,125,81.006c30,22.998,65,40.996,77.998,40.996
			C3281.001,12579.998,3352.998,12549.998,3427.998,12514.002z M3717.998,12314.998c-2.998-2.998-8.999,2.002-11.997,12.002
			c-6.001,13.994-5,15,5,5.996C3717.998,12325.994,3721,12317.996,3717.998,12314.998z M3193.999,12217.996
			c-3.999-7.002-31.001-42.998-60-78.994c-28.999-36.006-76.997-104.004-106.997-150
			c-53.003-83.008-243.003-457.002-271.001-534.004c-8.003-22.002-37.002-100.996-63.999-175
			c-159.004-427.002-236.001-850-232.002-1270c2.002-185.996,2.002-189.004-20-100c-18.999,77.998-23.999,59.004-11.001-44.004
			l7.002-57.998l-18.999,26.006c-57.002,78.994-253.003,261.992-351.001,328.994c-140,95-405,214.004-538.003,242.002
			c-220,47.002-363.999,55.996-441.997,30c-25-9.004-51.001-12.998-57.002-10c-5,4.004-17.998,0.996-26.997-7.002
			c-40-30.996,140,161.006,185.996,199.004c29.004,22.998,48.003,45,43.003,47.002c-10,6.992-78.003-51.006-188.999-158.008
			l-73.003-70.996l50,97.002c58.003,113.994,178.999,292.998,298.999,445c179.004,225,520,542.998,785,730.996
			c305,217.002,825,495,957.002,512.002C3155,12232.996,3202.002,12232,3193.999,12217.996z M5147.001,10982.996
			c15.996-15,17.998-28.994,15-90c-2.002-40.996-7.998-72.998-14.004-72.998c-5,0-25,15-42.998,32.998
			c-32.002,32.002-32.998,35-24.004,77.002c10,44.004,25,70,39.004,70C5124.003,10999.998,5135.996,10992,5147.001,10982.996z
			 M4647.001,10967.996c75-27.998,185.996-92.998,295.996-175c92.002-68.994,97.998-82.998,39.004-97.998
			c-96.006-24.004-234.004-145.996-294.004-260c-43.994-84.004-87.998-229.004-88.994-294.004c0-38.994-2.002-42.998-10-21.992
			c-38.008,93.994-94.004,385.996-110,575c-11.006,125-11.006,135.996,8.994,202.998
			C4517.998,10994.002,4545,11007,4647.001,10967.996z M5382.001,10917.996c30-10.996,30.996-12.998,52.998-115.996
			c20.996-102.002,20-112.002-10-112.002c-32.002,0-154.004,44.004-172.002,62.998c-12.002,12.002-12.002,27.002-2.002,99.004
			l12.002,85l46.006-4.004C5334.003,10929.998,5367.001,10924.002,5382.001,10917.996z"/>
		<path d="M3240,12485.994c0-5.996,193.999-80.996,260-100c97.002-28.994,38.999,0-107.998,53.008
			C3246.001,12490.994,3240,12492.996,3240,12485.994z"/>
		<path d="M8744.999,12872c-107.002-36.006-202.002-91.006-275-157.998c-65.996-62.002-137.998-163.008-147.002-206.006
			c-2.998-15.996-15.996-37.002-28.994-47.002c-13.008-10-24.004-26.992-24.004-36.992c0-9.004-15.996-65-35.996-123.008
			c-71.005-210.996-231.005-448.994-437.001-651.992c-111.006-109.004-132.002-125-291.006-217.002
			c-93.994-54.004-226.992-130-295.996-167.002s-165-94.004-215-125c-172.002-109.004-275.996-150.996-377.002-150.996
			c-40,0-80-4.004-88.994-9.004c-28.008-15.996-70-97.002-106.006-209.004c-27.002-85.996-32.998-115-27.002-153.994
			c5-40,11.006-50,33.008-59.004c37.998-15,150.996-2.002,237.998,27.002c40,14.004,80,25,87.002,25
			c7.998,0,45,15.996,81.992,35.996c59.004,31.006,73.008,35,113.008,29.004c112.998-15.996,285.996-160,345.996-287.002
			c72.002-150.996,95-327.998,55-415c-10-23.994-15-42.998-9.004-42.998c5,0,21.006,19.004,35,42.998
			c39.004,62.998,113.008,117.002,161.006,117.002c95.996,0,227.002-57.002,300.996-130c55-54.004,107.998-147.998,117.998-207.002
			c7.002-42.998-10.996-148.994-28.994-170.996c-6.006-7.998-10-30-10-50c0.996-21.006,0-32.002-2.998-25
			c-3.008,7.002-22.002-20-42.002-59.004c-20-38.994-57.002-92.998-81.006-120.996c-38.994-42.998-41.992-49.004-20.996-42.002
			c67.998,20,182.002,115.996,272.002,230c60,77.002,120.996,115,302.998,190c102.002,42.002,277.998,90,282.998,77.002
			c1.006-5,20-2.998,41.006,3.994c60,20,246.992,37.002,343.994,30c112.998-7.998,164.004-20,262.002-65.996
			c80-35.996,80.996-37.002,110-100.996c24.004-54.004,29.004-76.006,27.998-144.004c0-44.004-7.998-120-17.002-170
			c-20-112.998-20-120.996-2.998-102.998c20,20,72.998,170.996,102.002,287.002c65,265,275.996,508.994,604.004,696.992
			c116.992,66.006,321.992,136.006,505.996,170c65.996,12.002,117.002,15,190,10c184.004-10.996,170-5,267.002-106.992
			c107.002-111.006,137.998-170,180.996-348.008c29.004-115.996,35-130.996,46.006-116.992c16.992,20.996,8.994,200-14.004,320.996
			c-42.002,219.004-82.998,329.004-215.996,577.998c-206.006,389.004-443.008,691.006-794.004,1011.006
			c-147.998,135-420,337.998-457.002,340.996c-10,0.996-20.996,5-25,10c-5,4.004-2.002,5,6.006,0c10-5.996,11.992-4.004,6.992,4.004
			c-3.994,6.992-12.998,10-18.994,7.998c-7.002-2.002-30,7.998-52.002,22.998c-80.996,54.004-282.998,160-410,215
			c-70.996,30.996-150,65.996-175,77.002c-25,12.002-80.996,33.994-125,50c-140.996,50-244.004,138.994-230,197.998
			c4.004,14.004,32.998,65,65.996,112.998c32.002,49.004,59.004,94.004,59.004,102.002
			C8909.999,12907.996,8847.997,12907.996,8744.999,12872z M8844.003,12837.996c-4.004-7.002-22.002-30.996-41.006-53.994
			c-20-25-37.002-60-43.994-95c-11.006-53.008-45-99.004-74.004-99.004c-5.996,0-55.996-22.002-110.996-47.998
			c-106.006-52.002-202.002-87.998-211.006-77.998c-23.994,23.994,71.006,155.996,160,221.992
			C8645.995,12777.996,8870.995,12884.002,8844.003,12837.996z M8812.001,12534.002c80.996-59.004,187.002-118.008,312.998-172.002
			c127.002-55,352.998-167.998,470-236.006c50-28.994,122.002-70,160-90.996c77.998-42.002,225-145,325.996-225.996
			c247.002-201.006,503.008-434.004,494.004-449.004c-2.998-4.004,7.002-15,20.996-25c14.004-9.004,24.004-19.004,21.006-20.996
			c-2.998-3.008,45.996-74.004,108.994-157.002c62.002-84.004,141.006-199.004,176.006-257.002
			c33.994-57.998,85-140,113.994-182.998c54.004-79.004,111.006-212.998,157.002-367.002c34.004-115,46.006-160,42.002-160
			c-2.002,0-30,44.004-60.996,97.998c-31.006,52.998-72.002,120-90,147.002c-18.008,27.998-34.004,57.002-36.006,65
			s-10,20.996-17.998,27.998c-7.998,7.998-9.004,11.006-2.998,7.002c8.994-4.004,10.996-0.996,7.002,9.004
			c-3.008,8.994-11.006,12.998-17.002,8.994c-6.006-2.998-7.002-0.996-2.998,6.006c10.996,17.998-72.002,146.992-247.002,380.996
			c-271.006,362.998-505,575-962.002,875.996c-175.996,116.006-395.996,242.002-539.004,310
			c-135,63.008-340.996,146.006-417.998,168.008c-52.002,15-57.002,18.994-60,47.998c-2.002,17.002-8.994,32.998-15,35.996
			c-10,2.998-12.998-15-12.998-65.996c0-39.004,4.004-72.002,7.998-74.004c11.006-3.994,91.006-112.002,141.006-190
			c48.994-77.002,66.992-92.002,25.996-22.002c-37.998,65-22.998,67.002,17.998,3.008c32.002-51.006,111.006-205,85-165
			c-32.002,46.992-47.998,57.998-23.994,15.996c13.994-25,30-44.004,35-42.998c5.996,2.002,6.992-5,3.994-14.004
			c-5-12.002-2.998-13.994,7.002-7.998c7.998,5,10.996,4.004,5.996-2.998c-2.998-6.006,12.002-41.006,34.004-77.002
			c109.004-179.004,260.996-577.002,339.004-890c68.994-275.996,75.996-345.996,73.994-714.004c-2.002-225-7.998-378.994-18.994-470
			c-15-135.996-27.002-183.994-23.008-100.996c1.006,25-0.996,90-5,145c-2.998,55-7.998,200.996-10.996,325s-7.002,242.998-10,265
			c-4.004,32.998-2.998,35.996,5,15c7.998-22.002,9.004-20.996,5,10c-12.998,104.004-17.002,127.002-25,145c-5,10.996-20,70-35,130
			c-60.996,255.996-164.004,534.004-295,795.996c-130.996,260-250,450-402.998,642.002l-85,106.006l10,42.998
			c13.994,60,13.994,62.998,2.998,65.996c-15,6.006-34.004-72.002-35.996-142.002c-1.006-33.994,1.992-215.996,5.996-405.996
			c7.998-365.996,2.998-487.002-35.996-755c-56.006-387.998-194.004-780.996-415-1182.998
			c-136.006-247.998-138.008-251.006-190-307.002c-41.006-45-44.004-45.996-26.006-15c11.006,19.004,32.002,64.004,47.002,100
			c14.004,35.996,44.004,99.004,65.996,142.002c21.006,42.002,39.004,80,39.004,85c-0.996,3.994-15.996-21.006-35-57.002
			s-34.004-62.002-35-59.004c0,3.008,10.996,39.004,25,79.004c14.004,40.996,27.002,105.996,30,145l5,70l-14.004-60
			c-17.998-79.004-36.992-129.004-45-117.998c-3.994,3.994-15,32.998-23.994,62.998c-32.998,107.998-100,190-197.998,240
			c-92.002,47.002-162.002,62.998-242.002,55c-65-5.996-69.004-5-61.006,12.002c20,45,103.008,302.002,109.004,337.998
			c2.998,24.004-5.996,5.996-22.998-45c-56.006-167.998-114.004-300.996-77.002-175.996
			c34.004,110.996,67.998,335.996,82.002,538.994c7.002,91.006-12.002,152.002-57.998,191.006l-29.004,23.994l42.998,15l42.002,15
			l-65.996,1.006c-73.008,0.996-162.002-25-268.008-79.004c-80.996-40.996-318.994-190-390.996-245
			c-75-57.998-84.004-62.002-209.004-90c-111.992-25.996-165.996-30.996-173.994-17.002c-5,7.002,10,69.004,52.998,217.002
			c30,105.996,40,125,62.002,125c12.998,0,17.002-4.004,10.996-12.002c-3.994-7.002-7.998-17.002-8.994-22.998
			c-1.006-5-9.004-37.998-18.008-72.998c-8.994-34.004-17.998-86.006-18.994-115l-2.002-52.002l40-2.998
			c25-2.002,65.996,7.002,107.998,22.002C6710,10707.996,6740,10717,6740,10712.996c0-3.994,7.998,4.004,17.002,17.002
			c17.002,24.004,20.996,115,7.998,162.998c-2.998,9.004-7.002,25-10,35c-4.004,12.998,2.002,22.002,20,30
			c14.004,7.002,27.998,12.002,30,12.002c2.998,0,5-35,5-77.998c0-97.998,7.998-107.002,65.996-80
			c56.006,27.998,72.002,62.998,55,120.996c-6.992,22.998-18.994,52.002-26.992,64.004c-14.004,22.002-11.006,23.994,95.996,87.002
			c60,35.996,125,71.992,145,80c19.004,7.998,105.996,56.992,192.998,108.994c86.006,52.002,210,126.006,274.004,164.004
			c65,38.994,115,72.998,112.002,75c-3.008,2.998,35.996,42.998,86.992,87.002c93.008,81.992,149.004,147.998,252.002,296.992
			c87.002,126.006,197.001,312.002,227.998,384.004c27.002,64.004,29.004,65,68.008,67.998c26.992,2.002,40.996,7.998,40.996,17.002
			c0,10-9.004,12.002-34.004,7.998c-40.996-5.996-52.998,9.004-31.992,42.002c10.996,17.002,25.996,25,45.996,25
			c15,0,95,30.996,177.002,70c80.996,37.998,157.998,70,170,70C8739.999,12579.998,8777.997,12559.002,8812.001,12534.002z
			 M8292.997,12324.998c-2.998-9.004-7.998-14.004-10-10.996c-2.998,2.998-2.002,8.994,2.002,15
			C8294.003,12344.998,8299.999,12342,8292.997,12324.998z M9032.001,12194.002c182.998-75,542.998-273.008,777.998-429.004
			c224.004-147.998,400-294.004,605.996-499.004c192.002-192.998,298.008-318.994,433.008-515.996
			c75.996-112.002,187.998-310,173.994-310c-2.998,0-55,47.002-115,105c-117.002,112.002-142.998,132.002-152.998,115
			c-2.998-5,0-10,7.002-10c12.998,0,227.998-210,227.998-222.002c0-7.998-60-0.996-100,11.006
			c-47.998,15-132.998,13.994-247.998-4.004c-234.004-35-310-59.004-524.004-167.002c-140.996-70.996-213.994-118.994-315-207.998
			c-110.996-99.004-127.998-115-185-177.998l-57.998-62.998l5,77.998l5,77.998l-17.998-80l-17.002-80l-5.996,295
			c-4.004,195-12.002,334.004-24.004,410c-60.996,417.002-184.004,794.004-392.998,1205
			c-47.998,94.004-87.002,172.998-87.002,177.002c0,12.002-114.004,182.002-145.996,217.998
			c-17.002,19.004-27.002,29.004-23.008,20.996c5-8.994,3.008-11.992-5-6.992c-5.996,3.994-8.994,10.996-5.996,15.996
			s-9.004,25-27.002,45.996l-32.998,37.002l92.998-7.002C8939.999,12220.994,8990.995,12209.998,9032.001,12194.002z
			 M8887.997,12084.002c-3.994-3.008-12.002,5-17.998,17.998c-12.002,22.002-12.002,22.002,5.996,5.996
			C8885.995,12097.996,8890.995,12087.996,8887.997,12084.002z M8707.997,11964.998
			c402.002-564.004,682.002-1259.004,707.002-1752.998c7.002-142.002-2.998-454.004-15-447.002
			c-2.998,2.002-20.996,32.998-39.004,69.004c-17.998,35-46.992,76.992-63.994,92.998l-31.006,27.998l19.004-30
			c32.002-50,62.998-109.004,69.004-132.002c5.996-18.994,3.994-20.996-16.006-17.002c-12.998,3.008-40.996,8.008-62.998,11.006
			c-22.002,2.002-42.998,8.994-45.996,15c-4.004,5.996-12.002,7.002-18.008,3.994c-5.996-3.994-10.996-2.998-10.996,2.002
			c0,32.002-377.998,70-432.998,44.004c-12.002-5-82.998-20-157.002-31.006c-155.996-25-249.004-55-375-120
			c-49.003-25-94.003-46.992-97.998-48.994c-5-2.998,13.994,30.996,40,73.994c27.001,44.004,52.998,86.006,57.998,94.004
			c14.004,25.996-10-2.002-35.996-42.002c-25-37.002-109.003-130.996-130-142.998c-13.008-9.004-9.004-0.996,55,109.004
			c110,183.994,226.992,441.992,301.992,660.996c89.004,257.002,139.004,492.002,169.004,779.004c17.998,180,22.002,710,5,810.996
			c-12.002,72.002-12.998,115-2.002,115C8602.001,12109.998,8650.995,12044.002,8707.997,11964.998z M6907.001,10949.998
			c7.998-25,10.996-55,7.998-67.002c-4.004-17.998-60-62.998-79.004-62.998c-2.998,0-5.996,32.002-5.996,72.002
			c0,52.998,4.004,75.996,17.002,90C6872.998,11009.998,6892.998,10999.998,6907.001,10949.998z M7467.998,10972.996
			c11.006-10,27.998-42.002,37.002-72.002c32.002-100,5-365.996-67.002-665.996l-32.002-130l-16.992,85
			c-47.002,237.998-155,397.002-330,484.004c-45,22.998-84.004,45.996-85,50.996c-7.002,22.998,256.992,197.002,365,240.996
			C7405.996,10994.002,7440.996,10995.994,7467.998,10972.996z M6735.996,10914.998c3.008-10.996,6.006-54.004,7.002-95l2.002-75
			l-75-27.002c-40.996-15-87.998-27.002-102.998-27.002c-27.998-0.996-29.004,0-22.002,42.002
			c14.004,90,37.002,162.998,55.996,179.004c10,8.994,15,17.998,9.004,20c-5,0.996,19.004,2.998,55,2.998
			C6722.998,10934.998,6732.001,10932,6735.996,10914.998z"/>
		<path d="M8724.999,12484.998c-15.996-7.998-84.004-32.998-150-55.996c-65.996-24.004-124.004-46.006-129.004-50
			c-30-26.006,262.002,76.992,300,105.996C8769.999,12502.996,8764.003,12502.996,8724.999,12484.998z"/>
		<path d="M8382.997,12124.002c-17.998-14.004-52.002-58.008-75-97.002c-120-209.004-290.996-427.998-480-620
			c-70.996-72.002-142.998-150-160.996-174.004l-31.006-43.994l3.008-132.002c2.998-150-11.006-286.006-39.004-397.998
			c-22.002-87.002-24.004-99.004-10.996-99.004c20,0,80,392.002,80.996,524.004c0,61.992,4.004,85.996,22.002,115
			c25.996,43.994,138.994,161.992,148.994,155.996c4.004-2.998,40,32.002,80,77.998c40,45,104.004,114.004,142.002,152.998
			c37.998,40,67.002,76.006,62.998,82.002c-2.998,5,2.002,16.006,11.006,22.998c22.998,19.004,152.001,194.004,185.996,252.002
			c50,84.004,22.998,61.006-37.002-32.998c-31.992-49.004-61.992-92.002-66.992-95.996c-5-3.008,20.996,40.996,56.992,97.998
			c70,108.994,90,135,79.004,105.996c-4.004-10-2.998-17.998,2.998-17.998c5,0,12.002-15,15-32.002
			c2.998-17.998,17.002-88.994,32.002-157.998c25.996-122.998,25.996-129.004,22.002-420c-6.006-307.998-15-410-62.998-660
			c-51.006-265.996-136.006-552.002-238.007-794.004c-25-60-45.996-115.996-45.996-125
			c2.002-43.994,114.003,224.004,184.003,436.006c83.994,258.994,150.996,577.002,175,832.998c28.994,310,22.998,517.002-24.004,815
			c-15.996,100.996-20.996,160.996-15,162.998c5,2.002,10,12.002,10,22.998c0,10,5,19.004,10,19.004c5.996,0,10,10.996,10,25
			C8429.999,12155.994,8422.997,12155.994,8382.997,12124.002z"/>
		<path d="M8139.003,11682.996c-13.008-15.996-12.002-17.002,3.994-3.994c9.004,6.992,17.002,15,17.002,16.992
			C8160,11704.002,8152.001,11699.002,8139.003,11682.996z"/>
	</g>
</g>
</svg>
