<?xml version="1.0" standalone="no"?>
<!DOCTYPE svg PUBLIC "-//W3C//DTD SVG 20010904//EN"
 "http://www.w3.org/TR/2001/REC-SVG-20010904/DTD/svg10.dtd">
<svg version="1.0" xmlns="http://www.w3.org/2000/svg"
 width="1200.000000pt" height="1600.000000pt" viewBox="0 0 1200.000000 1600.000000"
 preserveAspectRatio="xMidYMid meet">

<g transform="translate(0.000000,1600.000000) scale(0.100000,-0.100000)"
fill="#000000" stroke="none">
<path d="M5641 13105 c-55 -18 -79 -39 -102 -90 -33 -73 -20 -230 25 -297 25
-38 74 -54 129 -44 91 17 133 106 124 258 -10 154 -65 208 -176 173z m117
-187 c18 -18 14 -56 -7 -68 -45 -24 -91 -6 -91 35 0 30 19 45 55 45 17 0 36
-5 43 -12z"/>
<path d="M6384 13086 c-19 -19 -39 -49 -44 -67 -13 -44 -13 -194 0 -241 13
-45 68 -95 116 -104 61 -11 100 15 136 92 29 63 31 70 25 160 -7 113 -27 154
-87 178 -66 26 -106 21 -146 -18z m155 -177 c37 -13 40 -43 6 -65 -16 -11 -25
-11 -45 -1 -31 16 -40 63 -13 70 10 3 18 5 19 6 1 0 15 -4 33 -10z"/>
</g>
</svg>
