<?xml version="1.0" standalone="no"?>
<!DOCTYPE svg PUBLIC "-//W3C//DTD SVG 20010904//EN"
 "http://www.w3.org/TR/2001/REC-SVG-20010904/DTD/svg10.dtd">
<svg version="1.0" xmlns="http://www.w3.org/2000/svg"
 width="1200.000000pt" height="1600.000000pt" viewBox="0 0 1200.000000 1600.000000"
 preserveAspectRatio="xMidYMid meet">

<g transform="translate(0.000000,1600.000000) scale(0.100000,-0.100000)"
fill="#000000" stroke="none">
<path d="M5642 13090 c-151 -54 -292 -257 -242 -350 13 -23 81 -63 149 -85
102 -33 256 -2 297 60 15 23 18 50 18 149 0 145 -15 187 -79 223 -49 28 -74
28 -143 3z"/>
<path d="M6359 13084 c-40 -22 -48 -33 -61 -77 -23 -74 -19 -253 6 -291 42
-65 201 -95 307 -58 80 28 137 67 145 98 26 104 -109 285 -250 334 -72 26 -91
25 -147 -6z"/>
</g>
</svg>
