<?xml version="1.0" encoding="utf-8"?>
<!-- Generator: Adobe Illustrator 16.0.0, SVG Export Plug-In . SVG Version: 6.00 Build 0)  -->
<!DOCTYPE svg PUBLIC "-//W3C//DTD SVG 1.1//EN" "http://www.w3.org/Graphics/SVG/1.1/DTD/svg11.dtd">
<svg version="1.1" xmlns="http://www.w3.org/2000/svg" xmlns:xlink="http://www.w3.org/1999/xlink" x="0px" y="0px" width="1200px"
	 height="1600px" viewBox="0 0 1200 1600" enable-background="new 0 0 1200 1600" xml:space="preserve">
<g id="Layer_1">
	<g transform="translate(0.000000,1600.000000) scale(0.100000,-0.100000)">
		<path d="M5635,13175.999c-42.002-13.003-119.004-58.003-130-76.001c-2.998-5,14.004,3.999,39.004,20
			c87.998,60,192.998,73.999,251.992,35c15-8.999,41.006-47.998,60-87.998c18.008-40,33.008-66.006,34.004-59.004
			c0,18.003-45.996,112.002-69.004,139.004C5785,13189.998,5714.003,13200.999,5635,13175.999z"/>
		<path d="M6350,13172.996c-22.002-11.997-45-36.997-65.996-73.999c-27.002-47.998-47.002-98.999-40-98.999
			c1.992,0,20,33.999,40,76.001c26.992,52.998,45,77.998,63.994,86.001c27.998,10.996,96.006,13.999,144.004,5.996
			c27.002-5,112.998-51.997,135.996-75c19.004-17.998,27.002-15.996,12.002,2.002c-7.002,8.999-42.002,32.002-77.002,51.001
			C6484.003,13190.999,6404.003,13200.999,6350,13172.996z"/>
		<path d="M5675.996,13128.997c-27.998-5-55-5-60-1.997c-5.996,2.998-7.998,1.997-3.994-2.002c5-5-12.998-21.001-40-36.001
			c-59.004-32.998-121.006-99.995-162.002-173.003c-17.998-30.996-34.004-55.996-37.002-55.996c-2.002,0-0.996,5.996,2.998,12.998
			c4.004,6.006-5,1.006-18.994-12.002c-19.004-16.992-37.998-23.994-67.002-23.994c-47.002,0-50.996-21.006-4.004-24.004
			c16.006,0,38.008-2.002,49.004-2.002c17.002-0.996,15.996-3.994-10-20.996c-15.996-10.996-37.998-20-47.002-20
			c-33.994,0-17.998-15.996,29.004-29.004c25.996-5.996,67.998-25,92.998-40c49.004-30,80-42.998,80-35c0,3.008-20,24.004-45,47.002
			l-44.004,42.002l20,44.004c10,23.994,36.006,70.996,57.002,105l37.002,60.996l5.996-92.002c5-57.998,14.004-105.996,25-130
			c36.006-72.002,138.008-102.998,206.006-62.998c60.996,37.002,87.002,97.998,88.994,215c2.002,62.002,3.008,65,8.008,25
			c6.992-50,10.996-50.996,58.994-10.996c34.004,30,41.006,43.994,17.002,35c-10.996-5-12.998-2.002-7.998,11.992
			c5,13.008,2.998,16.006-9.004,12.002c-30.522-17.998-18.994,7.002-30.996,46.006
			C5837.001,13107,5775.996,13143.997,5675.996,13128.997z M5790.996,12992.996c17.002-52.002,15-180.996-3.994-225
			c-22.002-52.002-70-80.996-122.998-73.994C5565,12707,5540,12745.994,5540,12889.998c0,85.996,0.996,89.004,29.004,109.004
			c36.992,26.997,43.994,25.996,35-1.006c-13.008-42.002-5-167.998,12.998-197.998c35.996-60.996,95.996-57.998,127.002,7.002
			c15.996,32.998,15,33.994-1.006,28.994c-62.563-19.888-87.998,29.941-82.998,49.004c5.581,21.284,37.998,37.998,77.002,32.002
			l31.333-19.707c0,0-1.67,62.207-5.835,85.205c-5.503,30.376-36.03,71.128-24.165,69.585c23.228-3.022,20.332-9.375,32.813-19.653
			C5778.461,13023.001,5784.003,13012,5790.996,12992.996z"/>
		<path d="M6385,13132c-50.996-6.001-92.002-46.001-115.996-112.002c-12.002-32.002-4.004-80-33.008-57.002
			c-5.996,1.006-10-3.994-7.998-10c2.998-15.996-10-17.002-27.998-0.996c-7.998,7.002,5-7.998,30-35
			c24.004-26.006,47.998-47.002,52.002-47.002c5,0,12.998,10,17.998,22.998c7.002,17.002,9.004,7.998,9.004-38.994
			c0.996-108.008,63.994-189.004,146.992-192.002c46.006-2.002,114.004,28.994,133.008,60
			c22.998,37.002,37.998,108.994,35.996,180.996l-0.996,67.002l42.998-65.996c22.998-36.006,50-86.006,58.994-110l17.002-44.004
			l-48.994-45c-50-47.002-40-50,30.996-9.004c37.998,22.002,115,53.008,142.002,58.008c22.998,3.994,25.996,15.996,3.994,15.996
			c-28.994,0-82.998,27.998-75.996,40c2.998,5,17.002,7.002,30.996,4.004c32.002-6.006,66.006,3.994,59.004,16.992
			c-4.004,5-25.996,9.004-50,9.004c-30,0-47.002,5-52.998,15.996c-5,8.008-17.002,17.002-27.998,18.008
			c-10,1.992-19.004,6.992-19.004,11.992c-2.002,25-49.004,96.006-94.004,140.005C6562.998,13102.996,6467.998,13142.996,6385,13132
			z M6392.998,13010.994c-10.996-55-7.998-151.992,6.006-193.994c15-42.998,60-74.004,88.994-57.998
			c22.002,11.992,47.002,40.996,56.006,65c5,13.994,2.998,16.992-10,11.992c-25-8.994-74.316,11.621-74.316,39.629
			c0,33.994,26.221,55.571,64.688,48.75c14.639-2.598,25.625-11.377,27.627-8.379c2.998,2.002,2.002,25-2.998,52.002
			c-4.004,26.006-5,49.004-3.008,51.001c3.008,3.003,14.004-4.995,26.006-16.001c28.994-30,35.996-138.994,13.994-215.996
			c-18.994-67.002-45-87.998-115-95c-41.992-4.004-51.992-1.006-80,23.994c-36.992,33.008-50,79.004-50.996,170
			c0,75,24.004,161.006,45,161.006C6397.001,13047,6399.003,13038.997,6392.998,13010.994z M6307.001,12947.996
			c-2.998-7.002-5-2.002-5,12.002s2.002,19.004,5,12.998C6309.003,12965.994,6309.003,12954.002,6307.001,12947.996z"/>
		<path d="M5850.996,12765.994c0-10-15-35.996-31.992-56.992c-23.008-29.004-27.002-39.004-15-39.004
			c18.994,0,58.994,75,52.998,97.998C5852.998,12782,5852.001,12782,5850.996,12765.994z"/>
		<path d="M6270.996,12764.002c0-11.006,3.008-14.004,6.006-6.006c2.998,7.002,2.002,16.006-1.006,19.004
			C6272.998,12780.994,6270,12774.998,6270.996,12764.002z"/>
		<path d="M5867.001,12742.996c-2.002-10-7.998-27.002-12.998-37.002c-5-12.998-4.004-16.992,2.998-12.998
			c13.994,9.004,35,67.002,23.994,67.002C5875.996,12759.998,5870,12752,5867.001,12742.996z"/>
		<path d="M6250,12749.998c0-20.996,29.004-62.002,40-55c4.004,2.998,12.998-2.002,20-10s19.004-15,27.002-15
			c8.994,0,5,9.004-12.002,27.002c-14.004,15-25,30.996-25,35c0,5-4.004,7.998-9.004,7.998s-6.992-10-5-22.002
			c4.004-15.996-0.996-12.002-15,12.002C6260,12749.002,6250.996,12757.996,6250,12749.998z"/>
	</g>
</g>
<g id="Layer_2">
	<ellipse fill="#FFFFFF" cx="572.219" cy="312.188" rx="6.198" ry="4.938"/>
	<ellipse fill="#FFFFFF" cx="651.636" cy="312.188" rx="6.198" ry="4.938"/>
</g>
</svg>
