<?xml version="1.0" standalone="no"?>
<!DOCTYPE svg PUBLIC "-//W3C//DTD SVG 20010904//EN"
 "http://www.w3.org/TR/2001/REC-SVG-20010904/DTD/svg10.dtd">
<svg version="1.0" xmlns="http://www.w3.org/2000/svg"
 width="1200.000000pt" height="1600.000000pt" viewBox="0 0 1200.000000 1600.000000"
 preserveAspectRatio="xMidYMid meet">

<g transform="translate(0.000000,1600.000000) scale(0.100000,-0.100000)"
fill="#000000" stroke="none">
<path d="M5940 11255 c0 -9 7 -30 16 -46 12 -25 18 -28 30 -18 19 16 18 49 -3
65 -24 18 -43 17 -43 -1z m50 -36 c0 -6 -4 -7 -10 -4 -5 3 -10 11 -10 16 0 6
5 7 10 4 6 -3 10 -11 10 -16z"/>
<path d="M6167 11263 c-2 -5 -7 -25 -11 -46 -7 -37 -6 -38 21 -35 18 2 33 13
43 31 14 26 14 29 -4 43 -22 15 -42 18 -49 7z m43 -43 c-14 -26 -30 -34 -30
-16 0 27 12 45 26 39 10 -4 11 -10 4 -23z"/>
<path d="M6048 11184 c-37 -11 -45 -18 -41 -33 4 -16 -2 -20 -37 -26 -52 -9
-60 -28 -32 -76 13 -22 19 -45 15 -55 -4 -12 -2 -15 8 -12 22 7 22 43 0 79
-24 40 -25 45 -8 46 6 0 24 3 40 6 20 4 27 2 27 -10 0 -25 23 -83 33 -83 4 0
5 -5 1 -12 -5 -7 -2 -9 9 -5 11 4 14 2 10 -9 -9 -23 14 -16 36 12 22 28 39 24
74 -14 18 -20 18 -20 -2 -27 -11 -3 -29 -22 -41 -42 l-21 -36 50 42 c44 37 49
45 38 62 -10 15 -8 26 12 62 13 24 21 49 17 55 -3 5 -24 13 -46 17 -28 5 -40
12 -40 24 0 9 -12 24 -27 33 -25 14 -34 14 -75 2z m74 -41 c3 -14 -25 -97 -37
-111 -8 -10 -44 20 -39 32 3 8 1 30 -4 50 -11 38 -6 42 50 45 18 1 28 -5 30
-16z m89 -37 c15 9 10 -7 -13 -39 -12 -18 -22 -33 -23 -35 -6 -8 -63 12 -60
22 24 67 22 65 56 56 17 -5 36 -7 40 -4z"/>
<path d="M5817 11094 c-27 -27 29 -97 73 -92 29 3 30 28 1 68 -18 24 -60 38
-74 24z m55 -31 c10 -9 18 -25 18 -35 0 -16 -4 -15 -25 10 -36 43 -31 60 7 25z"/>
<path d="M6282 11077 c-6 -7 -15 -25 -21 -40 -15 -38 9 -36 31 3 19 34 33 38
42 14 8 -21 -11 -44 -35 -44 -10 0 -21 -4 -24 -10 -13 -22 37 -8 65 18 29 26
30 28 15 50 -18 24 -56 29 -73 9z"/>
<path d="M6008 11033 c7 -3 16 -2 19 1 4 3 -2 6 -13 5 -11 0 -14 -3 -6 -6z"/>
<path d="M5960 10949 c51 -44 80 -62 86 -56 8 8 -25 41 -66 66 -50 30 -61 25
-20 -10z"/>
<path d="M5236 10880 c3 -55 4 -60 18 -60 7 0 19 -14 27 -32 7 -17 14 -27 16
-21 4 10 -52 143 -59 143 -2 0 -2 -13 -2 -30z"/>
<path d="M6896 10882 c-19 -31 -44 -112 -36 -117 6 -4 13 1 16 9 3 9 10 14 15
11 12 -8 33 35 34 73 2 30 -16 45 -29 24z"/>
<path d="M5354 10695 c-5 -13 -9 -14 -15 -3 -5 7 -9 -28 -9 -87 0 -94 18 -235
60 -480 26 -147 36 -275 21 -275 -14 0 -15 -37 -1 -42 8 -2 8 -31 1 -93 -6
-50 -12 -116 -13 -147 -2 -44 -9 -66 -30 -95 -125 -174 -163 -245 -123 -229
22 8 87 -31 176 -106 44 -37 87 -68 95 -68 9 0 2 11 -18 27 -18 15 -35 30 -38
33 -21 23 -139 114 -162 126 -30 15 -30 16 -11 37 11 12 41 55 68 94 56 85 90
119 100 104 8 -14 25 -14 25 -1 0 6 -11 16 -25 22 -23 10 -24 14 -18 67 3 31
11 73 17 93 l11 36 61 -36 60 -36 18 -100 c10 -56 19 -107 20 -113 1 -7 12
-23 24 -36 12 -13 22 -33 22 -45 0 -22 -29 -93 -43 -103 -4 -3 0 -22 8 -43
l16 -38 -36 -44 c-22 -27 -45 -44 -58 -44 -15 0 -18 -3 -10 -11 7 -7 23 -9 38
-5 15 4 24 10 21 13 -4 4 10 24 31 45 36 37 37 39 26 81 -7 26 -8 46 -2 52 6
5 9 4 9 -4 0 -25 27 7 44 54 16 40 20 44 37 34 18 -9 18 -12 -18 -56 -21 -26
-31 -44 -23 -41 8 2 30 24 49 48 32 43 33 44 12 54 -12 5 -21 13 -21 18 0 21
-39 6 -49 -19 l-11 -28 3 33 c3 26 -1 37 -20 49 -12 8 -23 22 -23 31 0 9 -4
29 -9 46 -5 17 -15 63 -21 101 -15 91 -20 106 -30 100 -4 -3 -14 2 -21 11 -7
9 -37 30 -66 46 -56 32 -70 53 -28 42 24 -6 75 17 75 34 0 4 -18 18 -39 32
-35 21 -40 29 -46 74 -4 28 -13 76 -20 106 -7 30 -21 102 -30 160 -9 58 -23
143 -31 189 -8 46 -13 86 -10 89 3 3 14 -5 25 -16 27 -32 33 -27 11 11 -10 17
-26 66 -34 107 -19 89 -18 83 -6 75 6 -3 10 -1 10 4 0 17 17 13 63 -16 136
-86 159 -96 243 -101 74 -4 90 -1 170 29 95 35 100 37 93 43 -2 2 -31 -5 -64
-15 -123 -40 -172 -41 -280 -7 -49 15 -151 71 -185 102 -53 47 -59 50 -66 31z
m138 -885 l22 -20 -27 0 c-20 0 -27 5 -27 20 0 11 2 20 5 20 3 0 15 -9 27 -20z"/>
<path d="M6742 10669 c-83 -64 -173 -107 -256 -122 -80 -15 -87 -15 -213 21
-80 23 -94 21 -35 -4 146 -63 247 -71 340 -27 31 14 83 43 115 64 59 40 111
49 103 19 -3 -8 -9 -40 -15 -70 -5 -30 -14 -68 -20 -83 -14 -37 -14 -38 6 -30
14 5 15 1 10 -33 -12 -80 -66 -390 -72 -414 -4 -14 -8 -60 -10 -104 l-3 -78
-41 -25 c-42 -25 -57 -63 -25 -63 11 0 2 -11 -22 -29 -26 -18 -41 -24 -46 -17
-4 6 -8 0 -8 -13 0 -37 -19 -140 -36 -194 -8 -26 -12 -52 -9 -57 3 -6 -6 -15
-20 -22 -24 -11 -26 -17 -22 -49 3 -20 12 -52 22 -72 13 -28 14 -43 6 -73 -9
-34 -8 -41 13 -64 13 -14 31 -37 41 -52 17 -28 48 -37 60 -18 3 6 -2 10 -12
10 -10 0 -35 19 -54 43 -35 41 -35 43 -21 77 8 19 23 47 34 63 25 35 19 43
-15 17 l-25 -20 -12 33 c-17 44 -12 88 13 115 11 12 18 22 15 22 -4 0 2 28 13
63 10 34 19 82 19 107 1 45 1 45 65 83 35 20 68 37 73 37 5 0 12 -36 16 -81 4
-44 8 -85 9 -91 1 -5 -7 -15 -18 -21 -23 -14 -36 -29 -30 -36 3 -2 11 2 19 8
12 10 21 6 49 -26 19 -21 34 -40 33 -43 0 -3 6 -13 14 -23 30 -35 35 -43 62
-84 l28 -43 -28 -14 c-15 -8 -54 -38 -87 -66 -33 -29 -77 -68 -99 -86 -21 -19
-34 -34 -28 -34 10 0 95 64 142 107 14 13 50 35 80 51 30 15 57 28 59 29 9 5
-25 68 -75 135 -29 40 -60 83 -70 96 -17 25 -24 87 -27 254 -1 58 -4 105 -7
103 -7 -4 6 210 13 221 3 5 19 99 35 209 47 310 52 432 17 432 -7 0 -36 -17
-63 -38z m-42 -893 c0 -2 -7 -7 -16 -10 -8 -3 -12 -2 -9 4 6 10 25 14 25 6z"/>
<path d="M6044 10256 c-9 -15 -49 -42 -88 -61 -103 -51 -110 -56 -187 -128
l-69 -65 1 -59 c1 -44 3 -52 9 -33 4 14 8 38 9 53 1 20 16 43 55 80 74 71 89
82 208 146 31 16 65 35 75 42 15 9 36 1 123 -46 105 -57 128 -74 208 -147 39
-36 44 -46 51 -101 6 -41 9 -52 11 -32 6 58 -1 110 -16 118 -8 4 -31 26 -51
48 -35 38 -126 100 -188 128 -16 8 -40 18 -52 24 -13 6 -25 18 -28 28 -3 9
-12 20 -20 23 -10 3 -12 0 -9 -12 5 -15 4 -15 -9 1 -15 18 -16 18 -33 -7z"/>
<path d="M6465 9560 c-40 -15 -56 -44 -49 -89 9 -55 25 -53 18 2 -6 39 -3 45
20 60 l26 17 0 -46 c0 -29 -6 -54 -16 -65 -10 -11 -12 -19 -5 -23 19 -12 37
46 31 100 -4 46 -7 51 -25 44z"/>
<path d="M5667 9543 c-11 -10 -8 -62 3 -84 16 -28 29 -23 46 16 17 42 17 40
-2 59 -16 17 -36 21 -47 9z m43 -27 c0 -8 -5 -27 -11 -43 l-12 -28 -7 25 c-14
44 -11 60 10 60 11 0 20 -6 20 -14z"/>
<path d="M6358 9320 c-14 -9 -15 -15 -6 -35 6 -14 14 -25 18 -25 4 0 11 -10
15 -22 3 -13 9 -18 11 -11 3 6 -2 25 -10 42 -20 38 -20 41 3 41 23 0 35 -31
26 -61 -5 -16 -3 -20 6 -17 14 5 15 21 7 68 -5 28 -40 38 -70 20z"/>
<path d="M5265 9189 c26 -50 65 -88 104 -100 48 -15 61 -27 61 -53 -1 -25 -17
-48 -45 -64 -20 -11 -20 -11 2 -12 12 0 31 12 42 26 38 48 24 93 -36 117 -21
8 -60 38 -86 66 -26 28 -50 51 -53 51 -2 0 3 -14 11 -31z"/>
<path d="M6855 9163 c-22 -6 -51 -27 -107 -79 -28 -25 -38 -43 -38 -64 0 -19
5 -30 14 -30 9 0 12 8 9 24 -4 20 7 33 65 80 58 46 95 80 80 75 -2 -1 -12 -4
-23 -6z"/>
<path d="M6037 9091 c-9 -27 -14 -56 -11 -65 3 -9 1 -16 -5 -16 -29 0 -4 -35
31 -44 21 -5 33 -1 49 15 17 17 19 23 8 30 -8 5 -24 9 -36 9 -22 0 -22 3 -16
60 3 33 4 60 2 60 -2 0 -12 -22 -22 -49z"/>
<path d="M5206 9088 c16 -53 75 -117 108 -118 15 0 8 8 -22 31 -24 17 -52 49
-63 70 -21 43 -34 52 -23 17z"/>
<path d="M6917 9058 c-14 -24 -41 -52 -61 -62 -19 -10 -33 -23 -30 -27 15 -25
102 55 119 109 10 34 0 26 -28 -20z"/>
</g>
</svg>
