<?xml version="1.0" standalone="no"?>
<!DOCTYPE svg PUBLIC "-//W3C//DTD SVG 20010904//EN"
 "http://www.w3.org/TR/2001/REC-SVG-20010904/DTD/svg10.dtd">
<svg version="1.0" xmlns="http://www.w3.org/2000/svg"
 width="1200.000000pt" height="1600.000000pt" viewBox="0 0 1200.000000 1600.000000"
 preserveAspectRatio="xMidYMid meet">

<g transform="translate(0.000000,1600.000000) scale(0.100000,-0.100000)"
fill="#000000" stroke="none">
<path d="M5810 11539 c-41 -5 -122 -18 -180 -29 -236 -47 -212 -36 -319 -140
-78 -75 -128 -163 -141 -247 -8 -46 -8 -69 0 -77 5 -5 10 -25 10 -42 0 -33 30
-94 62 -126 10 -10 18 -28 18 -40 0 -13 14 -50 30 -82 17 -32 30 -65 30 -73 0
-24 51 -117 91 -165 30 -36 40 -58 44 -95 3 -26 11 -79 19 -118 46 -220 96
-343 171 -421 37 -38 43 -49 35 -65 -6 -11 -7 -19 -1 -19 33 0 47 -400 17
-480 -8 -19 -19 -62 -25 -95 -6 -33 -23 -82 -37 -110 -124 -237 -146 -314
-126 -449 24 -167 80 -228 276 -309 l115 -47 113 11 c163 15 438 67 521 98 35
13 73 54 100 106 16 31 21 65 25 153 6 159 -10 252 -58 322 -43 64 -65 117
-75 180 -4 25 -16 74 -27 110 -41 134 -32 516 13 566 59 64 116 192 139 309 5
28 21 100 35 160 13 61 25 120 25 133 0 12 14 37 30 54 17 18 42 55 56 82 14
28 32 58 40 67 8 8 14 25 14 37 0 12 4 30 9 40 5 9 17 43 26 74 9 32 21 60 25
63 20 12 58 96 64 141 19 136 -19 239 -128 347 -98 96 -106 101 -191 119 -239
52 -307 60 -540 63 -126 2 -264 0 -305 -6z"/>
</g>
</svg>
