<?xml version="1.0" standalone="no"?>
<!DOCTYPE svg PUBLIC "-//W3C//DTD SVG 20010904//EN"
 "http://www.w3.org/TR/2001/REC-SVG-20010904/DTD/svg10.dtd">
<svg version="1.0" xmlns="http://www.w3.org/2000/svg"
 width="1200.000000pt" height="1600.000000pt" viewBox="0 0 1200.000000 1600.000000"
 preserveAspectRatio="xMidYMid meet">

<g transform="translate(0.000000,1600.000000) scale(0.100000,-0.100000)"
fill="#000000" stroke="none">
<path d="M5770 11534 c-58 -8 -157 -26 -220 -40 -63 -13 -125 -27 -138 -30
-13 -2 -21 -8 -18 -13 3 -4 -6 -14 -20 -22 -37 -19 -116 -109 -158 -178 -69
-113 -69 -225 1 -342 23 -39 33 -69 33 -97 0 -31 7 -50 28 -74 32 -37 46 -96
31 -135 -7 -19 -5 -30 11 -50 11 -14 20 -34 20 -45 0 -11 4 -28 10 -38 5 -10
19 -83 30 -162 11 -78 25 -161 30 -183 17 -69 25 -265 11 -265 -8 0 -6 -6 4
-17 15 -15 16 -27 9 -92 -5 -42 -8 -109 -7 -149 1 -68 -1 -74 -28 -101 -32
-32 -38 -68 -13 -78 8 -3 13 -11 10 -18 -2 -7 -2 -15 1 -18 5 -5 85 34 108 53
16 13 45 -29 45 -65 0 -29 21 -33 46 -8 19 19 51 24 75 12 9 -5 20 -4 27 3 12
12 65 -16 98 -53 10 -12 53 -38 94 -57 41 -20 78 -38 83 -40 4 -2 7 4 7 13 0
10 10 34 22 53 l22 35 13 -63 c23 -114 53 -114 76 1 l13 63 22 -36 c12 -19 22
-43 22 -53 0 -9 3 -15 8 -13 4 2 41 20 82 40 41 19 84 45 94 57 35 39 85 64
100 52 10 -8 16 -9 21 -2 9 15 60 7 80 -12 24 -25 45 -21 45 8 0 21 5 36 27
74 2 2 9 -1 16 -8 8 -6 35 -22 61 -36 39 -21 46 -22 46 -8 0 9 7 21 16 27 20
15 11 56 -19 88 -22 24 -26 73 -28 413 0 28 13 133 29 235 17 102 35 228 41
280 13 102 28 133 59 114 16 -10 17 -3 18 82 1 67 6 99 18 116 9 12 16 40 16
62 0 26 10 55 31 89 71 115 72 235 4 347 -42 70 -122 160 -159 179 -14 8 -23
18 -20 22 3 5 -5 11 -18 13 -209 46 -271 58 -371 71 -147 19 -452 18 -597 -1z"/>
</g>
</svg>
