<?xml version="1.0" encoding="utf-8"?>
<!-- Generator: Adobe Illustrator 16.0.0, SVG Export Plug-In . SVG Version: 6.00 Build 0)  -->
<!DOCTYPE svg PUBLIC "-//W3C//DTD SVG 1.1//EN" "http://www.w3.org/Graphics/SVG/1.1/DTD/svg11.dtd">
<svg version="1.1" id="Layer_1" xmlns="http://www.w3.org/2000/svg" xmlns:xlink="http://www.w3.org/1999/xlink" x="0px" y="0px"
	 width="1200px" height="1600px" viewBox="0 0 1200 1600" enable-background="new 0 0 1200 1600" xml:space="preserve">
<g transform="translate(0.000000,1600.000000) scale(0.100000,-0.100000)">
	<path d="M5940,11254.998c0-9.004,7.002-30,15.996-45.996c12.002-25,18.008-28.008,30-18.008c19.004,16.006,18.008,49.004-2.998,65
		C5959.003,11274.002,5940,11272.996,5940,11254.998z M5990,11219.002c0-6.006-4.004-7.002-10-4.004c-5,2.998-10,10.996-10,15.996
		c0,6.006,5,7.002,10,4.004C5985.996,11232,5990,11224.002,5990,11219.002z"/>
	<path d="M6167.001,11262.996c-2.002-5-7.002-25-11.006-45.996c-6.992-37.002-5.996-37.998,21.006-35
		c17.998,2.002,32.998,12.998,42.998,30.996c14.004,26.006,14.004,29.004-4.004,42.998
		C6194.003,11270.994,6174.003,11274.002,6167.001,11262.996z M6210,11219.998c-14.004-25.996-30-34.004-30-15.996
		c0,26.992,12.002,45,25.996,38.994C6215.996,11239.002,6217.001,11232.996,6210,11219.998z"/>
	<path d="M6047.998,11184.002c-37.002-11.006-45-18.008-40.996-33.008c3.994-15.996-2.002-20-37.002-25.996
		c-52.002-9.004-60-27.998-32.002-75.996c12.998-22.002,19.004-45,15-55c-3.994-12.002-2.002-15,7.998-12.002
		c22.002,7.002,22.002,42.998,0,78.994c-23.994,40-25,45-7.998,46.006c6.006,0,24.004,2.998,40,5.996
		c20,4.004,27.002,2.002,27.002-10c0-25,22.998-82.998,32.998-82.998c4.004,0,5-5,1.006-12.002c-5-7.002-2.002-8.994,8.994-5
		c11.006,4.004,14.004,2.002,10-8.994c-8.994-23.008,14.004-16.006,36.006,11.992c21.992,28.008,38.994,24.004,73.994-13.994
		c17.998-20,17.998-20-2.002-27.002c-10.996-2.998-28.994-22.002-40.996-42.002l-20.996-35.996l50,42.002
		c43.994,36.992,48.994,45,37.998,61.992c-10,15-7.998,26.006,12.002,62.002c12.998,24.004,20.996,49.004,16.992,55
		c-2.998,5-23.994,12.998-45.996,17.002c-27.998,5-40,12.002-40,24.004c0,8.994-12.002,23.994-27.002,32.998
		C6097.998,11195.994,6089.003,11195.994,6047.998,11184.002z M6122.001,11142.996c2.998-13.994-25-97.002-37.002-110.996
		c-7.998-10-44.004,20-39.004,32.002c3.008,7.998,1.006,30-3.994,50c-11.006,37.998-6.006,41.992,50,45
		C6110,11159.998,6120,11154.002,6122.001,11142.996z M6210.996,11105.994c15,9.004,10-6.992-12.998-38.994
		c-12.002-17.998-22.002-32.998-22.998-35c-5.996-7.998-62.998,12.002-60,22.002c24.004,66.992,22.002,65,55.996,55.996
		C6187.998,11104.998,6207.001,11102.996,6210.996,11105.994z"/>
	<path d="M5817.001,11094.002C5790,11067,5845.996,10997,5890,11002c29.004,2.998,30,27.998,0.996,67.998
		C5872.998,11094.002,5830.996,11107.996,5817.001,11094.002z M5872.001,11062.996c10-8.994,17.998-25,17.998-35
		c0-15.996-4.004-15-25,10C5829.003,11080.994,5834.003,11097.996,5872.001,11062.996z"/>
	<path d="M6282.001,11077c-6.006-7.002-15-25-21.006-40c-15-37.998,9.004-36.006,31.006,2.998
		c18.994,34.004,32.998,37.998,42.002,14.004c7.998-21.006-11.006-44.004-35-44.004c-10,0-21.006-4.004-24.004-10
		c-12.998-22.002,37.002-7.998,65,17.998c29.004,26.006,30,27.998,15,50C6337.001,11092,6299.003,11097,6282.001,11077z"/>
	<path d="M6007.998,11032.996c7.002-2.998,16.006-2.002,19.004,1.006c3.994,2.998-2.002,5.996-12.998,5
		C6002.998,11039.002,6000,11035.994,6007.998,11032.996z"/>
	<path d="M5960,10949.002c50.996-44.004,80-62.002,85.996-56.006c8.008,7.998-25,41.006-65.996,66.006
		C5930,10989.002,5919.003,10984.002,5960,10949.002z"/>
	<path d="M5235.996,10879.998c3.008-55,4.004-60,18.008-60c6.992,0,18.994-14.004,26.992-32.002
		c7.002-17.002,14.004-27.002,16.006-20.996c3.994,10-52.002,142.998-59.004,142.998
		C5235.996,10909.998,5235.996,10897,5235.996,10879.998z"/>
	<path d="M6895.996,10882c-18.994-31.006-43.994-112.002-35.996-117.002c5.996-4.004,12.998,0.996,15.996,9.004
		c3.008,8.994,10,13.994,15,10.996c12.002-7.998,33.008,35,34.004,72.998C6927.001,10887.996,6909.003,10902.996,6895.996,10882z"/>
	<path d="M5354.003,10694.998c-5-12.998-9.004-14.004-15-2.998c-5,7.002-9.004-27.998-9.004-87.002c0-94.004,17.998-235,60-480
		c25.996-147.002,35.996-275,20.996-275c-13.994,0-15-37.002-0.996-42.002c7.998-2.002,7.998-30.996,0.996-92.998
		c-5.996-50-11.992-115.996-12.998-147.002c-2.002-43.994-8.994-65.996-30-95c-125-173.994-162.998-245-122.998-228.994
		c22.002,7.998,87.002-31.006,175.996-106.006c44.004-37.002,87.002-67.998,95-67.998c9.004,0,2.002,10.996-17.998,27.002
		c-17.998,15-35,30-37.998,32.998c-20.996,22.998-139.004,114.004-162.002,125.996c-30,15-30,16.006-10.996,37.002
		c10.996,12.002,40.996,55,67.998,94.004c55.996,85,90,118.994,100,103.994c7.998-13.994,25-13.994,25-0.996
		c0,5.996-10.996,15.996-25,22.002c-22.998,10-24.004,13.994-17.998,67.002c2.998,30.996,10.996,72.998,17.002,92.998l10.996,35.996
		l60.996-35.996l60-36.006l18.008-100c10-55.996,18.994-106.992,20-112.998c0.996-7.002,11.992-22.998,23.994-35.996
		s22.002-32.998,22.002-45c0-22.002-29.004-92.998-42.998-102.998c-4.004-3.008,0-22.002,7.998-43.008l15.996-37.998L5615,9114.002
		c-22.002-27.002-45-44.004-57.998-44.004c-15,0-17.998-2.998-10-10.996c7.002-7.002,22.998-9.004,37.998-5
		c15,3.994,24.004,10,20.996,12.998c-3.994,3.994,10,23.994,31.006,45c35.996,37.002,37.002,38.994,25.996,80.996
		c-7.002,26.006-7.998,46.006-2.002,52.002c6.006,5,9.004,4.004,9.004-4.004c0-25,27.002,7.002,44.004,54.004
		c15.996,40,20,44.004,36.992,34.004c18.008-9.004,18.008-12.002-17.998-56.006C5712.001,9247,5702.001,9229.002,5710,9232
		c7.998,2.002,30,23.994,49.004,47.998c31.992,42.998,32.998,44.004,11.992,54.004c-11.992,5-20.996,12.998-20.996,17.998
		c0,20.996-39.004,5.996-49.004-19.004L5690,9304.998l2.998,32.998c2.998,26.006-0.996,37.002-20,49.004
		c-12.002,7.998-22.998,22.002-22.998,30.996c0,9.004-4.004,29.004-9.004,46.006c-5,16.992-15,62.998-20.996,100.996
		c-15,90.996-20,105.996-30,100c-4.004-2.998-14.004,2.002-20.996,10.996c-7.002,9.004-37.002,30-66.006,46.006
		c-55.996,32.002-70,52.998-27.998,42.002c24.004-6.006,75,16.992,75,33.994c0,4.004-17.998,17.998-39.004,32.002
		c-35,20.996-40,29.004-45.996,74.004c-4.004,27.998-12.998,75.996-20,105.996s-20.996,102.002-30,160
		s-22.998,142.998-30.996,189.004c-8.008,45.996-13.008,85.996-10,88.994c2.998,2.998,13.994-5,25-15.996
		c26.992-32.002,32.998-27.002,10.996,10.996c-10,17.002-25.996,66.006-34.004,107.002c-18.994,89.004-17.998,82.998-5.996,75
		c5.996-2.998,10-0.996,10,4.004c0,16.992,17.002,12.998,62.998-16.006C5579.003,10527,5602.001,10517,5685.996,10512
		c74.004-4.004,90-1.006,170,28.994c95,35,100,37.002,93.008,43.008c-2.002,1.992-31.006-5-64.004-15
		c-122.998-40-172.002-41.006-280-7.002c-49.004,15-150.996,70.996-185,102.002
		C5367.001,10710.994,5360.996,10714.002,5354.003,10694.998z M5492.001,9809.998l22.002-20h-27.002c-20,0-27.002,5-27.002,20
		c0,10.996,2.002,20,5,20S5480,9820.994,5492.001,9809.998z"/>
	<path d="M6742.001,10669.002c-82.998-64.004-172.998-107.002-256.006-122.002c-80-15-86.992-15-212.998,20.996
		c-80,22.998-93.994,21.006-35-3.994c146.006-63.008,247.002-71.006,340-27.002c31.006,13.994,82.998,42.998,115,63.994
		c59.004,40,111.006,49.004,102.998,19.004c-2.998-7.998-8.994-40-15-70c-5-30-13.994-67.998-20-82.998
		c-13.994-37.002-13.994-37.998,6.006-30c13.994,5,15,0.996,10-32.998c-12.002-80-66.006-390-72.002-414.004
		c-4.004-14.004-7.998-60-10-104.004l-2.998-77.998l-41.006-25c-41.992-25-56.992-62.998-25-62.998
		c11.006,0,2.002-10.996-21.992-29.004c-26.006-17.998-41.006-23.994-46.006-16.992c-3.994,5.996-7.998,0-7.998-13.008
		c0-36.992-19.004-140-35.996-193.994c-8.008-26.006-12.002-52.002-9.004-57.002c2.998-5.996-5.996-15-20-22.002
		c-24.004-10.996-25.996-17.002-22.002-48.994c2.998-20,12.002-52.002,22.002-72.002c12.998-27.998,14.004-42.998,5.996-72.998
		c-8.994-34.004-7.998-41.006,13.008-64.004c12.998-14.004,30.996-37.002,40.996-52.002c17.002-27.998,47.998-37.002,60-17.998
		c2.998,5.996-2.002,10-12.002,10s-35,19.004-53.994,42.998c-35,41.006-35,42.998-21.006,77.002
		c7.998,19.004,22.998,47.002,34.004,62.998c25,35,18.994,42.998-15,17.002l-25-20L6500,9282.996
		c-17.002,44.004-12.002,87.998,12.998,115c11.006,12.002,17.998,22.002,15,22.002c-3.994,0,2.002,27.998,12.998,62.998
		c10,34.004,19.004,82.002,19.004,107.002c0.996,45,0.996,45,65,82.998c35,20,67.998,37.002,72.998,37.002
		s12.002-35.996,16.006-80.996c3.994-44.004,7.998-85,8.994-91.006c1.006-5-7.002-15-17.998-20.996
		c-22.998-14.004-35.996-29.004-30-36.006c2.998-1.992,10.996,2.002,19.004,8.008c11.992,10,20.996,5.996,48.994-26.006
		c19.004-20.996,34.004-40,32.998-42.998c0-2.998,6.006-12.998,14.004-22.998c30-35,35-42.998,62.002-84.004l27.998-42.998
		l-27.998-14.004c-15-7.998-54.004-37.998-87.002-65.996c-32.998-29.004-77.002-67.998-99.004-85.996
		c-20.996-19.004-33.994-34.004-27.998-34.004c10,0,95,64.004,142.002,107.002c14.004,12.998,50,35,80,50.996
		c30,15,57.002,27.998,59.004,29.004c8.994,5-25,67.998-75,135c-29.004,40-60,82.998-70,95.996
		c-17.002,25-24.004,87.002-27.002,254.004c-1.006,57.998-4.004,105-7.002,102.998c-7.002-4.004,5.996,210,12.998,220.996
		c2.998,5,19.004,99.004,35,209.004C6835,10584.998,6840,10707,6805,10707C6797.998,10707,6769.003,10689.998,6742.001,10669.002z
		 M6700,9775.994c0-1.992-7.002-6.992-15.996-10c-8.008-2.998-12.002-1.992-9.004,4.004
		C6680.996,9779.998,6700,9784.002,6700,9775.994z"/>
	<path d="M6054.003,10255.994c-9.004-15-49.004-41.992-88.008-60.996c-102.998-50.996-110-55.996-186.992-127.998l-69.004-65
		l0.996-59.004c1.006-43.994,3.008-52.002,9.004-32.998c4.004,14.004,7.998,37.998,9.004,52.998c0.996,20,15.996,42.998,55,80
		c73.994,71.006,88.994,82.002,207.998,146.006c30.996,15.996,65,35,75,41.992c15,9.004,35.996,1.006,122.998-45.996
		c105-57.002,127.998-74.004,207.998-147.002c39.004-35.996,44.004-45.996,51.006-100.996c5.996-41.006,8.994-52.002,10.996-32.002
		c5.996,57.998-0.996,110-15.996,117.998c-8.008,4.004-31.006,26.006-51.006,47.998c-35,38.008-125.996,100-187.998,128.008
		c-15.996,7.998-40,17.998-52.002,23.994c-12.998,6.006-25,17.998-27.998,27.998c-2.998,9.004-12.002,20-20,23.008
		c-10,2.998-12.002,0-9.004-12.002c5-15,4.004-15-8.994,0.996C6072.001,10280.994,6070.996,10280.994,6054.003,10255.994z"/>
	<path d="M6465,9559.998c-40-15-55.996-44.004-49.004-89.004c9.004-55,25-52.998,18.008,2.002c-6.006,39.004-3.008,45,20,60
		l25.996,17.002v-45.996c0-29.004-5.996-54.004-15.996-65c-10-11.006-12.002-19.004-5-23.008
		c18.994-11.992,36.992,46.006,30.996,100C6485.996,9562,6482.998,9567,6465,9559.998z"/>
	<path d="M5667.001,9542.996c-11.006-10-7.998-62.002,2.998-83.994c15.996-28.008,29.004-23.008,45.996,15.996
		c17.002,42.002,17.002,40-1.992,59.004C5697.998,9550.994,5677.998,9554.998,5667.001,9542.996z M5710,9515.994
		c0-7.998-5-26.992-10.996-42.998l-12.002-27.998l-7.002,25c-14.004,44.004-10.996,60,10,60
		C5700.996,9529.998,5710,9524.002,5710,9515.994z"/>
	<path d="M6357.998,9319.998c-13.994-9.004-15-15-5.996-35c5.996-14.004,13.994-25,17.998-25s10.996-10,15-22.002
		c2.998-12.998,9.004-17.998,10.996-10.996c3.008,5.996-1.992,25-10,42.002c-20,37.998-20,40.996,3.008,40.996
		c22.998,0,35-30.996,25.996-60.996c-5-16.006-2.998-20,5.996-17.002c14.004,5,15,20.996,7.002,67.998
		C6422.998,9327.996,6387.998,9337.996,6357.998,9319.998z"/>
	<path d="M5265,9189.002c25.996-50,65-88.008,104.004-100c47.998-15,60.996-27.002,60.996-53.008c-0.996-25-17.002-47.998-45-63.994
		c-20-11.006-20-11.006,2.002-12.002c12.002,0,30.996,12.002,42.002,25.996c37.998,48.008,23.994,93.008-36.006,117.002
		c-20.996,7.998-60,37.998-85.996,66.006c-26.006,27.998-50,50.996-52.998,50.996
		C5252.001,9219.998,5257.001,9205.994,5265,9189.002z"/>
	<path d="M6855,9162.996c-22.002-5.996-50.996-27.002-107.002-78.994c-27.998-25-37.998-43.008-37.998-64.004
		c0-19.004,5-30,14.004-30c8.994,0,11.992,7.998,8.994,24.004c-3.994,20,7.002,32.998,65,80c57.998,45.996,95,80,80,75
		C6875.996,9167.996,6865.996,9164.998,6855,9162.996z"/>
	<path d="M6037.001,9090.994c-9.004-26.992-14.004-55.996-11.006-65c3.008-8.994,1.006-15.996-5-15.996
		c-28.994,0-3.994-35,31.006-44.004c20.996-5,32.998-0.996,48.994,15c17.002,17.002,19.004,23.008,8.008,30
		c-8.008,5-24.004,9.004-36.006,9.004c-22.002,0-22.002,2.998-15.996,60c2.998,32.998,3.994,60,2.002,60
		C6057.001,9139.998,6047.001,9117.996,6037.001,9090.994z"/>
	<path d="M5205.996,9087.996c16.006-52.998,75-117.002,108.008-117.998c15,0,7.998,7.998-22.002,30.996
		c-24.004,17.002-52.002,49.004-62.998,70C5207.998,9114.002,5195,9122.996,5205.996,9087.996z"/>
	<path d="M6917.001,9057.996c-14.004-23.994-41.006-52.002-61.006-62.002c-18.994-10-32.998-22.998-30-26.992
		c15-25,102.002,55,119.004,108.994C6955,9112,6945,9104.002,6917.001,9057.996z"/>
</g>
</svg>
