<svg version="1.0" xmlns="http://www.w3.org/2000/svg"
 width="1200.000000pt" height="1600.000000pt" viewBox="0 0 1200.000000 1600.000000"
 preserveAspectRatio="xMidYMid meet">

<g transform="translate(0.000000,1600.000000) scale(0.100000,-0.100000)"
fill="#000000" stroke="none">
<path d="M4970 5609 c-67 -12 -185 -46 -224 -66 -15 -8 -47 -32 -70 -53 -22
-20 -56 -46 -75 -56 -18 -11 -44 -25 -56 -31 -35 -20 -128 -220 -176 -378 -23
-78 -66 -187 -95 -246 -29 -58 -73 -155 -99 -215 -25 -60 -57 -129 -69 -154
-33 -63 -82 -202 -101 -285 -22 -93 -24 -407 -5 -740 16 -271 18 -429 8 -715
-5 -161 -10 -200 -36 -301 -17 -64 -42 -136 -57 -159 -24 -39 -27 -51 -27
-144 0 -73 7 -131 25 -211 43 -188 49 -234 54 -467 6 -252 -3 -350 -43 -463
-30 -83 -62 -268 -54 -309 4 -22 16 -34 50 -50 34 -16 55 -37 86 -83 33 -52
58 -74 140 -128 107 -72 154 -95 189 -95 14 0 43 22 81 62 69 73 77 74 209 34
50 -15 127 -36 173 -46 95 -21 99 -19 88 54 -8 54 8 71 56 61 63 -14 328 -41
339 -34 7 4 1 17 -15 34 -30 32 -31 38 -11 55 12 10 42 11 123 6 l107 -7 -46
43 c-26 24 -71 75 -100 113 -29 39 -72 91 -96 117 -24 26 -49 59 -55 74 -7 15
-31 38 -54 53 -39 24 -112 102 -157 165 -15 22 -26 26 -70 26 -77 1 -103 29
-132 141 -23 88 -43 145 -76 214 -103 219 -115 577 -33 1053 23 138 124 568
144 615 5 12 30 76 56 142 38 100 106 264 169 410 7 17 18 48 25 70 7 22 33
80 58 130 24 49 51 107 58 128 34 95 74 417 94 752 8 117 19 208 32 260 19 73
20 97 14 275 -6 169 -10 201 -28 237 -12 23 -25 40 -30 37 -4 -3 -20 9 -34 26
-15 17 -39 37 -55 45 -31 17 -113 18 -199 4z"/>
<path d="M6974 5602 c-17 -11 -40 -32 -51 -46 -12 -14 -26 -26 -32 -26 -6 0
-11 -5 -11 -12 0 -6 -7 -19 -16 -29 -35 -39 -36 -481 -1 -537 5 -6 13 -85 18
-175 13 -211 45 -537 64 -649 21 -117 48 -204 88 -275 18 -32 43 -89 56 -128
13 -38 29 -79 35 -90 11 -21 63 -144 98 -230 11 -27 28 -69 39 -92 10 -23 19
-44 19 -48 0 -3 16 -46 36 -97 59 -151 146 -519 193 -818 25 -159 33 -297 29
-481 -4 -171 -8 -206 -32 -299 -15 -57 -33 -116 -41 -130 -39 -74 -55 -115
-75 -196 -12 -49 -33 -108 -47 -131 -25 -42 -26 -43 -80 -43 -51 0 -58 -3 -90
-37 -19 -20 -38 -44 -41 -53 -9 -22 -80 -84 -120 -104 -18 -9 -37 -28 -42 -41
-5 -13 -24 -41 -42 -62 -19 -21 -71 -85 -117 -143 -46 -58 -96 -115 -110 -127
l-26 -23 30 1 c17 0 66 4 110 8 104 9 120 -2 76 -56 -34 -41 -28 -54 23 -47
17 2 72 8 121 14 50 6 118 16 153 22 81 13 90 6 84 -66 -4 -47 -2 -55 14 -58
29 -5 283 64 340 93 18 9 29 6 62 -16 23 -15 44 -36 47 -46 4 -11 19 -27 33
-37 15 -9 33 -22 40 -29 18 -17 71 2 132 48 19 14 62 41 95 60 66 37 76 46
106 102 22 43 50 69 100 96 23 13 36 28 40 49 8 40 -14 186 -42 277 -52 170
-54 188 -53 435 1 251 18 395 67 580 20 74 22 97 15 178 -6 65 -14 102 -27
120 -21 30 -36 77 -72 222 -23 91 -24 110 -24 460 0 201 6 469 13 595 13 213
16 471 7 555 -9 86 -51 231 -92 315 -14 28 -52 113 -85 190 -33 77 -84 187
-113 245 -52 102 -82 188 -104 300 -17 81 -60 218 -82 259 -10 20 -19 41 -19
48 0 8 -11 10 -33 6 -38 -6 -78 16 -160 86 -28 24 -69 52 -91 62 -71 31 -198
59 -291 65 -78 5 -94 3 -121 -14z"/>
</g>
</svg>
