<svg version="1.1" xmlns="http://www.w3.org/2000/svg" xmlns:xlink="http://www.w3.org/1999/xlink" x="0px" y="0px" width="1200px"
	 height="1600px" viewBox="0 0 1200 1600" enable-background="new 0 0 1200 1600" xml:space="preserve">
<g id="Layer_2">
	<g transform="translate(0.000000,1600.000000) scale(0.100000,-0.100000)" opacity="0.2">
		<path fill="#FFFFFF" d="M6042.998,12797.996C5997.998,12747,5930,12650.994,5930,12637c0-29.004-102.998-92.998-167.998-102.998
			c-21.006-3.008-44.004-10-52.002-14.004s-35-10.996-60-15c-55-9.004-100-30.996-100-49.004
			c0-25.996,60.996-62.998,182.002-111.992c32.002-12.002,77.998-39.004,102.002-59.004
			c47.998-39.004,118.994-127.002,137.998-172.002c18.994-43.994,98.994-172.998,105.996-172.998
			c6.006,0,31.006,42.002,97.002,159.004c77.002,137.998,150.996,207.998,267.998,255c84.004,33.994,144.004,67.998,159.004,90
			c7.002,10-17.998,45.996-31.006,43.994c-2.998-0.996-12.998,2.002-20.996,5c-12.998,5-114.004,32.002-160,42.002
			c-7.998,2.002-17.002,4.004-20,5s-7.998,2.002-12.002,0.996c-3.994,0-28.994,12.002-55,27.002c-32.002,19.004-62.002,50-92.998,95
			c-62.002,91.006-117.998,157.002-134.004,157.002C6069.003,12819.998,6054.003,12809.998,6042.998,12797.996z"/>
	</g>
</g>
<g id="Layer_1">
	<g transform="translate(0.000000,1600.000000) scale(0.100000,-0.100000)">
		<path d="M6007.001,12772.995c-24.004-32.002-60-83.993-80-115.995c-21.006-32.002-45-60-55-64.004
			c-9.004-2.998-24.004-12.002-32.002-17.998c-7.998-7.002-60-22.002-114.004-34.004c-113.994-25-182.998-51.992-192.998-76.992
			c-10-28.008,60-79.004,175-126.006c87.998-35.996,111.006-50,152.002-95c27.002-30,62.002-75,75.996-100.996
			c90-157.998,130-222.002,141.006-222.002c10.996,0,87.998,120.996,132.998,209.004c12.002,25,52.002,75,89.004,110.996
			c55,57.002,77.998,72.002,140.996,95c85,30.996,167.002,80.996,175.996,107.998c13.008,37.998-17.998,55-168.994,94.004
			c-102.002,25-151.006,43.994-177.002,65c-9.004,7.002-37.998,47.002-65,87.998
			C6097.001,12851.999,6074.999,12861.999,6007.001,12772.995z M6095.995,12767.995c34.004-27.998,57.002-55,84.004-97.997
			c15.996-25,35.996-55,45-67.998c20.996-29.004,120.996-75,220.996-102.998c44.004-12.002,90-24.004,103.008-28.008
			c13.994-3.994,25.996-11.992,27.998-17.998c5.996-15.996-79.004-63.994-157.002-88.994
			c-77.002-25-194.004-123.008-232.998-194.004c-12.998-25-41.006-75.996-61.006-115c-20.996-37.998-41.992-70-47.998-70
			c-10,0-37.002,44.004-92.998,152.002c-20.996,42.002-55.996,85-107.998,132.998c-66.006,60.996-87.998,75.996-157.998,100
			c-89.003,32.002-149.003,67.998-143.007,85c3.008,5.996,28.008,17.002,57.002,24.004c87.998,21.992,170,47.998,227.001,73.994
			c47.998,21.006,62.002,35,100,92.998c35,56.006,104.004,134.003,117.998,134.003
			C6079.999,12779.997,6087.997,12774.001,6095.995,12767.995z"/>
		<path d="M6009.999,12649.998c-20.996-40.996-10-57.002,12.002-17.002c12.002,21.006,18.994,57.002,12.002,57.002
			C6032.001,12689.998,6020.995,12672,6009.999,12649.998z"/>
		<path d="M6119.999,12677.996c0-22.998,20.996-67.998,32.002-67.998c10.996,0,0,37.998-17.998,65
			C6122.001,12690.994,6119.999,12692,6119.999,12677.996z"/>
	</g>
</g>
</svg>
