<svg version="1.1" xmlns="http://www.w3.org/2000/svg" xmlns:xlink="http://www.w3.org/1999/xlink" x="0px" y="0px" width="1200px"
	 height="1600px" viewBox="0 0 1200 1600" enable-background="new 0 0 1200 1600" xml:space="preserve">
<g id="Layer_2">
	<g transform="translate(0.000000,1600.000000) scale(0.100000,-0.100000)" opacity="0.1">
		<path d="M5945,13800.999c-125-22.002-280.996-72.002-360-115c-117.998-65-260.996-163.999-289.004-201.001
			c-30.996-40-65.996-122.998-65.996-153.999c0-10-7.002-35-15-55s-15-38.999-15.996-43.003
			c-1.006-13.999-63.008-116.997-97.002-161.997c-61.006-80.005-106.006-136.001-119.004-146.997c-7.002-6.006-25-27.002-40-46.006
			c-15.996-18.994-72.002-73.994-125.996-122.998c-52.998-47.998-95-90-92.998-92.002c1.992-2.998,20.996,6.006,42.998,20
			c68.994,42.998,77.002,46.006,90,32.002c10-10.996,3.994-22.998-27.002-62.998c-22.002-27.002-40-54.004-40-60
			c0-5-7.002-16.006-15.996-22.998c-9.004-8.008-28.008-32.002-42.002-54.004c-12.998-22.002-31.006-47.002-39.004-55
			s-28.994-39.004-45.996-69.004c-17.998-30-44.004-75-59.004-100c-57.002-96.992-160-297.998-200.996-390.996
			c-9.004-19.004-21.006-57.002-27.998-85c-6.006-27.002-15-54.004-19.004-60c-25.996-35-47.002-439.004-27.998-542.002
			c13.994-75.996,23.994-82.002,18.994-10.996c-2.998,52.998,16.006,223.994,27.002,242.998c4.004,5.996,7.002,12.002,7.002,15
			c9.004,52.002,32.002,132.998,45.996,160c10,19.004,26.006,52.002,34.004,74.004c12.998,33.994,17.002,36.992,30.996,25
			c14.004-11.006,15-27.002,9.004-104.004c-12.002-152.998-12.002-237.002-2.002-305c10-70,15-117.002,16.006-139.004
			c0.996-10,3.994-10.996,13.994-1.992c17.002,13.994,22.998,7.998,47.998-49.004c48.008-104.004,51.006-122.002,50-242.998
			c-0.996-65-5.996-126.006-10.996-135c-5-9.004-15.996-40-25-67.998c-9.004-29.004-25-60-35-69.004
			c-10.996-10-17.002-20.996-15-25.996c7.002-10,72.998,12.998,110,36.992c14.004,9.004,27.998,14.004,32.002,11.006
			c2.998-4.004,17.998,2.002,32.998,12.998c15.996,10.996,32.998,20,37.998,20c25,0,132.002,114.004,157.002,165
			c14.004,30,30,57.002,35.996,60.996c15,9.004,41.006-18.994,44.004-50c2.002-13.994,12.998-40.996,24.004-60
			c11.992-17.998,20.996-40,20.996-47.998s9.004-22.998,20-32.998c50.996-45.996,110.996-245.996,122.998-412.998
			c2.002-29.004,0-55-3.994-57.998c-7.002-4.004-1.006-203.008,5.996-212.002c5-5,104.004,77.998,192.002,162.002
			c82.998,78.994,212.998,230.996,222.002,258.994c1.992,7.002,12.998,27.998,25.996,47.002s35,54.004,49.004,77.998
			c21.992,35,28.994,40,38.994,29.004c21.006-22.998,37.002-56.006,29.004-61.006c-19.004-11.992,30.996-297.998,57.002-330
			c5.996-6.992,7.998-15,5.996-17.998c-2.998-2.998-0.996-15.996,4.004-28.994c5-13.008,8.994-28.008,10.996-34.004
			c0.996-5,7.002-17.002,15-25c7.002-7.998,15.996-25.996,20-40s20-45.996,35.996-72.998c16.006-26.006,29.004-52.998,29.004-60
			s20-35,45-64.004c25-27.998,45-55.996,45-60.996c0-12.002,67.002-72.998,147.002-135
			c57.998-44.004,165.996-106.006,168.994-96.006c1.006,2.002,10-3.994,20-12.998c11.006-8.994,48.008-25,84.004-33.994
			c35.996-10,67.998-23.008,72.002-29.004c5-7.002,7.998-5.996,7.998,0.996c0,6.006-9.004,23.008-20.996,38.008
			c-11.006,13.994-18.008,25.996-14.004,25.996c2.998,0-2.998,12.002-12.002,27.002c-15,22.998-18.994,55-22.002,195
			c-2.998,147.998,0,180,19.004,258.994c12.002,49.004,32.998,106.006,45.996,125c13.008,19.004,24.004,38.008,24.004,42.002
			c0,4.004,20,27.002,44.004,51.006c41.992,40.996,45.996,42.998,60.996,26.992c14.004-13.994,15-21.992,5.996-43.994
			c-28.994-72.998-35.996-372.002-7.998-372.002c5,0,6.006,7.002,2.998,15.996c-3.994,9.004-1.992,22.002,3.008,28.008
			c3.994,5.996,11.992,28.994,15.996,50.996c24.004,132.998,119.004,350,195.996,447.002c16.006,20,29.004,40,29.004,42.998
			c0,4.004,20.996,34.004,47.998,67.002c26.006,32.998,52.002,68.994,59.004,80.996c5.996,11.006,32.998,46.006,60,76.006
			c25.996,30.996,60.996,73.994,75.996,96.992c15,22.002,41.006,53.008,57.002,69.004c17.002,15.996,30,34.004,30,40
			c0,5,22.998,37.998,50,72.998c27.998,34.004,47.998,62.002,45,62.002s12.998,25.996,37.002,57.998
			c72.002,95,143.994,222.998,167.002,297.002c11.992,39.004,27.998,90,36.992,115c8.008,25,16.006,60.996,18.008,80
			c7.998,72.998,18.994,100,50.996,124.004c40,30.996,45,25.996,67.998-59.004c27.998-107.998,39.004-202.998,34.004-302.002
			c-4.004-72.002-2.998-88.994,3.994-62.998c5,19.004,16.006,57.998,24.004,85c9.004,27.998,17.998,82.002,20.996,120
			c3.008,39.004,9.004,89.004,14.004,112.002c4.004,22.998,5,45,2.002,47.998s-7.002,30.996-7.998,62.998
			c-2.002,31.006-8.008,66.006-13.008,77.002s-13.994,47.998-20.996,82.002c-5.996,33.994-17.002,75-25,90s-15,33.994-15,40.996
			c0,17.998-75.996,181.006-147.002,317.002c-13.994,27.998-37.998,74.004-52.002,102.002
			c-13.994,28.994-28.994,52.998-32.998,52.998c-3.994,0-13.994,12.002-22.002,27.998c-7.998,15-22.998,36.006-32.998,47.002
			c-35.996,40-92.998,125-82.002,125c6.006,0,1.006,12.998-10,27.998c-12.998,19.004-16.992,32.998-10,42.998
			c7.002,12.002,13.008,11.006,41.006-5c17.998-10,52.998-28.994,77.998-42.998l45-23.994l-35,27.998
			c-47.998,37.998-227.002,215.996-259.004,257.002c-13.994,17.998-51.992,65-82.998,102.998
			c-52.998,65.996-168.994,277.998-180.996,332.998c-10,40-64.004,115-120,166.001c-156.006,140-354.004,227.998-602.998,267.998
			C6055,13822.996,6070.996,13822.996,5945,13800.999z"/>
	</g>
</g>
<g id="Layer_1">
	<g transform="translate(0.000000,1600.000000) scale(0.100000,-0.100000)">
		<path d="M5807.997,13774.997c-2.002-2.998-27.998-8.999-57.002-15c-62.998-12.002-197.998-70-260.996-113.999
			c-75.996-51.001-187.002-177.002-229.004-258.999c-8.994-18.003-21.992-32.002-27.998-30c-5.996,1.997-12.998-10-15.996-27.002
			c-12.002-55-85-193.999-147.002-275c-90-117.998-230-265.996-349.004-367.997c-115.996-97.998-136.992-124.004-70-85
			c24.004,13.994,70,40,102.002,57.002c32.998,17.998,71.006,38.994,85,48.993c21.006,12.998,24.004,14.004,17.002,2.002
			c-10.996-19.003-65.996-89.999-84.004-109.999c-7.998-7.998-28.994-37.002-47.998-65c-17.998-27.002-40-60.996-50-75
			c-8.994-14.004-32.998-50-52.998-80c-20.996-30-65.996-109.004-100.996-175C4340,11867,4322.001,11817,4295,11594.982
			c-16.123-132.553-26.694-273.457,5.649-404.502c8.379-33.959,12.593-68.334,23.672-101.699
			c5.425-16.338,15.444-35.961,29.868-45.531c16.484,17.227,3.691,63.07,2.959,85.951c-1.548,48.131-0.63,95.855,1.392,143.955
			c4.219,100.338,25.259,193.961,56.46,289.332c17.095,52.256,32.72,112.455,62.461,159.16
			c-11.646-117.334-25.605-232.773-22.729-350.943c1.23-50.629,7.549-98.32,16.714-147.943c5.005-27.08,7.671-54.346,9.868-81.777
			c1.323-16.484-3.125-63.848,8.569-76.914c11.367-12.691,11.792-2.168,18.335,13.213c9.351,21.982,12.925,47.797,17.896,71.045
			c13.071-40.371,40.835-71.416,48.711-114.254c7.158-38.93,15.171-79.672,17.046-119.229c2.871-60.482-3.125-121.426-18.77-179.965
			c-10.02-37.486-28.887-119.479-61.084-144.873c-10.669-8.408-20.088-19.742-26.26-31.523
			c25.933,24.785,62.856,19.482,95.117,18.496c35.288-1.084,63.398,3.734,95.225,19.457c46.094,22.779,87.788,53.574,125.742,88.082
			c34.932,31.758,76.489,68.188,96.802,111.533c6.875,14.668,13.286,29.779,22.29,43.32c4.341,6.523,29.067,34.492,29.067,9.629
			c0-17.002,59.004-136.006,75-152.002c37.002-37.998,90-205,104.004-332.002c8.77-73.531,8.022-148.736,6.587-222.643
			c-0.991-51.381-8.569-94.668-16.777-144.307c-4.771-28.842-8.77-74.848,34.561-53.061
			c81.426,40.938,129.946,130.332,195.073,190.932c70.986,66.051,133.101,140.605,192.314,217.184
			c18.096,23.412,36.499,59.076,60.234,76.895c3.008,2.998,9.004,12.002,12.002,20c4.004,7.998,16.006,29.004,27.001,45
			c10.996,17.002,25,42.002,30.996,57.998c18.008,45,29.004,31.006,29.004-40c0-85,22.998-218.994,54.004-315
			c27.998-87.002,92.998-237.002,111.992-258.994c8.008-8.008,14.004-20,14.004-26.006c0-5.996,2.998-12.998,7.998-15
			c4.004-0.996,24.004-27.998,45-58.994c20-31.006,50-67.002,65-81.006c15-13.994,41.006-40,57.002-58.994
			c72.002-81.006,277.002-196.006,392.998-219.004c59.004-12.002,91.006-7.998,65,7.998c-7.002,4.004-20.996,27.998-30.996,53.002
			c-64.082,149.176-61.123,344.215-23.926,499.996c18.398,77.055,76.123,189.727,143.926,235c5.996,4.004,7.998,3.008,5-3.994
			c-11.006-17.002-37.002-162.998-37.998-217.002c-2.002-49.004,26.992-244.004,36.992-254.004c2.002-2.998,11.006-5.996,20-6.992
			c12.002-2.002,15,7.998,13.008,48.994c-1.006,29.004,3.994,65,10,80c5.996,16.006,17.998,60,26.992,99.004
			c9.004,37.998,22.002,80.996,30,95.996c8.008,15,14.004,34.004,14.004,44.004c0,35.996,162.998,295.996,279.004,443.994
			c30.996,39.004,73.994,95,95.996,123.008c22.002,28.994,50,63.994,62.002,78.994c110.996,139.004,280.996,392.998,322.002,482.002
			c45.996,100.996,46.992,104.004,65.996,190c9.004,40.996,22.998,94.004,30.996,117.998c8.008,24.004,12.002,47.002,9.004,52.002
			s-0.996,10.996,5,15s10-5.996,10-25c0-44.004,20-27.002,20.996,17.998c0,32.998,1.006,34.004,9.004,12.002
			c40-124.004,54.004-302.002,34.004-435c-7.002-49.004-14.004-95.996-14.004-102.998c0-24.004,19.004-2.002,40,45
			c65.996,150,104.004,407.002,80,540c-17.002,90.996-55.996,240.996-75.996,288.994
			c-36.006,87.002-143.008,302.002-153.008,308.008c-5.996,3.994-10.996,13.994-10.996,21.992c0,20-77.002,139.004-159.004,243.008
			c-35,46.992-60,80.996-52.998,76.992c20-11.992,14.004,5-15,43.008l-27.998,35.995l30-20c34.004-22.001,102.002-60.995,125-72.001
			c7.998-3.994,37.002-20,62.998-35.996c26.006-16.006,50-27.002,52.998-25c2.002,2.998-32.998,35.996-77.998,72.998
			c-45.996,37.998-130.996,117.001-188.994,175.995c-173.008,175-274.004,315.005-329.004,459.004c-12.002,30-25.996,60-32.998,65
			c-7.002,6.001-21.006,27.002-32.002,48.999c-10.996,21.001-25.996,40-32.002,43.003c-7.002,2.998-12.998,10.996-12.998,17.998
			c0,17.002-127.998,146.001-182.002,182.002c-57.002,38.999-137.002,75.996-222.002,101.997c-82.998,25-90,26.001-77.998,5
			c5-8.999,45-28.999,87.998-43.999c134.004-46.001,221.006-96.001,286.006-162.998c87.002-89.004,152.998-189.004,162.998-247.002
			c2.998-16.001,9.004-40,15-53.999c5.996-17.002,5-26.001-2.998-30c-7.002-2.002-2.002-8.003,10.996-12.002
			s44.004-36.997,72.002-78.999c45.996-67.998,219.004-267.998,257.002-297.002c25.996-20,80-82.002,62.998-72.998
			c-125.996,72.998-307.002,214.004-337.002,265c-8.994,16.001-22.998,32.002-30,33.999c-25.996,10,67.998-99.995,147.002-173.003
			c44.004-40,80-77.998,80-82.998c0-5.996-7.998-3.994-17.002,2.998c-10,8.008,7.002-15,37.002-50.996
			c92.002-107.001,122.998-149.003,217.998-289.999c147.998-220.996,267.002-477.998,306.006-665
			c15-69.004,18.994-282.998,5.996-335l-7.998-35l-2.002,40c-4.004,85-25.996,200.996-52.002,269.004
			c-10.996,27.998-27.998,73.994-37.998,100.996c-19.004,52.998-65.996,154.004-100.996,220
			c-66.006,122.002-261.006,385-356.006,480.996c-102.002,102.002-258.994,231.005-268.994,221.005
			c-3.008-2.998,22.998-27.002,57.998-52.997c132.002-101.006,223.994-191.006,327.998-320c19.004-24.004,80-122.002,80-130
			c0-2.002,17.002-28.008,39.004-57.002c35-47.002,117.998-205,147.998-282.002c20.996-55.996,43.994-177.998,35-187.002
			c-6.006-5.996-14.004,2.002-20,21.006c-6.006,16.992-12.998,30.996-15,30.996s-5-24.004-5-54.004
			c-1.006-80-37.998-245-79.004-355.996c-2.998-7.998-7.998-24.004-10-35c-3.994-20.996-42.002-97.002-97.002-195
			c-43.994-77.998-216.992-309.004-350-467.998c-115-137.002-220.996-291.006-273.994-397.002
			c-32.998-67.002-96.006-242.998-115-320c-2.998-10.996-2.998,25-1.006,80c2.002,55,10,127.002,19.004,160
			c22.998,85.996,122.998,299.004,162.002,344.004c17.998,21.992,32.998,41.992,32.998,45.996s20,32.002,42.998,62.998
			c74.004,97.002,225,375,252.002,462.002c4.004,14.004,10.996,30,15,35c12.002,15,75,210,100,309.004c85,340,55,681.992-80.996,925
			c-69.004,122.998-212.002,292.998-324.004,384.999c-35.996,30-22.002,12.998,37.002-43.008
			c102.998-96.991,228.994-255.995,275-343.993c110-211.006,145.996-422.998,117.998-686.006c-4.004-35.996-7.998-72.998-10-80.996
			c-0.996-7.998-5.996-37.002-9.004-65c-10.996-77.002-100.996-365-125.996-400c-2.998-5-15-32.002-25-60
			c-40-110-200.996-399.004-217.002-389.004c-5,3.008-5,10-2.002,16.006c4.004,7.002,2.002,7.998-3.994,3.994
			c-7.002-3.994-12.002-11.992-12.002-17.998c0-15.996-109.004-187.998-154.004-242.998c-22.998-27.002-63.994-75-92.002-105.01
			c-24.17-25.977-47.852-52.607-70.713-79.732c-28.877-34.248-44.063-78.174-64.072-119.135
			c-21.602-44.225-35.957-92.412-49.404-139.648c-44.697-156.973-39.766-323.229,6.191-479.473c6.006-21.006,0-20-86.992,23.994
			c-52.002,26.006-121.006,66.006-154.004,88.008c-117.998,77.998-239.004,218.994-315.996,365.996
			c-13.008,25-24.004,47.002-24.004,50c-0.996,2.998-10.996,27.002-23.003,53.008c-26.777,57.992-52.563,117.709-66.65,180.234
			c-33.096,146.898-16.616,307.816,11.211,454.389c15.713,82.77,41.504,163.359,70.444,242.369
			c18.994,52.002,100,219.004,130.996,270c12.002,19.004,25,42.002,29.004,50c7.998,19.004,117.998,164.004,157.998,209.004
			c79.004,90.996,154.004,170.996,204.004,215.996c140,130,230.996,234.004,230.996,265c0,5.996,9.004,30,20.996,52.998
			c31.006,62.002,69.004,177.002,69.004,206.006c-0.996,16.992-7.998,5-20-34.004c-10.996-32.998-25-72.998-30.996-90
			c-6.006-15.996-11.006-34.004-13.008-40c-0.996-5-15-37.002-30.996-70c-22.998-50-65.996-97.002-255-285
			c-232.998-230.996-299.004-310.996-402.002-487.998c-25.996-46.006-47.998-85-47.998-87.998c0-2.002-10.996-27.002-24.004-56.006
			c-12.998-28.994-40-97.998-59.004-153.037c-24.053-69.658-59.229-135.016-83.799-204.869
			c-19.121-54.359-39.917-110.238-69.189-160.092c-43.007-72.998-112.001-175-163.007-240.996
			c-31.992-41.006-232.998-245-290.996-296.006l-25-22.002l-0.996,192.002c-2.002,171.006-5,202.002-27.002,282.002
			c-30,110.996-47.002,152.002-97.002,235c-20.996,35.996-50.996,100.996-65.996,145c-24.004,72.002-26.006,90-21.006,180
			c7.002,132.998,21.006,192.002,62.998,260c45,75.996,43.008,82.002-5.996,15c-79.004-110-115.996-242.002-99.004-352.998
			c9.004-54.004,7.002-69.004-8.994-107.998c-31.689-77.246-92.017-139.605-160.771-185.172
			c-29.531-19.574-81.24-70.459-119.976-58.441c-47.656,14.779-18.965,83.803-9.78,114.453
			c21.606,72.09,21.924,154.414,8.525,228.154c-5.996,32.998-22.998,90-40,126.006c-15.996,35.996-34.004,93.994-40,127.998
			c-12.002,62.002-14.004,247.002-5,295.996c4.004,22.002,4.004,22.998-2.998,7.002c-5-10.996-15-72.002-22.002-135
			c-20-177.002-32.998-160.996-27.002,35c4.004,134.004,10,195,31.006,289.004c31.992,141.992,72.998,250.996,112.998,302.998
			c17.002,20.996,57.002,78.994,90,127.998c60,90,90.996,135.996,215.996,315c254.004,364.999,357.002,519.999,342.998,519.999
			c-1.992,0-40-55-85-122.002c-45-67.998-113.994-169.999-153.994-227.997c-41.006-57.998-107.998-154.004-150.005-215.006
			c-112.485-162.266-236.479-318.09-341.167-485.492c-31.06-49.664-59.878-100.752-84.863-153.756
			c-53.145-112.764-105.464-235.234-126.963-358.744c-4.004-22.998-10-35-16.006-29.004c-7.998,7.998,4.004,232.998,17.002,307.002
			c14.004,79.004,52.002,175,135.996,345c188.008,380,359.004,625.996,570,820.995c55,51.006,116.006,115,136.006,143.008
			c32.002,43.994,25,39.995-47.998-34.004c-73.008-74.004-227.002-190-282.002-212.998c-11.006-4.004,37.002,52.002,105.996,123.994
			c69.004,72.002,154.004,171.006,187.998,221.006c34.004,50,71.006,92.998,81.006,95.996c13.994,3.003,15.996,7.002,7.002,13.003
			c-9.004,5-10,11.001-2.002,21.001c5.996,6.997,13.994,30.996,17.002,52.998c11.992,75,121.992,230,210.996,297.002
			c49.004,36.997,165,97.998,185.996,97.998c19.004,0,79.004,32.002,74.004,40c-2.002,3.999,5.996,5,19.004,2.998
			c11.992-2.998,28.994,2.002,36.992,9.004c8.008,7.998,23.008,18.999,34.004,25.996c10.996,6.001,15,12.002,9.004,12.002
			C5817.997,13779.997,5810.995,13777.995,5807.997,13774.997z"/>
		<path d="M5659.999,12889.997c-5.996-10.996-7.998-20-5.996-20c2.998,0,10,9.004,15.996,20s7.998,20,5.996,20
			C5672.997,12909.997,5665.995,12900.993,5659.999,12889.997z"/>
		<path d="M6679.999,12865.993c0-2.998,14.004-11.992,30-20.996c17.002-9.004,30-12.998,30-10.996c0,2.998-12.998,11.992-30,20.996
			C6694.003,12864.001,6679.999,12867.995,6679.999,12865.993z"/>
		<path d="M5617.001,12827.995c-70-92.002-272.002-268.993-407.002-357.997c-67.983-45.152-134.067-93.268-197.9-144.121
			c-60.034-47.832-124.36-96.139-173.462-155.596c-50.713-61.422-97.026-132.441-137.197-201.182
			c-71.245-121.92-139.922-263.438-151.704-405.947c55.571,170.85,112.07,344.799,215.464,493.76
			c73.105,105.322,169.385,191.494,269.927,269.926c37.773,29.469,76.284,57.965,114.78,86.471
			c94.58,69.932,190.962,136.943,281.089,212.686c94.004,79.003,236.005,234.003,216.005,234.003
			C5644.003,12859.997,5630.996,12844.997,5617.001,12827.995z"/>
		<path d="M5760.995,12824.001c0-11.006,3.008-14.004,6.006-6.006c2.998,7.002,2.002,16.006-1.006,19.004
			C5762.997,12840.993,5759.999,12834.997,5760.995,12824.001z"/>
		<path d="M5765.995,12716.999c2.002-104.999-37.998-404.003-65-479.999c-26.992-77.998-107.998-219.004-163.994-287.002
			c-24.004-29.004-132.002-175.996-150-202.998c-10-15-47.998-60-84.004-100c-47.002-50-52.998-59.004-18.994-27.002
			c90,84.004,150.996,150.996,170.996,187.998c10.996,20,52.002,80,90.996,132.002c86.006,115.996,138.007,200.996,170,279.004
			c50,122.998,89.004,507.997,57.002,564.999C5767.001,12794.997,5764.003,12774.001,5765.995,12716.999z"/>
	</g>
</g>
</svg>
