<svg version="1.0" xmlns="http://www.w3.org/2000/svg"
 width="1200.000000pt" height="1600.000000pt" viewBox="0 0 1200.000000 1600.000000"
 preserveAspectRatio="xMidYMid meet">

<g transform="translate(0.000000,1600.000000) scale(0.100000,-0.100000)"
fill="#000000" stroke="none">
<path d="M3840 8307 c0 -14 -3 -15 -18 -6 -16 10 -30 1 -103 -76 -46 -48 -120
-117 -164 -153 -44 -36 -109 -94 -144 -129 -65 -64 -110 -93 -260 -170 -53
-27 -98 -43 -120 -43 -45 0 -81 -24 -81 -53 0 -21 -5 -22 -74 -24 -70 -2 -74
-1 -80 21 -3 13 1 47 10 77 27 97 28 99 10 99 -9 0 -16 5 -16 11 0 5 -6 7 -12
3 -7 -4 -1 5 15 19 33 32 47 66 47 117 0 32 8 46 48 87 26 27 67 66 92 86 l45
36 -40 -10 c-132 -35 -283 -85 -369 -121 -91 -39 -100 -45 -119 -85 -23 -47
-19 -67 19 -87 10 -6 22 -15 26 -21 5 -6 8 -6 8 2 0 6 9 11 20 10 11 -1 20 -4
20 -7 0 -14 103 -42 136 -37 28 5 34 3 34 -12 0 -27 -21 -47 -73 -71 -52 -24
-53 -26 -109 -145 -34 -71 -36 -81 -22 -90 9 -5 38 -26 65 -46 l49 -36 97 3
c54 1 111 5 126 7 33 5 117 84 117 110 0 29 19 57 38 57 34 0 42 -21 42 -111
0 -100 7 -125 53 -180 44 -53 78 -58 155 -24 33 15 71 39 85 53 45 48 88 141
92 198 2 29 7 59 11 66 5 7 7 25 5 40 -1 16 1 28 6 28 5 0 7 16 5 35 -2 19 1
42 8 50 15 18 34 20 24 3 -5 -8 -2 -9 12 -4 10 4 42 10 69 13 90 10 213 62
242 103 8 11 21 20 29 20 24 0 19 168 -9 276 -25 95 -46 145 -47 111z m-90
-226 c0 -5 -7 -12 -16 -15 -14 -5 -15 -4 -4 9 14 17 20 19 20 6z"/>
<path d="M8292 8293 c-31 -77 -52 -192 -52 -280 0 -51 4 -93 8 -93 5 0 22 -11
38 -25 16 -14 39 -28 52 -31 12 -4 22 -10 22 -15 0 -5 6 -9 13 -9 6 0 25 -7
42 -16 16 -8 59 -19 95 -24 36 -5 80 -13 99 -17 l34 -8 3 -70 c3 -81 8 -112
17 -121 4 -4 7 -19 7 -33 0 -14 7 -39 15 -55 8 -15 15 -34 15 -41 0 -7 7 -15
15 -19 8 -3 15 -11 15 -19 0 -17 54 -67 104 -97 53 -32 118 -33 146 -2 11 12
24 22 28 22 19 0 42 99 42 181 0 64 4 90 15 99 23 19 49 7 61 -28 12 -38 96
-127 122 -129 9 -1 58 -5 108 -9 82 -6 96 -5 135 15 24 12 59 34 76 49 l33 27
-38 80 c-50 108 -60 119 -123 152 -43 22 -55 34 -57 55 -3 26 -2 27 32 21 35
-6 136 23 136 39 0 4 9 8 20 8 11 0 20 -4 20 -10 0 -5 5 -10 12 -10 6 0 8 3 5
7 -4 3 3 11 15 17 39 20 44 41 21 88 -19 40 -27 46 -119 85 -91 39 -174 66
-344 114 l-65 18 45 -37 c25 -20 66 -58 93 -85 40 -42 47 -55 47 -88 0 -50 22
-104 49 -119 12 -6 21 -16 21 -23 0 -9 -2 -9 -8 1 -7 10 -12 8 -25 -6 -15 -17
-15 -22 4 -71 20 -53 28 -116 16 -127 -3 -4 -41 -7 -84 -8 l-79 -1 4 26 c5 34
-29 59 -79 59 -24 0 -71 18 -140 53 -138 71 -174 94 -239 159 -30 30 -93 86
-140 125 -47 39 -123 110 -169 157 -46 48 -90 85 -96 82 -7 -2 -17 0 -22 5 -7
7 -14 0 -21 -18z"/>
</g>
</svg>
