<svg version="1.0" xmlns="http://www.w3.org/2000/svg"
 width="1200.000000pt" height="1600.000000pt" viewBox="0 0 1200.000000 1600.000000"
 preserveAspectRatio="xMidYMid meet">

<g transform="translate(0.000000,1600.000000) scale(0.100000,-0.100000)"
fill="#000000" stroke="none">
<path d="M4340 10160 c-11 -11 -20 -25 -20 -32 0 -6 -18 -26 -39 -45 -26 -22
-47 -52 -60 -88 -20 -54 -53 -102 -188 -277 -63 -82 -105 -124 -117 -116 -2 2
-24 -16 -49 -39 -26 -24 -51 -43 -56 -43 -33 0 -105 -98 -117 -159 -1 -8 -7
-17 -12 -20 -15 -9 -92 -168 -85 -175 4 -3 1 -6 -6 -6 -7 0 -10 -4 -7 -9 3 -5
-8 -28 -24 -52 -16 -24 -30 -47 -30 -50 0 -4 -8 -24 -17 -45 -9 -22 -16 -43
-14 -48 1 -5 -2 -12 -6 -15 -5 -3 -24 -33 -42 -66 -18 -33 -44 -71 -56 -85
-13 -14 -39 -49 -58 -77 -30 -47 -45 -58 -133 -102 -145 -72 -168 -80 -289
-106 -108 -22 -149 -37 -210 -72 -16 -10 -57 -33 -90 -52 -96 -54 -130 -85
-145 -133 -7 -24 -18 -49 -23 -55 -6 -8 -5 -30 2 -60 9 -36 9 -48 0 -54 -7 -4
-9 -14 -4 -25 4 -11 7 -30 6 -44 -1 -14 3 -32 9 -40 9 -13 13 -11 28 10 9 13
26 34 37 46 23 25 164 89 245 110 30 9 97 29 148 45 51 16 99 29 108 29 13 0
-35 -48 -93 -92 -44 -33 -65 -69 -78 -133 -8 -38 -24 -78 -35 -90 -24 -26 -26
-45 -4 -45 18 0 17 -2 -10 -99 -9 -30 -13 -64 -10 -77 6 -22 10 -23 75 -21 63
2 69 4 69 23 0 31 29 51 85 57 34 4 90 26 172 67 97 50 136 76 195 134 41 39
105 96 143 126 37 30 113 101 167 157 81 82 104 101 125 99 14 -2 29 -9 33
-17 21 -38 52 -201 52 -272 l1 -78 28 27 c39 38 57 79 80 191 26 121 64 243
95 305 13 26 24 63 24 82 0 28 8 43 41 73 38 36 116 143 147 206 8 15 18 27
23 27 5 0 9 5 9 10 0 12 80 123 93 128 4 2 7 10 7 17 0 7 4 15 8 17 13 5 96
120 114 158 35 72 73 155 74 163 1 4 2 16 3 26 0 11 8 27 17 35 8 9 13 16 9
16 -3 0 1 10 9 23 22 34 102 283 116 360 41 224 -51 367 -235 367 -28 0 -69
-9 -93 -20 -42 -19 -43 -19 -62 0 -25 25 -55 25 -80 0z"/>
<path d="M7475 10165 c-57 -20 -120 -92 -135 -156 -13 -52 -9 -164 9 -249 11
-54 91 -264 102 -268 4 -2 5 -10 2 -18 -3 -8 0 -14 7 -14 6 0 8 -4 5 -10 -3
-5 -1 -10 5 -10 7 0 10 -7 6 -15 -3 -8 -1 -15 5 -15 6 0 7 -4 4 -10 -3 -5 -3
-16 2 -22 4 -7 8 -15 8 -18 1 -14 118 -240 133 -258 9 -11 24 -30 32 -42 8
-12 20 -28 26 -34 16 -17 134 -183 148 -209 33 -61 89 -139 134 -184 40 -43
48 -56 44 -81 -2 -18 5 -47 21 -78 32 -64 70 -184 96 -307 23 -112 41 -153 79
-191 l28 -26 1 83 c1 75 31 227 53 266 4 8 19 15 33 17 21 2 43 -16 119 -94
51 -53 129 -126 173 -162 44 -36 111 -95 148 -131 85 -83 279 -187 364 -196
59 -6 88 -30 81 -65 -4 -22 -2 -23 69 -22 40 1 76 4 80 8 12 11 4 74 -16 127
-19 49 -19 54 -5 71 15 16 14 20 -9 48 -17 20 -28 48 -32 85 -9 66 -33 100
-122 170 -36 28 -58 51 -50 53 8 2 56 -11 108 -27 52 -16 119 -36 149 -45 143
-38 280 -118 280 -163 0 -7 4 -13 9 -13 17 0 33 31 29 55 -3 14 -1 28 3 31 14
9 10 24 -6 24 -12 0 -13 5 -7 18 23 44 23 93 0 154 -21 56 -29 65 -88 103
-101 65 -258 147 -277 144 -10 -1 -29 1 -43 4 -14 3 -58 14 -98 23 -40 9 -75
21 -78 25 -3 5 -14 9 -25 9 -11 0 -36 11 -57 24 -20 14 -68 39 -107 56 -73 33
-92 54 -189 209 -16 25 -37 58 -47 72 -10 15 -21 40 -25 55 -11 42 -42 110
-70 151 -13 19 -21 39 -18 44 3 5 0 9 -7 9 -7 0 -10 3 -6 6 7 7 -69 160 -84
170 -5 3 -7 10 -4 15 4 5 1 9 -4 9 -6 0 -11 8 -11 18 -1 26 -52 94 -90 119
-40 26 -75 52 -109 82 -13 12 -30 21 -36 21 -12 0 -51 47 -105 126 -14 20 -36
49 -50 64 -45 51 -60 70 -60 77 0 3 -10 20 -23 37 -13 17 -35 56 -49 87 -15
33 -41 68 -62 85 -20 16 -36 35 -36 42 0 19 -38 52 -60 52 -11 0 -29 -9 -40
-20 -19 -19 -20 -19 -62 0 -51 23 -135 25 -193 5z"/>
<path d="M3735 8080 c-3 -5 -1 -10 4 -10 6 0 11 5 11 10 0 6 -2 10 -4 10 -3 0
-8 -4 -11 -10z"/>
<path d="M3870 7905 c-7 -9 -10 -18 -7 -21 3 -3 10 4 17 15 13 25 8 27 -10 6z"/>
<path d="M8270 7902 c0 -15 97 -82 130 -89 42 -8 33 13 -10 22 -17 4 -30 10
-30 15 0 4 -10 10 -23 14 -12 3 -32 15 -45 26 -12 11 -22 17 -22 12z"/>
<path d="M2560 7891 c0 -6 -12 -16 -27 -23 -31 -15 -33 -24 -35 -148 -1 -148
4 -171 43 -198 19 -13 38 -34 42 -46 13 -37 50 -48 144 -40 46 4 82 8 81 10
-2 1 -33 5 -70 7 -56 5 -74 11 -112 39 -24 18 -52 38 -62 44 -17 10 -15 17 26
102 47 101 57 112 121 145 23 12 46 32 50 43 7 20 4 22 -40 22 -26 0 -62 7
-79 16 -17 9 -40 16 -52 16 -12 0 -18 5 -15 10 3 6 1 10 -4 10 -6 0 -11 -4
-11 -9z"/>
<path d="M9558 7893 c6 -2 18 -2 25 0 6 3 1 5 -13 5 -14 0 -19 -2 -12 -5z"/>
<path d="M9506 7864 c-16 -9 -51 -16 -78 -16 -26 0 -48 -4 -48 -8 0 -17 38
-51 80 -73 40 -20 50 -32 95 -120 l49 -99 -34 -29 c-57 -47 -111 -69 -176 -70
-56 -2 -54 -2 29 -11 95 -10 129 0 145 42 4 10 23 29 42 42 30 20 36 31 43 78
13 81 2 238 -17 259 -21 23 -92 25 -130 5z"/>
<path d="M3801 7853 c-14 -9 -41 -22 -60 -29 -28 -10 -31 -13 -13 -14 25 0 97
33 107 50 9 15 -8 12 -34 -7z"/>
<path d="M3525 7790 c-3 -5 -2 -10 4 -10 5 0 13 5 16 10 3 6 2 10 -4 10 -5 0
-13 -4 -16 -10z"/>
<path d="M3502 7675 c0 -16 2 -22 5 -12 2 9 2 23 0 30 -3 6 -5 -1 -5 -18z"/>
<path d="M3496 7632 c-7 -12 -19 -88 -13 -82 3 3 10 25 15 48 9 40 9 51 -2 34z"/>
<path d="M3037 7613 c-4 -3 -7 -15 -7 -26 0 -10 -24 -43 -52 -71 -47 -47 -58
-53 -97 -54 -54 -2 -69 -12 -18 -12 20 0 37 -4 37 -10 0 -16 62 -80 94 -97 39
-20 201 -63 235 -62 23 0 21 2 -10 12 -43 15 -102 79 -119 131 -8 24 -10 59
-6 97 8 65 -4 99 -33 99 -10 0 -21 -3 -24 -7z"/>
<path d="M9060 7601 c-6 -13 -8 -45 -4 -83 5 -51 2 -74 -16 -120 -12 -32 -25
-58 -30 -58 -5 0 -19 -10 -30 -22 -28 -31 -93 -30 -146 2 -50 30 -104 80 -104
97 0 8 -7 16 -15 19 -8 4 -15 12 -15 19 0 7 -7 26 -15 41 -8 16 -15 41 -15 56
0 15 -5 30 -11 34 -7 4 -9 0 -5 -14 4 -11 1 -31 -5 -45 -14 -31 -4 -49 74
-139 86 -100 165 -122 304 -87 129 32 177 61 209 122 12 22 22 27 52 28 l37 1
-40 8 c-22 4 -43 6 -46 4 -10 -6 -117 110 -121 131 -5 28 -44 32 -58 6z"/>
<path d="M3460 7476 c-44 -92 -74 -124 -145 -157 -33 -16 -51 -29 -41 -29 42
0 106 43 162 108 67 79 80 103 67 127 -8 14 -16 6 -43 -49z"/>
</g>
</svg>
