<?xml version="1.0" standalone="no"?>
<!DOCTYPE svg PUBLIC "-//W3C//DTD SVG 20010904//EN"
 "http://www.w3.org/TR/2001/REC-SVG-20010904/DTD/svg10.dtd">
<svg version="1.0" xmlns="http://www.w3.org/2000/svg"
 width="1200.000000pt" height="1600.000000pt" viewBox="0 0 1200.000000 1600.000000"
 preserveAspectRatio="xMidYMid meet">

<g transform="translate(0.000000,1600.000000) scale(0.100000,-0.100000)"
fill="#000000" stroke="none">
<path d="M4665 10261 c-11 -5 -29 -18 -39 -30 -11 -11 -31 -21 -45 -21 -18 0
-46 -21 -102 -77 -42 -43 -117 -116 -168 -163 -129 -119 -251 -245 -308 -315
-26 -33 -56 -69 -66 -80 -10 -11 -44 -54 -75 -95 -31 -41 -65 -83 -74 -92 -10
-10 -18 -21 -18 -25 0 -5 -15 -24 -33 -43 -17 -20 -56 -67 -86 -105 -113 -145
-411 -460 -499 -527 -31 -24 -66 -52 -78 -63 -41 -38 -117 -100 -150 -123 -40
-27 -188 -96 -226 -106 -16 -3 -34 -18 -42 -34 -8 -15 -47 -62 -88 -103 -65
-68 -87 -83 -200 -138 -86 -42 -134 -71 -150 -92 -13 -17 -42 -51 -65 -75 -42
-43 -62 -84 -24 -50 23 21 132 39 191 32 25 -3 72 -19 105 -36 99 -49 136 -50
240 -1 49 23 104 56 123 72 31 28 36 29 50 15 14 -13 14 -19 2 -43 -30 -60
-89 -128 -178 -205 -82 -71 -98 -91 -133 -162 -40 -79 -90 -234 -102 -309 -7
-43 -2 -42 57 16 44 42 74 55 185 76 103 20 134 32 162 60 9 9 29 28 45 42 16
15 40 45 53 68 15 25 41 49 64 60 22 11 69 49 106 85 71 70 79 78 161 174 47
55 55 61 68 48 13 -13 13 -21 -5 -63 -12 -26 -24 -64 -28 -83 -4 -19 -13 -44
-20 -55 -15 -24 -80 -180 -90 -215 -4 -14 -21 -50 -39 -80 -17 -30 -39 -72
-48 -93 l-18 -38 48 34 c71 52 100 64 174 70 80 7 96 15 161 76 46 42 107 149
107 185 0 13 90 148 117 176 7 8 32 42 54 75 22 33 64 94 95 135 95 129 119
172 148 264 15 50 42 109 59 132 18 24 49 67 70 96 21 29 65 89 98 133 33 44
83 114 110 155 27 41 70 100 95 130 111 132 198 272 315 503 66 131 122 252
124 269 2 16 11 41 20 54 14 22 14 25 0 30 -20 8 -20 81 1 124 32 62 51 161
41 208 -6 23 -13 42 -17 42 -4 0 -25 14 -46 31 -73 58 -149 86 -189 70z"/>
<path d="M7407 10256 c-21 -8 -56 -27 -79 -42 -22 -16 -51 -35 -63 -43 -36
-23 -46 -88 -24 -165 9 -36 24 -79 33 -98 8 -18 18 -52 21 -75 5 -35 3 -43
-10 -43 -18 0 -18 -7 -1 -39 8 -14 12 -30 10 -36 -3 -6 51 -123 120 -260 96
-195 144 -279 217 -380 51 -71 102 -139 112 -150 11 -11 43 -56 72 -100 74
-112 108 -159 122 -168 6 -4 32 -38 56 -75 42 -62 70 -101 128 -176 13 -16 35
-71 50 -122 22 -75 39 -111 93 -188 37 -53 85 -116 106 -142 22 -25 48 -60 57
-77 9 -18 43 -68 75 -112 33 -44 73 -113 89 -154 72 -179 145 -239 295 -241
30 0 57 -11 105 -41 35 -23 67 -47 71 -53 4 -6 8 -7 8 -1 -1 10 -23 56 -68
140 -12 22 -34 72 -48 110 -15 39 -42 102 -60 140 -18 39 -35 84 -39 100 -4
17 -14 47 -22 68 -14 33 -15 40 -2 52 13 13 18 11 44 -14 55 -54 92 -96 121
-135 43 -60 94 -105 141 -127 41 -19 51 -29 116 -118 60 -82 176 -140 281
-141 41 0 111 -36 158 -81 l40 -38 -7 47 c-11 76 -63 228 -107 313 -28 55 -56
91 -92 121 -161 136 -236 233 -204 264 12 12 21 9 62 -16 161 -102 242 -117
341 -61 32 18 76 33 107 37 71 8 165 -10 196 -39 l25 -22 -13 24 c-17 34 -26
43 -97 113 -35 33 -73 66 -85 73 -13 6 -32 16 -43 22 -11 6 -46 23 -77 38 -57
28 -189 146 -236 212 -12 17 -33 35 -45 38 -12 4 -45 18 -74 31 -28 13 -55 24
-60 24 -25 0 -250 172 -367 279 -106 98 -391 403 -451 483 -11 14 -52 66 -92
115 -70 85 -225 283 -261 332 -27 38 -174 190 -242 251 -117 105 -219 201
-263 248 -35 36 -58 52 -75 52 -14 0 -37 11 -51 24 -34 32 -68 39 -114 22z"/>
</g>
</svg>
