<?xml version="1.0" encoding="utf-8"?>
<!-- Generator: Adobe Illustrator 16.0.0, SVG Export Plug-In . SVG Version: 6.00 Build 0)  -->
<!DOCTYPE svg PUBLIC "-//W3C//DTD SVG 1.1//EN" "http://www.w3.org/Graphics/SVG/1.1/DTD/svg11.dtd">
<svg version="1.1" xmlns="http://www.w3.org/2000/svg" xmlns:xlink="http://www.w3.org/1999/xlink" x="0px" y="0px" width="1200px"
	 height="1600px" viewBox="0 0 1200 1600" enable-background="new 0 0 1200 1600" xml:space="preserve">
<g id="Layer_2">
	<g>
		<path fill="#262626" d="M237.911,808.199c-0.299,1.396-3.538-1.089-6.275-1.564c-2.501-0.434-14.234,2.333-15.265,1.148
			c-2.159-2.479,8.311-13.834,12.79-15.436c4.918-1.759,12.9-8.801,12.589-5.764C241.147,792.474,240.086,798.028,237.911,808.199z"
			/>
		<path fill="#262626" d="M289.42,827.824c-0.359,6.102-8.099,14-10.216,18.502c-0.783,1.664-2.762-14.882-1.223-23.581
			c1.139-6.435,15.46-19.527,14.894-15.036C292.43,811.234,289.781,821.687,289.42,827.824z"/>
		<path fill="#262626" d="M252.667,862.25c0.605,1.319,2.001,7.201,0.792,7.083c-2.351-0.228-10.354,11.012-11.667,10.553
			c-2.1-0.738,1.057-14.17,2.708-17.636c1.792-3.762,5.149-14.066,6.5-12.313C252.626,852.044,250.547,857.623,252.667,862.25z"/>
		<path fill="#262626" d="M309.641,871.097c-1.441,0.738,2.771-6.007,5.83-12.406c2.639-5.522,6.868-14.017,7.612-15.106
			c1.608-2.354,1.756,19.267-0.234,20.785C320.457,866.197,313.969,868.879,309.641,871.097z"/>
		<path fill="#262626" d="M977.111,808.199c0.299,1.396,3.537-1.089,6.274-1.564c2.501-0.434,14.234,2.333,15.265,1.148
			c2.158-2.479-8.311-13.834-12.789-15.436c-4.918-1.759-12.9-8.801-12.59-5.764C973.875,792.474,974.936,798.028,977.111,808.199z"
			/>
		<path fill="#262626" d="M925.602,827.824c0.359,6.102,8.099,14,10.216,18.502c0.783,1.664,2.762-14.882,1.223-23.581
			c-1.14-6.435-15.46-19.527-14.894-15.036C922.592,811.234,925.24,821.687,925.602,827.824z"/>
		<path fill="#262626" d="M962.355,862.25c-0.605,1.319-2.002,7.201-0.793,7.083c2.352-0.228,10.354,11.012,11.668,10.553
			c2.1-0.738-1.058-14.17-2.709-17.636c-1.792-3.762-5.148-14.066-6.5-12.313C962.396,852.044,964.475,857.623,962.355,862.25z"/>
		<path fill="#262626" d="M905.381,871.097c1.44,0.738-2.771-6.007-5.83-12.406c-2.639-5.522-6.868-14.017-7.613-15.106
			c-1.607-2.354-1.756,19.267,0.234,20.785C894.564,866.197,901.053,868.879,905.381,871.097z"/>
	</g>
</g>
<g id="Layer_1">
	<path d="M466.2,572.3c-1.8,0.7-5.4,3.101-8.101,5.5c-2.8,2.3-5.399,4.2-5.8,4.2c-0.899,0-10.1,7.9-16.399,14
		c-3.301,3.3-9.801,9.2-17.9,16.6c-4.1,3.7-17.9,18.801-22.2,24.2c-1.6,2-4.2,5.3-5.8,7.2c-1.5,1.9-8.3,10.5-15,19
		c-17.7,22.5-26.5,32.6-44,50.1c-14.8,14.9-32.9,30.5-41.5,35.9c-5.5,3.5-18.1,9-20.5,9c-1.2,0-3,1.6-4.6,4.2
		c-3.8,6.1-13.8,16.2-18.2,18.399c-2,1-4.4,2.5-5.3,3.2c-0.843,0.656-3.917,1.688-4,1.7c-0.094,0.021-0.217,0.063-0.365,0.122
		c-1.91,0.761-12.097,6.315-23.035,18.478c-2.2,2.4-4.4,6-4.8,6.601c-1.1,1.8,1.7,1.6,7.3-0.3c2.5-0.9,7.7-1.7,11.6-1.7
		c6.2-0.101,7.9,0.3,13.8,3.3c4.2,2.1,8.6,3.5,12,3.8c4.7,0.4,6.4-0.1,13.8-3.6c4.6-2.3,10.6-6,13.4-8.4c3.2-2.8,4.3-3.399,3.2-1.8
		c-1,1.4-2.4,3.8-3.2,5.5c-1.9,4.3-7.5,10.3-17.2,18.7c-7.7,6.5-9,8.2-12.9,16.3c-5.4,11-11.563,33.5-10.2,39.4
		c0.498,2.155,6.5-6,6.5-6c6.4-6.101,8.8-7.4,14.3-8.4c9.4-1.7,17.5-3.7,18.8-4.8c5.6-4.3,13.1-11.2,13.1-12c0-2.101,6.1-8.5,8.7-9
		c1.8-0.4,5.4-3.3,9.7-7.9c3.7-4,9.2-9.8,12.1-12.899c2.9-3.101,5.8-6.601,6.5-7.801c1.8-3.5,2.4-1.699,0.6,2.101
		c-0.8,1.8-2.1,5.5-2.9,8.3c-0.9,2.7-3.3,8.8-5.5,13.5c-2.1,4.7-4.5,10.3-5.2,12.5s-3.5,8.3-6.3,13.6c-5.7,11-5.9,14.7-0.6,10.7
		c9.1-6.8,13.3-8.7,19.3-8.8c13.2,0,23.9-10.3,30.3-28.9c0.8-2.399,1.9-4.899,2.4-5.5c5.2-6.399,10.1-13.1,12.9-17.6
		c1.9-3,5.3-7.8,7.6-10.5c5.9-7.2,16.4-23,16.4-24.9c0-3.5,4.5-14.399,8.2-19.6c9.4-13.5,13.1-18.6,17.6-24.3
		c2.601-3.4,7.5-10.3,10.7-15.2c3.3-5,8-11.3,10.5-14.1c8.7-9.7,19.2-26.9,30.4-49.9c6.199-12.7,12.1-25,13-27.5
		c1-2.5,2.199-5.5,2.699-6.8c1.101-2.8,0.301-4.601-1.8-3.8c-1.2,0.5-1.399,0.1-0.899-2c0.399-1.601,0.3-3-0.301-3.4
		c-0.699-0.4,0-3.1,1.9-7.6c3.1-7.101,3.8-11.4,1.9-11.4c-0.5,0-0.9-0.8-0.801-1.8c0.301-3.7-0.3-5.101-4.3-9.7
		c-4.2-4.8-12.5-9.5-16.3-9.4C470.4,571.1,468,571.7,466.2,572.3z M480.1,578.9C485.2,582.1,488.7,586.1,489.7,589.8
		c0.3,1.4-0.4,5.5-1.7,9.8l-2.4,7.4l-1.3-3.1c-1.3-3.2-7.3-9.2-8.3-8.301c-0.3,0.301,0.6,1.601,2,2.801c2.9,2.5,5.6,7.3,4.7,8.3
		c-0.4,0.3-1.224-1.003-2.8-2.101c-5.65-3.933-16.234-10.517-0.9,0.567c1.45,1.048,2.292,2.716,2.292,3.417
		c0,1.3-4.292,7.216-7.492,10.817c-1,1.1-1.8,2.399-1.8,2.899s-0.7,0.7-1.5,0.4c-0.8-0.4-1.7-0.101-2.1,0.5
		c-0.4,0.7-0.301,0.8,0.399,0.399c0.7-0.399,1.603,0.005,1.2,0.301c-6.563,4.818-12.549,2.066-10.938,3.162
		c1.563,1.063,12.899,0,18.338-8.963c2.8-3.8,4.1-4.8,5.699-4.399c1.601,0.5,1.9,1.1,1.4,3.2c-1.4,5.3-1.4,6.1,0.1,6.1
		c0.801,0,1.4,0.1,1.4,0.3c0,1.5-10.4,23.5-15.8,33.4C458.1,678.9,458.6,678.2,453.6,680.1c-4.5,1.7-4.6,1.7-12.8-1.199
		c-9.1-3.2-13-3.4-23.3-1.4c-6.2,1.3-6.4,1.4-1.5,0.8c11.3-1.2,17.4-1,21.5,0.7c5.5,2.4,10.7,4,13.2,4c2.7,0,3.5,1,2.1,2.8
		c-0.7,0.8-1.7,2.3-2.3,3.3c-2.2,4.101-17.6,25.9-20.1,28.601c-1.4,1.5-3.9,4.7-5.601,7L421.9,729l-2.2-2.3
		c-1.2-1.2-3.6-3.2-5.3-4.4c-4.1-2.8-14.3-5.8-15.6-4.5c-0.6,0.601,1.175,0.176,3.575,0.575c6.5,1.101,16.284,7.458,17.583,10.958
		c0.4,0.899-1.258,3.966-2.958,6.667c-4.7,7.4-9.4,10.8-5.5,4c0.8-1.4,1.4-3.9,1.4-5.5c0-2.4-0.4-1.7-2,3c-1.9,5.4-2.6,7.7-2.8,9.6
		c-0.1,0.4-1.9,2.9-4.1,5.7c-2.3,2.8-4.3,5.9-4.5,7c-0.1,1-1,3.5-1.9,5.7c-0.9,2.1-1.4,4.6-1.1,5.5c0.9,2.9-9.1,19-15.9,25.5
		c-3.8,3.7-6.8,7.4-7.5,9.7c-0.7,2-1.9,4.2-2.7,4.899c-0.9,0.7-2.4,3-3.5,5c-1,2.101-3.7,5.601-5.9,7.7c-3.1,3-4.6,5.7-7,12.601
		c-3.3,9.8-6.8,15.8-11.4,19.699c-2.6,2.2-4.3,2.7-10.1,3l-7,0.4l0.3-8c0.3-5.7,1.2-10.3,3.2-16c1.6-4.4,3.4-9.8,3.9-12
		s2-8.2,3.3-13.3l2.3-9.3l4.6-1.301c6.8-2,9.8-3.899,15.5-9.3c2.8-2.6,4.1-4.1,3-3.2c-4.1,3.2-8.7,5-19.3,7.301
		c-18.2,3.899-23.1,7-28.4,17.399c-5.2,10.2-13,18.101-18.8,19.2c-2.2,0.4-4.2,0.6-4.4,0.4c-0.2-0.2,0.2-3.2,0.9-6.601
		c1.6-7.2,1.8-14.2,0.5-13.399c-0.5,0.3-1.4,4.3-2.1,8.8c-1,6.3-2.1,9.7-4.8,14c-1.9,3.2-4.882,8.231-5.481,7.831
		c-1.3-0.8-1.519-17.731,0.281-23.031c1.4-3.9,10.5-11.4,12.1-10.5c1.2,0.8,2.2-1.6,1.2-2.6c-0.7-0.7-2.1-0.101-4.1,1.6l-3.2,2.7
		l2.3-4.9c10.5-21.8,10.6-21.899,16-25.6c8.1-5.7,11.2-9,12.6-13.8c0.7-2.4,2-5.801,2.8-7.601c0.8-1.7,1.2-3.7,0.8-4.3
		s0.3-2.3,1.6-3.7c2.1-2.2,2.1-2.5,0.5-1.899c-1.6,0.5-1.7,0.399-0.6-0.9c1.5-1.8-0.1-2-1.8-0.3c-0.9,0.899-1.2,0.899-1.2,0
		c0-0.601,0.9-1.601,2.1-2.2c1.1-0.7,1.8-1.4,1.6-1.7c-0.3-0.3-1.4,0-2.4,0.5c-1.4,0.8-1.8,2.3-1.8,6.4c-0.1,3.6-0.9,6.899-2.6,10.3
		c-2.4,4.7-3.8,6-18.6,17.3c-1.3,0.9-2.3,2.101-2.3,2.5c0,0.5-0.9,2.101-1.9,3.601c-1.1,1.5-2.3,3.899-2.6,5.399
		c-0.7,2.5-1.5,3.101-4,2.8c-0.6,0-3.1,2.101-5.7,4.7c-4.1,4.3-8,6.601-22.7,13.601c-4.5,2.1-5.6,2-11.9-0.9
		c-6.5-3-7.7-5.5-5.7-12.2c2.2-7.399,6.5-12.6,19.5-23.1c2.5-2,5.4-4.7,6.5-6s3.5-3,5.3-3.7c1.7-0.8,3.2-1.9,3.2-2.4
		c0-0.6,0.7-1.1,1.5-1.1c2.3,0,16.7-7.9,20-11c1.7-1.5,4-3.1,5.2-3.4c1.2-0.399,2.4-1.5,2.7-2.399c0.3-0.9,2.1-2.7,3.8-4
		c3.5-2.4,7.3-5.7,21.9-19.5c11.2-10.7,23.1-17,36.1-19.3c4.917-0.855,28.542-9.083,46.84-11.972
		c15.94-2.516,27.104,0.26,27.71-0.345c0.265-0.264-10.572-2.708-25.417-0.869c-13.208,1.636-30.539,7.55-31.434,7.786
		c-1.9,0.6-8.1,1.9-13.9,3c-6.2,1.3-14,3.6-19.2,5.9c-4.9,2.199-8.5,3.5-8.2,3c0.7-1.301,28.3-14.9,35.4-17.601
		c17.3-6.6,25-9.7,24.7-10c-1-0.899-28.6,9.9-41.5,16.2c-8.1,4-14.8,7.2-14.9,7.1c-0.1-0.1,1.9-2.399,4.5-5.1
		c2.6-2.8,8.9-9.8,14-15.7C375.9,670,378.9,667.4,384,666c3.006-0.835,5.438-2.172,5-2.453c-0.448-0.288-1.816-0.792-3.9-1.146
		l-3.9-0.601l1.9-3.3c1.1-1.8,5.2-6.9,9.2-11.2s10.9-12.1,15.4-17.3s12.6-13.5,18-18.5c5.399-4.9,13-12,16.899-15.7
		c3.9-3.8,7.601-6.8,8.2-6.8c0.601,0,1.5-0.7,1.9-1.5c0.5-0.8,2.3-2.5,4.1-3.8c1.7-1.3,2.9-2.601,2.601-2.9
		c-0.2-0.3,1.5-1.5,3.8-2.6C469.4,575.2,474.7,575.4,480.1,578.9z M483.1,611.3c-1,0.9-1.1,0.8-0.5-0.6c0.301-1,0.9-1.5,1.2-1.2
		S483.8,610.6,483.1,611.3z M386.438,664.125c-0.6,0.399-4.684,1.633-6.583,2.333C375.75,668.708,376.7,667,378.5,665
		c0.354-0.389,1.3-1.65,1.833-1.958C381.279,662.496,388.104,663.083,386.438,664.125z M456,681.4c0,0.3-0.4,0.8-1,1.1
		c-0.5,0.3-1,0.1-1-0.4c0-0.6,0.5-1.1,1-1.1C455.6,681,456,681.2,456,681.4z M241.2,787.6c0.3,0.301-0.9,3.101-2.8,6.101
		c-1.9,3.1-3.4,6.3-3.4,7s-1,1.8-2.2,2.3c-3.4,1.4-13.9,3.1-15,2.4c-1.5-1,5-7.101,13.7-13C239.8,786.9,240.3,786.6,241.2,787.6z
		 M337,800.4c0,0.199-0.9,0.6-2,0.899s-2,0.101-2-0.399s0.9-0.9,2-0.9S337,800.2,337,800.4z M331.3,802.3
		c0.7,2-27.8,33.101-33.4,36.4c-1.5,0.899-3.4,2.8-4.2,4.3c-2.3,3.8-8.3,9.5-14.2,13.5c-5.2,3.4-12.5,5.9-20.7,7.1L254,864.2
		l0.6-6.3c0.7-8.7,3.2-20.101,4.7-21.9c0.7-0.8,4.9-5,9.3-9.2l7.9-7.8l-0.3,13.3c-0.3,12.3,0.6,18.7,2.5,18.7c0.5,0,2.3-2.9,4.1-6.4
		c1.8-3.5,3.8-6.8,4.5-7.399c0.6-0.5,3.5-1.2,6.4-1.4c4.2-0.399,6.2-1.3,10-4.399c8.2-6.7,12.3-11.7,14.5-17.7
		c1.2-3.4,3.2-6.601,4.6-7.5c1.3-0.9,3.1-2.5,4-3.4C328.9,800.8,330.6,800.6,331.3,802.3z M323.9,856.2c-0.2,4.3-0.6,5.1-2.7,5.899
		c-1.919,0.731-9.881,8.594-10.284,7.776c-0.479-0.971,5.842-12.914,7.417-16.334c1.491-3.331,4.204-8.413,4.625-7.375
		C323.458,847.4,323.636,852.643,323.9,856.2z M251.875,864c0,4.3-5.172,8.126-8.063,11.813c-3.43,4.375,0.438-15,5.75-23.938
		C250.762,850.075,251.875,859.899,251.875,864z"/>
	<path d="M455,590c-1.2,0.8-0.9,1,1.3,1c1.601,0,2.601-0.4,2.2-1C457.7,588.8,456.9,588.8,455,590z"/>
	<path d="M423.5,619c-2.3,1.3-3.3,2.8-4.3,6.6c-0.7,2.7-1.1,6.2-1,7.9c0.3,2.8,0.6,3,3.8,2.7c1.9-0.2,4.1-1.101,4.8-2
		c1.2-1.601,1.5-9.7,0.3-14.3C426.5,617.3,426.5,617.3,423.5,619z M425.438,633.906c-0.7,0.5-2.938,1.094-4.237,1.094
		c-1.8,0-2.284-1.689-2.044-3.125c0.214-1.278,0.806-4.362,1.406-7.063c0.6-2.699,2.338-3.713,3.237-4.412
		c1.601-1.101,3.046-1.545,3.346,4.855C427.346,630.255,426.338,633.406,425.438,633.906z"/>
	<path d="M470.7,618.7c-0.4,0.3-0.7,1.1-0.7,1.7c0,0.6,0.5,0.5,1.2-0.2c0.6-0.601,0.899-1.4,0.7-1.7
		C471.6,618.2,471,618.3,470.7,618.7z"/>
	<path d="M416.094,631.375c-0.276,4.249-2.96,4.531-3.063,2.531c-0.098-1.9-1.031-2.606-1.031-0.706c0,2.3,1.8,4.1,3.4,3.5
		c1.1-0.4,1.6-1.9,1.6-4.7C417,624.061,416.569,624.046,416.094,631.375z"/>
	<path d="M449.177,691.286c0.479,1.183,1.886-1.629,1.886-2.129c0-0.271-0.951,1.23-1.875,1.173
		c-1.807-0.11-3.979-1.173-6.031-1.173C441.757,689.156,447.776,690.686,449.177,691.286z"/>
	<path d="M401.8,721.4c1.9,0.899,4.7,3,6.3,4.699c3.977,3.933,4.048,9.732,4.275,9.4c1.764-2.583-0.435-6.448-1.375-7.8
		c-1.792-2.575-6.367-5.063-10.156-7.372c-1.526-0.93-2.315-2.093-2.594-2.162c-0.658-0.163,0.665,1.67,0.958,1.958
		C399.855,720.76,401.8,721.4,401.8,721.4z"/>
	<path d="M393.9,745c-2.4,3.2-5,5.9-5.8,6c-0.8,0-1.1,0.7-0.8,2c0.7,2.6-1.1,2.1-4-1c-1.2-1.4-2.3-2-2.3-1.3c0,0.6,0.5,1.5,1,1.8
		c0.6,0.3,1,2.5,1,4.8c0.1,3.7,0.2,4,1.4,2.4c1.9-2.4,2.4-2.101,2.9,1.5c0.4,3,0.5,3.1,1.2,1c0.4-1.2,1.5-2.2,2.4-2.2
		c1,0,1.2-0.3,0.5-0.8c-1.8-1.2-2.4-6.3-0.8-6.9c0.8-0.3,2.108-1.021,2.108-1.821c0-0.141-1.431,0.356-1.396,0.229
		c0.161-0.591,1.411-1.708,1.987-1.708c1.1-0.1,6.2-8.9,5.4-9.6C398.5,739.2,396.4,741.7,393.9,745z"/>
	<path d="M743.521,571.1c-3.8-0.1-12.1,4.601-16.3,9.4c-4,4.6-4.601,6-4.3,9.7c0.1,1-0.301,1.8-0.801,1.8
		c-1.899,0-1.199,4.3,1.9,11.4c1.9,4.5,2.6,7.199,1.9,7.6c-0.601,0.4-0.7,1.8-0.301,3.4c0.5,2.1,0.301,2.5-0.899,2
		c-2.101-0.801-2.9,1-1.8,3.8c0.5,1.3,1.699,4.3,2.699,6.8c0.9,2.5,6.801,14.8,13,27.5c11.2,23,21.7,40.2,30.4,49.9
		c2.5,2.8,7.2,9.1,10.5,14.1c3.2,4.9,8.1,11.8,10.7,15.2c4.5,5.7,8.2,10.8,17.6,24.3c3.7,5.2,8.2,16.1,8.2,19.6
		c0,1.9,10.5,17.7,16.4,24.9c2.3,2.7,5.699,7.5,7.6,10.5c2.8,4.5,7.7,11.2,12.9,17.6c0.5,0.601,1.6,3.101,2.399,5.5
		c6.4,18.601,17.101,28.9,30.3,28.9c6,0.1,10.2,2,19.301,8.8c5.3,4,5.1,0.3-0.601-10.7c-2.8-5.3-5.6-11.399-6.3-13.6
		s-3.1-7.8-5.2-12.5c-2.2-4.7-4.6-10.8-5.5-13.5c-0.8-2.8-2.1-6.5-2.899-8.3c-1.801-3.8-1.2-5.601,0.6-2.101
		c0.7,1.2,3.6,4.7,6.5,7.801c2.9,3.1,8.4,8.899,12.1,12.899c4.301,4.601,7.9,7.5,9.7,7.9c2.601,0.5,8.7,6.899,8.7,9
		c0,0.8,7.5,7.7,13.1,12c1.301,1.1,9.4,3.1,18.801,4.8c5.5,1,7.899,2.3,14.3,8.4c0,0,6.003,8.155,6.5,6
		c1.362-5.9-4.8-28.4-10.2-39.4c-3.9-8.1-5.2-9.8-12.9-16.3c-9.699-8.4-15.3-14.4-17.199-18.7c-0.801-1.7-2.2-4.1-3.2-5.5
		c-1.101-1.6,0-1,3.2,1.8c2.8,2.4,8.8,6.101,13.399,8.4c7.4,3.5,9.101,4,13.8,3.6c3.4-0.3,7.801-1.7,12-3.8
		c5.9-3,7.601-3.4,13.801-3.3c3.899,0,9.1,0.8,11.6,1.7c5.6,1.899,8.4,2.1,7.3,0.3c-0.399-0.601-2.6-4.2-4.8-6.601
		c-10.938-12.162-21.125-17.717-23.035-18.478c-0.148-0.059-0.271-0.101-0.365-0.122c-0.082-0.013-3.156-1.044-4-1.7
		c-0.899-0.7-3.3-2.2-5.3-3.2c-4.399-2.199-14.399-12.3-18.2-18.399c-1.6-2.601-3.399-4.2-4.6-4.2c-2.4,0-15-5.5-20.5-9
		c-8.6-5.4-26.7-21-41.5-35.9c-17.5-17.5-26.3-27.6-44-50.1c-6.7-8.5-13.5-17.1-15-19c-1.6-1.9-4.2-5.2-5.8-7.2
		c-4.3-5.399-18.101-20.5-22.2-24.2c-8.1-7.399-14.6-13.3-17.9-16.6c-6.3-6.1-15.5-14-16.399-14c-0.4,0-3-1.9-5.8-4.2
		c-2.7-2.399-6.301-4.8-8.101-5.5C747.021,571.7,744.621,571.1,743.521,571.1z M751.821,578.2c2.3,1.1,4,2.3,3.8,2.6
		c-0.3,0.3,0.9,1.601,2.601,2.9c1.8,1.3,3.6,3,4.1,3.8c0.4,0.8,1.3,1.5,1.9,1.5c0.6,0,4.3,3,8.2,6.8
		c3.899,3.7,11.5,10.8,16.899,15.7c5.4,5,13.5,13.3,18,18.5s11.4,13,15.4,17.3s8.1,9.4,9.2,11.2l1.899,3.3l-3.899,0.601
		c-2.084,0.354-3.453,0.859-3.9,1.146c-0.438,0.281,1.994,1.618,5,2.453c5.1,1.4,8.1,4,19.2,16.8c5.1,5.9,11.399,12.9,14,15.7
		c2.6,2.7,4.6,5,4.5,5.1c-0.101,0.101-6.8-3.1-14.9-7.1c-12.899-6.3-40.5-17.1-41.5-16.2c-0.3,0.3,7.4,3.4,24.7,10
		c7.1,2.7,34.7,16.3,35.4,17.601c0.3,0.5-3.301-0.801-8.2-3c-5.2-2.301-13-4.601-19.2-5.9c-5.8-1.1-12-2.4-13.9-3
		c-0.895-0.235-18.226-6.149-31.434-7.786c-14.844-1.839-25.681,0.605-25.416,0.869c0.605,0.605,11.77-2.17,27.71,0.345
		c18.298,2.888,41.923,11.116,46.84,11.972c13,2.3,24.9,8.6,36.101,19.3c14.6,13.8,18.399,17.1,21.899,19.5c1.7,1.3,3.5,3.1,3.8,4
		c0.301,0.899,1.5,2,2.7,2.399c1.2,0.301,3.5,1.9,5.2,3.4c3.3,3.1,17.7,11,20,11c0.8,0,1.5,0.5,1.5,1.1c0,0.5,1.5,1.601,3.2,2.4
		c1.8,0.7,4.2,2.4,5.3,3.7s4,4,6.5,6c13,10.5,17.3,15.7,19.5,23.1c2,6.7,0.8,9.2-5.7,12.2c-6.3,2.9-7.399,3-11.899,0.9
		c-14.7-7-18.601-9.301-22.7-13.601c-2.601-2.6-5.101-4.7-5.7-4.7c-2.5,0.301-3.3-0.3-4-2.8c-0.3-1.5-1.5-3.899-2.6-5.399
		c-1-1.5-1.9-3.101-1.9-3.601c0-0.399-1-1.6-2.3-2.5c-14.8-11.3-16.2-12.6-18.601-17.3c-1.699-3.4-2.5-6.7-2.6-10.3
		c0-4.101-0.4-5.601-1.8-6.4c-1-0.5-2.101-0.8-2.4-0.5c-0.2,0.3,0.5,1,1.601,1.7c1.199,0.6,2.1,1.6,2.1,2.2c0,0.899-0.3,0.899-1.2,0
		c-1.7-1.7-3.3-1.5-1.8,0.3c1.1,1.3,1,1.4-0.6,0.9c-1.601-0.601-1.601-0.301,0.5,1.899c1.3,1.4,2,3.101,1.6,3.7s0,2.6,0.8,4.3
		c0.8,1.8,2.101,5.2,2.8,7.601c1.4,4.8,4.5,8.1,12.601,13.8c5.399,3.7,5.5,3.8,16,25.6l2.3,4.9l-3.2-2.7c-2-1.7-3.399-2.3-4.1-1.6
		c-1,1,0,3.399,1.2,2.6c1.6-0.9,10.699,6.6,12.1,10.5c1.8,5.3,1.582,22.231,0.281,23.031c-0.6,0.4-3.581-4.631-5.481-7.831
		c-2.7-4.3-3.8-7.7-4.8-14c-0.7-4.5-1.6-8.5-2.1-8.8c-1.301-0.801-1.101,6.199,0.5,13.399c0.699,3.4,1.1,6.4,0.899,6.601
		c-0.2,0.199-2.2,0-4.399-0.4c-5.801-1.1-13.601-9-18.801-19.2c-5.3-10.399-10.199-13.5-28.399-17.399
		c-10.601-2.301-15.2-4.101-19.3-7.301c-1.101-0.899,0.199,0.601,3,3.2c5.699,5.4,8.699,7.3,15.5,9.3l4.6,1.301l2.3,9.3
		c1.3,5.1,2.8,11.1,3.3,13.3s2.301,7.6,3.9,12c2,5.7,2.9,10.3,3.2,16l0.3,8l-7-0.4c-5.8-0.3-7.5-0.8-10.1-3
		c-4.601-3.899-8.101-9.899-11.4-19.699c-2.4-6.9-3.9-9.601-7-12.601c-2.2-2.1-4.9-5.6-5.9-7.7c-1.1-2-2.6-4.3-3.5-5
		c-0.8-0.699-2-2.899-2.699-4.899c-0.7-2.3-3.7-6-7.5-9.7c-6.801-6.5-16.801-22.6-15.9-25.5c0.3-0.9-0.2-3.4-1.1-5.5
		c-0.9-2.2-1.801-4.7-1.9-5.7c-0.2-1.1-2.2-4.2-4.5-7c-2.2-2.8-4-5.3-4.1-5.7c-0.2-1.899-0.9-4.199-2.801-9.6c-1.6-4.7-2-5.4-2-3
		c0,1.6,0.601,4.1,1.4,5.5c3.9,6.8-0.8,3.4-5.5-4c-1.7-2.7-3.358-5.767-2.959-6.667c1.301-3.5,11.084-9.858,17.584-10.958
		c2.4-0.399,4.175,0.025,3.575-0.575c-1.3-1.3-11.5,1.7-15.601,4.5c-1.699,1.2-4.1,3.2-5.3,4.4l-2.2,2.3l-2.899-4.3
		c-1.7-2.3-4.2-5.5-5.601-7c-2.5-2.7-17.899-24.5-20.1-28.601c-0.6-1-1.6-2.5-2.3-3.3c-1.4-1.8-0.601-2.8,2.1-2.8
		c2.5,0,7.7-1.6,13.2-4c4.1-1.7,10.2-1.9,21.5-0.7c4.9,0.601,4.7,0.5-1.5-0.8c-10.3-2-14.2-1.8-23.3,1.4
		c-8.2,2.899-8.3,2.899-12.8,1.199c-5-1.899-4.5-1.199-16.601-23.399c-5.399-9.9-15.8-31.9-15.8-33.4c0-0.2,0.6-0.3,1.4-0.3
		c1.5,0,1.5-0.8,0.1-6.1c-0.5-2.101-0.2-2.7,1.4-3.2c1.6-0.4,2.899,0.6,5.699,4.399c5.438,8.963,16.775,10.025,18.338,8.963
		c1.611-1.096-4.375,1.656-10.938-3.162c-0.402-0.296,0.5-0.7,1.2-0.301c0.7,0.4,0.8,0.301,0.399-0.399
		c-0.399-0.601-1.3-0.9-2.1-0.5c-0.8,0.3-1.5,0.1-1.5-0.4s-0.8-1.8-1.8-2.899c-3.2-3.601-7.491-9.517-7.491-10.817
		c0-0.7,0.841-2.368,2.291-3.417c15.334-11.084,4.75-4.5-0.9-0.567c-1.576,1.097-2.399,2.4-2.8,2.101c-0.899-1,1.8-5.8,4.7-8.3
		c1.4-1.2,2.3-2.5,2-2.801c-1-0.899-7,5.101-8.3,8.301l-1.3,3.1l-2.4-7.4c-1.3-4.3-2-8.399-1.7-9.8c1-3.7,4.5-7.7,9.601-10.899
		C740.321,575.4,745.621,575.2,751.821,578.2z M731.222,609.5c0.3-0.3,0.899,0.2,1.2,1.2c0.6,1.399,0.5,1.5-0.5,0.6
		C731.222,610.6,730.922,609.8,731.222,609.5z M834.688,663.042c0.534,0.309,1.48,1.57,1.834,1.958c1.8,2,2.75,3.708-1.354,1.458
		c-1.9-0.7-5.984-1.934-6.584-2.333C826.918,663.083,833.742,662.496,834.688,663.042z M760.021,681c0.5,0,1,0.5,1,1.1
		c0,0.5-0.5,0.7-1,0.4c-0.6-0.3-1-0.8-1-1.1C759.021,681.2,759.422,681,760.021,681z M983.521,792.4c8.7,5.899,15.2,12,13.7,13
		c-1.101,0.699-11.601-1-15-2.4c-1.2-0.5-2.2-1.6-2.2-2.3s-1.5-3.9-3.4-7c-1.899-3-3.1-5.8-2.8-6.101
		C974.722,786.6,975.222,786.9,983.521,792.4z M880.021,800c1.1,0,2,0.4,2,0.9s-0.9,0.699-2,0.399s-2-0.7-2-0.899
		C878.021,800.2,878.922,800,880.021,800z M888.222,802.8c0.899,0.9,2.7,2.5,4,3.4c1.399,0.899,3.399,4.1,4.6,7.5
		c2.2,6,6.3,11,14.5,17.7c3.8,3.1,5.8,4,10,4.399c2.9,0.2,5.8,0.9,6.4,1.4c0.7,0.6,2.7,3.899,4.5,7.399s3.6,6.4,4.1,6.4
		c1.9,0,2.8-6.4,2.5-18.7l-0.3-13.3l7.9,7.8c4.399,4.2,8.6,8.4,9.3,9.2c1.5,1.8,4,13.2,4.7,21.9l0.6,6.3l-4.8-0.601
		c-8.2-1.199-15.5-3.699-20.7-7.1c-5.9-4-11.9-9.7-14.2-13.5c-0.8-1.5-2.7-3.4-4.2-4.3c-5.6-3.3-34.1-34.4-33.399-36.4
		C884.422,800.6,886.121,800.8,888.222,802.8z M892.063,846.167c0.422-1.038,3.135,4.044,4.625,7.375
		c1.575,3.42,7.896,15.363,7.418,16.334c-0.402,0.817-8.365-7.045-10.284-7.776c-2.1-0.8-2.5-1.6-2.7-5.899
		C891.386,852.643,891.563,847.4,892.063,846.167z M965.459,851.875c5.313,8.938,9.18,28.313,5.75,23.938
		c-2.891-3.687-8.063-7.513-8.063-11.813C963.146,859.899,964.26,850.075,965.459,851.875z"/>
	<path d="M756.521,590c-0.4,0.6,0.6,1,2.2,1c2.2,0,2.5-0.2,1.3-1C758.121,588.8,757.321,588.8,756.521,590z"/>
	<path d="M787.922,619.9c-1.2,4.6-0.9,12.699,0.3,14.3c0.7,0.899,2.899,1.8,4.8,2c3.2,0.3,3.5,0.1,3.8-2.7c0.101-1.7-0.3-5.2-1-7.9
		c-1-3.8-2-5.3-4.3-6.6C788.521,617.3,788.521,617.3,787.922,619.9z M787.876,625.255c0.3-6.4,1.745-5.956,3.346-4.855
		c0.899,0.699,2.638,1.713,3.237,4.412c0.6,2.7,1.192,5.785,1.406,7.063c0.24,1.436-0.244,3.125-2.044,3.125
		c-1.3,0-3.537-0.594-4.237-1.094C788.684,633.406,787.676,630.255,787.876,625.255z"/>
	<path d="M743.121,618.5c-0.199,0.3,0.101,1.1,0.7,1.7c0.7,0.7,1.2,0.8,1.2,0.2c0-0.601-0.3-1.4-0.7-1.7
		C744.021,618.3,743.422,618.2,743.121,618.5z"/>
	<path d="M798.021,632c0,2.8,0.5,4.3,1.6,4.7c1.601,0.6,3.4-1.2,3.4-3.5c0-1.9-0.934-1.194-1.031,0.706
		c-0.103,2-2.787,1.717-3.063-2.531C798.452,624.046,798.021,624.061,798.021,632z"/>
	<path d="M771.865,689.156c-2.052,0-4.225,1.063-6.031,1.173c-0.924,0.057-1.875-1.444-1.875-1.173c0,0.5,1.406,3.313,1.886,2.129
		C767.245,690.686,773.265,689.156,771.865,689.156z"/>
	<path d="M815.813,720.125c0.294-0.288,1.617-2.122,0.959-1.958c-0.278,0.069-1.067,1.231-2.594,2.162
		c-3.789,2.309-8.364,4.797-10.156,7.372c-0.94,1.352-3.139,5.216-1.375,7.8c0.227,0.332,0.299-5.467,4.275-9.4
		c1.6-1.699,4.399-3.8,6.3-4.699C813.222,721.4,815.166,720.76,815.813,720.125z"/>
	<path d="M816.321,739.4c-0.8,0.699,4.3,9.5,5.4,9.6c0.576,0,1.826,1.118,1.987,1.708c0.035,0.126-1.396-0.371-1.396-0.229
		c0,0.8,1.309,1.521,2.109,1.821c1.6,0.601,1,5.7-0.801,6.9c-0.699,0.5-0.5,0.8,0.5,0.8c0.9,0,2,1,2.4,2.2c0.7,2.1,0.8,2,1.2-1
		c0.5-3.601,1-3.9,2.899-1.5c1.2,1.6,1.301,1.3,1.4-2.4c0-2.3,0.4-4.5,1-4.8c0.5-0.3,1-1.2,1-1.8c0-0.7-1.1-0.101-2.3,1.3
		c-2.9,3.1-4.7,3.6-4,1c0.3-1.3,0-2-0.8-2c-0.801-0.1-3.4-2.8-5.801-6C818.621,741.7,816.521,739.2,816.321,739.4z"/>
</g>
</svg>
