<?xml version="1.0" standalone="no"?>
<!DOCTYPE svg PUBLIC "-//W3C//DTD SVG 20010904//EN"
 "http://www.w3.org/TR/2001/REC-SVG-20010904/DTD/svg10.dtd">
<svg version="1.0" xmlns="http://www.w3.org/2000/svg"
 width="1200.000000pt" height="1600.000000pt" viewBox="0 0 1200.000000 1600.000000"
 preserveAspectRatio="xMidYMid meet">

<g transform="translate(0.000000,1600.000000) scale(0.100000,-0.100000)"
fill="#000000" stroke="none">
<path d="M4501 10131 c-28 -11 -55 -33 -76 -62 -18 -24 -63 -75 -100 -114 -60
-62 -132 -151 -175 -215 -8 -13 -31 -42 -50 -64 -19 -23 -46 -57 -60 -76 -14
-18 -34 -43 -45 -55 -109 -116 -210 -337 -219 -475 -4 -70 -22 -122 -35 -101
-4 6 -29 -48 -55 -121 -66 -185 -88 -238 -98 -232 -4 3 -8 1 -8 -3 0 -5 -29
-26 -65 -47 -69 -40 -161 -110 -316 -239 -52 -43 -101 -84 -109 -90 -23 -18
-173 -91 -190 -92 -8 -1 -32 -9 -52 -18 -21 -10 -45 -19 -55 -20 -10 -2 -31
-9 -46 -15 -16 -7 -47 -15 -70 -18 -23 -3 -51 -10 -62 -15 -36 -16 -105 -27
-137 -22 -55 9 -66 -46 -18 -100 45 -51 123 -71 251 -61 58 4 99 3 99 -3 0
-10 -75 -75 -131 -113 -20 -14 -64 -47 -97 -74 -52 -41 -60 -52 -51 -67 13
-26 85 -61 126 -62 22 -1 32 -5 29 -13 -6 -15 12 -22 77 -30 72 -9 122 8 212
69 43 28 94 62 114 74 20 12 43 31 53 43 9 11 23 20 32 20 16 0 101 54 111 71
4 5 12 9 19 9 10 0 12 -10 5 -42 -16 -87 -64 -184 -151 -304 -63 -88 -67 -114
-17 -114 66 0 138 52 172 124 14 29 32 56 40 59 12 4 106 140 165 238 12 20
40 49 61 64 22 15 57 48 78 73 21 26 72 80 113 122 121 120 190 257 190 376 0
66 18 115 76 211 26 43 47 83 47 90 0 7 4 10 9 7 4 -3 8 1 8 10 0 8 3 16 8 18
4 2 45 53 91 113 46 61 89 115 95 120 38 34 185 208 181 215 -2 4 4 18 15 30
11 13 20 26 20 29 0 3 11 19 25 35 14 16 25 35 25 42 0 7 4 14 9 16 13 4 131
222 131 241 0 9 4 19 10 22 15 9 87 157 104 216 48 159 -4 285 -133 323 -70
20 -125 19 -180 -3z m-1496 -2511 c-3 -5 -12 -10 -18 -10 -7 0 -6 4 3 10 19
12 23 12 15 0z"/>
<path d="M7465 10133 c-55 -16 -106 -59 -130 -109 -20 -42 -19 -145 1 -215 16
-53 73 -170 99 -199 7 -8 16 -26 20 -40 15 -50 116 -227 187 -329 21 -30 38
-61 38 -69 0 -8 24 -41 53 -72 109 -117 135 -148 214 -250 174 -227 231 -332
244 -452 12 -107 22 -137 76 -230 45 -79 109 -148 173 -191 19 -12 36 -32 38
-44 4 -25 94 -113 116 -113 9 0 27 -24 42 -52 14 -29 36 -64 49 -78 38 -42
135 -188 155 -236 26 -60 94 -104 162 -104 35 0 48 4 48 15 0 8 -28 54 -62
102 -97 135 -147 252 -145 330 l1 22 31 -24 c16 -14 48 -35 69 -46 38 -20 59
-34 198 -123 31 -20 60 -41 64 -47 4 -6 32 -22 63 -36 47 -21 65 -24 115 -19
37 4 68 13 80 24 12 11 46 24 77 31 32 7 65 21 75 32 18 20 18 21 -16 50 -19
17 -66 54 -105 84 -38 29 -85 69 -104 89 -19 19 -38 33 -43 30 -4 -3 -8 -1 -8
4 0 15 68 22 146 15 85 -7 166 10 196 41 44 46 51 64 39 95 -11 25 -16 27 -44
22 -34 -8 -110 3 -139 19 -10 6 -27 10 -37 10 -20 0 -105 28 -166 55 -86 37
-175 74 -219 90 -27 10 -91 52 -148 99 -85 69 -200 159 -299 235 -14 11 -42
28 -62 37 -20 10 -37 25 -37 33 0 13 -2 13 -9 2 -9 -14 -30 36 -100 235 -20
56 -40 102 -46 103 -19 4 -34 46 -35 93 -1 118 -120 395 -204 473 -6 6 -33 39
-61 75 -27 36 -58 74 -68 85 -10 11 -48 61 -84 110 -37 50 -102 127 -145 171
-44 45 -90 97 -102 115 -42 62 -147 84 -251 52z"/>
</g>
</svg>
