<?xml version="1.0" standalone="no"?>
<!DOCTYPE svg PUBLIC "-//W3C//DTD SVG 20010904//EN"
 "http://www.w3.org/TR/2001/REC-SVG-20010904/DTD/svg10.dtd">
<svg version="1.0" xmlns="http://www.w3.org/2000/svg"
 width="1200.000000pt" height="1600.000000pt" viewBox="0 0 1200.000000 1600.000000"
 preserveAspectRatio="xMidYMid meet">

<g transform="translate(0.000000,1600.000000) scale(0.100000,-0.100000)"
fill="#000000" stroke="none">
<path d="M4420 10140 c-9 -6 -10 -10 -3 -10 6 0 15 5 18 10 8 12 4 12 -15 0z"/>
<path d="M4522 10123 c-56 -20 -48 -27 12 -12 26 6 70 9 99 6 l52 -6 -34 14
c-41 18 -73 18 -129 -2z"/>
<path d="M7540 10129 c-31 -6 -29 -7 20 -8 78 -2 135 -30 154 -76 14 -33 17
-35 38 -24 31 17 48 -9 72 -104 12 -46 25 -77 32 -77 7 0 11 8 9 20 -7 34 10
22 66 -47 29 -38 56 -70 59 -73 16 -15 111 -133 146 -180 63 -86 80 -118 123
-236 22 -60 53 -140 69 -179 49 -117 112 -258 133 -298 23 -45 23 -51 4 -44
-8 4 -17 2 -20 -2 -2 -5 17 -18 44 -30 54 -23 103 -73 95 -96 -7 -18 -18 -19
-44 -5 -102 55 -251 -41 -319 -204 -17 -41 -31 -79 -31 -85 0 -20 -80 41 -86
66 -11 40 3 103 30 141 30 43 24 59 -8 20 -12 -16 -25 -28 -29 -28 -4 0 -31
38 -61 84 -68 105 -146 202 -384 474 -207 238 -204 233 -219 282 -6 19 -27 80
-47 135 -41 115 -41 116 -20 108 13 -5 14 -3 6 13 -6 10 -22 30 -36 43 -18 17
-26 35 -26 58 0 37 6 40 38 17 24 -17 36 -16 24 2 -14 21 -85 69 -80 54 3 -8
-1 -30 -9 -48 -13 -30 -12 -38 5 -71 11 -20 23 -57 27 -80 4 -24 25 -98 46
-165 22 -66 39 -126 39 -134 0 -7 42 -54 93 -105 214 -213 425 -456 511 -590
49 -77 55 -92 51 -125 -3 -20 -2 -57 2 -82 7 -39 17 -51 71 -95 54 -44 67 -61
97 -129 19 -43 47 -97 62 -120 27 -39 102 -116 114 -116 3 0 23 -24 43 -54 21
-30 61 -73 89 -95 29 -22 61 -52 72 -67 11 -14 35 -42 53 -61 17 -20 32 -44
32 -54 0 -10 6 -22 14 -26 19 -12 96 -137 96 -158 0 -33 59 -104 106 -128 18
-9 63 -51 102 -93 l70 -76 17 26 c37 57 -4 202 -78 279 -65 66 -80 41 -18 -29
53 -60 72 -105 77 -178 4 -52 3 -58 -8 -42 -32 48 -87 102 -135 133 -57 36
-98 83 -108 124 -5 21 0 31 26 53 19 16 40 26 51 23 11 -3 18 0 18 9 0 8 -5
14 -11 14 -5 0 -8 4 -5 9 3 5 -4 9 -17 9 -12 1 -35 2 -50 3 -15 1 -36 -6 -46
-15 -17 -15 -19 -14 -42 29 l-24 46 24 20 c17 14 36 19 64 17 36 -3 42 -7 53
-38 7 -19 13 -28 14 -20 0 8 17 -13 36 -47 20 -35 40 -63 46 -63 5 0 7 3 5 8
-3 4 -14 27 -25 52 -11 25 -34 74 -50 110 -17 36 -29 67 -26 69 6 7 44 -31 44
-45 0 -6 15 -21 33 -32 17 -10 62 -38 99 -60 37 -23 73 -40 80 -37 16 6 29 -4
44 -30 6 -11 29 -34 51 -51 42 -32 121 -49 205 -45 20 1 81 -12 135 -29 54
-18 105 -33 113 -34 8 -1 32 -10 52 -21 21 -10 40 -16 43 -13 8 8 -26 110 -60
178 -36 71 -108 146 -171 177 -130 65 -184 102 -184 127 0 20 14 20 45 0 13
-9 73 -22 132 -30 118 -15 207 -41 297 -86 32 -16 60 -27 63 -24 26 26 -34
134 -115 207 -60 54 -191 122 -276 144 -33 8 -66 21 -75 28 -17 15 -158 72
-178 72 -6 0 -22 10 -35 21 -37 33 -215 144 -231 144 -8 0 -21 7 -28 17 -25
30 -164 137 -236 182 l-70 44 -6 60 c-5 53 -10 64 -48 103 -24 24 -51 46 -60
49 -9 3 -25 32 -37 68 -11 34 -48 125 -82 202 -34 77 -84 192 -110 256 -26 64
-64 144 -84 178 -41 70 -203 290 -302 408 -35 43 -64 83 -64 90 0 20 -107 95
-148 104 -20 4 -57 14 -82 21 -27 8 -59 11 -80 7z m1013 -1498 c8 -8 -4 -11
-43 -11 -63 0 -148 -36 -197 -83 -18 -17 -33 -27 -33 -22 0 22 48 76 94 105
46 28 57 31 110 27 32 -3 63 -10 69 -16z m49 -58 c7 -10 60 -54 118 -98 58
-43 110 -84 116 -90 6 -6 34 -28 62 -50 47 -35 50 -40 33 -51 -15 -11 -27 -8
-78 16 -69 33 -171 54 -216 45 -76 -15 -128 -38 -152 -67 -14 -17 -28 -28 -31
-26 -23 24 95 105 169 114 31 5 45 10 38 17 -16 16 -110 -12 -186 -56 -38 -22
-72 -41 -74 -43 -10 -8 22 -68 56 -105 50 -53 156 -131 216 -157 26 -12 47
-25 47 -30 0 -11 -35 -47 -97 -98 -48 -40 -61 -38 -108 18 -15 18 -62 71 -105
118 -92 100 -123 143 -163 228 -22 48 -28 72 -24 99 7 41 62 111 122 154 92
66 229 99 257 62z m184 -275 c62 -20 68 -25 121 -97 31 -42 67 -88 80 -103 25
-27 24 -48 -3 -48 -8 0 -14 -4 -14 -10 0 -5 -6 -10 -12 -10 -7 0 -32 -20 -56
-45 -24 -25 -46 -45 -50 -45 -4 0 -17 10 -28 23 -12 12 -77 51 -145 86 -85 43
-139 79 -171 111 -27 26 -48 52 -48 58 0 19 72 82 103 91 58 17 153 12 223
-11z m224 12 c0 -5 -4 -10 -9 -10 -6 0 -13 5 -16 10 -3 6 1 10 9 10 9 0 16 -4
16 -10z m-30 -48 c0 -5 -7 -17 -15 -28 -12 -16 -16 -17 -24 -4 -7 9 -6 19 1
27 12 14 38 18 38 5z m116 -48 c102 -54 100 -50 57 -98 -21 -23 -43 -51 -50
-62 -10 -18 -14 -16 -61 29 -71 70 -78 86 -57 131 10 20 23 36 30 36 6 0 43
-16 81 -36z m90 -122 c-18 -26 -36 -55 -39 -64 -6 -16 -37 -26 -37 -12 0 3 21
35 47 70 53 72 80 78 29 6z m147 8 c102 -32 102 -33 75 -117 -17 -52 -27 -70
-36 -64 -10 6 -8 21 7 71 11 35 19 66 17 67 -6 7 -25 -24 -44 -72 -11 -28 -26
-49 -34 -48 -21 2 -79 24 -125 45 l-42 20 21 37 c52 94 59 101 79 91 10 -6 47
-19 82 -30z m212 -76 c98 -37 198 -106 246 -169 21 -28 39 -54 39 -57 0 -6
-110 32 -165 57 -16 7 -75 16 -129 19 -55 3 -104 10 -109 15 -9 9 8 132 20
154 7 12 24 8 98 -19z m-495 -4 c0 -5 -6 -10 -14 -10 -15 0 -96 -86 -96 -101
0 -18 -19 -8 -25 12 -9 27 26 65 80 90 47 21 55 22 55 9z m114 -69 c88 -41
151 -96 204 -175 49 -76 43 -81 -54 -42 -34 14 -91 26 -137 30 -89 7 -136 27
-186 80 -33 34 -33 36 -18 60 28 42 74 80 106 85 1 1 40 -16 85 -38z m-418
-13 c1 -24 -1 -37 -3 -30 -3 6 -13 12 -23 12 -17 0 -17 2 -4 30 21 41 29 38
30 -12z m55 19 c8 -7 24 -25 34 -40 12 -19 24 -27 36 -24 34 9 43 -19 19 -54
l-23 -31 -48 48 c-38 38 -48 56 -49 82 0 34 6 38 31 19z m-99 -82 c1 -10 -73
-27 -82 -18 -3 2 4 11 15 19 22 16 65 15 67 -1z m58 1 c0 -11 -19 -15 -25 -6
-3 5 1 10 9 10 9 0 16 -2 16 -4z m79 -103 c7 -25 10 -48 7 -50 -3 -3 -28 3
-56 12 -39 13 -57 14 -80 6 -28 -9 -31 -8 -55 33 -14 23 -25 45 -25 49 0 3 15
10 34 17 31 10 53 8 108 -7 14 -3 16 0 11 14 -5 15 -1 14 19 -5 15 -13 31 -44
37 -69z m91 43 c0 -15 -18 -31 -26 -23 -7 7 7 37 17 37 5 0 9 -6 9 -14z m141
-71 c23 -8 52 -15 65 -15 l23 0 -20 -35 c-12 -19 -24 -37 -28 -39 -6 -4 -112
55 -156 87 -17 13 -18 18 -7 42 l12 27 35 -26 c19 -15 53 -33 76 -41z m-337
-39 c-10 -8 -21 -12 -23 -10 -3 2 4 11 15 18 10 8 21 12 23 10 3 -2 -4 -11
-15 -18z m739 12 c12 -7 28 -13 35 -14 61 -10 179 -144 207 -233 7 -24 7 -24
-32 6 -21 17 -55 39 -75 49 -20 9 -39 25 -41 35 -3 12 -14 19 -30 19 -43 0
-169 50 -219 87 -27 19 -48 36 -48 38 0 8 89 -18 123 -35 52 -27 56 -26 50 20
-6 43 -3 46 30 28z m-292 -29 c-5 -13 -12 -33 -16 -43 -4 -13 -9 -16 -16 -9
-7 7 -3 22 12 47 23 40 36 43 20 5z m216 -115 c17 -11 51 -24 74 -28 39 -6
168 -73 169 -88 0 -7 -94 26 -132 47 -17 10 -54 15 -105 15 -46 0 -88 6 -103
13 -14 8 -42 24 -63 35 -47 27 -60 28 -27 2 14 -11 20 -20 14 -20 -6 0 -19 9
-29 20 -10 11 -14 20 -10 20 5 0 4 5 -2 11 -8 8 -8 19 -2 35 5 13 13 35 19 49
l10 26 77 -58 c43 -31 92 -67 110 -79z m-559 -13 c-24 -32 -38 -38 -38 -19 0
17 31 48 47 48 11 0 8 -8 -9 -29z"/>
<path d="M7726 10125 c4 -8 8 -15 10 -15 2 0 4 7 4 15 0 8 -4 15 -10 15 -5 0
-7 -7 -4 -15z"/>
<path d="M7475 10110 c-3 -6 1 -7 9 -4 18 7 21 14 7 14 -6 0 -13 -4 -16 -10z"/>
<path d="M4420 10092 c-40 -18 -100 -67 -106 -86 -4 -11 -30 -48 -59 -81 -59
-69 -159 -199 -231 -300 -49 -70 -66 -98 -103 -166 -26 -47 -246 -553 -265
-609 -8 -24 -23 -48 -33 -53 -10 -6 -37 -29 -59 -52 -31 -32 -43 -54 -48 -87
-4 -25 -4 -51 -1 -59 3 -9 -11 -22 -42 -39 -66 -35 -175 -120 -255 -198 -38
-37 -68 -62 -68 -56 0 5 6 16 13 23 10 11 9 12 -3 6 -57 -31 -180 -113 -206
-137 -17 -16 -38 -28 -45 -27 -8 2 -30 -4 -49 -13 -19 -8 -53 -21 -74 -28 -22
-7 -48 -21 -59 -30 -10 -10 -39 -21 -63 -25 -76 -11 -231 -96 -299 -163 -61
-61 -105 -132 -105 -171 0 -28 9 -27 79 8 87 44 166 68 266 81 110 14 165 28
165 40 0 15 27 12 33 -4 5 -12 -37 -60 -53 -61 -3 0 -44 -22 -92 -49 -109 -61
-175 -125 -215 -207 -35 -70 -60 -156 -49 -167 4 -4 25 3 46 16 21 12 45 22
53 22 8 0 57 13 108 30 65 21 113 29 154 29 33 -1 79 3 103 9 54 13 119 57
137 93 10 18 22 26 37 25 26 -1 217 113 218 130 0 15 35 46 43 38 17 -17 -96
-238 -144 -281 -47 -43 -82 -107 -97 -179 -12 -55 -10 -80 8 -115 12 -21 15
-19 79 49 36 40 88 87 116 104 53 36 104 100 105 134 0 12 7 27 15 34 23 19
85 117 85 135 0 9 13 28 28 43 16 15 39 42 52 60 12 18 45 51 73 73 28 22 64
60 81 84 17 24 62 71 99 105 57 52 76 79 117 164 28 55 50 106 50 112 0 6 21
25 46 43 91 66 96 74 93 160 -3 72 -1 80 27 122 17 24 47 69 67 99 51 76 274
329 427 485 105 107 130 138 140 174 6 24 25 85 41 135 17 50 35 113 40 140 5
27 16 58 25 68 13 13 15 26 9 55 -4 21 -8 50 -8 66 0 27 0 27 -21 10 -12 -10
-25 -24 -29 -30 -4 -7 -15 -13 -22 -13 -8 0 -15 -7 -15 -16 0 -13 5 -12 29 5
25 18 30 19 35 5 12 -31 5 -51 -31 -93 -27 -33 -33 -45 -23 -51 10 -6 3 -37
-35 -147 -55 -158 -46 -143 -219 -337 -10 -12 -57 -66 -105 -121 -47 -55 -92
-106 -99 -114 -42 -45 -176 -218 -222 -289 l-54 -83 -22 28 c-29 35 -31 12 -3
-26 15 -21 21 -44 21 -82 0 -48 -3 -55 -33 -81 -19 -15 -37 -28 -41 -28 -4 0
-14 15 -22 33 -8 17 -25 57 -39 88 -26 60 -97 138 -149 165 -36 19 -115 22
-146 5 -28 -15 -42 -14 -48 4 -7 17 40 85 58 85 19 0 88 33 88 42 0 5 -12 5
-26 2 l-25 -7 39 79 c48 95 136 301 187 439 21 55 40 102 44 105 4 3 22 30 41
60 32 50 123 172 254 340 43 55 51 61 54 42 4 -26 19 -29 26 -4 38 133 48 161
62 166 22 8 24 8 24 -8 0 -8 8 -13 18 -12 23 1 53 38 41 51 -15 15 -10 28 7
21 14 -5 15 -4 4 9 -13 16 -26 18 -50 7z m-663 -1461 c38 -18 113 -85 113
-103 0 -13 -33 5 -56 29 -29 31 -83 52 -154 60 -61 6 -78 18 -37 26 50 10 94
6 134 -12z m-19 -81 c80 -37 166 -118 188 -177 l17 -44 -48 -96 c-33 -64 -68
-115 -107 -157 -33 -33 -89 -96 -125 -138 -35 -43 -69 -78 -75 -78 -6 0 -28
15 -49 33 -21 17 -52 42 -68 55 -17 13 -31 30 -31 38 0 7 24 26 53 40 108 55
218 148 250 213 16 33 16 34 -10 55 -38 30 -122 72 -158 80 -66 14 -84 16 -89
8 -2 -4 7 -9 21 -10 78 -6 193 -72 193 -110 -1 -16 -1 -15 -11 1 -19 32 -87
67 -147 75 -75 10 -182 -7 -247 -41 -42 -21 -53 -23 -68 -12 -15 11 -10 17 46
61 34 26 64 51 67 54 7 8 147 110 183 133 15 10 27 24 27 31 0 8 6 17 13 20
25 11 114 -6 175 -34z m-153 -241 c37 -11 115 -75 115 -96 0 -26 -106 -104
-220 -162 -69 -35 -140 -77 -157 -94 -18 -17 -33 -27 -33 -21 0 17 -85 97
-118 111 l-34 14 34 42 c19 23 55 72 81 108 44 62 50 67 109 83 35 10 68 20
73 21 24 8 114 4 150 -6z m-377 -52 c7 -8 7 -18 1 -27 -8 -13 -10 -13 -19 0
-21 32 -5 55 18 27z m-38 -42 l22 -35 -35 -48 c-19 -26 -49 -57 -65 -69 l-30
-22 -23 31 c-13 18 -34 41 -46 52 -13 11 -23 23 -23 27 0 10 150 99 167 99 6
0 21 -16 33 -35z m-130 -197 c0 -18 -29 -6 -36 15 -3 12 -19 40 -35 61 -16 21
-26 43 -23 48 6 9 94 -108 94 -124z m-74 52 c18 -30 33 -58 34 -62 0 -11 -71
-48 -94 -48 -12 0 -26 -4 -31 -9 -19 -17 -55 -23 -55 -9 0 22 -48 118 -59 118
-7 0 -7 -9 0 -27 7 -16 17 -47 25 -70 12 -40 12 -43 -5 -43 -13 0 -22 16 -36
63 -10 34 -19 66 -19 72 -1 12 162 75 188 72 12 -1 33 -24 52 -57z m-251 -42
c13 -52 21 -128 16 -137 -4 -5 -54 -13 -111 -17 -58 -4 -109 -10 -115 -14 -5
-4 -19 -9 -30 -12 -11 -3 -50 -17 -87 -31 -38 -14 -68 -22 -68 -17 0 5 33 42
73 83 72 74 149 121 252 153 56 18 64 17 70 -8z m453 -22 c15 -8 40 -28 56
-45 24 -25 27 -33 16 -46 -18 -21 -22 -19 -48 23 -13 20 -37 47 -55 60 -23 16
-27 22 -14 22 10 0 30 -6 45 -14z m-47 -39 c18 -12 44 -38 56 -56 l23 -34 -23
-22 c-63 -62 -106 -83 -185 -90 -42 -4 -109 -18 -148 -31 -95 -32 -98 -32 -73
18 36 71 137 163 220 202 41 19 79 35 85 35 6 1 26 -9 45 -22z m318 -13 c24
-40 22 -54 -3 -29 -14 14 -16 14 -16 1 0 -8 -4 -17 -9 -20 -7 -5 -8 49 -2 82
2 8 12 -3 30 -34z m-53 -23 c-4 -28 -18 -52 -47 -81 -22 -22 -45 -40 -50 -38
-6 2 -19 18 -31 36 l-20 32 30 6 c16 3 47 24 68 45 21 21 42 39 47 39 5 0 7
-17 3 -39z m44 -51 c0 -5 -8 -10 -17 -10 -15 0 -16 2 -3 10 19 12 20 12 20 0z
m95 -10 c10 -11 16 -22 14 -23 -9 -7 -74 19 -76 31 -5 20 42 14 62 -8z m-39
-31 c24 -6 44 -15 44 -20 0 -5 -4 -9 -10 -9 -5 0 -10 -6 -10 -14 0 -7 -9 -25
-20 -39 -18 -22 -24 -24 -52 -15 -25 7 -44 6 -78 -6 -24 -8 -45 -14 -46 -13
-1 1 5 23 12 49 13 41 19 48 57 61 53 19 50 19 103 6z m-238 -21 c16 -16 15
-28 -3 -28 -8 0 -15 2 -15 4 0 2 -3 11 -6 20 -7 19 7 21 24 4z m-39 -35 c15
-32 9 -38 -81 -84 -31 -16 -59 -33 -63 -39 -3 -5 -10 -10 -15 -10 -9 0 -53 70
-47 76 2 2 20 6 41 9 37 4 119 45 131 65 10 17 21 11 34 -17z m-495 -90 c-6
-43 -5 -46 12 -38 103 43 174 63 174 48 -1 -15 -85 -71 -140 -92 -30 -12 -81
-24 -114 -28 -45 -5 -60 -10 -63 -24 -3 -10 -14 -21 -24 -24 -10 -4 -42 -24
-70 -47 -28 -22 -53 -37 -56 -35 -3 3 10 33 28 67 40 76 131 167 179 180 20 5
44 16 55 24 27 21 27 22 19 -31z m717 27 c14 -8 16 -15 10 -28 -34 -68 -55
-108 -58 -111 -1 -2 -12 4 -23 14 -15 13 -30 16 -60 12 -22 -3 -40 -3 -40 -1
0 3 12 27 26 55 25 51 26 51 67 47 23 -3 51 -8 62 -13 20 -8 20 -8 1 13 -21
24 -16 28 15 12z m-421 -67 c0 -23 -18 -22 -24 1 -3 13 -9 32 -12 43 -4 13 0
11 15 -7 11 -14 21 -30 21 -37z m-30 -39 c0 -6 -33 -29 -73 -52 -66 -38 -80
-42 -147 -44 -56 -1 -94 -9 -148 -30 -40 -16 -78 -28 -84 -26 -18 6 120 78
166 87 56 11 96 28 96 41 0 5 3 9 8 8 7 -2 79 46 126 84 20 16 22 16 38 -20
10 -20 18 -42 18 -48z m361 -43 c13 -11 21 -22 17 -26 -4 -4 -21 4 -38 19 -36
30 -15 37 21 7z m-37 -22 c40 -31 35 -70 -16 -125 -23 -25 -53 -52 -67 -59
-35 -18 -94 -74 -116 -107 -27 -43 -39 -35 -31 20 8 61 59 164 96 196 17 13
30 27 30 31 0 16 46 65 61 65 9 0 28 -9 43 -21z"/>
<path d="M7390 9646 c0 -2 7 -7 16 -10 8 -3 12 -2 9 4 -6 10 -25 14 -25 6z"/>
</g>
</svg>
