<?xml version="1.0" standalone="no"?>
<!DOCTYPE svg PUBLIC "-//W3C//DTD SVG 20010904//EN"
 "http://www.w3.org/TR/2001/REC-SVG-20010904/DTD/svg10.dtd">
<svg version="1.0" xmlns="http://www.w3.org/2000/svg"
 width="1200.000000pt" height="1600.000000pt" viewBox="0 0 1200.000000 1600.000000"
 preserveAspectRatio="xMidYMid meet">

<g transform="translate(0.000000,1600.000000) scale(0.100000,-0.100000)"
fill="#000000" stroke="none">
<path d="M4485 10127 c-22 -12 -48 -37 -57 -56 -20 -41 -38 -61 -38 -43 0 18
-17 14 -45 -10 -17 -15 -25 -32 -25 -53 0 -39 -18 -95 -31 -95 -5 0 -9 8 -9
17 0 9 -20 -9 -45 -43 -25 -32 -58 -72 -74 -89 -42 -45 -66 -85 -51 -85 10 0
10 -3 0 -15 -7 -9 -15 -13 -18 -10 -5 4 -17 -10 -67 -80 -11 -15 -28 -35 -37
-44 -10 -8 -18 -20 -18 -27 0 -6 -8 -18 -19 -28 -18 -16 -42 -62 -77 -144 -15
-37 -16 -45 -3 -53 11 -7 11 -9 -3 -9 -21 0 -24 -16 -5 -23 8 -4 7 -6 -3 -6
-8 -1 -23 -18 -32 -39 -9 -20 -28 -62 -41 -92 -14 -30 -40 -91 -57 -135 -18
-44 -41 -91 -51 -104 -21 -26 -25 -51 -9 -51 22 0 8 -19 -19 -25 -30 -6 -70
-44 -91 -83 -10 -20 -9 -27 9 -46 24 -25 27 -46 9 -46 -7 0 -32 -20 -54 -43
-23 -24 -75 -65 -115 -92 -41 -28 -96 -70 -124 -96 -27 -25 -74 -60 -102 -78
-29 -18 -53 -36 -53 -41 0 -4 -25 -24 -56 -44 -39 -27 -74 -40 -117 -47 -56
-9 -133 -40 -212 -88 -16 -10 -35 -16 -42 -14 -6 3 -50 -9 -98 -26 -107 -37
-206 -108 -260 -186 -34 -49 -36 -58 -23 -71 15 -15 32 -10 148 44 19 9 74 19
122 23 48 3 94 12 102 18 11 9 16 9 22 0 5 -9 10 -8 18 2 23 30 78 62 85 50 6
-9 15 -9 35 -1 65 24 62 10 -13 -68 -65 -67 -86 -83 -147 -106 -86 -32 -148
-71 -165 -103 -7 -13 -28 -35 -46 -49 -64 -49 -82 -123 -39 -163 31 -29 74
-22 127 21 41 33 139 59 229 62 66 1 153 47 194 101 21 27 34 35 59 35 37 0
141 47 194 87 30 23 36 24 30 9 -4 -10 -12 -39 -19 -65 -19 -80 -53 -144 -116
-218 -33 -39 -66 -88 -72 -109 -18 -52 -15 -123 4 -142 13 -14 17 -12 33 18
23 42 63 81 134 130 71 49 118 114 190 261 79 159 127 233 143 220 10 -8 27 4
70 52 64 70 162 178 189 207 9 11 17 24 17 30 0 5 6 13 13 17 23 14 53 67 77
135 20 58 22 69 9 85 -13 17 -13 17 6 1 19 -16 22 -15 66 17 51 37 66 75 54
139 -6 30 -1 43 37 97 23 34 51 76 62 93 24 41 138 186 174 222 27 28 245 277
326 373 57 68 163 320 138 329 -12 4 0 45 20 69 15 19 10 189 -8 242 -18 53
-101 148 -156 179 -55 30 -129 30 -183 -1z m-551 -1713 c3 -8 2 -12 -4 -9 -6
3 -10 10 -10 16 0 14 7 11 14 -7z"/>
<path d="M7431 10112 c-22 -11 -38 -28 -44 -47 -5 -16 -18 -39 -28 -50 -51
-57 -74 -260 -36 -319 10 -15 16 -34 13 -42 -3 -7 11 -58 30 -111 20 -54 41
-114 47 -133 6 -19 14 -37 17 -40 3 -3 41 -48 85 -100 44 -52 91 -106 104
-120 13 -14 44 -50 69 -80 26 -30 73 -84 107 -120 69 -75 119 -140 200 -261
32 -46 67 -94 78 -106 18 -20 19 -27 9 -60 -19 -61 -4 -101 52 -140 36 -26 51
-32 61 -23 11 9 12 7 8 -10 -8 -29 40 -148 75 -187 15 -17 36 -43 47 -59 11
-15 34 -42 50 -59 17 -17 60 -65 97 -106 36 -42 80 -83 97 -91 38 -18 71 -68
150 -229 64 -132 151 -244 214 -274 46 -22 71 -45 101 -93 28 -45 35 -49 54
-30 16 16 15 64 -2 121 -16 53 -100 165 -123 163 -15 -1 -41 65 -73 182 -6 24
-14 51 -17 59 -5 12 4 9 28 -9 51 -39 160 -88 196 -88 25 0 38 -8 59 -35 40
-52 139 -105 194 -103 77 2 188 -27 229 -60 21 -17 54 -33 73 -37 30 -6 38 -3
57 20 42 54 29 89 -73 191 -74 75 -97 90 -193 125 -46 18 -73 38 -134 101 -63
65 -72 78 -53 78 13 0 34 -4 48 -10 16 -6 27 -6 31 0 4 6 27 -4 53 -22 26 -18
49 -33 52 -34 30 -5 125 -15 160 -17 25 -2 61 -11 80 -20 19 -9 49 -21 65 -26
17 -5 38 -12 48 -16 12 -5 17 -2 17 9 0 9 7 16 15 16 13 0 14 4 4 23 -19 38
-121 131 -179 163 -66 37 -185 78 -205 70 -8 -3 -28 6 -44 19 -16 14 -33 25
-38 25 -4 0 -28 11 -53 24 -25 13 -76 29 -114 34 -73 12 -112 34 -205 114 -24
21 -48 38 -53 38 -5 0 -37 27 -72 59 -35 33 -106 91 -158 129 -51 38 -100 77
-107 86 -7 9 -20 16 -27 16 -19 0 -18 7 6 37 11 14 20 31 20 37 0 19 -78 95
-104 102 -29 7 -35 24 -10 24 15 0 15 2 0 23 -9 12 -19 29 -22 37 -3 8 -14 34
-25 56 -10 23 -21 55 -25 70 -4 16 -26 70 -49 119 -42 91 -107 258 -118 306
-8 32 -145 215 -158 211 -6 -1 -8 2 -5 7 6 9 -12 32 -129 170 -55 66 -71 79
-76 65 -5 -16 -8 -15 -23 7 -9 15 -18 46 -21 70 -3 37 -11 51 -47 83 -24 21
-63 52 -87 67 -41 27 -52 29 -140 29 -72 0 -105 -4 -130 -18z m810 -1699 c7
-10 9 -15 5 -11 -5 4 -15 3 -22 -3 -9 -8 -11 -5 -7 10 6 25 7 25 24 4z"/>
</g>
</svg>
