<svg width="2400" height="3200" xmlns="http://www.w3.org/2000/svg" viewBox="0 0 2400 3200"><path d="M 1225.0 1582.0 C 1224.45 1582.0 1224.0 1581.6 1224.0 1581.12 C 1224.0 1580.63 1223.1 1580.0 1222.0 1579.71 C 1220.69 1579.37 1220.0 1578.35 1220.0 1576.75 C 1220.0 1575.41 1219.1 1573.5 1218.0 1572.5 C 1216.9 1571.5 1216.0 1570.18 1216.0 1569.56 C 1216.0 1568.93 1213.75 1566.21 1211.0 1563.5 C 1208.25 1560.79 1206.0 1558.07 1206.0 1557.44 C 1206.0 1556.82 1205.1 1555.5 1204.0 1554.5 C 1202.9 1553.5 1202.0 1552.16 1202.0 1551.52 C 1202.0 1550.88 1200.85 1549.27 1199.44 1547.95 C 1198.03 1546.62 1195.58 1542.81 1193.98 1539.46 C 1192.39 1536.12 1190.14 1532.54 1189.0 1531.5 C 1187.86 1530.46 1185.61 1526.86 1184.0 1523.5 C 1182.39 1520.14 1180.14 1516.53 1178.99 1515.49 C 1177.85 1514.46 1176.18 1512.01 1175.29 1510.05 C 1174.41 1508.1 1172.31 1505.04 1170.64 1503.25 C 1168.97 1501.46 1167.12 1500.0 1166.52 1500.0 C 1165.92 1500.0 1163.3 1497.85 1160.71 1495.22 C 1158.12 1492.58 1156.0 1489.98 1156.0 1489.42 C 1156.0 1488.87 1154.09 1486.59 1151.75 1484.35 C 1149.41 1482.11 1146.71 1480.01 1145.75 1479.67 C 1144.79 1479.34 1144.0 1478.44 1144.0 1477.69 C 1144.0 1476.93 1143.1 1475.5 1142.0 1474.5 C 1140.9 1473.5 1140.0 1472.16 1140.0 1471.52 C 1140.0 1470.88 1138.86 1469.28 1137.47 1467.97 C 1136.07 1466.66 1133.14 1461.91 1130.95 1457.41 C 1128.77 1452.91 1126.31 1448.67 1125.49 1447.99 C 1124.67 1447.31 1124.0 1445.75 1124.0 1444.53 C 1124.0 1443.31 1123.1 1441.5 1122.0 1440.5 C 1120.9 1439.5 1120.0 1437.69 1120.0 1436.47 C 1120.0 1435.25 1119.33 1433.69 1118.52 1433.02 C 1117.71 1432.34 1116.36 1430.42 1115.52 1428.74 C 1114.68 1427.06 1114.0 1424.44 1114.0 1422.91 C 1114.0 1421.37 1113.55 1419.84 1113.0 1419.5 C 1112.45 1419.16 1112.0 1417.39 1112.0 1415.56 C 1112.0 1413.74 1111.33 1411.69 1110.52 1411.02 C 1109.71 1410.34 1108.36 1408.42 1107.52 1406.74 C 1106.68 1405.06 1106.0 1402.04 1106.0 1400.02 C 1106.0 1397.4 1105.29 1395.68 1103.5 1394.0 L 1101.0 1391.65 C 1096.11 1396.25 1096.0 1396.86 1096.0 1408.12 C 1096.0 1414.88 1096.43 1420.14 1097.0 1420.5 C 1097.55 1420.84 1098.0 1422.19 1098.0 1423.5 C 1098.0 1424.81 1098.45 1426.16 1099.0 1426.5 C 1099.55 1426.84 1100.0 1429.54 1100.0 1432.5 C 1100.0 1435.46 1100.45 1438.16 1101.0 1438.5 C 1101.55 1438.84 1102.0 1440.19 1102.0 1441.5 C 1102.0 1442.81 1102.45 1444.16 1103.0 1444.5 C 1103.55 1444.84 1104.0 1446.63 1104.0 1448.48 C 1104.0 1450.32 1104.56 1452.04 1105.25 1452.3 C 1106.17 1452.64 1106.04 1453.25 1104.76 1454.58 C 1103.08 1456.35 1102.97 1456.35 1101.54 1454.45 C 1100.73 1453.38 1100.05 1451.51 1100.03 1450.31 C 1100.01 1449.1 1099.55 1447.84 1099.0 1447.5 C 1098.45 1447.16 1098.0 1445.85 1098.0 1444.6 C 1098.0 1443.34 1097.1 1441.5 1096.0 1440.5 C 1094.9 1439.5 1094.0 1437.66 1094.0 1436.4 C 1094.0 1435.15 1093.55 1433.84 1093.0 1433.5 C 1092.45 1433.16 1092.0 1432.02 1092.0 1430.97 C 1092.0 1429.92 1091.1 1427.46 1090.0 1425.5 C 1088.9 1423.54 1088.0 1420.63 1088.0 1419.03 C 1088.0 1417.43 1087.55 1415.84 1087.0 1415.5 C 1086.45 1415.16 1086.0 1413.81 1086.0 1412.5 C 1086.0 1411.19 1085.55 1409.84 1085.0 1409.5 C 1084.45 1409.16 1084.0 1408.02 1084.0 1406.97 C 1084.0 1405.92 1083.1 1403.46 1082.0 1401.5 C 1080.9 1399.54 1080.0 1397.08 1080.0 1396.03 C 1080.0 1394.98 1079.55 1393.84 1079.0 1393.5 C 1078.45 1393.16 1078.0 1391.36 1078.0 1389.5 C 1078.0 1387.64 1077.55 1385.84 1077.0 1385.5 C 1076.45 1385.16 1076.0 1384.05 1076.0 1383.04 C 1076.0 1382.03 1074.65 1378.64 1073.0 1375.5 C 1071.35 1372.36 1070.0 1368.97 1070.0 1367.96 C 1070.0 1366.95 1069.55 1365.84 1069.0 1365.5 C 1068.45 1365.16 1068.0 1362.91 1068.0 1360.5 C 1068.0 1358.09 1067.55 1355.84 1067.0 1355.5 C 1066.45 1355.16 1066.0 1354.02 1066.0 1352.97 C 1066.0 1351.92 1065.1 1349.46 1064.0 1347.5 C 1062.9 1345.54 1062.0 1343.08 1062.0 1342.03 C 1062.0 1340.98 1061.55 1339.84 1061.0 1339.5 C 1060.45 1339.16 1060.0 1337.81 1060.0 1336.5 C 1060.0 1335.19 1059.55 1333.84 1059.0 1333.5 C 1058.45 1333.16 1058.0 1332.02 1058.0 1330.97 C 1058.0 1329.92 1057.1 1327.46 1056.0 1325.5 C 1054.9 1323.54 1054.0 1321.29 1054.0 1320.5 C 1054.0 1319.71 1053.1 1317.46 1052.0 1315.5 C 1050.9 1313.54 1050.0 1311.32 1050.0 1310.57 C 1050.0 1309.82 1048.65 1306.64 1047.0 1303.5 C 1045.35 1300.36 1044.0 1297.18 1044.0 1296.43 C 1044.0 1295.68 1043.1 1293.46 1042.0 1291.5 C 1040.9 1289.54 1040.0 1287.35 1040.0 1286.62 C 1040.0 1285.9 1039.32 1283.94 1038.48 1282.26 C 1037.64 1280.58 1036.29 1278.66 1035.48 1277.98 C 1034.67 1277.31 1034.0 1275.75 1034.0 1274.53 C 1034.0 1273.31 1033.1 1271.5 1032.0 1270.5 C 1030.9 1269.5 1030.0 1267.72 1030.0 1266.53 C 1030.0 1265.35 1028.65 1263.08 1027.0 1261.5 C 1025.35 1259.92 1024.0 1257.86 1024.0 1256.91 C 1024.0 1255.97 1022.65 1252.64 1021.0 1249.5 C 1019.35 1246.36 1018.0 1242.52 1018.0 1240.96 C 1018.0 1239.4 1017.55 1237.84 1017.0 1237.5 C 1016.45 1237.16 1016.0 1235.85 1016.0 1234.6 C 1016.0 1233.34 1015.1 1231.5 1014.0 1230.5 C 1012.9 1229.5 1012.0 1227.93 1012.0 1227.0 C 1012.0 1226.07 1011.33 1223.96 1010.51 1222.32 C 1009.69 1220.67 1008.11 1218.5 1007.0 1217.5 C 1005.04 1215.72 1004.91 1215.74 1002.49 1218.01 C 1000.11 1220.24 1000.0 1220.87 1000.0 1232.12 C 1000.0 1238.88 1000.43 1244.14 1001.0 1244.5 C 1001.55 1244.84 1002.0 1248.89 1002.0 1253.5 C 1002.0 1258.11 1002.45 1262.16 1003.0 1262.5 C 1003.55 1262.84 1004.0 1265.09 1004.0 1267.5 C 1004.0 1269.91 1004.45 1272.16 1005.0 1272.5 C 1005.55 1272.84 1006.0 1275.09 1006.0 1277.5 C 1006.0 1279.91 1006.45 1282.16 1007.0 1282.5 C 1007.55 1282.84 1008.0 1284.67 1008.0 1286.56 C 1008.0 1288.45 1008.37 1290.0 1008.83 1290.0 C 1009.29 1290.0 1010.3 1291.24 1011.08 1292.75 C 1011.86 1294.26 1012.93 1295.81 1013.47 1296.2 C 1014.0 1296.58 1014.14 1297.19 1013.77 1297.56 C 1013.4 1297.93 1011.97 1296.94 1010.58 1295.37 C 1009.2 1293.79 1008.05 1291.94 1008.03 1291.25 C 1008.01 1290.56 1007.6 1290.0 1007.12 1290.0 C 1006.63 1290.0 1004.59 1286.66 1002.57 1282.59 C 1000.56 1278.51 998.26 1274.63 997.46 1273.96 C 996.66 1273.3 996.0 1272.2 996.0 1271.53 C 996.0 1270.86 995.1 1269.5 994.0 1268.5 C 992.9 1267.5 992.0 1266.14 992.0 1265.47 C 992.0 1264.8 991.3 1263.67 990.45 1262.96 C 989.6 1262.25 988.06 1259.83 987.03 1257.59 C 986.0 1255.34 983.54 1251.95 981.58 1250.05 C 979.61 1248.16 978.0 1246.09 978.0 1245.46 C 978.0 1244.83 977.1 1243.5 976.0 1242.5 C 974.9 1241.5 974.0 1240.15 974.0 1239.5 C 974.0 1238.85 973.1 1237.5 972.0 1236.5 C 970.9 1235.5 970.0 1234.14 970.0 1233.47 C 970.0 1232.8 969.34 1231.69 968.52 1231.02 C 967.71 1230.34 965.83 1227.25 964.35 1224.15 C 962.87 1221.04 961.01 1217.73 960.22 1216.8 C 959.42 1215.86 957.7 1212.97 956.39 1210.38 C 955.07 1207.78 954.0 1204.89 954.0 1203.95 C 954.0 1203.01 953.34 1201.69 952.52 1201.02 C 951.71 1200.34 949.83 1197.25 948.35 1194.15 C 946.87 1191.04 945.01 1187.73 944.22 1186.8 C 943.42 1185.86 941.7 1182.97 940.39 1180.38 C 939.07 1177.78 938.0 1174.86 938.0 1173.89 C 938.0 1172.92 937.55 1171.84 937.0 1171.5 C 936.45 1171.16 936.0 1170.02 936.0 1168.97 C 936.0 1167.92 935.1 1165.46 934.0 1163.5 C 932.9 1161.54 932.0 1158.63 932.0 1157.03 C 932.0 1155.43 931.55 1153.84 931.0 1153.5 C 930.45 1153.16 930.0 1151.81 930.0 1150.5 C 930.0 1149.19 929.55 1147.84 929.0 1147.5 C 928.45 1147.16 928.0 1145.81 928.0 1144.5 C 928.0 1143.19 927.55 1141.84 927.0 1141.5 C 926.45 1141.16 926.0 1139.36 926.0 1137.5 C 926.0 1135.64 925.55 1133.84 925.0 1133.5 C 924.45 1133.16 924.0 1131.4 924.0 1129.6 C 924.0 1127.58 923.23 1125.61 922.0 1124.5 C 920.59 1123.23 920.0 1121.42 920.0 1118.4 C 920.0 1116.05 919.55 1113.84 919.0 1113.5 C 918.45 1113.16 918.0 1109.56 918.0 1105.5 C 918.0 1101.44 917.55 1097.84 917.0 1097.5 C 916.45 1097.16 916.0 1094.46 916.0 1091.5 C 916.0 1088.54 915.55 1085.84 915.0 1085.5 C 914.45 1085.16 914.0 1080.68 914.0 1075.5 C 914.0 1070.32 913.55 1065.84 913.0 1065.5 C 912.42 1065.14 912.0 1059.68 912.0 1052.5 C 912.0 1045.32 911.58 1039.86 911.0 1039.5 C 910.45 1039.16 910.0 1034.89 910.0 1030.0 C 910.0 1025.11 910.45 1020.84 911.0 1020.5 C 911.56 1020.15 912.0 1015.34 912.0 1009.5 C 912.0 1003.66 912.44 998.85 913.0 998.5 C 913.55 998.16 914.0 995.21 914.0 991.94 C 914.0 987.17 913.69 986.0 912.41 986.0 C 911.53 986.0 910.58 985.1 910.29 984.0 C 910.0 982.9 909.45 982.0 909.06 982.0 C 908.67 982.0 907.37 983.04 906.17 984.31 C 904.67 985.92 904.0 987.89 904.0 990.76 C 904.0 993.03 903.55 995.16 903.0 995.5 C 902.45 995.84 902.0 998.09 902.0 1000.5 C 902.0 1002.91 901.55 1005.16 901.0 1005.5 C 900.45 1005.84 900.0 1008.54 900.0 1011.5 C 900.0 1014.46 899.55 1017.16 899.0 1017.5 C 898.45 1017.84 898.0 1021.89 898.0 1026.5 C 898.0 1031.11 897.55 1035.16 897.0 1035.5 C 896.45 1035.84 896.0 1037.41 896.0 1039.0 C 896.0 1040.59 896.45 1042.16 897.0 1042.5 C 897.55 1042.84 898.0 1045.57 898.0 1048.56 C 898.0 1051.55 897.71 1054.0 897.36 1054.0 C 897.01 1054.0 896.12 1053.21 895.39 1052.25 C 894.58 1051.18 894.05 1047.7 894.03 1043.31 C 894.01 1039.35 893.55 1035.84 893.0 1035.5 C 892.36 1035.11 892.0 1022.18 892.0 1000.0 C 892.0 977.82 892.36 964.89 893.0 964.5 C 893.55 964.16 894.0 959.68 894.0 954.5 C 894.0 949.32 894.45 944.84 895.0 944.5 C 895.55 944.16 896.0 941.91 896.0 939.5 C 896.0 937.09 896.45 934.84 897.0 934.5 C 897.55 934.16 898.0 931.01 898.0 927.5 C 898.0 923.99 898.45 920.84 899.0 920.5 C 899.55 920.16 900.0 918.36 900.0 916.5 C 900.0 914.64 900.45 912.84 901.0 912.5 C 901.55 912.16 902.0 909.91 902.0 907.5 C 902.0 905.09 902.45 902.84 903.0 902.5 C 903.55 902.16 904.0 900.36 904.0 898.5 C 904.0 896.64 904.45 894.84 905.0 894.5 C 905.55 894.16 906.0 892.81 906.0 891.5 C 906.0 890.19 906.45 888.84 907.0 888.5 C 907.55 888.16 908.0 886.81 908.0 885.5 C 908.0 884.19 908.45 882.84 909.0 882.5 C 909.55 882.16 910.0 879.46 910.0 876.5 C 910.0 873.54 910.45 870.84 911.0 870.5 C 911.55 870.16 912.0 868.81 912.0 867.5 C 912.0 866.19 912.45 864.84 913.0 864.5 C 913.55 864.16 914.0 862.81 914.0 861.5 C 914.0 860.19 914.45 858.84 915.0 858.5 C 915.55 858.16 916.0 857.05 916.0 856.04 C 916.0 855.03 917.35 851.64 919.0 848.5 C 920.65 845.36 922.0 841.97 922.0 840.96 C 922.0 839.95 922.45 838.84 923.0 838.5 C 923.55 838.16 924.0 836.36 924.0 834.5 C 924.0 832.64 924.45 830.84 925.0 830.5 C 925.55 830.16 926.0 828.81 926.0 827.5 C 926.0 826.19 926.45 824.84 927.0 824.5 C 927.55 824.16 928.0 822.81 928.0 821.5 C 928.0 820.19 928.45 818.84 929.0 818.5 C 929.55 818.16 930.0 817.07 930.0 816.08 C 930.0 815.09 931.8 810.78 934.0 806.5 C 936.2 802.22 938.0 797.91 938.0 796.92 C 938.0 795.93 938.45 794.84 939.0 794.5 C 939.55 794.16 940.0 792.81 940.0 791.5 C 940.0 790.19 940.45 788.84 941.0 788.5 C 941.55 788.16 942.0 787.05 942.0 786.04 C 942.0 785.03 943.35 781.64 945.0 778.5 C 946.65 775.36 948.0 771.97 948.0 770.96 C 948.0 769.95 948.45 768.84 949.0 768.5 C 949.55 768.16 950.0 767.05 950.0 766.04 C 950.0 765.03 951.35 761.64 953.0 758.5 C 954.65 755.36 956.0 751.77 956.0 750.52 C 956.0 749.07 955.26 748.04 954.0 747.71 C 952.9 747.42 952.0 746.47 952.0 745.59 C 952.0 744.72 951.63 744.0 951.17 744.0 C 950.72 744.0 949.37 745.04 948.17 746.31 C 946.98 747.59 946.0 749.11 946.0 749.69 C 946.0 750.28 945.32 751.32 944.48 752.02 C 943.65 752.71 942.22 754.9 941.31 756.89 C 940.41 758.87 939.02 761.26 938.24 762.19 C 937.45 763.11 933.92 769.62 930.4 776.65 C 926.88 783.69 924.0 790.17 924.0 791.06 C 924.0 791.96 923.1 793.5 922.0 794.5 C 920.9 795.5 920.0 797.14 920.0 798.15 C 920.0 799.17 919.55 800.0 919.0 800.0 C 918.45 800.0 918.0 798.66 918.0 797.03 C 918.0 795.4 918.9 792.46 920.0 790.5 C 921.1 788.54 922.0 785.63 922.0 784.03 C 922.0 782.43 922.45 780.84 923.0 780.5 C 923.55 780.16 924.0 778.81 924.0 777.5 C 924.0 776.19 924.45 774.84 925.0 774.5 C 925.55 774.16 926.0 772.81 926.0 771.5 C 926.0 770.19 926.45 768.84 927.0 768.5 C 927.55 768.16 928.0 767.02 928.0 765.97 C 928.0 764.92 928.9 762.46 930.0 760.5 C 931.1 758.54 932.0 755.9 932.0 754.63 C 932.0 753.36 934.25 747.9 937.0 742.5 C 939.75 737.1 942.0 731.92 942.0 730.99 C 942.0 730.07 942.9 728.5 944.0 727.5 C 945.1 726.5 946.0 724.95 946.0 724.04 C 946.0 723.13 947.15 720.09 948.55 717.28 C 949.95 714.47 951.75 711.62 952.55 710.96 C 953.35 710.3 954.0 708.75 954.0 707.53 C 954.0 706.31 954.9 704.5 956.0 703.5 C 957.1 702.5 958.0 700.69 958.0 699.47 C 958.0 698.25 958.67 696.69 959.48 696.02 C 960.29 695.34 961.64 693.42 962.48 691.74 C 963.32 690.06 964.0 687.92 964.0 686.97 C 964.0 686.02 964.7 684.67 965.55 683.96 C 966.4 683.25 967.94 680.82 968.97 678.56 C 970.0 676.3 971.81 673.57 973.0 672.5 C 974.19 671.43 975.98 668.74 976.99 666.52 C 978.0 664.31 979.99 661.41 981.41 660.08 C 982.84 658.74 984.0 657.09 984.0 656.41 C 984.0 655.73 985.8 653.74 988.0 652.0 C 990.21 650.25 991.75 648.41 991.44 647.9 C 991.12 647.39 992.47 645.1 994.43 642.81 C 996.39 640.52 998.0 638.06 998.0 637.35 C 998.0 636.64 1003.68 630.2 1010.62 623.03 C 1017.57 615.86 1023.77 610.0 1024.42 610.0 C 1025.07 610.0 1027.19 608.31 1029.15 606.25 C 1031.1 604.19 1035.56 598.67 1039.04 594.0 C 1042.53 589.33 1052.61 578.25 1061.44 569.38 C 1070.27 560.51 1080.88 550.38 1085.0 546.85 C 1089.12 543.32 1096.78 537.28 1102.0 533.43 C 1107.22 529.57 1113.97 524.81 1117.0 522.85 C 1120.03 520.88 1125.88 517.24 1130.0 514.76 C 1134.12 512.28 1142.11 507.94 1147.74 505.12 C 1153.37 502.3 1161.24 498.9 1165.24 497.56 C 1169.23 496.22 1174.93 494.81 1177.9 494.41 C 1182.38 493.82 1183.52 493.99 1184.55 495.4 C 1185.71 496.99 1186.4 496.99 1195.06 495.49 C 1201.6 494.36 1210.25 493.9 1224.41 493.94 C 1235.46 493.97 1249.12 494.43 1254.77 494.97 C 1260.42 495.51 1267.85 496.67 1271.27 497.54 C 1274.7 498.41 1280.2 500.03 1283.5 501.15 C 1286.8 502.27 1294.99 505.8 1301.69 509.01 C 1308.4 512.21 1318.52 517.86 1324.19 521.57 C 1329.86 525.28 1337.65 530.8 1341.5 533.85 C 1345.35 536.9 1348.72 539.64 1349.0 539.95 C 1349.28 540.25 1353.4 544.0 1358.17 548.27 C 1362.93 552.54 1371.95 561.77 1378.19 568.77 C 1384.44 575.77 1392.06 584.65 1395.14 588.5 C 1398.21 592.35 1402.75 598.42 1405.21 602.0 C 1407.68 605.58 1411.57 611.58 1413.85 615.35 C 1416.13 619.12 1418.0 622.51 1418.0 622.88 C 1418.0 623.26 1420.7 626.23 1424.0 629.5 C 1427.3 632.77 1430.0 635.91 1430.0 636.48 C 1430.0 637.06 1435.4 642.92 1442.0 649.5 C 1448.6 656.08 1454.0 661.95 1454.0 662.53 C 1454.0 663.12 1455.8 665.35 1458.0 667.5 C 1460.2 669.65 1462.0 671.9 1462.0 672.5 C 1462.0 673.1 1463.8 675.35 1466.0 677.5 C 1468.2 679.65 1470.0 681.92 1470.0 682.55 C 1470.0 683.18 1470.9 684.5 1472.0 685.5 C 1473.1 686.5 1474.0 687.82 1474.0 688.44 C 1474.0 689.07 1476.25 691.79 1479.0 694.5 C 1481.87 697.33 1484.0 700.33 1484.0 701.54 C 1484.0 702.7 1485.15 704.73 1486.56 706.05 C 1487.97 707.38 1490.45 711.26 1492.09 714.69 C 1493.73 718.12 1495.49 721.18 1496.0 721.5 C 1496.51 721.82 1498.31 724.97 1500.0 728.5 C 1501.69 732.03 1503.47 735.17 1503.97 735.48 C 1504.47 735.79 1506.12 738.62 1507.65 741.77 C 1509.18 744.92 1510.78 747.65 1511.21 747.83 C 1511.65 748.02 1512.0 748.99 1512.0 750.0 C 1512.0 751.01 1512.56 752.03 1513.25 752.28 C 1513.94 752.53 1514.18 753.07 1513.8 753.48 C 1513.41 753.9 1512.4 753.54 1511.55 752.69 C 1510.7 751.84 1510.0 750.68 1510.0 750.11 C 1510.0 749.55 1508.21 747.15 1506.01 744.79 C 1503.82 742.43 1502.02 740.04 1502.01 739.48 C 1502.01 738.92 1497.83 734.31 1492.73 729.23 C 1487.63 724.15 1483.13 720.0 1482.73 720.0 C 1482.33 720.0 1482.0 720.72 1482.0 721.59 C 1482.0 722.47 1481.1 723.42 1480.0 723.71 C 1478.9 724.0 1478.0 724.79 1478.0 725.46 C 1478.0 726.14 1478.68 728.06 1479.52 729.74 C 1480.36 731.42 1481.71 733.34 1482.52 734.02 C 1483.33 734.69 1484.0 735.81 1484.0 736.5 C 1484.0 737.19 1484.68 738.32 1485.51 739.01 C 1486.34 739.7 1488.36 743.07 1490.0 746.5 C 1491.64 749.93 1493.66 753.3 1494.49 753.99 C 1495.32 754.68 1496.0 756.03 1496.0 756.98 C 1496.0 757.94 1497.8 762.22 1500.0 766.5 C 1502.2 770.78 1504.0 774.82 1504.0 775.48 C 1504.0 776.15 1504.66 778.02 1505.47 779.65 C 1506.28 781.27 1508.08 783.67 1509.47 784.98 C 1510.86 786.28 1512.0 788.16 1512.0 789.14 C 1512.0 790.13 1512.9 792.54 1514.0 794.5 C 1515.1 796.46 1516.0 798.66 1516.0 799.39 C 1516.0 800.12 1517.8 804.22 1520.0 808.5 C 1522.2 812.78 1524.0 817.09 1524.0 818.08 C 1524.0 819.07 1524.45 820.16 1525.0 820.5 C 1525.55 820.84 1526.0 822.19 1526.0 823.5 C 1526.0 824.81 1526.45 826.16 1527.0 826.5 C 1527.55 826.84 1528.0 828.64 1528.0 830.5 C 1528.0 832.36 1528.45 834.16 1529.0 834.5 C 1529.55 834.84 1530.0 835.98 1530.0 837.03 C 1530.0 838.08 1530.9 840.54 1532.0 842.5 C 1533.1 844.46 1534.0 846.92 1534.0 847.97 C 1534.0 849.02 1534.45 850.16 1535.0 850.5 C 1535.55 850.84 1536.0 852.64 1536.0 854.5 C 1536.0 856.36 1536.45 858.16 1537.0 858.5 C 1537.55 858.84 1538.0 861.09 1538.0 863.5 C 1538.0 865.91 1538.45 868.16 1539.0 868.5 C 1539.55 868.84 1540.0 870.64 1540.0 872.5 C 1540.0 874.36 1540.45 876.16 1541.0 876.5 C 1541.55 876.84 1542.0 878.18 1542.0 879.48 C 1542.0 880.77 1542.56 882.06 1543.25 882.34 C 1544.19 882.72 1544.13 883.1 1543.01 883.88 C 1541.82 884.71 1541.77 885.17 1542.76 886.16 C 1543.44 886.84 1544.0 888.86 1544.0 890.64 C 1544.0 892.42 1544.45 894.16 1545.0 894.5 C 1545.55 894.84 1546.0 896.19 1546.0 897.5 C 1546.0 898.81 1546.45 900.16 1547.0 900.5 C 1547.55 900.84 1548.0 903.99 1548.0 907.5 C 1548.0 911.01 1548.45 914.16 1549.0 914.5 C 1549.55 914.84 1550.0 918.7 1550.0 923.07 C 1550.0 927.67 1550.52 931.87 1551.24 933.01 C 1552.24 934.61 1552.22 935.42 1551.16 937.12 C 1550.21 938.64 1550.14 939.54 1550.92 940.32 C 1551.51 940.91 1552.0 944.92 1552.0 949.21 C 1552.0 953.56 1552.53 957.88 1553.2 958.95 C 1554.15 960.48 1554.11 961.42 1553.0 963.5 C 1551.89 965.58 1551.85 966.52 1552.8 968.05 C 1553.67 969.44 1554.0 978.67 1554.0 1001.43 C 1554.0 1021.32 1553.63 1033.11 1553.0 1033.5 C 1552.45 1033.84 1552.0 1037.89 1552.0 1042.5 C 1552.0 1047.11 1551.55 1051.16 1551.0 1051.5 C 1550.45 1051.84 1550.0 1053.64 1550.0 1055.5 C 1550.0 1057.36 1549.55 1059.16 1549.0 1059.5 C 1548.45 1059.84 1548.0 1062.99 1548.0 1066.5 C 1548.0 1070.01 1547.55 1073.16 1547.0 1073.5 C 1546.45 1073.84 1546.0 1075.64 1546.0 1077.5 C 1546.0 1079.36 1545.55 1081.16 1545.0 1081.5 C 1544.45 1081.84 1544.0 1083.19 1544.0 1084.5 C 1544.0 1085.81 1543.55 1087.16 1543.0 1087.5 C 1542.45 1087.84 1542.0 1089.19 1542.0 1090.5 C 1542.0 1091.81 1541.55 1093.16 1541.0 1093.5 C 1540.45 1093.84 1540.0 1094.98 1540.0 1096.03 C 1540.0 1097.08 1539.1 1099.54 1538.0 1101.5 C 1536.9 1103.46 1536.0 1106.61 1536.0 1108.5 C 1536.0 1110.39 1535.1 1113.54 1534.0 1115.5 C 1532.9 1117.46 1532.0 1120.37 1532.0 1121.97 C 1532.0 1123.57 1531.55 1125.16 1531.0 1125.5 C 1530.45 1125.84 1530.0 1127.19 1530.0 1128.5 C 1530.0 1129.81 1529.55 1131.16 1529.0 1131.5 C 1528.45 1131.84 1528.0 1133.19 1528.0 1134.5 C 1528.0 1135.81 1527.55 1137.16 1527.0 1137.5 C 1526.45 1137.84 1526.0 1139.64 1526.0 1141.5 C 1526.0 1143.36 1525.55 1145.16 1525.0 1145.5 C 1524.45 1145.84 1524.0 1147.19 1524.0 1148.5 C 1524.0 1149.81 1523.55 1151.16 1523.0 1151.5 C 1522.45 1151.84 1522.0 1153.19 1522.0 1154.5 C 1522.0 1155.81 1521.55 1157.16 1521.0 1157.5 C 1520.45 1157.84 1520.0 1158.98 1520.0 1160.03 C 1520.0 1161.08 1519.1 1163.54 1518.0 1165.5 C 1516.9 1167.46 1516.0 1169.92 1516.0 1170.97 C 1516.0 1172.02 1515.55 1173.16 1515.0 1173.5 C 1514.45 1173.84 1514.0 1175.44 1514.0 1177.06 C 1514.0 1178.68 1513.55 1180.0 1513.0 1180.0 C 1512.45 1180.0 1512.0 1181.35 1512.0 1183.0 C 1512.0 1184.65 1511.55 1186.0 1511.0 1186.0 C 1510.45 1186.0 1510.0 1184.65 1510.0 1183.0 C 1510.0 1181.35 1510.45 1180.0 1511.0 1180.0 C 1511.55 1180.0 1512.0 1177.55 1512.0 1174.56 C 1512.0 1171.57 1512.45 1168.84 1513.0 1168.5 C 1513.55 1168.16 1514.0 1166.36 1514.0 1164.5 C 1514.0 1162.64 1514.45 1160.84 1515.0 1160.5 C 1515.55 1160.16 1516.0 1157.46 1516.0 1154.5 C 1516.0 1151.54 1516.45 1148.84 1517.0 1148.5 C 1517.55 1148.16 1518.0 1145.91 1518.0 1143.5 C 1518.0 1141.09 1518.45 1138.84 1519.0 1138.5 C 1519.55 1138.16 1520.0 1135.46 1520.0 1132.5 C 1520.0 1129.54 1520.45 1126.84 1521.0 1126.5 C 1521.56 1126.15 1522.0 1121.34 1522.0 1115.5 C 1522.0 1109.66 1522.44 1104.85 1523.0 1104.5 C 1523.55 1104.16 1524.0 1101.46 1524.0 1098.5 C 1524.0 1095.54 1524.45 1092.84 1525.0 1092.5 C 1525.55 1092.16 1526.0 1091.05 1526.0 1090.02 C 1526.0 1089.0 1525.44 1087.9 1524.75 1087.58 C 1523.75 1087.12 1523.75 1086.88 1524.75 1086.42 C 1525.6 1086.02 1526.0 1083.21 1526.0 1077.62 C 1526.0 1072.56 1526.46 1068.94 1527.2 1068.2 C 1528.13 1067.27 1528.13 1066.73 1527.2 1065.8 C 1526.54 1065.14 1526.0 1063.56 1526.0 1062.3 C 1526.0 1060.86 1525.4 1060.0 1524.41 1060.0 C 1523.53 1060.0 1522.58 1059.1 1522.29 1058.0 C 1522.0 1056.9 1521.45 1056.0 1521.06 1056.0 C 1520.67 1056.0 1519.37 1057.04 1518.17 1058.31 C 1516.98 1059.59 1516.0 1061.82 1516.0 1063.28 C 1516.0 1064.74 1515.1 1067.54 1514.0 1069.5 C 1512.9 1071.46 1512.0 1073.92 1512.0 1074.97 C 1512.0 1076.02 1511.55 1077.16 1511.0 1077.5 C 1510.45 1077.84 1510.0 1078.98 1510.0 1080.03 C 1510.0 1081.08 1509.1 1083.54 1508.0 1085.5 C 1506.9 1087.46 1506.0 1089.68 1506.0 1090.43 C 1506.0 1091.18 1504.65 1094.36 1503.0 1097.5 C 1501.35 1100.64 1500.0 1103.82 1500.0 1104.57 C 1500.0 1105.32 1499.1 1107.54 1498.0 1109.5 C 1496.9 1111.46 1496.0 1114.37 1496.0 1115.97 C 1496.0 1117.57 1495.55 1119.16 1495.0 1119.5 C 1494.45 1119.84 1494.0 1120.9 1494.0 1121.85 C 1494.0 1122.81 1492.02 1127.53 1489.6 1132.35 C 1487.18 1137.18 1484.56 1141.88 1483.77 1142.81 C 1482.98 1143.74 1481.57 1146.17 1480.64 1148.21 C 1479.71 1150.25 1478.51 1152.19 1477.97 1152.52 C 1477.43 1152.85 1476.1 1155.09 1475.0 1157.5 C 1473.9 1159.91 1472.55 1162.16 1472.0 1162.5 C 1471.45 1162.84 1470.13 1165.01 1469.08 1167.31 C 1468.02 1169.61 1465.74 1172.85 1464.0 1174.5 C 1462.26 1176.15 1460.0 1179.34 1458.97 1181.59 C 1457.94 1183.83 1456.4 1186.25 1455.55 1186.96 C 1454.7 1187.67 1454.0 1188.8 1454.0 1189.47 C 1454.0 1190.14 1453.1 1191.5 1452.0 1192.5 C 1450.9 1193.5 1450.0 1194.84 1450.0 1195.48 C 1450.0 1196.12 1448.84 1197.74 1447.41 1199.08 C 1445.99 1200.41 1444.01 1203.3 1443.0 1205.5 C 1441.99 1207.7 1440.01 1210.59 1438.59 1211.92 C 1437.16 1213.26 1436.0 1214.88 1436.0 1215.52 C 1436.0 1216.16 1435.1 1217.5 1434.0 1218.5 C 1432.9 1219.5 1432.0 1220.85 1432.0 1221.5 C 1432.0 1222.15 1431.1 1223.5 1430.0 1224.5 C 1428.9 1225.5 1428.0 1226.85 1428.0 1227.5 C 1428.0 1228.15 1427.1 1229.5 1426.0 1230.5 C 1424.9 1231.5 1424.0 1232.85 1424.0 1233.5 C 1424.0 1234.15 1423.1 1235.5 1422.0 1236.5 C 1420.9 1237.5 1420.0 1238.83 1420.0 1239.47 C 1420.0 1240.1 1418.65 1241.92 1417.0 1243.5 C 1415.35 1245.08 1414.0 1246.9 1414.0 1247.53 C 1414.0 1248.17 1413.1 1249.5 1412.0 1250.5 C 1410.9 1251.5 1410.0 1252.85 1410.0 1253.5 C 1410.0 1254.15 1409.1 1255.5 1408.0 1256.5 C 1406.9 1257.5 1406.0 1258.85 1406.0 1259.5 C 1406.0 1260.15 1405.1 1261.5 1404.0 1262.5 C 1402.9 1263.5 1402.0 1264.83 1402.0 1265.47 C 1402.0 1266.1 1400.65 1267.92 1399.0 1269.5 C 1397.35 1271.08 1396.0 1272.9 1396.0 1273.53 C 1396.0 1274.17 1395.1 1275.5 1394.0 1276.5 C 1392.9 1277.5 1392.0 1278.86 1392.0 1279.53 C 1392.0 1280.2 1391.3 1281.33 1390.45 1282.04 C 1389.6 1282.75 1388.06 1285.17 1387.04 1287.41 C 1386.01 1289.66 1384.01 1292.59 1382.59 1293.92 C 1381.16 1295.26 1380.0 1296.88 1380.0 1297.52 C 1380.0 1298.16 1379.1 1299.5 1378.0 1300.5 C 1376.9 1301.5 1376.0 1302.85 1376.0 1303.5 C 1376.0 1304.15 1375.1 1305.5 1374.0 1306.5 C 1372.9 1307.5 1372.0 1308.84 1372.0 1309.48 C 1372.0 1310.12 1370.84 1311.74 1369.41 1313.08 C 1367.99 1314.41 1365.99 1317.34 1364.96 1319.59 C 1363.94 1321.83 1362.4 1324.25 1361.55 1324.96 C 1360.7 1325.67 1360.0 1326.81 1360.0 1327.5 C 1360.0 1328.19 1359.3 1329.33 1358.45 1330.04 C 1357.6 1330.75 1356.06 1333.18 1355.03 1335.44 C 1354.0 1337.7 1352.19 1340.43 1351.0 1341.5 C 1349.81 1342.57 1348.01 1345.27 1347.0 1347.5 C 1345.99 1349.73 1344.19 1352.43 1343.0 1353.5 C 1341.81 1354.57 1339.98 1357.35 1338.93 1359.66 C 1337.87 1361.98 1336.55 1364.16 1336.0 1364.5 C 1335.45 1364.84 1334.1 1367.09 1333.0 1369.5 C 1331.9 1371.91 1330.57 1374.15 1330.04 1374.48 C 1329.5 1374.81 1327.71 1377.93 1326.04 1381.41 C 1324.38 1384.89 1322.34 1388.3 1321.51 1388.99 C 1320.68 1389.68 1320.0 1391.29 1320.0 1392.56 C 1320.0 1393.84 1319.55 1395.16 1319.0 1395.5 C 1318.45 1395.84 1318.0 1396.98 1318.0 1398.03 C 1318.0 1399.08 1317.1 1401.54 1316.0 1403.5 C 1314.9 1405.46 1314.0 1407.92 1314.0 1408.97 C 1314.0 1410.02 1313.55 1411.16 1313.0 1411.5 C 1312.45 1411.84 1312.0 1413.64 1312.0 1415.5 C 1312.0 1417.36 1311.55 1419.16 1311.0 1419.5 C 1310.45 1419.84 1310.0 1420.98 1310.0 1422.03 C 1310.0 1423.08 1309.1 1425.54 1308.0 1427.5 C 1306.9 1429.46 1306.0 1432.82 1306.0 1434.97 C 1306.0 1437.12 1305.55 1439.16 1305.0 1439.5 C 1304.45 1439.84 1304.0 1441.64 1304.0 1443.5 C 1304.0 1445.36 1303.55 1447.16 1303.0 1447.5 C 1302.45 1447.84 1302.0 1451.7 1302.0 1456.07 C 1302.0 1460.67 1301.48 1464.87 1300.76 1466.01 C 1299.77 1467.59 1299.77 1468.41 1300.76 1469.99 C 1301.44 1471.08 1302.0 1473.78 1302.0 1475.99 C 1302.0 1478.19 1301.63 1480.0 1301.19 1480.0 C 1300.74 1480.0 1299.39 1478.16 1298.19 1475.91 C 1296.98 1473.65 1296.0 1470.98 1296.0 1469.96 C 1296.0 1468.95 1295.55 1467.84 1295.0 1467.5 C 1294.45 1467.16 1294.0 1466.05 1294.0 1465.04 C 1294.0 1464.03 1292.65 1460.64 1291.0 1457.5 C 1289.35 1454.36 1288.0 1450.58 1288.0 1449.09 C 1288.0 1447.32 1286.8 1445.23 1284.51 1443.01 L 1281.02 1439.63 C 1277.13 1443.29 1276.0 1445.33 1276.0 1446.52 C 1276.0 1447.71 1275.1 1449.5 1274.0 1450.5 C 1272.9 1451.5 1272.0 1453.53 1272.0 1455.02 C 1272.0 1456.51 1270.2 1461.22 1268.0 1465.5 C 1265.8 1469.78 1264.0 1474.27 1264.0 1475.48 C 1264.0 1476.7 1263.32 1479.06 1262.48 1480.74 C 1261.64 1482.42 1260.29 1484.34 1259.48 1485.02 C 1258.67 1485.69 1258.0 1487.29 1258.0 1488.56 C 1258.0 1489.84 1257.55 1491.16 1257.0 1491.5 C 1256.45 1491.84 1256.0 1493.15 1256.0 1494.4 C 1256.0 1495.66 1255.1 1497.5 1254.0 1498.5 C 1252.9 1499.5 1252.0 1500.86 1252.0 1501.53 C 1252.0 1502.2 1251.35 1503.29 1250.57 1503.95 C 1249.78 1504.6 1246.63 1510.17 1243.57 1516.32 C 1240.5 1522.48 1238.0 1528.01 1238.0 1528.62 C 1238.0 1529.23 1236.2 1533.22 1234.0 1537.5 C 1230.97 1543.39 1230.0 1546.44 1230.0 1550.08 C 1230.0 1552.72 1229.55 1555.16 1229.0 1555.5 C 1228.45 1555.84 1228.0 1557.19 1228.0 1558.5 C 1228.0 1559.81 1227.55 1561.16 1227.0 1561.5 C 1226.45 1561.84 1226.0 1564.93 1226.0 1568.36 C 1226.0 1571.88 1225.48 1575.12 1224.8 1575.8 C 1223.87 1576.73 1223.87 1577.27 1224.8 1578.2 C 1225.46 1578.86 1226.0 1579.99 1226.0 1580.7 C 1226.0 1581.41 1225.55 1582.0 1225.0 1582.0 Z M 1507.0 1198.0 C 1506.45 1198.0 1506.0 1197.55 1506.0 1197.0 C 1506.0 1196.45 1506.45 1196.0 1507.0 1196.0 C 1507.55 1196.0 1508.0 1196.45 1508.0 1197.0 C 1508.0 1197.55 1507.55 1198.0 1507.0 1198.0 Z M 1509.0 1192.0 C 1508.45 1192.0 1508.0 1191.1 1508.0 1190.0 C 1508.0 1188.9 1508.45 1188.0 1509.0 1188.0 C 1509.55 1188.0 1510.0 1188.9 1510.0 1190.0 C 1510.0 1191.1 1509.55 1192.0 1509.0 1192.0 Z M 915.0 810.0 C 914.45 810.0 914.0 809.55 914.0 809.0 C 914.0 808.45 914.45 808.0 915.0 808.0 C 915.55 808.0 916.0 808.45 916.0 809.0 C 916.0 809.55 915.55 810.0 915.0 810.0 Z M 917.0 804.0 C 916.45 804.0 916.0 803.55 916.0 803.0 C 916.0 802.45 916.45 802.0 917.0 802.0 C 917.55 802.0 918.0 802.45 918.0 803.0 C 918.0 803.55 917.55 804.0 917.0 804.0 Z M 993.0 648.0 C 993.55 648.0 994.0 647.55 994.0 647.0 C 994.0 646.45 993.55 646.0 993.0 646.0 C 992.45 646.0 992.0 646.45 992.0 647.0 C 992.0 647.55 992.45 648.0 993.0 648.0 Z " opacity="1.0" fill="#000000" stroke="none" fill-rule="evenodd"/></svg>