<svg width="2400" height="3200" xmlns="http://www.w3.org/2000/svg" viewBox="0 0 2400 3200"><path d="M 1226.72 1585.61 C 1226.36 1585.97 1224.59 1584.7 1222.78 1582.79 C 1220.98 1580.87 1217.92 1577.11 1216.0 1574.42 C 1214.08 1571.73 1210.14 1566.94 1207.25 1563.78 C 1204.36 1560.61 1202.0 1557.59 1202.0 1557.07 C 1202.0 1556.55 1199.8 1553.25 1197.12 1549.75 C 1194.43 1546.24 1191.23 1541.38 1190.01 1538.94 C 1188.78 1536.5 1186.77 1533.38 1185.53 1532.0 C 1184.29 1530.62 1182.0 1527.03 1180.44 1524.0 C 1178.87 1520.97 1176.94 1517.71 1176.13 1516.74 C 1175.32 1515.76 1174.6 1514.19 1174.52 1513.24 C 1174.43 1512.28 1173.27 1510.19 1171.93 1508.59 C 1170.6 1506.98 1164.52 1500.68 1158.44 1494.59 C 1152.36 1488.49 1144.87 1480.35 1141.81 1476.5 C 1138.75 1472.65 1131.77 1462.75 1126.31 1454.5 C 1120.84 1446.25 1114.04 1435.41 1111.2 1430.4 C 1108.35 1425.4 1104.9 1418.76 1103.53 1415.65 C 1102.15 1412.54 1100.83 1410.0 1100.6 1410.0 C 1100.37 1410.0 1100.38 1411.46 1100.64 1413.25 C 1100.89 1415.04 1101.53 1418.97 1102.05 1422.0 C 1102.58 1425.03 1103.18 1428.4 1103.39 1429.5 C 1103.6 1430.6 1104.1 1434.88 1104.5 1439.0 C 1104.9 1443.12 1105.65 1447.31 1106.17 1448.29 C 1106.81 1449.49 1106.57 1452.53 1105.47 1457.49 C 1104.56 1461.57 1104.05 1465.27 1104.32 1465.71 C 1104.6 1466.16 1104.22 1467.35 1103.48 1468.36 C 1102.74 1469.37 1101.66 1469.91 1101.08 1469.55 C 1100.5 1469.19 1100.18 1467.92 1100.36 1466.71 C 1100.54 1465.51 1100.12 1462.36 1099.42 1459.71 C 1098.72 1457.06 1097.75 1454.35 1097.25 1453.69 C 1096.76 1453.04 1096.3 1451.5 1096.24 1450.27 C 1096.18 1449.05 1095.05 1445.9 1093.73 1443.27 C 1092.42 1440.65 1089.52 1432.65 1087.29 1425.5 C 1085.06 1418.35 1081.77 1407.55 1079.97 1401.5 C 1078.18 1395.45 1075.61 1387.12 1074.27 1383.0 C 1072.93 1378.88 1071.73 1375.05 1071.6 1374.5 C 1071.48 1373.95 1071.03 1372.38 1070.61 1371.0 C 1070.19 1369.62 1068.72 1365.35 1067.35 1361.5 C 1065.98 1357.65 1064.01 1352.47 1062.96 1350.0 C 1061.91 1347.53 1058.05 1337.85 1054.38 1328.5 C 1050.71 1319.15 1045.98 1307.76 1043.86 1303.19 C 1041.73 1298.62 1040.0 1294.61 1040.0 1294.28 C 1040.0 1293.94 1037.24 1288.01 1033.87 1281.09 C 1030.49 1274.16 1026.05 1265.58 1023.99 1262.0 C 1021.94 1258.42 1017.22 1249.65 1013.51 1242.5 C 1009.81 1235.35 1006.61 1229.32 1006.4 1229.1 C 1006.2 1228.88 1006.29 1238.1 1006.6 1249.6 C 1006.96 1262.53 1007.91 1275.24 1009.11 1282.93 C 1010.18 1289.76 1011.46 1295.85 1011.97 1296.46 C 1012.47 1297.07 1012.53 1298.15 1012.09 1298.86 C 1011.51 1299.8 1010.46 1299.1 1008.3 1296.33 C 1006.66 1294.22 1001.72 1287.55 997.32 1281.5 C 992.93 1275.45 989.15 1270.05 988.92 1269.5 C 988.69 1268.95 983.59 1261.08 977.6 1252.0 C 971.6 1242.92 965.02 1233.03 962.97 1230.0 C 960.92 1226.97 955.92 1218.39 951.85 1210.93 C 947.78 1203.47 942.49 1192.9 940.1 1187.43 C 937.7 1181.97 935.03 1175.92 934.17 1174.0 C 933.31 1172.08 932.48 1170.05 932.34 1169.5 C 932.19 1168.95 930.71 1164.6 929.04 1159.82 C 927.37 1155.05 923.99 1144.12 921.52 1135.53 C 919.06 1126.94 915.93 1113.97 914.56 1106.71 C 913.2 1099.44 911.4 1088.78 910.57 1083.0 C 909.73 1077.22 908.59 1066.42 908.03 1059.0 C 907.47 1051.58 907.01 1035.38 907.01 1023.0 C 907.01 1010.62 907.49 996.53 908.09 991.67 C 908.68 986.81 908.93 982.6 908.65 982.31 C 908.36 982.02 907.42 984.2 906.57 987.14 C 905.72 990.09 904.14 996.77 903.06 1002.0 C 901.98 1007.23 900.58 1016.0 899.94 1021.5 C 899.31 1027.0 898.59 1041.17 898.35 1053.0 C 898.11 1064.83 897.78 1075.17 897.63 1076.0 C 897.44 1076.98 896.98 1076.63 896.3 1075.0 C 895.72 1073.62 894.75 1070.89 894.13 1068.93 C 893.51 1066.97 892.37 1060.89 891.6 1055.43 C 890.83 1049.97 889.66 1039.65 888.99 1032.5 C 888.18 1023.91 887.97 1010.85 888.36 994.0 C 888.69 979.98 889.38 964.0 889.89 958.5 C 890.41 953.0 891.27 945.58 891.82 942.0 C 892.36 938.42 893.04 934.83 893.33 934.0 C 893.62 933.17 894.13 930.25 894.45 927.5 C 894.78 924.75 895.43 920.25 895.89 917.5 C 896.36 914.75 897.95 906.42 899.44 899.0 C 900.92 891.58 903.89 878.52 906.03 870.0 C 908.17 861.48 911.69 849.1 913.85 842.5 C 916.01 835.9 919.79 824.88 922.26 818.0 C 924.72 811.12 927.97 802.58 929.49 799.0 C 931.0 795.42 934.25 788.0 936.72 782.5 C 939.18 777.0 943.4 768.11 946.09 762.75 C 948.78 757.39 950.64 753.02 950.24 753.03 C 949.83 753.05 946.29 757.22 942.38 762.28 C 938.46 767.35 933.32 774.65 930.96 778.5 C 928.61 782.35 924.56 790.0 921.97 795.5 C 919.39 801.0 916.57 807.08 915.71 809.0 C 914.85 810.92 913.32 815.08 912.32 818.24 C 911.32 821.39 910.11 823.98 909.64 823.99 C 909.16 823.99 909.08 821.93 909.46 819.41 C 909.84 816.88 910.32 814.07 910.52 813.16 C 910.73 812.25 911.55 808.8 912.35 805.5 C 913.15 802.2 914.55 795.67 915.47 791.0 C 916.39 786.33 919.52 775.3 922.44 766.5 C 925.35 757.7 929.57 746.19 931.82 740.92 C 934.06 735.65 937.78 727.55 940.07 722.92 C 942.37 718.29 946.97 709.55 950.29 703.5 C 953.62 697.45 958.35 689.12 960.81 685.0 C 963.27 680.88 968.8 672.33 973.11 666.0 C 977.42 659.67 982.19 653.03 983.72 651.24 C 985.25 649.45 988.3 645.74 990.5 642.99 C 992.7 640.24 997.88 634.08 1002.0 629.28 C 1006.12 624.49 1014.85 615.38 1021.4 609.03 C 1027.94 602.69 1039.64 591.16 1047.4 583.41 C 1055.15 575.66 1064.88 565.76 1069.02 561.41 C 1073.15 557.06 1079.22 551.18 1082.52 548.34 C 1085.81 545.5 1091.57 540.67 1095.33 537.59 C 1099.09 534.52 1102.42 532.0 1102.73 532.0 C 1103.04 532.0 1099.96 535.26 1095.89 539.25 C 1091.82 543.24 1087.13 548.08 1085.47 550.0 C 1083.81 551.92 1080.33 556.28 1077.73 559.67 C 1075.13 563.07 1073.0 566.11 1073.0 566.42 C 1073.0 566.74 1071.45 569.13 1069.54 571.75 C 1067.64 574.36 1062.58 579.68 1058.29 583.58 C 1054.01 587.47 1047.26 593.43 1043.3 596.83 C 1039.34 600.23 1032.35 606.72 1027.78 611.26 C 1023.2 615.79 1016.81 622.42 1013.57 626.0 C 1010.33 629.58 1006.04 634.3 1004.03 636.5 C 1002.02 638.7 996.44 645.36 991.63 651.29 C 986.82 657.23 981.91 663.75 980.72 665.79 C 979.53 667.83 976.18 673.0 973.28 677.29 C 970.37 681.57 968.0 685.32 968.0 685.62 C 968.0 685.92 966.48 688.49 964.62 691.33 C 962.77 694.17 957.38 704.38 952.66 714.0 C 947.93 723.62 944.16 731.73 944.27 732.0 C 944.38 732.27 943.52 734.08 942.36 736.0 C 941.19 737.92 939.68 741.3 938.99 743.5 C 938.29 745.7 936.94 749.08 935.97 751.0 C 935.01 752.92 934.19 754.73 934.16 755.0 C 934.13 755.27 933.48 757.08 932.7 759.0 C 931.93 760.92 931.58 763.59 931.93 764.93 C 932.5 767.13 932.95 766.71 936.83 760.43 C 939.18 756.62 941.64 752.61 942.3 751.53 C 942.96 750.44 946.87 744.37 950.98 738.03 C 955.09 731.69 959.97 724.48 961.81 722.0 C 963.65 719.52 966.36 715.95 967.83 714.05 C 969.3 712.15 972.08 708.74 974.0 706.48 C 975.92 704.21 978.62 700.99 980.0 699.31 C 981.38 697.64 985.54 693.01 989.25 689.03 C 992.96 685.05 996.0 682.32 996.0 682.97 C 996.0 683.63 994.5 686.49 992.67 689.33 C 990.84 692.17 987.51 698.1 985.27 702.5 C 983.03 706.9 979.57 713.19 977.58 716.48 C 975.59 719.76 974.17 723.01 974.44 723.69 C 974.7 724.38 974.48 725.21 973.94 725.53 C 973.41 725.86 971.35 728.67 969.37 731.77 C 967.39 734.87 962.69 743.63 958.92 751.23 C 955.15 758.84 950.07 769.88 947.62 775.78 C 945.17 781.68 941.75 790.55 940.01 795.5 C 938.27 800.45 936.63 805.17 936.35 806.0 C 936.07 806.83 934.29 812.67 932.39 819.0 C 930.5 825.33 928.51 831.4 927.98 832.5 C 927.45 833.6 925.18 840.12 922.94 847.0 C 920.7 853.88 917.05 866.02 914.85 874.0 C 912.64 881.98 910.18 890.98 909.38 894.0 C 908.58 897.02 907.53 900.4 907.06 901.5 C 906.58 902.6 905.72 905.52 905.14 908.0 C 904.57 910.48 903.82 914.68 903.47 917.34 C 903.13 920.0 902.66 923.15 902.42 924.34 C 902.18 925.53 901.56 929.2 901.04 932.5 C 900.51 935.8 899.42 944.12 898.61 951.0 C 897.8 957.88 896.85 967.77 896.51 973.0 C 896.16 978.23 895.46 987.23 894.94 993.0 C 894.42 998.77 894.0 1006.61 894.0 1010.42 C 894.0 1014.22 894.32 1017.02 894.7 1016.63 C 895.09 1016.24 895.56 1014.7 895.73 1013.21 C 895.91 1011.72 896.97 1006.0 898.08 1000.5 C 899.2 995.0 901.03 986.9 902.15 982.5 C 903.27 978.1 904.34 973.83 904.52 973.0 C 904.7 972.17 907.33 964.08 910.36 955.0 C 913.39 945.92 917.33 935.35 919.12 931.5 C 920.9 927.65 922.51 923.6 922.7 922.5 C 922.88 921.4 923.77 918.25 924.68 915.5 C 925.58 912.75 926.94 909.15 927.71 907.5 C 928.93 904.85 929.04 904.79 928.65 907.0 C 928.4 908.38 927.25 911.97 926.1 914.99 C 924.94 918.0 924.0 920.97 924.0 921.57 C 924.0 922.17 924.65 922.67 925.44 922.67 C 926.24 922.67 926.83 922.4 926.76 922.08 C 926.7 921.76 927.36 919.92 928.25 918.0 C 929.13 916.08 930.18 913.6 930.58 912.5 C 930.98 911.4 931.44 909.81 931.61 908.96 C 931.78 908.12 933.06 904.85 934.45 901.71 C 935.84 898.57 937.16 896.0 937.38 896.0 C 937.6 896.0 937.04 898.36 936.14 901.25 C 935.23 904.14 934.05 907.17 933.52 908.0 C 932.99 908.83 932.47 909.95 932.37 910.5 C 932.27 911.05 931.96 912.7 931.68 914.16 C 931.4 915.63 930.69 917.7 930.12 918.78 C 929.55 919.85 927.53 926.61 925.63 933.79 C 923.73 940.97 922.44 947.11 922.76 947.43 C 923.07 947.74 922.81 948.0 922.17 948.0 C 921.53 948.0 921.09 948.34 921.2 948.75 C 921.3 949.16 920.87 952.42 920.23 956.0 C 919.6 959.58 918.81 965.65 918.49 969.5 C 918.17 973.35 917.73 977.85 917.51 979.5 C 917.29 981.15 916.53 986.55 915.81 991.5 C 914.95 997.39 914.53 1010.34 914.58 1029.0 C 914.65 1052.17 915.08 1060.58 916.84 1074.0 C 918.04 1083.08 919.96 1096.12 921.11 1103.0 C 922.25 1109.87 924.29 1119.77 925.63 1125.0 C 926.96 1130.22 928.23 1135.17 928.45 1136.0 C 928.66 1136.83 930.27 1141.78 932.01 1147.0 C 933.75 1152.22 936.03 1158.41 937.09 1160.74 C 938.14 1163.07 939.0 1165.28 939.0 1165.64 C 939.0 1166.01 940.17 1168.83 941.59 1171.9 C 943.02 1174.98 945.18 1179.53 946.4 1182.0 C 947.62 1184.47 950.8 1190.55 953.47 1195.5 C 956.14 1200.45 959.72 1207.2 961.43 1210.5 C 963.15 1213.8 966.33 1219.36 968.52 1222.86 C 970.71 1226.36 973.64 1230.64 975.03 1232.36 C 976.42 1234.09 978.2 1236.85 978.98 1238.5 C 979.77 1240.15 981.0 1242.21 981.71 1243.09 C 982.43 1243.96 984.36 1247.45 986.0 1250.84 C 987.67 1254.29 989.64 1257.0 990.47 1257.0 C 991.29 1257.0 992.92 1258.91 994.1 1261.25 C 995.28 1263.59 996.4 1265.68 996.6 1265.89 C 996.79 1266.11 997.67 1265.69 998.54 1264.96 C 999.76 1263.95 1000.0 1262.55 999.55 1259.07 C 999.23 1256.56 998.75 1251.58 998.49 1248.0 C 998.22 1244.42 997.78 1239.92 997.51 1238.0 C 997.23 1236.08 996.77 1228.44 996.49 1221.04 C 996.2 1213.63 995.55 1205.98 995.04 1204.04 C 994.53 1202.09 993.82 1197.12 993.47 1193.0 C 993.11 1188.88 992.0 1180.55 991.0 1174.5 C 989.99 1168.45 988.62 1157.42 987.94 1150.0 C 987.19 1141.7 986.95 1130.72 987.34 1121.5 C 987.69 1113.25 988.65 1102.13 989.48 1096.78 C 990.31 1091.43 992.31 1082.21 993.93 1076.28 C 995.54 1070.35 998.07 1062.12 999.54 1058.0 C 1001.02 1053.88 1003.35 1048.03 1004.73 1045.0 C 1006.11 1041.97 1009.23 1035.45 1011.67 1030.5 C 1014.12 1025.55 1016.52 1020.83 1017.02 1020.0 C 1017.51 1019.17 1020.19 1014.75 1022.96 1010.17 C 1025.73 1005.59 1028.0 1001.68 1028.0 1001.48 C 1028.0 1001.29 1030.92 996.82 1034.49 991.56 C 1038.06 986.29 1045.71 975.58 1051.5 967.74 C 1057.29 959.91 1064.39 950.53 1067.27 946.9 C 1070.14 943.26 1075.4 936.51 1078.94 931.9 C 1082.49 927.28 1085.64 923.27 1085.95 923.0 C 1086.26 922.73 1089.18 918.9 1092.43 914.5 C 1095.69 910.1 1098.66 906.27 1099.03 906.0 C 1099.4 905.73 1103.97 899.65 1109.17 892.5 C 1114.38 885.35 1121.71 874.77 1125.46 869.0 C 1129.21 863.23 1133.44 856.7 1134.86 854.5 C 1136.28 852.3 1138.19 849.15 1139.1 847.5 C 1140.01 845.85 1141.66 842.92 1142.78 841.0 C 1143.89 839.08 1147.96 831.2 1151.81 823.5 C 1155.67 815.8 1159.93 807.02 1161.28 804.0 C 1162.63 800.98 1166.24 792.2 1169.29 784.5 C 1172.34 776.8 1176.47 765.37 1178.47 759.09 C 1180.48 752.82 1183.5 742.24 1185.2 735.59 C 1186.89 728.94 1189.33 717.42 1190.6 710.0 C 1192.69 697.86 1192.87 697.3 1192.38 704.5 C 1192.08 708.9 1190.98 716.77 1189.94 722.0 C 1188.9 727.23 1187.56 733.3 1186.96 735.5 C 1186.37 737.7 1185.26 741.75 1184.51 744.5 C 1183.75 747.25 1181.06 756.02 1178.53 764.0 C 1175.99 771.98 1173.52 779.4 1173.04 780.5 C 1172.55 781.6 1169.48 789.66 1166.22 798.41 C 1162.95 807.16 1160.06 813.91 1159.8 813.41 C 1159.54 812.91 1159.46 813.06 1159.63 813.75 C 1159.8 814.44 1159.66 815.71 1159.33 816.58 C 1158.94 817.6 1158.48 817.78 1158.05 817.09 C 1157.69 816.49 1154.97 820.84 1152.02 826.75 C 1149.07 832.66 1144.94 840.32 1142.83 843.77 C 1140.72 847.21 1139.0 850.32 1139.0 850.66 C 1139.0 851.0 1134.65 857.86 1129.33 865.89 C 1124.01 873.93 1118.61 881.85 1117.32 883.5 C 1116.03 885.15 1114.59 886.98 1114.12 887.56 C 1113.65 888.15 1112.76 889.58 1112.14 890.74 C 1111.52 891.89 1110.42 893.44 1109.69 894.17 C 1108.96 894.9 1104.42 900.82 1099.61 907.32 C 1094.81 913.82 1090.04 920.12 1089.02 921.32 C 1088.0 922.52 1084.17 927.33 1080.5 932.0 C 1076.83 936.67 1073.08 941.4 1072.16 942.5 C 1071.23 943.6 1068.25 947.42 1065.53 951.0 C 1062.82 954.58 1060.35 957.73 1060.05 958.0 C 1059.75 958.27 1059.05 959.22 1058.5 960.09 C 1057.95 960.97 1054.8 965.29 1051.5 969.7 C 1048.2 974.1 1044.83 978.72 1044.0 979.97 C 1043.17 981.22 1041.3 983.93 1039.82 986.01 C 1038.35 988.08 1033.81 995.11 1029.73 1001.64 C 1025.65 1008.16 1020.51 1016.88 1018.31 1021.0 C 1016.11 1025.12 1012.83 1031.42 1011.03 1035.0 C 1009.22 1038.58 1007.18 1042.85 1006.47 1044.5 C 1005.77 1046.15 1004.52 1049.08 1003.69 1051.0 C 1002.86 1052.92 1001.51 1056.3 1000.69 1058.5 C 999.87 1060.7 998.06 1066.55 996.66 1071.5 C 995.26 1076.45 993.41 1084.28 992.55 1088.9 C 991.69 1093.51 990.53 1101.35 989.96 1106.32 C 989.4 1111.28 988.95 1122.8 988.95 1131.92 C 988.96 1141.04 989.4 1151.88 989.93 1156.0 C 990.45 1160.12 991.16 1165.97 991.5 1169.0 C 991.83 1172.03 992.49 1176.08 992.95 1178.0 C 993.42 1179.92 993.84 1180.69 993.9 1179.69 C 993.95 1178.7 994.39 1178.12 994.86 1178.42 C 995.34 1178.71 996.21 1180.87 996.8 1183.22 C 997.4 1185.58 998.65 1190.65 999.6 1194.5 C 1000.55 1198.35 1001.68 1202.17 1002.13 1203.0 C 1002.82 1204.28 1002.94 1204.25 1002.97 1202.83 C 1002.99 1201.92 1003.55 1200.98 1004.22 1200.76 C 1005.13 1200.46 1005.48 1194.7 1005.58 1178.43 C 1005.67 1164.2 1006.31 1152.11 1007.4 1144.0 C 1008.33 1137.12 1010.21 1126.55 1011.58 1120.5 C 1012.95 1114.45 1014.97 1105.22 1016.05 1100.0 C 1017.14 1094.78 1019.4 1085.1 1021.08 1078.5 C 1022.75 1071.9 1025.87 1061.33 1028.0 1055.0 C 1030.13 1048.67 1033.19 1040.35 1034.79 1036.5 C 1036.39 1032.65 1038.71 1027.25 1039.95 1024.5 C 1041.19 1021.75 1044.19 1015.55 1046.63 1010.72 C 1049.06 1005.9 1052.44 999.37 1054.14 996.22 C 1055.84 993.08 1058.38 988.48 1059.78 986.0 C 1061.19 983.52 1069.02 970.7 1077.2 957.5 C 1085.37 944.3 1095.17 928.77 1098.98 923.0 C 1102.79 917.23 1106.49 911.52 1107.2 910.31 C 1107.92 909.11 1112.8 901.23 1118.06 892.81 C 1123.32 884.39 1127.94 876.83 1128.32 876.0 C 1128.7 875.17 1129.88 873.08 1130.94 871.34 C 1132.0 869.6 1134.63 864.87 1136.8 860.84 C 1138.96 856.8 1142.33 850.35 1144.27 846.5 C 1146.22 842.65 1149.66 835.59 1151.91 830.81 C 1154.16 826.03 1156.0 821.67 1156.0 821.12 C 1156.0 820.57 1156.47 819.83 1157.05 819.47 C 1157.63 819.11 1157.37 820.55 1156.46 822.66 C 1155.56 824.77 1154.44 827.49 1153.96 828.69 C 1153.48 829.89 1151.68 833.94 1149.95 837.69 C 1148.22 841.44 1144.21 849.67 1141.04 856.0 C 1137.88 862.33 1133.51 870.42 1131.33 874.0 C 1129.15 877.58 1127.04 881.17 1126.65 882.0 C 1126.25 882.83 1125.38 884.4 1124.71 885.51 C 1124.04 886.61 1121.03 891.48 1118.0 896.32 C 1114.97 901.16 1111.6 906.57 1110.5 908.34 C 1109.4 910.11 1106.7 914.38 1104.5 917.82 C 1102.3 921.27 1097.48 928.75 1093.78 934.45 C 1090.08 940.15 1081.96 953.06 1075.73 963.15 C 1069.5 973.24 1064.07 982.17 1063.66 983.0 C 1063.25 983.83 1062.37 985.4 1061.7 986.5 C 1061.03 987.6 1057.61 993.9 1054.09 1000.5 C 1050.57 1007.1 1046.65 1014.41 1045.37 1016.74 C 1044.1 1019.07 1041.17 1025.37 1038.87 1030.74 C 1036.57 1036.11 1033.83 1042.75 1032.77 1045.5 C 1031.72 1048.25 1028.87 1056.99 1026.46 1064.93 C 1024.04 1072.86 1020.89 1085.46 1019.47 1092.93 C 1018.04 1100.39 1016.18 1110.29 1015.34 1114.93 C 1014.49 1119.57 1013.64 1124.29 1013.43 1125.43 C 1013.23 1126.57 1012.36 1132.0 1011.49 1137.5 C 1010.62 1143.0 1009.65 1155.83 1009.33 1166.0 C 1008.98 1177.17 1009.19 1188.66 1009.87 1195.0 C 1010.49 1200.78 1012.08 1208.88 1013.41 1213.0 C 1014.73 1217.12 1016.75 1223.46 1017.89 1227.09 C 1019.03 1230.71 1025.5 1244.66 1032.25 1258.09 C 1039.01 1271.51 1045.61 1284.97 1046.93 1288.0 C 1048.24 1291.03 1049.86 1294.85 1050.52 1296.5 C 1051.18 1298.15 1054.09 1305.35 1056.99 1312.5 C 1059.89 1319.65 1064.26 1331.35 1066.72 1338.5 C 1069.17 1345.65 1072.29 1355.33 1073.65 1360.0 C 1075.02 1364.67 1076.97 1371.88 1077.99 1376.0 C 1079.01 1380.12 1081.25 1387.55 1082.98 1392.5 C 1084.7 1397.45 1086.59 1402.62 1087.17 1404.0 C 1087.75 1405.38 1088.57 1407.17 1088.97 1408.0 C 1089.38 1408.83 1090.34 1409.5 1091.11 1409.5 C 1092.06 1409.5 1092.45 1408.4 1092.35 1406.0 C 1092.26 1404.08 1091.97 1395.53 1091.69 1387.0 C 1091.37 1377.25 1090.41 1367.61 1089.1 1361.0 C 1087.95 1355.22 1087.02 1349.6 1087.05 1348.5 C 1087.08 1347.02 1087.57 1347.42 1088.96 1350.05 C 1090.0 1352.0 1091.58 1356.5 1092.49 1360.05 C 1093.39 1363.6 1095.96 1371.67 1098.19 1378.0 C 1100.42 1384.33 1107.64 1400.53 1114.24 1414.0 C 1120.85 1427.47 1130.75 1445.7 1136.25 1454.5 C 1141.75 1463.3 1149.23 1474.33 1152.88 1479.0 L 1159.5 1487.5 C 1159.97 1479.19 1159.4 1473.94 1158.53 1470.47 C 1157.66 1467.0 1156.01 1461.53 1154.86 1458.33 C 1153.71 1455.12 1152.55 1450.25 1152.28 1447.5 C 1152.0 1444.75 1151.33 1441.94 1150.78 1441.26 C 1150.23 1440.58 1150.02 1439.4 1150.31 1438.64 C 1150.6 1437.87 1150.29 1436.18 1149.61 1434.87 C 1148.93 1433.57 1148.42 1430.92 1148.46 1429.0 C 1148.51 1427.07 1147.99 1423.56 1147.3 1421.18 C 1146.61 1418.8 1146.08 1413.33 1146.1 1409.01 C 1146.13 1404.69 1145.72 1400.34 1145.2 1399.33 C 1144.67 1398.32 1144.17 1393.0 1144.08 1387.5 C 1144.0 1382.0 1143.44 1375.99 1142.85 1374.13 C 1142.25 1372.26 1142.04 1368.27 1142.38 1365.13 C 1142.71 1362.04 1143.24 1353.2 1143.55 1345.5 C 1143.86 1337.8 1144.76 1324.97 1145.56 1317.0 C 1146.35 1309.03 1147.24 1301.38 1147.53 1300.0 C 1147.81 1298.62 1148.27 1295.15 1148.54 1292.28 C 1148.8 1289.42 1149.47 1285.89 1150.02 1284.45 C 1150.57 1283.01 1150.8 1281.49 1150.54 1281.06 C 1150.28 1280.64 1150.76 1279.44 1151.6 1278.4 C 1153.04 1276.61 1153.1 1276.68 1152.45 1279.5 C 1152.08 1281.15 1151.66 1284.08 1151.53 1286.01 C 1151.4 1287.94 1150.93 1290.64 1150.49 1292.01 C 1150.06 1293.38 1149.71 1296.3 1149.72 1298.5 C 1149.73 1300.7 1149.39 1302.95 1148.96 1303.5 C 1148.53 1304.05 1148.16 1305.62 1148.14 1307.0 C 1148.12 1308.38 1148.1 1324.76 1148.1 1343.42 C 1148.09 1362.07 1148.24 1377.6 1148.43 1377.92 C 1148.62 1378.24 1149.05 1383.67 1149.4 1390.0 C 1149.74 1396.33 1150.27 1404.65 1150.57 1408.5 C 1150.87 1412.35 1151.28 1417.53 1151.49 1420.0 C 1151.7 1422.47 1153.03 1430.8 1154.45 1438.5 C 1155.87 1446.2 1157.94 1455.65 1159.05 1459.5 C 1160.17 1463.35 1162.68 1470.55 1164.64 1475.5 C 1166.6 1480.45 1169.23 1486.75 1170.48 1489.5 C 1171.73 1492.25 1173.09 1495.62 1173.49 1497.0 C 1173.89 1498.38 1175.92 1501.3 1178.0 1503.5 C 1180.08 1505.7 1182.12 1508.62 1182.54 1510.0 C 1182.95 1511.38 1184.46 1514.3 1185.9 1516.5 C 1187.33 1518.7 1190.15 1523.42 1192.17 1527.0 C 1194.18 1530.58 1197.28 1536.2 1199.04 1539.5 C 1200.8 1542.8 1204.33 1547.82 1206.87 1550.66 C 1209.42 1553.5 1212.53 1557.2 1213.79 1558.87 C 1215.13 1560.65 1216.66 1561.68 1217.49 1561.37 C 1218.26 1561.07 1220.5 1557.74 1222.45 1553.96 C 1224.4 1550.19 1226.0 1546.4 1226.0 1545.54 C 1226.0 1544.68 1226.42 1543.19 1226.93 1542.24 C 1227.45 1541.28 1229.44 1536.67 1231.36 1532.0 C 1233.29 1527.33 1235.63 1521.47 1236.57 1519.0 C 1237.5 1516.53 1239.48 1512.92 1240.97 1511.0 C 1242.45 1509.08 1247.85 1499.4 1252.98 1489.5 C 1258.11 1479.6 1262.62 1470.83 1263.0 1470.0 C 1263.39 1469.17 1264.7 1465.35 1265.92 1461.5 C 1267.14 1457.65 1269.61 1451.35 1271.43 1447.5 C 1273.24 1443.65 1275.45 1438.92 1276.34 1437.0 C 1277.24 1435.08 1279.74 1428.78 1281.92 1423.0 C 1284.09 1417.22 1286.23 1412.5 1286.68 1412.5 C 1287.13 1412.5 1287.48 1411.52 1287.47 1410.32 C 1287.45 1409.13 1287.73 1408.34 1288.1 1408.56 C 1288.47 1408.79 1289.74 1405.5 1290.91 1401.24 C 1292.08 1396.98 1294.49 1386.19 1296.27 1377.25 C 1298.05 1368.32 1299.77 1361.01 1300.11 1361.0 C 1300.44 1361.0 1300.14 1364.26 1299.44 1368.25 C 1298.73 1372.24 1297.94 1376.62 1297.68 1378.0 C 1297.41 1379.38 1296.03 1385.67 1294.6 1392.0 C 1293.17 1398.33 1290.66 1408.22 1289.0 1414.0 C 1287.35 1419.77 1286.0 1425.71 1286.0 1427.2 C 1286.0 1428.69 1286.4 1430.94 1286.9 1432.2 C 1287.39 1433.47 1288.25 1436.3 1288.81 1438.5 C 1289.38 1440.7 1290.37 1444.53 1291.02 1447.0 C 1291.67 1449.47 1292.6 1452.51 1293.08 1453.75 C 1293.56 1454.99 1294.59 1456.0 1295.37 1456.0 C 1296.15 1456.0 1297.06 1455.29 1297.39 1454.42 C 1297.73 1453.55 1298.0 1450.39 1298.0 1447.4 C 1298.0 1444.42 1298.4 1441.19 1298.89 1440.24 C 1299.38 1439.28 1300.29 1436.25 1300.91 1433.5 C 1301.53 1430.75 1302.22 1427.6 1302.44 1426.5 C 1302.65 1425.4 1303.27 1422.59 1303.81 1420.25 C 1304.35 1417.91 1304.59 1416.0 1304.36 1416.0 C 1304.12 1416.0 1304.37 1415.17 1304.92 1414.15 C 1305.46 1413.14 1306.13 1411.06 1306.41 1409.53 C 1306.69 1408.0 1307.52 1406.02 1308.25 1405.13 C 1308.99 1404.23 1310.9 1401.03 1312.49 1398.01 C 1314.08 1394.99 1316.42 1390.99 1317.69 1389.12 C 1318.96 1387.25 1320.0 1385.3 1320.0 1384.78 C 1320.0 1384.26 1321.5 1381.51 1323.34 1378.67 C 1325.18 1375.83 1331.37 1365.49 1337.09 1355.69 C 1342.82 1345.9 1350.36 1333.53 1353.85 1328.21 C 1357.34 1322.88 1360.89 1317.17 1361.74 1315.51 C 1362.59 1313.86 1364.14 1311.38 1365.17 1310.0 C 1366.21 1308.62 1369.55 1303.67 1372.61 1299.0 C 1375.67 1294.33 1378.86 1289.15 1379.7 1287.5 C 1380.54 1285.85 1382.14 1283.5 1383.26 1282.29 C 1384.37 1281.07 1385.78 1279.2 1386.39 1278.14 C 1387.0 1277.07 1392.36 1269.07 1398.3 1260.35 C 1404.23 1251.63 1410.44 1242.7 1412.08 1240.5 C 1413.72 1238.3 1416.18 1234.92 1417.53 1233.0 C 1418.89 1231.08 1421.12 1227.92 1422.5 1226.0 C 1423.88 1224.08 1426.58 1220.47 1428.5 1218.0 C 1430.42 1215.53 1433.06 1211.92 1434.36 1209.99 C 1435.66 1208.05 1437.53 1205.81 1438.5 1205.0 C 1439.47 1204.19 1441.44 1201.72 1442.87 1199.51 C 1444.29 1197.31 1445.92 1194.8 1446.48 1193.95 C 1447.04 1193.1 1448.4 1190.91 1449.5 1189.09 C 1450.6 1187.27 1452.48 1184.37 1453.69 1182.64 C 1454.89 1180.91 1457.36 1177.09 1459.19 1174.14 C 1461.01 1171.2 1463.64 1166.92 1465.02 1164.64 C 1466.41 1162.36 1468.44 1159.0 1469.52 1157.16 C 1470.61 1155.32 1473.73 1150.37 1476.46 1146.16 C 1479.19 1141.95 1481.44 1138.26 1481.46 1137.97 C 1481.48 1137.68 1482.99 1134.08 1484.81 1129.97 C 1486.64 1125.86 1488.55 1121.72 1489.06 1120.76 C 1489.58 1119.81 1490.0 1118.58 1490.0 1118.04 C 1490.0 1117.5 1491.06 1114.68 1492.36 1111.78 C 1493.66 1108.88 1495.96 1103.12 1497.46 1099.0 C 1498.96 1094.88 1501.05 1089.58 1502.09 1087.22 C 1503.14 1084.87 1504.0 1082.35 1504.0 1081.63 C 1504.0 1080.9 1504.64 1079.0 1505.43 1077.4 C 1506.21 1075.81 1507.96 1070.22 1509.32 1065.0 C 1510.67 1059.78 1512.5 1052.12 1513.37 1048.0 C 1514.25 1043.88 1515.64 1036.22 1516.45 1031.0 C 1517.26 1025.78 1518.62 1015.75 1519.48 1008.72 C 1520.33 1001.68 1521.01 991.11 1520.99 985.22 C 1520.97 979.32 1520.76 972.25 1520.53 969.5 C 1520.29 966.75 1519.84 961.12 1519.53 957.0 C 1519.21 952.88 1518.52 946.8 1518.0 943.5 C 1517.48 940.2 1516.33 933.45 1515.45 928.5 C 1514.58 923.55 1512.7 914.55 1511.29 908.5 C 1509.88 902.45 1508.39 897.05 1507.98 896.5 C 1507.57 895.95 1506.9 893.94 1506.49 892.03 C 1506.08 890.13 1505.43 887.88 1505.04 887.03 C 1504.66 886.19 1503.3 883.5 1502.03 881.06 C 1500.76 878.61 1499.16 874.56 1498.48 872.06 C 1497.8 869.55 1494.91 861.2 1492.04 853.5 C 1489.17 845.8 1484.97 835.45 1482.7 830.5 C 1480.44 825.55 1476.94 818.35 1474.93 814.5 C 1472.92 810.65 1468.66 802.55 1465.46 796.5 C 1462.25 790.45 1458.14 783.16 1456.32 780.3 C 1454.49 777.44 1453.0 774.89 1453.0 774.63 C 1453.0 774.37 1450.68 770.41 1447.84 765.83 C 1445.01 761.25 1439.53 752.77 1435.66 747.0 C 1431.79 741.23 1422.34 728.17 1414.65 718.0 C 1406.97 707.83 1399.01 697.48 1396.97 695.0 C 1394.93 692.52 1389.54 686.0 1385.0 680.5 C 1380.45 675.0 1373.3 666.74 1369.12 662.15 C 1364.93 657.56 1361.33 653.29 1361.12 652.65 C 1360.91 652.02 1362.71 653.56 1365.12 656.08 C 1367.53 658.6 1371.08 662.42 1373.0 664.58 C 1374.92 666.74 1380.14 672.55 1384.58 677.5 C 1389.03 682.45 1396.46 691.23 1401.1 697.0 C 1405.74 702.77 1413.6 713.12 1418.57 720.0 C 1423.54 726.88 1429.83 735.76 1432.55 739.73 C 1435.27 743.71 1441.85 753.84 1447.17 762.23 C 1452.49 770.63 1461.35 785.6 1466.85 795.5 C 1472.35 805.4 1478.4 816.88 1480.3 821.0 C 1482.2 825.12 1486.3 834.58 1489.43 842.0 C 1492.55 849.42 1495.51 856.4 1496.01 857.5 C 1496.5 858.6 1497.65 861.3 1498.54 863.5 C 1499.44 865.7 1501.02 870.1 1502.06 873.28 C 1503.09 876.47 1504.57 880.52 1505.35 882.28 C 1506.13 884.05 1507.26 886.85 1507.86 888.5 C 1508.47 890.15 1510.53 897.8 1512.45 905.5 C 1514.37 913.2 1516.44 921.75 1517.05 924.5 C 1517.66 927.25 1518.36 930.4 1518.6 931.5 C 1518.84 932.6 1519.27 935.08 1519.56 937.0 C 1519.85 938.92 1520.49 941.62 1520.98 943.0 C 1521.47 944.38 1522.34 948.65 1522.91 952.5 C 1523.48 956.35 1524.16 961.08 1524.42 963.0 C 1524.67 964.92 1525.79 973.02 1526.89 981.0 C 1527.99 988.98 1529.4 1002.7 1530.02 1011.5 C 1530.64 1020.3 1531.13 1038.66 1531.11 1052.3 C 1531.08 1065.93 1530.85 1077.44 1530.59 1077.86 C 1530.33 1078.27 1530.03 1081.29 1529.91 1084.56 C 1529.8 1087.83 1529.38 1091.17 1528.97 1092.0 C 1528.56 1092.83 1527.98 1096.31 1527.68 1099.73 C 1527.38 1103.16 1526.91 1106.34 1526.62 1106.8 C 1526.34 1107.26 1525.82 1110.59 1525.48 1114.21 C 1525.09 1118.25 1525.24 1121.03 1525.86 1121.41 C 1526.41 1121.75 1527.57 1121.03 1528.43 1119.79 C 1529.29 1118.56 1530.0 1116.5 1530.0 1115.21 C 1530.0 1113.92 1530.41 1112.11 1530.9 1111.18 C 1531.4 1110.26 1532.06 1108.15 1532.38 1106.5 C 1532.7 1104.85 1533.26 1102.15 1533.62 1100.5 C 1533.97 1098.85 1534.64 1097.02 1535.1 1096.44 C 1535.55 1095.86 1536.59 1092.82 1537.41 1089.68 C 1538.23 1086.54 1539.23 1083.44 1539.64 1082.78 C 1540.04 1082.12 1540.48 1080.58 1540.61 1079.35 C 1540.74 1078.12 1541.5 1075.63 1542.3 1073.81 C 1543.1 1071.99 1544.33 1068.47 1545.04 1066.0 C 1545.74 1063.53 1546.21 1060.01 1546.08 1058.2 C 1545.95 1056.38 1546.27 1054.36 1546.81 1053.7 C 1547.34 1053.04 1548.06 1050.47 1548.4 1048.0 C 1548.74 1045.53 1549.48 1038.33 1550.05 1032.0 C 1550.62 1025.67 1551.26 1012.51 1551.47 1002.75 C 1551.68 992.99 1551.47 985.0 1550.98 985.0 C 1550.5 985.0 1549.92 979.26 1549.69 972.25 C 1549.46 965.24 1549.01 957.92 1548.69 956.0 C 1548.37 954.08 1547.89 950.25 1547.62 947.5 C 1547.35 944.75 1546.9 941.49 1546.62 940.25 C 1546.34 939.01 1545.89 937.63 1545.61 937.18 C 1545.33 936.73 1544.15 930.54 1542.99 923.43 C 1541.82 916.32 1540.65 909.38 1540.38 908.0 C 1540.11 906.62 1539.28 902.35 1538.53 898.5 C 1537.78 894.65 1535.81 885.65 1534.15 878.5 C 1532.5 871.35 1530.4 862.8 1529.5 859.5 C 1528.6 856.2 1527.19 851.02 1526.38 848.0 C 1525.56 844.98 1524.72 841.69 1524.5 840.71 C 1524.28 839.72 1523.63 837.47 1523.05 835.71 C 1522.47 833.94 1521.11 829.8 1520.03 826.5 C 1518.95 823.2 1516.45 816.0 1514.48 810.5 C 1512.5 805.0 1510.73 799.83 1510.53 799.0 C 1510.34 798.17 1508.54 793.67 1506.53 789.0 C 1504.52 784.33 1502.71 779.77 1502.52 778.87 C 1502.32 777.97 1501.21 775.38 1500.06 773.12 C 1498.9 770.85 1498.17 769.0 1498.43 769.0 C 1498.69 769.0 1496.87 764.84 1494.39 759.75 C 1491.92 754.66 1489.52 749.81 1489.07 748.97 C 1488.62 748.12 1485.2 742.05 1481.47 735.47 C 1477.75 728.88 1470.94 717.88 1466.34 711.0 C 1461.75 704.12 1456.75 696.92 1455.24 695.0 C 1452.7 691.75 1452.9 691.84 1458.12 696.21 C 1461.21 698.81 1463.94 700.73 1464.19 700.48 C 1464.44 700.23 1472.6 708.06 1482.32 717.88 C 1492.04 727.69 1500.0 735.41 1500.0 735.02 C 1500.0 734.63 1499.25 732.78 1498.34 730.9 C 1497.43 729.03 1494.67 724.12 1492.21 720.0 C 1489.75 715.88 1485.21 708.67 1482.13 704.0 C 1479.05 699.33 1473.63 691.67 1470.09 687.0 C 1466.56 682.33 1462.06 676.48 1460.11 674.0 C 1458.16 671.52 1455.19 667.89 1453.53 665.93 C 1451.86 663.96 1448.47 659.92 1446.0 656.96 C 1443.53 653.99 1439.03 648.86 1436.0 645.57 C 1432.97 642.27 1425.42 634.35 1419.21 627.97 C 1412.62 621.2 1405.15 612.23 1401.28 606.43 C 1397.63 600.97 1391.5 592.45 1387.65 587.5 C 1383.8 582.55 1379.85 577.6 1378.86 576.5 C 1377.87 575.4 1375.13 572.16 1372.78 569.3 C 1370.42 566.44 1367.15 562.26 1365.5 560.0 C 1363.85 557.75 1360.09 553.11 1357.15 549.7 C 1354.2 546.29 1349.03 541.15 1345.65 538.29 C 1342.27 535.42 1339.5 532.72 1339.5 532.29 C 1339.5 531.85 1336.37 528.48 1332.54 524.79 C 1328.72 521.1 1325.87 517.8 1326.22 517.45 C 1326.56 517.11 1328.33 517.88 1330.14 519.16 C 1331.96 520.45 1334.21 522.43 1335.15 523.56 C 1336.08 524.7 1338.78 526.95 1341.13 528.56 C 1343.49 530.18 1348.78 534.76 1352.89 538.75 C 1357.0 542.74 1360.73 546.0 1361.18 546.0 C 1361.63 546.0 1362.0 545.54 1362.0 544.97 C 1362.0 544.4 1361.33 543.68 1360.5 543.36 C 1359.67 543.05 1359.0 542.43 1359.0 542.0 C 1359.0 541.57 1357.31 539.31 1355.25 536.96 C 1353.19 534.62 1349.09 530.25 1346.15 527.25 C 1343.21 524.25 1341.18 521.42 1341.65 520.96 C 1342.12 520.49 1345.2 522.73 1348.5 525.92 C 1351.8 529.11 1357.67 535.05 1361.55 539.11 C 1365.42 543.18 1369.37 547.62 1370.31 549.0 C 1371.26 550.38 1373.83 553.98 1376.02 557.0 C 1378.21 560.02 1380.0 563.02 1380.0 563.67 C 1380.0 564.31 1380.42 564.98 1380.93 565.17 C 1381.44 565.35 1384.86 569.99 1388.53 575.49 C 1392.19 580.98 1395.88 586.83 1396.71 588.49 C 1397.55 590.14 1399.24 592.62 1400.47 594.0 C 1401.7 595.38 1403.02 597.37 1403.4 598.44 C 1404.05 600.29 1403.99 600.3 1402.21 598.69 C 1401.18 597.76 1400.05 597.28 1399.71 597.62 C 1399.36 597.97 1404.07 603.71 1410.18 610.38 C 1416.28 617.04 1424.02 625.56 1427.38 629.29 C 1430.75 633.03 1435.3 638.02 1437.5 640.4 C 1439.7 642.77 1443.97 647.56 1447.0 651.04 C 1450.03 654.52 1453.38 658.52 1454.47 659.93 C 1455.55 661.34 1456.7 662.73 1457.04 663.0 C 1457.37 663.27 1463.39 670.89 1470.42 679.92 C 1477.44 688.95 1484.23 697.95 1485.49 699.92 C 1486.75 701.89 1488.68 704.44 1489.77 705.58 C 1490.87 706.73 1493.69 711.23 1496.04 715.58 C 1498.4 719.94 1500.86 724.17 1501.52 725.0 C 1502.17 725.83 1504.0 728.98 1505.57 732.0 C 1507.15 735.02 1509.19 738.51 1510.1 739.74 C 1511.02 740.97 1513.66 746.59 1515.97 752.24 C 1518.28 757.88 1520.76 763.71 1521.49 765.18 C 1522.61 767.42 1522.6 768.15 1521.44 769.68 C 1520.68 770.68 1520.05 770.98 1520.03 770.35 C 1520.01 769.72 1517.87 766.34 1515.27 762.85 C 1512.68 759.36 1508.62 754.44 1506.26 751.91 C 1503.91 749.39 1500.75 745.73 1499.24 743.77 C 1497.73 741.81 1494.25 737.49 1491.5 734.17 C 1488.75 730.86 1486.0 727.92 1485.39 727.66 C 1484.78 727.39 1486.71 731.2 1489.68 736.13 C 1492.65 741.05 1499.52 754.22 1504.95 765.39 C 1510.38 776.57 1517.57 792.32 1520.93 800.41 C 1524.29 808.5 1529.23 821.73 1531.9 829.81 C 1534.58 837.89 1537.94 848.77 1539.38 854.0 C 1540.82 859.23 1543.31 870.25 1544.92 878.5 C 1546.53 886.75 1548.77 899.58 1549.89 907.0 C 1551.01 914.42 1552.61 927.48 1553.45 936.0 C 1554.29 944.52 1555.3 958.25 1555.68 966.5 C 1556.07 974.75 1556.41 988.7 1556.43 997.5 C 1556.46 1007.42 1555.8 1018.63 1554.69 1027.0 C 1553.7 1034.42 1551.55 1048.6 1549.9 1058.5 C 1548.25 1068.4 1545.07 1083.92 1542.84 1093.0 C 1540.61 1102.08 1538.44 1109.95 1538.02 1110.5 C 1537.61 1111.05 1536.48 1113.92 1535.51 1116.87 C 1534.55 1119.83 1532.01 1126.02 1529.88 1130.64 C 1527.75 1135.26 1526.0 1140.13 1526.0 1141.46 C 1526.0 1142.79 1526.48 1144.18 1527.06 1144.54 C 1527.69 1144.92 1527.84 1146.48 1527.45 1148.35 C 1527.08 1150.08 1526.23 1152.17 1525.57 1153.0 C 1524.9 1153.83 1523.84 1156.3 1523.21 1158.5 C 1522.58 1160.7 1521.78 1163.62 1521.42 1165.0 C 1521.06 1166.38 1520.14 1168.21 1519.38 1169.08 C 1518.62 1169.95 1517.85 1171.97 1517.66 1173.58 C 1517.47 1175.19 1516.54 1177.99 1515.6 1179.81 C 1514.66 1181.63 1513.73 1184.68 1513.55 1186.57 C 1513.37 1188.47 1512.44 1191.21 1511.48 1192.66 C 1510.53 1194.12 1509.6 1196.85 1509.42 1198.73 C 1509.24 1200.61 1507.64 1205.38 1505.87 1209.32 C 1504.1 1213.27 1502.02 1217.17 1501.26 1218.0 C 1500.07 1219.29 1499.94 1218.78 1500.3 1214.37 C 1500.54 1211.55 1501.06 1208.71 1501.47 1208.05 C 1501.88 1207.39 1502.34 1205.65 1502.5 1204.18 C 1502.66 1202.7 1504.12 1196.1 1505.75 1189.5 C 1507.38 1182.9 1509.46 1174.12 1510.38 1170.0 C 1511.3 1165.88 1512.27 1161.15 1512.55 1159.5 C 1512.83 1157.85 1513.91 1152.0 1514.97 1146.5 C 1516.02 1141.0 1517.12 1134.7 1517.41 1132.5 C 1517.71 1130.3 1518.18 1121.08 1518.46 1112.0 C 1518.75 1102.92 1519.04 1090.1 1519.1 1083.5 C 1519.17 1076.9 1519.15 1069.92 1519.07 1068.0 C 1518.94 1064.79 1518.72 1065.08 1516.38 1071.5 C 1514.99 1075.35 1513.72 1078.95 1513.58 1079.5 C 1513.43 1080.05 1512.77 1081.85 1512.1 1083.5 C 1511.44 1085.15 1509.78 1089.42 1508.42 1093.0 C 1507.05 1096.58 1505.5 1100.28 1504.97 1101.24 C 1504.43 1102.19 1504.0 1103.48 1504.0 1104.09 C 1504.0 1104.71 1502.89 1107.41 1501.54 1110.1 C 1500.19 1112.8 1499.24 1115.0 1499.44 1115.0 C 1499.63 1115.0 1498.96 1117.67 1497.94 1120.93 C 1496.93 1124.19 1494.75 1129.48 1493.11 1132.68 C 1491.47 1135.88 1488.54 1140.75 1486.6 1143.5 C 1484.67 1146.25 1481.95 1150.75 1480.56 1153.5 C 1479.18 1156.25 1477.48 1159.4 1476.78 1160.5 C 1476.08 1161.6 1474.56 1163.85 1473.4 1165.5 C 1472.24 1167.15 1470.34 1170.36 1469.19 1172.63 C 1468.03 1174.9 1466.41 1177.01 1465.59 1177.33 C 1464.76 1177.64 1463.15 1179.74 1462.0 1181.99 C 1460.86 1184.24 1459.22 1186.85 1458.37 1187.79 C 1457.53 1188.73 1455.12 1192.22 1453.02 1195.54 C 1450.93 1198.86 1448.05 1202.69 1446.62 1204.04 C 1445.2 1205.39 1444.03 1207.01 1444.02 1207.64 C 1444.01 1208.26 1440.74 1213.58 1436.75 1219.46 C 1432.76 1225.34 1429.05 1230.9 1428.5 1231.82 C 1427.95 1232.74 1425.88 1235.52 1423.89 1238.0 C 1421.91 1240.47 1417.76 1246.33 1414.68 1251.0 C 1411.59 1255.67 1406.8 1262.65 1404.02 1266.5 C 1401.25 1270.35 1398.67 1274.17 1398.3 1275.0 C 1397.93 1275.83 1396.48 1277.96 1395.07 1279.75 C 1393.65 1281.54 1392.54 1283.34 1392.59 1283.75 C 1392.65 1284.16 1390.93 1286.97 1388.78 1290.0 C 1386.63 1293.03 1383.96 1296.96 1382.84 1298.75 C 1381.72 1300.54 1380.4 1302.0 1379.91 1302.0 C 1379.43 1302.0 1378.33 1303.46 1377.48 1305.25 C 1376.63 1307.04 1375.3 1309.62 1374.52 1311.0 C 1373.75 1312.38 1371.52 1315.24 1369.56 1317.38 C 1367.6 1319.51 1366.0 1321.66 1366.0 1322.17 C 1366.0 1322.67 1365.12 1324.75 1364.05 1326.79 C 1362.98 1328.83 1360.54 1332.0 1358.62 1333.83 C 1356.7 1335.66 1354.86 1338.37 1354.53 1339.85 C 1354.21 1341.32 1352.38 1344.24 1350.47 1346.32 C 1348.56 1348.41 1347.0 1350.69 1347.0 1351.39 C 1347.0 1352.09 1345.13 1355.33 1342.85 1358.58 C 1340.57 1361.84 1337.36 1366.97 1335.72 1370.0 C 1334.08 1373.03 1331.81 1377.3 1330.68 1379.5 C 1329.55 1381.7 1327.84 1384.54 1326.88 1385.8 C 1325.92 1387.07 1324.13 1391.12 1322.91 1394.8 C 1321.69 1398.49 1320.11 1402.4 1319.4 1403.5 C 1318.68 1404.6 1317.44 1408.06 1316.62 1411.18 C 1315.81 1414.3 1314.68 1417.73 1314.11 1418.8 C 1313.54 1419.86 1313.35 1421.02 1313.7 1421.36 C 1314.04 1421.71 1313.59 1423.45 1312.7 1425.24 C 1311.8 1427.03 1310.23 1430.53 1309.2 1433.0 C 1308.14 1435.55 1307.47 1439.16 1307.65 1441.35 C 1307.82 1443.46 1307.52 1446.04 1306.97 1447.06 C 1306.42 1448.09 1305.7 1451.98 1305.37 1455.72 C 1305.04 1459.45 1304.76 1466.33 1304.73 1471.0 C 1304.71 1475.67 1304.86 1482.74 1305.07 1486.69 C 1305.28 1490.64 1305.12 1494.22 1304.7 1494.63 C 1304.29 1495.04 1303.35 1494.73 1302.62 1493.94 C 1301.89 1493.15 1300.55 1490.58 1299.65 1488.23 C 1298.74 1485.88 1297.99 1482.96 1297.97 1481.73 C 1297.95 1480.5 1297.28 1478.63 1296.47 1477.56 C 1295.66 1476.49 1295.0 1474.86 1295.0 1473.94 C 1295.0 1473.02 1294.17 1471.2 1293.16 1469.88 C 1292.14 1468.57 1290.28 1464.35 1289.02 1460.5 C 1287.75 1456.65 1286.11 1452.02 1285.36 1450.22 C 1284.61 1448.41 1284.0 1445.62 1284.0 1444.03 C 1284.0 1442.43 1283.53 1440.83 1282.96 1440.47 C 1282.38 1440.12 1281.27 1440.36 1280.49 1441.01 C 1279.71 1441.66 1279.12 1443.61 1279.18 1445.34 C 1279.25 1447.26 1278.25 1450.03 1276.65 1452.39 C 1275.19 1454.53 1273.94 1456.89 1273.88 1457.64 C 1273.81 1458.39 1273.67 1459.79 1273.58 1460.75 C 1273.48 1461.71 1272.19 1464.85 1270.7 1467.72 C 1269.22 1470.59 1267.99 1473.51 1267.98 1474.22 C 1267.96 1474.92 1264.35 1481.8 1259.94 1489.5 C 1255.54 1497.2 1249.66 1508.22 1246.89 1514.0 C 1244.11 1519.78 1241.03 1526.08 1240.04 1528.0 C 1239.05 1529.92 1237.71 1533.3 1237.05 1535.5 C 1236.4 1537.7 1235.47 1540.4 1234.98 1541.5 C 1234.5 1542.6 1233.55 1546.2 1232.86 1549.5 C 1232.18 1552.8 1231.56 1555.72 1231.48 1556.0 C 1231.39 1556.28 1231.05 1557.17 1230.72 1558.0 C 1230.38 1558.83 1229.61 1562.42 1229.0 1566.0 C 1228.4 1569.58 1227.78 1575.3 1227.64 1578.73 C 1227.49 1582.15 1227.08 1585.25 1226.72 1585.61 Z M 1300.66 1359.27 C 1300.38 1359.95 1300.17 1359.15 1300.19 1357.5 C 1300.22 1355.85 1300.44 1355.3 1300.69 1356.27 C 1300.95 1357.24 1300.93 1358.59 1300.66 1359.27 Z M 1301.0 1354.0 C 1300.45 1354.0 1300.03 1353.44 1300.07 1352.75 C 1300.11 1352.06 1300.53 1350.6 1301.0 1349.5 C 1301.72 1347.82 1301.87 1348.03 1301.93 1350.75 C 1301.97 1352.54 1301.55 1354.0 1301.0 1354.0 Z M 1301.96 1345.0 C 1301.43 1346.57 1301.33 1345.08 1301.69 1341.0 C 1302.01 1337.42 1302.43 1334.31 1302.63 1334.08 C 1302.83 1333.85 1302.96 1335.65 1302.9 1338.08 C 1302.85 1340.51 1302.42 1343.62 1301.96 1345.0 Z M 1086.68 1338.65 C 1086.44 1338.89 1085.93 1337.45 1085.56 1335.44 C 1085.18 1333.44 1085.07 1331.6 1085.32 1331.35 C 1085.56 1331.11 1086.07 1332.55 1086.44 1334.56 C 1086.82 1336.56 1086.93 1338.4 1086.68 1338.65 Z M 1084.63 1329.0 C 1084.41 1329.83 1084.18 1330.01 1084.12 1329.41 C 1084.05 1328.81 1083.08 1323.92 1081.96 1318.53 C 1080.83 1313.15 1079.71 1305.32 1079.46 1301.12 C 1079.09 1294.94 1079.57 1296.72 1082.01 1310.5 C 1083.67 1319.85 1084.84 1328.17 1084.63 1329.0 Z M 1152.38 1276.0 C 1152.11 1276.0 1152.16 1275.55 1152.5 1275.0 C 1152.84 1274.45 1153.34 1274.0 1153.62 1274.0 C 1153.89 1274.0 1153.84 1274.45 1153.5 1275.0 C 1153.16 1275.55 1152.66 1276.0 1152.38 1276.0 Z M 1155.02 1266.99 L 1154.36 1269.49 C 1153.38 1265.75 1153.92 1262.84 1155.04 1260.13 L 1156.94 1255.5 C 1155.96 1262.47 1155.38 1265.62 1155.02 1266.99 Z M 1157.6 1253.73 C 1157.27 1254.06 1157.04 1253.47 1157.08 1252.42 C 1157.13 1251.25 1157.36 1251.01 1157.68 1251.81 C 1157.97 1252.53 1157.94 1253.4 1157.6 1253.73 Z M 1078.67 1225.67 C 1078.3 1226.03 1078.0 1225.73 1078.0 1225.0 C 1078.0 1224.27 1078.3 1223.97 1078.67 1224.33 C 1079.03 1224.7 1079.03 1225.3 1078.67 1225.67 Z M 1344.54 1214.14 C 1343.74 1215.99 1343.08 1216.83 1343.08 1216.0 C 1343.09 1215.17 1343.71 1213.15 1344.46 1211.5 C 1345.22 1209.85 1345.87 1209.01 1345.92 1209.64 C 1345.96 1210.26 1345.34 1212.28 1344.54 1214.14 Z M 1080.66 1209.25 C 1080.38 1209.94 1080.16 1209.38 1080.16 1208.0 C 1080.16 1206.62 1080.38 1206.06 1080.66 1206.75 C 1080.94 1207.44 1080.94 1208.56 1080.66 1209.25 Z M 1347.0 1207.5 C 1346.45 1207.84 1346.0 1207.92 1346.0 1207.69 C 1346.0 1207.45 1348.07 1202.59 1350.6 1196.88 C 1353.13 1191.17 1356.78 1183.12 1358.71 1179.0 C 1360.64 1174.88 1365.5 1163.85 1369.49 1154.5 C 1373.49 1145.15 1377.97 1134.35 1379.45 1130.5 C 1380.93 1126.65 1382.54 1122.6 1383.02 1121.5 C 1383.49 1120.4 1385.91 1113.2 1388.38 1105.5 C 1390.85 1097.8 1393.77 1088.12 1394.86 1084.0 C 1395.95 1079.88 1398.64 1068.4 1400.84 1058.5 C 1403.04 1048.6 1405.98 1033.3 1407.37 1024.5 C 1408.77 1015.7 1410.42 1004.0 1411.03 998.5 C 1411.64 993.0 1412.75 981.08 1413.5 972.0 C 1414.42 960.75 1414.74 943.41 1414.52 917.5 C 1414.27 888.58 1413.7 874.6 1412.14 859.0 C 1411.02 847.73 1409.15 831.75 1407.99 823.5 C 1406.83 815.25 1404.35 800.4 1402.47 790.5 C 1400.6 780.6 1397.69 766.42 1396.01 759.0 C 1394.32 751.58 1391.59 740.61 1389.93 734.62 C 1388.28 728.64 1387.14 723.53 1387.4 723.26 C 1387.67 723.0 1388.76 724.74 1389.84 727.14 C 1390.91 729.54 1392.1 732.4 1392.48 733.5 C 1392.86 734.6 1394.9 742.48 1397.0 751.0 C 1399.11 759.52 1402.42 774.6 1404.35 784.5 C 1406.28 794.4 1408.57 807.45 1409.43 813.5 C 1410.29 819.55 1411.43 827.42 1411.95 831.0 C 1412.47 834.58 1413.89 847.85 1415.11 860.5 C 1416.92 879.19 1417.35 890.33 1417.42 920.0 C 1417.46 940.08 1417.16 961.67 1416.73 968.0 C 1416.31 974.33 1415.73 981.75 1415.44 984.5 C 1415.15 987.25 1414.74 991.08 1414.53 993.0 C 1414.31 994.92 1413.63 1000.55 1413.02 1005.5 C 1412.4 1010.45 1411.26 1018.55 1410.47 1023.5 C 1409.68 1028.45 1408.76 1034.3 1408.42 1036.5 C 1408.09 1038.7 1406.73 1045.67 1405.4 1052.0 C 1404.07 1058.33 1402.8 1064.17 1402.59 1065.0 C 1402.37 1065.83 1401.46 1069.42 1400.57 1073.0 C 1399.67 1076.58 1397.76 1083.55 1396.33 1088.5 C 1394.89 1093.45 1392.17 1102.0 1390.27 1107.5 C 1388.38 1113.0 1385.69 1120.42 1384.31 1124.0 C 1382.92 1127.58 1379.3 1136.35 1376.27 1143.5 C 1373.23 1150.65 1369.28 1159.65 1367.49 1163.5 C 1365.7 1167.35 1362.22 1174.78 1359.75 1180.0 C 1357.28 1185.22 1353.63 1193.0 1351.63 1197.27 C 1349.63 1201.55 1348.0 1205.46 1348.0 1205.96 C 1348.0 1206.47 1347.55 1207.16 1347.0 1207.5 Z M 1082.67 1198.67 C 1082.3 1199.03 1082.0 1198.73 1082.0 1198.0 C 1082.0 1197.27 1082.3 1196.97 1082.67 1197.33 C 1083.03 1197.7 1083.03 1198.3 1082.67 1198.67 Z M 1086.67 1182.67 C 1086.3 1183.03 1086.0 1182.73 1086.0 1182.0 C 1086.0 1181.27 1086.3 1180.97 1086.67 1181.33 C 1087.03 1181.7 1087.03 1182.3 1086.67 1182.67 Z M 1087.67 1178.67 C 1087.3 1179.03 1087.0 1178.73 1087.0 1178.0 C 1087.0 1177.27 1087.3 1176.97 1087.67 1177.33 C 1088.03 1177.7 1088.03 1178.3 1087.67 1178.67 Z M 1088.38 1175.0 C 1088.17 1175.0 1088.0 1174.35 1088.0 1173.56 C 1088.0 1172.77 1088.41 1171.87 1088.91 1171.56 C 1089.41 1171.25 1089.58 1171.9 1089.29 1173.0 C 1089.0 1174.1 1088.59 1175.0 1088.38 1175.0 Z M 1090.36 1167.92 C 1090.16 1168.15 1090.01 1167.47 1090.02 1166.42 C 1090.02 1165.36 1090.49 1163.83 1091.05 1163.0 C 1091.79 1161.9 1091.88 1162.31 1091.39 1164.5 C 1091.02 1166.15 1090.56 1167.69 1090.36 1167.92 Z M 1093.6 1156.5 C 1092.77 1159.32 1092.11 1160.51 1092.07 1159.22 C 1092.03 1157.96 1092.6 1155.49 1093.34 1153.72 C 1094.08 1151.95 1095.02 1148.7 1095.43 1146.5 C 1095.83 1144.3 1096.72 1141.15 1097.41 1139.5 C 1098.09 1137.85 1099.7 1133.35 1100.98 1129.5 C 1102.25 1125.65 1106.11 1115.3 1109.55 1106.5 C 1112.98 1097.7 1117.23 1087.35 1119.0 1083.5 C 1120.76 1079.65 1123.56 1073.58 1125.23 1070.0 C 1126.9 1066.42 1130.15 1059.67 1132.45 1055.0 C 1134.76 1050.33 1139.28 1041.55 1142.5 1035.5 C 1145.72 1029.45 1149.17 1023.15 1150.17 1021.5 C 1151.17 1019.85 1152.29 1017.83 1152.67 1017.0 C 1153.05 1016.17 1154.33 1013.92 1155.52 1012.0 C 1156.71 1010.08 1159.18 1005.8 1161.0 1002.5 C 1162.83 999.2 1165.64 994.48 1167.25 992.0 C 1168.86 989.52 1169.93 988.29 1169.62 989.25 C 1169.32 990.21 1167.48 993.48 1165.53 996.52 C 1163.59 999.55 1162.0 1002.29 1162.0 1002.6 C 1162.0 1002.91 1159.37 1007.74 1156.16 1013.33 C 1152.95 1018.92 1148.28 1027.33 1145.79 1032.0 C 1143.29 1036.67 1138.12 1046.8 1134.3 1054.5 C 1130.48 1062.2 1126.41 1070.53 1125.26 1073.0 C 1124.11 1075.47 1120.72 1083.12 1117.71 1090.0 C 1114.71 1096.88 1111.24 1105.2 1110.0 1108.5 C 1108.76 1111.8 1106.87 1116.75 1105.81 1119.5 C 1104.74 1122.25 1102.27 1129.22 1100.32 1135.0 C 1098.37 1140.78 1096.39 1146.85 1095.92 1148.5 C 1095.45 1150.15 1094.41 1153.75 1093.6 1156.5 Z M 1202.58 1155.77 C 1200.86 1157.42 1200.84 1157.4 1202.1 1155.3 C 1202.83 1154.08 1203.64 1153.31 1203.9 1153.57 C 1204.17 1153.83 1203.57 1154.82 1202.58 1155.77 Z M 1205.38 1152.0 C 1205.11 1152.0 1205.16 1151.55 1205.5 1151.0 C 1205.84 1150.45 1206.34 1150.0 1206.62 1150.0 C 1206.89 1150.0 1206.84 1150.45 1206.5 1151.0 C 1206.16 1151.55 1205.66 1152.0 1205.38 1152.0 Z M 1208.67 1148.67 C 1208.3 1149.03 1208.0 1148.73 1208.0 1148.0 C 1208.0 1147.27 1208.3 1146.97 1208.67 1147.33 C 1209.03 1147.7 1209.03 1148.3 1208.67 1148.67 Z M 1212.18 1143.38 C 1210.98 1144.97 1210.01 1145.87 1210.03 1145.38 C 1210.04 1144.9 1211.28 1143.13 1212.78 1141.46 C 1214.27 1139.79 1215.24 1138.89 1214.93 1139.46 C 1214.62 1140.03 1213.38 1141.8 1212.18 1143.38 Z M 1217.67 1136.67 C 1217.3 1137.03 1217.0 1136.73 1217.0 1136.0 C 1217.0 1135.27 1217.3 1134.97 1217.67 1135.33 C 1218.03 1135.7 1218.03 1136.3 1217.67 1136.67 Z M 1523.84 1134.97 C 1524.05 1134.34 1523.72 1133.32 1523.11 1132.71 C 1522.3 1131.9 1522.0 1132.01 1522.0 1133.13 C 1522.0 1133.98 1522.33 1134.99 1522.73 1135.4 C 1523.13 1135.8 1523.63 1135.61 1523.84 1134.97 Z M 1220.05 1133.0 C 1219.49 1133.83 1219.03 1134.05 1219.04 1133.5 C 1219.04 1132.95 1219.96 1131.38 1221.09 1130.0 C 1222.45 1128.34 1222.79 1128.17 1222.1 1129.5 C 1221.53 1130.6 1220.61 1132.17 1220.05 1133.0 Z M 1525.63 1128.89 C 1526.38 1128.27 1527.0 1127.19 1527.0 1126.5 C 1527.0 1125.81 1526.33 1124.69 1525.51 1124.01 C 1524.28 1122.99 1523.87 1123.18 1523.13 1125.14 C 1522.56 1126.62 1522.61 1127.97 1523.25 1128.76 C 1524.01 1129.71 1524.6 1129.74 1525.63 1128.89 Z M 1225.67 1124.67 C 1225.3 1125.03 1225.0 1124.73 1225.0 1124.0 C 1225.0 1123.27 1225.3 1122.97 1225.67 1123.33 C 1226.03 1123.7 1226.03 1124.3 1225.67 1124.67 Z M 1227.39 1122.0 C 1227.18 1122.0 1227.0 1121.58 1227.0 1121.06 C 1227.0 1120.54 1227.44 1119.84 1227.99 1119.51 C 1228.56 1119.16 1228.72 1119.56 1228.38 1120.45 C 1228.05 1121.3 1227.61 1122.0 1227.39 1122.0 Z M 1230.52 1116.5 L 1228.89 1118.5 C 1230.41 1115.4 1231.59 1113.6 1232.48 1112.5 L 1234.11 1110.5 C 1232.59 1113.6 1231.41 1115.4 1230.52 1116.5 Z M 1234.3 1110.0 C 1234.01 1110.0 1234.43 1108.99 1235.23 1107.75 C 1236.03 1106.51 1238.2 1102.8 1240.04 1099.5 C 1241.88 1096.2 1244.84 1090.58 1246.61 1087.0 C 1248.39 1083.42 1250.15 1079.26 1250.53 1077.75 C 1250.91 1076.24 1251.65 1075.0 1252.18 1075.0 C 1252.7 1075.0 1255.15 1070.61 1257.62 1065.25 C 1260.09 1059.89 1262.72 1054.15 1263.48 1052.5 C 1264.23 1050.85 1265.51 1047.92 1266.32 1046.0 C 1267.13 1044.08 1269.86 1037.24 1272.38 1030.82 C 1274.91 1024.39 1279.41 1011.57 1282.39 1002.32 C 1285.37 993.07 1288.71 982.58 1289.81 979.0 C 1290.91 975.42 1292.13 970.81 1292.52 968.75 C 1292.91 966.69 1293.55 965.0 1293.95 965.0 C 1294.35 965.0 1293.87 968.04 1292.89 971.75 C 1291.91 975.46 1290.23 981.65 1289.16 985.5 C 1288.08 989.35 1285.08 998.8 1282.48 1006.5 C 1279.89 1014.2 1276.22 1024.55 1274.34 1029.5 C 1272.46 1034.45 1270.32 1039.85 1269.57 1041.5 C 1268.83 1043.15 1267.21 1046.97 1265.98 1050.0 C 1264.75 1053.03 1259.7 1063.83 1254.76 1074.0 C 1249.82 1084.17 1243.32 1096.44 1240.3 1101.25 C 1237.29 1106.06 1234.58 1110.0 1234.3 1110.0 Z M 1255.67 1065.67 C 1255.3 1066.03 1255.0 1065.73 1255.0 1065.0 C 1255.0 1064.27 1255.3 1063.97 1255.67 1064.33 C 1256.03 1064.7 1256.03 1065.3 1255.67 1065.67 Z M 1256.67 1062.67 C 1256.3 1063.03 1256.0 1062.73 1256.0 1062.0 C 1256.0 1061.27 1256.3 1060.97 1256.67 1061.33 C 1257.03 1061.7 1257.03 1062.3 1256.67 1062.67 Z M 1257.67 1059.67 C 1257.3 1060.03 1257.0 1059.73 1257.0 1059.0 C 1257.0 1058.27 1257.3 1057.97 1257.67 1058.33 C 1258.03 1058.7 1258.03 1059.3 1257.67 1059.67 Z M 1258.67 1056.67 C 1258.3 1057.03 1258.0 1056.73 1258.0 1056.0 C 1258.0 1055.27 1258.3 1054.97 1258.67 1055.33 C 1259.03 1055.7 1259.03 1056.3 1258.67 1056.67 Z M 1261.6 1048.73 C 1261.27 1049.06 1261.04 1048.47 1261.08 1047.42 C 1261.13 1046.25 1261.36 1046.01 1261.68 1046.81 C 1261.97 1047.53 1261.94 1048.4 1261.6 1048.73 Z M 1262.6 1044.73 C 1262.27 1045.06 1262.04 1044.47 1262.08 1043.42 C 1262.13 1042.25 1262.36 1042.01 1262.68 1042.81 C 1262.97 1043.53 1262.94 1044.4 1262.6 1044.73 Z M 1263.67 1040.67 C 1263.3 1041.03 1263.0 1040.73 1263.0 1040.0 C 1263.0 1039.27 1263.3 1038.97 1263.67 1039.33 C 1264.03 1039.7 1264.03 1040.3 1263.67 1040.67 Z M 1267.39 1028.92 C 1267.17 1029.15 1267.0 1028.81 1267.0 1028.18 C 1267.0 1027.54 1267.95 1023.53 1269.11 1019.26 C 1270.27 1014.99 1271.64 1010.83 1272.16 1010.0 C 1272.89 1008.84 1272.98 1008.95 1272.59 1010.5 C 1272.31 1011.6 1271.11 1016.1 1269.93 1020.5 C 1268.74 1024.9 1267.6 1028.69 1267.39 1028.92 Z M 1274.32 1003.0 C 1274.03 1003.0 1274.02 1001.99 1274.31 1000.75 C 1274.6 999.51 1275.36 995.88 1276.0 992.67 C 1276.65 989.46 1277.41 987.08 1277.7 987.37 C 1277.99 987.66 1277.47 991.29 1276.54 995.45 C 1275.62 999.6 1274.62 1003.0 1274.32 1003.0 Z M 1171.72 986.0 C 1171.4 986.84 1171.12 986.97 1171.08 986.29 C 1171.04 985.62 1173.06 981.68 1175.57 977.54 C 1178.09 973.39 1180.36 970.0 1180.62 970.0 C 1180.87 970.0 1179.86 972.14 1178.36 974.75 C 1176.87 977.36 1174.89 980.62 1173.96 982.0 C 1173.04 983.38 1172.03 985.17 1171.72 986.0 Z M 1278.94 984.5 C 1278.42 985.78 1278.11 985.96 1278.08 985.0 C 1278.06 984.17 1278.69 981.25 1279.49 978.5 L 1280.95 973.5 C 1280.02 980.48 1279.38 983.4 1278.94 984.5 Z M 909.66 980.25 C 909.94 979.56 909.94 978.44 909.66 977.75 C 909.38 977.06 909.16 977.62 909.16 979.0 C 909.16 980.38 909.38 980.94 909.66 980.25 Z M 910.67 975.67 C 911.03 975.3 911.03 974.7 910.67 974.33 C 910.3 973.97 910.0 974.27 910.0 975.0 C 910.0 975.73 910.3 976.03 910.67 975.67 Z M 1281.67 972.67 C 1281.3 973.03 1281.0 972.73 1281.0 972.0 C 1281.0 971.27 1281.3 970.97 1281.67 971.33 C 1282.03 971.7 1282.03 972.3 1281.67 972.67 Z M 1182.12 968.27 C 1181.14 969.25 1181.02 969.13 1181.56 967.71 C 1181.94 966.72 1182.5 966.17 1182.81 966.47 C 1183.11 966.78 1182.81 967.59 1182.12 968.27 Z M 1185.44 962.56 C 1183.98 964.39 1183.96 964.36 1185.08 962.0 C 1185.74 960.62 1186.43 959.31 1186.64 959.08 C 1186.84 958.85 1187.0 959.11 1187.0 959.64 C 1187.0 960.18 1186.3 961.49 1185.44 962.56 Z M 1294.82 963.0 C 1294.23 963.97 1294.15 963.26 1294.57 961.0 C 1294.93 959.08 1295.62 956.83 1296.1 956.0 C 1296.64 955.07 1296.73 955.82 1296.35 958.0 C 1296.0 959.92 1295.32 962.17 1294.82 963.0 Z M 1283.33 962.97 C 1283.02 963.26 1283.1 961.48 1283.51 959.0 C 1283.91 956.52 1285.04 950.45 1286.01 945.5 C 1286.98 940.55 1287.83 937.21 1287.89 938.08 C 1287.95 938.94 1287.08 944.78 1285.95 951.04 C 1284.82 957.31 1283.64 962.68 1283.33 962.97 Z M 1189.0 957.0 C 1188.47 957.83 1188.03 958.05 1188.03 957.5 C 1188.03 956.95 1188.47 955.83 1189.0 955.0 C 1189.53 954.17 1189.97 953.95 1189.97 954.5 C 1189.97 955.05 1189.53 956.17 1189.0 957.0 Z M 1296.81 954.0 C 1296.23 954.0 1296.09 953.23 1296.49 952.25 C 1296.88 951.29 1297.34 949.83 1297.52 949.0 C 1297.7 948.17 1297.88 946.86 1297.92 946.08 C 1297.97 945.3 1298.27 944.94 1298.6 945.27 C 1298.93 945.6 1298.89 947.7 1298.51 949.93 C 1298.13 952.17 1297.37 954.0 1296.81 954.0 Z M 1193.0 950.0 C 1192.47 950.83 1192.03 951.05 1192.03 950.5 C 1192.03 949.95 1192.47 948.83 1193.0 948.0 C 1193.53 947.17 1193.97 946.95 1193.97 947.5 C 1193.97 948.05 1193.53 949.17 1193.0 950.0 Z M 1299.66 943.25 C 1299.38 943.94 1299.16 943.38 1299.16 942.0 C 1299.16 940.62 1299.38 940.06 1299.66 940.75 C 1299.94 941.44 1299.94 942.56 1299.66 943.25 Z M 1300.38 939.0 C 1300.17 939.0 1300.0 937.88 1300.0 936.5 C 1300.0 935.12 1300.39 934.0 1300.86 934.0 C 1301.34 934.0 1301.51 935.12 1301.24 936.5 C 1300.98 937.88 1300.59 939.0 1300.38 939.0 Z M 1288.69 934.75 C 1288.44 935.71 1288.23 934.92 1288.23 933.0 C 1288.23 931.08 1288.44 930.29 1288.69 931.25 C 1288.94 932.21 1288.94 933.79 1288.69 934.75 Z M 1301.44 932.89 C 1301.2 933.14 1301.0 932.7 1301.0 931.92 C 1301.0 931.14 1301.63 927.21 1302.4 923.19 C 1303.16 919.17 1304.06 915.6 1304.4 915.27 C 1304.73 914.94 1305.0 915.3 1305.0 916.08 C 1305.0 916.86 1304.3 920.86 1303.44 924.98 C 1302.58 929.09 1301.68 932.65 1301.44 932.89 Z M 1289.37 929.0 C 1289.17 929.0 1289.0 928.5 1289.0 927.89 C 1289.0 927.27 1289.74 921.19 1290.65 914.37 C 1291.56 907.55 1292.51 902.18 1292.75 902.42 C 1293.0 902.67 1292.42 908.75 1291.47 915.93 C 1290.52 923.12 1289.57 929.0 1289.37 929.0 Z M 1305.0 913.5 C 1304.45 913.84 1304.03 913.53 1304.07 912.81 C 1304.11 912.09 1304.53 910.6 1305.0 909.5 C 1305.77 907.71 1305.87 907.79 1305.93 910.19 C 1305.97 911.67 1305.55 913.16 1305.0 913.5 Z M 1306.69 905.76 C 1306.44 906.72 1306.24 905.7 1306.25 903.5 C 1306.26 901.3 1306.47 900.52 1306.71 901.76 C 1306.95 903.01 1306.94 904.81 1306.69 905.76 Z M 930.7 901.0 C 929.84 902.92 929.1 903.99 929.06 903.38 C 929.03 902.76 930.52 898.48 932.38 893.88 C 934.24 889.27 936.98 882.58 938.47 879.0 C 939.96 875.42 944.73 865.3 949.06 856.5 C 953.39 847.7 958.45 837.8 960.29 834.5 C 962.14 831.2 965.03 826.02 966.72 823.0 C 968.4 819.98 973.14 812.1 977.25 805.5 C 981.36 798.9 986.66 790.58 989.03 787.0 C 991.41 783.42 998.07 773.98 1003.84 766.0 C 1009.61 758.02 1016.84 748.35 1019.91 744.5 C 1022.98 740.65 1030.66 731.42 1036.99 724.0 C 1043.31 716.58 1055.24 703.75 1063.5 695.5 C 1071.76 687.25 1082.03 677.35 1086.32 673.5 C 1090.61 669.65 1094.66 666.32 1095.31 666.1 C 1095.97 665.87 1094.25 667.65 1091.5 670.05 C 1088.75 672.45 1078.17 682.76 1067.98 692.96 C 1057.79 703.16 1047.67 713.51 1045.48 715.96 C 1043.29 718.42 1038.64 723.82 1035.15 727.96 C 1031.65 732.11 1028.05 736.4 1027.14 737.5 C 1026.22 738.6 1023.25 742.42 1020.53 746.0 C 1017.82 749.58 1015.31 752.73 1014.96 753.0 C 1014.61 753.27 1011.17 757.8 1007.3 763.05 C 1003.44 768.3 997.63 776.63 994.39 781.55 C 991.15 786.47 988.25 790.73 987.95 791.0 C 987.65 791.27 983.13 798.48 977.9 807.0 C 972.66 815.52 966.87 825.2 965.01 828.5 C 963.16 831.8 960.09 837.42 958.19 841.0 C 956.29 844.58 952.83 851.33 950.5 856.0 C 948.17 860.67 945.06 867.2 943.58 870.5 C 942.1 873.8 940.29 877.85 939.56 879.5 C 938.82 881.15 937.25 884.98 936.06 888.0 C 934.87 891.02 933.53 894.4 933.08 895.5 C 932.64 896.6 931.57 899.08 930.7 901.0 Z M 1293.69 897.75 C 1293.44 898.71 1293.23 897.92 1293.23 896.0 C 1293.23 894.08 1293.44 893.29 1293.69 894.25 C 1293.94 895.21 1293.94 896.79 1293.69 897.75 Z M 1307.69 897.75 C 1307.44 898.71 1307.23 897.92 1307.23 896.0 C 1307.23 894.08 1307.44 893.29 1307.69 894.25 C 1307.94 895.21 1307.94 896.79 1307.69 897.75 Z M 1308.39 891.0 C 1308.18 891.0 1308.0 889.45 1308.0 887.56 C 1308.0 885.67 1308.35 883.9 1308.77 883.64 C 1309.19 883.38 1309.37 884.93 1309.16 887.08 C 1308.96 889.24 1308.61 891.0 1308.39 891.0 Z M 1294.69 887.76 C 1294.44 888.72 1294.24 887.7 1294.25 885.5 C 1294.26 883.3 1294.47 882.52 1294.71 883.76 C 1294.95 885.01 1294.94 886.81 1294.69 887.76 Z M 942.67 882.67 C 942.3 883.03 942.0 882.73 942.0 882.0 C 942.0 881.27 942.3 880.97 942.67 881.33 C 943.03 881.7 943.03 882.3 942.67 882.67 Z M 1309.51 881.5 C 1309.31 882.05 1309.12 880.61 1309.08 878.31 C 1309.04 876.0 1309.36 873.9 1309.79 873.63 C 1310.23 873.36 1310.42 874.8 1310.22 876.82 C 1310.02 878.84 1309.7 880.95 1309.51 881.5 Z M 1295.72 876.75 C 1295.49 878.26 1295.3 877.02 1295.3 874.0 C 1295.3 870.98 1295.49 869.74 1295.72 871.25 C 1295.95 872.76 1295.95 875.24 1295.72 876.75 Z M 1310.38 871.92 C 1310.17 872.15 1310.01 870.12 1310.02 867.42 C 1310.02 864.71 1310.44 861.86 1310.94 861.07 C 1311.51 860.17 1311.64 861.84 1311.3 865.57 C 1311.0 868.83 1310.59 871.69 1310.38 871.92 Z M 1296.73 862.75 C 1296.51 864.81 1296.34 863.12 1296.34 859.0 C 1296.34 854.88 1296.51 853.19 1296.73 855.25 C 1296.94 857.31 1296.94 860.69 1296.73 862.75 Z M 1311.72 856.27 C 1311.5 858.05 1311.32 856.35 1311.33 852.5 C 1311.33 848.65 1311.51 847.2 1311.73 849.27 C 1311.95 851.35 1311.94 854.5 1311.72 856.27 Z M 1297.75 832.19 C 1297.59 842.26 1297.45 834.3 1297.45 814.5 C 1297.45 794.7 1297.58 786.46 1297.75 796.19 C 1297.91 805.91 1297.91 822.11 1297.75 832.19 Z M 1312.66 844.25 C 1312.38 844.94 1312.16 844.38 1312.16 843.0 C 1312.16 841.62 1312.38 841.06 1312.66 841.75 C 1312.94 842.44 1312.94 843.56 1312.66 844.25 Z M 1312.65 840.0 C 1312.29 840.0 1311.98 830.44 1311.95 818.75 C 1311.92 807.06 1311.72 795.7 1311.5 793.5 C 1311.28 791.3 1310.87 786.35 1310.59 782.5 C 1310.21 777.27 1310.35 775.97 1311.14 777.34 C 1311.79 778.47 1312.42 791.0 1312.75 809.59 C 1313.06 826.32 1313.01 840.0 1312.65 840.0 Z M 1310.66 774.25 C 1310.38 774.94 1310.16 774.38 1310.16 773.0 C 1310.16 771.62 1310.38 771.06 1310.66 771.75 C 1310.94 772.44 1310.94 773.56 1310.66 774.25 Z M 1309.66 764.27 C 1309.38 764.95 1309.17 764.15 1309.19 762.5 C 1309.22 760.85 1309.44 760.3 1309.69 761.27 C 1309.95 762.24 1309.93 763.59 1309.66 764.27 Z M 1515.67 761.67 C 1516.03 761.3 1516.03 760.7 1515.67 760.33 C 1515.3 759.97 1515.0 760.27 1515.0 761.0 C 1515.0 761.73 1515.3 762.03 1515.67 761.67 Z M 1308.66 756.27 C 1308.38 756.95 1308.17 756.15 1308.19 754.5 C 1308.22 752.85 1308.44 752.3 1308.69 753.27 C 1308.95 754.24 1308.93 755.59 1308.66 756.27 Z M 1294.67 743.67 C 1294.3 744.03 1294.0 743.73 1294.0 743.0 C 1294.0 742.27 1294.3 741.97 1294.67 742.33 C 1295.03 742.7 1295.03 743.3 1294.67 743.67 Z M 1293.66 733.27 C 1293.38 733.95 1293.17 733.15 1293.19 731.5 C 1293.22 729.85 1293.44 729.3 1293.69 730.27 C 1293.95 731.24 1293.93 732.59 1293.66 733.27 Z M 1304.66 731.25 C 1304.38 731.94 1304.16 731.38 1304.16 730.0 C 1304.16 728.62 1304.38 728.06 1304.66 728.75 C 1304.94 729.44 1304.94 730.56 1304.66 731.25 Z M 1303.66 726.25 C 1303.38 726.94 1303.16 726.38 1303.16 725.0 C 1303.16 723.62 1303.38 723.06 1303.66 723.75 C 1303.94 724.44 1303.94 725.56 1303.66 726.25 Z M 1292.69 724.76 C 1292.44 725.72 1292.24 724.7 1292.25 722.5 C 1292.26 720.3 1292.47 719.52 1292.71 720.76 C 1292.95 722.01 1292.94 723.81 1292.69 724.76 Z M 1386.65 721.29 C 1386.29 722.16 1386.14 722.17 1386.08 721.33 C 1386.04 720.69 1385.74 719.34 1385.42 718.33 C 1384.88 716.59 1384.91 716.59 1386.0 718.29 C 1386.63 719.27 1386.92 720.62 1386.65 721.29 Z M 1302.6 720.73 C 1302.27 721.06 1302.04 720.47 1302.08 719.42 C 1302.13 718.25 1302.36 718.01 1302.68 718.81 C 1302.97 719.53 1302.94 720.4 1302.6 720.73 Z M 1301.6 715.73 C 1301.27 716.06 1301.04 715.47 1301.08 714.42 C 1301.13 713.25 1301.36 713.01 1301.68 713.81 C 1301.97 714.53 1301.94 715.4 1301.6 715.73 Z M 1291.67 714.67 C 1291.3 715.03 1291.0 714.73 1291.0 714.0 C 1291.0 713.27 1291.3 712.97 1291.67 713.33 C 1292.03 713.7 1292.03 714.3 1291.67 714.67 Z M 1300.67 711.67 C 1300.3 712.03 1300.0 711.73 1300.0 711.0 C 1300.0 710.27 1300.3 709.97 1300.67 710.33 C 1301.03 710.7 1301.03 711.3 1300.67 711.67 Z M 1290.66 709.27 C 1290.38 709.95 1290.17 709.15 1290.19 707.5 C 1290.22 705.85 1290.44 705.3 1290.69 706.27 C 1290.95 707.24 1290.93 708.59 1290.66 709.27 Z M 1299.6 708.73 C 1299.27 709.06 1299.04 708.47 1299.08 707.42 C 1299.13 706.25 1299.36 706.01 1299.68 706.81 C 1299.97 707.53 1299.94 708.4 1299.6 708.73 Z M 1289.66 703.25 C 1289.38 703.94 1289.16 703.38 1289.16 702.0 C 1289.16 700.62 1289.38 700.06 1289.66 700.75 C 1289.94 701.44 1289.94 702.56 1289.66 703.25 Z M 1296.67 698.67 C 1296.3 699.03 1296.0 698.73 1296.0 698.0 C 1296.0 697.27 1296.3 696.97 1296.67 697.33 C 1297.03 697.7 1297.03 698.3 1296.67 698.67 Z M 1288.66 697.25 C 1288.38 697.94 1288.16 697.38 1288.16 696.0 C 1288.16 694.62 1288.38 694.06 1288.66 694.75 C 1288.94 695.44 1288.94 696.56 1288.66 697.25 Z M 1193.71 693.77 C 1193.49 695.27 1193.3 693.8 1193.31 690.5 C 1193.32 687.2 1193.5 685.97 1193.72 687.77 C 1193.95 689.57 1193.94 692.27 1193.71 693.77 Z M 1295.67 695.66 C 1295.43 695.9 1294.94 694.89 1294.57 693.43 C 1294.2 691.96 1294.1 690.57 1294.33 690.34 C 1294.57 690.1 1295.06 691.11 1295.43 692.57 C 1295.8 694.04 1295.9 695.43 1295.67 695.66 Z M 1287.67 692.67 C 1287.3 693.03 1287.0 692.73 1287.0 692.0 C 1287.0 691.27 1287.3 690.97 1287.67 691.33 C 1288.03 691.7 1288.03 692.3 1287.67 692.67 Z M 1286.6 689.73 C 1286.27 690.06 1286.04 689.47 1286.08 688.42 C 1286.13 687.25 1286.36 687.01 1286.68 687.81 C 1286.97 688.53 1286.94 689.4 1286.6 689.73 Z M 1290.67 683.67 C 1290.3 684.03 1290.0 683.73 1290.0 683.0 C 1290.0 682.27 1290.3 681.97 1290.67 682.33 C 1291.03 682.7 1291.03 683.3 1290.67 683.67 Z M 1194.71 681.25 C 1194.47 682.49 1194.27 681.48 1194.27 679.0 C 1194.27 676.52 1194.47 675.51 1194.71 676.75 C 1194.94 677.99 1194.94 680.01 1194.71 681.25 Z M 1289.67 680.67 C 1289.3 681.03 1289.0 680.73 1289.0 680.0 C 1289.0 679.27 1289.3 678.97 1289.67 679.33 C 1290.03 679.7 1290.03 680.3 1289.67 680.67 Z M 1193.71 666.77 C 1193.49 668.27 1193.3 666.8 1193.31 663.5 C 1193.32 660.2 1193.5 658.97 1193.72 660.77 C 1193.95 662.57 1193.94 665.27 1193.71 666.77 Z M 1096.94 665.0 C 1096.42 665.0 1096.0 664.82 1096.0 664.61 C 1096.0 664.39 1096.7 663.95 1097.55 663.62 C 1098.44 663.28 1098.84 663.44 1098.49 664.01 C 1098.16 664.56 1097.46 665.0 1096.94 665.0 Z M 1107.29 656.44 C 1105.87 656.98 1105.75 656.86 1106.73 655.88 C 1107.41 655.19 1108.22 654.89 1108.53 655.19 C 1108.83 655.5 1108.28 656.06 1107.29 656.44 Z M 1192.66 655.27 C 1192.38 655.95 1192.17 655.15 1192.19 653.5 C 1192.22 651.85 1192.44 651.3 1192.69 652.27 C 1192.95 653.24 1192.93 654.59 1192.66 655.27 Z M 1359.85 651.48 C 1359.57 651.77 1359.03 651.7 1358.67 651.33 C 1358.3 650.97 1358.0 650.2 1358.0 649.63 C 1358.0 649.01 1358.47 649.07 1359.18 649.78 C 1359.83 650.43 1360.13 651.2 1359.85 651.48 Z M 1356.0 648.0 C 1355.45 648.0 1355.0 647.52 1355.0 646.94 C 1355.0 646.36 1355.45 646.16 1356.0 646.5 C 1356.55 646.84 1357.0 647.32 1357.0 647.56 C 1357.0 647.8 1356.55 648.0 1356.0 648.0 Z M 1353.62 645.0 C 1353.41 645.0 1352.63 644.21 1351.87 643.25 C 1350.63 641.66 1350.66 641.63 1352.25 642.87 C 1353.21 643.63 1354.0 644.41 1354.0 644.62 C 1354.0 644.83 1353.83 645.0 1353.62 645.0 Z M 1348.0 639.0 C 1347.27 639.0 1346.97 638.7 1347.33 638.33 C 1347.7 637.97 1348.3 637.97 1348.67 638.33 C 1349.03 638.7 1348.73 639.0 1348.0 639.0 Z M 1344.56 635.0 C 1344.32 635.0 1343.8 634.48 1343.4 633.85 C 1342.96 633.13 1343.13 632.96 1343.85 633.4 C 1344.48 633.8 1345.0 634.32 1345.0 634.56 C 1345.0 634.8 1344.8 635.0 1344.56 635.0 Z M 1231.79 623.91 C 1225.58 623.86 1216.9 623.2 1212.5 622.44 C 1208.1 621.69 1202.03 620.56 1199.0 619.95 C 1195.97 619.33 1189.43 617.58 1184.47 616.05 C 1179.5 614.52 1171.62 611.4 1166.97 609.12 C 1162.31 606.85 1156.37 603.41 1153.76 601.49 C 1151.16 599.57 1147.92 596.25 1146.57 594.12 C 1145.23 591.98 1142.18 588.68 1139.81 586.77 C 1137.44 584.87 1134.77 583.05 1133.89 582.74 C 1133.0 582.42 1130.52 580.0 1128.39 577.34 C 1126.25 574.69 1123.74 571.67 1122.8 570.63 C 1121.87 569.58 1120.36 566.21 1119.46 563.12 C 1118.56 560.03 1117.39 556.43 1116.87 555.11 C 1116.35 553.8 1116.2 550.65 1116.55 548.11 C 1116.9 545.58 1118.11 540.66 1119.25 537.18 C 1121.29 530.94 1121.4 530.83 1128.14 527.43 C 1131.89 525.54 1138.23 522.7 1142.23 521.12 C 1146.23 519.53 1154.45 516.86 1160.5 515.18 C 1166.55 513.5 1176.0 511.31 1181.5 510.32 C 1189.48 508.87 1196.66 508.51 1217.0 508.52 C 1241.58 508.54 1243.13 508.66 1260.0 511.83 C 1269.62 513.64 1279.3 515.56 1281.5 516.1 C 1283.7 516.64 1286.4 517.47 1287.5 517.95 C 1288.6 518.43 1290.4 519.16 1291.5 519.57 C 1292.6 519.99 1293.72 520.4 1294.0 520.5 C 1294.28 520.6 1295.4 521.02 1296.5 521.44 C 1297.6 521.87 1300.08 522.95 1302.0 523.85 C 1303.92 524.74 1305.95 525.48 1306.5 525.49 C 1307.05 525.5 1307.72 525.73 1308.0 526.0 C 1308.28 526.27 1310.22 527.29 1312.32 528.27 C 1314.42 529.24 1316.63 529.73 1317.22 529.36 C 1317.83 528.98 1318.02 529.15 1317.66 529.75 C 1317.29 530.34 1318.79 531.73 1321.06 532.91 C 1323.29 534.08 1326.1 535.96 1327.31 537.09 C 1328.51 538.23 1330.31 539.61 1331.31 540.15 C 1333.03 541.09 1333.04 540.97 1331.52 537.82 C 1330.64 535.99 1329.46 533.67 1328.89 532.65 C 1328.32 531.64 1328.12 530.55 1328.43 530.24 C 1328.74 529.92 1329.17 529.85 1329.38 530.08 C 1329.6 530.31 1331.81 534.57 1334.3 539.55 C 1336.79 544.53 1339.53 549.2 1340.4 549.92 C 1341.27 550.64 1341.75 551.6 1341.47 552.05 C 1341.19 552.51 1341.75 553.34 1342.73 553.91 C 1343.7 554.48 1344.14 554.95 1343.69 554.97 C 1343.25 554.99 1343.57 556.24 1344.4 557.75 C 1345.23 559.26 1346.38 562.9 1346.96 565.83 C 1347.54 568.77 1347.76 571.58 1347.45 572.08 C 1347.14 572.59 1347.36 573.0 1347.94 573.0 C 1348.52 573.0 1349.0 572.47 1349.0 571.83 C 1349.0 571.19 1349.27 570.93 1349.59 571.26 C 1349.92 571.58 1349.71 573.35 1349.12 575.18 C 1348.54 577.0 1347.8 580.19 1347.48 582.25 C 1347.08 584.91 1345.64 587.25 1342.54 590.31 C 1339.48 593.32 1337.94 595.8 1337.43 598.56 C 1336.97 600.99 1335.45 603.75 1333.44 605.75 C 1331.66 607.54 1329.64 609.0 1328.97 609.0 C 1328.29 609.0 1328.95 608.04 1330.44 606.87 C 1331.93 605.7 1333.51 603.78 1333.94 602.62 C 1334.38 601.45 1335.08 599.39 1335.5 598.04 C 1336.22 595.72 1336.15 595.66 1334.26 597.04 C 1333.16 597.84 1329.61 600.34 1326.38 602.58 C 1323.14 604.82 1318.7 607.63 1316.5 608.81 C 1314.3 610.0 1311.15 611.51 1309.5 612.18 C 1307.85 612.85 1305.38 613.48 1304.0 613.57 C 1302.62 613.66 1297.67 614.69 1293.0 615.86 C 1288.33 617.03 1283.6 617.97 1282.5 617.96 C 1281.4 617.94 1282.9 617.06 1285.83 616.01 C 1288.77 614.95 1294.84 612.28 1299.33 610.07 C 1303.83 607.86 1308.62 605.12 1310.0 603.98 C 1311.38 602.83 1308.36 603.94 1303.31 606.43 C 1298.25 608.92 1290.35 612.52 1285.75 614.42 C 1281.15 616.33 1274.04 618.78 1269.94 619.87 C 1265.85 620.96 1258.13 622.34 1252.79 622.93 C 1247.45 623.52 1238.0 623.96 1231.79 623.91 Z M 1301.19 615.98 C 1299.73 615.97 1299.71 615.84 1301.0 615.0 C 1301.83 614.47 1302.86 614.02 1303.31 614.02 C 1303.75 614.01 1303.84 614.45 1303.5 615.0 C 1303.16 615.55 1302.12 615.99 1301.19 615.98 Z M 1335.96 609.0 C 1334.24 610.92 1333.18 611.83 1333.6 611.0 C 1334.03 610.17 1336.02 607.25 1338.02 604.5 C 1340.03 601.75 1343.64 596.26 1346.04 592.29 C 1348.45 588.32 1350.57 585.23 1350.75 585.42 C 1350.94 585.61 1350.14 587.51 1348.96 589.63 C 1347.78 591.76 1345.4 595.75 1343.67 598.5 C 1341.95 601.25 1340.21 603.95 1339.81 604.5 C 1339.41 605.05 1337.68 607.08 1335.96 609.0 Z M 1118.7 600.0 C 1118.55 600.0 1116.61 598.09 1114.4 595.75 C 1112.18 593.41 1109.22 589.67 1107.8 587.44 C 1106.38 585.21 1104.22 581.16 1102.99 578.44 C 1101.77 575.72 1100.56 573.16 1100.32 572.75 C 1100.08 572.34 1100.13 572.0 1100.43 572.0 C 1100.73 572.0 1102.75 575.49 1104.91 579.75 C 1107.07 584.01 1111.12 590.31 1113.91 593.75 C 1116.71 597.19 1118.86 600.0 1118.7 600.0 Z M 1132.88 596.98 C 1132.55 596.99 1130.97 596.0 1129.38 594.79 C 1127.8 593.57 1123.98 590.18 1120.9 587.26 C 1117.82 584.34 1114.16 579.6 1112.75 576.72 C 1111.34 573.85 1109.43 569.64 1108.5 567.37 C 1107.57 565.1 1107.0 562.4 1107.23 561.37 C 1107.5 560.2 1108.33 561.71 1109.44 565.37 C 1110.41 568.61 1112.17 572.88 1113.34 574.87 C 1114.51 576.87 1116.38 579.58 1117.49 580.9 C 1118.59 582.22 1122.65 586.37 1126.5 590.13 C 1130.35 593.88 1133.22 596.97 1132.88 596.98 Z M 1129.64 585.0 C 1129.47 585.0 1127.41 582.95 1125.06 580.45 C 1122.72 577.95 1119.49 573.46 1117.9 570.47 C 1116.3 567.48 1115.03 563.79 1115.06 562.27 C 1115.11 560.21 1115.69 561.1 1117.31 565.73 C 1118.62 569.46 1121.6 574.57 1124.73 578.48 C 1127.6 582.07 1129.81 585.0 1129.64 585.0 Z M 1115.66 558.25 C 1115.38 558.94 1115.16 558.38 1115.16 557.0 C 1115.16 555.62 1115.38 555.06 1115.66 555.75 C 1115.94 556.44 1115.94 557.56 1115.66 558.25 Z M 1104.38 531.0 C 1104.11 531.0 1104.16 530.55 1104.5 530.0 C 1104.84 529.45 1105.34 529.0 1105.62 529.0 C 1105.89 529.0 1105.84 529.45 1105.5 530.0 C 1105.16 530.55 1104.66 531.0 1104.38 531.0 Z M 1107.38 529.0 C 1107.11 529.0 1107.16 528.55 1107.5 528.0 C 1107.84 527.45 1108.34 527.0 1108.62 527.0 C 1108.89 527.0 1108.84 527.45 1108.5 528.0 C 1108.16 528.55 1107.66 529.0 1107.38 529.0 Z M 1327.81 528.53 C 1327.5 528.83 1326.94 528.28 1326.56 527.29 C 1326.02 525.87 1326.14 525.75 1327.12 526.73 C 1327.81 527.41 1328.11 528.22 1327.81 528.53 Z M 1316.0 528.0 C 1315.27 528.0 1314.97 527.7 1315.33 527.33 C 1315.7 526.97 1316.3 526.97 1316.67 527.33 C 1317.03 527.7 1316.73 528.0 1316.0 528.0 Z M 1314.0 526.0 C 1313.27 526.0 1312.97 525.7 1313.33 525.33 C 1313.7 524.97 1314.3 524.97 1314.67 525.33 C 1315.03 525.7 1314.73 526.0 1314.0 526.0 Z M 1118.5 523.97 C 1117.95 523.97 1118.17 523.53 1119.0 523.0 C 1119.83 522.47 1120.95 522.03 1121.5 522.03 C 1122.05 522.03 1121.83 522.47 1121.0 523.0 C 1120.17 523.53 1119.05 523.97 1118.5 523.97 Z M 1311.48 523.96 C 1310.94 523.93 1308.47 522.74 1306.0 521.29 C 1303.53 519.85 1297.22 517.17 1292.0 515.32 C 1286.78 513.48 1275.97 510.67 1268.0 509.07 C 1260.03 507.47 1248.33 505.59 1242.0 504.89 C 1235.67 504.19 1220.83 503.6 1209.0 503.59 C 1196.67 503.58 1183.45 504.13 1178.0 504.88 C 1172.78 505.6 1165.8 506.78 1162.5 507.51 C 1159.2 508.23 1153.12 509.8 1149.0 510.99 C 1144.88 512.17 1139.54 514.04 1137.14 515.13 C 1134.74 516.22 1132.57 516.9 1132.31 516.64 C 1132.05 516.38 1133.95 515.23 1136.54 514.08 C 1139.13 512.94 1141.78 512.0 1142.43 512.0 C 1143.07 512.0 1144.03 511.58 1144.55 511.07 C 1145.07 510.57 1149.96 509.0 1155.4 507.59 C 1160.85 506.18 1170.52 504.3 1176.9 503.4 C 1183.89 502.42 1195.65 501.75 1206.5 501.72 C 1216.4 501.69 1228.55 501.99 1233.5 502.4 C 1238.45 502.81 1248.52 504.0 1255.87 505.05 C 1263.22 506.1 1274.42 508.33 1280.75 510.02 C 1287.07 511.71 1295.07 514.37 1298.51 515.93 C 1301.95 517.49 1306.5 519.94 1308.61 521.38 C 1310.73 522.82 1312.02 523.98 1311.48 523.96 Z M 1126.97 519.86 C 1125.3 520.44 1124.17 520.53 1124.46 520.06 C 1124.76 519.58 1126.36 518.72 1128.03 518.14 C 1129.7 517.56 1130.83 517.47 1130.54 517.94 C 1130.24 518.42 1128.64 519.28 1126.97 519.86 Z " opacity="1.0" fill="#000000" stroke="none" fill-rule="evenodd"/><path d="M 1225.0 1582.0 C 1224.45 1582.0 1224.0 1581.6 1224.0 1581.12 C 1224.0 1580.63 1223.1 1580.0 1222.0 1579.71 C 1220.69 1579.37 1220.0 1578.35 1220.0 1576.75 C 1220.0 1575.41 1219.1 1573.5 1218.0 1572.5 C 1216.9 1571.5 1216.0 1570.18 1216.0 1569.56 C 1216.0 1568.93 1213.75 1566.21 1211.0 1563.5 C 1208.25 1560.79 1206.0 1558.07 1206.0 1557.44 C 1206.0 1556.82 1205.1 1555.5 1204.0 1554.5 C 1202.9 1553.5 1202.0 1552.16 1202.0 1551.52 C 1202.0 1550.88 1200.85 1549.27 1199.44 1547.95 C 1198.03 1546.62 1195.58 1542.81 1193.98 1539.46 C 1192.39 1536.12 1190.14 1532.54 1189.0 1531.5 C 1187.86 1530.46 1185.61 1526.86 1184.0 1523.5 C 1182.39 1520.14 1180.14 1516.53 1178.99 1515.49 C 1177.85 1514.46 1176.18 1512.01 1175.29 1510.05 C 1174.41 1508.1 1172.31 1505.04 1170.64 1503.25 C 1168.97 1501.46 1167.12 1500.0 1166.52 1500.0 C 1165.92 1500.0 1163.3 1497.85 1160.71 1495.22 C 1158.12 1492.58 1156.0 1489.98 1156.0 1489.42 C 1156.0 1488.87 1154.09 1486.59 1151.75 1484.35 C 1149.41 1482.11 1146.71 1480.01 1145.75 1479.67 C 1144.79 1479.34 1144.0 1478.44 1144.0 1477.69 C 1144.0 1476.93 1143.1 1475.5 1142.0 1474.5 C 1140.9 1473.5 1140.0 1472.16 1140.0 1471.52 C 1140.0 1470.88 1138.86 1469.28 1137.47 1467.97 C 1136.07 1466.66 1133.14 1461.91 1130.95 1457.41 C 1128.77 1452.91 1126.31 1448.67 1125.49 1447.99 C 1124.67 1447.31 1124.0 1445.75 1124.0 1444.53 C 1124.0 1443.31 1123.1 1441.5 1122.0 1440.5 C 1120.9 1439.5 1120.0 1437.69 1120.0 1436.47 C 1120.0 1435.25 1119.33 1433.69 1118.52 1433.02 C 1117.71 1432.34 1116.36 1430.42 1115.52 1428.74 C 1114.68 1427.06 1114.0 1424.44 1114.0 1422.91 C 1114.0 1421.37 1113.55 1419.84 1113.0 1419.5 C 1112.45 1419.16 1112.0 1417.39 1112.0 1415.56 C 1112.0 1413.74 1111.33 1411.69 1110.52 1411.02 C 1109.71 1410.34 1108.36 1408.42 1107.52 1406.74 C 1106.68 1405.06 1106.0 1402.04 1106.0 1400.02 C 1106.0 1397.4 1105.29 1395.68 1103.5 1394.0 L 1101.0 1391.65 C 1096.11 1396.25 1096.0 1396.86 1096.0 1408.12 C 1096.0 1414.88 1096.43 1420.14 1097.0 1420.5 C 1097.55 1420.84 1098.0 1422.19 1098.0 1423.5 C 1098.0 1424.81 1098.45 1426.16 1099.0 1426.5 C 1099.55 1426.84 1100.0 1429.54 1100.0 1432.5 C 1100.0 1435.46 1100.45 1438.16 1101.0 1438.5 C 1101.55 1438.84 1102.0 1440.19 1102.0 1441.5 C 1102.0 1442.81 1102.45 1444.16 1103.0 1444.5 C 1103.55 1444.84 1104.0 1446.63 1104.0 1448.48 C 1104.0 1450.32 1104.56 1452.04 1105.25 1452.3 C 1106.17 1452.64 1106.04 1453.25 1104.76 1454.58 C 1103.08 1456.35 1102.97 1456.35 1101.54 1454.45 C 1100.73 1453.38 1100.05 1451.51 1100.03 1450.31 C 1100.01 1449.1 1099.55 1447.84 1099.0 1447.5 C 1098.45 1447.16 1098.0 1445.85 1098.0 1444.6 C 1098.0 1443.34 1097.1 1441.5 1096.0 1440.5 C 1094.9 1439.5 1094.0 1437.66 1094.0 1436.4 C 1094.0 1435.15 1093.55 1433.84 1093.0 1433.5 C 1092.45 1433.16 1092.0 1432.02 1092.0 1430.97 C 1092.0 1429.92 1091.1 1427.46 1090.0 1425.5 C 1088.9 1423.54 1088.0 1420.63 1088.0 1419.03 C 1088.0 1417.43 1087.55 1415.84 1087.0 1415.5 C 1086.45 1415.16 1086.0 1413.81 1086.0 1412.5 C 1086.0 1411.19 1085.55 1409.84 1085.0 1409.5 C 1084.45 1409.16 1084.0 1408.02 1084.0 1406.97 C 1084.0 1405.92 1083.1 1403.46 1082.0 1401.5 C 1080.9 1399.54 1080.0 1397.08 1080.0 1396.03 C 1080.0 1394.98 1079.55 1393.84 1079.0 1393.5 C 1078.45 1393.16 1078.0 1391.36 1078.0 1389.5 C 1078.0 1387.64 1077.55 1385.84 1077.0 1385.5 C 1076.45 1385.16 1076.0 1384.05 1076.0 1383.04 C 1076.0 1382.03 1074.65 1378.64 1073.0 1375.5 C 1071.35 1372.36 1070.0 1368.97 1070.0 1367.96 C 1070.0 1366.95 1069.55 1365.84 1069.0 1365.5 C 1068.45 1365.16 1068.0 1362.91 1068.0 1360.5 C 1068.0 1358.09 1067.55 1355.84 1067.0 1355.5 C 1066.45 1355.16 1066.0 1354.02 1066.0 1352.97 C 1066.0 1351.92 1065.1 1349.46 1064.0 1347.5 C 1062.9 1345.54 1062.0 1343.08 1062.0 1342.03 C 1062.0 1340.98 1061.55 1339.84 1061.0 1339.5 C 1060.45 1339.16 1060.0 1337.81 1060.0 1336.5 C 1060.0 1335.19 1059.55 1333.84 1059.0 1333.5 C 1058.45 1333.16 1058.0 1332.02 1058.0 1330.97 C 1058.0 1329.92 1057.1 1327.46 1056.0 1325.5 C 1054.9 1323.54 1054.0 1321.29 1054.0 1320.5 C 1054.0 1319.71 1053.1 1317.46 1052.0 1315.5 C 1050.9 1313.54 1050.0 1311.32 1050.0 1310.57 C 1050.0 1309.82 1048.65 1306.64 1047.0 1303.5 C 1045.35 1300.36 1044.0 1297.18 1044.0 1296.43 C 1044.0 1295.68 1043.1 1293.46 1042.0 1291.5 C 1040.9 1289.54 1040.0 1287.35 1040.0 1286.62 C 1040.0 1285.9 1039.32 1283.94 1038.48 1282.26 C 1037.64 1280.58 1036.29 1278.66 1035.48 1277.98 C 1034.67 1277.31 1034.0 1275.75 1034.0 1274.53 C 1034.0 1273.31 1033.1 1271.5 1032.0 1270.5 C 1030.9 1269.5 1030.0 1267.72 1030.0 1266.53 C 1030.0 1265.35 1028.65 1263.08 1027.0 1261.5 C 1025.35 1259.92 1024.0 1257.86 1024.0 1256.91 C 1024.0 1255.97 1022.65 1252.64 1021.0 1249.5 C 1019.35 1246.36 1018.0 1242.52 1018.0 1240.96 C 1018.0 1239.4 1017.55 1237.84 1017.0 1237.5 C 1016.45 1237.16 1016.0 1235.85 1016.0 1234.6 C 1016.0 1233.34 1015.1 1231.5 1014.0 1230.5 C 1012.9 1229.5 1012.0 1227.93 1012.0 1227.0 C 1012.0 1226.07 1011.33 1223.96 1010.51 1222.32 C 1009.69 1220.67 1008.11 1218.5 1007.0 1217.5 C 1005.04 1215.72 1004.91 1215.74 1002.49 1218.01 C 1000.11 1220.24 1000.0 1220.87 1000.0 1232.12 C 1000.0 1238.88 1000.43 1244.14 1001.0 1244.5 C 1001.55 1244.84 1002.0 1248.89 1002.0 1253.5 C 1002.0 1258.11 1002.45 1262.16 1003.0 1262.5 C 1003.55 1262.84 1004.0 1265.09 1004.0 1267.5 C 1004.0 1269.91 1004.45 1272.16 1005.0 1272.5 C 1005.55 1272.84 1006.0 1275.09 1006.0 1277.5 C 1006.0 1279.91 1006.45 1282.16 1007.0 1282.5 C 1007.55 1282.84 1008.0 1284.67 1008.0 1286.56 C 1008.0 1288.45 1008.37 1290.0 1008.83 1290.0 C 1009.29 1290.0 1010.3 1291.24 1011.08 1292.75 C 1011.86 1294.26 1012.93 1295.81 1013.47 1296.2 C 1014.0 1296.58 1014.14 1297.19 1013.77 1297.56 C 1013.4 1297.93 1011.97 1296.94 1010.58 1295.37 C 1009.2 1293.79 1008.05 1291.94 1008.03 1291.25 C 1008.01 1290.56 1007.6 1290.0 1007.12 1290.0 C 1006.63 1290.0 1004.59 1286.66 1002.57 1282.59 C 1000.56 1278.51 998.26 1274.63 997.46 1273.96 C 996.66 1273.3 996.0 1272.2 996.0 1271.53 C 996.0 1270.86 995.1 1269.5 994.0 1268.5 C 992.9 1267.5 992.0 1266.14 992.0 1265.47 C 992.0 1264.8 991.3 1263.67 990.45 1262.96 C 989.6 1262.25 988.06 1259.83 987.03 1257.59 C 986.0 1255.34 983.54 1251.95 981.58 1250.05 C 979.61 1248.16 978.0 1246.09 978.0 1245.46 C 978.0 1244.83 977.1 1243.5 976.0 1242.5 C 974.9 1241.5 974.0 1240.15 974.0 1239.5 C 974.0 1238.85 973.1 1237.5 972.0 1236.5 C 970.9 1235.5 970.0 1234.14 970.0 1233.47 C 970.0 1232.8 969.34 1231.69 968.52 1231.02 C 967.71 1230.34 965.83 1227.25 964.35 1224.15 C 962.87 1221.04 961.01 1217.73 960.22 1216.8 C 959.42 1215.86 957.7 1212.97 956.39 1210.38 C 955.07 1207.78 954.0 1204.89 954.0 1203.95 C 954.0 1203.01 953.34 1201.69 952.52 1201.02 C 951.71 1200.34 949.83 1197.25 948.35 1194.15 C 946.87 1191.04 945.01 1187.73 944.22 1186.8 C 943.42 1185.86 941.7 1182.97 940.39 1180.38 C 939.07 1177.78 938.0 1174.86 938.0 1173.89 C 938.0 1172.92 937.55 1171.84 937.0 1171.5 C 936.45 1171.16 936.0 1170.02 936.0 1168.97 C 936.0 1167.92 935.1 1165.46 934.0 1163.5 C 932.9 1161.54 932.0 1158.63 932.0 1157.03 C 932.0 1155.43 931.55 1153.84 931.0 1153.5 C 930.45 1153.16 930.0 1151.81 930.0 1150.5 C 930.0 1149.19 929.55 1147.84 929.0 1147.5 C 928.45 1147.16 928.0 1145.81 928.0 1144.5 C 928.0 1143.19 927.55 1141.84 927.0 1141.5 C 926.45 1141.16 926.0 1139.36 926.0 1137.5 C 926.0 1135.64 925.55 1133.84 925.0 1133.5 C 924.45 1133.16 924.0 1131.4 924.0 1129.6 C 924.0 1127.58 923.23 1125.61 922.0 1124.5 C 920.59 1123.23 920.0 1121.42 920.0 1118.4 C 920.0 1116.05 919.55 1113.84 919.0 1113.5 C 918.45 1113.16 918.0 1109.56 918.0 1105.5 C 918.0 1101.44 917.55 1097.84 917.0 1097.5 C 916.45 1097.16 916.0 1094.46 916.0 1091.5 C 916.0 1088.54 915.55 1085.84 915.0 1085.5 C 914.45 1085.16 914.0 1080.68 914.0 1075.5 C 914.0 1070.32 913.55 1065.84 913.0 1065.5 C 912.42 1065.14 912.0 1059.68 912.0 1052.5 C 912.0 1045.32 911.58 1039.86 911.0 1039.5 C 910.45 1039.16 910.0 1034.89 910.0 1030.0 C 910.0 1025.11 910.45 1020.84 911.0 1020.5 C 911.56 1020.15 912.0 1015.34 912.0 1009.5 C 912.0 1003.66 912.44 998.85 913.0 998.5 C 913.55 998.16 914.0 995.21 914.0 991.94 C 914.0 987.17 913.69 986.0 912.41 986.0 C 911.53 986.0 910.58 985.1 910.29 984.0 C 910.0 982.9 909.45 982.0 909.06 982.0 C 908.67 982.0 907.37 983.04 906.17 984.31 C 904.67 985.92 904.0 987.89 904.0 990.76 C 904.0 993.03 903.55 995.16 903.0 995.5 C 902.45 995.84 902.0 998.09 902.0 1000.5 C 902.0 1002.91 901.55 1005.16 901.0 1005.5 C 900.45 1005.84 900.0 1008.54 900.0 1011.5 C 900.0 1014.46 899.55 1017.16 899.0 1017.5 C 898.45 1017.84 898.0 1021.89 898.0 1026.5 C 898.0 1031.11 897.55 1035.16 897.0 1035.5 C 896.45 1035.84 896.0 1037.41 896.0 1039.0 C 896.0 1040.59 896.45 1042.16 897.0 1042.5 C 897.55 1042.84 898.0 1045.57 898.0 1048.56 C 898.0 1051.55 897.71 1054.0 897.36 1054.0 C 897.01 1054.0 896.12 1053.21 895.39 1052.25 C 894.58 1051.18 894.05 1047.7 894.03 1043.31 C 894.01 1039.35 893.55 1035.84 893.0 1035.5 C 892.36 1035.11 892.0 1022.18 892.0 1000.0 C 892.0 977.82 892.36 964.89 893.0 964.5 C 893.55 964.16 894.0 959.68 894.0 954.5 C 894.0 949.32 894.45 944.84 895.0 944.5 C 895.55 944.16 896.0 941.91 896.0 939.5 C 896.0 937.09 896.45 934.84 897.0 934.5 C 897.55 934.16 898.0 931.01 898.0 927.5 C 898.0 923.99 898.45 920.84 899.0 920.5 C 899.55 920.16 900.0 918.36 900.0 916.5 C 900.0 914.64 900.45 912.84 901.0 912.5 C 901.55 912.16 902.0 909.91 902.0 907.5 C 902.0 905.09 902.45 902.84 903.0 902.5 C 903.55 902.16 904.0 900.36 904.0 898.5 C 904.0 896.64 904.45 894.84 905.0 894.5 C 905.55 894.16 906.0 892.81 906.0 891.5 C 906.0 890.19 906.45 888.84 907.0 888.5 C 907.55 888.16 908.0 886.81 908.0 885.5 C 908.0 884.19 908.45 882.84 909.0 882.5 C 909.55 882.16 910.0 879.46 910.0 876.5 C 910.0 873.54 910.45 870.84 911.0 870.5 C 911.55 870.16 912.0 868.81 912.0 867.5 C 912.0 866.19 912.45 864.84 913.0 864.5 C 913.55 864.16 914.0 862.81 914.0 861.5 C 914.0 860.19 914.45 858.84 915.0 858.5 C 915.55 858.16 916.0 857.05 916.0 856.04 C 916.0 855.03 917.35 851.64 919.0 848.5 C 920.65 845.36 922.0 841.97 922.0 840.96 C 922.0 839.95 922.45 838.84 923.0 838.5 C 923.55 838.16 924.0 836.36 924.0 834.5 C 924.0 832.64 924.45 830.84 925.0 830.5 C 925.55 830.16 926.0 828.81 926.0 827.5 C 926.0 826.19 926.45 824.84 927.0 824.5 C 927.55 824.16 928.0 822.81 928.0 821.5 C 928.0 820.19 928.45 818.84 929.0 818.5 C 929.55 818.16 930.0 817.07 930.0 816.08 C 930.0 815.09 931.8 810.78 934.0 806.5 C 936.2 802.22 938.0 797.91 938.0 796.92 C 938.0 795.93 938.45 794.84 939.0 794.5 C 939.55 794.16 940.0 792.81 940.0 791.5 C 940.0 790.19 940.45 788.84 941.0 788.5 C 941.55 788.16 942.0 787.05 942.0 786.04 C 942.0 785.03 943.35 781.64 945.0 778.5 C 946.65 775.36 948.0 771.97 948.0 770.96 C 948.0 769.95 948.45 768.84 949.0 768.5 C 949.55 768.16 950.0 767.05 950.0 766.04 C 950.0 765.03 951.35 761.64 953.0 758.5 C 954.65 755.36 956.0 751.77 956.0 750.52 C 956.0 749.07 955.26 748.04 954.0 747.71 C 952.9 747.42 952.0 746.47 952.0 745.59 C 952.0 744.72 951.63 744.0 951.17 744.0 C 950.72 744.0 949.37 745.04 948.17 746.31 C 946.98 747.59 946.0 749.11 946.0 749.69 C 946.0 750.28 945.32 751.32 944.48 752.02 C 943.65 752.71 942.22 754.9 941.31 756.89 C 940.41 758.87 939.02 761.26 938.24 762.19 C 937.45 763.11 933.92 769.62 930.4 776.65 C 926.88 783.69 924.0 790.17 924.0 791.06 C 924.0 791.96 923.1 793.5 922.0 794.5 C 920.9 795.5 920.0 797.14 920.0 798.15 C 920.0 799.17 919.55 800.0 919.0 800.0 C 918.45 800.0 918.0 798.66 918.0 797.03 C 918.0 795.4 918.9 792.46 920.0 790.5 C 921.1 788.54 922.0 785.63 922.0 784.03 C 922.0 782.43 922.45 780.84 923.0 780.5 C 923.55 780.16 924.0 778.81 924.0 777.5 C 924.0 776.19 924.45 774.84 925.0 774.5 C 925.55 774.16 926.0 772.81 926.0 771.5 C 926.0 770.19 926.45 768.84 927.0 768.5 C 927.55 768.16 928.0 767.02 928.0 765.97 C 928.0 764.92 928.9 762.46 930.0 760.5 C 931.1 758.54 932.0 755.9 932.0 754.63 C 932.0 753.36 934.25 747.9 937.0 742.5 C 939.75 737.1 942.0 731.92 942.0 730.99 C 942.0 730.07 942.9 728.5 944.0 727.5 C 945.1 726.5 946.0 724.95 946.0 724.04 C 946.0 723.13 947.15 720.09 948.55 717.28 C 949.95 714.47 951.75 711.62 952.55 710.96 C 953.35 710.3 954.0 708.75 954.0 707.53 C 954.0 706.31 954.9 704.5 956.0 703.5 C 957.1 702.5 958.0 700.69 958.0 699.47 C 958.0 698.25 958.67 696.69 959.48 696.02 C 960.29 695.34 961.64 693.42 962.48 691.74 C 963.32 690.06 964.0 687.92 964.0 686.97 C 964.0 686.02 964.7 684.67 965.55 683.96 C 966.4 683.25 967.94 680.82 968.97 678.56 C 970.0 676.3 971.81 673.57 973.0 672.5 C 974.19 671.43 975.98 668.74 976.99 666.52 C 978.0 664.31 979.99 661.41 981.41 660.08 C 982.84 658.74 984.0 657.09 984.0 656.41 C 984.0 655.73 985.8 653.74 988.0 652.0 C 990.21 650.25 991.75 648.41 991.44 647.9 C 991.12 647.39 992.47 645.1 994.43 642.81 C 996.39 640.52 998.0 638.06 998.0 637.35 C 998.0 636.64 1003.68 630.2 1010.62 623.03 C 1017.57 615.86 1023.77 610.0 1024.42 610.0 C 1025.07 610.0 1027.19 608.31 1029.15 606.25 C 1031.1 604.19 1035.56 598.67 1039.04 594.0 C 1042.53 589.33 1052.61 578.25 1061.44 569.38 C 1070.27 560.51 1080.88 550.38 1085.0 546.85 C 1089.12 543.32 1096.78 537.28 1102.0 533.43 C 1107.22 529.57 1113.97 524.81 1117.0 522.85 C 1120.03 520.88 1125.88 517.24 1130.0 514.76 C 1134.12 512.28 1142.11 507.94 1147.74 505.12 C 1153.37 502.3 1161.24 498.9 1165.24 497.56 C 1169.23 496.22 1174.93 494.81 1177.9 494.41 C 1182.38 493.82 1183.52 493.99 1184.55 495.4 C 1185.71 496.99 1186.4 496.99 1195.06 495.49 C 1201.6 494.36 1210.25 493.9 1224.41 493.94 C 1235.46 493.97 1249.12 494.43 1254.77 494.97 C 1260.42 495.51 1267.85 496.67 1271.27 497.54 C 1274.7 498.41 1280.2 500.03 1283.5 501.15 C 1286.8 502.27 1294.99 505.8 1301.69 509.01 C 1308.4 512.21 1318.52 517.86 1324.19 521.57 C 1329.86 525.28 1337.65 530.8 1341.5 533.85 C 1345.35 536.9 1348.72 539.64 1349.0 539.95 C 1349.28 540.25 1353.4 544.0 1358.17 548.27 C 1362.93 552.54 1371.95 561.77 1378.19 568.77 C 1384.44 575.77 1392.06 584.65 1395.14 588.5 C 1398.21 592.35 1402.75 598.42 1405.21 602.0 C 1407.68 605.58 1411.57 611.58 1413.85 615.35 C 1416.13 619.12 1418.0 622.51 1418.0 622.88 C 1418.0 623.26 1420.7 626.23 1424.0 629.5 C 1427.3 632.77 1430.0 635.91 1430.0 636.48 C 1430.0 637.06 1435.4 642.92 1442.0 649.5 C 1448.6 656.08 1454.0 661.95 1454.0 662.53 C 1454.0 663.12 1455.8 665.35 1458.0 667.5 C 1460.2 669.65 1462.0 671.9 1462.0 672.5 C 1462.0 673.1 1463.8 675.35 1466.0 677.5 C 1468.2 679.65 1470.0 681.92 1470.0 682.55 C 1470.0 683.18 1470.9 684.5 1472.0 685.5 C 1473.1 686.5 1474.0 687.82 1474.0 688.44 C 1474.0 689.07 1476.25 691.79 1479.0 694.5 C 1481.87 697.33 1484.0 700.33 1484.0 701.54 C 1484.0 702.7 1485.15 704.73 1486.56 706.05 C 1487.97 707.38 1490.45 711.26 1492.09 714.69 C 1493.73 718.12 1495.49 721.18 1496.0 721.5 C 1496.51 721.82 1498.31 724.97 1500.0 728.5 C 1501.69 732.03 1503.47 735.17 1503.97 735.48 C 1504.47 735.79 1506.12 738.62 1507.65 741.77 C 1509.18 744.92 1510.78 747.65 1511.21 747.83 C 1511.65 748.02 1512.0 748.99 1512.0 750.0 C 1512.0 751.01 1512.56 752.03 1513.25 752.28 C 1513.94 752.53 1514.18 753.07 1513.8 753.48 C 1513.41 753.9 1512.4 753.54 1511.55 752.69 C 1510.7 751.84 1510.0 750.68 1510.0 750.11 C 1510.0 749.55 1508.21 747.15 1506.01 744.79 C 1503.82 742.43 1502.02 740.04 1502.01 739.48 C 1502.01 738.92 1497.83 734.31 1492.73 729.23 C 1487.63 724.15 1483.13 720.0 1482.73 720.0 C 1482.33 720.0 1482.0 720.72 1482.0 721.59 C 1482.0 722.47 1481.1 723.42 1480.0 723.71 C 1478.9 724.0 1478.0 724.79 1478.0 725.46 C 1478.0 726.14 1478.68 728.06 1479.52 729.74 C 1480.36 731.42 1481.71 733.34 1482.52 734.02 C 1483.33 734.69 1484.0 735.81 1484.0 736.5 C 1484.0 737.19 1484.68 738.32 1485.51 739.01 C 1486.34 739.7 1488.36 743.07 1490.0 746.5 C 1491.64 749.93 1493.66 753.3 1494.49 753.99 C 1495.32 754.68 1496.0 756.03 1496.0 756.98 C 1496.0 757.94 1497.8 762.22 1500.0 766.5 C 1502.2 770.78 1504.0 774.82 1504.0 775.48 C 1504.0 776.15 1504.66 778.02 1505.47 779.65 C 1506.28 781.27 1508.08 783.67 1509.47 784.98 C 1510.86 786.28 1512.0 788.16 1512.0 789.14 C 1512.0 790.13 1512.9 792.54 1514.0 794.5 C 1515.1 796.46 1516.0 798.66 1516.0 799.39 C 1516.0 800.12 1517.8 804.22 1520.0 808.5 C 1522.2 812.78 1524.0 817.09 1524.0 818.08 C 1524.0 819.07 1524.45 820.16 1525.0 820.5 C 1525.55 820.84 1526.0 822.19 1526.0 823.5 C 1526.0 824.81 1526.45 826.16 1527.0 826.5 C 1527.55 826.84 1528.0 828.64 1528.0 830.5 C 1528.0 832.36 1528.45 834.16 1529.0 834.5 C 1529.55 834.84 1530.0 835.98 1530.0 837.03 C 1530.0 838.08 1530.9 840.54 1532.0 842.5 C 1533.1 844.46 1534.0 846.92 1534.0 847.97 C 1534.0 849.02 1534.45 850.16 1535.0 850.5 C 1535.55 850.84 1536.0 852.64 1536.0 854.5 C 1536.0 856.36 1536.45 858.16 1537.0 858.5 C 1537.55 858.84 1538.0 861.09 1538.0 863.5 C 1538.0 865.91 1538.45 868.16 1539.0 868.5 C 1539.55 868.84 1540.0 870.64 1540.0 872.5 C 1540.0 874.36 1540.45 876.16 1541.0 876.5 C 1541.55 876.84 1542.0 878.18 1542.0 879.48 C 1542.0 880.77 1542.56 882.06 1543.25 882.34 C 1544.19 882.72 1544.13 883.1 1543.01 883.88 C 1541.82 884.71 1541.77 885.17 1542.76 886.16 C 1543.44 886.84 1544.0 888.86 1544.0 890.64 C 1544.0 892.42 1544.45 894.16 1545.0 894.5 C 1545.55 894.84 1546.0 896.19 1546.0 897.5 C 1546.0 898.81 1546.45 900.16 1547.0 900.5 C 1547.55 900.84 1548.0 903.99 1548.0 907.5 C 1548.0 911.01 1548.45 914.16 1549.0 914.5 C 1549.55 914.84 1550.0 918.7 1550.0 923.07 C 1550.0 927.67 1550.52 931.87 1551.24 933.01 C 1552.24 934.61 1552.22 935.42 1551.16 937.12 C 1550.21 938.64 1550.14 939.54 1550.92 940.32 C 1551.51 940.91 1552.0 944.92 1552.0 949.21 C 1552.0 953.56 1552.53 957.88 1553.2 958.95 C 1554.15 960.48 1554.11 961.42 1553.0 963.5 C 1551.89 965.58 1551.85 966.52 1552.8 968.05 C 1553.67 969.44 1554.0 978.67 1554.0 1001.43 C 1554.0 1021.32 1553.63 1033.11 1553.0 1033.5 C 1552.45 1033.84 1552.0 1037.89 1552.0 1042.5 C 1552.0 1047.11 1551.55 1051.16 1551.0 1051.5 C 1550.45 1051.84 1550.0 1053.64 1550.0 1055.5 C 1550.0 1057.36 1549.55 1059.16 1549.0 1059.5 C 1548.45 1059.84 1548.0 1062.99 1548.0 1066.5 C 1548.0 1070.01 1547.55 1073.16 1547.0 1073.5 C 1546.45 1073.84 1546.0 1075.64 1546.0 1077.5 C 1546.0 1079.36 1545.55 1081.16 1545.0 1081.5 C 1544.45 1081.84 1544.0 1083.19 1544.0 1084.5 C 1544.0 1085.81 1543.55 1087.16 1543.0 1087.5 C 1542.45 1087.84 1542.0 1089.19 1542.0 1090.5 C 1542.0 1091.81 1541.55 1093.16 1541.0 1093.5 C 1540.45 1093.84 1540.0 1094.98 1540.0 1096.03 C 1540.0 1097.08 1539.1 1099.54 1538.0 1101.5 C 1536.9 1103.46 1536.0 1106.61 1536.0 1108.5 C 1536.0 1110.39 1535.1 1113.54 1534.0 1115.5 C 1532.9 1117.46 1532.0 1120.37 1532.0 1121.97 C 1532.0 1123.57 1531.55 1125.16 1531.0 1125.5 C 1530.45 1125.84 1530.0 1127.19 1530.0 1128.5 C 1530.0 1129.81 1529.55 1131.16 1529.0 1131.5 C 1528.45 1131.84 1528.0 1133.19 1528.0 1134.5 C 1528.0 1135.81 1527.55 1137.16 1527.0 1137.5 C 1526.45 1137.84 1526.0 1139.64 1526.0 1141.5 C 1526.0 1143.36 1525.55 1145.16 1525.0 1145.5 C 1524.45 1145.84 1524.0 1147.19 1524.0 1148.5 C 1524.0 1149.81 1523.55 1151.16 1523.0 1151.5 C 1522.45 1151.84 1522.0 1153.19 1522.0 1154.5 C 1522.0 1155.81 1521.55 1157.16 1521.0 1157.5 C 1520.45 1157.84 1520.0 1158.98 1520.0 1160.03 C 1520.0 1161.08 1519.1 1163.54 1518.0 1165.5 C 1516.9 1167.46 1516.0 1169.92 1516.0 1170.97 C 1516.0 1172.02 1515.55 1173.16 1515.0 1173.5 C 1514.45 1173.84 1514.0 1175.44 1514.0 1177.06 C 1514.0 1178.68 1513.55 1180.0 1513.0 1180.0 C 1512.45 1180.0 1512.0 1181.35 1512.0 1183.0 C 1512.0 1184.65 1511.55 1186.0 1511.0 1186.0 C 1510.45 1186.0 1510.0 1184.65 1510.0 1183.0 C 1510.0 1181.35 1510.45 1180.0 1511.0 1180.0 C 1511.55 1180.0 1512.0 1177.55 1512.0 1174.56 C 1512.0 1171.57 1512.45 1168.84 1513.0 1168.5 C 1513.55 1168.16 1514.0 1166.36 1514.0 1164.5 C 1514.0 1162.64 1514.45 1160.84 1515.0 1160.5 C 1515.55 1160.16 1516.0 1157.46 1516.0 1154.5 C 1516.0 1151.54 1516.45 1148.84 1517.0 1148.5 C 1517.55 1148.16 1518.0 1145.91 1518.0 1143.5 C 1518.0 1141.09 1518.45 1138.84 1519.0 1138.5 C 1519.55 1138.16 1520.0 1135.46 1520.0 1132.5 C 1520.0 1129.54 1520.45 1126.84 1521.0 1126.5 C 1521.56 1126.15 1522.0 1121.34 1522.0 1115.5 C 1522.0 1109.66 1522.44 1104.85 1523.0 1104.5 C 1523.55 1104.16 1524.0 1101.46 1524.0 1098.5 C 1524.0 1095.54 1524.45 1092.84 1525.0 1092.5 C 1525.55 1092.16 1526.0 1091.05 1526.0 1090.02 C 1526.0 1089.0 1525.44 1087.9 1524.75 1087.58 C 1523.75 1087.12 1523.75 1086.88 1524.75 1086.42 C 1525.6 1086.02 1526.0 1083.21 1526.0 1077.62 C 1526.0 1072.56 1526.46 1068.94 1527.2 1068.2 C 1528.13 1067.27 1528.13 1066.73 1527.2 1065.8 C 1526.54 1065.14 1526.0 1063.56 1526.0 1062.3 C 1526.0 1060.86 1525.4 1060.0 1524.41 1060.0 C 1523.53 1060.0 1522.58 1059.1 1522.29 1058.0 C 1522.0 1056.9 1521.45 1056.0 1521.06 1056.0 C 1520.67 1056.0 1519.37 1057.04 1518.17 1058.31 C 1516.98 1059.59 1516.0 1061.82 1516.0 1063.28 C 1516.0 1064.74 1515.1 1067.54 1514.0 1069.5 C 1512.9 1071.46 1512.0 1073.92 1512.0 1074.97 C 1512.0 1076.02 1511.55 1077.16 1511.0 1077.5 C 1510.45 1077.84 1510.0 1078.98 1510.0 1080.03 C 1510.0 1081.08 1509.1 1083.54 1508.0 1085.5 C 1506.9 1087.46 1506.0 1089.68 1506.0 1090.43 C 1506.0 1091.18 1504.65 1094.36 1503.0 1097.5 C 1501.35 1100.64 1500.0 1103.82 1500.0 1104.57 C 1500.0 1105.32 1499.1 1107.54 1498.0 1109.5 C 1496.9 1111.46 1496.0 1114.37 1496.0 1115.97 C 1496.0 1117.57 1495.55 1119.16 1495.0 1119.5 C 1494.45 1119.84 1494.0 1120.9 1494.0 1121.85 C 1494.0 1122.81 1492.02 1127.53 1489.6 1132.35 C 1487.18 1137.18 1484.56 1141.88 1483.77 1142.81 C 1482.98 1143.74 1481.57 1146.17 1480.64 1148.21 C 1479.71 1150.25 1478.51 1152.19 1477.97 1152.52 C 1477.43 1152.85 1476.1 1155.09 1475.0 1157.5 C 1473.9 1159.91 1472.55 1162.16 1472.0 1162.5 C 1471.45 1162.84 1470.13 1165.01 1469.08 1167.31 C 1468.02 1169.61 1465.74 1172.85 1464.0 1174.5 C 1462.26 1176.15 1460.0 1179.34 1458.97 1181.59 C 1457.94 1183.83 1456.4 1186.25 1455.55 1186.96 C 1454.7 1187.67 1454.0 1188.8 1454.0 1189.47 C 1454.0 1190.14 1453.1 1191.5 1452.0 1192.5 C 1450.9 1193.5 1450.0 1194.84 1450.0 1195.48 C 1450.0 1196.12 1448.84 1197.74 1447.41 1199.08 C 1445.99 1200.41 1444.01 1203.3 1443.0 1205.5 C 1441.99 1207.7 1440.01 1210.59 1438.59 1211.92 C 1437.16 1213.26 1436.0 1214.88 1436.0 1215.52 C 1436.0 1216.16 1435.1 1217.5 1434.0 1218.5 C 1432.9 1219.5 1432.0 1220.85 1432.0 1221.5 C 1432.0 1222.15 1431.1 1223.5 1430.0 1224.5 C 1428.9 1225.5 1428.0 1226.85 1428.0 1227.5 C 1428.0 1228.15 1427.1 1229.5 1426.0 1230.5 C 1424.9 1231.5 1424.0 1232.85 1424.0 1233.5 C 1424.0 1234.15 1423.1 1235.5 1422.0 1236.5 C 1420.9 1237.5 1420.0 1238.83 1420.0 1239.47 C 1420.0 1240.1 1418.65 1241.92 1417.0 1243.5 C 1415.35 1245.08 1414.0 1246.9 1414.0 1247.53 C 1414.0 1248.17 1413.1 1249.5 1412.0 1250.5 C 1410.9 1251.5 1410.0 1252.85 1410.0 1253.5 C 1410.0 1254.15 1409.1 1255.5 1408.0 1256.5 C 1406.9 1257.5 1406.0 1258.85 1406.0 1259.5 C 1406.0 1260.15 1405.1 1261.5 1404.0 1262.5 C 1402.9 1263.5 1402.0 1264.83 1402.0 1265.47 C 1402.0 1266.1 1400.65 1267.92 1399.0 1269.5 C 1397.35 1271.08 1396.0 1272.9 1396.0 1273.53 C 1396.0 1274.17 1395.1 1275.5 1394.0 1276.5 C 1392.9 1277.5 1392.0 1278.86 1392.0 1279.53 C 1392.0 1280.2 1391.3 1281.33 1390.45 1282.04 C 1389.6 1282.75 1388.06 1285.17 1387.04 1287.41 C 1386.01 1289.66 1384.01 1292.59 1382.59 1293.92 C 1381.16 1295.26 1380.0 1296.88 1380.0 1297.52 C 1380.0 1298.16 1379.1 1299.5 1378.0 1300.5 C 1376.9 1301.5 1376.0 1302.85 1376.0 1303.5 C 1376.0 1304.15 1375.1 1305.5 1374.0 1306.5 C 1372.9 1307.5 1372.0 1308.84 1372.0 1309.48 C 1372.0 1310.12 1370.84 1311.74 1369.41 1313.08 C 1367.99 1314.41 1365.99 1317.34 1364.96 1319.59 C 1363.94 1321.83 1362.4 1324.25 1361.55 1324.96 C 1360.7 1325.67 1360.0 1326.81 1360.0 1327.5 C 1360.0 1328.19 1359.3 1329.33 1358.45 1330.04 C 1357.6 1330.75 1356.06 1333.18 1355.03 1335.44 C 1354.0 1337.7 1352.19 1340.43 1351.0 1341.5 C 1349.81 1342.57 1348.01 1345.27 1347.0 1347.5 C 1345.99 1349.73 1344.19 1352.43 1343.0 1353.5 C 1341.81 1354.57 1339.98 1357.35 1338.93 1359.66 C 1337.87 1361.98 1336.55 1364.16 1336.0 1364.5 C 1335.45 1364.84 1334.1 1367.09 1333.0 1369.5 C 1331.9 1371.91 1330.57 1374.15 1330.04 1374.48 C 1329.5 1374.81 1327.71 1377.93 1326.04 1381.41 C 1324.38 1384.89 1322.34 1388.3 1321.51 1388.99 C 1320.68 1389.68 1320.0 1391.29 1320.0 1392.56 C 1320.0 1393.84 1319.55 1395.16 1319.0 1395.5 C 1318.45 1395.84 1318.0 1396.98 1318.0 1398.03 C 1318.0 1399.08 1317.1 1401.54 1316.0 1403.5 C 1314.9 1405.46 1314.0 1407.92 1314.0 1408.97 C 1314.0 1410.02 1313.55 1411.16 1313.0 1411.5 C 1312.45 1411.84 1312.0 1413.64 1312.0 1415.5 C 1312.0 1417.36 1311.55 1419.16 1311.0 1419.5 C 1310.45 1419.84 1310.0 1420.98 1310.0 1422.03 C 1310.0 1423.08 1309.1 1425.54 1308.0 1427.5 C 1306.9 1429.46 1306.0 1432.82 1306.0 1434.97 C 1306.0 1437.12 1305.55 1439.16 1305.0 1439.5 C 1304.45 1439.84 1304.0 1441.64 1304.0 1443.5 C 1304.0 1445.36 1303.55 1447.16 1303.0 1447.5 C 1302.45 1447.84 1302.0 1451.7 1302.0 1456.07 C 1302.0 1460.67 1301.48 1464.87 1300.76 1466.01 C 1299.77 1467.59 1299.77 1468.41 1300.76 1469.99 C 1301.44 1471.08 1302.0 1473.78 1302.0 1475.99 C 1302.0 1478.19 1301.63 1480.0 1301.19 1480.0 C 1300.74 1480.0 1299.39 1478.16 1298.19 1475.91 C 1296.98 1473.65 1296.0 1470.98 1296.0 1469.96 C 1296.0 1468.95 1295.55 1467.84 1295.0 1467.5 C 1294.45 1467.16 1294.0 1466.05 1294.0 1465.04 C 1294.0 1464.03 1292.65 1460.64 1291.0 1457.5 C 1289.35 1454.36 1288.0 1450.58 1288.0 1449.09 C 1288.0 1447.32 1286.8 1445.23 1284.51 1443.01 L 1281.02 1439.63 C 1277.13 1443.29 1276.0 1445.33 1276.0 1446.52 C 1276.0 1447.71 1275.1 1449.5 1274.0 1450.5 C 1272.9 1451.5 1272.0 1453.53 1272.0 1455.02 C 1272.0 1456.51 1270.2 1461.22 1268.0 1465.5 C 1265.8 1469.78 1264.0 1474.27 1264.0 1475.48 C 1264.0 1476.7 1263.32 1479.06 1262.48 1480.74 C 1261.64 1482.42 1260.29 1484.34 1259.48 1485.02 C 1258.67 1485.69 1258.0 1487.29 1258.0 1488.56 C 1258.0 1489.84 1257.55 1491.16 1257.0 1491.5 C 1256.45 1491.84 1256.0 1493.15 1256.0 1494.4 C 1256.0 1495.66 1255.1 1497.5 1254.0 1498.5 C 1252.9 1499.5 1252.0 1500.86 1252.0 1501.53 C 1252.0 1502.2 1251.35 1503.29 1250.57 1503.95 C 1249.78 1504.6 1246.63 1510.17 1243.57 1516.32 C 1240.5 1522.48 1238.0 1528.01 1238.0 1528.62 C 1238.0 1529.23 1236.2 1533.22 1234.0 1537.5 C 1230.97 1543.39 1230.0 1546.44 1230.0 1550.08 C 1230.0 1552.72 1229.55 1555.16 1229.0 1555.5 C 1228.45 1555.84 1228.0 1557.19 1228.0 1558.5 C 1228.0 1559.81 1227.55 1561.16 1227.0 1561.5 C 1226.45 1561.84 1226.0 1564.93 1226.0 1568.36 C 1226.0 1571.88 1225.48 1575.12 1224.8 1575.8 C 1223.87 1576.73 1223.87 1577.27 1224.8 1578.2 C 1225.46 1578.86 1226.0 1579.99 1226.0 1580.7 C 1226.0 1581.41 1225.55 1582.0 1225.0 1582.0 Z M 1507.0 1198.0 C 1506.45 1198.0 1506.0 1197.55 1506.0 1197.0 C 1506.0 1196.45 1506.45 1196.0 1507.0 1196.0 C 1507.55 1196.0 1508.0 1196.45 1508.0 1197.0 C 1508.0 1197.55 1507.55 1198.0 1507.0 1198.0 Z M 1509.0 1192.0 C 1508.45 1192.0 1508.0 1191.1 1508.0 1190.0 C 1508.0 1188.9 1508.45 1188.0 1509.0 1188.0 C 1509.55 1188.0 1510.0 1188.9 1510.0 1190.0 C 1510.0 1191.1 1509.55 1192.0 1509.0 1192.0 Z M 915.0 810.0 C 914.45 810.0 914.0 809.55 914.0 809.0 C 914.0 808.45 914.45 808.0 915.0 808.0 C 915.55 808.0 916.0 808.45 916.0 809.0 C 916.0 809.55 915.55 810.0 915.0 810.0 Z M 917.0 804.0 C 916.45 804.0 916.0 803.55 916.0 803.0 C 916.0 802.45 916.45 802.0 917.0 802.0 C 917.55 802.0 918.0 802.45 918.0 803.0 C 918.0 803.55 917.55 804.0 917.0 804.0 Z M 993.0 648.0 C 993.55 648.0 994.0 647.55 994.0 647.0 C 994.0 646.45 993.55 646.0 993.0 646.0 C 992.45 646.0 992.0 646.45 992.0 647.0 C 992.0 647.55 992.45 648.0 993.0 648.0 Z " opacity="0.10196078431372549" fill="#000000" stroke="none" fill-rule="evenodd"/></svg>