<svg version="1.0" xmlns="http://www.w3.org/2000/svg"
 width="1200.000000pt" height="1600.000000pt" viewBox="0 0 1200.000000 1600.000000"
 preserveAspectRatio="xMidYMid meet">

<g transform="translate(0.000000,1600.000000) scale(0.100000,-0.100000)"
fill="#000000" stroke="none">
<path d="M6049 8892 c-81 -52 -119 -94 -223 -246 -117 -171 -249 -424 -295
-567 -108 -331 -225 -894 -247 -1180 -15 -196 55 -613 153 -914 33 -104 122
-291 162 -344 21 -28 79 -39 206 -40 100 -1 148 19 265 114 197 158 281 261
346 427 59 150 161 476 173 558 26 169 52 458 52 573 -1 116 -11 298 -27 447
-16 156 -71 358 -138 508 -24 53 -47 113 -50 132 -26 128 -114 328 -184 415
-56 72 -127 145 -138 145 -6 0 -30 -13 -55 -28z"/>
</g>
</svg>
