<?xml version="1.0" standalone="no"?>
<!DOCTYPE svg PUBLIC "-//W3C//DTD SVG 20010904//EN"
 "http://www.w3.org/TR/2001/REC-SVG-20010904/DTD/svg10.dtd">
<svg version="1.0" xmlns="http://www.w3.org/2000/svg"
 width="1200.000000pt" height="1600.000000pt" viewBox="0 0 1200.000000 1600.000000"
 preserveAspectRatio="xMidYMid meet">

<g transform="translate(0.000000,1600.000000) scale(0.100000,-0.100000)"
fill="#000000" stroke="none">
<path d="M3070 12239 c-30 -5 -84 -21 -120 -36 -149 -61 -520 -263 -732 -400
-469 -300 -988 -838 -1203 -1248 -25 -49 -67 -115 -91 -147 -46 -59 -55 -92
-28 -102 11 -4 37 14 79 55 35 34 68 58 74 55 5 -3 39 1 76 9 42 10 85 13 114
9 178 -24 347 -57 411 -79 164 -56 462 -219 512 -279 9 -12 23 -21 30 -21 7 0
13 -7 13 -15 0 -8 11 -20 25 -27 14 -7 36 -22 48 -35 88 -93 133 -150 152
-195 36 -86 74 -96 49 -14 -8 28 -9 44 -2 53 7 8 11 105 12 253 1 262 11 389
42 565 62 352 184 708 377 1095 113 226 180 337 262 428 39 43 49 61 41 70
-12 16 -67 18 -141 6z"/>
<path d="M8788 12233 c-7 -9 3 -28 42 -70 82 -91 149 -202 262 -428 193 -387
315 -743 377 -1095 31 -176 41 -303 42 -565 1 -148 5 -245 12 -253 7 -9 6 -25
-2 -53 -25 -82 13 -72 49 14 19 45 64 102 152 195 12 13 34 28 48 35 14 7 25
19 25 27 0 8 6 15 13 15 7 0 21 9 30 21 50 60 348 223 512 279 64 22 233 55
411 79 29 4 72 1 114 -9 37 -8 71 -12 76 -9 6 3 39 -21 74 -55 42 -41 68 -59
79 -55 27 10 18 43 -28 102 -24 32 -66 98 -91 147 -193 368 -612 823 -1058
1148 -174 127 -567 358 -768 451 -141 65 -169 75 -241 85 -86 13 -115 11 -130
-6z"/>
<path d="M3304 12003 c-331 -443 -581 -981 -698 -1503 -28 -125 -34 -202 -41
-503 -3 -131 -1 -206 7 -225 6 -15 10 -44 9 -64 -2 -22 2 -38 8 -38 6 0 11 4
11 9 0 12 66 91 72 86 5 -6 61 9 143 38 117 41 371 57 440 28 11 -5 67 -17
125 -26 161 -26 243 -51 366 -109 85 -41 115 -51 124 -42 9 8 14 8 17 0 8 -23
65 -94 75 -94 5 0 0 16 -11 36 -12 19 -19 40 -16 44 3 5 -33 78 -80 163 -239
431 -372 851 -431 1362 -23 197 -26 745 -5 848 13 65 13 70 -6 89 l-20 20 -89
-119z"/>
<path d="M8585 12100 c-16 -18 -16 -25 -4 -87 21 -103 18 -652 -5 -848 -59
-511 -192 -931 -431 -1362 -47 -85 -83 -158 -80 -163 3 -4 -4 -25 -16 -44 -11
-20 -16 -36 -11 -36 10 0 67 71 75 94 3 8 8 8 17 0 9 -9 39 1 124 42 123 58
205 83 366 109 58 9 114 21 125 26 69 29 323 13 440 -28 82 -29 138 -44 143
-38 6 5 72 -74 72 -86 0 -5 5 -9 11 -9 6 0 10 16 8 38 -1 20 3 49 9 64 11 27
9 300 -3 518 -21 368 -268 1013 -567 1480 -64 100 -244 350 -252 350 -2 0 -11
-9 -21 -20z"/>
<path d="M3632 12007 c-18 -21 -48 -144 -68 -276 -14 -93 -16 -156 -11 -350
12 -505 101 -939 288 -1401 72 -179 188 -406 189 -369 0 14 -7 47 -16 73 -14
41 -14 49 -2 64 8 9 25 46 38 81 46 132 96 188 213 241 89 40 175 56 222 40
31 -10 39 -10 52 3 14 14 12 24 -15 99 -17 45 -34 92 -38 102 -4 12 -4 17 2
13 5 -3 -9 68 -31 158 -22 89 -43 158 -46 153 -16 -26 -59 288 -59 431 0 75
-3 89 -31 137 -16 29 -53 73 -81 96 -113 95 -372 369 -402 425 -12 21 -45 72
-74 113 -30 41 -68 99 -86 128 -27 44 -35 51 -44 39z m795 -1509 c-3 -8 -6 -5
-6 6 -1 11 2 17 5 13 3 -3 4 -12 1 -19z"/>
<path d="M8320 11962 c-18 -31 -57 -88 -84 -127 -28 -38 -60 -87 -72 -108 -30
-56 -288 -329 -402 -425 -28 -23 -65 -67 -81 -96 -28 -48 -31 -62 -31 -137 0
-112 -25 -325 -50 -421 -11 -43 -20 -91 -20 -107 0 -32 -35 -147 -95 -310 -34
-92 -36 -104 -22 -118 13 -13 21 -13 52 -3 47 16 133 0 222 -40 117 -53 167
-109 213 -241 13 -35 30 -72 38 -81 12 -15 12 -23 -2 -64 -9 -26 -16 -59 -16
-73 1 -37 117 190 189 369 187 462 276 896 288 1401 6 252 -4 370 -48 539 -28
107 -37 112 -79 42z"/>
<path d="M4530 10988 c-51 -36 -73 -115 -66 -245 11 -207 86 -593 122 -632 16
-18 15 -20 44 106 24 103 82 233 140 309 41 54 126 116 193 142 23 9 52 25 64
36 22 18 22 20 6 38 -28 31 -183 142 -261 187 -68 39 -169 81 -197 81 -7 0
-27 -10 -45 -22z"/>
<path d="M7345 10986 c-99 -37 -334 -190 -383 -248 -15 -19 15 -48 75 -70 67
-26 152 -88 193 -142 58 -76 116 -206 140 -309 29 -126 28 -124 44 -106 36 39
111 425 122 632 7 130 -15 209 -66 245 -40 27 -49 27 -125 -2z"/>
</g>
</svg>
