<?xml version="1.0" standalone="no"?>
<!DOCTYPE svg PUBLIC "-//W3C//DTD SVG 20010904//EN"
 "http://www.w3.org/TR/2001/REC-SVG-20010904/DTD/svg10.dtd">
<svg version="1.0" xmlns="http://www.w3.org/2000/svg"
 width="1200.000000pt" height="1600.000000pt" viewBox="0 0 1200.000000 1600.000000"
 preserveAspectRatio="xMidYMid meet">

<g transform="translate(0.000000,1600.000000) scale(0.100000,-0.100000)"
fill="#000000" stroke="none">
<path d="M3100 12870 c0 -5 25 -46 56 -91 70 -103 78 -124 63 -161 -28 -69
-136 -138 -329 -210 -58 -22 -110 -44 -116 -49 -7 -5 -20 -11 -30 -13 -28 -6
-279 -129 -349 -171 -82 -50 -133 -76 -144 -73 -5 2 -33 -14 -63 -35 -295
-209 -338 -243 -521 -414 -212 -198 -360 -373 -526 -622 -124 -186 -291 -491
-329 -601 -57 -165 -103 -400 -102 -525 1 -46 3 -41 30 64 35 138 64 198 126
269 46 53 47 53 25 68 -11 8 -21 19 -21 24 0 5 23 40 52 77 28 37 71 106 96
153 192 365 612 820 1055 1143 220 161 625 391 889 505 50 22 178 45 216 39
48 -7 47 -23 -7 -84 -83 -91 -150 -202 -263 -428 -193 -387 -315 -743 -377
-1095 -31 -176 -41 -303 -42 -565 -1 -141 -5 -245 -11 -252 -7 -8 -6 -23 1
-44 15 -43 14 -69 -3 -69 -14 0 -56 74 -56 98 0 7 -27 43 -60 80 -89 99 -102
112 -130 125 -14 7 -25 19 -25 27 0 8 -6 15 -13 15 -8 0 -19 8 -26 17 -26 35
-316 213 -316 194 0 -2 29 -21 65 -41 96 -53 261 -179 340 -259 126 -127 233
-312 265 -457 20 -90 66 -216 55 -149 -18 107 -17 196 2 253 11 31 17 57 12
57 -14 0 -21 104 -21 290 0 287 9 409 38 538 117 525 366 1061 698 1505 l89
119 20 -20 c19 -19 19 -24 6 -89 -21 -103 -18 -651 5 -848 33 -290 88 -542
163 -760 19 -55 37 -111 40 -124 2 -13 8 -32 13 -41 5 -9 27 -65 49 -124 40
-106 96 -219 219 -443 34 -62 62 -115 62 -119 0 -13 -50 39 -72 74 -14 23 -24
30 -31 23 -7 -7 -34 3 -86 28 -94 47 -195 87 -241 95 -19 4 10 -11 65 -32 203
-79 308 -142 358 -215 39 -57 128 -146 185 -186 l33 -23 -42 68 c-42 69 -80
149 -77 162 3 14 -30 74 -34 62 -2 -7 -28 46 -58 116 -29 71 -82 184 -117 252
-69 136 -134 325 -188 542 -75 306 -104 532 -112 861 -6 252 4 370 48 539 28
107 37 112 79 42 18 -31 57 -88 84 -127 28 -38 60 -87 72 -108 30 -56 288
-329 402 -425 28 -23 65 -68 83 -98 31 -56 32 -56 24 -153 -11 -143 -7 -201
21 -361 26 -142 129 -501 164 -570 10 -19 17 -39 16 -44 0 -5 13 -19 29 -32
l30 -23 0 44 c0 24 -3 42 -6 39 -18 -11 -42 63 -79 241 -29 139 -48 273 -56
388 -6 80 -4 109 11 160 21 71 35 90 75 107 38 16 105 -6 215 -67 82 -47 238
-157 268 -191 16 -17 16 -21 2 -32 -25 -21 -17 -29 18 -18 29 9 40 6 98 -26
36 -20 74 -36 84 -36 10 0 52 -11 92 -26 44 -15 109 -27 158 -31 l84 -6 11 27
c5 15 10 40 10 56 0 42 -66 232 -95 277 l-26 38 -92 6 c-79 4 -105 11 -184 46
-51 22 -134 67 -185 100 -51 33 -169 102 -263 153 -321 174 -403 227 -513 329
-127 118 -232 239 -318 368 -72 107 -157 275 -173 338 -25 102 -35 131 -51
150 -10 11 -30 45 -44 75 -56 118 -143 205 -276 274 -109 57 -270 97 -270 66z"/>
<path d="M8771 12864 c-113 -30 -271 -125 -334 -200 -40 -47 -107 -156 -107
-172 0 -9 -8 -25 -19 -36 -10 -12 -23 -39 -29 -61 -67 -255 -235 -517 -499
-776 -115 -114 -206 -173 -533 -349 -74 -40 -191 -108 -260 -150 -167 -104
-285 -150 -383 -150 l-73 0 -28 -42 c-31 -48 -96 -235 -96 -278 0 -16 5 -41
10 -56 l11 -27 84 6 c47 3 115 17 157 30 40 14 85 28 100 31 15 4 51 20 80 37
47 28 57 31 91 22 39 -11 47 -4 22 17 -14 11 -14 15 2 32 30 34 186 144 268
191 110 61 177 83 215 67 40 -17 54 -36 75 -107 15 -51 17 -80 11 -160 -11
-159 -51 -394 -93 -548 -17 -64 -30 -88 -43 -80 -5 3 -10 -17 -12 -44 l-3 -48
48 40 c44 38 46 41 31 58 -15 17 -13 28 33 156 28 76 57 170 66 208 9 39 25
111 36 160 26 116 51 326 51 434 0 75 3 89 31 137 16 29 53 73 81 96 114 96
372 369 402 425 12 21 44 70 72 108 27 39 66 96 84 127 42 70 51 65 79 -42 44
-169 54 -287 48 -539 -8 -329 -37 -555 -112 -861 -73 -295 -177 -573 -264
-705 -40 -61 -44 -71 -18 -41 33 38 32 35 -22 -75 -55 -112 -56 -113 -62 -79
-5 27 -7 29 -8 9 0 -14 -8 -34 -16 -45 -8 -10 -15 -27 -15 -37 0 -9 -4 -25 -8
-35 -27 -57 -58 -113 -84 -151 l-30 -44 29 18 c63 40 125 100 178 170 30 41
68 82 83 93 50 34 193 104 296 143 55 22 85 37 66 33 -46 -8 -147 -48 -241
-95 -52 -25 -79 -35 -86 -28 -7 7 -17 0 -31 -23 -24 -39 -72 -86 -72 -71 0 6
16 37 36 69 59 98 199 390 257 539 149 381 209 618 253 1000 23 197 26 745 5
848 -13 65 -13 70 6 89 l20 20 89 -119 c314 -420 565 -946 678 -1423 42 -174
56 -315 57 -570 1 -257 -5 -344 -26 -336 -9 3 -7 -10 6 -45 21 -53 25 -164 9
-254 -4 -27 -7 -51 -5 -53 5 -6 53 151 66 213 23 120 151 327 271 440 86 82
246 202 333 250 36 20 65 39 65 41 0 19 -290 -159 -316 -194 -7 -9 -18 -17
-26 -17 -7 0 -13 -7 -13 -15 0 -8 -11 -20 -25 -27 -28 -13 -41 -26 -130 -125
-33 -37 -60 -73 -60 -80 0 -24 -42 -98 -56 -98 -17 0 -18 26 -3 69 7 21 8 36
1 44 -6 7 -10 111 -11 252 -1 262 -11 389 -42 565 -62 352 -184 708 -377 1095
-113 226 -180 337 -263 428 -54 61 -55 77 -7 84 38 6 166 -17 216 -39 264
-114 669 -344 889 -505 370 -269 713 -618 939 -953 39 -58 82 -127 96 -155 71
-139 139 -287 134 -293 -4 -3 -35 23 -70 57 -35 35 -69 61 -74 57 -6 -3 -40 1
-76 9 -48 11 -83 13 -128 7 l-63 -8 105 -7 c183 -14 185 -14 272 -106 127
-133 146 -168 194 -346 l24 -90 -4 100 c-9 227 -79 454 -222 725 -199 378
-426 677 -721 953 -183 171 -226 205 -521 414 -30 21 -58 37 -63 35 -11 -3
-62 23 -144 73 -62 37 -321 166 -342 169 -6 1 -26 10 -45 19 -18 9 -92 40
-165 68 -146 55 -236 113 -271 173 -20 35 -21 39 -7 73 8 19 40 71 70 114 30
43 55 81 55 84 0 10 -75 4 -129 -11z"/>
<path d="M7089 10629 c34 -22 90 -68 124 -102 l61 -61 -34 48 c-38 52 -80 88
-151 129 -70 41 -71 32 0 -14z"/>
<path d="M4873 10620 c-34 -23 -77 -60 -94 -83 l-32 -42 49 46 c27 25 70 61
97 79 41 29 53 40 44 40 -1 0 -30 -18 -64 -40z"/>
<path d="M1120 10425 c-30 -8 -62 -12 -71 -9 -9 2 -21 -1 -27 -9 -9 -10 6 -10
81 0 51 6 119 12 151 12 75 1 69 7 -14 14 -41 4 -85 1 -120 -8z"/>
<path d="M1338 10413 c6 -2 18 -2 25 0 6 3 1 5 -13 5 -14 0 -19 -2 -12 -5z"/>
<path d="M10638 10413 c6 -2 18 -2 25 0 6 3 1 5 -13 5 -14 0 -19 -2 -12 -5z"/>
<path d="M1398 10403 c6 -2 18 -2 25 0 6 3 1 5 -13 5 -14 0 -19 -2 -12 -5z"/>
<path d="M10578 10403 c6 -2 18 -2 25 0 6 3 1 5 -13 5 -14 0 -19 -2 -12 -5z"/>
<path d="M1455 10394 c28 -8 267 -76 285 -81 13 -4 13 -4 0 6 -27 20 -194 70
-250 75 -30 3 -46 3 -35 0z"/>
<path d="M10485 10393 c-39 -5 -205 -60 -225 -74 -13 -10 -13 -10 0 -6 34 10
266 76 285 80 15 4 14 5 -5 4 -14 0 -38 -2 -55 -4z"/>
<path d="M1770 10300 c8 -5 20 -10 25 -10 6 0 3 5 -5 10 -8 5 -19 10 -25 10
-5 0 -3 -5 5 -10z"/>
<path d="M10210 10300 c-8 -5 -10 -10 -5 -10 6 0 17 5 25 10 8 5 11 10 5 10
-5 0 -17 -5 -25 -10z"/>
<path d="M4365 10106 c-64 -15 -155 -57 -200 -91 -19 -15 -48 -49 -65 -76 -38
-62 -39 -74 -2 -23 72 99 168 155 322 190 37 8 45 12 25 12 -16 0 -52 -5 -80
-12z"/>
<path d="M7597 10100 c112 -27 191 -70 259 -143 32 -34 64 -71 71 -82 12 -20
12 -20 6 0 -14 42 -65 114 -99 140 -47 36 -147 80 -212 94 -84 18 -104 11 -25
-9z"/>
<path d="M4515 10090 c3 -5 11 -10 16 -10 6 0 7 5 4 10 -3 6 -11 10 -16 10 -6
0 -7 -4 -4 -10z"/>
<path d="M3095 9841 c25 -11 167 -19 157 -9 -4 4 -46 10 -92 13 -54 3 -78 2
-65 -4z"/>
<path d="M8785 9842 c-62 -7 -42 -17 28 -14 88 5 139 22 57 19 -30 -1 -68 -3
-85 -5z"/>
<path d="M2968 9833 c6 -2 18 -2 25 0 6 3 1 5 -13 5 -14 0 -19 -2 -12 -5z"/>
<path d="M9008 9833 c6 -2 18 -2 25 0 6 3 1 5 -13 5 -14 0 -19 -2 -12 -5z"/>
<path d="M3320 9809 c19 -6 41 -15 48 -21 9 -8 12 -6 12 6 0 9 -6 16 -14 16
-7 0 -29 2 -47 5 l-34 5 35 -11z"/>
<path d="M8648 9813 c-17 -3 -28 -11 -28 -20 0 -11 3 -13 13 -5 6 6 28 15 47
20 35 10 19 13 -32 5z"/>
<path d="M3478 9783 c7 -3 16 -2 19 1 4 3 -2 6 -13 5 -11 0 -14 -3 -6 -6z"/>
<path d="M8508 9783 c7 -3 16 -2 19 1 4 3 -2 6 -13 5 -11 0 -14 -3 -6 -6z"/>
<path d="M2671 9759 c-13 -5 -21 -12 -18 -15 3 -3 18 1 34 10 31 17 21 20 -16
5z"/>
<path d="M9310 9756 c28 -17 50 -21 35 -7 -6 5 -21 12 -35 15 l-25 7 25 -15z"/>
<path d="M7974 9709 l0 -51 14 37 c13 31 13 39 1 50 -12 12 -14 7 -15 -36z"/>
<path d="M4004 9736 c-3 -8 -1 -23 5 -33 9 -15 10 -13 11 15 0 34 -7 42 -16
18z"/>
</g>
</svg>
