<svg version="1.0" xmlns="http://www.w3.org/2000/svg"
 width="1200.000000pt" height="1600.000000pt" viewBox="0 0 1200.000000 1600.000000"
 preserveAspectRatio="xMidYMid meet">

<g transform="translate(0.000000,1600.000000) scale(0.100000,-0.100000)"
fill="#000000" stroke="none">
<path d="M4485 5687 c-8 -20 -15 -45 -15 -55 0 -57 -72 -204 -127 -260 -74
-75 -215 -351 -471 -918 -52 -115 -92 -252 -92 -315 0 -50 13 -65 25 -29 3 11
11 20 16 20 6 0 7 -5 4 -10 -12 -19 6 -70 24 -70 14 0 18 -8 17 -37 0 -21 3
-177 7 -348 8 -315 11 -372 47 -780 11 -126 22 -259 25 -295 30 -364 59 -574
152 -1103 33 -191 34 -203 25 -315 -6 -65 -11 -159 -11 -210 -1 -106 9 -136
91 -264 45 -71 52 -77 96 -88 37 -9 54 -21 82 -56 19 -24 39 -44 44 -44 8 0 4
31 -8 61 -6 13 1 18 35 23 38 6 45 4 72 -24 23 -24 38 -30 70 -30 36 0 46 -6
84 -47 24 -25 46 -44 49 -41 3 4 1 22 -4 42 l-10 36 34 0 c20 0 47 9 65 23
l31 22 18 -23 c10 -12 20 -27 22 -33 2 -6 33 -10 72 -10 59 0 69 -3 73 -20 7
-24 19 -24 33 0 7 14 26 22 66 27 34 4 66 15 82 29 24 19 36 21 98 17 l71 -4
-2 -34 c-1 -41 13 -39 34 3 13 25 27 34 71 47 59 17 72 32 134 151 36 71 41
106 41 330 l0 200 -46 70 c-26 39 -58 93 -72 120 -49 99 -152 415 -232 715
-20 74 -47 176 -60 225 -70 260 -88 334 -120 491 -19 94 -41 211 -49 260 -8
49 -18 100 -22 114 -24 85 -12 423 22 597 8 42 17 90 20 107 22 132 90 431
128 571 80 287 109 358 134 333 7 -7 14 -4 22 11 6 12 9 25 6 29 -4 7 -8 75
-21 337 -3 61 -8 126 -11 145 -5 39 -35 110 -46 110 -4 0 -5 -30 -2 -67 3 -38
4 -95 2 -128 -5 -131 -1 -204 15 -285 21 -108 21 -109 -3 -103 -12 3 -21 0
-24 -8 -26 -94 -64 -221 -87 -289 -29 -89 -73 -244 -82 -295 -4 -16 -16 -75
-27 -130 -12 -55 -28 -140 -36 -190 -70 -437 -79 -548 -56 -675 7 -36 24 -137
38 -225 34 -208 89 -486 119 -600 84 -317 212 -745 268 -890 19 -49 42 -115
52 -145 9 -30 39 -101 67 -156 l49 -102 1 -143 c1 -157 -9 -224 -50 -327 -19
-45 -36 -71 -54 -81 -15 -9 -30 -13 -33 -9 -4 4 -2 30 5 60 6 29 10 78 8 108
l-3 55 -26 -50 c-15 -27 -35 -85 -45 -128 l-18 -77 -50 0 c-74 0 -79 6 -87
102 -3 46 -7 65 -8 43 -2 -60 -17 -115 -39 -144 -18 -24 -33 -31 -99 -44 l-32
-6 0 95 c0 65 -5 112 -17 147 l-18 52 -17 -70 c-11 -48 -15 -94 -11 -147 l5
-78 -50 0 c-82 0 -114 50 -137 216 -23 166 -25 169 -20 34 2 -69 7 -136 10
-150 3 -17 -3 -34 -19 -55 -23 -27 -27 -28 -63 -20 -37 10 -39 12 -84 122 -25
62 -48 113 -52 113 -4 0 -13 -19 -19 -42 -12 -43 -6 -67 36 -170 11 -28 -50
-24 -78 5 -35 34 -128 194 -138 236 -8 31 -10 148 -5 341 0 30 -3 56 -9 58 -6
1 -10 -77 -10 -206 l0 -208 48 -92 48 -92 -43 0 -44 0 -29 68 c-15 37 -34 75
-41 86 -11 16 -13 13 -20 -30 -4 -28 -3 -60 4 -76 6 -17 7 -28 1 -28 -21 0
-62 54 -97 128 -42 87 -40 64 -28 426 5 135 4 206 -2 202 -15 -9 -43 136 -77
404 -8 63 -21 153 -29 200 -8 47 -20 121 -27 164 l-12 79 29 20 c97 69 256
245 429 477 43 58 98 129 123 158 24 29 42 58 39 65 -3 7 -24 19 -48 26 -41
12 -319 133 -478 207 -41 19 -100 50 -132 69 l-57 35 -6 98 c-3 53 -7 144 -8
202 l-3 104 125 32 c104 26 195 58 387 135 14 5 20 14 17 22 -3 8 -49 50 -102
93 -53 44 -132 113 -176 154 -83 80 -236 269 -236 293 0 7 62 142 139 298 76
156 153 314 170 351 17 37 37 71 44 75 7 4 35 40 61 78 27 39 65 89 84 113 32
40 44 75 67 202 2 14 9 48 14 75 12 63 -3 83 -24 32z"/>
<path d="M7640 5709 c0 -13 19 -128 39 -234 5 -27 36 -80 99 -166 50 -69 98
-132 107 -139 8 -7 15 -16 15 -21 0 -4 68 -147 151 -316 83 -169 157 -322 165
-340 14 -32 13 -32 -62 -130 -101 -131 -164 -194 -321 -325 -73 -61 -133 -114
-133 -119 0 -11 -4 -9 178 -79 73 -28 184 -63 248 -78 l114 -27 -5 -125 c-2
-69 -5 -156 -6 -194 -2 -81 -7 -87 -103 -141 -75 -42 -520 -239 -580 -257 -21
-7 -40 -17 -43 -24 -2 -7 22 -45 54 -86 33 -40 108 -138 169 -218 102 -136
303 -352 368 -397 l30 -20 -13 -104 c-8 -57 -16 -113 -18 -124 -5 -22 -13 -74
-44 -299 -27 -198 -47 -296 -62 -314 -9 -11 -11 -58 -8 -176 2 -89 4 -215 5
-281 l1 -120 -44 -80 c-39 -71 -65 -104 -81 -105 -3 0 -4 31 -2 70 3 48 1 70
-7 70 -10 0 -45 -65 -71 -134 -8 -22 -16 -26 -50 -26 -22 0 -40 3 -40 6 0 4
18 39 40 79 22 40 45 96 50 125 12 65 1 400 -13 400 -7 0 -8 -59 -3 -167 8
-218 3 -247 -67 -364 -78 -131 -79 -132 -121 -135 -43 -4 -45 4 -15 70 16 38
19 58 14 101 -4 30 -11 55 -15 55 -7 0 -34 -60 -85 -187 -14 -36 -23 -44 -52
-49 -27 -5 -39 -2 -58 16 -23 22 -24 25 -20 169 3 123 3 134 -5 70 -9 -82 -35
-190 -52 -224 -22 -41 -46 -55 -96 -55 l-48 0 0 98 c1 54 -5 117 -12 142 l-14
44 -15 -34 c-8 -19 -18 -82 -21 -140 l-7 -105 -53 8 c-47 8 -54 12 -77 51 -16
27 -25 59 -26 87 -1 81 -17 91 -20 12 -3 -112 -3 -113 -74 -113 l-54 0 -11 43
c-32 123 -43 154 -61 177 l-20 25 4 -90 c3 -49 8 -100 12 -112 7 -21 6 -21
-23 -11 -37 14 -62 57 -94 158 -20 66 -23 94 -23 245 l1 170 46 90 c25 50 55
117 66 150 12 33 35 98 53 145 45 120 89 263 205 665 86 298 150 603 210 1000
26 172 30 260 15 346 -9 49 -13 80 -27 189 -3 19 -13 82 -24 140 -11 58 -22
121 -25 140 -3 19 -15 73 -25 120 -11 47 -22 95 -24 107 -6 38 -57 226 -81
298 -12 39 -38 123 -56 187 -29 102 -37 118 -55 118 l-21 0 22 122 c18 101 21
136 13 201 -4 44 -11 83 -14 88 -3 5 0 18 6 29 14 27 22 140 10 140 -5 0 -18
-19 -29 -43 -14 -31 -21 -75 -25 -167 -8 -161 -15 -262 -22 -327 -8 -70 0
-103 24 -96 10 2 24 -2 31 -10 32 -39 189 -643 226 -872 8 -46 13 -74 20 -112
37 -196 51 -499 28 -603 -11 -51 -24 -117 -73 -386 -10 -56 -35 -164 -55 -240
-21 -76 -41 -155 -45 -174 -18 -89 -165 -604 -215 -754 -66 -198 -100 -276
-165 -376 l-49 -75 -6 -110 c-3 -60 -2 -163 4 -229 8 -109 12 -125 49 -200 57
-115 73 -132 133 -146 36 -9 53 -19 59 -34 4 -12 15 -28 24 -35 14 -12 16 -9
16 23 l0 36 54 0 c30 0 61 2 69 6 8 3 28 -7 45 -21 21 -17 48 -28 84 -32 35
-4 58 -13 70 -27 l18 -21 6 21 c5 18 13 21 59 22 71 1 90 7 103 37 14 30 26
31 59 5 14 -11 40 -20 58 -20 33 0 33 0 28 -42 l-4 -43 43 46 c37 39 50 47 93
51 37 5 54 12 70 32 17 21 29 26 67 26 l47 0 -15 -42 c-8 -22 -12 -44 -9 -47
3 -3 28 18 54 47 34 37 55 52 74 52 38 0 70 33 132 138 l55 93 -1 152 c0 84
-4 184 -8 222 -7 53 -4 93 9 165 15 77 51 296 76 455 2 17 9 55 14 86 21 115
51 359 66 524 8 94 24 271 35 395 36 398 38 429 49 800 5 201 10 375 10 386 0
13 8 24 20 27 16 4 20 14 20 44 l0 38 19 -24 c26 -34 33 -14 21 66 -15 107
-50 201 -178 473 -19 41 -52 111 -72 155 -154 330 -234 480 -296 554 -75 87
-116 166 -139 268 -9 39 -23 77 -31 84 -11 9 -14 9 -14 -2z"/>
<path d="M5220 5179 c0 -5 5 -7 10 -4 6 3 10 8 10 11 0 2 -4 4 -10 4 -5 0 -10
-5 -10 -11z"/>
<path d="M6907 5164 c-9 -13 -20 -45 -23 -71 -5 -45 -4 -47 10 -29 9 11 16 31
17 45 1 21 3 19 14 -14 7 -22 11 -51 8 -65 -5 -28 28 -134 60 -189 27 -48 66
-90 99 -107 50 -26 52 -14 6 34 -76 78 -107 147 -152 333 -21 87 -21 87 -39
63z"/>
<path d="M5240 5138 c0 -44 15 -88 31 -88 14 0 4 63 -16 100 l-14 25 -1 -37z"/>
<path d="M5212 5118 c-6 -24 -18 -72 -27 -107 -23 -95 -72 -188 -126 -243 -27
-27 -49 -51 -49 -54 0 -9 80 37 101 59 65 68 110 185 116 304 3 46 3 83 0 83
-2 0 -9 -19 -15 -42z"/>
<path d="M4983 4793 c-7 -3 -13 -11 -13 -19 0 -9 5 -12 11 -9 5 4 3 -10 -5
-30 -13 -31 -13 -35 -2 -26 32 27 39 94 9 84z"/>
<path d="M7150 4776 c0 -22 11 -46 21 -46 4 0 6 8 2 18 -4 10 9 3 33 -18 21
-19 31 -26 21 -14 -9 11 -17 28 -17 38 0 9 -5 14 -10 11 -6 -3 -13 1 -16 9 -8
20 -34 21 -34 2z"/>
<path d="M4947 4751 c-3 -12 -1 -21 3 -21 15 0 23 21 12 32 -6 6 -11 2 -15
-11z"/>
<path d="M4865 4734 c-33 -12 -55 -23 -49 -23 18 -1 104 30 110 40 3 5 4 8 2
8 -2 -1 -30 -12 -63 -25z"/>
<path d="M7260 4735 c14 -8 32 -14 40 -14 8 0 0 6 -19 14 -42 19 -54 19 -21 0z"/>
<path d="M4738 4733 c7 -3 16 -2 19 1 4 3 -2 6 -13 5 -11 0 -14 -3 -6 -6z"/>
<path d="M5201 1342 c-13 -13 -11 -34 13 -161 16 -80 30 -150 31 -156 10 -30
3 92 -10 174 -8 53 -16 110 -17 127 -3 28 -5 30 -17 16z"/>
<path d="M6930 1311 c0 -26 -5 -73 -10 -102 -14 -69 -20 -229 -10 -229 5 0 10
35 13 78 2 42 12 115 22 163 18 82 15 139 -5 139 -6 0 -10 -22 -10 -49z"/>
<path d="M4735 1322 c15 -36 27 -88 46 -191 17 -97 18 -100 14 -36 -15 217
-16 220 -42 232 -22 11 -24 10 -18 -5z"/>
<path d="M7410 1333 c0 -6 -9 -13 -19 -16 -16 -4 -19 -14 -20 -63 0 -33 -5
-86 -11 -119 -5 -33 -9 -82 -8 -110 0 -30 2 -38 5 -20 12 103 37 237 50 278 8
27 12 51 9 54 -3 4 -6 2 -6 -4z"/>
<path d="M5243 945 c0 -33 2 -45 4 -27 2 18 2 45 0 60 -2 15 -4 0 -4 -33z"/>
</g>
</svg>
