<?xml version="1.0" encoding="UTF-8" standalone="no"?>
<!-- Created with Inkscape (http://www.inkscape.org/) -->

<svg
   version="1.1"
   id="svg1"
   width="2400"
   height="3200"
   viewBox="0 0 2400 3200"
   xml:space="preserve"
   xmlns="http://www.w3.org/2000/svg"
   xmlns:svg="http://www.w3.org/2000/svg"><defs
     id="defs1" /><path
     style="fill:#000000"
     d="m 1079,671.4412 c -2.475,-0.78376 -7.425,-1.90315 -11,-2.48753 -13.3605,-2.18396 -16.7033,-3.35371 -27,-9.44806 -5.775,-3.41808 -13.8709,-8.19265 -17.9909,-10.61015 -4.12,-2.4175 -8.2381,-5.13854 -9.1513,-6.04674 -0.9132,-0.9082 -2.7173,-1.97602 -4.0091,-2.37292 -5.9209,-1.81919 -18.50286,-10.47449 -29.01553,-19.96022 -3.66676,-3.30857 -9.48004,-8.49058 -12.91841,-11.51558 -3.43836,-3.025 -7.54639,-7.28345 -9.12894,-9.46323 -1.58255,-2.17977 -6.56927,-7.83059 -11.08159,-12.55737 -8.85968,-9.28074 -15.11542,-16.86459 -19.78004,-23.9794 -1.62267,-2.475 -6.09305,-8.55 -9.93419,-13.5 -6.96996,-8.98206 -13.56462,-20.50358 -15.97995,-27.91857 -0.70203,-2.15522 -2.06679,-5.30522 -3.0328,-7 -2.65959,-4.66604 -8.81408,-27.40126 -15.39165,-56.85804 -5.77122,-25.8457 -4.73708,-78.79335 2.51416,-128.72339 2.69038,-18.52521 3.69903,-24.5338 6.53294,-38.91703 1.34558,-6.82937 3.33588,-18.30437 4.4229,-25.5 2.00805,-13.29262 2.23875,-14.34298 6.05818,-27.58297 2.32723,-8.06728 5.07423,-18.90414 10.01274,-39.5 3.07471,-12.82293 6.74718,-26.14507 8.82133,-32 0.58453,-1.65 3.2808,-9.75 5.99173,-18 7.07631,-21.53493 8.51573,-25.33813 11.94984,-31.57349 1.68828,-3.06541 4.68306,-9.59041 6.65509,-14.5 1.97202,-4.909579 4.16183,-9.82651 4.86625,-10.92651 0.70442,-1.1 2.30612,-5.15 3.55935,-9 1.25323,-3.85 3.06828,-8.575 4.03346,-10.5 0.96517,-1.925 4.2599,-8.675 7.32161,-15 3.06172,-6.325 6.2334,-12.625 7.04818,-14 0.81478,-1.375 2.50031,-4.732672 3.74562,-7.461494 12.52377,-27.4430717 25.38012,-25.2398578 36.36222,6.231463 1.2917,3.701517 3.5535,9.655031 5.0262,13.230031 1.4728,3.575 3.2815,8.525 4.0194,11 0.7379,2.475 2.9711,8.775 4.9628,14 1.9916,5.225 4.4622,11.833861 5.49,14.686357 1.0279,2.852497 3.5467,8.702493 5.5975,13.000003 2.0507,4.2975 4.748,10.28864 5.9941,13.31364 4.9939,12.12328 7.0999,16.7005 9.6937,21.06889 1.4921,2.51289 3.2409,6.11289 3.8862,8 0.6453,1.88711 2.8396,5.90611 4.8762,8.93111 2.0367,3.025 5.6217,9.325 7.9669,14 2.3451,4.675 7.299,13 11.0085,18.5 3.7096,5.5 6.914,10.46504 7.121,11.03343 0.4012,1.10194 8.1952,14.36566 17.6263,29.99641 3.1625,5.24141 6.7788,11.55768 8.0361,14.03614 1.2574,2.47847 3.146,5.36611 4.1969,6.41698 1.0508,1.05087 2.6669,3.39711 3.5913,5.21386 0.9244,1.81675 4.27,7.57818 7.4347,12.80318 3.1647,5.225 6.0691,11.075 6.4541,13 0.3851,1.925 2.1811,5.975 3.991,9 2.6055,4.35456 4.5495,10.70657 9.3342,30.5 7.5913,31.4036 7.866,32.76017 9.2154,45.5 0.6116,5.775 1.563,14.00377 2.1142,18.28615 3.393,26.36241 -3.9755,71.43618 -15.4331,94.40587 -2.4165,4.84439 -4.6933,10.04782 -5.0595,11.56318 -0.3663,1.51536 -2.3106,4.26235 -4.3207,6.10444 -4.8208,4.41794 -5.6133,14.23076 -5.1803,64.14036 0.5913,68.14764 0.5479,70.3529 -1.5274,77.5 -7.7177,26.57972 -27.375,38.79486 -50.5969,31.4412 z m 246.2454,-0.16363 c -19.1852,-6.62975 -27.0887,-28.53609 -25.6552,-71.10942 2.3737,-70.49628 1.2943,-96.61908 -4.1465,-100.34716 -2.4443,-1.67485 -3.5182,-3.30261 -3.9792,-6.03128 -0.3473,-2.05553 -1.9357,-5.66161 -3.5298,-8.01352 -1.5941,-2.3519 -2.9065,-4.62338 -2.9165,-5.04772 -0.01,-0.42434 -1.5459,-4.69934 -3.413,-9.5 -1.8672,-4.80066 -4.6269,-14.35347 -6.1327,-21.22847 -1.5058,-6.875 -3.2362,-13.4 -3.8455,-14.5 -0.6092,-1.1 -1.1555,-4.7 -1.2139,-8 -0.7231,-40.85604 -0.3112,-51.47623 2.6762,-69 1.0314,-6.05 2.7375,-13.70567 3.7914,-17.01259 1.0538,-3.30693 2.2441,-8.70693 2.6451,-12 0.4009,-3.29308 1.2885,-7.11241 1.9724,-8.48741 0.6838,-1.375 2.1998,-6.8926 3.3689,-12.26134 1.169,-5.36873 3.2069,-11.89373 4.5286,-14.5 1.3217,-2.60626 3.5434,-7.66366 4.9371,-11.23866 2.2206,-5.69617 11.7079,-22.7615 17.5121,-31.5 4.3774,-6.59039 18.0107,-29.27151 20.1363,-33.5 3.2268,-6.4188 9.0584,-16.00881 11.7924,-19.39256 1.2855,-1.5909 3.4869,-5.1909 4.8921,-8 1.4052,-2.80909 3.3616,-6.00744 4.3476,-7.10744 0.986,-1.1 4.1511,-6.5 7.0336,-12 2.8825,-5.5 6.0749,-11.19271 7.0942,-12.65047 4.0971,-5.8594 25.2338,-50.84628 27.8849,-59.34953 0.6859,-2.2 2.2552,-6.025 3.4873,-8.5 1.2322,-2.475 2.5762,-6.075 2.9867,-8 0.4105,-1.925 1.7605,-5.525 3,-8 1.2395,-2.475 2.5941,-6.073197 3.0103,-7.995993 0.4162,-1.922795 1.3382,-4.847795 2.049,-6.5 0.7107,-1.652204 1.9517,-5.029007 2.7576,-7.504007 0.806,-2.475 2.8284,-7.65 4.4943,-11.5 1.6659,-3.85 4.6257,-10.773903 6.5773,-15.386451 6.3206,-14.937977 14.3436,-15.991351 22.4084,-2.942108 1.1431,1.849471 3.2183,4.433671 4.6117,5.742667 1.3933,1.308996 3.0615,4.00132 3.7069,5.982942 0.6455,1.981623 2.3885,5.40295 3.8734,7.60295 4.6375,6.871018 16.3057,32.514578 20.0206,44 0.7115,2.2 1.8543,4.9 2.5394,6 0.6851,1.1 2.0093,4.690057 2.9426,7.97791 0.9333,3.28784 2.498,7.11284 3.4772,8.5 2.83,4.00914 8.7182,16.22866 9.4511,19.61349 0.3682,1.70027 2.0489,6.42527 3.7349,10.5 1.686,4.07473 3.6672,9.4336 4.4027,11.9086 1.8507,6.22815 4.3621,13.83576 5.9422,18 0.7304,1.925 2.2666,7.55 3.4139,12.5 3.4906,15.06159 16.2233,65.91227 16.6951,66.67568 0.7283,1.17843 8.0698,41.1298 9.4314,51.32432 0.5142,3.85 1.5884,10.6 2.3872,15 0.7987,4.4 1.9657,12.275 2.5932,17.5 0.6276,5.225 1.7624,11.975 2.5218,15 0.8812,3.51031 1.5638,13.96584 1.8868,28.90175 0.2783,12.87096 1.0135,26.87284 1.6338,31.11529 0.9368,6.40698 0.8811,8.20216 -0.3289,10.59825 -1.0838,2.14606 -1.3296,5.17558 -0.9597,11.83149 0.8092,14.5593 -6.2611,55.22213 -11.1952,64.38637 -0.7897,1.46677 -3.1036,8.21853 -5.1419,15.00391 -4.171,13.88506 -12.7743,31.53576 -18.3576,37.66294 -5.3774,5.90117 -9.2509,11.15652 -14.0041,19 -4.2138,6.9533 -15.611,19.52257 -40.6292,44.80719 -15.9645,16.13457 -18.7914,18.41054 -33.9462,27.33096 -6.6,3.88489 -19.65,11.60908 -29,17.16486 -20.784,12.3499 -24.0658,13.79049 -33.217,14.58122 -3.9694,0.34299 -10.0444,1.29019 -13.5,2.10491 -7.7954,1.83786 -19.8971,1.7376 -25.5376,-0.21157 z"
     id="path3" /></svg>
