<?xml version="1.0" encoding="UTF-8" standalone="no"?>
<!-- Created with Inkscape (http://www.inkscape.org/) -->

<svg
   version="1.1"
   id="svg1"
   width="2400"
   height="3200"
   viewBox="0 0 2400 3200"
   xml:space="preserve"
   xmlns="http://www.w3.org/2000/svg"
   xmlns:svg="http://www.w3.org/2000/svg"><defs
     id="defs1" /><path
     style="fill:#000000"
     d="m 1085,675.18687 c -2.475,-0.17222 -4.9275,-0.73472 -5.45,-1.25 -0.5225,-0.51528 -2.1834,-0.93687 -3.691,-0.93687 -1.5075,0 -3.0354,-0.47635 -3.3952,-1.05855 -0.368,-0.59549 -1.8832,-0.7886 -3.4638,-0.44145 -1.5453,0.3394 -3.0779,0.18299 -3.4058,-0.34757 -0.3279,-0.53057 -1.5253,-0.7217 -2.6609,-0.42474 -1.1356,0.29697 -3.0476,0.0716 -4.249,-0.50087 -1.2014,-0.57244 -4.2093,-1.79541 -6.6843,-2.7177 -2.475,-0.92228 -5.1758,-2.28282 -6.0018,-3.0234 -0.826,-0.74058 -2.626,-1.83146 -4,-2.42417 -4.9114,-2.11866 -29.3714,-17.05771 -29.8315,-18.21972 -0.1834,-0.46301 -0.8686,-0.84183 -1.5228,-0.84183 -0.6542,0 -3.6542,-1.62324 -6.6667,-3.60719 -3.0125,-1.98396 -7.2772,-4.51884 -9.4772,-5.63307 -11.73447,-5.94317 -50.87391,-45.44329 -63.98976,-64.57945 -2.51825,-3.67416 -6.79683,-9.60529 -9.50795,-13.18029 -7.9948,-10.54228 -8.42444,-11.12612 -10.20884,-13.87298 -2.78923,-4.29367 -11.37216,-22.16709 -13.74686,-28.62702 -1.2131,-3.3 -2.84485,-7.47777 -3.62611,-9.28393 C 892.63921,502.40991 892,500.07397 892,499.02509 c 0,-1.04888 -0.45,-2.18517 -1,-2.52509 -0.55,-0.33992 -1,-1.94758 -1,-3.57259 0,-1.625 -0.40917,-3.73594 -0.90927,-4.69098 -0.5001,-0.95504 -1.62251,-4.94011 -2.49426,-8.85571 -3.08987,-13.87881 -6.28479,-29.90823 -6.35432,-31.88072 -0.0388,-1.1 -0.41036,-10.55 -0.82574,-21 -0.87694,-22.06185 -0.90992,-18.87896 0.44035,-42.5 1.25976,-22.03765 1.90411,-30.14437 3.13958,-39.5 0.50841,-3.85 1.40114,-10.6 1.98384,-15 0.58269,-4.4 1.70339,-11.6 2.49042,-16 0.78704,-4.4 2.61153,-15.65 4.05442,-25 1.44288,-9.35 3.01354,-18.575 3.49035,-20.5 0.4768,-1.925 1.59849,-7.775 2.49264,-13 0.89415,-5.225 2.09245,-10.85 2.66289,-12.5 0.57043,-1.65 1.45573,-5.42084 1.96733,-8.37965 0.5116,-2.95881 1.36479,-6.19173 1.89597,-7.18426 C 904.56539,225.94356 905,223.72232 905,222 c 0,-1.72232 0.43182,-3.93835 0.95961,-4.92453 0.52778,-0.98617 2.37035,-7.14408 4.0946,-13.68425 5.28483,-20.04565 6.5823,-24.83225 7.15368,-26.39122 0.30236,-0.825 3.03992,-8.925 6.08346,-18 7.26095,-21.65016 10.20383,-29.82852 11.03114,-30.65582 0.37263,-0.37263 0.67751,-1.5272 0.67751,-2.56571 0,-1.03851 0.95959,-4.00101 2.13243,-6.58333 1.17284,-2.58233 3.42284,-7.51891 5,-10.97018 1.57716,-3.45128 2.86632,-6.82628 2.86479,-7.5 C 944.99569,100.05123 945.87304,97.7 946.94689,95.5 950.47731,88.267159 953,82.385022 953,81.385981 953,80.232173 966.83558,48.968937 967.99628,47.5 c 0.43459,-0.55 3.07753,-5.509175 5.87321,-11.020389 9.82645,-19.371228 26.17181,-31.5168265 30.10071,-22.366689 0.5638,1.312893 1.4243,3.062078 1.9123,3.887078 1.9363,3.273335 6.9895,14.725351 8.1632,18.5 0.684,2.2 2.3036,6.333665 3.599,9.185923 1.2954,2.852258 2.3553,5.78963 2.3553,6.527494 0,0.737864 0.5897,2.229198 1.3104,3.314077 0.7207,1.084878 1.924,3.997506 2.6739,6.472506 0.7499,2.475 1.7352,4.9275 2.1896,5.45 0.4543,0.5225 0.8261,1.958442 0.8261,3.190983 0,1.232541 0.45,2.519098 1,2.859017 0.55,0.339919 1,1.448951 1,2.464516 0,1.59515 1.2297,4.539578 5.1252,12.271915 0.4811,0.955037 0.8748,2.406268 0.8748,3.224958 0,0.81869 1.35,4.436065 3,8.038611 1.65,3.60255 3,6.79168 3,7.08697 0,0.53616 2.9958,7.29758 7.579,17.10572 1.3346,2.85598 2.8753,5.47004 3.4238,5.80902 0.5484,0.33898 0.9972,1.5328 0.9972,2.65294 0,1.12013 0.8214,3.23108 1.8254,4.69098 1.004,1.4599 2.4413,4.22937 3.194,6.15437 0.7527,1.925 2.346,5.3 3.5406,7.5 1.1946,2.2 4.9762,9.175 8.4034,15.5 3.4273,6.325 6.8626,12.21043 7.634,13.07874 0.7714,0.86831 1.4026,1.86755 1.4026,2.22053 0,0.35299 3.0375,5.49998 6.75,11.43776 3.7125,5.93778 7.4045,12.13854 8.2044,13.77947 0.8,1.64092 2.2214,3.8835 3.1588,4.9835 0.9373,1.1 3.1104,4.7 4.8292,8 1.7187,3.3 4.9791,8.925 7.2454,12.5 2.2662,3.575 5.1395,8.55955 6.3851,11.07677 1.2456,2.51722 3.3695,5.89222 4.7199,7.5 5.1468,6.12783 18.6992,31.0461 18.7138,34.40834 0,0.83319 0.9092,2.86489 2.0124,4.51489 3.0678,4.58826 10.0113,28.85122 15.0244,52.5 0.5246,2.475 1.8173,8.325 2.8726,13 10.926,48.4022 1.8713,107.57005 -22.1618,144.81639 -4.4294,6.86472 -4.8505,19.10309 -3.6876,107.18361 0.3885,29.42994 -0.3098,35.86109 -4.8422,44.591 -0.5451,1.04995 -1.6022,3.20733 -2.3491,4.79418 -6.164,13.09603 -21.4994,20.14996 -40.8753,18.80169 z m 16.6847,-11.73336 c 4.9971,-1.41817 15.3153,-9.82998 15.3153,-12.48561 0,-0.54433 0.8731,-2.89729 1.9402,-5.2288 4.3171,-9.43232 4.5059,-11.63288 4.3544,-50.7391 -0.097,-24.9709 0.3476,-43.97067 1.3298,-56.8669 1.6972,-22.28195 1.8205,-21.7684 -3.8278,-15.93833 -15.5,15.9988 -37.6606,14.33315 -26.2399,-1.97226 1.4575,-2.08086 1.4256,-2.22251 -0.5,-2.22251 -1.1312,0 -2.0567,-0.45 -2.0567,-1 0,-0.55 1.195,-1 2.6556,-1 2.6129,0 8.7324,-3.88975 11.0036,-6.99424 0.6375,-0.87145 4.9125,-5.44554 9.5,-10.16465 7.9639,-8.19242 13.755,-15.42094 16.6968,-20.84111 4.2428,-7.81702 7.144,-13.89743 7.144,-14.97258 0,-0.67384 0.634,-2.64317 1.4088,-4.37629 0.7749,-1.73312 1.6287,-4.27613 1.8974,-5.65113 0.2687,-1.375 1.3989,-5.875 2.5116,-10 4.1774,-15.48723 6.2596,-50.19708 4.1692,-69.5 -0.5956,-5.5 -1.4992,-14.5 -2.0081,-20 -1.4394,-15.55864 -4.2194,-28.58118 -7.8984,-37 -1.0801,-2.47152 -6.5161,-17.81305 -6.5552,-18.5 -0.016,-0.275 -0.9439,-1.85 -2.0629,-3.5 -1.119,-1.65 -2.6281,-4.35 -3.3537,-6 -5.7026,-12.96793 -7.6919,-17.06073 -13.1231,-27 -2.7049,-4.95 -5.8551,-10.8 -7.0006,-13 -2.7308,-5.24476 -6.9295,-12.89667 -10.1511,-18.5 -1.423,-2.475 -4.2565,-7.425 -6.2967,-11 -2.0402,-3.575 -4.0692,-6.95 -4.5087,-7.5 -0.7275,-0.91017 -7.1104,-12.27937 -14.0355,-25 -1.4971,-2.75 -3.7496,-6.8 -5.0055,-9 -4.5266,-7.92934 -17.5188,-34.08761 -18.8738,-38 -0.7618,-2.2 -2.2241,-5.19447 -3.2494,-6.65437 -1.0254,-1.4599 -1.8643,-3.10488 -1.8643,-3.6555 0,-0.55062 -0.8644,-2.73115 -1.921,-4.84563 -1.0565,-2.11447 -4.0328,-9.0195 -6.614,-15.3445 -6.3212,-15.489272 -7.3381,-17.866418 -9.5586,-22.344501 -1.0485,-2.114475 -1.9064,-4.244807 -1.9064,-4.73407 0,-0.489263 -1.35,-3.676483 -3,-7.082712 -1.65,-3.406229 -3,-6.726233 -3,-7.377787 0,-0.651553 -1.8,-4.683972 -4,-8.96093 -2.2,-4.276958 -4,-8.524123 -4,-9.438144 0,-0.914021 -0.3718,-2.089356 -0.8261,-2.611856 -0.4544,-0.5225 -1.4354,-2.975 -2.1801,-5.45 -0.7448,-2.475 -1.6644,-4.95 -2.0436,-5.5 -0.3793,-0.55 -1.2634,-2.8 -1.9648,-5 -1.5331,-4.808882 -2.38922,-5.464805 -7.15867,-5.484687 -5.88136,-0.02452 -8.9819,3.513533 -16.91783,19.305034 -3.91551,7.791368 -7.87506,15.294167 -8.79901,16.672888 -3.02402,4.512482 -9.53139,19.291487 -12.11155,27.506765 -0.69095,2.2 -1.81607,5.125 -2.50027,6.5 -2.29835,4.618867 -4.68586,10.43071 -9.03761,22 -2.37913,6.325 -5.48101,14.39783 -6.89307,17.93961 -1.41207,3.54179 -2.56739,7.38929 -2.56739,8.55 0,1.16072 -0.42341,2.53789 -0.94092,3.06039 -0.96963,0.97899 -7.32492,19.57462 -10.9193,31.95 -1.11822,3.85 -3.16846,10.825 -4.55609,15.5 -3.34677,11.27548 -7.01061,25.65295 -9.04654,35.5 -0.90973,4.4 -2.30274,10.58071 -3.0956,13.7349 -0.79285,3.1542 -1.44155,7.02455 -1.44155,8.60078 0,1.57623 -0.44193,4.17052 -0.98207,5.7651 -0.54013,1.59457 -1.71393,8.52422 -2.60842,15.39922 -0.8945,6.875 -1.99477,14.975 -2.44505,18 -2.62826,17.65691 -3.13962,21.0078 -3.96769,26 -1.85146,11.16191 -5.49677,75.82123 -5.49677,97.5 0,14.11284 1.2353,36.26269 2.10045,37.66253 0.25693,0.41573 0.92206,3.81173 1.47807,7.54667 3.96908,26.66223 6.5664,36.96512 13.43443,53.2908 4.6861,11.13911 5.75678,13.42321 7.50006,16 0.93023,1.375 4.2676,6.42711 7.41637,11.2269 3.14878,4.7998 7.09884,10.19755 8.77792,11.99502 1.67908,1.79746 4.99645,5.79393 7.37194,8.88106 9.39685,12.21191 10.82211,13.67691 34.42076,35.38037 C 988.05428,610.32864 999.62186,620 1001.1275,620 c 0.4799,0 0.8753,0.5625 0.8788,1.25 0,0.6875 1.241,2.03597 2.75,2.9966 1.509,0.96064 4.5437,3.11355 6.7437,4.78425 3.8042,2.88892 10.0839,7.23814 13.6428,9.44872 0.9036,0.56124 6.0105,4.17043 11.3486,8.02043 5.3382,3.85 10.4489,7.43197 11.3572,7.95993 0.9083,0.52796 2.7764,1.69245 4.1514,2.58776 9.7555,6.35214 37.3416,9.9088 49.6847,6.40582 z M 1072.15,659.75 c -0.6875,-0.6875 -1.565,-1.26595 -1.95,-1.28544 -0.385,-0.0195 -1.7697,-0.62845 -3.0772,-1.35324 -1.9689,-1.0915 -2.5177,-1.09038 -3.1956,0.006 -0.4502,0.72836 -0.9554,1.11232 -1.1228,0.85325 -0.1674,-0.25907 -0.7912,-1.37104 -1.3862,-2.47104 -0.595,-1.1 -2.0575,-2.44421 -3.25,-2.98713 -1.1925,-0.54292 -2.1682,-1.33042 -2.1682,-1.75 0,-0.41958 -0.824,-0.76287 -1.831,-0.76287 -1.0071,0 -2.413,-1.08749 -3.1244,-2.41665 -0.7113,-1.32916 -3.7124,-4.50509 -6.669,-7.05763 -6.1388,-5.29992 -6.3206,-5.77412 -2.8236,-7.36744 1.4035,-0.63951 3.1775,-2.66007 3.9422,-4.49012 2.5872,-6.19202 3.8243,-6.28319 8.1327,-0.59933 2.1302,2.81021 5.8981,6.28525 8.3731,7.72231 7.647,4.44007 7.5136,7.852 -0.1847,4.72599 -10.9584,-4.44979 -12.4838,-3.79841 -5.0721,2.16592 2.6087,2.09932 7.6712,6.19889 11.25,9.11016 3.5787,2.91126 7.0792,5.75074 7.7788,6.30995 1.4346,1.14674 0.7513,2.89684 -1.131,2.89684 -0.6826,0 -1.8035,-0.5625 -2.491,-1.25 z m -44.3738,-46.06931 c -2.048,-1.19938 -5.0174,-3.30569 -6.5986,-4.68069 -1.5812,-1.375 -5.0672,-4.0617 -7.7467,-5.97045 -2.6795,-1.90875 -5.6051,-4.15875 -6.5014,-5 -0.8963,-0.84125 -3.6096,-3.18018 -6.0296,-5.19762 -11.23694,-9.36788 -20.88553,-17.99821 -22.69851,-20.30304 C 977.10731,571.138 975.90414,570 975.52768,570 c -1.62557,0 -18.75088,-19.86478 -24.76681,-28.72866 -4.67635,-6.89015 -5.00425,-10.39033 -0.4606,-4.9167 10.56191,12.72368 13.37676,16.32895 13.97198,17.89536 0.36574,0.9625 1.3541,1.75 2.19637,1.75 0.84226,0 1.53138,0.36325 1.53138,0.80722 0,1.01663 4.70055,6.77604 8,9.80211 1.375,1.26107 5.14722,4.78986 8.38271,7.84176 3.23548,3.0519 6.03479,5.54891 6.22068,5.54891 0.18589,0 2.48868,2.02028 5.1173,4.48951 2.62862,2.46923 5.56681,4.74955 6.52931,5.06739 0.9625,0.31783 1.75,1.19223 1.75,1.9431 0,0.75087 0.912,1.65468 2.0266,2.00846 1.1147,0.35377 2.7414,1.7341 3.6151,3.06738 0.8736,1.33329 2.1634,2.42416 2.8663,2.42416 0.7029,0 1.537,0.675 1.8536,1.5 0.3166,0.825 1.4898,1.5 2.607,1.5 1.1173,0 2.0314,0.64468 2.0314,1.43261 0,0.78794 0.7875,1.68523 1.75,1.99398 0.9625,0.30875 3.1,1.72812 4.75,3.15417 1.65,1.42604 4.2375,3.32578 5.75,4.22163 2.8854,1.709 3.6223,3.24598 1.5,3.1283 -0.6875,-0.0381 -2.9257,-1.05061 -4.9738,-2.25 z m -1.2762,-6.87564 c -1.1,-0.62377 -2.225,-1.42728 -2.5,-1.78559 -0.275,-0.3583 -2.7398,-2.17629 -5.4774,-4.03997 -6.8606,-4.67051 -7.9838,-5.60007 -15.4601,-12.79492 -3.60937,-3.47349 -8.3625,-7.70446 -10.5625,-9.40216 -2.2,-1.69771 -5.35,-4.78303 -7,-6.85628 -1.65,-2.07324 -4.00504,-4.32682 -5.23343,-5.00794 -1.22839,-0.68113 -2.49621,-2.06636 -2.81739,-3.0783 C 977.12801,562.82795 976.22055,562 975.43261,562 974.64468,562 974,561.49204 974,560.8712 c 0,-0.62084 -1.59759,-2.98334 -3.55019,-5.25 -1.95261,-2.26666 -3.87179,-4.5712 -4.26484,-5.1212 -2.14833,-3.00614 -8.74439,-11.14095 -9.73014,-12 -0.63111,-0.55 -1.91556,-2.48643 -2.85434,-4.30318 -0.93877,-1.81675 -2.47042,-4.07842 -3.40367,-5.02593 -0.93325,-0.94752 -2.99833,-4.18609 -4.58905,-7.19682 -1.59073,-3.01074 -3.67651,-6.37407 -4.63507,-7.47407 -0.95856,-1.1 -2.08464,-3.125 -2.5024,-4.5 -0.41777,-1.375 -2.04449,-5.03067 -3.61494,-8.1237 C 933.28491,498.78326 932,495.95194 932,495.58448 c 0,-0.36746 -0.79285,-1.51914 -1.7619,-2.55928 -0.96904,-1.04015 -2.38446,-4.05883 -3.14536,-6.70819 -0.7609,-2.64936 -1.68699,-5.26701 -2.05797,-5.81701 -0.37098,-0.55 -1.24943,-3.025 -1.95211,-5.5 -0.70267,-2.475 -1.68373,-5.28139 -2.18012,-6.23643 -0.4964,-0.95504 -0.90254,-3.00254 -0.90254,-4.55 0,-1.54746 -0.4807,-3.29427 -1.06822,-3.88179 -0.58752,-0.58752 -0.92502,-2.81502 -0.75,-4.95 0.329,-4.01332 3.74063,0.40044 3.56967,4.61822 -0.0334,0.825 1.16324,4.425 2.6593,8 4.36919,10.44067 7.58925,19.37069 7.58925,21.04683 0,0.85553 1.85835,4.41543 4.12966,7.91091 2.27132,3.49547 4.91529,8.58626 5.87549,11.31287 0.96021,2.7266 2.19365,5.24364 2.74098,5.59342 0.54732,0.34978 2.91319,3.78597 5.25748,7.63597 2.34429,3.85 5.3275,8.27203 6.62937,9.82673 1.30186,1.55469 2.36702,3.29127 2.36702,3.85905 0,0.56778 0.88324,1.99575 1.96275,3.17327 1.07952,1.17752 4.85545,5.74095 8.39097,10.14095 3.53552,4.4 7.93978,9.6461 9.78725,11.658 1.84747,2.0119 4.12178,4.4869 5.05402,5.5 0.93225,1.0131 3.74107,3.867 6.24183,6.342 2.50075,2.475 4.5505,4.8375 4.555,5.25 0.005,0.4125 0.52107,0.75 1.14794,0.75 0.62686,0 1.63936,0.62817 2.25,1.39593 0.93487,1.17545 18.88074,16.96673 22.16814,19.50663 0.5818,0.44953 3.2818,2.50517 6,4.56809 2.7181,2.06291 5.1296,3.92594 5.3588,4.14005 0.973,0.90914 -3.5894,0.23055 -5.4167,-0.80565 z m 15.2117,-2.96544 c -2.0414,-2.28822 -3.7117,-4.89822 -3.7117,-5.8 0,-0.90179 -0.5255,-2.16515 -1.1679,-2.80749 -0.6423,-0.64233 -1.7186,-2.64483 -2.3918,-4.45 -4.6837,-12.5601 -5.6655,-15.68637 -6.0082,-19.1311 -0.2124,-2.13512 -0.8379,-5.29256 -1.3899,-7.01653 -7.3101,-22.82732 -8.1883,-44.66584 -2.378,-59.13449 3.5725,-8.89621 5.3358,-14.05582 5.3358,-15.61344 0,-0.90292 0.6173,-2.15397 1.3718,-2.78012 0.7544,-0.62615 1.6102,-3.254 1.9016,-5.83966 0.2914,-2.58567 1.0242,-4.86596 1.6282,-5.06733 0.6041,-0.20136 1.0984,-1.03576 1.0984,-1.85421 0,-1.77476 2.3826,-4.34524 4.0277,-4.34524 1.5782,0 9.9723,-8.97218 9.9723,-10.65907 0,-0.73751 0.45,-1.34093 1,-1.34093 0.55,0 1,-0.675 1,-1.5 0,-0.825 0.675,-1.5 1.5,-1.5 0.825,0 1.5,0.6199 1.5,1.37756 0,0.75765 -0.675,1.93775 -1.5,2.62244 -0.825,0.68469 -1.5,2.78452 -1.5,4.66628 0,2.70374 -0.3671,3.35976 -1.75,3.12756 -0.9779,-0.16419 -1.6397,0.25769 -1.5,0.95616 0.1375,0.6875 -0.1363,1.25 -0.6085,1.25 -1.0587,0 -11.9921,18.4921 -15.3724,26 -5.5699,12.37104 -9.4196,31.37232 -8.2055,40.5 0.9848,7.40361 1.8633,7.75231 2.5194,1 0.9643,-9.92332 3.8971,-21.51752 6.9955,-27.65541 1.6068,-3.18316 2.9215,-6.27426 2.9215,-6.86913 0,-0.59486 1.1061,-2.70938 2.4581,-4.69894 2.2834,-3.36041 2.3367,-3.70702 0.75,-4.87962 -1.413,-1.04421 -1.4805,-1.48982 -0.3908,-2.57958 1.0898,-1.08976 1.5594,-0.98945 2.7185,0.5807 1.3468,1.82444 1.4386,1.79943 2.3681,-0.64513 0.5317,-1.39873 1.5584,-2.75373 2.2815,-3.01111 0.723,-0.25738 0.9463,-0.86035 0.4962,-1.33993 -0.4511,-0.48063 -1.6237,0.19567 -2.6128,1.50691 -1.0029,1.32955 -2.296,2.06886 -2.9316,1.67604 -1.6561,-1.02354 -1.3919,-2.54981 0.5718,-3.30336 0.9399,-0.36069 2.7318,-1.80907 3.982,-3.21862 2.4653,-2.77967 4.1352,-1.8554 4.4033,2.43718 0.1266,2.02829 1.3107,-2.90583 2.8798,-12 1.66,-9.6217 4.1906,-20.00819 5.1043,-20.95 0.5069,-0.5225 0.9216,-1.895 0.9216,-3.05 0,-1.155 0.5293,-2.62928 1.1762,-3.27617 0.6469,-0.64689 1.3156,-3.46282 1.4861,-6.25761 0.1823,-2.9872 0.9762,-5.74762 1.9265,-6.69786 1.1018,-1.10181 1.4492,-2.64685 1.0912,-4.85309 -0.2889,-1.78016 -0.2855,-3.47645 0.01,-3.76953 1.8258,-1.82581 2.2485,-31.52661 0.6675,-46.90303 -0.8054,-7.83349 -1.8642,-18.29271 -2.3527,-23.24271 -0.4886,-4.95 -2.0306,-13.275 -3.4266,-18.5 -1.3961,-5.225 -2.5467,-11.24779 -2.5571,-13.38398 -0.026,-5.39401 -1.915,-11.51801 -4.7415,-15.3719 -1.3134,-1.79074 -2.0828,-3.7496 -1.7099,-4.35302 0.3729,-0.60343 -0.2418,-3.18828 -1.3662,-5.74412 -1.1243,-2.55584 -2.3098,-5.48516 -2.6345,-6.5096 -0.4653,-1.46835 -0.8864,-1.61683 -1.9894,-0.70145 -0.9579,0.79497 -1.6035,0.83049 -2.0472,0.11263 -0.3564,-0.57671 0.084,-1.04856 0.9784,-1.04856 2.2749,0 1.013,-3.65762 -2.5874,-7.5 -7.8251,-8.35074 -10.328,-11.19005 -14.7934,-16.78149 -3.9451,-4.93981 2.696,-0.94686 9.5777,5.75865 8.3804,8.16575 9.848,8.66577 6.5523,2.23245 -1.1861,-2.31528 -3.0696,-7.13461 -4.1855,-10.70961 -2.9989,-9.60711 -6.7353,-19.99653 -7.4476,-20.70883 -0.3435,-0.34348 -0.6245,-1.64795 -0.6245,-2.89882 0,-1.25087 -0.45,-2.55243 -1,-2.89235 -0.55,-0.33992 -1,-1.40695 -1,-2.37119 0,-0.96423 -0.9,-3.61594 -2,-5.89267 -1.1,-2.27674 -2,-5.25971 -2,-6.62882 0,-1.36911 -0.45,-2.7674 -1,-3.10732 -0.55,-0.33992 -1,-1.68992 -1,-3 0,-1.31008 -0.3883,-2.62193 -0.8628,-2.91522 -0.4746,-0.29329 -1.4409,-2.68235 -2.1475,-5.30902 -0.7065,-2.62667 -1.6682,-5.20326 -2.1371,-5.72576 -0.4689,-0.5225 -0.8526,-1.97131 -0.8526,-3.21958 0,-1.24827 -0.9086,-3.8873 -2.0191,-5.86451 -1.1106,-1.97721 -1.7571,-4.01908 -1.4367,-4.53748 0.3204,-0.51841 -0.1178,-1.21129 -0.9737,-1.53975 -1.0391,-0.39874 -1.3681,-1.34691 -0.99,-2.85327 0.4762,-1.8973 0.077,-2.35382 -2.5071,-2.87074 -1.8189,-0.36378 -3.0734,-1.23714 -3.0734,-2.13967 0,-0.83875 -0.45,-1.525 -1,-1.525 -0.55,0 -1,-0.675 -1,-1.5 0,-2.48465 1.6562,-1.69409 3.2214,1.53768 1.2387,2.55766 1.6612,2.80876 2.6734,1.58902 0.8182,-0.98581 0.8673,-1.65569 0.1538,-2.09669 -0.5767,-0.35642 -1.0486,-1.88149 -1.0486,-3.38903 0,-1.50754 -0.4264,-3.16848 -0.9476,-3.69098 -0.5211,-0.5225 -1.136,-2.525 -1.3663,-4.45 -0.2303,-1.925 -0.7279,-4.22454 -1.1057,-5.1101 -0.3779,-0.88555 -0.8285,-2.68555 -1.0015,-4 -0.1729,-1.31444 -0.5459,-3.0649 -0.8288,-3.8899 -2.0129,-5.87067 -5.81774,-21.3177 -6.46731,-26.25627 -0.27173,-2.06595 -0.89652,-4.005 -1.38842,-4.30901 C 995.40247,119.1307 995,117.81008 995,116.5 c 0,-1.31008 -0.38618,-2.62064 -0.85818,-2.91235 -0.472,-0.29171 -1.39526,-3.80577 -2.05169,-7.80902 -1.43836,-8.771854 -2.97563,-11.224834 -6.60033,-10.531928 -2.10968,0.403289 -2.47801,0.189213 -1.93438,-1.12428 1.52696,-3.689377 1.53276,-5.086393 0.042,-10.106357 -0.8596,-2.894583 -1.28661,-5.709934 -0.94891,-6.256336 0.33769,-0.546401 0.76358,-3.303369 0.94642,-6.126593 C 984.13437,63.303273 984.97215,60 986.54531,60 c 1.73157,0 1.69768,-0.315495 0.43036,4.006602 -1.29506,4.416669 -0.29324,11.711773 1.37843,10.037538 0.63025,-0.631213 1.16851,-2.586868 1.19615,-4.3459 0.3097,-19.709993 2.06971,-18.010941 2.64331,2.55176 0.24932,8.9375 0.92834,17.15 1.50893,18.25 0.99251,1.880407 3.84337,11.96108 4.94909,17.5 0.27449,1.375 0.86615,3.4 1.31481,4.5 1.86101,4.56286 3.98961,12.76217 3.51321,13.53303 -0.2817,0.45583 -0.055,1.11143 0.5041,1.45689 0.559,0.34546 1.0163,1.56785 1.0163,2.71643 0,1.72959 1.8168,7.75068 4.7655,15.79365 0.3025,0.825 0.4588,2.06447 0.3474,2.75437 -0.1114,0.68991 0.4343,2.71491 1.2127,4.5 0.7784,1.7851 1.9515,5.27063 2.6069,7.74563 0.6554,2.475 1.9056,6.525 2.7781,9 0.8725,2.475 3.1337,9.225 5.0247,15 1.8911,5.775 4.3005,12.3 5.3543,14.5 1.0538,2.2 1.9147,4.70149 1.9132,5.55887 0,0.85738 0.6579,2.43238 1.4654,3.5 0.8075,1.06762 1.4825,2.86762 1.5,4 0.017,1.13238 0.6925,2.93238 1.5,4 0.8075,1.06762 1.4825,3.2557 1.5,4.86239 0.017,1.60669 0.6268,3.63169 1.3541,4.5 0.7273,0.86831 1.9333,3.60374 2.6801,6.07874 0.7468,2.475 1.6324,4.95 1.968,5.5 0.3356,0.55 1.4261,3.7 2.4234,7 1.677,5.54954 3.7297,11.0336 7.2178,19.28393 0.7636,1.80616 1.3884,3.93162 1.3884,4.72325 0,0.79162 0.859,3.36386 1.9089,5.71607 1.05,2.35221 2.4567,6.30175 3.1262,8.77675 0.6695,2.475 2.0605,7.08929 3.0911,10.25398 1.0306,3.16469 1.8738,6.4333 1.8738,7.26357 0,0.83027 0.438,2.29098 0.9734,3.24602 3.1538,5.62625 6.9016,19.52142 6.9016,25.58799 0,3.6005 0.4182,7.35683 0.9293,8.3474 0.9684,1.87696 2.9453,16.44624 3.6365,26.80104 0.2203,3.3 1.0795,10.725 1.9093,16.5 0.8298,5.775 1.2991,11.4 1.0428,12.5 -0.4188,1.79721 -1.2506,12.47986 -2.6966,34.63064 -0.274,4.19685 -0.9928,8.55477 -1.5972,9.68426 -0.6045,1.12949 -1.0991,4.32485 -1.0991,7.1008 0,6.49964 -1.8674,18.5256 -3.6265,23.35454 -0.7554,2.07363 -1.3878,4.99863 -1.4053,6.5 -0.017,1.50137 -0.6925,3.60327 -1.5,4.67089 -0.8075,1.06762 -1.4742,2.86762 -1.4816,4 -0.014,2.23223 -4.8727,16.69427 -6.8002,20.24313 -0.6525,1.20134 -1.1864,3.47384 -1.1864,5.05 0,3.37148 -1.5959,5.26268 -4.45,5.27354 -2.1835,0.008 -4.5451,3.86511 -4.5566,7.44156 0,1.12785 -0.9006,3.40064 -1.9934,5.05064 -1.0928,1.65 -1.9898,3.76968 -1.9934,4.7104 -0.01,2.59973 -3.3173,12.7896 -4.1511,12.7896 -1.7538,0 -1.9669,-8.80901 -0.3479,-14.3782 1.6033,-5.51506 1.5961,-5.82903 -0.1656,-7.19427 -1.623,-1.25777 -1.6636,-1.57855 -0.342,-2.6975 2.1569,-1.82615 4,-5.38166 4,-7.71646 0,-1.10746 0.4158,-2.01357 0.9239,-2.01357 0.5082,0 0.8457,-2.6311 0.75,-5.8469 -0.16,-5.37926 -4.4877,-3.08289 -4.6427,2.46355 -0.017,0.61415 -0.8869,3.31415 -1.9326,6 -4.2291,10.8612 -6.1898,23.14731 -5.886,36.88335 0.1753,7.93026 0.6047,12.22004 1.1011,11 0.4476,-1.1 1.5174,-3.43728 2.3773,-5.19396 0.86,-1.75668 1.3442,-4.34132 1.0762,-5.74365 -0.2818,-1.47425 0.086,-3.02581 0.8727,-3.67848 1.6047,-1.33178 1.7087,-0.8188 1.3918,6.86609 -0.195,4.72959 -0.01,5.25 1.8759,5.25 1.4257,0 2.0924,-0.63723 2.0924,-2 0,-1.55556 0.6667,-2 3,-2 3.8005,0 3.791,0.0582 -1,6.11922 -2.2,2.7832 -4,5.62522 -4,6.31559 0,0.69037 -0.9,2.0697 -2,3.06519 -2.4249,2.19446 -2.5038,4.20037 -0.3748,9.52125 1.7927,4.48042 1.3116,6.00108 -1.2311,3.89087 -2.0447,-1.69698 -1.0767,4.52275 1.1032,7.08788 1.7523,2.06198 6.5027,11.6597 6.5027,13.13802 0,0.66247 0.7447,2.02743 1.655,3.03324 0.9102,1.00581 1.2305,1.82874 0.7117,1.82874 -0.5188,0 -2.6136,-1.87218 -4.655,-4.16039 z m 16.8462,-183.61504 C 1058.2511,419.91772 1058,418.9108 1058,417.98697 1058,415.27839 1054.9777,410 1053.4268,410 1052.642,410 1052,409.60459 1052,409.12132 c 0,-0.48327 -1.4625,-1.42081 -3.25,-2.08341 -1.7875,-0.66261 -4.0314,-1.6172 -4.9864,-2.12132 -0.9551,-0.50413 -3.291,-0.91659 -5.191,-0.91659 -1.9,0 -3.7327,-0.45 -4.0726,-1 -1.5586,-2.52184 -17.187,-1.13264 -22.5,2 -5.666,3.34077 -7,3.64855 -7,1.61501 0,-1.4253 4.1226,-4.61501 5.9648,-4.61501 0.5694,0 1.9669,-0.93173 3.1057,-2.07052 2.1393,-2.13931 5.101,-2.18069 19.6795,-0.27497 3.83,0.50065 4.25,0.34752 4.25,-1.54947 0,-1.15777 0.5063,-2.10504 1.125,-2.10504 0.7167,0 0.9072,1.08889 0.525,3 -0.5099,2.5493 -0.2934,3 1.4407,3 1.1224,0 2.9497,0.48646 4.0607,1.08102 1.1109,0.59456 2.3189,0.75795 2.6842,0.3631 0.3654,-0.39486 0.1019,-0.91882 -0.5856,-1.16436 -2.088,-0.74569 -1.4005,-3.9511 1.2148,-5.66475 3.4634,-2.26927 3.5352,-2.19904 3.5352,3.45642 0,4.673 2.1267,9.13517 3.6351,7.62684 0.8588,-0.85884 2.3149,-7.9034 2.341,-11.32583 0.013,-1.72015 0.7127,-3.69917 1.5545,-4.39781 1.3633,-1.13144 1.4571,-0.22491 0.8582,8.2946 -0.5411,7.69755 -0.3518,10.36593 0.9694,13.66806 2.0782,5.19394 0.238,9.32559 -2.8003,6.28728 z M 1018,286.31697 c -4.6737,-1.54264 -22.0007,-2.38296 -22.00025,-1.06697 1.4e-4,0.4125 -1.91225,0.71954 -4.24975,0.68232 -3.89741,-0.0621 -4.04259,-0.15356 -1.75,-1.10283 1.375,-0.56934 3.34137,-1.47634 4.36972,-2.01556 1.02835,-0.53923 5.07835,-0.89477 8.99998,-0.7901 3.9217,0.10467 7.5527,0.14213 8.0689,0.0832 1.2549,-0.14316 -2.2644,-3.25934 -5.6573,-5.0093 -2.9582,-1.52578 -7.38222,-5.83019 -6.69669,-6.51571 1.38689,-1.3869 14.82889,6.71596 16.30639,9.82949 1.2469,2.62767 2.5826,3.65517 6.1027,4.69451 2.4784,0.73182 4.5063,1.68233 4.5063,2.11226 0,1.12368 -2.8312,0.8047 -8,-0.90135 z m 317,388.61802 c -28.7665,-2.76668 -39.3316,-23.21337 -37.3746,-72.33115 1.7129,-42.99364 1.021,-96.27065 -1.2838,-98.85131 -1.1065,-1.23889 -3.2596,-4.72753 -4.7848,-7.75253 -1.5252,-3.025 -3.6244,-6.429 -4.6649,-7.56445 -1.0406,-1.13545 -1.9062,-2.93545 -1.9237,-4 -0.017,-1.06455 -0.6925,-2.80906 -1.5,-3.87668 -0.8075,-1.06762 -1.4682,-2.51885 -1.4682,-3.22496 0,-0.7061 -1.2765,-4.10759 -2.8367,-7.55887 -2.5674,-5.6792 -4.1642,-11.40675 -7.3254,-26.27504 -0.5847,-2.75 -1.4358,-5.97516 -1.8913,-7.16703 -3.1122,-8.1438 -1.7596,-61.41312 2.0221,-79.63433 5.4969,-26.48582 7.2951,-34.3945 8.4491,-37.15954 0.6976,-1.6715 1.5988,-4.8391 2.0026,-7.0391 2.3863,-12.99934 15.8516,-44.67385 22.6842,-53.36007 1.0425,-1.3253 1.8954,-2.80718 1.8954,-3.29305 0,-0.48588 2.8586,-5.26269 6.3525,-10.61514 9.0164,-13.81265 15.463,-24.6031 18.4997,-30.96508 1.1113,-2.32833 3.1742,-5.74581 4.5842,-7.59439 1.41,-1.84858 2.5636,-3.86542 2.5636,-4.48186 0,-0.61645 1.2668,-2.59898 2.8151,-4.40561 1.5484,-1.80664 3.6295,-5.0848 4.6247,-7.2848 0.9953,-2.2 2.7752,-5.35 3.9552,-7 1.1801,-1.65 2.7953,-4.35 3.5893,-6 0.794,-1.65 2.2447,-4.19068 3.2237,-5.64596 0.979,-1.45529 3.5285,-5.95529 5.6655,-10 2.137,-4.04472 5.7397,-10.67886 8.006,-14.74253 2.2663,-4.06367 4.1154,-7.66367 4.1092,-8 -0.01,-0.33633 1.5339,-3.76151 3.4224,-7.61151 6.2606,-12.76304 10.5889,-22.26627 10.5889,-23.24901 0,-0.53353 1.2998,-3.62077 2.8884,-6.86053 1.5886,-3.239751 3.4669,-7.91546 4.1739,-10.39046 0.707,-2.475 1.6572,-4.9275 2.1116,-5.45 0.4543,-0.5225 0.8261,-1.766106 0.8261,-2.763569 0,-0.997463 0.3975,-2.594963 0.8833,-3.55 0.4859,-0.955037 1.3257,-2.861431 1.8662,-4.236431 0.5406,-1.375 1.4492,-3.625 2.0192,-5 0.57,-1.375 2.0314,-5.2 3.2477,-8.5 1.2162,-3.3 2.8001,-7.35 3.5197,-9 0.7196,-1.65 2.5358,-6.6 4.0359,-11 1.5002,-4.4 3.5042,-9.125 4.4534,-10.5 0.9493,-1.375 2.0324,-3.85 2.407,-5.5 4.8469,-21.3509013 22.3254,-16.2565763 35.4233,10.324585 1.7141,3.478522 4.0227,7.476709 5.1304,8.884859 1.1076,1.40815 2.0139,2.968352 2.0139,3.467116 0,0.498763 1.2942,3.700576 2.876,7.115141 6.1875,13.356475 18.124,42.268073 18.124,43.898312 0,0.417947 1.35,3.707437 3,7.309987 1.65,3.60255 3.0019,6.87632 3.0042,7.27504 0,0.39873 1.1273,2.93873 2.5,5.64444 1.3727,2.70571 2.4958,5.5627 2.4958,6.34887 0,0.78616 0.601,2.8474 1.3355,4.58052 0.7345,1.73312 1.9167,4.72613 2.6271,6.65113 9.6723,26.20948 11.9794,33.03792 12.0114,35.55 0.014,1.1275 0.3841,2.4775 0.8219,3 1.0363,1.23706 2.714,6.57091 4.2306,13.45 0.6669,3.025 2.0207,8.2 3.0086,11.5 2.9446,9.83688 4.6903,16.46793 6.9762,26.5 1.1905,5.225 3.0646,12.875 4.1646,17 1.0999,4.125 2.3676,9.75 2.8171,12.5 0.4495,2.75 1.5749,9.5 2.5009,15 0.926,5.5 2.0482,12.475 2.4938,15.5 1.6597,11.26623 4.0536,25.55121 4.5382,27.07965 0.2754,0.86881 1.1584,7.84381 1.9622,15.5 0.8037,7.65619 1.8995,16.84535 2.435,20.42035 2.3444,15.65164 3.6975,55.84621 2.7941,83 -1.2353,37.12626 -16.9417,90.60479 -32.6501,111.17005 -6.5392,8.56108 -13.5198,18.16789 -18.0671,24.86421 -7.4212,10.9285 -32.1601,38.31583 -47.7,52.80662 -6.0673,5.65761 -25.1521,18.31254 -38.7772,25.7127 -2.7374,1.48678 -7.9189,4.64129 -11.5144,7.01003 -3.5956,2.36874 -7.6558,4.79406 -9.0229,5.38961 -1.367,0.59555 -4.5105,2.33373 -6.9855,3.86263 -2.475,1.5289 -6.075,3.3662 -8,4.0829 -1.925,0.7167 -4.4,1.69267 -5.5,2.16882 -1.1,0.47615 -4.7,1.081 -8,1.34411 -5.1067,0.40715 -15.192,2.28272 -20.5,3.81237 -0.825,0.23775 -4.875,0.10767 -9,-0.28906 z m 24,-11.26701 c 8.3815,-0.81278 20.5734,-6.44346 33.0993,-15.28659 4.6204,-3.26194 10.8757,-7.61798 13.9007,-9.68008 3.025,-2.06211 7.525,-5.30945 10,-7.21631 2.475,-1.90686 5.625,-4.24276 7,-5.19088 13.4672,-9.28626 53.7068,-46.87329 65.0197,-60.7337 3.5642,-4.36677 8.5549,-10.21677 11.0906,-13 9.4325,-10.35337 18.9372,-26.13985 23.8185,-39.56042 0.7002,-1.925 1.6337,-4.4 2.0744,-5.5 5.3589,-13.37383 7.7422,-23.49031 12.0152,-51 3.0268,-19.4865 3.6427,-56.15431 1.4781,-88 -2.6419,-38.86677 -4.8644,-61.63919 -7.027,-72 -0.8036,-3.85 -1.8623,-11.05 -2.3527,-16 -0.9246,-9.33246 -5.6593,-37.86772 -6.72,-40.5 -0.3324,-0.825 -0.9561,-3.975 -1.386,-7 -0.8758,-6.16239 -8.0229,-34.20971 -10.3783,-40.7273 -0.8403,-2.32502 -2.2632,-7.27502 -3.1621,-11 -0.8989,-3.72499 -2.8019,-10.3727 -4.2289,-14.7727 -4.9746,-15.3387 -18.5373,-52.22645 -20.8472,-56.70034 -0.7669,-1.48519 -1.3943,-3.38642 -1.3943,-4.22496 0,-0.83854 -1.2866,-4.34838 -2.8591,-7.799658 -1.5725,-3.451273 -4.4788,-10.387115 -6.4583,-15.412981 -1.9796,-5.025867 -5.1555,-12.225867 -7.0576,-16 -19.9168,-39.518715 -23.1313,-44.385868 -27.9389,-42.30342 -1.2023,0.52082 -3.4236,1.43971 -4.9361,2.041977 -1.906,0.758967 -2.75,1.814147 -2.75,3.43819 0,1.288737 -0.45,2.621273 -1,2.961192 -0.55,0.339919 -1,1.689919 -1,3 0,1.310081 -0.45,2.660081 -1,3 -0.55,0.339919 -1,1.422339 -1,2.405379 0,0.98304 -0.6318,3.093982 -1.4041,4.690983 -0.7722,1.597001 -2.3472,5.041138 -3.5,7.653638 -6.1112,13.850012 -9.8814,22.285844 -12.2905,27.5 -1.2071,2.6125 -2.1011,5.252469 -1.9868,5.866598 0.1143,0.614129 -0.4731,1.681729 -1.3054,2.372445 -0.8323,0.690716 -1.5132,1.815738 -1.5132,2.500049 0,1.910591 -4.1656,11.799418 -5.7701,13.697898 -0.7842,0.92784 -1.1127,2.1937 -0.7299,2.81301 0.3828,0.61931 0.012,1.88517 -0.8241,2.81301 -0.8361,0.92785 -1.83,2.92874 -2.2088,4.44644 -0.3787,1.5177 -1.0888,3.00675 -1.5779,3.30902 -0.4891,0.30226 -0.8892,1.40932 -0.8892,2.46013 0,1.84629 -3.2422,8.47889 -5.0942,10.4214 -0.4982,0.5225 -0.9058,1.5399 -0.9058,2.2609 0,1.62317 -4.6395,12.17673 -8.4798,19.2891 -0.7424,1.375 -2.8285,5.65 -4.6357,9.5 -1.8073,3.85 -4.0361,8.125 -4.953,9.5 -0.9169,1.375 -3.4482,5.875 -5.6252,10 -2.177,4.125 -5.1615,9.40356 -6.6322,11.73013 -1.4708,2.32657 -2.6741,4.51462 -2.6741,4.86234 0,1.03111 -11.9856,21.63506 -14.5957,25.09081 -1.3224,1.7508 -2.4043,3.70633 -2.4043,4.34563 0,0.63929 -0.8058,2.35682 -1.7906,3.81672 -0.9848,1.4599 -3.0905,5.12937 -4.6793,8.15437 -1.5888,3.025 -3.6841,6.85 -4.6561,8.5 -2.5696,4.36197 -8.874,17.21599 -8.874,18.09313 0,0.41216 -0.6621,1.48095 -1.4712,2.37508 -1.9801,2.18799 -6.5288,10.8255 -6.5288,12.39755 0,2.04716 -5.1048,12.06649 -6.5811,12.91713 -0.7474,0.43059 -2.2496,3.58059 -3.3384,7 -1.0887,3.41941 -3.3264,9.90881 -4.9726,14.42088 -8.3442,22.87024 -11.7544,54.79423 -10.34,96.79623 0.065,1.925 0.1065,4.2875 0.093,5.25 -0.014,0.9625 0.4199,4.225 0.9637,7.25 0.5438,3.025 1.4932,8.425 2.1097,12 0.6165,3.575 1.753,8.525 2.5255,11 0.7725,2.475 2.4368,7.875 3.6985,12 1.2616,4.125 3.0136,8.625 3.8933,10 0.8797,1.375 2.2234,4.075 2.9861,6 2.2891,5.7776 12.091,17.77752 24.891,30.47267 6.6393,6.58497 12.0715,12.49237 12.0715,13.12756 0,0.63518 0.6461,1.69107 1.4357,2.34642 2.1073,1.74889 2.9807,6.84669 1.4824,8.65208 -5.6175,6.76867 -14.2307,4.67132 -25.4117,-6.18785 l -7.729,-7.5066 0.762,10.29786 c 0.4191,5.66382 0.9594,11.64786 1.2005,13.29786 0.2412,1.65 0.533,21.675 0.6485,44.5 0.2018,39.90025 0.8819,53.43097 2.7433,54.58139 0.4776,0.29516 0.8683,1.83353 0.8683,3.41861 0,1.58508 0.45,3.16008 1,3.5 0.55,0.33992 1,1.45398 1,2.47568 0,1.02171 0.3375,2.00765 0.75,2.19099 0.4125,0.18333 2.0194,1.90833 3.5709,3.83333 7.145,8.86517 17.4802,11.01459 41.6791,8.66798 z m -4,-4.09989 c 0,-0.78754 1.4625,-2.45804 3.25,-3.7122 1.7875,-1.25416 5.0091,-3.9848 7.1591,-6.06809 2.1501,-2.08329 4.2508,-3.7878 4.6684,-3.7878 0.4176,0 2.6327,-1.8 4.9225,-4 4.657,-4.4744 3.635,-5.0584 -3.5,-2 -7.6359,3.27311 -11.2669,0.90723 -4.292,-2.79651 3.666,-1.94666 7.1658,-5.17854 11.0058,-10.16322 3.0316,-3.93533 5.2952,-3.05417 7.8214,3.04474 0.6985,1.68625 2.2303,3.19451 3.5914,3.53612 3.3594,0.84316 -3.7769,10.37887 -7.7674,10.37887 -0.4726,0 -0.8592,0.9 -0.8592,2 0,1.11111 -0.6667,2 -1.5,2 -0.825,0 -1.5,0.45 -1.5,1 0,0.55 -0.6053,1 -1.345,1 -0.7398,0 -2.1595,0.9 -3.155,2 -0.9955,1.1 -2.3601,2 -3.0325,2 -0.6725,0 -1.7787,0.67005 -2.4584,1.48899 -0.6796,0.81894 -1.6071,1.25948 -2.0609,0.97897 -0.4539,-0.28051 -1.1904,0.0619 -1.6367,0.76101 -2.0956,3.28246 -9.3115,5.09515 -9.3115,2.33912 z M 1396,615 c 0,-0.55 0.7096,-1 1.5769,-1 0.8673,0 2.9269,-1.35 4.5769,-3 1.65,-1.65 3.5593,-3 4.2428,-3 0.6835,0 2.1584,-1.0125 3.2775,-2.25 1.1191,-1.2375 5.2502,-4.71535 9.1803,-7.72855 3.9301,-3.01321 7.1456,-5.82571 7.1456,-6.25 0,-0.4243 0.5625,-0.78395 1.25,-0.79923 0.6875,-0.0153 2.5625,-1.36528 4.1667,-3 1.6041,-1.63472 3.2916,-2.97222 3.75,-2.97222 0.4583,0 0.8333,-0.675 0.8333,-1.5 0,-0.825 0.525,-1.5 1.1667,-1.5 1.7794,0 30.8116,-28.48067 30.8269,-30.2413 0,-0.40772 1.3564,-2.03144 3.0064,-3.60827 1.65,-1.57682 3.0122,-3.26824 3.0271,-3.75869 0.046,-1.51217 8.8261,-10.87188 9.5344,-10.16362 0.8095,0.80953 -3.3499,7.77188 -4.6431,7.77188 -0.5051,0 -0.9184,0.46822 -0.9184,1.04049 0,1.22377 -3.4592,6.25726 -7,10.18565 -1.375,1.52553 -4.075,4.77138 -6,7.213 -1.925,2.44162 -3.7529,4.46666 -4.062,4.50009 -0.3091,0.0334 -4.3717,3.77327 -9.0279,8.31077 -16.7346,16.30778 -42.6467,37.17856 -49.2995,39.70794 -1.4358,0.54591 -2.6106,1.4537 -2.6106,2.01731 0,0.56361 -0.9,1.02475 -2,1.02475 -1.1,0 -2,-0.45 -2,-1 z m 2,-5.77924 c 0,-0.42858 0.9726,-1.44108 2.1614,-2.25 1.1888,-0.80892 6.0263,-4.68415 10.75,-8.61163 4.7237,-3.92748 10.1527,-8.42748 12.0644,-10 8.7736,-7.21716 39.9839,-39.76583 42.4104,-44.22909 0.4874,-0.89652 2.6249,-3.92161 4.75,-6.72241 2.1251,-2.80081 3.8638,-5.38488 3.8638,-5.7424 0,-0.35751 0.8831,-1.66594 1.9624,-2.90762 1.0793,-1.24169 3.8521,-5.40761 6.1617,-9.25761 2.3097,-3.85 4.5766,-7.15 5.0377,-7.33333 0.461,-0.18334 0.8382,-0.85709 0.8382,-1.49724 0,-0.64015 2.2153,-5.66515 4.9229,-11.16667 2.7076,-5.50152 6.6352,-14.50276 8.7278,-20.00276 3.9999,-10.51254 7.245,-16.93764 8.1152,-16.06747 0.7328,0.73282 -1.8723,12.51518 -2.9088,13.15576 -0.4714,0.29136 -0.8571,1.17699 -0.8571,1.96806 0,3.36312 -19.8499,43.36261 -23.5831,47.52239 -0.7793,0.86831 -1.4169,1.89712 -1.4169,2.28626 0,0.95312 -12.7791,18.1324 -20,26.88655 -4.0925,4.96149 -26.0635,26.75106 -34.0294,33.74845 -4.0698,3.575 -8.4486,7.5125 -9.7306,8.75 -1.282,1.2375 -2.7809,2.25 -3.3309,2.25 -0.55,0 -2.125,1.125 -3.5,2.5 -1.375,1.375 -2.8974,2.5 -3.3831,2.5 -0.4857,0 -1.4952,0.5625 -2.2432,1.25 -2.962,2.72216 -6.7828,4.39563 -6.7828,2.97076 z m -12,-3.48662 c 0,-1.5051 4.745,-11.88184 8.2681,-18.08141 2.0853,-3.66955 2.1036,-3.90776 0.3955,-5.15678 -1.5698,-1.14787 -1.6512,-1.82816 -0.6595,-5.51114 1.0274,-3.81561 0.9414,-4.33468 -0.9364,-5.64992 C 1391.9305,570.53833 1391,569.41341 1391,568.83508 1391,566.61192 1386.4506,558 1385.2762,558 1383.5108,558 1380,550.65168 1380,546.9565 c 0,-4.06771 2.1207,-3.45414 3.607,1.04362 0.6089,1.84244 2.0714,4.13078 3.25,5.08518 1.1787,0.95441 2.143,2.45065 2.143,3.32499 0,0.95151 0.8485,1.58971 2.1135,1.58971 1.9673,0 2.0581,-0.32874 1.3119,-4.75 -0.4409,-2.6125 -0.8295,-6.325 -0.8635,-8.25 -0.034,-1.925 -0.5622,-3.95 -1.1736,-4.5 -0.6115,-0.55 -2.1589,-4.825 -3.4388,-9.5 -1.2799,-4.675 -2.9171,-9.21043 -3.6383,-10.07874 -0.7211,-0.86831 -1.3112,-2.26106 -1.3112,-3.09501 0,-1.82789 -3.392,-5.10088 -4.3223,-4.17061 -0.8646,0.86464 -6.0239,-10.76574 -7.6103,-17.15564 -0.6827,-2.75 -1.8241,-6.575 -2.5364,-8.5 -3.6219,-9.788 -5.3214,-16.95952 -7.5223,-31.74149 -0.5111,-3.43282 -1.3971,-7.11574 -1.969,-8.18426 -0.5718,-1.06852 -1.0397,-5.77079 -1.0397,-10.44949 0,-4.6787 -0.3889,-8.74709 -0.8643,-9.04088 -0.4753,-0.29378 -1.1729,-7.18284 -1.5502,-15.30901 -0.3773,-8.12618 -0.9084,-18.2545 -1.1803,-22.50738 -0.3077,-4.8142 -0.065,-8.53508 0.6438,-9.85905 0.626,-1.1696 1.5463,-8.25899 2.0451,-15.7542 0.4989,-7.49522 1.3365,-14.98364 1.8614,-16.64095 1.0024,-3.16496 2.7468,-16.48435 2.9604,-22.60373 0.069,-1.97474 2.0912,-9.39974 4.494,-16.5 2.4028,-7.10026 4.6955,-14.48456 5.0949,-16.40956 0.3994,-1.925 1.1012,-3.9684 1.5596,-4.5409 0.4584,-0.57249 1.3289,-3.25191 1.9345,-5.95426 0.6056,-2.70235 1.6849,-6.28395 2.3983,-7.9591 1.2244,-2.87474 2.3206,-5.94862 7.6842,-21.54574 3.7047,-10.77333 9.2246,-25.79841 12.4908,-34 0.7667,-1.925 1.9289,-4.85 2.5827,-6.5 0.6538,-1.65 1.7373,-4.8 2.4077,-7 1.4451,-4.74221 5.2031,-15.17148 6.486,-18 0.4989,-1.1 2.0069,-5.43739 3.3512,-9.63864 1.3443,-4.20125 2.888,-8.47625 3.4304,-9.5 1.3204,-2.49217 5.0795,-15.31085 6.8508,-23.36136 0.7865,-3.575 1.8551,-6.9275 2.3745,-7.45 0.5195,-0.5225 0.9445,-1.87549 0.9445,-3.00665 0,-1.13116 1.3387,-6.10366 2.9748,-11.05 1.6361,-4.94634 2.9861,-9.91585 3,-11.04335 0.014,-1.1275 0.4141,-2.4775 0.8894,-3 0.4753,-0.5225 1.8502,-5.45 3.0555,-10.95 1.2052,-5.5 2.5826,-10.9 3.0609,-12 1.4728,-3.387251 2.078,-11.86305 1.1875,-16.629777 -0.9777,-5.233219 -0.1397,-13.48812 1.3319,-13.120223 1.0808,0.270194 1.3075,2.122483 1.5295,12.494705 0.2142,10.00816 1.9705,9.397006 1.9705,-0.685688 C 1444,63.519672 1444.4112,60 1445,60 c 0.55,0 1,0.878826 1,1.952947 0,1.074121 0.5062,3.064043 1.125,4.42205 0.8004,1.756712 0.824,3.332633 0.082,5.462041 -0.5739,1.646116 -0.7717,3.264596 -0.4397,3.596622 1.8777,1.877672 3.6724,9.56634 2.233,9.56634 -0.55,0 -1,-0.701558 -1,-1.559017 0,-0.857459 -0.3636,-1.33428 -0.8081,-1.059601 -0.4444,0.274678 -0.4879,3.563736 -0.097,7.309017 0.3913,3.74528 0.6096,6.917383 0.4852,7.049117 -0.6337,0.670733 -5.5787,-2.444831 -5.9354,-3.739516 -0.2272,-0.825 -0.4654,0.0975 -0.5292,2.05 -0.064,1.9525 -0.4975,3.9775 -0.9639,4.5 -0.4663,0.5225 -1.3983,4.325 -2.071,8.45 -0.6728,4.125 -2.0549,10.2 -3.0715,13.5 -1.0165,3.3 -2.3897,8.475 -3.0514,11.5 -0.6618,3.025 -1.5955,6.4 -2.075,7.5 -0.4795,1.1 -1.5655,5.36864 -2.4134,9.48586 -0.8478,4.11723 -1.9754,7.91973 -2.5057,8.45 -0.5302,0.53028 -0.9641,1.94418 -0.9641,3.14202 0,1.19783 -0.6893,3.82764 -1.5318,5.84401 -0.8425,2.01638 -1.2773,4.07803 -0.9661,4.58145 0.3111,0.50342 0,1.81315 -0.6804,2.9105 -0.6853,1.09736 -0.9011,2.34014 -0.4795,2.76172 0.4216,0.42159 1.1703,0.11326 1.6637,-0.68517 2.8239,-4.56917 10.6072,-14.91888 11.2441,-14.95172 1.6243,-0.0838 0.5994,2.63186 -2.25,5.96133 -1.6474,1.925 -2.9964,3.86444 -2.9977,4.30986 0,0.44542 -2.1954,3.14542 -4.8759,6 -2.6805,2.85458 -5.1848,6.31514 -5.5651,7.69014 -0.3804,1.375 -1.5097,4.3 -2.5098,6.5 -2.261,4.97401 -8.6393,23.96717 -10.7463,32 -0.8656,3.3 -2.4134,7.63627 -3.4395,9.63615 -1.0261,1.99989 -1.8657,4.49739 -1.8657,5.55 0,1.05262 -0.4141,2.34135 -0.9202,2.86385 -0.9677,0.99907 -3.3016,7.28524 -7.9847,21.50662 -1.5498,4.70614 -3.3314,9.51633 -3.9591,10.68931 -0.755,1.41061 -0.7995,2.34399 -0.1316,2.75676 0.5553,0.34324 1.3189,-0.19195 1.6967,-1.18931 0.8326,-2.19772 1.0519,-2.41771 9.6453,-9.67337 3.7654,-3.17935 7.1404,-5.48572 7.5,-5.12525 0.3595,0.36046 -0.5839,1.72052 -2.0964,3.02235 -1.5125,1.30183 -2.75,2.80588 -2.75,3.34234 0,0.53647 -1.2243,1.9384 -2.7206,3.11541 -1.4963,1.17701 -3.8588,3.85883 -5.25,5.95961 -1.3912,2.10078 -3.8011,5.09099 -5.3554,6.64491 -1.9338,1.93334 -2.6878,3.54816 -2.3883,5.11491 0.2768,1.4478 -0.363,3.11611 -1.7402,4.53765 -2.2624,2.33523 -4.8258,7.74842 -4.421,9.33577 0.1279,0.50176 -0.9269,3.38729 -2.344,6.41229 -1.4172,3.025 -2.8489,7.525 -3.1815,10 -0.6096,4.53506 -2.0354,12.6951 -3.6695,21 -0.9526,4.84122 -3.6935,26.01058 -4.5316,35 -0.9758,10.46644 -1.3977,18.13931 -1.2371,22.5 0.02,0.55 -0.037,4.825 -0.128,9.5 -0.091,4.675 0.2457,10.57803 0.7474,13.11784 0.5017,2.53981 0.7112,5.98729 0.4656,7.66106 -0.3442,2.34459 0.036,3.30128 1.6538,4.16734 1.7009,0.91032 2.1004,2.06844 2.1004,6.08894 0,3.39507 0.5533,5.51813 1.75,6.71482 0.9625,0.9625 1.8172,2.875 1.8993,4.25 0.1762,2.95033 0.6784,5.11829 1.5057,6.5 0.3294,0.55 1.8917,7.525 3.4719,15.5 1.8388,9.28004 2.9859,13.33001 3.1865,11.25 0.3929,-4.07581 0.2245,-4.11042 5.6482,1.1608 5.8934,5.72775 6.2443,8.87324 0.5445,4.88092 -2.4389,-1.70827 -2.4389,-1.70827 0.027,1.56893 4.0056,5.32245 6.9323,10.51882 6.9499,12.33966 0.01,0.93517 0.6293,2.06017 1.3783,2.5 2.1693,1.27391 5.4172,9.67273 7.1859,18.5823 3.9852,20.07469 4.2421,20.54566 4.353,7.97989 0.1131,-12.79635 -2.9196,-27.02593 -7.3832,-34.64238 -1.3846,-2.36271 -2.5175,-4.73889 -2.5175,-5.2804 0,-1.30193 -5.8568,-11.83697 -10.383,-18.67658 -1.4116,-2.13304 -2.4756,-2.73216 -4.25,-2.39296 -2.7942,0.53414 -3.0469,-0.86147 -0.6378,-3.52343 1.6391,-1.81124 1.6386,-1.9614 -0.01,-2.88379 -1.9304,-1.08032 -4.997,-7.61597 -4.3597,-9.29183 0.224,-0.58912 0.7675,-0.17113 1.2078,0.92887 0.4403,1.1 1.6177,2.58802 2.6164,3.3067 0.9988,0.71869 1.8159,1.93078 1.8159,2.69354 0,0.76276 1.8737,2.87474 4.1637,4.6933 8.7694,6.96392 10.8361,9.43404 10.8405,12.95646 0,1.8425 1.1273,5.56377 2.5,8.26948 1.3727,2.70571 2.4958,5.68601 2.4958,6.62288 0,1.47083 1.5156,5.53995 5.0126,13.45764 4.0787,9.2351 4.0716,42.0355 -0.01,47 -0.4522,0.55 -1.5693,4.375 -2.4824,8.5 -0.913,4.125 -2.1063,9.3 -2.6516,11.5 -0.5453,2.2 -1.2436,5.35 -1.5517,7 -0.3082,1.65 -1.1064,3.675 -1.7738,4.5 -0.6674,0.825 -1.8117,3.075 -2.5429,5 -0.7312,1.925 -1.9303,4.21043 -2.6647,5.07874 -0.7344,0.86831 -1.3353,2.24662 -1.3353,3.06291 0,0.81629 -1.35,2.77755 -3,4.35835 -1.65,1.5808 -3,2.58617 -3,2.23414 z M 1400.3697,559.75 c 1.9533,-7.28868 -0.9539,-30.21849 -5.6103,-44.25 -2.5553,-7.70011 -7.6156,-18.79309 -8.9487,-19.61698 -2.5204,-1.55769 -4.7323,0.25906 -4.1091,3.37501 0.8702,4.35088 4.1805,14.48306 4.2446,12.99197 0.1295,-3.00869 2.0538,-0.90049 2.0538,2.25 0,2.79786 0.3894,3.5 1.941,3.5 2.4379,0 3.2018,1.16822 1.993,3.04775 -0.813,1.26415 -1.0757,1.25797 -2.0283,-0.0477 -0.8827,-1.20993 -0.9535,-1.11323 -0.3657,0.5 0.4007,1.1 1.0773,3.8 1.5036,6 0.4262,2.2 1.3468,6.925 2.0457,10.5 0.6989,3.575 1.1756,8.6375 1.0592,11.25 -0.1164,2.6125 0.1814,4.75 0.6617,4.75 0.4803,0 1.4125,1.8 2.0717,4 1.343,4.48257 2.5881,5.1073 3.4878,1.75 z M 1368.344,420.33472 c -0.82,-0.3112 -0.5715,-2.09515 0.855,-6.13673 1.9854,-5.62566 2.0278,-11.81412 0.1452,-21.2272 -0.3399,-1.69916 -0.1691,-2.97079 0.399,-2.97079 1.1624,0 4.2568,10.40666 4.2568,14.3156 0,3.33645 2.3882,3.57297 4.3863,0.4344 1.0462,-1.64336 1.23,-3.53069 0.6816,-7 -0.413,-2.6125 -0.3837,-4.75 0.065,-4.75 1.6684,0 3.9102,5.98005 3.2411,8.6458 -0.7379,2.94003 1.3024,3.01757 8.126,0.30881 1.65,-0.65501 4.7608,-1.36849 6.9129,-1.58553 2.1521,-0.21703 4.4021,-0.76686 5,-1.22185 2.0936,-1.59313 11.1447,-1.38516 12.5333,0.28798 0.7143,0.86064 2.1436,1.56479 3.1762,1.56479 1.6751,0 5.8776,3.21755 5.8776,4.5 0,1.17338 -3.7478,0.34144 -6.7742,-1.50374 -1.8008,-1.09794 -4.1421,-1.99626 -5.2029,-1.99626 -1.0608,0 -3.0788,-0.52398 -4.4844,-1.16441 -1.9883,-0.90595 -3.0936,-0.87646 -4.9796,0.13288 -1.3332,0.7135 -3.0964,1.03924 -3.9183,0.72385 -0.8219,-0.31539 -2.0324,0.0748 -2.6899,0.86712 -0.6576,0.79231 -2.2389,1.44056 -3.5141,1.44056 -1.2752,0 -2.5967,0.45 -2.9366,1 -0.3399,0.55 -2.1114,1 -3.9366,1 -1.8252,0 -3.8787,0.675 -4.5634,1.5 -0.6847,0.825 -1.8097,1.5 -2.5,1.5 -1.8305,0 -3.6631,2.56222 -4.3961,6.14652 -0.6586,3.22024 -3.708,5.96695 -5.7599,5.1882 z m 20.1906,-129.27875 c -0.359,-0.58078 -0.1761,-1.05597 0.4064,-1.05597 0.5824,0 1.059,-0.45 1.059,-1 0,-0.55 -0.765,-1 -1.7,-1 -1.4,0 -1.4662,-0.22059 -0.375,-1.25 1.06,-1 1.4167,-1 1.7833,0 0.7694,2.09834 2.141,1.3897 1.566,-0.80908 -0.3957,-1.51323 0.027,-2.20688 1.5936,-2.61663 1.1727,-0.30665 2.1321,-1.10403 2.1321,-1.77194 0,-0.66792 1.1686,-1.83982 2.597,-2.60424 1.4283,-0.76442 3.5674,-2.52796 4.7536,-3.91898 1.1862,-1.39102 3.8426,-3.41896 5.9031,-4.50653 2.0605,-1.08758 3.7463,-2.55008 3.7463,-3.25 0,-0.69993 0.675,-1.2726 1.5,-1.2726 0.825,0 1.5,0.20455 1.5,0.45455 0,0.81379 -5.067,5.54545 -5.9385,5.54545 -0.9203,0 -2.3508,3.04404 -1.7247,3.67018 0.8428,0.84274 16.8243,-2.54575 19.129,-4.05582 2.6913,-1.76341 5.5342,-2.13397 5.5342,-0.72135 0,0.49116 -0.675,1.15203 -1.5,1.46862 -1.9568,0.75088 -1.9202,2.53989 0.068,3.30263 1.4122,0.54191 3.3743,-0.0875 8.6689,-2.78093 2.3198,-1.18008 4.7636,-1.12023 4.7636,0.11667 0,0.55 -0.4814,1 -1.0698,1 -0.5884,0 -3.0162,1.33909 -5.395,2.97576 -4.2117,2.89773 -4.4095,2.93365 -7.5449,1.36951 -2.9583,-1.47581 -3.4947,-1.47516 -6.6051,0.008 -5.3405,2.54674 -4.1172,3.64667 4.0558,3.64667 4.0925,0 7.7191,0.45 8.059,1 0.3399,0.55 1.6899,1 3,1 1.3101,0 2.6601,0.45 3,1 0.3399,0.55 1.4915,1 2.559,1 1.0676,0 1.941,0.45 1.941,1 0,0.55 -0.9,1 -2,1 -1.1,0 -2,-0.45 -2,-1 0,-0.55 -1.8,-1 -4,-1 -2.2,0 -4,-0.36269 -4,-0.80599 0,-0.44329 -4.6984,-0.74748 -10.441,-0.67599 -11.0047,0.13701 -12.3716,-0.93267 -6.6457,-5.2007 2.9628,-2.20844 -0.089,-3.72249 -4.564,-2.26424 -8.5443,2.78436 -14.2029,6.27119 -21.0057,12.94375 -1.3548,1.32885 -2.399,1.72257 -2.809,1.05914 z"
     id="path1" /></svg>
