<?xml version="1.0" encoding="UTF-8" standalone="no"?>
<!-- Created with Inkscape (http://www.inkscape.org/) -->

<svg
   version="1.1"
   id="svg1"
   width="2400"
   height="3200"
   viewBox="0 0 2400 3200"
   xml:space="preserve"
   xmlns="http://www.w3.org/2000/svg"
   xmlns:svg="http://www.w3.org/2000/svg"><defs
     id="defs1" /><path
     style="fill:#000000"
     d="m 1035,609.77982 c -5.6224,-3.51237 -17.9459,-13.76764 -19.6266,-16.3327 -0.8496,-1.29659 -3.4186,-3.45611 -5.709,-4.79894 -10.46066,-6.13288 -56.02179,-56.80985 -70.57434,-78.49875 -10.1691,-15.15587 -10.69586,-16.89004 -15.08135,-49.64943 -0.5154,-3.85 -1.40861,-9.025 -1.98492,-11.5 -0.57631,-2.475 -1.49197,-6.975 -2.03481,-10 -2.43195,-13.55226 -2.87736,-15.65564 -3.84716,-18.1679 -0.56644,-1.46735 -1.0345,-3.49235 -1.04012,-4.5 -0.006,-1.00766 -0.51862,-4.9821 -1.13998,-8.8321 -3.8302,-23.73216 -1.39064,-77.43422 5.5449,-122.06032 3.33892,-21.48399 8.39778,-47.17833 10.10259,-51.3118 0.76493,-1.85467 1.39079,-4.68532 1.39079,-6.29034 0,-2.7276 7.25724,-33.19939 10.55954,-44.33754 0.81533,-2.75 2.12789,-7.25 2.9168,-10 9.52817,-33.21371 32.90806,-91.5 36.70262,-91.5 2.37302,0 6.72061,6.319131 5.68234,8.25916 -0.80988,1.513276 -0.58271,2.408483 1.05302,4.14964 1.14712,1.221056 2.08568,2.698499 2.08568,3.283207 0,0.584707 0.6833,1.630196 1.51845,2.323313 2.42051,2.00884 4.40107,7.28563 7.50092,19.98468 1.66543,6.82286 2.89173,12.54484 3.42883,16 1.4344,9.22773 2.5954,15.93682 3.5473,20.5 0.5736,2.75 1.4324,8.47013 1.9084,12.7114 0.7756,6.91066 1.3442,8.38236 5.4763,14.17293 3.9155,5.48709 12.6198,21.37756 12.6198,23.03858 0,0.28985 1.2733,3.35077 2.8296,6.80205 1.5562,3.45127 4.2991,10.10004 6.0952,14.77504 3.9795,10.35782 4.7837,12.3654 6.1087,15.25 0.9262,2.01658 1.6079,4.46009 5.0212,18 0.5199,2.0625 1.3747,5.4375 1.8996,7.5 1.5529,6.10255 2.9795,12.38985 4.1408,18.25 0.5995,3.025 1.5026,7.525 2.007,10 0.5043,2.475 1.3787,7.2 1.943,10.5 0.5643,3.3 1.4567,8.475 1.9832,11.5 0.5264,3.025 1.3646,8.2 1.8626,11.5 0.498,3.3 1.8876,10.95 3.088,17 3.6061,18.17487 5.1788,39.01738 4.0369,53.5 -0.5421,6.875 -1.215,15.65 -1.4954,19.5 -0.7632,10.4795 -3.2097,28.21041 -5.5882,40.5 -0.5854,3.025 -1.4543,8.875 -1.931,13 -3.4634,29.97567 -3.9321,32.41688 -7.7236,40.22493 -11.2006,23.0665 -18.2876,78.02592 -11.7511,91.12872 3.1268,6.26775 1.8954,7.81329 -3.5265,4.42617 z m 355.0146,0.47018 c 0.01,-0.9625 0.7612,-3.775 1.6739,-6.25 5.7664,-15.63817 -1.5142,-68.96638 -12.3145,-90.19946 -2.2655,-4.45397 -4.5149,-13.77906 -5.4998,-22.80054 -1.4652,-13.42117 -2.7111,-23.05006 -3.7524,-29 -3.885,-22.20038 -4.8089,-29.1779 -6.3559,-48 -1.995,-24.27412 -1.2729,-43.91683 2.2427,-61 0.6225,-3.025 1.4954,-9.1 1.9398,-13.5 0.4444,-4.4 1.3273,-9.8 1.9622,-12 0.6348,-2.2 1.6258,-6.7 2.2022,-10 1.5371,-8.79972 2.9284,-16.40164 3.9348,-21.5 0.4885,-2.475 1.3245,-6.75 1.8577,-9.5 0.5332,-2.75 1.4034,-6.8 1.9338,-9 2.7232,-11.29601 3.3738,-14.33121 3.858,-18 0.2903,-2.2 0.8766,-4.45 1.3027,-5 0.4262,-0.55 2.2132,-5.21288 3.9711,-10.36195 1.7579,-5.14907 4.0586,-11.37388 5.1126,-13.83291 1.0541,-2.45902 1.9165,-5.54496 1.9165,-6.85763 0,-1.31267 0.9693,-4.08786 2.154,-6.16709 3.1294,-5.4924 5.321,-9.82967 9.2371,-18.28042 1.9115,-4.125 5.3883,-10.2 7.7262,-13.5 2.8369,-4.00423 4.5353,-7.66314 5.106,-11 1.8793,-10.9885 2.6844,-15.19411 3.733,-19.5 0.6027,-2.475 1.5058,-6.975 2.007,-10 0.5012,-3.025 1.1796,-6.85 1.5076,-8.5 0.328,-1.65 1.0648,-5.475 1.6373,-8.5 2.7627,-14.59683 7.6321,-27.63266 12.3093,-32.953052 0.7479,-0.850821 1.694,-3.115348 2.1023,-5.032281 2.8468,-13.364014 7.0496,-9.381839 17.9262,16.985333 1.4747,3.575 3.499,8.3 4.4985,10.5 3.0279,6.66508 12.0652,31.43948 13.555,37.15927 0.7685,2.95061 1.6816,5.82477 2.0291,6.38701 0.884,1.43029 7.9781,26.15973 11.4616,39.95372 16.0368,63.50344 25.0098,126.25539 25.0098,174.90353 0,20.1619 -0.6088,25.45671 -6.1053,53.09647 -0.4921,2.475 -1.3265,6.75 -1.854,9.5 -0.5276,2.75 -1.4547,7.25 -2.0602,10 -0.6055,2.75 -1.459,9.275 -1.8967,14.5 -0.4376,5.225 -1.4918,12.2 -2.3426,15.5 -0.8508,3.3 -2.1062,8.7 -2.7897,12 -4.1784,20.17412 -62.0543,86.44464 -101.2749,115.96442 -7.7978,5.86915 -9.6855,6.60875 -9.662,3.78558 z"
     id="path2" /></svg>
