<svg version="1.0" xmlns="http://www.w3.org/2000/svg"
 width="1200.000000pt" height="1600.000000pt" viewBox="0 0 1200.000000 1600.000000"
 preserveAspectRatio="xMidYMid meet">

<g transform="translate(0.000000,1600.000000) scale(0.100000,-0.100000)"
fill="#000000" stroke="none">
<path d="M5800 13918 c-86 -7 -183 -28 -340 -72 -69 -20 -187 -81 -273 -141
-66 -46 -92 -70 -63 -59 9 3 22 -1 30 -9 13 -12 3 -25 -72 -99 -85 -83 -156
-134 -217 -156 -104 -37 -251 -65 -319 -60 -34 3 -56 0 -56 -6 0 -5 22 -31 49
-57 40 -38 60 -49 107 -60 64 -13 87 -26 78 -41 -5 -8 -45 -28 -64 -32 -3 -1
-47 -23 -98 -49 -308 -157 -528 -347 -627 -542 -57 -112 -147 -239 -194 -273
-18 -13 -55 -31 -84 -39 l-52 -16 44 -10 c27 -5 84 -5 143 0 62 5 102 5 108
-1 6 -6 -18 -37 -68 -87 -42 -42 -91 -94 -108 -115 -115 -145 -176 -243 -226
-364 -25 -59 -36 -93 -78 -229 -32 -101 -92 -193 -180 -274 -64 -59 -69 -76
-9 -31 107 82 259 121 544 139 50 4 114 11 143 16 43 9 55 8 68 -5 14 -14 10
-24 -37 -103 -28 -49 -64 -104 -79 -123 -53 -67 -102 -200 -159 -425 -36 -146
-53 -264 -52 -369 0 -44 -6 -107 -13 -142 l-13 -62 49 49 c84 84 171 113 384
129 113 8 142 14 220 45 49 20 93 40 98 45 11 11 40 -16 31 -29 -3 -5 -17 -54
-30 -108 -33 -126 -42 -292 -25 -444 11 -103 19 -151 61 -339 6 -30 10 -55 8
-55 -2 0 5 -10 16 -22 10 -12 20 -28 22 -35 18 -79 25 -114 38 -181 8 -42 18
-85 23 -94 8 -14 11 -13 17 8 15 49 96 176 155 241 72 80 206 174 225 158 7
-6 17 -62 25 -132 15 -155 63 -365 100 -445 15 -33 48 -92 72 -130 24 -37 54
-84 66 -104 12 -19 31 -44 43 -55 21 -19 22 -19 15 1 -7 26 37 123 61 132 10
3 25 12 35 20 12 11 18 11 23 3 6 -9 10 -9 16 1 6 10 20 1 56 -32 58 -53 150
-123 218 -166 85 -53 225 -123 245 -123 10 0 21 -4 24 -9 3 -5 21 -11 40 -13
l33 -4 17 72 c9 39 24 81 33 93 14 21 16 21 33 6 41 -37 110 -217 110 -287 0
-21 3 -38 8 -38 23 1 194 97 258 144 43 33 216 212 298 308 l48 57 35 -26 c39
-30 59 -65 71 -120 l8 -38 28 40 c76 110 165 267 184 325 32 97 73 313 79 415
3 50 10 96 16 102 15 20 98 -30 183 -110 84 -78 129 -136 173 -224 18 -34 36
-65 41 -68 5 -3 14 21 20 52 7 32 21 94 32 138 10 44 20 87 22 97 1 9 7 22 13
30 15 19 59 198 77 315 19 120 22 339 7 438 -6 39 -20 101 -32 138 -18 60 -18
69 -5 83 14 13 21 12 65 -10 78 -40 187 -66 273 -66 72 0 169 -17 248 -43 44
-14 121 -68 156 -110 l27 -32 -7 30 c-4 17 -11 93 -16 170 -12 180 -25 265
-61 400 -66 243 -108 355 -154 405 -13 14 -48 67 -78 119 -71 122 -68 127 70
106 54 -8 121 -15 150 -15 59 0 185 -15 258 -32 58 -12 173 -56 195 -73 8 -6
33 -22 55 -35 36 -20 31 -14 -37 56 -97 101 -131 159 -180 314 -82 258 -225
492 -399 654 -59 55 -76 76 -67 83 8 6 55 7 128 1 116 -9 165 -5 155 12 -3 4
-20 12 -38 15 -17 4 -44 14 -59 21 -49 25 -152 158 -209 269 -80 158 -181 267
-380 413 -66 48 -318 187 -369 203 -50 16 -63 28 -49 45 6 8 21 14 33 14 71 0
184 74 199 129 4 17 2 20 -7 12 -20 -16 -173 -5 -256 18 -41 12 -82 23 -91 25
-26 7 -97 45 -104 56 -4 6 -10 8 -14 5 -5 -2 -53 39 -109 93 -87 84 -98 99
-86 110 8 8 21 11 29 8 30 -11 1 26 -34 44 -21 10 -43 25 -50 34 -7 8 -59 39
-114 67 -56 28 -105 56 -109 63 -4 6 -8 7 -8 1 0 -5 -5 -3 -10 5 -6 10 -10 11
-10 3 0 -15 -38 -9 -120 18 -30 9 -80 21 -110 24 -30 4 -64 9 -75 12 -38 7
-490 9 -585 1z"/>
</g>
</svg>
