<svg version="1.1" xmlns="http://www.w3.org/2000/svg" xmlns:xlink="http://www.w3.org/1999/xlink" x="0px" y="0px" width="1200px"
	 height="1600px" viewBox="0 0 1200 1600" enable-background="new 0 0 1200 1600" xml:space="preserve">
<g id="Layer_2">
	<path opacity="0.6" d="M404.25,1463.5c24.319,5.261,62.5,11.25,77,3s5.5-2.928,7,0.536S498,1533,498,1533s-10.25,11.25-27.5,11.25
		s-53.5-4.75-66.25-14s0.75-46.25,0-54.75S404.25,1463.5,404.25,1463.5z"/>
	<path opacity="0.6" d="M810.662,1463.5c-24.318,5.261-62.5,11.25-77,3s-5.5-2.928-7,0.536s-9.75,65.964-9.75,65.964
		s10.25,11.25,27.5,11.25s53.5-4.75,66.25-14s-0.75-46.25,0-54.75S810.662,1463.5,810.662,1463.5z"/>
</g>
<g id="Layer_1">
	<g transform="translate(0.000000,1600.000000) scale(0.100000,-0.100000)">
		<path d="M7277.001,5669.003c-87.998-12.002-215-61.006-299.004-116.006c-115.996-75.996-160.996-195-125-335.996
			c9.004-34.004,21.006-97.998,27.002-142.002c20-149.004,32.998-210,52.002-252.002c10.996-23.994,23.994-42.998,28.994-42.998
			s9.004-5.996,9.004-12.998c0-22.998,89.004-137.998,192.998-250C7312.001,4355.995,7405,4225.995,7480,4074.999
			c75-150,90.996-205.996,110.996-377.998c13.008-114.004,8.008-382.002-10.996-552.002c-5-49.004-12.002-120.996-15-160
			c-24.004-277.998-127.002-805.996-177.002-897.998c-12.998-24.004-55-179.004-62.998-231.006c-2.998-20.996-7.998-47.998-10-60
			c-2.998-11.992-9.004-87.998-15-170c-7.998-111.992-15.996-165.996-35-218.994c-12.998-39.004-22.002-74.004-19.004-79.004
			c3.008-5-3.994-50-15-100.996c-71.992-312.998-97.998-480-87.998-564.004c6.006-55,25-72.002,117.002-107.002
			c130-47.998,262.002-60.996,440-42.998c145.996,15,362.002,99.004,447.998,172.998L8190,722.001v72.002
			c0,38.994-9.004,156.992-19.004,260.996c-26.992,259.004-27.998,277.998-12.998,282.998c17.998,6.006,15,42.998-7.002,77.998
			c-22.998,38.008-30,92.002-35,281.006c-5,142.998,6.006,338.994,24.004,467.998c5.996,39.004,24.004,182.998,40,320
			c17.001,137.998,35,287.998,40.996,335c6.006,47.002,12.002,95.996,13.008,110c1.992,14.004,8.994,75,15.996,135
			c29.004,260.996,55.996,370.996,145,589.004c32.998,80.996,35.996,93.994,30,151.992c-5.996,49.004-15.996,75-45,121.006
			c-25,37.002-40.996,75.996-45,107.998c-9.004,57.998-17.002,75.996-60,130c-87.001,109.004-114.003,327.002-79.004,620.996
			c15,123.008,15,140-0.996,241.006c-20.996,133.994-27.998,150.996-102.001,237.998c-32.998,39.004-65.996,87.002-72.998,107.002
			c-7.998,20-15.996,35.996-19.004,35.996c-15-2.998-50,19.004-100.996,62.002c-67.002,55.996-204.004,145-245.996,160
			c-18.008,5.996-40,7.002-53.008,2.002c-20.996-7.998-18.994-10,25-27.002c49.004-17.998,107.002-60.996,197.002-144.004
			c45-42.998,77.998-67.998,140-105c19.004-10.996,27.998-25,27.002-38.994c-4.004-39.004-0.996-45,40-87.002
			c57.002-59.004,85.996-114.004,104.004-197.998c12.998-57.998,13.994-86.006,6.992-130
			c-13.994-77.002-42.998-362.998-37.998-367.998c2.002-3.008,7.998,18.994,12.002,47.998c7.998,47.998,9.004,40,15.996-81.006
			c11.006-181.992,39.004-275,119.003-395.996c14.004-22.002,30.996-62.998,37.998-90.996c6.006-29.004,22.998-69.004,37.002-89.004
			c45.996-69.004,50-105,20-220c-14.004-55.996-35-125.996-45.996-154.004c-30-80-76.006-313.994-84.004-425.996
			c-2.998-55-17.002-174.004-30.996-265c-45-305-54.004-370.996-73.008-562.998c-35-337.998-41.992-437.998-45-627.002
			c-3.994-180.996-10-222.998-42.998-282.998l-15-29.004l25,17.002c15,9.004,29.004,25.996,32.002,35.996
			c7.998,24.004,22.998,21.006,42.998-8.994c14.004-21.006,12.998-22.002-18.994-22.002c-22.002-0.996-61.006-17.002-109.004-45
			c-67.002-40-72.002-45-45-45c17.002,0,57.998,12.998,92.998,30c44.004,20.996,64.004,25.996,67.002,17.002
			c2.002-6.006,10.996-122.998,20-259.004c19.004-275,17.002-287.998-39.004-353.994C8032.998,674.003,7960,637.001,7840,605
			c-202.998-54.004-580-20.996-627.998,55C7195,687.998,7195.996,800,7215,915c19.004,117.002,62.998,332.998,72.002,355
			c7.998,19.004,10,27.002,12.002,40.996c0,6.006,8.994,8.008,17.998,4.004c10-2.998,35.996-9.004,57.998-12.002
			s45.996-10,52.998-15c7.002-5.996,70-10.996,145-10.996c131.006,0,196.006,10,325,50c87.002,25.996,57.998,32.998-35,7.998
			s-122.002-30-242.998-40c-64.004-5-85.996-2.002-152.998,19.004c-42.998,15-85,25.996-95,25.996c-12.002,0-17.998,9.004-20,25
			c-1.006,14.004,2.998,25,8.994,25c5,0,7.002-5.996,3.008-12.002c-4.004-7.002-3.008-8.994,0.996-5c5,4.004,10,15,10.996,22.998
			c2.002,11.006-2.998,13.008-13.994,9.004c-59.004-24.004-62.002-19.004-32.998,52.998c15,37.002,20.996,82.002,25,202.002
			c5,159.004,33.994,310.996,83.994,450c11.006,30,30,90.996,42.002,135s27.998,100,35.996,125
			c23.008,75.996,73.008,337.998,88.008,465c32.998,264.004,50.996,787.998,31.992,915c-6.992,45-5.996,52.998,5,42.998
			c7.002-7.002,17.002-12.998,21.006-12.998c12.002,0,5.996,52.998-7.998,70c-8.008,9.004-44.004,75.996-82.002,150
			c-86.006,169.004-187.002,319.004-322.998,480c-255,300-281.006,347.998-314.004,584.004
			c-7.998,62.998-22.998,137.998-30.996,166.992c-12.002,39.004-15,74.004-10,127.002c10,124.004,30.996,154.004,155.996,220
			c127.002,67.002,292.998,92.998,445,69.004c30.996-4.004,45.996-4.004,40,2.002c-7.998,7.998-167.998,33.994-185,30
			C7347.001,5677.997,7314.003,5674.003,7277.001,5669.003z"/>
		<path d="M4722.998,5662.997c9.004-2.002,22.998-2.002,30,0c6.006,2.998-0.996,5-17.998,5
			C4719.003,5667.997,4712.998,5665.995,4722.998,5662.997z"/>
		<path d="M4792.998,5662.997c15-2.002,39.004-2.002,55,0c15,2.002,2.002,4.004-27.998,4.004S4777.001,5664.999,4792.998,5662.997z"
			/>
		<path d="M4605,5647.997c-15.996-5-42.998-8.994-59.004-8.994c-46.992,0-177.998-76.006-305-178.008
			c-57.998-46.992-72.998-55-92.998-51.992c-3.999,0-10-16.006-13.999-37.002c-5-24.004-26.997-61.006-66.001-107.002
			c-32.998-37.998-65.996-82.002-72.998-95.996c-7.998-14.004-22.998-80-33.999-145c-18.999-110-18.999-127.002-7.002-219.004
			c25-175.996,28.003-257.998,16.001-360c-15-127.998-43.999-220-85-270c-30-37.998-66.001-99.004-65-110
			c5-29.004-17.998-105.996-37.998-130c-63.003-75-69.004-159.004-21.001-280c86.997-220.996,125-360.996,132.998-495.996
			c3.999-67.002,30-279.004,56.001-464.004c11.001-77.002,26.001-205,35-284.004c7.998-77.998,22.002-190.996,31.001-250
			c21.001-136.992,30-582.998,13.999-660.996c-7.002-30-21.001-75-32.002-99.004c-20-40.996-20-45-3.999-55.996
			c18.003-14.004,18.999-7.002-20-395c-18.999-190.996-15-222.002,33.999-265.996c55-50,190-112.002,322.002-148.008
			c109.004-30,270-37.998,400.996-20c105,15,115,17.002,201.006,56.006c85,38.994,92.002,55.996,77.998,188.994
			C4997.001,890,4944.003,1170,4920,1244.999c-5.996,17.002-12.002,57.002-15,89.004c-2.002,31.992-9.004,63.994-15,70.996
			c-14.004,15.996-29.004,107.998-34.004,210.996c-11.992,196.006-38.994,336.006-100.996,504.004c-30.996,87.998-85,325-120,530
			c-72.002,425.996-95,962.998-52.002,1192.002c16.006,83.994,115,300,182.998,397.998c49.004,72.998,160,207.998,242.002,297.002
			c72.998,78.994,162.998,192.998,172.998,220.996c4.004,10,14.004,24.004,23.008,31.006c23.994,20,43.994,98.994,65.996,250.996
			c10,74.004,25.996,155.996,34.004,182.998c10.996,36.006,11.992,64.004,5,119.004c-5,38.994-14.004,75-20,78.994
			c-6.006,3.008-10,9.004-10,13.008c5.996,35-86.006,120-184.004,168.994c-57.002,27.998-185.996,62.002-207.002,54.004
			c-7.998-4.004-5.996-6.006,6.006-6.006c10-0.996,57.998-13.994,106.992-30.996c103.008-34.004,213.008-100,234.004-139.004
			c20.996-41.992,34.004-160.996,22.998-211.992c-22.998-106.006-37.002-186.006-37.998-214.004
			c-0.996-55-47.002-222.002-72.998-265.996c-15-24.004-81.006-111.006-147.002-194.004
			c-272.002-339.004-327.002-417.002-422.998-605c-37.998-74.004-72.002-139.004-77.002-145c-4.004-5-10-22.998-14.004-39.004
			c-5.996-23.994-3.994-27.998,11.006-23.994c17.002,5,17.998-12.002,18.994-311.006c2.002-561.992,48.008-871.992,199.004-1355.996
			c67.002-214.004,85-312.998,85-465c0-97.998,4.004-140,15.996-167.998c31.006-72.002,34.004-92.002,15-92.002
			c-8.994,0-21.992,5-28.994,12.002c-9.004,8.994-15,8.994-24.004-1.006c-7.002-6.992-7.998-11.992-2.998-10.996
			c22.002,5,29.004-0.996,15-10c-10-5.996-10.996-10-2.002-10c6.006,0,12.002-7.002,12.002-15s-7.998-15-17.998-15
			s-51.006-12.002-92.002-25.996c-70.996-26.006-75-26.006-184.004-15c-60.996,5.996-146.992,20-190.996,30.996s-89.004,20-100,20
			c-27.002,0,54.004-37.002,97.002-44.004c17.998-2.998,42.998-7.998,53.994-10c141.006-28.994,276.006-26.992,422.002,7.002
			c46.006,11.006,64.004,12.002,67.002,2.998c50.996-151.992,112.002-512.998,100.996-593.994c-7.998-61.006-26.992-79.004-110-105
			C4782.998,587.998,4752.998,585,4575,585c-180.996,0-207.002,2.002-280,24.004c-150,43.994-218.999,91.992-252.998,172.998
			C4026,819.003,4025,840.996,4032.001,950c17.998,299.004,23.999,390,28.999,394.004c2.998,2.998,31.997-8.008,65-24.004
			c31.997-17.002,72.998-30,88.999-29.004c17.002,0,22.998,3.008,15,6.006s-17.002,8.994-20,12.998s-20,15-37.002,24.004
			c-17.998,8.994-32.998,22.998-32.998,31.992c0,9.004-5,12.002-12.002,8.008c-6.997-4.004-7.998-3.008-3.999,3.994
			c3.999,6.006-1.001,26.006-11.001,44.004c-13.999,27.002-17.998,72.998-23.999,262.998c-10,330.996-50,719.004-118.999,1170
			c-16.001,105-32.002,242.002-35,305c-3.999,62.998-7.998,117.002-10,120c-2.002,4.004-11.001,42.002-20,85.996
			c-8.999,43.008-31.001,126.006-50,184.004c-55,175.996-65,215-65,254.004c0,41.992,20,95,50,132.998
			c11.001,13.994,22.998,47.002,26.001,73.994c5,34.004,17.998,66.006,43.999,102.002c52.998,74.004,65,101.006,88.999,197.002
			c16.001,64.004,22.002,120,23.003,220c0,89.004,3.999,125,8.999,105c10-37.998,1.997,120.996-13.003,234.004
			c-18.999,151.992,20,275,121.001,382.998c13.999,15,28.003,42.002,31.001,60c3.999,23.994,13.999,37.998,38.999,52.998
			c18.999,10.996,58.999,42.998,90.005,70.996c150.996,137.002,207.998,171.006,333.994,204.004
			c55,14.004,64.004,17.998,37.002,17.998C4650.996,5657.997,4622.001,5654.003,4605,5647.997z M4096,1380.995
			c-7.002-10.996-56.001-0.996-56.001,12.002c0,6.006,7.998,19.004,17.002,29.004c15.996,17.998,16.997,17.998,30-7.002
			C4095,1400.995,4098.999,1385.995,4096,1380.995z"/>
		<path d="M4051,4234.003c0-11.006,2.998-14.004,6.001-6.006c2.998,7.002,1.997,16.006-1.001,19.004
			C4052.998,4250.995,4050,4244.999,4051,4234.003z"/>
		<path d="M8115,4164.003c27.002-94.004,65.996-184.004,72.002-168.008c2.002,6.006-7.002,33.008-21.006,60
			c-12.998,27.002-31.992,76.006-40.996,109.004c-10,32.998-20.996,64.004-25,69.004C8095,4237.997,8102.001,4207.001,8115,4164.003
			z"/>
		<path d="M4017.001,4127.997c-16.001-50-21.001-75.996-13.003-67.002c13.003,13.008,50,138.008,43.003,145
			C4045,4207.997,4032.001,4172.997,4017.001,4127.997z"/>
		<path d="M3971,4014.003c-12.002-27.002-11.001-28.008,3.999-12.002c10,8.994,16.001,20.996,12.998,27.998
			C3986,4037.001,3977.998,4029.003,3971,4014.003z"/>
	</g>
</g>
</svg>
