<?xml version="1.0" standalone="no"?>
<!DOCTYPE svg PUBLIC "-//W3C//DTD SVG 20010904//EN"
 "http://www.w3.org/TR/2001/REC-SVG-20010904/DTD/svg10.dtd">
<svg version="1.0" xmlns="http://www.w3.org/2000/svg"
 width="1200.000000pt" height="1600.000000pt" viewBox="0 0 1200.000000 1600.000000"
 preserveAspectRatio="xMidYMid meet">

<g transform="translate(0.000000,1600.000000) scale(0.100000,-0.100000)"
fill="#000000" stroke="none">
<path d="M5800 11940 c11 -28 20 -72 20 -99 0 -43 -3 -49 -32 -64 -122 -63
-221 -133 -212 -149 3 -4 -2 -18 -10 -30 -13 -18 -24 -22 -55 -19 -29 2 -50
-5 -83 -26 -60 -39 -72 -56 -46 -66 14 -5 30 1 56 23 20 16 47 30 59 30 20 0
23 -4 17 -27 -10 -40 -12 -43 -42 -43 -31 0 -68 -19 -42 -21 87 -6 119 12 120
68 0 38 16 52 25 23 3 -11 13 -20 20 -20 11 0 13 11 8 48 l-5 48 58 41 c78 54
165 105 171 99 3 -2 0 -13 -5 -23 -5 -10 -17 -50 -27 -90 -16 -62 -23 -74 -47
-84 -42 -17 -45 -31 -7 -27 42 4 52 16 74 93 9 33 25 79 36 102 11 25 19 65
20 100 0 43 3 52 9 37 5 -12 13 -25 19 -29 16 -9 13 17 -4 42 -9 12 -11 24 -6
27 5 4 12 0 14 -6 3 -8 6 -6 6 5 1 9 -6 17 -14 17 -8 0 -29 16 -48 35 -19 19
-41 35 -50 35 -15 0 -15 -5 3 -50z"/>
<path d="M6324 11972 c-11 -10 -23 -24 -26 -32 -2 -8 -13 -15 -24 -15 -14 0
-19 -7 -20 -30 -1 -16 -5 -38 -9 -49 -7 -16 -6 -17 13 -7 11 6 22 16 24 23 3
7 6 -12 7 -42 1 -32 18 -101 39 -164 36 -105 39 -110 71 -118 50 -13 61 -3 19
17 -26 13 -41 28 -47 49 -26 85 -42 149 -38 153 3 2 52 -26 109 -64 l103 -68
0 -53 c-1 -41 2 -51 13 -47 7 3 16 5 18 5 2 0 4 8 4 17 0 28 16 2 30 -49 12
-45 13 -46 56 -50 24 -2 44 1 44 5 0 5 5 5 12 1 7 -4 8 -3 4 4 -4 7 -23 12
-41 12 -30 0 -35 4 -43 33 -5 18 -5 34 0 35 17 7 53 -8 79 -32 32 -29 75 -26
59 4 -16 30 -97 72 -134 69 -41 -4 -61 12 -76 55 -8 25 -24 40 -63 61 -29 16
-70 40 -92 55 -22 15 -51 31 -64 35 -22 7 -23 10 -16 68 3 33 15 78 26 99 18
36 18 38 2 38 -10 -1 -27 -9 -39 -18z m-57 -74 c-3 -8 -6 -5 -6 6 -1 11 2 17
5 13 3 -3 4 -12 1 -19z"/>
<path d="M6230 11809 c0 -5 -4 -7 -10 -4 -5 3 -10 1 -10 -5 0 -7 -7 -10 -15
-6 -9 3 -15 0 -15 -10 0 -13 4 -13 30 1 26 13 41 35 25 35 -3 0 -5 -5 -5 -11z"/>
<path d="M5920 11802 c0 -6 13 -15 29 -20 25 -9 29 -8 24 4 -3 8 -9 14 -13 14
-5 0 -15 3 -24 6 -9 3 -16 2 -16 -4z"/>
<path d="M6000 11770 c8 -5 20 -10 25 -10 6 0 3 5 -5 10 -8 5 -19 10 -25 10
-5 0 -3 -5 5 -10z"/>
<path d="M5827 11535 c-20 -24 -62 -56 -92 -70 -30 -15 -55 -31 -55 -36 0 -5
-17 -9 -37 -9 -21 0 -45 -5 -53 -11 -11 -7 -3 -9 30 -5 25 3 102 9 171 12 109
6 130 4 155 -11 l29 -17 -25 20 c-31 26 -85 34 -185 27 l-80 -5 40 16 c47 20
121 77 136 106 18 34 5 28 -34 -17z"/>
<path d="M6289 11561 c19 -35 72 -81 124 -107 l52 -25 -63 3 c-34 2 -59 1 -55
-3 5 -4 44 -10 88 -13 44 -4 73 -3 65 0 -8 4 -17 10 -20 14 -3 4 -29 19 -58
34 -30 15 -74 47 -98 72 -25 24 -40 36 -35 25z"/>
<path d="M5920 11491 c0 -5 5 -13 10 -16 6 -3 10 -2 10 4 0 5 -4 13 -10 16 -5
3 -10 2 -10 -4z"/>
<path d="M6204 11468 l-19 -23 23 19 c21 18 27 26 19 26 -2 0 -12 -10 -23 -22z"/>
<path d="M6187 11426 l-28 -23 28 3 c63 6 113 17 113 24 0 8 -40 1 -90 -15
-25 -8 -25 -8 -6 14 25 27 18 26 -17 -3z"/>
<path d="M5947 11429 c7 -7 15 -10 18 -7 3 3 -2 9 -12 12 -14 6 -15 5 -6 -5z"/>
<path d="M6145 11430 c-13 -6 -15 -9 -5 -9 8 0 22 4 30 9 18 12 2 12 -25 0z"/>
</g>
</svg>
