<?xml version="1.0" standalone="no"?>
<!DOCTYPE svg PUBLIC "-//W3C//DTD SVG 20010904//EN"
 "http://www.w3.org/TR/2001/REC-SVG-20010904/DTD/svg10.dtd">
<svg version="1.0" xmlns="http://www.w3.org/2000/svg"
 width="1200.000000pt" height="1600.000000pt" viewBox="0 0 1200.000000 1600.000000"
 preserveAspectRatio="xMidYMid meet">

<g transform="translate(0.000000,1600.000000) scale(0.100000,-0.100000)"
fill="#000000" stroke="none">
<path d="M5944 12231 c-56 -26 -107 -79 -122 -128 -15 -49 -16 -123 -2 -123 6
0 10 -8 10 -18 0 -20 33 -56 42 -46 6 6 21 -89 21 -136 1 -82 -7 -170 -16
-170 -6 0 -5 -5 1 -13 16 -19 -28 -69 -93 -106 -79 -45 -98 -85 -42 -94 17 -3
50 -10 72 -16 22 -6 59 -11 82 -11 23 0 45 -4 48 -10 3 -5 19 -10 35 -10 20 0
36 -9 53 -31 21 -27 25 -28 36 -15 8 9 22 16 33 16 10 0 40 16 65 35 25 19 62
39 82 44 63 16 194 23 224 12 51 -20 26 22 -38 60 -22 13 -58 31 -80 39 -61
23 -85 78 -87 206 -2 96 13 192 36 224 26 36 36 62 36 91 0 85 -52 163 -134
200 -30 14 -65 19 -131 19 -66 0 -101 -5 -131 -19z"/>
</g>
</svg>
