<?xml version="1.0" encoding="utf-8"?>
<!-- Generator: Adobe Illustrator 16.0.0, SVG Export Plug-In . SVG Version: 6.00 Build 0)  -->
<!DOCTYPE svg PUBLIC "-//W3C//DTD SVG 1.1//EN" "http://www.w3.org/Graphics/SVG/1.1/DTD/svg11.dtd">
<svg version="1.1" xmlns="http://www.w3.org/2000/svg" xmlns:xlink="http://www.w3.org/1999/xlink" x="0px" y="0px" width="1200px"
	 height="1600px" viewBox="0 0 1200 1600" enable-background="new 0 0 1200 1600" xml:space="preserve">
<g id="Layer_2">
	<g>
		<path fill="#262626" d="M411.333,1519.334c0,0,13.029,37.5,14.598,40s5.902-13.5,5.902-13.5l21.138-23.167
			c0,0-15.722-44.889-24.739-42.122c-4,1.228-9.733,17.289-9.733,17.289L411.333,1519.334z"/>
		<path fill="#262626" d="M548.992,1548.667L519,1517.003c0,0,1-23.41,19.5-43.26c3.059-3.282,6.384,1.55,6.833,0.552
			s12.5,32.288,12.333,36.33S556.151,1535,548.992,1548.667z"/>
	</g>
	<g>
		<path fill="#262626" d="M804.984,1519.334c0,0-13.029,37.5-14.598,40s-5.902-13.5-5.902-13.5l-21.139-23.167
			c0,0,15.723-44.889,24.739-42.122c4,1.228,9.733,17.289,9.733,17.289L804.984,1519.334z"/>
		<path fill="#262626" d="M667.326,1548.667l29.992-31.664c0,0-1-23.41-19.5-43.26c-3.059-3.282-6.385,1.55-6.834,0.552
			s-12.5,32.288-12.334,36.33C658.818,1514.667,660.167,1535,667.326,1548.667z"/>
	</g>
</g>
<g id="Layer_1">
	<g transform="translate(0.000000,1600.000000) scale(0.100000,-0.100000)">
		<path d="M4435,5652.001c-97.002-52.998-132.998-84.004-245-207.002c-162.002-177.002-190-220-201.001-302.998
			c-12.998-97.002-2.998-366.006,15-432.002c18.999-67.002,18.999-62.998,3.999-54.004c-7.998,5-6.997,1.006,1.001-10
			c20-23.994,26.001-173.994,12.002-245.996c-7.002-30-13.003-62.002-15-70c-10-55-40-132.002-68.999-175.996
			c-26.001-39.004-33.003-59.004-31.001-87.002c1.997-24.004-5-54.004-21.001-85c-32.002-64.004-40-99.004-27.002-125
			c19.004-37.998,93.003-301.006,96.001-342.002c2.002-22.002,11.001-69.004,21.001-105c8.999-35.996,22.998-102.998,31.001-150
			c6.997-47.002,16.001-97.998,20-115c18.999-97.998,56.001-305,60-335c1.997-19.004,6.997-47.998,11.001-65
			c8.999-40,7.998-34.004,16.997-90c3.999-27.002,10-67.998,11.001-90c2.002-22.002,15-114.004,28.999-205
			c38.999-257.002,42.002-365,16.001-480c-17.002-75-22.002-122.998-21.001-227.998c2.002-126.006,0-135-20-152.998
			c-11.997-10-26.001-20-31.001-20c-3.999-1.006-11.997-3.008-17.998-4.004c-5-0.996-13.999-2.998-20-4.004c-5,0-10-6.992-10-15
			c0-6.992-8.999-33.994-20-60c-12.002-25-22.002-70-23.999-98.994c-2.002-30-6.001-59.004-10-65
			c-3.999-7.002-1.001-27.998,6.001-47.998c8.999-26.006,10-37.002,0.996-42.002C3990,1134.003,3992.001,882.998,4005,805
			c8.999-54.004,97.998-200,136.001-222.002c16.001-8.994,28.999-20.996,28.999-25c0-15,80.996-172.998,95.996-187.998
			c14.004-12.998,17.002-12.998,30,5c8.008,10.996,25,52.998,37.002,92.998L4354.003,540h41.992c58.008,0,145,52.002,207.002,125
			c41.006,47.002,49.004,62.998,54.004,107.998c2.998,27.998,10.996,81.006,17.002,117.002c10.996,59.004,15,67.002,45.996,82.998
			c35,17.998,125.996,17.998,139.004,0c2.998-3.994,12.998-8.994,20.996-10.996c32.998-7.998,149.004-121.006,144.004-142.002
			c-2.002-5.996-1.006-7.998,20.996-79.004c17.002-55,59.004-130.996,72.998-130.996c5,0,49.004-9.004,100-19.004
			C5269.003,580,5330,572.998,5359.003,575c46.992,4.004,50.996,2.998,68.994-27.998c11.006-17.002,22.998-50,27.002-72.002
			c5.996-35.996,17.998-54.004,35.996-55c32.002-0.996,101.006,250.996,103.008,377.002c0,45.996,3.994,82.998,7.998,82.998
			c3.994,0,3.994,10-1.006,22.002c-5,12.998-2.998,38.994,5,65c8.008,25,12.002,78.994,11.006,125.996
			c-4.004,97.002-32.002,167.998-94.004,232.002c-20.996,22.002-47.002,52.002-57.998,65.996
			c-27.998,36.006-65.996,58.008-122.002,72.002c-28.994,7.998-47.002,17.998-45,26.006c2.002,7.998-3.994,10-17.998,5.996
			c-14.004-5-29.004,2.002-50,24.004c-25.996,25-30,36.992-30,81.992c0,30-5.996,71.006-14.004,94.004
			c-7.998,22.002-30.996,99.004-50.996,170c-20.996,72.002-52.998,184.004-72.002,250c-70.996,245.996-80.996,282.998-105.996,390
			c-40,170-46.006,195.996-62.002,252.998c-7.998,30-17.002,72.002-20,95s-12.002,76.006-20,117.002
			c-25.996,137.002-35.996,197.002-40.996,255c-2.002,32.002-6.006,60.996-9.004,64.004c-2.002,3.994-5.996,35.996-9.004,71.992
			c-3.994,35-8.994,76.006-11.992,89.004c-4.004,14.004-8.008,120-10,235c-2.002,115.996-4.004,215-4.004,220
			c-5.996,42.998,12.002,170,30,215c40,102.002,92.002,205,117.998,232.998c14.004,15,22.002,27.002,19.004,27.002
			c-20,0,147.998,254.004,177.998,270c20,10,22.002,15.996,12.998,27.002c-8.994,10.996-3.994,23.994,20,58.994
			c17.998,24.004,32.002,47.002,32.002,50c0,3.008,7.998,24.004,19.004,47.002c10,22.998,21.992,64.004,25.996,90
			c2.998,27.002,9.004,59.004,12.002,70c2.002,12.002,10.996,51.006,17.998,87.002s22.998,94.004,35,129.004
			c15.996,48.994,20,81.992,17.998,145.996c-2.002,47.002-7.002,80-12.002,77.002s-6.992,2.002-2.998,10.996
			c2.998,10,2.002,17.002-3.994,17.002c-6.006,0-7.002,5-4.004,10c2.998,5.996,0,10-7.998,10s-20,14.004-26.006,30
			c-5,17.002-15,30-20,30c-15,0-13.994-2.002,14.004-84.004c35-101.992,35.996-127.998,9.004-180c-13.008-25-33.008-70-45-100
			c-11.006-30.996-25-55-30-52.998c-6.006,1.006-12.002-15.996-13.008-37.998c-2.998-52.998-76.992-175.996-133.994-224.004
			c-24.004-20-46.006-35.996-50-36.992c-4.004,0-15-4.004-24.004-8.008c-8.994-3.994-67.998-5.996-130-3.994L4715,4814.999
			l-85,55.996c-90.996,60-97.998,69.004-115,174.004c-2.998,22.002-12.002,50.996-20,65c-12.998,24.004-12.998,22.998-20.996-25
			c-9.004-59.004-8.008-77.002,12.998-132.002c12.002-32.002,28.994-50.996,72.002-80
			c80.996-55.996,230.996-127.998,238.994-115.996c4.004,5,42.998,12.998,87.002,15.996c85.996,7.002,119.004,12.002,135,22.002
			c5.996,2.998,10,4.004,10,0.996c0-7.998-64.004-53.994-80-57.998c-7.998-2.002-20.996-8.994-27.998-15
			c-7.002-7.002-39.004-13.994-70-13.994c-31.006-1.006-82.998-2.002-114.004-3.008c-32.002,0-52.998,1.006-47.002,3.008
			c13.008,3.994-20.996,30-40.996,30.996c-9.004,0-55,34.004-102.998,75c-47.998,42.002-92.002,72.998-97.002,70s-10.996-0.996-15,5
			c-2.998,5-10.996,10-17.002,10c-18.994,0,11.006-27.998,120-110c57.998-45,111.006-79.004,117.998-75.996
			c6.006,1.992,11.006-3.008,10-11.006c-0.996-8.994,14.004-20.996,37.002-28.994c21.006-7.002,35-9.004,32.002-4.004
			c-4.004,5.996,35.996,10,102.998,10h109.004l67.002,65c36.992,35.996,71.992,62.002,77.998,59.004
			c5.996-4.004,7.998-2.002,3.994,3.994c-2.998,6.006,2.002,15,11.006,21.006c10,5,13.994,12.998,10,16.992
			c-4.004,4.004-21.006-1.992-37.002-15c-35-25-39.004-20-9.004,12.002c11.006,12.002,34.004,42.002,51.006,67.002
			c27.002,40.996,30,42.002,22.998,15c-4.004-15.996-10.996-52.998-15-80.996c-12.002-75-34.004-119.004-95-195
			c-39.004-48.008-70-75-109.004-94.004c-60.996-30-205.996-59.004-250.996-49.004c-25,5-27.998,4.004-17.002-6.992
			c27.998-30,204.004-11.006,281.006,30c20.996,11.992,28.994,2.998,11.992-14.004c-10.996-12.002-45-72.002-85-150
			c-26.992-52.002-37.998-62.998-90-90c-55-27.998-66.992-30-165-30c-102.998,0.996-107.998,2.002-180.996,39.004
			c-77.998,38.994-139.004,90-170.996,140.996c-17.002,27.002-19.004,27.998-16.006,7.002c4.004-26.006,57.998-86.006,130-142.998
			c57.002-45,161.006-80,227.002-75c59.004,3.994,160,26.992,160,35.996c0,4.004,7.998,10,17.998,12.998
			c9.004,2.002,26.006,7.998,37.002,12.998c17.002,6.006,17.998,5,7.998-6.992c-5.996-8.008-25-51.006-42.002-97.002
			c-33.994-92.998-70.996-159.004-117.998-209.004c-30.996-32.998-30.996-32.998-125-32.998c-52.998,0-120-7.002-152.998-15.996
			c-34.004-8.008-74.004-12.002-92.998-9.004c-35,5.996-95,37.002-123.003,60.996c-7.998,8.008-21.997,14.004-30,14.004
			c-41.001-0.996,96.997-79.004,183.003-104.004c97.002-27.998,250-12.998,310.996,29.004c12.002,7.998,29.004,15,39.004,15
			c20,0,28.994,12.002,38.994,54.004c6.006,25,7.002,20,8.008-28.008c0.996-47.998-2.002-56.992-14.004-51.992
			c-7.998,2.998-15,0.996-15-4.004c0-10-77.002-62.998-100-69.004c-7.998-1.992-30.996-6.992-50-11.992
			c-39.004-10-190.996-13.008-230-5c-14.004,2.998-37.998,8.994-55,11.992c-44.004,9.004-86.001,32.002-122.002,67.002
			c-17.998,17.002-32.998,26.006-32.998,20c0-17.998,66.001-70.996,117.002-93.994c65-30,85.996-33.008,197.998-33.008
			c110,1.006,184.004,21.006,257.998,70c29.004,19.004,42.002,23.008,47.002,14.004c4.004-7.002,5.996-79.004,2.998-162.002
			c-2.998-115-0.996-157.998,11.006-190.996c15.996-45,30.996-164.004,40.996-317.002c4.004-52.002,10-112.998,15-135
			c20.996-95,22.002-135,5.996-135c-8.994,0-41.992-9.004-72.998-20c-52.002-17.002-183.994-45-385.996-80.996
			c-37.998-6.006-64.004-15-57.002-19.004s30.996-2.998,54.004,2.002c43.994,10.996,57.998,12.998,125.996,22.998
			c25,2.998,50.996,7.998,59.004,10.996c7.998,3.008,30,7.002,50,10c45,7.002,126.992,29.004,163.994,43.008
			c15,5.996,27.002,8.994,27.002,5.996c0-2.002,12.998,0,27.998,4.004c27.998,7.998,29.004,7.998,41.006-48.008
			c6.992-30.996,12.998-62.998,15-70.996c5-30,48.994-219.004,85.996-370c20.996-85,34.004-155.996,29.004-157.998
			c-13.008-5-11.006-22.002,2.998-19.004c5.996,1.006,20-27.002,30-62.998c10.996-35.996,37.002-120.996,58.994-187.998
			c21.006-67.998,39.004-131.006,39.004-140c0-10,12.002-51.006,25-92.002c14.004-40.996,25-90,25-110
			c0-19.004,12.998-62.998,29.004-97.002l30-62.002l-52.002-6.992c-39.004-6.006-57.998-14.004-77.002-36.006
			c-29.004-32.998-45.996-35.996-55-7.998c-2.998,10.996-10.996,20-15.996,20c-6.006,0-7.002,5-4.004,10s2.002,10-2.002,10
			c-15.996,0-42.002,55.996-45,94.004c-2.002,30,2.998,41.992,22.002,56.992c14.004,10,32.002,16.006,40,13.008
			c7.998-3.008,10.996-2.002,7.998,1.992c-3.994,4.004-2.998,15,2.998,26.006c6.006,10,7.002,27.998,3.008,40
			c-6.006,20.996-7.002,20-18.008-7.002l-11.992-29.004l-17.002,24.004c-12.998,17.998-17.002,20-17.002,7.998
			c0-8.994,5-20,10-22.998c17.002-10,10.996-37.002-9.004-42.002c-10.996-2.998-21.992-15.996-25-28.994
			c-10-39.004-16.992-151.006-7.998-131.006c7.002,16.006,12.998,12.002,50-32.002c41.006-47.998,52.002-68.994,32.002-55.996
			c-12.998,7.998-12.998-27.002,0-57.002c5-12.998,15-42.998,20.996-67.998c17.002-67.002,22.002-34.004,5,42.998
			c-6.992,37.002-10,64.004-5,62.002c4.004-2.998,10-0.996,14.004,4.004c12.998,21.992,115,70.996,145.996,70.996
			c37.002,0,100-20,112.002-35c4.004-5.996,10-5,16.006,5c7.998,12.002,16.992,10,60.996-10c65-30,72.002-40.996,17.002-27.002
			c-65,17.002-177.002,14.004-212.998-5.996c-18.008-9.004-53.008-47.002-80-84.004c-26.006-37.002-51.006-70-55-72.998
			c-5-2.998-4.004-10.996,0-17.998c5-9.004,20.996,7.998,48.994,55c65,110,77.998,117.998,180,117.998
			c79.004,0,141.006-7.002,182.002-20c20-7.002,65-72.002,79.004-115.996c15.996-50,20-73.008,26.992-164.004
			c6.006-75.996,1.006-97.998-10-45c-32.998,152.002-100.996,285.996-135,265c-6.992-2.998-7.998,0-5,10
			c19.004,47.002-70.996-54.004-93.994-107.002c-9.004-20,15.996-5,27.998,16.006c7.002,13.994,17.998,21.992,24.004,20
			c6.992-3.008,17.998,6.992,23.994,20.996c6.006,14.004,15,25,19.004,25c17.002,0,77.998-165.996,122.002-325
			C5565,847.998,5565.996,834.003,5555,792.001c-12.002-45-12.002-46.006-17.002-17.002c-2.998,19.004-5.996,7.998-7.002-30
			c-2.998-80.996-15.996-145.996-31.992-155c-18.008-12.002-51.006,17.998-51.006,17.998l-74.873,60.127
			c-144.375,142.295-184.121,159.707-163.96,222.705c5.42,27.08,29.985,142.334,40,162.08c28.96,57.09,50.884,110.625,32.085,75.215
			c-1.875-3.525-42.246-56.123-61.25-128.125c0,0-28.75-148.438-59.004-112.998c-16.035,18.779-22.998,12.998-17.998,0
			c2.998-7.998,0-20-5.996-26.006c-7.002-6.992-7.998-10.996,0-10.996c5.996,0,25-24.004,43.994-52.002
			c18.008-28.994,58.008-75,90-102.998l57.002-50l-33.994-2.998c-60-6.006-138.008,23.994-175,65
			C5069.003,762.998,5022.001,865,5010,945c-12.998,84.004-22.998,100-19.004,29.004l4.004-51.006L4957.998,955
			c-78.994,67.002-133.994,84.004-240.996,70.996c-37.998-3.994-37.998-3.994-36.006,28.008c5,47.998-52.998,135-88.994,135.996
			c-9.004,0-9.004-7.002,2.998-30c9.004-15.996,12.998-30,10-30c-4.004,0,4.004-14.004,15.996-30.996
			c16.006-23.008,23.008-48.008,24.004-98.008c2.998-60.996-0.996-96.992-22.998-222.998C4612.998,730,4587.001,690,4565,690
			c-7.002,0-15-7.998-17.002-17.998c-5-17.002-125.996-87.998-135-79.004c-2.002,2.998,16.006,26.006,41.006,52.998
			c25.586,27.246,92.397,118.613,106.411,150.244c2.969,6.689-5.933,4.551-7.5,5.42c-25.83-28.33-23.911-3.662-23.911-3.662
			l-21.006,37.998c-10.996,22.002-20,40-18.994,42.002c3.994,6.006-53.008,102.002-61.006,102.002
			c-10.996,0-12.998,5.996,37.002-94.004l45-88.994l-37.002-46.006c-58.994-73.994-153.384-178.105-165.439-195.732
			c-0.518-0.752-26.113-107.275-35.107-115.273C4258.447,426.992,4224.003,515,4215,550c-0.996,2.998-12.002,27.998-23.999,55
			c-32.002,72.002-62.002,162.998-63.003,194.004c0,13.994,8.003,55.996,19.004,93.994C4157.998,930,4163.999,960,4158.999,960
			c-3.999,0-15-25-23.999-55c-8.999-30.996-20-67.998-26.001-82.998c-10-26.006-10-39.004,1.001-35
			c2.998,0.996,7.002-12.998,7.998-30c1.001-26.006,0-29.004-8.999-15c-5,10-15,17.998-21.001,17.998c-5.996,0-6.997-5-1.997-12.998
			c5-7.002,1.997-5-7.002,3.994C4067.001,764.003,4060,809.003,4051,929.003c-13.003,170.996-13.003,173.994,37.998,233.994
			c8.003,10,16.001,27.998,18.003,40C4115,1259.003,4191,1314.003,4245,1304.003c27.998-5,60-12.002,95-19.004
			c7.998-2.002,15-4.004,15-5s9.004-2.998,20.996-5c11.006-2.998,51.006-17.998,87.002-34.004
			c37.002-16.992,67.002-25.996,67.002-21.992c0,13.994-130,66.992-197.998,80.996c-34.004,7.002-65,15.996-67.002,20
			c-9.004,14.004,67.998,25.996,189.004,29.004c22.998,0.996,26.992,3.994,17.998,12.998c-6.006,5.996-42.998,10.996-84.004,12.002
			l-72.998,0.996l2.998,32.002c5,40,52.002,72.998,102.998,72.998c37.002,0,151.006-50,132.002-57.002
			c-7.002-2.998-12.998-20.996-12.998-42.002c0-20-5-41.992-12.002-48.994s-7.998-12.002-2.002-12.002
			c5,0,11.006-7.998,12.002-17.002c4.004-38.994,9.004-53.994,20-65c15-15,16.006,2.998,2.002,52.002
			c-7.998,25.996-5.996,47.998,5,87.998c15,47.998,14.004,55-0.996,81.006c-22.002,36.992-53.008,50.996-112.002,50.996
			c-97.998,0-172.998-40-152.002-80.996c25-45-2.002-79.004-62.002-79.004h-40l8.003,32.998c3.999,17.002,6.997,52.002,6.997,77.002
			c-2.998,197.998-2.002,284.004,4.004,292.998c2.998,5,5.996,22.998,5,37.998c-1.006,39.004,8.994,36.006,37.998-10.996
			s54.004-62.998,40-24.004c-15,39.004-12.002,49.004,17.998,62.002l27.002,12.002l-32.998-5
			c-31.006-4.004-34.004-2.002-52.002,37.998c-12.998,32.002-19.004,79.004-24.004,197.002c-6.992,175-21.992,302.998-70.996,605
			c-18.999,115.996-33.999,230-32.998,255c0.996,25-8.003,85.996-19.004,135c-11.997,50-23.999,117.002-26.997,150
			c-3.003,32.998-7.002,69.004-10,80c-2.002,10.996-7.002,42.002-10,67.998c-3.999,27.002-15,72.002-26.001,100
			c-17.002,47.998-27.002,86.006-35,140c-8.999,52.998-13.999,75-28.999,122.002c-8.003,27.998-17.002,62.002-20,77.998
			c-3.003,15-11.001,40-18.999,55c-9.004,17.998-11.001,35-5,47.998c7.998,17.002,7.998,17.002,3.999-2.998
			c-3.003-17.998,10-32.998,28.999-32.998c12.998,0,13.999,47.998,3.999,122.002c-11.001,82.002-10,90,10,132.002
			c11.001,25,21.001,48.994,21.001,52.998c0,3.994,7.998,25,18.999,47.002c31.001,68.994,52.002,147.998,58.003,220.996
			c2.998,39.004,8.999,75,11.997,80c8.999,12.002,7.002,22.002-6.001,55c-5,14.004-12.998,40.996-16.997,60
			c-6.001,34.004-6.001,35,10,12.002c18.999-27.002,111.001-102.002,126.001-102.002c5,0-14.004,20-44.004,44.004
			c-80.996,65.996-105.996,107.998-118.999,200.996c-17.998,127.998,8.003,442.002,32.002,379.004c5-13.008,6.997-5,6.997,23.994
			c0,27.002,6.001,50,16.001,60c15,15,16.001,14.004,17.002-12.998c1.001-60,11.001-90.996,46.001-155
			c38.999-72.002,57.998-97.002,87.002-112.002c10.996-5.996,1.992,10-21.006,37.998c-45,55-81.997,123.008-75.996,141.006
			c1.997,5.996-1.001,13.994-6.001,17.998c-6.001,2.998-11.001,34.004-11.001,69.004v62.998l61.001,60.996
			c33.003,34.004,73.999,72.002,91.001,84.004l30.996,20.996l-5-25.996c-2.998-14.004-0.996-24.004,2.998-21.006
			c5,3.008,9.004,18.008,9.004,33.008c0,37.998,84.004,125,147.002,151.992c25.996,12.002,70.996,22.002,97.998,24.004
			c94.004,5,92.002,4.004,75,15c-7.998,5-27.998,10-45,10.996c-27.002,2.002-25,3.008,10,9.004c37.998,7.002,37.002,7.002-20,9.004
			c-32.998,0.996-69.004,2.998-80,5.996S4462.998,5667.001,4435,5652.001z M4552.998,5642.997c-7.002-2.002-18.994-2.002-25,0
			c-7.002,2.998-2.002,5,12.002,5S4559.003,5645.995,4552.998,5642.997z M4694.003,3944.999c-4.004-7.998-11.006-15-16.006-15
			c-5.996,0-5,5.996,2.002,15c7.002,7.998,14.004,15,15.996,15C4697.998,3959.999,4697.001,3952.997,4694.003,3944.999z
			 M4564.003,3909.999c-6.006-5.996-56.006-14.004-110-17.002c-99.004-5.996-123.008,1.006-48.008,12.998
			c21.006,3.008,40,7.002,41.006,7.002c0.996,1.006,30,2.998,65,5C4559.003,3919.999,4572.001,3917.997,4564.003,3909.999z
			 M4095,1369.999c-3.999-12.002-8.999-19.004-12.002-17.002c-2.998,2.998-1.997,15,2.002,27.002s8.999,19.004,12.002,17.002
			C4100,1394.003,4098.999,1382.001,4095,1369.999z M4085,1329.999c-2.002-4.004-7.002-29.004-10-55.996
			c-3.999-27.002-10-53.008-13.999-57.002c-3.999-4.004-3.999,20,1.001,53.994c3.999,33.008,5.996,65,1.997,70
			c-2.998,5,2.002,6.006,10,3.008C4082.998,1340.995,4087.998,1334.003,4085,1329.999z"/>
		<path d="M8274.999,3982.001c-15.996,30.996-22.998,60.996-20.996,85c1.992,27.998-5,47.998-31.006,87.002
			c-28.994,43.994-58.994,120.996-68.994,175.996c-2.002,7.998-8.008,40-15,70c-14.004,72.002-8.008,222.002,11.992,245.996
			c8.008,11.006,9.004,15,2.002,10c-15.996-8.994-15.996-12.998,2.998,54.004c18.008,65.996,28.008,335,15,432.002
			c-6.992,55-16.992,77.998-50,125c-71.992,102.002-260.996,295.996-335,343.994c-68.994,44.004-121.992,71.006-135,67.002
			c-2.998-0.996-35-3.994-70.996-7.998c-47.002-5-54.004-7.002-25.996-7.998c46.992-2.002,45-7.998-7.002-15
			c-42.002-6.006-61.006-16.006-31.006-17.998c144.004-8.008,204.004-30,277.002-104.004c32.998-34.004,47.002-55.996,47.002-75.996
			c0-15,4.004-30,9.004-33.008c3.994-2.998,5.996,7.002,2.998,21.006l-5,25.996l30.996-20.996
			c17.002-12.002,57.998-50,91.006-84.004l60.996-60.996v-62.998c0-35-5-66.006-10.996-69.004c-5-4.004-8.008-12.002-6.006-17.998
			c6.006-17.998-30.996-86.006-75.996-141.006c-22.998-27.998-32.002-43.994-21.006-37.998c29.004,15,48.008,40,87.002,112.002
			c35,64.004,45,95,46.006,155c0.996,27.002,1.992,27.998,16.992,12.998c10-10,16.006-32.998,16.006-60
			c0-28.994,2.002-37.002,7.002-23.994c23.994,62.998,50-251.006,31.992-379.004c-12.998-92.998-37.998-135-118.994-200.996
			c-30-24.004-49.004-44.004-44.004-44.004c15,0,107.002,75,126.006,102.002c15.996,22.998,15.996,22.002,10-12.002
			c-4.004-19.004-12.002-45.996-17.002-60c-12.998-32.998-15-42.998-6.006-55c3.008-5,9.004-40.996,12.002-80
			c6.006-72.998,27.002-152.002,57.998-220.996c11.006-22.002,19.004-43.008,19.004-47.002c0-4.004,10-27.998,20.996-52.998
			c20-42.002,21.005-50,10-132.002c-12.998-92.002-7.998-127.002,16.005-117.998c7.998,2.998,15.996,5.996,17.998,5.996
			s0.996,10-0.996,22.998c-4.004,19.004-3.008,20,3.994,2.998c6.006-12.998,4.004-30-5-47.998c-7.998-15-15.996-40-18.994-55
			c-3.008-15.996-12.002-50-20-77.998c-17.002-52.002-21.006-72.002-28.008-117.002c-8.994-55.996-17.998-95-35.996-145
			c-10.996-27.998-22.002-72.998-25.996-100c-3.008-25.996-8.008-57.002-10-67.998c-3.008-10.996-7.002-47.002-10-80
			c-3.008-32.998-15-100-27.002-150c-11.006-49.004-20-110-19.004-135c1.006-25-13.994-139.004-32.998-255
			c-49.004-302.002-64.004-430-70.996-605c-5-117.998-11.006-165-24.004-197.002c-17.998-40-20.996-42.002-52.002-37.998l-32.998,5
			l27.998-12.002c29.004-12.998,32.002-22.998,17.002-62.002c-14.004-38.994,10.996-22.998,40,24.004s39.004,50,37.998,10.996
			c-0.996-15,2.002-32.998,5-37.998c6.006-8.994,7.002-95,4.004-292.998c0-25,2.998-60,7.002-77.002l8.994-32.998h-40.996
			c-60,0-87.002,34.004-62.002,79.004c20.996,40.996-54.004,80.996-152.002,80.996c-58.994,0-90-14.004-112.002-50.996
			c-15-26.006-15.996-33.008-0.996-81.006c10.996-40,12.998-62.002,5-87.998c-14.004-49.004-12.998-67.002,2.002-52.002
			c10.996,11.006,15.996,26.006,20,65c0.996,9.004,7.002,17.002,12.002,17.002c5.996,0,5,5-2.002,12.002
			S7620,1360.995,7620,1380.995c0,21.006-5.996,39.004-12.002,42.002c-20,7.002,94.004,57.002,131.006,57.002
			c50.996,0,97.998-32.998,102.998-72.998l2.998-32.002l-72.998-0.996c-41.006-1.006-77.998-6.006-84.004-12.002
			c-8.994-9.004-5-12.002,17.998-12.998c121.006-3.008,198.008-15,189.004-29.004c-2.002-4.004-32.998-12.998-67.002-20
			C7760,1285.995,7630,1232.997,7630,1219.003c0-4.004,30,5,67.002,21.992c35.996,16.006,75.996,31.006,87.002,34.004
			c11.992,2.002,20.996,4.004,20.996,5s7.002,2.998,15,5c35,7.002,67.002,14.004,95,19.004c54.004,10,130-45,137.998-101.006
			c2.002-12.002,10-30,17.998-40c51.006-60,51.006-62.998,38.008-233.994c-9.004-120-16.006-165-28.008-178.008
			c-8.994-8.994-11.992-10.996-6.992-3.994c5,7.998,3.994,12.998-3.008,12.998c-5.996,0-13.994-7.002-16.992-15
			c-10-25.996-21.006-15.996-16.006,15c2.002,15.996,7.998,30,12.002,30s-2.998,32.998-15.996,72.998
			c-34.004,101.006-34.004,100-40,94.004c-3.008-2.998,3.994-36.006,15-74.004c10.996-37.002,17.998-82.002,15.996-98.994
			c-5-39.004-62.002-196.006-89.004-248.008c-25.996-47.998-60.996-56.992-70-16.992c-5,23.994-20.996,45.996-92.998,125
			c-50,56.992-122.998,150-122.998,158.994c0,5,17.998,45,40,89.004c40.996,80.996,49.004,117.002,12.002,55.996
			c-39.004-65-68.75-158.252-85.752-154.248c-10.996,2.998-20,2.998-20,0.996c0-2.998,83.75-123.75,108.75-150.742
			c50.996-55,45.996-67.002-14.004-30c-21.992,13.994-42.998,25.996-46.992,25.996c-3.008,0-27.002,20-52.002,45
			C7545,732.001,7545,730,7520.996,880c-10.996,69.004-6.992,185,7.002,202.002c6.006,7.002,11.006,17.998,12.998,22.998
			c1.006,5.996,8.008,24.004,16.006,42.002c15.996,38.994,15.996,42.998,2.002,42.998c-12.002,0-24.004-12.002-62.002-62.002
			c-22.998-30.996-27.002-43.994-21.006-72.998l6.006-35l-42.998,5.996c-100,14.004-157.002-3.994-237.002-70.996L7165,922.998
			l4.004,51.006c3.994,70.996-6.006,55-19.004-29.004c-12.002-80-59.004-182.002-109.004-237.998c-36.992-41.006-115-71.006-175-65
			L6832.001,645l57.002,50c66.992,59.004,132.998,154.004,118.994,172.002c-5.996,7.002-37.002,2.002-47.998,45
			c-5.996,22.998-15.996,58.994-22.998,77.998c-12.002,37.002-12.998,42.002-21.006,77.998
			c-2.998,12.998-35.42,85.752-32.246,65.752c3.232-20.371,12.5-38.75,28.75-91.25c9.072-29.307,39.58-187.959,29.502-213.496
			C6915,760.625,6824.873,708.994,6786.875,670l-74.873-62.002c0,0-41.826-53.32-57.832-41.328
			C6637.177,578.671,6624.003,690,6620,785c0,15.996-2.002,17.002-9.004,5.996c-18.994-30-25,41.006-8.994,99.004
			c8.994,30,25,90,37.002,132.998c22.998,85,90.996,247.002,103.994,247.002c4.004,0,12.998-10.996,19.004-25
			c5.996-14.004,17.002-24.004,23.994-20.996c6.006,1.992,18.105,2.529,27.129-10.254c13.008-18.418,33.877-45.752,24.873-25.752
			c-22.998,52.998-112.998,154.004-93.994,107.002c2.998-10,1.992-12.998-5-10c-26.006,17.002-81.006-70.996-110-175.996
			c-30-108.008-41.006-118.008-34.004-31.006c7.002,85,10,102.002,25.996,151.006C6635,1272.997,6680,1337.997,6700,1344.999
			c40.996,12.998,102.998,20,182.002,20c102.002,0,115-7.998,180-117.998c27.998-47.002,43.994-64.004,48.994-55
			c4.004,7.002,5,15,0,17.998c-3.994,2.998-28.994,35.996-55,72.998c-26.992,37.002-61.992,75-80,84.004
			c-35.996,20-147.998,22.998-212.998,5.996c-55-13.994-47.998-2.998,17.002,27.002c44.004,20,52.998,22.002,60.996,10
			c6.006-10,12.002-10.996,17.002-5c11.006,15,74.004,35,111.006,35c30.996,0,132.998-49.004,145.996-70.996
			c4.004-5,10-7.002,14.004-4.004c5,2.002,1.992-25-5-62.002c-17.002-77.002-12.002-110,5-42.998c5.996,25,15.996,55,20.996,67.998
			c12.998,30,12.998,65,0,57.002c-20-12.998-9.004,7.998,32.002,55.996c37.002,44.004,42.998,48.008,50,32.002
			c5-10,5.996,7.002,2.002,37.002c-3.008,30-6.006,67.002-7.002,82.002c-1.006,13.994-4.004,25-5,22.998
			c-2.002-2.002-14.004,5.996-27.002,17.002c-20.996,17.998-22.002,22.002-9.004,45.996c8.008,15,14.004,34.004,14.004,42.002
			s-7.998,0-15.996-17.002c-16.006-32.002-34.004-35.996-34.004-7.998c0,7.998-4.004,17.002-10,20s-9.004-14.004-7.998-44.004
			c0.723-13.701,1.582-23.584,2.793-30.352c2.314,0.83,4.629,1.611,6.914,2.559c25.234,10.449,54.951-11.094,61.504-34.922
			c0.322-1.182,0.537-2.324,0.781-3.477c4.492-8.76,6.006-19.775,6.006-36.807c0-38.994-25.996-97.998-42.998-97.998
			c-4.004,0-5-4.004-2.002-10c2.998-5,2.002-10-4.004-10c-5,0-12.998-9.004-15.996-20c-9.004-27.998-25.996-25-55,7.998
			c-19.004,22.002-37.998,30-77.002,36.006l-52.002,6.992l30,62.002c16.006,34.004,29.004,77.998,29.004,97.002
			c0,20,10.996,69.004,25,110c12.998,40.996,25,82.002,25,92.002c0,8.994,17.998,72.002,39.004,140
			c21.992,67.002,47.998,152.002,58.994,187.998c10,35.996,24.004,64.004,30,62.998c14.004-2.998,16.006,14.004,2.998,19.004
			c-5,2.002,8.008,72.998,29.004,157.998c37.002,150.996,80.996,340,85.996,370c2.002,7.998,8.008,40,15,70.996
			c12.002,56.006,13.008,56.006,41.006,48.008c15-4.004,27.998-6.006,27.998-4.004c0,2.998,12.002,0,27.998-5.996
			c36.006-14.004,117.998-36.006,162.998-43.008c20-2.998,42.002-6.992,50-10c8.008-2.998,34.004-7.998,59.004-10.996
			c67.998-10,82.002-12.002,125.996-22.998c23.008-5,47.002-6.006,54.004-2.002s-19.004,12.998-57.002,19.004
			c-202.002,35.996-333.994,63.994-385.996,80.996c-31.006,10.996-64.004,20-72.998,20c-16.006,0-15,40,5.996,135
			c5,22.002,10.996,82.998,15,135c10,152.998,25,272.002,40.996,317.002c12.002,32.998,14.004,75.996,11.006,190.996
			c-2.998,82.998-1.006,155,2.998,162.002c5,9.004,17.998,5,47.002-14.004c73.994-48.994,147.998-68.994,257.998-70
			c112.002,0,132.998,3.008,197.998,33.008c51.006,22.998,117.002,75.996,117.002,93.994c0,6.006-15-2.998-32.002-20
			c-37.002-35-78.994-57.998-122.998-67.002c-15.996-2.998-40.996-8.994-55-11.992c-39.004-8.008-190.996-5-230,5
			c-19.004,5-42.002,10-50,11.992c-22.998,6.006-100,59.004-100,69.004c0,5-7.002,7.002-15,4.004c-12.002-5-15,3.994-14.004,51.992
			c1.006,48.008,2.002,53.008,8.008,28.008c10-42.002,18.994-54.004,38.994-54.004c10,0,27.002-7.002,39.004-15
			c60.996-42.002,213.994-57.002,310.996-29.004c86.006,25,224.004,103.008,182.998,104.004c-7.998,0-21.992-5.996-30-14.004
			c-27.998-23.994-87.998-55-122.998-60.996c-18.994-2.998-58.994,0.996-92.998,9.004c-32.998,8.994-100,15.996-152.998,15.996
			c-94.004,0-94.004,0-125,32.998c-47.002,50-84.004,116.006-117.998,209.004c-17.002,45.996-36.006,88.994-42.002,97.002
			c-10,11.992-9.004,12.998,7.998,6.992c10.996-5,27.998-10.996,37.998-12.998c9.004-2.998,17.002-8.994,17.002-12.998
			c0-9.004,100.996-32.002,160-35.996c65.996-5,170,30,227.002,75c72.002,56.992,125.996,116.992,130,142.998
			c2.998,20.996,0.996,20-16.006-7.002c-31.992-50.996-92.998-102.002-170.996-140.996c-72.998-37.002-77.998-38.008-180.996-39.004
			c-98.008,0-110,2.002-165,30c-52.002,27.002-63.008,37.998-90,90c-40,77.998-74.004,137.998-85,150
			c-17.002,17.002-9.004,25.996,11.992,14.004c77.002-41.006,253.008-60,281.006-30c10.996,10.996,7.998,11.992-17.002,6.992
			c-45-10-190,19.004-250.996,49.004c-39.004,19.004-70,45.996-109.004,94.004c-60.996,75.996-82.998,120-95,195
			c-4.004,27.998-10.996,65-15,80.996c-7.002,27.002-4.004,25.996,22.998-15c17.002-25,40-55,51.006-67.002
			c30-32.002,25.996-37.002-9.004-12.002c-15.996,13.008-32.998,19.004-37.002,15c-3.994-3.994,0-11.992,10-16.992
			c9.004-6.006,14.004-15,11.006-21.006c-4.004-5.996-2.002-7.998,3.994-3.994c6.006,2.998,41.006-23.008,77.998-59.004l67.002-65
			h109.004c67.002,0,107.002-4.004,102.998-10c-2.998-5,10.996-2.998,32.002,4.004c22.998,7.998,37.998,20,37.002,28.994
			c-1.006,7.998,3.994,12.998,10,11.006c6.992-3.008,60,30.996,117.998,75.996c108.994,82.002,138.994,110,120,110
			c-6.006,0-14.004-5-17.002-10c-4.004-5.996-10-7.998-15-5s-49.004-27.998-97.002-70c-47.998-40.996-93.994-75-102.998-75
			c-20-0.996-54.004-27.002-40.996-30.996c5.996-2.002-15-3.008-47.002-3.008c-31.006,1.006-82.998,2.002-114.004,3.008
			c-30.996,0-62.998,6.992-70,13.994c-7.002,6.006-20,12.998-27.998,15c-15.996,4.004-80,50-80,57.998c0,3.008,4.004,2.002,10-0.996
			c15.996-10,49.004-15,135-22.002c44.004-2.998,82.998-10.996,87.002-15.996c7.998-12.002,157.998,60,238.994,115.996
			c43.008,29.004,60,47.998,72.002,80c21.006,55,22.002,72.998,12.998,132.002c-7.998,47.998-7.998,49.004-20.996,25
			c-7.998-14.004-17.002-42.998-20-65c-17.002-105-24.004-114.004-115-174.004l-85-55.996l-112.998-2.998
			c-62.002-2.002-121.006,0-130,3.994c-9.004,4.004-20,8.008-24.004,8.008c-3.994,0.996-25.996,16.992-50,36.992
			c-55.996,47.002-130.996,172.002-133.994,222.002c-1.006,20-5,37.002-9.004,36.006c-12.998-1.006-107.002,193.994-107.002,220.996
			c0,14.004,12.002,60,26.006,104.004c30,90.996,31.992,102.998,10.996,85.996c-7.998-7.002-15-19.004-15-27.002
			c0-7.002-7.002-15.996-15-18.994c-7.998-4.004-15-13.008-15-21.006s-5-10.996-12.002-7.002c-7.002,4.004-7.998,3.008-3.994-5
			c3.994-5.996,2.998-42.998-4.004-82.998c-9.004-58.994-7.998-80,5.996-127.002c9.004-30.996,20-60.996,24.004-65.996
			c5-5.996,15-44.004,22.998-85c9.004-40.996,17.998-85,20-97.002c2.998-10.996,9.004-42.998,12.002-70
			c4.004-25.996,15.996-67.002,25.996-90c11.006-22.998,19.004-43.994,19.004-47.002c0-2.998,14.004-25.996,32.002-50
			c23.994-35,28.994-47.998,20-58.994c-9.004-11.006-7.002-17.002,12.998-27.002c30-15.996,197.998-270,177.998-270
			c-2.998,0,5-12.002,19.004-27.002c25.996-27.998,77.998-130.996,117.998-232.998c17.998-45,35.996-172.002,30-215
			c0-5-2.002-104.004-4.004-220c-1.992-115-5.996-220.996-10-235c-2.998-12.998-7.998-54.004-11.992-89.004
			c-3.008-35.996-7.002-67.998-9.004-71.992c-2.998-3.008-7.002-32.002-9.004-64.004c-5-57.998-15-117.998-40.996-255
			c-7.998-40.996-17.002-94.004-20-117.002s-12.002-65-20-95c-15.996-57.002-22.002-82.998-62.002-252.998
			c-25-107.002-35-144.004-105.996-390c-19.004-65.996-51.006-177.998-72.002-250c-20-70.996-42.998-147.998-50.996-170
			c-8.008-22.998-14.004-64.004-14.004-94.004c0-45-4.004-56.992-30-81.992c-20.996-22.002-35.996-29.004-50-24.004
			c-14.004,4.004-20,2.002-17.998-5.996c2.002-8.008-16.006-18.008-45-26.006c-56.006-13.994-94.004-35.996-122.002-72.002
			c-10.996-13.994-37.002-43.994-57.998-65.996c-62.002-64.004-90-135-94.004-232.002c-0.996-48.994,2.998-100.996,11.006-127.998
			c7.998-25,10.996-47.002,6.992-50c-20-12.002,5-229.004,38.008-332.998c10-31.006,20.996-70,25-87.002
			c3.994-15.996,15-40,23.994-52.998c25-32.998,39.922-17.832,57.002,30.996c7.705,22.031,15.996,57.002,27.002,74.004
			c17.998,30.996,22.002,32.002,68.994,27.998c29.004-2.002,90,5,141.006,15.996c50.996,10,95,19.004,100,19.004
			c13.994,0,55.996,75.996,72.998,130.996c9.004,30,19.004,61.006,22.002,69.004c2.002,7.998,5,17.002,5,20
			c2.002,25,107.002,125,137.998,132.002c7.998,2.002,17.998,7.002,20.996,10.996c3.008,5,28.008,10,55,12.998
			c36.006,4.004,58.008,0,84.004-13.994c30.996-17.002,35-25,45.996-82.998c6.006-35,14.004-89.004,18.008-119.004
			c2.998-30,5.996-55,5.996-55.996c0,0,24.004-26.006,52.998-57.002c62.998-67.998,141.006-115,197.998-119.004l42.002-2.998
			l17.998-62.998c23.008-82.998,45-117.998,64.004-102.002c17.998,15,82.998,132.002,90.996,165c3.008,12.998,21.006,34.004,40,45
			C8057.001,605.996,8145,747.998,8155,805c12.998,77.998,15,329.004,2.002,337.002c-9.004,5-7.998,15.996,0.996,42.002
			c7.002,20,10,40.996,6.006,47.998c-4.004,5.996-8.008,35-10,65c-2.002,28.994-12.002,73.994-24.004,98.994
			c-10.996,26.006-20,53.008-20,60c0,8.008-4.004,15-10,15c-5,1.006-14.004,3.008-20,4.004c-5,0.996-14.004,2.998-17.998,4.004
			c-5,0-19.004,10-31.006,20c-20,17.998-21.992,26.992-20,152.998c1.006,105-3.994,152.998-20.996,227.998
			c-25.996,115-22.998,222.998,15.996,480c14.004,90.996,27.002,182.998,29.004,205c0.996,22.002,7.002,62.998,10.996,90
			c9.004,55.996,8.008,50,17.002,90c4.004,17.002,9.004,45.996,11.006,65c3.994,30,40.996,237.002,60,335
			c3.994,17.002,12.998,67.998,20,115c7.998,47.002,21.992,114.004,30.996,150c10,35.996,19.003,82.998,20.996,105
			c3.008,40.996,77.002,304.004,96.006,342.002C8314.999,3882.997,8307.001,3917.997,8274.999,3982.001z M7625,5637.997
			c-14.004,2.002-22.002,7.998-19.004,12.998c4.004,8.008,44.004-5.996,44.004-15C7650,5634.003,7639.003,5634.999,7625,5637.997z
			 M7660,3915.995c40.996-2.998,87.998-7.998,105-10.996c60.996-12.998,37.002-17.998-59.004-12.002
			c-55,2.998-103.994,11.006-110,17.002C7587.998,3919.003,7602.998,3920.995,7660,3915.995z M7464.003,3959.999
			c1.992,0,8.994-7.002,15.996-15c7.002-9.004,7.998-15,2.002-15c-5,0-12.002,7.002-16.006,15
			C7462.998,3952.997,7462.001,3959.999,7464.003,3959.999z M8082.001,1342.997c18.994,7.998,20,7.998,13.994-2.002
			c-2.998-5-1.992-36.992,2.002-70c5-33.994,5-57.998,1.006-53.994c-4.004,3.994-10,30-14.004,57.002
			c-2.998,26.992-7.998,51.992-10,55.996C8072.001,1334.999,8075.996,1340.995,8082.001,1342.997z M8070,1389.999
			c5-7.998,10-22.002,10-30c0-12.998-0.996-12.998-10,0c-5,7.998-10,22.002-10,30C8060,1402.997,8060.996,1402.997,8070,1389.999z"
			/>
		<path d="M4260,4764.999c0-5.996,5-15.996,10.996-22.002c5-5,18.008-25,27.002-43.994c10-19.004,22.998-33.008,31.006-31.006
			c6.992,1.006,10-2.002,6.992-7.002c-7.998-11.992,73.008-85,121.006-108.994c48.994-25,150-55,165.996-49.004
			c6.006,2.002-0.996,7.998-17.998,12.002c-40.996,10.996-185,80.996-210.996,102.998c-11.006,9.004-29.004,30-39.004,45
			c-10,17.002-24.004,26.006-32.002,22.998c-7.998-2.998-10.996-1.992-7.998,4.004c2.998,5-0.996,17.002-10,27.002
			c-7.998,10-20.996,27.002-29.004,37.998C4267.001,4765.995,4260,4769.999,4260,4764.999z"/>
		<path d="M7874.003,4740.995c-10-16.992-22.002-30.996-27.002-30.996s-7.002-7.002-4.004-14.004c4.004-10,1.006-12.998-7.002-10
			c-6.992,3.008-20.996-7.998-30.996-22.998s-27.998-35.996-39.004-45c-25.996-22.002-170-92.002-210.996-102.998
			c-15.996-4.004-24.004-10-17.998-12.002c15.996-5.996,117.002,24.004,165.996,49.004
			c47.998,23.994,129.004,97.002,121.006,108.994c-3.008,5,0,8.008,6.992,7.002c8.008-2.002,21.006,12.002,30,29.004
			c9.004,17.998,22.002,40,29.004,47.998c7.002,9.004,10,17.998,7.002,20.996
			C7894.003,4769.003,7884.003,4757.997,7874.003,4740.995z"/>
		<path d="M5137.001,4702.997c-4.004-2.998-7.002-10.996-7.002-17.002c0-5.996,5-5,12.002,2.002
			c5.996,6.006,8.994,14.004,7.002,17.002C5145.996,4707.997,5140,4707.001,5137.001,4702.997z"/>
		<path d="M7010,4700.995c0-5,5-12.998,10-15.996c5.996-2.998,10-2.002,10,4.004c0,5-4.004,12.998-10,15.996
			C7015,4707.997,7010,4707.001,7010,4700.995z"/>
		<path d="M4662.998,3490.995c-57.998-47.998-127.998-65-245-57.998c-57.002,4.004-145.996,15-197.998,26.006
			c-52.002,10.996-96.001,17.998-98.999,15.996c-8.003-7.998,2.998-12.998,41.001-19.004c20-2.998,68.994-13.994,110-25
			c102.998-27.998,180-33.994,245-20.996c57.998,12.998,133.994,49.004,167.002,80.996
			C4715,3519.999,4697.998,3520.995,4662.998,3490.995z"/>
		<path d="M7460,3512.001c0-26.006,107.002-86.006,182.998-102.002c65-12.998,142.002-7.002,245,20.996
			c41.006,11.006,90,22.002,110,25c37.998,6.006,49.004,11.006,41.006,19.004c-3.008,2.002-47.002-5-99.004-15.996
			c-52.002-11.006-142.998-22.002-200.996-26.006c-120-7.002-174.004,6.006-241.006,59.004
			C7477.001,3507.997,7460,3517.001,7460,3512.001z"/>
		<path d="M4752.998,2224.999c-50-5-95-14.004-98.994-17.998c-7.002-7.002,47.998-4.004,155.996,7.998
			c19.004,2.998,52.002,5.996,72.998,7.998c21.006,2.002,41.006,7.002,44.004,11.006
			C4935,2242.001,4872.001,2239.003,4752.998,2224.999z"/>
		<path d="M7234.003,2232.001c3.994-6.006,18.994-11.006,33.994-10c15,0,47.002-2.002,72.002-5
			c114.004-14.004,170.996-17.002,165.996-9.004c-2.998,5-35.996,12.002-72.998,16.006
			C7244.003,2242.001,7227.001,2242.001,7234.003,2232.001z"/>
		<path d="M4317.998,2192.997c-32.002-2.002-57.998-7.998-57.998-12.002c0-15.996,159.004-27.998,194.004-15
			c27.998,11.006,16.992,20-19.004,16.006c-20.996-2.998-35,0-35,7.002c0,5.996-5.996,10-12.002,8.994
			C4380.996,2197.001,4349.003,2194.999,4317.998,2192.997z"/>
		<path d="M7760,2187.997c0-5.996-15.996-7.998-35-5.996c-40.996,5-47.002-9.004-9.004-17.998
			c27.002-7.002,173.008,1.992,182.002,10.996c10,9.004-2.998,12.002-70,17.998C7785.996,2195.995,7760,2194.003,7760,2187.997z"/>
		<path d="M4865,1834.999c-30-12.002-150-12.998-232.002-2.002l-49.443,6.865c22.52-6.035,43.989-14.766,64.59-26.152
			c23.857-2.793,50.786-6.123,62.852-8.711c34.004-7.998,149.004,10.996,163.008,25.996
			C4882.001,1839.999,4880,1840.995,4865,1834.999z"/>
		<path d="M7561.748,1837.685l-33.75-4.688c-82.002-10.996-202.998-10-232.998,2.002c-14.971,5.986-16.992,5-9.043-3.955
			c23.164-26.113,101.396-26.104,134.775-27.051c54.736-1.553,110.234,5.225,162.607,21.475c0.098,0.02,7.627-12.422,8.633-13.623
			c6.23,1.064,8.428,4.014,13.662,7.539c1.27,4.063,2.461,7.207,3.594,9.824C7592.841,1829.55,7576.865,1832.226,7561.748,1837.685z
			"/>
		<path d="M5020,1907.997c-32.998-17.002-34.004-17.998-9.004-17.998c15,0,32.002,7.002,39.004,15
			C5069.003,1927.001,5060,1927.997,5020,1907.997z"/>
		<path d="M7100,1920.995c0-13.994,27.998-32.998,44.004-28.994c10.996,2.002,6.992,7.998-14.004,20
			C7112.998,1920.995,7100,1924.999,7100,1920.995z"/>
		<path d="M4495.996,1592.997c-2.998,37.998-6.992,71.006-10,75c-2.998,2.998-5.996-2.002-5.996-10.996
			c0-3.76-1.084-7.119-2.739-9.668c9.077-24.033,0.806-55.293-24.819-66.006l-3.438-14.326l-11.67,10.732
			c-1.577-0.127-3.169-0.234-4.834-0.234c-23.569,0-38.486,13.379-44.824,30.332c-0.874,0.664-1.768,1.367-2.676,2.168
			c-12.002,10-15,10-15-2.002c0-20.996,80.996-70,95.996-57.002c9.004,7.002,15,5,23.008-7.998
			C4497.001,1529.003,4499.003,1542.001,4495.996,1592.997z"/>
		<path d="M7770,1607.001c-5.557-0.4-11.738-2.256-17.744-4.922c-5.654-10.83-15.264-19.453-28.838-22.9
			c-8.037-9.473-10.879-9.795-16.26-1.543c-47.412,2.266-57.764,60.186-31.016,86.758c1.172,7.412-3.145,8.359-9.141-1.396
			c-6.006-8.994-10-77.002-7.998-112.998c0.996-17.002,3.994-20.996,10-12.002c3.994,7.002,11.992,12.002,16.992,11.006
			c23.008-4.004,42.002,3.994,74.004,30.996C7792.998,1607.997,7794.003,1609.999,7770,1607.001z"/>
		<path d="M5009.638,1227.167c1.289,4.834,2.417,9.219,3.477,13.389c-4.697-2.383-9.858-3.779-15.215-4.307
			c-4.731-16.68-8.667-37.236-14.512-70.332c0-17.998-16.504-83.75-22.5-83.75c-10,0-3.252,114.004,8.75,157.998
			c0.088,0.361,0.142,0.596,0.229,0.947c-1.841,0.82-3.638,1.748-5.391,2.764c-1.157-1.992-2.397-4.16-3.843-6.709
			c-15-25.996-23.564-77.217-35-164.004c1.006-17.998,2.002-17.998,9.004,4.004c7.002,22.998,7.998,22.998,9.004,4.004
			c0.996-12.002,7.998-24.004,15.996-28.008c7.998-2.998,15-12.998,15-21.992c0-10,2.998-14.004,7.002-10
			c3.994,2.998-3.75,22.246-0.752,62.246C4982.89,1122.421,5002.636,1197.167,5009.638,1227.167z"/>
		<path d="M7189.677,1236.337c10.996-45.996,13.164-89.746,9.17-113.75c-4.004-26.992-15.254-51.826-7.246-46.826
			c7.998,5,10-2.002,5.996-24.004c-4.004-20-2.002-29.004,5-25c22.002,12.998,4.004,220.996-22.002,252.998
			C7158.593,1305.761,7171.679,1305.341,7189.677,1236.337z"/>
		<path d="M7378.427,1258.837c-0.313-6.963,5.879-35.234,5-44.16c-1.885-19.277-18.359-17.227-20.41-8.34
			c-2.998,10.996-7.422,65.42-12.422,70.42c-7.998,7.002-8.994,4.004-3.994-7.998c2.998-10,5.996-42.002,6.992-70
			c0-41.006,2.002-47.002,9.004-29.004c5,12.002,14.004,22.002,20,22.002c5,0,14.277,22.334,10,50
			C7384.267,1295.644,7356.767,1305.087,7378.427,1258.837z"/>
		<path d="M4827.495,1270.917c-0.815,1.025-1.597,2.119-2.358,3.252c-0.898-1.064-2.036-2.422-3.496-4.004
			c-11.006-10-7.998-95.996,2.998-112.998c7.002-10.996,0.049,9.619,0.049,57.617
			C4824.687,1246.21,4826.64,1263.075,4827.495,1270.917z"/>
		<path d="M4896.591,1261.181c-1.685-0.732-3.369-1.484-5.049-2.197c-0.264-0.117-0.542-0.176-0.811-0.283
			c-4.712-4.99-10.352-16.299-15.098-30.537c-5.996-20.996-10-57.998-10-81.992c1.006-40,2.002-38.008,11.006,20.996
			c5,35,12.998,69.004,18.994,75.996c6.006,7.002,6.006,15,1.006,18.008C4896.625,1261.181,4896.606,1261.171,4896.591,1261.181z"/>
		<path d="M7283.33,1273.886c-0.371,0.059-0.732,0.098-1.094,0.156l6.357-27.285c4.004-15.996,22.666-45,25.674-75
			c5-44.004-4.668-60,2.334-42.002c10,27.998,0,89.004-20,122.002L7283.33,1273.886z"/>
		<path d="M7212.597,1235.761c5.996-14.004,22.363-56.758,22.363-97.754c0-43.008-8.359-76.25-2.363-76.25
			s10.996,12.002,10.996,27.998l1.006,27.002l7.998-30l7.998-30l1.006,32.998c0,17.002-3.008,32.002-9.004,32.002
			c-5,0-10,14.004-10,30.996c0,39.004-20,109.004-30.996,109.004C7206.601,1261.757,7207.597,1249.755,7212.597,1235.761z"/>
		<path d="M4168.999,1189.999c-31.001-15.996-58.999-27.002-61.001-24.004c-2.998,3.008-7.998-1.992-10.996-10.996
			c-4.004-7.998-4.004-15-1.001-15c11.001,0,133.999,62.998,139.995,70.996C4245,1227.001,4227.001,1220.995,4168.999,1189.999z"/>
		<path d="M4254.003,1197.001c-6.006-12.002-26.006-51.006-45.005-87.002c-45-82.998-62.998-132.998-46.997-127.998
			c6.997,2.998,22.998,23.994,35.996,48.994C4252.001,1130,4285,1180,4297.001,1180c7.002,0,22.002-9.004,32.998-20
			s42.813-46.25,53.125-65.313c12.368-22.861,8.877,40.313-38.125,84.316C4295,1224.999,4270,1229.999,4254.003,1197.001z"/>
		<path d="M7815,1179.003c-47.002-44.004-69.063-114.941-49.063-84.629c4.414,6.68,53.066,54.629,64.063,65.625s25.996,20,32.998,20
			c12.002,0,45-50,99.004-149.004c12.998-25,26.602-48.34,28.623-55.684c6.631-24.063,5.371,51.689-39.629,134.688
			c-18.994,35.996-38.994,75-45,87.002C7890,1229.999,7865,1224.999,7815,1179.003z"/>
		<path d="M7924.003,1210.995c5.996-7.998,128.994-70.996,140-70.996c2.998,0,2.998,7.002-1.006,15
			c-2.998,9.004-7.998,14.004-10.996,10.996c-2.002-2.998-30,8.008-61.006,24.004
			C7932.998,1220.995,7915,1227.001,7924.003,1210.995z"/>
		<path d="M4505.996,1184.003c-16.992-12.002-16.992-14.004-3.994-14.004c8.994,0,20,5,22.998,10.996
			C4535.996,1197.997,4527.001,1199.003,4505.996,1184.003z"/>
		<path d="M7630,1189.999c0-5.996,7.002-12.998,15-17.002c24.004-8.994,27.002,1.006,5,15
			C7637.001,1195.995,7630,1195.995,7630,1189.999z"/>
		<path d="M5445,1087.998c42.559-89.336,85.469-300.664,91.465-294.668c5,5-31.465,164.668-56.465,225.674
			c-10.996,28.994-20,60.996-20,70.996c0,10.996-5,20-10.996,20C5442.998,1110,5440.996,1100.996,5445,1087.998z"/>
		<path d="M6667.001,1002.998c-19.004-60-37.998-125.996-41.006-147.998c-5-35.996-3.994-35,13.008,15
			c37.998,107.002,73.994,230.996,68.994,235.996C6705,1107.998,6687.001,1062.001,6667.001,1002.998z"/>
		<path d="M4262.001,975c-6.006-62.002-16.006-125-22.002-140c-12.002-30,7.998-312.168,20-349.17
			c5-15-12.002,113.174-12.002,184.17c1.006,64.004,7.998,157.998,16.006,210c15.996,99.004,22.998,195.996,15,204.004
			C4275.996,1087.001,4269.003,1037.998,4262.001,975z"/>
		<path d="M7870,1049.003c0-24.004,10-102.002,20.996-173.008c15-93.994,20-156.992,17.002-223.994c-3.994-66.006-2.002-90,5-82.998
			C7929.003,585,7925,770.996,7905.996,880c-8.994,52.002-15.996,117.998-15.996,147.002c0,27.998-4.004,55-10,57.998
			C7874.003,1089.003,7870,1074.003,7870,1049.003z"/>
	</g>
</g>
</svg>
