<?xml version="1.0" standalone="no"?>
<!DOCTYPE svg PUBLIC "-//W3C//DTD SVG 20010904//EN"
 "http://www.w3.org/TR/2001/REC-SVG-20010904/DTD/svg10.dtd">
<svg version="1.0" xmlns="http://www.w3.org/2000/svg"
 width="1200.000000pt" height="1600.000000pt" viewBox="0 0 1200.000000 1600.000000"
 preserveAspectRatio="xMidYMid meet">

<g transform="translate(0.000000,1600.000000) scale(0.100000,-0.100000)"
fill="#000000" stroke="none">
<path d="M4489 5621 c-18 -18 -29 -24 -29 -15 0 15 -16 19 -24 5 -3 -4 -17 -7
-30 -6 -19 2 -38 -11 -83 -58 -31 -34 -56 -66 -55 -70 1 -5 -2 -6 -7 -3 -12 8
-143 -139 -205 -228 -42 -61 -46 -70 -31 -79 11 -6 14 -12 7 -16 -6 -4 -12
-39 -13 -78 -1 -40 -5 -71 -9 -70 -5 1 -8 -2 -8 -8 0 -5 4 -9 9 -8 4 2 6 -4 3
-12 -4 -8 -9 -15 -13 -15 -21 0 -4 -194 24 -278 22 -64 24 -261 3 -332 -9 -30
-19 -71 -22 -91 -4 -20 -21 -58 -38 -84 -24 -37 -34 -65 -39 -114 -4 -36 -17
-86 -28 -111 -19 -44 -19 -48 -4 -95 25 -78 46 -129 59 -145 15 -19 12 -66 -3
-63 -9 2 -8 -11 2 -45 8 -26 15 -59 15 -74 0 -15 11 -72 25 -125 14 -54 28
-114 30 -133 3 -19 12 -61 20 -93 8 -32 15 -84 15 -115 0 -86 27 -223 50 -254
12 -16 16 -29 10 -33 -6 -4 -4 -14 4 -28 13 -20 24 -90 43 -277 4 -41 7 -82 5
-90 -1 -8 7 -87 18 -175 23 -193 29 -361 12 -358 -15 4 -15 -12 0 -36 9 -15 9
-23 -1 -35 -7 -9 -17 -13 -22 -10 -11 7 -12 3 -9 -138 l2 -118 -33 -17 c-51
-27 -97 -79 -109 -122 -21 -79 -23 -150 -6 -195 12 -32 14 -50 7 -69 -17 -45
-24 -169 -12 -231 24 -128 113 -253 210 -295 51 -21 66 -23 168 -21 57 1 68 6
121 44 72 53 118 120 126 184 18 129 30 182 42 182 8 0 11 6 7 16 -5 14 5 15
83 13 88 -2 125 -9 121 -20 -3 -7 29 -39 40 -39 4 0 19 -9 33 -20 17 -13 20
-20 10 -20 -10 0 -6 -8 12 -23 17 -13 33 -43 43 -77 37 -127 82 -178 175 -199
83 -19 114 -14 178 29 75 49 133 116 175 200 31 62 32 69 31 180 -1 77 -7 130
-17 160 -10 27 -12 46 -7 48 17 6 11 19 -27 64 -21 24 -50 58 -65 76 -14 17
-32 33 -39 34 -8 2 -35 17 -61 34 -26 17 -64 35 -85 39 -23 4 -52 20 -74 41
-33 32 -36 40 -38 100 -1 35 -9 80 -17 99 -7 19 -25 76 -38 127 -47 177 -75
275 -101 349 -14 41 -35 117 -46 169 -12 52 -24 97 -28 100 -3 3 -7 14 -7 25
-6 68 -58 269 -76 292 -6 7 -10 32 -9 55 0 24 -5 72 -13 108 -22 100 -57 325
-102 650 -20 150 -34 406 -23 444 5 16 22 43 38 60 18 20 31 47 35 74 15 98
76 232 146 322 15 19 51 75 80 124 30 49 66 96 81 104 29 17 66 77 61 100 -2
7 2 20 9 28 6 7 9 20 6 28 -3 7 1 32 8 54 8 22 15 58 17 81 1 23 8 47 15 53 7
6 13 21 13 34 0 14 4 32 9 42 5 9 21 46 35 82 35 87 35 207 0 200 -5 -1 -7 12
-6 30 3 27 -3 39 -42 76 -26 24 -50 43 -54 42 -4 -1 -17 3 -29 10 -12 6 -50
16 -85 21 -35 6 -79 15 -98 21 -34 11 -327 40 -403 40 -29 0 -46 -7 -68 -29z"/>
<path d="M7370 5635 c-80 -7 -167 -20 -195 -28 -27 -8 -77 -18 -109 -22 -101
-12 -193 -88 -183 -152 4 -20 2 -32 -5 -30 -16 3 -31 -62 -25 -106 3 -21 18
-64 33 -95 15 -31 31 -65 36 -74 4 -10 8 -28 8 -41 0 -13 6 -29 12 -35 7 -7
11 -28 9 -48 -2 -33 19 -124 41 -171 6 -11 8 -25 5 -30 -7 -12 36 -81 62 -99
11 -8 33 -36 48 -62 15 -26 30 -49 33 -52 11 -10 127 -186 148 -225 31 -58 58
-132 71 -197 7 -31 21 -68 32 -82 40 -51 47 -85 44 -226 -2 -74 -8 -162 -14
-195 -6 -33 -13 -89 -16 -125 -4 -36 -13 -112 -21 -170 -9 -58 -19 -136 -24
-175 -8 -72 -21 -150 -46 -265 -8 -36 -13 -84 -13 -108 1 -23 -3 -48 -9 -55
-18 -23 -70 -224 -76 -292 0 -11 -4 -22 -7 -25 -4 -3 -16 -48 -28 -100 -11
-52 -32 -128 -46 -169 -26 -74 -54 -172 -101 -349 -13 -51 -31 -109 -39 -129
-8 -19 -15 -60 -15 -89 0 -48 -4 -58 -36 -94 -26 -28 -52 -45 -88 -55 -28 -9
-70 -28 -94 -45 -24 -16 -46 -30 -50 -32 -20 -9 -132 -152 -128 -163 2 -7 -2
-32 -10 -56 -15 -43 -20 -161 -11 -255 9 -100 101 -226 211 -290 58 -34 64
-36 126 -30 115 10 180 73 229 221 7 22 25 50 39 62 18 15 22 23 12 23 -10 0
-7 7 10 20 14 11 29 20 33 20 11 0 41 30 31 30 -5 0 -3 5 4 12 14 14 191 21
211 9 13 -9 34 -95 46 -193 8 -71 49 -135 119 -188 43 -32 62 -39 121 -46 39
-4 81 -6 95 -5 87 10 199 103 246 205 40 88 48 155 34 282 -10 83 -10 115 -1
131 23 44 6 180 -30 240 -11 17 -40 44 -65 60 l-45 28 1 120 c2 145 2 148 -9
141 -5 -3 -15 1 -22 10 -10 12 -10 20 -1 35 15 24 15 40 0 36 -17 -3 -11 165
12 358 11 88 19 167 18 175 -2 8 1 49 5 90 19 186 30 256 42 276 11 16 11 24
2 33 -9 10 -8 15 6 26 10 7 18 17 18 22 0 4 4 24 9 43 8 34 16 93 24 195 3 28
12 77 20 110 9 33 18 76 21 95 2 19 16 79 30 133 14 53 25 112 25 130 0 18 5
48 10 67 7 23 7 36 0 38 -12 4 -13 59 -1 66 4 3 17 32 28 63 44 126 44 123 23
198 -11 38 -20 88 -20 110 0 29 -10 56 -35 95 -19 30 -38 70 -41 90 -3 19 -12
58 -20 85 -8 28 -17 91 -20 140 -6 88 -2 116 37 255 12 46 20 220 9 220 -4 0
-10 7 -14 15 -3 8 -1 14 3 12 5 -1 9 3 9 8 0 6 -3 9 -8 8 -4 -1 -8 30 -9 70
-1 39 -7 74 -13 78 -7 4 -4 10 7 16 15 9 11 18 -31 79 -53 77 -194 238 -201
230 -7 -6 -22 9 -52 52 -12 18 -26 30 -31 27 -5 -3 -14 3 -19 14 -13 24 -91
66 -91 48 0 -6 -7 -3 -15 7 -14 18 -15 18 -15 2 0 -16 -2 -16 -26 3 -31 24
-62 25 -284 6z"/>
<path d="M7401 3844 c0 -11 3 -14 6 -6 3 7 2 16 -1 19 -3 4 -6 -2 -5 -13z"/>
</g>
</svg>
