<svg width="2400" height="3200" xmlns="http://www.w3.org/2000/svg" viewBox="0 0 2400 3200"><path d="M 1215.0 925.91 C 1206.99 925.91 1201.13 925.42 1198.68 924.55 C 1196.58 923.8 1194.01 922.42 1192.97 921.47 C 1191.93 920.53 1188.94 919.36 1186.32 918.87 C 1183.71 918.38 1179.86 917.09 1177.76 915.99 C 1175.66 914.9 1172.71 914.02 1171.22 914.04 C 1169.72 914.06 1164.45 914.97 1159.5 916.06 C 1154.55 917.14 1146.22 918.73 1141.0 919.57 C 1135.78 920.42 1126.33 921.13 1120.0 921.16 C 1113.6 921.18 1104.07 920.45 1098.5 919.51 C 1093.0 918.59 1087.38 917.11 1086.0 916.23 C 1084.62 915.35 1082.83 913.96 1082.0 913.14 C 1081.01 912.15 1080.5 909.67 1080.5 905.86 C 1080.5 901.26 1080.91 899.78 1082.5 898.57 C 1083.6 897.74 1085.4 897.04 1086.5 897.02 C 1087.6 896.99 1090.3 895.87 1092.5 894.52 C 1094.7 893.17 1098.3 891.17 1100.5 890.07 C 1102.7 888.97 1109.9 886.19 1116.5 883.89 C 1123.1 881.58 1134.35 876.77 1141.5 873.2 C 1148.65 869.62 1156.31 865.47 1158.52 863.96 C 1161.91 861.65 1162.88 860.15 1164.77 854.29 C 1166.0 850.48 1167.0 844.9 1167.0 841.89 C 1167.0 838.88 1166.28 833.74 1165.41 830.46 C 1164.54 827.18 1163.47 820.0 1163.05 814.5 C 1162.63 809.0 1161.68 803.06 1160.94 801.3 C 1159.88 798.77 1159.82 796.33 1160.64 789.69 C 1161.32 784.17 1162.71 779.08 1164.68 774.89 C 1166.32 771.37 1169.66 766.46 1172.09 763.97 C 1174.95 761.03 1179.85 757.79 1186.0 754.77 C 1191.23 752.21 1197.75 749.79 1200.5 749.4 C 1203.25 749.0 1209.78 748.69 1215.0 748.71 C 1220.22 748.72 1226.75 749.06 1229.5 749.45 C 1232.25 749.84 1238.71 752.24 1243.85 754.79 C 1249.72 757.69 1254.88 761.1 1257.7 763.95 C 1260.17 766.45 1263.05 770.17 1264.09 772.2 C 1265.14 774.24 1266.63 777.84 1267.42 780.2 C 1268.2 782.57 1269.16 787.56 1269.54 791.29 C 1270.06 796.32 1269.85 799.17 1268.71 802.29 C 1267.87 804.61 1266.92 810.55 1266.6 815.5 C 1266.27 820.45 1265.33 826.96 1264.5 829.97 C 1263.68 832.98 1263.0 838.1 1263.0 841.36 C 1263.0 844.62 1263.92 850.36 1265.04 854.12 C 1266.81 860.06 1267.62 861.33 1271.29 863.83 C 1273.6 865.41 1281.8 869.85 1289.5 873.7 C 1297.2 877.55 1309.23 882.63 1316.23 884.98 C 1323.24 887.33 1331.34 890.79 1334.23 892.66 C 1337.13 894.54 1340.62 896.31 1342.0 896.61 C 1343.38 896.91 1345.49 897.64 1346.71 898.23 C 1348.28 898.98 1349.11 900.54 1349.56 903.54 C 1350.0 906.49 1349.7 908.82 1348.58 911.19 C 1347.69 913.06 1345.74 915.31 1344.23 916.19 C 1342.73 917.07 1337.0 918.56 1331.5 919.49 C 1326.0 920.43 1316.49 921.19 1310.36 921.18 C 1304.23 921.18 1295.68 920.66 1291.36 920.04 C 1287.04 919.42 1278.45 917.8 1272.29 916.45 C 1266.12 915.1 1259.95 914.0 1258.57 914.0 C 1257.19 914.0 1254.34 914.9 1252.24 915.99 C 1250.14 917.09 1246.29 918.38 1243.68 918.87 C 1241.06 919.36 1238.07 920.53 1237.03 921.47 C 1235.99 922.42 1233.42 923.8 1231.32 924.55 C 1228.87 925.42 1223.01 925.91 1215.0 925.91 Z " opacity="1.0" fill="#000000" stroke="none" fill-rule="evenodd"/></svg>