<svg width="2400" height="3200" xmlns="http://www.w3.org/2000/svg" viewBox="0 0 2400 3200"><path d="M 1208.5 922.77 C 1207.95 922.73 1206.15 922.51 1204.5 922.27 C 1202.85 922.04 1201.07 921.43 1200.55 920.92 C 1199.96 920.35 1200.34 920.02 1201.55 920.05 C 1202.62 920.07 1204.85 920.71 1206.5 921.46 C 1208.15 922.22 1209.05 922.81 1208.5 922.77 Z M 1225.31 922.09 C 1224.6 922.8 1224.01 922.83 1223.6 922.17 C 1223.26 921.62 1224.37 920.86 1226.06 920.49 C 1227.76 920.11 1229.41 920.08 1229.74 920.4 C 1230.07 920.73 1229.45 921.0 1228.37 921.0 C 1227.29 921.0 1225.91 921.49 1225.31 922.09 Z M 1117.57 919.85 C 1111.48 919.77 1105.15 919.51 1103.5 919.27 C 1101.85 919.04 1100.14 918.5 1099.7 918.07 C 1099.25 917.64 1104.65 917.01 1111.7 916.67 C 1118.74 916.33 1126.75 915.8 1129.5 915.49 C 1132.25 915.18 1137.88 914.47 1142.0 913.92 C 1146.12 913.37 1151.97 912.6 1155.0 912.21 C 1158.03 911.82 1164.1 911.52 1168.5 911.55 C 1173.2 911.59 1178.38 912.28 1181.07 913.23 C 1183.58 914.12 1187.31 915.84 1189.36 917.05 C 1191.41 918.26 1192.93 919.4 1192.75 919.58 C 1192.57 919.77 1189.52 919.02 1185.98 917.92 C 1182.44 916.82 1177.29 915.87 1174.52 915.81 C 1171.76 915.75 1165.0 915.94 1159.5 916.24 C 1154.0 916.53 1149.5 916.86 1149.5 916.97 C 1149.5 917.08 1147.25 917.37 1144.5 917.62 C 1141.75 917.88 1137.05 918.51 1134.07 919.04 C 1131.08 919.57 1123.65 919.93 1117.57 919.85 Z M 1197.36 920.0 C 1196.82 920.0 1195.51 919.3 1194.44 918.44 C 1192.61 916.98 1192.64 916.96 1195.0 918.08 C 1196.38 918.74 1197.69 919.43 1197.92 919.64 C 1198.15 919.84 1197.89 920.0 1197.36 920.0 Z M 1233.21 920.0 C 1232.36 920.0 1231.85 919.84 1232.08 919.64 C 1232.31 919.43 1233.62 918.69 1235.0 917.97 C 1237.29 916.78 1237.38 916.81 1236.13 918.34 C 1235.37 919.25 1234.06 920.0 1233.21 920.0 Z M 1244.25 917.83 C 1240.81 918.91 1238.01 919.5 1238.03 919.15 C 1238.04 918.79 1240.63 917.29 1243.78 915.82 C 1246.92 914.34 1251.27 912.59 1253.43 911.93 C 1255.95 911.16 1260.23 910.95 1265.43 911.35 C 1269.87 911.7 1275.3 912.25 1277.5 912.59 C 1279.7 912.93 1282.4 913.31 1283.5 913.44 C 1284.6 913.56 1288.65 914.02 1292.5 914.46 C 1296.35 914.89 1300.4 915.43 1301.5 915.64 C 1302.6 915.86 1309.57 916.28 1316.99 916.59 C 1324.42 916.9 1330.65 917.32 1330.85 917.52 C 1331.06 917.72 1329.71 918.31 1327.86 918.84 C 1326.01 919.36 1319.78 919.62 1314.0 919.42 C 1308.22 919.22 1300.35 918.83 1296.5 918.57 C 1292.65 918.31 1286.58 917.89 1283.0 917.64 C 1279.42 917.39 1276.5 917.11 1276.5 917.02 C 1276.5 916.94 1273.12 916.6 1269.0 916.27 C 1264.88 915.95 1259.03 915.72 1256.0 915.77 C 1252.97 915.82 1247.69 916.75 1244.25 917.83 Z M 1211.5 918.83 C 1210.4 918.81 1208.38 918.44 1207.0 918.0 L 1204.5 917.2 C 1208.38 917.15 1210.4 917.53 1211.5 918.0 L 1213.5 918.86 Z M 1224.0 917.84 C 1222.62 917.84 1222.06 917.62 1222.75 917.34 C 1223.44 917.06 1224.56 917.06 1225.25 917.34 C 1225.94 917.62 1225.38 917.84 1224.0 917.84 Z M 1200.56 916.0 C 1200.32 916.0 1199.8 915.48 1199.4 914.85 C 1198.96 914.13 1199.13 913.96 1199.85 914.4 C 1200.48 914.8 1201.0 915.32 1201.0 915.56 C 1201.0 915.8 1200.8 916.0 1200.56 916.0 Z M 1228.77 915.96 C 1228.07 915.93 1229.3 914.98 1231.5 913.84 C 1233.7 912.7 1236.36 911.03 1237.42 910.13 C 1238.48 909.23 1239.0 909.08 1238.59 909.79 C 1238.17 910.5 1236.08 912.19 1233.94 913.54 C 1231.79 914.89 1229.47 915.98 1228.77 915.96 Z M 1192.56 911.0 C 1192.32 911.0 1191.8 910.48 1191.4 909.85 C 1190.96 909.13 1191.13 908.96 1191.85 909.4 C 1192.48 909.8 1193.0 910.32 1193.0 910.56 C 1193.0 910.8 1192.8 911.0 1192.56 911.0 Z M 1081.67 905.97 C 1080.47 905.95 1078.66 905.45 1077.63 904.85 C 1076.12 903.98 1076.02 903.6 1077.13 902.9 C 1078.17 902.24 1078.03 902.03 1076.53 902.02 C 1074.56 902.0 1074.56 901.99 1076.53 900.08 C 1077.61 899.03 1082.62 895.67 1087.65 892.63 C 1092.68 889.58 1098.08 886.81 1099.65 886.47 C 1101.22 886.12 1103.4 885.47 1104.5 885.01 C 1105.6 884.55 1116.4 879.93 1128.5 874.73 C 1147.3 866.65 1151.2 864.59 1155.32 860.61 C 1157.97 858.05 1161.1 853.82 1162.28 851.23 C 1164.09 847.23 1164.39 844.81 1164.27 835.58 C 1164.18 829.57 1163.62 822.37 1163.01 819.58 C 1162.41 816.78 1161.4 812.7 1160.78 810.5 C 1160.16 808.3 1159.28 806.07 1158.83 805.55 C 1158.37 805.03 1158.0 802.95 1158.0 800.92 C 1158.0 798.87 1158.66 796.69 1159.5 796.0 C 1160.71 794.99 1161.0 795.03 1161.0 796.19 C 1161.0 796.98 1162.41 799.07 1164.14 800.83 C 1165.87 802.6 1167.53 803.81 1167.82 803.51 C 1168.12 803.21 1166.93 800.94 1165.18 798.46 C 1163.43 795.97 1162.0 793.5 1162.0 792.97 C 1162.0 792.44 1162.54 792.0 1163.2 792.0 C 1164.13 792.0 1164.13 791.73 1163.2 790.8 C 1162.54 790.14 1162.0 789.14 1162.0 788.58 C 1162.0 788.02 1162.73 788.6 1163.63 789.88 C 1164.75 791.49 1165.48 791.84 1165.99 791.02 C 1166.51 790.17 1166.9 790.3 1167.35 791.47 C 1167.72 792.42 1167.57 792.85 1166.99 792.49 C 1166.44 792.16 1165.99 792.47 1165.98 793.19 C 1165.97 794.14 1165.7 794.09 1165.0 793.0 C 1164.32 791.95 1164.03 791.88 1164.02 792.78 C 1164.01 793.49 1165.01 794.44 1166.25 794.91 C 1167.58 795.4 1168.75 795.36 1169.11 794.79 C 1169.45 794.26 1170.0 794.57 1170.35 795.47 C 1170.69 796.37 1170.58 796.86 1170.09 796.56 C 1169.61 796.26 1168.94 796.72 1168.6 797.6 C 1168.27 798.47 1168.89 800.45 1170.0 802.0 C 1171.1 803.54 1172.0 805.25 1172.0 805.78 C 1172.0 806.32 1172.84 807.37 1173.87 808.13 C 1174.9 808.88 1178.16 811.46 1181.12 813.85 C 1184.08 816.24 1188.08 819.62 1190.0 821.36 C 1191.92 823.1 1195.52 826.09 1198.0 828.01 C 1200.47 829.93 1203.59 832.4 1204.94 833.5 C 1206.29 834.6 1212.35 840.34 1218.42 846.25 C 1224.5 852.16 1229.09 857.0 1228.63 857.0 C 1228.17 857.0 1225.03 854.36 1221.65 851.13 C 1218.27 847.9 1214.31 844.18 1212.85 842.88 C 1211.39 841.57 1208.65 839.15 1206.77 837.5 C 1204.88 835.85 1201.37 832.92 1198.97 831.0 C 1196.57 829.08 1191.21 824.66 1187.06 821.19 C 1182.9 817.71 1178.38 813.86 1177.0 812.62 C 1175.62 811.39 1173.87 809.99 1173.09 809.53 C 1171.97 808.86 1171.84 809.18 1172.42 811.09 C 1172.83 812.42 1173.11 815.16 1173.04 817.19 C 1172.98 819.22 1173.58 822.45 1174.38 824.37 C 1175.18 826.28 1178.68 830.53 1182.17 833.81 C 1185.65 837.09 1190.23 841.29 1192.35 843.14 C 1194.47 844.99 1198.75 848.92 1201.85 851.88 C 1204.96 854.84 1206.99 857.09 1206.37 856.88 C 1205.75 856.67 1201.96 853.58 1197.95 850.0 C 1193.93 846.42 1187.47 840.5 1183.58 836.84 C 1179.68 833.17 1176.35 830.32 1176.17 830.51 C 1175.98 830.69 1176.71 832.78 1177.79 835.17 C 1178.87 837.55 1180.68 840.46 1181.82 841.64 C 1182.95 842.82 1183.6 844.07 1183.26 844.41 C 1182.92 844.75 1184.16 846.6 1186.01 848.51 C 1187.87 850.43 1188.9 852.0 1188.31 852.0 C 1187.71 852.0 1184.7 849.52 1181.61 846.48 C 1178.52 843.44 1176.0 840.22 1176.0 839.31 C 1176.0 838.41 1175.73 837.94 1175.4 838.27 C 1175.07 838.6 1174.58 840.59 1174.32 842.68 C 1174.05 844.78 1172.73 848.98 1171.37 852.0 C 1170.01 855.02 1167.07 860.31 1164.83 863.75 C 1162.34 867.58 1160.07 870.0 1158.97 870.0 C 1157.99 870.0 1154.78 871.18 1151.84 872.62 C 1148.9 874.06 1145.6 875.61 1144.5 876.06 C 1143.4 876.52 1134.4 880.32 1124.5 884.52 C 1114.6 888.72 1106.07 892.57 1105.55 893.08 C 1105.03 893.59 1103.78 894.0 1102.77 894.0 C 1101.76 894.0 1100.69 894.66 1100.38 895.46 C 1100.07 896.26 1096.37 898.61 1092.16 900.67 C 1087.95 902.74 1084.35 904.78 1084.17 905.22 C 1083.98 905.65 1082.86 905.99 1081.67 905.97 Z M 1187.81 906.0 C 1187.53 906.0 1186.62 905.21 1185.77 904.25 C 1184.93 903.29 1183.25 900.54 1182.05 898.15 C 1180.84 895.76 1180.08 893.59 1180.35 893.32 C 1180.61 893.05 1181.79 894.99 1182.95 897.63 C 1184.12 900.27 1185.8 903.23 1186.69 904.21 C 1187.58 905.2 1188.08 906.0 1187.81 906.0 Z M 1348.96 906.0 C 1347.42 906.0 1346.02 905.65 1345.83 905.21 C 1345.65 904.78 1342.91 903.17 1339.76 901.64 C 1336.6 900.11 1333.0 897.96 1331.76 896.85 C 1330.51 895.75 1322.75 891.93 1314.5 888.37 C 1306.25 884.8 1296.58 880.73 1293.0 879.31 C 1289.42 877.89 1282.37 874.76 1277.31 872.35 C 1269.61 868.68 1267.62 867.23 1265.03 863.39 C 1263.32 860.86 1260.88 856.71 1259.6 854.15 C 1258.32 851.59 1256.71 847.09 1256.01 844.15 L 1254.75 838.8 C 1252.42 843.62 1248.97 847.2 1245.57 849.87 C 1242.18 852.53 1236.95 856.07 1233.95 857.73 C 1230.95 859.39 1225.96 861.48 1222.85 862.37 C 1219.74 863.27 1216.22 864.0 1215.03 864.0 C 1213.85 864.0 1210.65 863.27 1207.94 862.38 C 1205.22 861.5 1203.0 860.58 1203.0 860.34 C 1203.0 860.1 1204.69 860.18 1206.75 860.52 C 1210.27 861.09 1210.38 861.03 1208.56 859.56 C 1207.49 858.7 1207.1 858.0 1207.69 858.0 C 1208.27 858.0 1209.33 858.69 1210.03 859.53 C 1210.84 860.51 1212.68 860.98 1215.15 860.84 C 1217.27 860.71 1219.0 860.29 1219.0 859.89 C 1219.0 859.5 1213.3 853.85 1206.33 847.34 C 1199.37 840.83 1189.24 831.27 1183.83 826.09 C 1178.41 820.92 1174.21 816.46 1174.48 816.19 C 1174.75 815.92 1177.16 817.9 1179.84 820.6 C 1182.52 823.29 1189.35 829.77 1195.03 835.0 C 1200.71 840.23 1208.91 847.99 1213.25 852.25 C 1217.59 856.51 1221.42 860.0 1221.75 860.0 C 1222.09 860.0 1225.18 859.05 1228.63 857.88 C 1232.08 856.72 1235.61 854.98 1236.47 854.03 C 1237.92 852.43 1237.46 851.83 1230.27 845.9 C 1226.0 842.38 1221.6 838.76 1220.5 837.86 C 1219.4 836.96 1210.62 829.56 1201.0 821.42 C 1191.38 813.27 1181.92 805.07 1180.0 803.19 L 1176.5 799.77 C 1184.25 805.49 1188.08 808.59 1190.0 810.34 C 1191.92 812.09 1195.53 815.08 1198.0 817.0 C 1200.47 818.91 1202.98 820.93 1203.57 821.49 C 1204.16 822.04 1206.81 824.3 1209.45 826.5 C 1212.09 828.7 1215.2 831.33 1216.37 832.35 C 1217.54 833.36 1220.5 835.83 1222.95 837.85 C 1225.39 839.86 1229.21 843.08 1231.43 845.0 C 1233.65 846.92 1236.31 849.26 1237.35 850.18 C 1238.87 851.54 1239.61 851.64 1241.12 850.69 C 1242.15 850.05 1243.0 849.18 1243.0 848.76 C 1243.0 848.34 1242.19 847.21 1241.21 846.25 C 1240.23 845.29 1236.06 841.58 1231.96 838.0 C 1227.86 834.43 1224.28 831.28 1224.0 831.0 C 1223.72 830.73 1221.68 828.92 1219.45 827.0 C 1217.22 825.08 1213.2 821.7 1210.52 819.5 C 1207.84 817.3 1205.16 815.03 1204.57 814.46 C 1203.98 813.89 1201.8 812.14 1199.72 810.57 C 1197.65 809.01 1196.21 807.46 1196.53 807.14 C 1196.85 806.82 1197.42 807.0 1197.8 807.53 C 1198.19 808.07 1201.2 810.51 1204.5 812.96 C 1207.8 815.4 1210.98 817.88 1211.57 818.45 C 1212.16 819.03 1214.82 821.3 1217.49 823.5 C 1220.15 825.7 1224.36 829.3 1226.86 831.5 C 1229.35 833.7 1234.11 838.08 1237.44 841.23 C 1240.77 844.38 1244.01 846.97 1244.63 846.98 C 1245.26 846.99 1246.56 845.79 1247.53 844.31 C 1249.29 841.62 1249.29 841.6 1245.9 838.8 C 1244.03 837.25 1236.34 830.7 1228.82 824.24 C 1221.29 817.78 1215.11 812.13 1215.07 811.68 C 1215.03 811.23 1216.24 811.83 1217.75 813.02 C 1219.26 814.21 1223.6 817.95 1227.38 821.34 C 1231.17 824.73 1235.28 828.4 1236.52 829.5 C 1237.75 830.6 1240.92 833.3 1243.56 835.5 C 1246.19 837.7 1248.75 839.5 1249.24 839.5 C 1249.73 839.5 1250.89 838.25 1251.81 836.72 C 1253.49 833.95 1253.48 833.92 1249.48 830.22 C 1247.26 828.17 1242.98 824.25 1239.97 821.5 C 1236.95 818.75 1231.16 813.58 1227.1 810.01 C 1223.05 806.44 1219.0 802.97 1218.12 802.29 C 1217.23 801.62 1216.95 801.05 1217.5 801.03 C 1218.05 801.02 1220.3 802.59 1222.5 804.53 C 1224.7 806.47 1228.93 810.19 1231.9 812.78 C 1234.88 815.38 1239.55 819.52 1242.3 822.0 C 1245.04 824.48 1248.57 827.77 1250.13 829.32 C 1251.7 830.86 1253.38 831.88 1253.87 831.58 C 1254.37 831.27 1255.02 829.78 1255.32 828.26 C 1255.63 826.74 1256.17 824.31 1256.53 822.87 C 1257.12 820.5 1256.36 819.54 1249.09 813.45 C 1244.64 809.72 1241.2 806.47 1241.45 806.22 C 1241.7 805.97 1242.56 806.38 1243.37 807.13 C 1244.17 807.88 1246.1 809.47 1247.66 810.67 C 1249.22 811.86 1251.85 814.0 1253.5 815.42 C 1256.08 817.65 1256.55 817.78 1256.86 816.32 C 1257.06 815.39 1256.38 813.98 1255.36 813.18 C 1253.72 811.9 1253.7 811.8 1255.25 812.33 C 1256.27 812.68 1257.05 812.43 1257.13 811.72 C 1257.2 811.05 1257.37 809.6 1257.5 808.5 C 1257.64 807.4 1259.93 803.18 1262.59 799.13 C 1265.25 795.08 1267.58 792.25 1267.78 792.83 C 1267.97 793.42 1266.3 796.38 1264.07 799.41 C 1261.83 802.44 1260.0 805.23 1260.0 805.61 C 1260.0 806.0 1260.95 805.45 1262.1 804.4 C 1263.26 803.36 1264.5 802.61 1264.85 802.75 C 1265.21 802.89 1265.5 802.66 1265.5 802.25 C 1265.5 801.84 1266.56 800.02 1267.85 798.21 C 1269.8 795.48 1270.45 795.13 1271.68 796.15 C 1272.66 796.96 1273.0 798.45 1272.67 800.44 C 1272.4 802.12 1271.24 806.04 1270.11 809.15 C 1268.97 812.26 1267.59 818.78 1267.03 823.65 C 1266.47 828.52 1266.02 835.88 1266.03 840.0 C 1266.04 845.19 1266.62 848.78 1267.93 851.66 C 1268.97 853.95 1271.58 857.58 1273.74 859.74 C 1275.94 861.94 1281.77 865.66 1287.08 868.24 C 1292.26 870.77 1302.35 875.31 1309.5 878.32 C 1316.65 881.34 1324.84 884.5 1327.71 885.34 C 1330.57 886.18 1335.07 888.11 1337.71 889.64 C 1340.34 891.16 1345.08 894.15 1348.24 896.29 C 1351.4 898.42 1354.24 900.58 1354.55 901.08 C 1354.86 901.59 1354.3 902.04 1353.31 902.08 C 1352.19 902.13 1351.99 902.36 1352.79 902.68 C 1353.78 903.07 1353.81 903.52 1352.92 904.6 C 1352.28 905.37 1350.5 906.0 1348.96 906.0 Z M 1243.89 904.57 C 1243.29 904.94 1243.57 904.07 1244.51 902.62 C 1245.46 901.18 1246.42 900.0 1246.65 900.0 C 1246.88 900.0 1246.6 900.87 1246.03 901.94 C 1245.46 903.01 1244.49 904.19 1243.89 904.57 Z M 1249.0 896.0 C 1248.47 896.83 1248.03 897.05 1248.03 896.5 C 1248.03 895.95 1248.47 894.83 1249.0 894.0 C 1249.53 893.17 1249.97 892.95 1249.97 893.5 C 1249.97 894.05 1249.53 895.17 1249.0 896.0 Z M 1199.86 859.0 C 1198.98 859.0 1197.13 858.1 1195.73 857.0 C 1194.34 855.91 1192.14 854.55 1190.85 853.98 C 1188.72 853.05 1188.78 853.01 1191.5 853.54 C 1194.47 854.11 1194.45 854.07 1189.92 849.81 C 1187.41 847.44 1186.27 846.17 1187.38 847.0 C 1188.5 847.83 1190.56 849.52 1191.96 850.76 C 1193.36 852.0 1194.5 853.58 1194.5 854.26 C 1194.5 854.94 1194.95 855.5 1195.5 855.51 C 1196.05 855.51 1197.61 856.3 1198.97 857.26 C 1200.7 858.48 1200.97 859.0 1199.86 859.0 Z M 1254.5 825.91 C 1253.95 825.87 1252.6 825.02 1251.5 824.03 C 1250.4 823.03 1244.4 817.89 1238.16 812.61 C 1231.92 807.32 1227.15 803.0 1227.56 803.0 C 1227.96 803.0 1230.36 804.69 1232.89 806.75 C 1235.41 808.81 1238.16 811.17 1239.01 812.0 C 1239.85 812.83 1242.55 815.07 1245.02 816.99 C 1247.48 818.9 1250.85 821.71 1252.5 823.23 C 1254.15 824.75 1255.05 825.96 1254.5 825.91 Z M 1253.32 811.0 C 1252.77 811.0 1251.45 809.99 1250.4 808.75 L 1248.5 806.5 C 1252.38 809.58 1253.69 810.6 1253.92 810.74 C 1254.15 810.88 1253.88 811.0 1253.32 811.0 Z M 1213.44 809.98 C 1212.92 809.96 1210.39 807.94 1207.81 805.48 C 1205.23 803.01 1203.43 801.02 1203.81 801.03 C 1204.19 801.05 1206.72 803.08 1209.44 805.53 C 1212.15 807.99 1213.95 809.99 1213.44 809.98 Z M 1194.81 805.98 C 1194.64 805.98 1193.83 805.53 1193.0 805.0 C 1192.1 804.42 1191.98 804.02 1192.69 804.02 C 1193.35 804.01 1194.16 804.45 1194.5 805.0 C 1194.84 805.55 1194.98 805.99 1194.81 805.98 Z M 1239.06 805.0 C 1238.54 805.0 1237.84 804.56 1237.51 804.01 C 1237.16 803.44 1237.56 803.28 1238.45 803.62 C 1239.3 803.95 1240.0 804.39 1240.0 804.61 C 1240.0 804.82 1239.58 805.0 1239.06 805.0 Z M 1245.92 804.97 C 1245.69 804.95 1244.24 803.83 1242.69 802.47 C 1241.15 801.11 1240.29 800.0 1240.77 800.0 C 1241.25 800.0 1242.71 801.12 1244.0 802.5 C 1245.29 803.88 1246.16 804.99 1245.92 804.97 Z M 1173.56 804.0 C 1173.32 804.0 1172.8 803.48 1172.4 802.85 C 1171.96 802.13 1172.13 801.96 1172.85 802.4 C 1173.48 802.8 1174.0 803.32 1174.0 803.56 C 1174.0 803.8 1173.8 804.0 1173.56 804.0 Z M 1257.12 803.27 C 1256.14 804.25 1256.02 804.13 1256.56 802.71 C 1256.94 801.72 1257.5 801.17 1257.81 801.47 C 1258.11 801.78 1257.81 802.59 1257.12 803.27 Z M 1190.81 802.98 C 1190.64 802.98 1189.83 802.53 1189.0 802.0 C 1188.1 801.42 1187.98 801.02 1188.69 801.02 C 1189.35 801.01 1190.16 801.45 1190.5 802.0 C 1190.84 802.55 1190.98 802.99 1190.81 802.98 Z M 1226.0 802.0 C 1225.27 802.0 1224.97 801.7 1225.33 801.33 C 1225.7 800.97 1226.3 800.97 1226.67 801.33 C 1227.03 801.7 1226.73 802.0 1226.0 802.0 Z M 1171.1 800.44 C 1170.61 800.74 1169.97 800.35 1169.67 799.58 C 1169.37 798.8 1169.77 797.92 1170.56 797.61 C 1171.39 797.3 1172.0 797.66 1172.0 798.47 C 1172.0 799.25 1171.6 800.13 1171.1 800.44 Z M 1261.01 798.71 C 1259.38 800.79 1258.92 800.96 1258.42 799.66 C 1258.09 798.8 1258.54 797.07 1259.41 795.82 C 1260.28 794.58 1261.0 794.13 1261.0 794.84 C 1261.0 795.54 1261.45 795.84 1262.0 795.5 C 1262.55 795.16 1263.0 795.18 1263.0 795.53 C 1263.0 795.89 1262.11 797.32 1261.01 798.71 Z M 1202.38 799.97 C 1201.9 799.95 1200.44 799.05 1199.14 797.97 C 1197.84 796.89 1197.09 796.0 1197.48 796.0 C 1197.87 796.0 1199.33 796.9 1200.73 798.0 C 1202.13 799.1 1202.87 799.99 1202.38 799.97 Z M 1216.06 800.0 C 1215.54 800.0 1214.84 799.56 1214.51 799.01 C 1214.16 798.44 1214.56 798.28 1215.45 798.62 C 1216.3 798.95 1217.0 799.39 1217.0 799.61 C 1217.0 799.82 1216.58 800.0 1216.06 800.0 Z M 1224.44 799.96 C 1223.92 799.94 1222.15 798.82 1220.5 797.47 C 1218.85 796.12 1217.75 795.01 1218.06 795.0 C 1218.36 795.0 1220.14 796.12 1222.0 797.5 C 1223.86 798.88 1224.96 799.98 1224.44 799.96 Z M 1239.44 798.97 C 1238.92 798.95 1237.63 798.28 1236.56 797.47 C 1235.49 796.66 1235.04 796.01 1235.56 796.03 C 1236.08 796.05 1237.37 796.72 1238.44 797.53 C 1239.51 798.34 1239.96 798.99 1239.44 798.97 Z M 1259.94 798.0 C 1260.52 798.0 1261.0 797.55 1261.0 797.0 C 1261.0 796.45 1260.8 796.0 1260.56 796.0 C 1260.32 796.0 1259.84 796.45 1259.5 797.0 C 1259.16 797.55 1259.36 798.0 1259.94 798.0 Z M 1234.22 795.0 C 1233.7 795.0 1230.83 792.64 1227.83 789.75 C 1224.83 786.86 1223.76 785.66 1225.44 787.07 C 1227.12 788.48 1230.0 790.84 1231.83 792.32 C 1233.66 793.79 1234.73 795.0 1234.22 795.0 Z M 1264.39 794.0 C 1264.18 794.0 1264.0 793.52 1264.0 792.94 C 1264.0 792.36 1263.44 792.21 1262.75 792.6 C 1262.06 793.0 1261.85 792.94 1262.28 792.46 C 1262.71 791.99 1263.69 791.52 1264.46 791.4 C 1265.29 791.28 1265.64 791.77 1265.32 792.6 C 1265.03 793.37 1264.61 794.0 1264.39 794.0 Z " opacity="1.0" fill="#000000" stroke="none" fill-rule="evenodd"/></svg>