<svg width="2400" height="3200" xmlns="http://www.w3.org/2000/svg" viewBox="0 0 2400 3200"><path d="M 1195.0 925.0 C 1194.45 925.0 1194.0 924.52 1194.0 923.93 C 1194.0 923.34 1193.42 922.33 1192.71 921.68 C 1192.0 921.03 1190.41 919.92 1189.17 919.22 C 1187.93 918.51 1186.47 918.21 1185.92 918.55 C 1185.36 918.89 1184.26 918.63 1183.46 917.96 C 1182.66 917.3 1182.0 917.09 1182.0 917.5 C 1182.0 917.91 1181.31 917.67 1180.46 916.96 C 1179.33 916.03 1178.62 915.98 1177.8 916.8 C 1177.12 917.48 1176.07 917.57 1175.07 917.04 C 1174.18 916.56 1168.06 916.31 1161.47 916.49 C 1154.89 916.67 1149.5 916.89 1149.5 916.99 C 1149.5 917.09 1147.25 917.37 1144.5 917.62 C 1141.75 917.88 1137.05 918.51 1134.07 919.04 C 1131.08 919.57 1123.88 919.97 1118.07 919.94 C 1112.25 919.91 1105.74 919.57 1103.58 919.19 C 1101.43 918.81 1099.51 918.02 1099.32 917.45 C 1099.09 916.76 1105.02 916.35 1117.08 916.25 C 1127.03 916.16 1135.7 915.66 1136.34 915.14 C 1136.98 914.61 1140.88 913.88 1145.0 913.52 C 1149.12 913.15 1158.46 912.71 1165.75 912.53 C 1173.04 912.35 1179.26 912.61 1179.56 913.1 C 1179.87 913.6 1181.05 914.0 1182.19 914.0 C 1183.33 914.0 1185.89 914.97 1187.88 916.16 C 1189.87 917.35 1192.51 919.23 1193.75 920.34 C 1194.99 921.44 1196.0 922.95 1196.0 923.67 C 1196.0 924.4 1195.55 925.0 1195.0 925.0 Z M 1236.94 923.03 C 1235.87 923.6 1235.0 923.67 1235.0 923.19 C 1235.0 922.71 1235.88 921.51 1236.95 920.54 C 1238.03 919.57 1241.03 917.7 1243.62 916.39 C 1246.22 915.07 1249.59 914.0 1251.11 914.0 C 1252.63 914.0 1254.18 913.52 1254.54 912.94 C 1254.95 912.26 1259.55 911.96 1267.14 912.1 C 1273.71 912.22 1279.31 912.7 1279.6 913.16 C 1279.88 913.62 1283.38 914.0 1287.36 914.0 C 1291.34 914.0 1295.1 914.5 1295.71 915.11 C 1296.43 915.83 1302.85 916.26 1313.91 916.32 C 1323.31 916.38 1331.0 916.77 1331.0 917.18 C 1331.0 917.6 1329.54 918.36 1327.75 918.87 C 1325.96 919.37 1319.78 919.62 1314.0 919.42 C 1308.22 919.22 1300.35 918.83 1296.5 918.57 C 1292.65 918.31 1286.8 917.94 1283.49 917.76 C 1280.19 917.57 1276.93 917.07 1276.24 916.65 C 1275.56 916.23 1274.46 916.22 1273.8 916.62 C 1273.14 917.03 1271.43 917.36 1270.0 917.36 C 1268.57 917.36 1266.86 917.03 1266.19 916.62 C 1265.53 916.21 1262.18 915.99 1258.75 916.12 C 1255.31 916.26 1252.05 916.61 1251.5 916.91 C 1250.95 917.2 1250.05 917.48 1249.5 917.51 C 1248.95 917.55 1246.61 918.14 1244.29 918.82 C 1241.98 919.5 1239.82 920.49 1239.49 921.02 C 1239.16 921.55 1238.01 922.46 1236.94 923.03 Z M 1208.25 922.85 C 1207.84 922.77 1206.15 922.5 1204.5 922.26 C 1202.85 922.02 1201.05 921.47 1200.5 921.05 C 1199.95 920.62 1198.38 920.01 1197.0 919.68 C 1195.62 919.35 1192.58 917.13 1190.23 914.73 C 1187.4 911.85 1185.81 909.26 1185.54 907.08 C 1185.31 905.27 1184.51 903.05 1183.77 902.14 C 1183.02 901.24 1181.78 899.15 1181.0 897.5 C 1180.23 895.85 1179.43 894.16 1179.24 893.75 C 1179.04 893.34 1179.58 893.0 1180.44 893.0 C 1181.3 893.0 1182.0 893.61 1182.0 894.35 C 1182.0 895.08 1182.9 896.5 1184.0 897.5 C 1185.1 898.5 1186.0 899.73 1186.0 900.25 C 1186.0 900.77 1187.89 903.17 1190.2 905.59 C 1192.51 908.02 1194.93 910.0 1195.58 910.0 C 1196.22 910.0 1197.32 910.69 1198.02 911.52 C 1198.72 912.36 1199.51 912.83 1199.78 912.55 C 1200.05 912.28 1201.52 912.95 1203.04 914.03 C 1204.56 915.11 1206.64 916.01 1207.65 916.03 C 1208.67 916.05 1210.4 916.77 1211.5 917.64 C 1213.39 919.14 1213.29 919.19 1209.63 918.54 C 1207.5 918.17 1205.02 917.5 1204.13 917.06 C 1203.23 916.61 1200.47 915.22 1198.0 913.96 C 1195.53 912.7 1192.02 910.39 1190.22 908.83 C 1188.41 907.27 1186.69 906.0 1186.4 906.0 C 1186.1 906.0 1186.75 907.24 1187.82 908.75 C 1188.9 910.26 1190.62 912.22 1191.64 913.1 C 1192.66 913.98 1195.08 915.51 1197.0 916.5 C 1198.92 917.48 1201.28 918.67 1202.24 919.14 C 1203.19 919.61 1205.1 920.0 1206.49 920.0 C 1208.05 920.0 1209.0 920.56 1209.0 921.5 C 1209.0 922.33 1208.66 922.93 1208.25 922.85 Z M 1225.41 922.08 C 1224.81 922.58 1224.02 922.69 1223.66 922.33 C 1223.31 921.97 1224.02 921.09 1225.26 920.38 C 1226.49 919.66 1228.17 918.8 1229.0 918.46 C 1229.83 918.12 1232.53 916.94 1235.0 915.83 C 1237.73 914.61 1240.4 912.43 1241.79 910.28 C 1243.05 908.34 1243.83 906.49 1243.52 906.18 C 1243.21 905.88 1241.06 907.4 1238.73 909.56 C 1236.4 911.73 1233.49 914.07 1232.26 914.75 C 1231.03 915.44 1229.12 916.0 1228.01 916.0 C 1226.91 916.0 1226.0 916.45 1226.0 917.0 C 1226.0 917.55 1224.85 918.0 1223.44 918.0 C 1221.99 918.0 1221.15 917.57 1221.5 917.0 C 1221.84 916.45 1222.99 916.0 1224.06 916.0 C 1225.13 916.0 1226.0 915.55 1226.0 915.0 C 1226.0 914.45 1226.97 914.0 1228.15 914.0 C 1229.33 914.0 1232.36 912.31 1234.88 910.25 C 1237.4 908.19 1240.72 905.15 1242.26 903.5 C 1243.79 901.85 1246.21 898.59 1247.62 896.25 C 1249.03 893.91 1250.6 892.25 1251.09 892.56 C 1251.59 892.86 1250.65 895.54 1249.0 898.5 C 1247.35 901.47 1246.0 904.79 1246.0 905.89 C 1246.0 906.99 1245.06 909.49 1243.9 911.44 C 1242.75 913.4 1241.43 915.0 1240.98 915.0 C 1240.52 915.0 1238.88 916.06 1237.33 917.36 C 1235.77 918.65 1232.7 920.04 1230.5 920.45 C 1228.3 920.85 1226.01 921.58 1225.41 922.08 Z M 1083.19 903.94 C 1081.16 903.91 1078.83 903.49 1078.0 903.01 C 1077.17 902.54 1075.65 901.88 1074.61 901.55 C 1072.8 900.98 1072.8 900.88 1074.5 899.0 C 1075.48 897.92 1081.25 894.55 1087.32 891.52 C 1093.39 888.48 1099.41 886.0 1100.69 886.0 C 1101.98 886.0 1103.81 885.6 1104.76 885.11 C 1105.72 884.62 1108.53 883.32 1111.0 882.21 C 1113.47 881.11 1117.13 879.49 1119.11 878.62 C 1121.1 877.75 1123.29 876.35 1123.98 875.52 C 1124.68 874.68 1125.99 874.0 1126.9 874.0 C 1127.81 874.0 1131.24 872.66 1134.53 871.03 C 1137.81 869.4 1141.26 868.05 1142.19 868.03 C 1143.12 868.01 1144.16 867.55 1144.5 867.0 C 1144.84 866.45 1146.0 866.0 1147.07 866.0 C 1148.15 866.0 1150.03 865.44 1151.26 864.75 C 1152.49 864.07 1155.41 861.72 1157.75 859.54 C 1161.46 856.09 1162.0 855.04 1162.0 851.35 C 1162.0 849.02 1162.45 846.84 1163.01 846.49 C 1163.61 846.13 1163.98 840.99 1163.93 833.94 C 1163.88 827.39 1163.43 821.76 1162.92 821.45 C 1162.41 821.14 1162.0 818.91 1162.0 816.5 C 1162.0 814.09 1161.55 811.84 1161.0 811.5 C 1160.45 811.16 1160.0 809.81 1160.0 808.5 C 1160.0 807.19 1159.55 805.84 1159.0 805.5 C 1158.45 805.16 1158.01 803.22 1158.03 801.19 C 1158.05 798.7 1158.88 796.57 1160.58 794.63 C 1161.97 793.06 1163.23 791.93 1163.4 792.13 C 1163.56 792.34 1165.61 795.37 1167.96 798.87 C 1171.27 803.79 1171.93 805.42 1170.9 806.06 C 1170.16 806.52 1169.94 807.25 1170.42 807.7 C 1170.89 808.14 1171.48 807.91 1171.74 807.19 C 1172.1 806.18 1172.64 806.27 1174.1 807.59 C 1175.15 808.54 1176.0 810.08 1176.0 811.02 C 1176.0 811.96 1176.9 813.87 1178.0 815.27 C 1179.1 816.67 1180.0 818.08 1180.0 818.41 C 1180.0 818.73 1179.31 819.0 1178.47 819.0 C 1177.63 819.0 1176.68 818.33 1176.36 817.5 C 1176.05 816.67 1175.38 816.0 1174.89 816.0 C 1174.4 816.0 1174.0 817.3 1174.0 818.89 C 1174.0 820.61 1174.64 822.03 1175.58 822.39 C 1176.45 822.73 1177.33 823.0 1177.54 823.0 C 1177.75 823.0 1178.78 822.08 1179.83 820.95 C 1181.74 818.9 1181.74 818.9 1183.36 822.95 C 1184.25 825.18 1185.48 827.0 1186.1 827.0 C 1186.71 827.0 1188.55 825.88 1190.18 824.5 C 1191.82 823.12 1193.66 822.0 1194.27 822.0 C 1194.89 822.0 1193.95 823.48 1192.2 825.3 C 1190.44 827.11 1189.0 828.91 1189.0 829.3 C 1189.0 829.68 1189.67 830.0 1190.5 830.0 C 1191.33 830.0 1192.0 830.45 1192.0 831.0 C 1192.0 831.55 1192.95 832.0 1194.11 832.0 C 1195.27 832.0 1198.95 829.96 1202.27 827.46 C 1205.59 824.96 1209.03 823.05 1209.9 823.22 C 1210.77 823.39 1212.08 824.78 1212.82 826.31 C 1213.79 828.34 1214.65 828.93 1216.01 828.5 C 1217.25 828.1 1218.23 828.55 1218.9 829.82 C 1219.47 830.87 1219.61 832.09 1219.21 832.52 C 1218.82 832.94 1219.55 833.04 1220.83 832.72 C 1222.62 832.28 1223.03 832.49 1222.58 833.65 C 1222.26 834.48 1222.0 835.35 1222.0 835.58 C 1222.0 835.81 1221.33 836.0 1220.5 836.0 C 1219.67 836.0 1219.0 835.38 1219.0 834.62 C 1219.0 833.86 1218.04 832.98 1216.87 832.68 C 1215.66 832.36 1214.11 832.74 1213.29 833.57 C 1212.5 834.36 1210.98 835.48 1209.92 836.04 C 1208.86 836.61 1208.0 837.7 1208.0 838.48 C 1208.0 839.68 1208.39 839.68 1210.65 838.51 C 1212.11 837.75 1213.61 836.63 1213.99 836.02 C 1214.47 835.24 1215.67 835.45 1217.96 836.7 C 1220.44 838.06 1221.36 838.19 1221.71 837.25 C 1221.96 836.56 1222.99 836.0 1224.0 836.0 C 1225.01 836.0 1226.04 836.56 1226.3 837.25 C 1226.64 838.18 1227.2 838.08 1228.48 836.87 C 1230.1 835.33 1230.01 835.12 1227.1 833.4 C 1225.39 832.39 1224.0 831.22 1224.0 830.78 C 1224.0 830.35 1223.39 830.0 1222.65 830.0 C 1221.92 830.0 1220.48 829.09 1219.47 827.97 C 1217.81 826.13 1217.78 825.79 1219.19 824.38 C 1220.6 822.97 1221.05 822.97 1223.88 824.44 C 1225.59 825.32 1227.0 826.49 1227.0 827.03 C 1227.0 827.56 1226.52 828.0 1225.93 828.0 C 1225.34 828.0 1224.18 827.33 1223.36 826.5 C 1222.53 825.67 1221.33 825.02 1220.68 825.04 C 1220.03 825.06 1220.81 826.14 1222.41 827.45 C 1224.68 829.31 1225.68 829.59 1227.03 828.75 C 1228.35 827.93 1229.41 828.15 1231.62 829.71 C 1233.2 830.82 1235.4 832.03 1236.5 832.39 C 1237.6 832.75 1239.31 834.16 1240.3 835.53 C 1242.04 837.93 1242.04 838.0 1240.13 838.0 C 1239.05 838.0 1237.97 837.44 1237.72 836.75 C 1237.47 836.06 1236.92 835.83 1236.5 836.22 C 1236.07 836.62 1236.79 837.85 1238.11 838.94 C 1239.42 840.04 1240.84 840.95 1241.25 840.97 C 1241.66 840.99 1242.0 840.36 1242.0 839.58 C 1242.0 838.8 1242.56 837.96 1243.25 837.71 C 1244.04 837.42 1243.11 835.95 1240.77 833.76 C 1238.72 831.84 1235.45 829.06 1233.5 827.57 C 1231.56 826.09 1230.26 824.39 1230.62 823.81 C 1231.04 823.13 1231.61 823.34 1232.19 824.37 C 1232.69 825.27 1233.68 826.0 1234.39 826.0 C 1235.11 826.0 1236.5 826.9 1237.5 828.0 C 1238.5 829.1 1239.93 830.0 1240.69 830.0 C 1241.8 830.0 1241.84 829.57 1240.89 827.79 C 1240.24 826.58 1238.8 824.85 1237.69 823.95 C 1236.38 822.89 1236.06 822.08 1236.77 821.64 C 1237.37 821.27 1238.46 821.8 1239.18 822.82 C 1239.91 823.85 1241.48 825.2 1242.68 825.84 C 1243.89 826.48 1245.07 827.0 1245.31 827.0 C 1245.56 827.0 1246.35 825.54 1247.08 823.75 C 1247.81 821.96 1248.9 820.05 1249.51 819.5 C 1250.12 818.95 1251.83 816.84 1253.31 814.82 C 1254.79 812.79 1256.0 810.46 1256.0 809.64 C 1256.0 808.82 1257.04 806.88 1258.3 805.33 C 1259.57 803.77 1262.1 800.11 1263.94 797.2 L 1267.28 791.89 C 1271.56 795.99 1273.02 798.6 1273.28 800.34 C 1273.55 802.08 1273.37 803.99 1272.89 804.59 C 1272.41 805.19 1272.3 805.97 1272.65 806.32 C 1273.0 806.67 1272.55 807.24 1271.64 807.58 C 1270.57 807.99 1270.0 809.38 1270.0 811.55 C 1270.0 813.38 1269.55 815.16 1269.0 815.5 C 1268.39 815.87 1268.0 823.14 1268.0 833.94 C 1268.0 846.4 1268.4 852.71 1269.31 854.89 C 1270.03 856.6 1272.17 859.16 1274.06 860.57 C 1275.95 861.98 1279.88 864.23 1282.78 865.57 C 1285.68 866.9 1288.48 868.0 1289.0 868.0 C 1289.52 868.0 1291.54 868.9 1293.5 870.0 C 1295.46 871.1 1297.51 872.0 1298.07 872.0 C 1298.62 872.0 1304.59 874.7 1311.34 878.0 C 1318.09 881.3 1324.34 884.0 1325.24 884.0 C 1326.15 884.0 1327.16 884.45 1327.5 885.0 C 1327.84 885.55 1329.0 886.0 1330.07 886.0 C 1331.15 886.0 1332.92 886.45 1334.01 887.0 C 1335.11 887.55 1336.89 888.45 1337.99 889.0 C 1339.08 889.55 1340.48 890.0 1341.09 890.0 C 1341.71 890.0 1344.21 891.35 1346.66 893.0 C 1349.1 894.65 1351.45 896.0 1351.88 896.0 C 1352.3 896.0 1353.63 897.05 1354.83 898.32 C 1356.04 899.6 1356.71 900.95 1356.34 901.32 C 1355.97 901.7 1354.84 902.0 1353.83 902.0 C 1352.83 902.0 1352.0 902.45 1352.0 903.0 C 1352.0 903.55 1350.21 904.0 1348.03 904.0 C 1345.85 904.0 1342.46 903.1 1340.5 902.0 C 1338.54 900.9 1336.33 900.0 1335.58 900.0 C 1334.84 900.0 1333.52 898.92 1332.65 897.59 C 1331.78 896.27 1328.47 893.98 1325.29 892.5 C 1322.1 891.03 1318.71 889.42 1317.75 888.91 C 1316.79 888.41 1315.21 887.58 1314.25 887.07 C 1313.29 886.56 1311.6 885.82 1310.5 885.41 C 1309.4 885.01 1308.15 884.76 1307.72 884.85 C 1307.29 884.94 1306.68 884.33 1306.35 883.48 C 1305.99 882.52 1305.07 882.16 1303.93 882.52 C 1302.81 882.88 1301.31 882.31 1300.05 881.05 C 1298.92 879.92 1296.86 879.0 1295.47 879.0 C 1294.08 879.0 1292.68 878.33 1292.36 877.5 C 1292.05 876.67 1291.01 876.0 1290.07 876.0 C 1289.13 876.0 1285.57 874.65 1282.16 873.0 C 1278.76 871.35 1274.93 870.0 1273.67 870.0 C 1272.41 870.0 1270.16 868.74 1268.69 867.2 C 1267.21 865.65 1265.98 863.97 1265.96 863.45 C 1265.94 862.93 1264.59 860.94 1262.96 859.04 C 1261.01 856.75 1260.0 854.48 1260.0 852.35 C 1260.0 850.57 1259.55 848.84 1259.0 848.5 C 1258.45 848.16 1258.0 846.6 1258.0 845.02 C 1258.0 843.45 1257.73 841.45 1257.39 840.58 C 1257.06 839.71 1256.27 839.0 1255.64 839.0 C 1255.01 839.0 1253.89 840.35 1253.17 841.99 C 1252.44 843.63 1249.67 846.67 1247.0 848.74 C 1243.82 851.21 1242.22 853.18 1242.33 854.5 C 1242.47 856.18 1241.98 856.45 1239.25 856.19 C 1236.75 855.94 1236.0 856.26 1236.0 857.54 C 1236.0 858.66 1235.47 859.01 1234.41 858.6 C 1233.53 858.27 1231.57 858.88 1230.04 859.97 C 1228.12 861.34 1225.19 862.07 1220.63 862.31 C 1216.98 862.5 1213.75 862.92 1213.43 863.24 C 1213.12 863.55 1211.65 863.18 1210.18 862.42 C 1208.71 861.65 1206.71 861.28 1205.75 861.58 C 1204.79 861.89 1202.69 861.2 1201.09 860.07 C 1199.5 858.93 1197.5 858.0 1196.65 858.0 C 1195.81 858.0 1194.84 857.55 1194.5 857.0 C 1194.16 856.45 1192.53 856.0 1190.87 856.0 C 1188.32 856.0 1187.96 855.7 1188.5 854.0 C 1188.85 852.9 1188.7 852.0 1188.18 852.0 C 1187.65 852.0 1184.7 849.52 1181.61 846.48 C 1178.52 843.44 1176.0 840.29 1176.0 839.48 C 1176.0 838.67 1175.55 838.0 1175.0 838.0 C 1174.45 838.0 1174.0 839.04 1174.0 840.3 C 1174.0 841.57 1173.59 843.03 1173.08 843.55 C 1172.57 844.07 1171.99 846.79 1171.79 849.58 C 1171.51 853.52 1170.59 855.79 1167.71 859.71 C 1165.67 862.49 1164.0 865.2 1164.0 865.73 C 1164.0 866.26 1163.18 867.43 1162.17 868.35 C 1161.17 869.26 1159.15 870.0 1157.7 870.0 C 1156.25 870.0 1153.46 870.9 1151.5 872.0 C 1149.54 873.1 1147.0 874.0 1145.86 874.0 C 1144.5 874.0 1143.97 874.48 1144.32 875.39 C 1144.69 876.37 1144.27 876.62 1142.89 876.26 C 1141.82 875.98 1140.11 876.49 1139.11 877.4 C 1138.09 878.32 1136.56 878.77 1135.64 878.42 C 1134.52 877.99 1134.0 878.32 1134.0 879.46 C 1134.0 880.68 1133.46 880.96 1132.0 880.5 C 1130.7 880.09 1129.79 880.38 1129.43 881.33 C 1129.11 882.14 1126.9 883.09 1124.43 883.46 C 1121.99 883.82 1120.0 884.5 1120.0 884.97 C 1120.0 885.44 1118.09 886.72 1115.75 887.82 C 1113.41 888.92 1110.53 890.1 1109.34 890.45 C 1108.15 890.79 1106.63 891.74 1105.97 892.54 C 1105.3 893.34 1103.98 894.0 1103.03 894.0 C 1102.08 894.0 1100.27 895.34 1099.02 896.98 C 1097.76 898.61 1096.4 899.74 1095.98 899.49 C 1095.57 899.23 1094.67 899.69 1093.99 900.51 C 1093.31 901.33 1091.71 902.0 1090.44 902.0 C 1089.16 902.0 1087.84 902.45 1087.5 903.0 C 1087.16 903.55 1085.22 903.97 1083.19 903.94 Z M 1212.54 858.0 C 1212.84 858.0 1214.28 856.89 1215.75 855.54 C 1217.21 854.18 1218.07 852.74 1217.67 852.33 C 1217.26 851.93 1215.82 852.79 1214.46 854.25 C 1213.11 855.72 1212.0 857.16 1212.0 857.46 C 1212.0 857.76 1212.24 858.0 1212.54 858.0 Z M 1219.0 858.0 C 1219.55 858.0 1220.0 857.55 1220.0 857.0 C 1220.0 856.45 1220.67 856.0 1221.5 856.0 C 1222.33 856.0 1223.0 855.55 1223.0 855.0 C 1223.0 854.45 1224.09 854.0 1225.42 854.0 C 1226.75 854.0 1228.02 854.56 1228.25 855.25 C 1228.58 856.23 1229.26 856.19 1231.34 855.08 C 1232.8 854.3 1234.0 853.06 1234.0 852.33 C 1234.0 851.6 1233.55 851.0 1233.0 851.0 C 1232.45 851.0 1232.0 851.67 1232.0 852.5 C 1232.0 853.33 1231.25 854.0 1230.33 854.0 C 1229.41 854.0 1227.8 853.22 1226.75 852.27 C 1224.94 850.63 1224.79 850.63 1223.87 852.27 C 1223.34 853.22 1222.44 854.0 1221.88 854.0 C 1221.32 854.0 1220.21 854.64 1219.43 855.43 C 1218.64 856.21 1218.0 857.11 1218.0 857.43 C 1218.0 857.74 1218.45 858.0 1219.0 858.0 Z M 1202.75 855.9 C 1203.44 855.96 1204.0 855.55 1204.0 855.0 C 1204.0 854.45 1204.87 854.0 1205.94 854.0 C 1207.01 854.0 1208.16 854.46 1208.51 855.02 C 1208.86 855.58 1209.55 855.78 1210.06 855.46 C 1210.57 855.15 1210.09 853.94 1209.01 852.78 C 1207.12 850.75 1206.95 850.73 1205.09 852.42 C 1204.02 853.38 1202.33 854.02 1201.34 853.83 C 1199.67 853.51 1199.71 853.29 1201.76 851.24 C 1202.99 850.01 1204.0 848.77 1204.0 848.5 C 1204.0 848.23 1203.33 848.0 1202.5 848.0 C 1201.67 848.0 1201.0 848.46 1201.0 849.02 C 1201.0 849.59 1199.81 850.5 1198.36 851.05 C 1196.91 851.6 1196.0 852.34 1196.34 852.68 C 1196.69 853.02 1197.99 853.86 1199.23 854.55 C 1200.48 855.24 1202.06 855.85 1202.75 855.9 Z M 1211.25 851.94 C 1211.66 851.97 1212.0 851.59 1212.0 851.08 C 1212.0 850.58 1211.44 849.9 1210.75 849.58 C 1209.75 849.12 1209.75 848.88 1210.75 848.42 C 1211.44 848.1 1212.0 847.37 1212.0 846.81 C 1212.0 846.25 1211.32 846.05 1210.49 846.37 C 1209.66 846.68 1207.42 846.17 1205.51 845.22 C 1203.61 844.28 1202.04 843.16 1202.02 842.75 C 1202.01 842.34 1202.45 842.0 1203.0 842.0 C 1203.55 842.0 1204.0 841.55 1204.0 841.0 C 1204.0 840.45 1203.6 840.0 1203.11 840.0 C 1202.62 840.0 1201.91 840.79 1201.54 841.75 C 1201.08 842.96 1201.73 844.18 1203.69 845.75 C 1205.23 846.98 1207.4 848.87 1208.5 849.93 C 1209.6 851.0 1210.84 851.9 1211.25 851.94 Z M 1221.69 850.74 C 1222.62 849.81 1223.1 848.77 1222.76 848.42 C 1222.41 848.08 1221.65 848.1 1221.07 848.46 C 1220.48 848.82 1220.0 849.86 1220.0 850.77 C 1220.0 852.3 1220.13 852.3 1221.69 850.74 Z M 1195.17 851.0 C 1195.62 851.0 1196.0 850.33 1196.0 849.5 C 1196.0 848.67 1195.33 848.0 1194.5 848.0 C 1193.67 848.0 1193.0 848.38 1193.0 848.83 C 1193.0 849.29 1193.3 849.97 1193.67 850.33 C 1194.03 850.7 1194.71 851.0 1195.17 851.0 Z M 1217.0 850.0 C 1217.55 850.0 1218.0 849.24 1218.0 848.31 C 1218.0 847.39 1217.02 845.59 1215.83 844.31 C 1214.63 843.04 1212.6 842.0 1211.33 842.0 C 1210.05 842.0 1209.0 842.45 1209.0 843.0 C 1209.0 843.55 1209.75 844.0 1210.67 844.0 C 1211.59 844.0 1213.17 844.74 1214.17 845.65 C 1215.18 846.57 1216.0 847.92 1216.0 848.65 C 1216.0 849.39 1216.45 850.0 1217.0 850.0 Z M 1228.5 850.0 C 1229.33 850.0 1230.0 849.55 1230.0 849.0 C 1230.0 848.45 1229.33 848.0 1228.5 848.0 C 1227.67 848.0 1227.0 848.45 1227.0 849.0 C 1227.0 849.55 1227.67 850.0 1228.5 850.0 Z M 1236.57 850.0 C 1237.44 850.0 1238.79 849.36 1239.57 848.57 C 1240.74 847.41 1240.78 846.61 1239.81 844.32 L 1238.61 841.5 C 1238.03 845.85 1237.21 847.36 1236.43 847.67 C 1235.64 847.97 1235.0 848.62 1235.0 849.11 C 1235.0 849.6 1235.71 850.0 1236.57 850.0 Z M 1187.76 847.97 C 1188.46 847.99 1190.59 846.99 1192.5 845.75 C 1194.41 844.51 1195.98 842.94 1195.99 842.25 C 1195.99 841.56 1196.7 841.0 1197.56 841.0 C 1198.45 841.0 1198.82 840.52 1198.43 839.89 C 1198.05 839.28 1198.35 838.4 1199.09 837.94 C 1199.83 837.48 1200.09 836.76 1199.67 836.33 C 1199.24 835.91 1198.47 836.22 1197.95 837.03 C 1197.11 838.32 1196.89 838.32 1196.05 837.03 C 1195.53 836.22 1194.75 835.94 1194.3 836.42 C 1193.86 836.89 1194.06 837.47 1194.75 837.72 C 1195.44 837.97 1196.0 838.6 1196.0 839.13 C 1196.0 839.65 1195.09 841.06 1193.97 842.26 C 1192.25 844.1 1191.63 844.25 1189.98 843.22 C 1188.91 842.55 1187.57 842.0 1187.01 842.0 C 1186.46 842.0 1186.0 842.45 1186.0 843.0 C 1186.0 843.55 1186.9 844.0 1188.0 844.0 C 1189.1 844.0 1190.0 844.29 1190.0 844.64 C 1190.0 844.99 1189.21 845.88 1188.25 846.61 C 1187.16 847.44 1186.98 847.95 1187.76 847.97 Z M 1199.17 848.0 C 1199.62 848.0 1200.0 847.33 1200.0 846.5 C 1200.0 845.67 1199.33 845.0 1198.5 845.0 C 1197.67 845.0 1197.0 845.38 1197.0 845.83 C 1197.0 846.29 1197.3 846.97 1197.67 847.33 C 1198.03 847.7 1198.71 848.0 1199.17 848.0 Z M 1225.04 848.0 C 1225.57 848.0 1226.0 847.33 1226.0 846.5 C 1226.0 845.67 1225.81 845.0 1225.58 845.0 C 1225.35 845.0 1224.4 844.71 1223.47 844.35 C 1222.0 843.79 1221.92 843.99 1222.92 845.85 C 1223.55 847.03 1224.5 848.0 1225.04 848.0 Z M 1231.81 848.0 C 1232.26 848.0 1233.62 846.65 1234.84 845.0 C 1236.06 843.35 1236.6 842.0 1236.03 842.0 C 1235.46 842.0 1234.1 842.9 1233.0 844.0 C 1231.9 845.1 1231.0 846.45 1231.0 847.0 C 1231.0 847.55 1231.37 848.0 1231.81 848.0 Z M 1245.0 845.5 C 1245.55 845.16 1246.0 844.23 1246.0 843.44 C 1246.0 842.65 1245.55 842.0 1245.0 842.0 C 1244.45 842.0 1244.0 842.93 1244.0 844.06 C 1244.0 845.19 1244.45 845.84 1245.0 845.5 Z M 1219.75 843.97 C 1220.44 843.99 1221.0 843.33 1221.0 842.5 C 1221.0 841.67 1220.11 841.0 1219.0 841.0 C 1217.9 841.0 1217.0 840.55 1217.0 840.0 C 1217.0 839.45 1216.53 839.0 1215.95 839.0 C 1215.38 839.0 1215.72 840.11 1216.7 841.47 C 1217.69 842.83 1219.06 843.95 1219.75 843.97 Z M 1229.0 844.0 C 1229.55 844.0 1230.0 843.55 1230.0 843.0 C 1230.0 842.45 1229.55 842.0 1229.0 842.0 C 1228.45 842.0 1228.0 842.45 1228.0 843.0 C 1228.0 843.55 1228.45 844.0 1229.0 844.0 Z M 1225.2 841.38 C 1225.64 841.1 1226.0 840.22 1226.0 839.41 C 1226.0 838.21 1225.6 838.15 1223.86 839.07 C 1222.21 839.96 1222.03 840.4 1223.07 841.04 C 1223.8 841.5 1224.76 841.65 1225.2 841.38 Z M 1232.5 842.0 C 1233.33 842.0 1234.0 841.33 1234.0 840.5 C 1234.0 839.67 1233.33 839.0 1232.5 839.0 C 1231.67 839.0 1231.0 839.67 1231.0 840.5 C 1231.0 841.33 1231.67 842.0 1232.5 842.0 Z M 1247.0 841.0 C 1247.55 841.0 1248.0 840.33 1248.0 839.5 C 1248.0 838.67 1247.55 838.0 1247.0 838.0 C 1246.45 838.0 1246.0 838.67 1246.0 839.5 C 1246.0 840.33 1246.45 841.0 1247.0 841.0 Z M 1191.0 840.0 C 1191.55 840.0 1192.0 839.55 1192.0 839.0 C 1192.0 838.45 1191.55 838.0 1191.0 838.0 C 1190.45 838.0 1190.0 838.45 1190.0 839.0 C 1190.0 839.55 1190.45 840.0 1191.0 840.0 Z M 1181.56 839.0 C 1181.8 839.0 1182.0 838.55 1182.0 838.0 C 1182.0 837.45 1181.52 837.0 1180.94 837.0 C 1180.36 837.0 1180.16 837.45 1180.5 838.0 C 1180.84 838.55 1181.32 839.0 1181.56 839.0 Z M 1187.0 838.0 C 1187.55 838.0 1188.0 837.55 1188.0 837.0 C 1188.0 836.45 1187.55 836.0 1187.0 836.0 C 1186.45 836.0 1186.0 836.45 1186.0 837.0 C 1186.0 837.55 1186.45 838.0 1187.0 838.0 Z M 1203.5 837.0 C 1204.33 837.0 1205.0 836.52 1205.0 835.94 C 1205.0 835.36 1205.43 835.15 1205.96 835.48 C 1206.49 835.8 1207.84 835.16 1208.96 834.04 C 1210.08 832.92 1211.67 832.0 1212.5 832.0 C 1213.33 832.0 1214.0 831.61 1214.0 831.12 C 1214.0 830.64 1213.31 829.67 1212.47 828.98 C 1211.21 827.93 1210.55 828.08 1208.66 829.85 C 1207.4 831.03 1206.03 832.0 1205.61 832.0 C 1205.2 832.0 1204.21 832.64 1203.43 833.43 C 1202.64 834.21 1202.0 835.34 1202.0 835.93 C 1202.0 836.52 1202.67 837.0 1203.5 837.0 Z M 1183.5 836.0 C 1184.42 836.0 1185.01 835.52 1184.81 834.92 C 1184.61 834.33 1184.02 833.85 1183.5 833.85 C 1182.98 833.85 1182.39 834.33 1182.19 834.92 C 1181.99 835.52 1182.58 836.0 1183.5 836.0 Z M 1199.5 834.0 C 1200.33 834.0 1201.0 833.54 1201.0 832.98 C 1201.0 832.41 1202.12 831.52 1203.5 831.0 C 1204.88 830.48 1206.0 829.59 1206.0 829.02 C 1206.0 828.46 1206.9 828.0 1208.0 828.0 C 1209.1 828.0 1210.0 827.55 1210.0 827.0 C 1210.0 826.45 1209.1 826.0 1208.0 826.0 C 1206.9 826.0 1206.0 826.45 1206.0 827.0 C 1206.0 827.55 1205.33 828.0 1204.5 828.0 C 1203.67 828.0 1203.0 828.37 1203.0 828.83 C 1203.0 829.29 1201.88 830.26 1200.5 831.0 C 1199.12 831.74 1198.0 832.71 1198.0 833.17 C 1198.0 833.63 1198.67 834.0 1199.5 834.0 Z M 1231.94 833.96 C 1232.92 833.99 1232.65 833.33 1231.12 831.9 C 1229.88 830.74 1228.63 830.04 1228.33 830.33 C 1228.04 830.63 1228.41 831.56 1229.15 832.4 C 1229.89 833.24 1231.15 833.94 1231.94 833.96 Z M 1175.0 833.0 C 1175.73 833.0 1176.03 832.7 1175.67 832.33 C 1175.3 831.97 1174.7 831.97 1174.33 832.33 C 1173.97 832.7 1174.27 833.0 1175.0 833.0 Z M 1177.0 830.0 C 1177.55 830.0 1178.0 829.35 1178.0 828.56 C 1178.0 827.77 1177.55 826.84 1177.0 826.5 C 1176.45 826.16 1176.0 826.81 1176.0 827.94 C 1176.0 829.07 1176.45 830.0 1177.0 830.0 Z M 1183.0 830.0 C 1183.55 830.0 1184.0 829.55 1184.0 829.0 C 1184.0 828.45 1183.55 828.0 1183.0 828.0 C 1182.45 828.0 1182.0 828.45 1182.0 829.0 C 1182.0 829.55 1182.45 830.0 1183.0 830.0 Z M 1193.75 829.97 C 1193.34 829.99 1193.0 829.55 1193.0 829.0 C 1193.0 828.45 1193.43 828.0 1193.95 828.0 C 1194.47 828.0 1196.12 826.87 1197.61 825.49 C 1199.09 824.11 1200.58 823.24 1200.9 823.57 C 1201.22 823.89 1199.92 825.46 1197.99 827.05 C 1196.07 828.64 1194.16 829.96 1193.75 829.97 Z M 1254.87 830.0 C 1255.35 830.0 1255.79 827.52 1255.86 824.5 C 1255.96 820.33 1255.64 819.0 1254.55 819.0 C 1253.76 819.0 1252.81 819.5 1252.43 820.11 C 1252.05 820.72 1252.29 821.56 1252.96 821.98 C 1253.63 822.39 1254.09 824.03 1253.98 825.61 C 1253.88 827.2 1253.84 828.84 1253.89 829.25 C 1253.95 829.66 1254.39 830.0 1254.87 830.0 Z M 1185.02 821.0 C 1184.53 821.0 1183.83 820.53 1183.47 819.96 C 1183.12 819.38 1183.37 818.26 1184.04 817.46 C 1184.7 816.66 1185.86 816.0 1186.62 816.0 C 1187.38 816.0 1188.0 816.25 1188.0 816.57 C 1188.0 816.88 1187.53 818.0 1186.96 819.07 C 1186.4 820.13 1185.52 821.0 1185.02 821.0 Z M 1245.06 821.0 C 1244.6 821.0 1243.97 820.01 1243.66 818.79 C 1243.34 817.58 1243.3 816.37 1243.56 816.1 C 1243.83 815.84 1244.77 816.34 1245.64 817.21 C 1246.52 818.09 1246.93 819.3 1246.56 819.9 C 1246.19 820.51 1245.51 821.0 1245.06 821.0 Z M 1264.44 804.0 C 1264.68 804.0 1265.16 803.55 1265.5 803.0 C 1265.84 802.45 1265.64 802.0 1265.06 802.0 C 1264.48 802.0 1264.0 802.45 1264.0 803.0 C 1264.0 803.55 1264.2 804.0 1264.44 804.0 Z M 1165.0 802.0 C 1165.55 802.0 1166.0 801.55 1166.0 801.0 C 1166.0 800.45 1165.55 800.0 1165.0 800.0 C 1164.45 800.0 1164.0 800.45 1164.0 801.0 C 1164.0 801.55 1164.45 802.0 1165.0 802.0 Z M 1162.5 798.0 C 1163.33 798.0 1164.0 797.55 1164.0 797.0 C 1164.0 796.45 1163.33 796.0 1162.5 796.0 C 1161.67 796.0 1161.0 796.45 1161.0 797.0 C 1161.0 797.55 1161.67 798.0 1162.5 798.0 Z " opacity="1.0" fill="#000000" stroke="none" fill-rule="evenodd"/></svg>