<svg version="1.0" xmlns="http://www.w3.org/2000/svg"
 width="1200.000000pt" height="1600.000000pt" viewBox="0 0 1200.000000 1600.000000"
 preserveAspectRatio="xMidYMid meet">

<g transform="translate(0.000000,1600.000000) scale(0.100000,-0.100000)"
fill="#000000" stroke="none">
<path d="M2970 7182 c0 -9 -92 -42 -116 -42 -8 0 -45 -15 -82 -34 -115 -58
-211 -88 -298 -93 -73 -5 -83 -4 -102 15 -18 18 -20 26 -12 47 6 15 10 36 10
49 l0 22 -81 -27 c-78 -26 -178 -74 -189 -90 -3 -4 -62 -7 -130 -5 -131 2
-160 -6 -160 -44 0 -20 33 -53 43 -43 4 3 7 1 7 -5 0 -7 -4 -12 -9 -12 -5 0
-14 -12 -19 -27 -7 -18 -11 -22 -11 -10 -1 15 -5 16 -21 7 -11 -6 -20 -8 -20
-4 0 3 -15 -6 -32 -21 -26 -21 -34 -38 -39 -74 -30 -215 -37 -276 -34 -292 5
-25 58 -119 68 -119 4 0 7 -7 7 -16 0 -8 4 -13 10 -9 5 3 7 12 4 19 -3 8 15
43 40 77 33 45 44 69 40 84 -6 17 -3 17 22 -7 24 -22 35 -26 64 -22 19 3 41
11 48 16 7 6 14 9 15 7 58 -85 60 -90 47 -148 -10 -50 -9 -61 9 -101 11 -25
21 -52 21 -60 1 -31 97 -150 121 -150 18 0 30 34 28 82 -1 29 2 79 6 111 9 70
49 117 101 117 20 0 51 14 88 41 64 46 87 87 105 185 10 52 9 58 -9 71 -11 8
-20 21 -20 28 0 21 53 45 97 45 25 0 52 9 76 26 45 30 165 77 178 69 14 -9 11
-49 -6 -71 -16 -22 -19 -71 -6 -106 5 -13 44 -60 87 -106 78 -82 80 -84 139
-92 45 -6 64 -4 75 5 13 12 15 10 16 -13 5 -84 18 -159 32 -174 14 -17 16 -16
43 3 16 11 53 56 84 100 60 88 64 116 19 139 -13 8 -24 17 -24 21 0 23 42 99
65 117 15 12 24 25 21 30 -14 23 -37 171 -35 227 1 34 -1 66 -4 72 -4 6 -23
14 -43 17 -68 13 -183 74 -237 125 -48 45 -97 67 -97 43z"/>
<path d="M9078 7136 c-40 -38 -78 -62 -135 -85 -43 -18 -88 -36 -101 -41 -27
-12 -42 -47 -42 -103 0 -43 -26 -192 -36 -208 -3 -5 8 -20 24 -34 16 -13 37
-45 47 -70 15 -41 15 -48 2 -58 -35 -28 -29 -59 29 -144 31 -46 69 -92 84
-103 l29 -21 14 23 c13 20 25 90 31 165 0 12 5 18 10 13 4 -4 34 -6 65 -3 55
5 57 6 133 86 49 50 84 98 95 125 17 44 16 45 -10 92 -22 39 -24 50 -14 64 12
16 17 16 80 -8 36 -14 83 -36 104 -50 24 -17 51 -26 75 -26 65 0 113 -35 88
-65 -12 -15 2 -171 19 -203 25 -46 86 -80 181 -99 72 -14 112 -99 103 -220 -4
-54 -2 -67 13 -78 16 -11 23 -10 46 7 35 24 88 100 94 134 3 14 12 43 20 65
13 32 14 47 5 84 -16 64 -14 88 12 134 23 40 24 40 43 21 10 -10 35 -21 54
-24 29 -4 40 0 66 25 21 21 31 25 31 14 0 -8 -4 -15 -9 -15 -16 0 -8 -16 38
-79 51 -70 55 -70 102 3 27 43 27 26 -3 250 -18 138 -38 181 -85 188 -22 3
-30 0 -31 -11 0 -9 -5 -4 -11 12 -5 15 -14 27 -19 27 -5 0 -9 5 -9 11 0 5 4 8
9 5 4 -3 17 4 27 15 17 19 17 23 3 47 l-15 27 -132 -2 c-84 -1 -132 2 -132 8
0 6 -9 8 -20 4 -11 -3 -20 -3 -20 2 0 13 -83 53 -172 83 -46 16 -84 27 -84 27
-1 -1 4 -24 11 -51 12 -45 11 -50 -8 -69 -17 -17 -29 -19 -101 -14 -86 5 -181
35 -296 92 -36 17 -91 37 -123 44 -31 7 -63 19 -71 27 -25 24 -49 15 -108 -40z"/>
</g>
</svg>
