<?xml version="1.0" encoding="utf-8"?>
<!-- Generator: Adobe Illustrator 16.0.0, SVG Export Plug-In . SVG Version: 6.00 Build 0)  -->
<!DOCTYPE svg PUBLIC "-//W3C//DTD SVG 1.1//EN" "http://www.w3.org/Graphics/SVG/1.1/DTD/svg11.dtd">
<svg version="1.1" xmlns="http://www.w3.org/2000/svg" xmlns:xlink="http://www.w3.org/1999/xlink" x="0px" y="0px" width="1200px"
	 height="1600px" viewBox="0 0 1200 1600" enable-background="new 0 0 1200 1600" xml:space="preserve">
<g id="Layer_2">
	<path d="M557,330.625"/>
	<path fill="#EFEFEF" d="M590.5,374.833c0,0,5.125,3.375,8.958,4.083s12.292,2.292,18.875-0.708s8.084-6.083-4.125-8
		s-21.334,2.75-21.209,2.042S590.5,374.833,590.5,374.833z"/>
</g>
<g id="Layer_1">
	<g transform="translate(0.000000,1600.000000) scale(0.100000,-0.100000)">
		<path d="M5675.996,12330.994c-3.994-5,12.002-25,34.004-43.994c40-34.004,80-47.002,147.002-47.002c17.998,0,55-9.004,83.003-20
			c16.953-6.66,39.531-13.623,57.495-16.664c35.889-6.08,87.773-10.133,90.83-3.682c1.729,3.652-46.455-0.592-115.83,22.846
			c-41.553,14.039-50.547,27.236-39.209,35.303c9.595,6.822,22.656,11.182,33.75,14.703c40.869,12.973,85.898,13.242,128.398,13.891
			c23.838,0.367,47.725-0.414,71.191-4.906c13.662-2.613,54.756-9.746,53.301-30.24c-1.387-19.594-39.932-31.729-54.307-36.459
			c-1.338-0.439-38.877-10.459-38.545-12.291c0.4-2.236,36.973,5.137,38.545,5.416c28.535,5.033,54.307,16.283,82.275,25.014
			c19.102,5.963,40.215,7.07,60.098,7.07c57.998,0,102.998,17.998,152.002,59.004c32.002,26.992,32.998,30,15.996,36.992
			c-13.994,5-24.121,2.314-39.121-15.684c-3.174-4.008-2.256-10.986-5.625-14.375c-37.002-37.182-95.371-36.514-261.25-9.941
			c-87.002,15-102.002,15-182.002,0c-127.002-23.994-258.994-20-257.002,7.002c0,9.004-30.996,36.006-42.998,37.002
			C5684.003,12339.998,5679.003,12335.994,5675.996,12330.994z"/>
	</g>
</g>
</svg>
