<?xml version="1.0" standalone="no"?>
<!DOCTYPE svg PUBLIC "-//W3C//DTD SVG 20010904//EN"
 "http://www.w3.org/TR/2001/REC-SVG-20010904/DTD/svg10.dtd">
<svg version="1.0" xmlns="http://www.w3.org/2000/svg"
 width="1200.000000pt" height="1600.000000pt" viewBox="0 0 1200.000000 1600.000000"
 preserveAspectRatio="xMidYMid meet">

<g transform="translate(0.000000,1600.000000) scale(0.100000,-0.100000)"
fill="#000000" stroke="none">
<path d="M5328 11525 c-2 -2 -30 -6 -63 -9 -66 -8 -167 -23 -230 -34 -46 -8
-59 -26 -161 -208 -58 -103 -66 -125 -75 -197 -17 -135 -31 -182 -53 -182 -15
0 -29 -22 -60 -101 -23 -55 -59 -125 -80 -155 -41 -57 -66 -110 -116 -255 -17
-49 -47 -113 -67 -142 -20 -29 -37 -63 -38 -75 -2 -12 -8 -35 -14 -50 -16 -42
-14 -84 6 -91 9 -4 19 -3 22 1 54 74 67 103 126 278 59 176 78 223 117 293 29
53 43 70 49 61 5 -8 9 -22 9 -31 0 -31 18 -20 105 63 108 103 144 170 93 168
-13 0 -17 -3 -11 -6 21 -8 -13 -61 -85 -135 -37 -38 -70 -68 -73 -68 -14 0
-30 63 -19 74 5 5 10 17 10 25 0 23 31 101 41 101 4 0 11 -11 16 -24 l8 -25
43 20 c49 23 56 43 12 37 -18 -3 -31 0 -34 8 -6 16 -3 18 49 34 22 7 54 18 70
26 17 7 53 22 80 33 67 26 256 210 304 296 65 116 110 175 129 169 12 -4 10 0
-7 15 -13 12 -18 21 -12 21 6 0 11 7 11 16 0 8 4 12 10 9 6 -3 7 1 4 9 -3 9
-22 18 -42 21 -21 3 -45 8 -54 9 -9 2 -18 3 -20 1z m32 -70 c0 -12 -81 -192
-105 -234 -24 -43 -207 -219 -249 -240 -37 -19 -151 -60 -167 -61 -7 0 -4 110
5 168 4 31 115 236 161 297 18 24 38 34 106 52 139 36 249 45 249 18z m10 -70
c-29 -46 -35 -40 -12 13 9 23 21 37 26 32 5 -5 -1 -24 -14 -45z"/>
<path d="M5125 11184 c-16 -14 -51 -43 -77 -65 -46 -38 -75 -48 -93 -30 -12
10 -75 32 -75 26 0 -5 75 -40 108 -49 13 -4 22 -3 22 3 0 5 28 31 61 58 97 75
105 83 94 82 -5 0 -23 -11 -40 -25z"/>
<path d="M6727 11513 c-13 -3 -16 -10 -11 -26 4 -12 12 -25 18 -29 8 -6 8 -8
0 -8 -7 0 -14 -7 -17 -14 -4 -10 -1 -13 7 -10 11 4 99 -122 136 -196 18 -36
242 -260 260 -260 9 0 21 -5 28 -12 7 -7 12 -8 12 -4 0 5 10 2 23 -6 19 -12
101 -46 150 -62 9 -3 17 -12 17 -20 0 -11 -9 -13 -40 -9 -22 3 -40 3 -40 -1 0
-3 23 -17 50 -31 43 -22 51 -23 55 -10 16 51 16 50 25 35 5 -8 19 -46 31 -83
21 -67 20 -117 -2 -117 -24 0 -146 131 -159 170 -13 38 -23 49 -34 32 -11 -19
31 -81 109 -158 47 -46 89 -84 94 -84 5 0 12 14 16 30 8 36 16 38 31 7 6 -12
25 -47 42 -78 27 -49 95 -227 109 -284 2 -11 9 -29 14 -40 5 -11 18 -46 28
-77 38 -113 111 -185 111 -111 0 39 -38 157 -59 184 -25 33 -44 75 -91 209
-25 71 -58 141 -87 184 -26 39 -58 97 -70 130 -46 118 -57 137 -75 132 -23 -5
-34 31 -48 157 -12 105 -21 126 -150 341 -46 77 -52 82 -105 90 -17 3 -75 12
-130 20 -96 15 -210 19 -248 9z m323 -78 c73 -21 119 -51 120 -78 0 -5 8 -21
19 -35 10 -15 27 -43 38 -62 11 -19 34 -60 51 -90 27 -48 32 -70 38 -153 4
-53 5 -97 2 -97 -9 0 -104 32 -135 46 -17 8 -36 14 -42 14 -13 0 -198 183
-233 231 -15 20 -39 67 -54 105 -15 38 -36 82 -45 98 -14 23 -16 33 -6 44 16
20 142 8 247 -23z m-250 -42 c8 -21 17 -42 19 -48 2 -5 -8 5 -23 24 -26 34
-34 61 -18 61 4 0 14 -17 22 -37z"/>
<path d="M7005 11191 c20 -23 121 -99 112 -84 -3 5 -34 31 -69 58 -35 27 -54
39 -43 26z"/>
<path d="M7266 11121 c-3 -4 -26 -16 -52 -26 -37 -14 -51 -15 -66 -6 -22 13
-24 5 -4 -15 13 -12 22 -11 70 8 31 13 58 29 61 36 5 14 -1 16 -9 3z"/>
<path d="M5380 10685 c0 -21 -60 -129 -129 -235 -124 -189 -333 -474 -359
-489 -9 -6 -13 -11 -8 -11 4 0 -6 -12 -23 -27 -17 -15 -31 -33 -31 -39 0 -7
-13 -26 -30 -44 -38 -40 -38 -44 0 -25 16 8 35 15 42 15 25 0 244 280 369 470
139 211 223 400 179 400 -5 0 -10 -7 -10 -15z"/>
<path d="M6754 10683 c3 -10 10 -37 16 -61 6 -24 20 -60 32 -80 64 -117 90
-159 164 -272 45 -69 101 -150 125 -181 69 -88 162 -204 169 -209 4 -3 12 -15
19 -27 6 -13 20 -23 29 -23 10 0 27 -7 38 -15 40 -30 47 -14 11 23 -20 21 -37
41 -37 46 0 4 -21 31 -46 60 -45 49 -152 190 -222 293 -19 26 -55 77 -80 113
-73 102 -138 206 -174 281 -30 63 -56 93 -44 52z"/>
<path d="M7276 10687 c3 -10 9 -15 12 -12 3 3 0 11 -7 18 -10 9 -11 8 -5 -6z"/>
<path d="M4844 10659 c-16 -16 -22 -28 -14 -24 13 5 56 55 47 55 -2 0 -16 -14
-33 -31z"/>
<path d="M7300 10656 c0 -2 8 -10 18 -17 15 -13 16 -12 3 4 -13 16 -21 21 -21
13z"/>
</g>
</svg>
