<svg version="1.1" id="Layer_1" xmlns="http://www.w3.org/2000/svg" xmlns:xlink="http://www.w3.org/1999/xlink" x="0px" y="0px"
	 width="1200px" height="1600px" viewBox="0 0 1200 1600" enable-background="new 0 0 1200 1600" xml:space="preserve">
<g transform="translate(0.000000,1600.000000) scale(0.100000,-0.100000)">
	<path d="M6350,12584.002c-9.883,10.592-35.234,31.148-63.711,51.822c-24.102,10.951-47.539,23.129-69.854,37.666
		c-8.721,5.678-17.275,12.025-25.869,18.393c-5.488,3.336-10.996,6.641-16.484,9.971c-22.266,7.681-44.834,13.96-68.252,15.645
		c-3.125,0.225-6.055,0.742-8.877,1.396c-6.943,0.068-14.199,0.107-21.953,0.107c-13.896,0-28.965-0.801-40.469-2.144
		c-1.143-0.337-2.295-0.684-3.438-1.021c-19.092-7.549-38.184-15.092-56.768-23.955c-36.67-17.494-71.66-37.5-109.219-53.09
		c-9.468-8.213-17.495-15.104-22.109-18.795c-10-9.004-27.002-27.002-37.998-40l-20-25l20,15.996
		c32.998,26.006,92.998,58.008,99.004,52.002c2.998-2.998,2.998-17.998-1.006-32.998c-5-25.996,0-30.996,65-69.004
		c92.002-55,130-60.996,174.004-27.998c17.998,12.998,47.002,32.002,65,41.006c38.994,20,58.994,51.992,43.994,70
		c-15.996,18.994,0,27.998,23.008,12.998c11.992-7.002,38.994-24.004,60.996-37.002l40-22.998L6350,12584.002z M6210.996,12587
		c-23.994,5.996-76.992-21.006-90.996-47.998c-9.004-16.006-2.998-14.004,30.996,10c47.002,35,74.004,30.996,35-5
		c-52.998-50-117.998-58.008-185-24.004c-43.994,22.002-55,35-45.996,50.996c4.004,6.006,19.004,1.006,37.998-13.994
		c52.002-39.004,64.004-42.002,31.006-7.002c-20,20.996-43.008,32.998-63.008,35c-43.994,2.998-45.996,9.004-21.992,47.998
		c17.998,30,60.996,56.006,110,69.004c28.994,7.998,97.998-9.004,128.994-31.006
		C6227.998,12635.994,6250.996,12575.994,6210.996,12587z"/>
</g>
<path d="M603.41,325.947c3.283-0.243,9.26-0.168,11.165-0.016c3.814,0.335,0.646-0.167-3.633-0.566
	c-1.757-0.164-4.528-0.254-9.159,0.448C598.565,326.301,598.154,326.323,603.41,325.947z"/>
<path d="M604.138,324.269c2.673-0.196,7.539-0.139,9.09-0.018c3.104,0.267,0.526-0.134-2.957-0.452
	c-1.429-0.13-3.685-0.201-7.457,0.364C600.192,324.554,599.856,324.572,604.138,324.269z"/>
<path d="M600.689,327.607c-5.63,1.161-9.368,2.192-2.124,0.804c9.577-1.598,10.861-1.208,16.68-0.194
	c4.916,0.856,6.854,1.321,5.995,0.921c-0.924-0.429-10.974-2.578-13.754-2.464C606.026,326.71,603.036,327.281,600.689,327.607z"/>
</svg>
