<?xml version="1.0" encoding="UTF-8" standalone="no"?>
<!-- Created with Inkscape (http://www.inkscape.org/) -->

<svg
   version="1.1"
   id="svg1"
   width="1200"
   height="1600"
   viewBox="0 0 1200 1600"
   xml:space="preserve"
   xmlns="http://www.w3.org/2000/svg"
   xmlns:svg="http://www.w3.org/2000/svg"><defs
     id="defs1" /><g><path
     style="display:inline;fill:#000000"
     d="M 521.70304,282.08039 C 513.63833,274.6466 505.03607,251.46758 502.56037,230.5 c -0.32469,-2.75 -1.08782,-8.21584 -1.69584,-12.14631 -6.62885,-42.85189 18.80147,-114.0152 51.50556,-144.131358 8.59426,-7.914182 12.41753,-7.803372 19.22808,0.557291 19.1651,23.527173 34.53923,67.574577 35.50407,101.720377 0.10505,3.71782 0.47163,2.28366 1.42952,-5.59267 C 614.13057,124.87084 636.366,71.5768 651.21356,68.607287 662.907,66.2686 690.46701,104.45874 703.81678,141.5 c 16.03666,44.49654 13.73843,106.79401 -4.97093,134.74556 -2.78763,4.16469 -9.52577,10.03054 -8.54529,7.43905 0.5676,-1.50019 0.29729,-1.7155 -1.55685,-1.24008 -1.40919,0.36133 -1.06818,-0.038 0.91682,-1.07367 5.17664,-2.70085 17.63294,-37.69989 19.17287,-53.87086 5.22656,-54.88463 -10.92051,-105.20219 -46.30364,-144.291567 -11.30357,-12.487582 -16.40573,-8.957198 -31.7691,21.982267 -16.26301,32.75123 -25.63231,95.1467 -16.40245,109.23325 0.78026,1.19082 1.94793,6.42009 2.59483,11.62059 1.57206,12.63806 7.66015,25.29481 16.63608,34.58539 3.38488,3.50354 5.79344,6.37007 5.35236,6.37007 -2.19502,0 -11.52775,-10.47339 -16.03962,-18 -4.64123,-7.7424 -5.04747,-8.16377 -4.55785,-4.72759 0.68262,4.7907 -0.41771,4.09824 -3.81651,-2.40184 -1.85296,-3.54372 -3.16871,-8.45127 -4.22496,-15.7585 -2.08419,-14.41851 -2.60303,-14.73805 -4.6482,-2.86276 -2.55173,14.81668 -9.55984,32.04294 -8.49551,20.88238 0.50631,-5.30914 0.5158,-5.3161 -3.3552,2.46196 C 590.57802,253.07489 580.84403,265 578.77925,265 c -0.57911,0 0.93852,-2.1375 3.37251,-4.75 C 586.2835,255.81524 594,244.22114 594,242.44793 c 0,-0.43475 0.69588,-1.55938 1.54639,-2.49919 0.98838,-1.09214 1.90576,-5.27036 2.54226,-11.57874 0.61946,-6.13939 1.78364,-11.51899 3.08005,-14.23271 9.01985,-18.88075 -0.27968,-76.25003 -18.2205,-112.40318 C 568.77718,73.17759 563.55376,70.386237 551.24827,84.793928 519.91144,121.48418 504.01304,165.3626 505.59324,210.79847 c 0.64208,18.46169 1.4413,23.12132 7.58147,44.20153 7.14495,24.52978 12.73344,30.03235 27.04946,26.63356 3.14829,-0.74744 5.52175,-1.03147 5.27435,-0.63117 -1.387,2.24422 -16.54989,3.31997 -19.66436,1.39511 -1.27222,-0.78627 -0.99366,1.043 0.36584,2.4025 3.03443,3.03443 -0.71367,0.76771 -4.49696,-2.71961 z"
     id="path1" /></g></svg>
