<?xml version="1.0" encoding="UTF-8" standalone="no"?>
<!-- Created with Inkscape (http://www.inkscape.org/) -->

<svg
   version="1.1"
   id="svg1"
   width="1200"
   height="1600"
   viewBox="0 0 1200 1600"
   xml:space="preserve"
   xmlns="http://www.w3.org/2000/svg"
   xmlns:svg="http://www.w3.org/2000/svg"><defs
     id="defs1" /><g><path
     d="m 652.58984,72.001953 c -3.4072,0.07897 -6.54656,4.117336 -12.98828,13.917969 -23.85048,36.286888 -40.1087,122.291218 -25.88086,136.908198 2.06786,2.12441 3.22313,4.74404 3.86133,8.75977 0.32743,2.06027 0.95112,4.68242 1.38672,5.82813 0.43559,1.1457 0.90615,2.53398 1.04492,3.08398 1.32435,5.24886 16.53851,22.4382 23.48633,26.53516 2.2,1.29728 4.33029,2.83308 4.73437,3.41211 0.40409,0.57904 0.742,0.68432 0.75,0.23437 0.008,-0.44996 1.25313,0.0622 2.76563,1.13672 4.27971,3.04047 9.42644,5.20744 18.14844,7.64062 2.96929,0.82835 5.63113,1.73856 5.91601,2.02344 1.80115,1.80115 17.30251,-1.01245 16.53907,-3.00195 -0.25695,-0.6696 0.40723,-1.44548 1.4746,-1.72461 9.40089,-2.45839 20.18555,-53.07042 18.11133,-84.99414 -2.72457,-41.9331 -26.91668,-95.745988 -52.15625,-116.013673 -3.00844,-2.415822 -5.14903,-3.793475 -7.19336,-3.746094 z m -89.68945,0.527344 c -4.9583,-0.645696 -10.46476,4.563947 -19.18555,15.970703 -27.09448,35.43947 -40.90883,74.81974 -40.86523,116.5 0.0267,25.51064 9.22702,62.01024 17.78906,70.57227 1.88523,1.88523 2.85037,3.47139 2.14453,3.52539 -0.70583,0.054 0.7418,0.68533 3.2168,1.40234 24.28596,7.03564 66.836,-21.89279 71.875,-48.86523 0.47901,-2.56399 2.16594,-6.53194 3.74805,-8.81641 C 613.50275,205.66482 598.21298,115.13161 579.5293,92 c -0.66636,-0.825 -2.82927,-4.2 -4.80469,-7.5 -4.444,-7.423837 -7.96776,-11.468495 -11.82422,-11.970703 z"
     style="baseline-shift:baseline;display:inline;overflow:visible;vector-effect:none;enable-background:accumulate;stop-color:#000000;stop-opacity:1"
     id="path17" /></g></svg>
