<?xml version="1.0" encoding="UTF-8" standalone="no"?>
<!-- Created with Inkscape (http://www.inkscape.org/) -->

<svg
   version="1.1"
   id="svg1"
   width="1200"
   height="1600"
   viewBox="0 0 1200 1600"
   xml:space="preserve"
   xmlns="http://www.w3.org/2000/svg"
   xmlns:svg="http://www.w3.org/2000/svg"><defs
     id="defs1" /><g><path
     style="display:inline;fill:#000000;fill-opacity:1;stroke-width:1.01554"
     d="m 548.41023,256.3102 c -18.71281,-15.11679 -21.72867,-54.95269 -6.34758,-98.18431 1.63272,-4.5891 2.3939,-5.18734 4.75057,-9.51589 5.04516,-9.26656 10.55171,-14.77926 13.13052,-14.7677 6.52137,0.0292 12.76608,13.43821 17.0528,37.9124 6.18522,35.31332 -4.79526,80.7877 -21.73848,87.42766 -0.67731,0.26544 -2.75149,0.43699 -6.84783,-2.87216 z"
     id="path10" /><path
     style="display:inline;fill:#000000;fill-opacity:1;stroke-width:1.01554"
     d="m 666.33563,256.3102 c 18.71281,-15.11679 21.72867,-54.95269 6.34758,-98.18431 -1.63272,-4.5891 -2.3939,-5.18734 -4.75057,-9.51589 -5.04516,-9.26656 -10.55171,-14.77926 -13.13052,-14.7677 -6.52137,0.0292 -12.76608,13.43821 -17.0528,37.9124 -6.18522,35.31332 4.79526,80.7877 21.73848,87.42766 0.67731,0.26544 2.75149,0.43699 6.84783,-2.87216 z"
     id="path14" /></g></svg>
