<?xml version="1.0" encoding="UTF-8" standalone="no"?>
<!-- Created with Inkscape (http://www.inkscape.org/) -->

<svg
   version="1.1"
   id="svg1"
   width="1200"
   height="1600"
   viewBox="0 0 1200 1600"
   xml:space="preserve"
   xmlns="http://www.w3.org/2000/svg"
   xmlns:svg="http://www.w3.org/2000/svg"><defs
     id="defs1" /><g><path
     style="fill:#000000"
     d="m 526,280.5 c -2.475,-0.71701 -3.9225,-1.34783 -3.21667,-1.40182 0.70584,-0.054 -0.25912,-1.64064 -2.14435,-3.52587 C 512.07694,267.01028 502.87647,230.51064 502.8498,205 c -0.0436,-41.68026 13.76963,-81.06053 40.86411,-116.5 15.50362,-20.278678 20.85382,-20.96877 31.01154,-4 1.97542,3.3 4.13688,6.675 4.80324,7.5 18.68368,23.13161 33.97445,113.66564 22.09475,130.81918 -1.58211,2.28447 -3.26847,6.25139 -3.74748,8.81538 C 592.83696,258.607 550.28596,287.53564 526,280.5 Z m 149.81538,0.98205 c -0.28488,-0.28488 -2.94738,-1.19569 -5.91667,-2.02404 -8.722,-2.43318 -13.869,-4.60003 -18.14871,-7.6405 -1.5125,-1.07453 -2.75689,-1.58556 -2.76531,-1.1356 -0.008,0.44995 -0.34592,0.34434 -0.75,-0.2347 -0.40408,-0.57903 -2.53469,-2.1142 -4.73469,-3.41148 -6.94782,-4.09696 -22.16294,-21.28687 -23.48729,-26.53573 -0.13877,-0.55 -0.60871,-1.93739 -1.0443,-3.08309 -0.4356,-1.14571 -1.05989,-3.76878 -1.38732,-5.82905 -0.6382,-4.01573 -1.79276,-6.63547 -3.86062,-8.75988 -14.22784,-14.61699 2.02982,-100.62025 25.8803,-136.907142 10.30675,-15.681012 12.15923,-16.614749 20.18175,-10.172557 25.23957,20.267685 49.43234,74.079829 52.15691,116.012929 2.07422,31.92372 -8.71097,82.53574 -18.11186,84.99413 -1.06738,0.27913 -1.73045,1.05536 -1.4735,1.72496 0.76344,1.9895 -14.73754,4.8029 -16.53869,3.00175 z"
     id="path15" /></g></svg>
