<?xml version="1.0" encoding="UTF-8" standalone="no"?>
<!-- Created with Inkscape (http://www.inkscape.org/) -->

<svg
   version="1.1"
   id="svg1"
   width="1200"
   height="1600"
   viewBox="0 0 1200 1600"
   xml:space="preserve"
   xmlns="http://www.w3.org/2000/svg"
   xmlns:svg="http://www.w3.org/2000/svg"><defs
     id="defs1" /><path
     id="path1"
     style="display:inline;fill:#000000"
     d="m 562.65234,68.398438 c -2.88141,-0.08351 -5.98607,1.867127 -10.2832,5.824218 -32.70409,30.116154 -58.13276,101.278974 -51.50391,144.130864 0.60802,3.93047 1.37063,9.39648 1.69532,12.14648 2.4757,20.96758 11.07787,44.14629 19.14257,51.58008 3.78329,3.48732 7.53053,5.75513 4.4961,2.7207 -1.3595,-1.3595 -1.63746,-3.18861 -0.36524,-2.40234 3.11447,1.92486 18.27707,0.84773 19.66407,-1.39649 0.2474,-0.4003 -2.12515,-0.11658 -5.27344,0.63086 -14.31602,3.39879 -19.90583,-2.10303 -27.05078,-26.63281 -6.14017,-21.08021 -6.938,-25.73948 -7.58008,-44.20117 -1.5802,-45.43587 14.31747,-89.31561 45.6543,-126.005861 12.30549,-14.407691 17.5282,-11.615114 31.69922,16.941411 17.94082,36.15315 27.24055,93.52159 18.2207,112.40234 -1.29641,2.71372 -2.46062,8.09303 -3.08008,14.23242 -0.6365,6.30838 -1.55263,10.48794 -2.54101,11.58008 -0.85051,0.93981 -1.54688,2.0633 -1.54688,2.49805 0,1.77321 -7.71592,13.36797 -11.84766,17.80273 -2.43399,2.6125 -3.95215,4.75 -3.37304,4.75 2.06478,0 11.79782,-11.92501 15.02343,-18.40625 3.871,-7.77806 3.86178,-7.77203 3.35547,-2.46289 -1.06433,11.16056 5.94437,-6.06418 8.4961,-20.88086 2.04517,-11.87529 2.56424,-11.55718 4.64843,2.86133 1.05625,7.30723 2.37165,12.21604 4.22461,15.75976 3.3988,6.50008 4.49903,7.19109 3.81641,2.40039 -0.48962,-3.43618 -0.0826,-3.01388 4.55859,4.72852 4.51187,7.52661 13.84405,18 16.03907,18 0.44108,0 -1.96669,-2.8656 -5.35157,-6.36914 -8.97593,-9.29058 -15.06466,-21.94788 -16.63672,-34.58594 -0.64689,-5.2005 -1.81544,-10.43027 -2.5957,-11.62109 -9.22986,-14.08655 0.13934,-76.48119 16.40235,-109.23242 15.36337,-30.939469 20.46596,-34.470008 31.76953,-21.982426 35.38313,39.089376 51.53124,89.406386 46.30468,144.291016 -1.53993,16.17097 -13.99718,51.17024 -19.17382,53.87109 -1.985,1.03567 -2.32521,1.43555 -0.91602,1.07422 1.85414,-0.47542 2.12424,-0.25995 1.55664,1.24024 -0.98048,2.59149 5.75729,-3.27477 8.54492,-7.43946 18.70936,-27.95155 21.00737,-90.24955 4.97071,-134.74609 -13.34977,-37.04126 -40.91008,-75.231265 -52.60352,-72.892578 -14.84756,2.969513 -37.08283,56.264288 -42.68164,102.300778 -0.95789,7.87633 -1.32464,9.30962 -1.42969,5.5918 -0.96484,-34.1458 -16.3388,-78.19353 -35.5039,-101.720703 -3.40528,-4.180332 -6.0639,-6.297347 -8.94532,-6.380859 z m -2.66015,36.937502 c -0.15588,0.007 -0.31383,0.0237 -0.47461,0.0508 -0.83729,0.14042 -1.71174,0.5295 -2.21289,0.8164 -1.44818,0.82882 -2.76211,2.00335 -3.95703,3.33008 -1.73982,1.93013 -3.23105,4.1824 -4.54493,6.12696 -3.89943,5.79039 -7.31248,12.01393 -10.13671,18.49804 -2.81886,6.47197 -5.04792,13.19673 -6.7793,19.91992 -0.008,0.0289 0.009,0.0569 0.0371,0.0645 0.0284,0.008 0.0587,-0.009 0.0664,-0.0371 1.89561,-6.66096 4.35077,-13.28092 7.26172,-19.69141 2.90865,-6.40291 6.27461,-12.59975 10.18555,-18.33398 1.30007,-1.91343 2.77505,-4.13344 4.49414,-6.0332 1.14121,-1.2607 2.38965,-2.3797 3.76953,-3.16602 0.44205,-0.25199 1.21052,-0.5946 1.94727,-0.7168 0.43592,-0.0721 0.86064,-0.0772 1.16992,0.11328 1.58403,0.97076 3.10959,2.65765 4.49023,4.57032 2.04527,2.83182 3.76667,6.16435 4.84571,8.50586 1.19799,2.51835 4.06382,8.11739 6.85351,14.97265 1.31388,3.22802 2.60156,6.73643 3.70899,10.32422 0.005,0.0137 0.0186,0.0222 0.0332,0.0176 0.0138,-0.004 0.0222,-0.0188 0.0176,-0.0332 -1.31004,-4.58359 -2.9316,-9.03759 -4.49414,-12.97071 -2.28624,-5.75396 -4.45481,-10.38378 -5.43946,-12.61523 -1.08594,-2.38098 -2.81605,-5.77315 -4.88281,-8.6543 -1.44204,-2.00983 -3.05093,-3.76821 -4.71094,-4.78906 -0.34362,-0.21062 -0.78041,-0.28935 -1.24804,-0.26953 z m 94.64062,0 c -0.46763,-0.0198 -0.90246,0.0589 -1.24609,0.26953 -1.66,1.02085 -3.26889,2.77923 -4.71094,4.78906 -2.06675,2.88115 -3.79686,6.27332 -4.88281,8.6543 -0.98464,2.23145 -3.15516,6.86127 -5.44141,12.61523 -1.56177,3.93312 -3.18409,8.38712 -4.49414,12.97071 -0.005,0.0144 0.004,0.0294 0.0176,0.0332 0.0146,0.005 0.0306,-0.004 0.0352,-0.0176 1.10744,-3.58779 2.3951,-7.0962 3.70898,-10.32422 2.7897,-6.85526 5.65552,-12.4543 6.85352,-14.97265 1.07981,-2.34151 2.80044,-5.67404 4.8457,-8.50586 1.38065,-1.91267 2.90621,-3.59956 4.49023,-4.57032 0.30929,-0.19051 0.73283,-0.18539 1.16797,-0.11328 0.73753,0.1222 1.50716,0.46481 1.94922,0.7168 1.37988,0.78632 2.6291,1.90531 3.76953,3.16602 1.7191,1.89977 3.19408,4.11977 4.49414,6.0332 3.91095,5.73423 7.2769,11.93107 10.18555,18.33398 2.91095,6.41049 5.36416,13.03045 7.25977,19.69141 0.008,0.0281 0.038,0.0447 0.0664,0.0371 0.0284,-0.008 0.0468,-0.0356 0.0391,-0.0645 -1.73061,-6.72319 -3.96044,-13.44795 -6.77929,-19.91992 -2.82423,-6.48411 -6.23728,-12.70765 -10.13672,-18.49804 -1.31464,-1.94456 -2.80706,-4.19683 -4.54688,-6.12696 -1.19493,-1.32673 -2.50688,-2.50126 -3.95507,-3.33008 -0.50114,-0.2869 -1.3756,-0.67598 -2.21289,-0.8164 -0.16079,-0.0271 -0.32069,-0.0442 -0.47657,-0.0508 z m -94.45508,28.21289 c -2.53207,0.16936 -6.13876,3.90537 -9.55273,8.73047 -4.21178,5.95281 -8.19544,13.50846 -9.63672,17.6875 -4.7774,13.83197 -9.07259,32.94106 -9.17773,50.99609 -0.0729,12.42631 1.84146,24.35469 6.92968,33.73438 1.39216,2.56238 3.39818,5.5144 5.73047,8.16406 2.34457,2.66256 5.02018,5.01726 7.72852,6.3789 2.27013,1.14078 5.31067,-0.12623 8.16406,-2.87304 2.80274,-2.69748 5.41895,-6.79156 7.125,-10.98047 0.01,-0.0228 -10e-4,-0.0475 -0.0234,-0.0566 -0.0223,-0.01 -0.0486,0.001 -0.0586,0.0234 -1.87258,4.0576 -4.68484,7.9231 -7.51367,10.52343 -2.65386,2.44093 -5.31564,3.79569 -7.38086,2.75586 -2.6362,-1.32749 -5.23323,-3.63068 -7.51563,-6.22265 -2.29699,-2.60944 -4.27623,-5.51301 -5.64843,-8.03516 -5.05906,-9.28254 -6.96361,-21.09998 -6.91602,-33.41016 0.0691,-17.99204 4.3128,-37.04072 9.04492,-50.83398 1.42669,-4.15096 5.36892,-11.6612 9.55078,-17.57227 3.50572,-4.95398 7.12758,-8.82473 9.57422,-8.49609 2.84572,0.38329 5.46992,4.21781 7.68555,8.90234 2.92784,6.18735 5.08703,13.89508 5.88672,17.48438 1.66,7.45411 2.80499,15.29195 3.36523,23.1582 0.56254,7.88675 0.53661,15.80162 -0.14258,23.38477 -0.39217,4.65037 -1.21986,10.05315 -2.28125,15.41015 -1.06216,5.35928 -2.35781,10.67304 -3.8789,15.10938 -0.005,0.0137 0.002,0.0287 0.0156,0.0332 0.0138,0.005 0.0286,-0.002 0.0332,-0.0156 1.6623,-4.39839 3.18511,-9.6686 4.35546,-15.01953 1.17192,-5.35928 1.98589,-10.79386 2.41797,-15.46094 0.66462,-7.6173 0.67038,-15.56695 0.0879,-23.48633 -0.58019,-7.89282 -1.74429,-15.75674 -3.42578,-23.23438 -0.93706,-4.17144 -3.709,-13.86669 -7.38281,-20.35156 -1.99921,-3.52858 -4.28963,-6.09756 -6.66797,-6.41406 -0.15886,-0.0212 -0.32338,-0.025 -0.49219,-0.0137 z m 94.26954,0 c -0.16881,-0.0113 -0.33333,-0.007 -0.49219,0.0137 -2.37834,0.3165 -4.6668,2.88548 -6.66602,6.41406 -3.6738,6.48487 -6.44575,16.18012 -7.38281,20.35156 -1.68149,7.47765 -2.84754,15.34351 -3.42773,23.23633 -0.5825,7.91938 -0.57674,15.86708 0.0879,23.48438 0.43207,4.66708 1.24607,10.10166 2.41797,15.46094 1.17037,5.35093 2.69511,10.62114 4.35742,15.01953 0.005,0.0129 0.0202,0.0201 0.0332,0.0156 0.013,-0.005 0.0201,-0.0196 0.0156,-0.0332 -1.5211,-4.43634 -2.81675,-9.7501 -3.8789,-15.10938 -1.06139,-5.357 -1.88985,-10.75978 -2.28125,-15.41015 -0.67997,-7.58315 -0.70512,-15.49802 -0.14258,-23.38477 0.56101,-7.86625 1.70524,-15.70409 3.36523,-23.1582 0.7997,-3.5893 2.95965,-11.29703 5.88672,-17.48438 2.21641,-4.68453 4.83788,-8.51905 7.6836,-8.90234 2.44664,-0.32864 6.06849,3.54211 9.57422,8.49609 4.18186,5.91107 8.1268,13.42131 9.55273,17.57227 4.73212,13.79326 8.97585,32.84194 9.04492,50.83398 0.0476,12.31018 -1.85815,24.12762 -6.91797,33.41016 -1.37221,2.52215 -3.35067,5.42572 -5.64843,8.03516 -2.28241,2.59197 -4.87943,4.89516 -7.51563,6.22265 -2.06522,1.03983 -4.72504,-0.31493 -7.3789,-2.75586 -2.82884,-2.60033 -5.64304,-6.46583 -7.51563,-10.52343 -0.009,-0.022 -0.0364,-0.0332 -0.0586,-0.0234 -0.0217,0.009 -0.03,0.0363 -0.0215,0.0586 1.70607,4.18834 4.32068,8.28139 7.12305,10.97852 2.85339,2.74681 5.89665,4.01382 8.16601,2.87304 2.70834,-1.36164 5.38199,-3.71634 7.72657,-6.3789 2.33306,-2.64966 4.3383,-5.60168 5.73047,-8.16406 5.08821,-9.37969 7.00259,-21.30807 6.92968,-33.73438 -0.10514,-18.05503 -4.39915,-37.16412 -9.17578,-50.99609 -1.44128,-4.17904 -5.42493,-11.73469 -9.63672,-17.6875 -3.41397,-4.8251 -7.0226,-8.56111 -9.55468,-8.73047 z m -69.96875,27.40429 c -0.0138,0.003 -0.0225,0.0156 -0.0195,0.0293 2.67074,11.9656 4.1261,24.31212 4.20899,36.65039 0.0829,12.3208 -1.20266,24.63931 -4.21875,36.57227 -0.9148,3.69025 -2.03093,7.33529 -3.27344,10.9375 -1.24404,3.60599 -2.61369,7.16934 -4.04883,10.69336 l -4.02343,8.3789 c -0.44128,0.83187 -1.33895,1.30652 -1.26758,0.98243 0.0177,-0.0805 0.096,-0.20033 0.26172,-0.3711 0.0146,-0.0122 0.017,-0.0344 0.004,-0.0488 -0.0123,-0.0137 -0.0331,-0.0141 -0.0469,-0.002 -0.53108,0.3886 -0.40344,0.62208 -0.13867,0.62891 0.3277,0.008 1.07342,-0.33088 1.52929,-0.98438 l 4.14453,-8.39648 c 1.46814,-3.52175 2.87761,-7.0827 4.15235,-10.68946 1.27551,-3.61055 2.41617,-7.26636 3.35937,-10.96875 2.99614,-11.9914 4.32398,-24.36663 4.13672,-36.73828 -0.18726,-12.35952 -1.88432,-24.70735 -4.72851,-36.65625 -0.003,-0.0129 -0.0175,-0.0206 -0.0312,-0.0176 z m 45.66992,0 c -0.0138,-0.003 -0.0282,0.005 -0.0312,0.0176 -2.84341,11.9489 -4.54126,24.29673 -4.72852,36.65625 -0.18725,12.37165 1.13863,24.74688 4.13477,36.73828 0.94397,3.70239 2.08505,7.3582 3.36133,10.96875 1.27397,3.60676 2.68225,7.16771 4.15039,10.68946 l 4.14648,8.39648 c 0.45586,0.6535 1.19964,0.99197 1.52734,0.98438 0.26478,-0.007 0.39437,-0.24031 -0.13671,-0.62891 -0.0138,-0.0121 -0.0346,-0.0117 -0.0469,0.002 -0.0123,0.0144 -0.0126,0.0367 0.002,0.0488 0.16577,0.17077 0.24603,0.29064 0.26368,0.3711 0.0714,0.32409 -0.82825,-0.15056 -1.26954,-0.98243 L 637.5,255.83594 c -1.43437,-3.52402 -2.80674,-7.08737 -4.05078,-10.69336 -1.24251,-3.60221 -2.35669,-7.24725 -3.27149,-10.9375 -3.0161,-11.93296 -4.30164,-24.25147 -4.21875,-36.57227 0.0829,-12.33827 1.53825,-24.68479 4.20899,-36.65039 0.003,-0.0137 -0.005,-0.0262 -0.0195,-0.0293 z m -100.19727,0.71094 c -0.0138,-0.003 -0.0274,0.004 -0.0312,0.0176 -4.38063,15.7659 -8.32749,32.0186 -9.35742,48.36133 -0.68764,10.92426 -0.0541,21.883 2.51758,32.74805 1.09976,4.63065 2.54813,9.19028 4.3125,13.6289 1.76361,4.43558 3.84197,8.74968 6.13281,12.92188 l 4.52539,7.38672 c 0.18803,0.26792 1.40644,1.67798 2.24219,2.32617 0.47276,0.36659 0.84189,0.42773 0.69531,0.26758 -0.007,-0.0121 -0.0248,-0.0165 -0.0371,-0.01 -0.0123,0.007 -0.0149,0.0231 -0.008,0.0352 l -2.50391,-2.87891 -4.33203,-7.4375 c -2.23789,-4.16765 -4.2394,-8.48139 -5.97461,-12.89648 -1.73291,-4.41205 -3.19941,-8.92532 -4.29687,-13.51954 -2.58478,-10.78839 -3.18727,-21.67346 -2.58789,-32.5332 0.90022,-16.32072 4.5519,-32.59501 8.7207,-48.38672 0.004,-0.0129 -0.004,-0.0275 -0.0176,-0.0312 z m 154.72266,0 c -0.0138,0.004 -0.0214,0.0183 -0.0176,0.0312 4.16958,15.79171 7.82048,32.066 8.7207,48.38672 0.59938,10.85974 -8.4e-4,21.74481 -2.58593,32.5332 -1.09746,4.59422 -2.56397,9.10749 -4.29688,13.51954 -1.73445,4.41509 -3.73671,8.72883 -5.97461,12.89648 l -4.33203,7.4375 -2.50391,2.87891 c 0.007,-0.0122 0.002,-0.0284 -0.01,-0.0352 -0.0123,-0.007 -0.0283,-0.002 -0.0352,0.01 -0.14659,0.16015 0.22256,0.099 0.69531,-0.26758 0.83576,-0.64819 2.05221,-2.05825 2.24024,-2.32617 l 4.52734,-7.38672 c 2.29008,-4.1722 4.36921,-8.4863 6.13282,-12.92188 1.76437,-4.43862 3.21078,-8.99825 4.31054,-13.6289 2.5725,-10.86505 3.20717,-21.82379 2.51953,-32.74805 -1.02992,-16.34273 -4.9768,-32.59543 -9.35742,-48.36133 -0.004,-0.0137 -0.0194,-0.0207 -0.0332,-0.0176 z" /></svg>
