<?xml version="1.0" encoding="UTF-8" standalone="no"?>
<!-- Created with Inkscape (http://www.inkscape.org/) -->

<svg
   version="1.1"
   id="svg1"
   width="1200"
   height="1600"
   viewBox="0 0 1200 1600"
   xml:space="preserve"
   xmlns="http://www.w3.org/2000/svg"
   xmlns:svg="http://www.w3.org/2000/svg"><defs
     id="defs1" /><g><path
     id="path16"
     style="baseline-shift:baseline;display:inline;overflow:visible;vector-effect:none;enable-background:accumulate;stop-color:#000000;stop-opacity:1"
     d="m 654.80273,133.8418 c -6.52137,0.0292 -12.76601,13.43792 -17.05273,37.91211 -6.18522,35.31332 4.79506,80.78777 21.73828,87.42773 0.67731,0.26544 2.75132,0.43806 6.84766,-2.87109 18.71281,-15.11679 21.72874,-54.95393 6.34765,-98.18555 -1.63272,-4.5891 -2.39333,-5.18708 -4.75,-9.51563 -5.04516,-9.26656 -10.55205,-14.77913 -13.13086,-14.76757 z m -94.85937,0 c -2.57881,-0.0116 -8.0857,5.50101 -13.13086,14.76757 -2.35667,4.32855 -3.11728,4.92653 -4.75,9.51563 -15.38109,43.23162 -12.36515,83.06876 6.34766,98.18555 4.09634,3.30915 6.17034,3.13653 6.84765,2.87109 16.94322,-6.63996 27.9235,-52.11441 21.73828,-87.42773 -4.28672,-24.47419 -10.53136,-37.88291 -17.05273,-37.91211 z" /></g></svg>
