<?xml version="1.0" encoding="UTF-8" standalone="no"?>
<svg
   width="2560000"
   height="4553956"
   viewBox="0 0 2560000 4553956"
   version="1.1"
   xml:space="preserve"
   style="clip-rule:evenodd;fill-rule:evenodd;stroke-linejoin:round;stroke-miterlimit:2"
   id="svg9"
   xmlns="http://www.w3.org/2000/svg"
   xmlns:svg="http://www.w3.org/2000/svg"><defs
     id="defs9" /><g><path
     id="path1"
     d="m 695.604,376.107 c -10.753,-9.912 -22.223,-40.817 -25.524,-68.774 -0.432,-3.666 -1.45,-10.954 -2.261,-16.195 -8.838,-57.136 25.069,-152.02 68.674,-192.175 11.459,-10.552 16.557,-10.404 25.638,0.743 25.553,31.37 46.052,90.1 47.339,135.627 0.14,4.957 0.628,3.045 1.906,-7.457 7.465,-61.382 37.112,-132.44 56.909,-136.4 15.591,-3.118 52.338,47.802 70.137,97.191 21.383,59.328 18.318,142.392 -6.628,179.66 -3.716,5.553 -12.701,13.374 -11.393,9.919 0.757,-2 0.396,-2.287 -2.076,-1.653 -1.879,0.481 -1.424,-0.051 1.222,-1.432 6.903,-3.601 23.511,-50.266 25.564,-71.828 6.969,-73.179 -14.56,-140.269 -61.738,-192.388 -15.071,-16.651 -21.874,-11.943 -42.359,29.309 -21.684,43.669 -34.176,126.863 -21.87,145.645 1.041,1.587 2.598,8.56 3.46,15.494 2.096,16.85 10.214,33.726 22.181,46.114 4.514,4.671 7.725,8.493 7.137,8.493 -2.927,0 -15.37,-13.965 -21.386,-24 -6.188,-10.323 -6.73,-10.885 -6.077,-6.303 0.91,6.387 -0.557,5.464 -5.089,-3.203 -2.471,-4.725 -4.225,-11.268 -5.633,-21.011 -2.779,-19.225 -3.471,-19.651 -6.198,-3.817 -3.402,19.755 -12.746,42.724 -11.327,27.843 0.675,-7.079 0.688,-7.088 -4.474,3.283 -4.301,8.641 -17.279,24.541 -20.032,24.541 -0.772,0 1.251,-2.85 4.496,-6.333 5.509,-5.913 15.798,-21.372 15.798,-23.736 0,-0.58 0.928,-2.079 2.062,-3.332 1.318,-1.457 2.541,-7.027 3.39,-15.439 0.825,-8.186 2.378,-15.358 4.106,-18.977 C 813.585,260.342 801.185,183.85 777.264,135.645 758.37,97.57 751.405,93.848 734.998,113.059 c -41.783,48.92 -62.981,107.424 -60.874,168.006 0.856,24.615 1.922,30.828 10.109,58.935 9.527,32.706 16.978,40.043 36.066,35.511 4.198,-0.996 7.362,-1.375 7.032,-0.841 -1.849,2.992 -22.066,4.426 -26.219,1.86 -1.696,-1.048 -1.325,1.391 0.488,3.203 4.046,4.046 -0.952,1.024 -5.996,-3.626 z"
     style="clip-rule:evenodd;fill-rule:nonzero;stroke-linejoin:round;stroke-miterlimit:2" /><path
     d="m 896.485,371.023 c -0.191,0.211 0.29,0.13 0.906,-0.353 1.089,-0.854 2.675,-2.711 2.92,-3.064 l 5.898,-9.734 c 2.984,-5.497 5.692,-11.18 7.99,-17.024 2.299,-5.848 4.186,-11.855 5.619,-17.956 3.352,-14.315 4.177,-28.753 3.281,-43.146 -1.342,-21.532 -6.485,-42.945 -12.193,-63.717 -0.005,-0.018 -0.023,-0.028 -0.041,-0.024 -0.018,0.005 -0.028,0.024 -0.023,0.041 5.433,20.806 10.19,42.249 11.363,63.752 0.781,14.308 -0.003,28.648 -3.371,42.862 -1.43,6.053 -3.341,11.999 -5.599,17.812 -2.26,5.817 -4.869,11.502 -7.785,16.993 l -5.645,9.797 -3.262,3.794 c 0.009,-0.016 0.004,-0.037 -0.012,-0.046 -0.016,-0.009 -0.037,-0.003 -0.046,0.013 z"
     id="path6"
     style="clip-rule:evenodd;fill-rule:evenodd;stroke-linejoin:round;stroke-miterlimit:2" /><path
     d="m 908.344,206.009 c -2.255,-8.858 -5.161,-17.716 -8.834,-26.243 -3.68,-8.543 -8.126,-16.744 -13.207,-24.373 -1.713,-2.562 -3.657,-5.53 -5.924,-8.073 -1.557,-1.748 -3.268,-3.295 -5.155,-4.387 -0.653,-0.378 -1.792,-0.889 -2.883,-1.074 -0.838,-0.143 -1.648,-0.083 -2.245,0.287 -2.163,1.345 -4.26,3.662 -6.139,6.31 -2.693,3.796 -4.947,8.265 -6.362,11.402 -1.283,2.94 -4.11,9.04 -7.089,16.621 -2.035,5.182 -4.149,11.051 -5.856,17.09 -0.006,0.019 0.005,0.038 0.023,0.043 0.019,0.006 0.038,-0.005 0.044,-0.023 1.443,-4.727 3.122,-9.349 4.834,-13.602 3.635,-9.032 7.368,-16.41 8.929,-19.728 1.407,-3.085 3.649,-7.476 6.314,-11.207 1.799,-2.52 3.787,-4.742 5.851,-6.021 0.403,-0.251 0.957,-0.244 1.524,-0.149 0.961,0.161 1.963,0.613 2.539,0.945 1.798,1.036 3.425,2.511 4.911,4.172 2.24,2.503 4.162,5.427 5.856,7.948 5.096,7.555 9.482,15.719 13.272,24.155 3.793,8.446 6.991,17.168 9.461,25.944 0.01,0.037 0.049,0.059 0.086,0.049 0.037,-0.01 0.06,-0.048 0.05,-0.086 z"
     id="path7"
     style="clip-rule:evenodd;fill-rule:evenodd;stroke-linejoin:round;stroke-miterlimit:2" /><path
     d="m 855.947,351.923 c 0.216,0.225 0.32,0.384 0.343,0.49 0.093,0.427 -1.078,-0.198 -1.653,-1.294 l -5.242,-11.039 c -1.869,-4.643 -3.656,-9.34 -5.277,-14.091 -1.619,-4.746 -3.072,-9.547 -4.264,-14.409 -3.93,-15.722 -5.604,-31.953 -5.496,-48.186 0.108,-16.256 2.003,-32.522 5.483,-48.287 0.004,-0.018 -0.007,-0.036 -0.025,-0.04 -0.018,-0.004 -0.036,0.008 -0.04,0.025 -3.705,15.743 -5.918,32.01 -6.162,48.294 -0.244,16.3 1.485,32.606 5.389,48.405 1.23,4.878 2.717,9.695 4.38,14.452 1.66,4.752 3.495,9.444 5.408,14.084 l 5.401,11.062 c 0.594,0.861 1.565,1.307 1.992,1.297 0.345,-0.009 0.513,-0.318 -0.179,-0.83 -0.018,-0.016 -0.046,-0.014 -0.062,0.004 -0.016,0.019 -0.015,0.047 0.004,0.063 z"
     id="path8"
     style="clip-rule:evenodd;fill-rule:evenodd;stroke-linejoin:round;stroke-miterlimit:2" /><path
     d="m 861.954,326.313 c 2.223,5.519 5.631,10.913 9.283,14.467 3.718,3.619 7.682,5.288 10.639,3.785 3.529,-1.794 7.015,-4.896 10.07,-8.404 3.04,-3.491 5.652,-7.382 7.466,-10.758 6.63,-12.358 9.125,-28.074 9.03,-44.446 -0.137,-23.788 -5.732,-48.965 -11.956,-67.189 -1.878,-5.506 -7.07,-15.459 -12.558,-23.302 -4.745,-6.781 -9.778,-11.931 -13.09,-11.485 -3.099,0.417 -6.082,3.802 -8.687,8.451 -4.787,8.544 -8.4,21.317 -9.621,26.813 -2.191,9.852 -3.708,20.214 -4.464,30.613 -0.759,10.434 -0.752,20.907 0.114,30.943 0.563,6.149 1.624,13.308 3.151,20.369 1.525,7.05 3.511,13.995 5.677,19.79 0.007,0.017 0.026,0.026 0.043,0.02 0.017,-0.006 0.026,-0.025 0.02,-0.043 -1.982,-5.845 -3.67,-12.847 -5.054,-19.908 -1.383,-7.058 -2.463,-14.177 -2.973,-20.304 -0.886,-9.991 -0.919,-20.419 -0.186,-30.81 0.731,-10.364 2.223,-20.691 4.386,-30.512 1.042,-4.729 3.856,-14.884 7.67,-23.036 2.888,-6.172 6.305,-11.224 10.013,-11.729 3.188,-0.433 7.907,4.669 12.475,11.196 5.449,7.788 10.588,17.682 12.446,23.151 6.166,18.173 11.696,43.271 11.786,66.976 0.062,16.219 -2.42,31.787 -9.013,44.017 -1.788,3.323 -4.366,7.149 -7.36,10.587 -2.974,3.415 -6.358,6.449 -9.793,8.198 -2.691,1.37 -6.158,-0.414 -9.616,-3.63 -3.686,-3.426 -7.352,-8.52 -9.792,-13.866 -0.012,-0.029 -0.047,-0.043 -0.076,-0.03 -0.029,0.012 -0.043,0.046 -0.03,0.076 z"
     id="path9"
     style="clip-rule:evenodd;fill-rule:evenodd;stroke-linejoin:round;stroke-miterlimit:2" /><path
     d="m 723.581,371.056 -3.262,-3.794 -5.645,-9.797 c -2.916,-5.491 -5.524,-11.176 -7.785,-16.993 -2.258,-5.813 -4.169,-11.759 -5.599,-17.812 -3.368,-14.214 -4.152,-28.554 -3.371,-42.862 1.173,-21.503 5.931,-42.946 11.363,-63.752 0.005,-0.017 -0.005,-0.036 -0.023,-0.041 -0.018,-0.004 -0.036,0.006 -0.041,0.024 -5.708,20.772 -10.851,42.185 -12.193,63.717 -0.896,14.393 -0.07,28.831 3.281,43.146 1.433,6.101 3.32,12.108 5.619,17.956 2.298,5.844 5.006,11.527 7.991,17.024 l 5.897,9.734 c 0.245,0.353 1.831,2.21 2.92,3.064 0.616,0.483 1.097,0.564 0.906,0.353 -0.009,-0.016 -0.03,-0.022 -0.046,-0.013 -0.016,0.009 -0.021,0.03 -0.012,0.046 z"
     id="path2" /><path
     d="m 711.916,206.046 c 2.47,-8.776 5.668,-17.498 9.461,-25.944 3.79,-8.436 8.176,-16.6 13.272,-24.155 1.694,-2.521 3.616,-5.445 5.856,-7.948 1.487,-1.661 3.113,-3.136 4.911,-4.172 0.576,-0.332 1.579,-0.784 2.539,-0.945 0.568,-0.095 1.121,-0.102 1.524,0.149 2.064,1.279 4.052,3.501 5.851,6.021 2.665,3.731 4.908,8.122 6.314,11.207 1.561,3.318 5.294,10.696 8.929,19.728 1.712,4.253 3.391,8.875 4.834,13.602 0.006,0.018 0.025,0.029 0.044,0.023 0.018,-0.005 0.029,-0.024 0.023,-0.043 -1.707,-6.039 -3.82,-11.908 -5.856,-17.09 -2.979,-7.581 -5.806,-13.681 -7.089,-16.621 -1.415,-3.137 -3.669,-7.606 -6.362,-11.402 -1.879,-2.648 -3.976,-4.965 -6.139,-6.31 -0.597,-0.37 -1.407,-0.43 -2.245,-0.287 -1.091,0.185 -2.23,0.696 -2.883,1.074 -1.887,1.092 -3.598,2.639 -5.155,4.387 -2.267,2.543 -4.211,5.511 -5.923,8.073 -5.081,7.629 -9.528,15.83 -13.208,24.373 -3.673,8.527 -6.578,17.385 -8.834,26.243 -0.01,0.038 0.013,0.076 0.05,0.086 0.037,0.01 0.076,-0.012 0.086,-0.049 z"
     id="path3" /><path
     d="m 764.119,351.856 c -0.692,0.512 -0.524,0.821 -0.179,0.83 0.427,0.01 1.398,-0.436 1.992,-1.297 l 5.401,-11.062 c 1.913,-4.64 3.748,-9.332 5.409,-14.084 1.662,-4.757 3.15,-9.574 4.379,-14.452 3.904,-15.799 5.633,-32.105 5.389,-48.405 -0.244,-16.284 -2.456,-32.551 -6.162,-48.294 -0.004,-0.017 -0.022,-0.029 -0.04,-0.025 -0.018,0.004 -0.029,0.022 -0.025,0.04 3.48,15.765 5.375,32.031 5.483,48.287 0.108,16.233 -1.566,32.464 -5.496,48.186 -1.192,4.862 -2.645,9.663 -4.264,14.409 -1.621,4.751 -3.407,9.448 -5.277,14.091 l -5.242,11.039 c -0.575,1.096 -1.746,1.721 -1.653,1.294 0.023,-0.106 0.127,-0.265 0.343,-0.49 0.019,-0.016 0.021,-0.044 0.004,-0.063 -0.016,-0.018 -0.044,-0.02 -0.062,-0.004 z"
     id="path4" /><path
     d="m 758.064,326.267 c -2.44,5.346 -6.106,10.44 -9.792,13.866 -3.458,3.216 -6.925,5 -9.616,3.63 -3.435,-1.749 -6.819,-4.783 -9.793,-8.198 -2.993,-3.438 -5.572,-7.264 -7.36,-10.587 -6.592,-12.23 -9.075,-27.798 -9.013,-44.017 0.09,-23.705 5.62,-48.803 11.786,-66.976 1.859,-5.469 6.997,-15.363 12.446,-23.151 4.568,-6.527 9.287,-11.629 12.475,-11.196 3.708,0.505 7.126,5.557 10.013,11.729 3.815,8.152 6.628,18.307 7.67,23.036 2.163,9.821 3.656,20.148 4.386,30.512 0.733,10.391 0.7,20.819 -0.185,30.81 -0.511,6.127 -1.591,13.246 -2.974,20.304 -1.384,7.061 -3.072,14.063 -5.054,19.908 -0.006,0.018 0.003,0.037 0.02,0.043 0.018,0.006 0.037,-0.003 0.043,-0.02 2.166,-5.795 4.152,-12.74 5.677,-19.79 1.527,-7.061 2.588,-14.22 3.151,-20.369 0.866,-10.036 0.873,-20.509 0.114,-30.943 -0.756,-10.399 -2.273,-20.761 -4.464,-30.613 -1.221,-5.496 -4.834,-18.269 -9.621,-26.813 -2.605,-4.649 -5.588,-8.034 -8.687,-8.451 -3.312,-0.446 -8.345,4.704 -13.09,11.485 -5.488,7.843 -10.679,17.796 -12.557,23.302 -6.225,18.224 -11.82,43.401 -11.957,67.189 -0.095,16.372 2.4,32.088 9.03,44.446 1.814,3.376 4.427,7.267 7.466,10.758 3.055,3.508 6.541,6.61 10.07,8.404 2.958,1.503 6.921,-0.166 10.639,-3.785 3.652,-3.554 7.06,-8.948 9.283,-14.467 0.013,-0.03 -10e-4,-0.064 -0.03,-0.076 -0.029,-0.013 -0.063,10e-4 -0.076,0.03 z"
     id="path5" /></g></svg>
