<?xml version="1.0" encoding="UTF-8" standalone="no"?>
<!-- Created with Inkscape (http://www.inkscape.org/) -->

<g><svg
   version="1.1"
   id="svg1"
   width="1200"
   height="1600"
   viewBox="0 0 1200 1600"
   xml:space="preserve"
   sodipodi:docname="ears_TVhead_2_fur2.svg"
   inkscape:version="1.4 (86a8ad7, 2024-10-11)"
   xmlns:inkscape="http://www.inkscape.org/namespaces/inkscape"
   xmlns:sodipodi="http://sodipodi.sourceforge.net/DTD/sodipodi-0.dtd"
   xmlns="http://www.w3.org/2000/svg"
   xmlns:svg="http://www.w3.org/2000/svg"><sodipodi:namedview
     id="namedview1"
     pagecolor="#ffffff"
     bordercolor="#000000"
     borderopacity="0.25"
     inkscape:showpageshadow="2"
     inkscape:pageopacity="0.0"
     inkscape:pagecheckerboard="0"
     inkscape:deskcolor="#d1d1d1"
     inkscape:zoom="1.4584077"
     inkscape:cx="738.81945"
     inkscape:cy="382.26621"
     inkscape:window-width="1920"
     inkscape:window-height="1027"
     inkscape:window-x="1912"
     inkscape:window-y="-8"
     inkscape:window-maximized="1"
     inkscape:current-layer="svg1" /><defs
     id="defs1" /><path
     style="display:inline;fill:#000000;fill-opacity:1;stroke-width:0.34284"
     d="m 556.88254,258.96678 c 3.07115,-1.52019 7.05666,-6.08849 9.44417,-10.82519 1.39613,-2.76982 1.07565,-2.53617 -0.9527,0.69461 -1.0198,1.62437 -2.52128,3.74453 -3.33662,4.71147 -1.91838,2.27508 -5.11788,4.66959 -6.86973,5.14131 -2.1168,0.57 -4.48929,-0.74438 -8.34208,-4.62157 -7.32259,-7.36896 -11.34621,-16.0426 -13.37016,-28.82176 -0.75733,-4.78176 -1.0424,-16.99278 -0.54426,-23.3131 1.04787,-13.29508 4.14193,-28.43106 8.27046,-40.45865 3.32654,-9.69117 12.77541,-24.46761 16.69319,-26.10533 1.3462,-0.56274 3.28309,-0.59307 4.71885,-0.0739 3.71612,1.34376 9.34476,14.62912 12.18233,28.75409 4.64906,23.14235 3.85353,47.54616 -2.24408,68.8396 -0.44777,1.56363 -0.73686,3.04428 -0.64244,3.29034 0.21194,0.55231 -1.84467,6.13929 -3.84679,10.45016 -3.49192,7.51867 -8.53024,13.07304 -11.8574,13.0719 -0.60119,-2.1e-4 -0.4379,-0.17211 0.69726,-0.73399 z"
     id="path11" /><path
     style="display:inline;fill:#000000;fill-opacity:1;stroke-width:1.01554"
     d="m 666.33563,256.3102 c 18.71281,-15.11679 21.72867,-54.95269 6.34758,-98.18431 -1.63272,-4.5891 -2.3939,-5.18734 -4.75057,-9.51589 -5.04516,-9.26656 -10.55171,-14.77926 -13.13052,-14.7677 -6.52137,0.0292 -12.76608,13.43821 -17.0528,37.9124 -6.18522,35.31332 4.79526,80.7877 21.73848,87.42766 0.67731,0.26544 2.75149,0.43699 6.84783,-2.87216 z"
     id="path14" /></g></svg>
