<?xml version="1.0" encoding="UTF-8" standalone="no"?>
<!-- Created with Inkscape (http://www.inkscape.org/) -->

<svg
   version="1.1"
   id="svg1"
   width="1200"
   height="1600"
   viewBox="0 0 1200 1600"
   xml:space="preserve"
   xmlns="http://www.w3.org/2000/svg"
   xmlns:svg="http://www.w3.org/2000/svg"><defs
     id="defs1" /><g><path
     style="display:inline;fill:#000000"
     d="M 521.70304,282.08039 C 513.63833,274.6466 505.03607,251.46758 502.56037,230.5 c -0.32469,-2.75 -1.08782,-8.21584 -1.69584,-12.14631 -6.62885,-42.85189 18.80147,-114.0152 51.50556,-144.131358 8.59426,-7.914182 12.41753,-7.803372 19.22808,0.557291 19.1651,23.527173 34.53923,67.574577 35.50407,101.720377 0.10505,3.71782 0.47163,2.28366 1.42952,-5.59267 C 614.13057,124.87084 636.366,71.5768 651.21356,68.607287 662.907,66.2686 690.46701,104.45874 703.81678,141.5 c 16.03666,44.49654 13.73843,106.79401 -4.97093,134.74556 -2.78763,4.16469 -9.52577,10.03054 -8.54529,7.43905 0.5676,-1.50019 0.29729,-1.7155 -1.55685,-1.24008 -1.40919,0.36133 -1.06818,-0.038 0.91682,-1.07367 5.17664,-2.70085 17.63294,-37.69989 19.17287,-53.87086 5.22656,-54.88463 -10.92051,-105.20219 -46.30364,-144.291567 -11.30357,-12.487582 -16.40573,-8.957198 -31.7691,21.982267 -16.26301,32.75123 -25.63231,95.1467 -16.40245,109.23325 0.78026,1.19082 1.94793,6.42009 2.59483,11.62059 1.57206,12.63806 7.66015,25.29481 16.63608,34.58539 3.38488,3.50354 5.79344,6.37007 5.35236,6.37007 -2.19502,0 -11.52775,-10.47339 -16.03962,-18 -4.64123,-7.7424 -5.04747,-8.16377 -4.55785,-4.72759 0.68262,4.7907 -0.41771,4.09824 -3.81651,-2.40184 -1.85296,-3.54372 -3.16871,-8.45127 -4.22496,-15.7585 -2.08419,-14.41851 -2.60303,-14.73805 -4.6482,-2.86276 -2.55173,14.81668 -9.55984,32.04294 -8.49551,20.88238 0.50631,-5.30914 0.5158,-5.3161 -3.3552,2.46196 C 590.57802,253.07489 580.84403,265 578.77925,265 c -0.57911,0 0.93852,-2.1375 3.37251,-4.75 C 586.2835,255.81524 594,244.22114 594,242.44793 c 0,-0.43475 0.69588,-1.55938 1.54639,-2.49919 0.98838,-1.09214 1.90576,-5.27036 2.54226,-11.57874 0.61946,-6.13939 1.78364,-11.51899 3.08005,-14.23271 9.01985,-18.88075 -0.27968,-76.25003 -18.2205,-112.40318 C 568.77718,73.17759 563.55376,70.386237 551.24827,84.793928 519.91144,121.48418 504.01304,165.3626 505.59324,210.79847 c 0.64208,18.46169 1.4413,23.12132 7.58147,44.20153 7.14495,24.52978 12.73344,30.03235 27.04946,26.63356 3.14829,-0.74744 5.52175,-1.03147 5.27435,-0.63117 -1.387,2.24422 -16.54989,3.31997 -19.66436,1.39511 -1.27222,-0.78627 -0.99366,1.043 0.36584,2.4025 3.03443,3.03443 -0.71367,0.76771 -4.49696,-2.71961 z"
     id="path1" /><path
     d="m 673.63874,279.32245 c -0.14659,0.16015 0.22256,0.0987 0.69531,-0.26792 0.83576,-0.64819 2.05294,-2.05765 2.24097,-2.32557 l 4.52644,-7.38809 c 2.29008,-4.1722 4.36835,-8.48559 6.13195,-12.92117 1.76438,-4.43862 3.21257,-8.99791 4.31233,-13.62856 2.5725,-10.86505 3.20565,-21.82345 2.51801,-32.74771 -1.02992,-16.34273 -4.97694,-32.59514 -9.35756,-48.36104 -0.004,-0.0137 -0.0177,-0.0213 -0.0315,-0.0182 -0.0138,0.004 -0.0215,0.0182 -0.0177,0.0311 4.16958,15.79171 7.82036,32.06689 8.72058,48.38761 0.59938,10.85974 -0.002,21.74376 -2.58709,32.53215 -1.09746,4.59422 -2.56406,9.10722 -4.29697,13.51927 -1.73445,4.41509 -3.73673,8.72999 -5.97463,12.89764 l -4.33228,7.4359 -2.50343,2.87964 c 0.007,-0.0122 0.003,-0.0281 -0.009,-0.0349 -0.0123,-0.007 -0.0284,-0.002 -0.0353,0.01 z"
     id="path6"
     style="clip-rule:evenodd;fill-rule:evenodd;stroke-width:0.763214;stroke-linejoin:round;stroke-miterlimit:2" /><path
     d="m 682.73997,154.07723 c -1.73061,-6.7232 -3.96083,-13.4464 -6.77968,-19.91837 -2.82423,-6.48411 -6.23633,-12.70865 -10.13577,-18.49904 -1.31464,-1.94456 -2.80657,-4.19726 -4.54639,-6.12739 -1.19493,-1.32673 -2.50804,-2.5009 -3.95623,-3.32972 -0.50114,-0.2869 -1.37527,-0.67475 -2.21256,-0.81517 -0.64313,-0.10853 -1.26477,-0.063 -1.72294,0.21784 -1.66,1.02085 -3.26935,2.77944 -4.7114,4.78927 -2.06675,2.88115 -3.79659,6.27311 -4.88254,8.65409 -0.98464,2.23145 -3.15423,6.86134 -5.44048,12.6153 -1.56177,3.93312 -3.18416,8.38768 -4.49421,12.97127 -0.005,0.0144 0.004,0.0288 0.0177,0.0326 0.0146,0.005 0.0292,-0.004 0.0338,-0.0174 1.10744,-3.58779 2.39599,-7.09587 3.70987,-10.32389 2.7897,-6.85526 5.6546,-12.45515 6.8526,-14.9735 1.07981,-2.34151 2.80044,-5.67427 4.8457,-8.50609 1.38065,-1.91267 2.90635,-3.59916 4.49037,-4.56992 0.30929,-0.19051 0.73446,-0.1852 1.1696,-0.11309 0.73753,0.1222 1.50651,0.46526 1.94857,0.71725 1.37988,0.78632 2.62853,1.90584 3.76896,3.16654 1.7191,1.89977 3.19415,4.11908 4.49421,6.03251 3.91095,5.73423 7.277,11.93068 10.18565,18.33359 2.91095,6.41049 5.36527,13.03047 7.26088,19.69143 0.008,0.0281 0.0376,0.0448 0.066,0.0372 0.0284,-0.008 0.0461,-0.0364 0.0384,-0.0653 z"
     id="path7"
     style="clip-rule:evenodd;fill-rule:evenodd;stroke-width:0.763214;stroke-linejoin:round;stroke-miterlimit:2" /><path
     d="m 642.5277,264.8256 c 0.16577,0.17077 0.24558,0.29145 0.26323,0.37191 0.0714,0.32409 -0.82731,-0.15028 -1.2686,-0.98215 l -4.02299,-8.37857 c -1.43437,-3.52402 -2.80581,-7.08904 -4.04985,-10.69503 -1.24251,-3.60221 -2.35762,-7.24615 -3.27242,-10.9364 -3.0161,-11.93296 -4.30082,-24.25225 -4.21793,-36.57305 0.0829,-12.33827 1.53721,-24.68412 4.20795,-36.64972 0.003,-0.0137 -0.005,-0.0273 -0.0192,-0.0304 -0.0138,-0.003 -0.0276,0.006 -0.0307,0.019 -2.84341,11.9489 -4.54179,24.29551 -4.72905,36.65503 -0.18725,12.37165 1.13967,24.74787 4.13581,36.73927 0.94397,3.70239 2.08517,7.35848 3.36145,10.96903 1.27397,3.60676 2.68225,7.16797 4.15039,10.68972 l 4.14502,8.39603 c 0.45586,0.6535 1.20106,0.99201 1.52876,0.98442 0.26478,-0.007 0.39371,-0.24136 -0.13737,-0.62996 -0.0138,-0.0121 -0.0353,-0.0106 -0.0476,0.003 -0.0123,0.0144 -0.0115,0.0357 0.003,0.0478 z"
     id="path8"
     style="clip-rule:evenodd;fill-rule:evenodd;stroke-width:0.763214;stroke-linejoin:round;stroke-miterlimit:2" /><path
     d="m 647.13779,245.38767 c 1.70605,4.18891 4.32154,8.28294 7.12428,10.98042 2.85339,2.74681 5.89558,4.01358 8.16494,2.8728 2.70834,-1.36164 5.38368,-3.71605 7.72826,-6.37861 2.33306,-2.64966 4.33764,-5.60292 5.72981,-8.1653 5.08821,-9.37969 7.00301,-21.30809 6.9301,-33.7344 -0.10514,-18.05503 -4.39904,-37.16431 -9.17567,-50.99628 -1.44128,-4.17904 -5.4259,-11.73335 -9.63769,-17.68616 -3.64157,-5.14677 -7.50416,-9.0556 -10.04597,-8.71709 -2.37834,0.3165 -4.66765,2.88571 -6.66687,6.41429 -3.6738,6.48487 -6.44661,16.17955 -7.38367,20.351 -1.68149,7.47764 -2.84572,15.34237 -3.42591,23.23519 -0.5825,7.91938 -0.57713,15.86836 0.0875,23.48566 0.43207,4.66708 1.24634,10.10074 2.41824,15.46002 1.17037,5.35093 2.69453,10.62217 4.35684,15.02056 0.005,0.0129 0.02,0.0197 0.033,0.0152 0.013,-0.005 0.0199,-0.019 0.0154,-0.0326 -1.5211,-4.43634 -2.81656,-9.75084 -3.87871,-15.11012 -1.06139,-5.357 -1.89024,-10.76031 -2.28164,-15.41068 -0.67997,-7.58315 -0.70529,-15.49797 -0.14275,-23.38472 0.56101,-7.86625 1.70605,-15.70442 3.36605,-23.15853 0.79969,-3.5893 2.9593,-11.29692 5.88637,-17.48427 2.21641,-4.68453 4.8388,-8.51899 7.68452,-8.90228 2.44664,-0.32864 6.06825,3.54376 9.57398,8.49774 4.18186,5.91107 8.1258,13.42059 9.55173,17.57155 4.73212,13.79326 8.97614,32.84258 9.04521,50.83462 0.0476,12.31018 -1.85724,24.12625 -6.91706,33.40879 -1.37221,2.52215 -3.3507,5.42607 -5.64846,8.03551 -2.28241,2.59197 -4.87947,4.89477 -7.51567,6.22226 -2.06522,1.03983 -4.72598,-0.31423 -7.37984,-2.75516 -2.82883,-2.60033 -5.64232,-6.46666 -7.51491,-10.52426 -0.009,-0.022 -0.0361,-0.0326 -0.0583,-0.0228 -0.0223,0.009 -0.033,0.0349 -0.023,0.0577 z"
     id="path9"
     style="clip-rule:evenodd;fill-rule:evenodd;stroke-width:0.763214;stroke-linejoin:round;stroke-miterlimit:2" /><path
     d="m 540.94292,279.3475 -2.50344,-2.87964 -4.33228,-7.4359 c -2.23789,-4.16765 -4.23941,-8.48255 -5.97462,-12.89764 -1.73291,-4.41205 -3.19952,-8.92505 -4.29698,-13.51927 -2.58478,-10.78839 -3.18646,-21.67241 -2.58708,-32.53215 0.90022,-16.32072 4.55177,-32.5959 8.72057,-48.38761 0.004,-0.0129 -0.004,-0.0273 -0.0177,-0.0311 -0.0138,-0.003 -0.0276,0.005 -0.0315,0.0182 -4.38063,15.7659 -8.32764,32.01831 -9.35757,48.36104 -0.68764,10.92426 -0.0537,21.88266 2.51802,32.74771 1.09976,4.63065 2.54795,9.18994 4.31232,13.62856 1.76361,4.43558 3.84188,8.74897 6.13272,12.92117 l 4.52568,7.38809 c 0.18803,0.26792 1.40521,1.67738 2.24096,2.32557 0.47276,0.36659 0.8419,0.42807 0.69532,0.26792 -0.007,-0.0121 -0.023,-0.0167 -0.0353,-0.01 -0.0123,0.007 -0.0161,0.0228 -0.009,0.0349 z"
     id="path2"
     style="clip-rule:evenodd;fill-rule:evenodd;stroke-width:0.763214;stroke-linejoin:round;stroke-miterlimit:2" /><path
     d="m 531.99057,154.10532 c 1.89561,-6.66096 4.34993,-13.28094 7.26088,-19.69143 2.90865,-6.40291 6.2747,-12.59936 10.18564,-18.33359 1.30007,-1.91343 2.77512,-4.13274 4.49421,-6.03251 1.14121,-1.2607 2.38909,-2.38022 3.76897,-3.16654 0.44205,-0.25199 1.21181,-0.59505 1.94856,-0.71725 0.43592,-0.0721 0.86032,-0.0774 1.1696,0.11309 1.58403,0.97076 3.10973,2.65725 4.49037,4.56992 2.04527,2.83182 3.76667,6.16458 4.84571,8.50609 1.19799,2.51835 4.0629,8.11824 6.85259,14.9735 1.31388,3.22802 2.60244,6.7361 3.70987,10.32389 0.005,0.0137 0.0192,0.022 0.0338,0.0174 0.0138,-0.004 0.0223,-0.0182 0.0177,-0.0326 -1.31004,-4.58359 -2.93167,-9.03815 -4.49421,-12.97127 -2.28624,-5.75396 -4.45583,-10.38385 -5.44048,-12.6153 -1.08594,-2.38098 -2.81578,-5.77294 -4.88254,-8.65409 -1.44204,-2.00983 -3.05139,-3.76842 -4.7114,-4.78927 -0.45817,-0.28083 -1.0798,-0.32637 -1.72293,-0.21784 -0.83729,0.14042 -1.71142,0.52827 -2.21257,0.81517 -1.44818,0.82882 -2.7613,2.00299 -3.95622,3.32972 -1.73982,1.93013 -3.23175,4.18283 -4.54563,6.12739 -3.89943,5.79039 -7.3123,12.01493 -10.13653,18.49904 -2.81886,6.47197 -5.04831,13.19517 -6.77969,19.91837 -0.008,0.0289 0.01,0.0577 0.0384,0.0653 0.0284,0.008 0.0583,-0.009 0.066,-0.0372 z"
     id="path3"
     style="clip-rule:evenodd;fill-rule:evenodd;stroke-width:0.763214;stroke-linejoin:round;stroke-miterlimit:2" /><path
     d="m 572.05396,264.77475 c -0.53108,0.3886 -0.40215,0.62313 -0.13738,0.62996 0.3277,0.008 1.0729,-0.33092 1.52877,-0.98442 l 4.14502,-8.39603 c 1.46814,-3.52175 2.87641,-7.08296 4.15115,-10.68972 1.27551,-3.61055 2.41748,-7.26664 3.36068,-10.96903 2.99614,-11.9914 4.32307,-24.36762 4.13581,-36.73927 -0.18726,-12.35952 -1.88486,-24.70613 -4.72905,-36.65503 -0.003,-0.0129 -0.0169,-0.022 -0.0307,-0.019 -0.0138,0.003 -0.0222,0.0167 -0.0192,0.0304 2.67074,11.9656 4.12506,24.31145 4.20795,36.64972 0.0829,12.3208 -1.20184,24.64009 -4.21793,36.57305 -0.9148,3.69025 -2.02991,7.33419 -3.27242,10.9364 -1.24404,3.60599 -2.61472,7.17101 -4.04986,10.69503 l -4.02299,8.37857 c -0.44128,0.83187 -1.33997,1.30624 -1.2686,0.98215 0.0177,-0.0805 0.0975,-0.20114 0.26324,-0.37191 0.0146,-0.0122 0.0161,-0.0334 0.003,-0.0478 -0.0123,-0.0137 -0.0338,-0.0152 -0.0476,-0.003 z"
     id="path4"
     style="clip-rule:evenodd;fill-rule:evenodd;stroke-width:0.763214;stroke-linejoin:round;stroke-miterlimit:2" /><path
     d="m 567.40702,245.35276 c -1.87258,4.0576 -4.68607,7.92393 -7.5149,10.52426 -2.65386,2.44093 -5.31462,3.79499 -7.37984,2.75516 -2.6362,-1.32749 -5.23327,-3.63029 -7.51567,-6.22226 -2.29699,-2.60944 -4.27626,-5.51336 -5.64846,-8.03551 -5.05906,-9.28254 -6.96465,-21.09861 -6.91706,-33.40879 0.0691,-17.99204 4.31309,-37.04136 9.04521,-50.83462 1.42669,-4.15096 5.36987,-11.66048 9.55173,-17.57155 3.50572,-4.95398 7.12734,-8.82638 9.57398,-8.49774 2.84572,0.38329 5.46888,4.21775 7.68451,8.90228 2.92784,6.18735 5.08669,13.89497 5.88638,17.48427 1.66,7.45411 2.80581,15.29228 3.36605,23.15853 0.56254,7.88675 0.53721,15.80157 -0.14198,23.38472 -0.39217,4.65037 -1.22102,10.05368 -2.28241,15.41068 -1.06216,5.35928 -2.35762,10.67378 -3.87871,15.11012 -0.005,0.0137 0.002,0.0281 0.0154,0.0326 0.0138,0.005 0.0284,-0.002 0.033,-0.0152 1.6623,-4.39839 3.18647,-9.66963 4.35683,-15.02056 1.17191,-5.35928 1.98617,-10.79294 2.41825,-15.46002 0.66462,-7.6173 0.66999,-15.56628 0.0875,-23.48566 -0.58019,-7.89282 -1.74442,-15.75755 -3.42591,-23.23519 -0.93706,-4.17145 -3.70987,-13.86613 -7.38368,-20.351 -1.99921,-3.52858 -4.28853,-6.09779 -6.66687,-6.41429 -2.5418,-0.33851 -6.4044,3.57032 -10.04597,8.71709 -4.21178,5.95281 -8.19563,13.50712 -9.63691,17.68616 -4.7774,13.83197 -9.07131,32.94125 -9.17645,50.99628 -0.0729,12.42631 1.84189,24.35471 6.93011,33.7344 1.39216,2.56238 3.39752,5.51564 5.72981,8.1653 2.34457,2.66256 5.01992,5.01697 7.72826,6.37861 2.27013,1.14078 5.31155,-0.12599 8.16494,-2.8728 2.80274,-2.69748 5.41822,-6.79151 7.12427,-10.98042 0.01,-0.0228 -7.6e-4,-0.0486 -0.023,-0.0577 -0.0223,-0.01 -0.0483,7.6e-4 -0.0583,0.0228 z"
     id="path5"
     style="clip-rule:evenodd;fill-rule:evenodd;stroke-width:0.763214;stroke-linejoin:round;stroke-miterlimit:2" /></g></svg>
