<svg version="1.0" xmlns="http://www.w3.org/2000/svg"
 width="1200.000000pt" height="1600.000000pt" viewBox="0 0 1200.000000 1600.000000"
 preserveAspectRatio="xMidYMid meet">

<g transform="translate(0.000000,1600.000000) scale(0.100000,-0.100000)"
fill="#000000" stroke="none">
<path d="M4566 14150 c-43 -16 -85 -38 -93 -49 -15 -23 -52 -28 -70 -10 -7 7
-21 -2 -45 -33 -46 -57 -117 -177 -124 -208 -3 -14 -16 -59 -29 -100 -25 -80
-29 -98 -46 -195 -12 -70 -4 -158 22 -260 16 -61 101 -234 149 -305 50 -73
176 -201 248 -250 28 -19 55 -45 61 -57 6 -13 14 -22 18 -21 5 1 35 -5 68 -12
92 -22 290 -19 338 5 22 10 41 25 44 34 3 9 16 30 29 47 26 35 24 39 -33 77
-49 34 -48 57 3 57 22 0 34 5 34 13 0 18 -32 47 -53 47 -25 0 -200 151 -258
223 -52 65 -52 84 1 57 21 -11 48 -20 59 -20 11 0 23 -4 26 -10 3 -5 14 -10
23 -10 10 0 3 8 -16 17 -20 10 -39 29 -47 50 -8 19 -19 32 -25 28 -5 -3 -10 1
-10 10 0 13 6 16 23 12 66 -16 148 -29 153 -24 5 5 -15 56 -35 87 -42 68 -99
225 -86 238 3 3 15 -4 28 -15 12 -11 32 -24 45 -28 12 -3 27 -15 32 -26 11
-20 128 -84 137 -75 10 9 -18 139 -42 195 -25 60 -95 268 -95 283 0 15 -66
105 -122 167 -48 53 -59 60 -120 75 -86 21 -98 20 -192 -14z"/>
<path d="M7384 14162 c-52 -14 -69 -25 -106 -67 -102 -116 -137 -184 -200
-395 -5 -19 -17 -48 -25 -63 -19 -37 -53 -197 -42 -197 25 0 122 56 140 81 11
16 28 29 38 29 10 0 26 9 36 20 10 11 21 20 25 20 13 0 -10 -94 -35 -146 -14
-28 -25 -57 -25 -64 0 -6 -11 -25 -25 -42 -26 -31 -34 -78 -12 -78 6 1 41 7
77 15 82 18 80 18 80 -1 0 -8 -5 -12 -11 -9 -5 4 -15 -6 -21 -22 -6 -16 -25
-39 -42 -51 -17 -12 -25 -22 -19 -22 7 0 15 5 18 10 3 6 15 10 26 10 11 0 38
9 59 20 50 26 53 10 9 -46 -58 -75 -242 -234 -269 -234 -19 0 -50 -30 -50 -48
0 -7 15 -12 35 -12 48 0 47 -27 -3 -60 -52 -34 -53 -39 -28 -74 13 -17 26 -38
29 -47 3 -9 22 -24 44 -34 48 -24 246 -27 338 -5 33 7 64 13 68 12 4 -1 10 5
13 13 4 8 43 44 89 79 180 141 290 294 368 511 30 84 32 99 32 220 -1 128 -10
176 -55 280 -5 11 -16 45 -24 76 -9 32 -41 95 -74 145 -64 97 -86 121 -97 104
-11 -17 -53 -11 -68 10 -16 23 -167 81 -207 79 -14 0 -53 -8 -86 -17z"/>
<path d="M6899 13893 l-24 -28 28 24 c15 14 27 26 27 28 0 8 -8 1 -31 -24z"/>
</g>
</svg>
