<svg width="2400" height="3200" xmlns="http://www.w3.org/2000/svg" viewBox="0 0 2400 3200"><path d="M 837.97 3108.0 C 837.62 3108.0 837.08 3107.74 836.77 3107.43 C 836.45 3107.12 833.12 3106.22 829.35 3105.43 C 825.58 3104.65 821.25 3103.08 819.73 3101.96 C 818.2 3100.83 816.5 3100.19 815.95 3100.53 C 815.4 3100.87 811.47 3097.63 807.22 3093.33 C 802.98 3089.02 799.0 3084.6 798.39 3083.5 C 797.35 3081.63 796.9 3081.88 791.09 3087.5 C 787.68 3090.8 783.23 3094.36 781.2 3095.4 C 779.16 3096.45 775.25 3097.91 772.5 3098.64 C 769.75 3099.38 763.9 3099.97 759.5 3099.97 C 751.99 3099.97 751.29 3099.78 748.0 3096.88 C 746.08 3095.19 742.74 3092.26 740.6 3090.38 C 738.45 3088.5 735.75 3086.77 734.6 3086.54 C 733.44 3086.31 729.1 3085.91 724.94 3085.65 C 720.78 3085.39 715.61 3084.44 713.45 3083.54 C 711.29 3082.64 708.53 3080.97 707.32 3079.83 C 706.1 3078.68 704.82 3076.45 704.47 3074.87 C 704.12 3073.28 703.0 3071.54 701.98 3070.99 C 700.97 3070.45 698.32 3070.0 696.1 3070.0 C 693.04 3070.0 691.24 3069.27 688.61 3066.96 C 686.7 3065.29 683.98 3061.94 682.57 3059.53 C 681.16 3057.12 680.0 3054.19 680.0 3053.02 C 680.0 3051.86 680.71 3049.53 681.57 3047.86 C 682.92 3045.26 682.96 3044.12 681.87 3039.88 L 680.6 3034.93 C 698.74 3016.62 702.0 3014.09 709.0 3010.57 C 713.67 3008.22 718.84 3005.97 720.48 3005.57 C 722.16 3005.16 725.55 3002.6 728.29 2999.67 C 730.95 2996.83 734.68 2992.13 736.57 2989.23 C 738.45 2986.33 740.0 2983.68 740.0 2983.35 C 740.0 2983.01 742.25 2980.52 745.0 2977.81 C 747.85 2975.01 750.0 2971.99 750.0 2970.79 C 750.0 2969.63 751.06 2967.3 752.36 2965.59 C 753.65 2963.89 755.67 2960.61 756.85 2958.3 C 758.03 2955.99 759.72 2951.94 760.61 2949.3 C 761.51 2946.66 763.08 2943.31 764.12 2941.85 C 765.15 2940.39 766.0 2938.66 766.0 2938.0 C 766.0 2937.34 766.8 2935.61 767.79 2934.15 C 768.77 2932.69 770.22 2930.15 771.01 2928.5 C 771.79 2926.85 773.69 2923.62 775.22 2921.32 C 776.75 2919.02 778.01 2916.77 778.02 2916.32 C 778.03 2915.87 778.92 2914.38 780.0 2913.0 C 781.08 2911.62 781.97 2909.5 781.98 2908.27 C 781.99 2907.02 783.09 2905.33 784.51 2904.4 C 785.89 2903.5 787.32 2901.57 787.68 2900.13 C 788.03 2898.68 789.4 2895.7 790.71 2893.5 C 792.02 2891.3 795.14 2885.32 797.63 2880.2 C 801.61 2872.06 802.2 2870.01 802.36 2863.7 C 802.46 2859.74 802.82 2856.05 803.15 2855.5 C 803.49 2854.95 804.26 2850.68 804.86 2846.0 C 805.47 2841.32 806.23 2825.12 806.55 2810.0 C 806.87 2794.88 807.08 2782.05 807.03 2781.5 C 806.97 2780.95 806.69 2768.81 806.39 2754.52 C 806.09 2739.91 805.43 2728.02 804.88 2727.36 C 804.24 2726.58 804.26 2725.96 804.96 2725.53 C 805.53 2725.17 805.78 2723.89 805.51 2722.69 C 805.23 2721.48 804.55 2713.78 803.99 2705.57 C 803.19 2693.75 803.24 2690.46 804.24 2689.82 C 805.1 2689.26 805.16 2688.76 804.44 2688.25 C 803.85 2687.84 803.33 2686.6 803.26 2685.5 C 803.2 2684.4 802.66 2680.35 802.06 2676.5 C 801.46 2672.65 800.71 2667.03 800.4 2664.0 C 800.09 2660.97 799.58 2657.82 799.28 2657.0 C 798.97 2656.18 798.56 2653.34 798.37 2650.7 C 798.18 2648.06 797.56 2645.05 797.0 2644.0 C 796.4 2642.88 796.23 2639.27 796.59 2635.29 C 796.93 2631.55 796.67 2625.13 796.02 2621.0 C 795.37 2616.88 794.43 2611.25 793.93 2608.5 C 793.43 2605.75 792.55 2600.57 791.98 2597.0 C 791.42 2593.43 790.5 2586.22 789.95 2581.0 C 789.4 2575.78 788.53 2567.22 788.01 2562.0 C 787.5 2556.78 786.61 2548.68 786.02 2544.0 C 785.44 2539.32 784.71 2532.57 784.4 2529.0 C 784.1 2525.43 783.58 2521.82 783.26 2521.0 C 782.95 2520.18 782.52 2517.35 782.31 2514.72 C 782.1 2512.09 782.35 2509.19 782.87 2508.27 C 783.38 2507.35 783.44 2505.65 782.99 2504.46 C 782.54 2503.29 781.92 2499.44 781.62 2495.91 C 781.31 2492.38 780.65 2486.35 780.14 2482.5 C 779.63 2478.65 779.11 2475.05 778.99 2474.5 C 778.86 2473.95 778.85 2473.28 778.95 2473.0 C 779.06 2472.72 779.29 2469.91 779.47 2466.75 C 779.65 2463.58 779.37 2460.73 778.85 2460.41 C 778.26 2460.04 778.26 2459.39 778.86 2458.66 C 779.45 2457.95 779.49 2455.77 778.96 2453.0 C 778.48 2450.53 778.08 2444.45 778.06 2439.5 C 778.05 2434.55 778.69 2427.12 779.48 2423.0 C 780.28 2418.88 781.42 2413.47 782.03 2411.0 C 782.63 2408.53 783.38 2405.15 783.69 2403.5 C 784.0 2401.85 784.59 2400.05 785.0 2399.5 C 785.4 2398.95 786.03 2396.86 786.4 2394.85 C 786.76 2392.84 787.98 2390.02 789.12 2388.57 C 790.26 2387.13 790.96 2385.33 790.67 2384.59 C 790.39 2383.85 790.64 2382.76 791.24 2382.16 C 792.01 2381.39 791.99 2380.7 791.18 2379.72 C 790.43 2378.81 790.38 2378.02 791.04 2377.36 C 791.59 2376.81 792.93 2374.03 794.02 2371.18 C 795.11 2368.33 796.89 2363.68 797.97 2360.85 C 799.05 2358.01 800.94 2354.63 802.16 2353.33 C 803.73 2351.66 804.06 2350.66 803.3 2349.9 C 802.54 2349.14 802.95 2347.55 804.72 2344.39 C 806.08 2341.95 806.95 2339.32 806.66 2338.55 C 806.36 2337.78 806.77 2336.61 807.56 2335.95 C 808.35 2335.29 809.0 2333.88 809.0 2332.81 C 809.0 2331.74 810.12 2329.39 811.5 2327.59 C 812.88 2325.79 814.0 2323.58 814.0 2322.68 C 814.0 2321.79 815.14 2318.68 816.53 2315.78 C 817.93 2312.88 820.39 2308.25 822.01 2305.5 C 823.63 2302.75 824.96 2299.21 824.98 2297.63 C 824.99 2295.89 826.19 2293.41 828.01 2291.33 C 829.98 2289.09 830.96 2286.96 830.84 2285.2 C 830.74 2283.72 831.64 2280.59 832.85 2278.25 C 834.05 2275.91 835.52 2274.0 836.1 2274.0 C 836.69 2274.0 836.97 2273.44 836.73 2272.75 C 836.49 2272.06 837.13 2270.43 838.15 2269.12 C 839.17 2267.8 840.0 2266.1 840.0 2265.33 C 840.0 2264.55 840.96 2262.03 842.13 2259.71 C 843.31 2257.39 845.56 2254.02 847.13 2252.22 C 848.71 2250.41 850.0 2248.12 850.0 2247.12 C 850.0 2246.12 850.91 2244.49 852.01 2243.49 C 853.33 2242.3 853.81 2240.99 853.41 2239.71 C 853.07 2238.63 853.23 2237.47 853.78 2237.13 C 854.32 2236.78 857.74 2230.5 861.38 2223.17 C 866.39 2213.09 868.0 2208.82 868.0 2205.62 C 868.0 2203.3 868.38 2200.97 868.85 2200.45 C 869.32 2199.93 870.32 2197.25 871.06 2194.5 C 871.99 2191.1 872.39 2184.05 872.31 2172.5 C 872.24 2162.19 872.6 2155.01 873.22 2154.25 C 873.93 2153.38 873.86 2152.54 872.99 2151.49 C 872.14 2150.47 871.97 2148.61 872.45 2145.74 C 872.84 2143.41 873.5 2139.25 873.91 2136.5 C 874.31 2133.75 875.59 2129.7 876.74 2127.5 C 877.89 2125.3 879.36 2120.12 880.02 2116.0 C 880.67 2111.88 881.84 2106.03 882.61 2103.0 C 883.38 2099.97 885.64 2094.35 887.62 2090.5 C 889.6 2086.65 893.53 2081.2 896.36 2078.4 C 899.19 2075.59 904.42 2071.15 908.0 2068.54 C 911.58 2065.92 917.61 2062.21 921.42 2060.29 C 925.22 2058.37 930.15 2055.61 932.35 2054.15 C 936.26 2051.57 936.77 2051.5 950.96 2051.6 C 958.98 2051.65 968.01 2052.27 971.02 2052.97 C 974.03 2053.67 980.43 2056.19 985.24 2058.55 C 990.05 2060.92 999.5 2066.55 1006.24 2071.07 C 1012.98 2075.59 1021.2 2081.35 1024.5 2083.88 C 1027.8 2086.4 1035.06 2092.98 1040.64 2098.49 C 1050.05 2107.81 1050.93 2109.02 1053.01 2115.51 C 1054.24 2119.36 1055.47 2126.2 1055.75 2130.72 C 1056.12 2136.78 1055.81 2140.28 1054.6 2143.99 C 1053.49 2147.39 1053.25 2149.6 1053.88 2150.77 C 1054.4 2151.72 1055.98 2153.59 1057.41 2154.92 C 1059.31 2156.7 1060.0 2158.35 1060.0 2161.12 C 1060.0 2163.19 1059.55 2165.16 1059.0 2165.5 C 1058.45 2165.84 1058.0 2168.7 1058.0 2171.86 C 1058.0 2175.02 1058.48 2178.08 1059.07 2178.67 C 1059.78 2179.38 1059.99 2184.92 1059.69 2195.12 C 1059.44 2203.58 1058.73 2212.64 1058.12 2215.25 C 1057.5 2217.86 1056.54 2222.14 1055.97 2224.75 C 1055.41 2227.36 1054.5 2233.1 1053.95 2237.5 C 1053.4 2241.9 1052.56 2251.57 1052.08 2259.0 C 1051.6 2266.43 1051.43 2275.33 1051.7 2278.79 C 1052.01 2282.85 1051.76 2285.58 1050.99 2286.51 C 1050.18 2287.49 1049.69 2294.72 1049.44 2309.22 C 1049.24 2320.92 1048.64 2337.93 1048.11 2347.0 C 1047.57 2356.07 1046.68 2366.17 1046.13 2369.44 C 1045.57 2372.71 1045.35 2375.76 1045.63 2376.21 C 1045.91 2376.67 1045.62 2378.64 1044.97 2380.59 C 1044.33 2382.54 1043.63 2386.24 1043.43 2388.82 C 1043.22 2391.39 1042.76 2395.07 1042.4 2397.0 C 1042.04 2398.93 1041.33 2401.03 1040.81 2401.68 C 1040.29 2402.33 1039.65 2404.81 1039.39 2407.18 C 1039.13 2409.56 1038.64 2413.3 1038.32 2415.5 C 1037.99 2417.69 1037.05 2420.52 1036.22 2421.79 C 1035.39 2423.05 1034.35 2425.75 1033.9 2427.79 C 1033.46 2429.83 1032.69 2433.3 1032.21 2435.5 C 1031.72 2437.7 1030.29 2441.75 1029.03 2444.5 C 1027.76 2447.25 1025.22 2451.87 1023.37 2454.77 C 1021.51 2457.67 1020.01 2460.59 1020.02 2461.27 C 1020.03 2461.95 1018.24 2466.1 1016.06 2470.5 C 1013.87 2474.9 1011.54 2480.01 1010.88 2481.85 C 1010.22 2483.69 1008.64 2486.73 1007.37 2488.6 C 1006.1 2490.47 1005.22 2492.0 1005.42 2492.0 C 1005.61 2492.0 1004.43 2495.71 1002.8 2500.25 C 1001.16 2504.79 999.18 2510.22 998.39 2512.32 C 997.6 2514.43 995.92 2518.25 994.66 2520.82 C 993.4 2523.4 991.75 2527.53 991.0 2530.0 C 990.26 2532.47 989.08 2535.18 988.4 2536.0 C 987.72 2536.82 986.41 2539.53 985.49 2542.0 C 984.58 2544.47 983.29 2547.85 982.64 2549.5 C 981.99 2551.15 980.72 2553.62 979.82 2555.0 C 978.91 2556.38 976.38 2561.32 974.2 2566.0 C 972.02 2570.68 969.01 2577.2 967.51 2580.5 C 966.01 2583.79 963.49 2590.44 961.91 2595.27 C 960.33 2600.1 958.55 2604.98 957.94 2606.1 C 957.34 2607.23 956.26 2610.26 955.54 2612.83 C 954.82 2615.4 953.74 2618.85 953.14 2620.5 C 952.54 2622.15 950.71 2628.0 949.07 2633.5 C 947.43 2639.0 945.19 2646.65 944.1 2650.5 C 943.0 2654.35 941.57 2659.97 940.92 2663.0 C 940.27 2666.03 939.41 2668.95 939.0 2669.5 C 938.6 2670.05 937.98 2672.3 937.63 2674.5 C 937.28 2676.7 936.55 2680.97 936.01 2684.0 C 935.47 2687.03 934.55 2691.53 933.96 2694.0 C 933.37 2696.47 932.48 2700.75 931.98 2703.5 C 931.48 2706.25 930.62 2710.3 930.06 2712.5 C 929.51 2714.7 929.3 2717.91 929.61 2719.64 C 929.94 2721.43 929.71 2723.06 929.09 2723.44 C 928.49 2723.81 928.0 2725.13 928.0 2726.36 C 928.0 2727.59 927.46 2729.14 926.8 2729.8 C 925.87 2730.73 925.87 2731.27 926.8 2732.2 C 927.46 2732.86 928.0 2734.41 928.0 2735.65 C 928.0 2736.89 927.47 2739.06 926.83 2740.48 C 925.97 2742.35 925.95 2743.35 926.75 2744.15 C 927.41 2744.81 927.54 2746.11 927.07 2747.38 C 926.64 2748.54 925.94 2753.1 925.52 2757.5 C 925.1 2761.9 924.56 2766.85 924.32 2768.5 C 924.08 2770.15 923.8 2782.53 923.69 2796.0 C 923.59 2809.47 923.81 2826.8 924.2 2834.5 C 924.58 2842.2 925.28 2853.7 925.75 2860.05 C 926.52 2870.52 926.94 2872.25 930.25 2878.64 C 932.25 2882.52 934.45 2888.71 935.13 2892.4 C 936.1 2897.68 936.11 2899.82 935.15 2902.47 C 934.07 2905.44 934.25 2906.7 936.61 2913.17 C 938.08 2917.2 940.31 2923.43 941.56 2927.0 C 942.82 2930.57 944.37 2938.0 945.02 2943.49 C 945.66 2948.99 945.9 2955.74 945.55 2958.49 C 945.2 2961.25 943.31 2967.1 941.35 2971.5 C 939.39 2975.9 937.36 2980.32 936.84 2981.33 C 936.21 2982.54 936.26 2983.61 936.99 2984.49 C 937.61 2985.24 937.7 2986.07 937.2 2986.38 C 936.71 2986.68 936.02 2990.66 935.68 2995.22 C 935.34 2999.77 934.31 3006.43 933.4 3010.0 C 931.82 3016.14 931.12 3017.13 920.86 3027.74 C 914.89 3033.93 910.0 3039.39 910.0 3039.88 C 910.0 3040.37 906.85 3043.35 903.0 3046.5 C 898.61 3050.09 896.0 3052.97 896.0 3054.21 C 896.0 3055.3 895.15 3057.39 894.12 3058.85 C 893.08 3060.31 891.28 3063.2 890.12 3065.28 C 888.95 3067.36 888.0 3069.71 888.0 3070.5 C 888.0 3071.29 887.1 3073.54 886.0 3075.5 C 884.9 3077.46 883.99 3079.83 883.99 3080.78 C 883.98 3081.73 879.69 3086.9 874.45 3092.29 C 869.21 3097.67 864.46 3101.79 863.9 3101.44 C 863.34 3101.09 862.11 3101.47 861.19 3102.28 C 860.26 3103.09 857.02 3104.31 854.0 3104.99 C 850.98 3105.67 847.44 3106.64 846.14 3107.14 C 844.54 3107.76 843.31 3107.67 842.35 3106.87 C 841.26 3105.97 840.63 3105.97 839.76 3106.84 C 839.12 3107.48 838.32 3108.0 837.97 3108.0 Z M 1589.19 3107.98 C 1587.16 3107.98 1584.83 3107.53 1584.0 3107.0 C 1583.17 3106.47 1581.35 3106.02 1579.95 3106.02 C 1578.55 3106.01 1576.97 3105.64 1576.45 3105.2 C 1575.93 3104.77 1573.7 3103.8 1571.5 3103.05 C 1569.3 3102.3 1566.15 3100.76 1564.5 3099.62 C 1562.85 3098.48 1560.0 3096.18 1558.16 3094.52 C 1556.33 3092.86 1553.95 3089.8 1552.87 3087.71 C 1551.8 3085.63 1550.0 3082.87 1548.89 3081.58 C 1547.77 3080.3 1545.76 3077.09 1544.43 3074.45 C 1543.09 3071.82 1542.0 3069.03 1542.0 3068.26 C 1542.0 3067.49 1540.65 3064.9 1539.0 3062.5 C 1537.35 3060.1 1536.0 3057.35 1536.0 3056.39 C 1536.0 3055.43 1532.06 3050.78 1527.25 3046.06 C 1522.44 3041.33 1515.35 3034.12 1511.5 3030.03 C 1507.65 3025.94 1503.11 3020.46 1501.42 3017.85 C 1499.73 3015.24 1497.74 3010.49 1497.0 3007.3 C 1496.27 3004.11 1495.22 3000.92 1494.67 3000.21 C 1494.01 2999.34 1494.06 2998.54 1494.84 2997.76 C 1495.48 2997.12 1496.0 2995.45 1496.0 2994.04 C 1496.0 2992.63 1494.92 2988.11 1493.6 2983.99 C 1492.27 2979.87 1489.79 2973.53 1488.07 2969.9 C 1486.05 2965.63 1484.75 2961.05 1484.39 2956.9 C 1484.05 2953.15 1484.46 2946.32 1485.36 2940.41 C 1486.21 2934.86 1487.55 2928.56 1488.35 2926.41 C 1489.14 2924.26 1491.01 2919.35 1492.5 2915.5 C 1494.27 2910.94 1495.51 2905.21 1496.07 2899.07 C 1496.54 2893.88 1497.65 2887.35 1498.53 2884.57 C 1499.41 2881.78 1500.82 2877.47 1501.66 2875.0 C 1502.5 2872.53 1503.54 2868.01 1503.96 2864.96 C 1504.39 2861.91 1505.01 2858.54 1505.34 2857.46 C 1505.68 2856.38 1506.25 2848.07 1506.62 2839.0 C 1506.99 2829.93 1507.28 2820.25 1507.26 2817.5 C 1507.25 2814.75 1506.98 2799.97 1506.66 2784.65 C 1506.32 2768.18 1505.66 2756.3 1505.06 2755.58 C 1504.37 2754.74 1504.4 2754.0 1505.16 2753.24 C 1505.96 2752.44 1505.98 2750.97 1505.23 2747.99 C 1504.56 2745.37 1504.51 2742.7 1505.09 2740.68 C 1505.83 2738.1 1505.62 2736.98 1503.93 2734.7 C 1502.51 2732.77 1502.05 2731.05 1502.45 2729.2 C 1502.77 2727.71 1502.55 2724.93 1501.97 2723.0 C 1501.39 2721.07 1500.46 2716.12 1499.89 2712.0 C 1499.32 2707.88 1498.46 2702.25 1497.98 2699.5 C 1497.5 2696.75 1496.61 2692.25 1496.01 2689.5 C 1495.4 2686.75 1494.65 2683.26 1494.34 2681.74 C 1494.03 2680.22 1493.35 2678.72 1492.84 2678.4 C 1492.29 2678.06 1492.4 2677.22 1493.11 2676.37 C 1494.02 2675.27 1494.03 2674.63 1493.16 2673.76 C 1492.52 2673.12 1492.0 2671.32 1492.0 2669.75 C 1492.0 2668.18 1491.31 2665.56 1490.46 2663.92 C 1489.61 2662.28 1489.18 2660.52 1489.5 2660.0 C 1489.82 2659.48 1489.41 2658.03 1488.6 2656.78 C 1487.78 2655.53 1486.61 2652.47 1485.99 2650.0 C 1485.37 2647.53 1484.48 2643.93 1484.0 2642.0 C 1483.53 2640.07 1482.22 2635.35 1481.1 2631.5 C 1479.98 2627.65 1478.19 2621.35 1477.13 2617.5 C 1476.06 2613.65 1474.02 2608.03 1472.6 2605.0 C 1471.18 2601.97 1470.02 2598.69 1470.01 2597.7 C 1470.0 2596.71 1469.29 2594.54 1468.43 2592.87 C 1467.57 2591.2 1466.04 2587.26 1465.04 2584.12 C 1464.03 2580.97 1462.04 2576.67 1460.61 2574.56 C 1459.17 2572.45 1457.99 2570.0 1457.99 2569.11 C 1457.98 2568.22 1456.18 2564.21 1453.99 2560.19 C 1451.79 2556.17 1449.99 2552.12 1449.98 2551.19 C 1449.97 2550.26 1449.08 2548.38 1448.0 2547.0 C 1446.92 2545.62 1446.03 2543.91 1446.02 2543.2 C 1446.01 2542.48 1445.15 2540.23 1444.11 2538.2 C 1443.07 2536.16 1441.68 2532.93 1441.02 2531.0 C 1440.36 2529.07 1438.9 2525.25 1437.79 2522.5 C 1436.68 2519.75 1434.66 2514.35 1433.31 2510.51 C 1431.96 2506.67 1430.34 2502.91 1429.72 2502.16 C 1429.09 2501.41 1427.59 2498.03 1426.39 2494.65 C 1425.18 2491.27 1423.49 2486.63 1422.64 2484.35 C 1421.78 2482.08 1419.94 2478.52 1418.54 2476.47 C 1417.14 2474.41 1416.0 2471.94 1416.0 2471.0 C 1416.0 2470.05 1415.1 2468.13 1414.01 2466.74 C 1412.91 2465.35 1411.15 2462.18 1410.09 2459.71 C 1409.03 2457.24 1407.68 2454.92 1407.08 2454.55 C 1406.49 2454.18 1406.0 2453.02 1406.0 2451.96 C 1406.0 2450.9 1404.7 2447.22 1403.11 2443.77 C 1401.52 2440.32 1399.43 2435.7 1398.47 2433.5 C 1397.51 2431.3 1396.32 2427.93 1395.81 2426.0 C 1395.3 2424.07 1394.44 2420.93 1393.89 2419.0 C 1393.34 2417.07 1392.43 2413.93 1391.87 2412.0 C 1391.31 2410.07 1390.46 2406.7 1389.98 2404.5 C 1389.5 2402.3 1388.6 2398.47 1387.98 2396.0 C 1387.36 2393.53 1386.66 2389.03 1386.43 2386.0 C 1386.2 2382.97 1385.51 2378.59 1384.88 2376.26 C 1384.0 2372.96 1384.02 2371.68 1384.99 2370.51 C 1385.84 2369.48 1385.92 2368.6 1385.25 2367.75 C 1384.7 2367.06 1383.95 2364.93 1383.59 2363.0 C 1383.23 2361.07 1382.74 2356.57 1382.5 2353.0 C 1382.27 2349.43 1381.76 2342.22 1381.38 2337.0 C 1381.0 2331.78 1380.6 2319.4 1380.5 2309.5 C 1380.39 2299.6 1379.72 2286.29 1379.01 2279.92 C 1378.24 2273.01 1378.04 2266.76 1378.53 2264.42 C 1378.97 2262.26 1379.2 2260.05 1379.02 2259.5 C 1378.85 2258.95 1378.58 2253.32 1378.41 2247.0 C 1378.24 2240.29 1377.43 2233.0 1376.46 2229.5 C 1375.55 2226.2 1374.32 2221.7 1373.73 2219.5 C 1373.14 2217.3 1372.49 2205.64 1372.29 2193.59 C 1372.05 2179.29 1372.28 2171.32 1372.96 2170.64 C 1373.53 2170.07 1374.0 2167.92 1374.0 2165.86 C 1374.0 2163.8 1373.55 2161.84 1373.0 2161.5 C 1372.45 2161.16 1372.0 2160.0 1372.0 2158.92 C 1372.0 2157.84 1373.16 2155.21 1374.57 2153.07 C 1377.09 2149.26 1377.11 2149.1 1375.57 2144.56 C 1374.71 2142.01 1374.0 2136.88 1374.0 2133.15 C 1374.0 2129.42 1374.85 2123.11 1375.9 2119.13 C 1376.94 2115.15 1378.97 2110.23 1380.41 2108.2 C 1381.84 2106.16 1384.48 2102.93 1386.26 2101.0 C 1388.04 2099.07 1392.65 2094.77 1396.5 2091.44 C 1400.35 2088.1 1406.2 2083.35 1409.5 2080.88 C 1412.8 2078.41 1420.17 2073.32 1425.87 2069.58 C 1431.57 2065.84 1439.65 2061.03 1443.81 2058.9 C 1447.98 2056.77 1453.86 2054.31 1456.89 2053.43 C 1460.69 2052.32 1467.04 2051.78 1477.45 2051.66 C 1489.72 2051.53 1493.05 2051.8 1495.5 2053.14 C 1497.15 2054.04 1502.69 2057.04 1507.81 2059.81 C 1512.92 2062.58 1519.45 2066.61 1522.31 2068.77 C 1525.16 2070.92 1530.04 2075.13 1533.15 2078.12 C 1536.36 2081.2 1540.1 2086.14 1541.81 2089.53 C 1543.46 2092.81 1545.48 2097.53 1546.31 2100.0 C 1547.13 2102.47 1548.34 2107.43 1548.99 2111.0 C 1549.64 2114.57 1550.52 2118.4 1550.96 2119.5 C 1551.39 2120.6 1552.67 2123.53 1553.81 2126.0 C 1554.94 2128.47 1556.17 2132.3 1556.53 2134.5 C 1556.89 2136.7 1557.36 2142.78 1557.57 2148.0 C 1557.78 2153.22 1558.46 2163.5 1559.1 2170.84 C 1560.02 2181.55 1559.99 2184.65 1558.95 2186.59 C 1557.99 2188.39 1557.94 2189.57 1558.75 2191.25 C 1559.35 2192.49 1560.14 2195.3 1560.51 2197.5 C 1560.87 2199.7 1561.52 2203.3 1561.93 2205.5 C 1562.35 2207.7 1563.49 2211.3 1564.46 2213.5 C 1565.43 2215.7 1567.11 2219.3 1568.18 2221.5 C 1569.26 2223.7 1571.89 2228.65 1574.04 2232.5 C 1576.18 2236.35 1577.95 2240.27 1577.97 2241.22 C 1577.99 2242.16 1579.35 2244.47 1581.0 2246.35 C 1582.65 2248.23 1584.01 2250.38 1584.02 2251.13 C 1584.03 2251.88 1585.27 2254.36 1586.77 2256.64 C 1588.27 2258.92 1590.37 2262.29 1591.43 2264.14 C 1592.49 2265.99 1593.26 2268.04 1593.14 2268.71 C 1593.03 2269.38 1594.49 2272.14 1596.39 2274.84 C 1598.29 2277.55 1600.36 2281.73 1600.99 2284.13 C 1601.62 2286.53 1602.6 2290.07 1603.18 2292.0 C 1603.76 2293.93 1605.57 2296.91 1607.2 2298.64 C 1608.95 2300.48 1609.75 2302.04 1609.15 2302.41 C 1608.47 2302.83 1608.65 2304.32 1609.65 2306.77 C 1610.5 2308.82 1612.27 2311.65 1613.59 2313.05 C 1614.92 2314.46 1616.0 2316.62 1616.0 2317.84 C 1616.0 2319.07 1616.9 2321.84 1618.0 2324.0 C 1619.1 2326.16 1620.0 2328.77 1620.0 2329.81 C 1620.0 2330.84 1620.9 2332.5 1622.0 2333.5 C 1623.1 2334.5 1624.0 2336.55 1624.0 2338.06 C 1624.0 2339.57 1624.85 2342.54 1625.88 2344.66 C 1626.92 2346.77 1628.27 2349.62 1628.88 2351.0 C 1629.49 2352.38 1630.39 2354.18 1630.88 2355.0 C 1631.37 2355.82 1632.21 2357.62 1632.75 2359.0 C 1633.28 2360.38 1634.26 2363.3 1634.92 2365.5 C 1635.57 2367.7 1636.93 2371.53 1637.93 2374.0 C 1638.93 2376.47 1640.49 2380.75 1641.38 2383.5 C 1642.28 2386.25 1643.01 2389.75 1643.0 2391.29 C 1643.0 2392.82 1643.64 2395.07 1644.42 2396.29 C 1645.2 2397.5 1646.55 2400.75 1647.41 2403.5 C 1648.27 2406.25 1649.65 2413.19 1650.49 2418.93 C 1651.32 2424.66 1652.01 2434.34 1652.02 2440.43 C 1652.04 2446.52 1652.43 2453.16 1652.91 2455.2 C 1653.38 2457.23 1653.55 2459.12 1653.27 2459.39 C 1653.0 2459.66 1652.62 2464.07 1652.42 2469.19 C 1652.22 2474.31 1651.62 2481.88 1651.09 2486.0 C 1650.55 2490.12 1649.58 2498.22 1648.93 2504.0 C 1648.28 2509.78 1647.1 2515.77 1646.31 2517.32 C 1645.35 2519.21 1645.2 2520.54 1645.86 2521.33 C 1646.48 2522.08 1646.52 2525.78 1645.97 2531.5 C 1645.5 2536.45 1644.6 2545.22 1643.97 2551.0 C 1643.35 2556.78 1642.46 2564.88 1641.99 2569.0 C 1641.52 2573.12 1640.87 2580.1 1640.55 2584.5 C 1640.22 2588.9 1639.48 2594.97 1638.9 2598.0 C 1638.32 2601.03 1637.42 2605.3 1636.91 2607.5 C 1636.4 2609.7 1635.77 2614.57 1635.51 2618.31 C 1635.25 2622.06 1634.75 2625.6 1634.39 2626.18 C 1634.03 2626.75 1633.58 2630.89 1633.39 2635.36 C 1633.19 2639.84 1632.61 2646.65 1632.09 2650.5 C 1631.57 2654.35 1630.66 2661.78 1630.06 2667.0 C 1629.46 2672.22 1628.31 2684.82 1627.49 2695.0 C 1626.68 2705.18 1626.01 2716.9 1626.01 2721.07 C 1626.0 2725.23 1625.52 2731.22 1624.94 2734.39 C 1624.14 2738.7 1624.17 2740.5 1625.06 2741.57 C 1625.97 2742.67 1625.97 2743.33 1625.04 2744.45 C 1624.23 2745.42 1624.15 2746.45 1624.8 2747.6 C 1625.35 2748.59 1625.41 2750.62 1624.93 2752.41 C 1624.48 2754.11 1623.94 2761.61 1623.72 2769.08 C 1623.5 2776.55 1623.0 2783.19 1622.6 2783.83 C 1622.21 2784.47 1622.17 2785.47 1622.53 2786.05 C 1622.89 2786.63 1623.6 2797.31 1624.12 2809.8 C 1624.64 2822.28 1625.32 2835.88 1625.64 2840.0 C 1625.96 2844.12 1626.57 2847.95 1626.99 2848.5 C 1627.41 2849.05 1627.77 2852.78 1627.78 2856.78 C 1627.8 2860.79 1628.28 2864.63 1628.85 2865.32 C 1629.45 2866.04 1629.53 2867.14 1629.03 2867.94 C 1628.54 2868.74 1628.63 2870.2 1629.25 2871.41 C 1629.83 2872.56 1630.69 2874.28 1631.16 2875.24 C 1631.62 2876.19 1632.0 2877.79 1632.0 2878.79 C 1632.0 2879.79 1633.35 2882.74 1635.0 2885.34 C 1636.65 2887.94 1638.0 2890.3 1638.0 2890.58 C 1638.0 2890.86 1640.25 2894.42 1643.0 2898.5 C 1645.75 2902.58 1648.0 2906.52 1648.0 2907.26 C 1648.0 2908.0 1649.35 2910.74 1651.0 2913.34 C 1652.65 2915.94 1654.0 2918.31 1654.0 2918.6 C 1654.0 2918.9 1655.26 2921.02 1656.79 2923.32 C 1658.33 2925.62 1661.12 2930.65 1662.99 2934.5 C 1664.87 2938.35 1667.21 2942.69 1668.2 2944.15 C 1669.19 2945.61 1670.0 2947.45 1670.0 2948.23 C 1670.0 2949.01 1671.33 2952.38 1672.95 2955.73 C 1674.57 2959.08 1676.37 2962.11 1676.95 2962.47 C 1677.53 2962.83 1678.0 2963.93 1678.0 2964.92 C 1678.0 2965.92 1678.9 2967.87 1680.0 2969.27 C 1681.1 2970.67 1682.0 2972.54 1682.0 2973.43 C 1682.0 2974.32 1683.7 2976.95 1685.78 2979.27 C 1687.86 2981.6 1690.9 2985.53 1692.52 2988.0 C 1694.15 2990.47 1697.06 2994.44 1698.99 2996.81 C 1700.92 2999.19 1704.72 3002.34 1707.43 3003.81 C 1710.14 3005.29 1713.0 3006.36 1713.79 3006.18 C 1714.58 3006.01 1716.09 3006.79 1717.15 3007.93 C 1718.21 3009.07 1719.85 3010.02 1720.79 3010.04 C 1721.73 3010.05 1723.6 3010.68 1724.94 3011.42 C 1726.28 3012.16 1732.46 3017.88 1738.68 3024.13 C 1744.9 3030.39 1749.98 3036.18 1749.97 3037.0 C 1749.95 3037.82 1749.28 3039.37 1748.47 3040.44 C 1747.66 3041.51 1747.0 3043.16 1747.0 3044.11 C 1747.0 3045.07 1748.12 3047.18 1749.5 3048.82 C 1750.88 3050.45 1752.0 3052.52 1752.0 3053.41 C 1752.0 3054.29 1750.2 3057.67 1747.99 3060.9 C 1745.78 3064.13 1743.33 3067.31 1742.53 3067.98 C 1741.73 3068.64 1738.34 3069.43 1734.99 3069.73 C 1729.33 3070.25 1728.82 3070.5 1727.6 3073.42 C 1726.88 3075.15 1723.92 3078.69 1721.02 3081.3 C 1716.78 3085.1 1715.47 3085.8 1714.33 3084.86 C 1713.26 3083.97 1712.63 3083.97 1711.76 3084.84 C 1711.08 3085.52 1707.38 3086.0 1702.84 3086.0 C 1695.67 3086.0 1694.89 3086.21 1692.54 3088.74 C 1691.14 3090.25 1690.0 3091.8 1690.0 3092.2 C 1690.0 3092.6 1688.99 3093.87 1687.75 3095.03 C 1686.51 3096.18 1684.15 3097.77 1682.5 3098.54 C 1680.56 3099.46 1676.51 3099.91 1671.0 3099.81 C 1666.33 3099.74 1660.74 3099.06 1658.58 3098.32 C 1656.43 3097.58 1653.8 3097.25 1652.75 3097.58 C 1651.5 3097.98 1650.14 3097.45 1648.87 3096.1 C 1647.8 3094.94 1646.59 3094.0 1646.19 3094.0 C 1645.78 3094.0 1643.13 3091.75 1640.29 3089.0 C 1637.45 3086.25 1634.67 3084.0 1634.1 3084.0 C 1633.53 3084.0 1632.59 3084.89 1632.01 3085.99 C 1631.42 3087.08 1628.7 3090.07 1625.96 3092.63 C 1623.22 3095.19 1618.71 3098.75 1615.93 3100.55 C 1613.15 3102.34 1609.22 3104.1 1607.19 3104.47 C 1605.16 3104.84 1602.4 3105.86 1601.05 3106.73 C 1599.34 3107.83 1598.49 3107.96 1598.22 3107.15 C 1598.01 3106.52 1597.0 3106.0 1595.98 3106.0 C 1594.95 3106.0 1593.84 3106.45 1593.5 3107.0 C 1593.16 3107.55 1591.22 3107.99 1589.19 3107.98 Z M 795.0 3080.0 C 795.55 3080.0 796.0 3079.55 796.0 3079.0 C 796.0 3078.45 795.55 3078.0 795.0 3078.0 C 794.45 3078.0 794.0 3078.45 794.0 3079.0 C 794.0 3079.55 794.45 3080.0 795.0 3080.0 Z " opacity="1.0" fill="#000000" stroke="none" fill-rule="evenodd"/></svg>