<svg width="2400" height="3200" xmlns="http://www.w3.org/2000/svg" viewBox="0 0 2400 3200"><path d="M 1592.06 3109.86 C 1585.04 3110.29 1580.05 3110.1 1576.82 3109.27 C 1574.17 3108.6 1570.09 3107.07 1567.75 3105.88 C 1565.41 3104.69 1561.73 3102.2 1559.57 3100.36 C 1557.41 3098.51 1555.25 3097.0 1554.78 3097.0 C 1554.3 3097.0 1552.87 3095.99 1551.59 3094.75 C 1550.32 3093.51 1548.58 3091.15 1547.73 3089.5 C 1546.88 3087.85 1545.45 3084.4 1544.54 3081.83 C 1543.64 3079.26 1542.24 3076.62 1541.45 3075.96 C 1540.65 3075.3 1540.0 3074.08 1540.0 3073.26 C 1540.0 3072.44 1539.13 3070.14 1538.08 3068.14 C 1537.02 3066.14 1535.9 3063.34 1535.6 3061.92 C 1535.26 3060.34 1529.72 3054.12 1521.36 3045.92 C 1513.82 3038.54 1506.39 3031.21 1504.83 3029.64 C 1503.27 3028.07 1500.61 3024.73 1498.91 3022.21 C 1497.21 3019.69 1494.47 3013.56 1492.82 3008.57 C 1490.0 3000.07 1489.85 2998.86 1490.44 2989.21 L 1491.07 2978.93 C 1486.52 2975.1 1484.21 2971.19 1482.52 2966.88 C 1479.74 2959.8 1479.7 2959.43 1480.92 2952.06 C 1481.61 2947.9 1482.79 2942.47 1483.54 2940.0 C 1484.29 2937.53 1486.3 2930.78 1488.01 2925.0 C 1489.72 2919.22 1491.55 2913.71 1492.08 2912.74 C 1492.64 2911.7 1492.76 2905.93 1492.37 2898.64 C 1491.74 2886.75 1491.8 2886.12 1494.24 2881.4 C 1495.63 2878.71 1497.77 2873.12 1498.99 2869.0 C 1500.22 2864.88 1501.79 2858.35 1502.49 2854.5 C 1503.19 2850.65 1504.33 2839.98 1505.03 2830.8 C 1505.8 2820.7 1506.01 2810.22 1505.56 2804.3 C 1505.16 2798.91 1504.67 2790.38 1504.49 2785.34 C 1504.3 2780.3 1503.93 2774.67 1503.66 2772.84 C 1503.39 2771.0 1502.66 2764.55 1502.04 2758.5 C 1501.42 2752.45 1500.45 2743.0 1499.89 2737.5 C 1499.33 2732.0 1498.22 2725.31 1497.43 2722.64 C 1496.64 2719.96 1495.99 2716.36 1495.98 2714.64 C 1495.96 2712.91 1495.51 2709.57 1494.96 2707.21 C 1494.42 2704.85 1493.74 2699.7 1493.45 2695.77 C 1493.16 2691.84 1492.47 2688.06 1491.9 2687.38 C 1491.34 2686.7 1490.67 2683.97 1490.43 2681.32 C 1490.18 2678.67 1489.03 2672.45 1487.86 2667.5 C 1486.69 2662.55 1484.2 2652.43 1482.32 2645.0 C 1480.43 2637.57 1478.51 2629.93 1478.04 2628.0 C 1477.57 2626.07 1474.96 2618.2 1472.23 2610.5 C 1469.51 2602.8 1466.48 2594.7 1465.5 2592.5 C 1464.52 2590.3 1463.34 2587.49 1462.86 2586.25 C 1462.39 2585.01 1461.59 2582.99 1461.1 2581.75 C 1460.6 2580.51 1458.18 2575.22 1455.73 2570.0 C 1453.27 2564.78 1450.57 2558.93 1449.71 2557.0 C 1448.85 2555.07 1446.51 2549.68 1444.51 2545.0 C 1442.5 2540.32 1438.59 2531.55 1435.82 2525.5 C 1433.06 2519.45 1429.49 2511.73 1427.89 2508.34 C 1426.3 2504.95 1425.0 2501.63 1425.0 2500.98 C 1425.0 2500.32 1423.6 2497.02 1421.88 2493.64 C 1420.17 2490.26 1418.4 2486.6 1417.96 2485.5 C 1417.53 2484.4 1416.57 2482.04 1415.84 2480.25 C 1415.11 2478.46 1414.15 2477.0 1413.7 2477.0 C 1413.25 2477.0 1413.13 2476.6 1413.43 2476.12 C 1413.73 2475.63 1413.08 2474.1 1411.99 2472.71 C 1410.89 2471.32 1410.0 2469.74 1410.0 2469.2 C 1410.0 2468.65 1408.38 2464.67 1406.41 2460.35 C 1404.43 2456.03 1401.0 2448.68 1398.78 2444.0 C 1396.56 2439.32 1393.17 2431.0 1391.25 2425.5 C 1389.33 2420.0 1387.12 2413.25 1386.34 2410.5 C 1385.56 2407.75 1384.69 2403.95 1384.42 2402.06 C 1384.16 2400.17 1383.56 2398.15 1383.11 2397.56 C 1382.65 2396.98 1382.22 2394.56 1382.15 2392.19 C 1382.07 2389.83 1381.62 2387.13 1381.14 2386.19 C 1380.66 2385.26 1379.92 2379.55 1379.48 2373.5 C 1379.05 2367.45 1378.61 2351.7 1378.5 2338.5 C 1378.39 2325.3 1377.82 2312.03 1377.22 2309.0 C 1376.63 2305.97 1375.85 2294.5 1375.5 2283.5 C 1375.15 2272.5 1374.46 2257.88 1373.98 2251.0 C 1373.49 2244.12 1372.61 2234.51 1372.02 2229.63 C 1371.43 2224.76 1370.71 2219.13 1370.42 2217.13 C 1370.13 2215.13 1369.46 2210.94 1368.92 2207.82 C 1368.38 2204.69 1367.88 2192.99 1367.81 2181.82 C 1367.74 2170.64 1367.79 2156.55 1367.93 2150.5 C 1368.07 2144.37 1368.84 2137.29 1369.68 2134.5 C 1370.5 2131.75 1371.9 2127.93 1372.78 2126.0 L 1374.39 2122.5 C 1375.55 2128.7 1376.55 2134.22 1377.36 2138.77 C 1378.67 2146.07 1378.67 2148.28 1377.37 2157.64 C 1376.31 2165.2 1376.01 2174.14 1376.29 2188.87 C 1376.52 2200.22 1377.17 2211.3 1377.75 2213.5 C 1378.33 2215.7 1379.81 2221.78 1381.04 2227.0 C 1382.91 2234.96 1383.31 2239.83 1383.51 2257.0 C 1383.64 2268.28 1384.27 2282.45 1384.92 2288.5 C 1385.57 2294.55 1385.96 2305.35 1385.8 2312.5 C 1385.63 2319.65 1385.82 2329.55 1386.22 2334.5 C 1386.61 2339.45 1387.19 2348.0 1387.5 2353.5 C 1387.82 2359.0 1388.55 2367.32 1389.14 2372.0 C 1389.73 2376.68 1390.89 2383.88 1391.73 2388.0 C 1392.56 2392.12 1393.59 2397.07 1394.02 2399.0 C 1394.45 2400.93 1395.32 2404.75 1395.95 2407.5 C 1396.58 2410.25 1397.55 2414.3 1398.09 2416.5 C 1398.64 2418.7 1399.47 2422.07 1399.94 2424.0 C 1400.41 2425.93 1401.9 2430.65 1403.26 2434.5 C 1404.62 2438.35 1406.75 2443.75 1407.98 2446.5 C 1409.22 2449.25 1411.08 2453.3 1412.12 2455.5 C 1413.16 2457.7 1415.57 2462.43 1417.48 2466.0 C 1419.4 2469.57 1420.97 2473.06 1420.98 2473.75 C 1420.99 2474.44 1421.38 2475.0 1421.84 2475.0 C 1422.3 2475.0 1423.21 2476.75 1423.85 2478.88 C 1424.49 2481.02 1425.64 2483.28 1426.4 2483.92 C 1427.17 2484.55 1427.58 2485.88 1427.33 2486.86 C 1427.07 2487.84 1427.53 2489.2 1428.36 2489.88 C 1429.18 2490.56 1430.65 2493.68 1431.63 2496.81 C 1432.61 2499.94 1433.99 2503.09 1434.7 2503.82 C 1435.42 2504.55 1436.0 2505.8 1436.0 2506.61 C 1436.0 2507.42 1436.85 2509.75 1437.89 2511.79 C 1438.93 2513.83 1439.82 2515.95 1439.85 2516.5 C 1439.89 2517.05 1440.58 2519.07 1441.38 2521.0 C 1442.18 2522.93 1443.83 2527.2 1445.04 2530.5 C 1446.25 2533.8 1447.68 2537.36 1448.22 2538.4 C 1448.77 2539.45 1450.51 2543.5 1452.1 2547.4 C 1453.69 2551.31 1454.99 2554.82 1455.0 2555.21 C 1455.0 2555.6 1456.97 2560.1 1459.38 2565.21 C 1461.78 2570.32 1464.98 2577.2 1466.48 2580.5 C 1467.99 2583.8 1470.52 2589.88 1472.12 2594.0 C 1473.71 2598.12 1475.47 2602.28 1476.01 2603.24 C 1476.55 2604.19 1477.0 2605.85 1477.0 2606.93 C 1477.0 2608.0 1477.45 2609.16 1478.0 2609.5 C 1478.55 2609.84 1479.02 2611.1 1479.04 2612.31 C 1479.07 2613.51 1479.76 2616.3 1480.58 2618.5 C 1481.4 2620.7 1483.2 2626.1 1484.58 2630.5 C 1485.96 2634.9 1487.52 2640.07 1488.06 2642.0 C 1488.59 2643.93 1489.44 2647.3 1489.95 2649.5 C 1490.46 2651.7 1491.32 2655.07 1491.87 2657.0 C 1492.41 2658.93 1493.83 2664.1 1495.02 2668.5 C 1496.2 2672.9 1498.5 2682.35 1500.12 2689.5 C 1501.75 2696.65 1503.27 2703.62 1503.51 2705.0 C 1503.75 2706.38 1504.85 2713.8 1505.96 2721.5 C 1507.07 2729.2 1508.69 2742.25 1509.56 2750.5 C 1510.6 2760.27 1511.25 2777.35 1511.43 2799.5 C 1511.59 2818.2 1511.36 2838.57 1510.92 2844.76 C 1510.49 2850.96 1509.38 2859.51 1508.46 2863.76 C 1507.54 2868.02 1504.83 2877.23 1502.44 2884.24 L 1498.09 2896.97 C 1500.57 2904.36 1501.66 2907.4 1502.1 2908.5 C 1502.54 2909.6 1503.6 2912.65 1504.45 2915.28 C 1505.3 2917.92 1506.0 2921.01 1506.0 2922.17 C 1506.0 2923.32 1506.48 2926.12 1507.06 2928.38 C 1507.65 2930.65 1508.6 2934.01 1509.17 2935.85 C 1509.74 2937.69 1509.82 2939.57 1509.35 2940.02 C 1508.88 2940.47 1507.62 2940.98 1506.53 2941.17 C 1504.84 2941.45 1504.33 2940.46 1502.86 2934.0 C 1501.93 2929.88 1500.56 2924.81 1499.83 2922.75 C 1499.11 2920.69 1498.09 2919.14 1497.59 2919.3 C 1497.08 2919.47 1496.04 2921.39 1495.27 2923.56 C 1494.51 2925.73 1493.2 2929.97 1492.35 2933.0 C 1491.51 2936.03 1490.15 2941.87 1489.33 2945.98 C 1488.47 2950.3 1488.11 2955.25 1488.48 2957.7 C 1488.83 2960.04 1489.54 2962.22 1490.06 2962.54 C 1490.58 2962.86 1491.0 2963.94 1491.0 2964.94 C 1491.0 2965.94 1491.65 2967.29 1492.44 2967.95 C 1493.64 2968.94 1494.06 2968.49 1494.94 2965.32 C 1495.52 2963.22 1496.42 2960.85 1496.93 2960.05 C 1497.66 2958.92 1498.01 2959.2 1498.56 2961.39 C 1498.95 2962.93 1498.71 2966.03 1498.03 2968.28 C 1497.18 2971.14 1497.02 2975.73 1497.5 2983.44 C 1497.88 2989.52 1498.86 2997.2 1499.67 3000.5 C 1500.49 3003.8 1501.49 3008.08 1501.9 3010.01 C 1502.31 3011.95 1503.5 3014.87 1504.56 3016.51 C 1505.61 3018.16 1510.97 3024.1 1516.47 3029.72 C 1522.71 3036.1 1527.52 3040.17 1529.24 3040.55 C 1530.76 3040.89 1532.0 3041.62 1532.0 3042.19 C 1532.0 3042.78 1533.04 3042.96 1534.47 3042.6 C 1536.5 3042.09 1537.21 3042.51 1538.47 3044.94 C 1539.31 3046.57 1540.0 3049.03 1540.0 3050.4 C 1540.0 3051.78 1540.5 3054.16 1541.12 3055.7 C 1541.73 3057.24 1543.47 3061.2 1544.99 3064.5 C 1546.5 3067.8 1548.72 3072.53 1549.93 3075.0 C 1551.13 3077.47 1553.77 3082.4 1555.81 3085.94 C 1558.43 3090.53 1560.8 3093.19 1564.0 3095.18 C 1566.47 3096.71 1569.62 3098.48 1571.0 3099.11 C 1572.38 3099.74 1574.58 3100.75 1575.89 3101.37 C 1577.29 3102.02 1583.15 3102.44 1589.89 3102.37 C 1596.91 3102.3 1603.67 3101.65 1607.0 3100.72 C 1610.03 3099.88 1613.4 3098.85 1614.5 3098.43 C 1615.6 3098.01 1617.17 3097.1 1618.0 3096.41 C 1618.83 3095.71 1621.08 3093.65 1623.0 3091.82 C 1624.92 3089.99 1627.45 3087.14 1628.62 3085.47 C 1629.78 3083.8 1631.74 3080.47 1632.97 3078.05 C 1635.02 3074.04 1635.1 3073.32 1633.88 3069.58 C 1633.04 3067.0 1630.54 3063.58 1627.07 3060.25 C 1624.06 3057.36 1621.08 3055.0 1620.45 3055.0 C 1619.82 3055.0 1615.98 3052.23 1611.9 3048.85 C 1607.83 3045.47 1601.58 3039.93 1598.0 3036.54 C 1594.42 3033.16 1590.04 3029.8 1588.25 3029.07 C 1586.46 3028.35 1585.0 3027.31 1585.0 3026.76 C 1585.0 3026.21 1586.01 3026.04 1587.25 3026.37 C 1588.49 3026.7 1590.45 3026.98 1591.61 3026.99 C 1592.78 3026.99 1597.45 3030.24 1602.11 3034.29 C 1606.72 3038.3 1612.97 3043.35 1616.0 3045.5 C 1619.03 3047.66 1621.86 3050.01 1622.3 3050.72 C 1622.74 3051.42 1623.56 3052.0 1624.13 3052.0 C 1624.7 3052.0 1627.61 3053.63 1630.6 3055.61 C 1633.74 3057.7 1637.07 3060.98 1638.47 3063.36 C 1639.81 3065.64 1641.18 3069.3 1641.53 3071.5 C 1641.94 3074.07 1641.61 3077.11 1640.61 3080.0 C 1639.59 3082.95 1639.42 3084.62 1640.1 3084.86 C 1640.68 3085.06 1642.48 3086.51 1644.1 3088.1 C 1645.72 3089.68 1648.27 3091.24 1649.77 3091.57 C 1651.27 3091.89 1653.62 3092.54 1655.0 3092.99 C 1656.38 3093.45 1659.53 3094.25 1662.0 3094.77 C 1664.47 3095.29 1668.08 3095.8 1670.0 3095.89 C 1671.92 3095.99 1675.75 3095.55 1678.5 3094.91 C 1681.25 3094.27 1684.29 3093.06 1685.25 3092.22 C 1686.21 3091.38 1687.0 3090.03 1687.0 3089.22 C 1687.0 3088.41 1685.2 3085.06 1683.0 3081.76 C 1680.8 3078.47 1679.0 3075.15 1679.0 3074.39 C 1679.0 3073.62 1678.55 3073.0 1678.0 3073.0 C 1677.45 3073.0 1677.0 3071.65 1677.0 3070.0 C 1677.0 3068.35 1676.55 3067.0 1676.0 3067.0 C 1675.45 3067.0 1674.99 3065.76 1674.99 3064.25 C 1674.98 3062.74 1674.72 3060.6 1674.42 3059.5 C 1674.12 3058.4 1671.71 3056.02 1669.07 3054.22 C 1666.43 3052.42 1659.93 3046.48 1654.63 3041.03 C 1649.33 3035.58 1645.36 3030.89 1645.82 3030.61 C 1646.28 3030.33 1647.63 3030.35 1648.83 3030.66 C 1650.02 3030.98 1651.0 3031.97 1651.01 3032.87 C 1651.02 3033.76 1653.75 3036.49 1657.08 3038.91 C 1660.41 3041.34 1666.59 3046.84 1670.82 3051.14 C 1675.04 3055.43 1679.06 3059.61 1679.75 3060.43 C 1680.44 3061.25 1681.0 3062.62 1681.0 3063.48 C 1681.0 3064.34 1682.13 3066.82 1683.5 3069.01 C 1684.88 3071.19 1687.95 3075.0 1690.33 3077.49 L 1694.66 3082.0 C 1711.24 3082.0 1715.2 3081.52 1717.51 3080.43 C 1719.33 3079.57 1721.56 3078.04 1722.47 3077.03 C 1723.38 3076.02 1724.17 3073.87 1724.21 3072.25 C 1724.26 3070.38 1723.04 3067.53 1720.9 3064.54 C 1719.03 3061.93 1716.73 3058.3 1715.78 3056.49 C 1714.67 3054.35 1712.88 3052.79 1710.71 3052.07 C 1708.86 3051.46 1703.56 3048.26 1698.92 3044.96 C 1694.29 3041.67 1689.25 3038.42 1687.72 3037.76 C 1686.19 3037.09 1685.07 3035.89 1685.22 3035.1 C 1685.37 3034.31 1686.01 3033.5 1686.62 3033.29 C 1687.24 3033.09 1687.98 3033.83 1688.28 3034.95 C 1688.57 3036.06 1689.98 3037.42 1691.42 3037.97 C 1692.85 3038.51 1695.48 3039.98 1697.26 3041.23 C 1699.04 3042.48 1700.64 3043.8 1700.8 3044.16 C 1700.97 3044.52 1703.65 3046.06 1706.76 3047.58 C 1709.87 3049.1 1715.04 3052.97 1718.26 3056.18 C 1721.48 3059.39 1725.78 3062.87 1727.81 3063.9 C 1729.84 3064.94 1731.72 3065.8 1732.0 3065.83 C 1732.28 3065.85 1733.25 3066.16 1734.16 3066.51 C 1735.07 3066.86 1737.17 3066.45 1738.82 3065.59 C 1740.47 3064.74 1742.7 3062.92 1743.77 3061.56 C 1744.85 3060.2 1746.28 3057.74 1746.96 3056.1 C 1747.96 3053.68 1747.94 3052.77 1746.85 3051.26 C 1746.11 3050.25 1743.47 3047.58 1741.0 3045.34 C 1738.53 3043.1 1734.92 3040.48 1733.0 3039.52 C 1731.08 3038.55 1726.66 3034.89 1723.18 3031.38 C 1719.71 3027.87 1716.42 3025.0 1715.88 3025.0 C 1715.33 3025.0 1715.17 3024.54 1715.51 3023.98 C 1715.9 3023.35 1717.18 3023.71 1718.88 3024.92 C 1720.39 3025.99 1722.79 3027.16 1724.22 3027.52 C 1725.78 3027.91 1727.06 3029.08 1727.4 3030.44 C 1727.71 3031.68 1729.88 3034.01 1732.23 3035.6 C 1734.58 3037.19 1736.72 3038.77 1737.0 3039.1 C 1737.28 3039.43 1738.79 3039.94 1740.37 3040.23 C 1742.37 3040.61 1743.8 3040.2 1745.12 3038.88 C 1746.15 3037.85 1747.0 3036.55 1747.0 3035.99 C 1747.0 3035.43 1746.07 3034.2 1744.93 3033.24 C 1743.79 3032.28 1741.15 3029.93 1739.06 3028.0 C 1736.97 3026.07 1734.42 3023.77 1733.38 3022.87 C 1732.35 3021.98 1730.22 3019.84 1728.66 3018.12 C 1727.1 3016.4 1724.63 3014.72 1723.16 3014.39 C 1721.7 3014.06 1716.9 3012.39 1712.5 3010.69 C 1706.18 3008.24 1703.38 3006.45 1699.2 3002.19 C 1696.28 2999.23 1690.34 2991.56 1686.0 2985.15 C 1681.66 2978.74 1673.37 2964.18 1667.58 2952.78 C 1661.8 2941.39 1656.02 2930.36 1654.73 2928.28 C 1653.45 2926.2 1650.67 2921.12 1648.54 2917.0 C 1646.41 2912.88 1644.29 2909.35 1643.84 2909.17 C 1643.38 2908.98 1643.0 2908.0 1643.0 2906.98 C 1643.0 2905.95 1642.6 2904.87 1642.1 2904.56 C 1641.61 2904.26 1640.25 2902.18 1639.09 2899.94 C 1637.92 2897.71 1635.85 2894.67 1634.48 2893.2 C 1633.12 2891.73 1632.0 2889.75 1632.0 2888.82 C 1632.0 2887.88 1631.63 2886.89 1631.19 2886.62 C 1630.74 2886.34 1629.43 2883.05 1628.28 2879.31 C 1627.12 2875.56 1625.47 2869.35 1624.6 2865.5 C 1623.73 2861.65 1622.92 2855.35 1622.8 2851.5 C 1622.68 2847.65 1622.28 2844.28 1621.91 2844.0 C 1621.53 2843.72 1620.92 2836.1 1620.55 2827.06 C 1620.18 2818.01 1619.89 2798.89 1619.89 2784.56 C 1619.9 2770.23 1620.17 2749.72 1620.5 2739.0 C 1620.82 2728.28 1621.28 2718.38 1621.52 2717.0 C 1621.76 2715.62 1622.21 2709.1 1622.53 2702.5 C 1622.85 2695.9 1623.77 2684.65 1624.58 2677.5 C 1625.39 2670.35 1626.22 2662.93 1626.43 2661.0 C 1626.64 2659.07 1627.29 2654.35 1627.88 2650.5 C 1628.48 2646.65 1628.97 2640.76 1628.98 2637.42 C 1628.99 2634.07 1629.3 2631.03 1629.67 2630.67 C 1630.04 2630.3 1630.5 2626.97 1630.7 2623.27 C 1630.89 2619.57 1631.49 2616.11 1632.03 2615.57 C 1632.56 2615.04 1633.0 2613.23 1633.01 2611.55 C 1633.01 2609.87 1633.65 2604.22 1634.43 2599.0 C 1635.21 2593.78 1636.13 2586.57 1636.47 2583.0 C 1636.81 2579.43 1637.29 2572.71 1637.53 2568.09 C 1637.77 2563.46 1638.24 2558.83 1638.57 2557.79 C 1638.9 2556.75 1639.34 2553.34 1639.56 2550.2 C 1639.77 2547.07 1640.2 2542.47 1640.5 2540.0 C 1640.81 2537.53 1641.52 2530.78 1642.08 2525.0 C 1642.64 2519.22 1643.48 2510.45 1643.94 2505.5 C 1644.4 2500.55 1645.28 2493.52 1645.89 2489.88 C 1646.5 2486.23 1646.99 2482.18 1646.97 2480.88 C 1646.96 2479.57 1647.35 2471.53 1647.84 2463.0 C 1648.33 2454.47 1648.55 2443.68 1648.34 2439.0 C 1648.13 2434.32 1647.76 2428.85 1647.52 2426.84 C 1647.28 2424.83 1646.85 2422.13 1646.57 2420.84 C 1646.29 2419.55 1645.83 2417.15 1645.55 2415.5 C 1645.27 2413.85 1644.58 2410.59 1644.02 2408.25 C 1643.46 2405.91 1642.61 2402.31 1642.14 2400.25 C 1641.67 2398.19 1640.8 2395.38 1640.21 2394.0 C 1639.62 2392.62 1638.41 2388.8 1637.52 2385.5 C 1636.63 2382.2 1635.45 2378.15 1634.89 2376.5 C 1634.33 2374.85 1633.17 2371.25 1632.32 2368.5 C 1631.47 2365.75 1630.19 2362.15 1629.49 2360.5 C 1628.78 2358.85 1627.3 2355.25 1626.18 2352.5 C 1625.07 2349.75 1622.97 2344.35 1621.51 2340.5 C 1620.05 2336.65 1617.27 2329.68 1615.33 2325.0 C 1613.4 2320.32 1609.57 2311.55 1606.82 2305.5 C 1604.08 2299.45 1599.24 2289.1 1596.06 2282.5 C 1592.89 2275.9 1589.55 2268.86 1588.65 2266.85 C 1587.74 2264.84 1587.0 2262.99 1587.0 2262.73 C 1587.0 2262.47 1583.85 2257.03 1580.0 2250.64 C 1576.15 2244.25 1573.0 2238.56 1573.0 2238.01 C 1573.0 2237.45 1572.55 2237.0 1572.0 2237.0 C 1571.45 2237.0 1571.0 2236.66 1571.0 2236.25 C 1570.99 2235.84 1568.1 2229.93 1564.56 2223.11 C 1559.79 2213.92 1557.87 2209.02 1557.11 2204.11 C 1556.55 2200.48 1555.84 2190.97 1555.54 2183.0 C 1555.24 2175.03 1554.74 2163.78 1554.43 2158.0 C 1554.11 2152.22 1553.49 2146.6 1553.04 2145.5 C 1552.58 2144.4 1551.69 2140.39 1551.05 2136.6 C 1550.42 2132.8 1549.2 2128.36 1548.36 2126.73 C 1547.51 2125.09 1546.61 2122.58 1546.35 2121.13 C 1546.09 2119.68 1545.46 2118.07 1544.94 2117.55 C 1544.42 2117.03 1544.0 2115.75 1544.0 2114.7 C 1544.0 2113.66 1543.36 2111.61 1542.59 2110.15 C 1541.81 2108.69 1539.84 2104.57 1538.22 2101.0 C 1536.6 2097.43 1535.0 2092.11 1534.67 2089.18 C 1534.35 2086.26 1533.39 2082.47 1532.54 2080.78 C 1531.69 2079.08 1531.0 2076.41 1531.0 2074.85 C 1531.0 2073.28 1531.38 2072.0 1531.85 2072.0 C 1532.31 2072.0 1533.4 2072.79 1534.27 2073.75 C 1535.14 2074.71 1535.88 2075.84 1535.91 2076.26 C 1535.93 2076.68 1537.56 2079.53 1539.52 2082.59 C 1541.48 2085.66 1543.77 2090.26 1544.61 2092.83 C 1545.45 2095.4 1546.83 2099.03 1547.69 2100.91 C 1548.54 2102.78 1550.54 2106.35 1552.12 2108.85 C 1553.7 2111.35 1555.01 2114.32 1555.03 2115.45 C 1555.05 2116.58 1555.71 2118.35 1556.5 2119.4 C 1557.29 2120.44 1557.69 2121.7 1557.38 2122.19 C 1557.08 2122.68 1557.24 2123.63 1557.75 2124.29 C 1558.26 2124.96 1559.41 2127.97 1560.32 2131.0 C 1561.59 2135.2 1562.01 2141.09 1562.12 2156.0 C 1562.23 2170.96 1562.73 2177.83 1564.25 2185.5 C 1565.34 2191.0 1566.59 2197.3 1567.03 2199.5 C 1567.47 2201.7 1568.72 2206.65 1569.81 2210.5 C 1570.9 2214.35 1572.47 2219.3 1573.3 2221.5 C 1574.12 2223.7 1578.39 2232.7 1582.77 2241.5 C 1587.15 2250.3 1593.02 2262.22 1595.81 2268.0 C 1598.59 2273.78 1603.64 2284.35 1607.03 2291.5 C 1610.42 2298.65 1613.83 2305.81 1614.6 2307.4 C 1615.37 2309.0 1616.0 2310.67 1616.0 2311.11 C 1616.0 2311.55 1617.38 2314.97 1619.07 2318.71 C 1620.76 2322.44 1622.94 2327.3 1623.93 2329.5 C 1624.92 2331.7 1627.55 2338.22 1629.78 2344.0 C 1632.02 2349.78 1635.27 2358.78 1637.02 2364.0 C 1638.77 2369.22 1640.61 2373.93 1641.1 2374.45 C 1641.6 2374.97 1642.01 2376.32 1642.03 2377.45 C 1642.05 2378.58 1642.96 2381.97 1644.05 2385.0 C 1645.15 2388.03 1646.23 2391.18 1646.47 2392.0 C 1646.7 2392.82 1647.39 2395.07 1648.01 2397.0 C 1648.62 2398.93 1649.72 2402.75 1650.44 2405.5 C 1651.17 2408.25 1652.24 2413.43 1652.83 2417.0 C 1653.42 2420.57 1654.22 2427.32 1654.6 2432.0 C 1654.99 2436.68 1655.41 2442.53 1655.54 2445.0 C 1655.66 2447.47 1655.82 2456.25 1655.9 2464.5 C 1655.97 2472.75 1655.79 2482.43 1655.5 2486.0 C 1655.21 2489.57 1654.55 2496.32 1654.04 2501.0 C 1653.52 2505.68 1652.81 2513.32 1652.46 2518.0 C 1652.11 2522.68 1651.62 2528.3 1651.38 2530.5 C 1651.13 2532.7 1650.49 2538.14 1649.96 2542.58 C 1649.42 2547.03 1648.76 2553.33 1648.48 2556.58 C 1648.2 2559.84 1646.66 2570.82 1645.06 2581.0 C 1643.45 2591.18 1641.21 2606.93 1640.08 2616.0 C 1638.94 2625.07 1637.76 2634.75 1637.44 2637.5 C 1637.12 2640.25 1636.65 2644.07 1636.4 2646.0 C 1636.15 2647.93 1635.53 2653.32 1635.02 2658.0 C 1634.52 2662.68 1633.42 2672.35 1632.59 2679.5 C 1631.76 2686.65 1630.38 2701.28 1629.52 2712.0 C 1628.66 2722.72 1627.69 2747.7 1627.35 2767.5 C 1626.98 2789.59 1627.17 2811.51 1627.86 2824.24 C 1628.7 2839.63 1629.61 2847.63 1631.42 2855.24 C 1632.76 2860.88 1634.14 2867.3 1634.49 2869.5 C 1634.83 2871.7 1636.03 2876.2 1637.14 2879.5 C 1638.25 2882.8 1640.47 2888.33 1642.08 2891.79 C 1643.68 2895.26 1645.0 2898.27 1645.0 2898.5 C 1645.0 2898.73 1646.43 2901.29 1648.18 2904.21 C 1649.93 2907.12 1653.59 2913.55 1656.3 2918.5 C 1659.02 2923.45 1662.81 2930.43 1664.72 2934.0 C 1666.64 2937.57 1669.22 2942.07 1670.45 2944.0 C 1671.68 2945.93 1674.63 2950.88 1677.0 2955.0 C 1679.37 2959.12 1682.26 2963.96 1683.41 2965.74 C 1684.56 2967.53 1685.84 2968.99 1686.25 2968.99 C 1686.66 2969.0 1687.0 2969.47 1687.0 2970.05 C 1687.0 2970.63 1689.45 2974.79 1692.44 2979.3 C 1695.43 2983.81 1699.48 2989.63 1701.44 2992.23 C 1703.4 2994.83 1705.0 2997.62 1705.0 2998.43 C 1705.0 2999.24 1706.91 3001.19 1709.25 3002.76 C 1711.59 3004.33 1716.42 3006.86 1720.0 3008.38 C 1723.58 3009.91 1727.98 3011.91 1729.8 3012.83 C 1731.61 3013.75 1733.83 3015.62 1734.72 3017.0 C 1735.62 3018.38 1739.83 3023.05 1744.09 3027.38 L 1751.82 3035.26 C 1751.88 3055.95 1751.56 3058.22 1749.54 3062.65 C 1748.15 3065.71 1746.35 3068.07 1745.1 3068.47 C 1743.95 3068.83 1743.0 3069.5 1743.0 3069.95 C 1743.0 3070.4 1741.54 3071.06 1739.75 3071.4 C 1737.96 3071.75 1736.05 3072.03 1735.5 3072.03 C 1734.95 3072.03 1733.4 3071.91 1732.06 3071.76 C 1730.04 3071.55 1729.43 3072.11 1728.6 3074.95 C 1728.05 3076.85 1725.95 3080.05 1723.93 3082.07 C 1721.86 3084.14 1718.8 3086.03 1716.88 3086.42 C 1715.02 3086.79 1709.76 3087.64 1705.19 3088.3 C 1698.19 3089.31 1696.37 3089.98 1693.69 3092.52 C 1691.93 3094.18 1688.86 3096.79 1686.85 3098.31 C 1684.85 3099.83 1681.76 3101.5 1679.99 3102.0 C 1678.23 3102.51 1672.75 3103.17 1667.83 3103.48 C 1661.37 3103.89 1657.47 3103.62 1653.8 3102.53 C 1651.01 3101.7 1647.32 3100.0 1645.61 3098.75 C 1643.9 3097.5 1640.64 3095.47 1638.36 3094.24 C 1636.09 3093.01 1633.6 3092.0 1632.83 3092.0 C 1632.05 3092.0 1628.97 3094.31 1625.96 3097.14 C 1622.96 3099.97 1618.91 3103.34 1616.98 3104.62 C 1615.04 3105.91 1610.99 3107.47 1607.98 3108.09 C 1604.96 3108.7 1597.8 3109.5 1592.06 3109.86 Z M 843.76 3109.87 C 837.57 3109.79 830.48 3109.42 828.0 3109.04 C 825.52 3108.65 821.6 3107.8 819.28 3107.14 C 816.63 3106.39 812.0 3103.35 806.82 3098.97 C 802.29 3095.14 798.24 3092.0 797.82 3092.0 C 797.4 3092.0 795.52 3092.87 793.63 3093.93 C 791.74 3094.99 789.85 3095.55 789.44 3095.18 C 789.02 3094.81 788.96 3094.99 789.29 3095.58 C 789.64 3096.19 788.4 3097.25 786.45 3098.02 C 784.55 3098.76 783.0 3099.67 783.0 3100.03 C 783.0 3100.39 781.76 3101.24 780.25 3101.93 C 778.74 3102.62 773.36 3103.44 768.3 3103.74 C 762.22 3104.1 757.47 3103.85 754.3 3102.99 C 751.66 3102.27 747.36 3100.62 744.75 3099.32 C 742.14 3098.03 740.0 3096.56 740.0 3096.06 C 740.0 3095.56 738.89 3093.83 737.53 3092.22 C 735.3 3089.56 734.31 3089.23 726.86 3088.61 C 722.34 3088.23 716.46 3087.21 713.79 3086.34 C 710.62 3085.3 707.9 3083.5 705.94 3081.13 C 704.29 3079.13 702.58 3076.15 702.13 3074.5 C 701.54 3072.29 700.82 3071.59 699.41 3071.85 C 698.36 3072.03 696.28 3072.17 694.78 3072.14 C 693.29 3072.11 690.59 3071.32 688.78 3070.39 C 686.98 3069.46 684.31 3067.33 682.86 3065.67 C 681.4 3064.01 679.92 3060.81 679.55 3058.57 C 679.19 3056.33 678.89 3053.82 678.9 3053.0 C 678.9 3052.18 678.94 3047.64 678.98 3042.92 L 679.05 3034.34 C 698.15 3014.86 699.48 3013.9 711.12 3008.24 C 721.93 3002.98 723.95 3001.59 727.04 2997.36 C 728.98 2994.69 732.98 2988.68 735.92 2984.0 C 738.86 2979.32 743.32 2972.35 745.82 2968.5 C 748.33 2964.65 751.37 2959.93 752.57 2958.0 C 753.77 2956.07 756.31 2951.57 758.21 2948.0 C 760.11 2944.43 763.39 2938.35 765.5 2934.5 C 767.6 2930.65 772.03 2923.0 775.34 2917.5 C 778.64 2912.0 783.51 2903.22 786.16 2898.0 C 788.81 2892.78 790.99 2888.01 790.99 2887.4 C 791.0 2886.8 791.69 2884.92 792.53 2883.24 C 793.38 2881.55 794.72 2876.72 795.53 2872.51 C 796.33 2868.3 797.9 2861.29 799.02 2856.93 C 800.13 2852.57 801.25 2846.19 801.51 2842.75 C 801.77 2839.31 802.31 2832.45 802.71 2827.5 C 803.12 2822.55 803.46 2803.2 803.47 2784.5 C 803.49 2765.8 803.14 2743.75 802.71 2735.5 C 802.27 2727.25 801.49 2715.32 800.97 2709.0 C 800.45 2702.68 799.8 2694.57 799.52 2691.0 C 799.25 2687.43 798.55 2680.68 797.97 2676.0 C 797.39 2671.32 796.5 2663.68 795.99 2659.0 C 795.48 2654.32 794.63 2646.9 794.1 2642.5 C 793.57 2638.1 792.64 2630.45 792.03 2625.51 C 791.42 2620.57 790.48 2613.59 789.94 2610.01 C 789.4 2606.43 788.54 2599.9 788.03 2595.5 C 787.52 2591.1 786.4 2583.52 785.53 2578.65 C 784.66 2573.78 783.24 2563.66 782.37 2556.15 C 781.5 2548.64 780.42 2538.68 779.98 2534.0 C 779.53 2529.32 778.69 2520.1 778.09 2513.5 C 777.5 2506.9 776.76 2498.12 776.44 2494.0 C 776.13 2489.88 775.56 2480.65 775.19 2473.5 C 774.81 2466.35 774.83 2455.55 775.22 2449.5 C 775.62 2443.45 776.42 2433.55 777.01 2427.5 C 777.59 2421.45 778.54 2414.03 779.12 2411.0 C 779.69 2407.97 780.83 2403.03 781.65 2400.0 C 782.47 2396.97 783.62 2393.38 784.21 2392.0 C 784.8 2390.62 785.67 2387.81 786.14 2385.75 C 786.61 2383.69 787.39 2380.21 787.86 2378.02 C 788.34 2375.83 789.18 2373.47 789.73 2372.77 C 790.28 2372.07 790.97 2370.38 791.27 2369.0 C 791.56 2367.62 793.03 2363.35 794.52 2359.5 C 796.01 2355.65 798.69 2348.45 800.48 2343.5 C 802.26 2338.55 804.54 2332.7 805.53 2330.5 C 806.52 2328.3 808.12 2324.7 809.07 2322.5 C 810.02 2320.3 812.96 2313.32 815.59 2307.0 C 818.22 2300.68 821.22 2294.26 822.26 2292.75 C 823.29 2291.24 823.9 2290.0 823.61 2290.0 C 823.31 2290.0 825.11 2285.84 827.6 2280.75 C 830.09 2275.66 834.08 2267.68 836.46 2263.0 C 838.84 2258.32 845.04 2246.18 850.23 2236.0 C 855.43 2225.82 860.01 2216.15 860.4 2214.5 C 860.79 2212.85 861.54 2208.82 862.07 2205.53 C 862.6 2202.25 863.47 2199.13 864.02 2198.58 C 864.56 2198.04 865.01 2196.45 865.01 2195.05 C 865.02 2193.65 865.71 2190.03 866.55 2187.0 C 867.38 2183.97 868.28 2176.55 868.53 2170.5 C 868.78 2164.45 869.21 2157.05 869.49 2154.06 C 869.76 2151.06 869.47 2147.18 868.84 2145.43 C 867.89 2142.82 868.07 2140.69 869.86 2133.38 C 871.05 2128.49 872.97 2122.25 874.12 2119.5 C 875.28 2116.75 876.87 2113.15 877.66 2111.5 C 878.45 2109.85 880.09 2106.7 881.31 2104.5 C 882.54 2102.3 884.38 2098.03 885.41 2095.0 C 886.45 2091.97 888.88 2086.8 890.82 2083.5 C 892.76 2080.2 895.28 2076.04 896.42 2074.26 C 897.57 2072.47 898.79 2071.01 899.14 2071.01 C 899.49 2071.0 900.0 2072.46 900.27 2074.25 C 900.55 2076.07 900.24 2078.16 899.55 2079.0 C 898.88 2079.82 897.77 2081.92 897.08 2083.66 C 896.39 2085.4 895.95 2087.87 896.1 2089.16 C 896.25 2090.45 896.0 2092.62 895.55 2094.0 C 895.1 2095.38 892.77 2100.64 890.37 2105.69 C 887.97 2110.75 886.0 2115.5 886.0 2116.25 C 886.0 2117.01 884.82 2120.52 883.39 2124.06 C 881.95 2127.6 880.38 2132.53 879.89 2135.0 C 879.41 2137.47 878.56 2141.53 878.01 2144.0 C 877.47 2146.47 876.58 2158.64 876.05 2171.04 C 875.53 2183.43 874.85 2195.36 874.55 2197.54 C 874.25 2199.72 873.83 2202.93 873.61 2204.67 C 873.38 2206.42 870.0 2214.29 866.1 2222.17 C 862.19 2230.05 855.4 2243.25 851.01 2251.5 C 846.62 2259.75 842.62 2267.4 842.12 2268.5 C 841.61 2269.6 838.23 2276.67 834.6 2284.22 C 830.97 2291.76 828.0 2298.17 828.0 2298.46 C 828.0 2298.75 826.04 2303.15 823.65 2308.24 C 821.25 2313.33 818.95 2318.62 818.52 2320.0 C 818.1 2321.38 817.39 2322.96 816.95 2323.52 C 816.51 2324.07 814.5 2328.57 812.49 2333.52 C 810.48 2338.46 808.12 2344.75 807.24 2347.5 C 806.37 2350.25 805.11 2353.18 804.44 2354.0 C 803.77 2354.82 802.91 2357.07 802.54 2359.0 C 802.16 2360.93 800.68 2365.65 799.24 2369.5 C 797.81 2373.35 796.27 2376.93 795.82 2377.45 C 795.37 2377.97 795.0 2379.42 795.0 2380.66 C 795.0 2381.91 794.08 2385.27 792.95 2388.13 C 791.82 2390.99 789.32 2399.88 787.39 2407.89 C 785.46 2415.9 783.57 2426.51 783.19 2431.48 C 782.81 2436.44 782.57 2445.9 782.66 2452.5 C 782.75 2459.1 783.54 2472.15 784.43 2481.5 C 785.31 2490.85 786.7 2505.03 787.52 2513.0 C 788.33 2520.97 789.61 2533.35 790.36 2540.5 C 791.11 2547.65 791.74 2554.4 791.75 2555.5 C 791.76 2556.6 792.3 2562.9 792.94 2569.5 C 793.58 2576.1 794.34 2584.43 794.62 2588.0 C 794.91 2591.57 795.54 2595.4 796.02 2596.5 C 796.5 2597.6 797.15 2600.75 797.46 2603.5 C 797.77 2606.25 798.29 2611.88 798.63 2616.0 C 798.96 2620.12 799.67 2623.78 800.2 2624.11 C 800.74 2624.45 801.16 2628.69 801.15 2633.55 C 801.14 2638.4 801.5 2643.07 801.96 2643.93 C 802.42 2644.79 803.04 2648.43 803.33 2652.0 C 803.62 2655.57 804.33 2661.88 804.91 2666.0 C 805.49 2670.12 806.4 2678.0 806.94 2683.5 C 807.47 2689.0 808.22 2698.45 808.59 2704.5 C 808.96 2710.55 809.42 2717.53 809.6 2720.0 C 809.78 2722.47 810.21 2745.43 810.55 2771.0 C 811.09 2810.76 810.93 2820.04 809.47 2835.0 C 808.52 2844.62 807.65 2854.07 807.52 2856.0 C 807.39 2857.93 806.32 2863.9 805.13 2869.28 C 803.95 2874.66 802.59 2879.83 802.11 2880.78 C 801.63 2881.73 800.52 2884.07 799.63 2886.0 C 798.74 2887.93 796.23 2892.43 794.05 2896.0 C 791.87 2899.57 788.46 2905.43 786.48 2909.0 C 784.5 2912.57 781.11 2918.65 778.94 2922.5 C 776.76 2926.35 771.01 2937.38 766.15 2947.0 C 761.29 2956.62 754.08 2969.68 750.12 2976.0 C 746.17 2982.32 740.18 2991.0 736.82 2995.29 C 733.46 2999.57 729.47 3004.11 727.96 3005.38 C 726.45 3006.65 721.46 3009.14 716.86 3010.92 C 712.26 3012.7 707.08 3014.77 705.34 3015.52 C 703.59 3016.27 701.88 3017.81 701.52 3018.94 C 701.16 3020.07 700.47 3021.0 699.99 3021.0 C 699.52 3021.0 697.65 3022.35 695.84 3024.0 C 694.03 3025.65 692.2 3027.0 691.78 3027.0 C 691.35 3027.0 691.0 3027.68 691.0 3028.5 C 691.0 3029.32 690.57 3030.0 690.04 3030.0 C 689.51 3030.0 687.94 3031.23 686.55 3032.73 C 684.81 3034.6 684.21 3036.1 684.64 3037.48 C 684.99 3038.59 685.77 3039.84 686.38 3040.26 C 687.0 3040.68 688.62 3040.75 690.0 3040.43 C 691.37 3040.1 694.52 3038.19 697.0 3036.17 C 699.47 3034.15 702.4 3031.55 703.5 3030.38 C 704.6 3029.22 707.29 3027.3 709.49 3026.13 C 711.68 3024.96 714.15 3024.01 714.99 3024.03 C 715.91 3024.05 715.33 3024.92 713.5 3026.26 C 711.85 3027.46 708.52 3030.4 706.11 3032.79 C 703.7 3035.17 699.69 3038.67 697.22 3040.56 C 694.74 3042.45 692.29 3044.0 691.77 3044.0 C 691.25 3044.0 689.06 3045.67 686.91 3047.71 C 684.76 3049.74 683.0 3052.05 683.0 3052.82 C 683.0 3053.59 683.93 3055.86 685.06 3057.86 C 686.19 3059.86 688.85 3062.74 690.97 3064.25 C 693.09 3065.76 695.42 3066.99 696.16 3066.98 C 696.9 3066.97 699.52 3066.04 701.99 3064.92 C 704.46 3063.8 710.11 3059.42 714.54 3055.19 C 718.97 3050.96 726.31 3045.03 730.86 3042.0 C 735.41 3038.97 740.0 3035.63 741.06 3034.56 C 742.13 3033.5 743.0 3031.98 743.0 3031.2 C 743.0 3030.32 743.6 3030.02 744.58 3030.39 C 745.45 3030.73 746.86 3031.0 747.7 3031.0 C 748.94 3031.0 749.0 3031.29 748.04 3032.45 C 747.38 3033.25 742.58 3037.18 737.38 3041.2 C 732.18 3045.21 726.1 3049.48 723.87 3050.69 C 721.16 3052.16 717.56 3055.94 712.93 3062.19 C 709.14 3067.31 706.03 3072.25 706.02 3073.17 C 706.01 3074.09 707.88 3076.45 710.18 3078.42 L 714.36 3082.0 L 735.92 3082.0 C 742.57 3075.36 745.51 3072.21 746.75 3070.71 C 747.99 3069.21 749.0 3067.61 749.0 3067.15 C 749.0 3066.68 749.69 3064.92 750.54 3063.23 C 751.38 3061.53 755.82 3056.4 760.41 3051.82 C 765.0 3047.25 771.62 3040.8 775.13 3037.5 C 778.63 3034.2 782.06 3031.14 782.75 3030.7 C 783.57 3030.18 784.0 3030.47 784.0 3031.53 C 784.0 3032.43 782.31 3034.76 780.25 3036.71 C 778.19 3038.65 772.11 3044.52 766.75 3049.75 C 758.79 3057.5 757.0 3059.79 757.0 3062.18 C 757.0 3064.17 756.62 3064.88 755.83 3064.39 C 755.05 3063.91 754.87 3064.21 755.29 3065.31 C 755.63 3066.21 755.26 3067.6 754.46 3068.4 C 753.66 3069.2 753.0 3070.85 753.0 3072.06 C 753.0 3073.27 752.03 3075.89 750.84 3077.88 C 749.65 3079.87 747.55 3082.73 746.17 3084.23 C 743.98 3086.61 743.81 3087.29 744.82 3089.51 C 745.54 3091.08 747.83 3092.87 750.74 3094.13 C 754.68 3095.84 756.7 3096.09 762.47 3095.57 C 766.3 3095.23 772.45 3094.22 776.13 3093.33 C 780.92 3092.17 783.99 3090.7 786.98 3088.11 L 791.15 3084.5 C 788.83 3075.91 788.83 3074.09 789.85 3070.25 C 790.55 3067.64 791.9 3064.15 792.86 3062.51 C 793.82 3060.86 799.53 3055.96 805.55 3051.63 C 811.57 3047.3 820.85 3040.21 826.17 3035.87 C 831.49 3031.54 836.75 3028.0 837.86 3028.0 C 838.96 3028.0 841.09 3027.54 842.57 3026.97 C 844.06 3026.41 845.48 3026.14 845.72 3026.39 C 845.96 3026.63 844.45 3027.64 842.35 3028.64 C 840.25 3029.64 835.38 3033.42 831.52 3037.06 C 827.66 3040.69 820.45 3046.66 815.5 3050.33 C 810.55 3053.99 805.62 3057.67 804.55 3058.5 C 803.47 3059.32 802.23 3060.0 801.8 3060.0 C 801.36 3060.0 801.0 3060.63 801.0 3061.39 C 801.0 3062.16 799.68 3064.2 798.08 3065.92 C 795.63 3068.54 795.29 3069.51 795.97 3071.9 C 796.42 3073.46 797.58 3076.04 798.55 3077.62 C 799.53 3079.21 801.48 3082.3 802.91 3084.5 C 804.33 3086.7 805.77 3088.72 806.1 3089.0 C 806.43 3089.28 807.18 3090.41 807.77 3091.53 C 808.36 3092.65 810.79 3094.58 813.17 3095.82 C 815.55 3097.06 818.17 3098.47 819.0 3098.95 C 819.83 3099.43 823.2 3100.43 826.5 3101.16 C 829.8 3101.9 837.0 3102.46 842.5 3102.4 C 849.08 3102.34 854.18 3101.72 857.42 3100.61 C 860.13 3099.67 863.85 3097.58 865.71 3095.95 C 867.56 3094.33 869.48 3093.0 869.98 3093.0 C 870.48 3093.0 872.46 3090.64 874.38 3087.75 C 876.29 3084.86 879.01 3080.03 880.42 3077.0 C 881.83 3073.97 882.98 3071.02 882.99 3070.43 C 883.0 3069.84 884.4 3066.78 886.1 3063.63 C 887.81 3060.47 889.87 3054.66 890.68 3050.7 C 891.49 3046.74 892.77 3042.86 893.54 3042.07 C 894.75 3040.82 895.19 3040.86 896.84 3042.36 C 898.66 3044.01 898.93 3043.92 903.03 3040.29 C 905.39 3038.21 911.49 3032.52 916.59 3027.66 C 922.73 3021.8 926.42 3017.41 927.52 3014.66 C 928.44 3012.37 930.28 3005.32 931.61 2999.0 C 933.24 2991.26 933.99 2984.56 933.92 2978.5 C 933.86 2973.55 933.58 2968.04 933.3 2966.26 C 933.01 2964.48 932.38 2963.27 931.89 2963.57 C 931.4 2963.87 931.0 2962.52 931.0 2960.56 C 931.0 2958.6 930.61 2957.0 930.14 2957.0 C 929.66 2957.0 928.99 2954.54 928.63 2951.54 C 928.28 2948.53 927.47 2944.93 926.84 2943.54 C 926.2 2942.14 924.84 2941.0 923.81 2941.0 C 922.78 2941.0 921.71 2940.4 921.42 2939.66 C 921.14 2938.93 921.57 2936.34 922.37 2933.91 C 923.17 2931.49 924.12 2927.47 924.48 2925.0 C 924.84 2922.53 926.53 2916.45 928.23 2911.5 C 930.15 2905.91 931.34 2900.42 931.37 2897.0 C 931.41 2893.02 930.4 2888.74 927.71 2881.5 C 925.67 2876.0 923.09 2867.02 921.98 2861.56 C 920.28 2853.17 919.87 2846.13 919.38 2816.56 C 919.0 2794.19 919.19 2776.79 919.9 2768.5 C 920.51 2761.35 921.22 2752.57 921.48 2749.0 C 921.74 2745.43 922.4 2739.8 922.95 2736.5 C 923.5 2733.2 924.66 2725.55 925.53 2719.5 C 926.4 2713.45 928.01 2704.0 929.12 2698.5 C 930.22 2693.0 933.38 2679.72 936.15 2669.0 C 938.91 2658.28 941.54 2647.93 941.98 2646.0 C 942.42 2644.07 944.57 2637.1 946.75 2630.5 C 948.92 2623.9 951.28 2616.03 951.99 2613.0 C 952.7 2609.97 954.34 2605.36 955.65 2602.75 C 956.96 2600.14 957.84 2598.0 957.59 2598.0 C 957.35 2598.0 958.87 2594.06 960.96 2589.25 C 963.05 2584.44 965.76 2578.25 966.98 2575.5 C 968.2 2572.75 971.18 2566.29 973.6 2561.15 C 976.02 2556.01 978.0 2551.41 978.0 2550.93 C 978.0 2550.45 978.91 2548.31 980.03 2546.16 C 981.15 2544.02 982.27 2541.19 982.52 2539.89 C 982.77 2538.58 983.43 2537.36 983.99 2537.17 C 984.55 2536.98 985.0 2535.98 985.0 2534.94 C 985.0 2533.9 985.9 2531.57 987.0 2529.77 C 988.09 2527.97 988.99 2525.51 989.0 2524.3 C 989.0 2523.09 989.52 2520.95 990.16 2519.55 C 990.8 2518.15 991.7 2517.0 992.16 2517.0 C 992.62 2517.0 993.0 2515.88 993.0 2514.52 C 993.0 2513.16 994.19 2509.45 995.64 2506.27 C 997.09 2503.1 999.12 2498.65 1000.14 2496.39 C 1001.16 2494.13 1002.0 2491.97 1002.0 2491.59 C 1002.0 2491.2 1002.95 2488.78 1004.11 2486.2 C 1005.28 2483.61 1009.71 2474.3 1013.96 2465.5 C 1018.22 2456.7 1022.85 2447.03 1024.26 2444.0 C 1025.67 2440.97 1027.79 2435.12 1028.98 2431.0 C 1030.17 2426.88 1031.8 2420.8 1032.6 2417.5 C 1033.4 2414.2 1034.73 2408.57 1035.56 2405.0 C 1036.39 2401.43 1037.51 2396.47 1038.05 2394.0 C 1038.59 2391.53 1039.67 2385.0 1040.45 2379.5 C 1041.22 2374.0 1042.33 2365.0 1042.9 2359.5 C 1043.46 2354.0 1044.2 2345.77 1044.54 2341.22 C 1044.87 2336.67 1045.11 2324.74 1045.08 2314.72 C 1045.05 2304.7 1045.49 2290.65 1046.07 2283.5 C 1046.66 2276.35 1047.31 2268.98 1047.53 2267.13 C 1047.76 2265.27 1047.56 2263.02 1047.1 2262.13 C 1046.64 2261.23 1046.66 2254.43 1047.15 2247.0 C 1047.63 2239.57 1048.44 2231.93 1048.94 2230.0 C 1049.44 2228.07 1050.83 2222.9 1052.03 2218.5 C 1054.04 2211.16 1054.21 2208.34 1054.1 2184.5 C 1054.04 2170.2 1053.57 2154.86 1053.05 2150.41 C 1052.31 2143.9 1052.42 2141.46 1053.66 2137.91 C 1054.5 2135.48 1055.39 2132.38 1055.64 2131.0 C 1055.88 2129.62 1056.32 2127.71 1056.61 2126.75 C 1056.9 2125.79 1056.65 2125.0 1056.07 2125.0 C 1055.48 2125.0 1055.0 2124.24 1055.0 2123.31 C 1055.0 2121.82 1055.21 2121.85 1056.78 2123.56 C 1057.76 2124.63 1059.39 2127.97 1060.41 2131.0 C 1061.87 2135.35 1062.4 2141.09 1062.93 2158.5 C 1063.3 2170.6 1063.24 2186.57 1062.79 2194.0 C 1062.34 2201.43 1061.79 2208.85 1061.56 2210.5 C 1061.33 2212.15 1060.47 2218.9 1059.66 2225.5 C 1058.85 2232.1 1057.73 2242.22 1057.17 2248.0 C 1056.61 2253.78 1056.18 2259.4 1056.2 2260.5 C 1056.23 2261.6 1055.73 2272.85 1055.1 2285.5 C 1054.46 2298.15 1053.53 2312.32 1053.03 2317.0 C 1052.53 2321.68 1052.07 2334.28 1052.02 2345.0 C 1051.97 2355.72 1051.51 2368.1 1051.01 2372.5 C 1050.5 2376.9 1049.83 2382.53 1049.51 2385.0 C 1049.19 2387.47 1048.45 2391.97 1047.86 2395.0 C 1047.27 2398.03 1046.44 2401.4 1046.02 2402.5 C 1045.59 2403.6 1044.57 2407.43 1043.75 2411.0 C 1042.92 2414.57 1040.67 2421.83 1038.74 2427.12 C 1036.8 2432.42 1031.12 2445.18 1026.11 2455.49 C 1021.1 2465.8 1017.0 2474.64 1017.0 2475.13 C 1017.0 2475.62 1016.44 2477.03 1015.75 2478.26 C 1015.06 2479.49 1014.24 2480.72 1013.91 2481.0 C 1013.59 2481.28 1012.71 2483.64 1011.95 2486.25 C 1011.19 2488.86 1010.21 2491.0 1009.78 2491.0 C 1009.35 2491.0 1009.1 2491.34 1009.23 2491.75 C 1009.36 2492.16 1008.6 2494.53 1007.55 2497.0 C 1006.5 2499.47 1005.61 2501.81 1005.57 2502.2 C 1005.53 2502.58 1004.94 2503.46 1004.25 2504.15 C 1003.56 2504.84 1003.0 2505.87 1003.0 2506.45 C 1003.0 2507.03 1001.2 2511.22 999.0 2515.76 C 996.8 2520.29 995.0 2524.27 995.0 2524.6 C 995.0 2524.92 992.52 2530.34 989.5 2536.63 C 986.48 2542.92 984.0 2548.39 983.99 2548.79 C 983.99 2549.18 982.19 2553.23 979.99 2557.79 C 977.8 2562.35 976.0 2566.47 976.0 2566.93 C 976.0 2567.4 974.42 2570.97 972.5 2574.86 C 970.58 2578.76 969.0 2582.35 969.0 2582.85 C 969.0 2583.34 968.08 2585.94 966.96 2588.62 C 965.84 2591.31 964.33 2594.85 963.6 2596.5 C 962.88 2598.15 961.36 2601.97 960.24 2605.0 C 959.12 2608.03 956.81 2615.0 955.11 2620.5 C 953.42 2626.0 951.3 2633.2 950.4 2636.5 C 949.51 2639.8 948.41 2644.53 947.96 2647.0 C 947.51 2649.47 946.39 2653.97 945.48 2657.0 C 944.57 2660.03 943.42 2664.15 942.93 2666.17 C 942.43 2668.19 941.35 2674.04 940.51 2679.17 C 939.68 2684.3 938.38 2691.57 937.61 2695.31 C 936.85 2699.06 936.44 2702.95 936.7 2703.96 C 936.96 2704.97 936.67 2706.74 936.05 2707.9 C 935.43 2709.06 934.89 2712.03 934.84 2714.5 C 934.79 2716.98 934.3 2719.0 933.76 2719.0 C 933.21 2719.0 933.0 2720.23 933.29 2721.74 C 933.58 2723.25 933.39 2725.27 932.88 2726.23 C 932.36 2727.19 931.3 2734.36 930.52 2742.16 C 929.74 2749.96 929.32 2756.71 929.59 2757.15 C 929.87 2757.6 929.65 2758.79 929.1 2759.81 C 928.56 2760.83 927.43 2770.4 926.6 2781.08 C 925.72 2792.38 925.25 2807.4 925.49 2817.0 C 925.71 2826.07 926.4 2838.45 927.02 2844.5 C 927.64 2850.55 929.26 2858.87 930.62 2863.0 C 931.98 2867.12 933.64 2872.57 934.3 2875.1 C 934.96 2877.64 936.17 2880.52 937.0 2881.51 C 938.17 2882.92 938.52 2886.44 938.58 2897.41 C 938.66 2910.54 938.87 2912.08 941.75 2920.0 C 943.45 2924.68 946.01 2933.0 947.44 2938.5 C 948.86 2944.0 950.3 2950.75 950.62 2953.5 C 950.95 2956.25 950.7 2960.41 950.07 2962.75 C 949.44 2965.09 948.49 2967.0 947.96 2967.0 C 947.43 2967.0 947.05 2967.34 947.12 2967.75 C 947.18 2968.16 947.18 2969.06 947.12 2969.75 C 947.05 2970.43 945.47 2972.69 943.6 2974.76 C 940.2 2978.52 940.19 2978.55 940.21 2988.52 C 940.22 2994.5 939.56 3001.27 938.55 3005.42 C 937.63 3009.22 936.27 3013.51 935.53 3014.94 C 934.79 3016.38 932.68 3019.81 930.84 3022.57 C 929.0 3025.34 921.03 3033.87 913.13 3041.55 L 898.75 3055.5 C 889.1 3075.65 885.97 3083.28 885.57 3085.45 C 885.06 3088.18 883.65 3090.5 881.0 3092.95 C 878.9 3094.9 875.67 3097.68 873.84 3099.11 C 872.0 3100.55 868.7 3102.69 866.5 3103.87 C 864.3 3105.05 861.83 3106.4 861.0 3106.86 C 860.17 3107.31 858.49 3108.21 857.26 3108.84 C 855.91 3109.54 850.59 3109.95 843.76 3109.87 Z M 938.34 2967.72 C 938.87 2967.54 940.08 2964.95 941.01 2961.95 C 941.95 2958.96 942.57 2954.4 942.39 2951.8 C 942.21 2949.22 940.91 2942.55 939.5 2936.99 C 938.09 2931.42 936.22 2925.1 935.36 2922.94 C 934.49 2920.77 933.45 2919.0 933.04 2919.0 C 932.64 2919.0 931.54 2920.91 930.6 2923.25 C 929.66 2925.59 928.63 2930.54 928.3 2934.26 C 927.87 2939.15 928.2 2942.82 929.47 2947.51 C 930.43 2951.08 931.62 2954.0 932.11 2954.0 C 932.6 2954.0 933.0 2954.93 933.0 2956.07 C 933.0 2957.21 933.67 2958.82 934.5 2959.64 C 935.33 2960.47 936.0 2962.39 936.0 2963.9 C 936.0 2965.42 936.31 2966.98 936.69 2967.35 C 937.07 2967.73 937.81 2967.9 938.34 2967.72 Z M 1501.23 2957.5 L 1500.32 2961.5 C 1499.0 2956.74 1499.15 2954.5 1499.91 2952.57 C 1500.57 2950.88 1501.3 2948.65 1501.53 2947.61 C 1501.75 2946.58 1502.23 2945.45 1502.58 2945.11 C 1502.93 2944.78 1502.98 2946.53 1502.68 2949.0 C 1502.39 2951.47 1501.74 2955.3 1501.23 2957.5 Z M 950.0 2226.92 C 946.98 2226.88 944.05 2226.68 943.5 2226.48 C 942.95 2226.28 939.35 2225.92 935.5 2225.67 C 931.65 2225.42 926.8 2224.57 924.72 2223.78 C 922.64 2222.98 920.39 2221.76 919.72 2221.05 C 918.73 2220.0 918.91 2219.97 920.68 2220.87 C 921.88 2221.49 924.58 2222.27 926.68 2222.6 C 928.78 2222.94 932.82 2223.3 935.66 2223.41 C 938.49 2223.52 944.12 2223.27 948.16 2222.85 C 952.2 2222.44 956.4 2221.86 957.5 2221.56 C 958.6 2221.27 963.1 2220.09 967.5 2218.95 C 971.9 2217.8 977.75 2216.3 980.5 2215.6 C 983.25 2214.91 987.41 2213.36 989.75 2212.15 C 992.09 2210.95 994.0 2210.34 994.0 2210.81 C 994.0 2211.28 991.64 2213.2 988.75 2215.08 C 985.86 2216.96 981.7 2219.33 979.5 2220.35 C 977.3 2221.37 974.15 2222.65 972.5 2223.19 C 970.85 2223.73 966.35 2224.81 962.5 2225.58 C 958.65 2226.36 953.02 2226.96 950.0 2226.92 Z M 1481.5 2226.45 C 1477.65 2226.53 1473.6 2226.45 1472.5 2226.28 C 1471.4 2226.12 1468.1 2225.49 1465.17 2224.9 C 1462.24 2224.31 1457.29 2222.73 1454.17 2221.39 C 1451.05 2220.05 1447.15 2218.22 1445.5 2217.31 C 1443.85 2216.4 1440.93 2214.38 1439.02 2212.83 C 1437.11 2211.27 1434.97 2210.0 1434.27 2210.0 C 1433.57 2210.0 1433.0 2209.55 1433.0 2209.0 C 1433.0 2208.45 1433.34 2208.03 1433.75 2208.07 C 1434.16 2208.11 1435.85 2209.01 1437.5 2210.06 C 1439.15 2211.11 1441.85 2212.65 1443.5 2213.48 C 1445.15 2214.31 1453.92 2216.87 1463.0 2219.18 C 1478.59 2223.15 1480.21 2223.37 1492.32 2223.18 C 1499.38 2223.07 1504.89 2223.37 1504.59 2223.85 C 1504.3 2224.33 1500.56 2225.08 1496.28 2225.52 C 1492.0 2225.95 1485.35 2226.37 1481.5 2226.45 Z M 915.67 2217.0 C 915.5 2217.0 914.29 2215.88 913.0 2214.5 C 911.71 2213.13 910.92 2211.75 911.23 2211.44 C 911.54 2211.12 912.74 2211.88 913.9 2213.12 C 915.05 2214.36 916.0 2215.74 916.0 2216.19 C 916.0 2216.63 915.85 2217.0 915.67 2217.0 Z M 1023.5 2173.0 C 1022.67 2173.68 1021.97 2173.85 1021.92 2173.37 C 1021.88 2172.89 1021.67 2169.8 1021.45 2166.5 C 1021.24 2163.2 1020.4 2158.93 1019.59 2157.0 C 1018.77 2155.07 1017.65 2151.17 1017.08 2148.33 C 1016.52 2145.49 1015.14 2141.53 1014.03 2139.55 C 1012.91 2137.56 1012.0 2135.73 1012.0 2135.47 C 1012.0 2135.21 1012.37 2135.0 1012.82 2135.0 C 1013.27 2135.0 1014.6 2137.14 1015.76 2139.75 C 1016.93 2142.36 1018.2 2145.85 1018.58 2147.5 C 1018.96 2149.15 1019.61 2150.95 1020.03 2151.5 C 1020.44 2152.05 1021.35 2155.11 1022.06 2158.3 C 1022.76 2161.48 1023.71 2164.32 1024.17 2164.6 C 1024.63 2164.89 1025.0 2166.61 1025.0 2168.44 C 1025.0 2170.26 1024.33 2172.32 1023.5 2173.0 Z M 1408.99 2173.0 C 1408.58 2173.0 1407.71 2172.35 1407.05 2171.56 C 1406.26 2170.61 1406.09 2168.51 1406.54 2165.31 C 1406.92 2162.67 1407.82 2159.15 1408.54 2157.5 C 1409.26 2155.85 1410.14 2153.08 1410.48 2151.35 C 1410.83 2149.61 1411.99 2146.48 1413.06 2144.39 C 1414.13 2142.29 1415.0 2140.05 1415.0 2139.41 C 1415.0 2138.77 1415.67 2137.68 1416.5 2137.0 C 1417.33 2136.32 1418.0 2136.03 1418.0 2136.36 C 1418.0 2136.69 1417.28 2138.88 1416.41 2141.23 C 1415.53 2143.58 1414.46 2146.4 1414.02 2147.5 C 1413.58 2148.6 1412.76 2151.3 1412.18 2153.5 C 1411.6 2155.7 1410.63 2159.53 1410.03 2162.0 C 1409.43 2164.47 1409.11 2167.96 1409.33 2169.75 C 1409.56 2171.54 1409.4 2173.0 1408.99 2173.0 Z " opacity="1.0" fill="#000000" stroke="none" fill-rule="evenodd"/></svg>