<svg version="1.0" xmlns="http://www.w3.org/2000/svg"
 width="1200.000000pt" height="1600.000000pt" viewBox="0 0 1200.000000 1600.000000"
 preserveAspectRatio="xMidYMid meet">

<g transform="translate(0.000000,1600.000000) scale(0.100000,-0.100000)"
fill="#000000" stroke="none">
<path d="M4615 5699 c-80 -46 -148 -108 -175 -159 -10 -19 -23 -62 -30 -95 -7
-33 -19 -73 -28 -90 -11 -22 -16 -67 -18 -170 -3 -157 -16 -221 -65 -316 -18
-35 -34 -70 -35 -77 -1 -8 -13 -30 -26 -50 -25 -39 -46 -83 -44 -92 0 -3 -9
-18 -21 -33 -12 -16 -20 -34 -17 -41 3 -7 -2 -19 -11 -26 -8 -7 -15 -19 -15
-26 0 -7 -18 -50 -40 -95 -22 -45 -40 -86 -40 -91 0 -5 -7 -25 -17 -46 -9 -20
-17 -39 -17 -42 -1 -3 -4 -10 -8 -16 -13 -19 -52 -129 -54 -149 -1 -11 -9 -36
-17 -55 -43 -100 -53 -251 -31 -475 3 -33 7 -85 9 -115 6 -91 45 -420 60 -505
8 -44 13 -98 12 -120 -1 -22 2 -58 6 -80 44 -233 55 -771 22 -1048 -5 -47 -36
-113 -130 -282 -25 -44 -66 -123 -91 -175 -26 -52 -59 -109 -73 -127 -14 -17
-39 -50 -56 -73 -22 -31 -47 -50 -92 -71 -35 -15 -86 -50 -114 -76 -44 -41
-50 -51 -46 -78 2 -16 0 -40 -6 -52 -19 -43 55 -122 93 -98 7 4 16 -5 22 -23
15 -40 40 -53 110 -60 50 -4 64 -10 93 -39 31 -31 37 -33 87 -29 29 2 65 9 79
14 40 16 89 61 82 77 -10 27 4 16 30 -24 14 -21 42 -49 62 -61 33 -20 117 -47
140 -45 42 5 96 18 101 26 3 5 9 7 13 5 15 -9 90 79 110 129 35 88 56 118 143
205 92 91 98 104 112 240 2 25 12 62 20 82 23 54 21 156 -5 226 -11 31 -22 85
-24 119 -1 39 -10 77 -23 102 -16 30 -23 68 -28 158 -9 147 -9 347 1 433 3 36
9 92 11 125 6 89 9 110 33 225 51 244 118 450 211 650 67 145 140 321 144 347
1 7 8 19 14 25 7 7 12 16 12 21 0 4 24 58 54 120 55 115 84 197 91 255 2 18 7
37 10 42 3 5 8 26 11 47 3 21 7 52 10 68 5 34 21 307 22 375 2 128 14 285 30
365 10 54 17 144 18 225 1 116 -2 138 -17 155 -15 17 -16 27 -7 66 8 36 7 57
-6 101 -13 46 -27 66 -84 119 -71 68 -175 141 -263 186 -45 24 -67 28 -144 30
-88 2 -91 1 -160 -38z"/>
<path d="M7270 5726 c-110 -41 -337 -214 -375 -287 -20 -38 -28 -119 -16 -152
8 -21 8 -33 -2 -50 -22 -35 -22 -268 -2 -348 10 -36 18 -116 20 -184 8 -281
15 -452 20 -485 3 -19 7 -55 10 -80 17 -170 50 -280 134 -450 32 -63 77 -164
101 -225 23 -60 67 -164 97 -230 82 -179 173 -436 187 -530 1 -5 5 -15 8 -21
4 -6 10 -30 13 -54 3 -23 7 -45 9 -49 4 -6 30 -144 43 -226 10 -60 14 -154 17
-367 3 -220 -3 -284 -38 -413 -9 -32 -16 -71 -16 -85 0 -15 -11 -59 -25 -98
-33 -95 -33 -177 0 -266 14 -36 24 -83 23 -104 -2 -58 33 -120 117 -207 57
-59 89 -103 122 -168 24 -48 60 -102 79 -121 36 -35 130 -69 174 -63 61 10
144 52 175 89 l25 29 40 -32 c22 -18 48 -34 58 -35 122 -18 173 -8 187 36 5
16 15 20 56 20 27 0 52 0 57 1 17 3 61 41 66 57 4 11 22 22 47 28 32 7 45 17
62 46 20 36 20 38 3 57 -14 15 -15 23 -6 40 9 19 4 28 -42 77 -43 46 -99 83
-123 83 -3 0 -19 8 -36 18 -44 26 -115 129 -186 268 -34 66 -82 156 -107 200
-87 150 -100 185 -112 285 -10 94 -22 351 -19 400 3 30 7 123 10 205 5 145 20
333 30 385 3 14 7 52 9 85 5 61 13 123 21 161 7 34 45 387 45 419 -1 17 6 75
15 130 12 82 16 174 13 315 0 37 -19 142 -30 167 -6 16 -17 51 -24 78 -14 59
-37 124 -64 180 -31 66 -48 108 -56 140 -4 17 -16 42 -27 57 -12 15 -18 30
-15 34 4 3 -2 14 -13 25 -10 10 -19 30 -19 43 0 13 -11 40 -25 61 -15 20 -24
40 -21 43 3 2 -3 17 -13 31 -72 102 -175 350 -157 379 2 4 1 63 -4 132 -7 104
-14 144 -46 240 -32 100 -44 121 -85 166 -28 29 -82 68 -125 92 -72 39 -82 42
-153 41 -42 0 -92 -6 -111 -13z"/>
</g>
</svg>
