<?xml version="1.0" standalone="no"?>
<!DOCTYPE svg PUBLIC "-//W3C//DTD SVG 20010904//EN"
 "http://www.w3.org/TR/2001/REC-SVG-20010904/DTD/svg10.dtd">
<svg version="1.0" xmlns="http://www.w3.org/2000/svg"
 width="1200.000000pt" height="1600.000000pt" viewBox="0 0 1200.000000 1600.000000"
 preserveAspectRatio="xMidYMid meet">

<g transform="translate(0.000000,1600.000000) scale(0.100000,-0.100000)"
fill="#000000" stroke="none">
<path d="M5802 12351 c-8 -5 -12 -17 -10 -27 5 -26 228 -109 228 -85 0 5 -15
14 -32 21 -83 30 -129 55 -143 77 -17 25 -23 27 -43 14z"/>
<path d="M6297 12286 c-5 -13 -61 -31 -135 -42 -54 -8 -46 -19 11 -16 116 7
192 38 149 61 -15 8 -21 7 -25 -3z"/>
</g>
</svg>
