<svg version="1.0" xmlns="http://www.w3.org/2000/svg"
 width="1200.000000pt" height="1600.000000pt" viewBox="0 0 1200.000000 1600.000000"
 preserveAspectRatio="xMidYMid meet">

<g transform="translate(0.000000,1600.000000) scale(0.100000,-0.100000)"
fill="#000000" stroke="none">
<path d="M5386 15241 c-15 -17 -22 -17 -59 -7 -52 15 -77 13 -148 -13 -58 -22
-95 -52 -85 -69 3 -5 -2 -16 -11 -23 -9 -8 -61 -68 -117 -134 -100 -120 -234
-258 -291 -300 -109 -80 -537 -218 -625 -200 -58 12 -133 14 -150 5 -47 -25
-31 -101 35 -172 37 -40 159 -136 185 -146 8 -3 20 -10 25 -14 33 -27 140 -71
214 -89 47 -12 93 -27 101 -34 8 -7 55 -27 104 -44 78 -28 97 -31 170 -27 142
8 158 12 274 68 46 22 86 37 90 34 17 -17 6 -82 -19 -108 -41 -44 -82 -129
-95 -196 -6 -34 -9 -64 -5 -66 4 -3 37 -3 74 -1 37 2 69 -1 73 -6 3 -5 -6 -23
-20 -40 -14 -17 -28 -43 -31 -57 -3 -15 -10 -46 -15 -68 -5 -23 -7 -64 -4 -90
3 -27 6 -80 7 -119 2 -65 4 -71 28 -82 24 -12 44 -8 163 26 120 34 150 48 244
107 236 151 336 255 379 394 35 111 33 154 -7 195 -17 17 -27 34 -24 38 4 4 1
7 -6 7 -7 0 -10 3 -7 6 3 4 0 15 -7 25 -10 14 -11 33 -4 76 5 32 8 75 6 98 -3
35 -6 40 -30 43 -18 2 -28 9 -28 20 0 162 -76 525 -142 681 -69 164 -92 207
-106 204 -6 -2 -35 20 -65 47 -52 48 -55 49 -71 31z"/>
<path d="M6712 15225 c-11 -13 -39 -36 -62 -51 -43 -29 -53 -46 -121 -216 -75
-188 -139 -481 -139 -640 0 -55 -1 -58 -24 -58 -35 0 -48 -47 -36 -128 10 -72
-3 -117 -50 -167 -42 -45 -43 -71 -11 -179 45 -154 139 -254 375 -405 104 -65
131 -78 252 -112 111 -32 139 -37 157 -28 33 18 34 23 36 117 0 47 3 94 7 104
3 10 1 40 -5 66 -6 26 -13 59 -16 74 -3 14 -17 40 -31 57 -14 17 -23 35 -19
40 3 6 37 8 77 6 l71 -4 -7 57 c-7 63 -52 166 -90 203 -29 30 -39 59 -30 93 7
31 26 33 62 7 85 -60 230 -94 362 -85 81 5 111 14 215 64 22 11 76 29 120 41
44 11 96 31 115 43 19 12 55 30 79 40 90 35 238 165 270 236 26 57 26 68 0 91
-19 16 -32 18 -103 12 -124 -10 -162 -6 -276 27 -353 104 -438 157 -650 405
-47 54 -105 122 -130 151 -25 29 -54 67 -65 85 -16 27 -34 38 -88 56 -58 19
-75 21 -119 13 -35 -7 -55 -7 -62 0 -17 17 -41 11 -64 -15z"/>
</g>
</svg>
