<svg version="1.0" xmlns="http://www.w3.org/2000/svg"
 width="1200.000000pt" height="1600.000000pt" viewBox="0 0 1200.000000 1600.000000"
 preserveAspectRatio="xMidYMid meet">

<g transform="translate(0.000000,1600.000000) scale(0.100000,-0.100000)"
fill="#000000" stroke="none">
<path d="M5438 14744 c-3 -3 -1 -20 4 -38 7 -20 8 -68 3 -122 -6 -80 -12 -98
-61 -192 -33 -64 -78 -131 -115 -173 l-62 -70 7 -84 c7 -92 36 -181 58 -178 9
2 18 -20 29 -68 l16 -70 -35 -92 c-19 -51 -36 -108 -38 -127 -1 -19 -8 -83
-15 -142 -7 -59 -10 -110 -7 -114 12 -12 176 48 259 94 117 66 178 125 190
182 32 150 33 182 10 265 -30 108 -35 140 -24 160 7 12 0 41 -25 103 -19 48
-40 114 -48 147 -8 33 -26 110 -40 170 -14 61 -32 148 -39 195 -18 117 -44
178 -67 154z"/>
<path d="M6676 14722 c-8 -16 -19 -58 -25 -93 -6 -35 -12 -77 -15 -94 -2 -16
-16 -79 -30 -140 -15 -60 -32 -137 -40 -170 -8 -33 -30 -99 -49 -147 -22 -55
-31 -91 -26 -99 14 -22 11 -55 -11 -120 -32 -93 -35 -161 -12 -263 19 -80 25
-94 64 -132 24 -23 82 -65 131 -92 86 -49 252 -110 265 -98 3 4 0 55 -7 114
-7 59 -14 118 -15 132 -4 35 -32 130 -56 184 -18 44 -18 48 -2 115 11 47 21
70 30 68 22 -3 50 83 58 176 l7 86 -64 73 c-42 48 -84 112 -119 181 l-55 108
0 120 c0 65 -3 119 -7 119 -4 0 -14 -13 -22 -28z"/>
<path d="M5397 13196 c-48 -29 -61 -43 -22 -23 31 16 74 46 65 46 -3 0 -22
-10 -43 -23z"/>
<path d="M6725 13205 c22 -18 86 -53 70 -38 -5 6 -28 20 -50 32 -22 13 -31 15
-20 6z"/>
</g>
</svg>
