<svg version="1.0" xmlns="http://www.w3.org/2000/svg"
 width="1200.000000pt" height="1600.000000pt" viewBox="0 0 1200.000000 1600.000000"
 preserveAspectRatio="xMidYMid meet">

<g transform="translate(0.000000,1600.000000) scale(0.100000,-0.100000)"
fill="#000000" stroke="none">
<path d="M6925 11480 c-4 -6 -21 -8 -40 -4 -18 3 -42 3 -53 0 -22 -7 -42 -53
-42 -93 0 -35 30 -95 51 -100 11 -3 23 -26 33 -62 21 -74 20 -93 -3 -142 l-20
-40 29 6 c23 5 35 1 54 -18 22 -22 24 -30 16 -58 -11 -37 -25 -49 -57 -49 -20
0 -23 -5 -23 -40 0 -21 -4 -49 -9 -62 -6 -13 -12 -39 -16 -59 -3 -20 -21 -62
-40 -94 -35 -57 -35 -59 -17 -79 10 -12 33 -52 52 -91 18 -38 42 -81 52 -95
11 -14 54 -82 98 -152 90 -147 201 -294 229 -303 10 -3 43 -35 72 -70 38 -45
59 -63 71 -59 9 2 19 0 23 -6 13 -20 25 -9 19 18 -5 26 -4 25 18 -8 l23 -35 5
50 c3 28 14 65 25 83 17 29 24 33 50 28 43 -9 118 -57 132 -86 12 -23 13 -22
15 25 1 28 2 58 1 68 0 15 3 16 23 3 26 -18 37 -10 23 16 -15 28 -4 33 28 13
27 -18 27 -18 13 0 -14 17 -13 17 9 10 27 -8 25 -2 -22 59 -17 21 -45 83 -63
137 -53 160 -174 455 -212 517 -19 31 -44 84 -57 117 -14 38 -29 61 -41 64
-41 8 -52 40 -48 138 4 100 7 91 -82 246 -21 38 -44 78 -50 89 -15 25 -75 88
-83 86 -3 -1 -32 6 -64 15 -32 10 -62 15 -67 12 -5 -3 -18 -1 -29 5 -14 7 -22
7 -26 0z"/>
<path d="M5118 11465 c-21 -8 -38 -11 -38 -8 0 3 -7 0 -15 -7 -9 -7 -18 -10
-21 -7 -12 12 -56 -40 -111 -132 -103 -172 -104 -176 -107 -301 -1 -82 -15
-117 -47 -122 -16 -2 -27 -19 -44 -63 -13 -33 -38 -86 -57 -117 -38 -61 -160
-361 -213 -520 -18 -53 -46 -114 -62 -135 -47 -60 -49 -66 -22 -58 22 7 23 7
9 -10 -14 -18 -14 -18 13 0 33 21 43 15 27 -15 -14 -26 -3 -41 13 -20 18 23
33 21 33 -3 0 -12 1 -42 2 -67 2 -43 3 -44 15 -20 14 29 89 77 132 86 26 5 33
1 50 -28 11 -18 22 -55 25 -83 l5 -50 23 35 c23 34 23 34 17 7 -5 -26 -4 -27
16 -16 15 7 24 8 28 1 3 -6 31 19 61 55 30 35 67 71 82 79 33 17 144 165 236
314 39 63 79 126 89 140 11 14 34 57 52 95 19 39 43 80 53 92 20 21 20 21 -11
66 -17 25 -36 67 -42 93 -6 27 -17 64 -25 81 -8 19 -11 46 -8 63 6 27 4 30
-17 30 -34 0 -48 12 -59 49 -8 29 -6 36 16 58 19 19 31 23 51 18 22 -5 24 -3
18 12 -26 62 -28 91 -11 157 11 40 24 66 32 66 7 0 23 19 35 42 37 72 9 158
-51 158 -14 0 -32 -6 -39 -12 -11 -10 -14 -10 -18 0 -6 16 -68 14 -115 -3z"/>
<path d="M5317 11000 c3 -11 12 -20 20 -20 11 0 11 4 3 20 -6 11 -15 20 -19
20 -5 0 -7 -9 -4 -20z"/>
<path d="M6810 11000 c-9 -16 -8 -20 5 -20 8 0 15 9 15 20 0 11 -2 20 -5 20
-2 0 -9 -9 -15 -20z"/>
</g>
</svg>
