<?xml version="1.0" standalone="no"?>
<!DOCTYPE svg PUBLIC "-//W3C//DTD SVG 20010904//EN"
 "http://www.w3.org/TR/2001/REC-SVG-20010904/DTD/svg10.dtd">
<svg version="1.0" xmlns="http://www.w3.org/2000/svg"
 width="1200.000000pt" height="1600.000000pt" viewBox="0 0 1200.000000 1600.000000"
 preserveAspectRatio="xMidYMid meet">

<g transform="translate(0.000000,1600.000000) scale(0.100000,-0.100000)"
fill="#000000" stroke="none">
<path d="M5390 11492 c0 -4 -18 -8 -40 -9 -22 -1 -56 -7 -76 -13 -19 -7 -40
-10 -47 -7 -7 3 -21 -1 -32 -9 -10 -8 -27 -14 -37 -14 -10 0 -18 -4 -18 -10 0
-5 -6 -10 -14 -10 -19 0 -111 -92 -132 -132 -9 -18 -16 -48 -16 -66 1 -19 -17
-79 -40 -135 -22 -56 -41 -111 -42 -122 -3 -39 -29 -101 -81 -190 -28 -49 -64
-124 -79 -165 -23 -60 -235 -507 -301 -632 -8 -16 -10 -30 -4 -33 5 -4 12 1
15 9 8 22 36 20 33 -1 -1 -10 -1 -38 0 -62 l1 -43 20 23 19 24 -5 -35 c-5 -28
-1 -39 16 -55 22 -20 22 -20 71 8 51 28 56 28 39 -4 -15 -26 5 -25 64 5 46 23
47 23 40 2 -6 -18 -5 -19 9 -8 9 8 25 11 37 7 11 -3 20 -2 20 4 0 5 6 16 13
23 7 7 20 27 29 43 28 55 190 309 223 350 57 72 92 147 94 201 1 22 53 103
131 204 27 36 54 77 59 91 8 24 7 25 -15 21 -13 -2 -24 -9 -24 -15 0 -6 -6 -5
-14 3 -15 18 -46 155 -46 208 0 58 26 165 54 224 14 29 48 82 77 117 l51 64
-7 61 c-4 46 -11 65 -26 74 -10 7 -19 9 -19 4z m-765 -1577 c-46 -40 -51 -43
-67 -28 -24 22 -9 39 51 57 69 22 70 19 16 -29z"/>
<path d="M6737 11486 c-11 -9 -19 -33 -23 -73 l-7 -60 51 -63 c103 -128 151
-290 123 -421 -27 -125 -29 -129 -61 -125 -35 4 -37 -2 -10 -37 11 -14 20 -28
20 -32 0 -5 20 -32 45 -61 25 -28 45 -57 45 -63 0 -6 5 -11 11 -11 5 0 7 -4 4
-10 -3 -5 -1 -10 4 -10 14 0 43 -66 48 -110 5 -39 49 -127 75 -150 9 -8 67
-96 129 -195 138 -223 160 -255 170 -255 5 0 9 7 9 16 0 14 3 14 15 4 13 -10
15 -9 15 10 0 19 2 20 15 10 8 -7 22 -10 30 -6 9 3 34 -3 55 -14 22 -11 42
-20 46 -20 13 0 -7 66 -32 103 -14 21 -24 40 -22 42 12 11 104 -32 138 -64
l40 -38 0 60 0 59 25 -16 c47 -31 53 -45 -183 444 -38 80 -82 179 -97 219 -16
41 -46 107 -69 145 -69 122 -95 180 -85 192 5 6 3 18 -6 30 -8 10 -15 27 -15
36 0 9 -11 37 -24 62 -27 51 -40 98 -38 137 4 51 -107 184 -181 219 -23 11
-56 21 -72 23 -17 2 -36 6 -42 10 -6 4 -35 8 -64 9 -30 1 -56 5 -59 9 -3 4
-13 2 -23 -5z"/>
</g>
</svg>
