<?xml version="1.0" standalone="no"?>
<!DOCTYPE svg PUBLIC "-//W3C//DTD SVG 20010904//EN"
 "http://www.w3.org/TR/2001/REC-SVG-20010904/DTD/svg10.dtd">
<svg version="1.0" xmlns="http://www.w3.org/2000/svg"
 width="1200.000000pt" height="1600.000000pt" viewBox="0 0 1200.000000 1600.000000"
 preserveAspectRatio="xMidYMid meet">

<g transform="translate(0.000000,1600.000000) scale(0.100000,-0.100000)"
fill="#000000" stroke="none">
<path d="M5440 11541 c-8 -5 -50 -11 -93 -15 -116 -9 -307 -77 -307 -108 0 -6
-12 -24 -26 -41 -49 -58 -113 -220 -100 -253 3 -8 1 -14 -3 -14 -16 0 -29 -57
-23 -105 4 -41 3 -47 -11 -42 -9 3 -18 -1 -21 -10 -5 -11 -2 -14 9 -9 12 4 8
-6 -10 -37 -31 -49 -151 -289 -183 -365 -13 -29 -32 -58 -42 -65 -11 -6 -20
-15 -20 -19 0 -4 -17 -45 -39 -90 -21 -46 -42 -94 -46 -108 -4 -14 -27 -54
-50 -90 -52 -81 -75 -124 -75 -145 0 -15 -4 -25 -28 -72 -15 -29 -15 -40 0
-25 19 19 23 15 24 -31 2 -112 28 -150 84 -127 32 13 31 21 -7 82 -29 47 -29
56 0 32 12 -10 9 -4 -7 14 -32 34 -47 43 -25 15 11 -15 11 -16 -1 -6 -29 26
-21 66 37 185 32 65 60 117 63 117 3 1 19 -30 37 -68 29 -62 116 -182 100
-138 -4 10 -7 22 -7 26 0 4 -12 21 -26 37 -14 16 -37 52 -49 81 -13 28 -29 54
-34 58 -19 11 -11 39 33 113 l43 74 12 -33 c6 -18 19 -41 28 -51 16 -17 15
-21 -5 -64 -30 -61 -27 -70 3 -12 24 46 25 48 10 112 -15 63 -15 67 10 133 35
93 160 344 211 424 38 60 46 67 82 73 31 4 46 14 63 39 17 23 18 28 6 18 -10
-8 -29 -16 -42 -17 -14 -1 -35 -10 -47 -18 -37 -26 -44 -20 -38 32 4 38 9 47
25 48 11 1 30 4 42 8 60 19 72 14 63 -29 -1 -6 4 -5 10 1 6 7 10 22 8 35 -3
22 -7 24 -58 22 l-55 -2 34 15 c19 9 46 26 60 39 46 43 68 59 124 95 31 19 56
38 57 42 0 8 -148 -81 -188 -113 -14 -10 -39 -19 -57 -19 l-33 0 31 80 c41
110 87 161 175 194 37 14 80 28 95 32 28 6 28 6 23 -32 l-6 -39 17 43 c9 23
22 42 29 42 13 0 24 -32 24 -71 0 -32 21 -52 45 -42 17 6 16 7 -3 14 -18 7
-22 16 -22 53 0 48 10 56 67 53 19 -1 21 -6 16 -27 -3 -14 -13 -33 -21 -43
-24 -27 -5 -33 23 -7 20 19 24 30 20 52 -6 24 -3 28 14 28 12 0 21 5 21 10 0
6 -5 10 -11 10 -8 0 -8 5 1 15 11 13 8 15 -16 15 -16 0 -36 -4 -44 -9z m-969
-1723 c19 -27 19 -27 -3 -39 -32 -17 -54 15 -56 82 l-2 54 21 -35 c12 -19 30
-47 40 -62z"/>
<path d="M6647 11539 c6 -6 9 -18 6 -26 -3 -7 -2 -13 3 -12 24 4 30 -3 26 -32
-3 -22 1 -36 17 -51 29 -26 35 -19 16 18 -21 41 -19 59 8 62 54 5 62 -3 59
-58 -3 -43 -7 -50 -25 -51 -22 0 -22 0 1 -11 31 -15 51 13 52 70 0 57 23 56
46 -3 20 -53 30 -53 16 -1 -12 41 -14 40 55 22 129 -35 185 -85 234 -213 16
-41 29 -76 29 -79 0 -2 -15 -3 -32 -2 -20 1 -62 22 -106 51 -81 55 -109 60
-35 6 26 -18 56 -42 67 -53 10 -10 37 -29 58 -41 l40 -23 -46 -3 c-25 -2 -46
0 -46 5 0 6 -5 5 -11 -1 -18 -18 -2 -77 29 -105 25 -24 53 -37 88 -42 21 -3
84 -107 158 -261 141 -293 138 -282 120 -347 -7 -29 -14 -54 -14 -55 0 -1 7 0
15 3 8 3 20 24 27 46 14 47 15 46 74 -59 l35 -63 -26 -37 c-14 -21 -25 -45
-25 -53 0 -9 -8 -25 -18 -36 -39 -42 -62 -78 -62 -93 1 -27 57 47 97 127 l36
73 29 -53 c80 -143 90 -170 85 -215 -2 -23 -1 -40 4 -37 14 8 10 -12 -4 -25
-8 -6 -18 -7 -22 -3 -5 4 -5 2 -1 -5 3 -6 2 -14 -4 -18 -16 -10 -32 -45 -20
-45 5 0 10 7 10 15 0 8 4 15 9 15 4 0 20 11 34 24 41 38 41 140 1 217 -24 46
-87 143 -97 147 -4 2 -5 7 -2 12 3 5 -15 50 -39 102 -24 51 -46 101 -50 111
-3 9 -12 17 -19 17 -11 0 -77 116 -77 135 0 9 -151 309 -162 322 -9 11 -8 17
3 24 11 8 10 9 -6 7 -22 -3 -33 30 -19 60 9 21 6 38 -11 77 -8 17 -18 56 -24
87 -11 64 -70 178 -119 233 -19 20 -55 46 -80 57 -63 27 -205 58 -269 58 -28
0 -55 5 -58 10 -3 6 -20 10 -38 10 -23 0 -28 -3 -20 -11z m522 -455 l58 -16 2
-44 c0 -24 -1 -44 -4 -44 -3 0 -20 7 -36 16 -17 8 -43 16 -57 17 -29 3 -50 41
-39 71 8 20 4 20 76 0z"/>
<path d="M5295 11308 c-21 -24 -52 -59 -69 -78 l-31 -35 30 25 c17 14 49 45
73 69 24 25 52 45 62 46 11 1 18 -1 15 -3 -3 -3 5 -12 16 -20 20 -14 19 -16
-52 -83 -41 -38 -79 -69 -87 -69 -7 0 -11 4 -8 9 3 5 -1 14 -9 21 -12 10 -16
9 -21 -3 -8 -23 4 -37 32 -37 30 0 159 113 169 148 10 31 -11 52 -50 52 -25 0
-40 -9 -70 -42z"/>
<path d="M6763 11343 c-44 -8 -39 -41 13 -95 27 -27 63 -59 79 -70 17 -12 -3
13 -44 54 -66 69 -71 77 -52 83 11 3 21 10 21 14 0 21 41 0 76 -39 21 -25 50
-53 63 -64 20 -16 21 -21 9 -30 -20 -16 -30 -46 -15 -46 19 0 36 21 30 36 -3
10 0 12 10 8 8 -3 -10 21 -40 53 -30 32 -62 68 -70 81 -15 21 -31 24 -80 15z"/>
<path d="M6915 11300 c3 -5 16 -15 28 -21 22 -12 22 -12 3 10 -19 21 -43 30
-31 11z"/>
<path d="M5119 11113 c-12 -32 -9 -55 9 -61 8 -2 12 8 12 32 0 20 2 36 4 36
16 0 66 -24 66 -32 0 -5 -13 -15 -30 -21 -39 -15 -39 -29 0 -16 37 13 48 44
24 70 -26 29 -72 25 -85 -8z"/>
<path d="M6958 11129 c-21 -12 -24 -52 -4 -68 18 -15 64 -25 49 -10 -6 6 -19
12 -29 13 -31 5 -28 33 5 44 28 10 29 9 36 -24 3 -19 10 -34 15 -34 11 0 13
50 4 74 -7 18 -50 21 -76 5z"/>
<path d="M6871 10931 c-13 -23 -14 -31 -3 -31 13 0 32 39 22 45 -5 3 -14 -3
-19 -14z"/>
<path d="M6858 10823 c-8 -10 -28 -43 -45 -73 -28 -51 -30 -59 -19 -91 7 -19
10 -41 8 -48 -2 -7 5 -15 16 -18 25 -6 107 -131 242 -368 56 -99 108 -187 115
-195 7 -8 36 -55 65 -105 78 -135 195 -245 248 -232 11 2 7 6 -13 12 -42 11
-94 52 -106 83 -6 14 -29 53 -52 87 -23 33 -87 139 -142 235 -159 275 -223
380 -270 448 -60 86 -73 147 -47 225 11 31 18 57 17 57 -1 0 -9 -8 -17 -17z"/>
<path d="M5294 10792 c8 -23 17 -61 20 -84 5 -39 0 -50 -52 -126 -77 -111
-187 -295 -350 -582 -14 -25 -49 -82 -79 -127 -29 -45 -53 -86 -53 -92 0 -13
-58 -57 -100 -75 -29 -13 -31 -15 -12 -16 62 -1 179 104 236 211 16 29 48 83
71 119 23 36 84 139 135 230 84 148 148 251 195 318 9 12 21 20 26 16 6 -4 4
-13 -7 -25 -14 -16 -15 -19 -2 -19 8 0 23 9 33 20 17 19 17 20 1 20 -12 0 -16
6 -12 18 31 108 30 101 9 130 -11 15 -23 37 -27 48 -4 12 -15 29 -26 39 -20
18 -20 18 -6 -23z"/>
<path d="M6905 10819 c-4 -6 -5 -12 -2 -15 2 -3 7 2 10 11 7 17 1 20 -8 4z"/>
<path d="M6785 10580 c-7 -11 43 -46 52 -36 7 7 -25 46 -38 46 -4 0 -10 -4
-14 -10z"/>
<path d="M7460 10265 c1 -5 7 -19 15 -29 21 -28 19 -42 -3 -23 -26 24 -47 21
-60 -8 -16 -35 -15 -50 5 -66 15 -12 16 -12 8 1 -15 24 -14 38 2 52 13 11 18
9 31 -10 19 -29 46 -30 37 -1 -5 15 -4 19 5 14 7 -4 6 4 -4 21 -22 42 -36 60
-36 49z"/>
<path d="M4748 10210 c6 -8 12 -17 12 -21 0 -4 -6 -14 -12 -21 -7 -8 -22 -25
-33 -38 -17 -21 -14 -20 17 5 41 33 47 56 21 76 -15 11 -16 11 -5 -1z"/>
<path d="M4692 10192 c-13 -10 -20 -21 -16 -24 10 -10 66 21 59 32 -9 14 -17
12 -43 -8z"/>
<path d="M4626 10163 c-6 -14 -5 -15 5 -6 7 7 10 15 7 18 -3 3 -9 -2 -12 -12z"/>
<path d="M7520 10160 c6 -11 13 -20 16 -20 2 0 0 9 -6 20 -6 11 -13 20 -16 20
-2 0 0 -9 6 -20z"/>
<path d="M7486 10113 c-6 -14 -5 -15 5 -6 7 7 10 15 7 18 -3 3 -9 -2 -12 -12z"/>
<path d="M4676 9945 c-9 -26 -7 -32 5 -12 6 10 9 21 6 23 -2 3 -7 -2 -11 -11z"/>
<path d="M7770 9940 c0 -5 5 -10 11 -10 5 0 7 5 4 10 -3 6 -8 10 -11 10 -2 0
-4 -4 -4 -10z"/>
<path d="M4622 9873 c-18 -20 -31 -38 -29 -39 5 -6 66 40 71 53 11 27 -12 19
-42 -14z"/>
<path d="M7490 9897 c0 -16 34 -49 70 -68 33 -18 49 -19 57 -7 4 7 -2 9 -15 6
-16 -5 -31 5 -62 38 -43 47 -50 51 -50 31z"/>
<path d="M7741 9848 c-1 -19 -10 -32 -28 -42 -16 -8 -23 -15 -17 -16 25 0 56
36 51 60 -4 24 -4 24 -6 -2z"/>
<path d="M4535 9820 c7 -12 32 -13 39 -2 2 4 -7 9 -20 10 -15 1 -22 -2 -19 -8z"/>
</g>
</svg>
