<?xml version="1.0" standalone="no"?>
<!DOCTYPE svg PUBLIC "-//W3C//DTD SVG 20010904//EN"
 "http://www.w3.org/TR/2001/REC-SVG-20010904/DTD/svg10.dtd">
<svg version="1.0" xmlns="http://www.w3.org/2000/svg"
 width="1200.000000pt" height="1600.000000pt" viewBox="0 0 1200.000000 1600.000000"
 preserveAspectRatio="xMidYMid meet">

<g transform="translate(0.000000,1600.000000) scale(0.100000,-0.100000)"
fill="#000000" stroke="none">
<path d="M6705 11484 l-30 -26 43 -39 c23 -22 47 -37 52 -34 12 7 13 75 2 90
-23 32 -38 34 -67 9z"/>
<path d="M5387 11482 c-19 -21 -23 -87 -6 -98 6 -3 30 12 53 35 l41 42 -24 20
c-29 24 -43 24 -64 1z"/>
<path d="M6857 11480 c-3 -11 1 -26 8 -34 8 -7 11 -16 8 -20 -4 -3 -1 -6 6 -6
7 0 9 -4 6 -10 -3 -5 -2 -10 4 -10 6 0 15 -10 22 -21 8 -16 8 -20 0 -15 -6 4
0 -9 14 -30 14 -20 25 -42 25 -48 0 -6 24 -26 54 -43 29 -18 67 -46 84 -62 42
-38 81 -46 86 -17 8 42 5 69 -11 100 -25 48 -96 136 -115 142 -10 3 -18 9 -18
13 0 8 -82 39 -117 44 -25 3 -44 17 -24 17 7 0 9 5 6 10 -10 17 -32 11 -38
-10z"/>
<path d="M5191 11476 c-9 -11 -9 -15 1 -19 7 -2 1 -8 -14 -12 -17 -4 -25 -12
-21 -19 3 -6 3 -8 -2 -4 -4 4 -20 1 -36 -7 -70 -37 -135 -140 -141 -225 -3
-40 -1 -45 17 -42 35 5 42 7 57 23 8 8 40 32 72 54 53 37 116 113 116 141 0 7
9 18 21 24 11 6 18 17 16 23 -2 7 2 18 10 25 24 25 15 34 -27 27 -30 -5 -40
-4 -38 5 4 19 -17 23 -31 6z"/>
<path d="M5338 11319 c-41 -23 -108 -105 -108 -131 0 -45 37 -27 137 67 23 22
43 43 43 46 0 5 -46 30 -53 29 -1 0 -10 -5 -19 -11z"/>
<path d="M6767 11317 l-29 -12 22 -28 c29 -36 135 -117 154 -117 22 0 28 17
15 42 -11 22 -119 128 -129 128 -3 -1 -18 -6 -33 -13z"/>
<path d="M5140 11085 c0 -25 13 -31 44 -19 33 13 11 44 -30 44 -8 0 -14 -10
-14 -25z"/>
<path d="M6963 11103 c-21 -8 -15 -30 10 -37 34 -9 37 -8 37 19 0 25 -16 31
-47 18z"/>
<path d="M5010 11084 c-25 -8 -55 -12 -68 -9 -26 6 -43 -25 -38 -72 3 -23 8
-28 29 -25 75 8 143 63 128 103 -5 15 -11 15 -51 3z"/>
<path d="M7094 11085 c-3 -8 -2 -27 3 -41 7 -22 22 -32 74 -50 35 -12 67 -20
71 -18 5 3 8 22 8 43 0 39 -20 68 -39 56 -6 -3 -33 1 -61 9 -44 13 -52 13 -56
1z"/>
<path d="M4562 10308 c-18 -40 -32 -76 -32 -80 0 -5 -9 -17 -20 -28 -11 -11
-20 -30 -20 -43 0 -14 -9 -26 -22 -32 -31 -13 -58 -71 -58 -121 0 -37 7 -49
57 -104 78 -84 88 -89 125 -53 16 15 41 47 54 70 25 41 25 43 9 89 -9 26 -27
58 -41 71 -31 29 -26 50 27 114 53 64 59 98 25 149 -42 63 -65 56 -104 -32z"/>
<path d="M7485 10343 c-36 -54 -32 -82 21 -148 52 -63 59 -99 25 -124 -11 -9
-28 -37 -36 -63 -15 -43 -15 -49 0 -78 26 -51 85 -110 110 -110 30 0 85 38
112 79 43 63 23 198 -33 223 -14 7 -25 23 -28 43 -4 18 -13 36 -21 39 -8 3
-15 11 -15 18 0 7 -14 46 -32 86 -38 87 -62 95 -103 35z"/>
<path d="M4691 10196 c-18 -21 -26 -86 -12 -86 15 0 61 49 61 64 0 13 -20 36
-31 36 -4 0 -12 -6 -18 -14z"/>
<path d="M7422 10198 c-18 -18 -15 -32 13 -62 34 -37 49 -34 42 10 -6 35 -22
64 -36 64 -4 0 -12 -5 -19 -12z"/>
<path d="M4411 9881 c-13 -23 -3 -87 15 -102 18 -15 58 -7 62 13 2 9 -8 28
-22 42 -15 14 -26 34 -26 46 0 25 -16 26 -29 1z"/>
<path d="M7705 9840 c-21 -23 -12 -39 13 -24 19 12 29 44 14 44 -5 0 -17 -9
-27 -20z"/>
</g>
</svg>
