<svg version="1.0" xmlns="http://www.w3.org/2000/svg"
 width="1200.000000pt" height="1600.000000pt" viewBox="0 0 1200.000000 1600.000000"
 preserveAspectRatio="xMidYMid meet">

<g transform="translate(0.000000,1600.000000) scale(0.100000,-0.100000)"
fill="#000000" stroke="none">
<path d="M6590 9573 c8 -3 24 -10 35 -15 20 -9 20 -9 1 6 -11 9 -27 16 -35 15
-14 0 -14 -1 -1 -6z"/>
<path d="M5485 9544 c-42 -22 -157 -144 -213 -228 -138 -203 -244 -411 -297
-578 -20 -65 -40 -118 -44 -118 -5 0 -18 -23 -29 -50 -30 -72 -145 -259 -273
-445 -122 -177 -218 -358 -284 -534 -89 -237 -108 -483 -74 -931 11 -149 23
-234 68 -485 34 -189 37 -239 19 -470 l-11 -160 40 -125 c35 -107 116 -301 96
-230 -4 14 -6 38 -5 53 1 27 -7 54 -65 211 l-26 69 13 144 c9 92 17 139 22
131 20 -29 -6 218 -47 437 -23 125 -43 250 -70 440 -15 107 -12 433 5 580 27
238 85 402 222 635 77 131 105 175 218 336 57 82 117 172 133 199 l28 50 -5
-60 c-2 -33 -7 -69 -11 -80 -5 -16 -4 -16 7 3 8 12 17 19 21 16 4 -4 7 12 7
36 0 77 98 373 166 501 26 51 30 64 14 54 -22 -14 41 111 119 235 30 49 156
214 188 248 7 7 13 22 13 33 0 22 27 51 73 79 38 24 25 26 -18 4z"/>
<path d="M6684 9518 c20 -18 39 -43 41 -56 3 -19 43 -77 80 -118 44 -48 68
-81 119 -164 61 -98 136 -233 136 -244 0 -4 -4 -4 -10 -1 -15 9 -14 6 31 -91
50 -108 60 -136 105 -286 18 -65 34 -133 34 -153 0 -22 8 -43 21 -56 19 -19
20 -19 15 -2 -3 10 -8 45 -10 78 l-5 60 27 -53 c24 -46 200 -305 228 -336 6
-6 22 -32 35 -56 14 -25 38 -65 54 -90 16 -25 35 -54 41 -65 147 -255 193
-398 224 -687 16 -149 12 -447 -6 -563 -9 -55 -18 -120 -21 -145 -3 -25 -16
-106 -29 -180 -60 -335 -76 -469 -58 -501 7 -13 13 -45 14 -71 0 -26 5 -81 11
-122 l11 -74 -47 -134 c-26 -73 -49 -149 -50 -168 -1 -19 -5 -46 -10 -60 -4
-16 -4 -21 2 -15 10 11 55 119 55 132 0 4 3 13 8 18 11 14 60 171 69 225 5 26
3 107 -4 195 -17 206 -13 266 34 525 53 295 65 432 65 745 0 372 -26 488 -180
800 -77 157 -98 190 -280 457 -117 172 -216 357 -254 473 -58 180 -159 378
-291 570 -84 123 -199 245 -231 245 -6 0 5 -15 26 -32z"/>
<path d="M6011 8974 c28 -30 98 -31 128 -3 12 11 21 21 21 22 0 1 -38 2 -85 3
l-85 0 21 -22z"/>
<path d="M5485 8805 c-27 -102 -18 -172 39 -285 26 -51 40 -87 31 -80 -9 7
-15 8 -15 2 0 -6 11 -19 25 -30 16 -13 29 -36 34 -64 25 -121 35 -159 63 -228
16 -41 38 -91 49 -110 24 -47 54 -116 68 -162 16 -48 29 -57 23 -15 l-5 32 39
-35 c21 -19 53 -50 69 -69 29 -34 30 -37 29 -131 -2 -94 -21 -223 -50 -330
-21 -75 -20 -73 -27 -90 -3 -8 -10 -28 -15 -45 -8 -23 -11 0 -12 105 -4 243
-17 275 -19 44 -1 -246 -12 -370 -47 -546 -33 -162 -95 -369 -143 -473 -5 -11
-24 -58 -41 -105 -17 -47 -42 -113 -56 -147 -13 -34 -24 -71 -24 -82 0 -12 -5
-21 -11 -21 -5 0 -8 -4 -4 -9 6 -11 -30 -143 -91 -326 -14 -44 -28 -96 -31
-115 -3 -19 -21 -82 -40 -140 -31 -96 -45 -125 -92 -200 -10 -15 -11 -21 -3
-17 8 6 12 2 12 -10 0 -14 3 -13 14 7 7 14 36 62 63 106 34 57 54 102 62 145
7 35 37 141 66 234 139 439 172 542 227 705 106 315 124 381 163 600 14 80 31
168 39 195 8 28 26 104 40 171 14 66 30 134 36 150 6 16 17 56 24 90 10 49 23
73 57 113 24 28 46 51 49 51 15 0 88 -110 93 -140 4 -19 18 -73 32 -120 20
-69 53 -207 80 -335 3 -11 9 -40 14 -65 6 -25 18 -88 27 -140 27 -155 61 -281
149 -545 45 -137 111 -340 145 -450 34 -110 77 -245 96 -300 18 -55 41 -131
49 -170 16 -67 62 -168 114 -248 13 -20 26 -36 28 -34 2 2 -21 64 -50 138 -29
74 -59 163 -66 199 -7 36 -21 90 -31 120 -9 30 -25 82 -35 115 -9 33 -26 88
-37 123 -11 34 -17 70 -13 80 3 9 3 13 -1 9 -5 -4 -13 14 -20 40 -7 27 -54
156 -104 288 -51 132 -101 272 -112 310 -26 93 -66 287 -73 355 -3 30 -8 71
-11 90 -3 19 -7 135 -9 258 -1 123 -5 226 -9 229 -6 7 -10 -104 -9 -264 1 -51
0 -93 -2 -93 -5 0 -52 149 -69 221 -26 108 -48 322 -36 353 5 14 41 58 80 97
52 53 68 65 60 45 -12 -32 -13 -64 -2 -50 4 5 14 27 21 49 14 43 29 77 71 170
57 124 69 157 91 257 13 57 27 105 31 106 4 2 6 8 2 13 -3 5 1 9 8 9 7 0 19 9
26 21 12 19 11 19 -8 9 -20 -11 -20 -9 4 28 67 106 89 200 71 306 -7 40 -22
86 -28 86 -2 0 3 -35 10 -77 7 -43 11 -96 7 -118 -3 -22 -32 -87 -65 -145 -33
-57 -62 -122 -65 -145 -11 -74 -60 -208 -144 -390 -31 -68 -96 -146 -150 -180
-20 -13 -64 -31 -98 -40 -52 -15 -68 -16 -114 -5 -99 24 -172 75 -228 161 -56
86 -147 318 -180 459 -7 30 -21 66 -30 80 -10 14 -36 60 -59 103 -45 87 -52
144 -30 247 16 75 5 71 -16 -5z m683 -1110 c-3 -28 -16 -33 -25 -9 -3 9 0 20
8 25 19 12 19 12 17 -16z m-159 -16 c-13 -26 -19 -24 -19 6 0 17 4 23 15 19
11 -5 12 -11 4 -25z"/>
</g>
</svg>
