<svg version="1.0" xmlns="http://www.w3.org/2000/svg"
 width="1200.000000pt" height="1600.000000pt" viewBox="0 0 1200.000000 1600.000000"
 preserveAspectRatio="xMidYMid meet">

<g transform="translate(0.000000,1600.000000) scale(0.100000,-0.100000)"
fill="#000000" stroke="none">
<path d="M6166 14074 c-21 -7 -49 -11 -61 -8 -23 6 -34 -1 -93 -57 -51 -50
-79 -62 -123 -55 -22 4 -46 3 -52 -1 -7 -4 -52 -21 -102 -38 -49 -17 -101 -38
-115 -46 -14 -9 -46 -28 -71 -42 -80 -45 -145 -103 -203 -181 -126 -167 -185
-335 -165 -473 14 -97 13 -302 -1 -338 -6 -16 -13 -41 -15 -55 -2 -14 -11 -41
-19 -62 -14 -32 -19 -36 -51 -35 -27 1 -43 -7 -70 -33 -20 -19 -35 -44 -35
-57 0 -12 20 -53 45 -89 43 -65 44 -68 25 -81 -11 -8 -20 -18 -20 -23 0 -4 42
-36 93 -69 50 -34 114 -77 140 -96 27 -19 68 -40 90 -47 23 -7 53 -19 67 -28
14 -10 63 -39 110 -67 308 -181 488 -219 738 -154 62 16 118 34 125 39 7 5 57
33 112 61 55 29 129 70 165 93 104 66 175 105 307 169 114 56 123 63 123 89 0
15 -7 33 -15 40 -23 19 -19 29 35 86 28 29 50 59 50 68 0 23 -11 46 -23 46 -6
0 -24 12 -39 27 -20 19 -38 27 -62 26 -31 -1 -35 2 -48 41 -8 22 -21 57 -28
76 -18 45 -25 280 -11 383 9 62 7 93 -5 159 -9 46 -19 85 -22 88 -4 3 -27 46
-52 95 -37 73 -62 107 -135 180 -98 97 -97 97 -230 164 -49 25 -97 54 -106 64
-12 16 -19 18 -36 9 -18 -10 -23 -6 -53 51 -17 34 -39 70 -48 80 -18 20 -62
21 -116 1z"/>
</g>
</svg>
