<?xml version="1.0" encoding="utf-8"?>
<!-- Generator: Adobe Illustrator 16.0.0, SVG Export Plug-In . SVG Version: 6.00 Build 0)  -->
<!DOCTYPE svg PUBLIC "-//W3C//DTD SVG 1.1//EN" "http://www.w3.org/Graphics/SVG/1.1/DTD/svg11.dtd">
<svg version="1.1" xmlns="http://www.w3.org/2000/svg" xmlns:xlink="http://www.w3.org/1999/xlink" x="0px" y="0px" width="1200px"
	 height="1600px" viewBox="0 0 1200 1600" enable-background="new 0 0 1200 1600" xml:space="preserve">
<g id="Layer_2">
	<g transform="translate(0.000000,1600.000000) scale(0.100000,-0.100000)" opacity="0.2">
		<path fill="#FFFFFF" d="M6004.003,12687c-95.669-75.336-156.006-209.004-172.002-192.998c-27.002,23.994-90,20-137.002-9.004
			c-22.002-12.998-50.996-25-65-25s-35-5.996-47.998-12.998c-22.998-12.998-22.998-12.998-2.998-31.006
			c10.996-10,23.994-15,30-11.992c5.996,3.994,16.992-9.004,25-28.008c15-35,170.996-205.996,187.998-205.996
			c5.996,0,22.002-7.998,35.996-19.004c39.004-26.992,204.004-110.996,219.004-110.996c20,0,223.994,107.002,275,145
			c42.998,30.996,127.998,130,170.996,197.998c10,15,22.002,25,27.002,22.002c4.004-2.998,15.996,2.002,25,12.002
			c15.996,15.996,15.996,17.002-0.996,30c-10,7.002-32.002,12.998-48.008,12.998c-16.992,0-48.994,12.002-70.996,25
			c-47.002,29.004-150.996,6.006-160,30c-5,14.004-28.33,51.328-38.33,68.33c-9.004,15.996-59.668,46.67-91.67,82.666
			C6092.001,12747,6065,12750.994,6004.003,12687z"/>
	</g>
</g>
<g id="Layer_1">
	<g transform="translate(0.000000,1600.000000) scale(0.100000,-0.100000)">
		<path d="M5972.997,12687.996c-22.002-15.996-95.996-105-110.996-132.998c-6.006-12.002-22.002-27.002-36.006-34.004
			c-20.996-11.992-26.992-10.996-40.996,3.008c-10.996,10.996-20.996,12.998-29.004,6.992
			c-22.998-18.994-143.994-60.996-173.994-60.996c-47.998,0-41.006-20,33.994-102.002c37.001-40,84.003-95,104.003-122.998
			c45-60.996,57.002-70.996,140-120.996c177.998-107.002,259.004-108.008,425-7.002c75.996,45.996,95.996,62.998,160,142.998
			c27.998,35.996,75,87.998,104.004,117.002c58.994,60,66.992,92.998,21.992,92.998c-15.996,0-65,15-108.994,34.004
			c-71.006,28.994-82.002,31.992-95,18.994c-19.004-18.994-52.998-8.994-69.004,20c-22.002,42.002-117.998,154.004-155,181.005
			c-20.996,15.996-46.553,44.473-64.873,42.876C6042.323,12763.757,6002.001,12709.997,5972.997,12687.996z M6289.999,12504.998
			c2.002-14.004,37.998-25.996,45-15c10,15.996,29.746,11.729,23.75-4.268c-17.5-34.902-3.33-17.398,22.246,0.264
			c22.002,20,46.006,15,118.008-26.992l52.998-31.006l-22.002-22.998c-10.127-11.25-17.256-21.607-24.785-22.711
			c-5.859-0.859-5.635,6.27-13.955,10.211c-19.004,8.994-35.264,5.498-63.262-16.504c-17.998-15-80-42.998-137.998-61.992
			c-105.996-36.006-144.004-62.002-197.002-141.006l-15-22.998l-35.996,47.998c-51.006,66.006-64.004,75-166.006,112.002
			c-50,17.998-103.994,37.002-118.994,42.998c-15,5-32.002,17.998-37.998,27.998c-10,20-44.004,26.006-54.004,9.004
			c-7.002-10.996-55,15.996-55,30c0,12.002,85.996,69.004,115,75.996c15.996,4.004,33.794-2.105,50-10
			c36.25-17.666,42.92-23.082,31.865-8.965c-4.004,7.998-4.863,22.969,1.133,22.969c6.006,0,12.002-4.004,14.004-10
			c3.994-14.004,47.998,0,47.998,15c0,25,77.998,128.158,135,169.164c31.006,22.998,68.252,37.339,72.256,38.335
			C6132.714,12707.497,6284.999,12539.002,6289.999,12504.998z M5747.997,12332c15-10,50-25,77.002-32.002
			c69.004-17.998,142.998-55.996,170.996-87.998c13.008-15,35-51.006,49.004-79.004c14.004-28.994,30-52.998,35-52.998
			c4.004,0,14.004,17.002,20.996,37.998c28.008,86.006,113.008,152.002,243.008,187.002c25.996,7.998,55,20,65,27.998
			c24.961,17.211,30.41,10.742,46.416,11.791c12.715,0.836,16.455-1.664,45.83,21.461l-46.25-54.248
			c-45.996-62.002-77.998-92.002-130-127.002c-72.002-47.002-225.996-125-245.996-125c-23.008,0-217.002,100-275,142.002
			c-40,27.998-139.419,144.082-139.419,160.078c0,5.605,5.078-7.389,17.915-11.666
			C5701.718,12343.996,5733.007,12342.195,5747.997,12332z"/>
		<path d="M5974.999,12579.998c-30.996-32.002-29.004-47.998,2.998-30.996c19.004,10,39.004,47.998,30,56.992
			C6004.999,12607.996,5990.995,12595.994,5974.999,12579.998z"/>
		<path d="M6149.003,12582c12.998-24.004,40-46.006,46.992-39.004c9.004,7.998-28.994,56.006-43.994,57.002
			C6142.997,12599.998,6142.001,12594.998,6149.003,12582z"/>
		<path d="M6024.374,12496.281c17.998-12.002,76.748-14.848,103.75-2.846c14.004,5.996-4.502-0.938-49.502-0.938
			C6033.622,12493.494,6014.374,12503.283,6024.374,12496.281z"/>
	</g>
</g>
</svg>
