<?xml version="1.0" standalone="no"?>
<!DOCTYPE svg PUBLIC "-//W3C//DTD SVG 20010904//EN"
 "http://www.w3.org/TR/2001/REC-SVG-20010904/DTD/svg10.dtd">
<svg version="1.0" xmlns="http://www.w3.org/2000/svg"
 width="1200.000000pt" height="1600.000000pt" viewBox="0 0 1200.000000 1600.000000"
 preserveAspectRatio="xMidYMid meet">

<g transform="translate(0.000000,1600.000000) scale(0.100000,-0.100000)"
fill="#000000" stroke="none">
<path d="M5635 12446 c-156 -65 -248 -105 -253 -110 -2 -3 12 -13 32 -22 40
-20 32 -33 -19 -34 -16 -1 -43 -6 -58 -13 l-28 -12 28 -26 c26 -24 66 -52 170
-118 21 -13 92 -52 159 -87 296 -154 523 -153 829 3 130 66 265 152 318 202
l28 26 -28 12 c-15 7 -41 12 -58 13 -52 1 -59 14 -18 34 l38 18 -40 19 c-160
73 -250 110 -287 120 -43 11 -43 11 -89 -32 -25 -24 -71 -59 -103 -78 -56 -33
-58 -34 -119 -24 -41 7 -84 7 -125 1 -62 -9 -65 -9 -119 24 -31 18 -77 52
-102 76 -24 23 -52 42 -60 42 -9 0 -52 -15 -96 -34z"/>
</g>
</svg>
