<?xml version="1.0" standalone="no"?>
<!DOCTYPE svg PUBLIC "-//W3C//DTD SVG 20010904//EN"
 "http://www.w3.org/TR/2001/REC-SVG-20010904/DTD/svg10.dtd">
<svg version="1.0" xmlns="http://www.w3.org/2000/svg"
 width="1200.000000pt" height="1600.000000pt" viewBox="0 0 1200.000000 1600.000000"
 preserveAspectRatio="xMidYMid meet">

<g transform="translate(0.000000,1600.000000) scale(0.100000,-0.100000)"
fill="#000000" stroke="none">
<path d="M6184 14113 c-9 -15 -25 -36 -35 -46 -16 -18 -17 -17 -29 17 -11 34
-40 51 -40 23 0 -14 -115 -113 -156 -135 -21 -11 -24 -10 -24 3 0 28 -30 29
-59 1 -22 -21 -35 -26 -64 -23 -40 5 -51 0 -60 -26 -4 -9 -15 -20 -24 -23
-218 -73 -436 -297 -496 -509 -34 -123 -46 -280 -27 -390 5 -34 3 -73 -6 -120
-21 -111 -32 -139 -61 -167 -32 -30 -136 -88 -158 -88 -24 0 -27 -19 -6 -42
12 -12 21 -25 21 -29 0 -4 6 -14 13 -21 21 -21 67 -84 67 -91 0 -4 -6 -7 -13
-7 -19 0 -36 -20 -30 -36 10 -26 148 -120 253 -174 58 -29 150 -76 205 -105
391 -206 495 -247 625 -248 60 0 95 7 170 33 52 18 111 41 130 51 19 10 71 35
115 57 44 22 98 49 120 62 22 12 123 65 225 118 236 122 329 188 314 226 -3 9
-15 16 -26 16 -20 0 -20 1 -2 28 10 15 24 33 31 40 22 22 73 100 73 111 0 6
-8 11 -19 11 -22 0 -102 43 -152 81 -60 47 -85 185 -67 369 8 80 -14 250 -44
340 -47 141 -163 291 -292 379 -12 8 -23 17 -26 21 -11 13 -132 80 -145 80
-32 0 -45 13 -45 46 l0 34 -35 -17 c-19 -9 -36 -15 -38 -12 -2 2 -15 24 -29
49 -33 57 -106 140 -123 140 -7 0 -21 -12 -31 -27z m73 -60 c36 -29 73 -98 73
-138 0 -28 16 -41 27 -22 4 8 20 17 36 21 24 6 27 4 27 -19 0 -17 6 -25 18
-26 62 -3 72 -5 69 -11 -1 -4 39 -34 88 -67 97 -63 176 -139 221 -211 44 -72
101 -191 118 -250 19 -63 21 -217 5 -321 -9 -60 -8 -80 11 -156 37 -152 50
-171 148 -218 29 -14 55 -31 58 -39 7 -19 -62 -112 -116 -159 l-42 -36 58 5
59 6 -32 -30 c-40 -39 -124 -87 -358 -207 -406 -208 -451 -228 -560 -250 -89
-18 -92 -18 -189 4 -102 22 -137 38 -606 277 -181 92 -306 168 -314 191 -6 16
49 18 91 3 l28 -10 -25 17 c-58 40 -167 174 -155 192 2 4 33 21 68 39 35 18
72 41 82 52 20 22 78 201 78 240 0 14 -6 72 -13 129 -12 104 -9 200 11 276 15
57 103 228 150 292 48 65 165 159 268 215 42 23 87 50 100 60 13 10 32 18 42
18 10 0 34 9 53 21 l36 21 0 -20 c0 -12 5 -24 10 -27 6 -3 10 -3 10 2 0 4 24
21 54 36 30 16 73 44 96 64 44 38 53 38 53 -2 0 -35 15 -31 72 20 28 24 51 44
53 45 2 0 19 -12 39 -27z"/>
</g>
</svg>
