<?xml version="1.0" standalone="no"?>
<!DOCTYPE svg PUBLIC "-//W3C//DTD SVG 20010904//EN"
 "http://www.w3.org/TR/2001/REC-SVG-20010904/DTD/svg10.dtd">
<svg version="1.0" xmlns="http://www.w3.org/2000/svg"
 width="1200.000000pt" height="1600.000000pt" viewBox="0 0 1200.000000 1600.000000"
 preserveAspectRatio="xMidYMid meet">

<g transform="translate(0.000000,1600.000000) scale(0.100000,-0.100000)"
fill="#000000" stroke="none">
<path d="M5660 12364 c0 -15 22 -44 34 -44 8 0 38 -16 66 -35 57 -39 52 -39
108 13 17 15 32 15 105 -2 82 -20 70 -5 -18 23 l-76 23 -38 -27 c-37 -25 -41
-26 -68 -12 -15 8 -39 27 -52 41 -22 23 -61 36 -61 20z"/>
<path d="M6406 12350 c-16 -5 -38 -18 -51 -30 -16 -15 -29 -19 -51 -14 -19 3
-47 -2 -79 -16 l-50 -21 50 5 c28 3 66 2 87 -3 33 -8 38 -6 57 19 11 16 37 34
58 40 74 24 54 42 -21 20z"/>
</g>
</svg>
