<?xml version="1.0" standalone="no"?>
<!DOCTYPE svg PUBLIC "-//W3C//DTD SVG 20010904//EN"
 "http://www.w3.org/TR/2001/REC-SVG-20010904/DTD/svg10.dtd">
<svg version="1.0" xmlns="http://www.w3.org/2000/svg"
 width="1200.000000pt" height="1600.000000pt" viewBox="0 0 1200.000000 1600.000000"
 preserveAspectRatio="xMidYMid meet">

<g transform="translate(0.000000,1600.000000) scale(0.100000,-0.100000)"
fill="#000000" stroke="none">
<path d="M6048 12683 c23 -2 59 -2 80 0 20 2 1 4 -43 4 -44 0 -61 -2 -37 -4z"/>
<path d="M6033 12653 c26 -2 67 -2 90 0 23 2 2 3 -48 3 -49 0 -68 -1 -42 -3z"/>
<path d="M5939 12602 c-42 -48 -37 -74 16 -86 51 -12 114 -49 118 -71 4 -20 4
-20 6 1 1 21 71 62 121 71 29 5 50 21 50 38 0 7 -15 27 -33 46 l-33 34 -108 0
-108 0 -29 -33z m257 -16 c19 -15 34 -30 34 -35 0 -4 -22 -13 -49 -20 -27 -7
-57 -21 -67 -32 -23 -25 -46 -24 -81 4 -15 12 -41 24 -58 26 -40 4 -49 14 -34
38 23 38 54 48 140 47 73 -1 85 -4 115 -28z"/>
<path d="M5820 12510 c8 -5 26 -9 40 -9 23 0 23 1 5 9 -11 5 -29 9 -40 9 -17
1 -17 -1 -5 -9z"/>
<path d="M6295 12510 l-30 -8 30 -1 c17 0 37 4 45 9 13 9 13 10 0 9 -8 -1 -28
-5 -45 -9z"/>
<path d="M5845 12480 c28 -12 47 -12 40 0 -3 6 -18 10 -33 9 -24 0 -25 -1 -7
-9z"/>
<path d="M6275 12480 l-20 -9 20 0 c11 0 29 4 40 9 l20 9 -20 0 c-11 0 -29 -4
-40 -9z"/>
</g>
</svg>
