<svg version="1.1" xmlns="http://www.w3.org/2000/svg" xmlns:xlink="http://www.w3.org/1999/xlink" x="0px" y="0px" width="1200px"
	 height="1600px" viewBox="0 0 1200 1600" enable-background="new 0 0 1200 1600" xml:space="preserve">
<g id="Layer_2">
	<g transform="translate(0.000000,1600.000000) scale(0.100000,-0.100000)" opacity="0.1">
		<path d="M5917.998,13502c-35.996-10-87.998-32.002-115-48.003c-65-41.001-77.002-46.997-163.994-86.997
			c-78.008-36.001-124.004-72.002-284.004-226.001c-237.998-228.999-397.998-466.001-480.996-711.997
			c-25-72.002-29.004-99.004-29.004-194.004c0-105,2.002-112.998,35.996-185c45-95.996,128.008-185.996,211.006-230
			c67.998-35.996,112.998-40.996,225.996-20.996c31.006,5.996,72.998,12.998,92.002,15.996s67.998,14.004,107.998,24.004
			c59.004,15.996,72.002,16.992,72.002,5c0-8.008-7.002-14.004-15-14.004c-22.002,0-45-62.998-65-179.004
			c-20-111.992-17.002-136.992,22.998-178.994c12.002-12.998,34.004-30,50-37.998c15-8.008,27.002-19.004,27.002-25
			c0-6.006-4.004-8.008-7.998-5c-5,2.998-20,6.992-35,10c-22.002,3.994-36.006-7.002-106.006-87.002
			c-180.996-207.998-260-315-367.998-502.002c-65.996-114.004-113.994-232.998-148.994-370c-45-172.998-22.002-360,60.996-500
			c40-67.998,97.002-124.004,152.002-150c67.998-32.002,287.002-0.996,390,55.996c27.002,15,32.998,16.006,22.002,5
			c-18.008-20-12.002-96.992,20.996-240.996c27.998-120.996,74.004-184.004,152.998-210.996c25-9.004,22.002-21.006-20.996-73.008
			C5615,9209.998,5575,9109.002,5575.996,8964.998c1.006-182.997,82.002-427.997,203.008-614.999
			c73.994-115,250.996-337.002,250.996-315c0,5,5.996,0,14.004-10c12.998-17.998,13.994-17.002,28.994,5.996
			c7.998,13.008,17.998,44.004,21.006,69.004c10,65.996,20,79.004,45,55.996c20-17.998,20.996-17.998,67.998,34.004
			c27.002,29.004,52.998,60,57.998,69.004c5.996,10,37.002,52.998,70.996,96.992c156.006,204.004,231.006,369.004,248.008,544.003
			c5,57.998-10,182.002-30,242.002c-20,60.996-84.004,160.996-142.002,220.996c-45,46.006-46.006,47.002-20,47.002
			c15,0,33.994,7.002,42.002,15.996c8.994,8.008,15.996,13.008,15.996,9.004c0-2.998,9.004-0.996,20,5
			c32.998,17.998,70.996,89.004,90.996,169.004c19.004,76.992,45,230,41.006,242.998c-1.006,3.994,20.996-1.006,50-12.998
			c113.994-45,282.998-62.002,347.998-36.006c70,29.004,162.998,149.004,197.998,257.002c47.998,147.002,52.002,244.004,16.006,390
			c-44.004,175.996-158.008,410.996-286.006,592.002c-65.996,92.998-230,287.998-282.998,337.002c-30,26.992-55,51.992-55,53.994
			c0,2.998,14.004,19.004,30,37.002c17.002,17.998,32.998,42.998,35.996,57.002c12.002,45-31.992,260-57.998,287.998
			c-5,5.996-13.994,10-20.996,10c-6.006,0-12.998,7.998-15,17.002c-2.998,15,5.996,13.994,87.998-7.002
			c50-14.004,94.004-24.004,97.998-22.998c4.004,0.996,39.004-4.004,77.002-10c119.004-21.006,164.004-19.004,225,10
			c109.004,50.996,184.004,138.994,240.996,282.002c32.002,78.994,28.008,220-10,331.992
			c-45,136.006-131.992,308.008-190.996,379.004c-10,10.996-19.004,27.002-22.002,35c-22.998,62.998-457.002,500-497.002,500
			c-3.994,0-22.998,15-41.992,33.999c-20,18.003-56.006,40-80,48.003c-87.002,30-105,36.997-169.004,63.999
			c-55.996,23.999-80,27.998-180,31.001C6014.003,13518.997,5967.998,13514.998,5917.998,13502z"/>
	</g>
</g>
<g id="Layer_1">
	<g transform="translate(0.000000,1600.000000) scale(0.100000,-0.100000)">
		<path d="M6244.999,13490.998c-2.998-5-2.002-12.002,2.998-15c5-3.003,9.004,1.001,9.004,8.999
			C6257.001,13501.999,6254.003,13503.996,6244.999,13490.998z"/>
		<path d="M5922.997,13471.999c1.006-14.004,7.002-17.002,24.004-14.004c30.996,6.001,30,32.002-1.006,32.002
			C5927.997,13489.997,5922.001,13484.997,5922.997,13471.999z"/>
		<path d="M5799.999,13460.998c-25-10-60-23.003-77.998-30c-62.998-25-207.001-103.003-247.998-133.999
			c-82.002-64.004-218.008-194.004-293.008-282.002c-73.994-85.996-180.996-229.004-180.996-240.996
			c0-3.008-12.998-24.004-27.998-47.002c-87.002-131.005-175-387.001-174.004-507.001c2.002-95,35-212.998,76.006-269.004
			c37.998-50.996,111.992-115,123.994-106.992c5,2.998,15-4.004,22.998-16.006c34.004-50,46.006-60,84.004-67.998
			c62.002-15,140.996-10.996,245,10.996c147.002,31.006,174.004,34.004,165.996,20c-15.996-25.996-23.994-67.998-11.992-66.992
			c5.996,0,10.996-2.002,10.996-5c0-3.008,5.996-13.008,12.998-21.006c16.006-20,7.002-42.002-35-95
			c-40-50-40.996-63.994-7.002-132.002c30-58.994,37.002-41.992-55.996-145.996c-25-27.998-62.002-70.996-82.002-95
			c-20.996-25-42.002-50-47.998-57.002c-27.002-32.002-140.996-197.002-185.996-267.998c-160-252.002-210-404.004-208.008-640
			c0-102.998,2.002-112.998,29.004-155c15.996-25.996,30-62.998,32.002-90c7.002-77.998,10.996-85.996,73.994-149.004
			c81.006-81.992,112.002-95,224.004-93.994c72.002,0,107.998,5.996,180.996,30l92.002,30l6.006-41.006
			c3.994-21.992,15.996-50,25.996-60.996c25.996-27.998,52.998-137.002,47.998-194.004c-5.996-58.994,19.003-95.996,79.003-122.998
			c22.998-10,42.998-22.002,42.998-27.002c0-3.994-12.002-17.998-25.996-31.992c-60-56.006-121.005-172.002-149.003-284.004
			c-20-79.004-15.996-212.002,9.004-300C5590,8717,5660.995,8537,5692.001,8477c20.996-41.006,147.998-247.002,157.998-257.002
			c2.998-2.998,30.996-39.004,62.998-80.996c64.004-85,129.004-142.002,155-137.002c12.002,2.002,22.998,25.996,37.998,82.998
			c13.008,50.996,23.008,72.998,27.002,62.002c2.998-9.004,12.998-17.002,21.006-17.002c21.992,0,71.992,45.996,107.998,99.004
			c17.998,25,62.002,83.994,98.994,130.996c247.002,315.996,306.006,630.996,165,877.998c-18.994,35-51.992,84.004-72.998,109.004
			c-35.996,42.998-35.996,45.996-17.998,58.994c10,8.008,24.004,14.004,30.996,14.004c21.006,0,86.006,82.002,74.004,94.004
			c-5,5-10,21.992-10,35.996c0,42.002,35.996,160,59.004,190.996c11.992,16.006,20.996,43.008,20.996,63.008
			c0,35,0.996,35,27.998,25c15-6.006,67.002-22.002,116.006-35c171.992-44.004,270-23.008,367.998,81.992
			c55,59.004,55.996,61.006,63.994,130c5,37.002,17.002,74.004,33.008,99.004c21.992,35,25.996,54.004,28.994,144.004
			c11.006,266.992-72.998,482.998-320.996,825.996c-42.998,59.004-169.004,217.998-187.002,235
			c-2.998,2.998-25.996,27.998-52.002,55.996l-47.002,52.002l25,47.002c27.002,55,32.002,112.998,9.004,120.996
			c-14.004,6.006-30.996,41.006-27.002,57.002c1.006,4.004-3.994,6.006-10,5c-8.994-2.002-12.998,10-12.998,37.002
			c0,32.998,2.998,40,17.998,37.998c19.004-0.996,19.004-0.996,1.006,62.998c-5,20-5,20,87.998-2.998
			c113.994-28.994,257.002-40,315-23.994c28.994,7.998,50.996,22.998,68.994,45.996c14.004,19.004,31.006,35,36.006,35
			c18.994,0,103.994,72.998,130.996,112.002c37.002,55,67.002,155.996,72.998,247.998c5,65.996,1.006,90-30,199.004
			c-37.998,130-103.994,276.992-161.992,360.995c-19.004,27.002-34.004,52.002-34.004,55c0,4.004-49.004,72.998-87.002,120
			c-92.002,113.999-233.994,257.998-340,342.998c-67.002,54.004-200.996,126.001-318.994,172.002
			c-82.002,31.001-114.004,37.002-114.004,20c0-5-12.002-10-25.996-10c-14.004,0-23.008,3.999-19.004,10
			c2.998,6.001-2.998,10-14.004,10c-11.992,0-20.996-3.999-20.996-10c0-5,2.002-10,4.004-10c2.998,0,78.994-15,125-23.999
			c12.998-3.003,45-12.002,70-21.001c50.996-17.002,61.992-30,140.996-170c27.002-48.999,50-87.002,50-82.002
			c0,15-45,104.004-80.996,160c-21.006,31.001-33.008,57.002-27.002,57.002c5,0,40-16.001,77.002-35
			c57.998-31.001,71.992-43.999,112.998-110c102.002-158.999,157.998-282.002,232.998-512.002
			c54.004-163.993,97.998-477.997,90.996-647.997c-3.994-97.998-2.998-102.998,5-50c17.002,97.998,3.008,360.996-25.996,500
			c-35,172.002-79.004,312.997-135,432.001c-10.996,23.994-20,45-20,47.002c0,5.996-89.004,160.996-114.004,198.994
			c-13.994,21.001-15,27.002-5,27.002c25,0,217.002-202.002,291.006-305c85.996-120,147.998-212.002,147.998-219.004
			c0-2.997,29.004-53.993,64.004-112.997c78.994-133.994,86.992-150,91.992-175.996c2.002-12.002,7.002-42.002,12.002-67.002
			c4.004-25,5-55.996,1.006-70c-4.004-14.004-7.002-57.998-8.008-97.998c-0.996-51.006-7.998-89.004-22.998-125
			c-33.994-82.998-47.998-87.998-27.002-11.006c11.006,38.008,20,92.002,20,119.004c2.002,67.998-11.992,224.004-20,229.004
			c-2.998,1.992-5.996-64.004-5.996-147.002c0-141.006-2.002-157.002-27.002-217.002c-13.994-35.996-28.994-74.004-32.002-85
			c-2.998-10.996-27.998-42.998-55-70.996c-56.992-61.006-120-86.006-195.996-80c-64.004,5-62.998,5-44.004,18.994
			c8.008,7.002,24.004,25,35,42.002c15,22.998,10,20.996-23.994-14.004c-32.002-30.996-49.004-40.996-65-37.998
			c-12.002,2.998-49.004,11.006-82.998,17.002c-87.002,17.002-94.004,22.998-57.002,54.004c42.002,35.996,82.002,145.996,90.996,255
			c12.998,151.992,7.002,397.998-12.002,495.996c-16.992,89.003-80.996,290.995-97.998,309.999c-3.994,5,2.998-24.004,17.002-65
			c65-189.999,85.996-320.995,85.996-534.999c-0.996-259.004-30.996-395-103.994-464.004l-26.006-22.998l-80.996,17.998
			c-74.004,17.002-80.996,20-74.004,39.004c13.008,39.004,16.006,115,5,115c-5.996,0-10.996-20-10.996-47.998
			c0-80-7.002-82.998-134.004-57.998c-73.994,15.996-110.996,27.998-117.998,38.994c-5.996,12.002-20.996,17.002-45.996,16.006
			l-37.002-1.006l30-8.994c17.002-4.004,35-18.008,40-31.006c7.998-17.998,27.998-27.002,100-43.994c50-12.002,90-23.008,90-24.004
			s17.998-2.998,40-5c20.996-2.998,62.998-12.002,92.998-20.996c64.004-21.006,85-53.008,55-87.002
			c-15.996-17.998-25.996-19.004-102.998-12.998c-94.004,6.992-212.998,20.996-275,31.992c-22.002,4.004-37.002,4.004-32.998,0
			c2.998-3.994,20.996-10,40-11.992c17.998-3.008,55-12.002,82.002-20c25.996-8.008,86.992-21.006,133.994-27.002l85-12.998
			l2.002-34.004c0.996-19.004,5.996-45,12.998-55.996c6.006-12.002,7.998-24.004,5-28.008
			c-12.002-10.996-87.998-5.996-193.994,13.008c-172.002,32.998-178.008,32.998-149.004,20c14.004-6.006,32.002-12.002,40-14.004
			s42.002-12.002,75-22.998c79.004-27.002,137.998-32.998,202.998-22.998c29.004,3.994,55,3.994,57.998,0
			c3.008-5,0-9.004-5.996-9.004s-7.998-5-5-10c9.004-15,45.996,7.998,52.002,30.996c7.998,27.002,27.002,18.008,30.996-13.994
			c5-42.002-32.998-86.006-105-119.004c-72.002-33.994-67.998-33.994-385.996-22.998c-141.006,5-242.002,4.004-315-4.004
			c-121.006-13.994-174.004-5.996-252.001,36.006c-72.002,37.998-105,98.994-75.996,137.998c15,20,15,20,15.996-2.002
			c0-23.994,32.998-47.998,52.998-38.994c9.004,2.998,7.998,5-0.996,5c-7.002,0.996-11.006,5-7.998,10
			c3.994,5,22.998,5,45.996-1.006c45.996-12.002,157.998,1.006,235,27.998c25.996,8.008,57.002,17.002,67.998,20
			c11.006,2.002,25,9.004,31.006,15c7.998,9.004,5,10-14.004,5c-67.998-17.998-250-45.996-285-43.994
			c-34.003,2.998-39.003,5.996-37.001,22.998c2.002,10.996,6.006,39.004,9.004,62.998c5,42.002,5,42.002,47.001,42.002
			c21.992,0,67.998,7.002,100.996,15.996c32.998,8.008,85.996,21.006,117.998,28.008c32.998,7.998,64.004,18.994,70,25.996
			c9.004,7.998,5,9.004-17.998,0c-29.004-10.996-267.998-40-330.996-40c-46.006,0-68.008,20-60,55.996
			c5.996,26.006,13.994,32.002,68.994,48.008c34.003,10.996,77.998,21.992,97.001,26.992c190.996,40,195,41.006,222.002,71.006
			c15.996,15.996,32.002,27.002,37.002,22.998c5-2.998,11.992-2.002,15,2.998c1.992,4.004-10,9.004-29.004,10
			c-22.998,2.002-37.998-2.998-47.002-15.996c-8.994-12.998-35.996-22.998-82.998-31.006
			c-37.998-6.992-125.996-25.996-194.004-41.992c-123.994-29.004-125.996-29.004-150-11.006
			c-37.998,27.998-77.998,117.002-92.998,207.002c-7.998,49.004-12.998,155.996-12.998,275
			c0.996,217.002,15.996,312.002,79.004,500.995c38.994,119.004,28.994,118.008-14.004-0.996
			c-59.004-160.995-70.996-237.001-77.002-459.999c-2.998-112.998,0-239.004,5-280.996
			c12.998-103.008,47.002-192.002,89.004-233.008l33.994-32.998L5415,11822c-97.002-24.004-124.004-19.004-162.998,25.996
			c-19.004,21.006-21.006,22.002-12.998,5c5.996-12.002,20-27.998,31.992-35.996c28.008-20,16.006-24.004-60.996-22.002
			c-115,2.002-195.996,64.004-242.998,184.004c-47.998,121.992-52.002,142.998-51.006,285.996c0,160-12.998,137.002-20.996-35
			c-4.004-90.996-0.996-115,19.004-182.998c27.998-89.004,20.996-92.998-20-10c-28.008,57.002-32.002,85.996-37.002,262.998
			c-2.998,100,27.002,177.998,135.996,347.002c15,23.994,27.002,45,27.002,47.998c0,9.004,90.996,145.995,160.996,242.997
			c73.008,100,281.006,311.001,287.002,292.002c2.002-5-13.994-37.998-35.996-72.998c-47.998-76.001-115-207.002-106.006-207.002
			c4.004,0,0-7.998-7.998-17.002c-30.996-35.996-82.998-197.998-123.994-387.997c-23.008-102.002-27.002-152.002-32.002-332.998
			c-2.002-117.998-1.006-217.002,3.994-222.002s9.004,74.004,10,182.998c0,162.002,4.004,207.998,23.008,297.002
			c50,225.996,105,410.995,145,484.999c8.994,17.002,15.996,34.004,15.996,37.998c0,12.998,107.998,206.001,147.998,265
			c27.002,39.004,52.998,63.003,99.004,89.004c70.996,38.999,93.994,40,65,2.998c-19.004-26.001-67.998-113.999-90-162.002
			c-20-47.998-4.004-30,23.994,25c14.004,28.003,47.001,83.003,72.001,122.002c44.004,65,50,70,107.002,87.002
			c32.998,10,74.004,18.999,92.002,20c32.002,0.996,35.996,16.997,5,18.999c-11.006,1.001-7.998,3.999,7.998,8.999
			c22.998,7.002,22.002,7.998-10,7.998C5860.995,13477.995,5824.999,13470.998,5799.999,13460.998z M5839.999,13449.997
			c-34.004-11.001-60-11.001-35,0c10.996,5,29.004,7.998,40,7.998C5860.995,13457.995,5859.999,13455.998,5839.999,13449.997z
			 M6322.997,13452.995c-7.002-1.997-18.994-1.997-25,0c-7.002,3.003-2.002,5,12.002,5S6329.003,13455.998,6322.997,13452.995z
			 M6679.999,13238.996c0-6.001-4.004-6.997-10-3.999c-5,2.998-10,11.001-10,16.001c0,6.001,5,6.997,10,3.999
			C6675.995,13251.999,6679.999,13243.996,6679.999,13238.996z M6567.001,11632.996c-2.998-10-5-2.002-5,17.002
			s2.002,27.002,5,17.998C6569.003,11657.996,6569.003,11642,6567.001,11632.996z M5587.001,11617.996
			c-2.998-7.998-6.006-5-6.006,6.006c-0.996,10.996,2.002,16.992,5,12.998C5589.003,11634.002,5590,11624.998,5587.001,11617.996z
			 M5667.997,11367.996c47.998-10,51.006-12.998,37.002-27.998c-7.998-9.004-15-19.004-15-22.998
			c0-4.004-22.002-44.004-47.998-89.004c-150-257.002-247.998-530.996-281.005-787.998c-15.996-120-22.998-320.996-12.998-370
			c7.002-37.002,9.004-24.004,11.006,77.998c1.992,167.998,20,292.998,72.998,492.002c20,75,80,257.002,97.002,295
			c5,10.996,25.996,57.998,46.992,105c35,80,106.005,219.004,145,285c15,24.004,25,29.004,58.008,30
			c38.994,0.996,40,0.996,33.994-29.004c-2.998-16.992-25.996-73.994-50-125.996c-55.996-117.998-88.994-204.004-113.994-295
			c-28.007-100-18.007-115,13.994-20c31.006,94.004,90,239.004,151.006,370c23.994,52.002,40.996,97.002,37.998,100.996
			c-4.004,4.004-2.002,4.004,5,0c5.996-2.998,13.994-1.992,17.998,4.004c7.002,10.996,292.002,14.004,367.998,4.004l47.002-7.002
			l44.004-91.006c62.998-127.998,138.994-315,170.996-420.996c30.996-104.004,54.004-165,54.004-147.998
			c0.996,5.996-8.008,40-19.004,75c-10.996,33.994-20,70-20,80c0,30.996-57.998,193.994-110,307.998
			c-29.004,62.998-57.998,132.998-64.004,155l-12.998,40.996l44.004-0.996c40,0,43.994-2.998,63.994-40
			c12.002-22.002,41.006-75.996,64.004-120.996c100-187.002,197.002-447.002,240.996-649.004c34.004-152.002,45-229.004,53.008-380
			l7.998-130l0.996,135c2.998,277.998-37.998,485-152.998,770c-42.002,102.998-102.002,222.998-164.004,327.998
			c-16.992,29.004-30.996,57.002-30.996,62.002c0,5.996-4.004,10-10,10c-5,0-10,4.004-10,9.004s25.996,15,57.998,20.996
			c31.006,5.996,67.998,12.998,80,15.996c29.004,6.006,97.998-60.996,219.004-211.992c175.996-219.004,305-447.002,385-679.004
			c30-85.996,35-365,7.002-365c-5,0-9.004,14.004-9.004,30c0,35.996-57.998,277.998-70.996,300c-8.008,12.002-9.004,10.996-5-5
			c2.998-10.996,16.992-85,31.992-165c35-192.998,31.006-264.004-17.998-340c-45.996-70.996-92.998-115-142.002-130
			c-43.994-14.004-140.996-9.004-220,10.996c-38.994,10-45.996,14.004-35,23.008c17.002,11.992,49.004,56.992,49.004,66.992
			c0,4.004-15-7.998-34.004-26.992c-18.994-19.004-40.996-34.004-48.994-34.004c-19.004,0-70,19.004-77.002,27.998
			c-2.998,4.004-19.004,17.998-35,32.002c-25.996,22.002-27.998,22.002-10.996,2.998c10.996-12.998,15-22.998,10-22.998
			s-60,25-122.002,55.996c-100,50-111.006,58.008-95,69.004c37.002,25.996,65.996,104.004,68.994,184.004l3.008,75.996
			l-14.004-75.996c-17.002-100-37.998-139.004-92.998-173.008c-6.006-3.994-46.006,10-89.004,31.006
			c-70,33.994-85.996,37.998-157.998,37.998c-69.004,0-89.004-4.004-145-30.996c-95-46.006-94.004-46.006-129.004-12.002
			c-33.994,32.998-60.996,108.994-60.996,170c0,22.002-5,37.998-10.996,37.998c-18.008,0-3.008-112.998,20.996-167.998
			c12.002-26.006,30-56.006,40.996-67.998l20-21.006l-112.998-57.002c-62.002-30.996-117.001-55.996-122.001-55.996
			s1.006,12.002,15,27.998c13.008,15,6.006,10-15.996-10c-39.004-35.996-80.996-57.998-112.002-57.998
			c-7.998,0-27.998,14.004-43.994,30.996c-16.006,18.008-32.002,29.004-35,27.002c-2.002-2.998,8.994-20,25.996-37.998
			s29.004-34.004,27.002-37.002c-2.002-2.002-35-10-72.998-17.998c-139.004-29.004-205-15.996-276.006,55.996
			c-105.996,108.008-115.996,220-47.002,528.008c5,23.994,8.008,45,6.006,46.992C5040.996,10462,5000,10307,4980,10204.998
			c-17.002-89.004-17.002-90-25.996-50c-15,70-9.004,247.002,10.996,310.996c50,164.004,150.996,368.008,265.996,538.008
			c70,103.994,214.004,281.992,283.008,348.994C5557.001,11394.002,5547.001,11392.996,5667.997,11367.996z M6332.997,9977.996
			l247.002-122.998l-2.002-35c-2.998-30.996-7.002-35-47.998-47.998c-57.002-17.002-227.002-10-290,12.002
			c-59.004,20-65,11.992-7.002-13.008c64.004-26.992,157.998-45,212.002-38.994c25,2.998,45,3.994,45,0.996
			c0-2.002-7.002-13.994-15-27.002c-17.998-26.992-37.998-133.994-27.998-150c3.994-5,12.002,23.008,18.994,63.008
			c7.002,42.998,20,80.996,30,90c16.006,15,16.006,15,10-4.004c-30-82.002-36.992-112.002-33.994-137.002
			c5-27.998,3.994-27.998-40-22.998c-24.004,2.998-76.006,19.004-114.004,35.996c-38.994,17.002-107.998,38.008-152.998,46.006
			c-75,13.994-92.002,13.994-175,0c-50.996-9.004-110-25-132.002-37.002c-20.996-10.996-70-29.004-108.994-39.004l-69.004-20v42.002
			c-0.996,22.998-9.004,66.006-19.004,95c-10,27.998-15,52.002-10.996,52.002c9.004,0,34.004-67.002,49.004-130l10-45l-3.008,60
			c-1.992,37.002-11.992,75-23.994,97.002l-21.006,35.996l59.004-5c69.004-7.002,130.996,7.002,217.998,47.998
			c71.006,33.008,85,48.008,17.998,19.004c-86.992-37.002-232.998-50.996-320-30.996c-46.992,10.996-53.994,17.998-57.998,55
			C5575,9852,5580,9854.998,5819.999,9975.994c135,68.008,250,123.008,255,124.004
			C6080.995,10099.998,6195.995,10044.998,6332.997,9977.996z M6159.999,9612.996c19.004-2.998,40-7.002,45-8.994
			c5.996-2.002,19.004-5,30-8.008c10.996-2.998,57.998-20.996,104.004-41.992c45.996-20,100.996-37.002,121.992-38.008
			c45-0.996,50-15.996,14.004-43.994c-57.002-45-179.004-52.998-260-16.006c-40.996,18.008-47.998,21.006-65.996,23.008
			c-5,0-7.002,5.996-4.004,10.996c4.004,5.996-22.002,10-70,10c-42.002,0-74.004-4.004-70.996-9.004
			c5-7.998-42.002-27.998-126.006-53.994c-52.998-16.006-162.002,3.994-193.994,33.994c-33.008,31.006-30,44.004,12.998,47.002
			c20,1.006,73.994,17.998,120,37.998c87.002,37.002,240,74.004,282.998,68.008C6114.003,9622,6140.995,9617,6159.999,9612.996z
			 M6107.001,9464.002c12.998-4.004,20-11.006,15.996-17.002c-2.998-5-0.996-7.002,4.004-4.004
			c5.996,4.004,27.002,1.006,47.002-5.996c40-14.004,40.996-15,110-237.002c41.992-130.996,41.992-150,6.992-294.004
			c-16.992-70.996-28.994-130.996-26.992-132.998c6.992-7.998,65.996,252.002,65.996,294.004c0,45.996-55,273.994-75.996,315.996
			c-8.008,15-12.002,27.002-10,27.002c2.998,0,18.994-27.998,35.996-62.002c34.004-67.998,57.002-140.996,70.996-227.998
			c15-87.002,19.004-82.002,16.006,20c-2.998,85-7.002,102.998-40,172.998l-36.006,77.002h32.002
			c37.998,0,67.998-24.004,125-102.002c47.002-63.994,85-142.998,100-203.994c15-67.002,14.004-197.002-2.998-269.004
			c-40-175.996-100-280.996-355.996-622.998l-33.008-44.004l-12.998,26.006c-7.998,13.994-17.998,25.996-22.998,25.996
			c-14.004,0-40-55.996-45-92.998c-2.002-17.998-7.002-42.002-10-52.998c-7.002-21.006-7.002-21.006-34.004,6.992
			c-15.996,16.006-30.996,25-35,21.006c-3.994-4.004-5.996-2.002-3.994,5c2.002,5.996-6.006,18.994-17.002,27.998
			s-14.004,12.998-5.996,9.004c7.998-4.004-3.008,10.996-25,31.992c-69.004,70-224.004,303.008-224.004,337.002
			c0,7.002-9.004,29.004-20,50c-10.996,20-17.998,37.002-15,37.002s-0.996,10-9.004,22.998
			c-13.994,22.002-52.998,152.998-72.998,252.002c-15,70.996-15,110,1.006,202.002c16.992,95.996,55,173.994,131.992,267.002
			c48.008,57.998,59.004,65.996,89.004,65.996c19.004,0,35-2.002,35-5s-9.004-22.998-20-45c-47.998-94.004-64.004-175-50-260
			l7.002-45l2.998,52.998c0.996,27.998,2.998,55,4.004,60c15.996,60,33.994,111.006,63.994,180
			c34.004,77.998,37.998,82.998,76.006,94.004c22.998,5.996,45.996,15.996,52.998,20.996s17.998,5,23.994,1.006
			c7.002-4.004,9.004-3.008,5,3.994c-5,9.004,10,16.006,49.004,21.006C6080.995,9469.002,6094.999,9467,6107.001,9464.002z"/>
		<path d="M6549.999,11362.996c0-2.998,10.996-20.996,25.996-40c14.004-17.998,21.006-32.998,17.002-32.998
			c-3.994,0-2.998-4.004,2.998-7.998c6.006-4.004,43.008-59.004,82.002-122.002c114.004-185,125-194.004,21.006-17.002
			c-84.004,141.006-80,135-113.008,185C6557.997,11369.002,6549.999,11377,6549.999,11362.996z"/>
		<path d="M5612.001,10764.998c-21.006-75.996-22.002-100-2.002-45c10.996,30,19.004,62.002,17.002,70
			S5617.998,10787,5612.001,10764.998z"/>
		<path d="M5899.003,10199.002c45.996-22.002,85.996-37.002,88.994-34.004c2.998,2.002-12.002,12.002-33.994,20.996
			c-21.006,9.004-59.004,24.004-83.008,35C5792.997,10254.998,5812.997,10239.998,5899.003,10199.002z"/>
		<path d="M6240.995,10204.002c-17.998-8.008-30.996-17.002-27.998-20c5-6.006,67.002,22.998,67.002,30.996
			C6279.999,10220.994,6282.997,10222,6240.995,10204.002z"/>
		<path d="M6117.997,10149.002c-35-18.008-40-18.008-73.994-4.004c-50,20.996-55,19.004-16.006-5c17.998-10.996,37.998-20,45-20
			c15,0,97.002,37.998,97.002,45C6169.999,10174.002,6155.995,10169.002,6117.997,10149.002z"/>
		<path d="M5802.001,9009.998c0-14.004,2.002-19.004,5-12.002c2.002,6.006,2.002,17.998,0,25
			C5804.003,9029.002,5802.001,9024.002,5802.001,9009.998z"/>
		<path d="M5810.995,8964.002c0-11.006,3.008-14.004,6.006-6.006c2.998,7.002,2.002,16.006-1.006,19.004
			C5812.997,8980.994,5809.999,8974.998,5810.995,8964.002z"/>
		<path d="M5820.995,8904.002c6.006-21.006,13.008-41.006,16.006-44.004c8.994-9.004-9.004,65-17.998,74.004
			C5814.999,8939.002,5815.995,8925.994,5820.995,8904.002z"/>
		<path d="M5840.995,8842.996c-0.996-12.998,23.008-92.002,39.004-127.998c4.004-10.996,25-62.998,45-115
			c37.002-95,84.004-192.002,85-177.002c0,4.004-10.996,30-25,57.002s-25,54.004-25,60s-9.004,29.004-19.004,52.998
			c-17.998,39.004-65.996,162.998-88.994,232.002C5845.995,8842,5840.995,8849.998,5840.995,8842.996z"/>
		<path d="M6242.001,8707.996c-7.002-27.998-11.006-52.998-7.998-55c1.992-2.002,8.994,19.004,15.996,47.002s10,52.998,7.998,55
			C6254.999,8757.996,6247.997,8737,6242.001,8707.996z"/>
		<path d="M6142.001,8425.994c-17.998-35.996-32.002-67.998-32.002-72.998c0.996-3.994,15.996,22.998,35.996,61.006
			c19.004,37.998,33.008,70,31.006,71.992C6174.999,8487.996,6159.003,8460.994,6142.001,8425.994z"/>
		<path d="M6619.999,13034.997c0-5,5-17.002,10-25s10-10,10-5c0,5.996-5,17.002-10,25S6619.999,13040.998,6619.999,13034.997z"/>
		<path d="M5510.996,12999.001c-5.996-18.008-8.994-34.004-6.992-36.006c1.992-2.002,8.994,10,15,27.998
			c5.996,18.008,8.994,34.004,6.992,36.006C5524.003,13028.996,5517.001,13016.999,5510.996,12999.001z"/>
		<path d="M6639.999,12980.993c0-5.996,4.004-12.998,10-15.996s7.002,0.996,4.004,9.004
			C6647.001,12991.999,6639.999,12994.997,6639.999,12980.993z"/>
	</g>
</g>
</svg>
