<svg version="1.0" xmlns="http://www.w3.org/2000/svg"
 width="1200.000000pt" height="1600.000000pt" viewBox="0 0 1200.000000 1600.000000"
 preserveAspectRatio="xMidYMid meet">

<g transform="translate(0.000000,1600.000000) scale(0.100000,-0.100000)"
fill="#000000" stroke="none">
<path d="M5918 13502 c-36 -10 -88 -32 -115 -48 -65 -41 -77 -47 -164 -87 -78
-36 -124 -72 -284 -226 -238 -229 -398 -466 -481 -712 -25 -72 -29 -99 -29
-194 0 -105 2 -113 36 -185 45 -96 128 -186 211 -230 68 -36 113 -41 226 -21
31 6 73 13 92 16 19 3 68 14 108 24 59 16 72 17 72 5 0 -8 -7 -14 -15 -14 -22
0 -45 -63 -65 -179 -20 -112 -17 -137 23 -179 12 -13 34 -30 50 -38 15 -8 27
-19 27 -25 0 -6 -4 -8 -8 -5 -5 3 -20 7 -35 10 -22 4 -36 -7 -106 -87 -181
-208 -260 -315 -368 -502 -66 -114 -114 -233 -149 -370 -45 -173 -22 -360 61
-500 40 -68 97 -124 152 -150 68 -32 287 -1 390 56 27 15 33 16 22 5 -18 -20
-12 -97 21 -241 28 -121 74 -184 153 -211 25 -9 22 -21 -21 -73 -107 -131
-147 -232 -146 -376 1 -183 82 -428 203 -615 74 -115 251 -337 251 -315 0 5 6
0 14 -10 13 -18 14 -17 29 6 8 13 18 44 21 69 10 66 20 79 45 56 20 -18 21
-18 68 34 27 29 53 60 58 69 6 10 37 53 71 97 156 204 231 369 248 544 5 58
-10 182 -30 242 -20 61 -84 161 -142 221 -45 46 -46 47 -20 47 15 0 34 7 42
16 9 8 16 13 16 9 0 -3 9 -1 20 5 33 18 71 89 91 169 19 77 45 230 41 243 -1
4 21 -1 50 -13 114 -45 283 -62 348 -36 70 29 163 149 198 257 48 147 52 244
16 390 -44 176 -158 411 -286 592 -66 93 -230 288 -283 337 -30 27 -55 52 -55
54 0 3 14 19 30 37 17 18 33 43 36 57 12 45 -32 260 -58 288 -5 6 -14 10 -21
10 -6 0 -13 8 -15 17 -3 15 6 14 88 -7 50 -14 94 -24 98 -23 4 1 39 -4 77 -10
119 -21 164 -19 225 10 109 51 184 139 241 282 32 79 28 220 -10 332 -45 136
-132 308 -191 379 -10 11 -19 27 -22 35 -23 63 -457 500 -497 500 -4 0 -23 15
-42 34 -20 18 -56 40 -80 48 -87 30 -105 37 -169 64 -56 24 -80 28 -180 31
-86 2 -132 -2 -182 -15z"/>
</g>
</svg>
