<svg version="1.0" xmlns="http://www.w3.org/2000/svg"
 width="1200.000000pt" height="1600.000000pt" viewBox="0 0 1200.000000 1600.000000"
 preserveAspectRatio="xMidYMid meet">

<g transform="translate(0.000000,1600.000000) scale(0.100000,-0.100000)"
fill="#000000" stroke="none">
<path d="M6700 9550 c-8 -15 -5 -33 15 -81 40 -99 69 -140 158 -230 47 -46
108 -115 135 -152 48 -64 133 -223 152 -285 26 -80 37 -104 43 -88 4 9 4 24 1
34 -4 11 1 9 16 -8 33 -38 63 -76 80 -100 8 -13 20 -28 26 -34 5 -6 43 -60 82
-121 147 -223 283 -538 326 -751 20 -98 81 -504 96 -639 14 -119 14 -493 0
-602 -9 -70 -45 -285 -83 -503 -17 -91 -143 -550 -183 -665 -47 -131 -104
-340 -129 -469 -14 -71 -27 -132 -29 -135 -3 -4 -7 -27 -11 -51 -3 -25 -10
-63 -15 -85 -18 -81 -32 -333 -25 -460 13 -273 20 -314 76 -447 81 -194 106
-246 152 -306 120 -158 221 -343 287 -527 28 -75 24 -31 -4 51 -46 134 -154
334 -307 567 -21 32 -43 75 -50 95 -6 20 -17 44 -24 52 -13 15 -38 93 -38 120
0 8 -8 49 -19 90 -11 44 -21 130 -25 207 l-6 133 149 72 149 73 125 3 c151 5
272 -10 404 -49 54 -16 101 -29 103 -29 3 0 3 -7 -1 -15 -3 -8 -1 -15 4 -15 6
0 10 -6 10 -13 0 -9 16 -11 68 -6 159 14 359 -9 580 -66 133 -35 258 -84 277
-109 6 -7 31 -22 56 -33 112 -50 442 -328 570 -481 106 -128 266 -381 300
-474 7 -21 17 -38 21 -38 4 0 8 -8 8 -18 0 -10 4 -22 10 -28 5 -5 24 -54 41
-109 l31 -100 -1 -225 c-1 -145 -6 -254 -15 -305 -15 -82 -31 -135 -41 -135
-4 0 -3 5 0 10 4 6 -1 33 -10 61 -18 53 -31 64 -16 13 14 -50 -10 -165 -46
-221 -37 -56 -142 -174 -181 -202 -27 -19 -27 -19 11 61 47 99 45 122 -3 30
-19 -37 -38 -71 -42 -77 -69 -93 -76 -101 -123 -118 -51 -19 -221 -46 -289
-47 -31 0 -37 3 -32 16 5 14 4 15 -8 4 -9 -6 -58 -27 -110 -45 l-95 -33 17 26
c9 15 39 59 68 97 28 39 63 93 79 120 15 28 31 55 35 60 4 6 10 21 12 35 l3
25 150 3 c83 2 167 7 189 13 53 14 41 19 -19 8 -28 -5 -110 -8 -184 -7 -92 2
-135 -1 -138 -8 -2 -6 -16 -9 -31 -8 -15 2 -22 2 -15 -2 9 -4 4 -28 -18 -87
-38 -103 -80 -168 -148 -231 -19 -17 -52 -51 -75 -76 -93 -103 -262 -270 -286
-282 -14 -7 -27 -15 -30 -18 -3 -3 -18 -12 -35 -20 -16 -8 -33 -16 -37 -18 -5
-2 -8 4 -8 13 0 9 -5 13 -10 10 -6 -4 -7 -11 -4 -17 4 -7 2 -8 -4 -4 -7 4 -21
-8 -34 -29 -15 -22 -52 -53 -103 -83 -44 -26 -102 -61 -129 -79 -56 -38 -234
-125 -321 -157 -11 -4 -55 -21 -97 -37 -54 -19 -79 -25 -84 -17 -4 7 -3 8 4 4
7 -4 12 -2 12 3 0 17 -13 13 -41 -13 -43 -39 -345 -112 -694 -166 -236 -37
-1299 -64 -1336 -33 -8 6 -88 16 -184 23 -730 49 -1088 131 -1400 320 -95 57
-179 129 -201 172 -16 31 -14 80 5 131 6 16 11 39 11 53 0 23 1 23 18 6 37
-37 109 -90 151 -111 48 -24 66 -23 28 2 -41 26 -132 120 -155 158 -12 19 -30
43 -40 53 -19 16 -20 15 -25 -46 -8 -91 -30 -188 -43 -188 -61 0 -283 370
-349 581 -14 46 -34 107 -45 134 -86 228 -150 612 -150 904 0 334 145 1005
280 1298 11 24 20 46 20 49 0 8 135 315 161 367 11 21 22 55 25 75 3 20 9 42
13 47 14 17 69 188 95 291 34 138 62 295 81 459 9 77 20 160 25 185 12 56 5
843 -11 1195 -20 477 -15 584 42 929 35 207 46 238 148 441 93 183 206 356
317 485 12 14 50 59 85 100 l64 75 5 -30 5 -30 12 30 c14 36 52 153 58 177 15
66 152 265 252 368 40 41 73 80 73 86 0 6 6 17 14 23 16 14 56 86 56 101 0 21
-19 8 -41 -27 -13 -21 -65 -83 -117 -138 -103 -110 -223 -284 -265 -385 -15
-36 -46 -85 -68 -110 -59 -67 -196 -236 -216 -268 -9 -15 -49 -76 -88 -137
-87 -133 -133 -212 -214 -370 -53 -101 -70 -148 -107 -293 -54 -208 -71 -319
-79 -517 -6 -147 11 -578 37 -890 17 -217 14 -710 -6 -894 -39 -354 -110 -654
-221 -933 -5 -14 -11 -15 -25 -8 -25 13 -296 13 -440 -1 -239 -22 -541 -94
-729 -173 -170 -72 -239 -126 -395 -306 -80 -93 -78 -90 -138 -145 -70 -63
-159 -169 -219 -260 -114 -173 -205 -388 -224 -530 -3 -27 -13 -72 -21 -99 -8
-27 -14 -73 -14 -102 0 -117 57 -298 113 -357 17 -17 60 -75 95 -127 83 -122
92 -132 166 -210 117 -122 211 -195 349 -269 151 -81 282 -122 477 -150 97
-14 380 -32 492 -32 122 1 175 -11 208 -45 15 -16 49 -78 76 -139 87 -197 208
-396 266 -436 18 -12 76 -64 128 -116 114 -112 140 -130 284 -199 209 -101
568 -189 906 -224 58 -6 148 -17 200 -25 381 -56 1042 -68 1475 -26 55 6 156
15 225 21 226 21 581 96 820 174 106 34 183 68 295 128 160 87 205 115 270
163 39 28 106 71 150 95 44 24 98 57 120 74 22 17 51 40 65 50 14 11 77 72
140 136 76 77 129 122 155 132 22 9 108 24 190 33 180 21 336 63 420 114 78
47 192 155 257 245 29 39 56 73 60 76 9 7 46 93 64 150 8 25 22 148 31 273 14
191 15 243 4 315 -15 109 -71 282 -125 392 -65 130 -225 365 -316 462 -92 99
-319 302 -400 358 -12 8 -44 31 -70 50 -27 19 -56 41 -67 47 -17 12 -15 15 27
50 25 20 79 72 121 115 63 64 90 102 150 214 87 162 113 223 138 324 26 102
42 299 31 380 -54 398 -140 602 -331 786 -108 103 -249 199 -318 217 -34 8
-68 -8 -86 -42 -17 -33 -21 -142 -6 -170 22 -41 40 -255 30 -367 -28 -325 -78
-433 -274 -587 -33 -26 -66 -52 -72 -58 -38 -30 -248 -127 -288 -133 -26 -4
-65 -14 -88 -22 -34 -12 -93 -14 -337 -9 -162 3 -364 5 -447 5 -120 -1 -153 2
-153 12 0 9 -3 9 -10 -2 -7 -11 -8 -5 -4 20 10 62 44 194 64 246 10 28 46 152
80 275 34 123 74 269 90 324 105 359 146 519 181 705 22 116 24 149 24 460 -1
291 -4 359 -24 520 -13 102 -24 200 -23 219 1 19 -15 96 -35 170 -19 75 -37
151 -40 170 -9 76 -94 283 -196 481 -50 96 -234 380 -282 435 -74 84 -95 111
-95 123 0 8 -19 46 -42 85 -78 134 -160 244 -270 359 -75 80 -118 151 -138
226 -12 46 -24 53 -40 22z m2480 -3499 c0 -5 53 -42 118 -82 123 -76 246 -187
296 -267 179 -285 232 -618 159 -1007 -35 -192 -186 -426 -375 -582 -43 -36
-75 -69 -72 -75 3 -5 -23 5 -58 23 -72 37 -223 90 -336 118 -107 27 -213 41
-377 47 -125 6 -146 9 -200 34 -100 47 -254 90 -363 102 -166 19 -293 -7 -477
-98 l-90 -45 -3 53 c-4 53 14 282 25 326 7 31 36 41 163 58 129 17 222 17 320
0 105 -19 422 -7 555 20 184 38 472 235 577 395 113 172 161 572 97 819 -16
65 -14 128 6 150 19 21 35 26 35 11z m-5161 -1617 c4 -3 -22 -67 -71 -174 -12
-25 -32 -71 -44 -102 -13 -32 -36 -86 -50 -120 -48 -116 -114 -312 -139 -408
-13 -53 -32 -114 -41 -135 -21 -50 -60 -237 -81 -380 -19 -136 -26 -550 -12
-695 13 -132 57 -390 74 -432 8 -21 -10 -23 -65 -9 -19 5 -55 12 -80 15 -40 4
-114 17 -175 30 -95 21 -354 98 -532 160 -62 21 -71 22 -66 8 5 -14 3 -14 -15
2 -28 24 -29 5 -3 -38 10 -17 21 -51 25 -75 7 -45 58 -161 96 -218 l21 -31
-23 5 c-75 16 -122 35 -243 94 -104 51 -116 62 -233 218 -71 95 -98 143 -122
221 -17 52 -40 79 -40 46 0 -53 124 -258 213 -354 58 -62 50 -60 -38 9 -77 61
-179 167 -239 249 -44 60 -176 274 -176 285 0 3 30 -20 68 -50 69 -56 95 -70
65 -35 -10 11 -23 20 -30 20 -7 0 -13 5 -13 10 0 6 -8 14 -17 17 -9 4 -24 14
-33 22 -10 9 -32 29 -50 46 -52 47 -64 86 -62 200 2 108 10 159 47 305 9 36
23 79 31 97 7 17 14 37 14 45 0 22 63 139 122 228 109 163 307 388 329 375 6
-4 13 2 16 14 3 11 9 18 14 15 5 -3 6 3 2 12 -5 13 -3 15 7 9 9 -5 11 -4 6 4
-12 19 118 176 188 226 109 78 393 194 439 179 12 -4 17 -2 13 4 -6 9 29 19
104 28 19 3 51 9 70 14 19 5 49 11 65 14 17 2 75 11 130 20 55 9 123 17 150
18 68 4 379 -2 384 -8z m-1195 -2274 c83 -40 299 -105 473 -141 l61 -13 12
-45 c6 -25 20 -77 30 -116 10 -38 18 -71 16 -72 -2 -2 -97 1 -211 6 -157 8
-213 14 -231 26 -13 8 -33 15 -44 15 -40 0 -56 19 -113 137 -42 86 -60 135
-64 176 -3 31 -3 57 1 57 4 0 35 -14 70 -30z m676 -186 c73 -18 104 -24 139
-28 13 -2 27 -9 31 -17 13 -25 52 -181 46 -186 -3 -3 -27 0 -53 7 -26 6 -81
11 -121 11 -40 -1 -81 3 -91 8 -21 12 -60 177 -52 223 1 7 6 6 101 -18z"/>
<path d="M2415 3869 c-4 -6 -5 -12 -2 -15 2 -3 7 2 10 11 7 17 1 20 -8 4z"/>
<path d="M2451 3857 c-1 -10 -5 -16 -10 -12 -5 3 -12 -4 -16 -15 -3 -11 -11
-20 -16 -20 -5 0 -9 -6 -9 -12 0 -7 14 1 31 19 17 17 29 37 26 44 -4 10 -6 8
-6 -4z"/>
<path d="M3382 3474 c10 -10 20 -16 22 -13 3 3 -5 11 -17 18 -21 13 -21 12 -5
-5z"/>
<path d="M3330 3476 c0 -2 8 -10 18 -17 15 -13 16 -12 3 4 -13 16 -21 21 -21
13z"/>
<path d="M3535 3420 c10 -11 20 -20 23 -20 3 0 -3 9 -13 20 -10 11 -20 20 -23
20 -3 0 3 -9 13 -20z"/>
<path d="M3512 3396 c7 -8 15 -12 17 -11 5 6 -10 25 -20 25 -5 0 -4 -6 3 -14z"/>
<path d="M3570 3381 c0 -6 4 -13 10 -16 6 -3 7 1 4 9 -7 18 -14 21 -14 7z"/>
<path d="M2323 2356 c55 -37 77 -48 77 -37 0 5 -10 13 -22 17 -13 4 -34 15
-47 25 -13 11 -28 19 -34 19 -5 0 6 -11 26 -24z"/>
<path d="M2430 2295 c14 -8 30 -14 35 -14 6 0 -1 6 -15 14 -14 8 -29 14 -35
14 -5 0 1 -6 15 -14z"/>
<path d="M2510 2255 c14 -8 30 -14 35 -14 6 0 -1 6 -15 14 -14 8 -29 14 -35
14 -5 0 1 -6 15 -14z"/>
<path d="M5584 9092 c-25 -4 -114 -83 -114 -102 0 -8 16 1 38 21 72 67 74 67
41 -9 -22 -49 -36 -69 -45 -65 -18 6 -17 2 0 -32 l14 -27 17 36 c10 20 21 36
25 36 5 0 20 24 35 53 29 60 25 94 -11 89z"/>
<path d="M6544 9073 c-8 -30 13 -77 54 -124 16 -19 32 -43 34 -54 4 -18 6 -18
15 5 6 14 18 32 27 39 27 23 18 53 -32 101 -61 59 -90 68 -98 33z m99 -58 c42
-38 46 -68 9 -73 -16 -3 -25 4 -32 25 -6 15 -20 45 -31 66 -17 34 -17 37 -2
28 10 -6 35 -26 56 -46z"/>
<path d="M5395 8877 c-16 -13 -15 -14 12 -10 19 3 41 -2 57 -12 15 -10 29 -15
32 -12 5 5 -66 47 -79 47 -2 0 -11 -6 -22 -13z"/>
<path d="M6701 8874 c-19 -8 -31 -17 -28 -20 3 -3 14 -1 25 5 12 6 33 11 49
11 22 0 25 2 13 10 -19 12 -18 12 -59 -6z"/>
<path d="M5336 8804 c-41 -53 -50 -92 -11 -46 14 17 25 33 25 38 0 4 7 16 17
26 9 10 14 21 11 24 -4 3 -22 -16 -42 -42z"/>
<path d="M6779 8832 c5 -9 24 -35 41 -57 26 -32 31 -35 25 -15 -9 29 -44 76
-63 84 -9 4 -10 1 -3 -12z"/>
<path d="M5266 8695 c-9 -13 -16 -27 -16 -29 0 -3 -14 -29 -31 -58 -31 -51
-81 -145 -147 -273 -41 -80 -162 -335 -162 -341 0 -3 -10 -29 -23 -57 -56
-125 -120 -298 -156 -422 -28 -95 -61 -240 -61 -266 0 -28 13 5 30 73 19 76
80 281 85 286 2 2 32 10 66 18 59 14 318 22 337 11 4 -3 34 -8 67 -12 33 -3
83 -11 110 -16 115 -23 265 -45 258 -38 -14 14 -335 69 -464 80 -70 6 -178 9
-241 7 l-115 -3 19 55 c10 30 25 69 33 87 8 17 15 34 15 38 0 7 46 114 92 215
86 185 100 210 116 211 35 1 97 10 101 15 2 2 -21 4 -52 4 l-57 0 66 128 c36
70 70 132 74 137 8 10 90 167 90 172 0 12 -21 -1 -34 -22z"/>
<path d="M6811 8694 c-78 -41 -121 -74 -121 -91 0 -9 -6 -24 -13 -32 -8 -9
-25 -52 -39 -96 -23 -70 -68 -159 -140 -273 -40 -64 -11 -41 39 31 66 94 100
163 117 234 25 109 50 148 116 187 78 46 90 47 109 11 9 -16 39 -71 68 -122
28 -50 49 -93 47 -96 -3 -2 16 -44 41 -93 26 -49 58 -122 71 -163 33 -102 98
-363 123 -496 21 -112 54 -366 47 -372 -1 -2 -32 8 -68 21 -154 58 -365 101
-588 120 -51 4 -42 1 40 -13 58 -11 121 -22 140 -25 145 -23 369 -79 380 -95
3 -4 26 -15 53 -25 l47 -18 0 -173 c0 -191 -14 -298 -75 -561 -19 -84 -35
-154 -35 -157 0 -2 -30 7 -67 20 -107 38 -260 81 -311 87 -42 5 -39 3 23 -14
39 -12 77 -22 85 -25 42 -11 237 -90 249 -101 2 -2 -7 -34 -22 -71 -71 -186
-130 -369 -167 -518 -10 -38 -28 -106 -40 -150 -12 -44 -32 -127 -44 -185
l-22 -105 -49 -12 c-39 -10 -68 -10 -149 2 -151 20 -269 35 -285 35 -24 0 -3
-13 26 -16 74 -8 122 -15 168 -24 86 -17 108 -20 182 -26 39 -4 76 -10 82 -13
7 -5 6 -24 -4 -61 -19 -68 -123 -653 -131 -736 -6 -53 -10 -63 -35 -78 -56
-33 -153 -56 -287 -67 -398 -34 -965 47 -1407 200 -180 62 -380 145 -401 165
-11 12 -37 36 -57 53 -31 27 -36 37 -32 60 5 23 4 25 -5 10 -12 -19 -54 -227
-47 -234 6 -5 27 88 27 117 0 25 8 25 40 0 14 -11 30 -20 36 -20 7 0 61 -23
120 -51 140 -65 127 -60 324 -129 55 -20 269 -79 320 -89 30 -6 66 -13 80 -16
14 -3 39 -8 55 -10 17 -3 62 -12 100 -20 76 -15 102 -19 245 -35 308 -35 706
-26 877 20 31 8 32 7 27 -18 -21 -116 -33 -377 -32 -722 l1 -385 -80 -36 c-92
-43 -196 -62 -438 -80 -541 -40 -1210 78 -1575 279 -165 91 -256 163 -295 236
-33 61 -42 67 -50 34 -27 -118 -45 -211 -44 -225 0 -10 9 20 20 67 10 47 21
91 24 98 3 9 29 -8 77 -53 249 -230 623 -369 1213 -450 273 -37 798 -6 1078
63 l77 19 0 -37 c0 -75 13 -190 22 -190 5 0 7 15 4 33 -6 32 -10 123 -22 452
-5 156 5 459 22 620 7 75 35 317 39 345 2 14 6 52 10 85 19 185 135 766 220
1105 62 245 180 635 218 720 11 25 21 47 22 50 0 3 8 28 17 55 10 28 28 102
42 165 13 63 30 140 37 170 17 73 23 520 9 675 -24 272 -93 593 -166 772 -20
49 -52 126 -71 173 -19 47 -38 89 -42 95 -5 5 -29 48 -54 95 -92 172 -78 160
-146 124z"/>
<path d="M7170 8704 c0 -10 5 -26 10 -34 8 -11 9 -7 4 15 -8 37 -14 45 -14 19z"/>
<path d="M5366 8665 c70 -40 73 -42 109 -110 20 -38 25 -43 20 -20 -4 17 -12
37 -20 45 -7 8 -15 23 -16 33 -2 10 -32 33 -67 53 -83 45 -105 44 -26 -1z"/>
<path d="M4991 8664 c0 -11 3 -14 6 -6 3 7 2 16 -1 19 -3 4 -6 -2 -5 -13z"/>
<path d="M5500 8484 c-1 -50 74 -208 120 -254 10 -10 26 -30 36 -45 9 -14 19
-23 22 -20 3 3 -2 13 -10 22 -29 34 -121 198 -144 258 -13 33 -23 51 -24 39z"/>
<path d="M6888 8233 c6 -2 18 -2 25 0 6 3 1 5 -13 5 -14 0 -19 -2 -12 -5z"/>
<path d="M6838 8223 c6 -2 18 -2 25 0 6 3 1 5 -13 5 -14 0 -19 -2 -12 -5z"/>
<path d="M6798 8213 c7 -3 16 -2 19 1 4 3 -2 6 -13 5 -11 0 -14 -3 -6 -6z"/>
<path d="M5434 8192 c3 -5 17 -13 31 -16 99 -25 278 -144 281 -187 3 -37 145
-221 160 -207 4 5 -2 16 -12 25 -11 10 -35 38 -54 63 l-34 45 45 -41 c51 -46
77 -62 123 -75 l31 -9 -25 20 c-14 11 -29 20 -33 20 -4 0 -13 4 -20 10 -63 50
-94 81 -134 136 -26 35 -50 64 -54 64 -4 0 -11 9 -14 21 -4 11 -12 18 -19 16
-7 -3 -36 13 -65 35 -28 22 -62 41 -74 42 -12 2 -38 10 -57 19 -55 23 -83 30
-76 19z"/>
<path d="M6620 8164 c-69 -23 -99 -37 -94 -45 4 -6 10 -6 18 0 7 6 16 8 19 4
4 -3 7 -1 7 5 0 7 6 12 13 12 15 1 76 28 62 28 -5 0 -17 -2 -25 -4z"/>
<path d="M5680 8126 c0 -8 4 -17 9 -20 5 -4 7 3 4 14 -6 23 -13 26 -13 6z"/>
<path d="M6492 8103 c-6 -2 -10 -9 -7 -13 7 -11 35 -2 35 11 0 10 -8 10 -28 2z"/>
<path d="M5780 8087 c0 -18 125 -92 197 -116 78 -26 124 -26 198 -1 65 22 176
82 194 104 22 26 -5 26 -40 0 -19 -14 -67 -41 -107 -60 -60 -29 -84 -35 -142
-36 -60 0 -80 5 -147 36 -43 21 -92 48 -110 62 -36 27 -43 29 -43 11z"/>
<path d="M6436 8073 c-4 -13 -11 -23 -16 -23 -4 0 -22 -22 -40 -50 -35 -55
-148 -165 -179 -175 -12 -3 -21 -11 -21 -16 0 -18 30 -8 75 26 63 49 42 12
-29 -49 -30 -25 -78 -62 -106 -81 -29 -19 -46 -35 -39 -35 8 0 5 -6 -7 -16
-18 -14 -18 -15 4 -4 12 6 22 14 22 18 0 4 8 12 18 17 74 40 125 78 174 129
57 58 125 162 113 174 -3 3 14 26 37 50 24 25 35 42 26 39 -9 -3 -19 -1 -21 6
-2 7 -7 2 -11 -10z"/>
<path d="M5682 7556 c9 -11 118 -35 118 -26 0 4 -21 11 -46 15 -26 3 -54 9
-63 12 -9 4 -13 3 -9 -1z"/>
<path d="M5818 7523 c7 -3 16 -2 19 1 4 3 -2 6 -13 5 -11 0 -14 -3 -6 -6z"/>
<path d="M5965 7510 c22 -4 49 -4 60 1 13 5 0 8 -40 7 -56 0 -58 -1 -20 -8z"/>
<path d="M6052 7505 c8 -8 77 -9 85 -2 3 4 -15 7 -42 7 -27 0 -46 -2 -43 -5z"/>
<path d="M6151 7495 c8 -7 78 -9 85 -2 4 4 -14 7 -41 7 -27 0 -46 -2 -44 -5z"/>
<path d="M6498 7473 c6 -2 18 -2 25 0 6 3 1 5 -13 5 -14 0 -19 -2 -12 -5z"/>
<path d="M4637 6967 c-9 -72 -17 -181 -18 -242 -1 -88 -5 -112 -18 -123 -9 -7
-11 -11 -5 -8 20 10 27 -95 25 -388 -2 -449 -24 -734 -86 -1075 -14 -79 -23
-146 -21 -148 2 -3 9 22 16 54 6 32 18 81 26 109 7 29 19 87 25 130 5 44 12
90 14 104 2 14 9 63 15 110 7 47 13 86 14 88 2 1 23 -5 47 -14 109 -38 315
-71 689 -109 140 -14 284 -30 320 -35 36 -5 110 -14 165 -20 55 -6 116 -13
135 -15 19 -2 96 -9 170 -15 74 -6 151 -13 170 -15 23 -4 30 -2 20 3 -8 5 -42
12 -75 15 -33 4 -217 24 -410 46 -192 22 -462 52 -600 66 -244 25 -464 56
-536 75 -37 10 -84 51 -72 63 3 4 2 7 -3 7 -5 0 -9 191 -9 467 l0 467 55 24
c30 13 57 27 60 32 3 4 37 12 75 17 64 9 66 10 24 12 -26 0 -81 -6 -124 -15
-42 -9 -79 -13 -82 -10 -4 3 -1 110 6 237 7 127 10 233 8 235 -2 2 -11 -56
-20 -129z"/>
<path d="M5213 6684 c8 -8 266 -8 274 0 4 3 -58 6 -137 6 -79 0 -141 -3 -137
-6z"/>
<path d="M5073 6673 c7 -7 118 -5 126 2 2 3 -26 5 -64 5 -38 0 -65 -3 -62 -7z"/>
<path d="M5543 6673 c20 -2 54 -2 75 0 20 2 3 4 -38 4 -41 0 -58 -2 -37 -4z"/>
<path d="M4988 6662 c12 -8 72 -4 72 4 0 2 -19 4 -42 4 -26 0 -38 -4 -30 -8z"/>
<path d="M5690 6666 c0 -2 14 -6 30 -8 17 -3 30 -1 30 4 0 4 -13 8 -30 8 -16
0 -30 -2 -30 -4z"/>
<path d="M4913 6653 c9 -2 25 -2 35 0 9 3 1 5 -18 5 -19 0 -27 -2 -17 -5z"/>
<path d="M5792 6655 c10 -10 49 -14 43 -4 -4 5 -16 9 -27 9 -12 0 -19 -2 -16
-5z"/>
<path d="M5870 6640 c0 -5 14 -10 32 -10 36 0 35 4 -4 14 -17 4 -28 2 -28 -4z"/>
<path d="M5940 6627 c3 -3 28 -8 55 -12 28 -3 70 -8 95 -12 25 -3 48 -6 52 -5
3 1 46 -5 95 -13 187 -30 385 -56 390 -52 7 8 -30 14 -307 51 -301 41 -387 51
-380 43z"/>
<path d="M4485 4900 c-4 -23 -5 -43 -2 -46 2 -3 7 14 11 37 4 23 5 44 2 46 -2
2 -7 -14 -11 -37z"/>
<path d="M4397 4518 c-37 -164 -67 -313 -64 -321 2 -6 9 16 16 49 6 32 24 110
38 172 14 62 23 115 20 118 -2 3 -7 -5 -10 -18z"/>
<path d="M4271 3939 c-19 -82 -31 -152 -29 -154 2 -2 19 63 37 146 18 83 31
152 29 155 -3 2 -19 -64 -37 -147z"/>
<path d="M4130 3342 c0 -12 -4 -22 -8 -22 -5 0 -9 -6 -10 -12 0 -7 -12 -69
-26 -138 -13 -69 -30 -190 -37 -270 -14 -182 -6 -546 16 -695 19 -125 72 -375
81 -384 4 -3 4 5 1 19 -37 158 -77 455 -77 583 l0 49 51 -46 c28 -25 56 -46
63 -46 6 0 -6 16 -26 35 -22 20 -50 64 -68 106 l-32 71 12 221 c12 246 21 321
52 450 11 48 18 91 14 94 -3 4 -6 -3 -6 -15z"/>
<path d="M7790 3245 c0 -5 5 -17 10 -25 5 -8 10 -10 10 -5 0 6 -5 17 -10 25
-5 8 -10 11 -10 5z"/>
<path d="M7777 3175 c9 -19 18 -33 21 -31 4 5 -26 66 -33 66 -3 0 3 -16 12
-35z"/>
<path d="M7821 3188 c-1 -12 31 -89 35 -85 3 2 -4 24 -15 48 -11 24 -20 41
-20 37z"/>
<path d="M7810 3115 c0 -5 5 -17 10 -25 5 -8 10 -10 10 -5 0 6 -5 17 -10 25
-5 8 -10 11 -10 5z"/>
<path d="M6671 2884 c0 -11 3 -14 6 -6 3 7 2 16 -1 19 -3 4 -6 -2 -5 -13z"/>
<path d="M7891 2895 c1 -19 18 -51 18 -35 0 8 -4 22 -9 30 -5 8 -9 11 -9 5z"/>
<path d="M6680 2819 c1 -68 64 -432 95 -549 8 -30 15 -61 15 -68 0 -11 -86
-56 -223 -116 -48 -22 -400 -80 -576 -96 -167 -16 -559 -8 -721 15 -286 39
-590 119 -783 205 -27 12 -50 20 -53 18 -8 -8 223 -102 326 -132 30 -9 75 -23
100 -31 51 -16 113 -32 150 -39 14 -2 36 -7 50 -10 86 -20 283 -45 445 -57
140 -10 419 -6 520 6 17 2 85 11 153 19 68 9 127 18 131 20 4 3 28 8 54 11 74
10 275 61 360 91 90 31 87 33 112 -56 9 -30 22 -68 30 -85 7 -16 17 -43 21
-60 9 -36 30 -87 99 -240 19 -44 40 -88 46 -98 5 -10 24 -46 41 -80 17 -34 49
-88 70 -120 21 -32 38 -61 38 -64 0 -3 18 -28 40 -57 22 -28 43 -56 47 -61 5
-6 25 -29 46 -53 20 -23 37 -46 37 -50 0 -10 -123 -92 -163 -110 -206 -87
-761 -124 -1321 -87 -222 15 -791 69 -851 81 -16 4 -27 3 -23 -1 7 -7 62 -19
153 -31 22 -3 54 -9 70 -14 17 -4 37 -8 45 -9 8 0 31 -2 51 -5 21 -2 63 -8 95
-11 33 -4 67 -9 76 -11 9 -1 56 -6 105 -9 48 -4 162 -13 253 -20 159 -12 840
-14 885 -2 11 2 49 8 85 11 90 9 105 12 275 55 149 39 206 60 276 102 l37 22
29 -29 c95 -96 220 -164 317 -171 54 -4 78 1 211 46 82 28 169 61 192 72 24
11 49 18 55 16 9 -4 9 -6 1 -6 -6 -1 -19 -25 -29 -53 -9 -29 -32 -75 -52 -103
l-35 -50 58 60 c61 64 95 120 95 157 0 18 11 29 51 48 29 13 84 44 123 69 77
49 306 218 306 227 0 3 -35 -21 -77 -53 -83 -62 -208 -143 -223 -143 -4 0 -10
-3 -12 -7 -1 -5 -28 -20 -58 -36 -30 -15 -69 -35 -86 -45 -160 -90 -415 -182
-508 -182 -71 0 -192 60 -276 137 -112 102 -230 230 -230 248 0 4 -15 25 -34
48 -19 23 -45 61 -57 85 -13 23 -34 59 -46 80 -100 168 -225 481 -298 747 -9
33 -21 71 -26 85 -12 33 -63 296 -84 435 -17 109 -25 140 -25 94z"/>
<path d="M7910 2835 c0 -5 5 -17 10 -25 5 -8 10 -10 10 -5 0 6 -5 17 -10 25
-5 8 -10 11 -10 5z"/>
<path d="M7881 2774 c0 -11 3 -14 6 -6 3 7 2 16 -1 19 -3 4 -6 -2 -5 -13z"/>
<path d="M7941 2734 c0 -11 3 -14 6 -6 3 7 2 16 -1 19 -3 4 -6 -2 -5 -13z"/>
<path d="M8011 2694 c0 -11 3 -14 6 -6 3 7 2 16 -1 19 -3 4 -6 -2 -5 -13z"/>
<path d="M7952 2680 c0 -14 2 -19 5 -12 2 6 2 18 0 25 -3 6 -5 1 -5 -13z"/>
<path d="M10263 2392 c-25 -90 -61 -173 -110 -255 -19 -32 -32 -61 -29 -64 3
-4 6 -1 6 5 0 6 6 17 14 25 45 45 157 321 144 356 -1 6 -13 -25 -25 -67z"/>
<path d="M4200 2366 c0 -9 125 -86 140 -85 9 0 4 6 -10 12 -14 7 -43 24 -65
38 -58 37 -65 41 -65 35z"/>
<path d="M4370 2256 c14 -9 32 -15 40 -15 13 0 13 1 0 8 -8 5 -26 12 -40 15
l-25 7 25 -15z"/>
<path d="M10096 2055 c-9 -26 -7 -32 5 -12 6 10 9 21 6 23 -2 3 -7 -2 -11 -11z"/>
<path d="M10058 2009 c-12 -13 -13 -19 -5 -23 7 -2 4 -5 -7 -5 -12 -1 -16 -6
-12 -17 3 -9 6 -30 7 -47 1 -31 1 -31 10 8 6 22 11 47 12 55 2 8 6 21 11 28
12 20 3 21 -16 1z"/>
<path d="M9964 1934 c-18 -14 -18 -14 6 -3 31 14 36 19 24 19 -6 0 -19 -7 -30
-16z"/>
<path d="M9675 1838 c-4 -18 -25 -62 -46 -98 l-40 -65 45 50 c51 55 80 109 72
131 -9 24 -24 15 -31 -18z"/>
<path d="M9290 1794 c-91 -64 -316 -240 -352 -276 -10 -10 -23 -18 -28 -18 -6
0 -13 -7 -16 -15 -4 -8 -10 -13 -15 -10 -4 3 -13 -4 -19 -15 -6 -11 -18 -20
-28 -20 -15 0 -15 -2 -2 -10 11 -7 18 -5 26 5 24 32 34 16 34 -52 0 -48 -7
-85 -24 -125 -13 -32 -22 -58 -20 -58 23 0 73 164 74 240 0 39 5 49 32 70 18
14 48 39 68 55 19 17 55 46 80 65 25 19 47 37 50 41 3 3 60 47 128 97 68 51
120 92 115 92 -4 0 -51 -30 -103 -66z"/>
<path d="M4161 1765 c0 -5 8 -43 19 -84 11 -41 20 -103 20 -137 0 -35 5 -66
10 -69 18 -11 12 156 -6 190 -9 17 -22 48 -29 70 -7 22 -13 36 -14 30z"/>
<path d="M8796 1398 c3 -5 10 -6 15 -3 13 9 11 12 -6 12 -8 0 -12 -4 -9 -9z"/>
<path d="M8750 1365 c-19 -14 -28 -25 -19 -25 9 0 26 11 39 25 29 31 25 31
-20 0z"/>
</g>
</svg>
