<?xml version="1.0" standalone="no"?>
<!DOCTYPE svg PUBLIC "-//W3C//DTD SVG 20010904//EN"
 "http://www.w3.org/TR/2001/REC-SVG-20010904/DTD/svg10.dtd">
<svg version="1.0" xmlns="http://www.w3.org/2000/svg"
 width="1200.000000pt" height="1600.000000pt" viewBox="0 0 1200.000000 1600.000000"
 preserveAspectRatio="xMidYMid meet">

<g transform="translate(0.000000,1600.000000) scale(0.100000,-0.100000)"
fill="#000000" stroke="none">
<path d="M6043 14508 c-16 -35 -38 -89 -48 -120 -19 -57 -28 -68 -40 -48 -3 6
-12 10 -19 10 -13 0 -128 -183 -148 -238 -15 -38 -33 -43 -24 -7 6 25 -7 33
-30 17 -23 -16 -94 -120 -113 -167 -19 -47 -20 -48 -20 -18 -1 40 -14 48 -42
26 -39 -32 -143 -127 -173 -158 -43 -46 -173 -221 -191 -258 -10 -21 -45 -52
-97 -87 -45 -30 -111 -74 -145 -98 l-63 -44 20 -25 c11 -14 20 -32 20 -39 0
-7 21 -54 46 -103 l47 -91 -17 -43 c-21 -55 -21 -57 9 -57 18 0 28 7 35 26 13
33 13 37 -1 28 -7 -4 -10 -1 -7 7 3 8 12 13 21 13 16 -2 8 18 -48 111 -15 25
-55 141 -55 158 1 6 40 37 88 67 48 30 105 69 128 86 l41 31 41 -53 41 -53
-42 -40 c-23 -22 -39 -43 -35 -46 3 -3 21 10 40 29 19 20 40 36 46 36 5 0 41
-20 78 -45 l68 -44 16 47 c10 26 15 51 12 56 -7 12 -42 -35 -42 -57 0 -10 -5
-15 -10 -12 -6 4 -8 11 -5 16 4 5 -1 9 -9 9 -29 0 -136 78 -136 99 0 6 -4 11
-8 11 -4 0 -16 14 -26 30 -14 25 -16 37 -7 61 9 25 58 98 81 119 3 3 18 22 33
42 68 92 193 218 216 218 4 0 15 -14 26 -32 21 -36 17 -40 51 54 9 26 31 64
49 85 l32 37 -3 -29 c-23 -203 -25 -238 -15 -248 8 -8 11 -5 11 9 0 73 64 245
144 387 40 70 52 84 59 71 5 -9 7 -33 4 -53 -3 -20 -2 -63 2 -96 l7 -60 11 50
c7 28 23 100 37 160 15 62 41 141 60 179 l34 68 20 -44 c11 -23 36 -60 56 -81
35 -39 102 -135 156 -227 43 -72 87 -184 106 -264 28 -124 34 -128 29 -21 -3
55 -7 123 -10 150 l-5 50 25 -30 c29 -34 75 -126 75 -149 0 -24 16 -19 39 10
l21 26 34 -25 c18 -15 60 -57 92 -94 33 -37 61 -70 64 -73 3 -3 21 -25 40 -50
19 -25 37 -47 41 -50 16 -14 59 -87 59 -101 0 -8 17 -29 38 -46 46 -36 140
-103 146 -103 7 0 96 -61 96 -65 0 -2 -9 -30 -21 -62 -20 -56 -34 -87 -78
-165 -13 -24 -16 -35 -7 -32 8 3 15 -4 18 -21 4 -19 2 -23 -7 -15 -21 17 -45
-60 -45 -142 l0 -71 -25 23 c-20 19 -27 21 -40 10 -8 -7 -15 -19 -15 -26 0 -8
-4 -14 -9 -14 -11 0 -27 -47 -36 -109 -9 -57 7 -47 31 18 9 27 25 59 34 71
l17 23 42 -23 c22 -13 43 -21 46 -18 3 3 0 34 -7 69 -7 35 -12 91 -10 123 3
56 4 58 19 37 9 -14 23 -21 36 -19 24 4 24 4 2 65 -14 40 -14 44 8 76 12 18
33 57 45 87 13 30 32 72 43 92 l19 37 -58 41 c-31 22 -97 68 -146 102 -49 35
-92 73 -97 87 -9 23 -82 127 -132 189 -27 34 -183 189 -222 221 l-29 24 -14
-21 c-19 -29 -28 -28 -35 6 -6 32 -98 156 -122 166 -14 5 -17 1 -13 -24 3 -16
2 -30 -1 -30 -3 0 -24 33 -45 73 -54 100 -117 194 -162 242 -20 22 -52 70 -71
108 -18 37 -34 67 -37 67 -2 0 -17 -28 -33 -62z m-79 -255 c-8 -50 -14 -55
-14 -11 0 30 6 48 17 48 1 0 0 -17 -3 -37z"/>
<path d="M6656 13745 c9 -49 21 -237 18 -285 l-4 -45 11 35 c15 47 5 223 -15
280 -9 25 -13 32 -10 15z"/>
<path d="M5481 13703 c-16 -70 -19 -263 -3 -263 4 0 5 32 4 72 -2 39 1 107 8
151 13 89 8 112 -9 40z"/>
<path d="M5932 13600 c0 -14 2 -19 5 -12 2 6 2 18 0 25 -3 6 -5 1 -5 -13z"/>
<path d="M6355 13519 c-16 -46 -19 -50 -30 -36 -11 16 -13 14 -18 -10 -3 -16
-56 -94 -117 -175 l-112 -148 -59 78 c-32 42 -78 102 -103 132 -24 30 -53 73
-64 95 -12 22 -21 33 -22 26 0 -23 -18 -1 -34 44 -13 37 -15 38 -15 12 -1 -47
68 -170 139 -246 17 -18 56 -64 86 -102 30 -38 61 -69 68 -69 16 0 226 234
226 252 0 4 15 29 34 58 30 45 54 125 42 137 -2 2 -12 -19 -21 -48z"/>
<path d="M5942 13520 c0 -19 2 -27 5 -17 2 9 2 25 0 35 -3 9 -5 1 -5 -18z"/>
<path d="M5739 13480 c-13 -10 -19 -19 -13 -20 6 0 19 9 29 20 23 26 14 26
-16 0z"/>
<path d="M6910 13477 c0 -8 -9 -22 -20 -32 -11 -10 -20 -23 -20 -29 1 -13 60
50 60 64 0 6 -4 10 -10 10 -5 0 -10 -6 -10 -13z"/>
<path d="M6410 13476 c0 -2 8 -10 18 -17 15 -13 16 -12 3 4 -13 16 -21 21 -21
13z"/>
<path d="M5600 13424 c-19 -13 -42 -34 -51 -46 -11 -14 -18 -17 -23 -9 -4 6
-12 11 -19 11 -6 0 -2 -9 9 -21 l21 -21 48 46 c26 25 53 46 60 46 8 0 17 5 20
10 12 19 -30 9 -65 -16z"/>
<path d="M6511 13430 c20 -10 50 -35 67 -54 19 -22 37 -33 46 -30 16 6 30 34
17 34 -5 0 -11 -6 -14 -12 -3 -9 -11 -5 -22 10 -21 29 -89 72 -112 72 -11 -1
-4 -8 18 -20z"/>
<path d="M6805 13364 c-27 -18 -55 -34 -62 -34 -6 0 -25 12 -42 26 -17 14 -31
24 -31 22 0 -3 7 -28 15 -56 l16 -52 44 30 c56 38 82 33 142 -26 50 -51 54
-75 18 -128 -34 -51 -31 -57 5 -11 17 21 30 41 30 46 0 5 6 6 14 3 10 -4 12 2
8 22 -7 37 -84 113 -122 120 -35 7 -37 15 -12 31 16 9 26 3 70 -39 29 -27 52
-46 52 -41 0 11 -80 93 -91 93 -5 0 -6 7 -3 15 8 20 7 19 -51 -21z m-65 -49
c0 -1 -7 -8 -15 -15 -13 -10 -15 -9 -15 8 0 15 5 20 15 16 8 -4 15 -7 15 -9z"/>
<path d="M5270 13306 c-33 -19 -65 -64 -73 -103 -5 -24 -3 -31 7 -27 7 3 18
-7 24 -21 6 -14 17 -25 23 -25 6 0 1 15 -10 34 -12 18 -21 39 -21 45 0 7 21
34 46 61 48 51 49 60 4 36z"/>
<path d="M5080 13190 c0 -12 87 -63 99 -58 4 1 -16 17 -45 35 -30 17 -54 27
-54 23z"/>
<path d="M7047 13180 c-14 -11 -29 -20 -34 -20 -4 0 -19 -10 -33 -21 -21 -17
-17 -16 26 5 27 13 56 32 63 40 18 22 9 20 -22 -4z"/>
<path d="M5216 13059 c-14 -11 -24 -25 -21 -30 9 -13 25 -11 25 3 0 6 7 20 17
30 22 24 12 23 -21 -3z"/>
<path d="M6920 13065 c0 -3 6 -18 14 -33 12 -23 12 -33 0 -67 -7 -22 -13 -49
-13 -60 1 -31 30 54 35 102 4 35 1 44 -16 53 -11 6 -20 8 -20 5z"/>
<path d="M5205 12964 c15 -50 25 -67 25 -42 0 17 -28 88 -35 88 -2 0 2 -21 10
-46z"/>
<path d="M5068 12995 c-3 -3 -3 -24 -1 -47 3 -23 0 -75 -7 -115 -6 -41 -10
-77 -7 -80 3 -2 24 5 46 17 23 11 45 19 50 16 7 -5 18 -27 55 -121 l17 -40 -5
61 c-3 43 -12 76 -31 108 -15 25 -30 46 -33 46 -3 0 -17 -11 -31 -24 l-26 -25
-1 82 c-2 78 -13 134 -26 122z"/>
<path d="M7029 12983 c-13 -16 -12 -17 4 -4 9 7 17 15 17 17 0 8 -8 3 -21 -13z"/>
<path d="M5219 12873 c-1 -5 -1 -11 0 -16 1 -4 3 -51 6 -105 3 -53 11 -117 19
-142 l13 -44 7 86 c10 123 -6 228 -34 228 -6 0 -11 -3 -11 -7z m26 -23 c3 -5
1 -10 -4 -10 -6 0 -11 5 -11 10 0 6 2 10 4 10 3 0 8 -4 11 -10z"/>
<path d="M6912 12872 c-16 -11 -27 -151 -17 -228 6 -48 9 -55 16 -36 5 12 11
60 14 105 3 45 8 101 10 125 5 42 1 48 -23 34z m11 -32 c-3 -11 -7 -20 -9 -20
-2 0 -4 9 -4 20 0 11 4 20 9 20 5 0 7 -9 4 -20z"/>
</g>
</svg>
