<?xml version="1.0" encoding="utf-8"?>
<!-- Generator: Adobe Illustrator 16.0.0, SVG Export Plug-In . SVG Version: 6.00 Build 0)  -->
<!DOCTYPE svg PUBLIC "-//W3C//DTD SVG 1.1//EN" "http://www.w3.org/Graphics/SVG/1.1/DTD/svg11.dtd">
<svg version="1.1" id="Layer_1" xmlns="http://www.w3.org/2000/svg" xmlns:xlink="http://www.w3.org/1999/xlink" x="0px" y="0px"
	 width="1200px" height="1600px" viewBox="0 0 1200 1600" enable-background="new 0 0 1200 1600" xml:space="preserve">
<g transform="translate(0.000000,1600.000000) scale(0.100000,-0.100000)">
	<path d="M6056.767,11245.525c-43.721,23.775-300.435,44.854-472.231,44.854c-51.182,0-93.345-1.846-121.929-5.342
		c-43.423-5.482-69.072-11.523-81.27-15.625c1.65-0.072,3.584-0.117,5.85-0.117c10.474,0,24.707,0.904,42.31,2.682
		c43.677,4.594,103.091,7.025,171.797,7.025c130.356,0,272.422-8.867,353.516-22.064c56.782-9.072,88.071-14.068,118.267-14.068
		c30.986,0,62.451,5.035,125.137,15.064c83.027,13.314,224.111,21.918,359.434,21.918c64.922,0,122.256-2.031,165.791-5.869
		c15.664-1.605,29.58-2.451,40.322-2.451c1.475,0,2.832,0.016,4.063,0.045c-38.828,9.496-161.758,23.422-247.822,23.422
		c-90.146,0-326.26-26.225-394.746-43.848c-19.648-4.902-40.195-7.943-53.662-7.943
		C6064.736,11243.207,6059.882,11243.963,6056.767,11245.525z"/>
	<path d="M5320.996,11204.998c6.465,0,9.463,1.969,9.819,2.686c-2.183,3.867-10.059,7.314-16.812,7.314
		c-4.473,0-9.004-1.719-9.004-5C5305.449,11208.738,5311.079,11204.998,5320.996,11204.998z"/>
	<path d="M6829.003,11204.998c9.912,0,15.547,3.74,16.016,5.166c-0.02,3.115-4.551,4.834-9.023,4.834
		c-6.758,0-14.629-3.447-16.523-7.236C6819.541,11206.967,6822.539,11204.998,6829.003,11204.998z"/>
	<path d="M5370.61,11200.629c-6.455,0-10.869-0.811-13.428-1.641c4.673-1.826,14.976-3.99,29.819-3.99
		c7.788,0,13.335,0.293,17.261,0.68c-4.902,1.289-12.446,2.836-23.926,4.365
		C5376.982,11200.438,5373.681,11200.629,5370.61,11200.629z"/>
	<path d="M6737.509,11196.43c2.92-0.123,6.025-0.25,9.277-0.381l1.309-0.055c31.064,0.006,43.457,3.262,46.68,5.016
		c-0.566,1.016-2.607,2.236-9.902,2.236C6775.595,11203.246,6760.849,11201.131,6737.509,11196.43z"/>
	<path d="M7132.998,11179.998c-5,0-7.998-24.004-8.994-52.998c-1.006-92.002-76.006-212.002-166.006-266.006
		c-33.994-20-37.002-20.996-30.996-3.994c2.998,10,12.998,27.998,20.996,40.996c17.002,26.006,6.006,30-15,5
		c-13.994-17.002-13.994-17.002-8.994,0c2.998,9.004,1.992,17.002-3.008,17.002c-7.998,0-62.998-105-66.992-129.004
		c-7.314-43.266-52.549-195.098-55.254-209.121l31.25,33.125l-5.996-85c-10-170.996-36.006-347.002-64.004-450
		c-41.035-146.664-60-231.973-60-397.998c0-105,4.004-145,19.004-190c25.996-76.006,50.996-134.004,63.994-151.006
		c6.006-6.992,12.002-18.994,12.998-25.996c3.008-22.998,45-62.998,62.002-60c27.998,5.996,27.998,7.002,2.002,14.004
		c-19.004,5-25,12.998-24.004,33.994c1.006,15-1.992,27.002-5.996,27.002c-20,0-75.996,187.002-80.996,265
		c-8.008,162.998,12.998,357.002,46.992,410.996c11.006,18.008,23.008,63.008,38.008,149.004c21.992,115,27.998,179.004,31.992,355
		c7.002,250,15,285,80,319.004c39.004,20.996,96.006,70.996,132.002,115C7110,10982.996,7140,11072,7140,11124.998
		C7140,11154.998,7137.001,11179.998,7132.998,11179.998z"/>
	<g>
		<path d="M5673.73,9923.514c12.334,9.166,24.038,37.656,23.882,52.525c-0.044,4.043-0.972,5.531-1.289,5.736
			c-2.554-0.014-6.411-3.73-8.477-11.992c-2.876-10.586-9.502-21.869-17.524-20.273c0.073-1.934,0.444-4.955,1.528-9.297
			C5673.842,9933.455,5674.921,9927.816,5673.73,9923.514z"/>
		<path d="M6718.417,10462.738c2.891,1.172,6.582,6.41,6.582,11.264c0,12.125,24.844,37.916,32.461,45.527
			c12.002,11.305,26.045,28.691,36.787,43.896c-10.566-0.746-51.904-47.738-65.498-56.553
			c-27.334-17.578-50.898-27.061-53.496-38.467c0.967,0.283,2.354,0.84,4.268,1.934c4.932,3.066,9.473,2.76,12.168-0.537
			c3.35-4.076,3.145-12.094-0.791-31.781c-2.393-11.387-9.648-45.889-12.969-65.846c-4.219-24.271-13.408-35.488-32.783-40.043
			c-9.482-1.5-17.441-1.123-22.744,0.629c-6.436,2.135-7.402,6.074-7.402,8.232c0,2.135-2.803,4.004-5.996,4.004
			c-9.395,0-33.115,12.236-50.576,22.715c-19.707,12.451-39.58,22.574-44.248,23.35l-1.035,0.289
			c-2.08,0.834-11.465,3.91-23.359,7.807c-15.791,5.176-37.637,12.334-60.4,20.113c-42.266,14.428-83.721,25.727-94.385,25.727
			c-12.51,0-29.697,6.621-37.539,14.463c-7.246,5.035-84.023,10.537-211.709,10.537c-117.129,0-212.432-4.844-226.621-11.523
			c-12.939-6.469-64.717-21.758-112.964-33.34c-74.297-18.334-176.265-62.354-205.825-88.857c-4.746-4.115-10.938-6.26-17.964-6.26
			c-16.953,0-37.983,13.229-42.266,32.926c-19.79,81.127-19.517,103.295-13.013,111.582c1.45,1.84,3.281,3.07,5.391,3.627
			c-1.172,1.465-26.948,11.061-49.155,30.176c-31.743,27.324-63.521,66.631-68.037,65.699
			c11.074-14.307,24.268-30.504,36.499-44.781c9.482-11.543,19.067-23.008,27.446-33.027c12.158-14.545,21.763-26.029,24.824-30.316
			c7.085-8.242,10.933-28.922,10.933-44.908c0-15.658,5.039-41.293,9.741-55.41c5.967-14.902,13.135-45.307,16.211-68.945
			c14.878-120.996,104.165-341.729,164.722-407.25c10.669-11.729,19.326-29.834,19.326-40.387c0-8.764,6.387-40.918,14.849-74.795
			c25.029-102.109,28.154-125.029,27.153-293.242c-1.021-121.586-5.054-173.125-15.415-196.963
			c-28.95-61.885-74.78-171.387-81.787-195.404c-5.117-14.361-18.203-41.68-30.571-61.27
			c-19.15-30.645-50.61-106.279-76.484-183.911c-4.595-14.692-15.518-61.543-22.817-104.258
			c-6.865-40.195-15.869-86.567-20.078-103.374c-2.964-10.894-3.247-15.068-3.066-16.665c1.074,0.103,2.686,0.488,5.43,1.543
			c3.115,1.196,5.64,1.758,7.939,1.758c13.848,0,14.849-17.539,14.849-46.426c0-23.794,2.627-35.913,4.229-39.121
			c4.17-0.688,14.863-6.045,57.168-45.21c27.432-26.372,61.221-50.786,75.61-57.085c5.425-2.231,32.993-14.116,32.993-24.58
			c0.64-0.708,7.305-5.4,19.121-8.125c12.539-3.135,40.576-12.173,62.588-20.176c21.577-7.842,57.012-17.749,78.97-20.747
			c21.152-3.838,48.306-9.028,58.755-12.158c20.059-6.685,45.693-10.557,85.068-13.989
			c-246.631,44.707-394.033,113.169-449.814,208.672c-25.806,43.35-26.689,54.717-21.675,123.887
			c5.02,67.725,8.35,86.06,22.192,86.06c4.199,0,8.691-2.271,15.015-7.598c32.314-26.255,131.533-72.349,182.974-84.971
			c93.389-24.839,155.078-29.858,366.807-29.858c317.871,0,421.846,20.22,556.27,108.188c9.307,6.074,14.932,9.736,20.137,9.736
			c10.82,0,12.51-11.123,17.539-44.155c15.264-112.925,2.188-151.885-73.613-219.492
			c-92.939-81.948-233.799-130.127-456.748-156.235c-16.406-1.543-30.107-3.765-39.727-5.884
			c39.15,0.21,131.055,11.021,169.814,21.665c18.242,4.8,50.361,11.934,70.547,15.117c59.219,9.038,170.576,56.641,224.844,96.108
			c44.99,32.495,85.381,68.979,93.926,80.781c-0.645,0.601-1.162,1.343-1.523,2.202c-1.064,2.583-1.406,7.109,7.998,16.509
			c5.068,5.068,10.537,22.744,10.537,42.461c0,15.063,1.484,32.349,13.076,32.349c1.875,0,3.809-0.547,5.762-1.626
			c0.918,11.973-8.398,58.604-14.736,90.298c-3.115,14.517-7.1,36.626-9.053,50.273c-1.943,13.589-3.262,20.039-3.906,22.31
			c-2.178,2.441-3.516,8.057-6.025,19.316c-9.736,53.516-61.445,186.522-85.156,219.14c-16.045,22.471-31.777,53.555-35.82,70.801
			c-2.627,15.631-22.49,64.986-50.684,126.051l-45.488,97.041l0.029,1.186l5,180c2.002,99.121,7.031,191.656,11.201,206.24
			c35.732,152.168,41.563,168.311,77.832,215.67c21.377,27.475,43.76,68.018,51.27,88.666c61.963,179.775,80,235.416,88.779,284.176
			c3.389,21.029,8.613,49.379,13.223,74.398c2.158,11.715,4.17,22.627,5.771,31.592
			C6698.369,10418.256,6706.728,10458.836,6718.417,10462.738z M6448.193,9298.211l33.398-77.227
			c16.475-37.539,40.283-97.025,57.07-140.17l26.299-72.33l-186.602-13.471c-66.426-4.703-115.615-9.736-143.223-13.711
			c1.006-0.006,2.051-0.01,3.145-0.01c53.945,0,165.762,7.51,278.223,18.682c10.02,1.133,17.842,1.66,24.561,1.66
			c46.611,0,59.053-28.574,82.744-110.244l4.199-14.352c32.188-109.77,33.447-114.057-24.912-148.837l-7.529-4.492
			c-111.348-65.84-214.795-83.867-481.27-83.867c-14.297,0-29.053,0.054-44.326,0.156c-247.231,1.987-282.349,6.216-417.515,50.244
			c-38.491,13.12-147.456,73.105-147.456,89.756c0,28.359,53.086,185.624,72.822,215.737c16.919,26.918,23.428,35.453,47.358,35.453
			c7.974,0,18.022-0.957,30.327-2.211c27.319-1.953,71.23-8.662,100.4-14.063c97.466-17.242,146.704-24.277,169.912-24.277
			c3.242,0,5.737,0.141,7.642,0.352c-6.382,2.396-18.154,5.576-36.147,8.061l-4.214,0.576c-28.936,3.99-77.363,10.654-108.848,15.43
			c-37.72,5.713-99.009,13.678-116.895,15.977c-62.358,7.803-62.358,8.746-62.358,13.965c0,22.617,102.637,267.588,123.545,279.355
			c1.445,1.246,5.762,3.193,20.435,3.193c11.846,0,28.135-1.309,44.702-3.594c19.16-3.418,46.865-7.266,71.309-10.658
			c11.44-1.588,22.109-3.072,30.742-4.346c24.629-3.521,57.153-9.717,67.695-15.576c8.535-4.473,61.475-9.043,160.244-9.043
			c65.596,0,135.215,2.012,196.025,5.658L6448.193,9298.211z M6457.9,9717.996c-17.217-89.111-20.586-95.971-51.523-104.809
			c-11.738-3.447-44.053-5.602-84.316-5.602c-18.945,0-38.77,0.494-57.314,1.422c-19.111,0.941-38.965,1.436-57.402,1.436
			c-31.084,0-50.068-1.338-58.711-2.633c2.012,0,4.443,0.039,7.1,0.182c0.02,0,0.039,0,0.059,0c16.641,0,68.047-3.053,114.736-8.023
			c20.811-1.566,40.625-2.373,58.74-2.373c27.158,0,48.77,1.816,62.52,5.25l44.307,12.836l-2.09-150.752
			c0-129.854,2.666-147.461,3.486-149.76l1.396-2.33l-1.367-2.334c-3.232-6.611-81.104-11.152-231.445-13.506
			c-38.086-0.371-70.459-0.605-98.652-0.605c-125.835,0-167.944,4.625-257.363,21.689l-129.063,22.721v137.191
			c-0.767,98.531-0.19,120.43,7.676,128.355c4.409,4.443,11.436,3.129,18.267,0.258c7.729-2.807,40.21-5.805,80.776-5.805
			c5.688,0,11.44,0.059,17.173,0.189c111.24,1.441,182.505,2.451,224.087,3.584c-21.025,1.416-49.043,2.939-84.185,4.43
			c-71.03,2.959-159.067,8.91-196.201,12.006l-71.226,6.383l-9.443,115.703c-6.543,86.299-23.223,75.453-14.951,97.367
			c0,0,19.551,18.496,20.225,20.537c-3.169-1.436-7.139-3.525-8.862-4.434c-8.442-4.926-21.855-28.48-26.831-10.742
			c-9.585,34.166,130.654,66.422,216.997,75.143l24.072,2.871c17.559,2.07,34.146,4.033,36.538,4.75v-0.01
			c2.598,1.08,9.023,1.602,35.273,1.602c72.266,0,254.219-5.082,283.32-9.238c21.729-2.832,48.291-7.5,62.197-10.033
			c7.607-2.057,20.811-5.303,34.678-8.711l21.631-5.352c19.316-4.83,43.994-13.814,56.182-20.459
			c8.896-5.23,12.539-11.396,15.986-16.08c21.875-29.688-57.852-0.082-61.563-3.125c3.301-0.684,56.924-17.914,62.832-25.16
			C6476.357,9818.9,6473.105,9792.039,6457.9,9717.996z M6655.039,10295.936c11.758-18.773,8.369-38.643-9.258-97.373
			c-12.334-41.162-28.428-83.041-36.621-95.342c-6.523-11.186-17.412-35.811-23.379-55.658
			c-15.801-50.406-68.506-132.564-89.785-132.564c-11.025,0-20.684,13.199-22.959,31.383c-1.865,13.041-8.408,25.053-13.008,27.021
			c-0.869,0.225-1.66,0.313-2.08,0.313c-0.107-0.523-0.518-4.492,2.92-19.609c4.238-15.84,10.732-26.338,13.027-27.477
			c9.912-4.945,12.9-31.348,10.313-42.279c-1.924-8.135-6.592-9.352-9.209-9.352c-2.158,0-9.521,2.148-83.545,26.24
			c-70.4,23.467-90.615,26.695-281.563,30.762c-47.002,0.943-88.535,1.719-120.635,1.719c-88.076,0-113.55-5.508-197.041-26.566
			c-61.675-15.752-88.921-21.334-104.097-21.334c-7.012,0-16.694,1.1-19.863,10.596c-2.754,7.33-2.578,15.025,0.151,20.742
			c-2.534-1.176-5.142-1.176-6.255-1.176c-2.407-0.006-5.308,0.352-9.131,1.117c-17.695,2.945-41.118,35.908-119.575,207.828
			c-17.393,36.82-30.439,85.795-32.441,121.797l-5.273,64.262l105.063,51.5c111.768,56.391,199.912,80.342,336.797,91.504
			c33.389,2.998,85.317,4.652,146.177,4.652c89.883,0,172.178-3.588,200.137-8.725c121.27-22.861,161.67-35.635,254.268-80.416
			c52.48-26.771,97.822-44.502,104.824-44.502c12.129,0,22.002-7.178,22.002-15.996c0-6.41-5.059-11.029-11.836-10.361
			C6653.701,10297.816,6654.326,10296.918,6655.039,10295.936z"/>
	</g>
	<path d="M5268.027,9092.621c2.031,0,4.185,0.117,6.465,0.352c34.312,4.037,100.146,46.025,107.881,64.916
		c2.046,5.465-1.538,28.189-11.924,51.035c-13.125,28.711-21.392,37.93-34.038,37.93c-1.577,0-3.262-0.127-5.107-0.395
		c-4.307-4.727-12.266-9.771-23.701-8.863c-1.689-6.328-6.519-14.053-14.395-26.299c-50.186-74.414-49.395-101.074-44.463-110.346
		c2.979-5.605,9.287-8.33,19.277-8.33C5268.027,9092.621,5268.027,9092.621,5268.027,9092.621z M5331.401,9233.074l1.914-0.254
		c7.944-3.145,21.099-20.238,29.043-34.375c19.077-30.283,16.343-33.877-19.17-63.295c-21.587-18.594-43.657-29.736-58.96-29.736
		c-12.041,0-19.229,6.947-19.229,18.588C5265,9145.486,5314.794,9233.074,5331.401,9233.074z"/>
	<path d="M5389.003,10094.998c-18.008,55.996-51.006,292.998-63.008,450c-2.295,32.193-2.598,49.121-0.742,54.898
		c-0.806,4.604-0.361,9.35,1.787,13.525c1.777,12.041,22.754-10.787,23.794-10.924c-5.957,11.738-29.839,107.5-30.835,112.5
		c-0.996,5.996-5.996,20-10.996,32.998s-9.004,30-9.004,37.998c0,8.008-12.998,41.006-30,74.004c-22.002,44.004-35,57.998-50,57.002
		c-24.004-2.002-24.004,0.996,0-47.002l20-39.004l-42.002,29.004c-98.994,65.996-160,164.004-167.998,270
		c-5,55-7.002,60.996-14.004,37.002c-28.994-97.998,68.008-267.002,193.008-337.002c60.996-35,67.998-62.998,75.996-302.002
		c2.998-110,12.998-235.996,20.996-280c8.008-43.994,13.008-82.998,10-85.996c-2.998-2.998-1.992-10,3.008-16.006
		c5-5.996,13.994-37.998,20-70c5.996-32.998,15-61.992,20-65c22.998-15.996,45-170,45.996-320.996
		c0-132.998-2.998-164.004-22.002-220c-32.002-95.996-52.002-140-63.994-140c-6.006,0-9.004-7.002-5-15
		c2.886-7.943,3.223-15.986,1.631-23.057c2.373-0.492,4.434-1.377,6.353-2.426c1.567,0.361,4.141,0.482,8.013,0.482
		c20,0,62.002,77.002,95,175C5477.998,9617.996,5464.003,9857.996,5389.003,10094.998z"/>
	<path d="M6393.164,10093.279c-12.588,15.689-26.924,31.201-42.295,44.238c-13.232,11.221-27.324,21.412-42.002,30.729
		c-29.004,18.398-60.322,33.379-91.992,46.127c-47.52,19.131-86.973,15.982-114.248,27.832
		c-17.314,5.449-21.572,17.793-21.572,17.793c2.949,2.291-4.443-11.098-21.572-17.793c-27.275-11.85-66.729-8.701-114.248-27.832
		c-31.67-12.748-62.988-27.729-91.992-46.127c-14.678-9.316-28.77-19.508-42.002-30.729c-15.371-13.037-29.707-28.549-42.295-44.238
		c-9.912-12.348-28.721-42.52,3.457-28.496c18.164,7.916,38.203,52.402,53.291,67.867c20.85,21.377,44.57,40.746,70.918,54.961
		c36.484,19.688,82.236,27.295,121.797,38.77c4.746,1.371,56.367,15.805,62.646,26.898c6.133-11.719,57.9-25.527,62.646-26.898
		c39.561-11.475,85.313-19.082,121.797-38.77c26.348-14.215,50.068-33.584,70.918-54.961c15.088-15.465,35.127-59.951,53.291-67.867
		C6421.884,10050.76,6403.076,10080.932,6393.164,10093.279z"/>
	<path d="M6076.191,9016.967c-18.73,0-39.639,3.988-74.6,14.229c-5.625,1.293-11.021,2.051-14.917,2.055
		c3.481-4.77,12.114-14.326,24.478-24.369c17.637-15.781,40.469-24.385,64.473-24.385c24.023,0,47.139,8.617,65.098,24.271
		c19.531,16.9,20.527,23.076,20.566,23.945c-0.322-0.121-1.396,0.484-4.482,0.479c-4.971,0-14.932-1.377-34.199-7.924
		C6104.658,9019.441,6090.791,9016.967,6076.191,9016.967z"/>
	<path d="M5327.48,11096.316c11.987,7.496,16.436,14.449,17.144,17.076c-1.216,0.092-3.892-0.127-8.799-2.057
		c-6.353-2.539-9.619-3.486-12.021-3.486c-3.813,0-5.371,2.383-5.864,3.408c-2.036,4.234,0.894,8.535,9.15,18.863
		c7.432,9.281,17.817,19.902,23.677,24.867c-0.239,0.006-0.498,0.01-0.767,0.01c-5.283,0-29.502-16.572-59.463-46.533
		c-26.836-26.836-45.537-54.984-45.537-63.467c0-0.834,0-1.674,0-2.5c1.23,1.67,2.573,3.531,3.945,5.43
		c9.878,12.354,23.735,17.633,31.831,12.227c1.816-1.117,4.668-1.762,8.081-1.762c9.258,0,19.185,4.629,21.548,8.613
		c0.562,0.941,0.371,1.289,0.205,1.596c-0.732,0.895-1.904,3.492-1.123,7.363
		C5310.864,11082.758,5317.929,11090.746,5327.48,11096.316z"/>
	<path d="M6316.914,11109.881c97.422,22.861,120.859,27.051,227.754,34.111c18.975,1.275,46.963,3.164,63.564,5.113
		c-1.318,0.316-2.764,0.658-4.346,1.02c-6.934,1.387-18.174,2.135-32.354,2.135c-52.9,0-134.766-9.518-190.43-22.139
		c-14.004-2.998-47.871-9.98-76.221-15.045c-26.885-3.848-79.033-24.209-116.416-45.424
		c-40.361-22.018-74.385-36.656-109.473-36.656c-35.039,0-70.234,14.619-112.305,36.572
		c-73.765,38.395-104.443,46.959-252.476,70.494c-90.337,14.74-137.549,17.348-168.53,9.135c10.225-1.895,31.294-4.545,74.624-7.207
		c99.731-6.049,130.049-9.18,169.16-21.215c8.535-2.842,31.982-7.789,51.313-10.84c38.687-6.445,161.855-59.391,168.818-75.445
		c0.605-1.406,0.752-2.861,0.449-4.209c4.092-2.217,19.746-5.283,74.912-5.283c19.023,0.328,57.5,0.992,65.146,4.566
		c-0.654,1.674-0.615,3.73,0.234,5.775C6157.724,11053.178,6261.464,11097.553,6316.914,11109.881z"/>
	<path d="M6904.16,11042.777c0.723-1.162,1.309-1.93,1.748-2.432c0.361,0.654,0.83,1.68,1.348,3.236
		c0.605,2.594-3.506,15.23-28.086,45.553c-26.738,32.979-55.264,59.379-66.719,64.828c2.021-4.072,6.865-11.211,16.084-20.43
		l47.207-48.773l-82.539,34.57l4.512-4.98c11.885-11.885,23.984-19.352,28.281-19.352c8.398,0,19.482-4.775,23.477-12.764
		c2.051-3.008,2.529-6.162,1.104-8.832c-1.113-2.076-5.283-5.436-15.635-2.324c7.002-3.789,18.154-7.945,29.99-10.172
		C6880.332,11058.021,6898.759,11050.867,6904.16,11042.777z"/>
	<g>
		<path d="M6848.203,10881.625c-0.4-0.986-0.869-2.461-1.299-4.609c-0.908-5.162-2.207-12.5-7.637-15.4
			c5.879,0.16,6.943,2.074,7.354,2.813C6849.804,10869.994,6850.439,10877.479,6848.203,10881.625z"/>
		<path d="M6404.228,10900.936c22.441,3.369,90.391,4.561,141.768,4.561c51.367,0,120.068-1.191,144.678-4.545
			c18.184-2.871,61.24-13.58,95.088-26.27c13.887-4.629,24.951-7.949,33.682-10.088c-4.971,2.25-11.309,5.502-19.785,9.99
			c-48.623,24.506-135.508,38.588-238.281,38.588c-137.881,0-277.295-24.98-355.146-63.646
			c-35.264-17.633-53.682-23.502-93.213-23.502c-9.199,0-19.766,0.303-34.248,0.982c-48.271,3.08-102.002,14.486-147.505,31.299
			c-93.491,35.068-221.587,55.996-342.681,55.996c-49.351,0-95.029-3.443-135.762-10.23c-27.3-4.707-67.598-15.57-87.969-23.715
			c-17.9-7.412-27.231-10.176-34.375-10.176c-7.031,0-12.3,2.846-16.577,8.955c-0.078,0.137-0.156,0.268-0.234,0.395
			c-4.561-55.16-2.217-59.682,34.727-93.857c14.595-13.93,33.018-30.775,47.71-43.213c-12.886,13.717-29.668,30.699-43.555,43.916
			c-26.938,25.322-36.611,41.357-33.364,55.318c3.56,15.297,22.158,26.537,66.353,40.088
			c48.501,14.756,96.055,18.178,219.502,17.221c176.577,0,250.107-11.488,342.036-53.457
			c49.927-22.963,72.563-26.523,137.847-25.547c56.572,0.986,86.504,5.957,103.301,17.158
			C6212.958,10853.65,6338.125,10890.604,6404.228,10900.936z"/>
	</g>
	<path d="M6800,10792c-65-67.002-72.002-82.998-17.002-37.998c44.004,35.996,74.004,72.998,65,80.996
		C6845.996,10837,6825,10817,6800,10792z"/>
	<path d="M5539.199,10581.141c27.07-10.479,57.749-16.742,82.051-16.742h0.005c3.145,0,6.182,0.107,9.097,0.322
		c63.33,5.068,141.963,18.49,194.058,30.063c-5.898-0.746-11.992-1.566-18.169-2.451c-47.827-6.826-103.179-10.586-155.864-10.586
		c-52.91,0-99.175,3.805-130.269,10.703c-49.805,10.596-84.937,35.65-121.23,86.471c-0.43,0.639-0.889,1.332-1.372,2.045
		c-0.713-3.037-1.396-6.23-1.943-8.76c-0.249-1.264-0.439-2.563-0.557-3.877c4.956-0.957,11.094-5.424,22.783-19.814
		c9.902-12.172,12.9-16.303,10.142-22.109l-2.339-4.906l-5.664-0.205c-0.186,0.053-0.62,0.014-0.923,0.039
		c11.055-8.717,24.775-14.654,39.209-16.67C5475.244,10602.543,5511.596,10591.99,5539.199,10581.141z"/>
	<path d="M6745.351,10633.764c8.311,12.09,11.211,25.254,8.174,37.055c-0.264,1.021-0.527,2.037-0.791,3.037
		c-13.418-30.273-69.004-68.643-119.453-82.299c-23.301-6.314-69.16-9.938-125.811-9.938c-47.158,0-95.391,2.613-134.443,7.145
		c3.145-0.479,6.338-0.967,9.58-1.461l45.488-6.943c125.85-20.322,122.92-21.133,187.813,2.467l1.113,0.4
		c26.172,9.424,59.775,17.441,75.889,19.457C6713.779,10605.111,6733.857,10617.016,6745.351,10633.764z"/>
	<path d="M6218.808,10619.936c5.859-1.055,11.035-1.582,15.439-1.582h0.01c5.977,0,8.721,0.947,9.834,1.514
		c-1.504,1.865-7.236,6.313-22.363,10.297c-22.578,5.264-132.529,11.396-187.139,11.396c-22.109,0-27.1-1.02-28.096-1.332
		c-4.712-1.904-25.903-5.191-60.786-10.182c-18.091-2.26-26.763-4.795-30.786-6.439c3.828-0.83,11.377-1.611,23.203-1.611
		c14.072,0,30.508,1.055,46.274,2.969c23.11,2.695,55.2,4.18,90.376,4.18C6129.785,10629.145,6183.623,10625.701,6218.808,10619.936
		z"/>
	<path d="M5664.003,9289.002c-24.004-47.002-45-111.006-34.004-104.004c5.996,2.998,10,10.996,10,15.996
		c0,9.004,34.004,90,47.002,112.002c2.002,4.004,2.002,7.002-1.006,7.002C5682.998,9319.998,5672.998,9305.994,5664.003,9289.002z"
		/>
	<path d="M6480,9290.994c0-6.992,5.996-25,14.004-38.994c6.992-15,21.992-44.004,31.992-65c35-72.002,33.008-47.998-1.992,30
		C6485.996,9300.994,6480,9309.998,6480,9290.994z"/>
	<path d="M6875.771,9189.324c-24.736,39.443-43.74,58.609-58.105,58.609c-5.527,0-10.703-2.988-15.83-9.137
		c-11.709-13.662-35.566-62.119-36.787-72.094c1.338-2.369,6.943-9.664,16.65-20.342c21.221-24.244,67.402-48.697,98.887-52.393
		c2.041-0.318,3.789-0.465,5.42-0.465c0.01,0,0.01,0,0.01,0c6.885,0,11.611,2.5,14.443,7.652
		C6907.666,9114.256,6902.832,9146.6,6875.771,9189.324z M6887.07,9109.705c-1.953-3.354-5.977-7.354-14.043-7.354
		c-6.23,0-13.857,2.354-23.311,7.203c-15.176,8.096-36.963,23.525-47.559,36.25c-17.461,19.633-18.428,27.51-6.787,56.078
		c5.85,13.385,18.262,33.115,28.633,33.115c12.529,0,37.49-43.793,42.373-52.572
		C6887.001,9146.02,6893.974,9121.541,6887.07,9109.705z"/>
	<path d="M5257.001,9234.002c-4.004-4.004-7.002-14.004-7.002-23.008c0-10.996,2.998-11.992,10.996-3.994
		c6.006,5.996,10,15.996,7.002,22.998C5265.996,9235.994,5260.996,9237.996,5257.001,9234.002z"/>
	<path d="M6890,9222.996c0-12.998,5-22.998,10-22.998c12.998,0,12.998,10.996,0,30C6892.001,9242,6890,9240.994,6890,9222.996z"/>
	<path d="M5362.226,8988.725c13.833,7.338,22.773,16.078,22.773,22.27c0,26.133-15.693,53.287-37.314,64.57
		c-6.475,3.238-10.186,4.449-13.569,3.73l20.737-25.117c7.588-9.863,20.146-27.354,20.146-35.176
		c0-14.447-41.172-34.262-55.688-34.262c-3.398,0-6.04,0.912-7.847,2.715c-5.068,7.441,1.06,36.088,4.722,48.916l10.674,37.813
		c-1.885-2.109-4.067-5.006-6.704-8.961c-16.543-26.787-23.13-64.936-17.91-81.055c0.791-2.436,2.241-5.551,4.658-6.547
		c2.715-0.934,6.392-1.455,10.669-1.455C5330.517,8976.166,5347.626,8980.975,5362.226,8988.725z"/>
	<path d="M6847.294,8984.203c1.084,0.654,3.438,2.793,4.707,10.303c3.291,19.453-4.375,56.934-18.838,74.297
		c-5.635,7.5-9.434,8.994-13.438,8.994c-3.691,0-8.33-1.373-14.6-4.326c-17.197-8.6-33.613-36.553-36.729-55.771
		c-1.152-7.125-0.371-12.652,2.139-15.162c9.961-9.965,43.154-20.502,64.57-20.502
		C6842.773,8982.035,6846.035,8983.393,6847.294,8984.203z M6796.718,8995.551c-22.666,12.588-19.775,20.492-5.166,48.744
		c8.887,16.768,16.357,24.225,24.268,24.225c10.928,0,18.428-13.604,25.068-45.498c3.525-17.607,3.027-27.539-1.66-33.258
		c-2.695-3.281-6.572-4.941-11.523-4.941C6820.703,8984.822,6811.152,8988.129,6796.718,8995.551z"/>
	<path d="M5187.778,8870.668c10.674-4.18,25.137-0.576,35.518,8.33c7.437,6.387,11.704,14.398,11.704,21.996
		c0,28.926-12.778,47.672-26.787,51.914l14.155-25.482c11.357-21.754,14.849-33.014-1.855-42.744
		c-20.625-13.209-40.029-12.877-47.163,0.053c-5.723,10.381-2.656,26.393,8.418,43.932l16.152,24.701
		c-9.282-2.061-17.227-10.928-22.207-25.033C5168.183,8906.996,5164.169,8879.672,5187.778,8870.668z"/>
	<path d="M6955.537,8877.611c-14.99,0-22.021,6.459-25.283,11.879c-6.23,10.338-4.385,25.498,5.332,43.844
		c6.924,12.607,10.84,18.51,16.963,18.51c5.439,0,8.936-4.805,13.662-12.139c5.918-11.338,11.865-15.023,13.701-15.023
		c-0.176,0.361,0.068,4.506-4.346,13.012c-5.645,10.816-13.359,16.777-21.699,16.777c-6.572,0-13.154-3.695-19.043-10.693
		c-9.248-11.684-13.398-26.4-11.279-40.248c1.641-10.781,7.061-19.801,15.273-25.396c8.291-5.854,12.832-8.012,16.836-8.012
		c4.18,0,8.867,2.396,17.305,8.848c0.576,0.482,1.152,0.961,1.719,1.436c-1.738-0.396-3.604-0.826-5.557-1.275
		C6964.189,8878.113,6959.658,8877.611,6955.537,8877.611z"/>
	<path d="M5844.296,8048.446c21.021-10.518,47.251-23.643,51.24-24.487c0.005,0,0.01,0,0.015,0c4.263,0,51.494-15.044,51.968-15.195
		c22.427-6.904,53.33-11.509,73.584-12.549c-5.42,1.157-11.777,2.451-19.067,3.877c-91.167,17.837-151.44,42.749-214.971,88.857
		c-29.321,21.504-57.124,43.027-60.605,46.523c-3.169,3.169-23.169,22.139-43.818,40.82c-2.822,2.588-7.056,6.465-11.421,10.386
		C5696.948,8149.701,5785.224,8078.964,5844.296,8048.446z"/>
	<g>
		<path d="M6164.501,8003.603c0.674,0.059,1.309,0.088,1.895,0.088c1.074,0,2.002-0.103,2.822-0.308
			c0.283-0.078,0.938-0.259,2.842-0.259c15.518,0,68.389,11.914,101.201,24.102c42.109,15.664,141.406,88.047,193.174,140.815
			c7.168,7.466,12.979,13.779,17.656,19.072c-3.115-2.905-6.621-6.265-10.596-10.151
			c-104.873-101.821-195.674-153.359-303.623-172.349C6168.037,8004.276,6166.25,8003.939,6164.501,8003.603z"/>
		<path d="M6116.816,7991.308c4.951,0.313,11.318,1.729,17.5,3.936c5.127,1.973,11.221,4.028,16.924,5.615
			C6135.263,7997.333,6123.642,7993.905,6116.816,7991.308z"/>
	</g>
	<path d="M6355,7924.003c-22.002-19.004-30.996-31.006-20-26.006c30,15,77.002,62.002,62.002,62.002
		C6395.996,7959.999,6377.001,7944.003,6355,7924.003z"/>
</g>
</svg>
