<?xml version="1.0" standalone="no"?>
<!DOCTYPE svg PUBLIC "-//W3C//DTD SVG 20010904//EN"
 "http://www.w3.org/TR/2001/REC-SVG-20010904/DTD/svg10.dtd">
<svg version="1.0" xmlns="http://www.w3.org/2000/svg"
 width="1200.000000pt" height="1600.000000pt" viewBox="0 0 1200.000000 1600.000000"
 preserveAspectRatio="xMidYMid meet">

<g transform="translate(0.000000,1600.000000) scale(0.100000,-0.100000)"
fill="#000000" stroke="none">
<path d="M5750 11535 c-52 -8 -140 -24 -195 -36 -55 -11 -110 -23 -121 -25
-37 -7 -141 -103 -194 -179 -48 -70 -70 -123 -76 -184 -8 -75 6 -134 51 -208
25 -42 35 -70 35 -100 0 -33 6 -48 27 -67 27 -25 27 -26 29 -183 3 -193 29
-462 50 -511 8 -20 22 -45 32 -55 13 -15 18 -54 26 -215 10 -212 4 -292 -20
-292 -11 0 -12 -4 -4 -19 18 -34 11 -63 -25 -102 -41 -45 -51 -87 -12 -51 12
11 34 25 48 31 25 9 27 7 33 -21 6 -31 6 -31 27 -12 22 19 22 19 14 -5 -6 -21
-5 -23 15 -18 16 4 20 2 16 -9 -20 -49 -20 -47 2 -35 11 6 24 16 27 21 15 24
27 7 24 -33 -4 -38 -1 -45 19 -55 20 -9 25 -7 41 20 11 16 21 25 25 20 8 -13
-9 -66 -37 -116 l-24 -43 216 -13 c168 -10 233 -10 291 -1 41 7 76 15 77 19 2
4 77 6 168 4 91 -1 165 0 165 2 0 3 -4 16 -10 31 -5 14 -7 58 -3 100 l6 74 33
-70 c18 -38 45 -80 58 -94 30 -29 51 -34 37 -7 -16 30 -33 133 -26 159 l6 26
17 -24 c9 -13 24 -40 33 -59 l16 -35 -4 70 -5 70 32 -37 c55 -66 93 -44 59 33
-19 43 -19 44 0 22 11 -13 22 -23 26 -23 4 0 15 -10 26 -22 l18 -23 1 23 c0
12 -16 54 -35 92 -29 57 -33 74 -25 90 9 16 8 20 -5 20 -10 0 -15 7 -13 18 1
9 -1 23 -6 31 -5 8 -9 76 -8 152 1 129 5 152 51 346 65 272 69 296 81 511 7
135 14 189 25 205 8 12 15 39 15 60 0 27 13 62 40 113 66 119 64 225 -8 342
-55 91 -172 208 -215 216 -12 2 -47 9 -77 16 -228 48 -263 52 -530 55 -193 3
-291 0 -360 -10z"/>
<path d="M5302 9220 c-12 -16 -30 -44 -41 -63 -19 -34 -19 -34 1 -51 26 -23
51 -13 89 35 29 37 31 42 18 65 -22 43 -43 47 -67 14z"/>
<path d="M6788 9212 c-16 -26 -15 -29 13 -67 38 -51 66 -62 92 -37 20 20 18
27 -34 111 -19 29 -51 27 -71 -7z"/>
<path d="M5311 9049 c-20 -58 -16 -71 25 -67 51 4 65 29 38 65 -30 40 -50 40
-63 2z"/>
<path d="M6783 9044 c-17 -34 -17 -36 2 -50 10 -8 32 -14 48 -14 27 0 28 2 22
33 -17 76 -45 88 -72 31z"/>
<path d="M5200 8942 c-30 -10 -40 -46 -15 -56 22 -8 45 4 45 23 0 24 -13 39
-30 33z"/>
<path d="M6929 8929 c-9 -17 -7 -24 9 -40 18 -16 22 -16 33 -3 9 11 9 21 1 39
-14 31 -28 32 -43 4z"/>
</g>
</svg>
