<?xml version="1.0" standalone="no"?>
<!DOCTYPE svg PUBLIC "-//W3C//DTD SVG 20010904//EN"
 "http://www.w3.org/TR/2001/REC-SVG-20010904/DTD/svg10.dtd">
<svg version="1.0" xmlns="http://www.w3.org/2000/svg"
 width="1200.000000pt" height="1600.000000pt" viewBox="0 0 1200.000000 1600.000000"
 preserveAspectRatio="xMidYMid meet">

<g transform="translate(0.000000,1600.000000) scale(0.100000,-0.100000)"
fill="#000000" stroke="none">
<path d="M5810 11539 c-41 -5 -122 -18 -180 -29 -236 -47 -212 -36 -319 -140
-78 -75 -128 -163 -141 -247 -8 -46 -8 -69 0 -77 5 -5 10 -25 10 -42 0 -33 30
-94 62 -126 10 -10 18 -28 18 -40 0 -13 14 -50 30 -82 17 -32 30 -65 30 -73 0
-24 51 -117 91 -165 30 -36 40 -58 44 -95 6 -55 18 -122 41 -211 14 -58 101
-239 146 -304 11 -16 17 -28 14 -28 -3 0 3 -9 14 -20 16 -16 18 -25 10 -40 -6
-11 -7 -20 -1 -20 35 0 48 -417 15 -481 -8 -15 -14 -38 -14 -51 0 -13 -22 -70
-50 -128 -27 -58 -50 -110 -50 -116 0 -7 -13 -40 -30 -75 -16 -35 -35 -96 -41
-136 -21 -127 16 -286 81 -348 16 -15 26 -33 24 -40 -3 -6 2 -18 11 -25 9 -8
15 -29 15 -59 1 -138 87 -330 223 -494 48 -58 64 -67 148 -83 55 -10 75 -10
112 1 117 35 203 112 260 235 65 140 117 278 122 325 6 49 35 98 84 144 50 46
64 92 69 223 4 118 0 144 -44 245 -8 17 -14 34 -14 37 0 4 -14 36 -31 72 -17
37 -37 100 -45 143 -8 42 -23 94 -33 116 -36 76 -54 192 -47 295 6 79 33 196
58 247 6 11 7 26 4 31 -4 6 7 32 24 58 16 26 30 51 30 55 0 3 18 39 41 80 40
73 89 239 105 363 5 35 16 58 36 80 16 16 40 53 54 80 14 28 32 58 40 67 8 8
14 25 14 37 0 12 4 30 9 40 5 9 17 43 26 74 9 32 21 60 25 63 20 12 58 96 64
141 19 136 -19 239 -128 347 -98 96 -106 101 -191 119 -239 52 -307 60 -540
63 -126 2 -264 0 -305 -6z"/>
</g>
</svg>
