<svg version="1.0" xmlns="http://www.w3.org/2000/svg"
 width="1200.000000pt" height="1600.000000pt" viewBox="0 0 1200.000000 1600.000000"
 preserveAspectRatio="xMidYMid meet">

<g transform="translate(0.000000,1600.000000) scale(0.100000,-0.100000)"
fill="#000000" stroke="none">
<path d="M5878 13945 c-246 -40 -459 -189 -583 -408 -73 -128 -93 -183 -105
-283 -11 -102 -7 -182 20 -344 12 -69 19 -155 18 -215 -2 -79 3 -116 21 -175
71 -235 210 -397 424 -497 60 -28 193 -70 243 -77 22 -3 66 -10 99 -15 131
-19 381 42 550 135 158 87 318 301 346 464 5 30 14 127 19 215 5 88 14 175 19
193 5 18 13 72 16 119 4 48 8 90 11 94 7 12 -24 202 -40 247 -39 108 -98 201
-184 290 -48 49 -106 100 -129 113 -23 13 -70 41 -105 61 -35 20 -103 49 -153
64 -77 22 -113 27 -245 30 -102 2 -185 -2 -242 -11z"/>
</g>
</svg>
