<svg width="2400" height="3200" xmlns="http://www.w3.org/2000/svg" viewBox="0 0 2400 3200"><path d="M 1218.88 818.41 C 1210.42 818.67 1201.7 818.49 1199.5 818.02 C 1197.3 817.55 1193.03 816.76 1190.0 816.27 C 1186.97 815.78 1183.55 814.86 1182.38 814.22 C 1181.22 813.59 1180.01 813.32 1179.71 813.63 C 1179.4 813.93 1177.43 813.62 1175.32 812.93 C 1173.22 812.24 1168.8 810.8 1165.5 809.73 C 1162.2 808.67 1158.6 807.45 1157.5 807.03 C 1156.4 806.61 1153.03 805.36 1150.0 804.25 C 1146.97 803.14 1142.92 801.64 1141.0 800.92 C 1139.08 800.2 1136.02 798.8 1134.22 797.81 C 1132.42 796.81 1130.31 796.0 1129.54 796.0 C 1128.77 796.0 1126.53 794.99 1124.56 793.75 C 1122.59 792.51 1117.27 788.95 1112.74 785.83 C 1108.21 782.72 1102.92 778.98 1101.0 777.54 C 1099.08 776.09 1093.48 771.89 1088.58 768.21 C 1082.78 763.85 1077.45 758.7 1073.36 753.5 C 1069.9 749.1 1065.03 742.14 1062.53 738.03 C 1060.04 733.92 1058.0 729.97 1058.0 729.25 C 1058.0 728.52 1057.36 726.93 1056.58 725.71 C 1055.8 724.5 1053.6 718.77 1051.7 713.0 C 1049.8 707.23 1047.7 699.35 1047.02 695.5 C 1046.35 691.65 1045.39 687.47 1044.9 686.2 C 1044.4 684.94 1044.0 674.36 1044.0 662.7 C 1044.0 647.25 1043.58 639.6 1042.45 634.5 C 1041.6 630.65 1040.64 625.8 1040.32 623.73 C 1039.99 621.65 1039.34 619.71 1038.87 619.42 C 1038.39 619.12 1038.0 617.86 1038.0 616.61 C 1038.0 615.36 1037.69 614.02 1037.31 613.65 C 1036.94 613.27 1036.56 612.18 1036.48 611.23 C 1036.41 610.28 1035.85 607.25 1035.24 604.5 C 1034.63 601.75 1033.62 596.63 1033.0 593.13 C 1032.38 589.63 1031.96 580.18 1032.06 572.13 C 1032.17 564.08 1032.7 556.94 1033.24 556.26 C 1033.79 555.57 1034.0 554.1 1033.71 552.98 C 1033.41 551.86 1033.56 549.5 1034.03 547.73 C 1034.49 545.95 1035.12 543.15 1035.43 541.5 C 1035.73 539.85 1036.65 534.9 1037.47 530.5 C 1038.29 526.1 1039.69 520.25 1040.58 517.5 C 1041.46 514.75 1043.1 510.48 1044.21 508.0 C 1045.33 505.52 1047.87 500.8 1049.86 497.5 C 1051.85 494.2 1053.76 491.27 1054.11 491.0 C 1054.45 490.73 1055.75 488.49 1057.0 486.03 C 1058.24 483.57 1060.22 480.21 1061.38 478.56 C 1062.55 476.91 1063.95 475.01 1064.5 474.35 C 1065.05 473.69 1067.3 470.84 1069.5 468.01 C 1071.7 465.18 1076.88 459.57 1081.0 455.54 C 1085.12 451.51 1091.2 445.92 1094.5 443.12 C 1097.8 440.31 1101.0 438.01 1101.61 438.01 C 1102.23 438.0 1104.25 436.65 1106.11 434.99 C 1107.98 433.33 1110.62 431.69 1112.0 431.34 C 1113.38 430.98 1114.73 430.35 1115.01 429.93 C 1115.28 429.52 1119.9 427.11 1125.26 424.59 C 1130.62 422.06 1135.38 420.0 1135.82 420.0 C 1136.26 420.0 1138.49 419.1 1140.76 418.0 C 1143.04 416.9 1145.58 416.0 1146.4 416.0 C 1147.23 416.0 1149.16 415.49 1150.7 414.88 C 1152.24 414.26 1154.4 413.4 1155.5 412.97 C 1156.6 412.54 1159.53 411.73 1162.0 411.16 C 1164.47 410.6 1168.53 409.68 1171.0 409.13 C 1173.47 408.57 1179.33 407.82 1184.0 407.46 C 1188.67 407.1 1199.7 406.71 1208.5 406.61 C 1217.3 406.5 1231.25 406.78 1239.5 407.21 C 1247.75 407.65 1256.75 408.5 1259.5 409.1 C 1262.25 409.69 1266.3 410.63 1268.5 411.17 C 1270.7 411.71 1275.56 413.11 1279.31 414.27 C 1283.05 415.43 1286.34 416.74 1286.62 417.19 C 1286.89 417.63 1288.01 418.0 1289.1 418.0 C 1290.19 418.0 1294.1 419.38 1297.79 421.07 C 1301.48 422.75 1307.2 425.53 1310.5 427.24 C 1313.8 428.95 1317.85 431.16 1319.5 432.15 C 1321.15 433.14 1324.53 435.05 1327.0 436.4 C 1329.47 437.74 1333.75 440.9 1336.5 443.42 C 1339.25 445.93 1341.81 447.99 1342.2 448.0 C 1342.58 448.0 1346.59 451.82 1351.1 456.49 C 1355.62 461.16 1360.03 466.04 1360.91 467.35 C 1361.78 468.65 1364.68 472.59 1367.36 476.11 C 1370.03 479.62 1373.02 484.07 1374.0 486.0 C 1374.98 487.93 1377.41 491.96 1379.39 494.98 C 1381.38 497.99 1383.0 501.03 1383.0 501.73 C 1383.0 502.43 1383.43 503.0 1383.96 503.0 C 1384.49 503.0 1385.47 504.91 1386.13 507.25 C 1386.8 509.59 1387.87 512.17 1388.51 513.0 C 1389.15 513.83 1390.61 518.55 1391.75 523.5 C 1392.89 528.45 1394.09 534.08 1394.42 536.0 C 1394.74 537.92 1395.26 540.62 1395.57 542.0 C 1395.89 543.38 1396.28 546.08 1396.45 548.0 C 1396.61 549.92 1397.04 553.08 1397.4 555.0 C 1397.76 556.92 1398.24 560.08 1398.48 562.0 C 1398.71 563.92 1398.94 569.33 1399.0 574.0 C 1399.05 578.67 1398.6 585.88 1398.0 590.0 C 1397.4 594.12 1396.71 599.3 1396.47 601.5 C 1396.23 603.7 1395.15 608.42 1394.07 612.0 C 1392.98 615.58 1391.44 620.75 1390.63 623.5 C 1389.82 626.25 1388.69 631.2 1388.11 634.5 C 1387.53 637.8 1386.86 651.3 1386.62 664.5 C 1386.22 686.54 1385.97 689.32 1383.52 698.5 C 1382.06 704.0 1380.63 709.62 1380.34 711.0 C 1380.05 712.38 1378.7 715.95 1377.34 718.94 C 1375.97 721.92 1374.18 726.34 1373.36 728.76 C 1372.54 731.17 1369.9 736.15 1367.49 739.82 C 1365.08 743.49 1362.0 747.85 1360.64 749.5 C 1359.29 751.15 1356.33 754.86 1354.08 757.73 C 1351.82 760.61 1348.75 763.74 1347.24 764.68 C 1345.73 765.63 1343.75 767.15 1342.84 768.06 C 1341.92 768.98 1336.79 772.83 1331.43 776.61 C 1326.07 780.4 1319.4 785.18 1316.6 787.23 C 1313.79 789.28 1307.45 792.92 1302.5 795.32 C 1297.55 797.72 1291.92 800.27 1290.0 801.0 C 1288.08 801.73 1286.07 802.7 1285.55 803.16 C 1285.03 803.62 1283.8 804.0 1282.83 804.0 C 1281.85 804.0 1279.13 804.86 1276.78 805.9 C 1274.42 806.95 1269.35 808.71 1265.5 809.81 C 1261.65 810.9 1255.35 812.59 1251.5 813.55 C 1247.65 814.5 1242.68 815.59 1240.46 815.95 C 1238.24 816.32 1235.94 816.92 1235.35 817.29 C 1234.75 817.65 1227.35 818.16 1218.88 818.41 Z M 1219.86 811.4 C 1223.9 811.16 1228.11 810.48 1229.2 809.89 C 1230.29 809.31 1233.51 808.71 1236.34 808.56 C 1239.18 808.41 1242.85 807.8 1244.5 807.2 C 1246.15 806.61 1249.3 805.69 1251.5 805.15 C 1253.7 804.62 1257.97 803.66 1261.0 803.02 C 1264.03 802.38 1267.4 801.46 1268.5 800.98 C 1269.6 800.49 1273.88 799.14 1278.0 797.98 C 1282.12 796.82 1287.08 795.17 1289.0 794.32 C 1290.92 793.46 1294.08 792.1 1296.0 791.3 C 1297.92 790.49 1300.85 789.21 1302.5 788.45 C 1304.15 787.69 1309.48 784.88 1314.34 782.19 C 1319.2 779.51 1325.1 775.64 1327.45 773.6 C 1329.8 771.55 1332.8 769.15 1334.11 768.26 C 1335.43 767.37 1339.57 763.46 1343.31 759.57 C 1347.06 755.68 1351.41 750.61 1352.99 748.31 C 1354.56 746.01 1356.87 742.63 1358.11 740.81 C 1359.35 738.99 1361.11 736.38 1362.01 735.0 C 1362.92 733.62 1364.19 730.96 1364.84 729.07 C 1365.49 727.19 1367.33 723.59 1368.93 721.07 C 1370.53 718.56 1373.0 713.17 1374.41 709.11 C 1375.82 705.05 1377.69 698.07 1378.55 693.61 C 1379.42 689.15 1380.62 681.45 1381.23 676.5 C 1381.83 671.55 1382.23 660.98 1382.1 653.0 C 1381.98 645.02 1382.39 635.35 1383.03 631.5 C 1383.67 627.65 1384.3 623.6 1384.43 622.5 C 1384.56 621.4 1385.43 615.1 1386.36 608.5 C 1387.28 601.9 1388.47 593.8 1388.99 590.5 C 1389.51 587.2 1390.2 578.65 1390.53 571.5 C 1390.85 564.35 1390.68 554.9 1390.14 550.5 C 1389.6 546.1 1388.25 538.89 1387.14 534.47 C 1386.03 530.05 1383.74 523.53 1382.06 519.97 C 1380.38 516.41 1379.0 512.71 1379.0 511.75 C 1379.0 510.79 1378.64 510.0 1378.2 510.0 C 1377.76 510.0 1376.84 508.43 1376.14 506.52 C 1375.45 504.61 1374.88 502.69 1374.87 502.27 C 1374.86 501.85 1374.25 501.16 1373.5 500.74 C 1372.75 500.32 1371.43 498.56 1370.57 496.83 C 1369.71 495.11 1369.0 493.09 1369.0 492.35 C 1369.0 491.61 1368.62 491.0 1368.16 491.0 C 1367.69 491.0 1366.25 488.86 1364.95 486.25 C 1363.65 483.64 1360.55 479.05 1358.05 476.05 C 1355.55 473.05 1353.49 470.35 1353.47 470.05 C 1353.45 469.75 1351.2 467.37 1348.47 464.77 C 1345.74 462.17 1341.15 457.89 1338.27 455.27 C 1335.4 452.65 1331.58 449.38 1329.8 448.0 C 1328.02 446.62 1326.27 445.59 1325.91 445.71 C 1325.56 445.82 1324.23 444.81 1322.96 443.46 C 1321.69 442.11 1320.11 441.0 1319.45 441.0 C 1318.79 441.0 1317.71 440.36 1317.06 439.57 C 1316.41 438.79 1313.54 436.93 1310.69 435.44 C 1307.83 433.96 1305.28 432.41 1305.0 432.01 C 1304.72 431.6 1302.59 430.3 1300.25 429.11 C 1297.91 427.93 1296.0 427.26 1296.0 427.63 C 1296.0 428.01 1295.21 427.64 1294.25 426.82 C 1293.29 426.0 1288.9 423.95 1284.5 422.27 C 1280.1 420.58 1274.03 418.37 1271.0 417.36 C 1267.97 416.35 1265.05 415.48 1264.5 415.42 C 1263.95 415.37 1261.92 415.02 1260.0 414.65 C 1258.08 414.27 1252.45 413.7 1247.5 413.36 C 1242.55 413.03 1229.72 412.73 1219.0 412.69 C 1208.28 412.66 1194.23 412.85 1187.78 413.11 C 1181.34 413.38 1175.75 413.92 1175.37 414.3 C 1174.98 414.69 1172.49 415.0 1169.83 415.0 C 1167.18 415.0 1165.0 415.44 1165.0 415.99 C 1165.0 416.53 1163.99 416.94 1162.75 416.9 C 1161.51 416.86 1158.25 417.62 1155.5 418.59 C 1152.75 419.56 1148.53 421.2 1146.12 422.24 C 1143.7 423.29 1137.4 426.23 1132.12 428.79 C 1126.83 431.34 1122.05 433.95 1121.5 434.59 C 1120.95 435.22 1118.03 437.03 1115.02 438.62 C 1112.0 440.2 1107.95 443.01 1106.02 444.85 C 1104.08 446.69 1100.92 449.22 1098.99 450.46 C 1097.05 451.71 1094.86 453.46 1094.11 454.36 C 1093.37 455.26 1092.31 456.0 1091.77 456.0 C 1091.23 456.0 1087.02 459.94 1082.41 464.75 C 1077.81 469.56 1074.03 473.79 1074.02 474.16 C 1074.01 474.52 1072.54 476.62 1070.75 478.83 C 1068.96 481.05 1066.41 484.66 1065.08 486.87 C 1063.76 489.08 1062.41 490.86 1062.08 490.83 C 1061.76 490.79 1060.94 490.82 1060.25 490.88 C 1059.56 490.95 1059.0 491.44 1059.0 491.97 C 1059.0 492.5 1059.67 492.68 1060.5 492.36 C 1061.44 492.0 1062.0 492.37 1062.0 493.33 C 1062.0 494.19 1061.58 495.14 1061.06 495.46 C 1060.55 495.78 1059.42 497.45 1058.56 499.17 C 1057.7 500.9 1057.0 502.9 1057.0 503.62 C 1057.0 504.34 1055.66 506.46 1054.02 508.32 C 1052.39 510.19 1051.27 511.94 1051.55 512.22 C 1051.83 512.5 1050.73 515.6 1049.11 519.11 C 1047.48 522.63 1045.63 527.75 1044.99 530.5 C 1044.35 533.25 1043.43 536.4 1042.93 537.5 C 1042.44 538.6 1041.55 543.55 1040.96 548.5 C 1040.36 553.45 1039.9 562.05 1039.92 567.62 C 1039.94 573.18 1040.19 578.35 1040.48 579.12 C 1040.76 579.88 1041.45 584.55 1042.0 589.5 C 1042.55 594.45 1043.17 599.85 1043.38 601.5 C 1043.59 603.15 1044.5 609.67 1045.4 616.0 C 1046.3 622.33 1047.48 629.52 1048.01 632.0 C 1048.55 634.48 1048.92 644.38 1048.83 654.0 C 1048.74 663.62 1049.16 674.65 1049.75 678.5 C 1050.34 682.35 1051.1 687.08 1051.44 689.0 C 1051.78 690.92 1052.77 695.65 1053.65 699.5 C 1054.52 703.35 1055.86 707.5 1056.62 708.71 C 1057.38 709.93 1058.0 711.74 1058.0 712.73 C 1058.0 713.72 1059.12 716.19 1060.5 718.21 C 1061.88 720.24 1063.0 722.33 1063.0 722.86 C 1063.0 723.4 1064.1 726.03 1065.45 728.71 C 1066.8 731.4 1069.4 736.08 1071.23 739.12 C 1073.06 742.17 1075.67 746.13 1077.03 747.93 C 1078.39 749.73 1083.19 754.96 1087.71 759.55 C 1092.22 764.15 1097.28 768.61 1098.96 769.48 C 1100.63 770.34 1102.0 771.46 1102.0 771.95 C 1102.0 772.44 1105.04 774.86 1108.75 777.32 C 1112.46 779.78 1120.08 784.09 1125.68 786.9 C 1131.27 789.7 1136.12 792.0 1136.44 792.0 C 1136.76 792.0 1138.93 792.85 1141.26 793.88 C 1143.59 794.92 1148.2 796.58 1151.5 797.58 C 1154.8 798.58 1158.4 799.54 1159.5 799.7 C 1160.6 799.87 1162.4 800.4 1163.5 800.89 C 1164.6 801.38 1167.35 802.28 1169.62 802.89 C 1171.88 803.5 1174.84 804.0 1176.2 804.0 C 1177.56 804.0 1178.99 804.32 1179.38 804.72 C 1179.78 805.11 1182.21 805.99 1184.8 806.68 C 1187.38 807.37 1191.3 808.19 1193.5 808.5 C 1195.7 808.81 1200.88 809.69 1205.0 810.45 C 1209.16 811.22 1215.78 811.64 1219.86 811.4 Z M 1057.0 498.5 C 1057.55 498.16 1058.0 497.43 1058.0 496.88 C 1058.0 496.33 1057.55 496.16 1057.0 496.5 C 1056.45 496.84 1056.0 497.57 1056.0 498.12 C 1056.0 498.67 1056.45 498.84 1057.0 498.5 Z M 1370.67 491.67 C 1371.03 491.3 1371.03 490.7 1370.67 490.33 C 1370.3 489.97 1370.0 490.27 1370.0 491.0 C 1370.0 491.73 1370.3 492.03 1370.67 491.67 Z " opacity="1.0" fill="#0B0D0F" stroke="none" fill-rule="evenodd"/></svg>