<svg width="2400" height="3200" xmlns="http://www.w3.org/2000/svg" viewBox="0 0 2400 3200"><path d="M 1213.88 815.88 C 1213.12 815.82 1211.15 815.42 1209.5 815.0 C 1207.85 814.58 1204.59 814.18 1202.26 814.12 C 1199.93 814.05 1195.88 813.5 1193.26 812.88 C 1190.64 812.27 1187.77 811.4 1186.88 810.95 C 1185.94 810.48 1184.8 810.6 1184.17 811.23 C 1183.43 811.97 1182.68 811.99 1181.79 811.29 C 1181.08 810.73 1178.7 810.0 1176.5 809.68 C 1174.3 809.35 1169.35 808.2 1165.5 807.12 C 1161.65 806.04 1156.25 804.39 1153.5 803.45 C 1150.75 802.52 1145.35 800.41 1141.5 798.76 C 1137.65 797.12 1131.35 794.23 1127.5 792.35 C 1123.65 790.46 1117.58 787.26 1114.0 785.23 C 1109.38 782.61 1102.88 776.92 1091.5 765.52 C 1082.7 756.71 1074.38 747.98 1073.0 746.13 C 1071.62 744.28 1069.2 740.9 1067.62 738.63 C 1066.04 736.36 1062.95 730.67 1060.75 726.0 C 1058.55 721.33 1055.2 713.23 1053.3 708.0 C 1051.41 702.77 1048.53 693.11 1046.93 686.53 C 1045.26 679.71 1044.0 671.82 1044.0 668.22 C 1044.0 664.73 1044.47 658.86 1045.04 655.16 C 1045.86 649.92 1045.74 645.92 1044.51 636.97 C 1043.64 630.66 1042.47 623.02 1041.92 620.0 C 1041.36 616.98 1040.46 612.02 1039.92 609.0 C 1039.39 605.98 1038.43 598.55 1037.8 592.5 C 1037.16 586.45 1036.66 574.0 1036.69 564.82 C 1036.72 552.73 1037.21 546.0 1038.48 540.32 C 1039.44 536.02 1041.04 530.25 1042.02 527.5 C 1043.0 524.75 1044.68 520.25 1045.74 517.5 C 1046.8 514.75 1049.29 509.57 1051.28 506.0 C 1053.26 502.43 1056.55 496.35 1058.57 492.5 C 1060.6 488.65 1063.48 483.93 1064.99 482.0 C 1066.49 480.07 1068.34 477.28 1069.11 475.8 C 1069.88 474.31 1073.88 469.41 1078.0 464.89 C 1082.13 460.38 1086.19 455.66 1087.04 454.39 C 1087.88 453.13 1090.36 450.89 1092.54 449.42 C 1094.72 447.95 1096.72 446.46 1097.0 446.11 C 1097.28 445.76 1099.75 443.66 1102.5 441.45 C 1105.25 439.24 1109.32 436.26 1111.55 434.83 C 1113.78 433.41 1118.05 430.99 1121.05 429.46 C 1124.05 427.94 1131.0 424.69 1136.5 422.25 C 1142.0 419.8 1150.33 416.55 1155.0 415.02 C 1159.67 413.5 1167.21 411.75 1171.75 411.14 C 1176.29 410.53 1183.72 409.53 1188.25 408.92 C 1193.48 408.21 1205.83 407.99 1222.0 408.31 C 1236.03 408.59 1250.2 409.3 1253.5 409.89 C 1256.8 410.47 1261.3 411.36 1263.5 411.87 C 1265.7 412.38 1269.97 413.55 1273.0 414.47 C 1276.03 415.39 1281.2 417.05 1284.5 418.16 C 1287.8 419.27 1293.88 421.88 1298.0 423.96 C 1302.12 426.04 1308.2 429.53 1311.5 431.73 C 1314.8 433.92 1319.53 436.73 1322.0 437.97 C 1324.47 439.21 1328.79 441.98 1331.59 444.11 C 1334.39 446.25 1337.0 448.0 1337.38 448.0 C 1337.76 448.0 1339.97 449.96 1342.29 452.35 C 1344.6 454.74 1348.99 459.38 1352.04 462.66 C 1355.09 465.94 1360.99 472.87 1365.14 478.06 C 1370.22 484.39 1374.54 491.29 1378.29 499.0 C 1381.36 505.32 1384.61 512.3 1385.51 514.5 C 1386.42 516.7 1388.04 521.2 1389.12 524.5 C 1390.2 527.8 1391.76 534.77 1392.58 540.0 C 1393.4 545.23 1394.53 553.1 1395.09 557.5 C 1395.78 562.94 1395.77 568.59 1395.07 575.14 C 1394.5 580.45 1393.63 585.85 1393.14 587.14 C 1392.62 588.54 1392.63 590.51 1393.18 591.97 C 1393.75 593.5 1393.72 596.15 1393.11 598.97 C 1392.56 601.46 1391.82 605.71 1391.47 608.42 C 1391.12 611.12 1390.19 614.31 1389.41 615.5 C 1388.63 616.69 1388.22 617.89 1388.51 618.17 C 1388.79 618.45 1388.34 624.49 1387.51 631.59 C 1386.68 638.68 1385.98 649.89 1385.96 656.49 C 1385.94 663.1 1385.54 672.91 1385.05 678.29 C 1384.57 683.67 1383.71 688.65 1383.13 689.34 C 1382.56 690.04 1382.33 691.54 1382.63 692.69 C 1382.93 693.83 1382.44 697.64 1381.55 701.14 C 1380.65 704.64 1378.48 710.64 1376.71 714.47 C 1374.94 718.31 1373.48 721.68 1373.45 721.97 C 1373.42 722.26 1372.07 724.71 1370.45 727.42 C 1368.83 730.13 1365.07 735.98 1362.09 740.42 C 1359.12 744.86 1354.57 750.98 1351.99 754.0 C 1349.41 757.02 1347.12 760.01 1346.9 760.64 C 1346.68 761.26 1343.56 764.41 1339.97 767.64 C 1336.38 770.86 1331.18 775.38 1328.42 777.68 C 1325.65 779.98 1316.89 785.23 1308.95 789.34 C 1301.0 793.46 1291.8 797.81 1288.5 799.01 C 1285.2 800.22 1278.67 802.56 1274.0 804.23 C 1269.33 805.9 1263.92 807.69 1262.0 808.21 C 1260.08 808.74 1256.47 809.54 1254.0 809.99 C 1251.53 810.44 1244.55 811.53 1238.5 812.41 C 1232.45 813.29 1224.75 814.46 1221.38 815.01 C 1218.02 815.55 1214.65 815.95 1213.88 815.88 Z " opacity="1.0" fill="#000000" stroke="none" fill-rule="evenodd"/></svg>