<svg version="1.0" xmlns="http://www.w3.org/2000/svg"
 width="1200.000000pt" height="1600.000000pt" viewBox="0 0 1200.000000 1600.000000"
 preserveAspectRatio="xMidYMid meet">

<g transform="translate(0.000000,1600.000000) scale(0.100000,-0.100000)"
fill="#000000" stroke="none">
<path d="M5885 13960 c-111 -15 -275 -80 -376 -149 -127 -86 -280 -293 -312
-421 -44 -177 -46 -331 -7 -470 15 -53 24 -121 29 -230 15 -287 81 -424 274
-569 136 -103 264 -160 448 -200 209 -45 490 31 713 193 116 85 160 135 207
234 51 105 70 193 75 332 4 138 10 186 30 243 29 82 36 203 18 322 -26 182
-45 227 -163 396 -108 154 -350 291 -565 319 -84 11 -286 11 -371 0z m455 -46
c189 -56 382 -189 467 -322 50 -77 108 -197 127 -262 21 -69 21 -224 0 -350
-8 -52 -19 -169 -24 -260 -10 -180 -26 -252 -79 -353 -40 -78 -73 -121 -140
-185 -123 -117 -261 -175 -556 -232 -66 -13 -124 -4 -315 46 -102 27 -256 97
-305 139 -104 89 -144 138 -188 227 -61 122 -79 203 -82 363 -1 72 -5 144 -9
160 -37 173 -43 342 -15 450 16 59 116 253 157 303 92 115 319 255 447 279
140 25 425 24 515 -3z"/>
</g>
</svg>
