<?xml version="1.0" standalone="no"?>
<!DOCTYPE svg PUBLIC "-//W3C//DTD SVG 20010904//EN"
 "http://www.w3.org/TR/2001/REC-SVG-20010904/DTD/svg10.dtd">
<svg version="1.0" xmlns="http://www.w3.org/2000/svg"
 width="1200.000000pt" height="1600.000000pt" viewBox="0 0 1200.000000 1600.000000"
 preserveAspectRatio="xMidYMid meet">

<g transform="translate(0.000000,1600.000000) scale(0.100000,-0.100000)"
fill="#000000" stroke="none">
<path d="M4733 14300 c-7 -10 -31 -24 -54 -30 -87 -24 -194 -80 -235 -125 -23
-24 -39 -47 -36 -50 12 -11 47 -4 66 14 35 32 173 74 220 68 115 -16 132 -21
146 -41 8 -12 33 -41 55 -66 71 -79 99 -130 147 -269 25 -75 57 -167 71 -206
27 -78 40 -155 26 -155 -19 0 -124 58 -143 79 -11 12 -25 21 -31 21 -7 0 -24
9 -39 21 -24 19 -26 19 -26 2 0 -44 58 -179 105 -247 21 -29 19 -56 -3 -56
-10 0 -44 5 -76 11 -32 6 -60 8 -63 6 -10 -11 30 -69 60 -87 28 -17 29 -20 10
-20 -12 0 -25 5 -28 10 -3 6 -16 10 -28 10 -12 0 -37 9 -54 20 -37 22 -39 20
-19 -18 30 -57 261 -262 295 -262 22 0 41 -19 41 -41 0 -13 -9 -19 -32 -21
-47 -4 -45 -22 6 -58 26 -17 46 -36 46 -42 0 -5 -11 -23 -25 -40 -14 -16 -25
-35 -25 -43 0 -47 -218 -71 -373 -40 -92 18 -109 16 -87 -10 27 -33 90 -55
187 -66 112 -12 208 -6 297 21 33 10 73 21 89 24 29 7 38 36 10 36 -9 0 -13 3
-10 7 4 3 0 15 -10 25 -15 17 -15 18 6 18 12 0 20 4 17 9 -3 4 7 14 22 21 25
11 26 13 7 20 -11 4 -31 20 -45 34 l-24 27 42 -7 42 -7 -12 33 c-16 47 -3 247
23 345 12 44 21 99 20 123 -1 24 3 51 8 60 8 13 13 3 27 -46 9 -34 20 -60 22
-57 3 3 4 58 3 122 -1 88 1 114 10 103 8 -11 9 0 5 45 -5 65 -5 65 44 -16 20
-33 26 -37 28 -21 2 12 -4 34 -12 51 -9 16 -16 34 -16 38 1 4 12 -14 26 -40
14 -27 27 -47 30 -45 2 3 -9 50 -24 106 -29 101 -61 155 -108 182 -12 7 -52
50 -90 96 -99 121 -245 284 -255 284 -5 0 -12 0 -16 1 -5 0 -33 24 -64 52 -31
29 -63 57 -70 64 -8 7 -20 19 -27 28 -19 22 -84 20 -99 -5z"/>
<path d="M7318 14304 c-7 -8 -26 -27 -42 -42 -80 -73 -109 -96 -124 -99 -10
-1 -36 -24 -60 -50 -24 -26 -62 -68 -85 -93 -23 -25 -50 -58 -60 -74 -31 -49
-100 -126 -139 -155 -66 -49 -93 -94 -122 -197 -15 -53 -25 -99 -22 -101 2 -3
14 12 26 34 12 21 18 29 14 18 -4 -11 -9 -33 -12 -50 l-5 -30 20 25 c11 14 28
40 37 58 21 41 31 36 19 -10 -11 -41 -6 -78 8 -57 7 9 9 -27 7 -103 -1 -64 0
-119 3 -122 3 -4 14 22 23 56 14 49 19 59 27 46 5 -9 9 -36 8 -60 -1 -24 8
-79 20 -123 26 -98 39 -298 23 -345 l-12 -33 42 7 42 7 -24 -27 c-14 -14 -34
-30 -45 -34 -19 -7 -18 -9 7 -20 15 -7 25 -17 22 -21 -3 -5 5 -9 17 -9 21 0
21 -1 6 -18 -10 -10 -14 -22 -10 -25 3 -4 -1 -7 -10 -7 -28 0 -19 -29 11 -36
15 -3 55 -14 88 -24 138 -41 357 -33 441 15 85 50 71 63 -44 40 -66 -13 -115
-16 -200 -12 -122 6 -169 23 -179 64 -3 12 -14 29 -25 39 -28 26 -24 39 26 75
51 37 53 53 7 57 -23 2 -32 8 -32 21 0 22 19 41 41 41 45 0 309 249 309 291 0
5 -15 0 -32 -11 -18 -11 -43 -20 -55 -20 -12 0 -25 -4 -28 -10 -3 -5 -14 -10
-23 -10 -13 0 -11 5 9 23 29 25 63 76 56 83 -3 3 -33 0 -67 -6 -98 -18 -112
-3 -60 68 17 23 27 42 24 42 -3 0 3 15 13 33 25 41 53 124 53 153 l0 23 -25
-24 c-13 -14 -30 -25 -38 -25 -7 0 -24 -11 -36 -24 -22 -24 -120 -76 -142 -76
-19 0 10 115 66 265 14 39 37 104 50 146 26 78 73 154 157 249 43 48 55 56
106 67 31 6 70 12 85 12 40 1 150 -36 192 -65 34 -23 65 -30 77 -19 3 3 -13
26 -36 50 -41 45 -148 101 -235 125 -23 6 -47 20 -54 30 -15 25 -80 27 -99 4z"/>
</g>
</svg>
