<?xml version="1.0" encoding="utf-8"?>
<!-- Generator: Adobe Illustrator 16.0.0, SVG Export Plug-In . SVG Version: 6.00 Build 0)  -->
<!DOCTYPE svg PUBLIC "-//W3C//DTD SVG 1.1//EN" "http://www.w3.org/Graphics/SVG/1.1/DTD/svg11.dtd">
<svg version="1.1" id="Layer_1" xmlns="http://www.w3.org/2000/svg" xmlns:xlink="http://www.w3.org/1999/xlink" x="0px" y="0px"
	 width="1200px" height="1600px" viewBox="0 0 1200 1600" enable-background="new 0 0 1200 1600" xml:space="preserve">
<g id="Layer_2">
	<g opacity="0.3">
		<path fill="#FF9796" d="M519.818,279.609c0,0,1.474-58.575-43.818-97.859c-8.997-7.803-41.033,13.76-48,26.25
			c-11.836,21.221-13.544,46.608-12.879,53.25c0.914,9.138,19.313,53.252,50.635,72.469c1.701,1.044-1.232,1.993,0.536,2.906
			c15.102,7.794,37.297,10.552,56.542,3.063c22.872-8.902,6.837-19.084,2.479-18.938c-8.499,0.286-15.349-3.467-18.375-5.313
			c-1.646-1.004,11.492-3.486,12.188-4.125c3.096-2.849-9.563-1.438-24.542-16.229c-7.869-7.771-12.946-14.75-12.946-14.75
			s8.949,1.384,9.354,1.327c0.405-0.057,2.175-0.493,2.175-0.493l-3.36-5.306l-3.811-4.562c0,0,13.334,5.078,17.222,3.56
			c0.714-0.279,1.449-2.61,1.449-2.61s-2.401-4.151-5.667-8.232c-4.09-5.111-10.438-23.143-10.438-23.143
			s17.031,11.906,23.375,14.594c1.223,0.518,4.875,2.625,4.875,2.625"/>
		<path fill="#FF9796" d="M695.084,267.25c0,0-0.605-46.216,44.688-85.5c8.996-7.803,41.032,13.76,48,26.25
			c11.836,21.221,13.544,46.608,12.879,53.25c-0.914,9.138-19.314,53.252-50.636,72.469c-1.7,1.044,1.233,1.993-0.536,2.906
			c-15.102,7.794-37.297,10.552-56.541,3.063c-22.871-8.902-6.838-19.084-2.479-18.938c8.499,0.286,15.348-3.467,18.375-5.313
			c1.646-1.004-11.493-3.486-12.188-4.125c-3.097-2.849,9.563-1.438,24.541-16.229c7.869-7.771,11.604-15.333,11.604-15.333
			s-7.513,2.516-7.917,2.458c-0.406-0.058-2.583,0.542-2.583,0.542l6.15-8.759l1.332-2.691c0,0-13.335,5.078-17.223,3.56
			c-0.715-0.279-1.448-2.61-1.448-2.61s2.132-4.461,5.396-8.542c4.09-5.111,10.708-22.833,10.708-22.833l-25.332,15.208
			l-2.959,0.125"/>
	</g>
</g>
<g id="Layer_1_1_">
	<g transform="translate(0.000000,1600.000000) scale(0.100000,-0.100000)">
		<path d="M4620,14330.999c7.998-5,32.002-11.001,52.998-15c37.998-7.002,42.002-26.001,5-26.001
			c-42.998,0-167.998-72.002-272.998-156.001c-20-16.001-62.998-36.997-100-48.999c-25.996-7.998-0.996-25,25.996-17.998
			c25,6.997,24.004,1.997-10.996-42.002C4250,13937,4153.999,13722,4136,13612.996c-40-236.997,26.001-445,221.997-705
			c55-72.998,110-127.998,191.006-188.994c65-49.004,66.992-67.002,3.994-28.008c-47.998,30-50,19.004-5-22.998
			c35-32.998,109.004-72.002,157.002-85c125.996-32.002,300-45.996,400-30c27.998,4.004,67.002,10,87.002,12.998
			c30,5,37.998,2.002,47.998-15.996c7.002-12.002,17.998-19.004,25.996-15.996c8.008,2.998,14.004,0.996,14.004-4.004
			c0-5.996,7.002-10,14.004-10c11.992,0,12.998,5.996,5,32.998c-6.006,17.002-15,40-21.006,51.006
			c-7.002,13.994-5.996,20.996,4.004,26.992c10,7.002,8.994,9.004-4.004,10c-10,1.006-23.994,2.002-30,3.008
			c-15,1.992-98.994-23.008-112.998-34.004c-5-5-54.004-14.004-107.998-20.996c-115-15-247.998-2.002-319.004,31.992l-42.998,20
			l55-5l55-5l-72.002,38.008c-268.994,141.992-467.002,398.994-525,680.996c-41.997,203.999,15,427.002,157.002,607.998
			c97.998,126.001,250,212.002,372.998,212.002c56.006,0,60-2.002,110-50c62.002-61.001,184.004-240,225-330
			c57.002-126.001,109.004-295,102.002-331.001c-2.998-11.997,0.996-26.997,9.004-32.998
			c15.996-13.999,33.994-97.002,41.992-198.003c3.008-42.998,10-77.998,15-77.998c12.002,0,15,247.002,3.008,258.999
			c-2.002,2.002,3.994,10,13.994,18.003c16.006,11.997,16.006,12.998,0,6.997c-12.998-3.999-18.994,1.001-22.998,23.003
			c-40,187.998-205.996,520-317.002,635c-12.998,12.998-33.994,36.997-47.998,53.999c-42.002,50-69.004,63.999-130.996,63.999
			c-58.008,0-183.008-32.998-194.004-50c-2.998-6.001-12.002-10-17.998-10c-21.006,1.001,55.996,60,110.996,87.002
			c42.002,20,69.004,25,132.002,25c44.004,0.996,77.002,5,74.004,8.999c-15,25,70-20,110.996-58.003
			c17.002-15,69.004-62.998,117.002-105.996c47.998-43.003,112.998-111.001,145-150c32.002-40,60-74.004,62.998-77.002
			s34.004-38.999,67.998-80c35-41.001,76.006-88.999,92.002-107.002c32.002-35.996,80-147.998,80-186.997
			c0-13.003,5-28.003,10.996-32.002c13.008-6.997,3.008,68.999-11.992,98.003c-5,8.999-9.004,30-9.004,46.997
			c0,43.999-34.004,116.001-70.996,148.003c-17.002,15-66.006,70.996-109.004,122.998c-222.002,271.001-384.004,401.001-545.996,435
			C4677.998,14340.999,4595,14344.998,4620,14330.999z"/>
		<path d="M7417.998,14329.998c-160-27.002-310.996-138.999-510.996-380c-34.004-41.001-94.004-107.998-132.998-150
			c-48.008-51.001-74.004-87.998-81.006-115c-25.996-97.998-35.996-142.998-40-180c-2.998-32.002,2.002-23.999,20,35
			c34.004,106.001,42.998,127.002,64.004,138.999c10,6.001,13.994,11.001,10,11.001c-4.004,0,2.002,10,13.994,22.998
			c12.002,12.002,71.006,82.002,133.008,156.001c135,163.003,168.994,200,220.996,241.001c22.002,17.002,62.998,52.998,90,78.999
			c82.002,77.002,82.998,78.003,192.002,73.999c85-2.998,105.996-6.997,157.998-32.998c34.004-16.001,72.002-41.001,85-56.001
			l25-26.997l-34.004,17.998c-56.992,28.999-123.994,45-187.998,45c-70.996,0-78.994-5-172.998-115
			c-97.002-112.002-170.996-235-239.004-398.999c-36.992-90-80.996-220-80.996-241.001c0-7.998-7.998-18.999-17.002-23.999
			c-10-6.001-12.998-11.001-7.998-11.001c7.002,0,10-45,9.004-128.999c-1.006-71.001,1.992-135,6.992-142.002
			c7.002-11.997,9.004-11.001,9.004,1.001c0,7.998,4.004,51.001,10,95c7.998,71.001,12.998,100,25,155
			c2.002,7.998,4.004,17.998,4.004,22.998c0.996,4.004,6.992,7.002,15,7.002c33.994,0,243.994,122.998,272.998,160
			c15.996,21.001,7.002,26.001-14.004,7.998c-27.002-23.999-152.998-106.997-195-128.999c-52.998-26.997-67.998-25-62.002,8.999
			c14.004,79.004,57.002,207.002,105,311.001c44.004,93.999,171.006,281.001,229.004,335c45,42.002,54.004,46.001,99.004,46.001
			C7720,14169.998,7990,13832,7990,13482c-0.996-219.004-110.996-456.001-295-635c-65-64.004-180.996-147.002-252.998-182.998
			c-60-30-67.998-50-9.004-23.008c16.006,7.002,31.006,8.008,41.006,2.002c12.998-7.002,0-15-56.006-33.994
			c-125.996-42.002-348.994-30-467.998,25.996c-14.004,5.996-37.998,7.998-55,4.004c-15.996-3.008-24.004-7.002-15.996-8.008
			c11.992-0.996,10.996-3.994-2.002-17.998c-21.006-23.994-26.006-85-7.998-90.996c8.994-2.998,10.996,0,5.996,7.998
			c-5.996,9.004-4.004,10.996,4.004,5c6.992-4.004,21.992,2.002,35,14.004c22.998,21.992,23.994,21.992,126.992,5
			c210-33.008,465,18.994,573.008,117.998c36.992,33.994,27.998,47.002-12.002,17.998c-17.002-12.002-35-20.996-42.002-17.998
			c-7.002,2.002,24.004,32.002,69.004,67.002C7755,12835.994,7872.998,12990.994,7960,13172
			c119.004,246.997,80,551.997-104.004,820.996l-43.994,65l30.996,9.004l32.002,8.999l-40,13.999
			c-22.002,7.002-82.998,43.999-135.996,81.001c-107.002,76.997-190,118.999-233.008,118.999c-20.996,0-26.992,2.998-18.994,11.001
			c7.998,7.998,32.998,13.999,75.996,17.998c4.004,1.001,7.002,6.001,7.002,11.001
			C7530,14340.999,7487.001,14340.999,7417.998,14329.998z"/>
		<path d="M4870,13605.999c0-2.002,7.002-17.002,15-32.002c7.998-16.001,15-22.998,15-16.997c0,6.997,20.996-2.002,47.998-21.001
			c52.002-37.002,171.006-100,177.002-93.999c2.998,1.997-20.996,17.998-52.998,35c-32.002,15.996-90,52.998-130,81.997
			C4902.001,13587,4870,13607.996,4870,13605.999z"/>
		<path d="M4925.996,13467.996c7.002-23.999,104.004-172.168,104.004-162.168c0,3.999-62.002,97.168-75.996,128.169
			C4895.048,13563.221,4888.935,13584.886,4925.996,13467.996z"/>
		<path d="M7222.998,13477.996c-15.703-40.977-96.162-164.248-92.158-164.248c5,0,77.158,106.25,96.162,149.248
			C7263.955,13549.212,7261.23,13577.776,7222.998,13477.996z"/>
		<path d="M7110,13289.998c-5.996-11.001-7.002-20-2.002-20c6.006,0,12.002,8.999,15,20s2.998,20,1.006,20
			C7122.001,13309.998,7115.996,13300.999,7110,13289.998z"/>
		<path d="M5030,13290.999c0-6.001,5-13.003,10-16.001c5.996-2.998,10,1.001,10,8.999c0,8.999-4.004,16.001-10,16.001
			C5035,13299.998,5030,13295.999,5030,13290.999z"/>
		<path d="M4879.003,13274.998c47.998-22.998,117.998-33.999,148.994-25c24.004,7.998,22.998,7.998-12.998,8.999
			c-22.002,1.001-57.998,6.001-80,12.002C4860,13290.999,4840.996,13292,4879.003,13274.998z"/>
		<path d="M7240,13278.997c-14.004-6.001-50.938-18.062-65-18.999c-65.293-4.355-59.902-4.375-7.002-8.999
			c30-1.001,132.002,26.001,132.002,35C7300,13292.996,7265,13288.997,7240,13278.997z"/>
		<path d="M4885.996,13244.998c4.004-11.001,14.004-27.998,22.002-37.998c22.998-26.001,7.998-31.001-43.994-13.003
			c-58.008,20-105,21.001-62.002,2.002c15-6.001,40.996-32.002,58.994-56.001c65-90,150-169.004,225-207.002
			c40-20.996,71.006-40,68.008-43.994c-2.002-3.008-24.004-12.002-49.004-19.004s-47.998-15.996-50-20
			c-5.996-10,100-52.998,117.002-47.998c7.002,2.998-11.006,12.998-40,22.002c-55,18.994-59.004,22.998-26.006,28.994
			c10,2.002,31.006,10,46.006,17.002c23.994,10.996,30.996,10.996,45-2.002c25-22.002,62.998-40,62.998-30.996
			c0,5-15,13.994-32.002,20.996c-25.996,10-30,14.004-17.998,22.002c12.998,7.998,12.002,10.996-5,24.004
			c-10.996,8.994-25.996,15.996-32.998,15.996c-6.006,0-44.004,17.002-82.998,37.998c-75,39.004-124.004,81.001-199.004,171.001
			l-45,53.999l30-6.997c34.004-8.999,34.004-8.999,57.998-7.002c24.004,1.001,21.006,10-18.994,56.001
			C4894.003,13247,4882.001,13255.999,4885.996,13244.998z"/>
		<path d="M7233.75,13202.498l-32.754-30.498l23.008-4.004c11.992-2.998,32.998-0.996,45.996,4.004s24.004,6.997,25.996,5
			c2.002-2.002-30-42.002-70.996-89.004c-72.998-85-127.998-125.996-205.996-152.998c-51.006-17.998-101.006-55-73.008-55
			c17.002,0,17.002-0.996-1.992-15.996c-15-12.002-12.002-12.002,11.992,1.992c29.004,16.006,33.008,16.006,55,0
			c13.008-8.994,35-15.996,49.004-16.992c19.004,0,14.004-5-22.002-17.002c-52.998-19.004-92.002-50-47.998-37.002
			c35,9.004,134.004,59.004,124.004,60.996c-5,1.006-25,5-45,8.008c-19.004,3.994-44.004,11.992-53.008,18.994
			c-15.996,12.002-10.996,17.002,49.004,46.006c75,36.992,167.998,122.998,225,207.998c19.004,28.999,40,52.998,45.996,52.998
			c6.006,0,17.002,7.002,24.004,15c10.996,12.998,5.996,12.998-35.996,0c-27.002-7.998-60-17.998-73.008-22.002l-25-5.996
			l23.008,31.997C7306.24,13288.782,7296.738,13280.799,7233.75,13202.498z"/>
		<path d="M5365,12619.002c-4.004-6.006-5-12.002-2.002-15c2.002-3.008,7.002,1.992,10,10.996
			C5380,12632,5374.003,12634.998,5365,12619.002z"/>
		<path d="M6780,12614.002c0-9.004,50.996-84.004,57.002-84.004c5,0-1.006,10.996-34.004,59.004
			C6790,12607.996,6780,12619.002,6780,12614.002z"/>
		<path d="M5325.996,12554.998c-8.994-25.996-6.992-32.002,5-12.002c6.006,10,9.004,21.006,6.006,22.998
			C5335,12569.002,5330,12564.002,5325.996,12554.998z"/>
	</g>
</g>
</svg>
