<?xml version="1.0" encoding="UTF-8" standalone="no"?>
<!-- Created with Inkscape (http://www.inkscape.org/) -->

<svg
   version="1.1"
   id="svg1"
   width="1200"
   height="1600"
   viewBox="0 0 2400 3200"
   xml:space="preserve"
   xmlns="http://www.w3.org/2000/svg"
   xmlns:svg="http://www.w3.org/2000/svg"><defs
     id="defs1" /><path
     style="display:inline;fill:#000000"
     d="m 1207.4404,800.12189 c -11.1593,-2.88652 -25.1958,-13.94464 -52.9046,-41.67867 -12.6697,-12.68123 -25.9608,-25.46436 -29.5358,-28.40696 -21.0065,-17.29055 -20.1732,-15.22794 -12.9096,-31.95277 5.0145,-11.54615 7.7191,-15.36829 12.0987,-17.09807 15.3621,-6.06733 35.2446,-23.05763 41.5914,-35.54114 10.549,-20.74914 36.7841,-43.85255 49.7195,-43.78458 14.1019,0.0741 37.1722,22.00398 53.1534,50.52603 4.2435,7.57345 24.6027,23.24004 37.8466,29.12332 5.0361,2.23717 7.1263,5.45705 12.8832,19.84598 5.7678,14.41633 6.2845,12.2576 -5.1332,21.4448 -5.3625,4.3149 -21.45,19.35264 -35.75,33.41722 -41.9236,41.2334 -53.7597,48.57975 -71.0596,44.10484 z m 23.2705,-8.50882 c 10.1015,-6.10662 27.3774,-21.6325 47.7891,-42.94812 8.8,-9.1897 18.4908,-18.45963 21.535,-20.59984 11.0065,-7.73786 18.2752,-15.76342 17.5529,-19.38069 -2.6579,-13.31162 -10.0452,-21.67632 -30.252,-34.25496 -15.1642,-9.43956 -15.1642,-9.43956 -23.3679,-21.68451 -41.0204,-61.22731 -57.4927,-61.14957 -97.7126,0.46115 -7.5972,11.63778 -7.9607,11.98163 -21.0923,19.95379 -21.1454,12.83735 -26.8715,18.82366 -31.7772,33.22102 -1.8537,5.44029 0.7789,8.96888 14.6141,19.58776 8.6858,6.66656 14.8791,12.53559 24.304,23.03133 38.1644,42.50082 59.4533,54.07102 78.4069,42.61307 z m -20.1063,1.08666 c -12.4038,-10.18846 -26.9043,-26.27435 -34.3644,-38.12143 -3.2077,-5.09403 -4.7602,-6.24593 -9.423,-6.99154 -2.0395,-0.32613 -4.2952,-1.42309 -5.0127,-2.4377 -3.947,-5.58146 -15.0394,-13.63925 -26.3045,-19.10826 -16.6066,-8.06219 -20.9729,-14.10958 -10.7216,-14.84968 4.2783,-0.30889 4.2783,-0.30889 6.8233,5.25 1.3997,3.05738 2.8724,5.55888 3.2728,5.55888 0.8732,0 13.4117,8.02306 14.1255,9.03854 1.4593,2.07615 10.789,6.96146 13.2947,6.96146 6.7687,0 10.7112,3.44814 23.4391,20.5 22.5279,30.1813 29.2083,33.17793 42.3571,19 2.0403,-2.2 4.7834,-5.15701 6.0958,-6.57113 1.3125,-1.41412 4.1698,-4.78912 6.3498,-7.5 2.1799,-2.71088 4.1885,-5.15387 4.4635,-5.42887 0.275,-0.275 2.7388,-3.425 5.4751,-7 7.6856,-10.04117 11.6199,-12.98981 17.3406,-12.99626 4.0282,-0.005 12.7425,-4.91202 16.1843,-9.11421 0.275,-0.33575 1.8828,-1.31858 3.5728,-2.18406 1.6901,-0.86548 3.6577,-2.27827 4.3725,-3.13953 0.7148,-0.86127 2.0882,-1.56594 3.0521,-1.56594 1.116,0 1.9543,-1.00858 2.3079,-2.77654 1.3381,-6.69064 7.3135,-10.10341 12.6702,-7.23655 5.2136,2.79019 -1.4003,8.00149 -21.9755,17.31531 -3.3329,1.50873 -8.5861,5.41276 -13.3326,9.90843 -5.7583,5.454 -8.9835,7.72655 -12.1785,8.58108 -3.6155,0.96701 -5.0264,2.13261 -8.3947,6.93532 -2.2268,3.17512 -4.4004,6.22295 -4.8303,6.77295 -0.4299,0.55 -2.3503,3.025 -4.2677,5.5 -8.4562,10.91575 -18.0684,20.75796 -23.8168,24.38673 -2.2062,1.39272 -4.3007,3.00046 -4.6544,3.57275 -0.9448,1.52875 -1.6237,1.26962 -5.9204,-2.25975 z"
     id="path1" /></svg>
