<?xml version="1.0" encoding="UTF-8" standalone="no"?>
<!-- Created with Inkscape (http://www.inkscape.org/) -->

<svg
   version="1.1"
   id="svg1"
   width="2400"
   height="3200"
   viewBox="0 0 2400 3200"
   scale = "0.5"
   xmlns="http://www.w3.org/2000/svg"
   xmlns:svg="http://www.w3.org/2000/svg">
  <defs
     id="defs1" />
  <path
     style="display:inline;fill:#000000"
     d="m 1206.3246,799.7736 c -12.6141,-4.25849 -23.4669,-12.89812 -52.2987,-41.6333 -12.9107,-12.8675 -25.9607,-25.41579 -29,-27.88509 -21.2161,-17.2374 -20.5347,-15.23668 -11.8974,-34.93111 4.6754,-10.66063 5.7206,-11.90642 13.15,-15.67344 2.8718,-1.45612 8.1465,-4.59564 11.7215,-6.97672 19.2921,-12.8492 18.2759,-11.92935 24.4467,-22.12864 20.9544,-34.63411 42.7911,-52.78505 58.3723,-48.51991 13.3455,3.65313 39.4978,31.69781 49.8993,53.51017 1.7467,3.66277 24.5334,19.98168 35.5722,25.47532 5.59,2.78195 7.2001,5.12357 12.58,18.29523 6.4614,15.81955 6.9452,13.8539 -6.0836,24.71853 -6.2078,5.17664 -22.0869,20.09903 -35.2869,33.16086 -26.7087,26.42907 -35.7012,34.08216 -46,39.14813 -12.687,6.24071 -15.6714,6.6485 -25.1754,3.43997 z m 4.7269,-6.57041 c -9.6756,-8.0544 -22.0682,-21.26903 -30.4013,-32.4178 -7.7829,-10.41268 -9.1669,-11.79113 -12.4531,-12.40304 -2.7442,-0.51099 -5.8778,-2.72627 -12.1575,-8.59469 -7.0946,-6.63 -10.4038,-8.84297 -20.5,-13.70899 -13.9186,-6.70832 -18.4061,-10.8122 -15.2615,-13.95681 3.8,-3.79996 12.7219,1.15194 12.7219,7.06096 0,0.79572 1.5979,2.20873 3.5508,3.14003 1.953,0.93131 4.0905,2.15224 4.75,2.71318 4.8554,4.12954 16.5219,12.11194 18.1753,12.4358 1.1132,0.21803 3.5613,0.6548 5.4404,0.97059 4.9966,0.83973 9.0781,4.41085 16.9167,14.8014 3.8406,5.0909 8.2617,10.68151 9.8248,12.42358 1.5631,1.74207 4.642,5.28937 6.842,7.88289 15.4488,18.21224 20.216,17.17818 41.0601,-8.90653 2.7002,-3.37907 5.1413,-6.36876 5.4247,-6.64376 0.2834,-0.275 0.9652,-1.21965 1.5152,-2.09923 C 1253.4358,744.80882 1261.5241,738 1267.7647,738 c 3.3333,0 5.2115,-0.91296 10.882,-5.28934 3.7693,-2.90913 9.3889,-6.84663 12.4879,-8.75 3.9341,-2.41629 5.9896,-4.43829 6.8109,-6.70016 2.6019,-7.1651 15.1966,-9.34389 13.3574,-2.31073 C 1310.48,718.0965 1292.485,729 1288.1146,729 c -1.4248,0 -17.3534,13.45358 -18.8731,15.9405 -0.6921,1.13272 -2.0126,2.0595 -2.9342,2.0595 -3.9311,0 -9.9024,4.15769 -13.2956,9.25734 -1.9186,2.88347 -3.7302,5.46766 -4.0259,5.74266 -0.2956,0.275 -2.0944,2.525 -3.9973,5 -1.9028,2.475 -3.9162,4.98989 -4.4741,5.58864 -0.5579,0.59875 -3.2644,3.6844 -6.0144,6.85698 -2.75,3.17259 -8.0375,8.03207 -11.75,10.79886 -7.47,5.56709 -8.4163,7.25626 -3.5,6.2477 12.5048,-2.56531 31.1807,-18.31711 68.7208,-57.96107 3.009,-3.17758 9.0711,-8.51803 13.4713,-11.86767 17.7943,-13.5456 18.4897,-15.17575 12.008,-28.146 -4.4537,-8.91204 -10.6376,-14.66342 -24.9501,-23.2052 -15.9573,-9.52337 -15.7708,-9.3524 -24.662,-22.61464 -36.135,-53.89964 -53.3544,-58.80474 -80.5038,-22.93221 -3.2088,4.23984 -6.1852,8.1646 -6.6141,8.7217 -3.7863,4.91717 -9.5569,13.1735 -13.4805,19.28716 -4.5562,7.09939 -5.2465,7.69052 -17.8406,15.27737 -21.4115,12.89856 -28.1886,20.15978 -32.3097,34.61776 -1.1097,3.89292 5.289,11.21166 18.4107,21.05792 4.4,3.30167 11.825,10.21057 16.5,15.35311 24.6479,27.11289 49.4788,48.49286 60,51.66137 7.0117,2.11161 7.8249,1.43507 3.0515,-2.53859 z"
     id="path1" />
</svg>
