<?xml version="1.0" encoding="UTF-8" standalone="no"?>
<!-- Created with Inkscape (http://www.inkscape.org/) -->

<svg
   version="1.1"
   id="svg1"
   width="2400"
   height="3200"
   viewBox="0 0 1200 1600"
   xml:space="preserve"
   xmlns="http://www.w3.org/2000/svg"
   xmlns:svg="http://www.w3.org/2000/svg"><defs
     id="defs1" /><path
     style="display:inline;fill:#000000"
     d="m 1212,800.01596 c 0,-0.3579 -2.5875,-1.45825 -5.75,-2.44524 -9.2825,-2.89699 -16.7959,-6.84522 -14.5888,-7.66634 1.642,-0.61088 1.5712,-0.79159 -0.6612,-1.68815 -1.375,-0.55222 -3.5909,-2.17678 -4.9243,-3.61013 -1.3334,-1.43336 -2.9084,-2.61872 -3.5,-2.63414 -1.3966,-0.0364 -15.262,-13.42294 -18.8332,-18.18283 -1.5166,-2.02141 -5.1289,-6.06341 -8.0273,-8.98221 C 1149.1344,748.17973 1142,739.80674 1142,738.71054 c 0,-0.45572 -0.3819,-0.59258 -0.8486,-0.30414 -0.4667,0.28844 -1.7042,-0.25687 -2.75,-1.21181 -8.7471,-7.9872 -17.0122,-14.37117 -20.7415,-16.02085 C 1112.2738,718.79121 1109,715.70122 1109,713 c 0,-4.67581 4.9538,-1.20318 24.1419,16.92341 7.7754,7.3453 7.8581,7.39159 7.8581,4.39923 0,-9.56842 13.6032,-37.05274 16.7711,-33.88484 0.3691,0.36902 0.1908,0.98398 -0.3961,1.36657 -0.5869,0.3826 -1.3804,1.97477 -1.7633,3.53817 -0.3829,1.5634 -1.8419,5.1634 -3.242,8 -3.935,7.97171 -4.3935,16.75661 -0.991,18.98603 1.4417,0.94464 2.6213,2.14304 2.6213,2.6631 0,1.14758 -3.2037,0.0781 -4.25,-1.41873 -1.4027,-2.00662 -2.8382,1.80136 -2.2343,5.92706 0.7122,4.86633 2.8337,8.30214 5.8296,9.44118 1.2324,0.46856 6.7214,5.0938 12.1977,10.27832 10.605,10.03991 32.1418,27.68666 39.241,32.1532 2.3562,1.48244 5.1687,3.58003 6.25,4.66132 2.3775,2.37744 6.2347,2.55209 8.0502,0.36451 0.731,-0.8808 3.5986,-3.05619 6.3725,-4.83419 5.4484,-3.49237 23.8559,-17.9439 29.5433,-23.19408 1.925,-1.77703 6.8423,-6.41202 10.9272,-10.29997 4.085,-3.88796 8.8917,-7.59854 10.6814,-8.24573 2.4356,-0.88072 3.6488,-2.20991 4.8228,-5.28407 2.4401,-6.38945 1.9357,-12.81179 -0.8394,-10.68705 -0.6006,0.45985 -1.8795,1.11682 -2.842,1.45994 -2.9229,1.04198 -1.988,-1.6708 1.2012,-3.48521 4.3235,-2.45985 1.3332,-17.58054 -5.9485,-30.07817 -1.5487,-2.65809 0.2958,-2.09177 3.257,1 3.3246,3.47121 6.8982,10.16418 9.2103,17.25 0.987,3.025 2.1247,5.95 2.5281,6.5 4.2805,5.8358 1.3411,12.76198 -10.686,25.17938 -5.7643,5.95134 -11.5353,12.44799 -12.8245,14.437 -1.2892,1.98901 -3.6138,4.76346 -5.1658,6.16544 -1.552,1.40199 -5.5218,4.99051 -8.8218,7.97449 -3.3,2.98398 -6.8302,5.7243 -7.8449,6.0896 -1.0148,0.3653 -2.0923,1.60991 -2.3946,2.7658 -0.573,2.19119 -9.5521,6.81263 -17.2788,8.89321 -2.1899,0.58969 -3.9817,1.42982 -3.9817,1.86696 0,0.43713 -1.575,0.79479 -3.5,0.79479 -1.925,0 -3.5,-0.29282 -3.5,-0.65071 z m -4.2269,-12.57474 c -6.7419,-4.41591 -7.0563,-5.57724 -4.7398,-17.50949 1.1138,-5.73745 2.45,-12.68173 2.9693,-15.43173 0.8184,-4.33439 2.2054,-14.69809 7.0931,-53 1.2235,-9.58772 2.3974,-11.34522 3.2089,-4.80428 0.3279,2.64235 1.5074,10.87928 2.6212,18.30428 1.1138,7.425 2.3162,16.65 2.6721,20.5 1.0131,10.96043 3.7836,26.85316 7.3197,41.9883 1.0851,4.64476 0.7349,5.22863 -5.6873,9.48254 -5.6298,3.729 -10.2667,3.87011 -15.4572,0.47038 z m -44.7979,-43.00632 c -1.6471,-4.33222 0.4551,-11.57384 8.1751,-28.16225 2.0689,-4.44559 4.4885,-6.96023 3.51,-3.64788 -0.3047,1.03138 -1.0411,7.27523 -1.6366,13.87523 -1.646,18.24544 -6.5813,27.05416 -10.0485,17.9349 z m 97.6361,0.3151 c -0.7891,-1.2375 -1.7016,-4.95 -2.0278,-8.25 -0.3261,-3.3 -1.0227,-10.03058 -1.548,-14.95684 -0.5254,-4.92626 -0.7682,-9.14384 -0.5396,-9.37239 1.5895,-1.58949 11.5041,24.21793 11.5041,29.94483 0,4.9133 -4.8359,6.63753 -7.3887,2.6344 z m 40.3738,-17.71528 c 5.2168,-4.9691 9.9715,-9.03472 10.566,-9.03472 0.5945,0 2.4753,-1.575 4.1796,-3.5 3.2516,-3.67278 5.2693,-4.46993 5.2693,-2.08179 0,3.10899 -1.4306,4.64514 -6.8026,7.3047 -3.0852,1.5274 -8.1043,5.17235 -11.1534,8.09989 -3.0492,2.92754 -6.894,5.98067 -8.544,6.78472 -1.8761,0.91422 0.5535,-1.92283 6.4851,-7.5728 z m -64.6122,-93.30175 C 1229.2903,618.70128 1225.3361,615 1216.3599,615 c -10.674,0 -14.4559,2.83536 -20.8635,15.64162 -3.7925,7.57969 -4.2958,7.78292 -1.9161,0.77362 2.5141,-7.40499 -1.9704,-8.19705 -9.5717,-1.69059 -4.5174,3.86668 -6.2385,3.977 -2.8968,0.18567 1.1684,-1.32567 3.1453,-3.98532 4.393,-5.91032 1.2477,-1.925 3.6695,-4.82169 5.3818,-6.43709 1.7124,-1.6154 3.1134,-3.35064 3.1134,-3.85608 0,-1.02862 4.2959,-4.61148 7.5924,-6.33227 4.2115,-2.19841 15.1581,-3.5144 19.6785,-2.36574 9.212,2.34084 12.3011,4.75875 22.3734,17.51199 7.0993,8.98898 9.3685,13.76475 3.9799,8.37616 -8.3979,-8.39796 -13.2326,-7.73268 -10.3062,1.41821 2.0327,6.35639 1.6514,6.92838 -0.9451,1.41779 z"
     id="path2" /></svg>
