<?xml version="1.0" encoding="UTF-8" standalone="no"?>
<!-- Created with Inkscape (http://www.inkscape.org/) -->

<svg
   version="1.1"
   id="svg1"
   width="1200"
   height="1600"
   viewBox="0 0 1200 1600"
   xml:space="preserve"
   xmlns="http://www.w3.org/2000/svg"
   xmlns:svg="http://www.w3.org/2000/svg"><defs
     id="defs1" /><path
     style="display:inline;fill:#000000"
     d="m 1208.1974,797.49256 c -12.4947,-3.48382 -34.794,-21.32427 -46.0642,-36.85347 -1.8517,-2.5515 -3.8924,-4.63909 -4.5349,-4.63909 -0.6425,0 -2.7274,-1.9013 -4.6332,-4.2251 -9.5106,-11.59657 -27.8318,-27.74048 -35.4219,-31.21225 -7.5136,-3.43681 -8.5096,-8.90311 -3.6095,-19.80903 1.0511,-2.33949 2.4546,-5.72571 3.1189,-7.52493 1.335,-3.61617 4.4802,-6.06955 19.541,-15.24298 13.3526,-8.13294 25.4064,-17.58707 25.4064,-19.92689 0,-1.01134 1.9196,-4.47581 4.2658,-7.69881 2.3462,-3.22301 5.1226,-7.19831 6.1698,-8.83402 2.4837,-3.87939 2.753,-4.22996 7.3186,-9.52599 2.1336,-2.475 5.1561,-6.75 6.7167,-9.5 12.9657,-22.84785 44.0052,-23.33067 56.9092,-0.88523 2.1341,3.71204 5.7447,8.80478 8.0237,11.31719 2.2789,2.51242 8.1828,10.59462 13.1198,17.96044 8.4608,12.62316 16.4643,21.1076 19.9112,21.1076 0.6904,0 2.1125,0.94865 3.1602,2.10812 1.8358,2.0315 4.3337,3.53692 12.905,7.77747 18.0923,8.95092 24.7644,40.11441 8.5884,40.11441 -1.2377,0 -10.5886,8.49925 -24.7286,22.47652 -5.5771,5.51291 -12.4357,12.27348 -15.2413,15.02348 -2.8056,2.75 -5.105,5.52882 -5.1098,6.17516 -0.013,1.73237 -13.4209,14.68903 -21.6723,20.94271 -13.4344,10.18178 -24.2583,13.62965 -34.139,10.87469 z"
     id="path3" /></svg>
