<?xml version="1.0" encoding="UTF-8" standalone="no"?>
<!-- Created with Inkscape (http://www.inkscape.org/) -->

<svg
   version="1.1"
   id="svg1"
   width="1200"
   height="1600"
   viewBox="0 0 2400 3200"
   xml:space="preserve"
   xmlns="http://www.w3.org/2000/svg"
   xmlns:svg="http://www.w3.org/2000/svg"><defs
     id="defs1" /><path
     style="display:inline;opacity:0.5;fill:#000000"
     d="m 1272,755.1123 c 0,-1.83093 4.6546,-6.44378 5.7925,-5.74052 0.6161,0.38075 0.9007,1.26417 0.6325,1.96316 -0.6413,1.67114 -6.425,5.07148 -6.425,3.77736 z m -117.9851,-2.06614 c -2.5383,-1.95028 -2.2898,-3.74936 0.3766,-2.72619 1.6245,0.6234 4.1531,4.69346 2.8937,4.65779 -0.4319,-0.0122 -1.9035,-0.88145 -3.2703,-1.9316 z m -14.6124,-14.52412 c -2.6964,-2.46287 -5.2079,-4.48787 -5.5811,-4.5 -0.3732,-0.0121 -1.2738,-0.58454 -2.0013,-1.27204 -4.1284,-3.90125 -10.972,-8.79782 -15.5005,-11.09045 -11.1672,-5.65365 -8.8212,-27.72818 3.7853,-35.61686 2.6553,-1.66162 3.0982,-1.9339 20.6895,-12.72002 17.5415,-10.75565 15.5132,-8.6725 30.5781,-31.40443 3.4925,-5.26996 7.2667,-10.44496 8.3872,-11.5 1.1205,-1.05503 3.7398,-4.84324 5.8207,-8.41824 4.2987,-7.38528 8.0557,-11.26353 13.7016,-14.14388 6.3945,-3.26224 9.2852,-0.13978 4.218,4.5563 -1.375,1.27431 -2.5,3.30438 -2.5,4.51127 0,1.20689 -0.3656,1.9684 -0.8124,1.69224 -0.4468,-0.27615 -2.0722,3.40979 -3.6119,8.19099 -9.0105,27.98064 -17.7795,44.63845 -34.5757,65.68121 -13.5752,17.00736 -13.2333,16.4281 -12.5197,21.20924 0.496,3.32352 0.072,5.40543 -2.0384,10 -2.3511,5.11938 -2.592,6.59743 -2.0464,12.55263 0.7314,7.98242 0.3974,8.10904 -5.993,2.27204 z M 1285,742.08224 c 0,-0.54348 0.5162,-2.12098 1.147,-3.50557 0.8853,-1.94301 0.8574,-2.86647 -0.1224,-4.04706 -0.8877,-1.06964 -0.9583,-1.9055 -0.2348,-2.77961 0.7412,-0.8955 0.1837,-2.9516 -1.966,-7.25 -2.2941,-4.58708 -2.8829,-6.89601 -2.5001,-9.80491 0.6369,-4.84017 -0.3985,-6.77137 -9.6768,-18.04818 -17.9621,-21.83105 -28.1456,-40.36599 -36.6173,-66.64691 -1.8616,-5.775 -4.0249,-11.03256 -4.8073,-11.68347 -0.7824,-0.6509 -1.134,-1.65032 -0.7814,-2.22092 0.3527,-0.5706 -0.5023,-2.03169 -1.8999,-3.24687 -2.6287,-2.28566 -3.4914,-6.85587 -1.291,-6.83936 4.1858,0.0314 17.5855,10.9131 17.8164,14.46846 0.037,0.56219 1.6021,3.04716 3.4791,5.52216 1.877,2.475 6.3538,8.775 9.9484,14 16.6908,24.26084 17.8914,25.64729 25.5637,29.52069 3.6066,1.82085 7.1492,4.02358 7.8724,4.89497 0.7232,0.87139 1.9003,1.58434 2.6157,1.58434 0.7155,0 2.6378,1.125 4.2719,2.5 1.6341,1.375 3.3622,2.5 3.8401,2.5 2.4997,0 11.4748,7.38131 12.7834,10.51334 0.7962,1.90551 2.8227,5.46311 4.5033,7.90578 7.2016,10.46728 4.8063,16.32345 -10.2018,24.94192 -2.6166,1.50258 -5.4251,3.75091 -6.2411,4.9963 -0.816,1.24538 -3.1788,3.21706 -5.2506,4.3815 -2.0718,1.16443 -4.8884,3.31588 -6.2589,4.78098 -2.9932,3.19955 -5.992,4.98246 -5.992,3.56242 z"
     id="path4" /></svg>
