<svg width="2400" height="3200" xmlns="http://www.w3.org/2000/svg" viewBox="0 0 2400 3200"><path d="M 637.5 1732.38 C 634.62 1733.05 630.17 1733.27 627.0 1732.89 C 623.98 1732.53 620.75 1731.92 619.84 1731.54 C 618.93 1731.17 617.61 1729.47 616.91 1727.78 C 615.8 1725.11 615.89 1724.29 617.57 1721.44 C 618.63 1719.64 622.91 1713.74 627.08 1708.33 C 631.25 1702.92 636.56 1695.35 638.88 1691.5 C 641.2 1687.65 644.82 1680.9 646.93 1676.5 C 649.04 1672.1 651.72 1666.37 652.89 1663.76 C 654.05 1661.15 655.0 1658.75 655.0 1658.41 C 655.0 1658.08 655.71 1656.16 656.58 1654.15 C 657.46 1652.14 658.58 1649.72 659.08 1648.76 C 659.59 1647.81 660.0 1646.57 660.0 1646.01 C 660.0 1645.46 659.66 1645.0 659.25 1645.0 C 658.84 1645.0 656.92 1646.38 655.0 1648.06 C 653.08 1649.74 650.15 1651.83 648.5 1652.71 C 646.85 1653.58 644.15 1655.24 642.5 1656.4 C 640.85 1657.56 638.6 1659.06 637.5 1659.74 C 636.4 1660.42 631.9 1662.82 627.5 1665.07 C 623.11 1667.33 619.28 1669.52 619.0 1669.93 C 618.73 1670.35 617.38 1670.97 616.0 1671.3 C 614.62 1671.64 612.6 1672.61 611.5 1673.46 C 610.4 1674.3 607.8 1676.31 605.72 1677.91 C 603.64 1679.52 599.59 1682.32 596.72 1684.13 C 593.85 1685.95 591.27 1687.67 591.0 1687.97 C 590.73 1688.26 588.61 1689.96 586.31 1691.75 C 584.0 1693.54 581.63 1695.0 581.05 1695.0 C 580.46 1695.0 579.19 1695.41 578.24 1695.9 C 577.28 1696.4 574.59 1697.37 572.26 1698.06 C 569.87 1698.77 562.87 1699.3 556.26 1699.28 C 546.05 1699.26 543.51 1698.9 537.0 1696.55 C 532.88 1695.06 528.76 1693.18 527.85 1692.36 C 526.94 1691.54 522.89 1690.38 518.85 1689.78 C 514.35 1689.12 510.14 1687.8 508.0 1686.38 C 506.07 1685.11 503.76 1683.48 502.86 1682.76 C 501.95 1682.03 500.73 1679.7 500.15 1677.58 C 499.4 1674.85 499.4 1673.09 500.14 1671.61 C 500.73 1670.45 502.84 1668.04 504.84 1666.25 C 506.84 1664.46 509.05 1663.0 509.74 1663.0 C 510.43 1663.0 511.0 1662.63 511.0 1662.19 C 511.0 1661.74 512.46 1660.61 514.25 1659.68 C 516.04 1658.74 519.48 1656.81 521.91 1655.37 C 524.33 1653.94 528.66 1651.13 531.53 1649.13 C 534.39 1647.13 539.59 1643.03 543.08 1640.0 C 546.57 1636.97 550.92 1632.98 552.75 1631.12 C 554.58 1629.27 555.86 1627.52 555.58 1627.25 C 555.31 1626.98 551.54 1627.28 547.2 1627.91 C 542.85 1628.55 533.82 1629.07 527.13 1629.07 C 520.43 1629.08 513.28 1628.77 511.23 1628.39 C 509.18 1628.01 504.46 1626.13 500.75 1624.22 C 496.78 1622.18 491.58 1618.31 488.13 1614.81 C 482.68 1609.3 482.22 1608.47 481.67 1603.19 C 481.32 1599.87 481.55 1596.18 482.21 1594.33 C 483.1 1591.85 484.13 1590.99 486.92 1590.37 C 488.89 1589.94 491.14 1589.64 491.93 1589.71 C 492.71 1589.78 495.86 1589.38 498.93 1588.82 C 501.99 1588.26 508.1 1587.42 512.5 1586.95 C 516.9 1586.48 522.98 1585.69 526.0 1585.2 C 529.02 1584.7 532.17 1584.02 533.0 1583.68 C 533.83 1583.34 535.62 1582.83 537.0 1582.56 C 538.38 1582.29 542.53 1581.0 546.24 1579.71 C 549.95 1578.41 553.28 1577.05 553.66 1576.68 C 554.03 1576.3 555.36 1576.0 556.61 1576.0 C 557.86 1576.0 559.13 1575.6 559.43 1575.11 C 559.73 1574.62 561.22 1573.92 562.74 1573.54 C 564.26 1573.17 567.98 1571.73 571.0 1570.35 C 574.02 1568.97 578.75 1566.79 581.5 1565.51 C 584.25 1564.24 588.46 1562.25 590.84 1561.1 C 593.23 1559.94 596.05 1559.0 597.09 1559.0 C 598.14 1559.0 599.0 1558.55 599.0 1558.0 C 599.0 1557.45 600.06 1557.0 601.35 1557.0 C 602.64 1557.0 605.0 1556.35 606.6 1555.55 C 608.19 1554.75 611.51 1552.05 613.96 1549.55 C 616.41 1547.05 619.34 1544.99 620.46 1544.98 C 621.58 1544.97 624.58 1543.66 627.12 1542.06 C 629.66 1540.46 637.47 1533.61 644.46 1526.83 C 651.46 1520.05 657.76 1514.17 658.46 1513.77 C 659.16 1513.37 661.19 1511.69 662.97 1510.02 C 664.75 1508.36 666.65 1507.0 667.2 1507.0 C 667.74 1507.0 668.93 1506.13 669.84 1505.06 C 670.75 1504.0 672.88 1502.31 674.57 1501.31 C 676.25 1500.32 682.1 1496.55 687.57 1492.94 C 693.03 1489.33 699.91 1485.07 702.85 1483.47 C 705.8 1481.88 710.09 1478.91 712.4 1476.88 C 714.7 1474.85 717.64 1471.01 718.92 1468.35 C 720.2 1465.68 721.6 1462.6 722.02 1461.5 C 722.45 1460.4 723.52 1457.86 724.4 1455.85 C 725.28 1453.84 726.0 1451.88 726.0 1451.5 C 726.0 1451.12 726.62 1449.38 727.37 1447.65 C 728.12 1445.92 730.33 1440.9 732.26 1436.5 C 734.2 1432.1 736.99 1424.9 738.46 1420.5 C 739.92 1416.1 741.52 1411.6 742.0 1410.5 C 742.48 1409.4 743.42 1406.7 744.09 1404.5 C 744.76 1402.3 746.27 1398.25 747.46 1395.5 C 748.64 1392.75 750.65 1387.12 751.93 1383.0 C 753.2 1378.88 755.35 1372.12 756.7 1368.0 C 758.06 1363.88 760.07 1358.25 761.18 1355.5 C 762.3 1352.75 763.58 1349.6 764.03 1348.5 C 764.48 1347.4 765.81 1343.5 766.98 1339.83 C 768.15 1336.15 769.72 1332.65 770.46 1332.03 C 771.2 1331.42 772.1 1329.72 772.47 1328.25 C 772.84 1326.79 775.8 1320.98 779.04 1315.35 C 782.29 1309.71 787.6 1301.37 790.85 1296.8 C 794.09 1292.24 798.65 1286.49 800.96 1284.04 C 803.28 1281.58 805.86 1278.21 806.71 1276.54 C 807.55 1274.87 808.9 1272.74 809.71 1271.82 C 810.52 1270.89 811.93 1268.82 812.84 1267.21 C 813.75 1265.59 815.85 1262.15 817.5 1259.55 C 819.15 1256.95 822.98 1251.76 826.0 1248.02 C 829.02 1244.28 835.1 1236.85 839.5 1231.51 C 843.9 1226.17 850.33 1218.13 853.78 1213.65 C 857.24 1209.17 861.14 1204.15 862.44 1202.5 C 863.75 1200.85 867.97 1195.22 871.82 1190.0 C 875.67 1184.78 879.54 1179.71 880.41 1178.75 C 881.28 1177.79 883.29 1177.0 884.88 1177.0 C 886.46 1177.0 888.32 1176.33 889.0 1175.5 C 889.68 1174.67 890.62 1174.0 891.07 1174.0 C 891.53 1174.0 893.04 1172.94 894.43 1171.65 C 895.82 1170.36 902.35 1166.57 908.94 1163.24 C 916.15 1159.58 921.68 1157.37 922.84 1157.67 C 923.91 1157.95 925.08 1157.69 925.45 1157.09 C 925.82 1156.49 927.55 1156.01 929.31 1156.02 L 932.5 1156.04 C 928.62 1159.08 926.97 1159.97 926.32 1159.98 C 925.67 1159.99 922.74 1161.4 919.82 1163.11 C 916.89 1164.82 913.83 1166.63 913.0 1167.13 C 912.17 1167.63 910.15 1168.67 908.5 1169.43 C 906.85 1170.19 904.38 1171.7 903.0 1172.77 C 901.62 1173.84 898.92 1175.52 897.0 1176.51 C 895.08 1177.49 891.64 1179.81 889.37 1181.67 C 886.76 1183.81 885.01 1186.18 884.62 1188.13 C 884.28 1189.83 882.52 1192.64 880.7 1194.36 C 878.89 1196.09 874.5 1201.05 870.95 1205.38 C 867.4 1209.72 862.92 1214.9 861.0 1216.89 C 859.08 1218.89 856.38 1221.94 855.0 1223.66 C 853.62 1225.38 850.02 1230.01 847.0 1233.95 C 843.98 1237.88 839.25 1243.95 836.5 1247.43 C 833.75 1250.92 830.02 1255.73 828.2 1258.13 C 826.39 1260.54 819.87 1269.34 813.7 1277.69 C 807.54 1286.05 801.6 1294.37 800.5 1296.19 C 799.4 1298.01 797.75 1300.77 796.83 1302.33 C 795.92 1303.89 794.42 1305.99 793.5 1307.0 C 792.58 1308.01 790.96 1310.34 789.9 1312.17 C 788.83 1314.0 787.24 1317.08 786.37 1319.0 C 785.49 1320.92 783.97 1323.63 782.99 1325.0 C 782.02 1326.38 780.01 1330.43 778.52 1334.0 C 777.04 1337.58 774.28 1345.22 772.39 1351.0 C 770.5 1356.78 768.34 1362.85 767.6 1364.5 C 766.86 1366.15 765.04 1370.88 763.56 1375.0 C 762.07 1379.12 760.38 1383.62 759.8 1385.0 C 759.22 1386.38 757.64 1390.88 756.29 1395.0 C 754.93 1399.12 752.69 1405.42 751.3 1409.0 C 749.92 1412.58 747.67 1417.91 746.31 1420.85 C 744.96 1423.79 743.69 1427.0 743.51 1427.97 C 743.32 1428.94 742.06 1431.94 740.72 1434.62 C 739.37 1437.3 737.97 1441.17 737.6 1443.21 C 737.23 1445.25 735.82 1449.43 734.46 1452.49 C 733.11 1455.55 732.0 1458.61 732.0 1459.3 C 732.0 1459.98 730.94 1462.1 729.64 1464.02 C 728.35 1465.93 725.78 1470.42 723.93 1474.0 C 722.09 1477.58 720.11 1480.96 719.54 1481.52 C 718.97 1482.08 715.43 1484.78 711.67 1487.52 C 707.92 1490.26 702.97 1493.96 700.67 1495.75 C 698.38 1497.53 694.92 1500.13 693.0 1501.52 C 691.08 1502.92 687.92 1505.16 686.0 1506.51 C 684.08 1507.86 681.96 1509.42 681.29 1509.98 C 680.63 1510.54 679.72 1511.0 679.28 1511.0 C 678.84 1511.0 676.68 1512.57 674.49 1514.48 C 672.3 1516.4 669.92 1517.97 669.22 1517.98 C 668.51 1517.99 667.67 1518.69 667.35 1519.53 C 667.02 1520.38 664.9 1522.37 662.63 1523.96 C 660.36 1525.55 656.7 1528.46 654.5 1530.41 C 652.3 1532.36 650.23 1533.97 649.91 1533.98 C 649.58 1533.99 648.0 1535.12 646.41 1536.5 C 644.81 1537.87 643.12 1539.0 642.65 1539.0 C 642.19 1539.0 636.79 1542.58 630.65 1546.96 C 624.52 1551.34 618.31 1556.04 616.85 1557.41 C 615.39 1558.77 614.0 1560.48 613.76 1561.2 C 613.41 1562.25 613.0 1562.23 611.64 1561.11 C 610.2 1559.92 609.71 1559.95 608.15 1561.36 C 607.16 1562.26 605.63 1563.0 604.75 1563.0 C 603.88 1563.0 603.02 1563.35 602.83 1563.79 C 602.65 1564.22 601.08 1565.57 599.35 1566.79 C 597.61 1568.0 595.53 1569.0 594.73 1569.0 C 593.93 1569.0 592.13 1569.9 590.73 1571.0 C 589.33 1572.1 587.69 1573.0 587.1 1573.0 C 586.5 1573.0 582.74 1574.51 578.75 1576.35 C 574.76 1578.19 569.92 1580.19 568.0 1580.8 C 566.08 1581.4 560.0 1583.09 554.5 1584.56 C 549.0 1586.03 544.05 1587.58 543.5 1588.01 C 542.95 1588.44 538.9 1589.04 534.5 1589.34 C 530.1 1589.64 524.02 1590.38 521.0 1590.99 C 517.98 1591.59 513.92 1592.32 512.0 1592.6 C 510.07 1592.89 507.6 1593.54 506.5 1594.05 C 505.4 1594.55 501.8 1595.09 498.5 1595.23 C 493.13 1595.47 492.47 1595.74 492.18 1597.75 C 492.0 1598.99 491.43 1600.0 490.9 1600.0 C 490.37 1600.0 489.68 1599.33 489.36 1598.5 C 489.05 1597.67 488.38 1597.0 487.89 1597.0 C 487.4 1597.0 487.0 1597.61 487.0 1598.35 C 487.0 1599.08 487.9 1600.5 489.0 1601.5 C 490.1 1602.5 491.0 1603.85 491.0 1604.5 C 491.0 1605.15 491.9 1606.5 493.0 1607.5 C 494.1 1608.5 495.0 1610.05 495.0 1610.95 C 495.0 1611.93 497.26 1613.73 500.68 1615.46 C 503.8 1617.04 508.19 1618.74 510.43 1619.23 C 512.67 1619.73 519.0 1620.48 524.5 1620.92 C 531.24 1621.45 537.6 1621.29 544.0 1620.44 C 549.23 1619.74 555.98 1618.42 559.0 1617.52 C 562.02 1616.61 565.85 1615.63 567.5 1615.35 C 569.15 1615.06 578.72 1610.75 588.77 1605.76 C 598.81 1600.78 608.05 1595.76 609.3 1594.6 C 610.55 1593.45 612.82 1591.68 614.35 1590.68 C 615.88 1589.68 618.11 1588.11 619.3 1587.18 C 620.5 1586.26 624.96 1582.12 629.23 1578.0 C 633.49 1573.88 636.98 1570.16 636.99 1569.74 C 637.0 1569.32 638.69 1567.12 640.75 1564.85 C 642.81 1562.58 647.18 1558.08 650.45 1554.86 C 653.72 1551.64 656.75 1549.0 657.2 1549.0 C 657.64 1549.0 658.0 1549.42 658.0 1549.93 C 658.0 1550.44 657.44 1551.46 656.75 1552.21 C 656.06 1552.95 654.48 1555.0 653.23 1556.76 C 651.98 1558.53 650.52 1561.14 649.98 1562.56 C 649.44 1563.99 647.55 1567.25 645.79 1569.83 C 644.02 1572.4 642.11 1575.16 641.54 1575.97 C 640.97 1576.78 636.33 1581.55 631.24 1586.57 C 626.14 1591.59 618.49 1598.19 614.24 1601.25 C 609.98 1604.3 603.8 1608.17 600.5 1609.83 C 597.2 1611.49 590.23 1614.86 585.0 1617.31 C 579.77 1619.76 574.6 1622.47 573.5 1623.33 C 571.56 1624.85 571.71 1625.09 578.42 1631.2 C 582.83 1635.22 586.64 1637.8 588.92 1638.32 C 590.89 1638.77 593.4 1639.1 594.5 1639.05 C 595.6 1639.0 601.67 1638.71 608.0 1638.41 C 617.05 1637.97 620.56 1637.37 624.5 1635.56 C 627.25 1634.3 630.8 1632.96 632.38 1632.58 C 633.96 1632.21 636.87 1630.8 638.83 1629.47 C 640.8 1628.13 644.79 1624.72 647.7 1621.89 C 650.62 1619.06 653.0 1616.35 653.0 1615.87 C 653.0 1615.39 653.43 1615.0 653.95 1615.0 C 654.48 1615.0 655.98 1613.99 657.28 1612.75 C 658.59 1611.51 662.1 1608.74 665.08 1606.6 C 668.06 1604.45 675.9 1599.92 682.5 1596.53 C 689.1 1593.14 695.85 1589.83 697.5 1589.18 C 699.15 1588.52 702.75 1586.75 705.5 1585.23 C 708.25 1583.72 715.23 1579.37 721.0 1575.57 C 726.77 1571.77 734.53 1565.59 738.22 1561.84 C 741.92 1558.08 745.68 1553.89 746.59 1552.51 C 747.49 1551.13 748.63 1550.0 749.13 1550.0 C 749.62 1550.0 748.49 1553.04 746.61 1556.75 C 743.95 1562.02 741.48 1564.98 735.35 1570.26 C 731.03 1573.98 723.64 1579.61 718.91 1582.76 C 714.19 1585.92 709.24 1589.15 707.91 1589.94 C 706.59 1590.73 703.84 1592.19 701.81 1593.18 C 699.79 1594.17 697.85 1595.44 697.5 1595.99 C 697.16 1596.55 696.01 1597.0 694.94 1597.0 C 693.87 1597.0 693.0 1597.4 693.0 1597.89 C 693.0 1598.37 691.31 1599.54 689.25 1600.49 C 687.19 1601.43 682.48 1603.74 678.78 1605.61 C 675.09 1607.49 669.06 1611.27 665.39 1614.01 C 661.72 1616.75 658.37 1619.0 657.95 1619.0 C 657.53 1619.0 655.35 1620.46 653.1 1622.25 C 650.85 1624.04 647.77 1626.45 646.26 1627.61 C 644.74 1628.76 639.0 1632.11 633.5 1635.03 C 628.0 1637.96 622.38 1640.9 621.0 1641.57 C 619.62 1642.24 616.92 1643.45 615.0 1644.27 C 613.08 1645.09 609.92 1646.32 608.0 1647.0 C 606.08 1647.68 602.02 1649.18 599.0 1650.35 C 595.98 1651.51 591.02 1654.24 588.0 1656.42 C 584.98 1658.6 581.04 1661.73 579.25 1663.39 C 577.46 1665.04 576.0 1666.98 576.0 1667.71 C 576.0 1668.43 574.76 1670.26 573.25 1671.78 C 571.74 1673.3 568.4 1676.22 565.83 1678.27 C 563.26 1680.32 560.73 1682.0 560.2 1682.0 C 559.68 1682.0 558.75 1682.6 558.14 1683.34 C 557.52 1684.07 554.43 1685.27 551.26 1686.0 C 548.09 1686.73 545.07 1687.7 544.55 1688.16 C 544.03 1688.62 542.56 1689.0 541.3 1689.0 C 540.03 1689.0 539.0 1689.36 539.0 1689.8 C 539.0 1690.24 540.46 1691.13 542.25 1691.77 C 544.04 1692.42 549.57 1693.23 554.54 1693.58 C 561.56 1694.08 565.02 1693.83 570.04 1692.48 C 573.59 1691.52 578.08 1689.53 580.0 1688.06 C 581.92 1686.59 587.77 1682.72 593.0 1679.45 C 598.23 1676.18 604.08 1672.5 606.0 1671.27 C 607.92 1670.04 610.0 1668.61 610.61 1668.1 C 611.22 1667.6 613.47 1666.29 615.61 1665.2 C 617.75 1664.1 621.3 1662.23 623.5 1661.03 C 625.7 1659.83 629.38 1657.64 631.69 1656.17 C 633.99 1654.7 639.46 1651.34 643.85 1648.7 C 648.24 1646.07 652.37 1643.25 653.04 1642.45 C 653.7 1641.65 654.79 1641.0 655.46 1641.0 C 656.13 1641.0 659.45 1638.4 662.84 1635.23 C 666.23 1632.05 669.0 1628.71 669.0 1627.8 C 669.0 1626.88 670.01 1625.85 671.25 1625.5 C 672.49 1625.16 674.53 1624.37 675.78 1623.75 C 677.7 1622.81 678.42 1622.98 680.25 1624.8 C 682.01 1626.57 682.18 1627.22 681.14 1628.24 C 680.11 1629.26 679.92 1629.22 680.18 1628.06 C 680.36 1627.27 679.71 1626.45 678.75 1626.24 C 677.79 1626.03 677.0 1626.4 677.0 1627.07 C 677.0 1627.74 674.95 1630.48 672.45 1633.16 C 669.95 1635.83 668.14 1638.42 668.44 1638.91 C 668.74 1639.39 668.55 1642.11 668.01 1644.94 C 667.48 1647.76 665.41 1653.55 663.41 1657.79 C 661.42 1662.03 657.5 1670.22 654.71 1676.0 C 651.91 1681.78 648.58 1687.89 647.31 1689.59 C 646.04 1691.3 645.0 1693.21 645.0 1693.84 C 645.0 1694.48 644.62 1695.0 644.15 1695.0 C 643.68 1695.0 641.79 1697.36 639.95 1700.25 C 638.11 1703.14 636.0 1706.61 635.25 1707.97 C 634.5 1709.32 633.23 1711.12 632.42 1711.97 C 631.62 1712.81 629.61 1715.25 627.98 1717.39 C 626.34 1719.53 625.0 1721.82 625.0 1722.48 C 625.0 1723.14 626.15 1724.2 627.55 1724.84 C 628.95 1725.48 630.82 1726.0 631.71 1726.0 C 632.6 1726.0 635.84 1725.23 638.91 1724.3 C 641.99 1723.36 646.52 1721.24 649.0 1719.59 C 651.48 1717.93 655.86 1714.11 658.75 1711.09 C 661.64 1708.07 664.0 1705.22 664.0 1704.76 C 664.0 1704.3 664.83 1702.7 665.84 1701.21 C 666.85 1699.72 670.11 1694.67 673.1 1690.0 C 676.08 1685.33 679.41 1679.7 680.49 1677.5 C 681.58 1675.3 684.05 1671.08 685.98 1668.12 C 687.92 1665.17 689.99 1661.91 690.59 1660.88 C 691.19 1659.85 692.43 1658.19 693.34 1657.18 C 694.25 1656.17 695.0 1655.06 695.0 1654.71 C 695.0 1654.36 696.8 1651.25 698.99 1647.79 C 701.19 1644.33 702.99 1641.0 702.99 1640.4 C 703.0 1639.79 704.44 1638.1 706.19 1636.65 C 707.95 1635.19 709.66 1634.0 709.99 1634.0 C 710.33 1634.0 711.17 1632.42 711.86 1630.5 C 712.56 1628.58 713.58 1627.0 714.12 1627.0 C 714.67 1627.0 716.97 1625.54 719.23 1623.75 C 721.5 1621.96 725.73 1618.31 728.65 1615.63 C 731.56 1612.95 734.22 1609.87 734.57 1608.78 C 734.91 1607.69 735.97 1606.03 736.93 1605.07 C 737.88 1604.12 739.41 1603.06 740.34 1602.7 C 741.27 1602.34 745.09 1600.05 748.84 1597.6 C 752.59 1595.16 758.02 1590.57 760.9 1587.42 C 763.78 1584.27 767.84 1579.17 769.93 1576.1 C 772.02 1573.02 775.13 1567.71 776.86 1564.29 C 778.58 1560.88 781.19 1554.58 782.65 1550.29 C 784.12 1546.01 785.74 1540.25 786.25 1537.5 C 786.76 1534.75 787.4 1526.76 787.67 1519.75 C 788.1 1508.59 787.96 1507.0 786.58 1507.0 C 785.71 1507.0 785.0 1506.51 785.0 1505.91 C 785.0 1505.31 786.01 1503.51 787.25 1501.91 C 788.49 1500.3 791.41 1496.96 793.74 1494.47 C 796.06 1491.99 800.18 1486.7 802.88 1482.73 C 805.58 1478.75 813.66 1467.62 820.83 1458.0 C 828.0 1448.38 835.13 1438.8 836.68 1436.73 C 838.23 1434.65 840.85 1431.2 842.5 1429.05 C 844.15 1426.9 847.08 1422.84 849.0 1420.03 C 850.92 1417.22 857.45 1408.23 863.5 1400.06 C 869.55 1391.89 875.17 1384.22 876.0 1383.0 C 876.83 1381.79 880.85 1376.23 884.94 1370.65 C 889.04 1365.07 895.37 1356.45 899.02 1351.5 C 902.66 1346.55 907.45 1339.8 909.66 1336.5 C 911.86 1333.2 914.81 1328.44 916.22 1325.92 C 917.62 1323.4 919.22 1320.48 919.76 1319.42 C 920.31 1318.36 923.69 1311.42 927.28 1304.0 C 930.87 1296.58 939.03 1279.97 945.41 1267.1 C 951.78 1254.22 957.0 1242.67 957.0 1241.41 C 957.0 1240.05 957.77 1238.89 958.91 1238.53 C 959.96 1238.19 961.59 1236.74 962.54 1235.3 C 963.49 1233.85 966.06 1230.72 968.26 1228.34 C 970.46 1225.95 972.65 1224.0 973.13 1224.0 C 973.61 1224.0 974.0 1224.49 974.0 1225.1 C 974.0 1225.7 973.39 1227.62 972.64 1229.35 C 971.89 1231.08 969.6 1236.21 967.54 1240.75 C 965.49 1245.29 962.47 1251.37 960.85 1254.25 C 959.23 1257.14 957.1 1260.85 956.12 1262.5 C 955.14 1264.15 951.58 1270.9 948.22 1277.5 C 944.86 1284.1 939.55 1294.9 936.43 1301.5 C 933.32 1308.1 929.79 1315.53 928.6 1318.0 C 927.4 1320.47 923.79 1327.0 920.56 1332.5 C 917.34 1338.0 913.31 1344.3 911.61 1346.5 C 909.91 1348.7 908.17 1350.95 907.74 1351.5 C 907.32 1352.05 901.75 1359.03 895.37 1367.0 C 889.0 1374.97 882.14 1383.34 880.14 1385.58 C 878.14 1387.83 875.64 1390.73 874.59 1392.03 C 873.54 1393.33 870.41 1397.57 867.65 1401.45 C 864.88 1405.33 861.47 1410.0 860.06 1411.83 C 858.65 1413.65 856.05 1417.03 854.27 1419.33 C 852.49 1421.62 847.99 1427.94 844.27 1433.36 C 840.55 1438.78 836.76 1444.33 835.86 1445.69 C 834.96 1447.05 832.94 1449.78 831.38 1451.74 C 829.81 1453.71 828.07 1456.09 827.51 1457.04 C 826.96 1457.99 824.48 1461.57 822.0 1465.0 C 819.52 1468.43 817.05 1471.98 816.5 1472.88 C 815.95 1473.79 814.38 1476.32 813.0 1478.51 C 811.63 1480.71 809.72 1483.85 808.77 1485.5 C 807.82 1487.15 805.96 1490.75 804.66 1493.5 C 803.35 1496.25 801.37 1500.53 800.27 1503.0 C 799.17 1505.47 797.95 1509.3 797.55 1511.5 C 797.15 1513.7 796.44 1515.96 795.98 1516.52 C 795.52 1517.08 794.86 1522.71 794.52 1529.02 C 794.17 1535.33 793.41 1542.53 792.82 1545.0 C 792.22 1547.47 790.92 1552.09 789.92 1555.25 C 788.93 1558.41 786.44 1563.58 784.41 1566.75 C 782.37 1569.91 778.88 1575.2 776.65 1578.5 C 774.42 1581.8 770.79 1586.76 768.57 1589.52 C 766.36 1592.29 762.29 1596.38 759.52 1598.62 C 756.76 1600.86 753.15 1603.39 751.5 1604.24 C 749.85 1605.1 747.38 1606.86 746.0 1608.16 C 744.62 1609.47 742.38 1612.04 741.0 1613.89 C 739.62 1615.73 736.68 1619.55 734.46 1622.37 C 732.25 1625.19 726.62 1630.28 721.96 1633.68 C 717.31 1637.08 712.38 1640.97 711.0 1642.32 C 709.62 1643.67 707.38 1646.97 706.02 1649.64 C 704.65 1652.31 701.93 1656.53 699.97 1659.0 C 698.01 1661.47 694.63 1666.44 692.45 1670.04 C 690.28 1673.63 687.93 1677.46 687.24 1678.54 C 686.55 1679.62 685.69 1681.17 685.32 1682.0 C 684.95 1682.83 684.3 1683.74 683.87 1684.03 C 683.45 1684.32 681.99 1686.12 680.63 1688.03 C 679.27 1689.94 677.19 1693.53 676.02 1696.0 C 674.84 1698.47 673.12 1702.06 672.19 1703.96 C 671.26 1705.86 668.83 1709.36 666.78 1711.74 C 664.73 1714.11 660.91 1717.89 658.28 1720.14 C 655.65 1722.39 652.25 1725.31 650.72 1726.65 C 649.19 1727.98 646.71 1729.56 645.22 1730.15 C 643.72 1730.74 640.25 1731.74 637.5 1732.38 Z M 1800.38 1731.91 C 1797.15 1731.86 1792.39 1731.24 1789.81 1730.53 C 1787.23 1729.82 1783.41 1728.18 1781.32 1726.89 C 1779.22 1725.59 1774.66 1721.84 1771.18 1718.54 C 1767.69 1715.25 1763.32 1710.47 1761.45 1707.93 C 1759.58 1705.39 1757.39 1700.75 1756.57 1697.62 C 1755.76 1694.49 1753.72 1690.28 1752.05 1688.24 C 1750.37 1686.21 1749.0 1684.13 1749.0 1683.62 C 1749.0 1683.11 1747.94 1681.3 1746.65 1679.59 C 1745.35 1677.89 1743.57 1675.15 1742.68 1673.5 C 1741.78 1671.85 1739.21 1668.47 1736.95 1666.0 C 1734.69 1663.53 1731.52 1659.62 1729.92 1657.32 C 1728.31 1655.02 1727.0 1652.86 1727.0 1652.51 C 1727.0 1652.17 1725.18 1649.21 1722.96 1645.95 C 1720.74 1642.68 1718.55 1640.0 1718.09 1640.0 C 1717.63 1640.0 1713.47 1636.96 1708.85 1633.25 C 1704.23 1629.54 1699.56 1625.58 1698.47 1624.46 C 1697.39 1623.34 1694.83 1620.36 1692.79 1617.83 C 1690.74 1615.31 1688.56 1612.13 1687.94 1610.76 C 1687.32 1609.4 1685.23 1607.53 1683.31 1606.61 C 1681.38 1605.69 1677.94 1603.51 1675.66 1601.75 C 1673.37 1600.0 1669.78 1596.97 1667.67 1595.03 C 1665.56 1593.09 1661.17 1588.02 1657.92 1583.78 C 1654.66 1579.53 1652.0 1575.79 1652.0 1575.46 C 1652.0 1575.13 1650.93 1573.43 1649.63 1571.68 C 1648.32 1569.93 1646.02 1566.25 1644.51 1563.5 C 1642.99 1560.75 1640.94 1555.95 1639.95 1552.83 C 1638.95 1549.7 1637.6 1543.49 1636.94 1539.02 C 1636.29 1534.54 1635.99 1528.78 1636.28 1526.22 C 1636.58 1523.55 1636.26 1520.04 1635.52 1518.03 C 1634.82 1516.09 1633.66 1512.47 1632.95 1510.0 C 1632.25 1507.53 1629.42 1500.78 1626.69 1495.0 C 1623.95 1489.22 1619.07 1480.55 1615.85 1475.72 C 1612.63 1470.89 1610.0 1466.72 1610.0 1466.46 C 1610.0 1466.2 1606.06 1460.56 1601.25 1453.93 C 1596.44 1447.3 1591.63 1440.44 1590.57 1438.69 C 1589.51 1436.93 1585.95 1431.9 1582.65 1427.5 C 1579.36 1423.1 1575.5 1418.09 1574.08 1416.37 C 1572.66 1414.64 1570.38 1411.77 1569.0 1409.97 C 1567.62 1408.18 1566.19 1405.99 1565.81 1405.1 C 1565.42 1404.22 1562.95 1400.71 1560.31 1397.31 C 1557.66 1393.9 1552.8 1387.91 1549.5 1383.99 C 1546.2 1380.08 1542.38 1375.4 1541.0 1373.6 C 1539.62 1371.8 1534.9 1365.54 1530.5 1359.7 C 1526.1 1353.85 1519.8 1345.39 1516.5 1340.9 C 1513.2 1336.4 1509.21 1330.42 1507.63 1327.61 C 1506.06 1324.8 1503.96 1320.92 1502.97 1319.0 C 1501.99 1317.08 1499.29 1311.45 1496.97 1306.5 C 1494.66 1301.55 1489.75 1291.42 1486.07 1284.0 C 1482.39 1276.58 1477.25 1266.9 1474.65 1262.5 C 1472.05 1258.1 1469.55 1253.83 1469.1 1253.0 C 1468.66 1252.17 1466.2 1247.11 1463.64 1241.74 C 1461.09 1236.37 1459.0 1230.63 1459.0 1228.99 C 1459.0 1227.34 1459.4 1226.0 1459.9 1226.0 C 1460.39 1226.0 1462.08 1227.63 1463.65 1229.62 C 1465.22 1231.61 1468.19 1234.97 1470.25 1237.08 C 1472.31 1239.19 1474.0 1241.59 1474.0 1242.4 C 1474.0 1243.21 1480.53 1256.92 1488.5 1272.86 C 1496.47 1288.81 1503.0 1302.53 1503.0 1303.37 C 1503.0 1304.2 1503.42 1305.14 1503.94 1305.46 C 1504.45 1305.78 1506.25 1308.58 1507.94 1311.7 C 1509.62 1314.81 1511.0 1317.96 1511.0 1318.71 C 1511.0 1319.45 1513.11 1323.31 1515.68 1327.28 C 1518.25 1331.25 1522.64 1337.42 1525.44 1341.0 C 1528.24 1344.58 1531.68 1349.3 1533.09 1351.5 C 1534.5 1353.7 1536.93 1357.5 1538.47 1359.95 C 1540.02 1362.39 1541.69 1364.87 1542.17 1365.45 C 1542.66 1366.03 1545.49 1369.88 1548.46 1374.0 C 1551.43 1378.12 1554.86 1382.77 1556.08 1384.33 C 1557.29 1385.89 1560.21 1390.03 1562.56 1393.53 C 1564.91 1397.03 1567.33 1400.49 1567.94 1401.2 C 1568.55 1401.92 1572.84 1407.67 1577.47 1414.0 C 1582.1 1420.33 1587.05 1427.08 1588.48 1429.0 C 1589.9 1430.92 1599.26 1443.53 1609.28 1457.02 C 1619.3 1470.51 1628.85 1483.56 1630.5 1486.02 C 1632.15 1488.48 1636.15 1493.12 1639.4 1496.34 L 1645.29 1502.17 C 1642.96 1515.67 1642.7 1521.06 1643.14 1525.89 C 1643.51 1529.96 1644.34 1535.36 1644.98 1537.89 C 1645.62 1540.43 1647.07 1545.65 1648.2 1549.5 C 1649.34 1553.35 1651.19 1558.53 1652.33 1561.0 C 1653.47 1563.47 1655.74 1567.75 1657.39 1570.5 C 1659.04 1573.25 1661.96 1577.53 1663.89 1580.0 C 1665.81 1582.47 1668.99 1586.24 1670.94 1588.36 C 1672.9 1590.48 1676.75 1593.88 1679.5 1595.91 C 1682.25 1597.94 1686.23 1600.41 1688.34 1601.39 C 1690.45 1602.37 1693.14 1604.14 1694.32 1605.32 C 1695.5 1606.5 1696.47 1607.98 1696.48 1608.61 C 1696.49 1609.23 1700.55 1613.42 1705.5 1617.91 C 1710.45 1622.4 1717.09 1628.41 1720.25 1631.27 C 1724.21 1634.85 1727.64 1639.37 1731.25 1645.79 C 1734.14 1650.92 1738.44 1657.22 1740.81 1659.81 C 1743.18 1662.39 1746.45 1667.09 1748.08 1670.26 C 1749.71 1673.44 1752.62 1678.5 1754.55 1681.52 C 1756.48 1684.53 1759.34 1688.46 1760.9 1690.25 C 1762.46 1692.04 1764.69 1695.39 1765.87 1697.71 C 1767.04 1700.03 1768.0 1702.53 1768.0 1703.29 C 1768.0 1704.04 1769.91 1707.2 1772.25 1710.31 C 1774.59 1713.41 1778.65 1717.32 1781.28 1718.98 C 1783.92 1720.64 1786.51 1722.0 1787.05 1722.0 C 1787.59 1722.0 1788.81 1722.41 1789.76 1722.9 C 1790.72 1723.4 1793.45 1724.38 1795.83 1725.09 C 1799.56 1726.19 1800.52 1726.15 1802.8 1724.76 C 1804.26 1723.88 1805.58 1722.77 1805.73 1722.31 C 1805.89 1721.84 1803.2 1717.55 1799.76 1712.77 C 1796.32 1708.0 1792.15 1702.22 1790.5 1699.93 C 1788.85 1697.63 1786.82 1694.58 1786.0 1693.13 C 1785.17 1691.68 1783.57 1689.15 1782.45 1687.5 C 1781.32 1685.85 1779.43 1682.47 1778.25 1680.0 C 1777.06 1677.53 1773.37 1669.84 1770.05 1662.92 C 1766.72 1656.0 1764.0 1649.62 1764.0 1648.73 C 1764.0 1647.84 1763.6 1646.87 1763.1 1646.56 C 1762.61 1646.26 1762.39 1643.24 1762.63 1639.86 C 1762.96 1634.97 1762.68 1633.3 1761.27 1631.71 C 1760.3 1630.62 1757.7 1628.89 1755.5 1627.88 C 1751.72 1626.14 1751.65 1626.04 1754.31 1626.02 C 1755.92 1626.01 1756.86 1625.57 1756.5 1625.0 C 1756.16 1624.45 1754.22 1623.98 1752.19 1623.96 L 1748.5 1623.92 C 1753.88 1621.0 1754.89 1620.96 1758.4 1622.07 C 1760.66 1622.78 1763.06 1623.78 1763.75 1624.3 C 1764.44 1624.82 1765.0 1626.01 1765.0 1626.94 C 1765.0 1627.88 1768.86 1631.83 1773.58 1635.73 C 1778.3 1639.62 1784.94 1644.28 1788.33 1646.07 C 1791.72 1647.87 1794.72 1649.6 1795.0 1649.92 C 1795.28 1650.24 1797.3 1651.68 1799.5 1653.11 C 1801.7 1654.54 1805.08 1656.67 1807.0 1657.83 C 1808.92 1659.0 1813.53 1661.5 1817.23 1663.39 C 1820.94 1665.28 1824.69 1667.55 1825.58 1668.43 C 1826.46 1669.32 1831.53 1672.59 1836.84 1675.69 C 1842.15 1678.8 1848.97 1682.96 1852.0 1684.95 C 1855.03 1686.93 1859.3 1689.2 1861.5 1689.99 C 1864.18 1690.95 1869.09 1691.37 1876.41 1691.26 C 1884.21 1691.15 1887.72 1690.71 1888.71 1689.72 C 1889.85 1688.58 1889.86 1688.13 1888.8 1687.26 C 1888.09 1686.68 1883.9 1684.81 1879.5 1683.12 C 1874.3 1681.12 1869.7 1678.46 1866.34 1675.52 C 1863.5 1673.03 1860.91 1671.0 1860.59 1671.0 C 1860.27 1671.0 1858.09 1669.17 1855.75 1666.93 C 1853.41 1664.68 1849.03 1660.92 1846.0 1658.57 C 1842.97 1656.21 1838.7 1653.4 1836.5 1652.32 C 1834.3 1651.24 1830.47 1649.77 1828.0 1649.05 C 1825.53 1648.33 1820.8 1646.5 1817.5 1644.97 C 1814.2 1643.45 1810.38 1641.71 1809.0 1641.11 C 1807.62 1640.51 1805.83 1639.59 1805.0 1639.08 C 1804.17 1638.57 1802.83 1637.87 1802.0 1637.53 C 1801.17 1637.19 1797.47 1635.24 1793.77 1633.19 C 1790.06 1631.14 1784.66 1627.2 1781.77 1624.42 C 1778.87 1621.65 1773.8 1617.34 1770.5 1614.84 C 1767.2 1612.34 1761.4 1608.66 1757.61 1606.65 C 1753.82 1604.65 1750.22 1602.64 1749.61 1602.19 C 1749.0 1601.75 1746.47 1600.57 1744.0 1599.57 C 1741.53 1598.57 1738.6 1597.43 1737.5 1597.02 C 1736.4 1596.61 1733.77 1595.53 1731.66 1594.61 C 1729.55 1593.7 1725.28 1591.24 1722.16 1589.15 C 1719.05 1587.06 1714.82 1584.2 1712.77 1582.79 C 1710.72 1581.37 1705.55 1577.13 1701.29 1573.36 C 1697.02 1569.59 1693.07 1566.03 1692.51 1565.46 C 1691.96 1564.89 1690.85 1563.32 1690.06 1561.96 C 1689.27 1560.61 1687.36 1556.91 1685.81 1553.73 C 1684.27 1550.56 1683.0 1547.66 1683.0 1547.28 C 1683.0 1546.9 1683.79 1547.64 1684.75 1548.91 C 1685.71 1550.18 1689.2 1554.16 1692.5 1557.74 C 1695.8 1561.33 1701.2 1566.32 1704.5 1568.83 C 1707.8 1571.35 1710.72 1573.69 1711.0 1574.03 C 1711.28 1574.37 1713.08 1575.51 1715.0 1576.56 C 1716.92 1577.62 1719.17 1578.99 1720.0 1579.61 C 1720.83 1580.23 1726.0 1583.11 1731.5 1586.02 C 1737.0 1588.92 1745.89 1593.59 1751.26 1596.4 C 1756.63 1599.2 1762.26 1602.5 1763.76 1603.72 C 1765.27 1604.95 1768.75 1607.64 1771.5 1609.7 C 1774.25 1611.77 1779.27 1616.09 1782.64 1619.3 C 1786.02 1622.51 1790.3 1626.26 1792.14 1627.63 C 1793.99 1629.01 1798.42 1631.49 1802.0 1633.15 C 1805.58 1634.8 1809.24 1636.55 1810.14 1637.02 C 1811.04 1637.49 1815.94 1637.97 1821.04 1638.08 C 1826.14 1638.19 1831.87 1638.63 1833.76 1639.06 C 1835.96 1639.55 1838.87 1639.34 1841.85 1638.45 C 1845.1 1637.49 1848.63 1635.11 1853.5 1630.61 C 1857.34 1627.06 1860.12 1623.78 1859.66 1623.33 C 1859.21 1622.88 1856.29 1621.05 1853.17 1619.26 C 1850.05 1617.48 1842.83 1613.76 1837.12 1611.0 C 1831.42 1608.24 1824.16 1604.07 1821.0 1601.74 C 1817.84 1599.41 1813.96 1596.62 1812.38 1595.55 C 1810.79 1594.48 1806.1 1590.2 1801.94 1586.05 C 1797.79 1581.9 1792.39 1575.8 1789.94 1572.5 C 1787.5 1569.2 1784.29 1564.7 1782.8 1562.5 C 1781.32 1560.3 1778.76 1556.62 1777.12 1554.32 C 1774.69 1550.9 1774.38 1549.93 1775.48 1549.02 C 1776.41 1548.25 1777.02 1548.23 1777.47 1548.95 C 1777.83 1549.53 1777.64 1550.0 1777.06 1550.0 C 1776.48 1550.0 1776.0 1550.51 1776.0 1551.12 C 1776.0 1551.87 1776.53 1551.8 1777.59 1550.92 C 1778.95 1549.79 1779.47 1549.96 1781.09 1552.05 C 1782.14 1553.4 1785.13 1557.64 1787.75 1561.47 C 1790.36 1565.3 1796.78 1572.73 1802.0 1577.98 C 1807.22 1583.22 1814.88 1589.8 1819.0 1592.58 C 1823.12 1595.36 1828.3 1598.57 1830.5 1599.72 C 1832.7 1600.87 1836.53 1602.75 1839.0 1603.91 C 1841.47 1605.07 1844.17 1606.42 1845.0 1606.93 C 1845.83 1607.43 1849.57 1609.26 1853.32 1610.98 C 1857.07 1612.71 1862.69 1614.59 1865.82 1615.16 C 1868.94 1615.72 1873.53 1616.6 1876.0 1617.1 C 1878.47 1617.6 1883.42 1618.3 1887.0 1618.64 C 1890.58 1618.98 1893.95 1619.59 1894.5 1619.99 C 1895.05 1620.39 1898.61 1620.81 1902.42 1620.93 C 1906.22 1621.05 1912.3 1620.62 1915.92 1619.98 C 1919.54 1619.33 1923.28 1618.4 1924.24 1617.9 C 1925.19 1617.41 1926.77 1617.0 1927.74 1617.0 C 1928.71 1617.0 1930.63 1615.99 1932.01 1614.75 C 1933.39 1613.51 1935.75 1610.84 1937.26 1608.82 C 1938.77 1606.79 1940.08 1604.32 1940.17 1603.32 C 1940.27 1602.32 1940.0 1600.07 1939.56 1598.33 C 1938.8 1595.23 1938.62 1595.14 1932.14 1594.65 C 1928.49 1594.38 1923.03 1593.68 1920.0 1593.11 C 1916.97 1592.54 1912.03 1591.59 1909.0 1591.0 C 1905.97 1590.41 1900.46 1589.52 1896.75 1589.03 C 1893.04 1588.53 1886.96 1587.12 1883.25 1585.9 C 1879.54 1584.68 1876.07 1583.3 1875.55 1582.84 C 1875.03 1582.38 1873.99 1582.0 1873.25 1582.0 C 1872.51 1582.0 1870.04 1581.1 1867.76 1580.0 C 1865.49 1578.9 1863.03 1578.0 1862.3 1578.0 C 1861.57 1578.0 1860.19 1577.59 1859.24 1577.09 C 1858.28 1576.6 1850.83 1572.99 1842.67 1569.09 C 1834.51 1565.19 1826.74 1561.72 1825.41 1561.39 C 1824.07 1561.05 1822.73 1560.38 1822.43 1559.89 C 1822.13 1559.4 1821.23 1559.0 1820.44 1559.0 C 1819.65 1559.0 1819.0 1559.67 1819.0 1560.5 C 1819.0 1561.33 1818.53 1562.0 1817.95 1562.0 C 1817.37 1562.0 1816.26 1560.48 1815.49 1558.62 C 1814.58 1556.44 1812.67 1554.51 1810.11 1553.18 C 1807.94 1552.04 1805.33 1550.44 1804.33 1549.62 C 1803.32 1548.8 1800.47 1546.64 1798.0 1544.82 C 1795.53 1542.99 1792.15 1540.84 1790.5 1540.03 C 1788.85 1539.22 1785.7 1537.2 1783.5 1535.54 C 1781.3 1533.89 1778.91 1531.96 1778.18 1531.26 C 1777.45 1530.57 1776.55 1529.99 1776.18 1529.98 C 1775.81 1529.98 1773.92 1528.57 1772.0 1526.86 C 1770.08 1525.16 1766.48 1522.13 1764.0 1520.13 C 1761.53 1518.13 1758.95 1516.05 1758.28 1515.5 C 1757.61 1514.95 1755.81 1513.51 1754.28 1512.3 C 1752.75 1511.09 1744.22 1504.68 1735.32 1498.05 C 1726.42 1491.42 1718.73 1486.0 1718.24 1486.0 C 1717.74 1486.0 1715.7 1484.37 1713.7 1482.37 C 1711.7 1480.37 1709.53 1477.11 1708.88 1475.12 C 1708.23 1473.13 1705.7 1467.45 1703.27 1462.5 C 1700.84 1457.55 1698.38 1452.63 1697.81 1451.58 C 1697.24 1450.52 1694.77 1443.99 1692.34 1437.08 C 1689.9 1430.16 1687.17 1422.81 1686.26 1420.75 C 1685.36 1418.69 1684.25 1417.0 1683.81 1417.0 C 1683.36 1417.0 1683.0 1416.13 1683.0 1415.06 C 1683.0 1413.99 1682.15 1411.63 1681.1 1409.81 C 1680.06 1407.99 1676.95 1399.75 1674.19 1391.5 C 1671.42 1383.25 1668.38 1373.8 1667.42 1370.5 C 1666.47 1367.2 1665.31 1364.07 1664.84 1363.55 C 1664.38 1363.03 1664.0 1361.78 1664.0 1360.79 C 1664.0 1359.79 1663.61 1358.19 1663.13 1357.24 C 1662.65 1356.28 1661.3 1353.35 1660.13 1350.72 C 1658.96 1348.1 1658.0 1345.53 1658.0 1345.03 C 1658.0 1344.53 1656.17 1340.15 1653.94 1335.31 C 1651.71 1330.46 1648.55 1323.8 1646.92 1320.5 C 1645.29 1317.2 1642.54 1312.03 1640.8 1309.0 C 1639.06 1305.97 1635.13 1299.72 1632.07 1295.1 C 1629.0 1290.48 1626.01 1285.87 1625.41 1284.86 C 1624.81 1283.84 1623.57 1282.19 1622.66 1281.18 C 1621.75 1280.17 1621.0 1278.82 1621.0 1278.17 C 1621.0 1277.53 1620.62 1277.0 1620.15 1277.0 C 1619.68 1277.0 1615.52 1272.68 1610.9 1267.4 C 1606.28 1262.12 1602.05 1257.01 1601.5 1256.04 C 1600.95 1255.07 1598.86 1252.3 1596.85 1249.89 C 1594.85 1247.47 1589.16 1240.33 1584.21 1234.0 C 1579.26 1227.67 1574.38 1221.57 1573.36 1220.42 C 1572.34 1219.28 1569.7 1216.33 1567.5 1213.86 C 1565.3 1211.4 1562.6 1208.27 1561.5 1206.92 C 1560.4 1205.56 1557.03 1201.54 1554.0 1197.98 C 1550.97 1194.41 1547.95 1190.92 1547.27 1190.2 C 1546.6 1189.49 1545.34 1187.47 1544.48 1185.7 C 1543.62 1183.94 1540.93 1181.04 1538.5 1179.25 C 1536.07 1177.46 1533.83 1176.0 1533.52 1176.0 C 1533.21 1176.0 1531.06 1174.76 1528.73 1173.25 C 1526.4 1171.74 1521.8 1169.04 1518.5 1167.26 C 1515.2 1165.48 1509.6 1162.63 1506.06 1160.94 C 1501.43 1158.71 1500.01 1157.61 1501.01 1157.0 C 1501.79 1156.51 1503.15 1156.54 1504.13 1157.07 C 1505.09 1157.58 1507.22 1158.0 1508.88 1158.0 C 1510.53 1158.0 1512.16 1158.45 1512.5 1159.0 C 1512.84 1159.55 1513.81 1160.0 1514.66 1160.0 C 1515.51 1160.0 1518.49 1161.15 1521.28 1162.55 C 1524.07 1163.95 1530.39 1167.78 1535.32 1171.05 C 1540.24 1174.32 1545.36 1177.0 1546.69 1177.0 C 1548.14 1177.0 1550.29 1178.29 1552.06 1180.22 C 1553.68 1182.0 1555.0 1184.02 1555.0 1184.72 C 1555.0 1185.43 1555.42 1186.0 1555.94 1186.0 C 1556.45 1186.0 1557.88 1187.8 1559.12 1190.0 C 1560.36 1192.2 1561.69 1194.0 1562.09 1194.0 C 1562.48 1194.0 1563.67 1195.46 1564.73 1197.25 C 1565.8 1199.04 1567.63 1201.62 1568.81 1203.0 C 1569.98 1204.38 1572.42 1207.34 1574.22 1209.58 C 1576.02 1211.82 1578.62 1215.14 1580.0 1216.95 C 1581.38 1218.76 1584.3 1222.59 1586.5 1225.47 C 1588.7 1228.35 1593.2 1233.82 1596.5 1237.62 C 1599.8 1241.43 1604.38 1246.79 1606.69 1249.52 C 1608.99 1252.26 1612.46 1256.75 1614.4 1259.5 C 1616.33 1262.25 1619.51 1266.82 1621.46 1269.67 C 1623.4 1272.51 1625.4 1274.98 1625.89 1275.17 C 1626.39 1275.35 1627.62 1276.9 1628.64 1278.61 C 1629.67 1280.32 1632.97 1285.27 1635.99 1289.61 C 1639.02 1293.95 1641.94 1298.27 1642.49 1299.21 C 1643.05 1300.16 1645.82 1304.74 1648.66 1309.39 C 1651.5 1314.05 1656.09 1322.5 1658.86 1328.18 C 1661.63 1333.86 1665.09 1341.88 1666.56 1346.0 C 1668.03 1350.12 1672.33 1362.72 1676.12 1374.0 C 1679.91 1385.28 1683.43 1395.4 1683.94 1396.5 C 1684.45 1397.6 1685.83 1401.42 1687.0 1405.0 C 1688.17 1408.58 1689.55 1412.4 1690.06 1413.5 C 1690.58 1414.6 1691.87 1417.97 1692.94 1421.0 C 1694.02 1424.03 1695.63 1428.52 1696.52 1430.99 C 1697.42 1433.46 1698.52 1435.94 1698.96 1436.49 C 1699.4 1437.05 1701.63 1442.16 1703.92 1447.85 C 1706.2 1453.55 1709.06 1460.15 1710.28 1462.53 C 1711.5 1464.91 1714.97 1470.01 1718.0 1473.87 C 1722.33 1479.4 1725.2 1481.87 1731.5 1485.52 C 1735.9 1488.06 1743.33 1492.82 1748.0 1496.09 C 1752.67 1499.36 1757.45 1502.59 1758.61 1503.27 C 1759.77 1503.95 1763.58 1506.75 1767.08 1509.5 C 1770.58 1512.25 1777.73 1518.31 1782.97 1522.97 C 1788.21 1527.62 1792.72 1531.7 1793.0 1532.01 C 1793.28 1532.33 1796.2 1534.64 1799.5 1537.15 C 1802.8 1539.66 1806.85 1542.41 1808.5 1543.26 C 1810.15 1544.11 1814.11 1547.1 1817.31 1549.91 C 1820.5 1552.71 1823.78 1555.0 1824.59 1555.0 C 1825.4 1555.0 1828.29 1556.12 1831.0 1557.5 C 1833.71 1558.88 1836.47 1560.0 1837.12 1560.0 C 1837.77 1560.0 1840.6 1561.1 1843.4 1562.44 C 1846.21 1563.79 1851.2 1566.06 1854.5 1567.48 C 1857.8 1568.91 1861.28 1570.51 1862.24 1571.04 C 1863.19 1571.57 1864.8 1572.0 1865.82 1572.0 C 1866.84 1572.0 1870.56 1572.94 1874.08 1574.09 C 1877.61 1575.24 1881.17 1576.76 1882.0 1577.47 C 1882.83 1578.18 1884.85 1579.02 1886.5 1579.33 C 1888.15 1579.65 1891.75 1580.4 1894.5 1581.01 C 1897.25 1581.61 1901.97 1582.56 1905.0 1583.12 C 1908.03 1583.67 1914.33 1584.51 1919.0 1584.99 C 1923.67 1585.47 1930.42 1586.3 1933.99 1586.85 C 1937.56 1587.39 1940.71 1587.82 1940.99 1587.8 C 1941.27 1587.78 1942.71 1587.82 1944.18 1587.88 C 1945.65 1587.95 1947.51 1588.65 1948.31 1589.45 C 1949.11 1590.25 1950.05 1592.84 1950.4 1595.2 C 1950.81 1597.93 1950.49 1601.33 1949.54 1604.5 C 1948.51 1607.89 1946.32 1611.36 1942.72 1615.25 C 1939.81 1618.41 1937.08 1621.0 1936.67 1621.0 C 1936.25 1621.0 1934.98 1621.87 1933.83 1622.94 C 1932.69 1624.01 1928.54 1625.88 1924.63 1627.11 C 1919.28 1628.78 1914.26 1629.44 1904.5 1629.75 C 1894.75 1630.06 1890.01 1629.77 1885.55 1628.58 C 1881.57 1627.53 1879.26 1627.34 1878.59 1628.01 C 1877.92 1628.68 1878.75 1630.09 1881.08 1632.25 C 1883.0 1634.04 1885.68 1636.3 1887.04 1637.28 C 1888.39 1638.26 1890.69 1639.83 1892.14 1640.78 C 1893.59 1641.73 1899.22 1645.42 1904.66 1649.0 C 1910.1 1652.58 1916.17 1656.33 1918.17 1657.35 C 1920.16 1658.37 1923.37 1660.51 1925.31 1662.11 C 1927.26 1663.71 1929.6 1667.0 1930.54 1669.46 C 1931.52 1672.04 1931.97 1674.97 1931.6 1676.44 C 1931.26 1677.83 1929.58 1680.55 1927.88 1682.49 C 1926.18 1684.42 1923.28 1686.72 1921.44 1687.59 C 1919.61 1688.47 1915.94 1689.19 1913.3 1689.21 C 1910.52 1689.23 1905.14 1690.49 1900.5 1692.22 C 1896.1 1693.85 1891.65 1695.64 1890.62 1696.19 C 1889.58 1696.74 1882.9 1697.2 1875.78 1697.21 C 1867.56 1697.22 1862.42 1696.82 1861.71 1696.11 C 1861.1 1695.5 1859.78 1695.0 1858.79 1695.0 C 1857.79 1695.0 1856.19 1694.62 1855.24 1694.16 C 1854.28 1693.7 1851.86 1692.46 1849.86 1691.41 C 1847.86 1690.36 1843.36 1687.37 1839.86 1684.77 C 1836.36 1682.17 1832.38 1679.15 1831.0 1678.07 C 1829.62 1676.98 1826.91 1675.03 1824.98 1673.73 C 1823.04 1672.43 1819.1 1670.3 1816.23 1669.01 C 1813.35 1667.71 1811.0 1666.27 1811.0 1665.82 C 1811.0 1665.37 1810.21 1664.96 1809.25 1664.92 C 1808.29 1664.88 1805.7 1663.78 1803.5 1662.49 C 1801.3 1661.2 1798.15 1659.37 1796.5 1658.43 C 1794.85 1657.5 1789.9 1654.14 1785.5 1650.97 C 1781.1 1647.81 1776.64 1644.27 1775.6 1643.11 C 1774.55 1641.95 1773.31 1641.0 1772.85 1641.0 C 1772.38 1641.0 1772.0 1641.59 1772.0 1642.31 C 1772.0 1643.03 1773.08 1645.87 1774.41 1648.62 C 1775.74 1651.37 1777.35 1655.6 1778.0 1658.02 C 1778.66 1660.44 1781.18 1666.26 1783.62 1670.96 C 1786.05 1675.66 1789.89 1682.88 1792.14 1687.0 C 1794.39 1691.12 1796.87 1695.69 1797.64 1697.14 C 1798.41 1698.6 1799.71 1700.34 1800.52 1701.02 C 1801.33 1701.69 1802.0 1702.87 1802.0 1703.63 C 1802.0 1704.4 1802.9 1705.79 1804.0 1706.73 C 1805.1 1707.67 1806.01 1708.91 1806.02 1709.47 C 1806.02 1710.04 1808.08 1712.75 1810.58 1715.5 C 1813.07 1718.25 1815.5 1721.18 1815.97 1722.01 C 1816.48 1722.92 1816.3 1724.75 1815.54 1726.57 C 1814.6 1728.8 1813.21 1729.92 1810.27 1730.8 C 1808.07 1731.46 1803.62 1731.96 1800.38 1731.91 Z M 529.93 1684.87 C 533.41 1684.95 537.61 1684.22 541.02 1682.95 C 544.03 1681.82 548.52 1680.2 551.0 1679.35 C 553.48 1678.5 555.93 1677.4 556.45 1676.9 C 556.97 1676.41 558.15 1676.0 559.07 1676.0 C 559.99 1676.0 564.18 1673.26 568.37 1669.91 C 572.69 1666.46 576.0 1663.06 576.0 1662.06 C 576.0 1661.09 577.04 1659.21 578.31 1657.9 C 579.59 1656.58 581.62 1654.83 582.84 1654.0 C 584.06 1653.17 587.61 1651.12 590.72 1649.43 C 593.83 1647.74 596.56 1645.83 596.77 1645.18 C 597.05 1644.34 594.79 1643.99 588.83 1643.98 C 581.43 1643.96 580.0 1643.65 575.99 1641.13 C 573.5 1639.57 570.15 1636.31 568.52 1633.9 C 566.9 1631.48 565.46 1629.33 565.32 1629.11 C 565.17 1628.9 562.46 1631.21 559.28 1634.24 C 556.1 1637.27 551.7 1641.27 549.5 1643.13 C 547.3 1644.98 545.26 1646.81 544.98 1647.19 C 544.69 1647.57 539.38 1651.5 533.19 1655.91 C 527.0 1660.32 520.49 1664.73 518.72 1665.71 C 516.95 1666.7 515.27 1667.77 515.0 1668.11 C 514.73 1668.45 513.04 1669.47 511.25 1670.39 C 509.46 1671.3 508.0 1672.49 508.0 1673.03 C 508.0 1673.56 509.8 1675.8 512.0 1678.0 C 514.2 1680.2 516.79 1682.02 517.75 1682.04 C 518.71 1682.05 520.59 1682.67 521.91 1683.41 C 523.24 1684.14 526.85 1684.8 529.93 1684.87 Z M 1904.0 1682.6 C 1907.58 1682.41 1912.18 1681.54 1914.23 1680.68 C 1916.28 1679.82 1919.16 1678.01 1920.62 1676.65 C 1922.09 1675.29 1923.05 1673.58 1922.76 1672.84 C 1922.48 1672.1 1919.83 1670.2 1916.87 1668.62 C 1913.92 1667.04 1909.86 1664.45 1907.86 1662.87 C 1905.85 1661.29 1903.88 1660.0 1903.48 1660.0 C 1903.07 1660.0 1901.09 1658.54 1899.08 1656.75 C 1897.06 1654.96 1893.85 1652.24 1891.95 1650.71 C 1890.05 1649.18 1883.82 1643.36 1878.09 1637.78 L 1867.68 1627.64 C 1864.44 1631.89 1861.8 1634.89 1859.72 1637.05 C 1857.64 1639.21 1854.49 1641.73 1852.72 1642.64 C 1850.48 1643.81 1847.15 1644.28 1841.69 1644.23 C 1836.15 1644.18 1833.99 1644.5 1834.26 1645.33 C 1834.46 1645.97 1836.9 1647.62 1839.67 1649.0 C 1842.44 1650.38 1846.46 1652.84 1848.6 1654.47 C 1850.75 1656.11 1855.91 1660.38 1860.08 1663.97 C 1864.26 1667.57 1869.21 1671.26 1871.08 1672.19 C 1872.96 1673.12 1876.55 1674.8 1879.07 1675.94 C 1881.58 1677.07 1884.36 1678.0 1885.26 1678.0 C 1886.15 1678.0 1887.16 1678.45 1887.5 1679.0 C 1887.84 1679.55 1889.1 1680.02 1890.31 1680.04 C 1891.51 1680.05 1893.62 1680.72 1895.0 1681.51 C 1896.69 1682.48 1899.62 1682.83 1904.0 1682.6 Z M 712.25 1625.89 C 711.84 1625.84 710.26 1625.3 708.75 1624.7 C 707.24 1624.1 706.0 1623.25 706.0 1622.81 C 706.0 1622.36 706.79 1622.01 707.75 1622.03 C 708.71 1622.05 710.29 1622.66 711.25 1623.39 C 712.21 1624.12 713.0 1625.01 713.0 1625.36 C 713.0 1625.71 712.66 1625.95 712.25 1625.89 Z M 740.96 1484.55 C 737.9 1484.58 737.32 1484.32 738.17 1483.3 C 738.76 1482.58 740.03 1482.0 741.0 1482.0 C 741.97 1482.0 743.22 1482.56 743.79 1483.25 C 744.58 1484.21 743.93 1484.51 740.96 1484.55 Z M 897.79 1248.59 C 897.61 1254.85 897.23 1257.58 896.76 1256.0 C 896.36 1254.62 896.02 1249.7 896.01 1245.05 C 896.0 1239.21 896.32 1236.92 897.04 1237.64 C 897.66 1238.26 897.96 1242.67 897.79 1248.59 Z M 1533.91 1254.45 C 1533.36 1255.03 1533.01 1251.87 1533.03 1246.45 C 1533.06 1239.08 1533.27 1237.85 1534.25 1239.5 C 1534.92 1240.64 1535.3 1244.09 1535.13 1247.5 C 1534.96 1250.8 1534.41 1253.93 1533.91 1254.45 Z " opacity="1.0" fill="#000000" stroke="none" fill-rule="evenodd"/></svg>