<svg width="2400" height="3200" xmlns="http://www.w3.org/2000/svg" viewBox="0 0 2400 3200"><path d="M 628.97 1732.0 C 624.76 1732.0 622.89 1731.53 621.65 1730.17 C 620.74 1729.17 620.0 1727.31 620.0 1726.05 C 620.0 1724.79 621.24 1722.28 622.75 1720.46 C 624.26 1718.65 627.44 1714.54 629.81 1711.33 C 632.18 1708.12 636.11 1702.85 638.54 1699.6 C 640.97 1696.36 643.25 1692.76 643.61 1691.6 C 643.97 1690.45 645.05 1688.38 646.02 1687.0 C 646.99 1685.62 649.2 1681.7 650.94 1678.28 C 652.68 1674.86 654.53 1671.79 655.05 1671.47 C 655.57 1671.15 656.0 1669.81 656.0 1668.5 C 656.0 1667.19 656.45 1665.84 657.0 1665.5 C 657.55 1665.16 658.0 1663.81 658.0 1662.5 C 658.0 1661.19 658.37 1659.89 658.83 1659.6 C 659.29 1659.32 660.23 1655.81 660.91 1651.8 C 661.6 1647.78 662.58 1643.72 663.08 1642.76 C 663.59 1641.81 664.0 1640.86 664.0 1640.67 C 664.0 1640.47 662.66 1640.27 661.02 1640.22 C 658.8 1640.16 657.5 1640.89 655.93 1643.1 C 654.77 1644.72 651.73 1647.12 649.16 1648.43 C 646.6 1649.73 642.75 1652.19 640.61 1653.9 C 638.35 1655.71 635.55 1657.0 633.92 1657.0 C 631.84 1657.0 630.77 1657.71 629.8 1659.75 C 628.91 1661.62 625.5 1664.15 619.12 1667.67 C 613.97 1670.52 608.35 1674.2 606.63 1675.86 C 604.91 1677.51 599.0 1681.87 593.5 1685.54 C 588.0 1689.21 581.79 1693.09 579.7 1694.15 C 577.61 1695.22 572.33 1696.61 567.97 1697.25 C 562.04 1698.11 557.48 1698.12 549.97 1697.29 C 544.44 1696.67 539.27 1695.64 538.48 1694.99 C 537.7 1694.34 537.16 1692.86 537.28 1691.7 C 537.47 1689.9 536.92 1689.57 533.5 1689.43 C 531.3 1689.34 527.53 1688.74 525.12 1688.1 C 522.71 1687.46 519.8 1686.27 518.65 1685.47 C 517.5 1684.66 515.82 1684.0 514.91 1684.0 C 514.01 1684.0 511.91 1682.76 510.25 1681.25 C 508.58 1679.74 506.45 1677.28 505.52 1675.78 C 503.83 1673.09 503.84 1673.04 507.66 1669.54 C 509.77 1667.6 512.06 1666.01 512.75 1666.0 C 513.44 1666.0 514.0 1665.62 514.0 1665.16 C 514.0 1664.7 517.9 1661.21 522.66 1657.41 C 527.43 1653.61 534.79 1648.03 539.02 1645.0 C 543.25 1641.97 549.93 1636.62 553.86 1633.09 C 557.79 1629.56 561.0 1626.03 561.0 1625.25 C 561.0 1624.06 559.26 1623.92 550.75 1624.42 C 545.11 1624.76 535.6 1625.29 529.61 1625.61 C 523.45 1625.93 517.8 1625.77 516.61 1625.23 C 515.45 1624.71 512.92 1623.81 511.0 1623.25 C 509.07 1622.68 505.31 1621.6 502.64 1620.86 C 499.49 1619.98 497.1 1618.55 495.84 1616.78 C 494.78 1615.28 492.58 1613.27 490.95 1612.31 C 489.33 1611.35 488.0 1609.95 488.0 1609.19 C 488.0 1608.43 487.13 1606.58 486.06 1605.08 C 484.36 1602.7 484.27 1601.91 485.32 1598.85 C 485.98 1596.93 487.23 1594.28 488.11 1592.96 C 489.55 1590.78 490.01 1590.67 493.21 1591.65 C 495.15 1592.24 498.93 1592.55 501.61 1592.34 C 504.3 1592.13 507.4 1591.82 508.5 1591.66 C 509.6 1591.49 512.3 1590.99 514.5 1590.54 C 516.7 1590.09 520.3 1588.92 522.5 1587.93 C 524.7 1586.95 528.52 1585.91 531.0 1585.63 C 533.48 1585.35 537.75 1584.71 540.5 1584.2 C 543.25 1583.7 546.4 1582.92 547.5 1582.48 C 548.6 1582.04 550.67 1580.87 552.09 1579.88 C 554.06 1578.52 554.97 1578.37 555.84 1579.24 C 556.72 1580.12 557.29 1580.11 558.2 1579.2 C 558.86 1578.54 560.01 1578.0 560.76 1578.0 C 561.51 1578.0 565.03 1576.6 568.57 1574.89 C 572.12 1573.18 575.28 1571.36 575.6 1570.84 C 575.94 1570.28 576.75 1570.38 577.59 1571.07 C 578.63 1571.94 579.35 1571.95 580.34 1571.13 C 581.08 1570.52 581.97 1570.3 582.31 1570.65 C 582.66 1571.0 584.5 1570.09 586.41 1568.64 C 588.31 1567.19 590.56 1566.0 591.4 1566.0 C 592.25 1566.0 594.64 1565.04 596.72 1563.86 C 598.8 1562.68 602.96 1560.43 605.97 1558.86 C 608.98 1557.29 612.16 1556.0 613.03 1556.0 C 613.91 1556.0 615.62 1554.65 616.84 1553.0 C 618.06 1551.35 619.53 1550.0 620.11 1550.0 C 620.69 1550.0 625.71 1546.29 631.27 1541.75 C 636.84 1537.21 643.66 1531.46 646.44 1528.97 C 649.23 1526.48 654.47 1521.88 658.11 1518.76 C 661.74 1515.63 668.41 1510.14 672.93 1506.55 C 677.45 1502.97 684.82 1497.6 689.32 1494.62 C 693.82 1491.64 701.02 1487.14 705.33 1484.6 C 709.64 1482.07 713.77 1480.0 714.51 1480.0 C 715.25 1480.0 716.0 1478.99 716.18 1477.75 C 716.36 1476.51 717.09 1475.5 717.82 1475.5 C 718.54 1475.5 720.61 1472.58 722.42 1469.0 C 724.23 1465.42 727.32 1457.78 729.28 1452.0 C 731.24 1446.22 735.18 1434.97 738.03 1427.0 C 740.89 1419.03 743.45 1411.48 743.73 1410.24 C 744.01 1408.99 744.64 1407.73 745.12 1407.43 C 745.6 1407.13 746.0 1405.78 746.0 1404.44 C 746.0 1403.1 746.4 1402.0 746.89 1402.0 C 747.38 1402.0 748.05 1402.67 748.36 1403.5 C 748.68 1404.33 749.38 1405.0 749.92 1405.0 C 750.46 1405.0 751.57 1403.54 752.38 1401.75 C 753.19 1399.96 754.29 1396.3 754.84 1393.6 C 755.5 1390.29 755.48 1387.96 754.79 1386.43 C 754.06 1384.83 754.09 1383.19 754.88 1380.93 C 755.49 1379.15 756.0 1376.56 756.0 1375.17 C 756.0 1373.78 756.51 1371.04 757.14 1369.07 C 757.77 1367.11 759.6 1361.9 761.22 1357.5 C 762.83 1353.1 764.57 1348.72 765.08 1347.76 C 765.58 1346.81 766.0 1345.34 766.0 1344.5 C 766.0 1343.66 766.45 1342.19 766.99 1341.24 C 767.54 1340.28 769.99 1335.22 772.43 1330.0 C 774.87 1324.78 778.58 1317.73 780.68 1314.36 C 782.78 1310.98 786.4 1305.51 788.72 1302.2 C 791.04 1298.9 794.49 1294.91 796.37 1293.35 C 798.26 1291.78 801.88 1287.38 804.43 1283.57 C 806.98 1279.76 811.06 1274.36 813.51 1271.57 C 815.95 1268.78 819.19 1265.19 820.72 1263.59 C 822.25 1261.99 824.62 1259.01 826.0 1256.97 C 827.38 1254.94 829.74 1251.41 831.26 1249.13 C 832.78 1246.86 837.06 1241.14 840.76 1236.42 C 844.47 1231.7 848.17 1226.86 849.0 1225.67 C 849.83 1224.48 852.63 1221.22 855.24 1218.42 C 857.84 1215.63 864.56 1208.66 870.17 1202.93 C 875.78 1197.19 882.26 1189.58 884.57 1186.0 C 886.89 1182.43 889.62 1178.75 890.64 1177.83 C 891.66 1176.91 896.1 1174.72 900.5 1172.96 C 905.49 1170.96 911.0 1169.57 915.14 1169.25 C 918.91 1168.96 924.09 1169.29 927.14 1170.01 C 930.09 1170.71 935.04 1172.08 938.14 1173.06 C 941.24 1174.04 945.57 1175.76 947.77 1176.88 C 949.96 1178.0 953.67 1181.07 956.02 1183.71 C 958.36 1186.34 961.87 1191.82 963.81 1195.88 C 967.09 1202.73 967.34 1203.92 967.27 1212.38 C 967.22 1217.4 966.68 1224.42 966.07 1228.0 C 965.45 1231.58 963.58 1238.33 961.92 1243.0 C 960.26 1247.67 957.69 1253.9 956.2 1256.84 C 954.72 1259.78 951.68 1265.74 949.45 1270.08 C 947.22 1274.43 944.45 1278.86 943.3 1279.94 C 942.14 1281.02 940.89 1283.72 940.51 1285.94 C 940.13 1288.17 939.42 1290.24 938.91 1290.55 C 938.41 1290.86 938.0 1291.78 938.0 1292.58 C 938.0 1293.38 936.95 1295.72 935.67 1297.77 C 934.38 1299.82 931.58 1304.88 929.44 1309.0 C 927.29 1313.12 924.41 1318.3 923.02 1320.5 C 921.63 1322.7 919.93 1325.4 919.23 1326.5 C 918.53 1327.6 917.29 1329.96 916.47 1331.75 C 915.65 1333.54 914.53 1335.0 913.99 1335.0 C 913.44 1335.0 913.0 1335.54 913.0 1336.2 C 913.0 1336.86 911.02 1340.35 908.6 1343.95 C 906.19 1347.55 903.26 1351.36 902.1 1352.41 C 900.95 1353.45 900.0 1354.67 900.0 1355.11 C 900.0 1355.55 898.9 1357.53 897.55 1359.52 C 896.21 1361.5 895.36 1363.77 895.66 1364.57 C 896.0 1365.44 893.54 1369.08 889.45 1373.76 C 885.73 1378.02 878.73 1385.78 873.89 1391.0 C 869.05 1396.22 860.33 1406.35 854.51 1413.5 C 848.69 1420.65 841.32 1429.88 838.13 1434.0 C 834.94 1438.12 830.6 1443.97 828.48 1447.0 C 826.36 1450.03 821.79 1456.66 818.31 1461.74 C 814.84 1466.82 812.0 1471.38 812.0 1471.87 C 812.0 1472.36 811.32 1473.32 810.48 1474.02 C 809.65 1474.71 808.21 1476.9 807.3 1478.89 C 806.38 1480.87 804.45 1484.3 803.0 1486.5 C 801.55 1488.7 799.43 1492.53 798.29 1495.0 C 797.16 1497.47 795.44 1501.97 794.48 1505.0 C 793.53 1508.03 792.38 1516.12 791.94 1523.0 C 791.49 1529.88 790.83 1537.19 790.45 1539.26 C 790.08 1541.33 789.38 1543.27 788.89 1543.57 C 788.4 1543.87 788.0 1545.19 788.0 1546.5 C 788.0 1547.81 787.55 1549.16 787.0 1549.5 C 786.45 1549.84 786.0 1551.03 786.0 1552.15 C 786.0 1553.27 785.15 1555.39 784.12 1556.85 C 783.08 1558.31 781.33 1561.08 780.24 1563.0 C 779.14 1564.92 776.66 1569.2 774.72 1572.5 C 772.79 1575.8 770.26 1579.53 769.11 1580.79 C 767.95 1582.04 767.0 1583.32 767.0 1583.63 C 767.0 1583.94 764.47 1586.82 761.37 1590.05 C 758.28 1593.27 753.9 1597.16 751.64 1598.7 C 749.38 1600.24 746.43 1602.79 745.08 1604.37 C 743.73 1605.94 740.57 1610.0 738.06 1613.38 C 735.55 1616.76 730.28 1622.74 726.35 1626.67 C 722.42 1630.6 716.96 1635.32 714.23 1637.16 C 711.49 1639.01 707.62 1642.47 705.62 1644.85 C 703.63 1647.24 702.0 1649.81 702.0 1650.56 C 702.0 1651.32 701.17 1653.42 700.15 1655.22 C 699.14 1657.02 695.11 1662.75 691.21 1667.94 C 687.3 1673.13 682.62 1680.3 680.81 1683.88 C 678.99 1687.45 676.12 1691.76 674.42 1693.44 C 672.73 1695.12 670.23 1697.24 668.87 1698.15 C 667.33 1699.17 665.32 1702.56 663.54 1707.15 C 661.15 1713.29 659.53 1715.61 653.69 1721.25 C 649.85 1724.96 645.85 1728.0 644.8 1728.0 C 643.76 1728.0 641.04 1728.9 638.76 1730.0 C 636.12 1731.28 632.58 1732.0 628.97 1732.0 Z M 1801.5 1730.42 C 1793.57 1731.06 1793.43 1731.03 1785.5 1726.98 C 1781.1 1724.74 1775.7 1721.01 1773.49 1718.7 C 1771.29 1716.39 1768.95 1713.38 1768.29 1712.0 C 1767.64 1710.62 1766.43 1707.42 1765.6 1704.87 C 1764.78 1702.33 1763.06 1698.71 1761.78 1696.82 C 1760.5 1694.94 1757.78 1691.35 1755.73 1688.84 C 1753.68 1686.34 1752.0 1683.75 1752.0 1683.08 C 1752.0 1682.41 1750.58 1679.75 1748.84 1677.18 C 1747.1 1674.61 1742.66 1669.11 1738.96 1664.97 C 1735.26 1660.82 1732.06 1656.77 1731.86 1655.97 C 1731.65 1655.16 1729.58 1650.8 1727.24 1646.27 C 1723.81 1639.62 1722.47 1637.92 1720.25 1637.44 C 1718.74 1637.11 1716.38 1636.32 1715.0 1635.67 C 1713.62 1635.03 1708.79 1630.67 1704.27 1626.0 C 1699.74 1621.33 1696.02 1616.69 1696.02 1615.71 C 1696.01 1614.73 1695.07 1612.1 1693.94 1609.88 C 1692.55 1607.16 1690.73 1605.37 1688.34 1604.37 C 1686.39 1603.56 1681.85 1600.6 1678.24 1597.8 C 1674.64 1595.0 1670.35 1591.19 1668.71 1589.32 C 1667.07 1587.46 1664.33 1584.08 1662.62 1581.81 C 1660.9 1579.54 1658.44 1575.84 1657.14 1573.59 C 1655.84 1571.34 1652.87 1566.58 1650.53 1563.0 C 1648.2 1559.42 1645.73 1554.92 1645.05 1553.0 C 1644.36 1551.08 1643.43 1548.6 1642.97 1547.5 C 1642.52 1546.4 1641.86 1544.15 1641.51 1542.5 C 1641.16 1540.85 1640.44 1537.25 1639.91 1534.5 C 1639.38 1531.75 1638.56 1525.22 1638.09 1520.0 C 1637.56 1514.16 1636.01 1506.75 1634.08 1500.79 C 1632.35 1495.45 1630.54 1490.84 1630.07 1490.54 C 1629.59 1490.25 1628.23 1488.1 1627.03 1485.75 C 1625.83 1483.41 1622.52 1477.9 1619.68 1473.5 C 1616.84 1469.1 1614.06 1464.98 1613.51 1464.34 C 1612.95 1463.71 1610.03 1459.53 1607.0 1455.06 C 1603.97 1450.6 1598.58 1442.99 1595.0 1438.17 C 1591.42 1433.34 1586.47 1427.0 1584.0 1424.08 C 1581.53 1421.16 1577.92 1416.86 1576.0 1414.52 C 1574.08 1412.18 1571.83 1409.4 1571.0 1408.35 C 1570.17 1407.29 1567.26 1403.75 1564.52 1400.47 C 1561.78 1397.18 1556.15 1390.89 1552.02 1386.47 C 1547.88 1382.05 1542.87 1376.62 1540.89 1374.41 C 1538.9 1372.2 1536.77 1369.43 1536.14 1368.27 C 1535.52 1367.1 1535.25 1365.52 1535.54 1364.76 C 1535.83 1364.0 1534.01 1360.3 1531.5 1356.55 C 1528.98 1352.8 1525.45 1348.01 1523.65 1345.91 C 1521.86 1343.81 1519.75 1340.83 1518.97 1339.3 C 1518.18 1337.76 1516.42 1334.7 1515.05 1332.5 C 1513.67 1330.3 1512.05 1327.6 1511.43 1326.5 C 1510.82 1325.4 1509.34 1322.81 1508.16 1320.75 C 1506.97 1318.69 1505.03 1315.31 1503.84 1313.25 C 1502.66 1311.19 1499.48 1305.22 1496.79 1300.0 C 1494.1 1294.78 1491.32 1288.25 1490.61 1285.5 C 1489.79 1282.32 1488.59 1280.17 1487.32 1279.58 C 1486.22 1279.08 1484.55 1277.05 1483.6 1275.08 C 1482.66 1273.11 1480.89 1269.66 1479.69 1267.42 C 1478.49 1265.17 1476.55 1262.02 1475.38 1260.42 C 1474.22 1258.81 1471.47 1252.55 1469.27 1246.5 C 1467.08 1240.45 1464.68 1232.35 1463.94 1228.5 C 1463.21 1224.65 1462.62 1217.35 1462.63 1212.28 C 1462.65 1203.5 1462.84 1202.66 1466.77 1194.78 C 1469.03 1190.22 1472.57 1184.78 1474.64 1182.67 C 1476.7 1180.56 1480.55 1177.74 1483.2 1176.4 C 1485.85 1175.05 1492.18 1172.84 1497.26 1171.48 C 1502.34 1170.12 1509.2 1169.01 1512.5 1169.02 C 1516.19 1169.04 1521.05 1169.94 1525.14 1171.39 C 1528.79 1172.67 1533.52 1174.58 1535.64 1175.61 C 1538.27 1176.9 1540.94 1179.64 1544.03 1184.21 C 1546.52 1187.9 1552.15 1194.42 1556.54 1198.71 C 1560.93 1202.99 1568.23 1210.48 1572.76 1215.34 C 1577.29 1220.21 1581.0 1224.6 1581.0 1225.09 C 1581.0 1225.59 1581.34 1226.0 1581.75 1226.01 C 1582.16 1226.01 1584.75 1228.97 1587.5 1232.58 C 1590.25 1236.18 1593.96 1240.95 1595.75 1243.16 C 1597.54 1245.38 1599.0 1247.61 1599.0 1248.11 C 1599.0 1248.62 1600.69 1251.28 1602.75 1254.01 C 1604.81 1256.75 1610.02 1263.15 1614.32 1268.24 C 1618.61 1273.34 1623.72 1279.86 1625.66 1282.75 C 1627.6 1285.63 1631.62 1290.63 1634.6 1293.84 C 1637.57 1297.06 1642.67 1303.39 1645.94 1307.92 C 1649.21 1312.45 1653.93 1320.28 1656.42 1325.32 C 1658.92 1330.37 1662.14 1337.65 1663.58 1341.5 C 1665.02 1345.35 1667.72 1352.78 1669.59 1358.0 C 1671.46 1363.22 1673.67 1370.34 1674.5 1373.81 C 1675.32 1377.28 1676.0 1383.16 1676.0 1386.88 C 1676.0 1390.6 1676.69 1395.95 1677.53 1398.78 C 1678.37 1401.6 1679.58 1404.24 1680.22 1404.63 C 1680.86 1405.03 1681.56 1404.82 1681.77 1404.18 C 1681.99 1403.53 1682.58 1403.0 1683.08 1403.0 C 1683.59 1403.0 1684.0 1403.82 1684.0 1404.83 C 1684.0 1405.84 1684.29 1406.96 1684.65 1407.32 C 1685.01 1407.68 1686.61 1411.69 1688.19 1416.24 C 1689.78 1420.78 1692.22 1427.88 1693.62 1432.0 C 1695.02 1436.12 1698.41 1445.35 1701.14 1452.5 C 1703.88 1459.65 1706.54 1466.28 1707.06 1467.24 C 1707.58 1468.19 1708.01 1469.54 1708.03 1470.24 C 1708.05 1470.93 1708.75 1472.4 1709.6 1473.5 C 1711.07 1475.42 1711.1 1475.39 1710.46 1472.75 C 1710.08 1471.22 1710.2 1470.0 1710.72 1470.0 C 1711.24 1470.0 1712.17 1471.01 1712.79 1472.25 C 1713.41 1473.49 1714.05 1475.57 1714.21 1476.89 C 1714.39 1478.41 1715.73 1479.93 1717.9 1481.09 C 1719.77 1482.09 1722.47 1483.37 1723.9 1483.94 C 1725.33 1484.51 1728.0 1485.84 1729.83 1486.9 C 1731.66 1487.97 1733.91 1489.5 1734.83 1490.31 C 1735.75 1491.13 1739.65 1493.92 1743.5 1496.53 C 1747.35 1499.13 1753.65 1503.79 1757.5 1506.88 C 1761.34 1509.97 1768.99 1516.38 1774.5 1521.12 C 1780.0 1525.87 1785.36 1530.71 1786.4 1531.87 C 1787.45 1533.04 1788.81 1534.0 1789.42 1534.0 C 1790.02 1534.0 1791.64 1535.02 1793.01 1536.27 C 1794.38 1537.51 1798.5 1541.0 1802.18 1544.02 C 1805.85 1547.03 1810.13 1550.4 1811.68 1551.5 C 1813.23 1552.59 1817.42 1554.51 1821.0 1555.76 C 1824.58 1557.01 1829.41 1558.93 1831.74 1560.02 C 1834.07 1561.11 1836.63 1562.0 1837.43 1562.0 C 1838.23 1562.0 1839.16 1562.45 1839.5 1563.0 C 1839.84 1563.55 1840.93 1564.0 1841.92 1564.0 C 1842.91 1564.0 1847.22 1565.8 1851.5 1568.0 C 1855.78 1570.2 1859.84 1572.0 1860.54 1572.0 C 1861.23 1572.0 1864.36 1573.35 1867.5 1575.0 C 1870.64 1576.65 1874.32 1578.0 1875.69 1578.0 C 1877.06 1578.0 1879.33 1578.9 1880.73 1580.0 C 1882.13 1581.1 1884.12 1582.0 1885.15 1582.0 C 1886.18 1582.0 1887.81 1582.4 1888.76 1582.88 C 1889.72 1583.37 1892.64 1584.27 1895.26 1584.88 C 1897.88 1585.5 1901.16 1586.0 1902.55 1586.0 C 1903.94 1586.0 1906.07 1586.63 1907.29 1587.39 C 1908.5 1588.15 1913.1 1589.57 1917.5 1590.54 C 1921.9 1591.51 1928.38 1592.23 1931.9 1592.14 C 1935.42 1592.06 1938.95 1591.46 1939.73 1590.81 C 1940.84 1589.89 1941.36 1589.94 1942.11 1591.06 C 1942.64 1591.85 1943.73 1593.72 1944.54 1595.2 C 1945.34 1596.69 1946.0 1599.32 1946.0 1601.05 C 1946.0 1602.78 1945.05 1605.52 1943.9 1607.14 C 1942.74 1608.77 1939.66 1612.32 1937.05 1615.05 C 1934.32 1617.89 1931.41 1620.0 1930.21 1620.0 C 1929.06 1620.0 1927.84 1620.45 1927.5 1621.0 C 1927.16 1621.55 1925.14 1622.0 1923.0 1622.0 C 1920.86 1622.0 1918.8 1622.52 1918.41 1623.15 C 1917.9 1623.97 1912.76 1624.14 1900.04 1623.75 C 1890.33 1623.45 1879.37 1623.44 1875.69 1623.74 C 1872.01 1624.03 1869.0 1624.66 1869.0 1625.14 C 1869.0 1625.61 1869.34 1626.0 1869.75 1626.0 C 1870.17 1626.0 1874.34 1629.71 1879.03 1634.25 C 1883.72 1638.79 1891.13 1644.94 1895.49 1647.92 C 1899.86 1650.9 1906.83 1656.07 1910.97 1659.42 C 1915.11 1662.76 1918.86 1666.06 1919.3 1666.75 C 1919.74 1667.44 1920.67 1668.0 1921.38 1668.0 C 1922.08 1668.0 1923.69 1669.11 1924.97 1670.47 L 1927.29 1672.93 C 1922.87 1678.72 1919.64 1681.07 1916.16 1682.61 C 1913.05 1683.99 1907.64 1685.38 1904.15 1685.71 C 1898.57 1686.24 1897.38 1686.74 1894.37 1689.84 C 1891.76 1692.53 1889.7 1693.58 1885.72 1694.28 C 1882.85 1694.79 1876.54 1695.41 1871.69 1695.67 C 1866.84 1695.93 1862.34 1695.74 1861.69 1695.24 C 1861.04 1694.74 1857.86 1693.52 1854.64 1692.54 C 1850.91 1691.4 1846.91 1689.15 1843.64 1686.37 C 1840.81 1683.96 1837.38 1681.08 1836.0 1679.96 C 1834.62 1678.85 1831.25 1676.37 1828.5 1674.46 C 1825.75 1672.56 1821.03 1669.78 1818.0 1668.29 C 1814.97 1666.81 1808.32 1662.76 1803.22 1659.3 C 1798.12 1655.83 1791.14 1651.59 1787.72 1649.87 C 1784.3 1648.15 1779.85 1645.26 1777.84 1643.45 C 1775.82 1641.65 1773.29 1639.69 1772.21 1639.11 C 1770.48 1638.19 1770.16 1638.44 1769.61 1641.2 C 1769.26 1642.93 1769.27 1647.21 1769.63 1650.7 C 1769.99 1654.2 1770.67 1657.3 1771.14 1657.59 C 1771.61 1657.88 1772.0 1658.9 1772.0 1659.86 C 1772.0 1660.82 1772.56 1662.89 1773.25 1664.47 C 1773.94 1666.04 1776.91 1672.09 1779.86 1677.92 C 1782.8 1683.74 1785.84 1689.21 1786.61 1690.08 C 1787.37 1690.95 1788.0 1691.95 1788.0 1692.3 C 1788.0 1692.66 1790.72 1696.89 1794.05 1701.72 C 1797.38 1706.55 1802.55 1713.42 1805.53 1717.0 C 1809.11 1721.29 1810.97 1724.42 1810.98 1726.19 C 1810.99 1727.67 1810.66 1729.08 1810.25 1729.33 C 1809.84 1729.57 1805.9 1730.06 1801.5 1730.42 Z " opacity="1.0" fill="#000000" stroke="none" fill-rule="evenodd"/></svg>