<?xml version="1.0" encoding="UTF-8" standalone="no"?>
<!-- Created with Inkscape (http://www.inkscape.org/) -->

<svg
   version="1.1"
   id="svg1"
   width="2400"
   height="3200"
   viewBox="0 0 2400 3200"
   xml:space="preserve"
   xmlns="http://www.w3.org/2000/svg"
   xmlns:svg="http://www.w3.org/2000/svg"><defs
     id="defs1" /><path
     style="fill:#000000"
     d="M 986.43223,761.89035 C 985.60578,760.55312 987.87299,758 989.88692,758 991.75241,758 1004,748.4146 1004,746.9546 c 0,-1.69152 -2.2596,-1.03772 -10.75084,3.1107 -9.64721,4.71316 -24.78181,6.28035 -55.23655,5.71977 -18.10283,-0.33321 -18.79438,-0.81189 -11.93061,-8.25821 4.45951,-4.838 4.69373,-6.20554 0.79723,-4.65493 -17.7249,7.05357 -61.05047,4.85622 -67.94051,-3.44576 C 858.28774,738.64178 857.12241,738 856.3491,738 c -1.85878,0 -16.09144,-6.77408 -16.86608,-8.02747 C 839.15065,729.43474 836.90829,728.0971 834.5,727 c -2.40829,-1.0971 -4.65829,-2.4471 -5,-3 -0.34171,-0.5529 -2.59171,-1.9029 -5,-3 -2.40829,-1.0971 -4.65012,-2.43388 -4.98183,-2.97061 -0.33172,-0.53673 -2.27151,-1.73821 -4.31065,-2.66995 -10.673,-4.87683 -14.46574,-9.49015 -11.20752,-13.63231 1.1,-1.39842 2,-3.2553 2,-4.12639 0,-0.87108 0.9,-2.14585 2,-2.83281 2.50873,-1.56673 2.56726,-2.76793 0.13486,-2.76793 -1.02583,0 -2.93833,-0.81638 -4.25,-1.81417 -1.31167,-0.99779 -4.01037,-2.56449 -5.9971,-3.48155 -1.98673,-0.91705 -4.17933,-2.35068 -4.87244,-3.18583 C 792.3222,682.6833 791.20496,682 790.53254,682 c -0.67241,0 -2.03705,-0.9 -3.03254,-2 -0.99549,-1.1 -2.31211,-2 -2.92584,-2 C 783.158,678 766,660.82232 766,659.40453 c 0,-0.58075 -1.11292,-2.10144 -2.47315,-3.37931 -3.11524,-2.92661 -7.52341,-11.26431 -7.53763,-14.25681 -0.006,-1.24763 -1.69509,-4.06841 -3.75369,-6.26841 -2.0586,-2.2 -4.37979,-5.2375 -5.1582,-6.75 C 746.29892,627.2375 745.28808,626 744.83102,626 744.37396,626 744,625.4665 744,624.81445 c 0,-0.65205 -0.82498,-2.11455 -1.83329,-3.25 -1.0083,-1.13545 -2.64033,-4.31445 -3.62673,-7.06445 -0.98639,-2.75 -2.47032,-6.47859 -3.29762,-8.28576 -2.14318,-4.6816 -0.59962,-5.32144 2.92757,-1.21355 19.20475,22.36651 33.26585,33.6183 22.16809,17.73905 -5.66824,-8.11041 -7.2486,-10.2626 -18.41154,-25.07348 C 736.19191,590.0577 731.05,583.0827 730.5,582.16626 729.95,581.24982 729.22529,580.275 728.88953,580 c -2.9001,-2.37532 -6.85642,-13.52942 -6.87447,-19.38131 -0.0142,-4.59973 -5.05691,-21.65095 -7.18278,-24.28751 -1.76117,-2.18425 -0.5663,-11.76793 1.51659,-12.16418 1.91977,-0.36522 7.65113,4.36293 7.65113,6.31188 0,1.60234 8.82958,10.02488 9.64964,9.20481 0.38037,-0.38037 -0.18079,-1.7023 -1.24701,-2.93763 -15.43519,-17.88327 -17.76241,-35.36593 -3.83639,-28.81993 2.42658,1.14063 4.68339,2.07387 5.01513,2.07387 0.33175,0 1.74734,0.9 3.14576,2 1.39842,1.1 3.40364,2 4.45603,2 1.0524,0 3.77624,0.9 6.05298,2 2.27673,1.1 4.74005,2 5.47403,2 1.87589,0 10.33621,7.99178 11.38747,10.75683 0.47979,1.26193 1.6666,2.58713 2.63735,2.94488 0.97076,0.35776 4.90587,3.72122 8.7447,7.47438 3.83883,3.75315 7.48159,6.82391 8.09501,6.82391 0.61343,0 1.92981,0.9 2.9253,2 0.99549,1.1 2.34549,2 3,2 0.65451,0 2.00451,0.9 3,2 0.99549,1.1 2.34549,2 3,2 0.65451,0 2.00451,0.9 3,2 0.99549,1.1 2.34549,2 3,2 0.65451,0 2.00451,0.9 3,2 0.99549,1.1 2.5401,2 3.43248,2 0.89238,0 2.73514,0.78533 4.09501,1.74518 3.12297,2.20429 19.03184,10.23542 20.42798,10.31246 3.613,0.19938 11.75831,5.72964 19.5154,13.25 4.9313,4.7808 9.33888,8.69236 9.79462,8.69236 0.45574,0 2.58627,1.8 4.73451,4 2.14824,2.2 4.39824,4 5,4 0.60176,0 2.85176,1.8 5,4 2.14824,2.2 4.43447,4 5.0805,4 0.64604,0 1.72623,0.66466 2.40044,1.47703 0.6742,0.81237 3.7668,2.68951 6.87244,4.17142 3.10564,1.48192 6.40919,3.33943 7.34122,4.12782 1.92613,1.62928 14.76341,8.22373 16.00896,8.22373 0.77924,0 6.41365,2.34389 11.79644,4.90726 8.82493,4.20258 9.36932,5.08221 5.886,9.51054 -1.16271,1.47814 -1.95021,2.80789 -1.75,2.95501 0.2002,0.14712 2.94275,1.50224 6.09456,3.01138 3.15181,1.50914 5.97306,3.13625 6.26944,3.61581 1.0285,1.66415 20.38407,10 23.21967,10 0.79913,0 4.67662,0.86097 8.61665,1.91327 16.14026,4.31073 24.28047,4.50837 40.68918,0.98793 3.4932,-0.74947 5.527,-0.61754 8.9167,0.5784 4.6944,1.65629 6.1668,1.47872 12.8078,-1.54472 2.3375,-1.06418 6.3875,-2.88413 9,-4.04432 2.6125,-1.16019 5.5314,-2.51019 6.4864,-3 0.9551,-0.48981 3.5426,-0.89056 5.75,-0.89056 4.2091,0 5.4357,-1.39484 2.0136,-2.28975 -3.2608,-0.85271 -2.8567,-8.43405 0.5179,-9.71707 1.3849,-0.52652 2.9384,-2.06302 3.4522,-3.41445 3.0423,-8.00206 28.1594,4.82351 35.6383,18.19811 2.5468,4.55432 3.6369,27.8297 1.4982,31.98673 -0.4913,0.95504 -1.4494,4.21143 -2.1291,7.23643 -0.6796,3.025 -2.0776,7.27202 -3.1066,9.43783 -1.029,2.16581 -1.8709,4.30821 -1.8709,4.7609 0,0.45269 -0.8467,2.73066 -1.8816,5.06217 -1.0349,2.3315 -2.4723,5.8141 -3.1943,7.7391 -3.6523,9.73842 -7.8945,13.88187 -12.2029,11.91883 -2.2247,-1.01365 -3.0776,-0.90909 -5.4302,0.66574 -7.7055,5.15803 -11.1107,6.45468 -13.7696,5.24321 -2.2882,-1.04257 -2.9266,-0.84433 -5.7964,1.79987 -1.7738,1.63432 -4.575,3.60368 -6.225,4.37636 -1.65,0.77269 -3.9,2.17386 -5,3.11373 -5.3013,4.52957 -16.4209,6.11316 -31.1087,4.43034 -5.0127,-0.57433 -7.3151,-0.48035 -7.809,0.31873 -0.3852,0.62326 -1.70878,1.13319 -2.94132,1.13319 -1.23254,0 -2.66848,0.39139 -3.19098,0.86976 -1.46563,1.34184 -8.33849,2.11968 -9.01777,1.02059 z M 1012,739 c 0,-0.55 -0.45,-1 -1,-1 -0.55,0 -1,0.45 -1,1 0,0.55 0.45,1 1,1 0.55,0 1,-0.45 1,-1 z m 4,-2 c 0,-0.55 -0.45,-1 -1,-1 -0.55,0 -1,0.45 -1,1 0,0.55 0.45,1 1,1 0.55,0 1,-0.45 1,-1 z M 824,695 c 0,-0.55 -0.9,-1 -2,-1 -1.1,0 -2,0.45 -2,1 0,0.55 0.9,1 2,1 1.1,0 2,-0.45 2,-1 z m -56,-61.94098 c 0,-1.17986 -1.95035,-2.442 -2.66667,-1.72569 C 764.61702,632.04965 765.87916,634 767.05902,634 767.57656,634 768,633.57656 768,633.05902 Z M 738,543 c 0,-0.55 -0.45,-1 -1,-1 -0.55,0 -1,0.45 -1,1 0,0.55 0.45,1 1,1 0.55,0 1,-0.45 1,-1 z m 696,217.26601 c -2.4517,-1.10034 -6.0459,-1.50875 -12,-1.36356 -4.675,0.114 -10.5252,0.25479 -13.0005,0.31287 -5.189,0.12176 -18.2868,-3.65165 -20.0501,-5.77633 -0.6569,-0.79144 -1.7444,-1.43899 -2.4169,-1.43899 -0.6724,0 -2.037,-0.9 -3.0325,-2 -0.9955,-1.1 -2.2737,-2 -2.8405,-2 -0.5668,0 -2.0912,-0.99634 -3.3874,-2.2141 -2.0498,-1.92567 -2.629,-2.04412 -4.4461,-0.90929 -1.8,1.12408 -2.481,1.01523 -4.9172,-0.7859 -1.5553,-1.14989 -3.4604,-2.09071 -4.2334,-2.09071 -0.7731,0 -2.6232,-0.95772 -4.1113,-2.12826 -2.2684,-1.78428 -3.1061,-1.9458 -5.1833,-0.99937 -3.235,1.47395 -8.0173,-0.861 -9.5658,-4.67047 -0.604,-1.48604 -1.9345,-4.6095 -2.9566,-6.941 -1.0221,-2.33151 -1.8584,-4.82901 -1.8584,-5.55 0,-0.721 -0.4041,-1.7384 -0.8981,-2.2609 -1.2857,-1.35998 -6.6154,-17.86347 -8.0575,-24.95 -0.6715,-3.3 -1.6312,-6.78139 -2.1327,-7.73643 C 1328.4103,685.80853 1328,682.31493 1328,679 c 0,-3.31493 0.4103,-6.80853 0.9117,-7.76357 0.5015,-0.95504 1.4788,-4.34679 2.1719,-7.53724 2.8498,-13.11804 35.2116,-32.17559 36.7619,-21.64877 0.4416,2.99801 6.8798,10.89464 9.7823,11.99818 1.2204,0.464 2.366,1.80006 2.5456,2.96901 0.1796,1.16896 1.6766,2.83597 3.3266,3.70447 1.65,0.8685 3.675,1.96241 4.5,2.4309 0.825,0.46849 2.625,1.30092 4,1.84984 1.375,0.54892 3.2814,1.44785 4.2364,1.99761 0.9551,0.54976 2.5526,0.99957 3.55,0.99957 0.9975,0 2.2737,0.46006 2.836,1.02235 0.6964,0.69647 2.5253,0.35752 5.7374,-1.06334 5.0385,-2.22877 3.6539,-2.29901 20.8103,1.05571 4.9303,0.96406 9.6822,0.37247 24.8299,-3.0912 4.675,-1.06898 9.6775,-1.93909 11.1166,-1.93356 3.6018,0.0138 19.2345,-6.13104 20.4016,-8.01935 0.3317,-0.53673 2.5272,-1.85242 4.8789,-2.92374 2.3517,-1.07133 4.8545,-2.64514 5.5618,-3.49737 0.7073,-0.85222 1.7438,-1.5495 2.3033,-1.5495 1.267,0 3.6633,-3.07133 3.706,-4.75 0.017,-0.6875 -0.6573,-1.25 -1.4996,-1.25 -0.8422,0 -1.7992,-0.6979 -2.1265,-1.55088 -0.7873,-2.05177 3.4022,-6.44912 6.1444,-6.44912 1.1758,0 4.0006,-0.9 6.2774,-2 2.2767,-1.1 4.5267,-2 5,-2 0.4732,0 2.7232,-0.9 5,-2 2.2767,-1.1 4.7811,-2 5.5653,-2 0.7843,0 2.0046,-0.69728 2.7119,-1.5495 0.7073,-0.85223 3.1638,-2.40495 5.4589,-3.4505 2.2951,-1.04555 4.7516,-2.59827 5.4589,-3.4505 0.7073,-0.85222 1.8361,-1.5495 2.5086,-1.5495 0.6724,0 2.037,-0.9 3.0325,-2 0.9955,-1.1 2.331,-2 2.9679,-2 0.6369,0 2.4513,-1.35 4.0321,-3 1.5808,-1.65 3.3737,-3 3.9841,-3 0.6105,0 2.8677,-1.8 5.0159,-4 2.1482,-2.2 4.3891,-4 4.9798,-4 0.5906,0 4.1997,-3.15 8.0202,-7 3.8205,-3.85 7.4903,-7 8.1551,-7 0.6648,0 2.17,-1.35 3.3449,-3 1.1749,-1.65 2.6659,-3 3.3133,-3 1.832,0 35.4291,-16.98468 36.7534,-18.58035 0.648,-0.78081 1.6146,-1.41965 2.148,-1.41965 0.5334,0 2.114,-0.9 3.5124,-2 1.3985,-1.1 3.2977,-2 4.2207,-2 0.9229,0 2.9714,-1.35 4.5522,-3 1.5808,-1.65 3.2755,-3 3.766,-3 1.3336,0 11.9432,-9.19204 23.339,-20.22062 5.5578,-5.37866 10.7608,-9.77938 11.5622,-9.77938 0.8014,0 3.3199,-0.9 5.5967,-2 2.2767,-1.1 4.6527,-2 5.2801,-2 0.6273,0 2.2847,-0.9 3.6831,-2 1.3985,-1.1 3.1618,-2 3.9187,-2 0.7568,0 3.3711,-0.93781 5.8096,-2.08402 7.1594,-3.36533 11.0154,0.37205 7.7454,7.50724 -3.4581,7.54576 -3.5241,7.66489 -8.3415,15.07678 -1.4299,2.2 -3.5583,4.85724 -4.7296,5.90499 C 1695.463,538.79027 1695.4194,540 1698,540 c 1.1,0 2,-0.58131 2,-1.29179 0,-0.71049 2.0664,-3.29799 4.592,-5.75 2.5257,-2.45202 5.0014,-5.50191 5.5016,-6.77755 0.6447,-1.64376 1.5645,-2.22632 3.158,-2 2.5236,0.35842 3.7731,8.22032 1.9499,12.26758 -1.5951,3.54055 -3.2013,9.1147 -3.2052,11.12276 0,1.06095 -0.9021,3.40238 -2,5.20317 -1.4475,2.37404 -1.9963,5.03827 -1.9963,9.69098 0,3.52925 -0.45,6.69493 -1,7.03485 -0.55,0.33992 -1,1.41131 -1,2.38088 0,0.96956 -1.3375,3.5305 -2.9722,5.69098 -1.6347,2.16048 -2.9847,4.28463 -3,4.72035 -0.015,0.43571 -0.4844,1.33571 -1.0425,2 -0.558,0.66428 -3.1596,4.13279 -5.7813,7.70779 -2.6216,3.575 -7.0359,9.425 -9.8094,13 -2.7735,3.575 -6.3551,8.525 -7.959,11 -1.6039,2.475 -3.483,4.85986 -4.1759,5.29969 -0.6928,0.43983 -1.2597,1.35204 -1.2597,2.02714 0,0.6751 -1.35,2.70551 -3,4.51203 -3.1087,3.40359 -3.7688,5.16114 -1.9383,5.16114 1.2174,0 17.0204,-15.61685 24.7235,-24.43219 6.8743,-7.86688 7.9827,-2.17659 1.5869,8.14701 -0.7546,1.21815 -1.3721,2.8359 -1.3721,3.59501 0,0.75911 -0.9,2.19468 -2,3.19017 -1.1,0.99549 -2,2.41523 -2,3.15499 0,0.73975 -0.353,1.34501 -0.7844,1.34501 -0.4314,0 -1.589,1.36218 -2.5725,3.02708 -0.9835,1.66489 -2.8805,4.11943 -4.2156,5.45454 -1.3351,1.33511 -2.4275,3.13121 -2.4275,3.99133 0,2.01729 -4.7133,11.0442 -6.572,12.58684 -0.7854,0.65181 -1.428,1.72782 -1.428,2.39115 0,1.67793 -22.7309,24.54906 -24.3985,24.54906 -0.7461,0 -1.9082,0.66466 -2.5824,1.47703 -0.6742,0.81237 -3.7668,2.68951 -6.8725,4.17142 -3.1056,1.48192 -6.3889,3.32104 -7.296,4.08696 -2.1483,1.81367 -11.3252,4.23761 -16.1006,4.25272 -5.2558,0.0166 -4.6866,1.64619 0.7906,2.26355 2.4973,0.28149 5.3452,1.24001 6.3287,2.13006 0.9835,0.89004 2.9042,1.61826 4.2683,1.61826 7.9487,0 6.6893,8.32692 -1.9056,12.60051 -2.3475,1.16719 -5.0829,2.85955 -6.0788,3.76082 -0.9959,0.90127 -2.2826,1.63867 -2.8595,1.63867 -0.5768,0 -1.6136,0.68048 -2.3038,1.51218 -0.6903,0.8317 -4.1028,2.87132 -7.5835,4.5325 -3.4807,1.66118 -6.5886,3.44107 -6.9064,3.95532 -0.3178,0.51425 -3.4257,2.29414 -6.9064,3.95532 -3.4807,1.66118 -6.8932,3.7008 -7.5835,4.5325 -0.6902,0.8317 -2.147,1.51218 -3.2373,1.51218 -1.0903,0 -4.2977,1.16677 -7.1276,2.59281 -13.1367,6.61992 -46.8771,8.96668 -61.4622,4.27489 -4.6154,-1.48471 -4.9643,-0.52155 -1.3161,3.63351 3.3834,3.85347 3.8396,5.30899 1.8831,6.00843 -1.1911,0.42581 -32.3341,2.56342 -36,2.47099 -2.8414,-0.0716 -7.6183,-0.0506 -9.5,0.0418 -5.4638,0.26844 -26.1835,-5.90446 -29.75,-8.86327 -2.1431,-1.77789 -6.1431,-4.15921 -6.9864,-4.15921 -0.2825,0 -0.5136,0.9 -0.5136,2 0,1.1 0.5966,2 1.3257,2 0.7291,0 2.4166,1.16365 3.75,2.58588 1.3334,1.42224 4.3368,3.45849 6.6743,4.525 4.3389,1.97967 5.1837,3.55543 3.05,5.68912 -1.5007,1.50069 -2.4289,1.42779 -6.8,-0.53399 z M 1502,743 c 0,-0.55 -0.45,-1 -1,-1 -0.55,0 -1,0.45 -1,1 0,0.55 0.45,1 1,1 0.55,0 1,-0.45 1,-1 z m 160.5,-108 c 0.3399,-0.55 0.1415,-1 -0.441,-1 -0.5824,0 -1.059,0.45 -1.059,1 0,0.55 0.1984,1 0.441,1 0.2425,0 0.7191,-0.45 1.059,-1 z m 33.5,-92 c 0,-0.55 -0.45,-1 -1,-1 -0.55,0 -1,0.45 -1,1 0,0.55 0.45,1 1,1 0.55,0 1,-0.45 1,-1 z"
     id="path4" /></svg>
