<?xml version="1.0" encoding="UTF-8" standalone="no"?>
<!-- Created with Inkscape (http://www.inkscape.org/) -->

<svg
   version="1.1"
   id="svg1"
   width="2400"
   height="3200"
   viewBox="0 0 2400 3200"
   xml:space="preserve"
   xmlns="http://www.w3.org/2000/svg"
   xmlns:svg="http://www.w3.org/2000/svg"><defs
     id="defs1" /><path
     style="display:inline;fill:#000000"
     d="m 961,791.54679 c 0,-0.24926 1.9125,-1.30309 4.25,-2.34183 16.14983,-7.17672 11.96746,-12.95884 -6.0122,-8.31187 -7.91743,2.04632 -15.27011,3.09104 -29.7378,4.22535 -8.25,0.64683 -15.81627,1.59102 -16.81392,2.0982 -1.19527,0.60764 -2.29996,0.51878 -3.23899,-0.26055 C 907.53074,785.36566 908.5508,784 911.65511,784 c 2.97963,0 12.18563,-2.58892 14.34489,-4.03408 4.85296,-3.24801 -1.64128,-4.08551 -29.5,-3.80435 -25.65232,0.2589 -27.32444,0.16179 -33.5,-1.94553 -3.575,-1.21992 -11.45,-3.8265 -17.5,-5.79239 -6.05,-1.96589 -12.35,-4.16619 -14,-4.88956 -1.65,-0.72338 -4.96561,-2.05707 -7.36802,-2.96378 -2.4024,-0.90671 -5.81988,-2.75595 -7.59439,-4.10943 C 814.76309,755.10739 812.98477,754 812.58578,754 c -1.06179,0 -9.52661,-5.85409 -13.62178,-9.42053 -1.9448,-1.69371 -5.90749,-5.06862 -8.80597,-7.49979 -8.70536,-7.30185 -8.57141,-7.73393 2.25073,-7.26061 9.46035,0.41376 16.24346,-1.36242 15.35715,-4.02133 -0.1989,-0.59672 -6.6401,-3.20009 -14.31378,-5.78527 -18.17947,-6.12448 -29.41992,-10.92545 -34.95213,-14.92861 -0.55,-0.39798 -3.025,-1.349 -5.5,-2.11337 -7.16852,-2.21391 -20.02251,-9.48697 -37.38739,-21.15459 C 707.60483,676.4354 705.16677,674.09302 699.15068,666 692.01094,656.3954 680,638.4493 680,637.38608 c 0,-0.31754 -0.91685,-1.86494 -2.03745,-3.43867 C 675.93325,631.09752 666,611.6816 666,610.56495 c 0,-0.68977 -3.60389,-8.96549 -5.47175,-12.56495 -0.71353,-1.375 -1.60049,-4.075 -1.97102,-6 -0.37054,-1.925 -1.04621,-4.4 -1.50149,-5.5 -1.02509,-2.47673 -3.58628,-11.58438 -5.90547,-21 -0.54189,-2.2 -1.52858,-5.86454 -2.19265,-8.14342 -1.46208,-5.01745 -0.71053,-6.82989 2.18871,-5.27826 3.10225,1.66027 3.33639,0.4416 0.99678,-5.18812 C 650.9644,544.0539 650,541.38799 650,540.96594 c 0,-0.42204 -1.72652,-4.52453 -3.83672,-9.11665 -3.76651,-8.1965 -6.76525,-15.65095 -9.29624,-23.10913 -2.34282,-6.90369 1.06146,-8.33627 5.30645,-2.23305 7.21619,10.37503 9.77906,11.45525 6.42272,2.70712 -1.89602,-4.94187 -8.59412,-23.51421 -11.2574,-31.21423 -0.85605,-2.475 -1.87643,-4.95 -2.26751,-5.5 -0.39107,-0.55 -1.19535,-2.8 -1.78727,-5 -0.59192,-2.2 -1.86156,-6.925 -2.82143,-10.5 -1.88003,-7.00215 -3.08883,-19 -1.91428,-19 1.14917,0 5.31557,5.20802 6.99997,8.75 1.04551,2.19853 2.25831,3.25719 3.74863,3.27224 2.93876,0.0297 5.30544,2.1113 12.07104,10.61723 3.12329,3.92671 6.56821,7.37208 7.65538,7.65638 2.37725,0.62167 2.36366,0.78201 0.38365,-4.52561 -2.54577,-6.82425 -3.63975,-8.918 -7.8944,-15.10908 -4.33829,-6.31278 -4.64676,-6.78948 -8.76259,-13.54141 -4.15538,-6.81681 -3.70881,-9.27913 0.87536,-4.82654 1.99394,1.93672 5.70644,4.55851 8.25,5.82621 5.01408,2.49901 24.37782,15.02279 27.62464,17.86665 13.51751,11.83984 65.24786,41.42735 86.5,49.47425 2.475,0.93714 6.075,2.38782 8,3.22374 1.925,0.83592 4.4,1.86377 5.5,2.2841 4.03778,1.54293 8.08842,3.34034 11.63615,5.16337 1.99989,1.02766 4.3685,1.86847 5.26357,1.86847 0.89508,0 2.40881,0.3975 3.36385,0.88333 2.43339,1.23787 5.47196,2.45414 15.23643,6.09877 13.84388,5.16729 15.25695,5.9059 14.59569,7.62914 -0.32763,0.85378 -0.59569,1.96553 -0.59569,2.47055 0,0.50501 -2.8125,0.92045 -6.25,0.92318 -9.48865,0.008 0.36589,6.93123 21.25,14.93002 4.675,1.79057 9.4,3.63295 10.5,4.09419 1.1,0.46124 3.8,1.3736 6,2.02747 2.2,0.65388 4.78139,1.58362 5.73643,2.06611 0.95504,0.48248 2.42364,0.87724 3.26357,0.87724 0.83993,0 2.42103,0.45 3.51357,1 1.09254,0.55 2.88032,1.45 3.97286,2 1.09254,0.55 3.06939,1 4.39301,1 1.94088,0 3.62056,1.60836 3.62056,3.46681 0,0.29402 -11.3461,-2.63115 -17.571,-4.53002 -3.84889,-1.17408 -8.429,-1.21394 -8.429,-0.0734 0,0.85584 7.33465,4.39142 16,7.7126 2.475,0.9486 4.9275,2.10705 5.45,2.57434 0.5225,0.46729 1.91,0.84962 3.08333,0.84962 1.17334,0 2.43195,0.29861 2.79692,0.66358 0.79714,0.79714 7.1291,3.10877 23.08618,8.42814 6.55404,2.18482 13.30404,4.56495 15,5.28918 3.15377,1.34676 13.88853,4.37906 18.84581,5.32346 5.09756,0.97113 3.91247,2.29564 -2.054,2.29564 -3.25039,0 -7.21444,0.4128 -8.80902,0.91732 -1.59457,0.50453 -4.13672,1.18811 -5.64922,1.51906 -5.7366,1.25522 1.7419,5.86475 13.75,8.4751 3.3,0.71736 7.30465,1.70575 8.89922,2.19641 1.59458,0.49066 4.15552,0.89211 5.69099,0.89211 8.4422,0 3.52945,2.60362 -6.59021,3.49263 -23.75457,2.08683 -17.34591,8.50737 8.49163,8.50737 7.08223,0 14.63482,1.75117 21.50837,4.98701 6.18161,2.9101 16.49138,5.98432 27,8.05101 3.3,0.649 6.675,1.42353 7.5,1.72117 1.174,0.42357 -14.71682,2.85471 -20.75,3.17454 -0.6875,0.0365 -1.25,0.47225 -1.25,0.96844 0,3.65687 25.8394,4.28951 42.0956,1.03064 8.6845,-1.74097 11.2788,-1.89877 16.44,-1 7.9321,1.38133 8.4644,1.35411 8.4644,-0.43281 0,-0.825 0.4803,-1.5 1.0674,-1.5 1.0287,0 0.7629,1.56359 -1.1246,6.61425 -0.7822,2.0931 -7.672,8.38575 -9.1815,8.38575 -0.4307,0 -2.6907,0.86216 -5.0222,1.91591 -2.3315,1.05375 -5.8141,2.40022 -7.7391,2.99217 -1.925,0.59194 -5.6787,1.76343 -8.3416,2.60332 -10.6411,3.35627 -46.72821,4.26271 -60.6584,1.52362 -14.60381,-2.87155 -20.88779,-4.17526 -24,-4.97918 -1.925,-0.49726 -6.3089,-1.60718 -9.74199,-2.4665 -3.4331,-0.85931 -7.0331,-1.97223 -8,-2.47315 -0.96691,-0.50091 -5.13301,-1.94065 -9.25801,-3.19942 -4.125,-1.25876 -7.95,-2.57393 -8.5,-2.92259 -0.55,-0.34866 -3.025,-1.24323 -5.5,-1.98793 -2.475,-0.74471 -4.9275,-1.72576 -5.45,-2.18013 C 896.0275,640.37175 894.78389,640 893.78643,640 c -0.99746,0 -2.59496,-0.41404 -3.55,-0.92009 -0.95504,-0.50605 -4.43643,-1.89992 -7.73643,-3.09749 -7.36741,-2.67363 -9.17942,-3.36811 -13,-4.98242 -1.65,-0.69718 -3.9,-1.59718 -5,-2 -7.43022,-2.72098 -11.95661,-4.74455 -26.52759,-11.85945 C 832.18223,614.31325 826.77798,612 825.96295,612 c -0.81502,0 -2.04392,-0.9 -2.73088,-2 -0.68696,-1.1 -1.72663,-2 -2.31037,-2 -0.58374,0 -3.02351,-1.35 -5.4217,-3 -2.39819,-1.65 -4.63709,-3 -4.97534,-3 -0.59562,0 -10.36058,-6.60801 -19.48467,-13.18541 -2.45301,-1.76833 -6.03426,-4.70002 -7.95834,-6.51487 C 778.42646,577.90881 778,578.08321 778,584.37788 778,592.79946 770.832,604 765.44245,604 c -0.65866,0 -1.74809,0.66335 -2.42097,1.47412 -3.50108,4.21854 -19.34508,-1.39763 -28.32483,-10.04021 -4.63159,-4.45767 -5.87741,-3.81584 -2.51944,1.29798 6.85608,10.44103 9.82279,15.32457 9.82279,16.16939 0,0.51263 0.3897,1.08205 0.86601,1.26539 1.27449,0.49056 9.13399,15.71725 9.13399,17.69585 0,2.857 2.96162,6.13748 5.54093,6.13748 3.78869,0 8.4161,4.82641 9.57005,9.98161 1.75812,7.85427 12.65414,20.5101 25.42437,29.53063 3.83056,2.70579 7.18965,5.16252 7.46465,5.45938 0.275,0.29687 2.3,1.8715 4.5,3.49919 4.58282,3.39064 15.5,14.28793 15.5,15.47176 C 820,703.61676 837.74099,714 840.60155,714 841.3707,714 842,714.36865 842,714.81923 c 0,0.45058 2.27852,1.43969 5.06337,2.19803 2.78485,0.75834 5.28641,1.73968 5.55902,2.18077 0.2726,0.44108 1.5804,0.80197 2.90621,0.80197 1.32581,0 3.88675,0.80835 5.69098,1.79634 1.80423,0.98799 5.30542,2.38928 7.78042,3.11399 2.475,0.7247 5.4,1.685 6.5,2.13401 1.1,0.449 4.475,1.38235 7.5,2.07411 3.025,0.69175 5.95,1.54203 6.5,1.88951 0.55,0.34748 2.8,1.1425 5,1.76669 2.2,0.6242 7.01909,2.05526 10.7091,3.18013 3.69,1.12487 8.4375,2.04522 10.55,2.04522 2.11249,0 4.2684,0.37175 4.7909,0.82612 5.11061,4.44419 45.87023,6.51298 64.45,3.27122 10.43366,-1.82045 13.01784,-2.5593 18.2364,-5.21401 0.9551,-0.48583 2.2173,-0.88333 2.8049,-0.88333 1.6788,0 12.8127,-7.7773 19.9587,-13.94158 6.7387,-5.81292 8.3484,-6.76754 16.154,-9.57993 7.3874,-2.66174 15.9243,1.49245 19.49,9.48416 1.3817,3.09667 3.4542,6.0594 4.6056,6.58383 4.3806,1.99521 6.1224,5.90647 5.9828,13.43478 -0.1463,7.88783 0.2269,8.26703 3.9547,4.01874 3.2066,-3.65432 4.2848,-3.73567 6.4153,-0.48401 1.6876,2.57552 0.5206,10.67195 -1.7396,12.06879 -1.1844,0.732 -1.0888,2.41522 0.1372,2.41522 0.55,0 1,-0.675 1,-1.5 0,-0.825 0.3656,-1.5 0.8125,-1.5 0.4469,0 3.0344,-2.69678 5.75,-5.99283 9.053,-10.98801 10.5451,-5.9255 1.7273,5.8605 -9.6528,12.9021 -16.2898,18.61783 -16.2898,14.02874 0,-1.94056 -0.2803,-1.8575 -3.6165,1.07173 -6.0018,5.26966 -10.2622,6.91827 -11.9419,4.62109 -1.3042,-1.78357 -1.6858,-1.66507 -8.1048,2.51712 -12.8339,8.3616 -21.6772,8.73543 -19.6096,0.82896 0.6036,-2.30836 0.4212,-2.33824 -3.3236,-0.54437 -15.5561,7.4519 -22.8585,8.6118 -15.1243,2.40231 10.4608,-8.39859 6.4349,-8.4512 -5.8925,-0.077 C 994.37134,789.87849 961,797.10656 961,791.54679 Z m 480,-0.76373 c -4.3005,-0.76575 -7.9544,-2.62918 -16.7538,-8.54407 -12.16,-8.17386 -15.5014,-8.91014 -7.7725,-1.71267 7.7066,7.17672 4.4405,7.15829 -11.9261,-0.0673 -2.1737,-0.9597 -4.0933,-1.34308 -4.2656,-0.85196 -2.8997,8.26567 -7.3038,7.99875 -22.1334,-1.34145 -5.0539,-3.18315 -5.4258,-3.27031 -6.6889,-1.56806 -1.7097,2.30411 -8.7989,-1.04196 -13.4636,-6.3548 -1.6143,-1.83851 -3.2637,-3.34275 -3.6655,-3.34275 -0.4019,0 -0.1906,0.54 0.4694,1.2 1.2192,1.21916 1.6951,5.8 0.6026,5.8 -1.1741,0 -12.64,-12.61242 -16.9811,-18.67919 -5.0143,-7.00761 -6.1195,-12.57978 -1.8953,-9.5555 0.8415,0.6025 11.3002,12.72564 12.2084,14.15136 1.4739,2.31382 0.8568,-1.58335 -0.6856,-4.32942 -4.7871,-8.523 -0.5943,-15.89722 5.451,-9.58725 3.9918,4.16656 4.1859,3.95681 4.1121,-4.44429 -0.067,-7.66362 2.2997,-12.55571 6.0752,-12.55571 0.7362,0 2.5398,-2.53691 4.0079,-5.63758 3.1575,-6.66881 9.465,-11.36592 15.2506,-11.35684 4.5356,0.007 11.0542,1.80063 11.0542,3.04142 0,0.52415 0.5625,0.96119 1.25,0.9712 1.238,0.018 4.7579,2.60178 11.6729,8.56825 9.454,8.15724 18.0059,12.55257 31.5771,16.22937 14.5579,3.94412 52.0238,3.63698 67.5,-0.55334 3.025,-0.81905 7.525,-1.8604 10,-2.31412 7.2983,-1.33792 10.3777,-2.05047 12.5,-2.89248 2.3439,-0.9299 13.0598,-4.23211 19.5,-6.00914 2.475,-0.68292 5.2814,-1.64781 6.2364,-2.1442 0.9551,-0.4964 2.616,-0.90254 3.691,-0.90254 1.075,0 2.2327,-0.45 2.5726,-1 0.3399,-0.55 1.6899,-1 3,-1 1.3101,0 2.6601,-0.45 3,-1 0.3399,-0.55 1.4976,-1 2.5726,-1 1.075,0 2.7359,-0.3975 3.691,-0.88333 0.955,-0.48583 2.8614,-1.32562 4.2364,-1.8662 1.375,-0.54058 3.625,-1.43288 5,-1.98288 1.375,-0.55 3.625,-1.44631 5,-1.9918 3.3039,-1.31073 9.5724,-4.43954 14.3762,-7.1756 2.1319,-1.21426 8.7967,-7.13354 14.8108,-13.15397 C 1622.201,688.9258 1627.7318,684 1628.4775,684 c 0.7457,0 1.5058,-0.35416 1.6892,-0.78703 0.1833,-0.43287 3.4389,-3.02037 7.2347,-5.75 12.5325,-9.01246 23.9471,-21.88193 24.9012,-28.07511 0.9285,-6.0269 5.7349,-11.38786 10.2098,-11.38786 2.6887,0 4.0717,-1.49489 5.0726,-5.48283 1.2658,-5.04314 14.4592,-28.31301 19.4047,-34.22496 0.5556,-0.66429 1.0103,-1.49482 1.0103,-1.84563 0,-0.35081 0.9306,-1.94481 2.0681,-3.54221 3.1422,-4.41281 1.0161,-3.40296 -4.5681,2.16971 -7.1364,7.12173 -16.0955,11.26578 -22.8275,10.55889 C 1662.2477,604.5383 1659,603.78739 1659,602.47169 c 0,-0.72503 -1.0238,-2.59027 -2.2751,-4.14496 -3.6852,-4.57868 -4.7553,-7.48444 -4.9969,-13.56827 -0.2545,-6.40898 -0.6419,-6.75079 -3.9325,-3.46951 -4.7431,4.72962 -26.6084,20.71105 -28.3363,20.71105 -0.3577,0 -1.8449,0.84683 -3.3048,1.88184 -4.278,3.03293 -10.9115,6.68261 -22.6544,12.46429 -10.4125,5.12661 -13.354,6.4801 -22.25,10.23794 -2.0625,0.87123 -4.5375,1.99623 -5.5,2.5 -0.9625,0.50376 -2.5375,1.32854 -3.5,1.83284 -0.9625,0.5043 -4.3367,1.67092 -7.4981,2.59249 -3.1615,0.92157 -5.9691,2.03294 -6.239,2.46973 -0.2699,0.43678 -2.0016,1.07757 -3.8481,1.42398 -1.8465,0.34641 -5.1531,1.49746 -7.3479,2.55789 -2.1949,1.06043 -6.2016,2.46797 -8.9038,3.12786 -2.7022,0.65989 -5.3631,1.50379 -5.9131,1.87534 -0.55,0.37155 -3.025,1.2579 -5.5,1.96966 -2.475,0.71176 -5.4,1.64152 -6.5,2.06614 -1.1,0.42462 -4.025,1.32462 -6.5,2 -2.475,0.67538 -5.4,1.57538 -6.5,2 -1.1,0.42462 -4.025,1.35438 -6.5,2.06614 -2.475,0.71176 -4.95,1.61679 -5.5,2.01118 -0.55,0.39439 -3.25,0.96041 -6,1.25783 -8.4435,0.91317 -17.2452,2.38933 -18.362,3.07954 -3.6854,2.2777 -42.8036,1.33601 -55.138,-1.32733 -2.475,-0.53442 -6.6668,-1.43959 -9.3152,-2.01149 -2.6484,-0.5719 -6.0234,-1.67134 -7.5,-2.4432 -1.4766,-0.77186 -4.8506,-2.44025 -7.4976,-3.70754 -5.457,-2.61258 -10.6872,-8.00514 -10.6872,-11.01894 0,-1.11332 0.3375,-1.82127 0.75,-1.57321 0.4125,0.24806 4.724,0.0847 9.5811,-0.36302 7.2981,-0.67273 9.7562,-0.50885 14.1603,0.94407 10.7699,3.55303 47.2837,2.50743 43.507,-1.24585 C 1438.2815,637.9557 1423.5702,636 1418.9276,636 c -2.1602,0 -3.9276,-0.45 -3.9276,-1 0,-0.55 1.8083,-1 4.0184,-1 6.4724,0 29.9315,-6.73891 34.9816,-10.04889 3.0215,-1.98041 12.561,-3.95111 19.1259,-3.95111 25.5516,0 31.8802,-6.45375 8.3741,-8.53962 C 1471.3384,610.55867 1466.4655,608 1474.9098,608 c 1.5355,0 4.0964,-0.40145 5.691,-0.89211 1.5945,-0.49066 5.5992,-1.47905 8.8992,-2.19641 19.56,-4.25201 18.49,-10.92524 -1.75,-10.91409 -2.6125,10e-4 -4.75,-0.44739 -4.75,-0.99739 0,-0.55 0.7748,-1 1.7218,-1 2.4032,0 41.3243,-12.17563 47.7782,-14.94639 1.1,-0.47225 4.7,-1.84588 8,-3.05251 23.226,-8.49252 36.3042,-15.2425 26.25,-13.54827 -2.3375,0.39388 -5.825,0.93104 -7.75,1.19367 -1.925,0.26264 -4.4,0.83726 -5.5,1.27694 -3.1651,1.26515 -9.0586,3.07656 -10.0096,3.07656 -0.4771,0 0.099,-0.9 1.2792,-2 1.1807,-1.1 3.2906,-2 4.6886,-2 1.398,0 2.5418,-0.45 2.5418,-1 0,-0.55 1.0984,-1 2.441,-1 1.3425,0 2.7191,-0.45 3.059,-1 0.3399,-0.55 1.4976,-1 2.5726,-1 1.075,0 2.7359,-0.39476 3.691,-0.87724 0.955,-0.48249 3.5364,-1.4153 5.7364,-2.07291 15.5571,-4.65025 43.5,-17.76099 43.5,-20.41009 0,-0.35187 -2.6519,-0.63976 -5.893,-0.63976 -4.4512,0 -6.0415,-0.38702 -6.5,-1.58179 -1.0703,-2.78917 -0.6801,-3.41892 3.143,-5.073 4.2165,-1.82427 4.4846,-1.92895 16.25,-6.34521 13.333,-5.00467 17.0483,-6.49485 20.2364,-8.11667 0.9551,-0.48583 2.1975,-0.88333 2.7609,-0.88333 0.5635,0 3.0446,-0.9 5.5136,-2 2.469,-1.1 6.5092,-2.9 8.9782,-4 2.469,-1.1 4.7057,-2 4.9704,-2 1.453,0 28.2878,-12.95984 43.0405,-20.78639 7.5054,-3.98172 11.0862,-6.20372 24.7447,-15.35476 4.8095,-3.22237 9.1405,-5.85885 9.6243,-5.85885 0.4838,0 2.4946,-1.4625 4.4684,-3.25 3.168,-2.86898 14.9891,-11.50032 19.5162,-14.25 0.9055,-0.55 4.168,-2.6875 7.2499,-4.75 3.0819,-2.0625 6.2319,-3.75437 7,-3.75971 0.7681,-0.005 3.3723,-1.58033 5.7872,-3.5 8.9026,-7.07687 7.7892,-3.54908 -4.4686,14.15793 -3.4831,5.03152 -6.6516,10.41814 -7.0412,11.97028 -0.3896,1.55214 -1.5904,4.31715 -2.6686,6.14448 -4.779,8.09986 2.6152,4.14404 9.8085,-5.24742 5.4671,-7.13781 9.5419,-10.51556 12.6854,-10.51556 0.7181,0 1.8609,-1.2375 2.5397,-2.75 2.0728,-4.61876 5.9824,-8.86962 7.1279,-7.75 0.9684,0.94648 0.8016,2.71493 -1.533,16.25927 -0.309,1.7926 -0.9621,3.50665 -1.4513,3.80902 -0.4892,0.30236 -0.8963,1.53569 -0.9046,2.74073 -0.02,2.88596 -2.0507,8.61626 -4.2354,11.95059 -0.9622,1.46851 -1.7495,4.0093 -1.7495,5.64619 0,1.63689 -0.3883,3.21613 -0.8628,3.50942 -0.4746,0.29329 -1.4461,2.68235 -2.1589,5.30902 -0.7128,2.62667 -2.0511,6.57576 -2.974,8.77576 -7.5777,18.0647 -7.6449,23.1041 -0.1667,12.5 2.7243,-3.86311 4.9313,-6 6.1969,-6 3.1663,0 2.7813,2.43069 -2.1761,13.7391 -1.0221,2.33151 -1.8584,4.70011 -1.8584,5.26357 0,0.56346 -0.391,1.80586 -0.8688,2.7609 -0.4779,0.95504 -2.0584,4.10578 -3.5122,7.00165 -2.6075,5.19383 -7.619,19.09654 -7.619,21.13635 0,0.70164 0.816,0.73869 2.4646,0.11189 2.6795,-1.01873 4.1869,0.12342 2.9035,2.19997 -0.6917,1.11924 -1.6358,5.33417 -3.0341,13.54584 -0.3052,1.7926 -0.9553,3.50665 -1.4445,3.80902 -0.4892,0.30236 -0.8895,1.65429 -0.8895,3.0043 0,1.35 -0.3981,3.23594 -0.8848,4.19098 -0.4866,0.95504 -1.8597,4.88643 -3.0513,8.73643 -1.1916,3.85 -2.5496,7.9 -3.0178,9 -0.4681,1.1 -1.8885,4.7 -3.1564,8 -1.2678,3.3 -4.0117,9.5018 -6.0974,13.78177 -2.0858,4.27998 -3.8106,8.32998 -3.8329,9 -0.022,0.67003 -1.3724,2.77623 -3,4.68046 -1.6277,1.90422 -2.9594,3.83172 -2.9594,4.28333 0,2.28931 -22.8566,34.56675 -27.1397,38.32598 -4.9939,4.38305 -20.543,14.44038 -32.5547,21.05681 -2.3681,1.30441 -6.3466,3.49665 -8.8411,4.87165 -2.4945,1.375 -5.3314,2.5 -6.3042,2.5 -0.9728,0 -3.7693,1.24605 -6.2145,2.76901 -5.8251,3.6281 -9.5525,5.23099 -12.1641,5.23099 -1.1683,0 -2.8931,0.69583 -3.8328,1.54628 -1.7321,1.56748 -26.7968,10.45372 -29.4861,10.45372 -2.6212,0 -1.5406,2.9084 1.7041,4.5863 2.4665,1.2755 5.2062,1.54847 12.3885,1.23434 11.3798,-0.49772 11.367,-0.40508 -1.4252,10.32006 -13.8738,11.63203 -24.4282,18.41996 -35.6302,22.91525 -9.2471,3.71079 -25.1123,8.75349 -33.5,10.64782 -1.375,0.31054 -3.1323,1.06673 -3.905,1.68043 -0.9763,0.77529 -9.4693,1.02393 -27.8303,0.81475 -27.9417,-0.31834 -35.7392,0.51846 -31.7837,3.41085 2.2915,1.67553 11.4825,4.3902 14.8639,4.3902 3.1043,0 4.1244,1.36566 2.208,2.95609 -0.9558,0.79329 -2.0223,0.87073 -3.239,0.2352 -0.9976,-0.52113 -8.7889,-1.49442 -17.3139,-2.16288 -13.7683,-1.0796 -18.8041,-1.82479 -34.5,-5.10529 -12.5163,-2.61596 -15.3886,0.52792 -5.9806,6.54615 3.0357,1.9419 6.1857,3.53073 7,3.53073 0.8143,0 1.4806,0.45 1.4806,1 0,1.27468 -19.5031,1.11798 -27,-0.21694 z M 1617,533 c 0,-0.55 -0.4234,-1 -0.941,-1 -0.5175,0 -1.2191,0.45 -1.559,1 -0.3399,0.55 0.083,1 0.941,1 0.8574,0 1.559,-0.45 1.559,-1 z m -244,100.24055 c 0,-1.0619 4.0753,-3.49856 4.7399,-2.834 0.817,0.81697 -1.7809,3.59345 -3.3623,3.59345 -0.7577,0 -1.3776,-0.34175 -1.3776,-0.75945 z M 1053,632 c -0.7931,-0.49019 -1.1101,-1.22322 -0.7044,-1.62896 0.4058,-0.40574 1.2627,-0.21271 1.9044,0.42896 1.5109,1.51091 0.6676,2.35423 -1.2,1.2 z m -8,-3 c 0,-0.55 0.675,-1 1.5,-1 0.825,0 1.5,0.45 1.5,1 0,0.55 -0.675,1 -1.5,1 -0.825,0 -1.5,-0.45 -1.5,-1 z m 337,0 c 0,-0.55 0.675,-1 1.5,-1 0.825,0 1.5,0.45 1.5,1 0,0.55 -0.675,1 -1.5,1 -0.825,0 -1.5,-0.45 -1.5,-1 z M 897.5,569 c -0.33992,-0.55 -1.91492,-1 -3.5,-1 -1.58508,0 -3.16008,-0.45 -3.5,-1 -0.35956,-0.58179 0.63661,-1 2.38197,-1 1.65,0 3.27811,0.45 3.61803,1 0.33992,0.55 1.68992,1 3,1 1.31008,0 2.66008,0.45 3,1 0.34907,0.56481 -0.46994,1 -1.88197,1 -1.375,0 -2.77811,-0.45 -3.11803,-1 z m 630,0 c 0.3399,-0.55 1.4915,-1 2.559,-1 1.0676,0 1.941,0.45 1.941,1 0,0.55 -1.1516,1 -2.559,1 -1.4514,0 -2.2915,-0.43284 -1.941,-1 z m 6,-2 c 0.3399,-0.55 1.968,-1 3.618,-1 1.7454,0 2.7416,0.41821 2.382,1 -0.3399,0.55 -1.968,1 -3.618,1 -1.7454,0 -2.7416,-0.41821 -2.382,-1 z"
     id="path2" /></svg>
