<?xml version="1.0" encoding="UTF-8" standalone="no"?>
<!-- Created with Inkscape (http://www.inkscape.org/) -->

<svg
   version="1.1"
   id="svg1"
   width="2400"
   height="3200"
   viewBox="0 0 2400 3200"
   xml:space="preserve"
   xmlns="http://www.w3.org/2000/svg"
   xmlns:svg="http://www.w3.org/2000/svg"><defs
     id="defs1" /><path
     style="fill:#000000"
     d="m 955.95399,819.91403 c -0.5634,-1.05271 -1.79602,-1.92058 -2.73917,-1.92858 -1.85522,-0.0158 -9.44038,-2.50062 -12.29226,-4.0269 -3.33352,-1.78404 -3.46997,-6.74398 -0.26409,-9.59986 3.2293,-2.87675 4.53902,-2.83165 -11.65847,-0.40151 -10.49052,1.57392 -22.8551,2.08629 -23.54158,0.97554 -0.31705,-0.513 -1.7874,-0.95258 -3.26744,-0.97685 -3.61813,-0.0593 -10.60007,-2.10801 -16.69098,-4.89753 -3.76299,-1.72338 -7.35032,-2.3897 -14.5,-2.69326 -20.00304,-0.8493 -55.92544,-10.81479 -72.34607,-20.07003 C 795.4386,774.48277 792.48133,773 792.08224,773 c -2.94378,0 -33.56886,-24.80712 -34.58759,-28.01686 -0.31649,-0.99718 -0.30334,-2.89722 0.0292,-4.2223 0.72835,-2.90199 -0.47166,-4.01783 -6.52389,-6.06626 -6.57946,-2.22689 -26.37772,-12.2167 -33.22435,-16.76435 C 714.52126,715.7686 711.6603,714 711.41798,714 c -0.96369,0 -13.3179,-8.73003 -19.91798,-14.07492 -8.19716,-6.63824 -13.11808,-12.28481 -20,-22.94924 -2.75,-4.26149 -6.71948,-10.30277 -8.82108,-13.42507 C 652.74878,648.7977 636.24991,614.976 631.18985,599 c -4.31334,-13.61836 -4.18503,-12.80122 -9.05841,-57.69088 -0.54878,-5.05498 -1.55665,-10.22998 -2.2397,-11.5 -0.68305,-1.27002 -1.56965,-3.88412 -1.97021,-5.80912 -0.40056,-1.925 -1.57977,-5.75 -2.62045,-8.5 -1.04068,-2.75 -2.68701,-8.6 -3.6585,-13 -0.97149,-4.4 -2.1885,-9.91896 -2.70446,-12.26435 C 608.42215,487.89026 608,484.87931 608,483.54467 c 0,-1.33465 -0.45,-2.70475 -1,-3.04467 -0.55,-0.33992 -1,-3.48992 -1,-7 0,-3.51008 -0.44504,-6.65702 -0.98898,-6.99319 -4.20399,-2.59821 0.94643,-65.75297 6.19603,-75.97594 3.81088,-7.42124 12.79295,-8.89728 12.79295,-2.1023 0,0.86429 0.35625,1.57143 0.79166,1.57143 0.78866,0 3.65372,2.52289 14.3263,12.61531 9.67329,9.14744 26.62833,19.40906 42.88204,25.95329 5.82353,2.34472 8.76739,3.24712 20.87226,6.3981 1.85475,0.48281 3.85725,1.36281 4.45,1.95556 0.59276,0.59276 2.01261,1.07774 3.15523,1.07774 1.14263,0 2.98811,0.63782 4.10107,1.41737 1.11297,0.77955 3.8006,1.73428 5.97251,2.12161 2.17191,0.38734 5.97393,1.50658 8.44893,2.4872 6.54482,2.59313 8.34493,3.24397 9.80217,3.54403 0.71619,0.14748 2.29119,0.91469 3.5,1.70491 1.20881,0.79023 5.74449,2.65976 10.07929,4.15452 4.3348,1.49475 10.1848,3.75918 13,5.03206 2.8152,1.27289 7.36854,3.29725 10.11854,4.49859 2.75,1.20134 6.41801,2.82673 8.15113,3.61198 1.73312,0.78525 3.68869,1.42773 4.34571,1.42773 0.65702,0 2.38901,0.6347 3.84887,1.41045 3.37271,1.79221 8.54188,4.02771 13.65429,5.90503 5.27085,1.93549 13.68508,5.09717 20.5,7.70293 7.63908,2.9209 27.49972,8.98159 29.43228,8.98159 0.87717,0 2.37625,0.4549 3.33129,1.01089 0.95504,0.55599 6.30591,2.09213 11.89083,3.41365 5.58491,1.32152 11.06482,2.89001 12.17755,3.48552 1.11274,0.59552 2.7365,0.80904 3.60834,0.47448 0.87185,-0.33456 2.14195,-0.15483 2.82244,0.39939 0.6805,0.55423 4.4113,1.49493 8.29066,2.09044 3.87937,0.59552 8.37937,1.7433 10,2.55062 1.62064,0.80732 4.88798,1.58165 7.26076,1.72073 2.37279,0.13908 4.53684,0.61318 4.80902,1.05357 0.27218,0.44039 1.62289,0.80071 3.00159,0.80071 1.3787,0 3.29085,0.41965 4.24923,0.93256 0.95837,0.51291 4.64129,1.39503 8.18426,1.96028 10.03629,1.6012 26.77614,4.88683 27.65162,5.42735 0.92773,0.57278 16.37433,3.22016 24.29013,4.16306 3.025,0.36033 7.02923,1.13092 8.89829,1.71244 1.86906,0.58151 5.91911,1.42621 9.00001,1.87709 3.0809,0.45089 9.2017,1.50932 13.6017,2.35205 4.4,0.84274 9.5928,1.69703 11.5397,1.89842 1.9468,0.20139 7.3468,2.19196 12,4.42349 4.6531,2.23153 10.9353,5.11296 13.9603,6.40317 3.025,1.29022 6.9261,3.24681 8.6692,4.34797 1.743,1.10117 5.447,3.35212 8.2311,5.00212 2.7841,1.65 5.0704,3.36046 5.0808,3.80103 0.01,0.44056 1.7024,1.50444 3.76,2.36417 2.0577,0.85974 4.6863,2.52427 5.8415,3.69898 1.1552,1.1747 6.2877,6.18582 11.4056,11.13582 18.3288,17.7277 33.8544,42.02111 38.9842,61 0.4459,1.65 2.2584,7.275 4.0276,12.5 6.3477,18.74655 7.1002,22.71922 7.4816,39.5 0.4088,17.9868 -0.953,26.35694 -7.2403,44.5 -3.3286,9.60549 -6.6244,16.55424 -9.2488,19.5 -0.98,1.1 -2.6316,3.575 -3.6701,5.5 -1.6686,3.0928 -3.0328,5.21164 -9.3224,14.47917 -0.825,1.21561 -3.3714,4.00533 -5.6587,6.19937 -2.2872,2.19405 -4.3122,5.05665 -4.5,6.36135 -0.4712,3.27506 -10.3446,9.04722 -16.6135,9.71258 -4.8545,0.51524 -8.2278,2.52519 -8.2278,4.90252 0,2.25951 -6.622,1.66709 -8.9185,-0.79788 -1.9732,-2.11801 -2.0275,-2.12091 -4.6728,-0.25 -11.7067,8.27952 -21.9185,12.71601 -28.0974,12.20691 -3.7677,-0.31043 -3.6856,-0.38131 7.1887,-6.20135 6.05,-3.23803 11.225,-6.16375 11.5,-6.50159 0.275,-0.33785 1.7803,-1.275 3.3451,-2.08257 5.9174,-3.0538 14.4731,-13.09337 18.8849,-22.16027 4.9103,-10.09136 7.088,-11.15883 7.5706,-3.71104 0.2908,4.48685 0.4222,4.66141 4,5.31498 2.0347,0.37168 4.7246,1.33619 5.9776,2.14336 2.406,1.54987 4.2218,1.11737 4.2218,-1.00558 0,-0.6996 1.1394,-1.88181 2.5321,-2.62712 5.7309,-3.06709 16.2648,-18.84818 20.7099,-31.02582 3.374,-9.24349 4.3422,-10.53895 5.0125,-6.70702 0.3775,2.15794 0.425,2.16817 1.1602,0.25 0.4217,-1.1 1.1532,-2.9 1.6256,-4 7.7286,-17.99531 10.6405,-51.29577 5.8498,-66.89922 -0.4895,-1.59458 -0.8901,-4.17826 -0.8901,-5.74153 0,-1.7593 -0.7621,-3.31822 -2,-4.09132 -1.1,-0.68696 -2,-2.2259 -2,-3.41986 0,-2.25155 -5.1238,-14.87872 -8.8594,-21.83326 -1.1773,-2.19186 -2.1406,-4.77936 -2.1406,-5.75 0,-0.97065 -0.45,-1.76481 -1,-1.76481 -0.55,0 -1.0244,-0.7875 -1.0543,-1.75 -0.1847,-5.95284 -26.4755,-40.87149 -35.5753,-47.25 -1.1769,-0.825 -4.7127,-3.525 -7.8572,-6 -13.0918,-10.30443 -38.4503,-23.8199 -44.9253,-23.94413 -1.6017,-0.0307 -5.2017,-0.69548 -8,-1.47722 C 1021.5475,535.61186 1012.1052,534 1007.6241,534 c -2.0656,0 -4.6362,-0.47132 -5.7126,-1.04737 -1.0764,-0.57606 -4.7593,-1.2454 -8.18428,-1.48743 -3.42497,-0.24202 -8.70222,-0.89406 -11.72722,-1.44897 -3.025,-0.55491 -9.55,-1.70161 -14.5,-2.54822 -22.24467,-3.80459 -32.35574,-5.72973 -37,-7.04478 -2.75,-0.77868 -9.05,-2.10408 -14,-2.94532 -4.95,-0.84125 -11.475,-2.27141 -14.5,-3.17813 -3.025,-0.90672 -5.87941,-1.55613 -6.34314,-1.44313 -0.46373,0.11299 -2.26373,-0.25634 -4,-0.82074 -1.73627,-0.5644 -8.78186,-2.42095 -15.65686,-4.12567 -23.21527,-5.75645 -40.22157,-10.46941 -44.24546,-12.26176 -1.79,-0.79731 -4.15454,-1.68105 -5.25454,-1.96386 -4.75839,-1.22338 -34.11346,-12.16505 -41.71295,-15.54788 C 782.42917,477.08716 774.875,473.87563 768,471 761.125,468.12437 753.5924,464.92298 751.2609,463.88579 748.92939,462.84861 746.36845,462 745.56992,462 c -0.79854,0 -1.73,-0.45 -2.06992,-1 -0.33992,-0.55 -1.26528,-1 -2.05635,-1 -0.79107,0 -4.29559,-1.35 -7.78782,-3 -3.49224,-1.65 -7.00344,-3 -7.80267,-3 -0.79924,0 -1.88066,-0.37175 -2.40316,-0.82612 -0.5225,-0.45437 -2.975,-1.43311 -5.45,-2.17499 -2.475,-0.74189 -7.2,-2.35511 -10.5,-3.58495 -3.3,-1.22984 -9.375,-3.43718 -13.5,-4.90519 -23.93749,-8.51892 -43.42802,-19.97723 -56.40081,-33.15752 C 628.97301,400.58707 622,396.00415 622,399.09887 c 0,1.15438 -0.61832,3.51688 -1.37404,5.25 -4.63465,10.62883 -5.80668,18.91845 -6.17159,43.65113 -0.41924,28.41505 0.7838,37.97691 8.11516,64.5 2.16616,7.83662 12.25178,32.18575 16.83275,40.63832 1.97875,3.65107 3.59772,7.54534 3.59772,8.65393 0,1.10859 1.65093,4.87135 3.66873,8.36168 8.58392,14.84824 10.49618,18.84607 9.01452,18.84607 -1.79494,0 -6.70456,-5.36805 -13.07517,-14.29604 -4.9402,-6.92337 -7.02327,-8.34131 -4.18182,-2.84655 0.86556,1.6738 1.57374,3.71651 1.57374,4.53935 0,0.82285 1.575,4.18342 3.5,7.46793 1.925,3.28451 3.5,6.24644 3.5,6.58206 0,0.98663 10.62701,16.72674 13.98139,20.70843 4.59412,5.45327 8.19206,11.00471 7.54902,11.64775 -2.69979,2.69979 -16.2384,-12.36238 -26.10559,-29.04335 -9.16074,-15.4867 -9.37702,-15.54966 -5.96362,-1.73602 2.98085,12.06315 3.64163,13.79505 13.53546,35.47644 4.51766,9.9 8.72904,19.36283 9.35863,21.02852 1.3499,3.57138 4.04447,7.14123 10.54584,13.97148 2.61759,2.75 8.93823,9.725 14.04588,15.5 13.63172,15.41282 27.31793,27.83796 35.93358,32.62261 1.85932,1.03257 4.10932,2.32983 5,2.88281 5.39637,3.35037 20.22063,11.49458 20.92269,11.49458 0.46088,0 5.08119,1.81451 10.26734,4.03224 8.54876,3.65567 13.92362,5.45202 23.82009,7.96099 10.13276,2.56887 7.13436,6.2117 -4.64071,5.6381 -13.9534,-0.67972 -9.42079,4.32795 21.75,24.0296 13.15426,8.31422 31.64906,14.78049 48.22669,16.86133 2.59968,0.32631 4.98874,1.0173 5.30902,1.53552 0.32028,0.51822 2.76226,0.94222 5.42663,0.94222 2.66436,0 9.27531,0.89576 14.69098,1.99059 15.14325,3.06133 38.10213,1.94763 42.95868,-2.08386 2.15502,-1.78891 10.388,-2.13347 10.388,-0.43475 0,1.4423 -3.2072,4.52802 -4.7063,4.52802 -0.57684,0 -1.60901,0.675 -2.2937,1.5 -0.68469,0.825 -2.08979,1.5 -3.12244,1.5 -1.03266,0 -1.87756,0.66643 -1.87756,1.48095 0,1.46392 2.61859,2.38809 6.5,2.29401 1.1,-0.0267 4.025,0.0513 6.5,0.17323 8.50519,0.41904 34.74037,-5.77736 42.23643,-9.97567 C 969.78393,785.54575 970,785.70427 970,789 c 0,1.65 -0.39541,3 -0.87868,3 -0.48327,0 -1.42604,1.32145 -2.09504,2.93656 -1.59401,3.84828 -7.45506,10.06273 -12.77628,13.54665 -8.14707,5.33406 5.14671,9.7214 16.93939,5.5905 12.56789,-4.40245 15.07354,-5.84748 25.70405,-14.82371 2.11693,-1.7875 4.27846,-3.25 4.80346,-3.25 0.525,0 2.0223,-1.13662 3.3274,-2.52582 2.4382,-2.59535 7.9731,-5.81011 8.7191,-5.06416 0.7087,0.70877 -1.9299,4.97922 -4.4005,7.12182 -4.6152,4.00248 -2.4603,4.63042 3.9071,1.1385 6.4913,-3.55986 12.75,-5.34929 12.75,-3.64534 0,0.53625 -0.5901,0.975 -1.3114,0.975 -1.5545,0 -5.6886,3.66204 -5.6886,5.03896 0,1.19036 2.4472,1.24591 4.7636,0.10813 0.955,-0.4691 4.7221,-1.81085 8.3713,-2.98166 3.6491,-1.17082 9.0389,-3.71201 11.9772,-5.64709 2.9382,-1.93509 5.6635,-3.51834 6.0561,-3.51834 4.4195,0 -4.3619,9.15826 -14.1682,14.77619 -6.5,3.72381 -6.5,3.72381 -2.25,4.03131 10.4273,0.75444 3.6287,2.47208 -16.75,4.23181 -5.775,0.49868 -12.8625,1.18727 -15.75,1.5302 -3.52049,0.41811 -5.25,0.26229 -5.25,-0.473 0,-1.9923 -2.61208,-1.14683 -8.7868,2.84409 -10.90574,7.04872 -28.8487,10.47751 -31.25921,5.97343 z m 499.99631,-0.37319 c -3.6023,-1.12656 -7.749,-2.83412 -9.2148,-3.79457 -1.4658,-0.96045 -2.9242,-1.74627 -3.2408,-1.74627 -0.3166,0 -1.8535,-0.94472 -3.4152,-2.09938 -2.3855,-1.76367 -3.1965,-1.90836 -5.0716,-0.90484 -1.2276,0.65699 -3.4191,0.90166 -4.87,0.5437 -1.4508,-0.35796 -8.0379,-1.0729 -14.6379,-1.58875 -19.4739,-1.52208 -30.1531,-3.85495 -18.25,-3.98671 3.842,-0.0425 2.4929,-1.48728 -6.8169,-7.30027 -6.0225,-3.76039 -12.0085,-10.19008 -10.4079,-11.1793 0.6007,-0.37129 2.8276,0.52751 4.9485,1.99732 2.1209,1.46981 6.3799,3.69806 9.4643,4.95166 3.0844,1.25361 5.8977,2.56893 6.2517,2.92293 0.354,0.354 1.7232,0.64364 3.0427,0.64364 1.3195,0 3.3178,0.49169 4.4407,1.09264 2.2147,1.1853 4.9687,-0.26895 2.914,-1.53879 -0.5979,-0.36954 -1.0728,-1.88283 -1.0553,-3.36287 0.027,-2.30548 0.2063,-2.46722 1.25,-1.12901 0.67,0.85909 1.8932,1.88924 2.7182,2.28922 0.825,0.39999 2.625,1.37797 4,2.17329 6.4437,3.72712 7.0297,1.42578 1.25,-4.90903 -5.4173,-5.93765 -2.7973,-6.73857 3.3743,-1.0315 2.1316,1.97117 5.5217,4.43414 7.5335,5.47326 2.0117,1.03913 3.8117,2.23885 4,2.66605 0.3227,0.7324 9.0769,6.88264 14.7533,10.36491 6.156,3.77641 18.9984,6.47682 23.7134,4.98625 1.5815,-0.49999 4.0971,-1.17586 5.5902,-1.50194 3.5557,-0.77654 2.8056,-2.61449 -2.5394,-6.22211 -3.8343,-2.58803 -8.6753,-6.9487 -8.6753,-7.81461 0,-0.19865 -1.575,-2.75271 -3.5,-5.67567 -5.1747,-7.85743 -3.8685,-10.40893 3,-5.86009 1.65,1.09275 3.9225,1.98979 5.05,1.99341 1.1275,0.004 2.4775,0.37446 3,0.82408 4.3849,3.77323 44.283,7.68284 47.3282,4.63767 0.3173,-0.31732 -2.9492,-1.96092 -5.8782,-2.95773 -6.3175,-2.14999 -11.7329,-9.49743 -7,-9.49743 0.55,0 1,0.48032 1,1.06739 0,0.61929 0.8564,0.79557 2.04,0.4199 1.2334,-0.39145 3.6182,0.17506 6.0308,1.43261 2.1949,1.14406 5.7504,2.0801 7.901,2.0801 2.1506,0 4.2238,0.50755 4.6072,1.12788 1.014,1.64059 26.5575,0.44173 32.921,-1.54511 2.75,-0.85862 6.8,-1.58202 9,-1.60757 2.2,-0.0255 6.7,-0.75523 10,-1.62153 3.3,-0.8663 7.8,-1.77547 10,-2.02038 5.9998,-0.66791 16.4842,-3.30685 21,-5.28571 2.2,-0.96406 4.675,-2.04311 5.5,-2.39787 14.3535,-6.17227 45,-27.72858 45,-31.65241 0,-0.46464 -4.3875,-0.76662 -9.75,-0.67105 -10.2572,0.18279 -14.075,-1.8597 -6.4074,-3.4279 1.8385,-0.37601 3.841,-1.18196 4.45,-1.791 0.6091,-0.60904 2.5024,-1.10735 4.2074,-1.10735 1.705,0 3.5275,-0.39215 4.05,-0.87145 0.5225,-0.4793 3.65,-1.67494 6.95,-2.65698 6.1956,-1.84372 26.5961,-11.53357 34.2715,-16.27833 19.9577,-12.33725 27.3903,-18.58388 44.8503,-37.69395 23.7103,-25.95101 22.9703,-24.87025 33.8939,-49.49929 7.4965,-16.90218 15.4843,-39.10031 15.4843,-43.0309 0,-2.9567 -1.5643,-2.37411 -3.4394,1.2809 -6.2164,12.11741 -18.8589,29.10944 -25.2968,34 -6.5804,4.9988 -7.2025,2.70853 -1.2903,-4.75 12.1133,-15.28154 17.9452,-24.73756 27.23,-44.15139 2.8725,-6.00629 -0.5958,-3.74525 -6.4293,4.19134 -5.8649,7.97925 -10.866,13.46005 -12.2818,13.46005 -1.1356,0 -0.3593,-3.27437 1.3729,-5.79049 4.3399,-6.3039 12.372,-20.7611 12.5873,-22.6562 0.1283,-1.12932 1.3965,-4.52831 2.8182,-7.55331 7.2251,-15.3727 9.4046,-20.48914 12.3533,-29 0.8575,-2.475 2.5883,-6.975 3.8462,-10 10.409,-25.03131 12.8173,-99.11245 3.5241,-108.40558 -0.5469,-0.54693 -1.0087,-1.91692 -1.0262,-3.04442 -0.1076,-6.93326 -3.3497,-6.44878 -11.9682,1.78841 -9.9303,9.49101 -31.6647,25.66159 -34.491,25.66159 -0.4683,0 -1.562,0.6003 -2.4303,1.33399 -1.735,1.46605 -17.0427,7.66601 -18.9274,7.66601 -0.6481,0 -1.9598,0.45776 -2.9149,1.01725 -2.003,1.17345 -12.392,5.06571 -23.2364,8.70563 -8.0844,2.71351 -10.8369,3.74752 -15.5,5.82279 -3.0206,1.34428 -7.1251,2.97766 -20,7.95907 -3.85,1.48959 -8.125,3.19079 -9.5,3.78044 -1.375,0.58966 -2.725,1.14355 -3,1.23087 -0.275,0.0873 -4.0124,1.80693 -8.3054,3.82136 -4.293,2.01442 -8.4985,3.66259 -9.3456,3.66259 -0.8472,0 -2.7347,0.81866 -4.1946,1.81925 -1.4599,1.00059 -4.9044,2.56442 -7.6544,3.47517 -9.3948,3.11141 -15.5389,5.41115 -16.1863,6.05857 -0.3559,0.35585 -1.3595,0.64978 -2.2304,0.65317 -0.8708,0.003 -2.9333,0.73254 -4.5833,1.62034 -1.65,0.8878 -4.35,1.96253 -6,2.3883 -2.8005,0.72264 -10.4262,3.28938 -15,5.04888 -1.1,0.42316 -3.125,1.04845 -4.5,1.38954 -11.9554,2.96567 -25.3171,6.62471 -26.2127,7.17825 -0.6029,0.37261 -2.0392,0.81405 -3.1917,0.98099 -1.1526,0.16693 -5.3689,1.18034 -9.3697,2.252 -4.0007,1.07167 -7.4922,1.96361 -7.7589,1.98209 -3.451,0.23912 -10.3668,1.61657 -11.7684,2.34396 -2.2026,1.14311 -26.5793,6.4678 -36.1986,7.90701 -3.85,0.57603 -7.9,1.43683 -9,1.91289 -1.1,0.47607 -3.575,1.0635 -5.5,1.30541 -1.925,0.2419 -7.775,1.17071 -13,2.06401 -5.225,0.89329 -12.425,2.06184 -16,2.59678 -19.0623,2.85233 -34.3199,5.33251 -41,6.66471 -4.125,0.82264 -9.525,1.69412 -12,1.93661 -2.475,0.2425 -5.625,0.94687 -7,1.56528 -1.375,0.61841 -3.625,1.54433 -5,2.0576 -4.1001,1.53054 -20.2033,9.9113 -24.4095,12.70373 -3.9368,2.61357 -4.6854,3.12277 -12.637,8.59546 -5.2904,3.64119 -25.1844,23.41263 -29.7451,29.56187 -7.1989,9.70645 -14.1736,21.65362 -14.2306,24.37596 -0.012,0.58419 -0.9023,2.18717 -1.9778,3.56217 -1.0755,1.375 -1.9655,3.4225 -1.9778,4.55 -0.012,1.1275 -0.518,2.54581 -1.124,3.1518 -1.24,1.23997 -7.8389,16.58308 -8.6225,20.0482 -0.2799,1.2375 -0.9064,2.25 -1.3923,2.25 -0.4859,0 -0.8834,1.54844 -0.8834,3.44098 0,1.89254 -0.45,3.7191 -1,4.05902 -0.55,0.33992 -1,2.19606 -1,4.12476 0,1.9287 -0.4898,4.422 -1.0885,5.54066 -3.3702,6.29717 0.2661,45.8267 5.3201,57.83458 0.8102,1.925 1.7967,4.4 2.1922,5.5 0.672,1.86924 0.8022,1.8871 1.991,0.27308 1.4619,-1.98478 2.2997,-0.80082 4.7606,6.72692 3.9999,12.23532 18.367,32.5 23.0417,32.5 0.4788,0 0.7383,0.77119 0.5767,1.71375 -0.4433,2.58542 3.0848,2.7937 5.391,0.31825 1.5313,-1.64367 2.6869,-1.99945 4.909,-1.5114 2.863,0.62883 2.9062,0.57327 2.9062,-3.74114 0,-8.2085 4.0662,-9.15866 6.5452,-1.52946 2.2422,6.90004 12.6753,20.74348 15.6374,20.74878 0.3754,6.7e-4 0.9683,0.90122 1.3174,2.00122 0.3491,1.1 1.3116,2 2.1388,2 0.8272,0 2.1313,0.5625 2.8979,1.25 0.7667,0.6875 2.1684,1.90859 3.115,2.71354 2.252,1.91499 18.4836,10.01192 20.0983,10.02575 1.2844,0.011 1.7201,2.20726 0.6502,3.27715 -0.3298,0.32987 -1.5673,0.22673 -2.75,-0.2292 -1.1826,-0.45593 -4.1752,-1.3901 -6.6502,-2.07593 -6.7055,-1.85814 -12.8803,-4.87702 -18.7073,-9.14619 -5.9588,-4.36574 -6.9127,-4.5879 -7.7927,-1.81512 -0.9377,2.95438 -8.5,2.93236 -8.5,-0.0248 0,-2.28366 -3.4456,-3.97525 -8.0972,-3.97525 -6.162,0 -17.9028,-7.26572 -17.9028,-11.07898 0,-1.05101 -2.1487,-4.10531 -4.7749,-6.78733 -2.6261,-2.68203 -5.9291,-6.6218 -7.3398,-8.75505 -1.4108,-2.13325 -3.4246,-5.16624 -4.4752,-6.73998 -22.6773,-33.96991 -28.9915,-78.9101 -15.4748,-110.13866 0.9523,-2.2 2.5005,-6.7 3.4406,-10 4.0554,-14.23541 14.4496,-35.78178 21.4265,-44.4156 0.9337,-1.15539 3.0476,-3.94753 4.6976,-6.20475 14.2174,-19.44966 47.211,-43.69978 69.4021,-51.0102 1.9789,-0.65189 4.7229,-1.9722 6.0979,-2.93402 1.375,-0.96182 5.425,-2.25144 9,-2.86582 3.575,-0.61438 10.325,-1.82236 15,-2.68441 4.675,-0.86205 10.2781,-1.74638 12.4514,-1.96518 2.1732,-0.2188 5.3232,-0.836 7,-1.37154 2.8672,-0.91578 15.8461,-3.30809 27.0486,-4.98567 2.75,-0.41181 8.15,-1.46726 12,-2.34544 11.6757,-2.6632 20.7863,-4.5575 25,-5.19805 2.2,-0.33444 5.575,-1.02086 7.5,-1.52538 1.925,-0.50452 10.7,-2.53906 19.5,-4.52119 8.8,-1.98214 18.1892,-4.24938 20.8648,-5.03832 2.6757,-0.78894 5.6866,-1.43443 6.691,-1.43443 1.0044,0 2.0736,-0.40028 2.3759,-0.88951 0.3024,-0.48923 2.0164,-1.11117 3.809,-1.38208 7.286,-1.10112 25.1562,-6.38024 43.7593,-12.92713 19.1348,-6.73398 22.5231,-7.98532 23.489,-8.67456 0.5561,-0.39676 5.511,-2.44793 11.011,-4.55816 9.9011,-3.79884 19.6102,-7.88036 43.8771,-18.44525 2.6824,-1.16782 5.3144,-2.12331 5.8489,-2.12331 0.5345,0 2.6147,-0.72088 4.6229,-1.60196 6.1119,-2.68167 7.5144,-3.22473 11.1511,-4.31805 1.925,-0.57871 8,-2.6076 13.5,-4.50864 5.5,-1.90104 12.25,-4.16082 15,-5.02173 10.7503,-3.36547 12.1141,-3.82794 15.5,-5.2562 25.5709,-10.78644 31.2263,-14.62774 53.6019,-36.40731 12.104,-11.78157 21.3605,-5.22017 21.3925,15.16389 0,1.9525 0.4078,3.9775 0.8995,4.5 0.4916,0.5225 1.1639,5.225 1.4939,10.45 0.3301,5.225 0.7433,11.75 0.9182,14.5 0.175,2.75 -0.014,8.6 -0.421,13 -2.0723,22.43021 -3.2533,32.08987 -4.0287,32.95 -0.4709,0.5225 -0.8563,2.17567 -0.8563,3.67371 0,6.14377 -7.1972,34.53862 -10.9946,43.37629 -0.7802,1.81578 -1.3617,5.45388 -2.4777,15.5 -0.2138,1.925 -1.1137,10.025 -1.9997,18 -1.9188,17.27245 -4.8024,32.09126 -7.642,39.27281 -1.1368,2.87496 -2.6925,7.0616 -3.4572,9.30367 -0.7647,2.24206 -3.199,7.36688 -5.4095,11.38849 -2.2106,4.0216 -4.0193,7.63948 -4.0193,8.03972 0,1.25951 -12.1011,24.19432 -15.8838,30.10401 -16.171,25.26404 -23.0033,33.34097 -36.6162,43.28701 -17.2742,12.62104 -28.6986,19.12334 -51,29.02702 -10.3519,4.59713 -11.2409,5.20941 -9.75,6.71499 2.5493,2.57433 1.3622,5.65706 -3.8728,10.0568 -2.8175,2.36801 -7.8385,6.68063 -11.1577,9.5836 -8.679,7.59069 -37.8385,24.22188 -42.4683,24.22188 -0.6023,0 -5.0677,1.3573 -9.9232,3.01622 -7.9916,2.73046 -15.7386,4.69026 -31.1543,7.88125 -2.9294,0.60639 -8.5895,1.10253 -12.5778,1.10253 -7.3839,0 -18.9095,3.14198 -22.4554,6.12152 -0.9023,0.75816 -3.8564,1.50094 -6.5647,1.65061 -2.7083,0.14968 -5.5011,0.75092 -6.2062,1.33609 -0.7051,0.58518 -1.8237,0.72917 -2.4858,0.31998 -1.5406,-0.95213 -14.1918,-0.97392 -15.7238,-0.0271 -0.638,0.3943 -1.7225,0.35539 -2.41,-0.0865 -3.7809,-2.43002 -17.2561,-3.4208 -14.9333,-1.09798 4.6056,4.60561 -3.1006,13.78333 -11.5734,13.78333 -1.1689,0 -2.3675,0.39188 -2.6635,0.87084 -1.7357,2.80842 -12.6574,3.16313 -20.6295,0.67 z m -52.8012,-29.14466 c -1.8225,-2.06117 -0.6494,-3.03933 1.3033,-1.08666 0.8512,0.85119 1.5476,1.80477 1.5476,2.11905 0,1.05 -1.4851,0.5122 -2.8509,-1.03239 z M 1028,789 c 0,-0.55 0.45,-1 1,-1 0.55,0 1,0.45 1,1 0,0.55 -0.45,1 -1,1 -0.55,0 -1,-0.45 -1,-1 z m -12,-4 c 0,-0.55 0.45,-1 1,-1 0.55,0 1,0.45 1,1 0,0.55 -0.45,1 -1,1 -0.55,0 -1,-0.45 -1,-1 z m 394,-2 c 0,-0.55 0.45,-1 1,-1 0.55,0 1,0.45 1,1 0,0.55 -0.45,1 -1,1 -0.55,0 -1,-0.45 -1,-1 z m -44.3206,-8.75 C 1357.2111,765.59129 1350,754.34913 1350,749.80567 c 0,-1.50725 -7.3584,-14.9027 -11.9783,-21.80567 -5.3366,-7.97384 -7.8348,-13.02564 -8.4069,-17 -0.2771,-1.925 -0.9371,-5.525 -1.4667,-8 -0.5297,-2.475 -1.5301,-7.2 -2.2232,-10.5 -4.4645,-21.25645 5.853,-52.89401 16.7619,-51.39858 0.9972,0.13671 4.2574,-0.50518 7.2447,-1.42643 9.3555,-2.88508 22.236,-2.0315 21.335,1.41385 -0.5361,2.05003 -0.5764,2.02773 8.0689,4.4606 4.8805,1.37342 6.0011,2.11738 6.8478,4.54635 0.5569,1.59731 1.7205,2.90421 2.5859,2.90421 0.8654,0 2.3991,0.74724 3.4083,1.66054 1.0092,0.91329 2.1212,1.37417 2.4712,1.02416 0.8569,-0.85686 -1.5714,-3.6847 -3.1641,-3.6847 -1.4865,0 -2.7551,-2.75308 -1.9036,-4.13092 0.617,-0.99825 4.5612,-0.14855 5.4191,1.16744 0.8029,1.23162 17.3342,8.94542 19.191,8.95487 0.93,0.005 1.9701,0.46026 2.3113,1.01228 0.3411,0.55202 1.6052,0.75687 2.809,0.45522 1.2038,-0.30165 4.1578,0.1467 6.5644,0.99633 5.5295,1.9521 11.678,1.95263 23.3739,0.002 14.3323,-2.39032 31.9448,-7.7022 35.3149,-10.65091 1.1354,-0.99348 2.5979,-1.80633 3.25,-1.80633 0.652,0 1.1817,-0.3375 1.177,-0.75 -0.016,-1.36425 -11.5602,-4.39634 -14.2084,-3.73169 -1.4604,0.36652 -2.8526,0.17821 -3.233,-0.43728 -0.3675,-0.59457 -1.9365,-1.08103 -3.4867,-1.08103 -12.4213,0 1.5823,-7.70896 18.3702,-10.11276 14.0681,-2.01435 16.2339,-2.66581 27.3164,-8.21676 2.3375,-1.17079 4.25,-2.36937 4.25,-2.66351 0,-0.29415 2.25,-1.60304 5,-2.90865 2.75,-1.30562 5,-2.76185 5,-3.23608 0,-0.47423 0.9,-0.86224 2,-0.86224 1.1,0 2,-0.34377 2,-0.76393 0,-0.42016 1.8,-1.8764 4,-3.23607 2.2,-1.35967 4,-2.81591 4,-3.23607 0,-0.42016 0.6135,-0.76393 1.3633,-0.76393 0.7498,0 4.3694,-2.21901 8.0434,-4.93113 3.674,-2.71212 7.223,-5.12551 7.8867,-5.36309 0.6636,-0.23759 0.8582,-0.80449 0.4323,-1.2598 -1.0393,-1.11124 -15.9791,-0.59504 -33.9757,1.17393 -6.1066,0.60025 -8.2898,-1.03375 -2.5,-1.87116 13.7553,-1.9895 29.6774,-5.97673 37.4011,-9.36599 1.7332,-0.76052 3.5332,-1.38495 4,-1.38763 0.4669,-0.003 5.1239,-1.61638 10.3489,-3.586 5.225,-1.96962 10.0171,-3.67466 10.6491,-3.78896 0.632,-0.11431 1.757,-0.65675 2.5,-1.20543 0.743,-0.54868 3.1509,-1.59524 5.3509,-2.3257 8.7196,-2.89515 39.1276,-18.562 43.0645,-22.18773 1.1354,-1.04572 2.5137,-1.90131 3.0629,-1.90131 2.0489,0 15.2239,-17.482 14.0555,-18.65039 -0.5547,-0.55474 -10.2079,3.10911 -12.9839,4.92802 -1.4457,0.9473 -3.5179,1.72237 -4.6048,1.72237 -1.0869,0 -2.2543,0.45 -2.5942,1 -0.3399,0.55 -1.7165,1 -3.059,1 -1.3426,0 -2.441,-0.45 -2.441,-1 0,-0.55 0.4274,-1 0.9499,-1 0.5224,0 2.9502,-1.35 5.395,-3 2.4448,-1.65 4.9291,-3 5.5205,-3 0.5914,0 3.5348,-1.125 6.5409,-2.5 3.006,-1.375 5.7609,-2.5 6.1219,-2.5 0.361,0 1.8005,-0.9 3.1989,-2 1.3985,-1.1 3.3161,-2 4.2615,-2 0.9454,0 7.0722,-2.50292 13.6152,-5.56204 6.5429,-3.05913 12.7962,-5.92175 13.8962,-6.36139 1.1,-0.43965 3.7028,-1.53673 5.7839,-2.43796 2.0812,-0.90124 4.1682,-1.63861 4.6378,-1.63861 1.1636,0 12.8747,-5.68993 16.5783,-8.05476 1.65,-1.05355 3.9185,-2.32535 5.0411,-2.82622 1.1226,-0.50087 2.6402,-1.63255 3.3724,-2.51484 0.7323,-0.8823 2.2888,-1.60626 3.4589,-1.60881 1.1702,-0.003 3.5657,-1.35254 5.3234,-3 1.7576,-1.64745 3.4401,-2.99537 3.7388,-2.99537 0.2987,0 3.2915,-2.1375 6.6508,-4.75 3.3592,-2.6125 7.4405,-5.7121 9.0695,-6.88799 2.7477,-1.98351 16.3127,-14.18082 26.8155,-24.11201 5.7626,-5.44895 8.1293,-5.32424 4.7442,0.25 -3.0916,5.09077 -20.2106,22.25673 -30.2146,30.29745 -3.85,3.09443 -9.3034,7.66841 -12.1187,10.16439 -6.0331,5.34884 -12.6737,10.18859 -16.9366,12.34362 -2.8041,1.41753 -5.4447,5.23339 -5.4447,7.86789 0,1.53699 -5.8878,12.98701 -7.7558,15.08278 -0.8609,0.96587 -1.3311,1.99027 -1.045,2.27643 0.5754,0.57534 6.9303,-6.16874 8.6178,-9.1456 1.9044,-3.35922 4.0606,0.23481 4.2674,7.11304 0.7221,24.01051 -4.4551,39.99932 -19.0549,58.84755 -2.4912,3.21615 -5.4897,7.26615 -6.6632,9 -2.9745,4.39477 -25.1673,25.87763 -29.1163,28.18483 -1.7875,1.04436 -3.25,2.25181 -3.25,2.68323 0,0.43141 -0.7521,0.78439 -1.6713,0.78439 -0.9192,0 -2.4837,0.73524 -3.4766,1.63387 -1.9986,1.80869 -8.6075,2.4403 -9.0628,0.86613 -0.1591,-0.55 1.538,-1.57852 3.7713,-2.2856 2.2333,-0.70707 6.2487,-3.29457 8.9232,-5.75 2.6745,-2.45542 5.2175,-4.4644 5.6512,-4.4644 1.0395,0 25.865,-25.03879 25.865,-26.08715 0,-0.44539 1.1246,-2.02328 2.4991,-3.50643 1.3746,-1.48314 3.1925,-4.09382 4.0399,-5.80152 1.2019,-2.42187 0.4871,-1.92723 -3.2491,2.24852 -8.522,9.52456 -24.1231,25.14658 -25.113,25.14658 -0.5296,0 -1.203,0.62552 -1.4963,1.39005 -0.5982,1.55877 -6.6806,4.89895 -6.6806,3.66867 0,-0.43339 4.1625,-5.0114 9.25,-10.17335 10.7832,-10.94097 19.9793,-21.41373 20.8881,-23.78781 0.351,-0.91685 1.3635,-2.26897 2.25,-3.00472 0.8866,-0.73575 1.6119,-1.90253 1.6119,-2.59284 0,-0.69031 0.6527,-1.7968 1.4504,-2.45886 2.5957,-2.15421 11.8898,-19.21455 14.1866,-26.04114 4.8215,-14.32992 4.6496,-21.70595 -0.3441,-14.76774 -4.893,6.79821 -18.49,20.26093 -22.0429,21.82512 -1.7875,0.78696 -3.25,1.91995 -3.25,2.51775 0,1.33738 -4.7597,3.99846 -5.6175,3.14066 -0.7465,-0.74643 2.0498,-3.71579 3.4992,-3.71579 0.5634,0 1.7999,-1.63404 2.7476,-3.63119 0.9477,-1.99716 3.0334,-5.03466 4.6349,-6.75 3.1838,-3.41007 12.7358,-17.09399 12.7358,-18.24491 0,-0.39403 0.7519,-1.54723 1.6708,-2.56267 1.2873,-1.42237 5.3292,-10.9204 5.3292,-12.52284 0,-0.77922 -2.5021,-0.0925 -6.2361,1.71161 -2.2768,1.1 -4.8943,2 -5.8169,2 -0.9225,0 -2.8214,0.9 -4.2199,2 -1.3984,1.1 -3.5271,2 -4.7305,2 -1.2034,0 -3.3824,0.61882 -4.8423,1.37514 -1.4599,0.75633 -4.0759,1.99383 -5.8133,2.75 -2.5277,1.10009 -17.4654,14.3973 -30.7736,27.39387 -2.9128,2.84464 -9.274,7.48099 -10.264,7.48099 -0.4566,0 -3.1484,1.56124 -5.9819,3.46943 -7.9165,5.33125 -10.5235,6.7377 -34.6014,18.66695 -3.179,1.57499 -6.2467,2.86362 -6.8172,2.86362 -0.5704,0 -2.5297,1.4625 -4.3538,3.25 -11.0829,10.86014 -27.9365,24.7646 -41.5093,34.24577 -6.5104,4.54777 -25.834,14.46442 -28.2308,14.48776 -0.93,0.009 -1.9309,0.40474 -2.2242,0.8793 -0.2933,0.47455 -2.6824,1.45746 -5.309,2.18424 -2.6267,0.72678 -6.5758,2.07785 -8.7758,3.00238 -2.2,0.92453 -4.9,2.02207 -6,2.43899 -3.0831,1.16856 2.6954,2.77214 9.2404,2.56431 4.3717,-0.13882 5.1414,0.0917 4.643,1.39042 -0.3285,0.85626 -1.0336,1.55683 -1.5668,1.55683 -0.5332,0 -4.1976,2.16163 -8.143,4.80362 -8.9185,5.97206 -21.7285,12.45365 -27.6736,14.00224 -15.422,4.01714 -37.1861,5.56412 -54.1851,3.85144 -6.4793,-0.6528 -11.8149,0.47764 -11.8149,2.50322 0,1.61095 -8.6566,0.82388 -12.7639,-1.16052 -2.2767,-1.1 -4.78,-2 -5.563,-2 -2.0718,0 -16.3874,-6.64614 -21.9231,-10.17794 -4.9131,-3.13459 -6.2042,-5.82206 -2.7971,-5.82206 2.3955,0 7.0471,2.03877 7.0471,3.08867 0,0.4222 2.465,1.68991 5.4778,2.81713 3.0128,1.12723 6.3878,2.50956 7.5,3.07185 1.1122,0.56229 2.9161,1.47235 4.0086,2.02235 2.4486,1.23262 3.0136,1.25183 3.0136,0.10242 0,-0.49367 -3.3984,-2.53253 -7.5519,-4.53079 -5.515,-2.65328 -8.0909,-4.5468 -9.5504,-7.02044 -1.0992,-1.86297 -3.1405,-4.13547 -4.5362,-5.05 -1.9608,-1.28473 -2.3997,-2.21282 -1.9306,-4.08199 0.4786,-1.90675 0.2148,-2.4192 -1.2451,-2.4192 -3.1956,0 -13.6414,2.24173 -14.6358,3.14095 -0.5225,0.47248 -1.7255,0.85905 -2.6733,0.85905 -4.6995,0 -11.797,9.7668 -13.8073,19 -2.8487,13.08374 -3.025,14.59898 -2.1368,18.37134 0.5013,2.12923 0.7005,4.42126 0.4426,5.09341 -0.258,0.67214 0.4961,4.55504 1.6756,8.62866 1.1796,4.07363 2.3794,8.42574 2.6663,9.67137 0.287,1.24563 0.918,2.50968 1.4023,2.80901 0.4843,0.29934 0.8806,1.404 0.8806,2.45481 0,1.05081 0.8274,3.38675 1.8387,5.19098 1.0112,1.80423 2.1077,4.40542 2.4366,5.78042 3.6,15.05036 11.7247,24.03415 11.7247,12.96444 0,-2.48746 0.3439,-3.04646 1.5818,-2.57143 0.87,0.33385 1.77,0.60699 2,0.60699 0.23,0 0.4187,0.5625 0.4194,1.25 0,2.73545 5.8254,7.73118 12.2642,10.52239 2.6555,1.15112 2.7407,1.09995 2.1416,-1.2868 -0.9179,-3.65729 0.9301,-3.13547 7.3148,2.06549 3.0728,2.5031 7.0376,5.15718 8.8105,5.89797 1.773,0.74079 3.53,1.8428 3.9046,2.44892 0.3746,0.60611 1.6896,1.10203 2.9221,1.10203 1.2326,0 2.6685,0.37175 3.191,0.82612 2.4697,2.14765 18.45,5.05288 18.45,3.35423 0,-0.51821 -2.025,-2.75462 -4.5,-4.96979 -7.3856,-6.61026 -5.4416,-7.28266 3.5,-1.21056 3.2396,2.2 6.2525,4.01001 6.6951,4.02224 0.4427,0.0122 1.9299,0.90222 3.3049,1.97776 1.375,1.07554 3.2875,1.96553 4.25,1.97776 0.9625,0.0122 1.75,0.47224 1.75,1.02224 0,1.29783 -3.305,1.29499 -4.604,-0.004 -0.6719,-0.67196 -2.3818,-0.33827 -5.1703,1.00901 -5.3907,2.60451 -17.2845,1.03788 -30.0775,-3.96174 -1.8434,-0.72045 -5.3547,-2.37493 -7.8029,-3.67661 -2.4995,-1.32901 -6.1692,-2.3667 -8.3697,-2.3667 -4.0045,0 -14.1682,-3.88453 -15.4066,-5.88836 -0.3779,-0.6114 -1.1426,-1.11164 -1.6994,-1.11164 -0.5569,0 -0.3053,0.70714 0.559,1.57143 0.8643,0.86428 1.5714,1.98928 1.5714,2.5 0,1.24811 -3.721,1.18904 -4.5,-0.0714 -0.3399,-0.55 -1.0415,-1 -1.559,-1 -1.6834,0 -0.9972,2.14477 1.7136,5.35564 1.4601,1.7294 3.3889,4.71936 4.2862,6.64436 2.4713,5.30117 8.1332,14.92773 9.1493,15.55566 1.3974,0.86366 3.0866,4.44434 2.0966,4.44434 -0.486,0 -3.4143,-2.5875 -6.5073,-5.75 z m 337.9755,-201.79313 c 0.9303,-2.42426 -0.3678,-2.86191 -1.6091,-0.54252 -0.7739,1.44619 -0.7892,2.08565 -0.05,2.08565 0.5866,0 1.333,-0.69441 1.6587,-1.54313 z m -643.8292,204.22868 c 1.1959,-1.27295 2.1743,-2.70002 2.1743,-3.17126 0,-0.47125 0.6103,-1.56724 1.3562,-2.43555 0.7459,-0.86831 3.0316,-4.72874 5.0793,-8.57874 2.0478,-3.85 4.8579,-8.49206 6.2448,-10.31568 2.4354,-3.20227 2.5142,-5.77886 0.103,-3.36765 -1.6751,1.67517 -4.7833,1.46941 -4.7833,-0.31667 0,-1.86032 -0.8745,-1.90271 -2.9213,-0.1416 -2.4656,2.12147 -7.9311,3.6416 -13.0931,3.6416 -3.2412,0 -5.5315,0.64153 -7.3241,2.05162 -1.4345,1.12839 -4.6173,2.73619 -7.0729,3.57289 -2.4556,0.8367 -4.9755,2.13673 -5.5998,2.88894 -0.6242,0.75222 -1.6906,1.15446 -2.3697,0.89388 -0.6791,-0.26059 -3.9523,0.16018 -7.2738,0.93504 -6.9822,1.62884 -12.3288,1.36787 -16.9554,-0.82759 -3.0155,-1.43095 -3.5207,-1.40771 -6.5781,0.30256 -5.04313,2.82104 -8.8118,3.54884 -8.8118,1.70171 0,-0.83548 0.76571,-1.51905 1.70159,-1.51905 2.39242,0 22.32931,-9.76847 25.04451,-12.27103 4.2732,-3.93863 3.6123,-0.66989 -0.7667,3.792 -2.6835,2.73429 -3.8278,4.51364 -2.9376,4.56789 4.6426,0.28291 11.5919,-0.36886 12.4082,-1.16378 0.5225,-0.50879 1.8725,-0.96584 3,-1.01566 1.1275,-0.0498 4.3,-1.37793 7.05,-2.95137 2.75,-1.57344 6.646,-3.77065 8.6578,-4.88269 2.0117,-1.11204 3.8117,-2.39059 4,-2.84122 1.0281,-2.46137 9.4202,-6.18285 8.4929,-3.76617 -0.9546,2.48753 1.0437,2.66954 4.9877,0.4543 3.6241,-2.03553 9.3125,-7.61846 9.3456,-9.17227 0.049,-2.31696 2.8055,-0.21457 3.5896,2.73822 1.8465,6.95279 7.6893,0.41243 12.0498,-13.48822 0.9488,-3.025 2.3218,-6.38763 3.0509,-7.47251 0.7291,-1.08487 1.3285,-2.65987 1.3319,-3.5 0,-0.84012 0.6783,-2.81643 1.5,-4.3918 0.8216,-1.57537 1.4938,-3.62287 1.4938,-4.55 0,-0.92713 0.3866,-2.11319 0.859,-2.63569 8.9506,-9.89819 -0.7318,-55.45 -11.7864,-55.45 -0.9199,0 -2.1641,-0.49154 -2.7649,-1.09231 -0.6008,-0.60077 -3.2783,-1.26592 -5.95,-1.4781 -2.6717,-0.21218 -6.3105,-0.54772 -8.0861,-0.74564 -2.8875,-0.32186 -3.1706,-0.1299 -2.6817,1.81833 0.3975,1.58371 -0.1369,2.62612 -1.9582,3.81944 -1.3776,0.90269 -3.0959,2.83979 -3.8183,4.30468 -1.164,2.36042 -11.3328,9.31654 -16.0634,10.98839 -0.9625,0.34016 -1.75,1.01031 -1.75,1.48923 0,0.47892 2.3625,-0.18855 5.25,-1.48325 12.5433,-5.62422 16.6743,-7.68921 17.252,-8.624 0.7397,-1.19686 6.498,-1.34848 6.498,-0.17108 0,1.16789 -3.9581,4.64327 -7.5,6.58524 -1.65,0.90468 -4.4921,2.5397 -6.3157,3.63337 -10.539,6.32044 -27.8521,10.00051 -32.1386,6.83139 -2.8539,-2.11001 -3.3479,-2.15567 -11.2652,-1.04137 -12.7689,1.79711 -35.82816,0.64676 -48.15061,-2.40209 -9.63493,-2.38389 -22.69623,-8.52196 -33.44557,-15.71753 -2.02638,-1.35645 -5.1396,-3.07882 -6.91828,-3.8275 -6.20743,-2.6128 -4.7754,-3.6908 5.9092,-4.4483 l 10.05425,-0.71281 -11.74345,-3.81342 c -6.4589,-2.09738 -13.70563,-4.73575 -16.10385,-5.86304 C 910.98397,630.92233 908.52537,630 907.91863,630 c -0.60675,0 -2.24734,-0.9 -3.64576,-2 -1.39842,-1.1 -3.3268,-2 -4.28528,-2 -0.95849,0 -2.32139,-0.69728 -3.02867,-1.5495 -0.70729,-0.85223 -3.12489,-2.44343 -5.37245,-3.536 -6.739,-3.27594 -25.73069,-17.4508 -33.99783,-25.37502 -10.56718,-10.12886 -16.34634,-14.74617 -21.3814,-17.08288 -10.80109,-5.01266 -23.71705,-11.5097 -28.70724,-14.44045 -2.75,-1.61507 -5.675,-3.2568 -6.5,-3.64828 -7.74582,-3.67553 -20.62806,-14.09117 -36.2701,-29.32535 -8.66357,-8.43766 -11.72977,-10.78981 -15.6766,-12.02583 -2.69858,-0.84511 -5.23953,-1.86959 -5.64657,-2.27663 C 742.9997,516.33303 742.03831,516 741.27032,516 c -0.76799,0 -4.18049,-1.28404 -7.58333,-2.85343 -10.16094,-4.68621 -11.94218,-5.29138 -12.86328,-4.37028 -0.95606,0.95606 7.38344,18.32081 9.73652,20.2737 0.79187,0.65719 1.43977,1.74505 1.43977,2.41747 0,0.67241 0.9,2.03705 2,3.03254 1.1,0.99549 2,2.31469 2,2.93156 0,0.61687 2.7,3.98558 6,7.48601 3.3,3.50044 6,6.93848 6,7.6401 0,0.70161 0.5625,1.47656 1.25,1.72209 0.6875,0.24554 0.91073,0.80981 0.49606,1.25394 -0.41467,0.44414 -1.79367,-0.16925 -3.06445,-1.36309 C 745.41083,552.97677 744.06774,552 743.69698,552 c -2.16994,0 -17.21611,-14.57884 -22.54433,-21.84411 -9.77223,-13.32488 -4.01126,13.67664 6.40578,30.02371 1.86471,2.92622 3.4019,5.8278 3.41597,6.44796 0.0141,0.62015 0.7618,1.73854 1.66161,2.48532 0.8998,0.74677 2.71284,2.93937 4.02898,4.87244 1.31613,1.93307 3.5145,5.05793 4.88526,6.94412 2.69163,3.70375 17.74695,20.27583 20.84149,22.94119 3.75372,3.23311 7.61737,7.45359 7.20287,7.86809 C 768.04983,613.2835 747,595.86284 747,593.0396 747,592.46782 746.325,592 745.5,592 c -0.825,0 -1.5,-0.48895 -1.5,-1.08655 0,-0.59761 -2.7,-3.89833 -6,-7.33493 -3.3,-3.43661 -6,-6.71756 -6,-7.29101 0,-0.57344 -0.6853,-1.61137 -1.52289,-2.30651 -1.66352,-1.3806 -1.33366,0.0958 1.05793,4.73508 2.26982,4.40308 28.81733,33.20434 30.65931,33.26213 0.38189,0.012 2.40689,1.63129 4.5,3.59846 3.6155,3.39796 9.08363,7.453 13.69864,10.15859 1.97708,1.15908 1.90566,1.23617 -1.15814,1.25 -4.40778,0.0199 -12.49519,-4.71169 -19.55383,-11.44009 C 756.48149,612.49533 753.63383,610 753.3529,610 752.33973,610 744,601.13159 744,600.0542 c 0,-0.60704 -1.13307,-1.53449 -2.51793,-2.06102 -1.38487,-0.52652 -2.91212,-1.97788 -3.3939,-3.22525 -0.48179,-1.24736 -2.04872,-3.35887 -3.48207,-4.69224 C 733.17274,588.74231 732,587.139 732,586.51278 c 0,-0.62623 -1.35,-2.43198 -3,-4.01278 -1.65,-1.5808 -3,-3.40989 -3,-4.06465 0,-0.65475 -0.62619,-1.71015 -1.39154,-2.34533 -8.28242,-6.87381 -17.75446,-48.04078 -13.30831,-57.84002 1.31624,-2.90096 6.47729,-0.2211 6.75518,3.50761 0.0854,1.14535 5.94467,5.52248 5.94467,4.44089 0,-0.52448 -0.58151,-1.43622 -1.29224,-2.02608 -1.2308,-1.02147 -4.61496,-7.88219 -8.27236,-16.77057 -1.16592,-2.83349 -3.13942,-5.04945 -6.39511,-7.18081 -16.86654,-11.04179 -44.63265,-35.42275 -54.79029,-48.11043 -8.72682,-10.90048 -6.21216,-11.32907 4.9236,-0.83916 14.02963,13.21594 31.81342,27.91981 37.8264,31.27537 1.925,1.07425 3.725,2.21986 4,2.5458 1.75139,2.07585 12.4982,8.6559 21.70032,13.28667 11.48768,5.78093 15.45288,7.56691 29.79968,13.42219 2.75,1.12234 7.6332,3.42615 10.85155,5.11957 3.21835,1.69342 6.74888,3.07895 7.84563,3.07895 1.09674,0 3.18855,0.80372 4.64845,1.78604 1.4599,0.98232 3.77937,2.26376 5.15437,2.84765 1.375,0.58389 5.01996,2.25518 8.09991,3.71396 3.07996,1.45879 6.06235,2.65235 6.62756,2.65235 0.5652,0 1.58784,0.675 2.27253,1.5 0.68469,0.825 1.89693,1.5 2.69387,1.5 0.79694,0 2.17885,0.72987 3.07091,1.62192 1.83131,1.83131 -4.25409,1.11918 -6.21478,-0.72727 C 796.0275,534.40259 794.6107,534 793.40155,534 c -1.20915,0 -4.78405,-1.3601 -7.94422,-3.02245 -5.90637,-3.10693 -7.79939,-3.1668 -5.67772,-0.17959 0.66488,0.93612 2.47655,3.82057 4.02594,6.40988 2.7404,4.57971 11.04963,12.79216 12.94291,12.79216 0.51786,0 1.75605,0.9 2.75154,2 0.99549,1.1 2.23747,2 2.75996,2 0.5225,0 2.81525,1.2375 5.09502,2.75 3.73233,2.47621 14.99177,8.1937 20.14502,10.22956 1.1,0.43457 4.925,2.12667 8.5,3.76023 3.575,1.63355 8.075,3.5575 10,4.27543 1.925,0.71793 3.9275,1.68321 4.45,2.14506 0.5225,0.46184 1.95844,0.83972 3.19098,0.83972 1.23254,0 2.5191,0.45 2.85902,1 0.33992,0.55 1.3494,1 2.24329,1 0.89389,0 3.45484,0.83573 5.69099,1.85717 2.23614,1.02144 6.09072,2.4525 8.56572,3.18012 2.475,0.72763 4.95,1.63537 5.5,2.0172 1.03704,0.71996 5.2814,1.66144 11.75627,2.60778 2.06595,0.30195 4.005,0.95146 4.30901,1.44336 0.30402,0.4919 2.4387,0.90115 4.74374,0.90943 4.13606,0.0149 10.9272,1.8729 12.42231,3.39872 0.42277,0.43146 -1.93133,0.53214 -5.23133,0.22375 -3.3,-0.3084 -10.5,-0.79804 -16,-1.08809 -5.5,-0.29006 -10.90374,-0.73862 -12.00831,-0.9968 -3.46268,-0.80937 -5.37521,1.07108 -2.99075,2.94059 6.14498,4.81788 16.10743,11.50677 17.13824,11.50677 0.65678,0 1.34415,0.38274 1.52749,0.85054 0.30754,0.78472 6.61313,5.07777 11.33333,7.71608 1.1,0.61484 4.025,2.31547 6.5,3.77918 12.14058,7.17993 22.14379,10.65298 34.98798,12.14761 3.01839,0.35124 6.9347,1.32513 8.70292,2.1642 1.76821,0.83907 5.14862,2.09588 7.51202,2.7929 6.79697,2.00458 6.16336,4.19973 -1.40265,4.85945 -3.46515,0.30215 -8.55027,1.07281 -11.30027,1.71257 -2.75,0.63977 -5.5625,1.19642 -6.25,1.23701 -3.30625,0.19519 1.49538,4.15579 9.25,7.62982 1.65,0.73919 3.78139,1.74148 4.73643,2.22731 0.95504,0.48583 2.56754,0.88333 3.58333,0.88333 1.0158,0 2.18441,0.3375 2.59691,0.75 0.4125,0.4125 1.05,0.77541 1.41666,0.80646 0.36667,0.031 2.01667,0.3608 3.66667,0.73277 3.48838,0.78643 5.74167,1.12942 18.15893,2.76415 6.86736,0.90408 9.96966,0.92314 12.39927,0.0762 1.7821,-0.62126 4.6036,-1.12957 6.27,-1.12957 1.6664,0 4.4118,-0.41951 6.1008,-0.93224 1.6891,-0.51273 5.096,-1.49658 7.571,-2.18634 2.475,-0.68975 5.8442,-2.18274 7.4872,-3.31776 6.3869,-4.41228 14.5128,-6.99927 14.5128,-4.62036 0,0.51881 -0.9854,1.63346 -2.1897,2.477 -2.8149,1.97165 -1.5882,3.25518 1.6855,1.76358 1.3933,-0.63486 2.5042,-1.98389 2.5042,-3.04112 0,-1.98574 1.5373,-2.80285 10.75,-5.71401 4.402,-1.391 5.25,-2.04417 5.25,-4.04385 0,-2.50478 18.9603,-3.87618 20.4421,-1.47858 0.3081,0.49847 2.8748,1.22467 5.7039,1.61376 7.4919,1.0304 12.6224,6.94062 17.7452,20.4422 2.9998,7.9061 2.2317,39.60768 -1.0082,41.61002 -0.4856,0.30015 -0.883,1.79932 -0.883,3.33149 0,4.52952 -3.3101,13.16863 -7.5084,19.59621 -4.3762,6.69994 -5.4403,8.54286 -9.5981,16.6237 -1.5914,3.09304 -2.8935,6.06657 -2.8935,6.60785 0,4.11205 -11.1852,20.9616 -17.9107,26.9809 -4.2439,3.79837 -7.6476,4.57519 -4.2636,0.9731 z M 986,763.91667 c 0,-1.24445 -0.50333,-1.89878 -1.25,-1.625 -0.6875,0.25208 -1.1375,0.96458 -1,1.58333 0.32774,1.47484 -0.69253,1.37281 -3.75,-0.375 -1.7921,-1.02446 -6.06311,-1.43916 -15.08333,-1.46456 -6.92084,-0.0195 -12.88659,-0.33869 -13.25724,-0.70934 -0.37064,-0.37064 -1.68314,-0.79279 -2.91666,-0.93811 -4.98983,-0.58783 -14.3051,-2.67879 -15.24277,-3.42148 -1.29435,-1.02521 -9.01791,0.3885 -10.96898,2.00775 -4.36333,3.62124 -5.97738,-2.3892 -2.03102,-7.56315 1.375,-1.80272 2.5,-3.45882 2.5,-3.68023 0,-0.85688 -16.52188,0.45735 -17.6638,1.40506 -0.80914,0.67153 -1.84259,0.66341 -3.12807,-0.0245 -1.05585,-0.56508 -3.17297,-0.9338 -4.70471,-0.8194 -1.53175,0.11441 -2.98414,-0.35449 -3.22754,-1.04199 -0.4119,-1.16344 6.31919,-1.88623 12.03375,-1.29219 0.99529,0.10346 2.43808,-0.33346 3.20619,-0.97094 0.76811,-0.63748 1.82852,-0.89209 2.35646,-0.56581 0.52794,0.32629 2.23515,0.10007 3.7938,-0.50271 1.55866,-0.60277 3.73392,-1.2734 4.83392,-1.49028 6.61491,-1.30424 8.14956,-1.77929 9.5,-2.94072 0.825,-0.70954 3.525,-1.86325 6,-2.56379 2.475,-0.70055 5.07337,-1.70906 5.77417,-2.24114 0.70079,-0.53208 1.60079,-0.62593 2,-0.20856 0.3992,0.41737 -0.60398,1.719 -2.22929,2.8925 -3.50932,2.53378 -16.9002,14.75675 -17.37821,15.86253 -0.65008,1.50385 50.93794,1.32068 53.76232,-0.19089 1.06674,-0.5709 2.79998,-1.038 3.85164,-1.038 5.41231,0 40.08647,-22.42022 42.05267,-27.1912 0.5733,-1.3909 2.1667,-0.88257 2.1667,0.6912 0,0.825 -0.4197,1.5 -0.9326,1.5 -0.5129,0 -1.2033,0.85286 -1.5342,1.89525 -0.7495,2.36165 -8.9079,11.20438 -13.364,14.4851 -1.832,1.34872 -4.1299,3.9524 -5.1066,5.78594 -0.9766,1.83354 -2.8011,3.85551 -4.0543,4.49327 -1.25315,0.63776 -2.65128,1.76276 -3.10692,2.5 -0.45564,0.73724 -1.18234,1.37255 -1.61491,1.4118 -0.43256,0.0392 -1.91147,0.56514 -3.28647,1.16864 -1.375,0.60351 -3.4,1.38916 -4.5,1.74589 -1.8576,0.60243 -1.8754,0.71856 -0.25,1.63105 2.37928,1.33571 2.21527,3.88306 -0.25,3.88306 -1.36,0 -2,-0.66667 -2,-2.08333 z M 1440,765 c 0,-0.55 -1.35,-1 -3,-1 -1.65,0 -3,-0.45 -3,-1 0,-0.55 0.6382,-1 1.4182,-1 0.78,0 2.13,-0.27314 3,-0.60699 1.038,-0.39831 1.5818,-0.0545 1.5818,1 0,0.94032 0.8297,1.60699 2,1.60699 1.1,0 2,-0.41968 2,-0.93261 0,-0.51294 -0.9,-1.21826 -2,-1.56739 -1.1,-0.34913 -2,-1.04137 -2,-1.53833 0,-0.49695 -1.7311,-1.70413 -3.8468,-2.68261 -3.8005,-1.75765 -11.1532,-7.60572 -11.1532,-8.87083 0,-0.80485 -10.2482,-10.3443 -11.1528,-10.38143 -0.359,-0.0147 -2.2824,-2.48198 -4.2742,-5.48275 -1.9918,-3.00077 -4.0605,-5.72733 -4.5972,-6.05902 -1.2024,-0.74308 -1.2877,-2.48503 -0.1218,-2.48503 0.4697,0 1.9573,1.0125 3.3058,2.25 22.3899,20.54696 38.6973,28.00225 61.2656,28.00899 28.782,0.009 37.5746,-0.27506 37.5746,-1.21218 0,-0.92254 -10.0332,-9.86488 -16.9691,-15.12407 -4.9448,-3.74946 -2.4302,-4.22311 4.4664,-0.84129 3.2735,1.6052 6.3056,2.91855 6.7381,2.91855 0.4325,0 2.694,0.85795 5.0255,1.90655 7.1158,3.20038 37.0951,5.43079 41.6453,3.09834 0.8766,-0.44935 4.5188,-1.59096 8.0938,-2.53691 3.575,-0.94595 7.85,-2.30352 9.5,-3.01683 1.65,-0.71331 4.2375,-1.60541 5.75,-1.98244 1.5125,-0.37704 2.75,-1.08674 2.75,-1.57712 0,-0.49037 0.8449,-0.89159 1.8776,-0.89159 1.0326,0 2.4377,-0.675 3.1224,-1.5 0.6847,-0.825 2.0291,-1.5 2.9876,-1.5 0.9585,0 2.8868,-0.9 4.2853,-2 1.3984,-1.1 2.979,-2 3.5124,-2 0.5334,0 1.5223,-0.66566 2.1975,-1.47925 1.243,-1.4978 6.6664,-4.52075 8.1105,-4.52075 0.4323,0 5.1106,-2.69705 10.3962,-5.99345 5.2856,-3.2964 10.6563,-6.25602 11.9349,-6.57692 2.0984,-0.52668 4.5756,-4.03306 4.5756,-6.47668 0,-0.52412 -1.4625,-0.96726 -3.25,-0.98475 -3.4629,-0.0339 -7.6052,-2.44629 -6.3522,-3.69935 3.0246,-3.02462 24.4958,0.95996 23.2113,4.30749 -0.335,0.87298 -0.6091,1.99689 -0.6091,2.49758 0,0.50069 -1.4852,1.70138 -3.3004,2.66821 -4.6123,2.45659 -9.1488,5.21704 -14.8034,9.00787 -2.6664,1.7875 -5.0859,3.25 -5.3766,3.25 -0.2908,0 -3.3391,1.94948 -6.7741,4.33218 -3.435,2.3827 -7.708,4.96755 -9.4955,5.74411 -1.7875,0.77656 -3.25,1.86723 -3.25,2.42371 0,0.55648 -1.4625,1.6011 -3.25,2.32138 -1.7875,0.72029 -4.0314,1.73014 -4.9864,2.24412 -0.9551,0.51397 -2.616,0.9345 -3.691,0.9345 -1.075,0 -2.2327,0.45 -2.5726,1 -0.3399,0.55 -1.9845,1 -3.6547,1 -1.6702,0 -4.2311,0.65246 -5.691,1.4499 -9.0754,4.95744 -53.6876,9.42872 -59.3232,5.94571 -4.3382,-2.68117 -6.719,-0.51563 -3.7895,3.44681 3.2641,4.41492 2.3632,7.73153 -2.0032,7.37516 -1.9033,-0.15534 -3.8018,-0.83034 -4.2189,-1.5 -0.5924,-0.95097 -1.212,-0.93645 -2.8297,0.0663 -1.1391,0.70613 -2.3989,1.0813 -2.7995,0.83372 -0.4006,-0.24759 -4.7698,0.46717 -9.7093,1.58835 -5.8224,1.32157 -13.4806,2.14116 -21.7751,2.3304 -8.0938,0.18466 -13.3268,0.73404 -14.2442,1.49545 -0.7976,0.66195 -2.5778,0.988 -3.956,0.72455 -1.6818,-0.3215 -2.5057,-0.0314 -2.5057,0.88232 0,0.84592 -1.1358,1.36133 -3,1.36133 -1.65,0 -3,-0.45 -3,-1 z M 884,747.05902 c 0,-1.59412 1.6566,-2.0777 4.89729,-1.42956 C 893.30548,746.5111 892.7419,748 888,748 c -2.2,0 -4,-0.42344 -4,-0.94098 z m -8.5,-0.709 c -1.1,-0.24921 -2.9,-0.85135 -4,-1.33808 -1.1,-0.48673 -4.7,-1.36549 -8,-1.9528 -3.3,-0.58731 -6.9,-1.22891 -8,-1.42578 -3.37672,-0.60434 -12.57708,-5.22295 -11.85086,-5.94917 C 844.02545,735.30789 843.19054,735 841.79378,735 838.70167,735 830,731.27638 830,729.95321 830,729.42894 829.1,729 828,729 c -1.1,0 -2,-0.40555 -2,-0.90122 0,-0.76871 -5.5467,-4.7044 -8.41591,-5.97155 -0.50375,-0.22248 -4.51916,-2.80274 -8.92314,-5.73392 -4.40397,-2.93118 -10.40325,-6.5813 -13.33171,-8.11137 -9.99208,-5.22067 -5.63128,-10.19772 9.20012,-10.50023 4.08873,-0.0834 7.71235,0.12667 8.05248,0.4668 1.09186,1.09185 -0.63088,2.75049 -2.89086,2.78329 -8.03698,0.11666 -6.88342,4.74446 2.46058,9.87116 3.6058,1.97837 8.14177,4.81547 10.07994,6.30466 1.93817,1.4892 5.94146,3.81548 8.89622,5.16953 2.95475,1.35405 6.94728,3.52809 8.87228,4.83121 5.15036,3.48651 22.60879,11.79164 24.7875,11.79164 1.03354,0 2.17778,0.29861 2.54275,0.66358 1.04344,1.04344 10.88853,4.33642 12.9647,4.33642 1.05026,0 1.69105,0.5486 1.46006,1.25 -0.44653,1.35585 -3.08089,1.81914 -6.25501,1.10002 z m 168.5,-8.291 c 0,-1.83045 1.6691,-3.72324 2.5269,-2.86549 0.6868,0.68687 -0.7218,4.80647 -1.6435,4.80647 -0.4859,0 -0.8834,-0.87344 -0.8834,-1.94098 z m 340,-3.61804 c 0,-0.85746 0.45,-1.2809 1,-0.94098 0.55,0.33992 1,1.04148 1,1.55902 0,0.51754 -0.45,0.94098 -1,0.94098 -0.55,0 -1,-0.70156 -1,-1.55902 z m -2,-10.71843 c 0,-3.70712 2.0348,-8.72255 3.5388,-8.72255 1.8947,0 2.8196,1.86242 1.6358,3.2938 -0.5487,0.66341 -1.1499,2.55235 -1.3361,4.19765 -0.4323,3.82021 -3.8385,4.91267 -3.8385,1.2311 z m -336.3333,0.61078 C 1045.3,723.96667 1045,722.42917 1045,720.91667 c 0,-1.5125 -0.5625,-2.95625 -1.25,-3.20834 -0.9776,-0.35846 -0.9869,-0.73782 -0.042,-1.74095 1.991,-2.11468 4.2924,0.64919 4.2924,5.15506 0,3.64448 -0.7995,4.7447 -2.3333,3.21089 z M 814.5,707 c -2.46694,-1.06008 -2.76818,-0.99364 7.4467,-1.64244 7.64019,-0.48527 8.32074,-0.38473 7.12755,1.05297 C 827.62023,708.16252 818.10128,708.54752 814.5,707 Z m 785.5,-0.12142 c 0,-1.1792 3.6725,-1.80429 9.2497,-1.57438 3.1028,0.12791 4.7499,0.64179 4.75,1.48198 2e-4,0.9426 -1.8697,1.239 -6.9997,1.10953 -3.85,-0.0972 -7,-0.55487 -7,-1.01713 z M 1618,707 c 0,-0.55 0.9,-1 2,-1 1.1,0 2,0.45 2,1 0,0.55 -0.9,1 -2,1 -1.1,0 -2,-0.45 -2,-1 z M 817.5,697 c -0.33992,-0.55 -3.12889,-1 -6.19772,-1 C 797.35444,696 758,666.60067 758,656.18108 c 0,-0.5149 -0.74813,-1.55379 -1.66252,-2.30864 -0.91438,-0.75484 -2.48414,-3.22549 -3.48835,-5.49033 -1.00422,-2.26484 -2.50608,-4.68244 -3.33749,-5.37245 -0.8314,-0.69 -1.51164,-1.80367 -1.51164,-2.47482 0,-0.67115 -1.09305,-3.20355 -2.429,-5.62756 -9.99024,-18.12668 -17.25693,-36.55468 -15.21841,-38.5932 2.10158,-2.10158 10.15255,4.2668 13.50058,10.67905 1.29425,2.47878 3.56586,6.08187 5.04802,8.00687 6.57893,8.54454 7.45389,10.1621 5.99053,11.07493 -0.9743,0.60775 -1.09179,1.27354 -0.39172,2.21977 0.55,0.7434 2.42335,3.48258 4.163,6.08706 1.73965,2.60449 4.43965,5.9907 6,7.52493 1.56035,1.53422 3.33318,3.64536 3.93962,4.6914 1.48254,2.55721 17.57186,15.52739 22.19949,17.8958 2.03384,1.04091 5.04789,2.84382 6.69789,4.00646 1.65,1.16264 5.25,2.91064 8,3.88444 2.75,0.9738 5.9,2.13047 7,2.57038 6.83557,2.73367 13.88617,3.53137 29.25,3.30933 15.37775,-0.22224 17.92683,0.19518 15,2.4563 -2.26199,1.7475 -27.60206,1.5205 -33.75,-0.30234 -3.025,-0.89689 -7.075,-1.84514 -9,-2.10722 -1.925,-0.26207 -6.12631,-1.78931 -9.33623,-3.39387 C 801.45384,673.31282 798.24907,672 797.54207,672 793.36866,672 764,649.30007 764,646.07431 c 0,-0.39912 -1.14547,-1.8018 -2.54549,-3.11705 -1.40003,-1.31525 -3.76253,-4.31789 -5.25,-6.67253 -1.48748,-2.35463 -3.04201,-4.28196 -3.45451,-4.28294 C 752.3375,632.0008 752,631.325 752,630.5 c 0,-0.825 -0.45,-1.5 -1,-1.5 -1.4425,0 -1.31864,0.37157 2,6 1.65,2.79841 3,5.31716 3,5.59722 0,0.28007 2.1375,3.68743 4.75,7.57192 2.6125,3.88449 5.425,8.06642 6.25,9.29318 0.825,1.22676 3.75,4.571 6.5,7.43166 2.75,2.86065 5.15,5.62978 5.33333,6.15361 0.18334,0.52382 0.78573,0.95241 1.33865,0.95241 0.55292,0 3.3202,2.025 6.14949,4.5 2.8293,2.475 5.65931,4.5 6.28891,4.5 0.6296,0 1.64849,0.60699 2.2642,1.34887 1.13678,1.36974 11.07064,6.48028 16.72897,8.60633 3.02433,1.13635 9.40451,1.59762 12.37271,0.8945 0.90437,-0.21423 1.60916,0.5213 1.81934,1.89869 0.47425,3.10799 -6.65686,5.90315 -8.2956,3.25161 z m 792.665,0.0463 c -3.8924,-0.63155 -6.1064,-2.1783 -6.1497,-4.29631 -0.018,-0.88738 -0.2607,-0.8547 7.9847,-1.07574 10.9801,-0.29437 32.0299,-12.23895 43.5685,-24.72273 2.1623,-2.33944 4.644,-5.01059 5.5149,-5.93589 5.7513,-6.11089 18.9788,-28.28681 17.6595,-29.60612 -0.2884,-0.28834 -3.0079,2.98907 -6.0434,7.28312 C 1667.5856,645.92666 1652.256,662 1650.4706,662 c -0.43,0 -2.1743,1.05556 -3.8762,2.34569 -1.7019,1.29013 -4.8944,3.16558 -7.0944,4.16765 -2.2,1.00208 -4.675,2.38789 -5.5,3.07958 -1.6285,1.36536 -16.021,6.42105 -18.1763,6.38484 -2.2789,-0.0383 3.5549,-3.93209 5.9263,-3.95552 1.2375,-0.0122 2.25,-0.38184 2.25,-0.82135 0,-0.43951 1.6875,-1.39322 3.75,-2.11936 15.3187,-5.39319 52.971,-39.86979 49.5635,-45.38322 -0.3099,-0.50151 -0.9052,-0.35894 -1.3228,0.31681 -0.4177,0.67576 -1.2352,1.0613 -1.8168,0.85676 -0.5816,-0.20453 1.2012,-3.07188 3.9616,-6.37188 2.7605,-3.3 5.4258,-6.9 5.9229,-8 2.248,-4.97449 6.6629,-11.52927 8.9826,-13.3366 9.2152,-7.1798 9.3256,4.50816 0.1967,20.8366 -1.9987,3.575 -5.3899,9.98876 -7.5359,14.2528 -2.146,4.26404 -4.3068,8.0031 -4.8018,8.30902 -0.495,0.30592 -0.9,1.16538 -0.9,1.90991 0,1.48425 -5.9538,11.08569 -8.4408,13.61216 -0.8576,0.87114 -1.5592,2.02445 -1.5592,2.56291 0,0.53846 -1.35,2.2724 -3,3.8532 -1.65,1.5808 -3,3.41263 -3,4.07073 0,1.08469 -1.4509,2.50007 -10.6412,10.38062 -5.1821,4.44358 -11.363,9.04865 -12.1449,9.04865 -0.4229,0 -1.8815,0.78606 -3.2414,1.7468 -3.1888,2.25288 -14.684,6.194 -18.1635,6.22738 -1.48,0.0142 -2.9691,0.47582 -3.309,1.02582 -0.3399,0.55 -0.929,0.94368 -1.309,0.87483 -0.3801,-0.0688 -2.6418,-0.44167 -5.026,-0.82852 z M 1581.5,681 c -0.3399,-0.55 -1.604,-1.01368 -2.809,-1.03041 -2.0163,-0.028 -2.0466,-0.11438 -0.3803,-1.08368 0.9959,-0.5793 2.5709,-0.70994 3.5,-0.29031 3.7808,1.70759 25.2334,0.26575 27.9635,-1.87943 1.6065,-1.26233 2.6592,-0.28802 1.8807,1.7407 -0.3499,0.91192 -1.808,1.54313 -3.5645,1.54313 -1.6348,0 -3.2505,0.45 -3.5904,1 -0.3508,0.56754 -5.324,1 -11.5,1 -6.176,0 -11.1492,-0.43246 -11.5,-1 z m -563.2043,-78.62617 c 0.7488,-7.21988 4.0931,-19.04699 7.4575,-26.37383 0.8839,-1.925 1.5348,-3.81142 1.4463,-4.19205 -0.4293,-1.84675 12.1255,-19.15529 14.6936,-20.25724 3.5278,-1.51375 2.7776,0.67465 -2.8966,8.44929 -5.326,7.29764 -12.9668,23.06905 -13.0187,26.87212 -0.012,0.89534 -0.9023,2.75288 -1.9778,4.12788 -1.1205,1.43245 -1.965,4.07613 -1.9778,6.19098 -0.012,2.03004 -0.4722,3.9691 -1.0222,4.30902 -0.55,0.33992 -1,1.46492 -1,2.5 0,1.03508 -0.4972,2.18925 -1.1049,2.56481 -0.773,0.47776 -0.953,-0.78098 -0.5994,-4.19098 z m -13.4433,2.68344 c -0.6335,-1.90046 1.247,-8.40593 4.4606,-15.4317 1.4778,-3.23094 2.687,-6.43207 2.687,-7.11364 0,-0.68156 1.0678,-2.31307 2.3728,-3.62557 1.305,-1.3125 3.2175,-3.96593 4.25,-5.89651 2.6929,-5.03544 10.8085,-15.19588 11.1999,-14.02183 0.1818,0.54541 -0.9942,2.91323 -2.6133,5.26182 -3.0154,4.37392 -7.6119,11.93185 -10.1147,16.6314 -0.7729,1.45132 -1.7854,2.78876 -2.25,2.97209 -0.4646,0.18334 -0.8547,1.30834 -0.8669,2.5 -0.012,1.19167 -0.9023,3.29167 -1.9778,4.66667 -1.0755,1.375 -1.9655,3.06861 -1.9778,3.76357 -0.012,0.69496 -0.4183,2.04496 -0.9023,3 -0.4841,0.95504 -1.5386,3.29782 -2.3434,5.20617 -0.8704,2.06384 -1.65,2.90969 -1.9241,2.08753 z m 405.5675,-1.74389 c -0.3112,-0.99736 -0.983,-2.59477 -1.4929,-3.54981 C 1408.4172,598.80853 1408,597.11493 1408,596 c 0,-1.11493 -0.4061,-2.80853 -0.9025,-3.76357 -0.4964,-0.95504 -1.437,-3.76143 -2.0902,-6.23643 -1.2872,-4.87726 -9.1239,-21.41984 -11.8345,-24.98152 -0.92,-1.20891 -2.7413,-3.52663 -4.0472,-5.15049 -2.4268,-3.01753 -2.3719,-4.72039 0.1035,-3.20965 7.3646,4.49474 20.7058,28.52823 20.7563,37.39166 0.01,1.4025 0.4098,2.9775 0.8928,3.5 1.2453,1.34729 2.0584,10.37115 0.9937,11.02918 -0.4873,0.30117 -1.1407,-0.26844 -1.452,-1.2658 z m 12.6491,-2.94527 c -0.7522,-2.54754 -2.369,-6.51512 -3.5928,-8.81685 -1.2238,-2.30173 -2.5603,-5.27987 -2.97,-6.61811 -0.4097,-1.33823 -2.5119,-5.04599 -4.6717,-8.23947 -2.1597,-3.19348 -4.3449,-6.90598 -4.8559,-8.25 -0.511,-1.34402 -1.3378,-2.44368 -1.8372,-2.44368 -0.4995,0 -1.1859,-0.7875 -1.5254,-1.75 -0.3395,-0.9625 -0.8795,-2.3125 -1.2,-3 -0.3205,-0.6875 -0.095,-1.25 0.5007,-1.25 0.5958,0 1.0983,0.5625 1.1166,1.25 0.044,1.66889 3.5059,5.75 4.877,5.75 0.5993,0 1.0897,0.45894 1.0897,1.01987 0,0.56093 1.226,2.92343 2.7244,5.25 1.4984,2.32657 3.2252,5.13013 3.8373,6.23013 4.2116,7.56825 5.441,10.15397 5.4605,11.48519 0.012,0.83315 0.9023,2.63981 1.9778,4.01481 1.909,2.44056 2.83,10 1.2183,10 -0.4299,0 -1.3971,-2.08435 -2.1493,-4.63189 z m 16.181,-17.92676 C 1437.7774,580.84282 1437.6542,580 1438.893,580 c 0.8531,0 2.4505,3.00885 1.8805,3.54227 -0.1504,0.14081 -0.836,-0.35461 -1.5235,-1.10092 z M 990.5,582 c 0.33992,-0.55 0.81648,-1 1.05902,-1 0.24254,0 0.44098,0.45 0.44098,1 0,0.55 -0.47656,1 -1.05902,1 -0.58246,0 -0.7809,-0.45 -0.44098,-1 z m 1.6875,-4.0625 c 0.24063,-0.72187 1.02813,-1.50937 1.75,-1.75 0.75,-0.25 1.125,0.125 0.875,0.875 -0.24063,0.72187 -1.02813,1.50937 -1.75,1.75 -0.75,0.25 -1.125,-0.125 -0.875,-0.875 z M 1435.2,576.8 c -0.66,-0.66 -1.2,-1.785 -1.2,-2.5 0,-0.715 -0.45,-1.3 -1,-1.3 -0.55,0 -1,-0.44611 -1,-0.99135 0,-1.62671 -13.0731,-18.12032 -19.2348,-24.26735 -1.5208,-1.51728 -2.7652,-3.20478 -2.7652,-3.75 0,-1.54787 1.9969,-1.16284 2.6384,0.5087 0.3166,0.825 1.0899,1.53073 1.7186,1.56829 0.6286,0.0375 3.393,2.75362 6.143,6.03569 2.75,3.28208 5.5293,6.56103 6.1763,7.28656 6.1094,6.85145 13.9212,22.807 8.5237,17.40946 z M 995,573.62244 c 0,-0.75765 0.675,-1.93775 1.5,-2.62244 0.825,-0.68469 1.5,-1.86479 1.5,-2.62244 0,-0.75766 0.4645,-1.37756 1.03222,-1.37756 0.56773,0 1.35518,-0.84914 1.74998,-1.88699 0.6553,-1.72276 5.253,-7.55124 10.9678,-13.90392 1.2375,-1.37562 2.25,-2.88543 2.25,-3.35511 0,-0.46969 0.6891,-0.85398 1.5314,-0.85398 0.8422,0 1.8219,-0.7875 2.177,-1.75 0.8237,-2.23249 2.2751,-3.21539 4.7763,-3.23469 1.5142,-0.0117 0.5658,1.3644 -4,5.80375 -7.0162,6.82196 -10.5529,10.93717 -13.5054,15.71436 -1.1783,1.90662 -2.4833,3.46658 -2.9,3.46658 -0.4166,0 -1.6174,1.79484 -2.66842,3.98853 C 997.55089,574.87084 995,576.39408 995,573.62244 Z M 1676,559 c 0,-0.55 0.45,-1 1,-1 0.55,0 1,0.45 1,1 0,0.55 -0.45,1 -1,1 -0.55,0 -1,-0.45 -1,-1 z m -213.5,-4 c -0.3399,-0.55 -0.1415,-1 0.441,-1 0.5824,0 1.059,0.45 1.059,1 0,0.55 -0.1984,1 -0.441,1 -0.2425,0 -0.7191,-0.45 -1.059,-1 z M 968,553.06739 c 0,-0.51294 0.9,-1.21826 2,-1.56739 1.1,-0.34913 2,-1.27945 2,-2.06739 0,-0.78793 0.52475,-1.43261 1.16611,-1.43261 0.64136,0 1.87886,-0.68497 2.75,-1.52214 6.40055,-6.15105 11.08389,-8.98208 11.08389,-6.7001 0,0.90675 -2.10954,2.77628 -7,6.20357 -1.925,1.34907 -4.09464,3.03016 -4.82143,3.73576 -0.72678,0.7056 -1.73928,1.28291 -2.25,1.28291 -0.51071,0 -0.92857,0.675 -0.92857,1.5 0,0.83333 -0.88889,1.5 -2,1.5 -1.1,0 -2,-0.41968 -2,-0.93261 z M 1457.3616,550.5 c -0.3166,-0.825 -1.0945,-1.5 -1.7288,-1.5 -0.6343,0 -2.3549,-1.11423 -3.8236,-2.47606 -2.8613,-2.65315 -10.1877,-7.24477 -13.0592,-8.1845 -0.9625,-0.31499 -1.75,-0.94366 -1.75,-1.39705 0,-1.63532 1.7437,-1.84932 3.6027,-0.44216 1.0435,0.78989 2.6367,1.45047 3.5403,1.46797 0.9037,0.0175 1.9066,0.71869 2.2288,1.55823 0.3221,0.83954 2.6203,2.39855 5.107,3.46446 2.4866,1.06592 4.5212,2.49962 4.5212,3.18601 0,0.68638 1.2375,2.26119 2.75,3.49957 2.2141,1.81287 2.4029,2.25861 0.9686,2.28757 -0.9797,0.0198 -2.0404,-0.63904 -2.357,-1.46404 z m 12.9274,-9.29149 c -0.984,-0.98531 -3.6963,-2.67281 -6.0275,-3.75 -2.3312,-1.07718 -4.2437,-2.29601 -4.25,-2.70851 -0.021,-1.34206 3.418,-0.64878 6.4885,1.30824 1.65,1.05164 4.0125,2.35761 5.25,2.90216 1.2375,0.54455 2.25,1.67624 2.25,2.51485 0,2.03601 -1.5207,1.9267 -3.711,-0.26674 z M 956,541.11663 c 0,-0.48585 0.7875,-1.15761 1.75,-1.49279 0.9625,-0.33518 3.775,-1.72499 6.25,-3.08846 4.93793,-2.72029 6,-3.004 6,-1.60277 0,0.51294 -0.89734,1.21742 -1.99408,1.56551 -1.09674,0.34809 -2.57665,1.16592 -3.28867,1.81739 C 961.32637,541.41802 956,543.12954 956,541.11663 Z m 449.5427,-0.0475 c -1.0019,-1.62117 1.1753,-2.11382 2.4664,-0.55809 1.0048,1.21067 0.9436,1.48899 -0.3276,1.48899 -0.8599,0 -1.8224,-0.41891 -2.1388,-0.9309 z M 1024,539.53518 c 0,-0.86851 0.8685,-1.53518 2,-1.53518 1.1,0 2,0.20917 2,0.46482 0,0.25565 -0.9,0.94648 -2,1.53518 -1.5963,0.85431 -2,0.76049 -2,-0.46482 z M 991.5,536 c 1.68358,-1.86033 5.5,-2.8042 5.5,-1.36024 0,1.1618 -3.46579,3.29606 -5.40499,3.32844 -1.84169,0.0307 -1.84485,-0.0347 -0.095,-1.9682 z m 500,-2.41943 c -5.1566,-2.36154 -6.9402,-2.89551 -8.8605,-2.65267 -1.167,0.14757 -1.6953,-0.26108 -1.4172,-1.09632 0.719,-2.15915 3.5345,-2.12773 8.1169,0.0906 2.3607,1.14281 4.8252,2.07784 5.4765,2.07784 0.6514,0 1.1843,0.675 1.1843,1.5 0,1.83143 -0.6514,1.8431 -4.5,0.0806 z M 937.14153,532.14499 C 937.87829,530.96524 939.40785,530 940.54055,530 c 1.1327,0 2.54223,-0.48278 3.13229,-1.07284 1.59943,-1.59943 7.82716,-0.74582 7.82716,1.07284 0,1.03929 -0.82611,1.40366 -2.68968,1.18634 -2.52883,-0.2949 -6.95626,0.63753 -11.15934,2.35019 -1.67285,0.68166 -1.72139,0.54907 -0.50945,-1.39154 z M 1692.5,521 c 0.3399,-0.55 0.8165,-1 1.059,-1 0.2426,0 0.441,0.45 0.441,1 0,0.55 -0.4766,1 -1.059,1 -0.5825,0 -0.7809,-0.45 -0.441,-1 z"
     id="path1" /></svg>
