<?xml version="1.0" encoding="UTF-8" standalone="no"?>
<!-- Created with Inkscape (http://www.inkscape.org/) -->

<svg
   version="1.1"
   id="svg1"
   width="2400"
   height="3200"
   viewBox="0 0 2400 3200"
   xml:space="preserve"
   xmlns="http://www.w3.org/2000/svg"
   xmlns:svg="http://www.w3.org/2000/svg"><defs
     id="defs1" /><path
     style="fill:#000000"
     d="m 960,818.38355 c -2.2711,-0.80214 -6.28977,-2.50995 -8.23643,-3.50022 C 950.80853,814.3975 949.43575,814 948.71293,814 c -4.94585,0 -8.48317,-4.82976 -5.62827,-7.68466 4.24455,-4.24455 -5.97955,-8.66614 -12.53948,-5.42294 -1.93545,0.95688 -10.08367,2.10019 -15.54518,2.1812 -1.375,0.0204 -4.975,-0.42578 -8,-0.99151 -3.025,-0.56572 -7.19167,-1.31534 -9.25927,-1.66583 -2.0676,-0.35048 -4.00665,-1.03752 -4.30902,-1.52675 C 893.12935,798.40028 892.02221,798 890.9714,798 c -1.05081,0 -3.41364,-0.84422 -5.25072,-1.87605 -2.33333,-1.31055 -6.33644,-2.0635 -13.28041,-2.49791 -10.66463,-0.66717 -20.90268,-1.90802 -28.94027,-3.50757 -9.67492,-1.92539 -11.03524,-2.22284 -15,-3.27994 -5.19636,-1.38547 -7.09037,-2.10606 -12.3445,-4.69654 C 813.76602,780.9639 811.22422,780 810.50704,780 c -0.71717,0 -3.71214,-1.27116 -6.65549,-2.82481 -2.94335,-1.55364 -6.25155,-3.30114 -7.35155,-3.88332 -1.1,-0.58219 -3.125,-1.58003 -4.5,-2.21743 -10.08219,-4.67371 -32,-24.78683 -32,-29.36515 0,-4.17998 -1.57149,-6.43022 -5.7635,-8.25285 -2.05508,-0.89352 -4.51789,-2.03674 -5.47293,-2.54051 C 747.80853,730.41217 746.33993,730 745.5,730 c -0.83993,0 -2.30853,-0.41089 -3.26357,-0.91309 -0.95504,-0.50221 -4.2713,-2.08455 -7.36947,-3.51633 -3.09817,-1.43177 -7.34316,-3.96227 -9.43331,-5.62331 -2.09016,-1.66105 -6.64099,-4.37583 -10.11296,-6.03285 -3.47197,-1.65701 -8.34606,-4.77264 -10.83131,-6.92362 -2.48526,-2.15097 -6.02843,-4.62729 -7.87372,-5.50294 C 691.28735,698.95941 674,679.79164 674,676.4122 c 0,-0.62494 -7.52929,-10.9885 -9.01766,-12.4122 -0.28749,-0.275 -2.06894,-3.65 -3.95878,-7.5 -1.88985,-3.85 -4.59452,-8.8 -6.01039,-11 -1.41588,-2.2 -3.17556,-5.35 -3.91042,-7 -0.73485,-1.65 -1.81243,-3.9 -2.39462,-5 -0.58218,-1.1 -2.32968,-4.4082 -3.88332,-7.35155 C 643.27116,623.2051 642,620.23081 642,619.53892 c 0,-1.04693 -3.02812,-7.76126 -7.11458,-15.77535 C 634.39844,602.80853 634,601.41517 634,600.66721 c 0,-0.74797 -0.77076,-2.89157 -1.7128,-4.76357 -0.94204,-1.872 -2.0895,-5.87864 -2.54993,-8.90364 -1.7491,-11.49173 -4.38815,-34.54212 -5.38104,-47 -0.28493,-3.575 -0.93164,-6.9275 -1.43714,-7.45 C 622.41359,532.0275 622,530.59156 622,529.35902 c 0,-1.23254 -0.45,-2.5191 -1,-2.85902 -0.55,-0.33992 -1,-1.49758 -1,-2.57259 0,-1.075 -0.3975,-2.73594 -0.88333,-3.69098 -3.37092,-6.6265 -4.3007,-10.38086 -7.11667,-28.73643 -0.50626,-3.3 -1.41168,-8.7 -2.01203,-12 -3.49766,-19.22561 -4.09705,-61.74101 -0.97279,-69 0.47344,-1.1 1.09235,-3.575 1.37536,-5.5 1.23271,-8.38497 2.02993,-10.74111 4.98028,-14.71908 3.32119,-4.47797 4.62918,-5.25136 4.62918,-2.73714 0,0.84908 2.3625,3.71335 5.25,6.36505 2.8875,2.65169 8.9815,8.25699 13.54222,12.45622 4.56072,4.19922 8.76625,7.63495 9.34563,7.63495 0.57937,0 2.39039,0.95201 4.02447,2.11558 3.92833,2.79722 21.818,11.88442 23.39646,11.88442 0.68097,0 3.80452,1.35 6.94122,3 3.1367,1.65 6.75584,3 8.04253,3 1.28669,0 2.61755,0.45 2.95747,1 0.33992,0.55 2.13992,1 4,1 1.86008,0 3.66008,0.45 4,1 0.33992,0.55 1.67078,1 2.95747,1 1.28669,0 4.90583,1.35 8.04253,3 3.1367,1.65 6.5635,3 7.61511,3 1.05162,0 2.80592,0.45 3.89846,1 1.09254,0.55 2.88032,1.45 3.97286,2 1.09254,0.55 2.89864,1 4.01357,1 1.11493,0 2.80853,0.39844 3.76357,0.88542 9.37305,4.77941 14.89308,7.11458 16.81788,7.11458 1.26528,0 2.57863,0.45 2.91855,1 0.33992,0.55 1.67395,1 2.96452,1 1.29056,0 4.189,0.9 6.44098,2 9.73064,4.75303 11.79821,5.80814 15.37492,7.84604 2.07923,1.18468 4.64017,2.15396 5.69098,2.15396 1.05081,0 2.18868,0.45 2.5286,1 0.33992,0.55 1.47779,1 2.5286,1 1.05081,0 3.51294,0.9 5.4714,2 1.95846,1.1 4.17645,2 4.92887,2 0.75242,0 3.93443,1.35 7.07113,3 3.1367,1.65 6.53084,3 7.54253,3 1.01169,0 2.11755,0.45 2.45747,1 0.33992,0.55 1.47779,1 2.5286,1 1.05081,0 3.51294,0.9 5.4714,2 1.95846,1.1 4.42059,2 5.4714,2 1.05081,0 2.18868,0.45 2.5286,1 0.33992,0.55 1.91492,1 3.5,1 1.58508,0 3.16008,0.45 3.5,1 0.33992,0.55 2.13992,1 4,1 1.86008,0 3.66008,0.45 4,1 0.33992,0.55 2.13992,1 4,1 1.86008,0 3.66008,0.45 4,1 0.33992,0.55 1.91492,1 3.5,1 1.58508,0 3.16008,0.45 3.5,1 0.33992,0.55 1.68992,1 3,1 1.31008,0 2.6307,0.40247 2.93472,0.89437 0.30401,0.4919 2.24306,1.14963 4.30901,1.46163 8.77315,1.3249 11.30562,1.91483 11.82456,2.75449 0.30236,0.48923 2.52163,0.88951 4.93171,0.88951 2.41008,0 4.66008,0.45 5,1 0.33992,0.55 2.30148,1 4.35902,1 2.05754,0 4.16848,0.40391 4.69098,0.89757 0.5225,0.49367 2.75,1.1514 4.95,1.46163 8.47347,1.19488 11.53818,1.89356 12.06829,2.75129 0.30236,0.48923 2.62874,0.88951 5.16973,0.88951 4.22545,0 8.50746,0.96031 13.76198,3.08635 1.1,0.44508 4.025,1.01789 6.5,1.27293 5.45616,0.56222 9.82086,1.49376 12.5,2.66781 1.87932,0.82356 5.18797,1.27794 18.5,2.54065 3.025,0.28694 6.4,0.92367 7.5,1.41497 1.1,0.4913 3.8,1.15821 6,1.48203 3.80289,0.55975 9.7888,1.62838 17.5,3.12418 1.925,0.37341 4.625,1.44983 6,2.39205 3.3358,2.28583 8.5942,4.00901 12.3992,4.06316 3.5227,0.0501 12.1413,2.16307 13.219,3.24075 0.3933,0.39332 1.3452,0.71512 2.1153,0.71512 5.1098,0 30.1904,15.0449 38.6429,23.18034 1.8969,1.82581 4.5008,4.27107 5.7863,5.4339 1.2855,1.16283 3.4683,3.41283 4.8507,5 1.3823,1.58717 6.3323,6.96798 11,11.95736 11.5955,12.39481 15.1888,16.48868 17.9932,20.4999 1.3184,1.88567 2.6451,3.6535 2.9483,3.9285 2.4482,2.2203 13.0451,22.7588 13.0451,25.28335 0,0.77516 0.7766,2.94101 1.7258,4.81301 4.7599,9.3875 5.506,57.38221 1.1565,74.40364 -4.6745,18.29384 -11.9876,33.33772 -20.3823,41.92852 -4.0961,4.19182 -5.2582,5.90242 -9.0652,13.34426 -1.2022,2.35003 -3.5919,5.61644 -5.3103,7.2587 -1.7851,1.70587 -3.1245,4.00462 -3.1245,5.36221 0,1.36487 -0.9577,2.99795 -2.25,3.83686 -2.1015,1.36417 -3.3995,1.78357 -10.5,3.39264 -1.5125,0.34275 -4.2073,2.00103 -5.9886,3.68507 -3.2385,3.06188 -3.2385,3.06188 -5.5644,0.87681 -3.2392,-3.04307 -7.4605,-2.73331 -11.6592,0.85557 -1.9042,1.62765 -3.972,2.95936 -4.595,2.95936 -0.6231,0 -1.9473,0.9 -2.9428,2 -0.9955,1.1 -2.8387,2 -4.096,2 -1.2573,0 -2.5641,0.45 -2.904,1 -0.3399,0.55 -1.9149,1 -3.5,1 -1.5851,0 -3.1601,0.45 -3.5,1 -0.3399,0.55 -2.3015,1 -4.359,1 -2.0576,0 -4.1685,0.40443 -4.691,0.89874 -0.9257,0.87577 -7.109,1.56725 -24.45,2.73426 -4.675,0.31462 -9.0816,1.04683 -9.7924,1.62713 -0.9139,0.74611 -1.6314,0.71609 -2.44998,-0.10251 -1.90816,-1.90816 -9.61903,-1.39249 -12.77435,0.85429 -8.842,6.29606 -21.62821,10.26302 -26.98327,8.37164 z m 501.5,-0.0811 c -1.65,-0.25097 -3.4275,-0.87168 -3.95,-1.37936 -0.5225,-0.50768 -1.803,-0.92305 -2.8456,-0.92305 -1.0426,0 -3.0901,-0.84731 -4.55,-1.88292 -8.1487,-5.78038 -15.152,-7.71946 -17.912,-4.95946 -0.8106,0.8106 -1.5451,0.84535 -2.45,0.11593 -0.7108,-0.57292 -5.3424,-1.32845 -10.2924,-1.67894 -17.1789,-1.21639 -33.6021,-3.42356 -34.95,-4.69704 -0.5225,-0.49366 -1.9393,-0.89757 -3.1485,-0.89757 -2.4823,0 -11.1153,-4.33096 -17.7985,-8.92913 -4.4431,-3.0569 -8.9257,-3.97574 -10.103,-2.07087 -1.0436,1.68856 -5.09,1.1105 -7,-1 -0.9955,-1.1 -2.9841,-2 -4.4191,-2 -6.6635,0 -15.0323,-4.53881 -15.0656,-8.17079 -0.01,-0.91894 -1.7128,-3.39394 -3.7875,-5.5 -2.0747,-2.10607 -5.087,-6.52921 -6.6939,-9.82921 -1.607,-3.3 -4.3697,-7.575 -6.1395,-9.5 -4.191,-4.55873 -12.3944,-15.74966 -12.3944,-16.90831 0,-0.77657 -1.6789,-4.48749 -5.1252,-11.32812 C 1292.3937,725.80853 1292,724.33993 1292,723.5 c 0,-0.83993 -0.3968,-2.30853 -0.8819,-3.26357 -1.3573,-2.67263 -3.1181,-10.8894 -3.1181,-14.55078 0,-1.80711 -0.4736,-3.75922 -1.0524,-4.33803 -0.7015,-0.70156 -0.9098,-8.85236 -0.6246,-24.45 0.4796,-26.23589 1.3512,-32.35645 6.607,-46.39762 1.6404,-4.38246 9.4751,-19.56363 10.9742,-21.26462 0.8777,-0.99587 2.7026,-3.36872 4.0553,-5.27302 7.6486,-10.76744 39.4318,-43.56506 49.0405,-50.60587 4.8422,-3.54809 10.3157,-6.88787 16.5788,-10.1159 6.7504,-3.4792 10.7935,-5.24059 12.0293,-5.24059 0.7805,0 2.2004,-0.39476 3.1555,-0.87724 3.1128,-1.57263 8.8206,-3.12276 11.4984,-3.12276 1.441,0 2.8981,-0.45 3.238,-1 0.3399,-0.55 2.1556,-1 4.0348,-1 1.8793,0 4.8902,-0.89832 6.691,-1.99626 1.8925,-1.15384 5.0428,-1.99784 7.4652,-2 2.305,-0.002 4.4691,-0.45374 4.809,-1.00374 0.3399,-0.55 2.3649,-1 4.5,-1 2.1351,0 4.1601,-0.45 4.5,-1 0.3399,-0.55 2.9765,-1 5.859,-1 2.8826,0 5.6685,-0.40637 6.191,-0.90305 0.9403,-0.89381 5.7977,-1.68359 16.45,-2.67468 3.025,-0.28144 6.4,-0.91092 7.5,-1.39885 1.1,-0.48793 3.575,-1.16305 5.5,-1.50028 9.2638,-1.62286 13.9075,-2.50719 18.5,-3.52314 2.75,-0.60834 7.25,-1.51196 10,-2.00804 9.594,-1.73068 11.5282,-2.22856 12.0713,-3.10726 0.3007,-0.48658 2.0686,-0.8847 3.9287,-0.8847 1.8601,0 3.6601,-0.45 4,-1 0.3399,-0.55 2.8149,-1 5.5,-1 2.6851,0 5.1601,-0.45 5.5,-1 0.3399,-0.55 1.9149,-1 3.5,-1 1.5851,0 3.1601,-0.45 3.5,-1 0.3399,-0.55 2.1399,-1 4,-1 1.8601,0 3.6601,-0.45 4,-1 0.3399,-0.55 2.5899,-1 5,-1 2.4101,0 4.6601,-0.45 5,-1 0.3399,-0.55 1.6899,-1 3,-1 1.3101,0 2.6601,-0.45 3,-1 0.3399,-0.55 1.6899,-1 3,-1 1.3101,0 2.6601,-0.45 3,-1 0.3399,-0.55 1.6899,-1 3,-1 1.3101,0 2.6601,-0.45 3,-1 0.3399,-0.55 2.1399,-1 4,-1 1.8601,0 3.6601,-0.45 4,-1 0.3399,-0.55 2.1399,-1 4,-1 1.8601,0 3.6601,-0.45 4,-1 0.3399,-0.55 1.6899,-1 3,-1 1.3101,0 2.6601,-0.45 3,-1 0.3399,-0.55 1.6899,-1 3,-1 1.3101,0 2.6601,-0.45 3,-1 0.3399,-0.55 1.4778,-1 2.5286,-1 1.0508,0 3.5129,-0.9 5.4714,-2 1.9585,-1.1 4.2283,-2 5.044,-2 0.8157,0 2.2645,-0.39366 3.2196,-0.8748 C 1631.4765,475.23948 1634.4358,474 1636,474 c 1.5642,0 4.5235,-1.23948 12.2364,-5.1252 0.9551,-0.48114 2.5875,-0.8748 3.6276,-0.8748 1.0401,0 2.4582,-0.6833 3.1513,-1.51845 0.6931,-0.83515 2.8857,-2.22298 4.8725,-3.08407 1.9867,-0.86109 4.3936,-1.97778 5.3486,-2.48155 0.9551,-0.50376 2.616,-0.91593 3.691,-0.91593 1.075,0 2.2327,-0.45 2.5726,-1 0.3399,-0.55 1.4778,-1 2.5286,-1 1.0508,0 3.5129,-0.9 5.4714,-2 1.9585,-1.1 4.1096,-2.01001 4.7804,-2.02224 0.6708,-0.0122 2.3446,-0.90222 3.7196,-1.97776 1.375,-1.07554 3.4859,-1.96553 4.691,-1.97776 1.205,-0.0122 2.4691,-0.47224 2.809,-1.02224 0.3399,-0.55 1.6899,-1 3,-1 1.3101,0 2.6601,-0.45 3,-1 0.3399,-0.55 1.9149,-1 3.5,-1 1.5851,0 3.1601,-0.45 3.5,-1 0.3399,-0.55 1.604,-1.01001 2.809,-1.02224 1.2051,-0.0122 3.316,-0.90222 4.691,-1.97776 1.375,-1.07554 3.4859,-1.96553 4.691,-1.97776 1.205,-0.0122 2.4691,-0.47224 2.809,-1.02224 0.3399,-0.55 1.9149,-1 3.5,-1 1.5851,0 3.1601,-0.45 3.5,-1 0.3399,-0.55 2.1399,-1 4,-1 1.8601,0 3.6601,-0.45 4,-1 0.3399,-0.55 1.6265,-1 2.859,-1 1.2326,0 2.6685,-0.40759 3.191,-0.90576 1.9425,-1.85206 8.5751,-5.09424 10.4214,-5.09424 1.0508,0 2.1887,-0.45 2.5286,-1 0.3399,-0.55 1.4778,-1 2.5286,-1 1.0508,0 3.5129,-0.9 5.4714,-2 1.9585,-1.1 4.1096,-2.00897 4.7804,-2.01993 3.0471,-0.0498 41.7196,-32.60704 41.7196,-35.12251 0,-2.28838 1.7336,-0.30184 3.8485,4.41011 4.3464,9.68348 3.9311,8.20469 6.2434,22.23233 2.9895,18.13678 3.3485,25.37601 1.9585,39.5 -1.1563,11.7492 -1.9031,17.03458 -6.1465,43.5 -0.5291,3.3 -1.2201,7.8 -1.5354,10 -0.3153,2.2 -0.9773,4.4275 -1.4709,4.95 -0.4937,0.5225 -0.8976,1.71747 -0.8976,2.6555 0,0.93802 -0.9639,3.66052 -2.142,6.05 -3.4693,7.03663 -3.7263,7.98666 -4.2859,15.8445 -0.2938,4.125 -1.0258,10.65 -1.6267,14.5 -0.6008,3.85 -1.3142,11.275 -1.5852,16.5 -0.2711,5.225 -0.913,9.9275 -1.4265,10.45 -0.5135,0.5225 -0.9337,2.40844 -0.9337,4.19098 0,1.78254 -0.45,3.5191 -1,3.85902 -0.55,0.33992 -1,2.13992 -1,4 0,1.86008 -0.45,3.66008 -1,4 -0.55,0.33992 -1,1.92779 -1,3.5286 0,1.60081 -0.9,4.51294 -2,6.4714 -1.1,1.95846 -2,4.17962 -2,4.93592 0,0.75629 -0.8487,3.1051 -1.886,5.21958 -1.0373,2.11447 -3.3979,6.9945 -5.2456,10.8445 -1.8478,3.85 -3.6991,7.15 -4.114,7.33333 -0.4149,0.18334 -0.7544,0.892 -0.7544,1.57481 0,1.94796 -11.2833,23.73672 -14.8415,28.65998 -1.7617,2.43753 -6.0775,8.64279 -9.5907,13.78945 -6.2094,9.0967 -19.8115,24.14243 -21.8259,24.14243 -0.5497,0 -2.671,1.4625 -4.7139,3.25 -5.9464,5.20293 -7.2506,6.11038 -12.5306,8.71901 -2.7486,1.35795 -8.9176,5.07045 -13.709,8.25 -4.7914,3.17954 -9.185,5.78099 -9.7636,5.78099 -0.5786,0 -1.9458,0.45 -3.0384,1 -1.0925,0.55 -2.8803,1.45 -3.9728,2 -1.0926,0.55 -2.866,1 -3.941,1 -1.075,0 -2.2327,0.45 -2.5726,1 -0.3399,0.55 -1.3095,1 -2.1546,1 -2.8221,0 -7.3454,4.01568 -7.3454,6.52104 0,6.05349 -19.8825,27.47896 -25.5,27.47896 -0.3518,0 -2.5207,1.26793 -4.8198,2.81761 C 1635.5731,772.93405 1612.627,784 1610.1984,784 c -1.1442,0 -2.3585,0.45 -2.6984,1 -0.3399,0.55 -1.604,1.00655 -2.809,1.01455 -1.2051,0.008 -4.216,0.75348 -6.691,1.65661 -6.5683,2.39677 -22.0266,4.71348 -39.5,5.91979 -4.95,0.34173 -9.4275,1.02356 -9.95,1.51519 -0.5225,0.49162 -1.7175,0.89386 -2.6555,0.89386 -0.938,0 -3.4355,0.85635 -5.55,1.90301 -6.8022,3.36703 -13.9634,4.32907 -27.3445,3.67348 -26.5734,-1.30194 -24.4572,-1.44977 -24.8223,1.73398 -0.1772,1.54576 0.199,3.43855 0.8361,4.2062 1.5565,1.87545 0.6179,3.11844 -3.8063,5.04064 -2.0391,0.88595 -4.4889,2.02299 -5.4439,2.52676 -0.9551,0.50376 -2.7776,0.91593 -4.05,0.91593 -1.2725,0 -2.7411,0.41498 -3.2636,0.92218 -1.2461,1.20959 -7.1659,1.95578 -10.95,1.38023 z"
     id="path5" /></svg>
