<svg version="1.1" xmlns="http://www.w3.org/2000/svg" xmlns:xlink="http://www.w3.org/1999/xlink" x="0px" y="0px" width="1200px"
	 height="1600px" viewBox="0 0 1200 1600" enable-background="new 0 0 1200 1600" xml:space="preserve">
<g id="Layer_2">
	<polygon fill="#262626" points="431.777,1573.75 400.07,1553.5 398.75,1546.5 425.751,1511.25 439.88,1526.483 456.58,1508.5 
		469.75,1520 487.75,1503.75 494.5,1508 499.75,1505 515.25,1514.75 543.75,1550 521,1547.561 527,1559.75 488.5,1554.25 
		487.75,1570.25 451.765,1559.75 447.904,1559.75 	"/>
	<polygon fill="#262626" points="783.527,1573.75 815.233,1553.5 816.554,1546.5 789.553,1511.25 775.424,1526.483 758.724,1508.5 
		745.554,1520 727.554,1503.75 720.804,1508 715.554,1505 700.054,1514.75 671.554,1550 694.304,1547.561 688.304,1559.75 
		726.804,1554.25 727.554,1570.25 763.539,1559.75 767.399,1559.75 	"/>
</g>
<g id="Layer_1">
	<g transform="translate(0.000000,1600.000000) scale(0.100000,-0.100000)">
		<path d="M5195,5595.995c40.996-30.996,52.002-46.992,72.998-107.998c26.006-72.998,29.004-142.998,7.002-163.994
			c-7.998-9.004-15-23.008-15-32.002c0.996-12.998,4.004-11.006,14.004,7.002c11.992,20.996,12.998,17.998,18.994-45
			c6.006-81.006,0-208.008-12.002-250c-8.994-29.004-8.994-29.004-10.996,10.996c-2.998,47.998-15-52.998-24.004-207.998
			c-20.996-335-45-552.002-75.996-682.002c-22.002-92.002-99.004-327.998-130-400c-9.004-22.002-37.998-89.004-65-150
			c-100.996-234.004-145.996-347.002-174.004-447.002c-16.992-55.996-35-103.994-40.996-105.996c-5-2.002-7.998-7.998-5-12.998
			c4.004-5-0.996-35-10-66.006c-7.998-32.002-25.996-105-40-162.998c-12.998-57.998-30.996-134.004-40-170s-19.004-77.998-20.996-95
			c-3.008-15.996-9.004-45.996-15-65c-5-19.004-9.004-47.002-9.004-60.996c0-16.006-7.002-30-15.996-33.008
			c-15-5.996-16.006,2.002-10,79.004c2.998,47.002,10.996,117.002,16.992,155c6.006,39.004,9.004,75.996,6.006,82.998
			c-7.002,21.006-27.998-142.998-32.998-250.996c-5-114.004-10-131.006-64.004-182.998c-35.996-35-117.998-75-139.004-68.008
			c-15.996,6.006-201.997,191.006-213.994,214.004c-9.004,17.998-12.002,14.004-23.003-30c-6.001-27.002-23.999-80.996-37.998-120
			c-23.003-60-26.001-79.004-20-135c11.001-110,12.998-120.996,36.001-189.004c11.997-35.996,21.997-67.998,22.998-70.996
			c1.001-14.004,67.002-110.996,72.002-105.996c2.998,2.998,22.002-8.008,40.996-24.004c29.004-24.004,39.004-27.002,56.006-17.998
			c20,10,95,65.996,105.996,77.998c2.998,2.998,20.996,17.002,40,30l35,25l-19.004-30c-10-17.002-30-42.002-42.998-55.996
			c-13.994-15-20-29.004-15-33.008c17.002-10,64.004,51.006,107.998,141.006l43.008,87.998l1.992-40
			c2.002-40.996,3.008-47.998,18.008-150.996c12.998-92.002,70-322.002,95.996-389.004c12.998-32.998,37.998-92.998,55-134.004
			c35.996-85.996,35.996-90.996,10-90.996c-12.002,0-20-7.002-20-15.996c0-12.002,4.004-14.004,12.998-7.002
			c17.002,12.998,40,10,45-6.006c2.998-8.994,0-10.996-7.002-5.996c-6.992,4.004-23.994,4.004-38.994,0l-27.002-7.998l25-7.002
			c24.004-7.998,24.004-7.998,2.998-9.004c-12.998-0.996-22.002-3.994-22.002-8.994c3.008-20-2.998-20-20.996-2.002
			c-12.002,12.002-32.998,20-55,20c-35.996,0-77.998-27.002-67.998-42.998c2.998-5-2.998-7.002-12.002-5
			c-10,0.996-25.996,18.994-37.002,37.998c-10,19.004-22.002,34.004-27.002,32.998c-3.994-0.996-7.998,2.998-7.998,10
			c-0.996,12.002-35,99.004-58.994,152.002l-14.004,30l5.996-40c3.008-22.002,12.002-54.004,20-70.996
			c8.008-17.002,23.008-59.004,33.008-95c16.992-62.002,20-65,70.996-91.006c62.998-30.996,89.004-57.002,125-122.998l27.002-49.004
			l-66.006,62.002c-36.992,34.004-70,62.002-73.994,61.006c-4.004,0-36.006-35-72.002-77.002l-64.004-76.006l-6.992,30
			C4407.001,885,4360,959.003,4312.998,995c-27.002,20-47.002,39.004-45,40.996c6.006,11.006,0,21.006-12.998,21.006
			c-7.998,0-15-9.004-15-19.004s-7.002-17.998-15-17.998s-15-4.004-15-7.998c0-4.004-18.999-12.998-42.002-19.004
			c-23.999-7.002-50.996-15-60-17.998c-13.999-5.996-17.998-2.002-17.998,19.004c0,33.994,35,68.994,61.001,61.992
			c10-3.994,27.998-8.994,38.999-11.992c30-8.008,24.004,5-7.002,16.992c-42.998,16.006-82.998,2.002-98.999-35.996
			c-22.998-55.996-5-75.996,50-55c48.003,17.998,126.997,20,160.005,5c25-12.002,35.996-27.002,50.996-70
			c10-30,15-57.998,12.002-62.002c-4.004-2.998-7.002-0.996-7.002,6.006c0,6.992-5,8.994-12.002,5
			c-7.998-5-8.994-2.002-3.994,11.992c3.994,10,3.994,15,0,12.002c-3.008-3.994-22.002,4.004-40,17.998
			c-28.008,22.002-36.006,24.004-48.008,12.002c-7.998-7.002-28.994-23.994-46.997-37.998
			c-71.001-52.998-111.001-102.998-158.999-200c-27.998-55-56.001-100-62.998-100c-6.001,0.996-28.003,7.998-47.002,17.998
			L3893.999,605L3896,705.996c1.001,108.008,31.997,238.008,61.001,259.004c10,7.002,17.998,50.996,27.998,145
			c18.999,192.002,21.001,220,15,220c-2.998,0-6.001,45.996-7.998,102.998c-1.001,56.006-12.002,162.998-23.003,237.002
			c-11.997,74.004-21.001,145.996-21.001,160s-12.998,72.998-28.999,132.002c-32.998,122.002-31.997,130.996,33.999,267.998
			c50,104.004,70,197.002,85,390c10,117.998,8.003,737.998-1.997,775c-3.999,17.002-8.999,172.002-8.999,345l-2.002,315l28.999,100
			c16.001,55,33.999,120.996,42.002,147.002c6.997,25,16.997,55.996,23.999,67.002c6.001,11.992,8.999,20.996,6.001,20.996
			c-3.999,0,8.999,34.004,65,157.002c10,23.994,18.999,45,18.999,47.998s45,97.002,100.996,207.998
			c65,131.006,99.004,210,96.006,225c-2.002,12.002,0,22.002,5,22.002s7.002,4.004,2.998,10c-2.998,5,19.004,64.004,47.998,132.002
			c60,137.998,70,160,71.006,170c1.992,15.996,102.998,112.002,145.996,137.998c7.998,5,12.002,10.996,9.004,15
			c-3.008,2.998-23.008-5.996-43.008-20s-42.998-25-48.994-25c-21.006,0-72.002-60-120-140
			c-52.998-87.002-72.002-134.004-127.002-307.998c-22.998-70-67.002-181.006-100-247.002c-72.002-149.004-110-230-110-237.998
			c0-7.002-35-86.006-80-182.002c-102.002-217.002-115-427.998-71.001-1195c5-80,7.002-247.998,3.999-375
			c-3.999-195.996-7.998-247.998-28.999-349.004c-26.001-123.994-60-225.996-73.999-225.996c-30,0-42.002-217.998-16.001-282.002
			c13.003-28.994,28.999-103.994,52.002-237.998c16.997-105.996,21.997-197.998,18.999-410c-2.002-129.004-7.998-250.996-12.998-270
			C3926,990.996,3910,942.001,3896,902.001s-27.002-90-30-110c-3.003-20-11.001-64.004-17.002-97.998
			c-16.997-85-6.001-113.008,56.001-142.002c41.001-20,56.001-35,85-85c23.999-42.002,47.998-69.004,77.998-86.006
			c23.003-13.994,73.003-45.996,109.004-70C4234.003,274.003,4320,230,4335.996,230c3.008,0,40,32.998,83.008,74.004l77.998,75
			l42.002-15c100-34.004,275-84.004,311.992-89.004c36.006-4.004,40-2.002,50,22.002c5,15,7.002,45.996,4.004,70
			c-2.998,23.994-2.002,42.998,2.998,42.998s32.998-4.004,62.998-9.004c30-5.996,72.002-11.992,94.004-15
			c22.002-2.998,54.004-6.992,70-10c17.002-2.998,60-6.992,98.076-10c47.305-2.422,60.049-4.121,101.924-4.121
			c-16.357,7.725-68.335,113.281-73.115,113.672c79.512-6.436,180.615-21.797,260.615-3.047
			c-27.583,6.982-97.607,86.631-107.5,98.496C5305,705,5200,840,5200,849.003c0,5-25.996,27.998-57.998,50
			C5090,934.003,5010,1017.001,5010,1035.996c0,3.008-10.996,17.002-25.996,30c-26.006,24.004-42.002,28.008-104.004,25
			c-32.998-1.992-35.996,1.006-57.002,46.006c-12.002,25.996-30.996,82.002-42.998,122.998c-10.996,40.996-34.004,105-50,140.996
			c-77.998,173.008-105.996,342.002-97.002,584.004c2.998,82.998,7.998,159.004,11.006,170c1.992,10.996,6.992,52.002,10.996,90
			c15.996,157.998,67.002,444.004,105.996,590c11.006,44.004,25,100,30,125c10,50,34.004,129.004,54.004,175
			c7.002,17.002,25,62.002,40,100c15,39.004,40,99.004,55,135c55.996,130,107.998,255.996,115,280c4.004,14.004,10.996,30,15,35
			c4.004,5.996,12.998,27.998,20,50s30,74.004,50.996,115c46.006,90.996,75,172.998,84.004,237.002
			c4.004,25.996,15,108.994,25,182.998c30,210,35.996,285,45,520.996c4.004,122.002,14.004,201.006,24.004,194.004
			c11.992-7.002,12.998,9.004,15.996,220s-7.002,307.998-30.996,297.998c-8.008-2.998-14.004,1.006-14.004,10
			c0,7.998-15.996,34.004-35,57.002s-35,37.002-35,30.996c0-8.994-5.996-8.994-22.002-0.996
			C5175.996,5610.995,5175.996,5610.995,5195,5595.995z M4395,5002.997c-2.998-15.996-10-32.002-15-37.002
			s-4.004,7.002,2.002,27.002C4395,5035.995,4405,5042.997,4395,5002.997z M4412.998,2162.997
			c21.006,2.998,56.006,17.002,77.998,31.006c21.006,13.994,40,25.996,41.006,25.996c2.002,0,2.998-12.002,3.994-27.002
			c0-15.996,4.004-83.994,8.008-152.998l7.998-125l-42.998-40.996c-67.002-64.004-203.008-174.004-214.004-174.004
			c-15.996,0-60,45-85,87.002c-12.998,20.996-31.001,47.002-40,57.998c-27.998,32.998-57.002,125-70,217.002
			c-12.002,88.994-10,105.996,30,202.998c5,10.996,13.999,37.002,20,57.998l12.002,37.002l105.996-100.996
			C4372.001,2160.995,4375.996,2157.997,4412.998,2162.997z M4609.003,2284.999c-4.004-32.998-12.002-104.004-18.008-159.004
			c-8.994-90.996-15-115-25-105c-1.992,2.002-7.998,51.006-12.998,109.004l-7.998,105l34.004,57.998
			c18.994,31.006,35,56.006,35.996,55C4617.001,2345.995,4614.003,2317.997,4609.003,2284.999z M4577.001,1987.997
			c-2.998-7.998-6.006-5-6.006,6.006c-0.996,10.996,2.002,16.992,5,12.998C4579.003,2004.003,4580,1994.999,4577.001,1987.997z
			 M4182.998,1809.999c3.003-10.996,1.001-17.998-3.999-14.004c-5,3.008-8.999,12.002-8.999,20
			C4170,1835.995,4177.001,1832.997,4182.998,1809.999z M4217.998,1744.003c-3.994-3.008-11.997,5-17.998,17.998
			c-12.002,22.002-12.002,22.002,6.001,5.996C4215.996,1757.997,4220.996,1747.997,4217.998,1744.003z M4534.003,1030.996
			c-7.002-6.992-21.006,12.002-29.004,39.004c-5.996,22.998-5,22.998,14.004-5C4530,1049.003,4537.001,1034.003,4534.003,1030.996z
			 M4680,1060.996c12.002-0.996,12.002-2.998,0.996-10c-10-6.992-7.998-11.992,10-25c26.006-17.998,79.004-21.992,79.004-5.996
			c0,17.002,65.996,10.996,90-7.998l22.002-17.998L4805,920c-42.002-40.996-80.996-75.996-85.996-77.998s-9.004,7.002-9.004,20
			s-15,48.994-34.004,80c-25,42.998-30.996,58.994-21.992,68.994c7.998,9.004,6.992,10-8.008,5
			c-23.994-7.998-55.996,2.002-55.996,18.008c0,20,20,32.998,47.998,30C4652.998,1062.998,4672.001,1060.996,4680,1060.996z
			 M4977.001,1010.996c25-28.994,27.998-40.996,10.996-40.996c-5.996,0-18.994-7.002-28.994-15.996
			c-26.006-24.004-61.006-2.002-53.008,31.992c4.004,16.006,1.006,31.006-10.996,44.004c-15.996,17.002-15,17.998,2.002,22.002
			C4920.996,1057.998,4950,1042.998,4977.001,1010.996z M4998.75,823.583c2.471-8.008,3.97-16.475,6.357-25.664
			c4.331-16.68,15.493-30.186,21.235-46.24c6.094-17.021,124.312-219.912,148.325-244.629
			c21.577-22.207,31.357-52.422,47.476-78.271c-20.811,2.49-42.793,4.375-63.14,6.221c-110,10-263.008,37.002-275,49.004
			c-7.002,5.996-40,65-74.004,130.996s-67.998,127.002-75.996,135c-12.002,12.998-4.004,25,67.998,97.002l80.996,82.002
			c0,0,59.004-45,59.009-45c14.8-11.563,30.771-22.227,43.433-36.24C4992.431,840.029,4996.137,832.07,4998.75,823.583z
			 M5082.998,867.001c47.998-35,87.998-77.002,139.004-145c38.994-54.004,90-117.998,113.994-144.004
			C5360,552.001,5380,530,5380,527.998S5346.02,525,5304.033,525c-79.839,0-132.637,65.479-173.921,125.127
			c-9.395,13.574-97.656,151.338-71.694,156.855c-20.156-4.287-26.802,13.252-28.418,31.016c-0.996,4.004-15,22.002-32.998,40
			c-26.006,27.002-29.004,35-17.002,42.002C4995.996,930,4994.003,930.996,5082.998,867.001z M4590,865
			c0-7.998,5.996-14.004,12.998-12.002c7.002,1.006,11.006-5.996,9.004-17.998c-2.002-14.004,0-15.996,5.996-7.002
			c12.002,17.998,39.004,5,61.006-30.996c23.994-39.004,122.998-237.998,125-252.002c0.996-5,6.992-19.004,12.998-30
			c5.996-12.002,13.994-40.996,17.998-65c2.998-25,10-62.998,15-85s7.998-40,7.002-40.996c-2.998-3.008-112.002,20.996-210,45.996
			c-51.006,12.998-102.998,34.004-126.006,50c-35,25.996-38.994,32.998-53.994,115.996c-21.006,109.004-27.002,193.008-16.006,200
			c5,3.008,34.004,36.006,65,75C4570,880,4590,894.003,4590,865z M4305.996,827.998C4342.001,785,4390,700,4400,657.998
			c5.996-23.994,19.004-92.998,27.998-152.998l17.998-110L4390,344.003l-55-51.006l-2.998,61.006
			c-1.006,32.998-9.004,112.998-17.002,175.996s-15,127.998-15,145.996c0,18.008-5.996,34.004-12.998,37.002
			c-10,4.004-10-15,0-102.002C4320,339.003,4322.998,300,4314.003,300c-5,0.996-61.006,29.004-124.004,62.998
			c-102.998,56.006-117.002,67.002-140,107.998L4026,517.998L4080,625c37.002,75,67.002,120,97.998,147.998
			C4274.003,862.998,4275,862.998,4305.996,827.998z M5127.49,596.464"/>
		<path d="M4645,745c9.004-22.002,20.996-44.004,25.996-50c6.006-5,3.008,7.998-5.996,30s-20.996,45-25.996,50
			C4632.998,780.996,4635.996,767.001,4645,745z"/>
		<path d="M4687.001,662.998C4690,652.998,4714.003,600,4740,545c25.996-55.996,50.996-115,55-132.998
			c2.998-17.002,10.996-35,17.002-37.998c18.994-12.002-1.006,43.994-57.998,161.992C4725,597.998,4700,652.998,4700,659.003
			c0,5-4.004,12.998-10,15.996C4684.003,679.003,4682.998,674.003,4687.001,662.998z"/>
		<path d="M6905.996,5574.999c-36.992-39.004-48.994-62.998-41.992-82.998c5-15,3.994-14.004-8.008,0.996
			c-25.996,34.004-40.996-67.002-40-278.994c1.006-160,4.004-197.002,18.008-225c12.998-25,18.994-68.008,21.992-159.004
			c8.008-205,32.002-469.004,59.004-640c2.998-14.004,9.004-52.002,14.004-85c15-97.002,30-144.004,85.996-260
			c44.004-92.998,62.998-135.996,70-165c0.996-2.998,7.002-17.998,14.004-35c6.992-15.996,20.996-50,30.996-75
			c22.998-55.996,87.002-207.998,100-235c40.996-87.002,145.996-385,135-385c-2.002,0,5-30,15.996-67.002
			c11.006-37.998,22.002-83.994,25-102.998c3.008-19.004,8.008-37.998,10-40.996c2.002-3.008,12.002-55,24.004-115
			c10.996-60,25-131.006,30-159.004c35-177.002,52.998-425,47.002-625.996c-5-206.006-22.002-282.002-96.006-449.004
			c-20.996-47.002-45.996-115.996-55-154.004c-8.994-37.998-25.996-85.996-36.992-107.998c-19.004-37.002-23.008-40-53.008-33.994
			c-17.998,2.998-45.996,0.996-63.994-5c-30-10-92.002-76.006-105-111.006c-2.998-8.994-27.002-30.996-52.998-50
			C6992.001,884.003,6957.001,849.003,6885,755c-32.998-42.998-64.004-82.998-70-89.004c-5-5.996-35.986-43.984-68.008-84.004
			c-28.008-35-59.482-58.662-116.875-99.785c79.893-5.547,271.826-3.701,269.883-7.158c-14.99-26.719-34.16-60.059-60.83-103.418
			c-4.502-7.324,29.248-3.799,51.689-6.611c34.297-4.316,171.143,15.977,287.139,35.977c39.004,7.002,75,10,77.998,7.002
			c3.008-3.994,1.006-22.998-5-43.994C7235,307.001,7254.003,270,7295,275c59.004,7.998,160,35,257.002,67.998
			c95,32.998,98.994,32.998,125,17.002c15.996-10,52.002-42.998,82.002-74.004C7787.998,255,7817.001,230,7822.001,230
			c23.994,0,178.994,90,275,160c25,17.998,52.998,50.996,67.002,77.998c27.998,55,36.992,62.998,85.996,82.002
			c47.002,17.998,60,35.996,60,84.004c0,73.994-40,257.998-72.002,336.992c-25,58.008-32.998,154.004-30.996,362.002
			c2.002,217.002,22.002,406.006,55,520c13.994,49.004,22.002,111.006,25,195c3.994,122.998,3.994,122.998-26.006,167.998
			c-25.996,40-52.998,129.004-85.996,289.004c-15.996,74.004-19.004,612.998-5,790c12.998,155.996,19.004,755.996,7.998,795
			c-3.994,14.004-10.996,47.998-17.002,75c-10.996,55.996-47.998,159.004-80,220c-10.996,22.002-47.998,102.998-80.996,180
			c-34.004,77.002-80.996,177.998-105,225c-47.002,95-87.998,214.004-104.004,305.996c-20,111.006-68.994,242.002-136.992,364.004
			c-7.002,14.004-14.004,19.004-14.004,10.996c0-10-9.004-5.996-27.998,12.002c-30,29.004-85,40-62.998,12.998
			c6.992-7.998,7.998-16.992,2.998-20c-5-2.998,5-20.996,22.998-40c17.998-18.994,40-57.998,49.004-85.996
			c10-29.004,36.992-94.004,60-144.004c50.996-107.998,60.996-135,56.992-160c-1.992-10.996,2.002-15.996,8.008-11.992
			c5.996,3.994,10.996,2.998,10.996-3.008c0-5-5-10.996-10-12.998c-5.996-2.002,34.004-93.994,90-205
			c55-110.996,100-202.998,100-205.996s7.998-22.002,17.002-42.998c8.994-22.002,17.002-41.006,17.998-44.004
			c0-2.998,2.998-9.004,7.002-15c10-15.996,62.002-160.996,92.002-255c52.998-169.004,55-190,50.996-540
			c-2.002-179.004-5.996-335.996-10-350c-7.998-30.996-7.998-670,0.996-760c15-165,44.004-285.996,96.005-392.002
			c35.996-75,60-147.998,47.002-147.998c-5,0-9.004-10-9.004-22.998c0-12.002-9.004-56.006-20.996-97.002
			c-11.006-40.996-22.002-97.002-24.004-125c-2.002-27.002-10.996-95-19.003-149.99c-27.207-186.875-41.367-379.844-16.143-567.695
			c7.305-54.453,14.316-103.75,41.474-151.143c35.41-61.787,39.961-132.471,44.648-202.588c3.115-46.709,4.805-93.799,6.025-140.586
			c-30.508-13.35-69.746-40.449-96.279-24.375c-42.422,25.693-63.682,116.719-88.896,158.232
			C8029.257,815.166,7962.5,867.587,7890,920.996c-25.889-19.854-63.994-72.842-93.662-75.234
			c6.533,43.398,14.16,99.805,51.973,123.506c43.271,27.129,77.783,24.18,124.209,11.787c44.16-11.787,133.74-45.313,99.521,39.453
			c-15.918,39.434-94.131,71.172-121.23,25.361c27.354,1.787,63.457,10.742,88.672-3.477c15.527-8.75,46.27-50.859,25.225-67.266
			c-16.621-12.891-76.24,14.307-92.324,20.479c-14.043,5.4-39.355,11.963-49.053,24.482c-8.623,11.133-3.975,33.447-14.326,39.912
			c-8.008,5-6.006,20.996,5.996,55.996c15,45,35,245,22.002,234.004c-2.002-2.998-7.998-39.004-11.006-80
			c-3.994-40.996-13.994-104.004-21.992-137.998c-8.008-35-12.002-67.998-8.008-72.998c3.008-5,0-9.004-5-9.004
			c-5.996,0-10.996-5.996-10.996-12.998c0-7.998-17.998-27.998-40-46.006c-47.998-37.998-65-61.992-94.004-135l-21.992-55L7660,875
			c-72.002,82.998-67.002,82.998-142.998,10.996c-27.002-25-50-45.996-52.998-45.996c-6.006,0,35,70.996,60.996,105
			c12.002,17.002,40,35.996,60.996,44.004c44.004,15,74.004,37.998,74.004,55.996s19.004,22.998,77.998,20.996
			c47.998-0.996,50,0,27.002,12.002c-19.004,9.004-35,10-60,2.998c-19.004-5-35-7.998-35-6.992c0,7.998,34.004,102.998,40,110.996
			c4.004,5.996,10,30,14.004,55c5.996,42.002,5.996,44.004-8.008,25c-8.994-10.996-15.996-32.002-15.996-45.996
			c0-14.004-20.996-61.006-47.002-104.004c-45-74.004-72.998-102.998-72.998-74.004c0,19.004-32.002,38.008-64.004,39.004
			c-20.996,0-25.996,2.998-20,12.998c5,7.002,2.002,5-7.998-5c-8.994-10-18.994-17.998-23.994-17.998
			c-4.004,0-13.008-7.998-21.006-17.002c-13.994-17.002-13.994-17.002-8.994,0c2.998,10,1.992,16.006-2.002,14.004
			c-4.004-2.998-16.006-1.006-27.002,3.994c-20,8.008-20,8.008,0,8.008c15.996,0.996,20.996,7.998,20.996,33.994
			c0,17.002,3.008,42.998,7.002,57.002c4.004,15.996,1.006,12.998-7.998-7.002c-7.998-17.998-20.996-32.998-29.004-32.998
			c-11.992,0-10.996,10.996,6.006,57.998c10.996,31.006,22.998,62.002,27.998,67.002c10.996,14.004,65,175.996,82.998,250
			c44.004,174.004,47.998,194.004,65,365l7.002,65l44.004-87.998c45-89.004,80.996-137.002,101.992-137.002
			c7.002,0,8.008,4.004,2.002,12.998c-5,6.006-25,32.002-43.994,57.002l-34.004,45l30-19.004c17.002-10.996,50-35.996,75-55.996
			c62.998-52.002,100-74.004,100-60.996c0,5.996-2.998,10.996-7.002,10.996c-5,0-20.996,12.002-37.998,25.996
			c-15.996,14.004-52.002,45-79.004,68.008c-135.996,115-140,120.996-130,227.998c4.004,45.996,8.008,90,10,97.998
			c1.006,7.998,3.008,34.004,3.008,57.002l0.996,42.002l57.998-30c60-30,106.006-37.002,117.998-17.002c5,7.998,2.002,8.994-10,5
			c-30-12.002-93.994,13.994-141.992,55.996c-57.002,50-67.002,71.006-67.002,132.002l0.996,50l-7.998-45
			c-4.004-25-7.998-39.004-7.998-32.002c-1.006,7.002-9.004,20-17.002,27.998c-7.998,9.004-15,27.002-15.996,42.002
			c0,15-2.002,34.004-4.004,42.002c-0.996,7.998-5,29.004-7.998,45c-2.002,17.002-17.002,77.002-32.002,135
			s-37.998,152.002-50.996,209.004c-48.008,207.998-131.006,458.994-205,617.998c-44.004,92.998-126.006,295-170,417.998
			c-84.004,230.996-126.006,497.002-150,930c-6.006,120.996-15,227.002-20,235c-6.006,10.996-9.004,7.002-9.004-15
			c-0.996-25.996-2.998-27.002-10-10c-10,20.996-10.996,242.002-2.998,275.996c5,19.004,5.996,19.004,18.994,2.002
			c13.008-17.002,14.004-17.002,7.002,2.002c-2.998,10.996-10,25.996-15.996,32.002c-10,13.994-4.004,132.002,8.994,172.002
			c5,18.994,4.004,21.992-5.996,15.996c-9.004-5-10.996-4.004-5.996,4.004c3.994,5.996,10.996,8.994,15.996,5.996
			s15.996,7.002,24.004,22.998c7.998,16.006,30,36.006,47.998,45l32.998,16.006l-30.996-2.002
			C6944.003,5605.995,6922.998,5594.003,6905.996,5574.999z M7779.003,4977.997c5.996-17.998,6.992-27.998,1.992-22.998
			c-10,12.002-25,55-17.998,55C7765.996,5009.999,7772.998,4994.999,7779.003,4977.997z M7594.003,2260.995
			c16.992-18.994,16.992-27.998,5-162.998c-15-160-19.004-153.994-38.008,57.002c-5.996,65.996-13.994,137.998-15.996,160l-5,40
			l17.998-37.002C7567.001,2297.997,7584.003,2272.997,7594.003,2260.995z M7410,1104.003c0-8.008-5.996-11.006-15-8.008
			c-7.998,4.004-15,9.004-15,13.008c0,3.994,7.002,7.998,15,7.998S7410,1110.996,7410,1104.003z M7647.998,1062.001
			c-7.002-17.998-15.996-32.002-20.996-32.002s-7.002,2.998-5,7.998C7655.996,1107.001,7669.003,1120,7647.998,1062.001z
			 M7554.003,1050.996c15-15.996,15-20,0.996-30.996c-7.998-7.002-25.996-10-40-7.998c-20,3.994-22.998,2.998-14.004-7.998
			c8.008-10,3.008-24.004-18.994-57.002c-17.002-24.004-34.004-57.998-39.004-75L7435,840l-79.004,75
			c-77.998,72.998-78.994,75-60.996,95c20,22.002,65,25.996,94.004,7.998c15-8.994,27.998-8.994,60,2.002
			c38.994,12.998,55,30,28.994,30c-10,0-10,2.002-0.996,7.998C7500,1072.998,7537.001,1069.003,7554.003,1050.996z M7260,1027.998
			c-22.998-25-22.998-27.002-10.996-47.998c6.992-10,3.994-17.998-9.004-27.002c-19.004-12.998-32.998-8.994-79.004,24.004
			c-1.992,0.996,8.008,17.998,23.008,37.998c21.992,27.998,33.994,35,61.992,35h35L7260,1027.998z M7177.998,922.001
			c9.004-6.006,6.006-14.004-12.998-32.002c-14.004-12.998-25-27.998-25-32.998s-7.998-16.006-17.002-24.004
			c-10-7.998-12.002-12.002-5.996-7.998c7.002,2.998,0.996-14.004-15-37.998c-15-25-30-42.998-35-40c-4.004,2.002-6.006,0-5-6.006
			c2.002-5-27.998-55.996-66.006-112.998l-68.994-103.994h-77.998h-77.002l52.002,60c28.994,33.994,85.996,105,125,158.994
			c40,52.998,75,97.002,78.994,97.002c4.004,0,34.004,20,67.002,45C7160,934.003,7159.003,932.998,7177.998,922.001z M7352.998,845
			l77.998-75l-28.994-52.998C7385.996,689.003,7357.998,637.998,7340,605c-53.232-97.813-59.99-180.84-389.355-170.039
			c9.932,26.299,129.766,235.225,127.49,228.32c26.084,79.482,66.797,164.072,131.865,218.721c25,20.996,50,37.002,55,37.002
			C7270.996,920,7310,885.996,7352.998,845z M7625,827.998c22.002-28.994,50-62.998,62.998-77.002
			c27.002-30,27.998-72.998,2.998-195.996c-20.996-100.996-28.994-125-41.992-125c-5,0-18.008-9.004-29.004-20
			s-29.004-20.996-40-20.996c-22.002-2.002-27.002-3.008-50-11.006c-15-5.996-105-30-172.002-47.002
			C7330,324.003,7320,325,7320,332.998c0,7.002-4.004,6.006-10-2.998c-9.004-12.998-10-12.998-10,0c0,7.998,5,32.998,9.004,55
			c5,22.002,11.992,57.998,15.996,80c5.996,42.002,77.002,202.998,125,285c15.996,27.998,30,54.004,30,57.998
			c0,4.004,15,17.002,34.004,29.004c23.994,15,36.992,17.998,43.994,10.996c7.998-7.998,9.004-5,5,11.006
			C7552.998,897.001,7584.003,882.001,7625,827.998z M7980.996,769.003C8027.998,725,8120,557.998,8120,517.001
			c0-10-10-36.006-22.002-57.002c-18.994-32.002-42.002-49.004-140.996-100c-65-34.004-120-60-121.006-57.998
			c-1.992,0.996,7.002,90.996,20,197.998c27.002,227.998,27.002,222.998,15,215.996c-5-2.998-11.992-33.994-15.996-67.998
			c-4.004-35-9.004-75.996-12.002-92.998c-2.998-15.996-10-80-15.996-142.002L7815,300.996l-52.998,47.002L7709.003,395L7725,500
			c9.004,57.998,22.002,127.998,29.004,155c13.994,52.002,70.996,150,107.998,185l22.002,20l25-24.004
			C7922.998,822.998,7955.996,792.001,7980.996,769.003z M7014.003,570c-2.002,0,0,9.004,5.996,20s12.998,20,15.996,20
			C7037.998,610,7017.001,570,7014.003,570z"/>
		<path d="M7480,707.998c-19.004-40-52.998-115-77.002-165.996c-25-51.006-50.996-112.002-58.994-135
			c-26.006-72.998,1.992-26.006,45.996,77.002c22.998,53.994,45.996,105.996,50.996,115
			c23.008,41.992,79.004,173.994,76.006,176.992C7515,777.998,7497.998,747.998,7480,707.998z"/>
		<path d="M6949.003,5477.997c0-23.994-2.002-52.002-5-62.998c-2.002-10.996-7.002-67.998-10-125.996
			c-6.006-84.004-4.004-116.006,8.994-153.008c17.998-52.998,12.998-61.992-7.998-12.998c-7.998,19.004-14.004,25-15,14.004
			c0-27.002,50.996-117.998,62.998-110c5,2.998,7.002,0.996,2.998-5c-2.998-6.006,11.006-42.998,31.006-82.002
			c20.996-39.004,38.994-67.002,40.996-60c2.002,5.996,22.002-4.004,45-22.998c52.002-41.006,92.002-57.002,137.002-55
			c19.004,0.996,47.002-1.006,62.998-5c15-4.004,27.002-2.998,27.002,2.002c0,3.994-22.002,10.996-47.998,15
			c-114.004,15-219.004,98.994-262.002,206.992c-12.998,35-35,85-47.998,112.002c-22.998,46.006-22.998,52.002-16.006,217.002
			c4.004,94.004,4.004,170,0,170C6952.998,5519.999,6950,5500.995,6949.003,5477.997z"/>
		<path d="M4482.998,5464.999c-7.002-27.002-15-60.996-18.994-75c-5-17.002-4.004-22.002,3.994-15
			c12.998,12.998,52.998,117.002,42.002,110c-5-2.998-10,2.998-12.002,12.002
			C4495.996,5507.001,4489.003,5492.997,4482.998,5464.999z"/>
		<path d="M5195,5434.999c2.998-37.998,5-112.998,5.996-165c1.006-85-1.992-102.002-27.998-160
			c-17.002-35.996-35.996-82.998-42.998-104.004c-15-47.998-79.004-118.994-134.004-150.996
			c-22.998-12.998-66.992-29.004-97.998-35.996c-32.002-7.002-57.998-16.006-57.998-21.006s5-5.996,10.996-2.002
			c6.006,3.008,34.004,6.006,61.006,5c55-0.996,108.994,22.002,147.002,63.008c25,26.992,47.998,35.996,35,13.994
			c-5-8.994-3.008-8.994,8.994,1.006c9.004,6.992,15,16.992,12.002,20.996c-2.998,5,0,12.002,5.996,15.996
			c14.004,8.008,53.008,92.002,55,119.004c1.006,10.996,14.004,52.002,29.004,90c20,52.998,25,80.996,20.996,115
			c-2.998,25-7.998,82.998-11.992,129.004c-4.004,46.992-11.006,95.996-15,110C5192.998,5495.995,5192.001,5480.995,5195,5434.999z"
			/>
		<path d="M5205.996,5094.003c-15-31.006-25-58.008-21.992-61.006c1.992-2.002,15.996,21.006,30,52.998
			c15,31.006,25,59.004,21.992,61.006C5234.003,5149.003,5220.996,5124.999,5205.996,5094.003z"/>
		<path d="M4517.998,5107.997c5-12.998,7.002-33.994,6.006-47.998c-1.006-14.004,7.998-40.996,20.996-60
			c32.998-50,152.998-170,170-170c22.002,0,17.998,17.998-5,25c-17.998,5.996-180,172.002-180,185.996c0,3.008,7.002,6.006,15,6.006
			s12.002-5,7.998-10c-7.998-12.998,161.006-177.002,182.998-177.998c11.006,0,29.004-2.002,41.006-5
			c12.002-2.002,23.994,0,27.002,3.994c1.992,4.004-5,9.004-16.006,9.004c-53.994,3.994-222.998,157.002-252.998,228.994
			C4519.003,5134.003,4505.996,5142.997,4517.998,5107.997z"/>
		<path d="M7620.996,5102.997c-35-80-153.994-193.994-235.996-227.998c-45.996-20-42.002-25,12.002-17.998
			c35.996,5,53.994,17.002,132.998,95.996c49.004,49.004,90,96.006,90,102.998c0,8.008,2.998,14.004,7.998,14.004
			c4.004,0,7.002,14.004,7.998,30c1.006,17.002,0,30-0.996,30S7627.998,5117.997,7620.996,5102.997z"/>
		<path d="M7595,5002.997c-20.996-27.002-67.002-75.996-104.004-110c-35.996-35-60-62.998-51.992-62.998
			c18.994,0,163.994,147.998,185,187.998C7647.001,5062.001,7639.003,5057.997,7595,5002.997z"/>
		<path d="M4555,4905.995c10-13.994,19.004-25.996,22.002-25.996c7.002,0-17.002,39.004-27.998,45.996
			C4542.998,4929.003,4545.996,4920.995,4555,4905.995z"/>
		<path d="M7590,4907.997c-12.002-22.002-12.002-22.002,5.996-5.996c10,10,15,20,12.002,23.994
			C7604.003,4929.003,7595.996,4920.995,7590,4907.997z"/>
		<path d="M5032.001,4789.003c-7.998-12.002-9.004-18.008-2.998-15c5.996,3.994,10.996-11.006,13.994-36.006
			c2.998-37.998,4.004-35.996,5,15c1.006,31.006,1.006,57.002-0.996,57.002C5045.996,4809.999,5039.003,4800.995,5032.001,4789.003z
			"/>
		<path d="M7110.996,4784.003c0-11.006,3.008-14.004,6.006-6.006c2.998,7.002,2.002,16.006-1.006,19.004
			C7112.998,4800.995,7110,4794.999,7110.996,4784.003z"/>
		<path d="M7102.998,4719.999c0-25,2.002-35,4.004-22.002c2.002,12.002,2.002,32.002,0,45
			C7105,4754.999,7102.998,4744.999,7102.998,4719.999z"/>
		<path d="M4477.001,4717.001L4460,4684.999l20,24.004c17.002,20,25.996,40.996,17.998,40.996
			C4495.996,4749.999,4487.001,4734.999,4477.001,4717.001z"/>
		<path d="M7660.996,4729.999c15-32.002,82.002-119.004,92.002-120c4.004,0-12.002,24.004-35,52.998
			c-23.994,30-48.994,62.002-55.996,72.998C7652.001,4752.001,7650.996,4750.995,7660.996,4729.999z"/>
		<path d="M4414.003,4634.003c-49.004-59.004-57.002-79.004-38.008-99.004c8.008-7.998,13.008-19.004,9.004-25
			c-7.002-10.996,7.998-35.996,82.002-137.002c78.994-107.002,180-202.998,215.996-202.998c17.002,0,5,17.998-15.996,24.004
			c-35,7.998-102.002,70-172.002,160.996c-74.004,95-92.998,132.998-95.996,197.002c-2.002,37.998,2.998,52.002,30,87.002
			C4472.998,4694.999,4460.996,4690.995,4414.003,4634.003z M4387.001,4547.997c-2.998-7.998-6.006-5-6.006,6.006
			c-0.996,10.996,2.002,16.992,5,12.998C4389.003,4564.003,4390,4554.999,4387.001,4547.997z"/>
		<path d="M5045,4659.999c2.998-5,7.998-10,10.996-10c2.002,0,4.004,5,4.004,10c0,5.996-5,10-10.996,10
			C5044.003,4669.999,5042.001,4665.995,5045,4659.999z"/>
		<path d="M7090,4614.999c-0.996-15.996-5-65-9.004-107.998c-5.996-71.006-5-79.004,14.004-95c19.004-16.006,19.004-16.006,5,0.996
			c-14.004,19.004-15,66.006-0.996,142.002c3.994,22.002,3.994,50.996,0,65C7092.001,4644.003,7092.001,4644.003,7090,4614.999z"/>
		<path d="M5054.003,4574.999c2.998-15.996,7.998-54.004,10.996-84.004c2.002-28.994,7.002-55.996,10.996-60
			c4.004-2.998,4.004,30,0,74.004c-2.998,42.998-10.996,84.004-16.992,90C5050.996,4602.001,5050,4597.001,5054.003,4574.999z"/>
		<path d="M7723.71,4445.165c-18.77-33.428-48.154-73.223-94.707-131.162c-93.008-113.008-148.008-141.006-244.004-121.006
			l-30,6.006l30-14.004c82.002-37.998,149.004-2.998,264.004,140c73.994,90.996,112.998,154.004,115,182.002
			c0,12.998,6.992,25,13.994,27.998c16.006,5.996,15,40-2.002,54.004c-11.992,10-15,0.996-20.996-48.965
			c-3.555-29.707-27.539-62.852-28.799-89.766c-1.709-36.436,29.209-73.184,47.168-104.961
			c42.363-74.971,84.697-150.146,116.631-230.313"/>
		<path d="M5025,4379.999c-10-10.996-15.996-22.002-14.004-24.004c2.002-1.992,12.002,7.002,22.002,20
			C5055,4404.999,5050,4407.997,5025,4379.999z"/>
		<path d="M7172.656,4322.733c8.564-7.822,14.775-12.734,16.348-12.734c2.998,0-13.008,17.998-34.004,40s-40.996,40-44.004,40
			c-2.998,0,13.008-17.998,34.063-40.068c55.244-57.861,18.389-201.553,26.211-280.811c9.756-98.828,41.66-200.645,43.73-299.121"/>
		<path d="M7797.001,4309.999c2.998-10.996,8.994-22.002,12.998-25c5-2.998,5.996,4.004,2.998,15s-8.994,22.002-12.998,25
			C7795,4327.997,7794.003,4320.995,7797.001,4309.999z"/>
		<path d="M4345,4309.003c-4.004-6.006-5-12.002-2.002-15c2.002-3.008,7.002,1.992,10,10.996
			C4360,4322.001,4354.003,4324.999,4345,4309.003z"/>
		<path d="M5081.665,4474.97c-19.59-51.016-37.056-102.5-75.845-143.408c-23.115-24.375-58.232-35.322-79.321-60.713
			c11.421,2.422,20.088,9.912,28.501,19.15c22.998,25,17.002,25-14.004,0c-6.636-5.615-11.445-10.703-13.901-14.346"/>
		<path d="M7190,4295.995c0-1.992,7.002-6.992,15.996-10c8.008-2.998,12.002-1.992,9.004,4.004
			C7209.003,4299.999,7190,4304.003,7190,4295.995z"/>
		<path d="M4279.414,4152.685c0.859,1.768,1.719,3.535,2.588,5.313c27.002,57.002,47.998,105,45.996,107.002
			c-2.002,2.998-35.996-62.002-75-142.998c-66.997-140-101.997-236.006-90-247.998c3.003-3.008,7.998,9.99,11.997,27.979
			c16.997,76.465,55.669,154.219,91.157,223.35c51.323,99.99,92.729,206.104,148.848,304.668"/>
		<path d="M7235,4259.999c7.002-10.996,105-62.998,110-57.998c2.002,2.002-24.004,17.998-55.996,35.996
			C7255.996,4255.995,7232.001,4265.995,7235,4259.999z"/>
		<path d="M7822.998,4262.997c12.998-25,107.998-225.996,126.006-265.996c10.996-26.006,22.998-62.998,26.992-82.998
			c3.008-19.004,11.006-37.002,17.002-41.006c14.004-7.998,2.002,37.002-28.994,112.002c-14.004,32.998-26.006,65-27.002,70.996
			c-2.002,6.006-9.004,22.002-17.998,35c-8.008,13.008-32.002,59.004-53.008,102.002c-20,42.002-40,77.002-41.992,77.002
			C7820.996,4269.999,7820.996,4267.001,7822.998,4262.997z"/>
		<path d="M4880,4242.997c-12.998-8.994-60-30-104.004-45c-50-17.002-66.992-25.996-45-22.998c20,2.002,56.006,12.998,80,22.998
			c52.002,22.998,118.008,62.002,104.004,62.002C4909.003,4259.999,4894.003,4252.001,4880,4242.997z"/>
		<path d="M7172.001,4160.995c-1.006-46.992,2.002-80.996,5.996-75c5,5,5,43.008,2.002,84.004l-7.002,75L7172.001,4160.995z"/>
		<path d="M4979.003,4182.001c-3.008-20-2.002-29.004,3.994-22.998c5,5,7.002,18.994,5,31.992
			C4985,4210.995,4982.998,4209.999,4979.003,4182.001z"/>
		<path d="M4970,4100.995c0-21.992-9.004-110.996-20.996-197.998c-23.008-182.002-43.008-232.998-124.004-317.998
			c-47.998-50.996-172.998-132.998-217.998-144.004c-12.002-2.998-51.006-5.996-87.002-5.996c-70,0-65.996-2.002-164.004,87.002
			c-45.996,40-127.998,170-130,203.994c0,12.002-5,22.002-10.996,21.006c-12.998-2.002-57.002-105-52.002-120
			c2.002-7.002,13.003,12.002,24.004,42.002l20,53.994l25.996-52.002c44.004-85.996,85-138.994,154.004-195
			c70-57.998,105.996-70.996,167.002-55.996c21.992,5,41.992,7.998,45,7.002c10.996-2.998,110.996,47.002,110.996,55
			c0,3.994,5,7.998,10.996,7.998c12.002,0,78.008,47.998,96.006,70c10.996,12.998,13.994,12.998,23.994,0
			c9.004-12.998,10-12.998,5,2.002c-1.992,8.994,5,32.002,17.002,50c65,97.002,80,132.002,87.998,212.002
			c5,45,11.006,90.996,13.008,102.998c8.994,42.998,18.994,212.998,11.992,212.998C4972.998,4139.999,4970,4122.001,4970,4100.995z"
			/>
		<path d="M7180,4044.003c0-16.006,5-63.008,10-104.004c5.996-40.996,12.998-104.004,15.996-139.004
			c3.008-38.994,11.006-70,22.002-80c15-15,15-13.994,7.998,4.004c-5,10.996-10.996,34.004-12.998,50
			c-2.002,17.002-7.998,62.002-12.998,100c-5,39.004-12.002,97.002-15.996,130C7187.001,4069.999,7180,4090.995,7180,4044.003z"/>
		<path d="M4167.001,3839.999c6.997-9.004,12.998-27.998,15-42.002c1.997-15,7.998-30.996,11.997-35c5-3.994,5,7.998,1.001,27.002
			s-13.999,42.002-22.998,50C4157.998,3852.997,4157.001,3852.997,4167.001,3839.999z"/>
		<path d="M7990.996,3834.003c0-11.006,3.008-14.004,6.006-6.006c2.998,7.002,2.002,16.006-1.006,19.004
			C7992.998,3850.995,7990,3844.999,7990.996,3834.003z"/>
		<path d="M7960,3797.001c-7.002-26.006-17.002-50-20.996-52.998c-5-3.008-9.004-12.002-9.004-19.004
			c0-35.996-117.002-200-170.996-240c-8.008-5.996-27.002-20-43.008-32.998c-93.994-72.998-346.992,43.994-442.998,205.996
			c-37.998,64.004-38.994,51.006-0.996-17.998c17.998-32.998,35.996-60,40-60c3.994,0,5.996-5.996,3.994-12.002
			c-0.996-7.002-0.996-10,1.006-5.996c2.998,3.994,32.002-14.004,65.996-39.004c82.998-60,142.002-88.994,207.002-100.996
			c75.996-14.004,110-6.006,155.996,33.994c21.006,19.004,51.006,46.006,66.006,59.004
			c27.998,24.004,107.998,142.998,120.996,179.004c10,25,21.006,12.998,46.006-49.004c11.992-29.004,20-40.996,20-29.004
			c0.996,11.006-10,42.002-23.008,68.008c-21.992,43.994-22.998,50-10,93.994c8.008,25,13.008,51.006,11.006,56.006
			S7967.998,3822.997,7960,3797.001z"/>
		<path d="M4152.06,3084.687c2.476-26.23,5.171-40.82,7.939-37.686c3.999,3.994,2.998,80-2.002,167.998
			s-6.997,212.998-3.999,277.998c3.003,64.004,3.999,117.002,2.002,117.002c-2.002,0-6.001-10-10-22.002
			c-27.456-105.908-6.001-241.992-2.295-349.922c2.017-58.691,6.841-117.686,4.038-175.302
			c-2.646-54.375,12.979-151.816,67.256-181.133"/>
		<path d="M7992.998,3314.999c-0.996-165,2.002-272.998,7.998-269.004c5,3.008,9.004-11.992,9.004-31.992
			c0-53.008,9.004-37.002,15,26.992c4.004,41.006,2.998,50-5,39.004s-9.004,42.002-4.004,195.996
			c6.006,198.008,1.006,314.004-13.994,314.004C7997.998,3589.999,7994.003,3465.995,7992.998,3314.999z"/>
		<path d="M4832.001,3477.997c-22.998-98.994-65-263.994-72.002-282.998c-5-10.996-12.998-45-19.004-75
			c-22.998-119.004-51.992-202.998-86.992-255.996c-21.006-31.006-43.008-58.008-50-61.006c-7.002-2.002-15-10.996-18.008-18.994
			c-10-27.002,30,2.998,65,47.998c19.004,23.994,36.006,45,40,47.998c6.006,4.004,52.002,175,63.008,235.996
			c1.992,11.006,17.998,72.002,35,135c35.996,135,62.998,260,56.992,266.006C4844.003,3519.999,4837.001,3502.001,4832.001,3477.997
			z"/>
		<path d="M7495.39,2845.331c30.625-37.432,67.715-75.332,77.607-75.332c6.006,0-7.002,19.004-30,42.998
			c-68.994,71.006-75.996,87.002-138.994,342.002c-4.004,17.002-8.008,35-9.004,40c-2.002,5.996-17.002,65.996-35,135
			s-35,137.002-37.002,152.998c-2.998,15-8.994,27.002-12.998,27.002s-5-15,0-32.002
			c42.988-187.959,133.965-548.828,143.994-572.978c11.025-26.523,33.018-46.357,44.17-72.588
			c16.035-37.725,22.793-84.082,33.252-123.838c21.777-82.832,41.387-167.354,38.584-253.594"/>
		<path d="M4122.998,3069.003c4.004-13.008,7.002-32.002,7.002-41.006c0-10,3.999-17.998,7.998-17.998
			c11.001,0,2.002,69.004-10.996,77.002C4121,3090.995,4118.999,3084.999,4122.998,3069.003z"/>
		<path d="M4141,2984.003c0-11.006,2.998-14.004,6.001-6.006c2.998,7.002,1.997,16.006-1.001,19.004
			C4142.998,3000.995,4140,2994.999,4141,2984.003z"/>
		<path d="M4170,2939.003c0-15,132.002-150,175.996-179.004c35-25,49.004-27.998,100-25.996
			c57.002,2.998,122.002,20.996,111.006,31.992c-2.002,3.008-30-1.992-60-10.996c-92.998-27.002-117.002-17.002-229.004,95
			C4214.003,2902.997,4170,2942.997,4170,2939.003z"/>
		<path d="M7967.998,2935.995c-7.002-6.992-32.998-36.992-57.998-65.996c-97.002-112.002-160-140.996-245.996-115
			c-61.006,17.998-74.004,17.998-51.006,0.996c27.002-20.996,107.998-28.994,156.006-15.996
			c31.992,7.998,60.996,30.996,120.996,90.996c70.996,71.006,110,119.004,95.996,119.004
			C7984.003,2949.999,7975,2944.003,7967.998,2935.995z"/>
		<path d="M4158.999,2792.997c0-65-1.997-148.994-3.999-187.998c-2.002-45,0-59.004,3.999-40c8.999,35,13.999,345,6.001,345
			C4162.001,2909.999,4160,2857.001,4158.999,2792.997z"/>
		<path d="M7989.003,2852.997c-4.004-192.998,1.992-317.998,20-377.998l8.994-30l1.006,32.002
			c0.996,17.002-3.008,42.998-9.004,57.002c-5.996,15.996-5.996,26.992,0,30.996s9.004,17.998,9.004,32.998l-1.006,27.002l-7.998-30
			c-7.998-30.996-14.004,115.996-10,247.998c0.996,37.002-0.996,67.002-4.004,67.002
			C7992.998,2909.999,7989.003,2884.003,7989.003,2852.997z"/>
		<path d="M7520.996,2734.003c0-11.006,3.008-14.004,6.006-6.006c2.998,7.002,2.002,16.006-1.006,19.004
			C7522.998,2750.995,7520,2744.999,7520.996,2734.003z"/>
		<path d="M4620.996,2714.003c0-11.006,3.008-14.004,6.006-6.006c2.998,7.002,2.002,16.006-1.006,19.004
			C4622.998,2730.995,4620,2724.999,4620.996,2714.003z"/>
		<path d="M7532.001,2684.999c0-15.996,2.002-22.002,5-12.002c2.002,9.004,2.002,22.998,0,30
			C7534.003,2709.003,7532.001,2702.001,7532.001,2684.999z"/>
		<path d="M7535.996,2635.995c3.008-6.992,11.006-60,19.004-116.992c12.998-94.004,14.004-97.002,10-29.004
			c-5.996,99.004-15.996,160-25.996,160C7534.003,2649.999,7532.998,2644.003,7535.996,2635.995z"/>
		<path d="M4136.557,2469.765c-0.845-7.109-1.777-13.701-2.559-18.77c-1.997-13.994-1.001-21.992,2.002-17.998
			c8.999,9.004,17.998,97.002,10,97.002c-3.003,0-6.001-11.992-7.002-26.992c-4.199-62.832-14.199-144.004,61.001-168.008"/>
		<path d="M4058.999,2437.997c0-2.002-2.998-13.994-5-27.002c-1.997-13.994-10-31.992-16.997-40
			c-7.002-8.994-35-61.992-61.001-117.998C3925,2144.003,3925,2147.001,3945,2019.999c13.999-92.002,17.998-105,31.001-124.004
			c7.998-10.996,13.999-30,13.999-40.996c1.001-17.998,2.002-17.998,15,5c15,25.996,21.001,54.004,7.002,32.002
			c-16.001-24.004-40,87.998-44.004,202.998c-1.997,50.996,5,77.002,44.004,175c47.998,120,63.999,170,53.999,170
			C4062.998,2439.999,4060,2439.003,4058.999,2437.997z"/>
		<path d="M8022.001,2419.999c0-14.004,2.002-19.004,5-12.002c2.002,6.006,2.002,17.998,0,25
			C8024.003,2439.003,8022.001,2434.003,8022.001,2419.999z"/>
		<path d="M8090.996,2422.001c0-12.998,22.002-81.006,50-150l50-126.006l-7.998-85c-3.994-46.992-7.002-91.992-5.996-97.998
			c0-7.002-2.998-12.998-9.004-12.998c-5,0-5.996-5-2.998-10.996c4.004-6.006-0.996-17.002-10.996-25
			c-11.006-9.004-14.004-13.008-9.004-11.006c5.996,2.998,10-10,9.004-30.996c-2.002-32.998-1.006-35,11.992-17.998
			c7.002,10,11.006,22.998,8.008,26.992c-3.008,5,0,9.004,6.992,9.004c7.002,0,10,2.998,6.006,5.996
			c-2.998,3.008-1.006,18.008,3.994,33.008c6.005,13.994,12.001,41.992,15,60.996c2.002,19.004,7.002,52.998,11.006,75
			c10,60.996,3.994,94.004-30,170c-17.002,39.004-34.004,72.002-37.002,75c-9.004,9.004-44.004,84.004-50.996,110
			C8092.001,2444.999,8092.001,2444.999,8090.996,2422.001z"/>
		<path d="M4128.056,2413.075c-0.972,3.369-2.524,5.459-5.42,4.326c-1.133-7.803-1.982-13.652-0.176-21.289
			c24.57,31.758,29.658,102.881,33.54,142.148c8.926,90.215,14.346,186.123,12.334,276.709"/>
		<path d="M7905,2294.003c-55-57.002-97.998-104.004-95-104.004s45,39.004,94.004,85c48.994,47.002,90,84.004,91.992,82.002
			c2.002-2.002,5-12.002,7.002-22.998c2.002-10,9.004-32.002,16.006-49.004c36.992-90,43.994-142.998,32.998-234.004
			c-15-127.998-69.004-237.998-156.006-322.998c-15-15-23.994-27.998-18.994-27.998s20,10.996,32.998,25
			c12.002,12.998,25.996,22.002,30.996,19.004c7.002-4.004,61.006,68.994,67.002,90.996c1.006,5.996,12.998,42.002,26.006,80
			c13.994,39.004,27.998,104.004,31.992,145c3.008,40.996,8.008,77.998,10,80.996c2.002,3.008-15,57.002-36.992,119.004
			c-22.002,62.002-38.008,119.004-35,127.002c2.998,7.002,3.994,12.998,2.998,12.002C8005.996,2399.003,7960,2352.001,7905,2294.003
			z M7965,1779.999c-9.004-17.998-19.004-30-20.996-27.002c-3.008,2.002,2.998,17.998,12.998,35
			C7980,1827.997,7985.996,1820.995,7965,1779.999z"/>
		<path d="M4500,1737.997c-20-20.996-29.004-97.998-12.002-97.998c4.004,0,7.002,15,6.006,34.004c-2.002,37.998,20.996,80,37.998,70
			c7.002-4.004,7.998-2.002,3.994,3.994C4525.996,1764.003,4524.003,1762.997,4500,1737.997z"/>
		<path d="M7635,1744.003c27.002-20,35-142.002,10.996-179.004c-8.994-14.004-13.994-25-11.992-25c2.998,0-2.002-15.996-10-35
			c-7.002-19.004-14.004-40-14.004-47.002c0.996-7.002,14.004,20,30,60c25,65,34.004,117.002,30.996,189.004
			c-0.996,23.994-25.996,52.998-43.994,52.998C7620,1759.999,7624.003,1752.997,7635,1744.003z"/>
		<path d="M4540,1705.995c0-7.998,4.004-16.992,9.004-20c5-3.994,6.992,3.008,3.994,14.004
			C4547.001,1722.997,4540,1725.995,4540,1705.995z"/>
		<path d="M4385.996,1674.003c-2.998-9.004-5.996-23.008-5-32.002c1.006-10,4.004-7.002,8.008,7.998
			c3.994,14.004,12.998,24.004,20,22.002c6.992-1.006,10,2.002,5.996,7.998C4405.996,1694.999,4392.998,1692.001,4385.996,1674.003z
			"/>
		<path d="M7700.996,1634.999c-26.992-60.996-53.994-160-48.994-177.002c2.998-7.002,10,12.002,15.996,42.002
			c17.002,79.004,54.004,169.004,72.002,174.004c12.002,2.998,12.002,3.994-2.002,5
			C7727.001,1679.999,7714.003,1664.003,7700.996,1634.999z"/>
		<path d="M7762.001,1654.999c0-15.996,2.002-22.002,5-12.002c2.002,9.004,2.002,22.998,0,30
			C7764.003,1679.003,7762.001,1672.001,7762.001,1654.999z"/>
		<path d="M4167.001,1652.001c-23.003-26.006-35-62.998-42.002-134.004c-3.999-40.996-2.998-57.998,2.998-47.998
			c6.001,7.998,12.002,40.996,16.001,74.004c5,60.996,28.999,110.996,47.002,100c6.997-4.004,8.999-39.004,3.999-105
			c-3.999-58.008-2.998-99.004,2.002-99.004s10,32.998,10.996,72.998c2.002,39.004,5,79.004,7.998,87.998
			c5,19.004-11.997,69.004-23.994,69.004C4187.001,1669.999,4176,1662.001,4167.001,1652.001z"/>
		<path d="M4435,1652.997c30-72.998,44.004-115,50-153.994c7.002-44.004,10.996-56.006,19.004-48.008c5,5-28.008,134.004-45,174.004
			c-7.002,17.002-12.002,32.998-11.006,37.998c1.006,4.004-2.998,7.002-8.994,7.002
			C4432.001,1669.999,4430.996,1662.997,4435,1652.997z"/>
		<path d="M7950.996,1652.997c-13.994-27.998-15-65.996,0-57.002c6.006,3.008,9.004,14.004,6.006,24.004
			c-2.002,10-1.006,22.998,2.998,30c12.998,20.996,37.998-29.004,49.004-100c15-89.004,13.994-100-6.006-100
			c-15,0-15.996-2.002-2.998-10c17.998-12.002,42.002,15,35.996,39.004c-1.992,8.994-6.992,41.992-10.996,73.994
			c-5,44.004-14.004,66.006-34.004,90C7962.998,1672.997,7962.998,1674.003,7950.996,1652.997z"/>
		<path d="M4290.996,1617.997c1.006-40,2.002-40.996,9.004-12.998c5,17.998,7.998,22.998,9.004,10.996
			c0-10.996,2.998-16.992,5.996-13.994c9.004,7.998-5.996,57.998-15.996,57.998
			C4294.003,1659.999,4290.996,1640.995,4290.996,1617.997z"/>
		<path d="M7845.996,1647.997c-3.994-8.994-2.998-25,3.008-37.002c12.998-23.994,13.994-140,1.992-160
			c-5-7.998-15.996-10.996-25.996-7.998c-15.996,7.002-15.996,21.006-0.996,92.002c13.994,67.998,13.994,74.004-3.008,24.004
			c-10.996-30-20.996-71.006-22.998-89.004c-2.998-30,0-34.004,26.006-37.002c40-5.996,45.996,7.998,45,102.002
			C7867.998,1624.999,7857.001,1675.995,7845.996,1647.997z"/>
		<path d="M4480,1622.001c0-16.006,52.002-156.006,62.002-167.002c7.998-9.004-50,164.004-57.998,174.004
			C4482.001,1630.995,4480,1627.997,4480,1622.001z"/>
		<path d="M4570.996,1599.999c15-45,24.004-54.004,15-15c-3.994,17.002-11.992,34.004-16.992,40
			C4564.003,1629.999,4565,1619.003,4570.996,1599.999z"/>
		<path d="M4380.996,1602.001c-0.996-12.998,8.008-42.998,19.004-67.998c10.996-24.004,25-55,30-69.004s14.004-25,19.004-25
			s-4.004,25-21.006,55.996c-15.996,32.002-32.998,73.008-37.002,93.008C4385,1614.003,4382.001,1617.997,4380.996,1602.001z"/>
		<path d="M7565,1574.999c-9.004-25.996-15-47.998-12.002-50.996c2.998-3.008,12.002,15.996,21.006,41.992
			C7595,1627.997,7587.998,1634.003,7565,1574.999z"/>
		<path d="M7760,1589.999c0-15.996,2.002-30,4.004-30c1.992,0,5.996,14.004,7.998,30c2.998,17.002,0.996,30-4.004,30
			C7764.003,1619.999,7760,1607.001,7760,1589.999z"/>
		<path d="M4324.003,1564.999c2.998-15.996,8.994-50.996,11.992-77.002c6.006-43.994,5-47.998-13.994-47.998
			c-17.998,0-21.006,7.998-27.002,57.998c-9.004,82.998-15,87.998-12.002,9.004c2.998-72.002,16.006-92.998,47.998-77.002
			c9.004,5,19.004,5.996,23.008,2.002c3.994-2.998,5,7.002,1.992,22.998c-2.998,17.002-7.998,47.998-11.992,70
			c-3.008,22.002-10,47.002-16.006,55C4322.001,1590.995,4320,1585.995,4324.003,1564.999z"/>
		<path d="M7947.998,1554.003c-5-28.008,2.998-114.004,12.002-114.004c4.004,0,5.996,27.998,4.004,62.002
			C7960,1564.999,7954.003,1584.999,7947.998,1554.003z"/>
		<path d="M4590,1540.995c0-5.996,4.004-12.998,10-15.996s7.002,0.996,4.004,9.004C4597.001,1552.001,4590,1554.999,4590,1540.995z"
			/>
		<path d="M7729.003,1502.997c-11.006-27.002-27.002-53.994-36.006-60c-8.994-7.002-12.002-12.998-5.996-12.998
			c15.996,0,37.998,30.996,55,77.998C7764.003,1564.999,7754.003,1560.995,7729.003,1502.997z"/>
		<path d="M4205,1479.999c-17.222-17.734-44.844-42.705-65-20"/>
		<path d="M4219.003,1334.003c-4.004-61.006,1.992-137.002,16.992-197.002c9.004-37.002,18.008-66.006,21.006-64.004
			c2.002,2.998-2.002,32.002-10,64.004c-7.002,32.998-15,93.994-16.006,133.994
			C4229.003,1339.999,4222.001,1377.001,4219.003,1334.003z"/>
		<path d="M4615,1160c7.998-25.996,34.004-70,40.996-70c5,0-35,82.002-42.998,90C4610,1182.998,4610.996,1174.003,4615,1160z"/>
		<path d="M7525,1160c-2.998-5-0.996-10,4.004-10c5.996,0,10.996,5,10.996,10c0,5.996-2.002,10-4.004,10
			C7532.998,1170,7527.998,1165.996,7525,1160z"/>
		<path d="M4375.996,1065.996c-50-48.994-7.998-106.992,58.008-81.992c16.992,6.992,40.996,11.992,53.994,10.996
			c12.002-0.996,25,2.002,29.004,7.998c5,9.004-17.998,7.002-107.998-8.994c-33.008-5-37.002-4.004-41.006,20
			c-7.998,40.996,12.002,58.994,60,53.994c22.998-2.002,42.002,0,42.002,4.004c0,5-5.996,7.998-12.002,7.998
			c-7.002,0-22.998,2.998-35,5.996C4407.998,1090,4394.003,1084.003,4375.996,1065.996z"/>
		<path d="M7789.003,1025c-4.004-32.998-9.004-34.004-108.008-19.004c-30,4.004-41.992,3.008-36.992-3.994
			c3.994-6.006,18.994-11.006,33.994-11.006s42.998-2.998,62.998-5.996c41.006-7.998,63.008,10,57.002,47.002
			C7794.003,1052.001,7792.998,1050.996,7789.003,1025z"/>
	</g>
	<path d="M512.813,1540.879c0,0-0.062-2.004,0-1.629s0,2.25,0,2.25"/>
</g>
</svg>
