<svg version="1.0" xmlns="http://www.w3.org/2000/svg"
 width="1200.000000pt" height="1600.000000pt" viewBox="0 0 1200.000000 1600.000000"
 preserveAspectRatio="xMidYMid meet">

<g transform="translate(0.000000,1600.000000) scale(0.100000,-0.100000)"
fill="#000000" stroke="none">
<path d="M5949 9636 c-3 -4 -71 -7 -151 -7 -182 0 -241 -18 -347 -104 -39 -31
-71 -61 -71 -66 0 -12 7 -11 33 2 21 11 21 11 6 -7 -8 -10 -37 -44 -63 -74
-27 -30 -62 -79 -78 -107 -17 -29 -36 -53 -43 -53 -15 0 -139 -219 -197 -350
-31 -69 -38 -96 -36 -143 1 -38 -4 -63 -14 -75 -29 -34 -87 -138 -114 -207
-39 -97 -71 -152 -93 -158 -10 -2 -30 -20 -44 -38 -36 -48 -161 -280 -197
-366 -40 -97 -101 -307 -89 -311 22 -8 -4 -142 -27 -142 -17 0 -26 -23 -60
-140 -23 -83 -63 -290 -68 -360 -2 -19 -11 -98 -20 -175 -11 -88 -14 -168 -11
-215 4 -41 8 -140 10 -220 5 -160 13 -309 19 -319 3 -3 7 -49 11 -101 4 -52
10 -99 13 -105 4 -5 8 -21 9 -35 1 -14 7 -52 12 -85 20 -109 29 -192 24 -216
-3 -15 9 -49 30 -90 l35 -66 23 40 c12 23 24 36 27 29 2 -7 12 -12 23 -12 16
0 19 -7 19 -44 0 -25 4 -47 10 -51 5 -3 7 -12 4 -19 -6 -16 55 -140 88 -178
43 -49 120 -94 174 -101 41 -6 66 -2 139 23 50 17 117 38 149 46 65 17 85 35
86 75 0 14 3 29 7 33 5 4 8 51 8 104 0 99 11 144 26 106 4 -10 8 -33 8 -51 1
-44 18 -36 74 35 25 31 59 73 77 92 17 19 40 51 50 70 30 61 69 192 80 275 18
135 42 201 102 277 52 66 308 710 310 781 1 15 4 30 9 32 4 3 5 13 2 23 -2 10
1 31 8 47 6 17 14 50 16 75 2 25 16 101 30 170 33 161 43 350 19 369 -25 21
-20 33 32 84 l48 47 49 -50 49 -50 -18 -49 c-16 -46 -16 -58 -2 -187 8 -76 13
-141 10 -145 -2 -4 0 -10 5 -13 8 -5 17 -41 27 -111 1 -11 12 -62 24 -113 11
-52 19 -99 18 -105 -5 -22 50 -199 109 -347 112 -285 168 -410 209 -470 54
-80 80 -152 94 -262 16 -128 70 -281 121 -340 13 -15 42 -48 64 -74 22 -26 52
-61 68 -77 l27 -30 1 39 c0 21 4 48 8 58 15 38 26 -6 27 -104 0 -52 4 -103 8
-113 5 -10 6 -20 3 -24 -4 -3 0 -18 8 -33 11 -22 26 -31 67 -40 29 -7 98 -28
153 -47 82 -27 108 -32 150 -26 53 7 130 52 173 101 29 34 91 153 92 178 2 75
13 110 36 121 22 10 26 8 46 -28 l22 -40 16 38 c8 21 23 50 33 64 12 18 16 39
14 64 -3 33 2 69 34 230 5 28 12 79 15 115 2 36 9 80 15 99 6 18 9 50 5 70 -3
21 -1 53 5 72 11 34 23 349 22 569 -1 158 -11 307 -24 355 -17 61 -19 75 -30
150 -5 38 -11 77 -14 86 -3 10 -8 26 -10 36 -14 59 -45 165 -52 176 -4 6 -15
12 -23 12 -19 0 -49 127 -31 133 17 6 14 20 -24 148 -58 189 -226 509 -300
570 -42 34 -64 71 -108 181 -14 33 -46 94 -73 135 -43 66 -47 78 -46 126 2 42
-5 70 -34 135 -52 121 -184 357 -198 357 -7 0 -18 11 -24 24 -15 33 -104 156
-113 156 -3 0 -19 16 -34 36 -25 33 -26 35 -5 24 39 -21 36 0 -5 36 -119 103
-170 125 -295 129 -47 1 -175 6 -285 10 -110 4 -203 5 -206 1z m-1059 -4070
c0 -8 -4 -18 -10 -21 -5 -3 -10 3 -10 14 0 12 5 21 10 21 6 0 10 -6 10 -14z
m2390 -7 c0 -11 -4 -17 -10 -14 -5 3 -10 13 -10 21 0 8 5 14 10 14 6 0 10 -9
10 -21z"/>
</g>
</svg>
