<?xml version="1.0" standalone="no"?>
<!DOCTYPE svg PUBLIC "-//W3C//DTD SVG 20010904//EN"
 "http://www.w3.org/TR/2001/REC-SVG-20010904/DTD/svg10.dtd">
<svg version="1.0" xmlns="http://www.w3.org/2000/svg"
 width="1200.000000pt" height="1600.000000pt" viewBox="0 0 1200.000000 1600.000000"
 preserveAspectRatio="xMidYMid meet">

<g transform="translate(0.000000,1600.000000) scale(0.100000,-0.100000)"
fill="#000000" stroke="none">
<path d="M5930 13954 c-115 -13 -261 -53 -310 -85 -14 -9 -46 -28 -71 -42 -81
-46 -147 -105 -209 -189 -142 -191 -178 -325 -178 -663 0 -197 -2 -215 -26
-287 -13 -42 -32 -91 -41 -108 -20 -39 -16 -60 29 -134 77 -127 310 -309 546
-425 30 -15 101 -51 158 -80 121 -62 203 -78 326 -62 66 8 96 20 253 101 182
94 196 103 318 182 89 58 124 87 205 168 97 96 169 217 141 234 -5 3 -25 51
-45 105 -35 95 -37 105 -35 218 2 250 0 304 -21 419 -11 65 -24 121 -28 124
-4 3 -27 46 -52 95 -37 73 -62 107 -135 180 -96 96 -99 98 -215 156 -116 58
-139 66 -230 85 -109 21 -235 24 -380 8z m-733 -1006 c-3 -8 -6 -5 -6 6 -1 11
2 17 5 13 3 -3 4 -12 1 -19z"/>
</g>
</svg>
