<?xml version="1.0" standalone="no"?>
<!DOCTYPE svg PUBLIC "-//W3C//DTD SVG 20010904//EN"
 "http://www.w3.org/TR/2001/REC-SVG-20010904/DTD/svg10.dtd">
<svg version="1.0" xmlns="http://www.w3.org/2000/svg"
 width="1200.000000pt" height="1600.000000pt" viewBox="0 0 1200.000000 1600.000000"
 preserveAspectRatio="xMidYMid meet">

<g transform="translate(0.000000,1600.000000) scale(0.100000,-0.100000)"
fill="#000000" stroke="none">
<path d="M5885 13960 c-113 -16 -274 -80 -376 -149 -104 -70 -244 -246 -295
-371 -40 -100 -56 -234 -55 -467 l1 -211 -42 -109 c-23 -59 -42 -115 -42 -124
2 -25 73 -127 135 -194 108 -115 305 -240 644 -411 l110 -55 120 3 c141 4 134
1 450 178 271 151 365 223 466 355 78 102 86 120 70 158 -8 17 -24 60 -36 95
-12 35 -25 66 -29 69 -3 4 -6 98 -6 210 0 327 -31 483 -126 630 -127 196 -307
321 -544 378 -85 20 -347 29 -445 15z m341 -34 c151 -33 246 -61 290 -86 191
-104 296 -219 382 -416 54 -123 56 -141 54 -390 -3 -269 5 -335 47 -432 l32
-72 -32 -62 c-42 -84 -149 -189 -274 -270 -113 -74 -400 -230 -466 -254 -25
-9 -92 -18 -155 -21 -147 -7 -207 11 -424 129 -255 139 -329 189 -431 291 -52
51 -119 158 -119 190 0 8 11 39 25 69 24 53 38 110 50 200 3 24 1 115 -4 203
-8 152 0 267 25 349 11 36 100 210 132 257 85 125 320 279 467 306 105 19 334
24 401 9z"/>
</g>
</svg>
