<svg version="1.0" xmlns="http://www.w3.org/2000/svg"
 width="1200.000000pt" height="1600.000000pt" viewBox="0 0 1200.000000 1600.000000"
 preserveAspectRatio="xMidYMid meet">

<g transform="translate(0.000000,1600.000000) scale(0.100000,-0.100000)"
fill="#000000" stroke="none">
<path d="M6295 14223 c-58 -15 -186 -86 -214 -119 -29 -32 -34 -35 -49 -21
-18 15 -138 29 -265 32 -76 1 -172 -24 -191 -50 -7 -10 -34 -19 -71 -24 -66
-8 -100 -23 -190 -85 -33 -23 -72 -46 -86 -53 -39 -16 -149 -150 -185 -224
-25 -51 -72 -175 -88 -234 -8 -29 -71 -115 -85 -115 -9 -1 -31 -13 -49 -29
-29 -25 -32 -31 -22 -56 10 -27 13 -27 61 -22 36 4 60 2 80 -8 15 -8 40 -15
55 -15 23 0 25 -3 20 -25 -3 -14 1 -57 10 -96 14 -60 14 -86 5 -159 -21 -165
-10 -321 33 -461 14 -45 36 -95 49 -112 13 -18 52 -82 86 -144 35 -62 70 -118
77 -124 22 -18 46 17 38 56 -3 17 -7 41 -9 54 -1 14 -12 32 -23 41 -32 26 -48
97 -72 315 -19 182 -14 290 19 404 16 57 35 107 42 111 6 4 41 15 78 25 132
33 197 58 268 101 121 75 222 189 275 312 11 26 30 70 43 97 13 28 29 77 35
110 18 85 27 87 34 9 17 -198 23 -232 56 -300 40 -83 50 -166 26 -211 -15 -29
-15 -33 0 -48 14 -14 19 -14 33 -2 9 8 37 24 62 35 26 11 64 36 86 56 22 20
43 36 47 36 9 0 -13 -40 -31 -59 -25 -24 -46 -61 -39 -68 3 -4 20 8 37 25 17
18 37 32 44 32 7 0 15 4 17 8 2 4 35 23 73 41 85 41 166 101 160 119 -3 7 0
10 5 7 14 -9 100 114 113 163 6 23 15 42 19 42 19 0 1 145 -27 215 -8 19 -8
19 12 3 11 -10 27 -18 35 -18 45 0 59 -199 19 -264 -27 -43 -26 -62 1 -69 27
-8 20 -16 -15 -19 -26 -2 -36 -12 -19 -20 14 -6 100 -114 131 -165 28 -46 44
-84 56 -133 1 -8 12 -43 24 -77 20 -59 20 -71 12 -370 -10 -313 -17 -370 -52
-408 -21 -24 -59 -126 -59 -161 0 -30 37 -56 61 -44 9 6 25 32 34 60 17 52 23
58 42 39 23 -23 51 8 63 68 7 32 29 105 50 163 62 172 63 178 65 415 2 242 13
412 26 421 5 3 9 20 9 39 0 18 5 35 10 37 9 3 -11 78 -37 138 -3 8 -8 23 -10
33 -12 62 -126 242 -184 288 -23 19 -60 49 -82 67 -22 18 -49 38 -61 44 -37
19 -115 88 -121 108 -3 10 -21 25 -40 34 -19 9 -47 33 -62 53 -34 43 -36 44
-98 88 -92 64 -146 83 -200 68z m-166 -265 c1 -29 -2 -66 -6 -83 -6 -24 -9
-16 -14 45 -3 41 -4 78 -2 83 11 20 20 2 22 -45z"/>
</g>
</svg>
<svg version="1.0" xmlns="http://www.w3.org/2000/svg"
 width="1200.000000pt" height="1600.000000pt" viewBox="0 0 1200.000000 1600.000000"
 preserveAspectRatio="xMidYMid meet">

<g transform="translate(0.000000,1600.000000) scale(0.100000,-0.100000)"
fill="#000000" stroke="none">
<path d="M6295 14222 c-53 -12 -185 -84 -214 -118 -29 -32 -34 -35 -49 -21
-18 15 -138 29 -267 32 -56 1 -89 -6 -165 -32 -52 -19 -108 -37 -125 -42 -41
-11 -89 -36 -160 -85 -33 -23 -72 -46 -86 -53 -39 -16 -149 -150 -185 -224
-38 -76 -77 -169 -94 -222 -19 -60 -60 -127 -78 -127 -10 -1 -31 -13 -49 -28
-24 -21 -31 -33 -26 -50 5 -22 25 -28 86 -24 15 1 41 -5 57 -13 16 -8 41 -15
56 -15 23 0 25 -3 20 -25 -3 -14 1 -57 10 -96 14 -61 14 -85 4 -168 -12 -102
-7 -290 10 -364 21 -91 50 -170 73 -200 13 -18 52 -82 86 -144 35 -62 70 -118
77 -124 22 -18 46 17 38 56 -3 17 -7 41 -9 54 -1 14 -12 32 -23 41 -23 19 -40
69 -53 160 -30 214 -38 407 -20 506 62 336 112 497 174 566 39 43 69 90 76
117 7 26 44 51 149 102 63 30 142 36 180 13 17 -10 29 -21 26 -26 -6 -10 60
-153 75 -162 6 -4 11 -2 11 4 0 6 13 39 29 73 15 34 34 86 41 115 7 32 17 52
26 52 8 0 14 9 14 20 0 28 17 25 24 -5 4 -14 11 -25 16 -25 6 0 6 9 0 25 -11
30 0 39 26 21 10 -8 24 -12 31 -9 7 3 16 -3 19 -12 5 -13 9 -14 15 -3 7 11 9
11 9 0 0 -10 13 -12 56 -6 34 4 78 2 115 -6 74 -16 220 -88 234 -115 18 -36
120 -143 188 -197 33 -27 107 -151 107 -180 0 -8 8 -25 19 -37 10 -12 32 -72
49 -134 l31 -112 -4 -240 c-7 -350 -16 -428 -56 -470 -39 -43 -70 -174 -45
-194 29 -24 59 -7 79 48 16 41 24 50 38 46 32 -10 61 34 87 130 6 22 30 94 53
160 l43 120 1 225 c1 124 5 269 10 322 7 94 8 97 33 100 39 5 50 31 29 70 -9
18 -22 70 -27 116 -20 157 -27 182 -88 312 -61 131 -120 216 -174 253 -29 21
-63 37 -74 37 -11 0 -65 22 -120 48 -54 27 -133 61 -174 77 -41 15 -86 36
-100 45 -48 32 -125 52 -165 42z m-167 -257 c1 -25 -2 -45 -7 -45 -10 0 -23
69 -15 82 12 19 21 5 22 -37z m-381 -201 c-3 -3 -12 -4 -19 -1 -8 3 -5 6 6 6
11 1 17 -2 13 -5z"/>
</g>
</svg>
