<svg version="1.0" xmlns="http://www.w3.org/2000/svg"
 width="1200.000000pt" height="1600.000000pt" viewBox="0 0 1200.000000 1600.000000"
 preserveAspectRatio="xMidYMid meet">

<g transform="translate(0.000000,1600.000000) scale(0.100000,-0.100000)"
fill="#000000" stroke="none">
<path d="M6170 14192 c-63 -38 -118 -65 -121 -60 -4 6 -19 6 -41 0 -38 -10
-68 0 -68 22 0 22 -34 25 -153 16 -128 -10 -129 -10 -219 -62 -36 -21 -77 -38
-90 -38 -35 -1 -146 -51 -216 -98 -82 -56 -160 -134 -208 -207 -21 -33 -42
-62 -46 -66 -14 -10 -56 -124 -67 -181 -12 -67 -29 -98 -85 -153 -68 -67 -99
-85 -165 -91 -69 -8 -79 -20 -23 -29 36 -6 217 -44 237 -50 6 -2 -3 -4 -20 -5
-30 -2 -30 -2 -5 -10 43 -14 73 -12 67 4 -3 8 1 20 8 26 12 10 16 9 19 -1 15
-47 26 -172 31 -364 6 -210 18 -342 35 -375 4 -8 10 -28 11 -45 2 -16 16 -54
31 -83 15 -29 25 -58 22 -66 -3 -7 3 -19 12 -27 15 -12 17 -12 9 0 -5 10 -4
12 4 7 6 -4 9 -12 5 -17 -9 -15 21 -56 105 -143 74 -76 191 -166 191 -147 0 6
-6 14 -13 18 -22 14 -85 120 -97 161 -10 38 -30 67 -30 43 0 -5 4 -12 9 -15 5
-3 7 -15 4 -25 -3 -10 0 -29 7 -41 10 -19 10 -20 -7 -11 -54 30 -122 134 -182
280 -46 113 -45 109 -67 226 -17 91 -31 485 -18 485 5 0 30 -7 57 -15 56 -17
43 -15 116 -15 l58 0 -25 -72 c-31 -91 -39 -243 -23 -427 17 -190 33 -262 75
-332 20 -33 36 -64 36 -68 0 -4 9 -7 20 -7 26 0 25 10 -5 50 -14 18 -25 38
-25 45 0 6 -9 28 -19 49 -10 20 -24 71 -30 112 -6 41 -18 124 -27 184 -15 103
-15 146 2 318 2 21 13 57 26 80 12 24 23 49 24 57 4 20 24 31 61 31 84 0 234
53 320 111 125 85 252 258 304 414 l13 40 7 -40 c4 -22 10 -58 13 -79 4 -22
16 -76 27 -120 16 -60 19 -94 14 -131 -4 -27 -8 -60 -9 -72 0 -13 -4 -23 -7
-23 -10 0 -7 -34 4 -48 8 -10 23 -5 71 21 33 18 71 34 83 34 20 2 21 -1 10
-18 -6 -10 -15 -19 -19 -19 -4 0 -5 -6 -2 -14 5 -12 16 -8 57 17 29 17 58 37
65 44 7 7 19 13 27 13 7 0 15 5 17 10 2 6 16 13 32 16 81 14 188 84 256 164
49 60 60 64 60 24 0 -12 21 -46 46 -76 25 -29 53 -66 61 -83 9 -16 19 -32 22
-35 4 -3 21 -50 39 -105 18 -55 41 -120 51 -145 12 -28 21 -86 26 -155 7 -112
-8 -245 -51 -438 -14 -68 -62 -176 -92 -209 -14 -17 -13 -18 7 -18 20 0 22 -4
17 -34 -3 -19 -17 -51 -31 -72 -14 -20 -23 -39 -21 -42 3 -2 -7 -15 -22 -28
-22 -21 -18 -19 27 7 82 49 281 260 281 299 0 5 5 10 11 10 5 0 7 4 4 10 -3 5
4 28 16 52 45 88 106 395 93 471 -2 9 1 17 5 17 4 0 5 19 1 43 -10 67 -1 204
20 292 36 152 26 220 -58 395 -76 160 -160 254 -327 366 -55 37 -105 72 -112
78 -6 6 -28 22 -49 36 -20 14 -50 37 -66 53 -17 15 -49 40 -72 56 -23 16 -48
37 -56 46 -22 26 -81 52 -135 59 -49 7 -53 5 -165 -62z m206 20 c25 -16 49
-82 65 -177 18 -107 24 -75 10 50 -5 39 -5 74 -1 78 8 9 101 -90 136 -145 80
-126 127 -240 140 -337 8 -62 -21 -150 -75 -230 -72 -105 -101 -127 -358 -267
-72 -38 -81 -28 -27 29 45 47 31 48 -18 1 -21 -19 -38 -31 -38 -26 0 5 7 15
15 22 35 29 1 20 -69 -19 -81 -44 -95 -49 -77 -27 24 28 22 114 -3 210 -79
294 -57 637 46 733 34 31 156 96 197 104 20 4 38 7 41 8 3 0 10 -3 16 -7z
m-587 -109 c-58 -49 -207 -304 -196 -336 2 -7 13 4 23 24 47 91 70 129 120
199 29 42 62 84 73 94 19 17 19 17 14 -5 -7 -24 -3 -23 50 13 28 20 38 10 11
-13 -15 -12 -54 -81 -54 -95 0 -4 23 16 51 44 101 102 146 101 147 -6 0 -67
-14 -122 -32 -122 -10 0 -56 -85 -71 -130 -7 -22 -18 -48 -26 -62 -13 -25 -11
-32 4 -19 8 6 17 8 21 4 4 -4 4 1 0 11 -5 12 -4 17 3 13 6 -4 15 11 22 34 7
22 16 37 21 34 15 -9 12 -90 -4 -127 -8 -18 -27 -64 -42 -103 -98 -246 -271
-400 -519 -462 -46 -12 -184 -13 -230 -2 l-50 12 93 23 c152 37 317 120 387
195 l40 42 -50 -35 c-70 -49 -144 -89 -255 -136 -119 -50 -170 -64 -185 -52
-7 6 -14 8 -16 6 -11 -9 -119 -15 -119 -6 0 5 7 10 15 10 33 0 155 80 228 149
42 40 77 77 77 82 0 12 -69 -30 -105 -63 -60 -56 -79 -69 -92 -63 -9 3 -11 0
-7 -7 5 -8 2 -9 -9 -5 -10 4 -41 2 -70 -3 -35 -7 -53 -7 -55 0 -5 13 -32 13
-32 0 0 -5 -7 -10 -15 -10 -8 0 -15 4 -15 8 0 5 -32 15 -71 22 l-71 14 47 24
c26 13 59 37 72 53 14 16 30 29 37 29 12 0 56 44 56 56 0 6 102 128 165 199
71 79 166 196 203 251 22 33 66 84 97 112 64 59 186 124 193 103 3 -9 8 -9 21
2 19 18 43 24 94 26 l39 1 -33 -27z m-355 -95 c-10 -13 -26 -30 -34 -39 -33
-35 -57 -67 -105 -139 -27 -41 -56 -81 -62 -88 -7 -7 -59 -70 -117 -140 -111
-135 -196 -224 -196 -204 0 7 5 12 11 12 12 0 53 89 86 190 46 143 151 267
297 354 148 87 149 87 120 54z m1303 -90 c82 -77 231 -288 269 -382 14 -37 28
-65 30 -63 8 8 -38 130 -67 180 -52 89 -69 114 -114 172 -52 66 -50 69 11 21
120 -95 145 -119 179 -172 31 -48 116 -210 114 -216 0 -2 4 -15 9 -29 30 -79
34 -106 22 -155 -19 -81 -29 -170 -35 -344 -14 -348 -68 -560 -188 -735 -66
-94 -147 -165 -114 -97 8 15 13 41 12 57 0 17 12 55 27 85 55 106 87 402 75
682 -2 55 -10 73 -20 46 -2 -7 -7 2 -12 21 -11 53 -64 209 -80 241 -8 15 -37
58 -64 93 -48 62 -50 67 -52 136 -1 40 3 76 9 84 6 7 14 42 17 77 6 54 2 80
-20 155 -41 138 -42 141 -54 164 -17 31 -5 26 46 -21z m-1647 -708 c-8 -5 -26
-9 -40 -9 -23 0 -23 1 -5 9 11 5 29 9 40 9 17 1 17 -1 5 -9z m71 -997 c13 -16
12 -17 -3 -4 -17 13 -22 21 -14 21 2 0 10 -8 17 -17z"/>
<path d="M6567 13965 c5 -27 8 -87 8 -132 0 -44 4 -79 9 -76 12 8 1 216 -13
239 -9 15 -10 9 -4 -31z"/>
<path d="M6572 13720 c0 -14 2 -19 5 -12 2 6 2 18 0 25 -3 6 -5 1 -5 -13z"/>
<path d="M5576 13724 c-9 -24 -2 -26 12 -4 7 11 8 20 3 20 -5 0 -12 -7 -15
-16z"/>
<path d="M5366 13424 c-23 -23 -20 -30 4 -9 11 10 20 20 20 22 0 7 -9 2 -24
-13z"/>
<path d="M7039 13456 c-4 -4 -2 -28 3 -54 6 -26 10 -87 10 -137 0 -74 2 -83 9
-50 12 55 -7 256 -22 241z"/>
<path d="M6961 13004 c0 -11 3 -14 6 -6 3 7 2 16 -1 19 -3 4 -6 -2 -5 -13z"/>
<path d="M4920 13132 c0 -5 9 -12 21 -15 13 -3 19 -1 16 6 -5 15 -37 22 -37 9z"/>
</g>
</svg>
