<svg version="1.0" xmlns="http://www.w3.org/2000/svg"
 width="1200.000000pt" height="1600.000000pt" viewBox="0 0 1200.000000 1600.000000"
 preserveAspectRatio="xMidYMid meet">

<g transform="translate(0.000000,1600.000000) scale(0.100000,-0.100000)"
fill="#000000" stroke="none">
<path d="M6590 9573 c8 -3 24 -10 35 -15 20 -9 20 -9 1 6 -11 9 -27 16 -35 15
-14 0 -14 -1 -1 -6z"/>
<path d="M5485 9543 c-30 -16 -102 -80 -184 -163 -24 -25 -64 -76 -89 -115
-25 -38 -49 -72 -54 -73 -4 -2 -6 -7 -3 -12 3 -4 -3 -7 -12 -6 -10 0 -26 -15
-40 -39 -25 -44 -91 -239 -119 -353 l-18 -74 -32 5 c-17 3 -36 2 -42 -2 -7 -4
-21 -45 -33 -92 -19 -80 -22 -85 -47 -84 -24 0 -29 -6 -49 -65 -11 -36 -24
-88 -28 -117 -6 -41 -11 -52 -29 -57 -15 -4 -38 -41 -86 -143 -36 -75 -84
-166 -108 -202 -51 -77 -70 -112 -107 -206 -65 -163 -105 -376 -97 -514 5 -92
5 -93 -16 -82 -26 14 -33 4 -45 -64 -27 -159 -20 -275 38 -655 19 -124 36
-250 39 -280 2 -30 7 -73 11 -94 7 -33 5 -38 -8 -33 -31 12 -40 -19 -34 -106
4 -46 13 -104 21 -130 12 -41 12 -47 -1 -47 -19 0 -11 -50 24 -165 14 -44 28
-112 33 -151 4 -40 15 -85 24 -100 15 -28 16 -28 22 -7 5 19 12 10 44 -55 l38
-77 7 55 c6 38 10 49 15 35 7 -19 7 -19 17 0 6 11 14 52 18 90 6 67 6 69 -9
42 -8 -15 -18 -44 -22 -63 -3 -19 -9 -32 -12 -29 -3 3 -14 -2 -24 -12 -17 -15
-18 -15 -18 13 0 15 -18 66 -41 112 -45 93 -89 208 -89 234 0 17 10 22 38 19
15 -2 16 -8 -13 74 -16 45 -25 92 -25 133 0 66 1 68 31 52 15 -9 19 -7 20 7 3
45 -4 104 -36 328 -53 362 -54 372 -64 490 -12 130 -12 365 -1 320 7 -28 8
-28 9 -5 0 14 9 30 19 37 16 10 20 30 26 147 8 163 25 257 70 397 43 131 78
207 105 225 12 9 21 20 21 26 0 7 8 30 19 52 10 23 35 76 55 120 20 43 36 82
36 87 0 5 15 29 33 55 l32 46 3 -28 c2 -16 9 -35 15 -42 16 -19 39 13 31 44
-6 24 8 103 33 192 13 48 17 53 41 50 31 -4 44 16 68 105 12 45 19 57 31 53 9
-4 22 -1 29 5 11 9 14 4 15 -27 1 -22 1 -45 0 -51 -1 -7 0 -13 3 -13 11 0 28
88 27 135 -1 28 5 73 13 100 35 128 76 254 96 300 20 48 22 49 33 28 12 -21
14 -20 41 30 42 75 123 180 215 277 44 47 80 90 81 96 0 6 10 16 23 22 12 6
18 11 12 11 -5 0 -23 -7 -40 -16z"/>
<path d="M6660 9535 c7 -8 9 -15 5 -15 -4 0 33 -42 83 -94 95 -100 165 -191
212 -278 l29 -52 12 27 13 28 22 -55 c12 -30 34 -97 49 -148 15 -51 34 -113
42 -138 8 -25 14 -75 14 -111 -1 -37 6 -84 13 -105 l15 -39 0 54 c1 43 4 51
14 43 7 -6 22 -9 33 -6 17 5 22 -4 38 -68 22 -85 27 -92 63 -93 24 0 29 -6 46
-60 11 -33 21 -93 23 -133 3 -81 17 -117 34 -92 5 8 10 23 10 32 0 34 19 28
49 -16 17 -24 28 -46 25 -49 -3 -3 5 -22 18 -44 13 -21 42 -82 63 -137 22 -54
46 -101 53 -103 33 -13 114 -227 147 -388 9 -44 20 -143 24 -221 4 -77 11
-146 15 -152 4 -7 17 -12 28 -12 20 0 21 -2 15 -202 -5 -198 -18 -311 -72
-663 -13 -88 -27 -198 -31 -245 l-7 -85 22 19 c26 24 29 21 35 -35 3 -38 -10
-107 -39 -197 -7 -20 -5 -22 18 -18 23 4 25 1 22 -22 -8 -57 -75 -219 -114
-277 -12 -16 -21 -46 -21 -65 -1 -29 -2 -32 -11 -17 -6 9 -14 15 -20 12 -9 -6
-13 1 -23 45 -3 14 -12 34 -20 45 -15 19 -15 18 -10 -20 10 -70 25 -119 33
-106 11 16 21 -9 21 -50 0 -16 4 -29 8 -29 4 0 23 34 42 76 22 48 36 69 38 57
8 -39 20 -32 35 24 9 32 16 74 16 93 -1 19 6 53 14 75 9 22 23 72 32 110 9 39
18 79 21 89 5 15 2 18 -14 14 -20 -6 -20 -4 -6 36 8 22 19 75 25 116 11 90 -1
141 -32 135 -15 -3 -19 0 -15 13 10 36 26 135 22 141 -3 4 6 76 20 161 57 369
66 459 61 610 -6 168 -14 200 -53 200 l-27 0 6 98 c7 105 1 152 -39 317 -31
126 -67 222 -113 303 -20 35 -42 74 -49 88 -7 13 -17 24 -23 24 -5 0 -9 4 -9
10 0 25 -146 303 -161 307 -12 4 -23 31 -39 101 -28 127 -24 119 -64 136 -32
13 -35 19 -51 90 -20 88 -34 105 -76 89 -32 -12 -27 -21 -59 107 -22 90 -83
266 -108 312 -24 45 -52 70 -52 45 0 -6 -21 24 -47 68 -43 74 -154 197 -250
278 -36 30 -64 38 -43 12z"/>
<path d="M6602 9281 c12 -22 24 -38 26 -36 5 4 -37 75 -44 75 -3 0 6 -18 18
-39z"/>
<path d="M5531 9263 c-10 -26 -10 -27 4 -9 8 11 15 23 15 28 0 15 -7 8 -19
-19z"/>
<path d="M6613 9145 c0 -22 2 -30 4 -17 2 12 2 30 0 40 -3 9 -5 -1 -4 -23z"/>
<path d="M6653 9028 c-6 -7 -13 -25 -15 -40 -5 -25 -3 -26 15 -16 19 10 20 8
13 -23 -4 -24 -3 -30 4 -19 12 19 13 70 1 70 -5 0 -7 9 -4 20 6 23 0 26 -14 8z"/>
<path d="M5492 9006 c2 -16 9 -31 16 -34 17 -5 15 20 -3 44 -15 18 -15 18 -13
-10z"/>
<path d="M5482 8950 c0 -14 2 -19 5 -12 2 6 2 18 0 25 -3 6 -5 1 -5 -13z"/>
<path d="M5486 8803 c-10 -38 -21 -78 -26 -90 -12 -30 4 -83 56 -179 23 -45
41 -84 38 -87 -3 -3 2 -17 12 -32 14 -21 15 -31 7 -45 -7 -10 -8 -21 -3 -26 5
-5 11 -20 14 -34 2 -14 13 -45 25 -70 19 -41 19 -46 4 -57 -32 -25 2 -101 94
-206 32 -36 55 -75 66 -111 20 -63 36 -81 29 -33 l-4 32 38 -35 c21 -19 45
-44 55 -55 9 -11 25 -20 36 -20 13 0 18 -7 18 -26 0 -16 4 -25 11 -22 6 2 16
-3 23 -11 10 -12 9 -20 -4 -43 -9 -15 -14 -20 -11 -10 3 11 2 15 -4 12 -6 -3
-10 -16 -10 -27 0 -11 -7 -26 -16 -33 -15 -10 -15 -13 0 -28 15 -14 15 -20 0
-64 -9 -26 -16 -59 -16 -73 0 -33 -44 -244 -62 -295 -40 -111 -38 -148 6 -124
24 13 23 5 -8 -81 -15 -44 -23 -82 -20 -96 4 -14 1 -34 -6 -47 -6 -12 -17 -44
-24 -72 -10 -42 -48 -130 -153 -360 -11 -22 -27 -58 -37 -80 -10 -22 -31 -62
-47 -90 -16 -27 -36 -67 -43 -88 -8 -22 -26 -53 -40 -70 -23 -27 -25 -32 -10
-35 9 -2 23 2 31 8 13 11 15 6 15 -33 0 -66 -67 -241 -122 -319 -18 -25 4 -47
27 -28 12 10 15 10 15 -4 0 -53 -109 -232 -192 -314 l-63 -63 -8 38 c-16 77
-39 163 -46 167 -8 5 -7 -84 1 -104 4 -8 14 -48 24 -89 l17 -75 23 27 c13 15
31 27 40 27 10 0 26 7 36 17 21 19 24 6 5 -22 -36 -54 -60 -98 -49 -91 8 4 12
1 12 -11 0 -14 3 -13 14 7 7 14 36 62 64 107 27 45 53 98 56 118 4 19 20 57
36 83 33 52 70 150 70 182 0 12 -5 30 -10 41 -9 16 -1 38 38 117 57 113 81
210 64 254 -12 33 -2 71 35 130 13 21 23 39 23 42 0 2 25 56 55 120 30 63 55
118 55 120 0 3 15 36 33 73 18 38 38 86 45 108 39 130 65 235 67 272 1 23 10
60 20 82 21 48 15 71 -20 71 -26 0 -32 9 -16 26 23 25 71 235 86 379 3 33 13
67 22 77 8 9 13 24 10 32 -5 14 78 126 93 126 4 0 21 -20 40 -45 19 -25 36
-45 40 -45 3 0 7 -14 8 -32 2 -18 9 -39 17 -48 8 -9 15 -32 15 -51 0 -89 51
-321 86 -390 13 -25 12 -26 -12 -26 -40 0 -44 -14 -23 -73 11 -30 21 -77 23
-105 10 -126 109 -385 272 -707 41 -82 43 -91 38 -146 -9 -83 24 -190 93 -304
21 -34 21 -39 7 -66 -13 -28 -13 -36 6 -94 12 -35 34 -84 50 -110 15 -25 31
-57 35 -70 17 -56 123 -243 132 -234 3 2 -5 26 -16 51 -26 59 -26 59 2 40 13
-8 27 -12 31 -8 4 5 18 -5 31 -22 27 -33 34 -31 39 11 8 58 19 109 26 119 4 6
8 35 9 65 l2 55 -16 -30 c-9 -16 -22 -63 -28 -102 -6 -40 -16 -73 -22 -73 -7
0 -38 28 -71 63 -69 72 -163 222 -171 274 -5 32 -4 35 15 29 27 -9 38 11 19
32 -41 46 -114 226 -118 287 -3 62 0 78 14 68 6 -6 20 -13 30 -16 20 -8 19 -5
-23 58 -15 22 -31 51 -35 65 -4 14 -30 64 -56 111 -27 48 -49 91 -49 95 0 5
-11 29 -24 54 -13 25 -27 56 -31 70 -4 14 -32 76 -61 138 -30 62 -54 120 -54
130 0 9 -9 40 -20 69 -12 32 -15 53 -9 55 6 2 -1 39 -19 93 -17 50 -29 91 -27
93 2 2 13 -2 25 -8 12 -6 25 -9 28 -5 4 3 -2 36 -12 73 -48 171 -65 245 -71
299 -7 69 -25 144 -36 157 -5 6 -2 17 7 27 15 16 15 20 0 41 -9 12 -16 32 -16
43 0 14 -3 16 -8 7 -6 -9 -12 -6 -20 12 -8 19 -8 27 3 36 8 6 20 8 26 4 9 -5
10 -2 6 11 -8 19 10 48 24 39 5 -3 39 24 74 61 47 48 62 59 55 40 -12 -32 -13
-63 -2 -49 5 5 17 35 28 68 12 38 36 78 67 114 63 72 94 121 100 160 4 23 1
32 -9 32 -19 0 -18 24 6 72 11 23 20 52 20 64 0 12 5 24 12 26 8 3 9 12 0 36
-8 22 -8 32 0 32 5 0 8 7 5 15 -4 8 -1 17 5 21 7 5 8 2 3 -6 -5 -9 -4 -11 4
-6 6 4 9 11 6 16 -3 4 11 39 31 77 59 112 76 177 54 199 -5 5 -12 27 -16 48
-6 40 -21 86 -27 86 -2 0 3 -35 10 -77 18 -103 7 -197 -25 -217 -5 -3 -28 -38
-51 -79 -23 -40 -55 -81 -71 -92 -30 -20 -47 -55 -26 -55 6 0 22 7 34 16 22
15 22 15 22 -30 0 -55 -51 -173 -88 -203 -24 -19 -25 -22 -9 -28 9 -4 24 -5
32 -1 24 9 17 -7 -22 -55 -51 -60 -54 -63 -85 -83 -15 -10 -25 -23 -22 -30 6
-15 -61 -86 -81 -86 -7 0 -18 -13 -25 -30 -15 -35 -47 -44 -161 -43 -113 1
-141 8 -161 43 -10 17 -25 33 -35 37 -26 9 -73 54 -73 70 0 7 -26 39 -58 71
-32 31 -69 72 -82 91 l-23 34 24 -16 c16 -11 29 -13 39 -7 12 8 10 14 -12 37
-39 41 -78 135 -78 189 0 37 3 45 15 40 8 -3 22 -9 30 -12 25 -10 6 26 -34 66
-20 20 -49 60 -65 90 -16 30 -42 71 -57 90 -18 22 -25 36 -18 41 8 4 8 12 1
26 -10 19 -6 74 13 176 12 61 -1 42 -19 -30z"/>
<path d="M5446 8526 c3 -8 13 -17 22 -21 13 -5 13 -2 -3 15 -21 24 -26 25 -19
6z"/>
<path d="M6686 8514 c-23 -23 -20 -30 4 -9 11 10 20 20 20 22 0 7 -9 2 -24
-13z"/>
<path d="M6639 8463 c-13 -16 -12 -17 4 -4 9 7 17 15 17 17 0 8 -8 3 -21 -13z"/>
<path d="M4650 5536 c0 -8 -12 -37 -26 -65 -24 -46 -28 -49 -40 -33 -13 16
-13 16 -14 -3 0 -11 5 -27 10 -35 8 -13 12 -12 30 6 12 11 27 38 34 58 l13 38
7 -51 c4 -28 11 -51 16 -51 13 0 13 80 -1 119 -11 32 -29 42 -29 17z"/>
<path d="M7476 5523 c-17 -87 -18 -123 -4 -123 10 0 15 14 17 42 1 23 4 44 6
46 2 2 12 -16 23 -41 11 -24 25 -48 32 -52 17 -11 32 9 28 36 l-5 24 -11 -25
c-8 -19 -11 -21 -11 -7 -1 18 -28 77 -40 87 -3 3 -6 11 -6 19 0 27 -23 22 -29
-6z"/>
<path d="M7063 5460 c-3 -11 -9 -20 -14 -20 -5 0 -9 -7 -9 -15 0 -8 9 -15 19
-15 11 0 23 -9 26 -20 7 -22 35 -28 35 -6 0 7 -11 29 -24 49 -13 19 -22 38
-18 41 3 3 2 6 -2 6 -4 0 -10 -9 -13 -20z"/>
<path d="M5050 5418 c-21 -47 -9 -66 19 -31 9 11 24 23 35 27 18 6 18 7 1 26
-26 29 -34 25 -55 -22z"/>
</g>
</svg>
