<?xml version="1.0" standalone="no"?>
<!DOCTYPE svg PUBLIC "-//W3C//DTD SVG 20010904//EN"
 "http://www.w3.org/TR/2001/REC-SVG-20010904/DTD/svg10.dtd">
<svg version="1.0" xmlns="http://www.w3.org/2000/svg"
 width="1200.000000pt" height="1600.000000pt" viewBox="0 0 1200.000000 1600.000000"
 preserveAspectRatio="xMidYMid meet">

<g transform="translate(0.000000,1600.000000) scale(0.100000,-0.100000)"
fill="#000000" stroke="none">
<path d="M6295 14222 c-53 -12 -185 -84 -214 -118 -29 -32 -34 -35 -49 -21
-18 15 -138 29 -267 32 -56 1 -89 -6 -165 -32 -52 -19 -108 -37 -125 -42 -41
-11 -89 -36 -160 -85 -33 -23 -72 -46 -86 -53 -39 -16 -149 -150 -185 -224
-38 -76 -77 -169 -94 -222 -19 -60 -60 -127 -78 -127 -10 -1 -31 -13 -49 -28
-24 -21 -31 -33 -26 -50 5 -22 25 -28 86 -24 15 1 41 -5 57 -13 16 -8 41 -15
56 -15 23 0 25 -3 20 -25 -3 -14 1 -57 10 -96 14 -61 14 -85 4 -168 -12 -102
-7 -290 10 -364 21 -91 50 -170 73 -200 13 -18 52 -82 86 -144 35 -62 70 -118
77 -124 22 -18 46 17 38 56 -3 17 -7 41 -9 54 -1 14 -12 32 -23 41 -23 19 -40
69 -53 160 -30 214 -38 407 -20 506 62 336 112 497 174 566 39 43 69 90 76
117 7 26 44 51 149 102 63 30 142 36 180 13 17 -10 29 -21 26 -26 -6 -10 60
-153 75 -162 6 -4 11 -2 11 4 0 6 13 39 29 73 15 34 34 86 41 115 7 32 17 52
26 52 8 0 14 9 14 20 0 28 17 25 24 -5 4 -14 11 -25 16 -25 6 0 6 9 0 25 -11
30 0 39 26 21 10 -8 24 -12 31 -9 7 3 16 -3 19 -12 5 -13 9 -14 15 -3 7 11 9
11 9 0 0 -10 13 -12 56 -6 34 4 78 2 115 -6 74 -16 220 -88 234 -115 18 -36
120 -143 188 -197 33 -27 107 -151 107 -180 0 -8 8 -25 19 -37 10 -12 32 -72
49 -134 l31 -112 -4 -240 c-7 -350 -16 -428 -56 -470 -39 -43 -70 -174 -45
-194 29 -24 59 -7 79 48 16 41 24 50 38 46 32 -10 61 34 87 130 6 22 30 94 53
160 l43 120 1 225 c1 124 5 269 10 322 7 94 8 97 33 100 39 5 50 31 29 70 -9
18 -22 70 -27 116 -20 157 -27 182 -88 312 -61 131 -120 216 -174 253 -29 21
-63 37 -74 37 -11 0 -65 22 -120 48 -54 27 -133 61 -174 77 -41 15 -86 36
-100 45 -48 32 -125 52 -165 42z m-167 -257 c1 -25 -2 -45 -7 -45 -10 0 -23
69 -15 82 12 19 21 5 22 -37z m-381 -201 c-3 -3 -12 -4 -19 -1 -8 3 -5 6 6 6
11 1 17 -2 13 -5z"/>
</g>
</svg>
