<?xml version="1.0" standalone="no"?>
<!DOCTYPE svg PUBLIC "-//W3C//DTD SVG 20010904//EN"
 "http://www.w3.org/TR/2001/REC-SVG-20010904/DTD/svg10.dtd">
<svg version="1.0" xmlns="http://www.w3.org/2000/svg"
 width="1200.000000pt" height="1600.000000pt" viewBox="0 0 1200.000000 1600.000000"
 preserveAspectRatio="xMidYMid meet">

<g transform="translate(0.000000,1600.000000) scale(0.100000,-0.100000)"
fill="#000000" stroke="none">
<path d="M6156 14184 c-49 -30 -92 -54 -96 -54 -5 0 -10 6 -13 13 -7 18 -108
31 -222 28 -97 -2 -195 -17 -195 -30 0 -12 -43 -28 -117 -45 -34 -8 -75 -23
-90 -34 -15 -11 -38 -22 -50 -26 -40 -13 -168 -102 -224 -157 -31 -30 -73 -81
-95 -114 -21 -33 -42 -62 -46 -66 -11 -8 -55 -118 -63 -159 -9 -45 -71 -157
-104 -190 -52 -52 -88 -70 -150 -76 -69 -8 -79 -20 -23 -29 20 -3 84 -17 142
-30 58 -14 117 -25 132 -25 17 0 31 -8 38 -20 13 -25 7 -36 -34 -61 l-31 -19
41 0 42 0 6 -227 c6 -219 19 -361 36 -393 4 -8 10 -28 11 -45 2 -16 16 -54 31
-83 15 -29 25 -58 22 -66 -3 -7 3 -19 12 -27 15 -12 17 -12 9 0 -5 10 -4 12 4
7 6 -4 9 -12 5 -17 -9 -15 21 -56 105 -143 74 -76 191 -166 191 -147 0 6 -6
14 -13 18 -22 14 -85 120 -97 161 -10 38 -30 67 -30 43 0 -5 4 -12 9 -15 5 -3
7 -15 4 -25 -3 -10 0 -29 7 -41 10 -19 10 -20 -7 -11 -54 30 -122 134 -182
280 -23 57 -45 113 -47 125 -21 96 -25 148 -31 346 -6 212 -5 228 13 248 10
12 28 22 39 22 11 0 47 18 80 40 32 21 61 38 63 36 2 -2 -1 -21 -7 -42 -16
-66 -34 -317 -28 -410 17 -290 42 -434 91 -515 20 -33 36 -64 36 -68 0 -4 9
-7 20 -7 26 0 25 10 -5 50 -14 18 -25 38 -25 45 0 6 -9 28 -19 49 -10 20 -24
71 -30 112 -6 41 -18 123 -27 181 -18 123 -9 317 26 543 l20 129 79 131 c43
72 86 148 95 168 17 35 43 57 162 130 22 14 49 28 60 32 11 3 8 4 -8 2 -42 -5
-23 11 21 19 57 9 75 -4 88 -67 6 -29 30 -93 53 -142 37 -78 44 -88 55 -73 17
24 22 21 30 -15 4 -18 13 -40 19 -49 8 -13 11 3 11 70 0 97 39 280 62 288 7 3
19 0 27 -6 19 -16 30 13 15 40 -12 23 -31 16 -22 -9 5 -13 3 -14 -7 -5 -10 9
-8 18 6 45 11 18 22 35 25 38 3 3 14 19 24 37 16 27 17 35 5 62 -16 39 -21 35
-31 -29 -4 -28 -15 -57 -24 -66 -33 -34 -78 -163 -94 -272 -7 -50 -31 -71 -31
-28 0 38 -25 32 -28 -6 -2 -18 -4 -34 -6 -36 -2 -2 -18 34 -36 80 -22 57 -34
107 -37 158 -4 67 -2 78 19 105 67 87 154 153 185 141 13 -5 13 -9 2 -23 -12
-14 -10 -14 14 2 15 10 35 18 45 19 9 0 40 25 67 55 57 61 28 55 -38 -8 -37
-34 -38 -35 -26 -8 7 15 16 27 21 27 5 0 30 19 54 43 25 23 53 45 62 48 46 16
199 -15 285 -58 16 -8 31 -12 34 -9 7 7 -95 52 -161 71 -49 14 -71 19 -126 24
-8 1 1 10 20 21 38 21 96 26 102 10 2 -6 81 -37 176 -69 173 -60 329 -130 356
-160 40 -46 158 -237 193 -311 50 -106 110 -281 122 -356 l8 -57 -56 6 c-30 3
-57 11 -59 17 -2 5 -8 8 -13 4 -5 -3 -9 1 -9 9 0 8 -10 22 -22 33 l-23 19 19
-22 c30 -36 5 -26 -40 15 -39 35 -52 45 -99 82 -41 32 9 -25 77 -88 37 -34 61
-62 53 -62 -20 0 -19 -40 1 -69 16 -23 16 -23 -7 -11 -13 7 -59 37 -101 66
-43 30 -79 54 -82 54 -2 0 -2 -10 1 -22 5 -23 -36 34 -56 78 -28 61 -227 276
-300 324 -13 8 -33 23 -45 33 -31 26 58 -18 104 -52 l35 -25 -24 26 c-30 34
-157 101 -173 92 -7 -4 -8 -3 -4 4 3 6 -2 16 -13 21 -25 14 -34 14 -25 0 4 -8
0 -8 -15 0 -11 7 -21 16 -21 21 0 5 -7 7 -15 4 -8 -4 -21 -2 -28 3 -20 14
-107 8 -107 -8 0 -5 4 -8 9 -5 4 3 28 2 52 -3 25 -5 34 -9 20 -10 -31 -1 -111
-39 -111 -53 0 -5 9 -6 23 -1 38 14 169 6 224 -14 101 -35 266 -186 375 -343
108 -156 126 -211 148 -455 5 -66 13 -142 16 -170 11 -99 -3 -255 -35 -398
-12 -51 -63 -160 -89 -189 -14 -17 -13 -18 7 -18 20 0 22 -4 17 -34 -3 -19
-17 -51 -31 -72 -14 -20 -23 -39 -21 -42 3 -2 -7 -15 -22 -28 -22 -21 -18 -19
27 7 82 49 281 260 281 299 0 5 5 10 11 10 5 0 8 4 4 10 -3 5 6 32 20 59 14
28 25 58 25 68 0 10 9 37 20 61 30 66 53 282 59 551 1 63 1 63 27 57 17 -5 23
-3 19 4 -3 5 -15 10 -26 10 -16 0 -19 7 -19 50 l0 50 60 -1 c34 -1 63 1 66 4
3 3 -13 22 -35 42 -23 21 -41 45 -41 54 0 27 -69 272 -97 341 -37 93 -93 204
-142 283 -47 74 -46 74 -247 168 -182 86 -398 150 -499 148 -11 0 -60 -25
-109 -55z m-336 -63 c0 -5 -13 -14 -30 -20 -16 -5 -30 -13 -30 -17 0 -3 8 -3
18 1 9 4 36 13 59 21 57 17 68 -2 14 -23 -23 -9 -41 -20 -41 -26 0 -5 8 -6 18
-2 9 4 25 10 35 12 9 3 17 8 17 12 0 8 18 11 85 14 43 2 51 -1 62 -23 7 -15 9
-28 3 -36 -6 -6 -7 -14 -3 -17 3 -4 -5 -7 -18 -7 -43 0 -123 -46 -172 -98 -26
-29 -49 -51 -50 -49 -2 1 -11 -5 -20 -14 -9 -9 -54 -38 -99 -64 -100 -57 -153
-92 -187 -124 -29 -27 24 1 189 98 96 56 109 57 110 4 0 -24 -22 -43 -28 -25
-5 16 -45 15 -86 -2 -39 -16 -171 -113 -202 -147 -19 -21 -89 -136 -146 -239
-85 -153 -89 -158 -155 -190 -35 -17 -80 -34 -101 -37 l-37 -6 48 42 c26 24
47 51 47 61 0 18 -8 19 -127 15 -141 -5 -213 6 -193 30 7 8 22 17 33 21 19 6
92 61 133 100 7 6 25 22 42 36 34 28 48 53 108 191 23 53 61 121 85 150 65 78
197 195 296 260 128 84 173 104 173 75 0 -7 7 -5 18 4 9 9 26 18 37 21 35 8
95 7 95 -2z m-361 -85 c-2 -2 -33 -26 -69 -52 -36 -26 -91 -73 -124 -103 -59
-57 -146 -169 -146 -190 0 -6 -4 -19 -9 -29 -6 -9 -25 -51 -45 -92 -33 -71
-117 -172 -131 -158 -4 3 19 60 49 126 31 67 56 125 56 130 0 14 78 123 118
166 47 49 127 109 217 163 58 36 101 55 84 39z m1516 -853 c22 -10 70 -36 108
-57 l67 -38 1 -51 c7 -391 -49 -645 -184 -842 -66 -94 -147 -165 -114 -97 8
15 13 41 12 57 -1 17 9 49 22 73 33 59 52 160 59 310 2 70 6 159 8 197 6 139
-21 405 -50 480 -7 19 -6 19 12 4 10 -9 37 -25 59 -36z m159 21 c9 -3 16 -15
16 -25 0 -16 -3 -18 -19 -10 -20 11 -36 41 -22 41 5 0 16 -3 25 -6z m-1973
-991 c13 -16 12 -17 -3 -4 -17 13 -22 21 -14 21 2 0 10 -8 17 -17z"/>
<path d="M5747 14036 c-15 -7 -25 -15 -21 -19 6 -6 64 19 64 28 0 7 -12 5 -43
-9z"/>
<path d="M5665 13995 c-16 -8 -23 -14 -14 -15 8 0 24 7 35 15 23 18 18 18 -21
0z"/>
<path d="M5955 13919 c-4 -6 -5 -12 -2 -15 2 -3 7 2 10 11 7 17 1 20 -8 4z"/>
<path d="M6122 13894 c10 -10 20 -15 24 -12 3 4 -5 12 -18 18 -22 12 -22 12
-6 -6z"/>
<path d="M6171 13863 c-26 -11 -61 -56 -61 -79 0 -32 6 -30 26 9 9 17 26 42
37 55 21 23 21 24 -2 15z"/>
<path d="M6620 13620 c14 -11 29 -20 34 -20 5 0 -3 9 -17 20 -14 11 -29 20
-34 20 -4 0 3 -9 17 -20z"/>
<path d="M6916 13478 c10 -14 21 -24 23 -22 3 3 -6 15 -18 27 l-24 22 19 -27z"/>
<path d="M6980 13401 c0 -6 4 -13 10 -16 6 -3 7 1 4 9 -7 18 -14 21 -14 7z"/>
</g>
</svg>
