<?xml version="1.0" standalone="no"?>
<!DOCTYPE svg PUBLIC "-//W3C//DTD SVG 20010904//EN"
 "http://www.w3.org/TR/2001/REC-SVG-20010904/DTD/svg10.dtd">
<svg version="1.0" xmlns="http://www.w3.org/2000/svg"
 width="1200.000000pt" height="1600.000000pt" viewBox="0 0 1200.000000 1600.000000"
 preserveAspectRatio="xMidYMid meet">

<g transform="translate(0.000000,1600.000000) scale(0.100000,-0.100000)"
fill="#000000" stroke="none">
<path d="M6295 14223 c-58 -15 -186 -86 -214 -119 -29 -32 -34 -35 -49 -21
-18 15 -138 29 -265 32 -76 1 -172 -24 -191 -50 -7 -10 -34 -19 -71 -24 -66
-8 -100 -23 -190 -85 -33 -23 -72 -46 -86 -53 -39 -16 -149 -150 -185 -224
-25 -51 -72 -175 -88 -234 -8 -29 -71 -115 -85 -115 -9 -1 -31 -13 -49 -29
-29 -25 -32 -31 -22 -56 10 -27 13 -27 61 -22 36 4 60 2 80 -8 15 -8 40 -15
55 -15 23 0 25 -3 20 -25 -3 -14 1 -57 10 -96 14 -60 14 -86 5 -159 -21 -165
-10 -321 33 -461 14 -45 36 -95 49 -112 13 -18 52 -82 86 -144 35 -62 70 -118
77 -124 22 -18 46 17 38 56 -3 17 -7 41 -9 54 -1 14 -12 32 -23 41 -32 26 -48
97 -72 315 -19 182 -14 290 19 404 16 57 35 107 42 111 6 4 41 15 78 25 132
33 197 58 268 101 121 75 222 189 275 312 11 26 30 70 43 97 13 28 29 77 35
110 18 85 27 87 34 9 17 -198 23 -232 56 -300 40 -83 50 -166 26 -211 -15 -29
-15 -33 0 -48 14 -14 19 -14 33 -2 9 8 37 24 62 35 26 11 64 36 86 56 22 20
43 36 47 36 9 0 -13 -40 -31 -59 -25 -24 -46 -61 -39 -68 3 -4 20 8 37 25 17
18 37 32 44 32 7 0 15 4 17 8 2 4 35 23 73 41 85 41 166 101 160 119 -3 7 0
10 5 7 14 -9 100 114 113 163 6 23 15 42 19 42 19 0 1 145 -27 215 -8 19 -8
19 12 3 11 -10 27 -18 35 -18 45 0 59 -199 19 -264 -27 -43 -26 -62 1 -69 27
-8 20 -16 -15 -19 -26 -2 -36 -12 -19 -20 14 -6 100 -114 131 -165 28 -46 44
-84 56 -133 1 -8 12 -43 24 -77 20 -59 20 -71 12 -370 -10 -313 -17 -370 -52
-408 -21 -24 -59 -126 -59 -161 0 -30 37 -56 61 -44 9 6 25 32 34 60 17 52 23
58 42 39 23 -23 51 8 63 68 7 32 29 105 50 163 62 172 63 178 65 415 2 242 13
412 26 421 5 3 9 20 9 39 0 18 5 35 10 37 9 3 -11 78 -37 138 -3 8 -8 23 -10
33 -12 62 -126 242 -184 288 -23 19 -60 49 -82 67 -22 18 -49 38 -61 44 -37
19 -115 88 -121 108 -3 10 -21 25 -40 34 -19 9 -47 33 -62 53 -34 43 -36 44
-98 88 -92 64 -146 83 -200 68z m-166 -265 c1 -29 -2 -66 -6 -83 -6 -24 -9
-16 -14 45 -3 41 -4 78 -2 83 11 20 20 2 22 -45z"/>
</g>
</svg>
