<?xml version="1.0" encoding="utf-8"?>
<!-- Generator: Adobe Illustrator 16.0.0, SVG Export Plug-In . SVG Version: 6.00 Build 0)  -->
<!DOCTYPE svg PUBLIC "-//W3C//DTD SVG 1.1//EN" "http://www.w3.org/Graphics/SVG/1.1/DTD/svg11.dtd">
<svg version="1.1" xmlns="http://www.w3.org/2000/svg" xmlns:xlink="http://www.w3.org/1999/xlink" x="0px" y="0px" width="1200px"
	 height="1600px" viewBox="0 0 1200 1600" enable-background="new 0 0 1200 1600" xml:space="preserve">
<g id="Layer_2">
	<g transform="translate(0.000000,1600.000000) scale(0.100000,-0.100000)" opacity="0.1">
		<path d="M6025,13089.998c-129.004-25-165-32.998-212.002-50c-28.994-11.001-60.996-24.004-70-29.004
			c-10-5.996-60.996-28.994-112.998-50.996c-135.996-60-297.002-140-307.998-152.998c-5-7.002-15-55-21.006-107.002
			c-18.994-162.998-60.996-299.004-130.996-415c-40.996-69.004-60-87.998-162.002-165.996c-53.994-41.006-80-68.008-83.994-87.002
			c-15-69.004-30-99.004-66.006-135c-20.996-21.006-35.996-42.002-32.998-47.998c10-15,85-50,85-40
			c0,5.996,15.996-1.006,35.996-14.004c42.002-27.998,77.002-30.996,117.002-10.996c32.002,16.992,34.004,10,6.006-24.004
			c-60-74.004-109.004-157.998-102.002-175.996c5.996-17.002-25-154.004-41.006-179.004c-25.996-40,0-47.998,139.004-45
			c22.002,0,77.998,7.002,125,15s117.002,17.002,155,20.996c65.996,6.006,74.004,4.004,117.998-21.992
			c39.004-23.008,52.998-41.006,77.002-92.002c17.002-34.004,30-66.006,30-70c0-27.998,42.002-42.998,147.998-54.004
			c117.998-12.002,142.002-5.996,142.002,32.002c0,15,37.002,115.996,47.002,129.004c2.002,2.998,8.994-1.006,15-7.002
			c15.996-16.006,298.994-17.002,315-1.006c12.998,13.008,15,10,42.002-72.998c11.992-35.996,28.994-72.002,35.996-77.998
			c10.996-9.004,40.996-10,120.996-2.002c124.004,12.002,136.006,20,174.004,112.002c27.998,69.004,32.002,74.004,87.998,105.996
			c52.002,29.004,61.006,29.004,270-1.992c100-14.004,105-14.004,135,5c17.998,10.996,44.004,31.992,57.998,47.998
			c37.002,40,82.002,137.002,83.008,180.996c0.996,35-2.002,37.998-46.006,59.004c-32.002,15.996-65,45-103.994,92.998
			c-31.006,39.004-79.004,90-107.002,114.004c-27.002,22.998-47.998,47.998-46.006,53.994c2.002,6.006,44.004-27.002,92.002-75
			c86.006-83.994,89.004-85.996,114.004-72.002c33.994,18.008,122.002,118.008,128.994,146.006
			c13.008,50.996-75,162.002-181.992,230.996C6979.003,12232,6850,12542,6850,12744.998c0,52.002-17.998,69.004-125,122.998
			c-202.998,101.006-402.002,182.002-495,201.001C6100,13095.999,6070.996,13098.997,6025,13089.998z M5210,11907
			c0-2.002-15-16.006-32.002-32.998l-32.998-29.004l29.004,32.998C5202.001,11907.996,5210,11914.998,5210,11907z"/>
	</g>
</g>
<g id="Layer_1">
	<g transform="translate(0.000000,1600.000000) scale(0.100000,-0.100000)">
		<path d="M5929.999,13089.997c-79.004-16.001-112.998-26.001-165-48.999c-10.996-5-65-28.003-120-51.997
			c-167.998-73.008-317.001-153.008-337.001-179.004c-12.002-15.996-25-70.996-37.998-159.003c-12.002-72.998-25-140.996-30-150.996
			s-5.996-20-2.998-24.004c2.998-2.998,0.996-5.996-5-5.996c-6.006,0-9.004-5.996-6.006-14.004c3.008-7.998,0-16.992-5-20.996
			c-5.996-2.998-17.998-20.996-25.996-37.998c-20.996-42.998-35-66.006-67.002-107.998c-15.996-20-27.998-40-27.998-45
			s-10-18.008-22.002-29.004C4939.003,12099.002,4910,12067,4895,12012.996c-15.996-55-35-78.994-90-118.994
			c-25.996-18.008-27.998-24.004-19.004-45c12.002-25,138.008-94.004,193.008-105l30.996-6.006l-20-27.998
			c-27.998-39.004-40-74.004-55.996-167.998c-8.008-46.006-26.006-102.998-40-129.004c-37.002-65-23.008-77.002,92.998-77.002
			c48.994,0,102.002,3.008,117.998,6.006c47.002,10.996,154.004,25.996,230.996,32.998c66.006,5.996,74.004,4.004,116.006-22.002
			c37.998-22.998,50.996-38.994,73.994-95c16.006-37.002,34.004-73.994,40-82.998c15-20,97.001-34.004,214.003-37.998
			c95-2.002,95-2.002,97.998,22.998c2.002,14.004,10,45.996,17.998,70.996l15,46.006l166.006-1.006l167.002-0.996l21.992-70
			l21.006-70l83.994,2.002c46.006,0.996,114.004,7.002,150,12.998l66.006,10.996l33.994,81.006c29.004,70,40,85,79.004,110
			c42.002,27.002,50,27.998,115,22.998c39.004-4.004,110.996-12.998,160-20.996c127.002-20,157.002-18.008,182.002,8.994
			c45,47.998,142.998,260,142.998,307.002c0,5-17.002,10-37.998,10c-37.998,0-112.002,40-112.002,60.996
			c0,5,15,19.004,32.998,29.004c45,25.996,89.004,82.998,126.006,160c30.996,65,30.996,80,3.994,80
			c-7.998,0-35.996,20.996-62.002,47.998c-25,26.006-78.994,75-118.994,110s-70,67.002-67.002,72.002s2.002,10-2.998,12.002
			c-20,7.998-102.002,127.002-102.002,147.002c0,11.992-4.004,20-9.004,16.992c-13.994-8.994-52.998,122.002-66.992,225
			c-20,149.003-28.008,172.001-74.004,203.007c-22.002,13.994-42.998,25.996-45.996,25.996c-4.004,0-55,22.998-113.008,50.996
			c-101.992,49.004-123.994,59.004-235.996,109.004c-77.998,35-95,40-175,56.001
			C6127.997,13107.995,6027.001,13108.996,5929.999,13089.997z M6174.999,13064.997c27.998-7.998,60-15,72.998-15
			c37.998,0,241.006-85,467.998-195.996l111.006-54.004l5.996-80c4.004-44.003,16.006-119.003,27.002-165.995
			c20.996-85,67.002-214.004,80-224.004c4.004-2.998,27.002-35.996,52.998-75c35-52.998,64.004-82.998,122.998-125
			c96.006-69.004,166.006-169.004,145-207.998c-17.998-34.004-71.992-96.006-102.998-117.998l-30.996-23.008l-61.006,57.002
			c-142.998,134.004-163.994,159.004-203.994,242.998c-22.998,49.004-37.002,90-32.998,99.004c3.994,7.998,3.994,32.998,0,55
			c-3.008,22.002-7.002,30-8.008,19.004c0-12.002-7.998-27.002-15.996-34.004c-17.002-14.004-14.004-39.004,14.004-115
			c42.998-114.004,77.998-169.004,145-227.998c36.992-32.998,91.992-90,122.998-129.004c35-45,68.994-75,92.002-85
			c60-25,60.996-27.998,45-85c-23.008-75.996-52.002-123.994-99.004-165.996l-42.998-37.998L6977.997,11392
			c-57.002,10-133.994,18.994-172.998,20c-62.998,2.998-75,0-120-27.998c-42.002-25-55.996-43.008-87.002-105
			c-20-41.006-37.998-77.002-40-82.002c-2.998-6.006-82.998-17.998-207.002-29.004c-33.994-2.998-33.994-2.998-50.996,59.004
			c-20.996,75.996-47.002,120-62.998,103.994c-15-15-312.998-15-322.002-0.996c-12.998,20.996-32.002-9.004-55.996-85.996
			l-24.004-77.002l-85,5.996c-150.996,11.006-145.996,9.004-190,101.006c-35.996,73.994-44.004,83.994-97.002,113.994
			l-57.002,32.998L5280,11404.998c-210.996-27.998-284.004-35-317.002-29.004c-17.998,4.004-32.998,7.002-32.998,8.008
			c0,0,10.996,27.998,25,60.996c14.004,34.004,25,80,25,107.002c0,25.996,5,60,12.002,75c22.998,52.998,117.002,167.998,190.996,235
			c76.006,68.994,106.006,115.996,156.006,247.998c21.992,59.004,26.992,110,10.996,110c-5,0-10,12.002-10,25.996
			c0,14.004-4.004,23.008-10,19.004c-5-2.998-10-25.996-10-50c0-87.002-67.998-242.002-137.998-314.004
			c-62.002-63.994-139.004-120.996-162.998-120.996c-11.006,0-36.006,7.002-57.002,17.002
			c-42.998,18.994-39.004,17.002-74.004,27.002c-15.996,5-27.998,11.992-27.998,16.992s-7.002,9.004-15,9.004
			c-22.998,0-17.998,15,10.996,30c36.006,20,62.002,59.004,77.002,120c16.006,60,32.998,82.002,114.004,135.996
			c65,44.004,72.998,53.008,135.996,146.006c72.998,110,124.004,270,136.006,427.997l5.996,85l142.998,70.996
			c202.998,102.002,377.998,175.005,442.001,185.005c30,3.999,69.004,11.997,85,16.997
			C6044.999,13082.995,6122.001,13081.999,6174.999,13064.997z"/>
		<path d="M6624.003,12094.998c40.996-40.996,100-187.002,111.992-274.004c7.002-50.996,24.004-73.994,91.006-120.996l20.996-15
			l-23.994-37.998c-35-54.004-96.006-77.998-209.004-84.004l-90-5l-17.998,40c-24.004,55-91.006,129.004-137.998,152.002
			c-55,29.004-57.002,25-8.008-20l44.004-39.004l-62.002-0.996c-87.002,0-112.998-12.002-112.998-50
			c0-49.004-14.004-65.996-57.998-67.998c-35-2.002-42.002,0.996-62.998,32.998c-27.002,39.004-45,44.004-54.004,15.996
			c-10-31.992-44.004-55-77.998-52.998c-37.998,2.998-47.002,15-47.002,65c0,44.004-4.004,47.002-100.996,56.006
			c-71.006,5.996-71.006,5.996-52.002,26.992c10,11.006,28.994,28.008,42.998,37.002c34.004,24.004,14.004,21.006-40-5.996
			c-30.996-15-60-42.002-95-89.004l-50-67.998l-64.003,5.996c-120,10-295,124.004-190.996,124.004c17.002,0,30,5,30.996,12.998
			c4.004,71.006,26.006,182.002,47.002,229.004c52.998,122.998,55,128.994,45,138.994c-13.994,14.004-85-121.992-93.994-180.996
			c-4.004-25-14.004-72.002-21.006-105c-12.002-54.004-17.002-60-40.996-62.998c-40-5-50-32.002-27.002-70s85-77.998,160-105
			c47.998-17.002,79.004-24.004,175-39.004c15.996-2.002,20.996,2.998,22.998,26.006c2.002,15.996,14.004,45,27.002,65
			l24.004,35.996l82.998-5l82.998-5l5-45.996c7.998-64.004,22.998-79.004,79.004-79.004c52.998,0,90.996,20.996,90.996,50.996
			c0,11.006,5,17.002,10,14.004c5.996-2.998,10-15,10-25c0-20,7.002-22.998,82.998-35c49.004-7.998,87.002,27.002,87.002,80
			c0,19.004,0.996,35,2.998,35c1.006,0,39.004,2.998,82.998,5.996l82.002,6.006l26.006-37.998c13.994-21.006,25.996-50,25.996-65
			c0-25,4.004-27.002,72.998-39.004c86.006-14.004,145-7.998,201.006,20.996c53.994,28.008,83.994,56.006,107.998,103.008
			c25,48.994,17.998,85-20,91.992c-35,7.002-65,53.008-82.002,124.004c-34.004,150.996-72.998,234.004-115.996,250.996
			C6602.997,12125.994,6597.997,12122,6624.003,12094.998z"/>
	</g>
</g>
</svg>
