<?xml version="1.0" encoding="UTF-8" standalone="no"?>
<!-- Created with Inkscape (http://www.inkscape.org/) -->

<svg
   version="1.1"
   id="svg1"
   width="1200"
   height="1600"
   viewBox="0 0 1200 1600"
   xmlns="http://www.w3.org/2000/svg"
   xmlns:svg="http://www.w3.org/2000/svg">
  <defs
     id="defs1" />
  <path
     style="fill:#000000"
     d="m 573.57361,368.99223 c -5.48713,-2.72672 -11.21224,-7.87175 -9.99213,-7.05284 3.52162,2.36364 5.46902,3.51608 8.28078,4.92835 7.27102,3.65203 10.14171,3.4281 22.03217,1.58261 15.84542,-2.45933 15.6095,-2.29957 -0.44272,1.44111 -6.07613,1.41593 -11.48396,2.3801 -11.48396,2.3801 0,0 -5.00948,-1.59739 -8.39414,-3.27933 z m 47.92639,0.7941 c -10.43539,-2.59877 -11.10282,-3.53876 -10.27701,-3.34265 0.73464,0.17446 6.58778,1.84712 14.50195,3.02343 11.35574,1.68784 11.7105,1.4423 19.84651,-3.05295 3.84253,-2.12304 8.08139,-5.87068 6.12823,-3.88036 -6.32321,6.44349 -13.95632,9.39404 -15.07108,9.50221 -1.11476,0.10817 -8.89472,-0.69723 -15.1286,-2.24968 z m -64.75,-12.92531 c -5.16493,-4.42461 -6.26003,-7.86526 -2.5,-7.8547 2.36464,0.007 5.75,4.64295 5.75,7.87472 0,0.94543 0.54,2.25896 1.2,2.91896 2.60038,2.60038 0.05,0.91596 -4.45,-2.93898 z m 100.55635,-0.17633 c 0.51807,-0.6642 0.12337,-1.22401 0.41625,-3.88824 0.18659,-1.69738 1.28638,-3.79645 3.02802,-3.79645 3.58369,0 4.05727,2.57459 1.0041,5.67233 -2.4992,2.53569 -4.06644,3.74108 -6.62935,5.13251 -0.48578,0.26373 1.69501,-2.49711 2.18098,-3.12015 z"
     id="path1" />
</svg>
