<?xml version="1.0" standalone="no"?>
<!DOCTYPE svg PUBLIC "-//W3C//DTD SVG 20010904//EN"
 "http://www.w3.org/TR/2001/REC-SVG-20010904/DTD/svg10.dtd">
<svg version="1.0" xmlns="http://www.w3.org/2000/svg"
 width="1200.000000pt" height="1600.000000pt" viewBox="0 0 1200.000000 1600.000000"
 preserveAspectRatio="xMidYMid meet">

<g transform="translate(0.000000,1600.000000) scale(0.100000,-0.100000)"
fill="#000000" stroke="none">
<path d="M5066 14466 c-81 -30 -133 -102 -207 -281 -25 -61 -71 -226 -84 -301
-27 -158 -15 -396 24 -478 48 -97 160 -178 337 -242 132 -47 204 -61 361 -69
144 -8 223 6 257 44 22 24 3 23 -35 -2 -26 -17 -131 -41 -151 -35 -6 2 20 12
58 22 140 37 224 135 224 260 0 42 -4 65 -12 69 -10 3 -13 -14 -14 -67 -1
-118 -53 -186 -154 -201 -3 0 -9 -3 -15 -7 -17 -11 -127 -28 -179 -28 -45 0
-194 23 -311 48 -60 13 -163 66 -227 117 -103 83 -145 211 -135 408 13 223 43
359 113 504 71 149 133 213 205 213 89 0 281 -149 295 -228 3 -21 8 -46 10
-57 l5 -20 -16 20 c-61 78 -101 95 -183 79 -50 -10 -74 -35 -97 -100 -19 -54
-14 -255 8 -305 26 -58 79 -106 138 -123 66 -20 64 -20 134 3 57 19 60 19 132
1 81 -20 141 -59 217 -140 36 -38 51 -48 60 -40 15 11 76 2 76 -11 0 -5 5 -9
10 -9 6 0 5 8 -2 20 -7 11 -18 20 -25 20 -7 0 -13 4 -13 9 0 5 -14 14 -32 22
-17 7 -60 37 -94 66 -113 96 -209 131 -302 112 -102 -21 -137 -22 -173 -4 -61
31 -77 53 -95 133 -29 132 -6 291 46 307 75 22 109 5 181 -91 44 -57 68 -69
70 -31 3 78 -5 135 -23 171 -32 63 -134 158 -208 195 -80 39 -123 45 -174 27z"/>
<path d="M6975 14466 c-85 -27 -169 -89 -233 -172 -49 -65 -63 -107 -61 -180
2 -54 5 -64 20 -64 10 0 24 10 30 23 22 40 82 108 108 121 14 8 41 12 59 11
68 -6 92 -55 92 -189 0 -138 -13 -187 -60 -230 -51 -46 -92 -53 -189 -32 -61
13 -87 15 -125 6 -69 -15 -142 -55 -200 -110 -28 -26 -67 -55 -86 -63 -37 -17
-57 -32 -78 -59 -12 -15 -9 -15 25 2 30 15 41 16 51 6 10 -10 26 1 78 51 82
78 131 107 215 127 61 14 71 14 125 -3 72 -22 68 -22 129 -4 62 18 107 60 136
127 18 41 22 71 23 156 1 122 -17 184 -67 226 -28 23 -37 26 -95 22 -59 -4
-67 -7 -96 -39 -17 -20 -36 -44 -43 -55 -10 -17 -11 -15 -7 11 12 77 25 102
81 156 69 67 127 105 186 121 49 13 97 5 97 -17 0 -8 6 -12 14 -9 19 7 49 -27
96 -107 102 -173 155 -392 155 -634 0 -91 -8 -136 -36 -210 -47 -123 -207
-236 -379 -268 -248 -46 -331 -47 -459 -3 -119 41 -136 65 -160 221 l-7 50 -8
-58 c-8 -54 -6 -63 24 -122 39 -77 91 -117 193 -150 44 -15 62 -24 46 -24 -41
-1 -132 29 -156 52 -13 11 -26 18 -29 14 -9 -9 15 -37 32 -37 8 0 14 -4 14 -9
0 -17 139 -39 161 -25 6 3 57 6 113 5 105 -2 180 14 348 74 142 51 256 137
300 226 50 103 60 331 21 519 -22 112 -91 316 -130 387 -46 83 -110 149 -159
162 -48 13 -58 13 -109 -3z"/>
</g>
</svg>
