<?xml version="1.0" standalone="no"?>
<!DOCTYPE svg PUBLIC "-//W3C//DTD SVG 20010904//EN"
 "http://www.w3.org/TR/2001/REC-SVG-20010904/DTD/svg10.dtd">
<svg version="1.0" xmlns="http://www.w3.org/2000/svg"
 width="1200.000000pt" height="1600.000000pt" viewBox="0 0 1200.000000 1600.000000"
 preserveAspectRatio="xMidYMid meet">

<g transform="translate(0.000000,1600.000000) scale(0.100000,-0.100000)"
fill="#000000" stroke="none">
<path d="M5050 14420 c-66 -40 -138 -165 -195 -340 -16 -47 -32 -90 -37 -96
-9 -12 -32 -305 -32 -424 -1 -63 4 -84 27 -133 16 -31 46 -79 67 -106 33 -42
49 -52 117 -76 43 -15 105 -34 138 -42 33 -9 96 -29 140 -46 69 -27 93 -31
180 -31 90 -1 108 2 185 32 157 62 190 102 190 234 0 135 -19 160 -261 337
-11 7 -36 13 -57 12 -164 -8 -261 -3 -297 15 -35 18 -40 24 -57 94 -15 58 -18
95 -14 170 10 175 10 177 65 205 24 12 47 16 76 11 61 -8 86 -22 120 -69 l30
-42 3 27 c5 41 -44 122 -108 181 -104 96 -210 129 -280 87z"/>
<path d="M6932 14410 c-89 -45 -183 -142 -205 -211 -10 -29 -14 -56 -9 -61 5
-5 23 12 41 37 24 34 42 47 74 56 88 23 159 -8 163 -73 2 -18 8 -53 14 -78 14
-54 7 -142 -18 -235 -17 -64 -22 -72 -58 -89 -44 -22 -216 -31 -265 -14 -43
15 -75 -1 -181 -85 -155 -124 -168 -145 -168 -264 0 -133 31 -170 190 -233
104 -42 193 -49 295 -25 38 8 80 22 92 30 12 8 52 21 90 29 37 9 108 30 158
48 80 30 93 38 126 82 21 27 50 74 66 105 33 65 34 101 15 372 -10 143 -17
179 -46 265 -61 179 -152 344 -191 344 -7 0 -15 5 -17 11 -2 6 -26 14 -53 16
-42 4 -61 -1 -113 -27z"/>
</g>
</svg>
