<?xml version="1.0" standalone="no"?>
<!DOCTYPE svg PUBLIC "-//W3C//DTD SVG 20010904//EN"
 "http://www.w3.org/TR/2001/REC-SVG-20010904/DTD/svg10.dtd">
<svg version="1.0" xmlns="http://www.w3.org/2000/svg"
 width="1200.000000pt" height="1600.000000pt" viewBox="0 0 1200.000000 1600.000000"
 preserveAspectRatio="xMidYMid meet">

<g transform="translate(0.000000,1600.000000) scale(0.100000,-0.100000)"
fill="#000000" stroke="none">
<path d="M4990 13149 c-46 -27 -96 -95 -127 -171 -22 -54 -25 -72 -19 -136 10
-120 43 -175 206 -340 71 -72 84 -79 150 -73 29 3 60 28 60 49 0 12 -4 12 -21
-3 -25 -24 -81 -21 -124 5 -47 29 -159 150 -184 197 -52 103 -67 264 -29 330
62 110 143 142 222 88 45 -31 48 -31 40 -1 -3 14 -1 27 7 31 20 13 -51 44
-101 44 -28 0 -59 -7 -80 -20z"/>
<path d="M7014 13156 c-48 -21 -54 -45 -9 -36 6 1 4 -4 -2 -11 -7 -7 -13 -22
-13 -33 1 -18 2 -19 13 -6 55 71 150 66 212 -9 66 -80 77 -138 49 -257 -23
-102 -50 -152 -122 -229 -97 -105 -177 -140 -224 -98 -23 20 -33 12 -19 -16
15 -27 66 -40 111 -28 69 18 258 229 285 319 19 65 19 173 1 226 -20 55 -90
148 -129 173 -38 22 -107 25 -153 5z"/>
<path d="M4976 13028 c-16 -12 -35 -36 -42 -54 -24 -57 -15 -61 16 -8 16 28
35 54 43 57 26 10 81 -28 119 -83 21 -29 35 -57 32 -61 -3 -5 -1 -9 4 -9 19 0
35 -59 27 -103 -14 -69 -12 -174 3 -189 11 -11 12 -5 6 30 -5 30 -2 56 11 88
19 50 16 81 -17 184 -17 51 -33 76 -74 118 -59 58 -83 64 -128 30z"/>
<path d="M7075 13018 c-22 -18 -42 -36 -43 -41 -2 -4 -9 -13 -16 -20 -23 -24
-66 -147 -66 -192 0 -24 7 -62 16 -84 12 -30 13 -47 5 -76 -8 -31 -8 -35 4
-25 23 19 28 73 12 136 -16 62 -12 120 8 141 10 9 15 7 23 -12 6 -13 20 -26
31 -30 27 -8 26 -20 -1 -39 -12 -9 -18 -16 -12 -16 14 0 44 33 44 49 0 6 -11
16 -25 21 -14 5 -30 21 -36 34 -10 20 -8 30 9 58 27 44 71 84 104 97 25 9 30
7 52 -22 14 -18 29 -44 35 -57 7 -18 10 -20 10 -7 2 35 -28 86 -58 101 -42 22
-51 20 -96 -16z"/>
<path d="M5102 12832 c-18 -15 -32 -30 -32 -34 0 -4 13 -16 30 -28 22 -15 28
-17 24 -6 -3 8 -15 18 -26 22 -18 5 -17 8 14 34 18 15 31 30 28 33 -3 3 -20
-7 -38 -21z"/>
</g>
</svg>
