<?xml version="1.0" encoding="utf-8"?>
<!-- Generator: Adobe Illustrator 16.0.0, SVG Export Plug-In . SVG Version: 6.00 Build 0)  -->
<!DOCTYPE svg PUBLIC "-//W3C//DTD SVG 1.1//EN" "http://www.w3.org/Graphics/SVG/1.1/DTD/svg11.dtd">
<svg version="1.1" xmlns="http://www.w3.org/2000/svg" xmlns:xlink="http://www.w3.org/1999/xlink" x="0px" y="0px" width="1200px"
	 height="1600px" viewBox="0 0 1200 1600" enable-background="new 0 0 1200 1600" xml:space="preserve">
<g id="Layer_2">
	<g transform="translate(0.000000,1600.000000) scale(0.100000,-0.100000)" opacity="0.2">
		<path d="M3910,14119.998c-36.001-5-102.002-20-147.002-35c-70.996-22.998-88.999-33.999-130.996-77.998
			c-27.002-29.004-89.004-94.004-138.003-144.004c-47.998-50.996-81.001-92.998-72.998-92.998
			c8.999-1.001,3.999-8.999-13.003-23.999c-15.996-15-22.998-27.002-16.997-33.003c6.001-5.996,1.997-18.999-10-33.999
			c-20-26.001-121.001-197.998-121.001-206.997c0-3.003,7.998-15,17.998-26.001c19.004-21.001,18.003-23.003-41.997-136.001
			c-55-103.999-107.002-233.999-106.001-267.998c0-8.003-37.998-127.002-85-265c-77.002-229.004-101.001-297.998-133.999-379.004
			c-6.001-15.996-8.999-27.998-6.001-27.998s-11.001-35.996-45-115c-15-35-70-190.996-70-199.004c0-3.994-7.998-20-18.999-33.994
			c-10-15-22.002-42.998-26.001-62.002s-10-39.004-13.999-45c-3.999-5-25-52.998-46.001-105s-80-167.002-130-255
			c-95-165.996-178.999-335-191.001-380.996c-6.997-26.006-6.001-27.002,22.002-19.004c65,15.996,128.999,0.996,118.999-27.998
			c-2.002-7.002-13.999-100-26.001-207.002c-31.001-280-21.997-564.004,30-880c5-30,13.999-89.004,21.001-130
			c6.001-40.996,17.998-109.004,26.001-150c7.998-40.996,22.998-129.004,35-195c11.001-65.996,33.999-185.996,50-267.998
			c16.001-81.006,31.997-195,33.999-252.998c5-110,37.002-411.005,56.001-526.005c15-95,26.997-100,77.998-32.998
			c23.003,30.996,46.001,52.998,52.002,50c15-10,32.998-60.996,63.999-180c63.999-250,137.998-472.998,232.998-705
			c17.002-40.996,47.002-117.998,67.002-170s42.002-107.998,50-125c27.002-64.004,107.998-252.002,127.998-300
			c12.002-27.002,28.003-59.004,38.003-70c8.999-10.996,31.001-49.004,48.999-85c17.002-35.996,37.998-72.002,46.001-80.996
			c7.998-8.008,13.999-19.004,13.999-22.002c0-10,66.001-104.004,112.998-160c64.004-77.002,64.004-76.006,87.002,257.998
			c13.999,205.996,17.998,235,30,250c7.002,7.998,6.001,22.002-1.001,44.004c-10,26.992-8.999,35,5,48.994
			c16.001,16.006,18.999,15,36.001-7.998c48.999-65,50-65,73.999-27.998c33.003,50,77.002,155,98.003,232.998
			c21.997,85,57.998,350,58.999,442.998c0,37.002,6.001,112.002,11.997,167.002c11.001,89.004,15,100.996,35,110
			c13.003,5.996,20,15.996,17.002,24.004c-2.998,7.998,2.002,21.992,11.001,32.998C4150,8237.997,4160,8320.995,4160,8505.995
			c0,160,0,161.006,26.001,185c56.997,54.004,106.997,217.001,121.001,394.003c5.996,90,20.996,127.002,40.996,102.002
			c5-7.002,24.004-46.006,42.998-87.002c60-134.004,132.002-254.003,184.004-307.001c27.998-28.994,55.996-52.998,62.002-52.998
			c5,0,23.994,22.998,42.002,50.996c35.996,59.004,47.998,56.006,81.992-16.992c23.008-49.004,85-124.004,103.008-124.004
			c53.994,0,235,232.001,395,507.001c45,78.994,86.992,145,91.992,148.994c5,3.008,21.006-0.996,34.004-10
			c24.004-15.996,25-15,30.996,11.006c11.006,43.994,56.006,135,85,172.998c22.002,27.998,33.008,65.996,58.008,190
			c30.996,155.996,93.994,410.996,105.996,430c12.998,22.002,32.002-10,32.998-55C5700,9957,5752.001,9817,5780,9822
			c35,7.002,70,747.998,35.996,747.998c-7.998,0-20.996,2.998-30,5.996c-11.992,5-15.996-0.996-15.996-23.994
			c0-16.006-7.002-35-14.004-42.002c-7.998-5.996-15.996-32.998-17.998-57.998c-2.002-34.004-7.002-47.002-17.998-47.002
			c-17.002,0-17.002,5.996-5,177.002l7.998,107.002l39.004-1.006c47.998,0,98.994,42.998,132.002,112.002
			c18.994,40,20.996,65,22.998,220c2.002,180.996-1.006,207.998-45,340c-46.006,140-107.002,237.002-172.002,270
			c-20.996,10.996-44.004,29.004-50,40c-10.996,20-122.998,165-290.996,375c-44.004,55-101.006,134.004-127.002,175
			c-25,40.996-69.004,107.002-97.002,145c-172.002,235-267.002,412.998-362.998,675c-17.002,47.002-37.998,112.002-47.002,145
			s-27.998,92.002-42.002,132.002c-12.998,38.999-27.998,95.996-32.998,125c-14.004,90.996-67.998,330.996-82.998,373.999
			c-45,122.998-105,201.997-182.002,238.999C4279.003,14104.998,4050,14135.999,3910,14119.998z"/>
		<path d="M8095,14123.997c-177.998-20-272.002-41.997-345-78.999c-87.002-45-170.996-202.998-200-375
			c-30-182.998-112.998-487.002-189.004-690c-60-160.996-175.996-379.004-292.998-547.998c-62.002-90-140-204.004-172.002-252.998
			c-32.998-50-95.996-134.004-140-186.006c-45-52.998-115.996-142.002-157.998-197.002C6555,11739.998,6510,11682,6497.998,11667
			c-12.002-16.006-38.994-37.002-60-47.998c-57.002-29.004-118.994-132.002-160.996-269.004c-35-115.996-46.006-185-46.006-315
			c-0.996-120.996,12.002-200.996,39.004-255.996c22.002-43.008,95-94.004,130.996-91.006l26.006,2.002l7.002-107.002
			c11.992-180.996,11.992-177.998-4.004-177.998c-10.996,0-15.996,12.998-17.998,47.002c-2.002,25-10,52.002-17.998,57.998
			c-7.002,7.002-14.004,25-14.004,40.996c0,30-12.998,36.006-39.004,20c-20-12.998-22.998-295-5-480.996
			c7.002-80,15-172.002,17.002-205c2.002-47.002,6.006-60.996,20-62.998c10-2.002,21.006,5.996,27.002,20
			c5,12.998,14.004,30,19.004,37.998c15,25,40.996,120,40.996,152.002s24.004,65,35,47.998c12.002-19.004,75.996-280,102.002-415
			c22.002-117.002,42.998-180,62.998-195c15-10,69.004-127.998,75-162.998c7.002-32.998,9.004-36.006,20-21.006
			c7.002,10,19.004,18.008,27.998,20c24.004,3.008,27.002-1.992,129.004-178.994C7025,8932,7185,8717.001,7250,8674.003
			c37.998-25,40.996-26.006,65-10c14.004,8.994,37.998,40,52.998,67.998c37.002,68.994,66.006,102.998,81.006,93.994
			c5.996-3.994,22.998-25,36.992-46.992l25-40l30,17.998c37.002,22.002,92.002,92.998,147.002,189.999
			c42.998,77.002,112.002,223.994,112.002,240.996c0,5,5.996,15,14.004,21.006c20.996,17.998,27.998,0,30.996-81.006
			c9.004-192.998,65.996-387.997,127.998-437.997c17.002-14.004,19.004-30.996,19.004-170c0-177.998,10.996-275.996,33.994-302.002
			c9.004-10,14.004-25.996,11.006-37.998c-2.998-12.998,0-20,8.994-20c32.002,0,42.002-44.004,54.004-220
			c22.998-355,54.004-519.004,125-667.998c54.004-110,65.996-117.002,100-54.004c20.996,40,32.998,44.004,49.004,19.004
			c6.992-11.006,6.992-26.006-1.006-46.006c-7.998-22.998-7.998-30.996,2.002-33.994c7.998-2.998,14.004-40,17.998-104.004
			c14.004-213.994,27.998-390,32.998-420c11.006-67.998,52.002-33.994,159.004,131.006c30.996,47.998,69.004,110.996,82.998,138.994
			c15,29.004,36.006,66.006,47.998,82.002c11.006,17.002,27.002,45.996,34.004,65s32.998,80,57.998,135
			c24.004,55,77.002,185.996,117.998,290c41.006,105,84.004,212.002,95,237.998c48.008,114.004,140,387.002,174.004,515
			c60,227.002,75.996,276.006,95,294.004c17.998,17.002,20,15.996,49.004-25c60-84.004,65-82.998,80.996,2.998
			c15.996,89.004,50.996,407.001,55.996,514.999c6.006,109.004,11.006,145.996,44.004,310c22.002,115.996,75,410.996,90,505
			c5,30,20,122.998,34.004,205c38.994,232.998,48.994,344.004,47.998,557.998c0,184.004-5,240-32.998,460
			c-10,79.004-3.008,110,25,106.006c5.996-1.006,18.994,0.996,27.998,5c10,5,27.002,0.996,42.998-10
			c14.004-9.004,29.004-14.004,32.002-10c17.998,17.998-64.004,197.998-185,405.996c-75,127.998-110,200.996-182.002,380
			c-37.998,92.002-162.002,415.996-175,455c-7.002,22.002-34.004,99.004-60,170c-25.996,72.002-50,144.004-55,160
			c-4.004,17.002-20,62.998-35,102.998c-14.004,40-27.998,81.006-30.996,90c-15,65-81.006,280-88.008,291.001
			c-5,8.003-33.994,63.003-63.994,123.003c-51.006,100.996-52.998,110-37.998,126.997c8.994,10,15.996,22.002,15.996,28.003
			c0,10.996-74.004,140.996-112.002,196.997c-13.994,21.001-23.994,43.999-22.002,51.001c3.008,7.002-1.992,15-10.996,18.999
			c-10,3.003-15,12.002-10.996,21.001c2.998,8.999-16.006,33.999-50,67.002c-31.006,28.999-80,85-110,123.999
			c-56.006,72.998-85,92.998-194.004,132.998c-47.002,17.002-212.998,43.999-245,38.999
			C8130,14127.996,8112.001,14124.998,8095,14123.997z"/>
	</g>
</g>
<g id="Layer_1">
	<g transform="translate(0.000000,1600.000000) scale(0.100000,-0.100000)">
		<path d="M3902.998,14138.996c-40-5-85-15-100-21.997c-15.996-8.003-43.999-17.002-63.999-21.001
			c-46.997-8.003-115-62.002-173.999-136.001c-25-32.998-72.998-86.001-106.001-117.002c-41.001-40.996-56.997-62.998-52.998-75
			c2.998-10.996-8.999-38.999-33.003-73.999c-45.996-66.997-97.998-156.001-118.999-202.998c-15-32.002-15-36.001,3.999-50
			c19.004-16.001,17.002-18.999-42.998-133.003c-58.999-111.997-72.998-147.998-115-302.998c-10-37.998-52.998-169.004-95-290
			c-42.002-120.995-81.001-235.995-87.002-254.999c-5-19.004-13.999-40-17.998-45c-5-5.996-11.001-22.002-13.999-35
			c-6.001-27.998-48.999-147.998-70-195c-8.003-15.996-23.999-62.998-36.001-102.002c-12.998-40-27.002-72.998-31.001-72.998
			c-5,0-8.999-9.004-8.999-19.004c0-10.996-3.999-22.998-10-25.996c-5-2.998-10-12.998-10-20.996
			c0-8.008-8.999-33.008-18.999-57.002c-11.001-22.998-33.999-76.006-52.002-117.002c-16.997-40.996-60-122.998-95-180.996
			c-87.998-150-151.001-272.002-185-358.008c-23.999-61.992-26.001-76.992-16.001-91.992c12.002-16.006,16.001-17.002,41.001-4.004
			c31.001,15.996,60,20,52.002,5.996c-3.003-3.994,6.001-5.996,21.001-2.998c25,5,25,2.998,18.999-28.994
			c-20-107.002-38.999-305-43.003-449.004c-5.996-192.002,8.003-377.002,43.003-585.996C2500,9992,2522.001,9859.998,2535,9779.998
			c33.999-212.002,75-442.998,81.001-460c17.998-49.004,43.999-215.996,43.999-282.002c0-80,32.002-403.994,51.001-522.002
			c6.997-43.994,17.998-75,31.997-88.994l20-20l26.001,30c13.999,17.002,35,43.994,45,58.994l18.999,27.002l10-23.994
			c11.001-30,36.001-118.008,77.002-274.004c43.999-167.002,140-439.004,245-690c6.001-15.996,22.002-57.002,35-90
			c27.998-75,27.002-72.998,98.999-235c33.999-74.004,61.001-140,61.001-145.996c0-6.006,8.999-23.008,21.001-38.008
			c11.001-13.994,16.997-25.996,11.997-25.996c-3.999,0-2.998-4.004,3.003-7.998c6.001-4.004,30-42.998,52.998-87.002
			c23.003-44.004,47.002-89.004,53.999-99.004c77.002-120.996,160-225.996,178.003-225.996c30,0,47.998,34.004,52.998,100
			c3.003,35.996,10,135,16.001,220s13.999,175,17.002,200c3.999,25,6.997,67.998,5.996,95c-0.996,42.002,1.001,47.002,10,30
			c17.002-27.002,64.004-75,75-75c15,0,120,222.002,136.001,290c22.002,92.002,43.999,255.996,51.001,380
			c2.998,57.998,11.001,152.998,17.002,212.998c10,91.006,13.999,107.002,28.999,107.002c10,0,21.001,5,25,10.996
			c6.997,12.002-11.001,34.004-28.003,34.004c-5.996,0-12.998,5.996-15.996,14.004c-3.003,10,1.997,12.998,21.997,8.994
			c13.999-2.998,30,0,35,6.006c18.999,22.998,31.001,135,31.001,291.992c0,147.002,2.002,164.004,18.999,176.006
			c28.003,20,78.003,125,96.997,202.998c9.004,39.004,21.006,120.996,28.008,182.002L4335,9179.998l35-77.998
			c95.996-215,209.004-372.002,267.998-372.002c22.002,0,32.002,9.004,51.006,45c12.998,25,26.992,45,30.996,45
			s10.996-12.998,15.996-30c12.002-39.004,83.008-135.996,111.006-150.996c18.994-10,27.002-8.008,60,16.992
			c20,15,45.996,37.002,55.996,47.002c32.002,32.002,172.998,222.002,202.998,272.998c15,27.002,33.008,54.004,39.004,60
			c5,6.006,40.996,66.006,80,132.002c37.998,67.002,74.004,122.002,79.004,122.002s16.992-7.002,26.992-15.996
			c19.004-18.008,39.004-11.006,39.004,11.992c0,40,62.002,189.004,72.998,177.002c4.004-2.998,10,2.998,14.004,12.998
			c2.998,10,10.996,22.002,15.996,25c5,4.004,22.002,70,37.998,147.002c15,77.002,36.006,167.002,45,199.004
			c9.004,32.002,27.001,100.996,40,152.998c22.002,92.998,22.002,94.004,23.008,42.998c0.996-53.994,16.992-112.998,53.994-195
			c22.998-53.994,55-65,75-25c27.002,55,51.006,566.006,36.006,750c-7.002,75-24.004,97.998-24.004,32.002
			c0-32.998-0.996-34.004-35-27.998c-32.998,5-35,3.994-40.996-26.006c-11.006-53.994-24.004-33.994-24.004,37.002v67.998l45,12.002
			c55.996,15,122.002,72.998,149.004,132.002c16.992,37.998,20.996,70,23.994,200c5,212.002-22.998,345-100.996,495
			c-39.004,72.998-115,155-144.004,155c-22.998,0-65.996,47.002-57.002,60.996c3.008,5,0,9.004-5.996,9.004
			c-5.996,0-14.004,10-19.004,22.998c-5,12.002-70.996,99.004-145.996,192.002c-257.002,320-517.998,717.998-600,914.999
			c-15,35.996-32.998,79.004-40,95c-22.998,52.998-67.002,173.999-80,222.998c-7.002,26.001-25.996,92.002-42.998,147.002
			c-16.006,55-32.002,116.001-36.006,135c-2.998,18.999-10,55-15.996,80c-5,25-17.002,82.998-25,130
			c-47.002,273.999-154.004,408.999-360.996,453.999c-60.005,13.999-264.004,38.003-283.003,35
			C3977.998,14147.995,3942.001,14143.996,3902.998,14138.996z M4142.998,14084.997c144.004-25,245-72.998,327.002-155
			c60.996-61.001,105.996-183.999,135.996-372.002c8.008-50.996,21.006-117.998,30-147.998
			c22.002-76.001,123.008-361.001,179.004-504.004c25.996-65,47.998-125.996,50-135c14.004-70.995,152.998-308.993,297.998-510.995
			c50-70,210-284.004,222.002-297.002c5-5.996,20.996-25.996,35-43.994c47.002-62.002,185-234.004,197.002-247.002
			c7.002-7.002,12.998-17.002,12.998-21.006c0-3.994,42.001-50,92.998-101.992c50-51.006,97.998-104.004,104.004-117.002
			c57.998-110,92.002-344.004,57.002-397.002c-15-22.998-15-25,0.996-25s17.002-7.998,12.998-77.998
			c-2.998-42.002-12.002-92.998-20.996-112.998c-30-74.004-102.002-119.004-186.006-119.004c-55,0-96.992,22.998-130.996,72.998
			c-14.004,20-37.002,42.002-52.002,47.998c-17.002,7.002-47.002,41.006-77.002,88.008c-27.998,41.992-67.998,101.992-90,132.998
			c-30.996,45-43.994,78.994-65,170c-13.994,62.002-25.996,132.998-25.996,157.002c0,53.994-17.002,43.994-27.002-15
			c-5-28.008-17.002-49.004-47.002-76.006c-28.994-25.996-35.996-37.002-23.994-37.998c10,0,25.996,10,37.002,22.002l20,20.996
			l8.994-22.002c4.004-11.992,12.002-21.992,17.002-20.996c5,0,10-5.996,10.996-14.004c1.006-7.998,7.002-37.998,13.008-66.992
			c5.996-28.008,8.994-54.004,5.996-57.002c-2.002-2.998,7.998-21.006,22.998-41.006c27.998-36.992,51.006-70.996,117.002-175.996
			c45-70.996,165.996-192.002,212.002-210.996c17.998-8.008,42.998-14.004,57.001-14.004c31.992,0,33.994-20.996,18.994-210
			c-12.998-172.998-45-350-97.001-547.002c-20-72.998-42.998-175-50.996-225c-15.996-93.994-45-178.994-92.002-275.996
			c-27.998-57.002-82.998-96.006-105-74.004c-7.002,7.002-15,70-18.994,144.004c-10,162.998-16.006,215.996-36.006,292.998
			c-12.998,52.002-13.994,95-3.994,330c17.998,414.004,18.994,465,8.994,459.004c-3.994-3.008-7.998-44.004-7.998-92.002
			s-5-130-10-182.002s-12.002-165.996-15.996-252.998c-6.006-124.004-11.006-162.998-23.008-179.004
			c-15.996-20-16.992-18.994-55.996,19.004c-45,42.998-87.998,125-145.996,280.996c-22.002,59.004-50,127.002-62.002,152.002
			c-21.006,42.998-22.002,60-27.002,410l-5,365l-9.004-190c-5-104.004-5.996-250.996-2.998-325c5-122.002,4.004-132.002-8.994-105
			l-14.004,30l5-40.996c2.998-22.002,15.996-80,30-128.008c14.004-47.998,22.998-90,20.996-93.994
			c-3.994-7.002-21.992-132.998-45.996-316.006c-5.996-43.994-12.002-81.992-15-83.994c-2.002-2.002-14.004,2.998-27.002,12.002
			c-27.002,18.994-37.998,20-37.998,2.998c0-22.002,40.996-59.004,60-54.004c15.996,4.004,17.998-10,24.004-142.002
			c16.992-357.998,55.996-585,105.996-615.996c15-9.004,12.002,15.996-10,85.996c-27.998,93.008-39.004,177.002-55,418.008
			c-25,370.996-17.998,591.992,20,630c12.002,11.992,15,12.998,15,1.992c0-7.998,10.996-36.992,24.004-65
			c13.994-28.994,26.992-62.998,30.996-76.992c2.998-14.004,24.004-49.004,45.996-77.002c21.006-29.004,39.004-57.998,39.004-66.006
			c0-15.996,30.996-43.994,77.998-70.996c20-10.996,37.998-25.996,37.998-32.998c1.006-7.002,2.002-51.006,3.008-97.998
			c0.996-72.002,2.998-85,15.996-80c10.996,3.994,15-1.006,15-19.004c0-12.998,7.002-59.004,15-102.002
			c35-175.996,39.004-148.994-29.004-255.996c-85.996-136.006-151.992-210-181.992-204.004c-13.008,2.002-21.006,0-18.008-3.994
			c7.002-12.002,41.006-11.006,49.004,0.996c4.004,5.996,10,7.998,15,5c25-15-237.002-345-274.004-345
			c-10,0-26.992,19.004-58.994,70c-32.998,50-106.006,270-157.998,470c-22.002,87.998-44.004,140.996-35,85
			c2.998-15.996,7.998-52.002,10.996-80c7.998-60,35-174.004,64.004-270.996l20.996-71.006L4672.998,8817l-37.002-57.002
			l-23.994,22.998c-90,82.002-187.998,269.004-301.006,572.002c-55.996,149.004-244.995,820-235.996,835
			c17.002,27.998,23.999,615.996,7.998,685c-7.998,35-30.996-307.998-31.997-487.998c-1.001-87.002-3.999-116.006-13.003-111.006
			c-7.998,5-8.999,0-5-15.996c13.003-49.004-41.997-130-125.996-185c-16.001-10-37.002-34.004-47.002-54.004
			c-11.001-20-32.998-50.996-48.999-68.994l-28.999-32.998l-9.004,27.998c-5.996,15-10.996,68.994-11.997,117.998
			c-1.001,50-13.003,234.004-27.002,410c-12.998,175.996-27.998,447.998-31.001,605c-5,215-8.999,277.998-16.997,255
			c-18.999-57.002-12.002-565,11.997-855c29.004-350.996,42.002-630.996,29.004-647.002c-7.002-8.994-5-12.998,6.997-12.998
			c11.001,0,20,15,28.003,44.004c7.998,30,15.996,41.992,25,38.994c8.999-3.994,15.996,2.998,20,16.006
			c2.998,10.996,10.996,20.996,16.997,20.996c7.002,0,41.001,34.004,77.002,75c35,40.996,66.997,75,70,75
			c2.998,0,22.998,10.996,42.998,25c41.001,27.998,37.002,32.998,61.001-75c38.999-180.996,195.996-710,230.996-780
			c14.004-27.998,2.002-132.002-36.992-315c-19.004-90.996-73.003-235-88.003-235c-3.999,0-13.003,20-20,45
			c-8.003,27.002-18.999,45-28.003,45c-8.999,0-12.998-5.996-10-14.004c3.003-7.998,3.003-16.992-0.996-20
			c-6.001-6.992-45,69.004-63.003,124.004c-6.001,19.004-17.998,45.996-25,60c-7.998,14.004-50,135-93.999,269.004
			c-101.001,305-118.999,342.998-80,165.996c48.999-222.002,177.002-555.996,252.002-662.002l31.997-43.994V8492
			c-1.001-192.998-7.998-267.002-25-256.006c-5,3.008-16.001,0-23.999-5.996c-22.998-19.004-36.001-2.998-131.001,160.996
			C3916,8472.996,3875,8539.002,3872.998,8537c-11.997-12.998,66.001-175,140-290c47.002-75,49.004-80,39.004-115
			c-6.001-20-14.004-86.006-17.002-146.006c-6.001-118.994-31.001-295-71.001-505.996c-25-135.996-65-244.004-86.997-237.002
			c-7.002,2.002-23.003,31.006-37.002,64.004c-18.999,47.002-28.999,60.996-46.001,60.996c-23.999,0-41.997-53.994-42.998-127.998
			c0-25-5-74.004-11.001-110c-5-35.996-13.999-139.004-20-230c-11.001-175.996-20-232.002-35-235.996
			c-8.999-3.008-105,145-105,161.992c0,3.008-77.998,162.002-172.998,353.008c-186.001,372.998-205,415-298.003,680.996
			c-97.998,280.996-105,305.996-152.998,505c-61.001,255.996-68.003,302.002-60,387.998c6.001,70,7.998,75,57.998,127.998
			c28.003,30,78.999,86.006,113.999,123.008c34.004,37.998,65,65.996,68.003,62.998c3.999-2.998,10-22.998,13.999-44.004
			c43.999-217.998,166.001-593.994,270-832.998c11.001-25,37.002-89.004,58.999-142.998c21.001-54.004,41.001-101.006,45-104.004
			c7.002-7.002-136.997,417.998-152.998,452.002C3347.001,8445.994,3195,8902.996,3160,9029.002l-17.998,65l22.998,30
			c65,87.998,91.001,190,80,318.994c-3.999,42.998-10,76.006-12.002,72.998c-2.998-2.998-6.997-45-10-92.998
			c-6.997-167.002-48.999-255-202.998-423.994c-41.001-45-82.998-91.006-92.002-102.002c-10-11.006-17.998-16.006-17.998-11.006
			c2.998,101.006-15,694.004-25,849.004c-42.002,612.998-47.002,760.996-42.002,1085c5,305,5,320-8.999,240
			c-17.998-105-25-494.004-12.998-715c3.999-87.998,12.998-265.996,20-395c6.997-129.004,12.998-305,15-390
			c1.001-85,7.998-202.002,13.999-260c15-140,0-470.996-27.002-587.002c-11.997-50-15.996-87.998-10.996-97.002
			c5.996-10.996-3.003-36.992-29.004-85.996c-30.996-57.002-38.999-65.996-45-50c-10.996,30-58.999,450-52.998,460
			c8.999,15-20,222.002-65,460c-22.998,117.998-50,277.002-61.001,352.998c-10,77.002-23.999,157.998-28.999,182.002
			c-21.001,95-50,299.004-58.999,419.004c-7.002,92.998-6.001,196.992,3.999,383.994c12.998,225,18.999,294.004,41.001,449.004
			c6.001,38.994,16.997,47.002,65,45c35-2.998,166.001,35,221.001,63.994c30.996,16.006,90,102.002,125,184.004
			c12.998,30,27.998,64.004,32.998,75c11.001,22.998,51.001,130.996,82.002,220c10.996,32.998,23.999,65,27.998,70
			c3.999,5.996,17.002,42.002,30,80c12.002,39.004,26.001,74.004,31.001,79.004c5,5.996,8.999,18.994,8.999,30
			c-1.001,37.998-67.998-108.008-180-391.006c-76.001-192.002-118.999-275-160-305c-32.002-22.998-115-47.002-202.998-57.998
			c-58.003-7.998-112.002-30.996-137.002-60c-7.002-7.998-57.998-40-63.999-40c-16.001,0,56.997,162.998,88.999,200
			c16.001,19.004,128.999,245.996,178.999,360C2705,11787,2730,11844.002,2741,11867c10,23.994,18.999,45.996,18.999,50
			c0,5,6.001,18.994,12.998,32.998c7.002,14.004,30,67.998,50,120s62.002,160,93.003,240
			c123.999,319.004,171.001,455.995,256.001,744.999c15.996,55,35,113.999,41.997,130c8.003,17.002,17.002,41.001,21.001,55
			s25,62.998,46.001,107.998c21.997,46.001,38.999,89.004,38.999,96.001c0,6.001,8.999,17.002,20,23.999
			c23.999,15,17.998,32.002-11.001,32.002c-10,0-18.999,5-18.999,10c0,18.999,48.999,107.998,77.998,142.002
			c52.002,60.996,91.001,120,86.001,131.997c-1.997,6.001,42.002,58.999,98.999,117.002
			c113.003,117.998,156.001,142.998,297.002,172.998C4012.998,14103.996,4031,14104.997,4142.998,14084.997z M5237.001,11297.996
			c-2.002-12.998-4.004-2.998-4.004,22.002s2.002,35,4.004,22.998C5239.003,11329.998,5239.003,11309.998,5237.001,11297.996z
			 M5810.995,10425.994c7.002-85,5-158.994-5.996-286.992c-7.998-95-15-199.004-15-231.006s-2.998-57.998-7.002-57.998
			c-15,0.996-42.998,77.002-42.998,117.998c0,22.002-5,52.998-10.996,69.004c-13.008,35.996-19.004,237.998-9.004,322.998
			c4.004,35.996,7.998,57.002,9.004,47.002c1.992-32.002,16.992-10,18.994,30c4.004,62.002,12.998,92.002,30,102.002
			c9.004,5,17.998,7.998,20,5.996S5805.995,10489.998,5810.995,10425.994z"/>
		<path d="M3962.998,13549.997c-17.998-10-45-38.999-60-62.002c-15-23.999-30-45-32.998-47.998
			c-15-13.999-72.002-162.998-83.999-220c-13.999-68.999-33.003-138.999-71.001-260c-12.998-40.996-26.001-97.002-28.999-125
			c-3.003-27.002-3.003-40.996,0-30c2.998,10.996,11.001,40,18.999,65c46.001,152.998,67.002,226.001,91.001,315
			c15,55,37.998,125,51.997,155c49.004,107.998,134.004,226.001,154.004,213.999c3.999-2.998,7.998,0,7.998,5
			C4010,13574.997,3998.999,13572.995,3962.998,13549.997z"/>
		<path d="M3652.998,13347.995c-132.998-225.996-183.999-352.002-181.997-452.998c0-34.004,6.997-20.996,47.998,95
			c26.001,73.999,83.999,207.998,128.999,297.998c45,89.004,78.003,162.002,74.004,162.002
			C3717.001,13449.997,3686,13403.996,3652.998,13347.995z"/>
		<path d="M4245.996,13132.995c-10.996-37.998-21.992-71.997-26.992-77.998c-4.004-5-14.004-72.998-23.003-150
			c-20-175-50-299.999-80-339.003c-13.003-16.992-53.003-45.996-90-65c-63.999-32.998-82.002-50.996-51.001-50.996
			c27.002,0,128.999,57.002,156.001,87.002c13.999,15,32.998,45.996,41.997,67.998c21.001,52.998,47.002,212.001,47.002,292.997
			c0,35,9.004,100,20,144.004c20.996,80,35,157.998,27.998,157.998C4265.996,13199.997,4255.996,13169.997,4245.996,13132.995z"/>
		<path d="M3990,13093.996c0-36.001-56.001-323.003-78.999-403.998c-58.003-205.996-92.002-257.998-245-374.004
			c-38.999-30-83.999-65.996-100-80c-16.001-15-31.001-23.994-33.003-21.992c-1.997,1.992,0,20.996,6.001,42.998
			c6.001,20.996,13.003,53.994,15,72.998c2.002,19.004,10,57.002,17.002,82.998c8.999,36.006,8.999,51.006,1.001,59.004
			c-7.002,7.002-14.004,8.994-17.002,5.996c-2.998-2.002-21.001-75.996-40-163.994c-20-87.002-43.999-181.006-53.999-209.004
			c-18.999-52.002-41.001-135-35-135s83.999,162.998,83.999,175.996c0,17.002,115,121.006,180,162.002
			C3822.001,12392,3856,12434.002,3911,12575.994c45,117.002,111.997,453.002,101.001,507.001
			C4008.999,13097.995,3990,13107.995,3990,13093.996z"/>
		<path d="M4335.996,12805.993c-10-141.991-5-219.999,24.004-338.993c20.996-89.004,75.996-252.998,90-272.002c4.004-5,15-35,25-65
			c22.998-70,42.998-100,60.996-92.998c23.008,7.998,17.002,35.996-5.996,30c-15-4.004-20,0-20,13.994
			c0,18.008-12.002,58.008-84.004,269.004c-52.998,155-67.998,237.002-75,414.999l-6.992,160L4335.996,12805.993z"/>
		<path d="M4072.001,12794.997c0-15.996,1.997-22.002,5-12.002c1.997,9.004,1.997,22.998,0,30
			C4073.999,12819.001,4072.001,12811.999,4072.001,12794.997z"/>
		<path d="M3352.998,12714.997c0-22.001,2.002-29.999,4.004-17.001c1.997,12.001,1.997,29.999,0,39.999
			C3353.999,12746.999,3352.001,12736.999,3352.998,12714.997z"/>
		<path d="M3326,12549.002c-10-61.006-15-113.008-12.002-116.006c6.001-7.002,11.001,17.002,26.001,130
			C3357.001,12689.998,3347.001,12679.002,3326,12549.002z"/>
		<path d="M3290,12364.998c-7.002-30-11.001-57.998-7.002-60.996c3.003-3.008,11.001,20,17.002,50.996s10,59.004,7.002,60.996
			C3305,12417.996,3297.001,12394.998,3290,12364.998z"/>
		<path d="M4545.996,12289.998c5-125.996,15-190.996,46.006-320c17.998-77.002,30-109.004,88.994-235c10-22.002,25-65,32.002-95
			c9.004-32.002,20-55,27.998-55c8.008,0,18.008,20.996,25,55c6.006,30,16.006,65.996,22.002,80
			c10,22.002,11.006,22.998,11.006,4.004c0.996-11.006,15-42.002,31.992-70c18.008-27.002,31.006-51.006,30-54.004
			C4857.001,11582.996,4970,11387,5027.001,11312l25-34.004l12.002,24.004c6.992,12.002,17.998,22.002,23.994,20.996
			c6.006-2.002,16.006,5,21.006,16.006c8.994,15.996,6.992,16.992-17.002,12.998c-15-2.002-34.004-11.006-42.998-17.998
			c-14.004-13.008-26.006,5-107.002,167.998c-87.998,175.996-162.002,362.002-162.002,410c0,12.998-5,30-10,37.998
			c-15.996,24.004-12.002-45,5.996-117.998c14.004-57.002,15-64.004,0-75c-7.998-7.002-20-25-26.992-42.002
			c-8.008-20.996-13.008-25-17.002-15c-2.998,7.998-16.006,37.998-29.004,65c-47.002,95.996-82.998,220-117.002,404.004
			c-18.994,101.992-36.992,196.992-40,210.996C4544.003,12394.002,4542.998,12352.996,4545.996,12289.998z"/>
		<path d="M4051,12364.002c0-11.006,2.998-14.004,6.001-6.006c2.998,7.002,1.997,16.006-1.001,19.004
			C4052.998,12380.994,4050,12374.998,4051,12364.002z"/>
		<path d="M4157.001,12247.996c-4.004-62.002-10-162.002-13.003-222.998c-3.999-60-3.999-107.002,0-104.004
			c23.003,22.002,48.999,439.004,28.003,439.004C4167.001,12359.998,4160,12309.002,4157.001,12247.996z"/>
		<path d="M4041,11947.996c-18.003-422.998-18.999-467.998-11.001-467.998c10,0,17.998,92.002,30,345
			c12.002,234.004,12.998,395,2.002,395C4057.001,12219.998,4047.998,12097,4041,11947.996z"/>
		<path d="M3680,12102c-17.002-142.002-26.001-312.998-20-379.004c5-55.996,6.001-53.994,17.998,57.002
			c16.001,140,29.004,410,21.001,415.996C3695,12197.996,3687.001,12155.994,3680,12102z"/>
		<path d="M3970,12124.002c0-8.008,5-12.002,10-9.004c6.001,4.004,7.998,10.996,5,15.996C3976,12144.998,3970,12142,3970,12124.002z
			"/>
		<path d="M3166,12084.998c-8.999-25.996-7.002-32.002,5-12.002c6.001,10,8.999,21.006,6.001,22.998
			C3175,12099.002,3170,12094.002,3166,12084.998z"/>
		<path d="M3286,12030.994c-10-15.996,30-77.998,56.001-83.994c11.997-2.998,27.998-2.002,35.996,2.002
			c11.001,5.996,8.003,10-11.997,15c-13.999,2.998-26.001,10-26.001,13.994c0,4.004-11.001,20-22.998,36.006
			C3301,12034.002,3291,12039.998,3286,12030.994z"/>
		<path d="M4515.996,11947.996c-3.994-12.998-8.994-83.994-10.996-157.998c-5-165.996,9.004-125,19.004,54.004
			C4530.996,11967,4529.003,11992.996,4515.996,11947.996z"/>
		<path d="M3187.998,11389.998c2.002-107.002,8.003-212.998,13.003-235c5-24.004,6.997,39.004,3.999,160
			c-2.002,110-7.998,215.996-12.998,235C3186,11572.996,3185,11519.002,3187.998,11389.998z"/>
		<path d="M4507.998,11359.998c-2.998-30-0.996-125.996,4.004-212.998s7.002-166.006,5-175c-2.998-9.004-6.006-1.006-7.002,17.998
			l-2.002,35l-8.994-30c-16.006-50-23.008-505-10-665c25-319.004,25.996-312.998-3.008-332.998L4460,9979.002l-62.998,62.998
			c-84.004,85-87.002,88.994-102.002,155c-7.002,32.002-27.002,102.002-42.998,155c-25,82.002-31.006,125-41.006,280
			c-16.997,290-20.996,392.998-23.994,545c-1.001,100-5,137.002-12.002,125c-26.001-44.004,1.001-842.998,33.999-1012.998
			l8.999-44.004l2.002,40c0.996,37.998,2.002,37.002,29.004-40c30.996-90.996,45.996-122.002,72.998-150
			c10.996-10.996,37.002-42.998,57.998-72.002c47.002-62.002,72.002-77.998,99.004-63.994c22.998,12.998,45,63.994,43.994,105
			c0,16.992-2.998,215.996-7.998,441.992c-5.996,283.008-5,413.008,2.002,417.002c7.002,4.004,12.998-17.998,17.002-60.996
			c3.994-37.002,18.994-159.004,32.998-272.002c13.994-112.998,27.002-235.996,27.998-275c0.996-37.998,7.002-80,12.998-92.002
			c7.002-12.002,12.002-32.998,12.002-47.002c0-13.994,5-25,10.996-22.998c5,1.006,20-15.996,32.002-37.998
			c59.004-107.002,162.002-255,177.998-255c19.004,0,8.008,32.998-28.994,82.998C4770,10000.994,4727.998,10067,4680,10154.002
			c-30,53.994-35,73.994-57.002,255C4575,10807,4550.996,11034.998,4540,11197.996
			C4525.996,11390.994,4515,11445.994,4507.998,11359.998z"/>
		<path d="M4952.998,11119.998c0-25,2.002-35,4.004-22.002c2.002,12.002,2.002,32.002,0,45
			C4955,11154.998,4952.998,11144.998,4952.998,11119.998z"/>
		<path d="M3242.001,10892.996c-28.003-52.002-57.002-497.002-48.003-717.998c3.999-77.002,8.999-250,11.001-384.004
			c2.998-135,7.998-247.998,12.002-251.992c12.998-13.008,13.999,28.994,16.997,585.996c1.001,349.004,7.002,582.002,15,659.004
			C3261,10902.996,3260,10927,3242.001,10892.996z"/>
		<path d="M4902.001,10514.998c0-15.996,2.002-22.002,5-12.002c2.002,9.004,2.002,22.998,0,30
			C4904.003,10539.002,4902.001,10532,4902.001,10514.998z"/>
		<path d="M3265,10109.998c20-175,83.999-450.996,122.998-527.002c33.003-67.002,50-82.002,98.003-92.998
			c36.001-7.998,40-7.002,73.999,30c46.001,50,132.998,205.996,96.001,170c-13.999-12.002-38.003-40.996-53.003-64.004
			c-81.997-121.992-108.999-138.994-150-92.998c-47.998,52.002-80,150-163.999,502.002
			C3272.998,10100.994,3262.001,10134.998,3265,10109.998z"/>
		<path d="M4707.001,9947.996c5.996-35,23.994-72.998,45-97.998c18.994-22.002,62.002-57.002,55.996-45
			c-15.996,32.002-100.996,175-103.994,175C4702.001,9979.998,4702.998,9964.998,4707.001,9947.996z"/>
		<path d="M3702.001,9774.998c0-15.996,1.997-22.002,5-12.002c1.997,9.004,1.997,22.998,0,30
			C3703.999,9799.002,3702.001,9792,3702.001,9774.998z"/>
		<path d="M3692.001,9719.998c0-14.004,1.997-19.004,5-12.002c1.997,6.006,1.997,17.998,0,25
			C3693.999,9739.002,3692.001,9734.002,3692.001,9719.998z"/>
		<path d="M3310,9172.996c1.001-128.994,32.998-300.996,70-365c6.001-10,10-25,10-35c0-8.994,2.998-13.994,6.001-10
			c2.998,2.998-8.003,62.998-23.999,134.004c-35,145-56.001,277.998-48.003,297.998c3.003,7.998,1.001,17.002-3.999,20
			C3313.999,9219.002,3310,9200.994,3310,9172.996z"/>
		<path d="M3262.001,7549.998c0-14.004,1.997-19.004,5-12.002c1.997,6.006,1.997,17.998,0,25
			C3263.999,7569.002,3262.001,7564.002,3262.001,7549.998z"/>
		<path d="M3270,7504.998c0-5,5-17.002,10-25s10-10,10-5c0,5.996-5,17.002-10,25S3270,7510.994,3270,7504.998z"/>
		<path d="M8094.999,14143.996c-177.998-20-272.002-41.997-345-80c-62.002-31.997-180-193.999-180-247.998
			c0-7.002-7.002-27.002-15-42.002c-7.998-16.001-15-40-15-53.999c-0.996-31.001-20.996-136.001-49.004-260
			c-82.998-362.002-258.994-787.001-403.994-974.999c-12.002-15-145-209.004-212.002-309.004
			c-32.998-47.998-109.004-146.992-169.004-220c-122.998-148.994-150.996-185.996-138.994-185.996c3.994,0-2.998-7.002-15-15.996
			c-12.002-8.008-22.002-23.008-22.002-32.002c-0.996-25-30-56.006-67.998-71.006c-65-26.992-102.002-68.994-159.004-180.996
			c-28.994-57.002-68.994-187.002-82.002-265c-21.992-137.002-8.994-350.996,26.006-417.998
			c30.996-60,93.994-107.998,160.996-122.002c24.004-5,32.002-10.996,27.998-22.002c-2.998-7.998-5.996-45-6.992-80.996
			l-1.006-67.002l-12.002,40c-10.996,35.996-15,40-43.994,39.004c-27.998-2.002-32.002,0.996-32.002,25
			c0,13.994-4.004,31.992-9.004,40c-33.994,52.998-32.998-437.002,0-697.002c6.006-45,9.004-89.004,6.006-96.006
			c-7.002-16.992,22.998-45.996,47.002-45.996c8.994,0,21.992,12.002,27.998,27.998c7.002,15,17.002,34.004,22.998,42.002
			c10,12.998,22.998,62.998,49.004,185c2.998,19.004,3.994,19.004,5-0.996c0.996-22.002,47.998-212.002,55-223.008
			c1.992-2.998,17.998-75.996,35-160.996c30.996-152.998,36.992-167.002,85-224.004l25-30l-26.006,70
			c-42.002,116.006-52.998,156.006-52.998,189.004c0,17.002-17.998,100.996-40,185c-74.004,284.004-120,570.996-120,745
			c0,55,0,55,30,55c32.998,0,80,20.996,109.004,47.998c10,9.004,33.994,29.004,52.998,44.004
			c37.998,28.994,238.994,320.996,242.998,352.998c5.996,57.002,27.998,125.996,39.004,122.002
			c7.998-2.998,10.996,3.994,7.998,23.994c-5,34.004,7.002,37.002,32.998,9.004c10-10.996,25-20,34.004-20
			c10,0,2.998,12.998-21.006,37.998c-20.996,21.006-42.002,56.006-48.994,82.002l-12.002,45L6889.003,11267
			c-30-152.002-42.002-179.004-143.008-327.998c-50.996-75-77.998-105-101.992-115c-19.004-8.008-34.004-19.004-34.004-24.004
			c0-5.996-20-30.996-45-55c-42.002-42.002-47.998-45-97.002-45c-95,0.996-167.002,52.002-197.002,139.004
			c-5.996,18.994-13.994,65-17.998,102.998c-5,60.996-3.994,67.998,12.002,67.998c12.002,0,15,5,10,17.998
			c-4.004,9.004-12.002,44.004-17.002,77.998c-7.998,49.004-5.996,76.006,10,145c35,147.002,59.004,196.006,120,253.008
			c45,41.992,124.004,130,175,195.996c7.002,7.998,46.006,57.998,87.998,110c107.002,135,368.008,484.004,415,555
			c21.006,32.998,42.002,62.002,45,65c27.002,22.998,170,299.999,183.008,354.999c3.994,17.002,13.994,44.004,20.996,60
			c19.004,42.002,90,230,132.002,350c18.994,55,38.994,108.999,43.994,120c17.002,37.998,48.008,171.001,64.004,272.998
			c19.004,117.002,62.998,257.002,97.002,305c75,105,232.002,182.002,402.998,197.002c110.996,8.999,190.996-1.001,317.998-41.001
			c77.998-25,104.004-37.998,131.006-67.998c18.994-20,58.994-63.999,90.996-98.003c30.996-33.999,65.996-65,75.996-67.998
			c15-5,17.002-10,9.004-20c-7.998-8.999,4.004-32.002,49.004-92.998c111.992-150,137.998-202.002,101.992-202.002
			c-26.992,0-37.998-20-17.998-35c10-7.002,17.002-15,17.002-17.998c0-3.003,17.002-43.003,39.004-89.004
			c48.994-105,81.992-195,120.996-327.998c65.996-225.996,82.002-277.002,117.002-374.003c60-168.994,63.994-180,82.998-220.996
			c10-22.002,50.996-125,90-230c127.002-335.996,302.998-725.996,382.998-849.004c37.002-55.996,80-151.992,75-166.992
			c-2.002-5-32.998,10.996-68.994,36.992c-57.002,39.004-75,46.006-130,51.006c-35,2.998-68.008,8.994-74.004,12.998
			c-5,5-27.998,10.996-50,15c-99.004,17.998-129.004,60.996-245.996,352.002c-44.004,108.994-84.004,207.002-89.004,217.998
			c-27.002,60-77.998,174.004-90,202.998c-24.004,60-19.004,27.002,5.996-42.998c77.002-215,111.006-307.002,142.002-385
			c79.004-199.004,92.998-229.004,127.998-275.996c13.008-17.002,21.006-34.004,19.004-36.006c-10.996-10.996,35-37.998,110-67.998
			c82.998-32.002,172.002-52.002,177.002-40c2.002,4.004,12.998,4.004,25.996-0.996c17.998-7.002,22.002-16.006,22.002-51.006
			c0-23.994,5-58.994,10-77.998c14.004-49.004,35-452.998,34.004-640.996c-2.002-170-12.002-269.004-49.004-459.004
			c-12.998-69.004-29.004-167.998-35-220c-7.002-52.002-30.996-197.998-55-325c-55-294.004-75.996-430.996-75.996-514.004
			c0-35.996-11.006-155-25-263.994c-13.008-109.004-24.004-200-24.004-202.998c0-18.008-20,5-45.996,53.994
			c-22.002,39.004-32.002,71.006-32.002,102.998c0,25-7.998,77.002-17.998,115c-15,58.008-18.008,112.002-19.004,334.004
			c0,145.996,5,295,10.996,332.002c6.006,40,7.002,70.996,1.006,77.002c-5,5-2.002,117.998,7.002,271.992
			c45,765,48.994,1058.008,17.998,1279.004l-17.002,125l4.004-370c1.992-204.004-2.002-450.996-8.008-550
			c-5.996-99.004-20-325.996-31.992-505c-11.006-179.004-21.006-447.002-22.002-595l-2.002-270.996l-25,30
			c-14.004,16.992-37.998,43.994-54.004,60.996c-25,25.996-128.994,147.998-155,180.996
			c-43.994,56.006-70.996,151.006-77.998,274.004c-7.998,132.998-22.002,105.996-20.996-40.996c0-113.008,10-146.006,68.994-241.006
			l30-45.996l-20-74.004c-30-112.002-132.998-422.998-206.992-622.998c-36.006-99.004-76.006-210.996-89.004-250
			c-12.998-37.998-32.998-97.002-44.004-129.004c-27.998-80-25.996-95,3.008-20.996c33.994,85,73.994,182.998,96.992,232.002
			c10,23.994,19.004,45.996,19.004,48.994c0,3.008,7.002,20,15,37.002c7.998,17.998,37.002,96.006,62.998,172.998
			c27.002,78.008,52.002,146.006,55,151.006s24.004,80.996,47.002,167.998s42.998,160.996,45,165c2.002,2.998,5.996,25,10,50
			s9.004,47.998,12.002,52.998s20.996-10.996,40.996-35c21.006-22.998,69.004-75.996,107.002-115.996
			c39.004-40,75-86.006,82.002-100c17.998-41.006,15-176.006-7.998-277.002c-10-49.004-21.006-100.996-24.004-115
			c-12.002-65.996-77.998-304.004-105-380c-17.002-47.002-55.996-159.004-85.996-250c-54.004-159.004-66.006-190-121.006-310
			c-32.002-70-150.996-307.998-235-470c-35-69.004-72.002-145-82.002-170c-20.996-52.998-105-190-115.996-190
			c-7.998,0-14.004,22.002-24.004,85c-2.998,17.002-10,107.998-15.996,202.998c-5,96.006-12.002,177.998-15,182.002
			s-9.004,55.996-14.004,115c-6.992,85-13.994,112.002-28.994,127.002c-19.004,18.994-19.004,17.998-52.998-56.006
			c-19.004-41.992-39.004-75.996-45-75.996c-12.002,0-40,52.002-55,104.004c-33.008,108.994-82.002,438.994-108.008,723.994
			l-10,112.998l46.006,72.002c57.998,90,132.998,244.004,132.998,271.006c0,18.994-0.996,18.994-14.004-4.004
			c-40-74.004-132.998-230.996-158.994-267.002c-22.998-32.998-32.998-40-42.998-32.002c-8.008,6.006-20,9.004-28.008,6.006
			c-18.994-7.998-30,135.996-23.994,327.002c3.994,140,5,143.994,32.998,176.992c60.996,73.008,189.004,407.002,245,639.004
			c42.002,175.996,20,142.998-50.996-75.996c-55-170-68.008-207.002-125-354.004c-50-127.998-83.008-192.998-84.004-162.002
			c0,36.006-22.002,21.006-37.998-25.996c-7.002-22.998-17.002-40-21.006-37.998c-32.998,20-91.992,221.992-112.998,383.994
			c-15.996,124.004-35,122.002-28.994-2.998c7.998-152.998,65.996-350,117.998-402.998c22.002-22.002,22.998-31.006,27.002-215
			c5-226.006,21.992-305,58.994-267.998c17.002,16.992,27.002,12.998,27.002-10c0-17.002-2.998-19.004-14.004-10
			c-11.992,10-16.992,8.994-23.994-6.006c-12.002-23.994-5-42.998,17.998-42.998c25,0,27.002-10,40-190
			c27.998-397.998,50.996-520.996,125.996-677.002c29.004-60.996,57.002-112.998,61.006-115.996c17.998-10,52.998,13.994,72.998,50
			l20.996,37.998l-6.992-54.004c-4.004-32.998-3.008-50.996,2.998-47.998c5.996,4.004,12.002-30,15.996-85.996
			c20-311.006,31.006-425,41.006-447.002c18.994-42.002,46.992-35.996,91.992,17.002c53.008,62.998,140,200,189.004,292.998
			c20.996,40.996,42.998,77.998,49.004,82.002c5.996,3.994,6.992,7.998,2.998,7.998c-5,0,0.996,12.002,12.002,25.996
			c11.992,15,20.996,33.008,20.996,40c0,8.008,4.004,22.002,10,32.002c20.996,36.006,84.004,182.998,145,337.002
			c197.998,500.996,235,607.002,304.004,870c21.992,82.998,43.994,162.998,50.996,179.004l10.996,30l35-49.004
			c39.004-55,51.006-65,70-57.998c25,8.994,30,33.994,75,412.998c6.006,52.002,12.002,140.996,14.004,197.002
			c2.002,57.002,14.004,155,29.004,225c25.996,127.002,72.998,380.996,100,547.998c8.994,52.002,25,147.002,35.996,210
			c37.998,215,50.996,367.998,50.996,592.998c0,120-1.992,226.006-5,235c-2.998,9.004-10,62.998-15.996,120
			c-5,56.006-12.998,121.006-15.996,144.004c-6.006,37.002-5,40.996,10.996,33.994c10.996-3.994,22.002-1.992,25.996,5
			c5,9.004,17.002,8.008,48.008-3.994c40-17.002,40.996-16.006,45.996,5.996c10.996,41.006-64.004,205-200,437.002
			c-40.996,70.996-80,140.996-85.996,155.996c-5,16.006-16.006,42.002-23.008,59.004c-6.992,15.996-22.998,55-35.996,85
			s-32.998,77.998-45,105c-25.996,57.002-24.004,54.004-77.002,200c-22.002,60.996-50,139.004-62.998,175
			c-84.004,234.004-117.998,329.004-125,354.999c-4.004,17.002-20,62.998-35,102.998c-14.004,40-27.998,81.006-30,90
			c-27.002,113.003-92.998,297.002-144.004,396.001c-33.994,66.001-60.996,123.003-60.996,128.003c0,3.999,5.996,7.998,14.004,7.998
			c22.998,0,25,12.998,6.992,47.002c-63.994,125-78.994,152.998-107.998,191.997c-17.998,23.999-32.998,50-32.998,58.003
			c0,7.998-4.004,10.996-10,7.998c-12.998-7.998-12.998,7.998-0.996,20c5.996,6.001-15,36.001-57.002,80
			c-37.002,38.999-87.002,96.001-111.006,127.998c-23.994,31.001-48.994,57.002-56.992,57.002c-7.002,0-17.002,6.001-21.006,13.999
			c-8.994,15-65.996,46.001-85,46.001c-7.002,0-30,8.999-48.994,18.999c-30,16.001-205,45-236.006,40
			C8129.003,14147.995,8112.001,14144.997,8094.999,14143.996z M6922.997,11304.998c4.004-7.998,2.002-17.002-2.998-20
			c-5.996-4.004-10,2.998-10,14.004C6909.999,11324.002,6915.995,11325.994,6922.997,11304.998z M6382.997,10534.998
			c9.004-7.998,19.004-44.004,22.002-80c5-39.004,12.002-62.998,19.004-62.002c23.994,4.004,5.996-453.994-20-482.998
			c-7.002-7.998-16.006-27.998-20-45c-6.006-22.002-13.008,22.002-25,155c-26.006,274.004-24.004,530,5,530
			C6367.001,10549.998,6374.999,10542.996,6382.997,10534.998z"/>
		<path d="M8182.997,13535.998c55-51.001,139.004-206.001,162.998-301.001c14.004-52.002,75-272.002,88.008-315
			c8.994-30,22.998-77.002,30-105c7.998-27.002,13.994-45,15-37.998c1.992,17.998-26.006,145-40,177.998
			c-6.006,17.002-19.004,63.999-29.004,105c-44.004,190-72.002,277.002-110.996,350c-46.006,87.002-99.004,150-125,150
			C8160.995,13559.997,8162.997,13553.996,8182.997,13535.998z"/>
		<path d="M8452.997,13393.996c17.998-37.998,59.004-118.999,89.004-180c47.002-92.998,110.996-258.003,130.996-338.999
			c2.002-10.996,5,2.002,6.006,29.004c1.992,98.994-58.008,249.995-180,451.997
			C8435.995,13460.998,8409.999,13481.999,8452.997,13393.996z"/>
		<path d="M7880.995,13193.996c0-11.001,3.008-13.999,6.006-6.001c2.998,7.002,2.002,16.001-1.006,19.004
			C7882.997,13210.998,7879.999,13204.997,7880.995,13193.996z"/>
		<path d="M7889.999,13153.996c0-8.999,9.004-50,19.004-91.997c10-43.003,21.992-122.998,25-179.004
			c11.992-197.997,48.994-320.995,110-367.997c40.996-30.996,143.994-75.996,150.996-65c5.996,10-9.004,22.002-65,50
			c-54.004,27.002-87.002,55-105.996,92.002c-22.002,42.002-51.006,182.997-63.008,300.995
			C7949.003,13014.997,7889.999,13231.999,7889.999,13153.996z"/>
		<path d="M8145.995,13100.998c-18.994-30,33.008-325.005,85-488.002c51.006-158.994,80-197.998,219.004-293.994
			c119.004-81.006,182.998-146.006,205.996-205c10-27.002,21.006-51.006,24.004-54.004s15.996-25.996,27.998-52.002
			c12.002-27.002,24.004-47.998,26.006-47.998c2.998,0-2.002,20.996-42.002,150c-11.006,35.996-32.002,119.004-47.002,185
			c-32.002,145-44.004,185-55,185c-17.002,0-19.004-17.998-5-70.996c7.002-30,15.996-72.002,19.004-94.004
			c1.992-22.002,10-52.998,15-67.998c18.994-50,11.992-52.002-31.006-11.006c-23.994,23.008-78.994,68.008-123.994,102.002
			c-98.008,72.998-123.008,102.002-163.008,187.002c-36.992,77.998-92.998,289.003-115.996,439.003
			C8165.995,13088.996,8157.001,13118.996,8145.995,13100.998z"/>
		<path d="M7802.001,12899.997c0-14.004,2.002-19.004,5-12.002c2.002,6.006,2.002,17.998,0,25
			C7804.003,12919.001,7802.001,12914.001,7802.001,12899.997z"/>
		<path d="M7807.001,12749.001c-11.006-179.999-41.006-309.999-127.002-544.003c-12.002-32.998-25-77.998-29.004-100
			c-5-29.004-10.996-39.004-22.998-37.002c-22.998,4.004-30.996-12.998-12.998-27.998c9.004-7.002,15.996-10.996,17.998-9.004
			c47.002,82.002,121.006,279.004,157.998,424.004c32.002,122.002,45,269.999,32.002,354.999
			C7814.003,12862.995,7814.003,12860.993,7807.001,12749.001z"/>
		<path d="M8070.995,12784.001c0-11.006,3.008-14.004,6.006-6.006c2.998,7.002,2.002,16.006-1.006,19.004
			C8072.997,12800.993,8069.999,12794.997,8070.995,12784.001z"/>
		<path d="M8800.995,12674.998c0-10.996,8.008-72.002,19.004-135c29.004-175,37.002-210,45-217.998
			c4.004-4.004,5,8.994,0.996,27.998c-5,19.004-20,105-35.996,190C8814.999,12624.998,8802.001,12685.994,8800.995,12674.998z"/>
		<path d="M7980.995,12264.998c-0.996-150.996,16.006-345,31.006-345c10.996,0,10,30-12.002,280l-17.998,215L7980.995,12264.998z"/>
		<path d="M7570.995,12177c-33.994-187.002-61.992-286.006-111.992-392.998c-15-33.008-31.006-73.008-35-89.004
			c-7.002-27.998-7.002-27.998-21.006,17.998c-8.994,30-18.994,47.002-28.994,47.002c-12.002,0-15,5.996-9.004,22.998
			c20.996,67.002,32.002,152.998,25.996,200l-6.992,52.002l-6.006-75c-8.994-120.996-83.994-314.004-222.998-572.998l-35.996-67.002
			l-26.006,20c-20.996,15.996-27.998,17.998-35,7.998c-8.994-15.996-10.996-33.994-0.996-25c2.998,4.004,17.998-2.998,30.996-15
			c17.002-15.996,26.006-18.994,29.004-10c2.998,7.002,10,17.998,17.002,25c23.994,25,145,227.002,156.992,264.004
			c7.002,20.996,18.008,45,25,52.998c6.006,7.998,17.002,30,25,47.998c8.008,17.002,17.002,32.002,20,32.002
			c4.004,0,12.002-20.996,19.004-47.002c27.002-107.002,40-113.994,59.004-35.996c6.992,27.002,25.996,77.002,42.998,112.998
			c50,107.998,55.996,122.998,72.002,180c32.998,117.002,71.992,407.998,55.996,424.004
			C7607.001,12355.994,7589.999,12277,7570.995,12177z"/>
		<path d="M8089.999,12115.994c0-226.992,12.002-498.994,30-650.996c7.002-62.002,7.998-54.004,7.998,70
			c1.006,77.002-2.998,212.002-7.998,300s-12.998,239.004-15.996,335c-4.004,95.996-8.008,177.002-10,179.004
			C8092.001,12350.994,8089.999,12245.994,8089.999,12115.994z"/>
		<path d="M8454.999,12094.998c15-302.998,22.002-375,35.996-375c15,0,2.002,232.998-25,452.002c-0.996,10-5.996,20.996-8.994,25
			C8452.997,12200.994,8452.001,12154.998,8454.999,12094.998z"/>
		<path d="M8834.999,12009.998c-14.004-22.002-32.002-42.998-40-47.002c-24.004-7.998-17.002-22.002,7.998-15.996
			c32.998,7.998,55,30.996,62.002,65C8874.999,12057,8864.003,12055.994,8834.999,12009.998z"/>
		<path d="M7634.003,11815.994c2.998-85.996,10-142.998,16.992-150c8.008-7.998,10,21.006,4.004,118.008
			C7644.999,11965.994,7627.997,11992.996,7634.003,11815.994z"/>
		<path d="M8957.001,11534.998c-12.998-89.004-17.998-320.996-10-380c7.002-49.004,10-15.996,15.996,179.004
			c5,130.996,6.006,240,4.004,242.998C8964.999,11579.002,8959.999,11559.998,8957.001,11534.998z"/>
		<path d="M7630.995,11404.998c-7.998-162.002-42.998-532.002-75.996-790c-14.004-104.004-29.004-237.002-35-295
			c-10-99.004-12.998-109.004-60.996-195c-28.008-49.004-76.006-125-105-167.002c-33.008-47.002-51.006-82.998-48.008-92.998
			c3.008-7.998,2.002-15-2.998-15s-18.994-9.004-30-19.004c-20.996-20-20.996-20-27.002,2.002c-2.998,12.002-13.994,90-25,172.998
			c-10.996,84.004-23.994,170-28.994,192.002c-5,21.006-6.006,46.006-1.006,52.998c9.004,18.008,46.006,162.002,53.008,209.004l5,35
			l-14.004-30c-12.998-27.002-14.004-2.002-15.996,225c-1.006,140-5,300-9.004,355c-4.004,59.004-5.996-15-2.998-185
			c5.996-340-5-499.004-40-585c-12.998-32.998-39.004-97.998-57.002-145c-54.004-140.996-100-227.998-142.002-265.996
			c-55.996-51.006-63.994-39.004-72.002,108.994c-3.994,67.002-12.998,205-20.996,307.002s-17.002,207.998-19.004,235
			c-6.992,92.002,5-357.998,14.004-504.004c7.002-128.994,5.996-156.992-15.996-280c-14.004-78.994-23.008-172.998-23.008-225.996
			l1.006-90l13.994,50c7.002,27.998,17.002,79.004,20,115c5,40.996,10,57.002,14.004,45c9.004-25,20,37.998,20,112.998
			c0,47.998,2.002,52.998,27.998,62.998c31.006,12.002,82.002,57.002,82.002,73.008c0,5.996,10,21.992,20.996,35.996
			c38.008,47.002,66.006,95,79.004,135c7.002,22.002,19.004,49.004,25,60c7.002,10.996,15.996,34.004,20,50l7.002,30l12.998-32.998
			c29.004-69.004,35.996-182.002,25-424.004c-10-220.996-22.998-403.994-35.996-492.998
			c-8.008-57.002-46.006-189.004-57.002-195.996c-5-3.008-2.002-9.004,7.002-12.002c11.992-5,20.996,5.996,36.992,40
			c11.006,25,23.008,55,25,67.002c31.006,150.996,54.004,385.996,54.004,551.992c0,84.004,10,124.004,22.998,92.002
			c4.004-8.994,16.006-0.996,35,22.002c17.002,19.004,29.004,37.002,27.002,40s22.002,40,52.998,82.002
			c31.006,42.002,77.002,112.002,102.002,157.002c25,43.994,50.996,80.996,57.998,80.996c6.006,0,12.002,10.996,12.002,25
			s7.002,42.002,15,62.002c10.996,25.996,12.002,38.994,4.004,48.994c-6.006,7.002-8.008,26.006-5,41.006
			c12.998,62.998,75.996,590.996,75.996,635.996c0,7.002,2.998,7.002,7.998,1.006c5-5,5-220,0-477.002
			c-7.002-422.998-5.996-472.002,9.004-500c18.994-39.004,28.994-46.006,53.994-40c23.008,5.996,97.002,87.998,110,120.996
			c5,12.998,14.004,20,19.004,17.002c12.002-7.998,62.998,100,80.996,169.004c14.004,57.998,28.008,50.996,21.006-11.006
			c-2.002-27.002-2.002-45.996,0.996-42.998c7.998,7.998,35,267.998,47.002,465c15,239.004,17.002,584.004,2.998,615
			c-7.998,20-12.002-22.998-17.998-195c-4.004-120.996-12.998-319.004-20-440c-12.998-227.998-12.002-220-79.004-425
			c-7.998-25-17.998-57.998-20.996-75c-4.004-19.004-34.004-57.998-80.996-104.004L7689.999,9977l-25,25.996l-25.996,26.006
			l10.996,92.998c24.004,190.996,25,902.998,2.002,895c-14.004-4.004-14.004,10.996-7.002,172.998
			c4.004,104.004,2.998,177.998-2.998,200C7635.995,11410.994,7630.995,11417,7630.995,11404.998z"/>
		<path d="M8452.997,11344.998c7.998-64.004-12.002-624.004-32.002-875c-11.992-145.996-25-322.998-28.994-395
			c-5-70.996-12.002-139.004-17.002-149.004c-5.996-13.994-5-16.992,2.998-11.992s12.002-4.004,12.002-31.006
			c0-40.996,14.004-62.998,39.004-62.998c12.998,0,13.994,2.002,1.992,9.004c-10.996,6.992-12.998,37.998-6.992,166.992
			c3.994,88.008,8.994,182.002,10.996,209.004c2.998,27.998,14.004,182.002,25.996,344.004
			c24.004,333.994,24.004,768.994,1.006,805.996C8450.995,11372.996,8449.999,11372.996,8452.997,11344.998z"/>
		<path d="M8069.999,10829.998c-5-255.996-4.004-520.996,2.002-587.998c7.998-80,7.002-82.998-61.006-332.002
			c-92.998-337.998-176.992-602.002-220.996-695c-5-10.996-19.004-45-30.996-75c-60-159.004-232.002-415.996-247.002-370
			c-2.002,7.998-19.004,32.998-37.002,55c-32.002,40-32.002,40-17.998,85c28.994,97.002,72.002,287.998,77.002,350l5.996,65
			l-20.996-70c-11.006-37.998-38.008-132.998-61.006-210c-22.002-77.002-50.996-170.996-65-207.998
			c-27.002-72.002-78.994-157.998-100.996-165c-26.006-7.998-182.998,172.998-261.006,302.002L7007.001,9012l23.994-7.002
			c19.004-5.996,14.004,2.002-23.994,40.996c-27.002,27.002-80,96.006-117.002,153.008c-65.996,100-69.004,105.996-65,155
			c4.004,45,2.998,46.992-4.004,12.998c-10-47.002-16.992-54.004-40.996-39.004c-10.996,7.002-27.002,12.002-35,12.002
			c-9.004,0-22.998,15.996-30.996,35.996c-8.008,20-18.008,34.004-20,31.006c-3.008-2.998-1.006-14.004,3.994-24.004
			s12.998-35.996,16.006-57.998c10-59.004,20-72.002,40.996-55c37.002,30.996,45.996,24.004,107.998-89.004
			c125-228.994,310-480.996,392.002-530.996c25-15.996,39.004-19.004,52.002-10.996c30.996,15.996,60.996,53.994,97.002,121.992
			l33.994,67.002l26.006-47.998c13.994-25.996,31.992-50,40-52.998c35.996-14.004,125,82.002,203.994,220
			c36.006,63.994,99.004,197.998,116.006,245.996c2.998,10,10,15,15.996,12.002c5-2.998,10-2.002,10,4.004
			c0,5-4.004,10.996-10,12.998s-4.004,13.994,4.004,30c33.994,63.994,200.996,628.994,240.996,810.996
			c9.004,42.002,20.996,77.002,25.996,77.002s9.004-4.004,9.004-9.004s17.998-16.992,40-26.992s40-22.002,40-27.002
			s7.998-17.002,17.998-26.006c10-8.994,35-36.992,56.006-62.998c22.998-28.994,45.996-47.998,58.994-47.998h20l-20,22.998
			c-10.996,12.002-30.996,41.006-42.998,65c-12.998,22.998-27.998,42.002-32.002,42.002c-15,0-108.994,92.998-123.994,122.002
			c-8.008,15-14.004,42.002-14.004,60.996c0,17.998-2.998,37.002-7.002,41.006c-3.994,3.994-8.994,68.994-10,143.994
			c-2.002,75-10,217.998-17.002,317.002l-13.994,180L8069.999,10829.998z"/>
		<path d="M8899.003,10905.994c-3.008-2.998-2.002-40,2.998-82.998c18.994-198.994,27.002-527.998,17.002-762.998
			c-10-234.004-5-432.002,10.996-489.004c24.004-86.992,35,1008.008,12.002,1184.004
			C8927.997,10852.996,8909.999,10917,8899.003,10905.994z"/>
		<path d="M7252.001,10539.998c0-14.004,2.002-19.004,5-12.002c2.002,6.006,2.002,17.998,0,25
			C7254.003,10559.002,7252.001,10554.002,7252.001,10539.998z"/>
		<path d="M8865.995,10037.996c-35.996-167.002-98.994-393.994-122.998-442.998c-32.998-65.996-50.996-85-80-85
			c-28.994,0-32.998,2.998-107.002,107.998c-32.998,45-61.992,80-63.994,77.002c-14.004-14.004,97.002-182.998,132.002-202.002
			c28.994-15,81.992-2.002,101.992,24.004c53.008,68.994,114.004,248.994,130,382.002c3.008,25,9.004,61.992,14.004,80.996
			c10.996,45,22.998,140,17.998,140C8884.999,10119.998,8874.999,10082.996,8865.995,10037.996z"/>
		<path d="M7397.001,9890.994c-46.006-72.998-47.002-97.998-2.998-47.998c28.994,32.002,53.994,92.998,42.998,104.004
			C7434.999,9949.002,7417.001,9924.002,7397.001,9890.994z"/>
		<path d="M8449.999,9744.998c0-10.996,5-27.002,10-35c7.998-12.002,10-12.002,10,5c0,10.996-5,27.002-10,35
			C8452.001,9762,8449.999,9762,8449.999,9744.998z"/>
		<path d="M8827.001,9139.002c-4.004-46.006-22.002-151.006-42.002-233.008c-19.004-81.992-32.998-150.996-30.996-152.998
			c8.994-8.994,75.996,222.002,80.996,282.002c2.998,39.004,7.998,85.996,10.996,105.996c2.002,20,1.006,46.006-3.994,59.004
			C8834.999,9217.996,8832.001,9202.996,8827.001,9139.002z"/>
		<path d="M8879.999,7535.994c0-12.998-2.998-32.998-7.002-42.998c-2.998-10-2.998-15,1.006-12.002
			c12.998,12.002,25,69.004,15,74.004C8884.003,7559.002,8879.999,7549.998,8879.999,7535.994z"/>
	</g>
</g>
</svg>
