<?xml version="1.0" standalone="no"?>
<!DOCTYPE svg PUBLIC "-//W3C//DTD SVG 20010904//EN"
 "http://www.w3.org/TR/2001/REC-SVG-20010904/DTD/svg10.dtd">
<svg version="1.0" xmlns="http://www.w3.org/2000/svg"
 width="1200.000000pt" height="1600.000000pt" viewBox="0 0 1200.000000 1600.000000"
 preserveAspectRatio="xMidYMid meet">

<g transform="translate(0.000000,1600.000000) scale(0.100000,-0.100000)"
fill="#000000" stroke="none">
<path d="M4571 5639 c-116 -34 -171 -67 -256 -154 -44 -46 -90 -86 -102 -90
-36 -10 -131 -129 -143 -178 -6 -23 -23 -69 -39 -102 -64 -131 -62 -114 -53
-419 7 -265 3 -354 -22 -421 -14 -38 -59 -120 -77 -141 -11 -11 -19 -25 -19
-31 0 -5 -7 -23 -15 -39 -8 -17 -16 -51 -19 -76 -5 -54 -21 -88 -41 -88 -20 0
-33 -28 -40 -86 -6 -44 0 -68 48 -205 84 -235 139 -480 123 -546 -4 -12 -3
-23 2 -23 5 0 9 -30 9 -66 0 -37 5 -69 10 -73 11 -7 14 -27 13 -94 -1 -27 4
-55 10 -62 6 -7 12 -51 14 -98 2 -46 6 -89 10 -96 5 -7 9 -53 10 -102 0 -49 3
-89 6 -89 3 0 6 -27 7 -61 1 -33 7 -77 13 -98 14 -53 30 -254 30 -387 0 -79 4
-120 15 -140 22 -43 20 -101 -4 -109 -17 -5 -19 -13 -14 -53 3 -28 -1 -69 -10
-102 -8 -31 -15 -99 -16 -154 0 -54 -3 -106 -5 -115 -7 -20 -13 -83 -22 -229
-5 -86 -4 -112 6 -112 8 0 11 -10 8 -30 -3 -20 0 -30 9 -30 7 0 13 -6 13 -14
0 -25 51 -76 99 -100 75 -38 208 -75 335 -93 112 -16 128 -16 245 0 159 20
195 31 235 69 25 23 31 37 28 56 -4 21 -2 24 12 19 15 -6 16 0 11 56 -17 168
-59 412 -96 546 -11 40 -17 81 -14 90 2 9 -6 40 -20 69 -22 47 -26 76 -35 226
-10 184 -3 149 -128 616 -73 270 -90 350 -107 500 -8 74 -19 176 -25 225 -5
50 -15 167 -21 260 -6 94 -12 172 -14 175 -1 3 1 91 5 195 9 214 10 218 109
425 24 51 98 177 142 242 43 62 45 65 164 190 240 252 265 301 310 608 9 63
20 122 25 131 5 9 12 44 16 77 5 51 3 68 -16 107 -54 112 -195 214 -327 235
-102 17 -319 11 -392 -11z"/>
<path d="M7171 5649 c-122 -24 -259 -127 -311 -234 -25 -51 -24 -57 10 -225
12 -58 33 -163 46 -235 14 -71 35 -152 49 -180 27 -56 111 -160 227 -280 158
-164 175 -186 256 -327 60 -105 63 -112 113 -233 37 -91 41 -110 47 -220 13
-231 -3 -584 -38 -855 -5 -41 -15 -113 -21 -160 -15 -121 -105 -479 -184 -740
-25 -83 -36 -156 -45 -312 -6 -106 -13 -165 -24 -186 -8 -16 -20 -54 -25 -83
-5 -30 -14 -72 -20 -94 -9 -38 -20 -92 -56 -295 -8 -41 -19 -120 -25 -174 -6
-55 -13 -109 -16 -122 -3 -12 -1 -25 5 -28 6 -4 11 -2 11 4 0 6 5 8 10 5 6 -3
10 -16 10 -29 0 -54 70 -88 234 -111 181 -27 341 -7 551 68 80 28 165 106 165
151 0 17 7 41 15 52 12 19 12 41 -1 185 -9 90 -19 218 -24 284 -4 66 -13 135
-20 153 -7 18 -10 55 -8 82 4 42 2 51 -13 55 -23 8 -26 67 -6 106 9 16 16 86
21 196 4 94 16 231 27 304 11 74 17 146 14 161 -4 14 -2 29 3 32 6 3 8 15 5
25 -3 10 -1 21 5 25 5 3 7 31 5 62 -2 33 1 61 7 69 7 8 9 23 5 34 -3 12 -3 26
1 32 9 15 18 83 16 129 0 19 4 38 11 42 9 6 8 11 -3 18 -9 6 -10 10 -3 10 12
0 13 5 12 88 0 28 4 52 10 52 6 0 7 15 4 35 -4 23 -2 35 6 35 8 0 10 11 5 35
-3 19 -2 35 2 35 5 0 10 33 12 73 4 86 55 287 117 458 32 89 44 138 44 174 -1
73 -11 99 -37 103 -16 2 -22 9 -20 21 2 10 -1 18 -7 19 -5 1 -15 34 -22 74 -6
40 -17 74 -22 76 -6 2 -11 9 -11 15 0 7 -18 38 -40 70 -22 31 -40 62 -40 67 0
6 -4 18 -9 28 -22 41 -32 166 -29 347 6 397 8 369 -39 470 -23 50 -47 109 -53
132 -12 49 -107 168 -143 178 -12 4 -58 44 -102 89 -133 136 -243 177 -475
175 -80 -1 -165 -5 -189 -10z"/>
</g>
</svg>
