<?xml version="1.0" encoding="utf-8"?>
<!-- Generator: Adobe Illustrator 16.0.0, SVG Export Plug-In . SVG Version: 6.00 Build 0)  -->
<!DOCTYPE svg PUBLIC "-//W3C//DTD SVG 1.1//EN" "http://www.w3.org/Graphics/SVG/1.1/DTD/svg11.dtd">
<svg version="1.1" xmlns="http://www.w3.org/2000/svg" xmlns:xlink="http://www.w3.org/1999/xlink" x="0px" y="0px" width="1200px"
	 height="1600px" viewBox="0 0 1200 1600" enable-background="new 0 0 1200 1600" xml:space="preserve">
<g id="Layer_2">
	<path fill="#EFEFEF" d="M592.748,374.824c0,0,5.04,4.388,8.711,5.205c3.672,0.817,11.775,2.648,17.853-1.673
		c6.078-4.321,7.334-8.564-4.343-10.706c-11.675-2.142-20.072,4.539-19.991,3.572C595.058,370.255,592.748,374.824,592.748,374.824z
		"/>
</g>
<g id="Layer_1">
	<g transform="translate(0.000000,1600.000000) scale(0.100000,-0.100000)">
		<path d="M5940,12289.998c-40-22.002-49.375-41.25-85-40c-10.752,0.377-22.002,10.996-35,25c-25,25.996-40,25-40-4.004
			c0-36.992,60-57.998,107.002-37.998c6.528,2.793,20.796,12.613,23.936,10.127c12.373-9.789,34.18-20.156,112.061-60.127
			c50-25.996,90-20,152.998,22.998c32.002,21.006,67.002,47.002,78.008,56.006c6.719,6.158,8.574,9.791,13.496,13.936
			c2.969,2.5,17.109-2.744,21.504-4.941c8.994-3.994,30.996-3.994,47.998,1.006c37.998,10,57.998,40,45,65
			c-9.004,13.994-14.004,12.002-41.006-17.002c0,0-19.541-35.004-30.996-34.004c-65,5.67-139.17,65.67-220,63.008
			C6049.726,12347.674,5980,12312,5940,12289.998z M6217.402,12291.01c27.5-8.125-11.777-38.512-50.4-64.01
			c-47.07-31.074-57.998-37.998-92.002-34.004c-54.004,6.006-125.625,58.506-138.125,65.254
			c-16.655,8.99,86.875,60.084,150.225,61.084C6137.128,12320.125,6171.865,12304.467,6217.402,12291.01z"/>
	</g>
</g>
</svg>
