<svg version="1.0" xmlns="http://www.w3.org/2000/svg"
 width="1200.000000pt" height="1600.000000pt" viewBox="0 0 1200.000000 1600.000000"
 preserveAspectRatio="xMidYMid meet">

<g transform="translate(0.000000,1600.000000) scale(0.100000,-0.100000)"
fill="#000000" stroke="none">
<path d="M6018 8973 c-27 -4 -36 -17 -20 -27 38 -23 188 -8 163 17 -11 11 -99
17 -143 10z"/>
<path d="M5815 8523 c-8 -55 -25 -120 -55 -213 -12 -36 -24 -78 -27 -95 -3
-16 -8 -34 -13 -40 -4 -5 -19 -44 -33 -85 -26 -76 -47 -131 -72 -185 -24 -53
-54 -125 -55 -130 0 -8 -68 -157 -86 -190 -9 -16 -40 -75 -69 -130 -28 -55
-65 -120 -81 -145 -16 -25 -34 -56 -40 -70 -6 -14 -28 -46 -48 -73 -20 -26
-36 -50 -36 -53 0 -15 -246 -318 -339 -418 -216 -232 -544 -532 -723 -661
-174 -125 -345 -251 -354 -259 -6 -6 -30 -27 -54 -46 -180 -144 -439 -407
-425 -430 3 -5 0 -8 -7 -5 -14 5 -118 -129 -118 -152 0 -7 -3 -13 -7 -13 -5 0
-21 -26 -38 -58 -16 -31 -32 -59 -35 -62 -11 -11 -32 -51 -101 -190 -86 -174
-77 -153 -132 -325 -55 -171 -59 -184 -97 -364 -85 -404 -85 -852 0 -1126 40
-129 52 -152 121 -246 77 -104 147 -179 219 -233 73 -55 113 -72 227 -97 115
-25 185 -17 285 33 35 17 74 34 88 38 24 7 25 8 22 91 -6 144 -28 275 -56 333
-15 30 -49 78 -76 107 -75 83 -190 333 -224 489 -69 318 -78 444 -43 600 2 8
7 33 11 55 32 165 129 430 215 585 50 89 166 268 208 320 6 8 39 50 74 93 69
88 194 217 282 292 32 28 64 55 70 61 7 6 19 15 29 20 16 9 195 174 372 344
165 158 357 357 374 388 16 28 46 66 128 161 50 59 294 387 379 511 43 63 93
135 110 160 106 153 303 486 364 615 30 63 87 213 97 254 2 9 10 43 18 76 9
33 15 65 15 70 0 12 -19 -33 -25 -59 -50 -249 -270 -655 -632 -1166 -359 -508
-570 -740 -1027 -1131 -60 -52 -123 -104 -139 -117 -16 -12 -26 -22 -22 -22 4
0 -21 -23 -56 -52 -62 -50 -209 -195 -299 -293 -83 -91 -254 -326 -314 -430
-64 -113 -142 -277 -168 -355 -9 -25 -25 -66 -36 -91 -69 -154 -107 -522 -72
-694 6 -27 13 -68 16 -90 4 -22 9 -53 11 -70 3 -16 7 -39 8 -50 2 -11 4 -20 5
-20 2 0 4 -7 6 -15 2 -8 16 -53 31 -100 15 -47 29 -92 30 -100 2 -8 8 -16 13
-18 6 -2 11 -12 11 -22 0 -39 127 -240 166 -263 29 -17 94 -180 94 -238 0 -22
0 -22 -15 -3 -13 18 -14 17 -15 -18 0 -20 8 -63 18 -95 19 -59 19 -60 -2 -76
-11 -10 -24 -17 -30 -17 -5 0 -17 -6 -25 -13 -39 -33 -242 -51 -301 -27 -41
16 -168 98 -225 145 -103 84 -144 133 -194 232 -107 214 -160 486 -146 748 7
125 21 245 25 210 1 -11 12 59 25 155 27 209 70 387 131 553 183 490 488 911
885 1223 67 52 114 82 121 78 7 -4 10 -4 6 1 -5 5 1 13 11 19 35 20 155 104
181 126 14 12 41 36 60 53 19 18 58 50 85 72 28 22 61 50 75 61 14 12 98 83
188 158 89 75 162 139 162 142 0 3 -4 2 -10 -1 -5 -3 -10 -2 -10 4 0 5 3 11 8
13 4 2 27 28 50 58 24 30 63 75 86 100 42 45 167 187 199 225 94 116 135 168
170 220 68 99 167 256 167 265 0 5 3 10 8 12 10 4 104 186 162 313 17 39 40
88 51 111 10 22 19 43 19 47 0 3 11 30 23 59 25 55 51 119 53 128 0 3 4 12 7
20 62 145 166 515 149 532 -6 6 -12 -10 -17 -39z"/>
</g>
</svg>
