<svg version="1.0" xmlns="http://www.w3.org/2000/svg"
 width="1200.000000pt" height="1600.000000pt" viewBox="0 0 1200.000000 1600.000000"
 preserveAspectRatio="xMidYMid meet">

<g transform="translate(0.000000,1600.000000) scale(0.100000,-0.100000)"
fill="#000000" stroke="none">
<path d="M6071 9014 c13 -17 26 -30 28 -27 3 2 -8 16 -24 31 l-28 27 24 -31z"/>
<path d="M5994 9005 c-35 -27 -79 -110 -68 -127 5 -7 2 -8 -6 -3 -9 6 -10 2
-5 -15 4 -14 3 -20 -2 -17 -6 4 -15 -5 -22 -19 -16 -35 -13 -44 4 -14 19 33
19 21 -1 -26 -24 -57 -64 -242 -64 -297 0 -29 -4 -46 -11 -45 -6 2 -20 -26
-30 -62 -26 -87 -99 -309 -112 -340 -6 -14 -11 -27 -11 -30 -2 -9 -28 -73 -53
-128 -12 -29 -23 -56 -23 -59 0 -4 -9 -25 -19 -47 -11 -23 -34 -72 -51 -111
-44 -97 -91 -188 -134 -263 -20 -35 -36 -66 -36 -68 0 -7 -122 -195 -174 -269
-81 -116 -240 -304 -382 -455 -39 -41 -115 -124 -167 -185 -91 -104 -204 -207
-233 -211 -14 -2 -149 -102 -233 -173 -30 -25 -62 -46 -72 -46 -9 -1 -46 -26
-81 -56 -227 -195 -231 -198 -436 -394 -201 -192 -386 -451 -552 -770 -45 -88
-98 -185 -117 -216 -26 -42 -36 -73 -42 -130 -5 -41 -26 -123 -46 -184 -20
-60 -47 -171 -61 -245 -14 -74 -30 -157 -36 -185 -24 -106 3 -538 43 -690 16
-60 112 -257 163 -333 66 -100 231 -256 309 -292 107 -50 180 -64 265 -51 67
10 141 40 185 75 18 14 18 20 3 162 -19 173 -36 217 -127 329 -32 40 -59 77
-59 82 0 6 -23 68 -51 139 -106 269 -142 446 -140 689 1 99 7 186 17 230 8 38
22 106 30 150 61 314 253 662 554 1001 103 116 238 243 305 288 22 15 76 60
121 101 59 53 84 71 92 63 8 -8 23 0 54 28 24 21 42 42 40 46 -1 5 9 13 23 18
21 8 24 13 16 28 -8 16 -1 27 47 68 189 163 461 457 623 675 35 48 100 133
145 190 128 164 248 348 416 642 111 194 181 327 171 327 -3 0 0 6 6 13 16 20
81 204 81 231 0 13 7 39 15 58 17 41 21 65 35 173 15 124 33 553 25 618 -6 61
-23 118 -24 85 -1 -14 -8 -17 -33 -14 -18 3 -40 5 -49 5 -30 2 -32 34 -4 58
35 31 18 29 -21 -2z m-2697 -5067 c-3 -8 -6 -5 -6 6 -1 11 2 17 5 13 3 -3 4
-12 1 -19z"/>
</g>
</svg>
