<?xml version="1.0" encoding="UTF-8" standalone="no"?>
<!-- Created with Inkscape (http://www.inkscape.org/) -->

<svg
   version="1.1"
   id="svg1"
   width="1200"
   height="1600"
   viewBox="0 0 1200 1600"
   xml:space="preserve"
   xmlns="http://www.w3.org/2000/svg"
   xmlns:svg="http://www.w3.org/2000/svg"><defs
     id="defs1" /><g
     id="g5"><path
       style="fill:#000000"
       d="m 449.07617,577.64844 c -2.89783,2.74484 -5.06809,6.12569 -7.5446,9.23157 -6.49483,8.60522 -13.69649,16.74613 -22.058,23.5887 -5.77696,4.84237 -11.60668,9.6218 -17.32808,14.53036 -16.57634,14.05166 -32.85785,28.45828 -49.79469,42.07928 -8.10723,6.44929 -16.63211,12.60072 -26.28369,16.53068 -8.65634,3.59493 -17.68482,6.17057 -26.48103,9.38641 -8.16705,2.87107 -16.32866,5.81786 -24.17043,9.50158 -6.44011,3.31529 -12.26449,7.68458 -17.89436,12.20939 -6.84915,5.62872 -13.24652,11.88541 -18.52324,19.02992 -2.84902,4.01478 -4.88749,8.51382 -7.31005,12.78227 -6.37822,11.49099 -13.36682,22.6332 -20.61439,33.59279 -2.82046,4.16076 -5.63288,8.35179 -8.93103,12.15423 -0.77758,0.85547 -2.00792,0.86161 -2.91511,1.51288 -2.3535,1.38291 -4.23737,3.40538 -6.1817,5.29057 -4.47676,4.51791 -8.49704,9.49566 -11.95007,14.83718 -1.36905,2.22141 -2.3472,4.66578 -2.93677,7.20534 -1.06485,3.74824 -2.4781,7.44453 -2.7451,11.36729 -0.69832,6.60189 -0.0637,13.29883 -1.1775,19.86292 -0.5389,2.45408 -1.29059,4.86693 -1.5343,7.37828 -0.51315,3.78162 -1.0152,7.5682 -1.41549,11.36246 -0.47712,7.32444 1.48641,14.60233 4.45249,21.24395 1.81802,3.9254 4.01712,7.79824 7.23167,10.75359 1.22153,1.04686 2.85635,2.09678 4.53125,1.63476 1.80166,-0.60522 2.53608,-2.54932 3.04993,-4.2066 0.29364,-0.986 0.68691,-1.94173 0.97546,-2.9184 0.36548,-0.73481 1.45304,-1.09861 2.10157,-0.51172 1.51382,0.65414 3.02047,1.35971 4.36132,2.33008 0.78552,0.95011 -0.021,2.16437 0.0488,3.23047 -0.23858,7.70703 -0.10334,15.43649 0.61914,23.11524 0.52247,3.3 1.89193,6.38237 3.16928,9.4441 2.21733,4.99945 5.11521,9.86085 9.33963,13.4212 1.79623,1.43458 4.18971,2.63873 6.52905,1.95238 2.14427,-0.62096 3.22559,-2.78783 5.10806,-3.8305 0.73049,-0.39631 1.6057,-0.84804 2.44252,-0.69195 0.93379,0.37678 1.67371,1.34958 2.76693,1.24383 4.6521,0.64816 9.42511,-0.22462 14.0284,0.84247 1.94071,0.64538 3.22129,2.39154 4.08783,4.15557 1.85826,3.16862 4.16551,6.18983 7.23729,8.26563 1.51709,0.92962 3.38533,1.68566 5.17383,1.16211 0.90707,-0.33346 1.48327,-1.27062 1.44564,-2.22447 0.097,-1.27755 0.42953,-2.5413 1.16552,-3.6048 1.9816,-3.36158 5.34392,-5.57124 8.62208,-7.52447 4.79605,-2.69985 10.19633,-3.96193 15.43544,-5.48975 5.68509,-1.69793 11.18776,-3.95762 16.53227,-6.52397 0.9062,-0.27133 2.01473,-1.11391 2.83417,-0.95708 0.99475,1.3928 1.43088,3.35462 3.12308,4.1136 1.93161,0.59818 3.75527,-0.73551 5.07043,-2.01036 2.92408,-2.8863 4.47749,-6.87973 7.55678,-9.63338 2.68674,-2.68828 5.74316,-5.06132 9.17145,-6.72287 2.73448,-1.13088 5.62891,-1.94183 8.12388,-3.58345 7.55601,-4.44425 13.36799,-11.64325 16.47187,-19.81036 1.49025,-4.086 2.00975,-8.48657 1.7193,-12.81613 -0.0125,-1.75149 0.0142,-3.51422 0.31793,-5.24376 0.7248,-0.69871 -0.016,-1.64294 -0.125,-2.42773 -0.12079,-0.86102 0.86865,-1.27639 1.50878,-1.57376 3.92341,-1.73897 8.04361,-3.28594 11.33847,-6.12383 8.44623,-6.646 14.00653,-16.67154 15.67814,-27.24382 0.43909,-2.89017 0.43818,-5.82107 0.46443,-8.73383 0.35784,-2.80481 2.52139,-4.84581 4.29045,-6.86786 4.81189,-5.17873 9.93817,-10.05208 14.89273,-15.09222 12.18598,-12.21198 24.3218,-24.6467 34.10481,-38.92286 6.76955,-9.9096 12.15318,-20.68682 16.96209,-31.65954 2.21143,-5.16786 3.9997,-10.50843 5.42256,-15.94515 2.60406,-9.51059 4.72474,-19.14396 6.97433,-28.74225 2.30821,-9.93371 4.46672,-19.90571 7.04885,-29.77303 1.41917,-5.12814 3.41966,-10.15162 6.47003,-14.54021 3.76152,-6.00539 8.06858,-11.69098 11.25606,-18.03996 0.80713,-1.72995 1.74749,-3.76092 0.971,-5.6676 -0.57064,-1.16122 -1.5997,-2.12393 -1.71275,-3.48137 -0.44803,-2.39079 -0.12285,-4.84522 0.19796,-7.23168 0.79578,-4.81542 2.76742,-9.3129 4.54374,-13.82383 0.6365,-1.6677 1.09018,-3.41856 1.19769,-5.20517 -0.61366,-1.07181 -1.86989,0.21567 -1.9411,1.0463 -0.76937,2.50489 -2.45217,4.56138 -4.01983,6.60604 -2.31847,3.41173 -3.75149,7.34167 -4.83781,11.29632 -0.92171,3.4901 -1.28621,7.09631 -1.45992,10.69232 -0.16613,1.89286 -0.84982,3.84913 -2.39535,5.05195 -1.3358,1.29414 -2.94839,2.39879 -3.83427,4.0766 -0.26436,1.13565 1.19766,1.62116 2.0371,1.13142 0.77609,-0.21706 1.74665,-0.58153 2.44923,0.009 0.47789,1.03458 -0.5198,1.91719 -0.9533,2.77232 -3.21943,5.0477 -7.64627,9.4076 -9.69815,15.13737 -2.51763,6.59239 -3.95722,13.52201 -5.63521,20.3583 -4.68304,19.56782 -9.08293,39.26364 -15.76864,58.27193 -4.52499,12.7871 -10.3305,25.24091 -18.42782,36.17986 -4.67052,6.44188 -10.06853,12.30053 -15.21333,18.3569 -6.6388,7.74704 -13.20415,15.55666 -19.73128,23.39793 -1.04419,0.82593 -1.24846,-0.79237 -1.37305,-1.42578 -0.68467,-0.7328 -1.66494,0.0616 -2.14364,0.64067 -2.34643,2.5056 -4.32806,5.31572 -6.42831,8.02382 -0.99219,1.24935 -2.00025,2.50044 -3.15657,3.60114 -1.10407,0.74326 -2.08931,-0.47246 -2.10362,-1.5415 -0.46981,-2.00111 -0.97187,-4.00247 -1.82279,-5.88251 -2.26505,-5.43633 -5.69635,-10.25851 -8.68687,-15.29865 -0.67228,-0.74186 0.0737,-1.71739 0.88672,-0.99609 2.18721,1.76354 3.99308,4.07337 6.58008,5.29101 1.18633,-0.40353 1.02463,1.30891 1.4082,1.9668 0.38241,0.83023 2.62684,1.01339 1.86135,-0.26632 -0.57383,-0.81979 -1.76804,-1.38015 -1.68557,-2.53837 0.0307,-0.78109 0.12701,-1.85482 -0.75586,-2.21875 -0.99575,0.0291 0.35904,1.5708 -0.80273,1.56836 -0.93233,-0.0626 -1.58273,-0.85688 -2.09375,-1.54883 -0.3943,-0.80527 -0.15142,-2.02511 -1.0957,-2.48242 -1.61345,-0.97467 -3.68396,-1.15897 -5.03711,-2.55273 -1.04437,-1.38906 -0.69823,-3.23887 -0.84647,-4.85872 -0.27553,-6.55426 -1.06827,-13.10235 -2.65158,-19.47527 -0.94041,-0.56458 -0.75231,1.18673 -0.75976,1.73047 0.0161,4.72603 0.63446,9.42241 1.375,14.08203 0.15805,1.09582 -1.62465,1.30178 -1.54115,0.11102 -0.49861,-1.60049 -0.0899,-3.33401 -0.64245,-4.92352 -0.87194,-0.4707 -1.48835,-1.57678 -0.80285,-2.44517 0.28101,-1.21178 -1.24697,-1.39872 -1.83641,-2.04716 -0.7193,-1.09993 -0.931,-2.43928 -1.32267,-3.67551 -1.47975,-5.4489 -2.38377,-11.11418 -4.88182,-16.2306 -0.64751,-1.30426 -1.06793,-2.7316 -0.99869,-4.19958 0.023,-2.86176 0.73294,-5.70162 0.39576,-8.56911 -0.45875,-6.42693 -2.71168,-12.5473 -5.12279,-18.46432 -1.98187,-4.64508 -4.15155,-9.2534 -7.04381,-13.40956 -3.24938,-4.45253 -7.80977,-8.18184 -13.25476,-9.48115 -5.46583,-1.39947 -11.21099,-0.68232 -16.60758,0.67953 -5.14465,1.20341 -10.36685,2.10365 -15.63701,2.51284 -5.91476,0.72194 -11.23574,4.03246 -15.29752,8.27901 -0.51773,0.48193 -1.74411,1.5273 -0.75977,2.13477 1.73896,-0.45305 3.05485,-1.78393 4.50977,-2.76346 2.57514,-1.86481 5.33582,-3.55903 8.39843,-4.48654 0.88919,-0.69486 1.6897,0.67384 1.04688,1.39257 -0.0321,1.25914 1.65939,0.40919 2.37127,0.30019 4.8723,-1.15844 9.7903,-2.61278 14.85413,-2.31583 4.12017,0.22299 8.44212,1.45127 11.35663,4.52541 2.6556,2.88758 3.90925,7.24487 2.5939,11.01586 -1.01952,2.29177 -3.62836,3.4262 -6.03255,3.38313 -3.40175,0.0737 -6.50251,-1.5626 -9.48127,-2.99665 -1.57311,-0.54562 -1.01586,1.43736 -0.001,1.74429 2.59166,2.03492 5.99582,2.31822 9.1464,2.69477 3.43373,0.27442 6.96614,0.28084 10.28643,-0.7496 1.10564,-0.41179 1.52553,-1.61961 1.46057,-2.71051 0.48414,-6.80646 -3.65563,-13.62683 -9.85881,-16.43541 -0.97407,-0.51045 -2.00473,-1.03493 -2.65059,-1.96151 0.0258,-1.08722 1.38148,-1.12397 2.1944,-1.13495 4.89715,-0.23747 9.49746,1.88438 13.67947,4.20504 2.89772,1.69697 5.81746,3.68831 7.51871,6.67015 0.51223,1.06219 -1.21323,1.40034 -1.5,0.40234 -0.60107,-0.95603 -1.99272,0.0357 -1.18774,0.89781 0.98497,1.93944 2.9225,3.10431 4.33827,4.69385 2.42846,2.61556 3.85762,6.00193 4.77502,9.4103 1.27998,5.13405 1.26293,10.56434 0.18382,15.73242 -1.04859,4.86128 -3.33712,9.5759 -7.11554,12.89533 -5.99684,5.50894 -13.69929,9.3619 -21.86608,10.09102 -5.30754,0.45872 -10.95032,-0.37665 -15.41966,-3.43756 -3.40111,-2.24857 -5.99129,-5.73559 -6.95806,-9.71581 -0.87833,-3.35035 -0.93628,-6.83819 -1.49027,-10.24118 -0.75662,-0.68684 -1.39042,1.02491 -1.70185,1.61355 -0.74941,1.18827 -1.08551,2.67632 -2.22002,3.59152 -1.06533,0.11192 -1.64331,-0.97286 -2.45117,-1.45703 -0.3622,-1.04318 -2.46265,-0.80667 -1.59257,0.44521 0.3837,0.89185 1.0203,1.68841 1.17655,2.66807 -0.37024,1.07451 -1.69836,0.52172 -2.47461,0.30274 -1.23368,-0.28492 -1.56515,1.56361 -0.58726,2.10849 1.79715,2.33061 4.06715,4.23545 5.92125,6.51455 0.4709,0.73469 1.34727,1.50709 0.99617,2.46666 -0.33739,1.25797 -1.68178,1.73247 -2.53883,2.56732 -0.40161,0.44264 -2.0804,1.52126 -0.97688,1.86837 0.98494,0.0321 1.69191,-0.83759 2.58204,-1.14844 1.0355,-0.57074 2.21696,-1.45329 3.4537,-1.0517 1.74182,0.75945 3.07426,2.22302 4.86609,2.89556 5.67271,2.78784 12.21357,3.09357 18.3969,2.38921 9.03594,-1.01901 17.87541,-4.38501 25.05485,-10.00769 2.5682,-2.0688 4.84237,-4.51269 6.65619,-7.2703 1.07351,-0.40598 1.54224,0.96661 1.79297,1.75 2.6635,6.7106 4.98996,13.61589 5.97826,20.79383 1.52987,10.07704 1.6474,20.37965 0.26883,30.48052 -0.73603,4.90371 -1.85016,9.84688 -4.20464,14.24957 -1.82127,3.15536 -4.83043,5.32442 -7.44754,7.76749 -2.05003,1.822 -4.11679,3.62757 -6.08319,5.54062 -1.12469,0.2584 -0.92225,2.25055 0.31034,1.28653 2.92134,-1.14016 5.44766,-3.05922 7.95189,-4.90463 2.28708,-1.82086 4.42525,-3.81827 6.61667,-5.75104 0.61194,-1.15968 2.17453,0.0622 1.05879,0.89665 -3.50061,6.32527 -8.66583,11.46436 -13.29902,16.94124 0.18633,1.08278 1.58728,-0.39433 2.18808,-0.59477 6.07976,-3.74681 10.42868,-9.7356 13.45206,-16.10477 3.59157,-7.36638 5.25686,-15.44457 7.6389,-23.23411 0.35435,-0.56829 0.2796,-2.51718 1.2444,-1.96674 0.69477,0.64973 0.93102,1.61774 1.50284,2.35902 3.68075,6.48088 6.93523,13.40699 7.85962,20.87978 1.3918,9.63825 -0.40877,19.85071 -5.65478,28.12093 -4.96108,7.92498 -13.05938,13.87936 -22.19013,15.99867 -3.16734,0.7764 -6.42522,1.12542 -9.67966,1.24707 -0.84537,0.50117 -2.07039,-0.67068 -1.33789,-1.4668 0.5123,-0.66655 1.30334,-1.33471 1.28711,-2.24414 -0.48693,-1.23652 -1.93412,0.18537 -2.64115,0.55554 -1.85559,1.13896 -3.50948,2.5982 -5.47018,3.56751 -0.0983,-1.14639 1.28291,-1.45356 1.84518,-2.23561 1.5255,-1.52354 3.15362,-2.98019 4.34427,-4.79564 -0.96343,-0.56526 -1.52469,0.91073 -2.33008,1.21679 -2.28651,1.92102 -4.56959,4.18903 -7.62095,4.76015 -4.92742,1.27929 -10.04923,0.34649 -14.96869,-0.47497 -5.95261,-1.03011 -11.92809,-3.0487 -16.57874,-7.03148 -4.63155,-3.83794 -7.90647,-9.39194 -8.60672,-15.40358 -0.5129,-3.455 -0.94121,-6.92995 -1.14131,-10.41758 0.0685,-0.91777 -0.27491,-2.09729 0.38907,-2.82902 0.94797,-0.54598 1.93098,0.27125 2.83472,0.53996 0.56253,0.37302 2.6018,0.81308 1.70239,-0.37266 -0.79898,-0.56838 -1.69947,-0.99988 -2.4707,-1.62433 -2.34748,-1.66343 -4.55664,-3.72795 -5.63803,-6.45641 -1.82366,-4.19039 -2.63264,-8.72194 -3.54291,-13.17446 -1.00714,-5.21452 -1.7511,-10.50156 -3.28781,-15.59569 -0.65519,-1.70525 -1.32977,-3.49699 -1.06012,-5.35755 0.36428,-4.04749 2.41099,-7.67363 4.43831,-11.10529 0.17537,-0.56262 1.27841,-1.47863 0.86204,-1.90826 -0.88546,0.55869 -1.41024,1.52927 -2.13936,2.2644 -1.80266,2.05595 -3.16372,4.44791 -4.2421,6.95078 -0.63007,0.95669 -1.98261,1.52933 -1.97271,2.83039 -0.26321,1.50596 -0.12358,3.04282 -0.22591,4.56185 -0.84049,0.82398 -1.76702,-0.43281 -2.33337,-1.00679 -0.3231,-0.64591 -1.94292,-1.31351 -1.28323,-0.0204 1.42614,3.6646 2.94508,7.2957 4.2084,11.02132 -1.03457,0.59283 -1.52789,-0.96555 -2.26758,-1.39844 -0.72315,-0.93988 -2.27883,-0.28542 -1.19088,0.75057 1.37149,2.19993 2.68739,4.48921 3.23404,7.05212 0.36902,1.44816 0.62707,2.92179 0.9295,4.38481 1.06161,-0.29994 0.39904,-1.76226 0.75195,-2.55664 0.58456,-1.28201 0.57165,0.87624 0.56503,1.35836 0.31219,6.96472 0.151,13.9464 -0.27628,20.9024 -0.18169,2.41067 -0.50566,4.8089 -0.63836,7.22361 0.58666,1.13067 1.21338,-0.86225 1.43359,-1.38672 0.42361,-0.99883 0.87949,-1.99023 1.49024,-2.89062 0.8892,0.13636 -0.005,2.53044 1.07945,1.71244 0.0808,-0.56351 0.85163,-2.13126 1.27211,-1.04721 0.0223,2.91394 -0.68921,5.77416 -1.41509,8.57653 -2.67682,9.46336 -8.52392,17.80479 -15.78454,24.34143 -8.90594,8.1012 -19.94105,13.8502 -31.68843,16.48872 -7.72215,1.66624 -15.95393,1.82723 -23.50262,-0.73167 -4.27837,-1.49993 -8.25068,-3.94072 -11.39057,-7.22501 -1.20732,-0.61966 -0.29507,1.2149 0.12808,1.58768 1.08044,1.59074 2.72412,2.71012 4.45591,3.4924 0.95871,0.49248 0.49092,2.15947 -0.60352,2.03516 -2.80652,0.51405 -5.54299,-0.648 -8.10005,-1.65602 -0.95102,-0.47486 -2.01774,-0.92395 -2.7366,-1.7023 -0.69087,-1.43179 -1.48968,-2.82019 -2.55822,-4.00518 -3.09528,-4.06488 -4.52655,-9.05976 -6.01351,-13.86994 -0.98666,-3.29239 -1.937,-6.59805 -3.0799,-9.84078 -0.69237,-0.61833 -0.2459,1.25682 -0.19787,1.64949 0.83244,9.08347 2.83456,18.18904 7.06306,26.33127 1.25773,2.51811 2.45475,5.24849 2.22661,8.12861 -0.0968,1.31092 -1.45348,2.46517 -2.76601,2.0449 -1.78757,-0.4939 -2.73285,-2.25715 -3.62765,-3.73301 -2.56592,-4.78842 -3.96017,-10.09655 -5.09923,-15.37786 -1.21077,-5.93477 -2.05923,-12.03566 -1.4515,-18.09479 0.15937,-1.24799 0.48418,-2.4797 1.02056,-3.62049 1.4966,-1.29887 1.43399,-3.4369 1.54542,-5.24739 0.31802,-5.13897 0.0663,-10.30822 0.70686,-15.42793 0.82529,-7.96043 3.05273,-15.92557 7.52765,-22.63573 4.71699,-7.27524 11.32634,-13.13659 18.47404,-17.95283 0.97575,-0.64203 1.99699,-1.2097 3.00384,-1.80057 0.90807,0.21102 1.78398,-0.70185 1.49609,-1.60352 -0.0191,-1.04189 0.8177,-1.96863 1.42216,-2.78098 1.92535,-2.10286 3.6238,-4.42598 4.83391,-7.01661 1.25259,-2.53772 2.1434,-5.25096 3.66581,-7.65358 5.96379,-9.52386 11.40274,-19.36719 17.44011,-28.84595 4.48837,-6.97547 9.22073,-13.86788 15.05783,-19.79865 3.9537,-4.10529 8.44939,-7.62317 12.81153,-11.27389 1.51482,-1.28335 3.09683,-2.47863 4.77865,-3.5353 5.69678,-3.72999 11.56771,-7.19111 17.51792,-10.4979 2.23515,-1.15958 4.66918,-1.85425 6.95324,-2.90651 3.34114,-1.45834 6.73084,-2.80242 10.18745,-3.96275 11.59451,-4.07087 23.59104,-7.32203 34.39662,-13.32 5.41287,-2.95053 10.33974,-6.71755 14.88782,-10.86354 3.70497,-3.21382 7.54331,-6.27203 11.1911,-9.55223 3.21719,-2.6864 6.71195,-5.0184 9.90664,-7.73429 4.37275,-3.64748 8.72586,-7.3197 13.22486,-10.81196 4.32008,-3.42286 8.61439,-6.88186 12.76326,-10.51112 2.75902,-2.15757 5.64041,-4.1617 8.24692,-6.5092 6.4759,-5.52393 12.87367,-11.1393 19.25875,-16.76768 4.42505,-3.94769 8.92003,-7.86781 12.73863,-12.42348 0.67675,-0.79218 1.10325,-1.76874 1.21163,-2.7958 0.46906,-0.96668 1.64652,-1.35984 2.03197,-2.39076 2.17723,-3.60423 3.83832,-7.50138 5.21576,-11.47274 0.14345,-0.88808 0.8843,-2.01318 0.42345,-2.81336 -0.26476,-0.0278 -0.42554,0.33875 -0.64258,0.45899 z m 317.29883,0.89062 c -0.54504,0.9056 0.15594,1.93286 0.35417,2.84476 2.36724,7.76 7.35433,14.40117 12.89809,20.19624 7.67246,8.09229 16.25132,15.24802 24.78997,22.3955 12.21034,10.09406 24.66609,19.88632 36.92338,29.92292 6.80988,5.49723 13.77786,10.80659 20.32365,16.62296 5.13604,4.48531 10.39523,8.94487 16.47648,12.11094 7.60892,4.07595 15.88915,6.63556 24.00516,9.47936 7.80709,2.64641 15.55475,5.49632 23.05419,8.93009 12.45634,5.65437 24.35764,12.86009 34.22252,22.41521 8.79774,8.44292 15.97968,18.42736 22.08672,28.94568 5.76515,9.694 11.47951,19.41827 17.21777,29.12806 1.385,2.2538 2.4135,4.71215 3.8962,6.90546 2.838,3.96403 6.311,7.48243 10.2897,10.30647 2.1698,1.50518 4.4217,2.90436 6.4087,4.65689 6.1723,5.25765 10.789,12.21488 13.5915,19.80069 3.015,7.94321 4.0856,16.49185 4.1087,24.94986 0.063,2.67326 0.091,5.37209 0.6871,7.99243 1.2024,1.0772 1.9842,2.57842 2.1907,4.17805 0.9204,4.39332 0.4217,8.91887 -0.082,13.33156 -0.8579,6.57164 -2.4574,13.09613 -5.21,19.14173 -1.0786,2.1812 -2.3775,4.41814 -4.453,5.78281 -0.8946,0.48576 -2.237,0.35554 -2.7371,-0.62863 -1.1358,-1.71956 -0.6746,-3.94023 -0.034,-5.75549 1.1661,-3.05698 3.0492,-5.78763 4.1131,-8.89033 2.4754,-6.21887 3.757,-12.86335 4.2091,-19.52689 -1.0971,0.22467 -0.6555,1.6825 -1.25,2.375 -2.425,7.02935 -4.8588,14.25641 -9.4685,20.20559 -1.8428,2.34392 -4.0791,4.57533 -6.9323,5.61551 -1.4607,0.49911 -3.0642,0.60579 -4.566,0.22773 -1.1333,0.19093 -1.3286,-1.72138 -0.2373,-1.88554 2.4227,-2.12734 4.5946,-4.60393 6.0928,-7.47774 -1.1948,0.1778 -1.733,1.4286 -2.686,2.02517 -5.1797,4.65795 -11.5674,7.832 -18.21823,9.78956 -4.3919,1.21064 -9.05105,0.84305 -13.42355,-0.25987 -6.57845,-1.65682 -12.78855,-4.55778 -18.61593,-7.99415 -6.90112,-4.13368 -13.29342,-9.1245 -18.98669,-14.80684 -4.80051,-4.87831 -9.11343,-10.39659 -11.78311,-16.74308 -1.63467,-4.14928 -2.05685,-8.82708 -0.88615,-13.14946 0.65837,-1.39493 1.68735,0.34402 1.56403,1.21399 0.38895,1.52719 0.6353,3.16937 1.60003,4.46569 1.17873,0.2547 0.8456,-1.43386 0.66187,-2.11337 -0.69405,-5.92555 -0.77772,-11.9089 -0.5692,-17.86556 0.19766,-2.09583 0.90288,-4.10897 1.00602,-6.21956 0.28832,-3.00054 0.26915,-6.02709 0.70014,-9.0144 1.31504,-0.21903 1.985,-1.51153 2.89142,-2.34304 0.8788,-0.97543 1.64631,-2.04535 2.34882,-3.15305 -0.37147,-1.16836 -1.63282,0.0964 -2.05218,0.63988 -0.88949,0.9154 -1.74039,1.89652 -2.83454,2.57692 -0.8843,-0.8216 0.11584,-1.9347 0.37154,-2.81623 1.1437,-2.99697 2.79417,-5.80931 3.53861,-8.95135 -0.52258,-1.12536 -1.90682,0.0384 -2.24389,0.76723 -0.39798,0.55357 -1.70924,0.86427 -1.7372,-0.10573 0.16044,-1.75619 -0.18696,-3.51509 -0.85449,-5.13871 -1.07302,-2.9088 -2.61557,-5.64411 -4.45543,-8.13412 -0.3433,-0.66566 -1.9627,-2.13146 -1.82422,-0.55078 0.32642,0.89236 0.9384,1.6503 1.3475,2.50711 1.24076,2.09903 2.66742,4.3427 2.48091,6.88858 -0.0372,4.87904 -1.30391,9.62596 -2.13475,14.40535 -1.32376,6.79044 -2.65362,13.63456 -5.15275,20.10902 -1.43681,3.4703 -3.85348,6.59573 -7.11279,8.5236 -0.54629,0.16175 -1.60976,1.37525 -0.39197,0.9768 0.92966,-0.26773 1.79627,-0.73523 2.7436,-0.93663 0.63733,-0.3376 2.17514,-0.42379 1.8779,0.68552 -1.50152,6.59914 -1.525,13.47745 -3.50488,19.97548 -1.10458,3.21251 -3.75905,5.53316 -6.41103,7.49517 -7.15477,5.46343 -16.0704,8.60866 -25.07278,8.80169 -4.11106,0.0511 -8.42267,-0.74743 -11.80832,-3.20067 -1.57899,-1.25401 -2.89728,-2.812 -4.54228,-3.98688 -1.31589,-0.0351 -0.0731,1.60992 0.5001,1.93177 0.75899,0.84916 1.52172,1.78974 1.71084,2.94713 -0.4713,1.21132 1.41372,0.74383 2.02344,1.21655 1.52032,0.5206 2.86083,1.43059 4.19726,2.30103 -0.76499,0.71376 -1.69824,-0.21083 -2.44531,-0.49023 -2.53429,-0.94653 -4.7868,-2.54099 -6.86853,-4.2488 -0.9809,-0.88413 -1.66106,1.02967 -0.73108,1.55349 0.60745,0.48636 1.7915,1.44168 1.07617,2.25586 -0.96856,0.44879 -2.10539,0.16856 -3.12622,0.0585 -6.25373,-0.90793 -12.28848,-2.96176 -18.07277,-5.46042 -2.81293,-1.2693 -5.42999,-3.04666 -7.4118,-5.43427 -2.15779,-2.40965 -4.14665,-5.00804 -5.65975,-7.87314 -0.4558,-0.95953 -0.36345,-2.18827 -1.20407,-2.9391 -0.67552,-0.62759 -1.24008,-1.38335 -1.40543,-2.30819 -1.6827,-4.96441 -2.68169,-10.15604 -3.10206,-15.37571 -0.08,-3.23597 0.52188,-6.44096 1.09476,-9.61163 1.02353,-4.9848 3.42836,-9.5142 5.60189,-14.0668 0.95671,-1.93743 1.97264,-3.85189 3.08818,-5.70017 0.84645,-0.91694 1.9181,0.21591 1.78342,1.18679 1.35017,7.69376 3.6572,15.20065 6.55757,22.44542 0.94803,2.31864 2.30849,4.428 3.54524,6.59418 0.55606,1.18783 1.08296,2.43075 2.07012,3.33563 2.52475,2.79813 5.36364,5.30289 8.29756,7.65868 1.27224,0.82511 0.6518,-1.04232 0.0625,-1.46479 -3.15169,-4.27886 -6.7788,-8.25165 -9.32026,-12.95318 -0.88226,-1.65891 -1.71575,-3.34264 -2.52735,-5.03711 3.07948,2.88524 5.95378,6.01067 9.37337,8.51019 2.18317,1.68284 4.55483,3.11903 6.95866,4.44489 1.06172,0.44085 1.39452,-0.71584 0.47207,-1.16281 -2.91876,-3.12366 -6.27661,-5.81047 -9.12734,-8.99815 -4.47383,-5.23785 -7.15902,-11.79905 -8.57602,-18.4876 -1.87721,-9.00947 -1.61774,-18.34841 -0.2234,-27.40682 1.34244,-8.43783 3.6974,-16.70471 6.82361,-24.65085 0.10481,-0.89384 1.04174,-1.59214 1.81663,-0.88752 1.04793,0.93291 1.83888,2.12184 2.8635,3.0852 6.61725,6.80747 15.38717,11.38878 24.64236,13.36988 6.44798,1.34478 13.34954,1.53633 19.61053,-0.75368 2.33263,-0.80355 4.42902,-2.11814 6.48913,-3.44702 0.88715,-0.62935 2.09281,-1.09804 3.12313,-0.50957 1.34758,0.63679 2.41769,1.72845 3.75379,2.39558 0.66947,0.80871 2.0607,0.18566 1.07171,-0.70993 -1.67042,-1.65529 -3.55038,-3.4341 -3.95454,-5.86601 -0.31974,-0.87539 0.39264,-1.60451 1.20079,-1.77816 1.14066,-0.31123 1.84739,-1.32655 2.69099,-2.07875 1.25679,-1.27679 2.35947,-2.72919 3.08478,-4.37551 0.15171,-1.1167 -1.52572,-1.47365 -2.1653,-0.75046 -0.98486,0.50239 -1.85292,-0.85644 -1.10237,-1.60353 0.23405,-0.75218 1.23593,-2.07519 0.5997,-2.63038 -1.17554,0.53732 -1.75301,1.94293 -3.01367,2.32812 -0.99461,0.10124 -1.41922,-1.03582 -1.81011,-1.75271 -0.75911,-1.46456 -1.49352,-2.94493 -2.32661,-4.37033 -1.21476,0.10355 -0.60234,1.67015 -0.78466,2.46814 -0.23688,3.83188 -0.65582,7.79108 -2.53777,11.21308 -2.66808,5.05645 -7.70229,8.72665 -13.28659,9.87952 -6.93384,1.5764 -14.29968,0.0811 -20.5053,-3.23783 -5.25674,-2.76511 -9.99523,-6.72444 -13.1807,-11.77666 -5.66997,-9.2053 -5.5078,-21.7304 0.65973,-30.65813 1.8262,-2.74477 4.32852,-4.96115 6.1685,-7.69281 0.36917,-1.09981 -1.30774,-0.0486 -1.47461,0.45898 -0.75891,0.96251 -1.50154,-0.21726 -0.91485,-0.99289 1.07469,-2.79968 3.55663,-4.69847 6.05045,-6.18297 4.29016,-2.5738 9.09716,-4.52133 14.13314,-4.83452 1.46716,-0.0265 3.0279,0.245 4.18634,1.20765 -0.49724,1.06609 -1.98179,0.27062 -2.71278,1.09469 -2.35151,1.28189 -4.52779,2.87517 -6.45508,4.73601 -1.49214,1.42667 -2.88217,3.03346 -3.59816,5.00067 -0.98021,2.50791 -1.50963,5.20773 -1.54063,7.90105 0.0449,1.3322 0.12516,2.73324 0.71094,3.94922 0.55115,0.77945 1.66938,0.59168 2.42578,0.25586 3.58488,-0.6975 7.24189,-0.88925 10.87059,-1.24361 2.20692,-0.17783 4.41902,-0.27582 6.62941,-0.39897 0.75556,0.72554 2.01872,-0.7229 0.72445,-0.94806 -0.8534,-0.90885 0.75947,-1.58006 1.14858,-2.17235 0.0613,-1.02471 -1.41184,-0.84428 -1.98703,-0.43505 -3.16129,1.47425 -6.54196,2.97789 -10.11188,2.76402 -1.89296,-0.0821 -3.87676,-0.95167 -4.77476,-2.70529 -1.01039,-1.86443 -0.90711,-4.09446 -0.67133,-6.13627 0.43951,-2.95904 2.11539,-5.80758 4.77615,-7.27725 3.47727,-2.11563 7.68397,-2.41316 11.65692,-2.37915 4.11792,0.0794 8.18103,0.83239 12.21937,1.58042 0.72897,-0.009 2.3432,0.60376 2.22071,-0.65821 0.1447,-1.21627 1.79206,-0.56773 2.54101,-0.3164 3.58997,1.1904 6.74315,3.36536 9.63875,5.75051 0.9165,0.68983 1.84136,1.41892 2.9511,1.76902 1.06232,-0.33509 0.32932,-1.67131 -0.23806,-2.16101 -2.89737,-3.58626 -7.07064,-5.83229 -11.30838,-7.46046 -3.21502,-1.2978 -6.70771,-1.5285 -10.12106,-1.84983 -5.54306,-0.61012 -10.93365,-2.09949 -16.39162,-3.17781 -5.1322,-0.82891 -10.63701,-0.15835 -15.12333,2.58705 -3.31971,1.85837 -6.33381,4.24825 -9.0086,6.9445 -3.45061,4.17727 -5.36805,9.33025 -7.21385,14.35548 -2.48424,7.05634 -4.21144,14.42609 -4.59436,21.9133 -0.28664,4.17939 -0.80666,8.3685 -2.06869,12.37767 -1.61755,5.59393 -3.67699,11.07649 -4.70708,16.82587 -0.42256,2.12646 -0.75113,4.27042 -1.05505,6.41672 -0.64155,0.68537 -0.37214,-1.14579 -0.48828,-1.54687 -0.0729,-1.26383 -0.11983,-2.53142 -0.30664,-3.78516 -0.86561,0.68273 -0.55092,1.92168 -0.9668,2.82813 -0.26732,1.12321 -0.48617,2.26448 -0.92383,3.33789 -0.81541,-1.05937 -0.27169,-2.4605 -0.4345,-3.67493 0.0821,-4.93954 0.70848,-9.84776 1.39739,-14.73328 -0.93763,0.59783 -0.77556,1.87345 -1.29102,2.74219 -1.28324,4.24554 -1.61052,8.69567 -2.0617,13.08574 -0.3666,4.18928 -0.49656,8.4188 -1.29027,12.55536 -0.26347,1.08206 -1.36968,1.40743 -2.34191,1.42871 -1.33144,0.30154 -2.00835,1.66559 -3.27291,2.10207 -1.21026,0.51869 -2.53063,0.72524 -3.72266,1.29101 -0.81567,0.92559 1.24373,1.23977 0.95899,2.19336 -0.34565,0.98101 -1.45557,1.37013 -2.13477,2.07227 -0.8433,0.59182 -0.3558,2.13927 0.57641,1.08892 2.66878,-1.90675 4.83628,-4.44022 7.51545,-6.32173 1.25067,-0.70913 0.95639,1.01732 0.34786,1.5308 -2.78968,4.12281 -5.32685,8.43841 -7.20523,13.05911 -1.17382,2.70215 -2.23393,5.4611 -3.64855,8.0511 -0.72445,0.93667 -2.00929,0.0542 -2.26262,-0.84928 -2.39778,-3.9118 -5.21065,-7.62356 -8.76205,-10.56322 -0.63685,-0.49769 -1.62978,-1.82056 -2.25658,-0.54063 -0.38232,0.55715 1.21508,1.39479 0.11133,1.52539 -0.81062,-1.07102 -1.87332,-1.96612 -2.75517,-2.99648 -3.93989,-4.311 -7.63193,-8.84 -11.46974,-13.24098 -6.09923,-7.15416 -12.3231,-14.20978 -18.12673,-21.60911 -7.09674,-9.14284 -13.31938,-19.03737 -17.74652,-29.7571 -5.77405,-13.5157 -9.46973,-27.78506 -13.11156,-41.98764 -3.30574,-13.1226 -6.16682,-26.35662 -9.68844,-39.4245 -1.67032,-5.98724 -3.9864,-11.90955 -7.81352,-16.8688 -2.17029,-2.98872 -4.55469,-5.81267 -6.8684,-8.6896 0.10783,-1.20423 1.61959,-0.52653 2.38024,-0.48432 1.2439,0.16304 2.54478,0.4335 3.7682,0.0117 0.68643,-1.04189 -0.6256,-1.89882 -1.30388,-2.51093 -1.91882,-1.68565 -4.29409,-3.25102 -5.01611,-5.84783 -0.56007,-2.74354 -0.1235,-5.60927 -0.92267,-8.31709 -1.53596,-7.40577 -4.96842,-14.23563 -8.61597,-20.79941 -0.60472,-0.88292 -1.05173,-2.02021 -1.8727,-2.6695 -1.10089,0.0268 -0.53976,1.57803 -0.35402,2.23246 1.10437,4.7079 2.94649,9.20955 3.95009,13.9449 0.86408,3.55387 1.53502,7.18185 1.55713,10.85021 -0.25128,1.09947 -1.96575,0.94835 -2.08594,2.12696 -0.36245,2.1297 0.45937,4.22347 1.14607,6.20257 1.87785,4.88492 4.54843,9.4293 7.47893,13.75055 2.03535,2.9751 4.31866,5.76926 6.57481,8.57409 1.50284,2.40711 1.9679,5.26027 2.75722,7.94363 3.2582,12.18969 5.68716,24.57806 8.55794,36.86052 1.31912,5.92482 2.73137,11.83602 4.60795,17.61285 2.48793,8.12193 5.00933,16.23899 7.8228,24.25392 1.90683,4.30529 3.98078,8.53439 6.02631,12.77472 5.23984,10.39738 11.90389,20.01096 19.09477,29.14291 9.16181,11.55452 19.41568,22.20991 30.2816,32.16643 3.67387,3.5105 7.55914,6.85767 10.66485,10.90509 1.65214,2.1729 2.97958,4.67172 3.29861,7.41767 0.40191,3.08329 0.4448,6.21334 1.12049,9.25997 1.43501,7.35495 4.85234,14.33477 9.95381,19.84247 4.51563,4.96321 10.24508,8.78017 16.50837,11.16761 1.40102,0.76097 1.4641,2.56305 1.41546,3.96713 0.1041,4.90025 -0.42125,9.8642 0.64029,14.69828 1.16532,5.99575 4.066,11.67816 8.44035,15.96687 4.85451,4.9824 11.02288,8.38063 17.19138,11.45523 3.97662,2.0367 7.88362,4.50287 10.60214,8.12622 2.8423,3.33648 5.32894,6.9931 8.53656,10.00502 0.88782,0.72156 2.24614,0.69995 3.09191,-0.0807 1.30548,-0.87944 1.88153,-2.41568 2.71668,-3.66927 1.01434,-0.6308 2.05996,0.47562 3.04161,0.72976 5.19993,2.28806 10.33561,4.7609 15.75942,6.49008 3.88713,1.29123 7.87535,2.25338 11.76967,3.51687 5.36686,1.90832 10.45385,5.2531 13.41234,10.22991 1.03666,1.63743 1.63189,3.53201 1.76701,5.4591 0.43235,1.19003 1.91156,0.93775 2.77525,0.42979 4.06152,-1.4915 6.97793,-4.94186 9.30874,-8.44424 1.42622,-2.17685 2.89523,-4.6939 5.52534,-5.54018 3.29375,-1.08804 6.81348,-0.73991 10.21731,-1.08483 2.33099,-0.15221 4.65396,-0.42765 6.95261,-0.84486 1.86816,0.14559 2.91082,1.91957 3.86718,3.30664 0.7883,1.23282 1.54371,2.4892 2.42383,3.66016 1.18581,0.59934 2.3743,-0.39501 3.27444,-1.07505 4.2782,-3.54226 7.2241,-8.3627 9.8726,-13.17194 4.5928,-8.61199 7.205,-18.36187 6.9531,-28.15183 0.012,-3.64282 -0.1627,-7.31218 0.4253,-10.92345 0.514,-1.50421 2.0791,-2.84559 3.7324,-2.5664 1.3271,0.47422 1.9168,1.91724 2.4357,3.11366 0.8348,2.11194 0.759,4.4416 0.3889,6.64411 -0.1245,1.19326 -0.2712,2.57144 0.4469,3.6016 0.8751,0.72104 2.0745,0.12426 2.7608,-0.57072 3.482,-2.72178 5.7961,-6.57594 8.1101,-10.2673 3.5638,-5.9181 6.4709,-12.37373 7.51,-19.24792 0.7957,-6.00685 0.6138,-12.09255 0.2207,-18.12304 -0.2879,-3.42417 -0.7089,-6.87811 -1.8062,-10.14687 -0.6839,-1.32426 -1.0551,-2.79326 -1.0394,-4.2852 -0.2536,-3.97039 0.085,-7.9671 -0.444,-11.92267 -1.0309,-11.3389 -4.9446,-22.56291 -12.0213,-31.56073 -3.6321,-4.57521 -8.1341,-8.46721 -13.2262,-11.33649 -3.1907,-2.69411 -5.5008,-6.22001 -8.0357,-9.49608 -5.8487,-7.99751 -10.85702,-16.56007 -16.04816,-24.98726 -4.40182,-7.25674 -8.11387,-14.90496 -12.43562,-22.20649 -4.29057,-6.30007 -9.51838,-11.88949 -14.83727,-17.32302 -5.99437,-5.86663 -12.8978,-10.74648 -20.1615,-14.91021 -10.02476,-5.62648 -20.95867,-9.32548 -31.76158,-13.13304 -8.53159,-2.9672 -17.04016,-6.036 -25.2729,-9.76759 -7.95562,-3.55678 -15.80517,-7.57537 -22.63155,-13.04863 -2.00916,-1.65237 -3.78417,-3.56107 -5.67239,-5.34147 -6.96637,-6.03004 -14.06613,-11.90374 -21.04958,-17.91404 -6.30882,-5.37822 -12.4969,-10.89574 -18.77185,-16.31282 -7.33059,-6.26403 -14.87464,-12.27337 -22.27379,-18.45418 -7.80891,-6.96381 -14.90357,-14.70888 -21.37859,-22.92054 -2.36288,-2.99145 -4.54105,-6.15323 -7.24383,-8.8565 -0.23125,-0.17469 -0.71329,-0.59443 -0.96484,-0.2793 z m -7.78516,2.47852 c -0.48703,0.95985 0.49661,1.76716 1.00782,2.4707 0.94184,1.19453 1.92829,2.38324 3.17382,3.27539 1.02532,-0.65502 -0.35567,-1.72903 -0.70723,-2.42068 -0.88861,-1.25357 -1.87358,-2.48748 -3.18534,-3.32151 l -0.14453,-0.0156 z m -302.0332,0.26953 c -1.70525,1.39286 -3.40963,2.87025 -4.53711,4.79101 0.56948,1.032 1.65786,-0.14183 2.10213,-0.71089 1.12597,-1.17926 2.1151,-2.54035 2.59709,-4.11528 l -0.0566,-0.008 z m -10.87109,38.50195 c 0.80856,0.71901 1.67785,1.41316 2.57741,1.99233 1.27655,0.0326 -0.24959,-1.49399 -0.9081,-1.47523 -0.48409,-0.25573 -1.75958,-1.01218 -1.84577,-0.7073 l 0.12433,0.13402 z m 321.58203,1.26172 c -1.11024,0.31219 -2.25075,0.74794 -3.0332,1.63477 0.9407,0.57576 1.90471,-0.26794 2.71704,-0.68558 0.37027,-0.13154 1.43868,-1.1112 0.31616,-0.94919 z m -316.06641,2.24024 c 1.04898,1.27828 2.10874,2.55875 3.34571,3.6621 0.6847,-1.01553 -0.9557,-1.55768 -1.45122,-2.23622 -0.625,-0.45699 -1.14698,-1.19264 -1.89449,-1.42588 z m 4.99024,4.98046 c -1.10867,0.57092 0.90922,2.04681 0.73437,0.63868 -0.01,-0.34415 -0.32852,-0.88081 -0.73437,-0.63868 z m -11.79102,0.0762 c -0.51617,0.71936 1.42807,2.20635 1.41797,0.96875 -0.30088,-0.4692 -0.79765,-1.06317 -1.41797,-0.96875 z m 325.72266,1.10937 c -0.69171,0.0821 -2.48674,0.79189 -1.50823,1.52205 0.75697,0.0811 1.9816,-0.52016 1.80706,-1.38728 -0.0518,-0.10655 -0.17948,-0.19278 -0.29883,-0.13477 z m -311.96094,0.74219 c -0.21688,1.05925 0.4717,1.99255 0.74609,2.9668 0.89925,0.85115 1.14301,-0.89755 0.48633,-1.38282 -0.33549,-0.55944 -0.67349,-1.25493 -1.23242,-1.58398 z m 298.13086,1.4043 c -0.5516,0.31759 -1.37614,2.06336 -0.44727,1.90039 0.67236,-0.29884 1.55551,-1.97683 0.54232,-1.98658 z m -306.88477,2.1914 c -0.0282,0.60673 0.93554,2.26721 1.41407,1.20313 0.16442,-0.73389 -1.71892,-2.53777 -1.43956,-1.35026 z m 280.6875,-0.0156 c 0.51996,0.4503 2.07111,1.32671 1.45899,1.96289 -0.99412,-0.0747 -1.35118,-1.3385 -2.05673,-1.92556 -0.66031,-0.92042 0.26222,-0.33553 0.59774,-0.0373 z m 35.19922,0.54687 c -2.0282,1.69648 -3.50537,3.92177 -4.89648,6.14258 0.94438,0.35338 1.25317,-1.26045 1.9732,-1.67826 1.13414,-1.35653 2.2193,-2.76835 3.05609,-4.33151 0.002,-0.0594 -0.0553,-0.16599 -0.13281,-0.13281 z m -312.88672,3.46875 c -0.0282,0.60673 0.93554,2.26721 1.41407,1.20313 0.16442,-0.73389 -1.71892,-2.53777 -1.43956,-1.35026 z m 2.75391,3.4043 c -0.21688,1.05925 0.4717,1.99255 0.74609,2.9668 0.89925,0.85115 1.14301,-0.89755 0.48633,-1.38282 -0.33549,-0.55944 -0.67349,-1.25493 -1.23242,-1.58398 z m 304.0293,1.07226 c -1.10867,0.57092 0.90922,2.04681 0.73437,0.63868 -0.01,-0.34415 -0.32852,-0.88081 -0.73437,-0.63868 z m -308,7 c -1.10867,0.57092 0.90922,2.04681 0.73437,0.63868 -0.01,-0.34415 -0.32852,-0.88081 -0.73437,-0.63868 z m 312.99023,0.13868 c -0.87826,0.41887 -1.48325,1.57964 -0.99414,2.49414 0.99172,-0.3366 1.37837,-1.51982 1.26953,-2.48047 -0.0748,-0.0664 -0.19184,-0.0593 -0.27539,-0.0137 z m 141.51563,82.67773 c -1.23009,0.78828 1.6876,1.52983 0.92578,0.22461 -0.23493,-0.24796 -0.60747,-0.28857 -0.92578,-0.22461 z m 2.58593,2.17773 c -0.26301,1.04994 0.77793,1.78935 1.32813,2.54102 0.6203,0.60612 1.29527,1.82716 2.02734,1.91406 0.12688,-0.97594 -0.75949,-1.7088 -1.1982,-2.49931 -0.55234,-0.76818 -1.12124,-1.85658 -2.15727,-1.95577 z m -601.64843,0.0313 c -1.95392,0.87888 -2.7782,3.06318 -3.22657,5.01171 0.98823,0.62431 1.27059,-1.20909 1.98535,-1.63207 0.73919,-0.93444 1.44895,-1.98113 1.56348,-3.19996 -0.045,-0.12425 -0.18702,-0.22804 -0.32226,-0.17968 z m 59.55664,30.9746 c -1.10867,0.57092 0.90922,2.04681 0.73437,0.63868 -0.01,-0.34415 -0.32852,-0.88081 -0.73437,-0.63868 z m 479,3 c -1.10867,0.57092 0.90922,2.04681 0.73437,0.63868 -0.01,-0.34415 -0.32852,-0.88081 -0.73437,-0.63868 z m -544.55664,1.05079 c 0.73629,-0.0971 1.80532,1.59055 0.61132,1.47265 -0.30733,-0.18513 -1.62018,-1.50765 -0.61132,-1.47265 z m 69.55664,0.94921 c -1.10867,0.57092 0.90922,2.04681 0.73437,0.63868 -0.01,-0.34415 -0.32852,-0.88081 -0.73437,-0.63868 z m 474.14062,1.30274 c -0.61335,0.29014 -0.34809,2.46385 0.48086,1.60973 0.11716,-0.46435 0.14928,-1.53194 -0.48086,-1.60973 z m -473.14062,1.69726 c -1.10867,0.57092 0.90922,2.04681 0.73437,0.63868 -0.01,-0.34415 -0.32852,-0.88081 -0.73437,-0.63868 z m 472,2 c -1.10867,0.57092 0.90922,2.04681 0.73437,0.63868 -0.01,-0.34415 -0.32852,-0.88081 -0.73437,-0.63868 z m 7,0 c -1.10867,0.57092 0.90922,2.04681 0.73437,0.63868 -0.01,-0.34415 -0.32852,-0.88081 -0.73437,-0.63868 z m -475.85938,8.30274 c -0.61335,0.29014 -0.34809,2.46385 0.48086,1.60973 0.11716,-0.46435 0.14928,-1.53194 -0.48086,-1.60973 z m 465.85938,2.69726 c -1.10867,0.57092 0.90922,2.04681 0.73437,0.63868 -0.01,-0.34415 -0.32852,-0.88081 -0.73437,-0.63868 z m -474.64844,5.64454 c 0.40334,1.10071 0.4702,2.35395 0.0254,3.45312 -0.73337,-0.82117 -0.19747,-1.96808 -0.32227,-2.93555 0.0683,-0.12942 0.008,-0.64325 0.29688,-0.51757 z m 8.79687,1.42773 c -0.4427,1.04218 0.51409,1.95463 1.11719,2.6875 0.12467,1.03721 1.86091,0.54237 0.87223,-0.31318 -0.38236,-0.91244 -0.88986,-1.83662 -1.74723,-2.38213 l -0.16992,-0.0156 z m -106.93945,0.004 c -0.51617,0.71936 1.42807,2.20635 1.41797,0.96875 -0.30088,-0.4692 -0.79765,-1.06317 -1.41797,-0.96875 z m 572.50391,1.43164 c -0.51996,0.4503 -2.07111,1.32671 -1.45899,1.96289 0.99412,-0.0747 1.35118,-1.3385 2.05673,-1.92556 0.66031,-0.92042 -0.26222,-0.33553 -0.59774,-0.0373 z m 9.63867,2.13672 c 0.40334,1.10071 0.4702,2.35395 0.0254,3.45312 -0.73337,-0.82117 -0.19747,-1.96808 -0.32227,-2.93555 0.0683,-0.12942 0.008,-0.64325 0.29688,-0.51757 z m -484,1 c 0.40334,1.10071 0.4702,2.35395 0.0254,3.45312 -0.73337,-0.82117 -0.19747,-1.96808 -0.32227,-2.93555 0.0683,-0.12942 0.008,-0.64325 0.29688,-0.51757 z m -106.57031,0.41406 c 0.32263,0.69492 1.64535,0.37299 2.35137,0.71627 1.85262,0.36332 3.72127,0.7121 5.61542,0.72904 -0.23669,-1.03703 -1.53311,-0.84565 -2.32665,-1.0451 -1.78947,-0.51574 -3.68877,-0.45607 -5.53663,-0.50177 z m 690.72461,0.75781 c -1.23009,0.78828 1.6876,1.52983 0.92578,0.22461 -0.23493,-0.24796 -0.60747,-0.28857 -0.92578,-0.22461 z m 14.57031,0.0742 c -0.91519,0.008 -1.21538,2.29142 -0.1112,1.27162 0.28665,-0.29716 1.14792,-1.41491 0.1112,-1.27162 z m 4.02148,0.90039 c -1.26552,0.27353 -0.17112,1.48995 0.63726,0.93107 1.14994,-0.56063 0.058,-1.05232 -0.63726,-0.93107 z m -719.82226,0.0762 c -1.17557,-0.0617 -0.30626,1.17 0.43847,0.7623 0.64522,0.29799 1.9572,-0.58067 0.68511,-0.71588 -0.37426,-0.0235 -0.748,-0.0661 -1.12358,-0.0464 z m 707.23242,0.96094 c -2.23618,0.28911 -4.45812,0.87103 -6.50701,1.84233 -0.51778,0.19625 -2.06404,0.81178 -0.94612,1.24165 1.20359,-0.19973 2.37079,-0.61376 3.55506,-0.91826 1.46914,-0.43743 2.91106,-0.98743 4.25158,-1.73603 0.19973,-0.23198 -0.11824,-0.50014 -0.35351,-0.42969 z m 16.85742,0.0547 c -0.35177,0.59209 1.0257,1.02136 1.57371,1.16088 2.8292,1.11162 5.71172,2.13459 8.45142,3.47207 0.85174,0.20008 1.73953,1.34959 2.60573,0.84947 -0.56496,-0.68659 -1.63631,-1.01352 -2.4054,-1.53404 -2.63363,-1.41619 -5.38883,-2.63529 -8.22937,-3.56362 -0.65554,-0.14884 -1.30977,-0.48952 -1.99609,-0.38476 z m -728.49219,0.10937 c -4.78829,0.45427 -9.37357,2.18775 -13.51953,4.58008 -0.98442,0.93726 0.74797,1.18023 1.23405,0.43657 3.93956,-2.07157 8.21161,-3.37696 12.38705,-4.87407 0.21833,-0.0846 0.0567,-0.2091 -0.10157,-0.14258 z m 21.52344,2.02539 c 0.39184,0.92075 1.53166,1.19352 2.34375,1.65039 0.61274,0.25453 2.11426,1.38289 2.3418,0.53321 -0.57172,-0.9011 -1.79611,-1.03708 -2.62891,-1.64063 -0.57963,-0.25367 -1.5949,-0.89499 -2.05664,-0.54297 z m 565.71094,3.82032 c -0.74214,0.17284 -1.14744,1.40088 -0.46485,1.8496 0.98057,0.30974 1.62908,-1.38689 0.78711,-1.8496 l -0.14648,-0.0195 z m -466.76563,2.11718 c 1.29828,0.31858 -0.61615,2.26685 -0.53125,0.71485 -0.0369,-0.31544 0.11118,-0.83371 0.53125,-0.71485 z m 487,1 c 1.29828,0.31858 -0.61615,2.26685 -0.53125,0.71485 -0.0369,-0.31544 0.11118,-0.83371 0.53125,-0.71485 z m 151.1641,4.86133 c -1.2301,0.78811 1.6876,1.5298 0.9257,0.22461 -0.2349,-0.24837 -0.6072,-0.28856 -0.9257,-0.22461 z m -794.58207,3.97461 c -0.61245,0.0517 -2.30838,1.17385 -1.29049,1.51807 0.61604,-0.002 2.33586,-1.01771 1.29049,-1.51807 z m 729.41993,0.35938 c 0.51798,1.43232 0.39094,3.02865 0.084,4.49804 -0.7256,-0.87422 -0.16447,-2.05458 -0.36328,-3.06054 0.0837,-0.3918 -0.0677,-1.26608 0.2793,-1.4375 z m 73.86324,2.98437 c -1.0583,0.52156 0.3453,2.16882 1.2071,1.52734 0.799,-0.67013 -0.4903,-1.67124 -1.2071,-1.52734 z m -808.13082,0.75586 c -0.91519,0.008 -1.21538,2.29142 -0.1112,1.27162 0.28665,-0.29716 1.14792,-1.41491 0.1112,-1.27162 z m -11.78711,16.84961 c -1.64266,2.18263 -2.14903,4.93478 -2.86292,7.51017 -1.31356,5.36748 -1.989,11.07034 -0.66715,16.50409 0.13018,0.47666 0.50432,1.86344 0.54202,1.72368 -0.59404,-5.91479 -0.0705,-11.88683 0.88103,-17.73503 0.51938,-2.70737 1.36176,-5.33821 2.24178,-7.94627 0.006,-0.0716 -0.0891,-0.0978 -0.13476,-0.0566 z m 832.71093,1.25976 c -1.1087,0.57092 0.9092,2.04681 0.7344,0.63868 -0.01,-0.34415 -0.3285,-0.88081 -0.7344,-0.63868 z m 0.8789,2.78907 c 0.3484,4.37257 1.5135,8.64761 1.6713,13.04204 0.1476,3.77967 -0.053,7.58054 -0.6322,11.31929 -0.062,0.55712 -0.4256,2.00491 -0.341,1.98004 2.3488,-5.31421 2.3801,-11.29327 1.8026,-16.9753 -0.3423,-3.11344 -0.8691,-6.25579 -2.1628,-9.1317 -0.08,-0.0876 -0.1773,-0.30804 -0.3379,-0.23437 z M 287.00195,862.2873 c 4.0507,3.91913 6.73725,9.36299 6.83547,15.04752 0.18061,3.63137 -0.30689,7.25019 -0.36867,10.87826 0.55543,1.09377 1.28743,-0.61698 1.45508,-1.17383 1.21883,-3.0211 2.27056,-6.20168 2.23437,-9.49609 1.02039,0.39298 0.70262,1.69132 1.0758,2.50597 0.87089,3.33679 0.76898,6.86989 0.23485,10.25815 -1.08919,6.34251 -3.51445,12.40413 -6.64524,18.00501 -3.34122,5.89808 -7.534,11.32445 -12.42909,16.015 -3.54592,3.3609 -7.61275,6.12538 -11.90372,8.4438 -4.40634,2.45687 -8.97733,4.6825 -13.79253,6.21323 -2.94468,0.72705 -5.95437,1.18409 -8.8561,2.08469 -3.78194,1.01634 -7.64416,2.06099 -11.59608,1.89798 -1.42053,-0.33504 -2.68223,-1.20704 -4.17246,-1.27495 -2.77712,-0.44753 -5.58612,-1.3869 -7.64581,-3.3825 -1.47117,-1.33959 -2.70474,-3.22825 -2.61513,-5.28468 0.21358,-0.95226 -0.20798,-2.11467 -1.19941,-2.42701 -0.87161,-0.98022 -0.92265,-2.36271 -1.31203,-3.55953 -0.86693,-3.62865 -1.18252,-7.35681 -1.87156,-11.0186 -0.4139,1.15957 -0.1755,2.42912 -0.25196,3.63672 0.10971,5.12864 1.67401,10.12467 3.83025,14.73999 0.24525,0.78924 1.19786,1.71829 1.04671,2.40259 -1.05178,0.34918 -1.62745,-1.04701 -2.44191,-1.48678 -5.87487,-5.19329 -10.43849,-12.14823 -11.84673,-19.94178 -0.68571,-3.80599 -0.60709,-7.97064 1.33551,-11.41519 1.31835,-2.15003 3.71166,-3.65456 6.26478,-3.65295 3.13664,-0.23489 6.27607,-0.49628 9.36534,-1.11174 10.18165,-1.8685 19.76427,-6.23207 28.41931,-11.8316 4.27944,-2.69798 8.6873,-5.18377 13.07928,-7.68994 6.79699,-4.22841 11.92489,-10.6282 15.99672,-17.42346 0.98293,-1.59482 1.96586,-3.18963 2.94879,-4.78445 1.60873,1.60872 3.21745,3.21745 4.82617,4.82617 z m 645.09766,-4.72852 c 3.51127,3.94854 5.87521,8.76236 9.41306,12.69248 3.72069,4.32797 8.27955,7.84759 13.1039,10.86096 5.82172,3.67326 11.89164,6.93313 17.96485,10.16621 7.22509,3.77801 14.82145,7.17549 22.96225,8.31619 3.59048,0.56085 7.23253,0.64682 10.83913,1.05205 1.7078,0.25672 3.5883,1.1257 4.086,2.92969 0.6874,2.16729 0.3752,4.47393 0.3359,6.70508 -0.3985,5.99216 -2.6513,11.67498 -5.416,16.94336 -1.6094,2.90217 -3.466,5.72602 -5.88369,8.02046 -0.7491,0.64453 -1.62517,1.1597 -2.58704,1.40727 -0.81819,-0.58846 -1.97285,-0.1226 -1.8229,0.90158 -0.90058,1.30111 -2.34147,2.09216 -3.66834,2.89216 -2.57235,1.3181 -5.51214,1.45802 -8.31735,1.88986 -2.91127,0.35822 -5.85167,0.18993 -8.74755,-0.21926 -5.58441,-0.71212 -11.13249,-1.99331 -16.33644,-4.16746 -3.65059,-1.64403 -7.11338,-3.66548 -10.70117,-5.4375 -8.62464,-4.67191 -15.56388,-11.94931 -21.06444,-19.97818 -4.40264,-6.46402 -7.87576,-13.68845 -9.32365,-21.4133 -0.71731,-4.18949 -0.58092,-8.53159 0.47989,-12.65149 -0.20712,-0.75922 1.12112,-2.16131 1.40429,-0.89063 0.26366,2.9883 0.0748,6.18234 1.58203,8.89063 0.1065,1.22597 1.96422,0.57667 1.43173,-0.49139 0.1072,-4.23913 -0.12063,-8.49931 0.36507,-12.72023 0.32487,-2.74987 1.22436,-5.50284 3.05672,-7.62822 2.13694,-2.69054 4.88571,-4.87483 6.71094,-7.81446 0.01,-0.039 -0.007,-0.33634 0.13281,-0.25586 z m 104.25779,0.0195 c -0.4124,0.74919 -1.0201,1.62692 -0.7304,2.51758 0.9438,0.52973 1.4256,-1.31532 1.1894,-2.02539 -0.1038,-0.16304 -0.1967,-0.57491 -0.459,-0.49219 z m -678.66013,18.50977 c -1.23009,0.78828 1.6876,1.52983 0.92578,0.22461 -0.23493,-0.24796 -0.60747,-0.28857 -0.92578,-0.22461 z m -49.76758,0.96484 c 1.10616,0.2858 2.07483,0.92518 2.96289,1.62305 -1.03333,0.69684 -2.3809,0.17916 -3.28906,-0.49023 -0.3414,-0.33925 -0.38629,-1.29904 0.32617,-1.13282 z m 599.22265,0.46875 c 0.72632,0.38833 -0.25807,1.3677 -0.85156,1.43946 -1.4482,0.37993 -0.93065,-1.33602 0.171,-1.3906 0.22512,-0.0564 0.44957,-0.0779 0.68056,-0.0489 z m -37.50195,1.98829 c 1.53417,0.25994 3.27911,0.51617 4.31836,1.80664 0.88985,1.87625 -0.0401,3.90755 -0.37891,5.79882 -0.28096,0.57597 -0.86702,2.66282 0.37434,1.87258 0.78734,-0.57957 1.37018,-1.38976 2.11894,-2.01538 0.90203,-0.89825 1.71502,-1.95776 2.01844,-3.21657 0.58993,-1.17853 2.76172,-0.91399 2.875,0.46484 0.4632,7.14686 2.06207,14.17561 4.12872,21.01627 1.06254,3.68996 3.05086,7.02724 4.13495,10.70834 0.70471,0.92801 -0.59969,2.08497 -1.53679,1.55176 -5.18985,-1.38272 -9.73493,-4.42854 -13.97735,-7.62462 -4.65005,-3.58045 -8.09977,-8.66368 -9.72966,-14.30075 -1.16122,-3.89097 -1.56294,-8.18104 -0.24252,-12.08342 0.76073,-2.02377 2.53706,-3.86629 4.80529,-3.95959 0.36239,-0.0378 0.72759,-0.0109 1.09119,-0.0189 z m -524.69922,0.0469 c 2.94427,0.18028 6.02962,1.91184 6.95117,4.84961 1.6897,4.79103 0.656,10.15326 -1.71484,14.52734 -3.66716,6.92685 -9.83161,12.2249 -16.63477,15.94922 -2.12759,1.20559 -4.31085,2.35601 -6.66211,3.0625 -0.941,0.13184 -1.35593,-1.0277 -1.10495,-1.77717 1.53221,-4.2646 3.86989,-8.199 5.49949,-12.42986 1.17885,-2.9271 1.55078,-6.07532 1.93796,-9.18164 0.524,-3.71611 0.8559,-7.45842 1.06008,-11.20312 0.25969,-1.08092 2.04078,-1.44906 2.49675,-0.32054 0.49685,0.92578 0.76412,2.00997 1.59173,2.7204 0.89799,1.04965 1.96646,1.9358 3.05801,2.77592 0.9673,-0.42795 0.41664,-1.62495 0.22956,-2.37268 -0.23702,-1.61464 -1.142,-3.19192 -0.73152,-4.85584 0.65335,-1.53798 2.5544,-1.79882 4.02344,-1.74414 z m 561.87305,2.78516 c 3.08113,0.12809 5.97779,2.73044 6.05999,5.88318 0.23084,2.45581 0.20708,4.95379 0.87915,7.34752 1.80262,8.30514 6.11037,15.83671 11.16839,22.57727 6.12331,8.08351 13.85158,15.10011 22.99598,19.59632 2.20879,1.12575 4.42998,2.23132 6.57813,3.47071 0.43482,1.1359 -1.46031,0.51531 -2.06777,0.46556 -11.12261,-1.43533 -22.43093,-2.58224 -33.03147,-6.46531 -6.83242,-2.53458 -13.11022,-6.50915 -18.37126,-11.54768 -4.21672,-3.89049 -8.05482,-8.32434 -10.49966,-13.55971 -2.41312,-5.01881 -3.86684,-10.60198 -3.59393,-16.19558 0.2018,-2.9434 1.15574,-6.13915 3.66175,-7.93166 0.70228,-0.58471 1.65837,-0.75364 2.38476,-1.23828 0.92806,-0.73635 2.09524,0.29888 1.13281,1.20508 -1.00424,2.25009 -1.43042,4.70114 -1.80468,7.11523 0.33236,1.33336 1.27267,-0.41458 1.4238,-1.03088 1.2367,-2.98203 2.99536,-5.93967 5.8201,-7.66128 2.12399,-1.41091 4.70411,-2.20699 7.26391,-2.03049 z m -595.25781,0.0762 c 3.89928,0.41306 7.07086,3.31263 8.91549,6.62339 0.97597,1.73398 1.69436,3.60868 2.79154,5.27505 0.85856,-0.72225 -0.13741,-1.74559 -0.24414,-2.58203 -0.50752,-1.92724 -1.37784,-3.77661 -1.65625,-5.77149 0.3241,-1.1628 1.79126,-0.72743 2.639,-0.51835 2.51612,0.54903 4.8027,2.49397 5.30038,5.08945 0.9978,3.66085 0.0283,7.47966 -1.07821,10.99716 -2.48164,7.38578 -6.90161,13.9716 -11.99008,19.81065 -4.79597,5.36513 -10.64378,9.84323 -17.25798,12.72524 -3.53228,1.73129 -7.29225,2.97984 -11.15455,3.72272 -2.64338,0.57014 -5.27163,1.21801 -7.89178,1.8765 -5.67852,0.77598 -11.4062,1.11013 -17.09022,1.8396 -1.16794,0.60234 -1.14049,-1.00222 -0.0516,-1.05192 5.22745,-2.79938 10.52044,-5.55724 15.22647,-9.19857 8.54694,-6.47267 15.29714,-15.15202 19.96814,-24.77065 0.94369,-1.8506 1.81742,-3.73777 2.57574,-5.67222 0.28319,-3.17348 0.87425,-6.30949 1.51172,-9.42773 0.67726,-3.01014 2.06531,-6.11241 4.78987,-7.78621 1.38486,-0.88067 3.0547,-1.33941 4.69646,-1.18059 z m 701.21679,31.59961 c 0.7751,1.42058 0.2131,3.07783 0.1089,4.58963 -1.0772,7.54654 -3.1883,15.02954 -6.9048,21.71767 -1.0203,1.73544 -2.1827,3.5401 -3.9834,4.54621 -1.0526,0.47993 -2.41041,0.30113 -3.18299,-0.60053 -0.71114,-0.62825 -1.57338,-1.46071 -1.45177,-2.48931 0.40481,-1.3461 1.68739,-2.12661 2.49472,-3.21328 5.34044,-5.89772 9.05644,-13.14746 11.23754,-20.77175 0.4051,-1.28638 0.8546,-2.56912 1.5119,-3.7513 l 0.096,-0.0488 z m -809.71484,1.68554 c 1.53606,1.72754 1.83248,4.11762 2.75286,6.16675 2.18285,5.9823 4.89747,11.9932 9.48718,16.53511 1.04706,0.97728 2.14175,1.90184 3.18965,2.87822 0.50241,1.01846 -0.50447,1.90159 -1.14907,2.56236 -0.64909,0.66947 -1.31042,1.67565 -2.37046,1.57827 -1.55665,-0.55635 -2.59909,-1.92479 -3.86829,-2.91446 -2.08091,-1.87829 -3.64469,-4.31377 -4.4506,-7.0012 -1.46894,-3.98547 -2.65779,-8.07441 -3.64176,-12.20423 -0.50686,-2.36889 -0.85456,-4.81748 -0.51396,-7.23558 0.0786,-0.2168 0.31004,-0.47043 0.56445,-0.36524 z m 797.62894,4.38477 c -1.23014,0.78811 1.6876,1.5298 0.9257,0.22461 -0.2349,-0.24837 -0.6072,-0.28856 -0.9257,-0.22461 z m -0.5352,2.44141 c -0.76341,1.2986 -0.86223,2.8568 -1.3716,4.2587 -0.42926,1.40754 -0.85437,2.83785 -0.89988,4.31942 -0.21448,0.64696 -2.14944,1.26659 -0.99023,1.84961 1.41435,-0.26869 1.93894,-1.81306 2.44119,-2.97388 0.84492,-2.17862 1.26832,-4.51381 1.42002,-6.8352 0.028,-0.3403 -0.1871,-1.3513 -0.5995,-0.61865 z m -97.70116,7.94336 c 1.73898,0.71684 3.75902,1.45777 4.60937,3.28711 0.19952,1.28281 -1.67054,0.97 -1.84574,-0.0182 -1.02023,-1.02775 -2.05692,-2.0531 -2.90035,-3.23566 0.0224,-0.0483 0.0972,-0.0756 0.13672,-0.0332 z m -590.28321,0.58593 c 0.27608,0.92853 -0.76739,1.56167 -1.34765,2.12891 -0.38862,0.64756 -1.71358,1.48124 -2.19336,0.5625 0.086,-0.94459 1.12134,-1.49454 1.81055,-2.02734 0.53768,-0.29096 1.10829,-0.63717 1.73046,-0.66407 z m 678.75782,7.60157 c -0.97136,0.70442 -1.94271,1.40885 -2.91407,2.11328 0.9847,0.59518 1.99103,-0.35689 2.64063,-1.02344 0.34275,-0.25596 1.67232,-1.8368 0.50991,-1.24692 l -0.15228,0.10115 z m -765.54688,0.6914 c -0.42801,0.60958 1.12434,2.11603 1.47656,1.04688 -0.26806,-0.52064 -0.83697,-1.14383 -1.47656,-1.04688 z m 37.83594,6.49024 c 1.01481,0.0376 0.65781,1.40046 -0.0534,1.65822 -0.94225,0.0932 -1.54894,0.96439 -2.14165,1.63954 -1.95214,2.76501 -3.31505,5.88541 -4.84791,8.88974 -2.14566,-2.55721 -4.43207,-5.00495 -6.36328,-7.73438 -0.47955,-1.06063 0.63467,-2.09361 1.63086,-2.20898 3.25043,-1.03158 6.6213,-1.62183 9.9727,-2.21073 0.5983,-0.0667 1.20228,-0.0762 1.80269,-0.0334 z m 689.86523,0.24023 c 4.16711,0.43871 8.40149,1.01626 12.26368,2.73047 0.8745,0.63632 0.45743,1.86098 0.0335,2.64105 -1.08795,2.39771 -3.02927,4.46857 -5.5257,5.39997 -1.00724,0.11598 -1.38672,-1.04151 -1.56473,-1.82598 -0.79464,-3.01558 -2.91543,-5.45981 -5.21262,-7.47285 -0.47897,-0.39724 -1.29221,-1.66939 0.006,-1.47266 z"
       id="path9" /></g></svg>
