<?xml version="1.0" encoding="UTF-8" standalone="no"?>
<!-- Created with Inkscape (http://www.inkscape.org/) -->

<svg
   version="1.1"
   id="svg1"
   width="1200"
   height="1600"
   viewBox="0 0 1200 1600"
   xml:space="preserve"
   xmlns="http://www.w3.org/2000/svg"
   xmlns:svg="http://www.w3.org/2000/svg"><defs
     id="defs1" /><g
     id="g5"><path
       style="display:inline;opacity:1;fill:#000000"
       d="m 453.33008,588.57422 c -1.12994,0.0701 -2.24743,0.29736 -3.32502,0.64008 -1.99901,0.64691 -3.85961,1.66008 -5.60504,2.81877 -0.92835,0.61965 -1.83384,1.272 -2.71293,1.95974 -1.65481,1.28571 -3.22195,2.67855 -4.76127,4.09918 -1.94929,1.78735 -3.78429,3.69338 -5.68428,5.5321 -1.72311,1.67651 -3.49251,3.30462 -5.25436,4.94009 -1.65726,1.50813 -3.31334,3.01757 -4.99928,4.4937 -2.01999,1.80648 -4.08152,3.56556 -6.13365,5.33519 -4.6036,3.88684 -9.27103,7.69726 -13.88227,11.57499 -2.55221,2.14448 -5.09357,4.30219 -7.59257,6.50867 -3.32436,2.92924 -6.68389,5.81818 -10.0247,8.7286 -1.76285,1.52802 -3.52543,3.05635 -5.26152,4.61483 -1.67407,1.47976 -3.32307,2.98821 -5.03347,4.42632 -3.62665,3.10176 -7.32298,6.1208 -11.02512,9.13169 -4.52849,3.67461 -9.08686,7.31293 -13.70445,10.87511 -1.35156,1.03664 -2.70531,2.07113 -4.07813,3.07927 -1.22454,0.85953 -2.46182,1.70257 -3.75231,2.4609 -2.0476,1.22735 -4.16776,2.33057 -6.32617,3.34931 -1.13719,0.54779 -2.29038,1.06253 -3.44722,1.56726 -2.05083,0.89279 -4.12607,1.72812 -6.2156,2.52586 -1.66696,0.65358 -3.35311,1.25695 -5.03532,1.86978 -3.63891,1.29558 -7.30337,2.51739 -10.95765,3.76858 -3.62968,1.22443 -7.23976,2.50576 -10.85569,3.76992 -3.79976,1.36641 -7.59187,2.75738 -11.33587,4.27092 -1.82018,0.74115 -3.6244,1.52092 -5.41969,2.32021 -1.39222,0.64788 -2.78353,1.29867 -4.14278,2.01388 -1.6167,0.83113 -3.2042,1.71948 -4.75689,2.66492 -1.41552,0.84181 -2.78073,1.76458 -4.1455,2.68552 -1.73997,1.19877 -3.45159,2.43814 -5.13252,3.71838 -2.56905,1.91606 -5.07378,3.91899 -7.5022,6.01044 -1.20415,1.04385 -2.39667,2.10196 -3.55203,3.1997 -1.9289,1.83256 -3.79166,3.73714 -5.52988,5.75246 -1.138,1.30702 -2.22134,2.66169 -3.24338,4.06135 -1.01172,1.37014 -1.96651,2.7824 -2.85275,4.23699 -1.01953,1.66962 -1.94048,3.39656 -2.84217,5.13194 -1.72504,3.32627 -3.48831,6.63263 -5.2798,9.92355 -1.53891,2.79209 -3.08813,5.57868 -4.69205,8.33409 -1.8439,3.20792 -3.76321,6.37205 -5.73803,9.50098 -1.12024,1.76484 -2.26298,3.5154 -3.43268,5.24792 -0.79796,1.18585 -1.61746,2.35739 -2.43971,3.52647 -0.91573,1.27237 -1.82503,2.54949 -2.7824,3.79114 -0.90567,1.21597 -1.85831,2.39602 -2.80251,3.58198 -1.22284,1.47263 -2.44301,2.94831 -3.73527,4.36115 -0.98856,1.07678 -1.98458,2.14719 -3.022,3.17737 -0.81035,0.83122 -1.66351,1.61961 -2.50835,2.41524 -1.11356,0.99859 -2.23139,1.99317 -3.39909,2.92858 -1.37833,1.11071 -2.75476,2.22558 -4.05929,3.42319 -0.9721,0.86752 -1.90116,1.78212 -2.80416,2.72108 -0.97697,1.02763 -1.91689,2.09119 -2.79249,3.20698 -1.50797,1.91048 -2.84059,3.95949 -3.97187,6.11468 -0.49995,0.96155 -0.96397,1.94061 -1.39904,2.93317 -0.55082,1.31229 -1.05753,2.64313 -1.49771,3.99678 -0.74428,2.28279 -1.33405,4.61481 -1.80975,6.9677 -0.23525,1.21358 -0.47796,2.42585 -0.65901,3.64905 -0.22843,1.35608 -0.40655,2.7201 -0.58441,4.08352 -0.28773,2.28875 -0.5012,4.58579 -0.69187,6.88441 -0.3166,3.68365 -0.62612,7.36808 -1.00378,11.04611 -0.22009,2.24708 -0.46222,4.49207 -0.71902,6.73518 -0.19474,1.61714 -0.42057,3.23048 -0.62273,4.84651 -0.15454,1.44886 -0.26871,2.90265 -0.30435,4.35961 -0.05,1.36277 -0.0227,2.72688 0.0254,4.08933 0.0799,1.51588 0.19437,3.03064 0.3923,4.53607 0.24504,1.99999 0.61346,3.98519 1.09505,5.94165 0.40358,1.62351 0.89754,3.22433 1.48779,4.78979 0.48024,1.19161 0.97026,2.38237 1.58652,3.51162 0.94483,1.77105 2.0924,3.45839 3.56655,4.83292 1.03235,1.01364 2.52201,1.53619 3.96163,1.40358 0.77386,-0.0796 1.57909,-0.38054 2.06836,-1.01172 0.3453,-0.42047 0.32449,-0.97742 0.42774,-1.47461 0.47702,-0.91773 1.67611,-0.87494 2.56774,-0.99399 1.13417,-0.10749 2.27523,-0.0583 3.41273,-0.0666 1.24691,0.0358 2.51155,0.062 3.7207,0.40039 0.76501,0.26372 1.45127,0.84962 1.70791,1.63185 0.29939,0.82683 0.34833,1.71682 0.36579,2.58806 0.0202,1.83618 -0.13765,3.66751 -0.26465,5.49771 -0.0994,1.52568 -0.18173,3.05326 -0.17751,4.58265 0.004,1.67393 0.0822,3.3473 0.21715,5.01573 0.19951,2.22373 0.48495,4.44056 0.89328,6.636 0.33078,1.80012 0.73074,3.58743 1.19661,5.35742 0.29107,1.1033 0.60826,2.2006 0.95755,3.28696 0.34425,1.1168 0.73846,2.21703 1.15181,3.30985 0.51073,1.31305 1.04623,2.61765 1.6663,3.88341 0.47587,0.99702 0.99622,1.97384 1.55466,2.92704 0.79586,1.33685 1.68953,2.62064 2.74202,3.76931 0.7579,0.8087 1.61222,1.55401 2.61207,2.04689 1.007,0.52338 2.25293,0.65421 3.29888,0.16243 0.97096,-0.38853 1.57311,-1.27335 2.35948,-1.90868 0.84477,-0.71597 1.98085,-0.87136 3.04651,-0.94631 1.4651,-0.1032 2.9345,-0.0174 4.40065,0.0191 3.17098,0.14045 6.34004,0.32388 9.50639,0.54461 1.85066,0.14788 3.70103,0.33029 5.52969,0.65745 0.96777,0.18293 1.93356,0.42269 2.84122,0.81056 1.01899,0.38644 1.89823,1.08614 2.56411,1.94245 0.77912,1.03937 1.18365,2.29266 1.84694,3.40004 0.46827,0.75742 1.1267,1.40935 1.93641,1.79386 1.04841,0.51698 3.67808,7.2099 4.81516,7.41738 1.08873,0.18769 2.05625,-4.35188 3.14498,-4.16419 1.03481,-0.40257 0.4319,-3.10744 1.24464,-3.82622 1.2717,-1.20362 2.43383,-2.515 3.6271,-3.79469 0.85734,-0.85448 1.71856,-1.71096 2.68824,-2.43972 1.45026,-1.12841 3.09099,-1.99599 4.80162,-2.65803 1.97573,-0.76329 4.02996,-1.29755 6.08988,-1.77858 1.90839,-0.43926 3.83555,-0.78902 5.75295,-1.18513 1.88446,-0.4016 3.71352,-1.02189 5.52153,-1.67994 1.08236,-0.41746 2.17136,-0.81847 3.23199,-1.28968 2.2879,-0.92856 4.44699,-2.13816 6.71532,-3.11036 0.95214,-0.418 1.92254,-0.7979 2.90988,-1.12464 1.03066,-0.33787 2.09449,-0.5994 3.17922,-0.67338 0.8568,-0.0399 1.76489,0.0656 2.5,0.53907 0.70749,0.43838 1.04535,1.23009 1.58594,1.82031 0.4318,0.35252 0.99255,0.0871 1.32422,-0.26563 0.76266,-0.66197 1.3704,-1.47586 2.02575,-2.23896 1.2858,-1.55601 2.55385,-3.12883 3.93153,-4.60561 1.05076,-1.14605 2.15688,-2.24139 3.31463,-3.27935 0.77895,-0.69616 1.59186,-1.35274 2.42052,-1.98868 1.14614,-0.85937 2.32982,-1.66861 3.55206,-2.41611 2.22809,-1.39639 4.58718,-2.56447 6.89367,-3.82231 1.62852,-0.89222 3.24354,-1.81052 4.8143,-2.80156 0.94154,-0.58732 1.86901,-1.19927 2.77392,-1.84158 1.00715,-0.71064 1.99742,-1.44591 2.93719,-2.24433 1.62302,-1.36222 3.13696,-2.86353 4.43754,-4.5393 1.5142,-1.9373 2.72254,-4.11061 3.58684,-6.41188 0.79484,-2.08863 1.33054,-4.27005 1.69047,-6.47357 0.17861,-1.1339 0.33293,-2.27094 0.44584,-3.41336 0.28454,-2.80809 0.34916,-5.63179 0.51704,-8.448 0.076,-1.09113 0.1417,-2.18419 0.27393,-3.27032 0.13133,-1.01417 0.31701,-2.03947 0.75,-2.97266 0.48496,-0.98173 1.41884,-1.63068 2.39895,-2.05587 1.52038,-0.69671 3.10438,-1.25148 4.59224,-2.02008 1.00585,-0.48612 1.96222,-1.0654 2.9167,-1.64367 0.9703,-0.60208 1.89163,-1.27865 2.79642,-1.97387 1.11962,-0.88903 2.20385,-1.82487 3.20598,-2.84562 1.91623,-1.92092 3.61118,-4.05965 5.06996,-6.34659 1.06338,-1.66036 1.99944,-3.4014 2.82442,-5.19169 0.94245,-2.03105 1.71859,-4.1363 2.36953,-6.2778 0.8796,-2.91274 1.50407,-5.89992 1.91115,-8.91442 0.18652,-1.4597 0.32139,-2.92577 0.51426,-4.38468 0.17398,-1.09888 0.43257,-2.19745 0.93383,-3.19742 0.45314,-0.92783 1.05275,-1.77321 1.66773,-2.59946 1.0908,-1.38847 2.28198,-2.69476 3.48973,-3.98163 1.26047,-1.3305 2.54285,-2.63969 3.8348,-3.93958 3.19161,-3.22038 6.41709,-6.40705 9.6253,-9.61088 3.75085,-3.74411 7.46494,-7.52541 11.10919,-11.37354 2.58641,-2.73314 5.14765,-5.49085 7.63879,-8.31137 1.99941,-2.2581 3.96381,-4.54718 5.89167,-6.86661 1.76009,-2.17111 3.51971,-4.34358 5.19016,-6.58503 3.09859,-4.11377 6.00592,-8.37376 8.66584,-12.78449 2.48431,-4.12334 4.74998,-8.37759 6.79964,-12.73317 0.73875,-1.60481 1.47656,-3.21049 2.16322,-4.83851 0.63944,-1.45849 1.22587,-2.93939 1.82326,-4.41535 0.67346,-1.73685 1.3365,-3.47761 1.96833,-5.23009 1.06004,-2.96175 2.07745,-5.93911 3.01178,-8.94312 0.82816,-2.60036 1.61202,-5.21465 2.35958,-7.83928 1.1725,-4.11003 2.27905,-8.23877 3.33544,-12.3801 1.71922,-6.8027 3.3335,-13.63159 4.87989,-20.47553 1.20012,-5.25126 2.37294,-10.50881 3.61056,-15.75142 0.44371,-1.91778 0.90567,-3.83155 1.39532,-5.73808 0.36244,-1.36023 0.70337,-2.72644 1.11717,-4.07235 0.3865,-1.34719 0.84751,-2.67197 1.36949,-3.97251 0.56946,-1.41574 1.29101,-2.7676 2.1219,-4.04682 0.85171,-1.35279 1.77811,-2.65689 2.66919,-3.98381 1.94184,-2.84901 3.85824,-5.71572 5.72573,-8.61405 1.01988,-1.57576 2.01237,-3.16913 2.95605,-4.79183 0.51997,-0.91413 1.02098,-1.8384 1.47964,-2.785 0.38148,-0.92682 0.96797,-1.89315 0.75075,-2.93389 -0.29168,-0.97836 -0.3165,-2.00576 -0.40234,-3.01563 -0.0816,-1.53817 -0.0902,-3.07881 -0.0591,-4.61858 0.021,-1.41561 0.0535,-2.83711 -0.10299,-4.24665 -0.12589,-0.92679 -0.39213,-1.8607 -0.96218,-2.61718 -0.54185,-0.77387 -1.29197,-1.36266 -1.90817,-2.07166 -0.68958,-0.775 -1.31371,-1.63202 -1.70973,-2.59632 -0.42707,-1.04719 -0.20903,-2.19894 -0.49424,-3.27938 -0.36925,-1.81254 -1.11726,-3.53004 -2.06247,-5.11382 -1.35546,-2.23846 -3.1062,-4.23139 -5.11644,-5.90369 -1.98151,-1.64796 -4.22878,-3.00531 -6.68028,-3.82391 -0.95328,-0.30755 -1.93257,-0.5315 -2.92782,-0.64873 -1.0056,-0.0765 -2.02138,-0.0624 -3.01334,-0.26757 -1.10158,-0.20119 -2.18273,-0.50971 -3.23897,-0.87941 -1.02873,-0.34596 -2.00723,-0.81792 -2.98597,-1.28271 -0.94969,-0.41574 -1.94209,-0.75385 -2.97011,-0.90774 -0.80263,-0.15285 -1.62327,-0.17458 -2.43809,-0.15671 z m 306.61719,0.33203 c -0.99684,0.0525 -1.98934,0.20789 -2.94605,0.49581 -1.08357,0.34943 -2.08439,0.90585 -3.15763,1.28282 -1.04346,0.39239 -2.11344,0.71424 -3.20024,0.96201 -0.97805,0.24579 -1.98202,0.34466 -2.98787,0.37644 -1.01266,0.0486 -2.00582,0.27747 -2.97384,0.56847 -1.05646,0.3527 -2.08573,0.78706 -3.06653,1.31574 -0.94859,0.48796 -1.8349,1.0829 -2.71667,1.68035 -0.86023,0.63284 -1.71119,1.2797 -2.50425,1.99621 -1.56336,1.38501 -2.98553,2.93292 -4.21122,4.62474 -0.60289,0.84611 -1.16973,1.72104 -1.63937,2.64886 -0.65669,1.20244 -1.14044,2.50235 -1.39654,3.84938 -0.17709,0.87113 -0.0865,1.77274 -0.31308,2.63667 -0.22555,0.89125 -0.62375,1.73615 -1.19474,2.45887 -0.63886,0.76879 -0.9729,1.72166 -1.2636,2.66362 -0.46992,1.54282 -0.78407,3.12829 -1.03299,4.72031 -0.178,1.06268 -0.28611,2.1363 -0.40634,3.20674 -0.1663,1.70405 -0.28762,3.43364 -0.0272,5.13466 0.29439,1.97996 1.07243,3.8508 1.99241,5.61585 0.82797,1.5632 1.74569,3.07672 2.69305,4.57003 1.41325,2.24845 2.9404,4.42195 4.42693,6.62193 2.01242,2.89302 4.03529,5.7788 6.05859,8.66424 0.49944,0.89463 0.78542,1.88159 1.10937,2.84766 0.70628,2.2907 1.32608,4.60665 1.92783,6.92664 0.83171,3.2398 1.59984,6.49565 2.33859,9.75779 1.23787,5.50341 2.39682,11.02434 3.66224,16.52159 1.07224,4.70224 2.21041,9.38932 3.39132,14.0654 0.54115,2.13117 1.09511,4.25897 1.67567,6.37977 0.79304,2.91008 1.61754,5.81168 2.47301,8.70402 0.54957,1.8411 1.10622,3.68 1.69829,5.50795 0.72997,2.31342 1.5099,4.61083 2.30485,6.90258 1.70592,4.86961 3.58115,9.68088 5.65729,14.4049 1.76247,3.99613 3.67302,7.92747 5.74931,11.77019 1.90727,3.52012 3.9495,6.96712 6.1272,10.32676 0.74708,1.14254 1.51189,2.27375 2.2753,3.40541 0.99269,1.40915 1.97011,2.82928 3.0046,4.2084 1.05582,1.46091 2.16527,2.88179 3.26381,4.31053 1.8668,2.37183 3.7914,4.69777 5.76907,6.97795 1.3586,1.59061 2.76125,3.1431 4.16243,4.69606 2.04215,2.22134 4.11517,4.41418 6.22064,6.57562 1.65924,1.70823 3.33496,3.40058 5.03538,5.06789 3.44427,3.39066 6.9516,6.71647 10.422,10.08026 1.5941,1.53098 3.16134,3.08972 4.72673,4.64991 1.76831,1.77632 3.50268,3.58748 5.1557,5.47209 0.69807,0.81682 1.37405,1.65193 2.01508,2.51445 0.59061,0.81456 1.16246,1.6495 1.6057,2.55539 0.48058,0.94333 0.82194,1.95694 0.99332,3.00222 0.21686,1.40085 0.12555,2.82358 0.22309,4.23364 0.11237,2.07336 0.40582,4.13535 0.84531,6.16419 0.48561,2.24146 1.17776,4.43633 2.03401,6.56333 0.85651,2.11273 1.89099,4.15259 3.08536,6.09433 1.48139,2.40615 3.2014,4.66672 5.14226,6.72102 1.06376,1.1384 2.20238,2.20595 3.38825,3.21597 1.7173,1.44122 3.54674,2.75067 5.48054,3.88608 1.73808,1.04693 3.60242,1.86108 5.36893,2.85564 0.8429,0.48368 1.67928,1.02449 2.29605,1.78921 0.54864,0.66466 0.82918,1.50291 0.97913,2.34069 0.23375,1.15269 0.24268,2.33365 0.29273,3.50447 0.0512,2.56737 -0.0236,5.13924 0.17267,7.70196 0.0824,1.22862 0.22621,2.45267 0.41222,3.66974 0.27702,1.75069 0.67702,3.48424 1.23665,5.16682 0.4537,1.37075 1.01368,2.70609 1.67405,3.99021 1.0173,1.9765 2.29146,3.81697 3.74773,5.49503 1.34418,1.54217 2.83018,2.95864 4.41519,4.25129 1.3088,1.0885 2.6926,2.08335 4.10163,3.03737 1.07033,0.70055 2.14715,1.39111 3.24996,2.03977 1.91116,1.14658 3.88681,2.17966 5.84341,3.24547 1.1715,0.65776 2.33438,1.33139 3.47121,2.04755 1.32281,0.85204 2.62776,1.7351 3.8563,2.71989 1.48418,1.15836 2.86738,2.44109 4.18421,3.78529 1.41572,1.4824 2.75173,3.03964 4.01835,4.65102 0.81596,1.02817 1.59857,2.08299 2.41618,3.10959 0.39019,0.39926 0.85881,1.05864 1.49711,0.85462 0.80167,-0.4218 1.13257,-1.43536 2.0286,-1.74405 1.03206,-0.47351 2.1936,-0.52022 3.31125,-0.51376 1.72559,0.0742 3.43311,0.40209 5.08879,0.88576 2.35229,0.69558 4.62111,1.6932 6.6866,3.02049 0.8748,0.54057 1.59309,1.31541 2.54492,1.72852 1.2833,0.5729 2.62935,0.9889 3.97721,1.37935 2.13673,0.61979 4.32025,1.05463 6.48483,1.5627 1.89797,0.44027 3.7866,0.92645 5.6479,1.50335 1.04703,0.32309 2.08467,0.67651 3.10589,1.07363 1.11349,0.44581 2.21781,0.92117 3.2608,1.51675 1.42722,0.77951 2.74927,1.76098 3.86617,2.94574 0.86281,0.89163 1.5708,1.91972 2.20255,2.98408 0.47698,0.80145 0.88742,1.69081 1.63434,2.28244 0.84483,0.66468 1.88801,5.19948 2.85593,5.05581 1.23093,-0.15374 4.04012,-2.83715 5.27659,-2.93777 0.82151,-0.0666 0.16905,-2.42562 0.84599,-2.93835 0.71595,-0.51026 2.06385,-1.07107 2.49189,-1.82512 0.52344,-0.94603 0.10841,-2.12371 0.69561,-3.03425 0.49586,-0.72881 1.10939,-1.39123 1.87352,-1.84292 0.75401,-0.44791 1.59187,-0.72812 2.43312,-0.96177 1.00075,-0.25536 2.02209,-0.40848 3.04297,-0.55664 1.30305,-0.15126 2.60615,-0.30191 3.91478,-0.39677 1.79677,-0.14466 3.59639,-0.25323 5.39469,-0.37732 1.95057,-0.11913 3.90219,-0.21719 5.8549,-0.29365 1.29117,-0.0353 2.58832,-0.0764 3.8747,0.0658 0.81576,0.0511 1.7809,0.38942 2.01953,1.26367 0.29057,0.75019 0.9332,1.39934 1.73716,1.56259 1.01114,0.19748 2.03312,-0.20193 2.90252,-0.69175 1.0866,-0.60287 2.0452,-1.41212 2.9197,-2.28944 0.7766,-0.76994 1.496,-1.5982 2.1597,-2.46733 1.3647,-1.75813 2.5194,-3.67207 3.526,-5.6549 1.3972,-2.8136 2.7615,-5.66396 3.6648,-8.68104 0.3948,-1.30448 0.6937,-2.63624 0.9156,-3.98069 0.2865,-1.57832 0.4072,-3.17964 0.5456,-4.77596 0.1469,-2.221 0.2077,-4.44642 0.2541,-6.67141 0.049,-2.9175 0.066,-5.83598 0.1611,-8.75241 0.058,-1.20337 0.1009,-2.41303 0.3189,-3.60052 0.1366,-0.84933 0.3753,-1.75045 0.9943,-2.38077 0.7136,-0.69271 1.7561,-0.8226 2.7019,-0.90653 1.154,-0.11549 2.315,-0.14193 3.4732,-0.18668 1.0716,-0.0101 2.1618,-0.0448 3.2098,0.21707 0.5243,0.12455 0.9229,0.62674 0.8284,1.17495 -0.03,0.95257 0.4972,2.16421 1.6013,2.14537 1.0982,0.0254 2.0691,-0.58884 2.9492,-1.17579 1.303,-0.94967 2.4218,-2.12937 3.4121,-3.39648 0.6426,-0.86291 1.2579,-1.74887 1.7842,-2.68814 0.558,-0.99161 1.0389,-2.02665 1.4262,-3.09674 0.4577,-1.22525 0.8058,-2.4884 1.1207,-3.75673 0.2824,-1.12479 0.4879,-2.26601 0.7099,-3.4037 0.1791,-1.14614 0.3749,-2.28993 0.4996,-3.44372 0.1458,-1.09197 0.2352,-2.19052 0.3329,-3.28751 0.1081,-1.50788 0.2006,-3.01714 0.2231,-4.52906 0.055,-1.64202 0.033,-3.28565 -0.032,-4.92705 -0.054,-1.27599 -0.1373,-2.55101 -0.2705,-3.82139 -0.1022,-1.03516 -0.2393,-2.06769 -0.4031,-3.09488 -0.2738,-1.64342 -0.645,-3.27537 -1.1959,-4.84952 -0.325,-0.91923 -0.4395,-1.89058 -0.5915,-2.84843 -0.4145,-3.0312 -0.665,-6.08234 -0.8586,-9.13485 -0.1423,-2.47992 -0.2774,-4.96206 -0.5686,-7.43 -0.1734,-1.53542 -0.3917,-3.06585 -0.6534,-4.5887 -0.3572,-1.99884 -0.7735,-3.98848 -1.3139,-5.94641 -0.3268,-1.23068 -0.7037,-2.44765 -1.1192,-3.65121 -0.3446,-0.98334 -0.7105,-1.95938 -1.1205,-2.91755 -0.4142,-0.98323 -0.8586,-1.95447 -1.35,-2.90175 -0.5138,-1.01486 -1.0826,-2.00138 -1.687,-2.96496 -0.5484,-0.91691 -1.2256,-1.74574 -1.9237,-2.55127 -1.1431,-1.31576 -2.3551,-2.57031 -3.5838,-3.80588 -1.1475,-1.14237 -2.3097,-2.26956 -3.4908,-3.37723 -0.9416,-0.8782 -1.8926,-1.74702 -2.857,-2.60013 -0.8989,-0.78335 -1.7844,-1.58257 -2.7228,-2.31908 -0.7988,-0.66599 -1.6297,-1.29343 -2.5056,-1.85491 -0.5523,-0.3493 -1.3008,-0.34354 -1.7095,-0.92395 -0.8255,-0.74703 -1.5224,-1.6202 -2.2292,-2.47666 -1.3243,-1.66251 -2.5588,-3.39351 -3.8015,-5.11704 -1.9458,-2.7829 -3.8395,-5.60186 -5.69912,-8.44298 -2.64797,-4.04598 -5.21396,-8.14507 -7.73998,-12.2681 -2.45749,-4.02265 -4.85629,-8.08105 -7.19852,-12.17187 -1.65392,-2.89159 -3.27692,-5.80113 -4.83921,-8.74338 -1.3246,-2.4632 -2.58938,-4.96094 -4.04511,-7.35098 -1.24015,-2.06459 -2.59409,-4.05952 -4.02704,-5.99486 -1.3603,-1.83376 -2.82598,-3.58741 -4.35144,-5.28556 -1.50101,-1.66405 -3.09676,-3.23976 -4.73479,-4.76825 -1.29862,-1.1956 -2.63954,-2.34456 -4.0152,-3.45061 -1.43034,-1.15509 -2.89397,-2.26888 -4.39561,-3.32979 -1.8283,-1.2862 -3.68816,-2.52921 -5.59161,-3.70168 -2.84263,-1.74841 -5.75415,-3.38389 -8.71896,-4.91576 -2.78813,-1.43345 -5.61278,-2.79614 -8.47423,-4.07717 -2.55932,-1.14922 -5.14125,-2.24795 -7.74318,-3.29715 -2.93765,-1.19719 -5.89978,-2.33368 -8.88012,-3.42016 -2.26454,-0.84709 -4.55128,-1.63296 -6.83086,-2.43829 -4.24075,-1.47184 -8.48201,-2.94313 -12.70153,-4.47495 -2.40053,-0.88269 -4.78809,-1.80099 -7.15161,-2.77872 -1.24415,-0.50692 -2.46851,-1.06132 -3.69911,-1.59997 -1.61516,-0.72576 -3.19862,-1.51838 -4.77313,-2.32782 -0.95624,-0.50779 -1.91123,-1.0195 -2.85372,-1.55246 -1.66266,-0.94969 -3.30029,-1.94297 -4.90439,-2.98867 -1.31403,-0.85005 -2.6038,-1.73652 -3.87924,-2.64334 -1.41439,-0.97156 -2.77589,-2.01652 -4.15981,-3.03036 -2.05592,-1.56162 -4.09058,-3.15116 -6.09224,-4.78184 -2.81991,-2.25766 -5.59273,-4.57342 -8.35242,-6.90406 -3.19781,-2.72287 -6.39314,-5.44864 -9.57028,-8.19564 -6.29103,-5.41944 -12.53132,-10.8974 -18.8129,-16.32776 -4.85574,-4.20973 -9.73391,-8.39355 -14.62538,-12.56168 -4.19385,-3.54118 -8.37801,-7.09509 -12.65944,-10.53058 -1.6335,-1.30954 -3.23437,-2.65926 -4.7991,-4.05023 -0.87066,-0.766 -1.71926,-1.55707 -2.57151,-2.34335 -1.31095,-1.25263 -2.62019,-2.50994 -3.82727,-3.86456 -0.81403,-0.9075 -1.52954,-1.89906 -2.35307,-2.7988 -2.19328,-2.47561 -4.71502,-4.66555 -7.49904,-6.45352 -2.0475,-1.31044 -4.2469,-2.39686 -6.56587,-3.13524 -1.84032,-0.57375 -3.76365,-0.9328 -5.69683,-0.8875 l -0.1828,0.002 z"
       id="path8" /></g></svg>
