<svg
   version="1.1"
   id="svg1"
   width="1200"
   height="1600"
   viewBox="0 0 1200 1600"
   xml:space="preserve"
   xmlns="http://www.w3.org/2000/svg"
   xmlns:svg="http://www.w3.org/2000/svg"><defs
     id="defs1" /><g
     id="g5"><g
       id="g7"
       style="display:inline;opacity:1"><path
         style="display:inline;fill:#000000"
         d="m 230,943 c -0.825,-0.53316 -2.46002,-0.97627 -3.63337,-0.98469 -1.17335,-0.008 -1.8279,-1.30902 -2.73835,-1.76531 -4.45545,-2.23296 -5.33486,-5.00674 -6.52947,-8.75326 -0.38234,-1.19908 -0.41231,-3.88255 -1.10269,-4.87785 -4.08784,-5.89334 -2.32463,-19.98654 8.30966,-28.80018 0.56203,-0.46581 -0.0512,-0.96769 -1.5511,-1.34415 -1.45255,-0.36456 -3.1267,-0.36268 -3.72031,0.004 -3.98384,2.46215 -18.28371,-8.28109 -23.39179,-14.79419 -11.98641,-15.28336 -7.38952,-34.22953 -4.24917,-40.86768 3.02173,-6.38741 13.37617,-18.90834 19.72661,-23.85408 2.40899,-1.87612 4.61933,-3.74051 4.91187,-4.14308 1.31974,-1.81613 18.4289,-9.08467 22.16767,-10.21449 4.20832,-1.27171 24.77216,-7.66184 35.92759,8.18252 1.60083,2.2737 2.77155,3.60022 3.32401,8.48332 0.38327,3.38767 0.99133,6.62504 1.35125,7.19416 0.35992,0.56912 0.51247,3.58311 0.339,6.69776 -0.26008,4.66957 0.0507,6.02911 1.77159,7.75 2.32215,2.32215 2.93928,10.62599 1.05182,14.15274 -0.88021,1.64469 -0.69308,1.94528 1.25,2.00789 3.63842,0.11722 10.37692,8.71823 11.21646,14.31667 0.43825,2.9225 1.1971,4.6097 2.07329,4.6097 C 298.37686,876 301,879.92266 301,882.72251 301,885 301,885 303,883 c 2.39531,-2.39531 9.66619,-2.72717 13.79966,-0.62985 1.48519,0.75358 4.83784,1.68115 7.45034,2.06127 3.51509,0.51145 4.75145,1.13016 4.75558,2.37985 0.003,0.9288 0.53966,3.48873 1.19243,5.68873 1.18685,4 1.18685,4 1.92619,-2.89882 0.74204,-6.924 1.73445,-8.55691 5.21807,-8.58587 1.01325,-0.008 2.98644,-0.91531 4.38486,-2.01531 7.4125,-5.83068 15.63855,4.49698 12.22177,15.34422 -3.07382,9.75842 -10.34716,18.34094 -18.6989,22.06463 -2.3375,1.04219 -4.25,2.27656 -4.25,2.74302 0,1.68376 -5.77372,0.87942 -6.47386,-0.90187 -0.57919,-1.47356 -1.34642,-1.02288 -4.85699,2.85308 -5.22008,5.7634 -11.83278,10.97876 -17.66915,13.93545 -12.087,6.12324 -42.0427,11.21838 -42.0427,6.63281 0,-2.38579 1.38141,-4.1836 -3.68706,-2.18368 C 247.99443,942.75313 232.76812,944.7889 230,943 Z m 50.5,-16 c 0.33992,-0.55 0.14148,-1 -0.44098,-1 -0.58246,0 -1.05902,0.45 -1.05902,1 0,0.55 0.19844,1 0.44098,1 0.24254,0 0.7191,-0.45 1.05902,-1 z m 6.5,-7.11803 c 0,-0.55 -0.45,-0.72189 -1,-0.38197 -0.55,0.33992 -1,1.06803 -1,1.61803 0,0.55 0.45,0.72189 1,0.38197 0.55,-0.33992 1,-1.06803 1,-1.61803 z M 295.93639,906.5 c 0,-0.55 -0.66069,-0.12649 -1.46819,0.94113 -0.80751,1.06762 -1.4682,2.39113 -1.4682,2.94113 0,0.55 0.66069,0.12649 1.4682,-0.94113 0.8075,-1.06762 1.46819,-2.39113 1.46819,-2.94113 z M 977,943 c 0,-0.55 -2.00786,-1 -4.4619,-1 -2.45405,0 -7.85405,-1.07721 -12,-2.39379 -7.5381,-2.39379 -4.75022,-0.69682 -4.75022,1.69697 0,5.19182 -29.76964,-0.0349 -43.7594,-7.05683 -3.03986,-1.52582 -8.92843,-6.12442 -13.25,-10.34743 -5.49901,-5.3736 -7.77848,-7.05862 -7.77848,-5.75 0,4.69157 -16.9008,-3.42284 -22.83351,-10.96282 -12.22992,-15.54322 -8.05722,-36.51385 5.60768,-28.18236 1.80079,1.09794 4.13674,1.99626 5.19098,1.99626 2.68931,0 3.30608,1.40226 4.61833,10.5 0.96057,6.65948 1.17593,7.23747 1.28522,3.44936 0.2117,-7.33726 1.8699,-9.78568 7.1313,-10.52976 2.475,-0.35002 5.49667,-1.26262 6.71482,-2.028 2.96453,-1.86266 10.30427,-1.76696 13.07026,0.17042 2.02166,1.41602 2.27612,1.41602 2.72251,0 0.27082,-0.85911 0.71968,-2.27974 0.99746,-3.15696 0.27777,-0.87722 1.34833,-1.81546 2.37901,-2.08499 1.35452,-0.35422 2.18347,-2.03117 2.99052,-6.04973 0.84399,-4.20258 1.97196,-6.39045 4.62098,-8.96315 C 927.423,860.43529 929,858.47539 929,857.95186 929,857.42834 930.17748,857 931.61663,857 c 2.2677,0 2.51725,-0.30004 1.87136,-2.25 -1.89362,-5.71684 -1.76765,-11.75 0.24533,-11.75 1.74772,0 2.03726,-1.25277 3.12241,-13.50977 1.58149,-17.86331 2.8757,-22.01572 15.02111,-27.09848 13.99491,-5.85675 30.22139,1.42305 39.66003,5.96875 5.48918,2.6436 17.32693,11.9253 20.73473,16.25762 1.1747,1.49346 3.6291,4.32784 5.4541,6.29863 14.5182,15.67743 10.0119,41.33672 2.7351,49.88968 -5.1684,6.07479 -16.1114,15.57272 -24.76723,15.38499 -4.31894,-0.0937 -3.74171,1.78351 0.40319,9.85479 12.51324,24.36682 -7.76776,35.3179 -8.27531,35.32275 C 986.03395,941.38605 985,942.45 985,943 c 0,0.55 -1.8,1 -4,1 -2.2,0 -4,-0.45 -4,-1 z m -42.9963,-18.49606 c -1.2897,-1.37283 -2.56539,-2.27559 -2.83485,-2.00613 -0.66385,0.66386 2.88313,4.50219 4.16045,4.50219 0.56063,0 -0.0359,-1.12323 -1.3256,-2.49606 z M 918.56937,901.9049 c -1.34979,-2.97269 -2.48008,-5.03832 -2.51176,-4.59028 -0.0863,1.22047 4.1561,10.80501 4.59039,10.37071 0.20654,-0.20654 -0.72884,-2.80773 -2.07863,-5.78043 z m -36.24282,-24.83813 c -1.7454,-0.78885 -5.76249,0.34538 -6.11205,-0.22022 -1.01984,-1.65014 -0.0276,-5.01079 -0.74364,-2.75475 -1.70389,5.36849 -23.56192,-1.02267 -30.76486,-8.99546 C 833.57044,852.77061 829.98649,829.88572 837.01713,816 c 5.88024,-11.61364 6.22906,-12.10703 8.34419,-11.80246 1.74566,0.25138 2.29055,1.40028 3.22618,6.80246 2.67412,15.43989 1.23734,14.15682 4.94216,11.35071 1.89797,-1.43756 8.7947,10.59487 6.32145,7.90103 -6.49391,-7.07311 -9.32847,-23.64205 -7.33251,-42.86088 1.27374,-12.26472 3.69249,-22.78525 5.49454,-23.89898 C 858.55591,763.15643 859,761.55852 859,759.94098 859,757.61265 859.44092,757 861.11663,757 c 1.73303,0 1.99145,-0.40778 1.42588,-2.25 -2.44941,-7.97853 -0.5071,-24.72129 3.24972,-28.01264 2.90657,-2.54645 7.11346,-7.83134 12.55927,-7.6856 5.86568,0.15698 5.50204,1.24789 6.18798,6.23527 0.68594,4.98739 1.84906,6.29459 9.14114,5.09215 17.67351,-2.91429 27.90494,18.28971 21.03859,33.12082 -1.69394,3.65886 -1.96788,5.49057 -5.37103,7.59383 -4.53823,2.80478 -3.50454,3.70777 1.35863,1.18684 2.08626,-1.08145 4.35569,-1.77452 5.04319,-1.54014 0.6875,0.23438 1.25,-0.0729 1.25,-0.68288 0,-1.61568 4.94416,1.17161 8.16503,4.60307 4.86049,5.17828 13.71503,13.66032 12.92431,26.78406 -0.0312,0.51865 -1.3822,3.22302 -2.08934,6.55522 -0.70714,3.3322 -1.68973,6.30824 -2.18353,6.61343 -0.4938,0.30519 -0.63307,1.38904 -0.30949,2.40858 0.56743,1.78781 -2.98538,15.43483 -4.55015,17.47799 -0.42122,0.55 -1.69869,6.625 -2.83882,13.5 -2.20033,13.26802 -8.75047,22.70372 -16.88364,24.32148 -1.5039,0.29914 -5.04524,1.21035 -7.86964,2.02491 -8.12691,2.34382 -15.4153,4.35778 -19.03818,2.72038 z m -574.1067,-4.38744 c -6.93795,-3.02988 -16.66699,-9.79622 -17.6067,-12.24507 -0.2422,-0.63116 -0.99106,-6.48891 -1.66413,-13.01721 -0.87696,-8.50588 -1.74833,-12.58484 -3.07479,-14.39335 -1.64792,-2.24678 -3.45936,-8.84076 -4.40189,-16.0237 -0.18042,-1.375 -1.07998,-5.65 -1.99902,-9.5 -2.26284,-9.47944 -3.08299,-11.60958 2.19056,-22.05421 7.99218,-15.82902 14.30071,-17.61818 23.06616,-13.08539 4.63947,2.39916 4.64916,2.06555 0.0642,-2.21127 -2.27058,-2.11797 -4.2768,-4.93047 -4.45827,-6.25 -1.61178,-11.71971 -3.30005,-12.32729 -0.46081,-17.93895 4.25755,-8.4149 8.12474,-16.18236 13.72964,-17.0268 1.43095,-0.21558 4.49475,2.36342 8.48243,2.42092 7.56387,0.10906 7.91277,-1.09129 7.91277,-6.06172 0,-4.97043 2.49192,-5.20299 8.79545,-4.7711 6.69024,0.45838 15.05159,7.81459 15.15017,23.79426 0.0299,4.84866 -0.41145,9.68616 -0.9808,10.75 -0.86584,1.61784 -0.70225,1.93426 1,1.93426 1.17137,0 2.03518,0.65774 2.03518,1.54966 0,0.85231 0.69627,2.8961 1.54727,4.54175 8.1543,15.76868 7.41462,54.87095 -1.26101,66.66256 -2.16862,2.9475 5.25919,-6.60941 6.58773,-4.71265 1.46669,2.09399 -6.04846,12.1546 -4.54985,9.80664 C 362.3347,828.56443 367,814.8594 367,809.36133 c 0,-3.32037 2.67754,-5.60427 5.06945,-4.32416 1.0618,0.56826 1.93055,1.5879 1.93055,2.26588 0,0.67797 1.0532,2.79964 2.34045,4.71482 12.24965,18.22507 4.54831,50.73626 -14.0759,59.42141 -3.1705,1.47852 -6.54594,3.10953 -7.50098,3.62447 C 351.7242,876.70252 339,876.24747 339,874.5 c 0,-1.88869 -1.37474,0.24627 -3.89568,2.15301 -3.75456,2.83981 -18.41277,-0.27398 -26.88447,-3.97368 z"
         id="path7" /><path
         style="display:inline;opacity:0.45;fill:#000000"
         d="m 253.84248,957.25 c -5.44837,-6.4972 -5.77883,-10.56056 -1.00691,-12.38105 11.40992,-4.35291 16.63588,-1.86948 11.01229,5.23315 -7.49641,9.46802 -7.84873,9.71972 -10.00538,7.1479 z M 958,957.54194 c 0,-0.88259 -0.69063,-1.86973 -1.53474,-2.19365 -2.29,-0.87875 -7.72097,-9.23953 -7.08253,-10.90329 1.36727,-3.56304 16.68066,0.0475 16.53666,3.899 C 965.71966,953.6856 958,962.65156 958,957.54194 Z M 211.13914,944.97433 C 205.35481,937.1506 200.03324,920.988 201.42104,915.45859 202.00856,913.11772 205,911.89856 205,914 c 0,5.14939 3.49097,12.76042 8.92023,19.44797 6.82676,8.40891 7.38172,9.67592 5.44763,12.43723 -2.13196,3.0438 -5.58772,2.66127 -8.22872,-0.91087 z m 784.89604,1.09141 c -1.50182,-2.80618 -1.2781,-4.74849 0.78057,-6.77678 5.31905,-5.24055 11.16815,-14.20208 12.26335,-18.78896 0.6566,-2.75 1.3433,-5.5625 1.526,-6.25 0.1827,-0.6875 1.0862,-1.25 2.0079,-1.25 1.4661,0 1.6061,0.91973 1.1196,7.35298 -1.2085,15.97864 -13.4153,33.71403 -17.69742,25.71276 z M 306.49447,935.99105 C 304.59157,932.9121 309.93795,926 314.22235,926 c 2.87373,0 2.87373,0 -0.35831,4.75 -4.19684,6.16792 -6.00291,7.45235 -7.36957,5.24105 z m 596.0907,-3.87503 C 898.30341,926.28311 898.25809,926 901.60608,926 c 3.95697,0 9.21156,7.16747 7.14789,9.75 -1.59559,1.99677 -2.37059,1.54022 -6.1688,-3.63398 z M 185,902.7182 c -1.37643,-1.11784 -2.41441,-3.59627 -8.25816,-19.7182 -2.87401,-7.92889 -3.55258,-22.53152 -1.25362,-26.97722 2.59016,-5.00882 3.43366,-2.91127 7.43032,18.47722 1.2135,6.49417 6.67256,18.54232 9.3537,20.64363 C 194.64163,897.00059 192.6034,902 189.47695,902 188.66463,902 188,902.45 188,903 c 0,1.32467 -1.15557,1.21612 -3,-0.2818 z m 839.3702,-2.29557 c -3.6561,-3.46677 -3.7547,-3.71318 -1.7823,-4.45402 2.109,-0.79218 10.4121,-18.8105 10.4121,-22.59515 0,-6.55598 3.6924,-19.63835 5.3869,-19.08604 5.5358,1.80434 3.637,23.1954 -3.4104,38.4214 -1.6371,3.53689 -2.9765,6.77958 -2.9765,7.20596 0,3.79718 -3.8879,4.05596 -7.6298,0.50785 z M 319.27505,731.0517 c -8.65154,-2.11626 -21.17599,-16.094 -17.26114,-19.26405 4.58528,-3.71294 22.3079,-1.41898 26.60977,3.44428 9.6168,10.8718 4.66685,19.24811 -9.34863,15.81977 z M 885,731.40654 c -2.30228,-0.71368 -4.21552,-5.44193 -2.86196,-7.07286 0.60877,-0.73353 0.73675,-1.33368 0.2844,-1.33368 -0.45234,0 -0.28244,-0.54 0.37756,-1.2 0.66,-0.66 1.2,-1.9871 1.2,-2.94911 0,-2.49396 5.76559,-6.55902 11.02005,-7.76974 C 903.7638,709.06644 915,710.2896 915,713.25614 c 0,2.74085 -9.03074,13.12594 -13.5,15.52461 -4.34538,2.33219 -13.00273,3.70991 -16.5,2.62579 z"
         id="path6" /></g></g></svg>
