<svg
   version="1.1"
   id="svg1"
   width="1200"
   height="1600"
   viewBox="0 0 1200 1600"
   xml:space="preserve"
   xmlns="http://www.w3.org/2000/svg"
   xmlns:svg="http://www.w3.org/2000/svg"><defs
     id="defs1" /><g
     id="g1"><path
       id="path3"
       style="fill:#000000"
       d="m 673.21094,246.13672 c -2.17437,-0.20202 -15.63171,5.72912 -21.21094,9.46484 -15.6348,10.4687 -19.61081,12.1526 -8.99023,3.8086 3.3059,-2.59726 5.75807,-4.97631 5.44726,-5.28711 -0.3108,-0.31081 -0.87913,-0.11948 -1.26172,0.42578 -0.3826,0.54527 -1.90961,1.52472 -3.39258,2.17578 -1.48298,0.65106 -4.50781,2.82128 -6.72265,4.82227 -2.21484,2.00097 -4.59442,3.44834 -5.28906,3.21679 -1.61736,-0.53912 2.98319,-4.92884 9.75195,-9.30273 10.53758,-6.80927 8.87526,-7.69569 -6.04297,-3.22656 -7.44235,2.22954 -11.02675,4.23916 -16.23438,9.10546 -1.77925,1.66263 -3.48863,2.76917 -3.79882,2.45899 -0.64305,-0.64306 8.99637,-13.68556 11.42968,-15.46485 2.4944,-1.82394 0.41749,-2.83851 -2.5625,-1.25195 -4.23779,2.25621 -8.70313,7.07153 -12.1621,13.11719 -4.25177,7.43131 -5.40819,7.70283 -8.03321,1.89453 -2.79623,-6.18711 -8.38825,-12.6428 -12.73828,-14.70703 -4.40734,-2.09142 -5.09054,-1.42254 -1.97656,1.9375 1.34443,1.45066 3.71123,4.33322 5.25976,6.40625 1.54852,2.07304 3.37891,4.36501 4.06641,5.0918 4.46951,4.7249 0.99134,3.45884 -6.79883,-2.47461 -5.9019,-4.49525 -16.67527,-8.40235 -22.80664,-8.26954 -2.00456,0.0434 -2.98936,0.33747 -2.18945,0.65235 0.79992,0.31488 2.34621,1.40518 3.4375,2.42187 1.0913,1.0167 2.46308,1.85338 3.04687,1.85938 0.58379,0.006 3.53555,2.21044 6.56055,4.89844 4.87151,4.32879 5.18575,4.82713 2.75,4.37109 C 581.2375,263.99806 580,263.42477 580,263.00586 580,261.91191 569.74441,255 568.12109,255 c -0.74891,0 1.24629,2.025 4.4336,4.5 6.85705,5.32461 5.60645,6.00805 -1.83008,1 -2.85846,-1.925 -5.69705,-3.5 -6.30664,-3.5 -0.6096,0 -1.96076,-0.94131 -3.00195,-2.0918 -1.96452,-2.17077 -12.24722,-7.36844 -16.48829,-8.33398 -2.3029,-0.52429 -9.92773,8.69248 -9.92773,12 0,0.51835 -1.13503,3.07546 -2.52344,5.68359 -1.38842,2.60812 -2.2726,4.74219 -1.96484,4.74219 0.30776,0 0.0713,0.90825 -0.52344,2.01953 -1.38115,2.5807 -4.58669,15.12251 -5.36328,20.98047 -1.75141,13.2112 -1.75325,13.26277 -0.15234,12.64844 1.83092,-0.70259 1.89873,-0.21107 0.36523,2.65429 -3.35847,6.27536 -0.24063,24.20095 6.64258,38.19727 2.43435,4.95 3.65936,8.04984 2.72265,6.88867 -0.9367,-1.16116 -2.72194,-3.41116 -3.96679,-5 -1.63248,-2.08359 -1.25283,-0.79817 1.36133,4.61133 1.99342,4.125 4.32161,8.28999 5.17382,9.25586 3.90356,4.42414 -0.456,2.61085 -4.96289,-2.06445 -2.78954,-2.89379 -5.28909,-5.04488 -5.55468,-4.7793 -1.38576,1.38577 9.94351,16.73492 18.88867,25.5918 3.90207,3.86356 6.25417,6.71177 5.22656,6.33007 -3.82562,-1.42104 4.34161,4.48871 11.63086,8.41602 9.72227,5.23818 22.61357,9.64739 32,10.94531 1.925,0.26618 5.75,0.80696 8.5,1.20117 2.75,0.39421 5.45,0.619 6,0.5 0.55,-0.119 5.275,-0.76772 10.5,-1.44336 18.52026,-2.39485 51,-17.2008 51,-23.24804 0,-0.57961 -1.2375,0.0377 -2.75,1.37109 -1.5125,1.33337 0.175,-0.73641 3.75,-4.59961 8.58322,-9.27516 9.77783,-10.7872 14.76367,-18.70117 5.59781,-8.88534 5.33471,-9.46745 -1.14258,-2.52539 -6.29619,6.74797 -8.9515,7.5711 -4.83789,1.5 1.58383,-2.3375 3.13938,-4.925 3.45703,-5.75 0.31766,-0.825 1.29931,-3.1875 2.18165,-5.25 2.04048,-4.76983 1.34677,-4.77608 -1.88672,-0.0176 -3.24982,4.78248 -3.24373,3.70447 0.0137,-2.42187 7.0625,-13.2828 10.45,-31.59643 7.08984,-38.33203 -2.07644,-4.16232 -2.05971,-4.27378 0.4043,-2.95508 1.9678,1.05314 2.01765,0.89975 1.41601,-4.21485 -2.28725,-19.44399 -7.76114,-36.632 -15.70312,-49.30468 -1.72455,-2.75178 -3.19508,-5.11124 -3.26758,-5.24219 -0.039,-0.0704 -0.13238,-0.11153 -0.27734,-0.125 z" /></g></svg>
