<svg
   version="1.1"
   id="svg1"
   width="1200"
   height="1600"
   viewBox="0 0 1200 1600"
   xmlns:xlink="http://www.w3.org/1999/xlink"
   xmlns="http://www.w3.org/2000/svg"
   xmlns:svg="http://www.w3.org/2000/svg">
  <defs
     id="defs1" />
  <g
     id="g1">
    <path
       style="display:inline;fill:#000000"
       d="m 595,406.44247 c -4.675,-0.80811 -12.55,-2.84118 -17.5,-4.51791 -8.54147,-2.8933 -12.15386,-4.54084 -21.11575,-9.63052 -4.39205,-2.49434 -18.42376,-15.8354 -22.73193,-21.61303 -1.56622,-2.10044 -3.09285,-3.57382 -3.3925,-3.27416 -0.29965,0.29965 0.0244,1.23069 0.72012,2.06898 0.69572,0.8383 0.87235,1.51353 0.3925,1.50053 -0.47984,-0.013 -2.19626,-1.813 -3.81427,-4 C 525.37013,364.01886 523.91193,363 521.86719,363 c -1.51204,0 -3.00153,-0.40835 -3.30998,-0.90744 -0.30846,-0.49909 -4.04751,-2.34343 -8.30902,-4.09855 -10.57018,-4.35336 -19.16469,-12.93761 -14.67715,-14.65964 0.91659,-0.35173 -0.69356,-1.90663 -4.56664,-4.40992 -9.44626,-6.10542 -21.26324,-15.48063 -24.12246,-19.138 -6.35671,-8.13116 -9.88665,-20.14779 -9.87733,-33.62442 0.006,-9.40618 3.48839,-31.94212 6.535,-42.29665 3.46779,-11.78601 9.72552,-27.3308 10.96039,-27.22666 0.55,0.0464 1.69655,1.51829 2.5479,3.27091 1.4644,3.01468 1.55218,2.27353 1.62736,-13.73988 0.0736,-15.67837 0.28312,-17.54373 2.84142,-25.2981 4.60047,-13.94428 9.4179,-22.11026 14.74935,-25.00147 1.39281,-0.75531 1.94042,-0.48631 2.59119,1.27288 0.71009,1.91955 1.21421,1.21243 3.61521,-5.07092 3.41312,-8.93202 7.10874,-13.33047 12.57691,-14.96878 2.27995,-0.68309 4.37496,-1.01239 4.65558,-0.73178 0.28061,0.28062 -0.0772,2.80206 -0.7951,5.60321 -2.7416,10.69717 3.49818,29.72748 12.88752,39.3048 3.85035,3.92745 5.9353,5.13778 11.69422,6.78857 13.17931,3.77787 35.18681,12.27763 36.53483,14.11053 0.28952,0.39366 1.18952,0.29638 2,-0.21616 2.307,-1.45894 6.9723,-1.12952 7.61198,0.53747 0.82615,2.15291 35.13778,2.24693 35.96219,0.0985 0.6198,-1.61517 4.16129,-2.7929 4.88367,-1.62406 0.65472,1.05936 5.51577,1.94372 5.51577,1.00348 0,-0.40958 0.7875,-0.98116 1.75,-1.27017 0.9625,-0.289 6.25,-2.41668 11.75,-4.72817 5.5,-2.31149 14.41768,-5.45242 19.81706,-6.97984 12.44397,-3.52027 16.68286,-6.95961 21.56798,-17.49978 5.74846,-12.40292 7.39567,-24.33566 4.58988,-33.25 -0.90081,-2.862 0.75955,-2.93572 6.89422,-0.30609 5.53833,2.374 8.46038,6.6723 11.98769,17.63372 1.40215,4.3573 2.57047,6.94667 2.59627,5.75416 0.065,-3.00317 1.06476,-5.33179 2.28922,-5.33179 1.46595,0 5.27752,4.32334 8.16952,9.26642 3.42636,5.85642 8.28443,21.81996 9.20077,30.23358 0.41931,3.85 0.69498,11.5 0.61259,17 -0.14286,9.53736 -0.082,9.84964 1.31538,6.75 2.5037,-5.55368 3.14313,-4.73635 9.10539,11.63864 10.51803,28.88711 13.38917,56.46637 7.87424,75.63733 -2.95969,10.28847 -11.46822,19.37205 -28.78951,30.73528 -5.28783,3.46896 -7.36389,5.35128 -6.5,5.89342 0.98966,0.62107 0.82868,1.6281 -0.7307,4.57094 -1.70391,3.21561 -3.70251,4.62646 -13.5,9.5299 -6.325,3.16552 -12.29339,5.56861 -13.26309,5.34019 -1.06244,-0.25026 -2.2103,0.42033 -2.88845,1.68745 -0.61895,1.15652 -2.20765,3.25343 -3.53045,4.65981 -2.04742,2.17678 -2.3147,2.25962 -1.7973,0.55704 0.33428,-1.1 -1.33363,0.25 -3.70647,3 -13.23293,15.33632 -21.73955,21.47048 -38.83303,28.00266 C 625.55699,406.77908 609.033,408.8682 595,406.44247 Z"
       id="path1" />
  </g>
</svg>
