<?xml version="1.0" encoding="UTF-8" standalone="no"?>
<!-- Created with Inkscape (http://www.inkscape.org/) -->

<svg
   version="1.1"
   id="svg1"
   width="1200"
   height="1600"
   viewBox="0 0 1200 1600"
   xmlns="http://www.w3.org/2000/svg"
   xmlns:svg="http://www.w3.org/2000/svg">
  <defs
     id="defs1" />
  <g
     id="g1">
    <path
       style="fill:#000000"
       d="M 594.42743,407.92913 C 572.16256,403.10971 555.94437,394.78082 538.5,379.20748 c -6.12984,-5.47237 -19.73022,-14.42508 -26.88594,-17.69817 -9.62257,-4.40146 -21.1213,-14.15124 -24.57446,-20.8367 -0.80322,-1.55507 -5.24456,-5.37152 -9.86964,-8.481 -13.75045,-9.24454 -20.35349,-18.58616 -22.72026,-32.14335 -3.78396,-21.67499 3.01044,-56.31533 16.12001,-82.18583 2.26327,-4.46634 2.68854,-6.67327 2.85302,-14.80557 0.20738,-10.25344 1.93976,-16.73561 7.76554,-29.05686 2.98631,-6.3159 12.32336,-19 13.98634,-19 C 495.62857,155 496,154.51391 496,153.9198 496,151.68822 512.20923,134 514.25421,134 c 0.4254,0 3.55269,-1.32374 6.94954,-2.94164 8.11993,-3.8675 10.27411,-2.34693 5.72529,4.04129 -7.65771,10.75426 -2.25042,39.90679 8.71435,46.98203 12.37941,7.98806 50.42109,19.53695 67.85661,20.60025 16.67905,1.01717 57.45337,-9.6329 74.08875,-19.35165 12.8225,-7.49118 18.98984,-33.36632 11.25292,-47.21179 -3.41366,-6.10886 -2.23736,-10.47413 1.8772,-6.96634 0.97962,0.83515 3.35613,2.12744 5.28113,2.87174 7.6192,2.94598 12.88092,7.37825 19.53426,16.45488 1.60408,2.18833 5.55217,6.88713 8.77353,10.44177 10.54441,11.63533 17.81996,29.74704 18.10863,45.07946 0.15317,8.13538 0.56293,10.24125 2.85261,14.66029 10.0681,19.43131 16.74867,46.6405 16.71619,68.08313 -0.0337,22.26438 -6.64451,34.578 -24.83364,46.25658 -3.85476,2.475 -7.63397,5.72828 -8.39824,7.22952 -3.33335,6.54761 -17.73948,18.53352 -26.0933,21.70963 -4.48561,1.70543 -20.0365,12.13302 -24.66004,16.53571 -23.34684,22.2316 -58.95787,34.78233 -83.57257,29.45427 z m 24.20167,-3.8631 c 24.65387,-4.30707 42.35375,-12.99522 57.51957,-28.23402 3.10676,-3.12171 7.05898,-6.40515 8.78269,-7.29652 1.72372,-0.89136 2.92455,-1.95962 2.66851,-2.37389 -0.25603,-0.41428 1.86675,-1.82778 4.71731,-3.14112 2.85055,-1.31335 8.33282,-3.91143 12.18282,-5.77353 3.85,-1.8621 7.16003,-3.29696 7.35563,-3.18858 0.83563,0.46302 8.14437,-6.36859 8.14437,-7.61268 0,-0.75228 1.0125,-2.34374 2.25,-3.53657 2.25,-2.1688 2.25,-2.1688 -0.67463,-1.47608 -2.5734,0.60953 -2.76886,0.50503 -1.62756,-0.87016 C 720.6612,339.7033 721.69725,339 722.25013,339 c 1.56239,0 16.96042,-11.50935 22.74381,-17 8.78262,-8.33807 13.21947,-20.30897 12.91344,-34.84131 -0.28966,-13.75468 -2.00528,-27.56489 -4.55406,-36.65869 -0.77076,-2.75 -1.51573,-5.45 -1.65547,-6 -0.13975,-0.55 -0.52602,-1.45 -0.85837,-2 -0.33236,-0.55 -0.9338,-2.575 -1.33655,-4.5 -0.97998,-4.68405 -8.03885,-22 -8.96832,-22 -0.20435,0 -1.35449,2.95375 -2.55587,6.56388 -2.77129,8.32774 -3.04787,7.93664 -1.81333,-2.56415 2.63349,-22.39987 -2.15554,-44.52867 -12.80021,-59.14628 -5.28426,-7.25652 -6.10109,-6.97518 -5.77137,1.98781 0.15496,4.21231 0.0603,6.53374 -0.21024,5.15874 -2.72857,-13.86497 -10.55034,-29 -14.98718,-29 C 701.62838,139 701,138.60107 701,138.1135 c 0,-0.48758 -1.33909,-1.08304 -2.97575,-1.32325 -2.30579,-0.33842 -2.7408,-0.15363 -1.93213,0.82074 3.44313,4.14873 0.68963,23.12497 -4.99249,34.40656 -5.3362,10.5948 -9.7038,14.32815 -19.94296,17.04695 -8.59749,2.28289 -19.56811,6.37275 -30.20761,11.26144 -15.70159,7.21464 -52.42662,6.38371 -69.94906,-1.58264 -8.48242,-3.85643 -19.07911,-7.68413 -29.76336,-10.75102 -15.01471,-4.30994 -27.34705,-31.17332 -22.33452,-48.65101 1.74795,-6.09472 -8.0829,-1.27934 -12.9021,6.31976 C 503.32869,149.87327 499,161.62711 499,164.66841 499,165.40078 498.63879,166 498.19731,166 c -0.44149,0 -0.53027,-2.475 -0.19731,-5.5 0.72185,-6.55804 0.3176,-6.70082 -4.3486,-1.5359 -6.96358,7.70785 -11.98069,20.07925 -14.20354,35.02367 -1.47285,9.90209 -1.4519,12.99104 0.19164,28.26223 0.7793,7.241 0.0388,7.31468 -2.19331,0.21824 -2.4619,-7.82702 -2.63712,-7.70766 -7.80016,5.31319 -12.07395,30.44969 -15.44508,66.03736 -7.73793,81.68632 5.14074,10.438 15.04549,19.86372 31.64063,30.11037 3.2732,2.02103 5.05127,3.34168 3.95127,2.93479 -5.5962,-2.07008 -5.72323,-1.94394 -2.64121,2.62274 4.72422,6.99998 4.45387,6.81936 23.83363,15.92335 5.05584,2.37507 8.9752,4.66979 8.70969,5.09939 -0.2655,0.42959 0.9979,1.44788 2.80758,2.26285 3.48023,1.5673 11.78175,8.75185 11.80267,10.21463 0.0912,6.37755 36.04369,22.59546 57.48764,25.93228 2.2,0.34233 4.225,0.84758 4.5,1.12278 0.54498,0.54537 5.10656,0.0387 14.6291,-1.6249 z M 691.28601,320.5 c 0.008,-2.75 0.20172,-3.75631 0.43157,-2.23625 0.22986,1.52006 0.22371,3.77006 -0.0136,5 -0.23736,1.22994 -0.42542,-0.0138 -0.41792,-2.76375 z m -167.84157,-0.94444 c -0.37648,-2.00685 -0.45952,-3.87382 -0.18452,-4.14882 0.275,-0.275 0.80804,1.14197 1.18452,3.14882 0.37649,2.00684 0.45953,3.87381 0.18453,4.14881 -0.275,0.275 -0.80804,-1.14197 -1.18453,-3.14881 z"
       id="path1" />
  </g>
</svg>
