<svg version="1.0" xmlns="http://www.w3.org/2000/svg"
 width="1200.000000pt" height="1600.000000pt" viewBox="0 0 1200.000000 1600.000000"
 preserveAspectRatio="xMidYMid meet">

<g transform="translate(0.000000,1600.000000) scale(0.100000,-0.100000)"
fill="#000000" stroke="none">
<path d="M6019 12844 c-8 -9 -14 -22 -14 -29 0 -7 -16 -30 -35 -52 -55 -61
-82 -103 -84 -132 -1 -14 -17 -48 -34 -75 -21 -33 -29 -53 -22 -60 5 -5 11 -8
13 -5 2 2 25 33 51 69 79 107 152 180 181 180 29 0 102 -73 181 -180 26 -36
49 -67 51 -69 2 -3 8 0 15 7 8 8 2 26 -26 72 -21 34 -36 64 -32 67 9 10 -23
62 -75 119 -27 30 -47 59 -43 65 20 33 -101 54 -127 23z"/>
</g>
</svg>
