<?xml version="1.0" encoding="UTF-8" standalone="no"?>
<!-- Created with Inkscape (http://www.inkscape.org/) -->

<svg
   version="1.1"
   id="svg1"
   width="1200"
   height="1600"
   viewBox="0 0 1200 1600"
   xml:space="preserve"
   xmlns="http://www.w3.org/2000/svg"
   xmlns:svg="http://www.w3.org/2000/svg"><defs
     id="defs1" /><g><path
     style="fill:#000000"
     d="m 598,409.96596 c -6.27037,-1.07627 -22.95343,-7.27838 -32.5,-12.08224 -6.7576,-3.40044 -20.82348,-12.0831 -22.5,-13.88892 -0.275,-0.29621 -3.50561,-2.47329 -7.17914,-4.83797 -8.3167,-5.35352 -27.3763,-24.93682 -31.05941,-31.91283 -2.79071,-5.28574 -4.82215,-11.75048 -5.10441,-16.244 -0.15109,-2.40536 0.0486,-2.49114 5.2753,-2.26585 l 5.43233,0.23416 -9.93233,-6.21383 C 490.65653,316.63858 474,301.3521 474,298.49628 c 0,-0.70527 -0.5676,-1.50011 -1.26133,-1.76632 -2.00478,-0.76931 -8.63876,-15.02868 -10.57481,-22.72996 -3.66826,-14.59174 -3.7627,-36.32073 -0.22552,-51.88632 2.60972,-11.48427 3.55194,-12.25287 9.47663,-7.73045 5.69536,4.34737 15.68858,7.65955 25.18267,8.3466 6.51482,0.47145 7.28296,0.31888 9.35455,-1.8581 3.9291,-4.12899 4.82979,-6.16377 6.57101,-14.84488 2.35118,-11.7221 7.58708,-26.28533 14.17461,-39.42552 9.48475,-18.91932 14.25019,-25.33063 33.73493,-45.38618 6.57837,-6.7711 10.65133,-10.06239 15.04392,-12.15678 3.87497,-1.84758 6.38002,-2.53061 7.02334,-1.91498 0.608,0.58183 0.88104,6.91525 0.69654,16.15678 -0.47312,23.69757 1.18765,41.74573 4.91708,53.43537 1.71337,5.37045 3.51373,9.91446 4.0008,10.09779 0.48707,0.18334 0.88558,0.97084 0.88558,1.75 0,0.77917 0.45,1.41667 1,1.41667 0.55,0 1,0.675 1,1.5 0,0.825 1.8,3.3 4,5.5 3.37592,3.37592 4.64467,4 8.13197,4 4.93515,0 9.94625,-2.8328 11.88002,-6.71582 0.7626,-1.5313 2.33383,-4.13418 3.49161,-5.78418 2.13412,-3.0414 7.00778,-18.09363 7.9327,-24.5 0.27792,-1.925 0.76763,-7.55 1.08826,-12.5 0.32062,-4.95 0.77357,-11.475 1.00655,-14.5 0.23298,-3.025 0.0963,-10 -0.30376,-15.5 -1.16407,-16.00418 -0.64057,-16.88336 7.61899,-12.79575 8.65659,4.2841 31.91545,28.9601 40.8662,43.35615 10.38037,16.6954 18.33138,36.04259 22.36692,54.42541 1.84826,8.41928 2.70423,10.49788 5.45635,13.25 2.83033,2.83033 3.94057,3.26419 8.35303,3.26419 9.69216,0 23.16168,-4.63961 28.80768,-9.92287 4.20983,-3.93936 5.80121,-1.55224 8.75361,13.13071 1.95997,9.74738 2.03659,32.07586 0.14396,41.95419 -2.39047,12.47673 -6.01106,20.85427 -13.12869,30.37789 -7.17732,9.6035 -16.5204,18.11233 -26.83112,24.43535 -4.74885,2.91222 -8.63428,5.47464 -8.63428,5.69428 0,0.21963 2.18302,0.10975 4.85115,-0.24419 4.00303,-0.53102 4.96396,-0.34955 5.49642,1.038 0.35489,0.92484 0.19687,2.51934 -0.35116,3.54334 -0.54802,1.024 -0.99677,2.6789 -0.9972,3.67756 -0.002,3.56965 -5.87793,14.14585 -11.62176,20.91662 -9.43201,11.11838 -16.05873,16.93112 -30.13677,26.435 -15.49982,10.4637 -25.06432,15.45339 -41.17119,21.47854 -9.79434,3.6638 -13.16081,4.44699 -20.63652,4.80096 -4.91314,0.23264 -10.95797,0.0754 -13.43297,-0.34942 z m 26.76287,-6.9469 c 13.07222,-3.27413 16.0531,-4.36922 27.4357,-10.07908 22.2278,-11.15014 46.98852,-31.3851 52.42588,-42.84349 0.93866,-1.97807 1.623,-3.59649 1.52076,-3.59649 -0.10224,0 0.52793,-2.4037 1.40038,-5.34155 1.49674,-5.04008 1.48378,-5.41925 -0.22966,-6.7182 -1.05642,-0.80087 -4.3084,-1.38994 -7.77525,-1.40845 L 693.58135,333 l 10.95933,-6.67045 c 13.42955,-8.17398 19.70749,-12.7973 25.08567,-18.47409 9.92712,-10.47829 17.81553,-25.78961 20.90856,-40.5833 C 753.95748,250.90235 751.57349,218 746.96482,218 746.43417,218 746,218.64948 746,219.4433 c 0,0.79381 -1.00013,2.14381 -2.22251,3 -2.51904,1.7644 -4.2004,2.04999 -3.27749,0.5567 0.81709,-1.32207 1.10075,-1.3791 -8.02774,1.61392 -8.3831,2.74863 -15.14793,3.363 -22.22226,2.0182 -3.73995,-0.71096 -4.25844,-0.58735 -4.32029,1.02998 -0.0638,1.6674 -0.14597,1.65237 -0.88624,-0.1621 -0.68836,-1.68724 -0.88867,-1.45267 -1.28092,1.5 -0.25572,1.925 -0.47394,0.18739 -0.48493,-3.86137 -0.011,-4.04875 -0.47056,-7.64875 -1.02128,-8 -0.55072,-0.35124 -1.00198,-2.43863 -1.0028,-4.63863 -0.002,-6.50736 -7.79492,-29.61165 -14.58415,-43.24114 -9.12258,-18.31373 -15.59998,-26.83429 -32.06332,-42.17706 -11.43636,-10.65794 -17.44273,-15.30079 -18.74952,-14.49314 -0.49148,0.30375 -0.59427,2.65806 -0.22841,5.23181 0.36586,2.57374 0.659,10.52953 0.65142,17.67953 -0.0143,13.49737 -1.30023,21.33636 -6.97177,42.5 -3.38889,12.64583 -5.41466,16.69303 -11.43051,22.83658 C 613.11279,205.7022 612.5306,206 607.78299,206 c -4.85427,0 -5.24846,-0.21961 -10.79795,-6.01562 -6.56394,-6.85554 -8.39123,-11.54531 -14.21549,-36.48438 -3.0982,-13.26629 -3.26639,-14.98265 -3.20931,-32.75 0.0331,-10.3125 -0.19186,-18.74832 -0.5,-18.74626 -4.36818,0.0291 -32.77672,28.27907 -40.61592,40.38916 -8.51318,13.15125 -14.65434,26.33661 -19.83149,42.57917 -4.46391,14.00485 -4.61865,14.9088 -4.79299,28 -0.15036,11.29024 -0.27442,12.28734 -0.75,6.02793 -0.31341,-4.125 -0.83181,-6.825 -1.15199,-6 -0.32018,0.825 -0.45273,3.2736 -0.29454,5.44133 l 0.28761,3.94132 -1.97749,-3.25172 c -1.63416,-2.68716 -2.36431,-3.11663 -4.20546,-2.47366 -4.45913,1.55724 -15.5014,0.36609 -24.43775,-2.63615 -7.50473,-2.52128 -8.44498,-2.66564 -6.42944,-0.98713 1.29844,1.0813 1.96346,1.96601 1.47785,1.96601 -0.48562,0 -2.59185,-1.40862 -4.68051,-3.13028 -2.33108,-1.92147 -4.15538,-2.77246 -4.72414,-2.2037 -2.0013,2.0013 -3.34051,13.55172 -3.28519,28.33398 0.0653,17.44076 1.74133,25.85769 7.53542,37.84195 8.86521,18.33644 19.17178,28.73084 40.87586,41.22421 L 521.5,332.5 516,332.76886 c -3.025,0.14788 -6.4637,0.7603 -7.64155,1.36094 l -2.14155,1.09208 2.01244,7.13906 c 2.20442,7.82014 3.91521,10.69155 10.73235,18.01332 4.163,4.47117 22.39646,18.762 29.53831,23.15124 1.65,1.01405 3.9,2.63205 5,3.59553 1.1,0.96349 6.55929,4.02091 12.13175,6.79427 8.79511,4.37724 14.89669,6.50888 31.36825,10.95878 6.65999,1.79923 15.54255,1.20573 27.76287,-1.85502 z"
     id="path1" /></g></svg>
