<?xml version="1.0" encoding="UTF-8" standalone="no"?>
<!-- Created with Inkscape (http://www.inkscape.org/) -->

<svg
   version="1.1"
   id="svg1"
   width="1200"
   height="1600"
   viewBox="0 0 1200 1600"
   xml:space="preserve"
   xmlns="http://www.w3.org/2000/svg"
   xmlns:svg="http://www.w3.org/2000/svg"><defs
     id="defs1" /><g><path
     style="fill:#000000"
     d="m 749.46491,227.88946 c -0.36842,-1.1608 -2.25111,-3.8608 -4.18375,-6 L 741.76728,218 h 2.99391 c 3.82211,0 5.082,1.57681 5.87343,7.35089 0.65946,4.81128 0.003,6.23494 -1.16971,2.53857 z M 465.32,224.1722 c 0.44912,-4.46221 1.73945,-6.66785 3.53035,-6.0347 0.59274,0.20956 -0.0276,2.47206 -1.4703,5.3625 l -2.49565,5 z M 580.5323,151.75 c 0.2617,-0.69672 -3.79889,-4.76992 -9.17399,-9.20247 -5.30394,-4.37385 -9.16118,-8.11324 -8.57166,-8.30975 0.99846,-0.33282 8.26309,1.58581 12.62739,3.33497 4.37819,1.75472 0.1344,-1.7719 -5.63975,-4.68669 -4.1427,-2.09123 -7.11658,-2.94817 -9.33315,-2.6894 l -3.25314,0.37979 1.80482,-2.29445 c 3.31265,-4.21136 18.41897,-16.34936 19.97364,-16.04892 1.25297,0.24213 1.55399,2.2147 1.6453,10.78164 0.0615,5.7669 0.18775,10.71028 0.28064,10.98528 0.85625,2.53488 1.02882,19 0.19915,19 -0.56583,0 -0.81749,-0.5625 -0.55925,-1.25 z m 68.47284,-11.25547 C 653.67727,135.52127 665,133.7617 665,138.0089 c 0,0.64704 -6.89303,2.13174 -9.26048,1.99462 -0.41826,-0.0242 -2.08341,0.64007 -3.70034,1.47622 -4.38178,2.26591 -5.68941,1.8413 -3.03404,-0.98521 z M 548.7068,139.77148 c 1.76033,-1.94513 8.32799,-2.32544 11.7932,-0.68288 1.53585,0.72801 1.12972,0.84232 -1.75,0.49258 -2.0625,-0.25049 -3.75,-0.081 -3.75,0.37666 0,0.45765 -1.77668,1.00152 -3.94818,1.20861 l -3.94819,0.37652 z M 636.07539,139.25 c 0.72616,-0.9625 2.66953,-3.2125 4.31861,-5 3.53758,-3.83451 2.47883,-4.20714 -2.44576,-0.8608 l -3.51603,2.3892 0.30987,-10.6392 c 0.44449,-15.26174 0.11755,-15.06057 10.78989,-6.6392 15.75791,12.43431 16.71457,15.97015 4.50969,16.66788 -3.95132,0.22589 -11.4592,3.08067 -12.49051,4.74936 -0.36805,0.59552 -1.14773,1.08276 -1.73261,1.08276 -0.65339,0 -0.55435,-0.67477 0.25685,-1.75 z m 8.59128,-9.91667 c -0.36667,-0.36666 -0.96667,-0.36666 -1.33334,0 C 642.96667,129.7 643.26667,130 644,130 c 0.73333,0 1.03333,-0.3 0.66667,-0.66667 z"
     id="path3" /></g></svg>
