<?xml version="1.0" encoding="UTF-8" standalone="no"?>
<!-- Created with Inkscape (http://www.inkscape.org/) -->

<svg
   version="1.1"
   id="svg1"
   width="1200"
   height="1600"
   viewBox="0 0 1200 1600"
   xml:space="preserve"
   xmlns="http://www.w3.org/2000/svg"
   xmlns:svg="http://www.w3.org/2000/svg"><defs
     id="defs1" /><g><path
     style="fill:#000000"
     d="m 747.68757,272.18785 c -0.3325,-1.66248 -0.40605,-4.05336 -0.16346,-5.31305 0.82407,-4.27907 -7.78774,-25.54566 -12.87262,-31.78852 l -1.15149,-1.41372 2,1.0719 c 1.1,0.58954 3.09094,2.23822 4.42431,3.66372 1.33338,1.4255 2.79588,2.59182 3.25,2.59182 H 744 v -2.91941 -2.91942 l -5.13201,-5.61524 c -2.82261,-3.08838 -4.96011,-5.71366 -4.75,-5.83396 0.2101,-0.1203 1.91052,-1.29199 3.77871,-2.60375 1.86818,-1.31176 4.88808,-2.72138 6.71088,-3.13248 l 3.31418,-0.74747 1.54167,4.13586 c 0.84792,2.27473 1.72618,6.83587 1.95168,10.13587 0.22551,3.3 0.73337,10.08891 1.12858,15.08646 l 0.71858,9.08646 -1.14697,6.5864 c -0.63084,3.62251 -1.74912,8.01848 -2.48508,9.76881 l -1.33811,3.18242 z M 464.70905,268.15814 463,262.40104 l 0.0178,-10.45052 c 0.023,-13.51106 1.78874,-30.21039 3.48455,-32.95428 C 466.84096,218.44831 468.38079,218 469.92416,218 h 2.80612 l 2.54259,2 c 1.39842,1.1 2.92161,2.00689 3.38486,2.01531 0.46325,0.008 1.44058,0.39461 2.17184,0.8582 l 1.32958,0.84288 -4.97124,5.18491 -4.97123,5.1849 -0.53142,2.7069 -0.53141,2.7069 0.80645,0.83337 0.80644,0.83337 1.86663,-1.84022 c 1.02665,-1.01212 2.87995,-2.69512 4.11845,-3.74 l 2.25181,-1.89978 -6.12653,12.07372 -6.12653,12.07372 -0.74612,7.62042 c -0.93654,9.56513 -1.19542,9.77751 -3.2954,2.70354 z M 736.54867,250.46052 C 735.52369,248.55724 734.30592,247 733.84253,247 733.37914,247 733,246.53118 733,245.95819 c 0,-1.33513 -2.46398,-3.78045 -7.5,-7.44321 -2.2,-1.60009 -4.225,-3.15804 -4.5,-3.46212 -0.275,-0.30407 -2.75,-2.31723 -5.5,-4.47369 -2.75,-2.15645 -5.45,-4.35997 -6,-4.8967 l -1,-0.97588 1.05757,0.5868 c 0.58167,0.32273 3.94677,0.8567 7.478,1.18658 l 6.42042,0.59978 2.3629,2.21013 c 1.2996,1.21556 3.85074,4.23512 5.66922,6.71012 l 3.30631,4.5 2.10316,6.41629 c 2.41827,7.37761 2.30966,8.48089 -0.34891,3.54423 z M 477.5336,250 c 0.9256,-4.58038 2.77548,-8.16912 8.05643,-15.62937 4.82326,-6.81367 5.52158,-7.23785 13.09886,-7.95667 L 504,225.91013 v 0.85611 c 0,0.47087 -4.725,4.56266 -10.5,9.09288 -5.775,4.53022 -10.5,8.63305 -10.5,9.11739 0,0.48435 -0.58092,1.47528 -1.29092,2.20206 -0.71001,0.72679 -2.09909,2.44643 -3.08684,3.82143 l -1.79592,2.5 z m 36.8816,-35.5 c 0.39867,-1.1 0.96928,-3.35 1.26801,-5 0.29873,-1.65 1.11653,-4.78443 1.81734,-6.96539 l 1.2742,-3.96539 5.5836,-2.83231 5.5836,-2.83231 5.69191,-0.92639 5.69192,-0.92638 6.33711,1.20214 c 7.32625,1.38977 7.95769,2.23127 2.34746,3.12838 -9.87114,1.57846 -25.53681,9.80433 -32.41518,17.02085 L 513.69034,216.5 Z M 694,210.91071 l -5.5,-5.00271 -9.02089,-4.44173 -9.02089,-4.44172 -4.72911,-0.6482 c -6.62838,-0.90852 -5.90901,-1.91308 2.7494,-3.8394 l 7.47851,-1.66381 2.96532,0.46734 c 7.35712,1.1595 16.35606,5.44269 18.03805,8.5855 0.74852,1.39862 4.03961,14.13741 4.03961,15.63607 0,1.22224 -2.01341,-0.11563 -7,-4.65134 z m -93.05846,-5.10494 C 599.04869,205.392 593.225,204.31316 588,203.40835 c -5.225,-0.90481 -10.175,-2.05624 -11,-2.55873 l -1.5,-0.91363 6.5,0.51087 6.5,0.51087 -3.5,-1.82495 c -1.925,-1.00373 -6.65,-2.84044 -10.5,-4.08158 -8.3624,-2.69583 -18.90406,-7.68344 -17.74869,-8.3975 0.45298,-0.27996 5.23813,-1.29753 10.63366,-2.26126 l 9.81006,-1.75225 -4.01451,-1.5701 c -2.20798,-0.86355 -4.38936,-1.96911 -4.84752,-2.4568 l -0.833,-0.8867 2.75,0.49803 2.75,0.49804 v -0.78948 c 0,-0.43422 -2.5875,-1.77834 -5.75,-2.98695 l -5.75,-2.19746 -7.25,-0.50589 c -8.37416,-0.58434 -8.86817,-0.10924 -3,2.88516 l 4.25,2.16868 -2,0.71118 c -1.1,0.39115 -3.575,1.27328 -5.5,1.96029 -1.925,0.68701 -6.2,2.13442 -9.5,3.21648 -3.3,1.08205 -8.5875,3.27116 -11.75,4.86469 -3.1625,1.59352 -5.75,2.75038 -5.75,2.57078 0,-0.1796 1.15012,-3.4301 2.55583,-7.22334 1.40571,-3.79324 2.71445,-7.6042 2.90831,-8.4688 0.42538,-1.89721 6.46981,-13.5869 8.54956,-16.53454 1.67029,-2.36732 3.43277,-3.0497 10.13498,-3.92397 l 4.64867,-0.60639 0.66034,1.06845 0.66034,1.06845 h -2.5 c -1.375,0 -2.76996,0.43681 -3.09991,0.97068 l -0.59992,0.97069 2.2909,0.52732 c 1.26,0.29003 6.30964,1.4431 11.22144,2.56238 4.9118,1.11929 10.87464,2.89503 13.25076,3.9461 l 4.32022,1.91104 5.50577,5.20713 5.50577,5.20713 1.90265,6.09876 c 1.04646,3.35433 3.00599,8.45982 4.35452,11.34555 l 2.45186,5.24678 2.47745,1.94875 2.47744,1.94876 7.41151,-0.50837 7.41151,-0.50836 2.25,-1.46023 c 1.2375,-0.80312 2.25,-2.07866 2.25,-2.83454 0,-0.75588 1.28749,-4.008 2.86108,-7.22695 1.5736,-3.21894 3.64299,-7.87762 4.59864,-10.35262 l 1.73755,-4.5 5.65137,-4.88814 5.65136,-4.88813 8,-3.73596 c 4.4,-2.05477 10.7,-4.31382 14,-5.02011 3.3,-0.70628 6.40259,-1.63803 6.89464,-2.07055 l 0.89465,-0.7864 -2.39465,-0.51642 C 666.57759,154.31026 664.6,153.88755 663.5,153.65494 l -2,-0.42294 4.38398,-0.116 c 2.41119,-0.0638 6.12488,0.40559 8.25265,1.04308 l 3.86867,1.15908 2.33037,3.09092 C 683.83562,163.05127 694,186.60598 694,190.07449 c 0,0.51593 -1.80189,-0.36723 -4.00421,-1.96258 l -4.0042,-2.90063 -8.2458,-2.75236 c -4.53518,-1.51379 -10.48489,-3.25694 -13.22157,-3.87365 l -4.97578,-1.12129 3.72578,-2.19827 C 665.3234,174.05667 667,172.5443 667,171.90489 v -1.16255 l -5.16349,0.68496 c -5.44371,0.72213 -16.40638,4.8533 -18.67999,7.03935 l -1.34349,1.29175 2.59349,-0.49578 c 3.74998,-0.71685 3.18383,0.59277 -1.01461,2.34699 -5.06679,2.11704 -4.70799,2.31256 7.10809,3.87343 2.75,0.36327 5.99754,0.89822 7.21675,1.18879 l 2.21674,0.52829 -4.71674,3.1878 -4.71675,3.18779 -8,2.33321 c -4.4,1.28326 -9.09208,2.84122 -10.42685,3.46214 l -2.42684,1.12894 3.17684,0.31336 c 1.74727,0.17235 3.17685,0.68242 3.17685,1.1335 v 0.82015 l -6.75,0.72246 c -3.7125,0.39736 -7.65,0.92163 -8.75,1.16505 -1.1,0.24342 -5.17631,0.77131 -9.05846,1.17307 l -7.05845,0.73049 z M 631.47408,165 l 0.67716,-6.5 2.57038,-3.5 c 1.41371,-1.925 4.19218,-4.98301 6.17438,-6.79558 l 3.604,-3.29557 -3.16201,1.52575 c -1.7391,0.83917 -4.298,2.97728 -5.68643,4.75137 l -2.52443,3.22562 0.56066,-10.4558 C 633.99615,138.20511 634.4555,129 634.70856,123.5 c 0.25306,-5.5 0.77037,-10.32571 1.14958,-10.7238 l 0.68947,-0.72381 4.00702,2.72381 C 648.99174,120.51139 673,144.63808 673,147.38162 c 0,0.15278 -2.46224,-0.16851 -5.47165,-0.71398 l -5.47165,-0.99178 -6.56075,2.78836 -6.56076,2.78836 -1.00278,1.87371 -1.00278,1.87371 1.28519,0.022 c 0.70685,0.0121 -0.51482,0.85844 -2.71482,1.8808 l -4,1.85883 -3.6007,3.8692 c -1.98038,2.12807 -4.38858,4.99421 -5.35154,6.36921 l -1.75084,2.5 z m -50.2309,-0.66395 -2.25683,-3.16395 -5.24317,-2.61279 L 568.5,155.94652 V 154.72326 153.5 l -5.52891,-2.76735 -5.52892,-2.76734 -7.22108,-0.13335 L 543,147.69861 v -0.98467 c 0,-1.16852 12.54882,-15.11943 19.98139,-22.21394 8.08543,-7.71767 9.63626,-9.09155 12.8275,-11.36392 l 2.96614,-2.11208 1.2235,1.47423 1.2235,1.47422 -0.4739,3.76378 c -0.51667,4.10342 0.84663,28.92669 1.8543,33.76377 l 0.62497,3 -3.96009,-4.25 c -2.17805,-2.3375 -4.47921,-4.25 -5.1137,-4.25 -1.86498,0 -1.37919,0.80141 2.7436,4.5261 2.14346,1.93649 4.64597,5.09879 5.56112,7.02734 l 1.66392,3.50644 -0.31112,3.22006 L 583.5,167.5 Z"
     id="path4" /></g></svg>
