<?xml version="1.0" encoding="UTF-8" standalone="no"?>
<!-- Created with Inkscape (http://www.inkscape.org/) -->

<svg
   version="1.1"
   id="svg1"
   width="1200"
   height="1600"
   viewBox="0 0 1200 1600"
   xml:space="preserve"
   xmlns="http://www.w3.org/2000/svg"
   xmlns:svg="http://www.w3.org/2000/svg"><defs
     id="defs1" /><g><path
     style="fill:#000000"
     d="M 586.5,406.51201 C 562.74061,398.74026 513,365.47525 513,357.35745 513,356.61085 512.63967,356 512.19927,356 c -0.44041,0 -1.76028,-1.97503 -2.93306,-4.38896 -1.17277,-2.41392 -3.51244,-5.96083 -5.19926,-7.88201 -5.51301,-6.27897 -2.77695,-12.29575 5.87179,-12.9125 l 4.43875,-0.31653 -7.55386,-5 C 471.02957,301.80741 456.5927,267.84844 464.47409,225.88371 466.39079,215.67817 469.28183,214.26372 476.5,220 c 2.14942,1.70814 4.97177,3 6.55417,3 1.52854,0 2.96645,0.5625 3.19535,1.25 0.77823,2.33741 24.54995,1.99322 25.81674,-0.37381 0.56443,-1.05464 0.7772,-2.32046 0.47283,-2.81294 -0.30437,-0.49248 -0.0471,-2.17068 0.57178,-3.72933 0.61884,-1.55866 1.29967,-4.18392 1.51295,-5.83392 0.21328,-1.65 1.27735,-5.7 2.36459,-9 1.08725,-3.3 2.12129,-6.9 2.29788,-8 0.3661,-2.28047 3.42562,-12.00252 4.7205,-15 5.41026,-12.52412 12.79761,-26.3003 15.87403,-29.60246 1.16555,-1.25106 2.11918,-2.66985 2.11918,-3.15286 0,-0.483 1.57425,-2.53565 3.49833,-4.56143 1.92408,-2.02579 3.72721,-4.35825 4.00695,-5.18325 0.27974,-0.825 2.7331,-3.3 5.4519,-5.5 2.71881,-2.2 4.96568,-4.32592 4.99305,-4.72428 0.0274,-0.39835 1.68038,-2.19835 3.67335,-4 1.99296,-1.80164 4.68265,-4.25745 5.97708,-5.45735 10.896,-10.10026 11.21598,-9.74045 11.78194,13.24862 0.24281,9.86315 0.70185,19.05801 1.02009,20.43301 0.31824,1.375 1.00764,6.92356 1.53201,12.33012 0.52437,5.40657 1.36669,10.35657 1.87181,11 0.50512,0.64344 1.70307,3.86988 2.6621,7.16988 0.95903,3.3 2.82092,8.0859 4.13754,10.63533 1.31662,2.54943 2.39385,5.2773 2.39385,6.06194 0,7.48157 23.25833,7.0618 24.35931,-0.43964 0.12559,-0.85573 0.72814,-2.16376 1.339,-2.90675 2.0092,-2.4438 7.1501,-14.52293 7.86329,-18.47572 0.38455,-2.13134 1.02175,-4.32516 1.416,-4.87516 0.39425,-0.55 1.27422,-5.51784 1.95549,-11.03965 1.15738,-9.3808 1.47556,-14.43005 2.4113,-38.26519 0.44018,-11.21226 0.96354,-11.92291 6.15884,-8.36281 C 647.31732,118.50173 668,138.355 668,140.22644 c 0,0.43498 1.09632,2.02448 2.43627,3.53222 3.73851,4.20664 7.39509,9.41676 8.99806,12.82095 0.79756,1.69378 2.15112,3.66138 3.00789,4.37244 0.85678,0.71106 1.55778,1.81799 1.55778,2.45984 0,0.64185 1.50128,4.07425 3.33619,7.62756 4.6291,8.96429 12.02632,31.53844 13.10862,40.00365 0.17276,1.3513 0.83673,3.772 1.47547,5.37935 0.63874,1.60735 0.9196,3.55244 0.62412,4.32244 -1.93988,5.05525 20.98313,7.56676 27.42811,3.00511 1.35987,-0.9625 3.3024,-1.75 4.31672,-1.75 1.01432,0 3.27669,-1.06749 5.02749,-2.3722 9.33339,-6.9553 12.15465,-1.93445 13.2039,23.49836 1.4125,34.23727 -9.8695,57.63455 -37.55388,77.88147 -3.00671,2.19895 -6.01025,4.4468 -6.67453,4.99523 -0.66429,0.54843 -1.67679,0.99714 -2.25,0.99714 -0.57322,0 -1.04221,0.45 -1.04221,1 0,0.55 -0.675,1 -1.5,1 -0.825,0 -1.5,0.45 -1.5,1 0,0.55 1.72156,1 3.82569,1 7.3859,0 10.33374,6.28021 5.59261,11.91473 -1.41994,1.6875 -3.84618,5.65953 -5.39164,8.82673 -16.41247,33.63489 -86.27415,65.64753 -119.52666,54.77055 z"
     id="path2" /></g></svg>
