<svg version="1.0" xmlns="http://www.w3.org/2000/svg"
 width="1200.000000pt" height="1600.000000pt" viewBox="0 0 1200.000000 1600.000000"
 preserveAspectRatio="xMidYMid meet">

<g transform="translate(0.000000,1600.000000) scale(0.100000,-0.100000)"
fill="#000000" stroke="none">
<path d="M5131 13046 c-14 -7 -43 -14 -66 -14 -61 -2 -349 -120 -480 -197 -43
-26 -63 -31 -150 -36 -136 -9 -195 -19 -195 -33 0 -18 47 -58 115 -99 98 -58
149 -74 270 -81 61 -3 131 -11 157 -18 40 -10 50 -9 75 7 21 14 25 15 15 3
-17 -21 -10 -24 73 -33 84 -10 158 -7 166 6 3 5 13 7 22 4 25 -10 55 12 79 58
45 86 33 373 -18 424 -27 26 -30 27 -63 9z m-41 -251 c-7 -8 -16 -12 -21 -9
-13 8 -1 24 18 24 13 0 13 -3 3 -15z"/>
<path d="M6972 13016 c-23 -30 -28 -47 -42 -166 -28 -224 -27 -232 28 -258 20
-9 43 -22 50 -29 35 -34 153 -43 223 -17 43 15 148 28 361 43 l107 8 82 61
c46 34 93 62 105 62 29 0 38 14 25 38 -8 15 -31 21 -120 31 -76 8 -131 20
-178 40 -37 15 -99 40 -136 56 -48 19 -71 35 -77 51 -6 14 -21 26 -37 29 -15
4 -72 20 -125 36 -53 17 -130 33 -171 36 -71 5 -74 5 -95 -21z"/>
</g>
</svg>
