<?xml version="1.0" standalone="no"?>
<!DOCTYPE svg PUBLIC "-//W3C//DTD SVG 20010904//EN"
 "http://www.w3.org/TR/2001/REC-SVG-20010904/DTD/svg10.dtd">
<svg version="1.0" xmlns="http://www.w3.org/2000/svg"
 width="1200.000000pt" height="1600.000000pt" viewBox="0 0 1200.000000 1600.000000"
 preserveAspectRatio="xMidYMid meet">

<g transform="translate(0.000000,1600.000000) scale(0.100000,-0.100000)"
fill="#000000" stroke="none">
<path d="M6043 12798 c-45 -51 -113 -147 -113 -161 0 -29 -103 -93 -168 -103
-21 -3 -44 -10 -52 -14 -8 -4 -35 -11 -60 -15 -55 -9 -100 -31 -100 -49 0 -26
61 -63 182 -112 32 -12 78 -39 102 -59 48 -39 119 -127 138 -172 19 -44 99
-173 106 -173 6 0 31 42 97 159 77 138 151 208 268 255 84 34 144 68 159 90 7
10 -18 46 -31 44 -3 -1 -13 2 -21 5 -13 5 -114 32 -160 42 -8 2 -17 4 -20 5
-3 1 -8 2 -12 1 -4 0 -29 12 -55 27 -32 19 -62 50 -93 95 -62 91 -118 157
-134 157 -7 0 -22 -10 -33 -22z"/>
</g>
</svg>
