<svg version="1.0" xmlns="http://www.w3.org/2000/svg"
 width="1200.000000pt" height="1600.000000pt" viewBox="0 0 1200.000000 1600.000000"
 preserveAspectRatio="xMidYMid meet">

<g transform="translate(0.000000,1600.000000) scale(0.100000,-0.100000)"
fill="#000000" stroke="none">
<path d="M6320 9680 c-11 -11 -20 -28 -20 -38 0 -27 -189 -44 -395 -36 -183 7
-257 -5 -356 -57 -55 -30 -59 -30 -76 -14 -16 17 -18 16 -40 -9 -13 -15 -23
-35 -23 -45 0 -44 -32 -120 -64 -152 -19 -18 -32 -37 -30 -41 3 -4 -1 -8 -8
-8 -14 0 -44 -39 -40 -52 1 -5 -2 -7 -7 -5 -14 4 -152 -174 -197 -255 -23 -41
-50 -97 -60 -126 -18 -51 -34 -68 -34 -36 0 8 -18 -6 -41 -33 -23 -26 -52 -60
-65 -75 -13 -15 -24 -32 -24 -36 0 -5 -9 -17 -20 -27 -11 -10 -20 -22 -20 -26
0 -12 -118 -205 -155 -254 -19 -24 -41 -57 -49 -73 -8 -16 -26 -36 -39 -45
-14 -9 -33 -38 -43 -66 -10 -28 -22 -51 -26 -51 -4 0 -7 -3 -6 -7 1 -5 -6 -22
-15 -40 -9 -18 -17 -39 -17 -48 0 -8 -5 -15 -12 -15 -6 0 -9 -3 -5 -6 3 -4 0
-13 -8 -20 -8 -8 -12 -21 -9 -29 4 -8 2 -15 -4 -15 -5 0 -13 -10 -17 -22 -4
-13 -8 -25 -10 -28 -9 -22 -15 -42 -26 -90 -6 -30 -14 -59 -18 -65 -3 -5 -6
-14 -8 -20 -17 -77 -26 -110 -34 -120 -4 -6 -10 -31 -13 -55 -4 -25 -10 -62
-15 -84 -6 -24 -6 -61 0 -95 28 -167 49 -1385 29 -1657 -13 -181 -79 -649
-120 -847 -51 -252 -65 -297 -118 -363 -22 -28 -28 -31 -56 -23 -20 6 -55 4
-106 -7 -41 -8 -88 -13 -105 -10 -51 10 -374 -12 -491 -34 -224 -40 -364 -93
-564 -214 -52 -31 -100 -54 -106 -52 -13 5 -135 -117 -189 -188 -17 -22 -74
-83 -129 -135 -134 -130 -301 -377 -367 -543 -29 -73 -67 -210 -62 -225 3 -7
1 -13 -4 -13 -10 0 -13 -21 -17 -161 -2 -53 1 -120 6 -150 6 -30 10 -63 11
-74 0 -11 19 -45 41 -76 23 -31 70 -98 106 -150 89 -126 249 -292 403 -414
l128 -102 127 -36 c191 -55 486 -126 586 -142 133 -22 292 -30 300 -16 15 24
107 2 155 -38 14 -12 37 -27 50 -34 16 -8 30 -30 43 -67 26 -76 95 -215 171
-343 53 -89 72 -113 108 -134 24 -13 66 -44 94 -67 27 -24 64 -50 82 -59 48
-25 64 -45 57 -73 -5 -21 -3 -24 22 -25 16 -1 37 -1 46 0 9 1 41 -20 70 -46
29 -26 87 -63 128 -82 41 -19 78 -39 81 -44 4 -6 21 -7 38 -4 16 4 33 2 36 -3
20 -32 151 -72 290 -89 44 -6 123 -17 176 -25 145 -23 661 -64 969 -76 412
-17 810 5 1095 61 126 25 136 28 110 39 -15 6 -7 9 27 9 27 1 130 22 230 47
231 58 880 270 973 317 107 54 301 193 385 277 42 41 92 88 113 103 24 18 37
36 37 51 0 15 13 36 34 54 41 35 156 77 191 68 28 -7 192 25 247 48 59 25 217
57 236 48 49 -24 135 36 254 178 89 106 159 235 178 327 8 38 10 84 5 133 -11
109 -11 145 4 245 25 168 8 260 -91 495 -58 136 -103 212 -213 362 -180 244
-469 497 -718 630 -31 17 -55 33 -52 36 2 3 11 -1 20 -8 12 -10 26 -7 77 18
75 35 185 116 193 142 3 10 17 26 31 35 13 9 22 20 19 25 -3 5 11 42 32 82 21
40 39 76 41 81 2 4 -4 4 -13 1 -12 -5 4 34 48 117 54 102 69 142 86 224 31
154 42 305 31 420 -11 121 -26 174 -93 330 -64 151 -209 363 -291 425 -29 22
-58 40 -64 40 -7 0 -12 4 -12 8 0 4 -17 14 -37 22 -21 8 -41 16 -46 18 -4 2
-4 -5 0 -15 5 -13 -5 -9 -34 15 -22 17 -45 32 -51 32 -6 0 -19 -15 -30 -32
-19 -31 -19 -44 -12 -227 4 -106 5 -223 3 -260 -3 -36 0 -93 5 -126 12 -76
-11 -174 -68 -290 -32 -64 -60 -101 -143 -185 -92 -94 -114 -110 -202 -154
-172 -84 -255 -109 -364 -108 -70 0 -107 -5 -143 -19 -59 -23 -82 -24 -139 -4
-88 31 -175 38 -326 25 -158 -14 -363 -6 -344 13 6 6 11 21 11 33 0 47 43 206
60 222 11 11 30 74 53 180 21 94 49 188 66 225 31 64 88 274 187 692 54 225
65 309 55 395 -1 14 2 122 8 240 10 216 2 411 -19 450 -6 10 -10 44 -10 76 0
74 -25 243 -56 372 -27 116 -29 136 -13 126 7 -4 9 0 6 12 -4 11 -18 61 -32
112 -14 52 -36 122 -49 155 -13 34 -29 80 -36 102 -12 38 -41 98 -117 245 -59
114 -99 174 -178 270 -34 41 -65 88 -69 103 -4 16 -23 39 -45 55 -27 19 -50
50 -76 100 -20 41 -34 76 -31 79 3 3 -7 24 -23 47 -15 22 -35 55 -44 71 -9 17
-27 44 -42 60 -14 17 -42 49 -62 73 -20 23 -42 42 -49 42 -20 0 -77 74 -129
165 -26 47 -59 96 -72 108 -14 12 -33 29 -42 37 -20 18 -73 53 -173 113 -86
53 -134 61 -168 27z m46 -126 c18 -15 17 -15 -15 -10 -18 3 -41 6 -50 7 -12 0
-11 2 4 9 29 13 39 12 61 -6z m-557 2 c-8 -8 -251 -68 -255 -63 -7 7 93 47
139 57 46 9 123 13 116 6z m551 -75 c47 -12 103 -27 125 -33 l40 -11 -30 -9
c-57 -16 -291 -48 -443 -60 -158 -12 -186 -9 -432 39 l-25 5 25 14 c40 22 156
56 244 70 124 20 388 12 496 -15z"/>
</g>
</svg>
