<?xml version="1.0" standalone="no"?>
<!DOCTYPE svg PUBLIC "-//W3C//DTD SVG 20010904//EN"
 "http://www.w3.org/TR/2001/REC-SVG-20010904/DTD/svg10.dtd">
<svg version="1.0" xmlns="http://www.w3.org/2000/svg"
 width="1200.000000pt" height="1600.000000pt" viewBox="0 0 1200.000000 1600.000000"
 preserveAspectRatio="xMidYMid meet">

<g transform="translate(0.000000,1600.000000) scale(0.100000,-0.100000)"
fill="#000000" stroke="none">
<path d="M5264 10828 c18 -60 27 -164 31 -336 3 -207 17 -306 59 -437 34 -103
43 -147 57 -275 11 -101 10 -125 -5 -196 -9 -45 -35 -123 -57 -174 -22 -50
-38 -94 -35 -97 6 -6 61 78 102 157 16 30 31 56 34 57 3 2 2 81 -1 175 -5 164
-8 181 -46 313 -52 179 -85 369 -81 472 l3 78 22 -45 c12 -25 22 -38 23 -30 0
9 -7 25 -15 36 -19 28 -37 107 -25 114 10 6 -29 131 -54 176 -10 16 -15 21
-12 12z"/>
<path d="M6854 10763 c-9 -27 -23 -63 -30 -80 -9 -22 -9 -35 -2 -39 10 -6 7
-48 -7 -89 -5 -15 -4 -16 3 -6 8 11 11 9 17 -9 17 -53 -28 -338 -83 -531 -45
-155 -54 -218 -48 -337 5 -76 3 -109 -6 -120 -10 -13 -10 -14 0 -8 8 5 12 1
12 -10 0 -27 127 -240 137 -230 2 2 -5 26 -17 53 -86 189 -85 187 -84 358 1
128 5 164 27 245 84 306 78 266 88 540 4 140 11 267 15 283 10 43 -3 31 -22
-20z"/>
<path d="M5385 10660 c9 -16 22 -30 31 -30 9 0 12 -5 8 -12 -4 -6 -3 -8 3 -5
5 3 26 -5 45 -18 67 -45 151 -77 218 -82 54 -4 78 -1 143 22 43 15 80 32 83
36 3 5 -7 4 -23 -2 -76 -29 -150 -39 -209 -28 -106 19 -189 56 -257 116 -46
41 -62 42 -42 3z"/>
<path d="M6725 10654 c-57 -50 -148 -92 -237 -110 -73 -15 -80 -15 -150 4
-121 34 -125 34 -108 24 8 -6 51 -22 94 -37 113 -39 189 -32 302 30 45 24 85
41 89 37 4 -4 6 -2 5 3 -5 21 1 29 9 16 7 -11 14 -7 30 20 37 60 25 65 -34 13z"/>
<path d="M6790 10509 c-7 -11 -10 -23 -7 -25 2 -2 9 7 15 21 14 30 7 33 -8 4z"/>
<path d="M5390 10450 c6 -11 13 -20 16 -20 2 0 0 9 -6 20 -6 11 -13 20 -16 20
-2 0 0 -9 6 -20z"/>
<path d="M6756 10453 c-6 -14 -5 -15 5 -6 7 7 10 15 7 18 -3 3 -9 -2 -12 -12z"/>
<path d="M6097 10259 c7 -9 10 -19 6 -22 -3 -4 -1 -7 5 -7 17 0 15 16 -5 31
-16 12 -17 12 -6 -2z"/>
<path d="M6010 10220 c-13 -8 -13 -10 2 -10 9 0 20 5 23 10 8 13 -5 13 -25 0z"/>
<path d="M6194 10184 c37 -19 82 -45 100 -58 43 -32 65 -43 41 -20 -29 28 -72
55 -137 86 -83 40 -86 34 -4 -8z"/>
<path d="M5910 10168 c-30 -18 -57 -34 -60 -38 -3 -3 -18 -16 -34 -28 -16 -12
-25 -22 -21 -22 4 0 24 13 45 30 20 16 60 41 89 55 47 24 62 35 44 35 -5 0
-33 -15 -63 -32z"/>
<path d="M6395 10040 c10 -11 20 -20 23 -20 3 0 -3 9 -13 20 -10 11 -20 20
-23 20 -3 0 3 -9 13 -20z"/>
<path d="M5678 9934 c-5 -4 -8 -30 -8 -58 1 -40 3 -47 11 -33 11 19 8 103 -3
91z"/>
<path d="M6464 9920 c3 -14 6 -41 6 -60 0 -26 3 -31 10 -20 15 23 12 64 -6 86
-15 18 -15 18 -10 -6z"/>
<path d="M6033 8996 c35 -32 51 -33 89 -1 31 26 30 32 -2 15 -13 -7 -21 -7
-25 0 -4 7 -13 7 -26 0 -13 -8 -26 -7 -41 0 -19 9 -18 7 5 -14z"/>
</g>
</svg>
