<?xml version="1.0" standalone="no"?>
<!DOCTYPE svg PUBLIC "-//W3C//DTD SVG 20010904//EN"
 "http://www.w3.org/TR/2001/REC-SVG-20010904/DTD/svg10.dtd">
<svg version="1.0" xmlns="http://www.w3.org/2000/svg"
 width="1200.000000pt" height="1600.000000pt" viewBox="0 0 1200.000000 1600.000000"
 preserveAspectRatio="xMidYMid meet">

<g transform="translate(0.000000,1600.000000) scale(0.100000,-0.100000)"
fill="#000000" stroke="none">
<path d="M5770 11534 c-58 -8 -157 -26 -220 -40 -63 -13 -125 -27 -138 -30
-13 -2 -21 -8 -18 -13 3 -4 -6 -14 -20 -22 -37 -19 -116 -109 -158 -178 -69
-113 -69 -225 1 -342 23 -39 33 -69 33 -97 0 -32 7 -49 30 -75 32 -37 31 -32
31 -222 0 -55 6 -174 14 -265 14 -154 17 -169 50 -235 l35 -70 9 -208 9 -208
-29 -29 c-32 -31 -38 -67 -13 -77 8 -3 13 -11 10 -18 -2 -7 -2 -15 1 -18 5 -5
85 34 108 53 16 13 45 -29 45 -65 0 -29 21 -33 46 -8 19 19 51 24 75 12 9 -5
20 -4 27 3 12 12 65 -16 98 -53 10 -12 53 -38 94 -57 41 -20 78 -38 83 -40 4
-2 7 4 7 13 0 10 10 34 22 53 l22 35 13 -63 c23 -114 53 -114 76 1 l13 63 22
-36 c12 -19 22 -43 22 -53 0 -9 3 -15 8 -13 4 2 41 20 82 40 41 19 84 45 94
57 35 39 85 64 100 52 10 -8 16 -9 21 -2 9 15 60 7 80 -12 24 -25 45 -21 45 8
0 21 5 36 27 74 2 2 9 -1 16 -8 8 -6 35 -22 61 -36 39 -21 46 -22 46 -8 0 9 7
21 16 27 20 15 11 56 -19 88 -21 22 -22 33 -20 173 1 155 8 190 72 400 29 96
40 171 42 301 1 61 6 121 11 134 5 13 10 65 12 116 3 64 9 100 20 116 9 12 16
40 16 62 0 26 10 55 31 89 71 115 72 235 4 347 -42 70 -122 160 -159 179 -14
8 -23 18 -20 22 3 5 -5 11 -18 13 -209 46 -271 58 -371 71 -147 19 -452 18
-597 -1z"/>
</g>
</svg>
