<svg version="1.0" xmlns="http://www.w3.org/2000/svg"
 width="1200.000000pt" height="1600.000000pt" viewBox="0 0 1200.000000 1600.000000"
 preserveAspectRatio="xMidYMid meet">

<g transform="translate(0.000000,1600.000000) scale(0.100000,-0.100000)"
fill="#000000" stroke="none">
<path d="M7540 5690 c8 -5 20 -10 25 -10 6 0 3 5 -5 10 -8 5 -19 10 -25 10 -5
0 -3 -5 5 -10z"/>
<path d="M7596 5657 c3 -10 9 -15 12 -12 3 3 0 11 -7 18 -10 9 -11 8 -5 -6z"/>
<path d="M4468 5607 c-15 -24 -35 -63 -43 -87 -8 -24 -19 -48 -24 -54 -5 -6
-19 -36 -31 -66 -17 -43 -23 -82 -26 -175 -7 -193 -30 -277 -135 -488 -49
-100 -94 -190 -99 -199 -17 -31 -107 -252 -138 -338 -80 -227 -95 -306 -96
-515 0 -141 23 -429 45 -540 5 -27 24 -174 43 -325 75 -596 72 -1024 -9 -1250
-16 -47 -153 -298 -210 -385 -18 -27 -53 -82 -78 -122 -40 -63 -53 -75 -109
-102 -37 -17 -85 -52 -116 -84 l-53 -54 5 -69 c3 -59 8 -72 31 -91 14 -13 39
-23 56 -23 17 0 29 -5 29 -13 0 -27 47 -57 105 -68 41 -7 66 -19 86 -38 52
-52 155 -56 237 -10 l54 30 26 -23 c14 -13 32 -28 39 -35 22 -20 84 -33 158
-33 64 0 75 3 133 40 38 24 67 50 73 67 48 122 77 168 145 233 99 94 126 142
132 239 3 53 10 82 22 96 37 42 43 86 21 172 -11 44 -28 97 -37 118 -11 28
-14 53 -10 86 5 39 0 64 -25 136 -31 86 -32 93 -35 283 -1 107 1 222 6 255 5
33 16 116 25 185 47 349 99 537 227 824 44 100 105 237 135 306 30 69 77 172
104 229 103 217 125 316 134 619 6 210 21 440 36 545 5 40 12 113 15 162 6
103 -10 325 -24 334 -5 3 -11 13 -14 21 -6 18 -7 -18 -7 -260 1 -144 -3 -200
-16 -250 -10 -36 -19 -110 -21 -165 -16 -542 -19 -580 -59 -755 -30 -130 -44
-169 -93 -268 -21 -42 -74 -162 -116 -267 -43 -104 -84 -203 -91 -220 -89
-200 -108 -249 -149 -390 -88 -298 -125 -523 -130 -775 -4 -229 8 -362 39
-455 l28 -79 -21 -66 c-30 -95 -37 -156 -19 -163 9 -3 17 -26 21 -61 5 -36 11
-54 18 -50 15 10 4 -144 -15 -215 -13 -46 -25 -63 -83 -116 -47 -43 -73 -60
-81 -53 -14 11 -18 4 -28 -42 -4 -19 -15 -51 -25 -70 -10 -19 -28 -57 -41 -84
-15 -34 -35 -57 -68 -78 -43 -28 -51 -29 -126 -25 -104 5 -143 25 -184 91 -17
29 -31 56 -31 61 1 17 53 71 118 121 35 27 80 62 100 78 l37 29 -30 -7 c-16
-4 -59 -31 -95 -60 -36 -29 -82 -64 -102 -77 -43 -27 -61 -63 -62 -122 -1 -35
-5 -43 -35 -61 -45 -26 -153 -29 -177 -4 -16 16 -16 19 -2 35 20 21 60 113 50
113 -3 0 27 34 68 75 41 41 72 77 69 79 -8 8 -156 -137 -173 -169 -8 -16 -26
-42 -41 -57 -22 -24 -34 -28 -79 -28 -39 0 -59 5 -76 20 -21 18 -22 23 -10 45
19 36 69 84 139 134 61 45 74 61 46 61 -8 0 -15 -4 -15 -9 0 -5 -24 -26 -52
-47 -29 -21 -74 -57 -100 -81 -54 -49 -84 -54 -117 -19 -29 31 -24 55 16 82
54 36 127 104 112 104 -8 0 -35 -18 -59 -40 -43 -38 -90 -53 -90 -28 0 24 104
110 156 129 83 31 154 123 269 349 33 63 84 157 114 209 60 103 77 160 88 301
13 160 6 664 -11 795 -2 17 -9 80 -16 140 -6 61 -20 171 -31 245 -10 74 -24
185 -29 245 -6 61 -19 191 -29 290 -21 206 -20 333 4 431 53 220 186 541 353
857 80 150 92 193 92 337 1 111 18 194 63 306 20 50 37 100 37 111 0 10 6 27
14 38 7 11 10 28 7 37 -5 14 -12 9 -33 -25z m226 -4283 c19 -73 20 -103 5
-141 l-12 -28 -9 35 c-5 19 -13 40 -18 45 -17 21 -22 87 -10 131 15 53 21 47
44 -42z"/>
<path d="M4525 5640 c-3 -6 1 -7 9 -4 18 7 21 14 7 14 -6 0 -13 -4 -16 -10z"/>
<path d="M7653 5620 c-1 -11 2 -22 8 -25 5 -4 9 -18 9 -33 0 -15 6 -38 13 -52
21 -39 64 -160 75 -210 6 -25 14 -110 18 -190 l7 -145 47 -90 c26 -49 74 -142
107 -205 115 -216 254 -571 287 -734 21 -100 20 -222 -4 -456 -11 -107 -22
-220 -25 -250 -13 -128 -17 -162 -35 -290 -51 -365 -63 -558 -57 -924 4 -256
8 -311 24 -366 21 -71 19 -66 114 -237 37 -65 83 -151 103 -191 47 -94 115
-199 155 -238 17 -17 51 -37 77 -44 29 -9 64 -30 100 -63 54 -51 67 -77 38
-77 -22 0 -74 32 -74 46 0 6 -8 14 -17 18 -10 3 -29 10 -43 16 -24 10 -24 9
-5 -5 11 -9 34 -28 52 -43 17 -15 47 -38 67 -52 44 -31 50 -47 31 -77 -30 -45
-77 -43 -121 6 -14 16 -55 47 -91 68 -36 21 -69 47 -74 58 -4 11 -8 14 -8 7
-1 -7 -6 -10 -13 -6 -6 4 -8 3 -4 -4 3 -6 40 -32 81 -58 71 -45 125 -105 125
-138 0 -26 -42 -46 -94 -46 -41 0 -55 5 -78 27 -15 15 -28 33 -28 40 0 7 -5
13 -11 13 -5 0 -8 4 -4 9 8 15 -161 178 -173 166 -3 -3 27 -37 67 -75 66 -63
78 -80 80 -116 1 -6 14 -31 30 -55 34 -50 29 -65 -24 -75 -42 -8 -140 14 -166
37 -16 14 -19 25 -14 49 10 44 -11 86 -54 112 -41 26 -43 28 -126 97 -38 32
-69 51 -85 51 -24 -1 -24 -1 -5 -12 11 -6 46 -35 78 -65 32 -29 71 -60 87 -68
16 -8 41 -32 54 -52 24 -34 24 -38 9 -66 -44 -87 -119 -123 -235 -115 -91 6
-127 33 -177 133 -21 44 -44 99 -50 122 -9 34 -17 43 -41 48 -18 4 -52 31 -88
69 -52 56 -60 71 -71 126 -12 62 -12 212 1 204 3 -2 9 18 13 46 5 33 12 50 21
50 8 0 14 2 14 4 0 17 -32 149 -44 183 -14 39 -13 46 10 110 31 89 44 202 44
398 0 141 -4 201 -26 385 -13 113 -42 238 -116 494 -26 94 -80 232 -133 341
-8 17 -44 107 -81 200 -37 94 -86 207 -110 252 -125 243 -155 409 -170 923 -4
170 -11 247 -26 315 -17 78 -19 113 -14 255 3 91 2 183 -2 205 l-8 40 -14 -25
c-22 -38 -26 -331 -6 -490 17 -137 22 -229 36 -575 12 -306 27 -365 162 -655
22 -47 46 -100 54 -117 8 -18 21 -48 29 -65 102 -224 184 -412 215 -498 81
-219 149 -587 176 -950 10 -147 -22 -385 -57 -425 -5 -5 -9 -43 -9 -85 0 -52
-8 -99 -25 -153 -43 -133 -42 -185 1 -237 6 -8 14 -46 16 -85 2 -45 11 -86 26
-116 23 -48 23 -48 131 -153 39 -38 71 -76 71 -83 0 -8 11 -35 25 -61 14 -26
25 -52 25 -59 0 -14 72 -74 117 -97 35 -18 134 -21 197 -7 23 6 54 25 77 47
l39 38 30 -18 c67 -39 87 -46 137 -46 62 0 91 10 128 44 15 14 44 28 64 31 67
11 106 30 119 58 9 19 21 27 40 27 55 1 82 43 82 127 0 56 -2 60 -54 115 -35
36 -75 65 -113 82 -32 15 -63 35 -68 45 -6 11 -36 59 -69 107 -70 106 -151
245 -217 372 -44 85 -71 177 -94 315 -10 60 -6 522 5 648 18 206 64 593 75
629 12 40 47 393 52 530 8 210 -6 312 -63 486 -68 205 -136 364 -292 684 -77
156 -112 297 -112 448 0 105 -12 155 -65 262 -71 147 -89 171 -92 130z m-140
-4303 c1 -25 -8 -66 -23 -100 l-24 -57 -13 31 c-14 35 -11 72 15 156 15 49 16
51 30 32 7 -11 14 -39 15 -62z"/>
<path d="M7630 5601 c0 -6 4 -13 10 -16 6 -3 7 1 4 9 -7 18 -14 21 -14 7z"/>
<path d="M5066 5315 c4 -11 16 -57 28 -103 12 -46 24 -80 28 -77 9 9 -16 104
-40 155 -12 25 -19 36 -16 25z"/>
<path d="M7069 5294 c-41 -107 -48 -147 -29 -159 6 -4 10 6 10 24 0 16 9 58
20 92 20 64 20 95 -1 43z"/>
<path d="M4502 5100 c0 -19 2 -27 5 -17 2 9 2 25 0 35 -3 9 -5 1 -5 -18z"/>
<path d="M7642 5070 c0 -14 2 -19 5 -12 2 6 2 18 0 25 -3 6 -5 1 -5 -13z"/>
<path d="M7040 5060 c0 -5 5 -10 11 -10 5 0 7 5 4 10 -3 6 -8 10 -11 10 -2 0
-4 -4 -4 -10z"/>
<path d="M4511 5044 c0 -11 3 -14 6 -6 3 7 2 16 -1 19 -3 4 -6 -2 -5 -13z"/>
<path d="M4555 4940 c10 -11 20 -20 23 -20 3 0 -3 9 -13 20 -10 11 -20 20 -23
20 -3 0 3 -9 13 -20z"/>
<path d="M7178 4948 c12 -6 22 -14 22 -18 0 -4 29 -20 64 -35 58 -25 72 -27
169 -23 74 2 110 7 119 17 7 8 8 11 2 8 -6 -4 -38 -9 -70 -12 -65 -5 -248 33
-287 60 -12 8 -26 15 -32 14 -5 0 0 -5 13 -11z"/>
<path d="M4950 4941 c-65 -37 -268 -66 -335 -48 -22 6 -27 5 -19 -3 12 -12
170 -32 199 -25 71 19 129 42 152 62 29 23 30 29 3 14z"/>
<path d="M7579 4923 c-13 -16 -12 -17 4 -4 9 7 17 15 17 17 0 8 -8 3 -21 -13z"/>
</g>
</svg>
