<svg version="1.0" xmlns="http://www.w3.org/2000/svg"
 width="1200.000000pt" height="1600.000000pt" viewBox="0 0 1200.000000 1600.000000"
 preserveAspectRatio="xMidYMid meet">

<g transform="translate(0.000000,1600.000000) scale(0.100000,-0.100000)"
fill="#000000" stroke="none">
<path d="M6020 12406 c-19 -6 -39 -14 -45 -18 -17 -11 -129 -40 -155 -40 -38
0 -183 13 -197 17 -23 8 -14 -2 60 -58 39 -31 110 -94 157 -141 46 -47 90 -86
97 -86 6 0 24 -11 40 -24 26 -22 38 -24 105 -23 64 2 80 6 100 25 14 12 30 22
37 22 7 0 65 51 130 113 64 63 138 126 164 141 49 29 60 41 30 32 -10 -2 -58
-8 -108 -11 -49 -4 -93 -9 -97 -11 -3 -2 -39 8 -80 22 -170 60 -176 61 -238
40z"/>
</g>
</svg>
