<svg version="1.0" xmlns="http://www.w3.org/2000/svg"
 width="1200.000000pt" height="1600.000000pt" viewBox="0 0 1200.000000 1600.000000"
 preserveAspectRatio="xMidYMid meet">

<g transform="translate(0.000000,1600.000000) scale(0.100000,-0.100000)"
fill="#000000" stroke="none">
<path d="M5620 12990 c0 -5 -7 -10 -16 -10 -28 0 -12 -149 21 -206 14 -24 29
-44 34 -44 17 0 50 47 66 93 9 26 15 69 13 95 -3 43 -6 49 -38 64 -39 19 -80
23 -80 8z"/>
<path d="M6501 12992 c-13 -2 -37 -12 -55 -21 -26 -15 -31 -23 -30 -53 2 -76
38 -170 71 -182 33 -13 70 60 78 155 5 72 4 77 -17 90 -13 8 -34 13 -47 11z"/>
</g>
</svg>
