<svg version="1.0" xmlns="http://www.w3.org/2000/svg"
 width="1200.000000pt" height="1600.000000pt" viewBox="0 0 1200.000000 1600.000000"
 preserveAspectRatio="xMidYMid meet">

<g transform="translate(0.000000,1600.000000) scale(0.100000,-0.100000)"
fill="#000000" stroke="none">
<path d="M5525 13003 c-46 -12 -185 -85 -185 -98 0 -14 53 -88 99 -139 54 -59
172 -92 268 -75 77 14 185 68 179 88 -3 9 -7 30 -11 48 -5 24 -20 40 -68 72
-62 41 -76 40 -77 -2 0 -24 -27 -74 -56 -106 l-23 -25 -17 39 c-16 39 -16 129
0 166 11 26 -54 45 -109 32z"/>
<path d="M6535 12986 c-17 -12 -18 -17 -7 -40 21 -46 8 -155 -20 -172 -19 -12
-65 50 -79 105 -7 28 -17 51 -21 51 -20 0 -114 -74 -125 -98 -24 -53 -17 -67
45 -99 86 -45 155 -58 228 -43 32 6 77 20 100 30 42 18 115 94 147 152 l17 33
-96 48 c-102 49 -154 59 -189 33z"/>
</g>
</svg>
