<?xml version="1.0" encoding="utf-8"?>
<!-- Generator: Adobe Illustrator 16.0.0, SVG Export Plug-In . SVG Version: 6.00 Build 0)  -->
<!DOCTYPE svg PUBLIC "-//W3C//DTD SVG 1.1//EN" "http://www.w3.org/Graphics/SVG/1.1/DTD/svg11.dtd">
<svg version="1.1" id="Layer_1" xmlns="http://www.w3.org/2000/svg" xmlns:xlink="http://www.w3.org/1999/xlink" x="0px" y="0px"
	 width="1200px" height="1600px" viewBox="0 0 1200 1600" enable-background="new 0 0 1200 1600" xml:space="preserve">
<g transform="translate(0.000000,1600.000000) scale(0.100000,-0.100000)">
	<path d="M6042.998,12709.998c-30-12.002-28.994-17.998,2.002-12.002c14.004,2.002,25,7.998,25,12.998s-0.996,9.004-2.002,8.008
		C6065.996,12719.002,6055,12714.998,6042.998,12709.998z"/>
	<path d="M6085,12709.998c2.998-4.004,14.004-10,25-12.998s17.998-2.002,15,2.998c-2.998,4.004-14.004,10-25,12.998
		S6082.001,12714.998,6085,12709.998z"/>
	<path d="M6045,12659.998c3.848-0.508,4.375,5.938,25,4.688c36.66-2.221,96.953-20.889,90.938-21.875
		c-16.572-2.725-147.666-3.285-162.813-2.188c-10.264,0.742,40.381,14.811,38.877,15.371c-7.998,3.008-30-0.996-47.998-8.994
		c-32.002-14.004-28.008-15,82.998-14.004c63.994,1.006,113.994,5,110,7.998C6155.996,12664.002,6032.001,12680.994,6045,12659.998z
		"/>
	<path d="M5862.001,12587.996c-17.52,7.838,29.38-25.648,44.434-33.623c26.211-13.896,50.752-30.824,76.235-46
		c22.671-13.502,45.767-27.91,60.142-50.762c18.984-30.166,15.527-66.783,34.395-99.57c7.1,10.287,5.908,30.746,9.619,44.922
		c4.307,16.43,10.146,32.686,19.521,46.957c22.578,34.375,58.105,56.9,93.223,76.744c17.666,9.99,35.664,19.457,52.979,30.063
		c7.773,4.762,46.777,32.877,37.451,29.258c-140-54.32-200.244-80.986-213.066-80.986
		C6076.933,12504.998,5923.75,12560.385,5862.001,12587.996z"/>
	<path d="M5807.973,12478.07c3.11,1.322,12.29,1.273,34.824,25.723c29.233,31.719,30.996,36.006-2.998,55
		c-6.006,4.004-19.004,0-29.004-7.002c-12.002-8.994-15.996-20.996-12.998-40c1.997-10.996,4.233-17.887,6.108-23.512
		 M5793.076,12486.527c-1.416,1.475-2.939,1.801-4.8,2.422c-2.368,0.785-4.712,2.861-6.953,4.027
		c-2.095,1.09-4.263,2.08-6.548,2.701c-3.965,1.074-7.905,0.723-11.641-0.963c-8.789-3.969-16.157-12.256-20.444-20.727
		c-3.105-6.129-5.425-13.232-6.694-19.986c-2.998-16.006,2.002-19.004,30-19.004c19.004,0,35,2.998,35,7.002
		c0.815,3.232,0.273,7.086,0.186,10.371c-0.137,5.27-0.503,10.543-0.884,15.801c-0.264,3.584-0.229,7.613-1.392,11.045
		 M5846.63,12519.125c-10-12.998-28.423-27.217-30.596-26.666c-5.913,1.504-11.074,15.592-11.074,29.586
		c0,21.006,15.835,23.75,32.837,23.75C5858.793,12545.795,5861.63,12537.875,5846.63,12519.125z M5780,12442.914
		c-10.186-2.311-27.642-2.813-33.335,3.75c-6.602,7.617-0.142,23.246,7.92,32.914c12.002,15,28.584,9.502,34.58-7.5
		C5793.168,12460.076,5789.003,12444.916,5780,12442.914z"/>
	<path d="M5858.129,12497.83c-12.168-9.76-19.15-25.951-22.134-40.83c-1.548-7.719-4.99-19.707-13.828-21.426
		c-3.613-0.697-9.707,1.354-11.606-3.158c-1.362-3.248,1.855-7.695,4.272-9.586c4.375-3.422,10.259-4.994,15.503-6.514
		c15.391-4.453,31.714-4.688,47.622-4.662c26.289,0.043,55.293,6.533,72.588,28.203c5.327,6.674,9.463,15.463,9.453,24.145
		c-0.005,5.41-15.293,13.258-18.892,15.615c-11.753,7.725-23.921,14.41-36.011,21.543c-6.128,3.619-15.562,9.541-23.032,8.848
		c-6.88-0.645-14.78-5.99-20.41-9.633C5860.434,12499.584,5859.262,12498.734,5858.129,12497.83z M5948.75,12457.078
		c0-16.006-20.913-35.83-57.915-35.83c-37.998,0-49.585,1.074-49.585,17.08c0,10.996,13.589,44.492,24.585,52.5
		c19.004,12.998,29.165,6.172,50.161-7.832C5929.003,12474.998,5948.75,12467.078,5948.75,12457.078z"/>
	<path d="M6338.32,12488.279c1.875,5.625,4.111,12.516,6.113,23.512c2.988,19.004-0.996,31.006-13.008,40
		c-10,7.002-22.988,11.006-29.004,7.002c-33.984-18.994-32.227-23.281-2.988-55c22.529-24.449,31.709-24.4,34.824-25.723
		 M6343.32,12479.217c-1.162-3.432-1.133-7.461-1.387-11.045c-0.391-5.258-0.752-10.531-0.889-15.801
		c-0.088-3.285-0.635-7.139,0.186-10.371c0-4.004,15.996-7.002,35-7.002c27.998,0,32.998,2.998,30,19.004
		c-1.27,6.754-3.594,13.857-6.699,19.986c-4.277,8.471-11.65,16.758-20.439,20.727c-3.74,1.686-7.676,2.037-11.641,0.963
		c-2.285-0.621-4.453-1.611-6.553-2.701c-2.236-1.166-4.58-3.242-6.953-4.027c-1.855-0.621-3.379-0.947-4.795-2.422
		 M6304.433,12545.795c16.992,0,32.832-2.744,32.832-23.75c0-13.994-5.156-28.082-11.074-29.586
		c-2.168-0.551-20.596,13.668-30.596,26.666C6280.595,12537.875,6283.437,12545.795,6304.433,12545.795z M6353.066,12472.078
		c5.996,17.002,22.578,22.5,34.57,7.5c8.066-9.668,14.531-25.297,7.93-32.914c-5.703-6.563-23.154-6.061-33.34-3.75
		C6353.222,12444.916,6349.062,12460.076,6353.066,12472.078z"/>
	<path d="M6280.566,12500.375c-5.625,3.643-13.525,8.988-20.41,9.633c-7.461,0.693-16.895-5.229-23.027-8.848
		c-12.09-7.133-24.258-13.818-36.016-21.543c-3.594-2.357-18.887-10.205-18.887-15.615c-0.01-8.682,4.121-17.471,9.453-24.145
		c17.295-21.67,46.299-28.16,72.588-28.203c15.908-0.025,32.236,0.209,47.627,4.662c5.234,1.52,11.123,3.092,15.498,6.514
		c2.412,1.891,5.635,6.338,4.268,9.586c-1.895,4.512-7.988,2.461-11.602,3.158c-8.838,1.719-12.285,13.707-13.828,21.426
		c-2.988,14.879-9.961,31.07-22.129,40.83C6282.968,12498.734,6281.796,12499.584,6280.566,12500.375z M6226.23,12482.996
		c20.996,14.004,31.152,20.83,50.156,7.832c10.996-8.008,24.59-41.504,24.59-52.5c0-16.006-11.582-17.08-49.59-17.08
		c-36.992,0-57.91,19.824-57.91,35.83C6193.476,12467.078,6213.222,12474.998,6226.23,12482.996z"/>
	<path d="M5947.802,12460.857"/>
</g>
</svg>
