<svg version="1.0" xmlns="http://www.w3.org/2000/svg"
 width="1200.000000pt" height="1600.000000pt" viewBox="0 0 1200.000000 1600.000000"
 preserveAspectRatio="xMidYMid meet">

<g transform="translate(0.000000,1600.000000) scale(0.100000,-0.100000)"
fill="#000000" stroke="none">
<path d="M4487 9590 c-37 -43 -44 -87 -19 -110 19 -18 20 -18 26 22 4 22 16
57 26 79 16 31 18 39 6 39 -8 0 -25 -13 -39 -30z"/>
<path d="M7626 9588 c10 -18 22 -52 28 -76 10 -40 12 -42 31 -29 17 13 18 19
7 55 -11 37 -51 82 -74 82 -5 0 -1 -15 8 -32z"/>
<path d="M4506 9391 c-4 -13 -25 -42 -46 -65 -24 -27 -49 -74 -75 -141 -21
-55 -85 -208 -142 -339 -104 -237 -105 -241 -99 -298 7 -56 6 -59 -26 -88 -17
-16 -48 -37 -67 -46 -19 -9 -65 -48 -102 -85 -71 -73 -85 -82 -76 -48 5 20 5
20 -16 3 -12 -10 -54 -49 -93 -87 -47 -46 -74 -65 -79 -57 -4 6 2 20 15 32 43
41 9 29 -42 -14 -81 -69 -422 -313 -510 -366 -43 -26 -74 -48 -68 -50 6 -2 -3
-20 -18 -40 -16 -21 -27 -43 -24 -51 2 -8 0 -11 -5 -8 -6 4 -18 -2 -28 -13
-11 -12 -13 -20 -6 -20 9 0 8 -4 -1 -14 -7 -8 -17 -12 -21 -9 -5 3 -21 -6 -35
-20 -34 -31 -131 -97 -143 -97 -6 0 -5 -9 2 -21 16 -30 -2 -44 -61 -45 -27 0
-56 -6 -65 -14 -24 -20 -1 -29 61 -23 48 5 52 4 59 -18 5 -13 15 -29 23 -35 8
-6 16 -28 17 -48 3 -52 23 -71 58 -55 15 7 27 17 27 22 0 5 9 7 20 4 11 -3 20
-1 20 4 0 5 5 9 10 9 6 0 10 -16 10 -35 0 -32 3 -35 29 -35 43 0 87 22 133 66
26 24 43 34 46 26 6 -18 39 -15 46 4 4 9 9 14 12 11 12 -12 75 45 69 62 -3 9
6 28 20 44 29 30 30 30 53 18 18 -9 116 -22 108 -14 -9 9 64 106 89 119 14 7
25 9 25 3 0 -5 11 -9 25 -9 14 0 24 -5 23 -12 -2 -7 13 -15 34 -18 21 -4 46
-14 57 -24 16 -15 19 -15 24 -2 4 9 1 29 -5 46 -5 17 -8 39 -5 50 3 11 1 23
-4 26 -15 9 -10 24 5 18 8 -3 25 0 37 7 15 8 24 8 26 2 4 -10 98 31 108 47 10
17 -42 36 -107 40 -17 0 -6 16 25 34 l32 20 -30 5 c-21 4 -31 13 -33 29 -2 13
2 22 10 22 8 0 20 9 28 19 7 11 17 18 22 15 4 -3 8 -1 8 5 0 6 6 8 14 5 9 -3
17 3 21 15 3 11 12 18 19 15 15 -6 63 54 58 71 -1 6 27 43 63 82 36 39 65 76
65 82 0 5 11 22 25 37 41 45 27 95 -22 77 -14 -5 -15 -3 -6 7 6 7 10 18 7 24
-2 6 37 52 87 101 69 68 99 107 125 160 36 73 42 110 22 118 -7 2 -24 -5 -37
-17 l-24 -21 8 30 c4 17 8 37 8 45 0 8 5 22 12 30 10 14 46 101 51 125 1 6 8
24 15 40 7 17 13 32 14 35 1 3 7 19 14 35 8 17 17 39 21 50 4 11 21 47 36 80
16 33 29 62 29 65 1 3 11 26 23 52 27 58 28 103 3 144 -11 18 -21 45 -23 60
-3 29 -4 29 -12 5z"/>
<path d="M7630 9392 c0 -12 -9 -40 -20 -62 -28 -55 -25 -90 15 -169 37 -75
144 -330 165 -396 7 -22 19 -49 26 -60 7 -11 15 -38 18 -59 6 -38 6 -39 -12
-23 -11 10 -22 13 -32 7 -12 -7 -12 -16 -1 -62 20 -78 31 -94 126 -192 48 -49
95 -104 106 -122 18 -34 18 -34 -2 -31 -12 1 -26 -5 -32 -14 -13 -21 25 -85
111 -182 34 -39 62 -78 62 -87 0 -22 37 -70 54 -70 6 0 19 -9 29 -20 9 -11 23
-20 30 -20 23 0 56 -35 53 -55 -2 -11 -14 -22 -27 -25 l-24 -6 30 -19 c17 -10
32 -21 35 -23 3 -2 -3 -8 -13 -13 -9 -6 -15 -14 -12 -20 4 -5 -1 -9 -9 -9 -9
0 -16 5 -16 10 0 10 -33 14 -42 5 -10 -11 56 -67 81 -70 14 -1 27 -8 29 -14 2
-7 9 -8 22 -1 14 7 19 5 22 -8 3 -10 -1 -23 -8 -30 -7 -7 -11 -19 -8 -26 3 -8
1 -24 -6 -35 -8 -16 -8 -24 2 -35 11 -12 15 -12 30 1 9 8 32 19 50 23 18 3 32
12 30 18 -3 16 35 15 41 0 4 -8 8 -5 12 8 6 20 9 21 35 8 16 -9 39 -36 55 -67
l28 -53 49 6 c31 4 48 3 48 -4 0 -6 7 -3 14 7 7 9 16 17 19 17 15 0 47 -46 42
-60 -3 -10 6 -28 21 -43 25 -25 32 -29 51 -26 3 0 10 -6 15 -15 10 -18 38 -22
38 -6 0 19 22 10 59 -26 47 -43 80 -61 123 -66 32 -3 33 -1 36 35 2 20 7 37
13 37 5 0 9 -5 9 -11 0 -6 6 -9 13 -6 6 2 19 -1 27 -8 29 -24 56 -26 75 -5 16
17 16 20 2 26 -13 5 -14 10 -4 32 6 15 22 37 34 49 13 12 23 27 23 34 0 8 15
10 48 7 60 -7 75 -2 62 22 -7 14 -18 17 -52 13 -54 -6 -89 16 -72 44 10 17 6
21 -35 38 -25 10 -65 34 -88 52 -23 19 -44 33 -47 31 -3 -2 -14 7 -26 20 -11
12 -15 22 -9 22 7 0 5 8 -6 20 -10 11 -22 17 -28 13 -6 -4 -8 0 -4 10 4 11 -3
23 -20 37 -14 11 -22 20 -18 20 4 0 2 6 -4 14 -8 10 -9 15 -1 18 6 2 -20 21
-57 43 -74 43 -389 267 -493 349 -71 57 -90 70 -90 62 0 -3 9 -14 21 -25 12
-11 18 -25 14 -31 -5 -8 -32 11 -79 57 -80 77 -123 114 -112 96 4 -7 4 -18 1
-23 -4 -6 -37 20 -75 59 -37 38 -83 76 -101 84 -19 8 -49 29 -67 46 -33 31
-34 33 -27 90 7 59 6 60 -102 307 -61 137 -125 290 -143 339 -20 54 -46 104
-66 125 -17 19 -39 49 -47 65 -15 28 -16 28 -17 7z"/>
<path d="M4054 8598 c-3 -13 -21 -44 -40 -70 l-33 -47 36 -12 c32 -10 38 -9
50 7 7 10 13 44 13 81 0 63 -13 83 -26 41z"/>
<path d="M8066 8574 c-4 -30 -1 -57 9 -80 15 -38 18 -39 63 -23 l31 11 -33 46
c-19 26 -37 57 -40 70 -11 35 -23 26 -30 -24z"/>
<path d="M4379 8556 c-9 -25 -15 -46 -13 -46 8 0 35 63 32 76 -2 8 -10 -5 -19
-30z"/>
<path d="M1761 7606 c-57 -145 -70 -204 -73 -331 -5 -170 27 -214 104 -147 37
32 49 38 127 58 29 8 65 23 80 32 33 23 75 39 126 47 22 4 54 15 70 25 17 10
33 19 37 20 4 0 13 2 20 4 98 28 114 31 228 41 104 10 161 31 131 49 -4 3
-125 6 -267 6 -234 1 -335 -5 -446 -26 -34 -6 -37 -4 -53 27 -38 73 -50 147
-37 237 5 34 5 62 1 62 -4 0 -26 -47 -48 -104z"/>
<path d="M10348 7613 c3 -83 1 -107 -17 -155 -29 -77 -39 -83 -98 -68 -61 16
-671 25 -693 11 -23 -16 41 -37 135 -46 115 -10 212 -32 272 -61 29 -14 69
-28 90 -31 36 -6 87 -26 143 -57 14 -8 50 -21 81 -30 31 -9 74 -30 94 -46 42
-33 68 -33 98 2 41 48 3 357 -58 469 -8 15 -17 35 -19 45 -21 96 -34 80 -28
-33z"/>
<path d="M10992 7265 c-2 -5 -7 -62 -12 -125 -17 -206 -22 -244 -45 -320 -41
-134 -100 -266 -137 -307 -16 -17 -28 -21 -52 -16 -54 10 -128 53 -177 103
-26 27 -50 46 -53 42 -3 -3 -6 -17 -6 -31 0 -14 -22 -89 -49 -166 -108 -307
-118 -327 -191 -360 l-42 -19 -74 39 c-51 27 -98 63 -148 115 -102 103 -156
165 -156 178 0 19 -21 24 -38 9 -9 -8 -54 -33 -99 -56 -86 -44 -175 -64 -239
-54 -56 9 -121 108 -139 211 -17 100 -30 3 -29 -208 1 -214 23 -257 127 -248
55 5 117 30 202 82 28 18 79 46 115 65 36 18 77 45 91 60 l25 27 29 -60 c19
-40 59 -92 115 -151 100 -105 155 -169 190 -219 14 -20 40 -48 58 -62 l32 -25
33 20 c111 69 214 235 252 405 17 77 15 118 -12 274 -7 42 18 44 34 2 8 -20 8
-30 1 -30 -7 0 -7 -4 0 -13 11 -13 63 -178 93 -297 21 -82 51 -151 75 -170 13
-11 25 -3 82 56 82 83 108 118 157 209 36 65 39 77 42 170 4 88 -7 261 -21
350 -5 28 -23 322 -29 465 -2 36 -4 61 -5 55z"/>
<path d="M1150 7128 c-1 -128 -6 -212 -30 -513 -7 -77 -10 -178 -8 -225 4 -76
8 -95 42 -160 47 -90 80 -135 163 -219 54 -55 65 -62 79 -51 21 19 48 75 64
135 21 82 60 217 75 260 8 22 17 60 20 85 6 46 24 69 37 46 4 -7 0 -58 -9
-114 -14 -92 -14 -107 1 -172 39 -176 136 -334 249 -407 l39 -24 32 25 c19 14
49 49 69 78 19 30 85 106 146 170 73 76 122 137 144 180 l33 64 18 -23 c9 -13
48 -39 87 -58 38 -20 93 -50 122 -68 85 -55 148 -80 204 -85 100 -8 121 27
129 223 9 185 -18 298 -44 193 -6 -24 -29 -72 -51 -106 -44 -68 -39 -66 -161
-62 -43 1 -75 11 -148 48 -51 26 -102 55 -112 64 -18 17 -30 14 -30 -8 0 -15
-61 -84 -166 -189 -95 -95 -189 -150 -239 -141 -44 9 -101 68 -126 134 -45
118 -110 302 -113 322 -1 3 -4 10 -8 16 -4 6 -10 30 -14 52 -4 23 -8 42 -10
42 -2 0 -23 -19 -47 -43 -42 -42 -124 -90 -178 -102 -34 -8 -52 11 -106 112
-68 128 -102 259 -121 471 -9 100 -20 182 -24 182 -4 0 -7 -60 -8 -132z"/>
<path d="M2882 6764 c-29 -30 -56 -54 -60 -54 -5 0 -18 9 -31 21 -12 12 -25
19 -28 16 -9 -9 7 -27 25 -27 12 0 13 -3 4 -12 -13 -13 7 -69 35 -100 16 -18
17 -17 41 4 13 13 28 31 33 40 10 18 41 159 36 164 -1 1 -26 -22 -55 -52z"/>
<path d="M9230 6775 c0 -83 65 -200 97 -173 19 15 54 85 52 101 -1 7 1 20 6
30 4 10 5 21 1 24 -3 4 -6 0 -6 -8 0 -9 -12 -19 -27 -25 -24 -8 -32 -5 -68 28
-43 41 -55 46 -55 23z"/>
</g>
</svg>
