<svg version="1.1" xmlns="http://www.w3.org/2000/svg" xmlns:xlink="http://www.w3.org/1999/xlink" x="0px" y="0px" width="1200px"
	 height="1600px" viewBox="0 0 1200 1600" enable-background="new 0 0 1200 1600" xml:space="preserve">
<g id="Layer_2">
	<g transform="translate(0.000000,1600.000000) scale(0.100000,-0.100000)" opacity="0.4">
		<path fill="#FF9796" d="M6320,12252.996c-7.998-2.998-25.996-15.996-40-27.998c-40-37.002-125-47.998-187.002-24.004
			c-22.998,8.008-30,7.002-40.996-7.998c-31.006-42.002,25.996-210,85-250c58.994-38.994,140-65,185-57.998
			c90.996,14.004,105,22.998,133.994,80.996c24.004,48.008,26.006,63.008,22.002,132.002c-5,87.998-22.002,122.002-72.998,146.006
			C6370.996,12259.998,6347.001,12262.996,6320,12252.996z"/>
	</g>
</g>
<g id="Layer_1">
	<g transform="translate(0.000000,1600.000000) scale(0.100000,-0.100000)">
		<path d="M5639.999,12380.994c0-5.996,24.004-26.992,54.004-45.996s80-57.002,110.996-84.004
			c45.908-39.99,113.843-93.492,179.219-86.289c11.743,1.293,17.871,4.447,28.486-3.365c19.355-14.232,23.984-39.955,28.232-62.035
			c5-25.986,11.973-50.117,23.066-74.307c34.521-75.283,95.928-148.145,181.621-163.838c47.266-8.658,94.287-8.271,136.797,16.195
			c67.607,38.912,117.578,118.971,117.578,197.643c0,47.998-32.002,124.004-70,167.998l-40,46.006l59.004,37.998
			c58.994,37.002,82.998,62.998,57.998,62.998c-17.998,0-97.998-52.002-144.004-92.998c-87.002-79.004-190.996-109.004-255-74.004
			c-12.002,6.664-23.994,13.34-35.996,20c-0.82,0.453-19.834-17.051-22.109-18.697c-31.914-23.051-69.106-18.193-105.234-9.506
			c-59.043,14.199-119.419,40.176-160.654,86.201C5740.995,12349.002,5639.999,12404.998,5639.999,12380.994z M6395.995,12232.996
			c54.092-55.791,81.436-148.17,48.77-221.139c-18.34-40.961-44.834-81.732-84.727-104.467
			c-29.736-16.943-64.111-16.045-97.041-11.396c-85,12.002-150,79.004-187.998,191.006c-8.984,25.732-12.578,52.807-10.313,79.951
			c0.85,10.238,1.982,24.854,12.607,29.887c6.445,3.053,19.365-3.252,25.518-5.033c13.535-3.932,26.904-8.037,40.928-9.785
			c33.555-4.189,67.646,2.26,100.947,6.104c0,0,46.768-50.084,56.768-67.086c10.996-17.998,18.965-37.002,18.965-30
			c0,7.998-12.422,39.957-27.422,61.959c-16.338,22.875-25.498,42.416-25.498,42.416s25.205,9.795,60.498,39.586
			C6363.153,12264.676,6364.003,12265.994,6395.995,12232.996z"/>
	</g>
</g>
</svg>
