<svg version="1.1" xmlns="http://www.w3.org/2000/svg" xmlns:xlink="http://www.w3.org/1999/xlink" x="0px" y="0px" width="1200px"
	 height="1600px" viewBox="0 0 1200 1600" enable-background="new 0 0 1200 1600" xml:space="preserve">
<g id="Layer_2">
	<path opacity="0.1" d="M595.75,349.125c-2.625-10.073,7.375-22.375,11.8-22.375c5.714,0,13.575,13.051,10.993,23.307
		C617.198,355.397,599,352,599,352"/>
</g>
<g id="Layer_1">
	<g transform="translate(0.000000,1600.000000) scale(0.100000,-0.100000)">
		<path d="M5940,12529.002c0-26.006,25.996-48.008,57.998-49.004c29.004,0,27.998,5-10,40
			C5949.003,12554.998,5940,12557,5940,12529.002z"/>
		<path d="M6157.792,12519.998c-37.998-35-39.004-40-10-40c32.002,0.996,57.998,22.998,57.998,49.004
			C6205.791,12557,6196.787,12554.998,6157.792,12519.998z"/>
	</g>
	<g transform="translate(0.000000,1600.000000) scale(0.100000,-0.100000)">
		<path d="M6040.985,12672.547c24.688,4.594,69.629,3.174,83.955,0.297c28.682-6.342,4.854,3.15-27.314,10.699
			c-13.213,3.1-34.053,4.795-68.877-8.477C6004.55,12665.852,6001.459,12665.428,6040.985,12672.547z"/>
		<path d="M6046.454,12704.275c20.098,3.71,56.689,2.626,68.35,0.342c23.34-5.039,3.965,2.528-22.236,8.534
			c-10.742,2.461-27.705,3.794-56.074-6.875C6016.786,12698.875,6014.257,12698.533,6046.454,12704.275z"/>
		<path d="M6020.526,12641.164c-42.339-21.938-70.444-41.439-15.972-15.195c72.017,30.211,81.675,22.828,125.435,3.668
			c36.963-16.182,51.543-24.98,45.078-17.422c-6.943,8.109-82.52,48.74-103.428,46.592
			C6060.653,12658.117,6038.173,12647.322,6020.526,12641.164z"/>
		<path d="M5939.442,12529.002c0-26.006,25.996-48.008,57.998-49.004c29.004,0,27.998,5-10,40
			C5948.446,12554.998,5939.442,12557,5939.442,12529.002z"/>
		<path d="M6157.235,12519.998c-37.998-35-39.004-40-10-40c32.002,0.996,57.998,22.998,57.998,49.004
			C6205.233,12557,6196.229,12554.998,6157.235,12519.998z"/>
	</g>
</g>
</svg>
