<svg version="1.0" xmlns="http://www.w3.org/2000/svg"
 width="1200.000000pt" height="1600.000000pt" viewBox="0 0 1200.000000 1600.000000"
 preserveAspectRatio="xMidYMid meet">

<g transform="translate(0.000000,1600.000000) scale(0.100000,-0.100000)"
fill="#000000" stroke="none">
<path d="M5740 13229 c30 -16 59 -34 64 -39 13 -13 29 -13 21 0 -9 15 46 -11
74 -34 l25 -21 -25 32 c-31 41 -131 93 -178 93 l-36 0 55 -31z"/>
<path d="M6350 13239 c-44 -20 -110 -75 -110 -92 0 -4 7 -1 16 8 23 23 73 47
84 40 6 -4 23 3 38 13 15 11 43 27 62 35 l35 15 -40 1 c-22 0 -60 -9 -85 -20z"/>
<path d="M6285 13157 c-20 -18 -36 -40 -34 -49 3 -11 17 -1 47 33 50 56 42 65
-13 16z"/>
<path d="M5830 13175 c0 -12 67 -75 73 -68 4 4 -7 22 -25 40 -29 30 -48 41
-48 28z"/>
<path d="M5413 13051 c-95 -32 -163 -95 -163 -148 0 -10 9 -29 20 -43 11 -14
20 -30 20 -36 0 -5 14 -29 30 -51 22 -29 44 -46 77 -57 66 -23 71 -20 29 13
-48 38 -87 88 -111 141 l-19 43 44 38 c57 49 121 69 236 76 80 5 99 2 162 -21
40 -14 72 -24 72 -21 0 2 18 -2 41 -10 30 -11 39 -12 36 -2 -2 6 -10 11 -16
10 -6 -2 -11 2 -11 7 0 6 -33 26 -73 45 -72 34 -77 35 -198 35 -93 -1 -137 -5
-176 -19z"/>
<path d="M6375 13039 c-64 -32 -99 -59 -77 -59 28 0 159 33 186 47 59 30 269
-19 340 -80 l39 -33 -23 -44 c-32 -64 -86 -127 -128 -150 l-37 -21 45 7 c67 9
102 35 137 103 7 13 23 40 34 61 22 38 22 39 2 72 -10 18 -38 47 -61 65 -63
48 -130 63 -274 63 -117 -1 -126 -2 -183 -31z"/>
</g>
</svg>
