<svg version="1.0" xmlns="http://www.w3.org/2000/svg"
 width="1200.000000pt" height="1600.000000pt" viewBox="0 0 1200.000000 1600.000000"
 preserveAspectRatio="xMidYMid meet">

<g transform="translate(0.000000,1600.000000) scale(0.100000,-0.100000)"
fill="#000000" stroke="none">
<path d="M4613 5771 c-39 -16 -86 -37 -105 -48 l-33 -19 -3 -91 c-2 -65 -7
-95 -17 -103 -8 -7 -15 -17 -15 -22 0 -5 -11 -26 -25 -46 -29 -43 -31 -52 -9
-52 14 0 14 -2 3 -16 -9 -11 -15 -12 -17 -5 -3 9 -7 9 -18 0 -10 -8 -11 -15
-4 -24 8 -9 8 -15 0 -20 -5 -3 -10 -1 -10 5 0 6 -5 8 -10 5 -6 -4 -8 -11 -5
-16 4 -5 0 -12 -8 -15 -9 -3 -13 -13 -9 -26 3 -14 1 -19 -6 -14 -7 4 -12 1
-12 -8 0 -9 -6 -13 -14 -10 -13 5 -56 -39 -56 -57 0 -5 -22 -56 -50 -114 -27
-58 -50 -114 -50 -125 0 -11 -5 -17 -13 -15 -7 3 -18 -9 -26 -27 -8 -18 -20
-40 -26 -48 -7 -8 -16 -30 -20 -47 -3 -18 -11 -36 -17 -39 -12 -7 -74 -141
-84 -179 -4 -15 -22 -52 -40 -82 -18 -31 -40 -81 -49 -112 -9 -31 -22 -67 -29
-81 -8 -14 -17 -42 -21 -62 -6 -32 -5 -38 10 -38 15 0 17 -6 12 -35 -3 -19 -1
-37 4 -41 5 -3 7 -15 4 -26 -5 -14 -1 -21 13 -25 19 -4 20 -17 27 -169 4 -90
5 -172 2 -183 -2 -10 -1 -90 4 -177 4 -87 11 -230 14 -318 4 -89 11 -192 16
-231 5 -38 11 -117 14 -175 3 -58 7 -118 10 -135 4 -30 13 -107 19 -180 9
-103 29 -254 37 -288 6 -20 7 -41 5 -46 -3 -5 -1 -33 5 -62 6 -30 11 -66 10
-81 -1 -15 3 -30 9 -33 6 -4 8 -11 4 -16 -3 -6 -1 -29 5 -52 6 -23 15 -78 20
-122 5 -44 19 -136 31 -205 12 -69 23 -134 24 -146 2 -11 7 -27 11 -34 20 -32
24 -159 14 -435 -5 -140 -4 -154 17 -202 26 -60 98 -161 122 -170 9 -4 18 -1
20 5 6 20 34 13 64 -15 20 -19 31 -23 40 -15 7 5 30 12 50 13 29 3 42 -2 59
-19 38 -42 106 -55 129 -27 12 14 16 13 36 -6 19 -18 31 -21 69 -17 25 3 54
13 64 22 26 23 43 20 74 -15 l27 -31 132 5 c130 5 132 5 154 33 13 15 21 31
19 35 -3 3 5 6 16 5 11 0 24 -7 28 -15 7 -11 23 -13 70 -8 45 5 61 3 61 -6 0
-6 12 1 26 16 18 21 28 26 37 19 19 -16 67 -2 83 24 8 13 22 36 31 52 29 46
63 154 70 217 3 33 5 116 4 184 -2 127 -17 189 -55 220 -8 6 -17 24 -21 39 -9
39 -68 162 -77 162 -4 0 -8 12 -8 28 0 15 -7 40 -15 56 -8 15 -15 35 -15 43 0
8 -4 12 -9 9 -11 -7 -61 147 -61 186 0 15 -3 28 -8 30 -9 4 -50 131 -57 183
-13 86 -29 145 -38 145 -5 0 -6 7 -3 16 3 9 -3 28 -13 43 -11 15 -23 45 -27
66 -10 50 -8 43 -22 92 -7 23 -12 45 -11 50 1 4 1 10 -1 13 -1 3 -3 16 -6 29
-2 14 -9 30 -14 36 -5 7 -7 14 -5 17 3 3 -3 39 -14 79 -10 41 -27 118 -37 172
-9 54 -21 100 -25 103 -4 2 -5 20 -2 39 3 19 2 35 -3 35 -5 0 -10 24 -11 52 0
29 -6 54 -12 56 -5 2 -7 10 -4 18 3 8 1 14 -4 14 -12 0 -38 234 -38 350 0 103
26 337 51 465 9 44 20 98 24 120 11 55 44 199 75 325 15 58 29 120 32 138 3
17 9 32 15 32 5 0 6 5 3 10 -4 6 7 53 24 105 17 51 31 98 31 104 0 6 9 35 21
66 19 51 22 55 46 49 l26 -7 -7 83 c-4 46 -11 89 -15 94 -5 6 -9 66 -10 133 0
68 -5 142 -11 165 -5 24 -10 68 -10 99 0 88 -13 110 -121 210 -132 121 -160
131 -364 135 -144 3 -153 2 -222 -25z m742 -791 c3 -5 1 -10 -4 -10 -6 0 -11
5 -11 10 0 6 2 10 4 10 3 0 8 -4 11 -10z m-1188 -3562 c-3 -7 -5 -2 -5 12 0
14 2 19 5 13 2 -7 2 -19 0 -25z m1303 -778 c0 -5 -7 -10 -15 -10 -8 0 -15 5
-15 10 0 6 7 10 15 10 8 0 15 -4 15 -10z m-620 -25 c11 -13 10 -14 -4 -9 -9 3
-16 10 -16 15 0 13 6 11 20 -6z"/>
<path d="M7119 5776 c-57 -19 -82 -36 -164 -112 -53 -49 -102 -98 -108 -109
-13 -24 -24 -133 -36 -360 -5 -93 -14 -198 -20 -233 -13 -72 -9 -84 24 -76 21
5 25 1 40 -53 9 -32 26 -85 37 -118 21 -64 50 -174 63 -240 5 -22 9 -42 10
-45 1 -3 4 -12 7 -20 12 -34 41 -159 48 -205 5 -27 13 -61 18 -75 24 -63 84
-431 78 -483 -2 -15 0 -29 4 -32 5 -3 14 -131 12 -200 -1 -58 -35 -300 -43
-303 -5 -2 -6 -15 -3 -28 4 -14 2 -24 -5 -24 -7 0 -9 -13 -5 -35 3 -19 1 -35
-4 -35 -8 0 -24 -74 -26 -120 -1 -8 -5 -20 -9 -27 -4 -7 -9 -29 -12 -50 -2
-21 -8 -58 -14 -83 -5 -25 -12 -56 -15 -70 -2 -14 -14 -61 -25 -104 -12 -44
-21 -89 -21 -102 0 -12 -4 -24 -10 -26 -5 -1 -11 -17 -13 -34 -2 -17 -8 -37
-12 -44 -4 -7 -10 -32 -11 -56 -2 -23 -15 -64 -28 -91 -13 -26 -26 -71 -30
-98 -12 -97 -131 -485 -148 -485 -5 0 -7 -4 -4 -9 8 -13 -14 -72 -25 -65 -5 3
-9 0 -9 -6 0 -6 -18 -48 -40 -94 -22 -46 -43 -98 -46 -116 -4 -20 -14 -35 -25
-37 -26 -7 -33 -54 -32 -238 0 -121 4 -170 16 -202 8 -22 13 -44 10 -47 -3 -3
4 -26 16 -51 11 -24 21 -48 21 -53 0 -4 14 -19 30 -32 17 -14 37 -31 45 -38
17 -15 42 -16 51 -1 4 6 17 -2 35 -23 15 -18 28 -27 29 -20 0 10 14 13 53 12
71 -3 77 -2 77 15 0 8 5 15 11 15 14 0 39 -25 39 -39 0 -6 9 -11 21 -11 11 0
18 -4 15 -9 -7 -11 56 -19 168 -21 88 -1 90 0 123 32 l33 32 42 -21 c59 -29
101 -32 127 -9 17 15 23 17 36 6 26 -21 96 -6 126 28 15 16 28 34 30 40 5 13
69 1 71 -13 1 -6 7 -15 13 -22 10 -9 19 -5 41 18 25 27 73 42 59 19 -9 -14 18
-12 37 2 29 23 97 129 113 177 12 38 14 82 11 227 -3 99 -8 192 -11 206 -4 14
5 85 19 159 46 234 64 338 72 419 3 25 9 58 14 74 6 16 10 44 10 62 0 19 4 34
10 34 6 0 6 9 0 26 -6 14 -7 31 -3 37 4 6 8 23 10 37 11 108 15 137 20 150 3
8 7 38 8 65 1 28 10 111 20 185 9 74 17 142 17 150 0 8 4 56 8 105 5 50 12
133 15 185 3 52 10 127 15 165 5 39 9 121 9 184 0 63 4 117 8 120 4 3 8 52 8
109 0 56 1 206 3 332 l2 230 23 9 c21 8 24 15 21 53 -1 24 -4 52 -6 63 -2 14
2 20 15 19 10 -1 17 5 17 15 0 19 -23 88 -33 97 -4 4 -7 18 -7 31 0 13 -4 23
-10 23 -5 0 -10 11 -10 25 0 14 -11 46 -24 73 -13 26 -45 92 -71 147 -78 166
-90 190 -97 193 -5 2 -8 12 -8 23 0 10 -4 19 -10 19 -5 0 -10 9 -10 20 0 11
-7 20 -15 20 -8 0 -15 9 -15 21 0 11 -4 17 -10 14 -5 -3 -10 3 -10 13 0 11
-20 63 -45 116 -25 54 -45 103 -45 111 0 7 -19 30 -42 49 -23 20 -36 36 -29
36 11 0 11 3 1 15 -7 9 -21 13 -31 10 -11 -4 -19 -2 -19 4 0 6 7 11 16 11 15
0 15 2 0 23 -8 12 -42 60 -73 107 -58 85 -58 85 -63 174 -5 89 -5 90 -38 109
-18 11 -68 32 -110 48 -71 27 -87 29 -212 28 -112 0 -146 -4 -201 -23z"/>
</g>
</svg>
