<?xml version="1.0" standalone="no"?>
<!DOCTYPE svg PUBLIC "-//W3C//DTD SVG 20010904//EN"
 "http://www.w3.org/TR/2001/REC-SVG-20010904/DTD/svg10.dtd">
<svg version="1.0" xmlns="http://www.w3.org/2000/svg"
 width="1200.000000pt" height="1600.000000pt" viewBox="0 0 1200.000000 1600.000000"
 preserveAspectRatio="xMidYMid meet">

<g transform="translate(0.000000,1600.000000) scale(0.100000,-0.100000)"
fill="#000000" stroke="none">
<path d="M5828 13252 c-6 -16 -220 -132 -243 -132 -7 0 -18 -6 -24 -14 -31
-37 133 20 217 75 46 30 85 79 63 79 -5 0 -11 -4 -13 -8z"/>
<path d="M6310 13253 c0 -41 201 -158 259 -151 21 3 8 12 -71 50 -53 25 -117
60 -142 77 -25 18 -46 28 -46 24z"/>
<path d="M5592 13073 c-35 -14 -62 -27 -60 -29 2 -2 33 6 68 17 80 25 155 28
176 8 8 -9 24 -37 35 -65 l20 -49 -5 48 c-4 36 -2 47 9 47 7 0 17 -4 20 -10 3
-5 11 -10 16 -10 20 0 -4 21 -51 45 -65 33 -142 32 -228 -2z"/>
<path d="M6344 13081 c-40 -18 -65 -41 -45 -41 5 0 13 5 16 10 10 15 28 12 22
-4 -3 -8 -8 -32 -12 -53 -5 -36 -4 -35 21 19 19 41 34 59 53 66 30 10 117 0
164 -19 15 -6 30 -9 33 -6 3 3 -20 14 -51 26 -69 26 -147 27 -201 2z"/>
<path d="M5450 12895 c-101 -25 -145 -38 -175 -52 -29 -14 -27 -14 30 -8 33 3
85 10 115 14 86 13 191 -12 334 -79 54 -26 83 -35 87 -28 4 6 -4 20 -17 31
-17 13 -23 25 -19 37 8 26 -25 46 -116 69 -108 27 -176 32 -239 16z"/>
<path d="M6595 12903 c-72 -6 -179 -36 -217 -59 -39 -25 -60 -48 -33 -38 24
10 8 -21 -18 -34 -12 -6 -16 -11 -8 -11 11 -1 11 -4 1 -16 -11 -14 -10 -14 16
-5 15 6 62 27 102 46 103 49 219 73 302 63 36 -5 88 -11 115 -14 46 -6 49 -5
30 9 -11 8 -30 16 -42 16 -12 0 -44 8 -70 19 -54 21 -119 30 -178 24z"/>
</g>
</svg>
