<svg version="1.0" xmlns="http://www.w3.org/2000/svg"
 width="1200.000000pt" height="1600.000000pt" viewBox="0 0 1200.000000 1600.000000"
 preserveAspectRatio="xMidYMid meet">

<g transform="translate(0.000000,1600.000000) scale(0.100000,-0.100000)"
fill="#000000" stroke="none">
<path d="M5805 14677 c-11 -5 -64 -64 -118 -131 -53 -67 -120 -145 -147 -175
-97 -104 -219 -311 -269 -456 -12 -33 -29 -71 -39 -84 -25 -34 -80 -61 -124
-61 -88 0 -318 69 -339 102 -4 6 -16 4 -32 -6 -46 -31 -87 -185 -87 -328 0
-76 23 -216 40 -249 5 -9 11 -28 14 -43 13 -75 247 -352 347 -413 15 -9 34
-27 42 -42 35 -57 34 -56 52 -37 17 16 16 17 -4 23 -11 3 -21 9 -21 14 0 8 34
-2 71 -21 44 -24 14 8 -45 48 -66 44 -140 114 -258 240 -94 103 -157 238 -179
388 -12 77 1 247 21 284 6 10 10 27 10 38 0 11 7 25 15 32 13 11 18 10 31 -9
30 -42 60 -64 157 -112 96 -47 212 -87 223 -76 3 3 -10 8 -28 12 -82 18 -209
84 -278 145 -21 19 -22 22 -5 17 137 -40 172 -46 261 -44 l94 2 -6 -35 c-5
-34 -5 -34 30 20 20 30 36 60 36 66 0 10 26 75 51 129 5 11 16 40 24 65 15 44
101 210 114 220 3 3 18 23 32 45 15 22 64 83 110 136 46 53 110 129 142 169
32 39 60 70 63 67 2 -2 9 -53 14 -113 14 -146 47 -291 89 -389 5 -11 16 -40
25 -65 9 -25 27 -62 40 -84 l23 -39 79 -1 78 -1 29 46 c36 59 112 279 126 367
6 37 13 105 15 152 3 47 9 96 13 109 9 22 11 21 66 -40 49 -56 84 -98 225
-269 69 -85 182 -283 182 -322 0 -9 4 -19 8 -22 5 -3 21 -38 36 -78 44 -116
58 -146 83 -180 25 -34 28 -30 14 18 l-9 31 87 -4 c68 -3 106 1 186 20 l100
25 -40 -35 c-49 -43 -175 -104 -272 -133 -40 -11 -73 -23 -73 -26 0 -3 10 -2
23 2 12 4 29 8 37 9 9 0 20 4 25 7 6 3 29 11 53 17 79 22 231 102 277 146 51
50 56 48 82 -36 13 -40 17 -90 17 -194 0 -120 -3 -149 -23 -205 -51 -144 -90
-206 -214 -335 -65 -68 -137 -136 -160 -151 -49 -33 -101 -74 -93 -74 2 0 16
4 29 9 20 8 27 6 31 -5 3 -9 4 -20 0 -25 -3 -5 0 -9 5 -9 6 0 22 17 35 38 13
21 41 51 62 67 121 90 324 331 339 401 2 10 13 55 25 99 48 182 15 465 -61
519 -19 13 -25 11 -67 -14 -28 -17 -93 -39 -160 -55 -194 -47 -256 -23 -306
115 -65 182 -145 311 -306 500 -64 74 -136 161 -162 193 -67 87 -127 109 -129
48 0 -14 -2 -82 -4 -151 -2 -89 -9 -146 -24 -200 -12 -41 -22 -79 -24 -85 -1
-5 -5 -14 -8 -20 -3 -5 -11 -30 -18 -55 -35 -123 -74 -170 -140 -170 -42 0
-90 51 -118 126 -45 118 -92 369 -94 502 -1 56 -12 93 -27 91 -4 -1 -16 -6
-27 -12z"/>
<path d="M5832 14285 c0 -16 2 -22 5 -12 2 9 2 23 0 30 -3 6 -5 -1 -5 -18z"/>
<path d="M6312 14250 c0 -14 2 -19 5 -12 2 6 2 18 0 25 -3 6 -5 1 -5 -13z"/>
<path d="M5841 14214 c0 -11 3 -14 6 -6 3 7 2 16 -1 19 -3 4 -6 -2 -5 -13z"/>
<path d="M6970 13170 c0 -48 12 -66 23 -36 6 14 -10 86 -18 86 -3 0 -5 -22 -5
-50z"/>
<path d="M5167 13197 c-10 -26 -9 -77 2 -77 13 0 18 30 11 65 -5 25 -7 27 -13
12z"/>
</g>
</svg>
