<svg version="1.1" id="Layer_1" xmlns="http://www.w3.org/2000/svg" xmlns:xlink="http://www.w3.org/1999/xlink" x="0px" y="0px"
	 width="1200px" height="1600px" viewBox="0 0 1200 1600" enable-background="new 0 0 1200 1600" xml:space="preserve">
<g transform="translate(0.000000,1600.000000) scale(0.100000,-0.100000)" fill="#000000">
	<path d="M7450.996,13608.997c-17.998,168.999-36.992,210-92.998,203.999c-17.998-2.998-48.994-12.998-67.998-22.998
		c-60.996-32.002-167.002-52.002-265-47.998l-90,2.998l2.998-25c2.998-21.001-0.996-18.999-22.002,15
		c-13.994,22.002-25.996,43.999-25.996,48.999c0,15-90.996,238.003-120.996,298.999c-50,99.004-93.008,159.004-247.002,343.003
		c-164.004,197.998-179.004,213.999-186.006,192.998c-5.996-16.997-21.992-110-40.996-238.999
		c-20-136.001-40.996-233.999-59.004-268.999c-8.994-16.001-15.996-36.001-15.996-43.999c0-8.003-14.004-40-30-71.001
		c-17.002-31.001-27.998-61.001-25-65c4.004-7.002-47.998-18.999-90-21.001c-14.004-1.001-92.002,17.002-82.002,18.999
		c4.004,0-2.998,20-17.002,43.999c-56.992,97.002-120.996,368.003-147.998,626.001c-5,42.002-23.994,33.999-82.998-36.001
		c-30.996-36.997-97.002-115.996-147.002-175c-157.998-187.998-197.002-253.999-292.998-491.997
		c-57.002-143.999-97.002-220-92.998-177.002c2.998,25,2.998,25-87.002,22.002c-92.998-2.002-179.004,12.998-250,43.999
		c-64.004,27.998-112.998,35-127.002,17.998c-7.002-7.998-12.998-20-13.994-26.997c-2.002-6.001-10-42.002-18.008-81.001
		c-20-88.999-20-242.002,0-325c21.006-91.001,94.004-241.001,128.008-263.999c15-8.999,25-20,21.992-23.999
		c-6.992-6.001,137.002-157.998,204.004-214.004c25-20.996,50-35.996,57.002-33.994c7.002,2.998,15.996-1.006,20-8.008
		c12.002-20,50-36.992,67.002-30c10.996,4.004,13.994,13.008,10,30c-4.004,17.002-23.56,33.374-11.235,47.896
		c10.278,11.421,17.471,34.248,16.445,53.96c-5.137,131.787-12.329,195.083-27.744,233.477
		c-16.436,40.469-16.436,45.659-1.025,63.296c19.521,21.792,21.577,56.035,4.106,84.053c-11.299,17.642-8.218,24.902,17.471,51.885
		c27.471,29.058,46.191,40.815,63.594,36.743c2.92,35.049,18.12,68.384,43.027,93.438c3.452,22.622,9.438,42.671,17.71,56.597
		c15.41,28.022,31.86,39.429,68.848,49.805c34.941,9.346,52.412,21.792,60.63,39.438c6.162,13.486,15.41,24.902,20.552,24.902
		c4.102,0,8.218,5.186,8.218,10.376c0,21.792,56.514,73.677,93.501,85.088c19.805,5.625,32.192,7.383,46.738,3.892
		c18.511,14.517,41.714,24.521,69.59,27.842c-6.86,16.138-1.235,19.448,24.448,29.492c67.827,26.978,604.199,25.938,673.047,0
		c21.602-8.73,28.535-12.393,25.469-23.779c33.594-2.354,60.781-14.121,81.611-31.797c9.482,0.088,19.395-1.875,32.676-5.649
		c36.982-11.411,93.506-63.296,93.506-85.088c0-5.19,4.111-10.376,8.213-10.376c5.137,0,14.395-11.416,20.557-24.902
		c8.213-17.646,25.684-30.093,60.625-39.438c59.111-16.636,85.303-54.536,88.096-128.428c20.586-17.007,35.195-39.57,43.623-64.556
		c3.389-1.563,7.354-3.643,12.139-6.245c16.436-8.301,40.068-26.978,54.463-41.504c21.572-23.872,22.607-31.133,12.324-47.734
		c-17.471-28.018-15.41-62.261,5.146-85.093c16.436-18.672,15.41-21.787-5.146-65.371c-15.41-32.168-19.521-56.03-15.41-81.973
		c3.086-20.752,0-65.376-7.197-100.649c-12.334-59.15-12.334-64.341,9.258-92.358c14.375-20.752,19.512-39.429,15.41-56.035
		c-8.232-35.278-1.289-44.199,34.717-17.197c15.996,12.002,32.002,19.004,37.002,15.996c20-12.998,270.996,230.005,270.996,263.003
		c0,6.001,5,10,12.002,8.999c15.996-3.999,92.998,132.002,117.998,207.002
		C7457.001,13419.998,7464.003,13488.997,7450.996,13608.997z"/>
</g>
</svg>
