<svg version="1.1" id="Layer_1" xmlns="http://www.w3.org/2000/svg" xmlns:xlink="http://www.w3.org/1999/xlink" x="0px" y="0px"
	 width="1200px" height="1600px" viewBox="0 0 1200 1600" enable-background="new 0 0 1200 1600" xml:space="preserve">
<g transform="translate(0.000000,1600.000000) scale(0.100000,-0.100000)">
	<path d="M5846.87,11744.236c0.01,26.305-17.31,75.25-47.866,125.762c-15,24.004-25,47.998-23.008,52.002
		c3.008,3.994,20,7.998,39.004,7.998c25.996,0,35-5,40.996-22.002c13.008-43.994,45-107.998,53.008-107.998
		c5,0,10.996-9.004,13.994-20.996c0.625-2.494,1.45-4.658,2.378-6.602c4.893-2.25,9.707-4.639,14.438-7.182
		c4.785,1.967,8.623-0.049,9.697-5.387c8.921-5.277,17.515-11.094,25.845-17.279c-0.737,2.217-1.548,5.654-2.441,10.629
		c-2.642,2.451-5.229,4.859-7.651,7.203c-13.794,13.334-25.454,26.455-33.652,41.684c-4.219,5.273-8.281,10.703-12.129,16.338
		c-21.04,30.811-70.098,80.986-52.69,122.867c1.333,3.203,2.959,6.039,4.487,8.998c-3.042,9.004-2.876,18.154-0.581,26.725
		c-0.464,2.148-0.698,4.453-0.698,7.006c0,21.992-17.002,45.996-32.002,45.996c-3.994,0-7.998-7.002-7.998-15.996
		c0-8.008,5-24.004,10.996-36.006c12.002-22.998,4.004-37.002-11.992-20.996c-8.008,7.998-20,7.998-38.008,2.002
		c-13.994-5-30.996-12.002-37.998-14.004c-12.002-4.004-8.994-17.998,21.006-112.002c5.996-17.998,3.994-22.002-8.008-17.002
		c-20,8.008-20-6.992,0-42.998c15-25,15-30.996,1.006-63.994c-12.002-28.008-24.004-40-54.004-49.004
		c-20.996-7.002-67.002-27.002-102.998-45s-97.998-42.002-137.002-54.004c-40-11.992-82.002-30.996-92.998-43.994l-20.996-22.002
		l31.992-9.004c26.006-7.998,39.004-5.996,68.008,12.002c70,41.006,222.998,114.004,288.994,137.002
		c66.006,22.998,67.002,24.004,67.002,60c-0.996,25,2.998,34.004,12.002,30.996c9.966-3.871,15.889-0.586,18.398,7.643
		C5845.546,11737.25,5846.049,11740.809,5846.87,11744.236z"/>
	<path d="M6790,11502c-24.004,25-57.002,42.998-105,57.998c-67.998,22.002-214.004,85-265,114.004
		c-35.996,20.996-47.002,67.998-25.996,111.992c15.996,35,15.996,35-5,29.004c-17.002-5.996-20-4.004-13.008,5.996
		c9.004,15,33.008,96.006,34.004,115c0,17.002-75.996,34.004-89.004,21.006c-13.994-14.004-15,17.002-0.996,42.998
		c12.998,24.004-2.002,34.004-22.002,12.998c-10.996-10-13.994-27.002-10.996-52.002c2.002-20,0-46.992-6.006-60.996
		c-0.41-1.104-0.791-2.094-1.172-3.096c-8.652-57.5-50.879-109.34-99.111-147.67c4.521,0.801,9.004,1.553,13.486,2.26
		c7.695,4.967,16.26,7.305,24.854,7.344c11.465,13.072,20.947,28.086,20.947,37.158c0,8.008,4.004,13.008,7.998,10
		c7.998-3.994,17.002,13.008,52.998,102.002c7.002,19.004,15,22.998,42.002,20c36.006-2.998,37.998-20.996,9.004-65.996
		c-42.002-65-57.002-159.004-22.002-137.002c9.004,5.996,10.996,0,7.998-24.004c-5.996-37.998-0.996-40.996,82.002-70.996
		c77.998-27.998,202.998-89.004,255.996-125c30-20.996,47.002-25,73.008-20.996c18.994,2.998,42.998,0,55-6.006
		C6817.001,11470.994,6812.001,11479.998,6790,11502z"/>
	<path d="M5830,11902c0-12.002,4.004-22.002,9.004-22.002c10,0,8.994,25.996-2.002,35.996
		C5832.998,11919.998,5830,11914.002,5830,11902z"/>
	<path d="M6312.001,11899.998c0-14.004,2.002-19.004,5-12.002c2.002,6.006,2.002,17.998,0,25
		C6314.003,11919.002,6312.001,11914.002,6312.001,11899.998z"/>
	<path d="M5920,11489.998c5.996-10.996,15-20,20-20c5.996,0,10-5,10-10.996c0-5-5-7.002-10.996-3.008c-8.008,4.004-8.008,0,0-15
		c6.992-10.996,16.992-20.996,23.994-20.996c7.998,0,7.998,2.998-2.002,9.004c-6.992,5-10,13.994-6.992,20
		c3.994,5.996-1.006,21.992-11.006,35.996C5920.996,11514.002,5905,11517.996,5920,11489.998z"/>
	<path d="M6200,11472c-19.004-19.004-47.002-39.004-62.998-45c-15-5-26.006-11.006-24.004-12.998
		c7.002-7.002,57.002,15,74.004,31.992c7.998,8.008,17.998,13.008,20,10c8.994-8.994-9.004-27.998-41.006-41.992
		c-30.996-15-30.996-15-2.998-9.004c17.998,4.004,26.006,2.002,22.002-4.004c-2.998-5.996,10-3.994,29.004,4.004
		c35.996,15,157.998,15,328.994-0.996c50-4.004,77.002-3.008,77.002,2.998c0,5.996-19.004,10-42.002,10
		c-23.994,0-95.996,5.996-160,12.998c-112.998,12.002-150.996,10-212.002-15c-17.998-7.998-17.998-7.002,2.002,20.996
		c17.998,25,39.004,77.002,30,73.008C6235.996,11507.996,6219.003,11490.994,6200,11472z"/>
	<path d="M5975,11439.998c2.998-5,7.998-10,10.996-10c2.002,0,4.004,5,4.004,10c0,5.996-5,10-10.996,10
		C5974.003,11449.998,5972.001,11445.994,5975,11439.998z"/>
	<path d="M5672.001,11425.994c-51.006-6.992-106.006-10.996-122.002-10c-19.004,2.002-27.998-0.996-24.004-7.998
		c5-7.002,36.006-7.998,98.008-2.998c150,12.998,295.996,14.004,295.996,2.002c0-6.006,2.998-7.002,7.002-4.004
		c2.998,4.004,17.998,0,32.002-8.994c22.998-14.004,22.998-13.008-3.008,8.994C5910,11442,5845,11447,5672.001,11425.994z"/>
	<path d="M6010,11419.998c7.998-5,22.002-9.004,30-9.004c10,0,7.998,3.008-5,9.004C6007.998,11432,5992.001,11432,6010,11419.998z"
		/>
	<path d="M5980,11409.998c0-7.998,50-24.004,55.996-17.998c2.002,2.002-10,8.994-25.996,15
		C5992.998,11412.996,5980,11414.998,5980,11409.998z"/>
</g>
<g>
	<path d="M587.793,411.804c0,0,2.58-0.332,6.463-0.631c0.97-0.08,2.021-0.167,3.136-0.226c1.113-0.078,2.29-0.108,3.506-0.165
		c2.434-0.094,5.024-0.272,7.609-0.532c2.585-0.242,5.172-0.469,7.6-0.651c2.428-0.173,4.694-0.33,6.641-0.421
		c3.889-0.211,6.488-0.258,6.488-0.258l0.004,0.05c0,0-2.581,0.314-6.462,0.644c-1.939,0.179-4.206,0.337-6.635,0.502
		c-2.43,0.156-5.022,0.289-7.617,0.408c-2.596,0.101-5.186,0.284-7.608,0.527c-1.212,0.113-2.383,0.246-3.496,0.322
		c-1.112,0.096-2.165,0.155-3.137,0.21c-3.887,0.242-6.488,0.271-6.488,0.271L587.793,411.804z"/>
</g>
<g>
	<path d="M588.299,413.364c0,0,2.522-0.36,6.321-0.701c0.95-0.09,1.978-0.188,3.068-0.26c1.089-0.09,2.242-0.133,3.432-0.203
		c2.383-0.121,4.917-0.327,7.445-0.614c2.529-0.27,5.061-0.525,7.436-0.733c2.375-0.199,4.593-0.38,6.497-0.493
		c3.807-0.254,6.353-0.328,6.353-0.328l0.004,0.05c0,0-2.523,0.342-6.32,0.713c-1.897,0.2-4.115,0.382-6.491,0.574
		c-2.377,0.182-4.916,0.344-7.455,0.49c-2.541,0.129-5.075,0.34-7.445,0.609c-1.186,0.125-2.33,0.271-3.419,0.36
		c-1.087,0.107-2.118,0.178-3.07,0.245c-3.804,0.284-6.351,0.34-6.351,0.34L588.299,413.364z"/>
</g>
<g>
	<path d="M628.532,411.697c0,0-2.495,0.337-6.252,0.645c-0.938,0.082-1.955,0.171-3.033,0.233c-1.077,0.08-2.217,0.113-3.394,0.172
		c-2.354,0.1-4.86,0.284-7.36,0.548c-2.502,0.248-5.004,0.48-7.353,0.667c-2.349,0.178-4.542,0.34-6.425,0.436
		c-3.763,0.22-6.279,0.272-6.279,0.272l-0.004-0.05c0,0,2.496-0.32,6.25-0.657c1.876-0.183,4.069-0.346,6.419-0.517
		c2.35-0.161,4.859-0.3,7.37-0.424c2.512-0.107,5.018-0.295,7.361-0.543c1.173-0.116,2.305-0.251,3.381-0.33
		c1.076-0.098,2.095-0.159,3.035-0.217c3.762-0.25,6.278-0.284,6.278-0.284L628.532,411.697z"/>
</g>
<g>
	<path d="M588.207,415.893c0,0,2.425-0.35,6.079-0.677c0.913-0.086,1.902-0.181,2.951-0.249c1.047-0.086,2.156-0.125,3.301-0.19
		c2.291-0.112,4.729-0.308,7.16-0.585c2.433-0.261,4.866-0.506,7.15-0.706c2.285-0.19,4.418-0.363,6.25-0.468
		c3.661-0.239,6.109-0.304,6.109-0.304l0.004,0.05c0,0-2.427,0.333-6.078,0.689c-1.824,0.193-3.957,0.367-6.243,0.549
		c-2.286,0.173-4.728,0.325-7.17,0.462c-2.444,0.12-4.882,0.321-7.16,0.582c-1.141,0.121-2.241,0.262-3.289,0.347
		c-1.046,0.103-2.037,0.17-2.953,0.233c-3.658,0.27-6.108,0.316-6.108,0.316L588.207,415.893z"/>
</g>
<g>
	<path d="M589.483,417.612c0,0,2.351-0.366,5.894-0.716c0.885-0.092,1.844-0.193,2.862-0.268c1.016-0.093,2.091-0.139,3.203-0.211
		c2.223-0.126,4.587-0.339,6.943-0.632c2.358-0.276,4.719-0.537,6.934-0.751c2.216-0.205,4.284-0.392,6.062-0.508
		c3.552-0.263,5.928-0.344,5.928-0.344l0.004,0.05c0,0-2.352,0.348-5.893,0.729c-1.769,0.204-3.837,0.393-6.054,0.59
		c-2.218,0.188-4.586,0.355-6.955,0.508c-2.371,0.136-4.735,0.352-6.945,0.627c-1.105,0.129-2.172,0.277-3.188,0.369
		c-1.014,0.109-1.976,0.183-2.863,0.251c-3.549,0.293-5.926,0.356-5.926,0.356L589.483,417.612z"/>
</g>
<g>
	<path d="M627.099,415.851c0,0-2.291,0.345-5.743,0.663c-0.863,0.084-1.798,0.177-2.789,0.242c-0.989,0.083-2.037,0.12-3.119,0.182
		c-2.166,0.107-4.47,0.298-6.767,0.569c-2.298,0.255-4.598,0.495-6.756,0.689c-2.16,0.185-4.175,0.354-5.906,0.454
		c-3.46,0.231-5.775,0.291-5.775,0.291l-0.004-0.05c0,0,2.292-0.327,5.742-0.675c1.724-0.188,3.74-0.358,5.899-0.536
		c2.161-0.167,4.469-0.314,6.777-0.445c2.31-0.115,4.613-0.31,6.766-0.565c1.078-0.119,2.117-0.257,3.107-0.34
		c0.988-0.101,1.925-0.166,2.79-0.226c3.457-0.261,5.773-0.302,5.773-0.303L627.099,415.851z"/>
</g>
<g>
	<path d="M591.841,420.229c0,0,2.187-0.358,5.485-0.698c0.824-0.089,1.717-0.188,2.665-0.259c0.946-0.089,1.948-0.132,2.982-0.201
		c2.07-0.12,4.271-0.325,6.464-0.611c2.195-0.269,4.392-0.522,6.454-0.73c2.063-0.198,3.988-0.379,5.643-0.49
		c3.307-0.252,5.521-0.326,5.521-0.326l0.004,0.05c0,0-2.188,0.341-5.483,0.71c-1.646,0.199-3.572,0.381-5.636,0.571
		c-2.064,0.181-4.27,0.342-6.476,0.487c-2.209,0.128-4.409,0.338-6.465,0.606c-1.029,0.125-2.021,0.27-2.967,0.358
		c-0.944,0.107-1.839,0.177-2.666,0.243c-3.304,0.282-5.519,0.337-5.519,0.338L591.841,420.229z"/>
</g>
<g>
	<path d="M591.975,421.21c0,0,1.957-0.313,4.908-0.597c0.737-0.074,1.536-0.156,2.384-0.21c0.846-0.072,1.743-0.097,2.669-0.147
		c1.852-0.082,3.821-0.247,5.784-0.492c1.964-0.229,3.93-0.442,5.774-0.612c1.846-0.16,3.569-0.306,5.05-0.387
		c2.959-0.191,4.939-0.225,4.939-0.225l0.004,0.05c0,0-1.958,0.301-4.906,0.61c-1.474,0.169-3.196,0.315-5.043,0.468
		c-1.848,0.143-3.821,0.264-5.795,0.369c-1.977,0.088-3.945,0.257-5.785,0.488c-0.921,0.106-1.809,0.233-2.655,0.304
		c-0.845,0.089-1.646,0.144-2.385,0.194c-2.957,0.217-4.938,0.237-4.938,0.237L591.975,421.21z"/>
</g>
<g>
	<path d="M592.34,422.773c0,0,1.904-0.342,4.778-0.668c0.719-0.085,1.497-0.178,2.323-0.245c0.824-0.085,1.699-0.123,2.602-0.186
		c1.806-0.109,3.725-0.302,5.636-0.577c1.912-0.257,3.826-0.499,5.624-0.696c1.799-0.187,3.478-0.358,4.921-0.46
		c2.885-0.235,4.816-0.297,4.816-0.297l0.006,0.05c0,0-1.905,0.329-4.777,0.681c-1.436,0.19-3.114,0.362-4.913,0.542
		c-1.801,0.17-3.724,0.319-5.649,0.453c-1.927,0.117-3.845,0.314-5.636,0.572c-0.897,0.12-1.761,0.259-2.586,0.343
		c-0.823,0.102-1.604,0.167-2.324,0.229c-2.882,0.259-4.815,0.309-4.815,0.309L592.34,422.773z"/>
</g>
<g>
	<path d="M623.536,421.089c0,0-1.733,0.312-4.352,0.595c-0.654,0.074-1.362,0.155-2.115,0.209c-0.751,0.072-1.548,0.096-2.369,0.146
		c-1.646,0.082-3.394,0.245-5.134,0.49c-1.741,0.228-3.484,0.44-5.122,0.609c-1.638,0.16-3.167,0.304-4.481,0.385
		c-2.627,0.19-4.387,0.223-4.387,0.223l-0.005-0.05c0,0,1.735-0.3,4.351-0.607c1.306-0.168,2.835-0.314,4.474-0.466
		c1.64-0.142,3.392-0.262,5.146-0.366c1.755-0.087,3.502-0.255,5.134-0.485c0.816-0.106,1.604-0.232,2.354-0.303
		c0.749-0.089,1.46-0.143,2.116-0.193c2.625-0.215,4.387-0.235,4.387-0.235L623.536,421.089z"/>
</g>
<g>
	<path d="M596.329,424.597c0,0,1.659-0.29,4.165-0.539c0.625-0.066,1.304-0.138,2.024-0.182c0.719-0.062,1.48-0.076,2.267-0.115
		c1.574-0.06,3.246-0.201,4.912-0.423c1.666-0.206,3.334-0.396,4.9-0.543c1.567-0.138,3.03-0.263,4.288-0.327
		c2.514-0.156,4.197-0.166,4.197-0.166l0.004,0.05c0,0-1.66,0.277-4.163,0.551c-1.251,0.151-2.714,0.277-4.281,0.408
		c-1.569,0.122-3.245,0.218-4.923,0.3c-1.679,0.065-3.351,0.21-4.911,0.419c-0.781,0.095-1.535,0.211-2.253,0.272
		c-0.718,0.079-1.397,0.124-2.025,0.166c-2.512,0.182-4.196,0.179-4.196,0.179L596.329,424.597z"/>
</g>
<g>
	<path d="M597.153,425.765c0,0,1.556-0.272,3.903-0.494c0.587-0.059,1.223-0.124,1.897-0.16c0.673-0.055,1.388-0.061,2.124-0.091
		c1.476-0.043,3.043-0.167,4.604-0.371c1.563-0.188,3.126-0.36,4.594-0.491c1.47-0.121,2.841-0.231,4.02-0.281
		c2.355-0.13,3.934-0.122,3.934-0.122l0.004,0.05c0,0-1.557,0.26-3.902,0.507c-1.172,0.138-2.543,0.249-4.013,0.363
		c-1.471,0.104-3.041,0.184-4.613,0.247c-1.574,0.047-3.141,0.175-4.604,0.367c-0.732,0.087-1.438,0.195-2.111,0.249
		c-0.672,0.072-1.31,0.109-1.898,0.144c-2.354,0.155-3.933,0.134-3.933,0.134L597.153,425.765z"/>
</g>
<g>
	<path d="M597.968,427.078c0,0,1.395-0.283,3.504-0.521c0.527-0.063,1.098-0.132,1.705-0.173c0.605-0.059,1.248-0.07,1.911-0.106
		c1.328-0.054,2.737-0.188,4.138-0.403c2.804-0.417,5.621-0.696,7.74-0.831c2.119-0.146,3.541-0.149,3.541-0.149l0.004,0.05
		c0,0-1.396,0.27-3.503,0.533c-2.106,0.274-4.924,0.541-7.755,0.669c-1.417,0.058-2.825,0.196-4.139,0.398
		c-0.657,0.092-1.291,0.205-1.896,0.263c-0.604,0.076-1.177,0.118-1.706,0.157c-2.117,0.171-3.54,0.161-3.54,0.161L597.968,427.078z
		"/>
</g>
<g>
	<path d="M619.245,425.998c0,0-1.233,0.287-3.105,0.533c-0.468,0.065-0.974,0.136-1.513,0.179c-0.537,0.062-1.109,0.075-1.698,0.113
		c-1.181,0.058-2.432,0.197-3.673,0.417c-2.483,0.427-4.983,0.716-6.866,0.858c-1.883,0.153-3.147,0.161-3.147,0.161l-0.006-0.05
		c0,0,1.235-0.275,3.104-0.545c1.868-0.282,4.369-0.558,6.886-0.696c1.259-0.063,2.509-0.206,3.673-0.413
		c0.582-0.095,1.144-0.209,1.681-0.27c0.535-0.078,1.044-0.122,1.515-0.163c1.879-0.178,3.146-0.174,3.146-0.174L619.245,425.998z"
		/>
</g>
<g>
	<path d="M601.187,428.859c0,0,1.019-0.246,2.563-0.43c0.387-0.049,0.805-0.104,1.25-0.129c0.444-0.044,0.917-0.038,1.403-0.057
		c0.976-0.02,2.009-0.118,3.033-0.297c2.052-0.345,4.116-0.551,5.673-0.631c1.555-0.092,2.601-0.058,2.601-0.058l0.004,0.05
		c0,0-1.02,0.234-2.563,0.442c-1.542,0.22-3.608,0.414-5.688,0.47c-1.041,0.021-2.073,0.124-3.034,0.292
		c-0.481,0.075-0.944,0.171-1.389,0.214c-0.441,0.061-0.862,0.088-1.251,0.113c-1.553,0.117-2.6,0.071-2.6,0.071L601.187,428.859z"
		/>
</g>
<g>
	<path d="M586.311,406.727c0,0,2.67-0.354,6.689-0.688c1.004-0.088,2.093-0.184,3.246-0.253c1.152-0.088,2.371-0.129,3.63-0.196
		c2.519-0.116,5.201-0.317,7.876-0.599c2.676-0.265,5.354-0.515,7.866-0.718c2.514-0.194,4.86-0.371,6.874-0.479
		c4.026-0.246,6.718-0.315,6.718-0.315l0.004,0.05c0,0-2.671,0.337-6.688,0.7c-2.008,0.196-4.354,0.374-6.868,0.561
		c-2.515,0.177-5.199,0.333-7.885,0.475c-2.688,0.125-5.368,0.33-7.876,0.594c-1.255,0.123-2.466,0.267-3.618,0.353
		c-1.151,0.105-2.241,0.174-3.248,0.238c-4.024,0.276-6.717,0.327-6.717,0.328L586.311,406.727z"/>
</g>
<g>
	<path d="M586.232,405.393c0,0,2.76-0.391,6.917-0.778c1.039-0.102,2.165-0.212,3.357-0.297c1.192-0.104,2.453-0.161,3.755-0.245
		c2.607-0.15,5.379-0.387,8.146-0.705c2.768-0.301,5.537-0.587,8.136-0.825c2.6-0.228,5.026-0.437,7.109-0.572
		c4.165-0.3,6.95-0.406,6.95-0.406l0.004,0.05c0,0-2.762,0.373-6.916,0.791c-2.076,0.224-4.503,0.433-7.103,0.654
		c-2.602,0.211-5.379,0.404-8.157,0.582c-2.779,0.161-5.553,0.402-8.146,0.701c-1.297,0.14-2.55,0.3-3.741,0.402
		c-1.19,0.121-2.318,0.204-3.359,0.282c-4.162,0.331-6.949,0.418-6.949,0.418L586.232,405.393z"/>
</g>
<g>
	<path d="M585.415,408.243c0,0,2.689-0.38,6.74-0.751c1.012-0.098,2.109-0.204,3.271-0.284c1.161-0.099,2.39-0.151,3.659-0.23
		c2.54-0.14,5.242-0.366,7.938-0.673c2.696-0.29,5.395-0.565,7.927-0.792c2.533-0.218,4.897-0.417,6.929-0.544
		c4.058-0.284,6.771-0.378,6.771-0.378l0.004,0.05c0,0-2.69,0.362-6.739,0.764c-2.022,0.215-4.388,0.415-6.921,0.625
		c-2.534,0.201-5.24,0.383-7.948,0.549c-2.709,0.149-5.41,0.38-7.938,0.668c-1.265,0.135-2.484,0.29-3.646,0.387
		c-1.16,0.116-2.259,0.195-3.273,0.269c-4.056,0.314-6.771,0.391-6.771,0.391L585.415,408.243z"/>
</g>
<g>
	<path d="M629.356,406.284c0,0-2.7,0.356-6.767,0.692c-1.016,0.089-2.116,0.186-3.283,0.256c-1.165,0.088-2.397,0.13-3.671,0.198
		c-2.548,0.118-5.261,0.32-7.966,0.604c-2.708,0.267-5.416,0.518-7.958,0.723c-2.542,0.196-4.915,0.375-6.952,0.484
		c-4.072,0.249-6.794,0.319-6.794,0.319l-0.004-0.05c0,0,2.702-0.339,6.765-0.705c2.031-0.198,4.404-0.377,6.946-0.565
		c2.543-0.179,5.259-0.337,7.975-0.48c2.719-0.126,5.43-0.333,7.967-0.6c1.27-0.124,2.494-0.268,3.659-0.355
		c1.164-0.105,2.267-0.175,3.285-0.24c4.069-0.279,6.793-0.332,6.793-0.332L629.356,406.284z"/>
</g>
<g>
	<path d="M586.794,410.813c0,0,2.662-0.368,6.671-0.72c1.002-0.093,2.087-0.194,3.238-0.27c1.149-0.094,2.365-0.14,3.621-0.213
		c2.513-0.128,5.188-0.342,7.855-0.637c2.669-0.278,5.34-0.541,7.846-0.756c2.507-0.206,4.847-0.395,6.856-0.513
		c4.016-0.266,6.701-0.348,6.701-0.348l0.004,0.05c0,0-2.663,0.35-6.67,0.733c-2.002,0.206-4.343,0.396-6.85,0.594
		c-2.509,0.189-5.187,0.359-7.865,0.513c-2.681,0.137-5.355,0.355-7.856,0.632c-1.251,0.129-2.459,0.279-3.608,0.371
		c-1.148,0.11-2.235,0.185-3.239,0.253c-4.014,0.296-6.7,0.36-6.7,0.36L586.794,410.813z"/>
</g>
</svg>
