<svg version="1.0" xmlns="http://www.w3.org/2000/svg"
 width="1200.000000pt" height="1600.000000pt" viewBox="0 0 1200.000000 1600.000000"
 preserveAspectRatio="xMidYMid meet">

<g transform="translate(0.000000,1600.000000) scale(0.100000,-0.100000)"
fill="#000000" stroke="none">
<path d="M6050 13891 c-8 -4 -31 -16 -50 -26 -45 -23 -158 -29 -211 -11 -50
17 -109 4 -215 -49 -212 -106 -317 -211 -415 -412 -29 -60 -58 -115 -64 -123
-7 -8 -16 -25 -19 -36 -6 -18 -3 -21 17 -17 13 3 29 -2 36 -11 11 -12 7 -26
-19 -80 -18 -36 -36 -63 -40 -61 -4 3 -8 -5 -8 -18 0 -12 -10 -56 -22 -97 -16
-57 -20 -93 -17 -150 4 -69 8 -80 48 -140 41 -61 44 -68 40 -123 -2 -48 1 -63
17 -80 11 -12 23 -38 27 -57 4 -19 27 -75 50 -125 24 -49 49 -107 56 -127 12
-36 11 -39 -14 -66 -19 -20 -27 -39 -27 -65 0 -20 4 -37 8 -37 5 0 16 -19 26
-42 15 -41 15 -43 -3 -62 -20 -19 -20 -19 -55 7 -40 31 -51 33 -60 11 -10 -25
-7 -152 4 -159 5 -3 13 -20 19 -38 5 -18 12 -40 16 -49 5 -12 3 -18 -7 -18
-24 0 -51 -36 -43 -59 6 -21 52 -51 78 -51 19 0 47 -33 47 -56 0 -25 103 -73
163 -77 35 -2 42 -5 40 -22 -1 -10 5 -30 12 -45 22 -42 241 -257 292 -287 27
-15 70 -42 96 -60 26 -17 54 -30 61 -27 8 3 39 -9 71 -27 75 -42 106 -45 163
-13 26 14 52 30 59 36 6 5 17 8 25 7 31 -4 49 3 80 29 18 15 51 36 73 47 47
24 256 223 292 280 14 21 26 48 27 60 1 16 10 21 46 25 25 3 71 17 103 30 49
21 57 28 52 46 -5 24 23 48 68 59 14 4 35 17 47 30 22 23 22 25 6 50 -9 14
-23 25 -31 25 -19 0 -19 -4 6 66 18 51 26 127 20 202 -2 19 -19 14 -58 -15
-37 -29 -64 -24 -71 12 -4 16 15 63 29 75 3 3 8 24 12 47 5 39 2 45 -24 64
-28 20 -37 46 -21 65 4 5 23 45 42 89 18 44 39 87 45 95 7 8 18 39 25 68 7 30
19 56 27 59 11 4 14 22 12 73 -2 64 0 71 33 117 48 65 55 81 63 134 12 82 -33
256 -89 342 -38 58 -43 91 -16 93 8 1 20 3 25 4 6 1 14 2 18 1 11 -2 -1 39
-17 59 -6 8 -38 69 -71 135 -99 198 -200 290 -460 418 -41 20 -68 22 -240 14
-71 -3 -87 0 -142 25 -67 30 -70 31 -93 19z"/>
</g>
</svg>
