<?xml version="1.0" standalone="no"?>
<!DOCTYPE svg PUBLIC "-//W3C//DTD SVG 20010904//EN"
 "http://www.w3.org/TR/2001/REC-SVG-20010904/DTD/svg10.dtd">
<svg version="1.0" xmlns="http://www.w3.org/2000/svg"
 width="1200.000000pt" height="1600.000000pt" viewBox="0 0 1200.000000 1600.000000"
 preserveAspectRatio="xMidYMid meet">

<g transform="translate(0.000000,1600.000000) scale(0.100000,-0.100000)"
fill="#000000" stroke="none">
<path d="M5959 9636 c-4 -4 -74 -7 -157 -7 -190 -2 -244 -18 -350 -104 -67
-55 -84 -75 -64 -75 4 0 13 5 20 12 6 6 14 10 16 7 3 -3 -19 -33 -49 -67 -88
-101 -288 -450 -301 -524 -8 -48 -54 -160 -76 -184 -45 -51 -156 -256 -192
-356 -10 -26 -44 -82 -77 -124 -32 -42 -56 -80 -53 -85 3 -5 -1 -12 -9 -15 -8
-3 -29 -28 -47 -57 -18 -29 -52 -81 -75 -117 -46 -71 -138 -243 -148 -275 -3
-11 -17 -50 -30 -87 -14 -38 -22 -68 -19 -68 3 0 1 -5 -6 -12 -7 -7 -12 -24
-12 -40 0 -15 -5 -38 -11 -51 -8 -18 -8 -30 0 -45 8 -15 7 -23 -4 -32 -8 -7
-13 -16 -10 -20 3 -5 1 -20 -4 -33 -7 -18 -7 -27 2 -30 9 -3 9 -8 -1 -20 -9
-10 -11 -27 -7 -47 4 -18 2 -36 -4 -44 -6 -8 -11 -27 -10 -42 0 -16 0 -99 0
-184 -1 -157 2 -205 24 -325 3 -16 8 -50 11 -75 10 -80 12 -94 22 -155 6 -33
16 -127 22 -210 7 -82 16 -161 20 -175 5 -14 12 -89 15 -166 5 -114 4 -147 -8
-170 -8 -16 -17 -71 -20 -123 -6 -89 -5 -94 19 -116 13 -12 24 -29 24 -38 0
-8 14 -27 32 -42 l31 -26 71 70 c39 39 75 71 79 71 14 0 7 -28 -14 -54 -11
-14 -17 -26 -12 -26 16 0 89 53 141 103 40 40 59 51 85 52 29 0 33 3 42 42 17
72 27 61 20 -22 -4 -55 -3 -75 4 -65 8 12 13 12 38 0 15 -8 49 -36 75 -61 l48
-45 0 40 c0 62 14 74 34 32 9 -20 21 -36 25 -36 21 0 46 -87 45 -154 l-1 -70
18 37 c13 25 35 45 67 61 26 13 54 32 64 42 15 18 49 121 63 194 9 50 28 100
36 100 4 0 7 8 7 18 0 9 17 64 40 122 102 264 302 829 343 965 47 159 87 345
120 555 42 270 52 303 113 368 l50 53 48 -48 c40 -40 53 -62 73 -126 14 -43
25 -89 25 -103 0 -26 49 -314 55 -324 2 -3 6 -26 10 -50 18 -125 87 -371 154
-550 18 -47 39 -107 47 -133 8 -27 47 -135 85 -240 39 -106 79 -219 91 -252
11 -33 42 -116 69 -184 28 -68 48 -130 45 -138 -3 -8 -2 -21 3 -31 5 -9 19
-53 31 -97 25 -91 35 -106 103 -142 30 -17 55 -40 66 -61 l17 -33 0 68 c-1 66
25 153 45 153 4 0 16 16 25 36 15 32 19 34 25 18 4 -10 8 -35 8 -55 l1 -35 48
45 c26 25 60 53 75 61 25 12 30 12 38 0 7 -10 8 11 3 65 -7 86 -1 94 19 24 12
-40 16 -44 44 -44 24 -1 46 -15 95 -60 60 -56 136 -109 126 -89 -2 5 -10 21
-17 37 -27 52 0 41 73 -32 l73 -72 31 26 c18 15 32 34 32 42 0 9 11 26 25 39
23 22 25 27 19 101 -3 43 -9 96 -14 118 -11 51 -19 162 -12 170 3 3 7 44 9 93
3 91 4 106 29 317 19 159 21 176 40 295 8 52 17 111 20 130 3 19 8 51 11 70 3
19 6 139 6 267 1 168 -2 235 -11 246 -7 8 -10 22 -6 31 3 9 1 22 -4 29 -6 7
-9 32 -7 55 3 31 0 45 -11 49 -10 4 -12 9 -4 18 7 9 6 16 -4 25 -11 9 -12 16
-4 29 24 39 -93 311 -214 496 -36 55 -75 119 -86 142 -12 23 -29 46 -38 51 -9
5 -14 12 -12 15 1 3 -13 25 -33 49 -57 69 -87 119 -109 183 -19 55 -119 238
-161 295 -33 44 -59 103 -79 177 -10 39 -33 100 -50 135 -53 108 -213 369
-250 407 -19 20 -44 47 -55 60 l-20 24 23 -12 c36 -19 41 -2 7 26 -103 85
-131 103 -183 119 -32 10 -92 18 -137 19 -44 0 -165 5 -270 9 -104 5 -193 6
-196 2z"/>
</g>
</svg>
