<svg version="1.0" xmlns="http://www.w3.org/2000/svg"
 width="1200.000000pt" height="1600.000000pt" viewBox="0 0 1200.000000 1600.000000"
 preserveAspectRatio="xMidYMid meet">

<g transform="translate(0.000000,1600.000000) scale(0.100000,-0.100000)"
fill="#000000" stroke="none">
<path d="M4378 10113 c-10 -3 -15 -10 -11 -20 3 -8 2 -18 -3 -22 -18 -12 -71
-98 -78 -124 -7 -30 -21 -35 -30 -12 -9 24 -48 12 -134 -40 -42 -25 -111 -62
-152 -81 -41 -19 -87 -41 -102 -48 l-27 -15 25 39 c28 42 29 83 3 88 -9 2 -23
-3 -30 -11 -8 -7 -18 -14 -22 -14 -5 -1 -19 -10 -32 -21 -13 -11 -34 -26 -47
-33 -12 -6 -25 -15 -28 -18 -3 -4 -45 -31 -95 -61 -49 -30 -117 -73 -150 -97
-172 -122 -234 -169 -235 -175 0 -5 -6 -8 -14 -8 -8 0 -21 -6 -28 -13 -7 -6
-51 -37 -98 -67 -47 -30 -110 -73 -140 -96 -30 -23 -64 -44 -76 -48 -11 -3
-30 -15 -42 -26 -11 -11 -51 -36 -89 -56 -73 -39 -166 -102 -171 -116 -2 -4
-10 -8 -18 -8 -8 0 -14 -4 -14 -10 0 -5 -6 -10 -13 -10 -7 0 -36 -16 -66 -36
-29 -20 -58 -37 -65 -38 -25 -4 -108 -46 -139 -70 -19 -14 -37 -26 -40 -26
-12 0 -111 -72 -137 -100 -14 -14 -45 -39 -70 -55 -102 -67 -288 -280 -306
-352 -4 -13 -10 -23 -14 -23 -4 0 -15 -18 -24 -40 -9 -22 -20 -40 -25 -40 -5
0 -27 -37 -50 -81 -22 -45 -45 -87 -50 -93 -5 -6 -27 -46 -50 -89 -23 -43 -46
-86 -51 -95 -5 -9 -16 -38 -26 -64 -9 -27 -21 -48 -25 -48 -5 0 -9 -7 -9 -15
0 -8 -5 -15 -11 -15 -5 0 -8 -4 -5 -9 4 -5 2 -11 -4 -13 -6 -2 -12 -13 -14
-25 -3 -12 -34 -77 -71 -145 -60 -111 -104 -209 -119 -263 -3 -11 -8 -74 -11
-140 -3 -66 -7 -133 -10 -150 -17 -112 -34 -571 -22 -591 3 -5 8 -31 11 -58 7
-49 51 -148 90 -199 11 -16 53 -62 92 -103 67 -70 71 -73 91 -59 20 14 83 157
83 187 0 11 52 186 68 228 3 8 13 38 23 65 l17 50 -1 -52 c-1 -29 -4 -53 -8
-53 -11 0 -10 -133 1 -170 6 -19 15 -53 20 -75 27 -125 127 -278 227 -346 43
-30 45 -31 66 -12 45 39 78 76 101 111 13 20 70 87 128 147 94 99 168 199 168
225 0 6 12 2 28 -8 15 -11 58 -37 97 -58 38 -22 99 -56 135 -77 97 -56 130
-69 187 -73 46 -4 54 -1 80 26 38 41 41 55 42 210 1 118 -3 163 -25 281 -4 20
0 28 14 31 38 10 73 73 88 160 19 102 17 96 36 138 8 19 25 69 38 110 13 41
32 92 43 113 14 28 16 41 8 51 -8 10 -8 16 3 25 8 7 12 20 9 29 -5 14 -3 15 7
5 10 -10 21 -6 50 17 30 24 44 29 69 24 24 -5 31 -3 31 9 0 8 8 14 18 13 13
-1 18 9 22 50 6 59 24 90 81 136 138 112 163 137 175 180 28 96 68 205 85 229
32 46 102 61 161 35 12 -6 28 9 68 61 51 68 97 103 135 103 11 0 37 -9 57 -19
l36 -20 28 32 c68 75 97 140 69 151 -8 3 -23 2 -32 -1 -19 -8 -11 3 117 152
136 158 143 169 144 233 1 52 -1 57 -21 60 -13 2 -23 -1 -23 -6 0 -6 -6 -12
-13 -15 -16 -6 13 73 69 191 18 39 34 75 34 79 0 8 10 29 133 283 46 96 92
198 102 225 43 123 97 219 163 287 62 65 65 69 49 86 -14 14 -21 14 -37 4 -17
-10 -20 -10 -20 3 0 8 -4 15 -10 15 -5 0 -10 -6 -10 -12 0 -7 -14 1 -31 18
-30 31 -31 32 -15 62 21 41 20 95 -1 120 -23 27 -112 52 -184 52 -46 0 -61 4
-72 20 -14 19 -14 19 -26 -6 l-12 -27 -32 37 c-18 20 -35 35 -37 35 -3 -1 -13
-3 -22 -6z m-2758 -3560 c0 -5 -5 -15 -10 -23 -8 -12 -10 -11 -10 8 0 12 5 22
10 22 6 0 10 -3 10 -7z"/>
<path d="M7738 10106 c-10 -7 -15 -15 -13 -18 3 -3 -4 -13 -15 -23 -19 -17
-20 -17 -30 10 l-11 28 -15 -21 c-13 -19 -25 -22 -78 -22 -69 0 -161 -23 -188
-48 -23 -19 -24 -82 -2 -124 15 -28 14 -31 -6 -53 -13 -14 -29 -21 -41 -18
-10 3 -19 1 -19 -4 0 -6 -10 -8 -23 -6 -14 3 -29 -2 -37 -12 -13 -16 -8 -23
48 -74 34 -31 62 -60 62 -65 0 -4 14 -29 31 -54 17 -26 32 -51 33 -57 1 -5 8
-21 16 -35 8 -14 23 -52 35 -85 12 -33 59 -136 104 -230 89 -182 98 -201 160
-340 66 -149 90 -214 74 -208 -7 3 -13 9 -13 15 0 5 -10 8 -22 6 -21 -3 -23
-8 -22 -60 1 -47 7 -65 30 -95 15 -21 31 -40 34 -43 5 -4 104 -121 185 -218
23 -27 25 -34 11 -29 -10 4 -24 3 -31 -3 -15 -12 -8 -55 11 -71 8 -6 14 -16
14 -21 0 -6 14 -27 31 -49 l30 -38 40 21 c65 33 100 19 176 -72 42 -50 69 -74
81 -72 93 19 140 5 168 -49 16 -33 57 -146 78 -218 12 -43 60 -92 181 -185 52
-40 75 -82 75 -138 0 -47 7 -55 43 -49 4 0 7 -4 7 -10 0 -7 11 -8 31 -4 25 6
38 1 68 -23 30 -24 41 -28 51 -19 10 9 11 9 8 -3 -3 -8 2 -23 10 -33 14 -15
14 -20 2 -27 -11 -7 -11 -12 2 -32 8 -12 29 -66 46 -118 17 -52 36 -108 43
-125 7 -16 13 -36 15 -43 1 -7 10 -50 19 -95 17 -85 51 -145 87 -155 16 -4 18
-11 13 -41 -18 -103 -23 -156 -24 -254 -3 -149 5 -189 41 -226 28 -28 35 -31
85 -27 56 4 126 35 258 116 35 21 87 51 115 65 28 14 53 32 56 40 4 8 20 -14
41 -55 22 -43 58 -91 97 -128 33 -32 86 -89 116 -127 30 -37 82 -97 116 -133
l61 -65 46 31 c141 98 261 341 256 522 -1 36 -4 69 -7 75 -3 5 -7 22 -9 37 -5
52 13 29 36 -44 13 -40 34 -105 47 -145 13 -39 24 -78 24 -86 0 -32 63 -178
82 -192 19 -13 25 -10 75 38 107 102 187 231 198 319 4 29 9 57 12 62 13 20
-4 467 -22 591 -3 17 -7 84 -10 150 -3 66 -8 129 -11 140 -19 67 -66 169 -149
320 -18 33 -35 72 -39 88 -4 15 -11 27 -17 27 -6 0 -7 5 -4 10 3 6 1 10 -4 10
-6 0 -11 5 -11 11 0 6 -7 17 -16 26 -8 9 -13 22 -10 29 3 8 1 14 -4 14 -5 0
-13 16 -19 35 -5 19 -18 47 -28 62 -10 15 -25 42 -33 58 -8 17 -26 48 -39 70
-14 22 -42 75 -64 118 -21 42 -43 77 -48 77 -5 0 -16 18 -25 40 -9 22 -20 40
-24 40 -4 0 -10 10 -14 23 -5 21 -54 101 -83 137 -58 70 -153 163 -199 196
-32 21 -71 53 -88 69 -34 34 -115 92 -158 114 -16 8 -28 18 -28 21 0 7 -114
62 -136 66 -7 1 -36 18 -65 38 -30 20 -59 36 -66 36 -7 0 -13 5 -13 10 0 6 -7
10 -15 10 -8 0 -15 4 -15 8 0 10 -140 102 -202 132 -27 13 -48 27 -48 30 0 4
-17 15 -37 26 -21 10 -62 36 -90 58 -29 21 -101 69 -161 107 -59 37 -111 72
-117 76 -96 81 -453 323 -476 323 -5 0 -9 4 -9 9 0 5 -9 12 -19 16 -11 3 -34
19 -52 35 -18 16 -37 26 -41 24 -4 -3 -8 0 -8 6 0 6 -4 8 -10 5 -5 -3 -10 -1
-10 4 0 14 -47 14 -55 1 -4 -6 -1 -17 5 -25 7 -8 9 -15 4 -15 -4 0 2 -10 13
-22 40 -45 33 -47 -44 -14 -70 30 -115 54 -233 123 -53 32 -96 38 -108 16 -9
-16 -11 -14 -18 12 -3 17 -16 44 -28 60 -12 17 -28 45 -35 63 -8 18 -22 37
-32 42 -22 12 -20 12 -41 -4z m2822 -3569 c0 -18 -2 -19 -10 -7 -13 20 -13 43
0 35 6 -3 10 -16 10 -28z"/>
</g>
</svg>
