<?xml version="1.0" standalone="no"?>
<!DOCTYPE svg PUBLIC "-//W3C//DTD SVG 20010904//EN"
 "http://www.w3.org/TR/2001/REC-SVG-20010904/DTD/svg10.dtd">
<svg version="1.0" xmlns="http://www.w3.org/2000/svg"
 width="1200.000000pt" height="1600.000000pt" viewBox="0 0 1200.000000 1600.000000"
 preserveAspectRatio="xMidYMid meet">

<g transform="translate(0.000000,1600.000000) scale(0.100000,-0.100000)"
fill="#000000" stroke="none">
<path d="M5920 11674 c-59 -16 -78 -26 -156 -86 -42 -31 -53 -46 -56 -74 -2
-19 0 -37 4 -40 19 -12 5 -46 -40 -96 -26 -29 -61 -80 -77 -113 -16 -33 -54
-86 -86 -118 -69 -72 -69 -71 -124 -236 l-45 -135 36 -73 c26 -53 39 -93 45
-149 11 -98 23 -133 71 -215 21 -37 59 -111 82 -166 45 -101 79 -166 103 -194
9 -11 13 -56 14 -160 2 -179 -11 -258 -56 -325 -67 -103 -87 -153 -80 -200 l6
-44 25 17 c13 8 26 14 28 12 1 -2 14 -25 29 -50 29 -51 29 -51 142 -85 91 -26
109 -20 107 35 l-1 31 62 -32 c90 -46 151 -46 240 -2 66 34 67 34 62 11 -4
-15 0 -31 12 -45 l18 -22 80 24 c114 34 113 34 142 85 15 25 28 48 29 50 2 2
15 -4 28 -12 l25 -17 6 44 c7 47 -5 78 -76 191 -49 79 -63 153 -61 332 l2 142
34 54 c19 30 55 100 80 157 25 56 63 132 84 169 48 82 60 117 71 215 6 56 19
96 45 149 l36 73 -45 135 c-55 166 -58 171 -121 231 -30 28 -66 77 -88 120
-20 39 -54 90 -75 113 -54 59 -64 80 -46 95 8 7 12 17 8 23 -3 5 -6 20 -7 32
-1 23 -55 74 -119 114 -80 49 -278 67 -397 35z"/>
<path d="M5458 11248 c-75 -59 -79 -78 -11 -73 61 4 85 29 81 83 l-3 41 -67
-51z"/>
<path d="M6620 11258 c0 -57 23 -79 85 -84 37 -2 45 1 45 14 0 9 -15 27 -33
39 -17 13 -47 34 -64 49 l-33 27 0 -45z"/>
<path d="M5466 10195 c7 -63 11 -75 24 -75 16 0 11 52 -10 90 l-19 35 5 -50z"/>
<path d="M6670 10213 c-23 -50 -30 -93 -14 -93 14 0 17 11 29 83 7 44 3 47
-15 10z"/>
</g>
</svg>
