<?xml version="1.0" standalone="no"?>
<!DOCTYPE svg PUBLIC "-//W3C//DTD SVG 20010904//EN"
 "http://www.w3.org/TR/2001/REC-SVG-20010904/DTD/svg10.dtd">
<svg version="1.0" xmlns="http://www.w3.org/2000/svg"
 width="1200.000000pt" height="1600.000000pt" viewBox="0 0 1200.000000 1600.000000"
 preserveAspectRatio="xMidYMid meet">

<g transform="translate(0.000000,1600.000000) scale(0.100000,-0.100000)"
fill="#000000" stroke="none">
<path d="M6241 11401 c-67 -25 -64 -42 5 -23 55 16 57 15 102 -8 25 -14 74
-53 109 -88 64 -64 86 -73 65 -28 -18 40 -188 167 -221 165 -9 -1 -36 -8 -60
-18z"/>
<path d="M5830 11401 c0 -6 11 -11 23 -11 13 0 45 -6 70 -14 48 -14 67 -3 24
13 -43 17 -117 24 -117 12z"/>
<path d="M5566 11241 c-3 -4 -10 -20 -15 -35 -15 -39 3 -32 22 9 9 19 13 35 7
35 -5 0 -11 -4 -14 -9z"/>
<path d="M6575 11233 c4 -10 10 -26 12 -35 6 -19 23 -25 23 -8 0 5 -5 21 -12
35 -12 28 -34 35 -23 8z"/>
<path d="M5559 11128 c-15 -57 -19 -251 -6 -264 4 -5 12 -2 17 6 7 11 10 6 10
-18 0 -20 4 -31 10 -27 6 3 10 24 10 47 0 35 -2 40 -20 35 -19 -5 -20 0 -20
61 1 37 7 96 15 132 17 78 17 80 6 80 -5 0 -15 -24 -22 -52z"/>
<path d="M6570 11168 c0 -7 7 -51 15 -98 21 -119 20 -160 -4 -160 -15 0 -19
-10 -25 -56 -8 -65 -47 -152 -86 -189 l-28 -27 -17 26 c-20 30 -40 34 -50 9
-4 -10 -9 -72 -12 -138 -2 -66 -6 -131 -9 -145 -8 -39 -22 -5 -26 63 -2 40 -7
57 -17 57 -10 0 -12 -14 -6 -69 8 -82 -1 -103 -78 -188 -64 -70 -107 -132
-107 -155 0 -9 -9 -18 -20 -20 -24 -4 -14 -24 15 -30 15 -2 21 4 25 32 4 19
17 53 30 75 34 57 142 169 164 170 13 0 23 12 32 37 19 56 34 177 27 225 -3
23 -3 50 1 59 6 16 8 15 22 -4 8 -11 13 -26 12 -33 -2 -6 3 -14 10 -16 6 -3
12 1 12 7 0 7 15 30 33 50 51 61 78 110 89 167 6 30 14 49 18 43 4 -7 10 -8
13 -3 3 5 2 15 -3 23 -5 8 -2 19 7 29 17 16 14 88 -9 204 -10 52 -28 88 -28
55z"/>
<path d="M6906 10904 c-15 -26 -38 -79 -52 -118 -14 -39 -32 -87 -39 -106 -7
-19 -9 -37 -5 -40 5 -3 7 -17 7 -32 -1 -14 -5 -24 -9 -22 -4 2 -9 0 -13 -6 -3
-5 -1 -10 4 -10 20 0 10 -25 -38 -97 -27 -40 -46 -73 -43 -73 15 1 32 18 66
70 l36 55 0 -45 c0 -89 -21 -212 -46 -268 -14 -31 -29 -66 -34 -77 -54 -123
-71 -173 -76 -227 -3 -35 -12 -82 -20 -106 -18 -55 -17 -72 1 -48 14 19 15 18
15 -17 0 -59 21 -190 35 -212 6 -11 15 -33 19 -50 10 -42 37 -96 61 -123 19
-22 75 -58 75 -48 0 2 -27 61 -61 131 -77 161 -89 208 -91 363 -1 108 1 135
20 182 31 82 71 180 92 225 32 69 59 233 65 389 6 146 21 236 52 309 24 55 10
56 -21 1z"/>
<path d="M5200 10912 c0 -4 4 -12 9 -17 5 -6 21 -39 36 -75 24 -59 28 -83 35
-250 12 -254 14 -264 55 -355 53 -116 103 -246 115 -301 15 -64 11 -224 -7
-293 -8 -31 -39 -105 -68 -166 -30 -60 -58 -123 -64 -138 l-11 -28 29 20 c47
34 78 76 101 138 11 32 28 72 36 90 8 18 17 76 21 129 5 84 8 94 19 79 19 -25
30 -11 16 20 -6 13 -18 68 -27 120 -14 90 -41 170 -106 311 -30 67 -45 135
-54 259 l-6 80 32 -50 c36 -58 68 -95 82 -95 5 0 2 10 -7 23 -55 76 -87 131
-82 143 6 17 -3 46 -13 40 -10 -7 -8 38 2 45 9 6 -36 136 -70 204 -26 50 -73
94 -73 67z"/>
<path d="M6935 10890 c-9 -16 -13 -30 -11 -30 3 0 12 14 21 30 9 17 13 30 11
30 -3 0 -12 -13 -21 -30z"/>
<path d="M5610 10785 c0 -19 4 -35 9 -35 11 0 21 38 14 56 -10 26 -23 14 -23
-21z"/>
<path d="M5687 9992 c-22 -24 -24 -50 -2 -32 21 17 19 7 -4 -19 -15 -17 -19
-34 -17 -70 8 -109 31 -122 32 -18 1 39 4 91 8 115 9 47 6 50 -17 24z"/>
<path d="M6456 9955 c4 -33 6 -91 6 -130 -1 -55 1 -66 10 -51 6 10 13 47 16
81 3 49 1 68 -14 91 -11 15 -13 25 -6 21 17 -11 15 5 -4 29 -14 18 -15 15 -8
-41z"/>
<path d="M6028 9263 c5 -70 35 -149 52 -138 6 4 10 -16 10 -49 0 -55 12 -80
24 -49 4 9 4 42 1 73 -4 43 -3 50 5 31 13 -30 25 -21 16 13 -3 14 -12 23 -19
21 -21 -7 -67 78 -67 124 0 27 -4 41 -13 41 -10 0 -12 -17 -9 -67z"/>
<path d="M5329 9273 l-34 -38 38 34 c34 33 42 41 34 41 -2 0 -19 -17 -38 -37z"/>
</g>
</svg>
