<?xml version="1.0" encoding="utf-8"?>
<!-- Generator: Adobe Illustrator 16.0.0, SVG Export Plug-In . SVG Version: 6.00 Build 0)  -->
<!DOCTYPE svg PUBLIC "-//W3C//DTD SVG 1.1//EN" "http://www.w3.org/Graphics/SVG/1.1/DTD/svg11.dtd">
<svg version="1.1" id="Layer_1" xmlns="http://www.w3.org/2000/svg" xmlns:xlink="http://www.w3.org/1999/xlink" x="0px" y="0px"
	 width="1200px" height="1600px" viewBox="0 0 1200 1600" enable-background="new 0 0 1200 1600" xml:space="preserve">
<g transform="translate(0.000000,1600.000000) scale(0.100000,-0.100000)">
	<path d="M6240.996,11400.994c-66.992-25-63.994-41.992,5-22.998c55,16.006,57.002,15,102.002-7.998
		c25-14.004,74.004-52.998,109.004-87.998c63.994-64.004,85.996-72.998,65-27.998c-17.998,40-187.998,166.992-221.006,165
		C6292.001,11417.996,6265,11410.994,6240.996,11400.994z"/>
	<path d="M5830,11400.994c0-5.996,10.996-10.996,22.998-10.996c12.998,0,45-5.996,70-14.004
		c47.998-13.994,67.002-2.998,24.004,13.008C5904.003,11405.994,5830,11412.996,5830,11400.994z"/>
	<path d="M6586.103,11219.949c-0.859,1.641-2.734,1.816-4.18,1.158c-2.471,3.672-4.658,7.441-6.68,11.264
		c1.514-3.789,3.281-8.354,5-13.051c-0.195-0.553-0.254-1.158,0.01-1.836c0.889-2.262,1.875-4.449,2.949-6.582
		c1.631-4.844,3.018-9.404,3.799-12.906c1.426-4.516,3.496-8.223,5.781-11.127c-2.49,1.234-5.049,2.084-7.783,2.021
		c-1.533-0.035-2.422-1.387-2.148-2.818c2.52-13.207,24.063-16.631,32.08-26.152c2.783-3.32,8.252-0.541,8.232,3.414
		C6623.037,11186.912,6596.054,11200.98,6586.103,11219.949z"/>
	<path d="M6597.998,11112.996c-10,52.002-27.998,87.998-27.998,55c0-7.002,7.002-50.996,15-97.998c20.996-119.004,20-160-4.004-160
		c-15,0-18.994-10-25-55.996c-7.998-65-46.992-152.002-85.996-189.004l-27.998-27.002l-17.002,26.006c-20,30-40,33.994-50,8.994
		c-4.004-10-9.004-72.002-12.002-137.998c-2.002-65.996-5.996-130.996-8.994-145c-8.008-39.004-22.002-5-26.006,62.998
		c-2.002,40-7.002,57.002-17.002,57.002s-11.992-14.004-5.996-69.004c7.998-81.992-0.996-102.998-77.998-187.998
		c-64.004-70-107.002-132.002-107.002-155c0-8.994-9.004-17.998-20-20c-24.004-3.994-14.004-23.994,15-30
		c15-2.002,20.996,4.004,25,32.002c4.004,19.004,17.002,52.998,30,75c22.773,38.184,78.73,101.006,119.824,138.652
		c1.084,7.471,3.271,14.488,6.68,20.768c1.191,5.775,3.604,10.869,7.842,14.564c3.34,2.9,7.324,3.623,10.996,2.213
		c2.08-9.527,6.67-19.313,11.553-26.344c0.635-0.918,1.611-1.273,2.617-1.396c15.527,22.516,29.922,47.324,40.713,72.633
		c16.904,60.121,29.248,166.557,22.773,210.912c-2.998,22.998-2.998,50,1.006,58.994c5.732,15.299,7.93,14.863,20.322-1.768
		c3.438-0.004,7.002-1.406,9.102-4.297c9.727-13.418,18.506-28.232,25.596-43.838c0.615,1.143,0.977,2.461,0.977,3.906
		c0,7.002,15,30,32.998,50c51.006,60.996,77.998,110,89.004,167.002c2.373,11.885,5.068,21.861,7.695,29.42
		c-0.762,8.428-0.488,16.836,0.615,25.244c0.107,0.791,0.449,1.475,0.879,2.094c0.742-1.127,1.553-2.221,2.246-3.383
		c3.232-5.396,3.789-12.545,8.223-17.057c1.123-1.137,2.793-1.494,4.326-1.195c2.041-1.533,5.508-1.227,6.084,1.85
		c0.146,0.801,0.273,1.598,0.42,2.393c0.166,0.215,0.361,0.387,0.508,0.635c1.396,2.34,1.816,5.83,1.475,9.648
		c0,0.016,0.02,0.016,0.029,0.029c7.598,13.395,8.418,31.963,10.186,47.07c0.596,5.094,0.957,10.436,0.869,15.762
		C6621.425,10961.297,6615.625,11024.125,6597.998,11112.996z"/>
	<path d="M6905.996,10904.002c-15-26.006-37.998-79.004-51.992-118.008c-14.004-38.994-32.002-86.992-39.004-105.996
		s-9.004-37.002-5-40c5-2.998,7.002-17.002,7.002-32.002c-1.006-13.994-5-23.994-9.004-22.002c-3.994,2.002-8.994,0-12.998-5.996
		c-2.998-5-0.996-10,4.004-10c20,0,10-25-38.008-97.002c-26.992-40-45.996-72.998-42.998-72.998c15,0.996,32.002,17.998,66.006,70
		l35.996,55v-45c0-89.004-20.996-212.002-45.996-267.998c-14.004-31.006-29.004-66.006-34.004-77.002
		c-54.004-122.998-70.996-172.998-75.996-227.002c-3.008-35-12.002-82.002-20-105.996c-18.008-55-17.002-72.002,0.996-47.998
		c14.004,18.994,15,17.998,15-17.002c0-59.004,20.996-190,35-212.002c5.996-10.996,15-32.998,19.004-50
		c10-42.002,36.992-95.996,60.996-122.998c19.004-22.002,75-57.998,75-47.998c0,1.992-27.002,60.996-60.996,130.996
		c-77.002,160.996-89.004,207.998-91.006,362.998c-0.996,107.998,1.006,135,20,182.002c31.006,82.002,71.006,180,92.002,225
		c32.002,69.004,59.004,232.998,65,389.004c5.996,145.996,20.996,235.996,52.002,308.994
		C6950.996,10957.996,6937.001,10959.002,6905.996,10904.002z"/>
	<path d="M6935,10889.998c-9.004-15.996-12.998-30-10.996-30c2.998,0,11.992,14.004,20.996,30c9.004,17.002,12.998,30,10.996,30
		C6952.998,10919.998,6944.003,10907,6935,10889.998z"/>
	<path d="M5632.998,10805.994c-6.382,16.602-13.975,17.656-18.638,7.188c-0.864,3.238-1.66,6.494-2.427,9.756
		c0.757,5.709,0.439,10.82-0.674,17.119c-1.221,6.92-10.527,5.426-12.52,0c-1.338-3.637-2.529-7.178-3.647-10.697
		c-0.156,0.879-0.269,1.758-0.415,2.637c3.291,8.607,5.322,23.74,5.322,40.004c0,35-2.002,40-20,35c-19.004-5-20,0-20,60.996
		c0.996,37.002,7.002,96.006,15,132.002c17.002,77.998,17.002,80,5.996,80c-1.396,0-3.198-2.016-5.2-5.316
		c-1.992,2.514-5.347,2.826-7.817,0.674c-3.232-2.818-6.221-5.211-9.077-7.646c1.392,9.477,3.34,18.809,5.508,28.1
		c9.844,12.441,13.115,29.863,21.255,43.795c9.395,16.078,21.929,29.955,35.542,42.523c3.887,3.584-1.816,9.137-5.742,5.742
		c-13.296-11.475-25.542-23.779-35.933-37.959c-4.902-0.229-10.62-4.066-13.535-8.916c-2.998-3.994-10-20-15-35
		c-7.637-19.854-6.694-27.725-1.445-25.316c-2.061-9.482-3.345-19.121-3.223-29.014c0.063-5.27,7.271-7.359,9.956-2.695
		c3.779,6.553,8.433,10.42,13.584,14.535c0.088-0.238,0.132-0.473,0.21-0.713c-3.799-9.336-7.773-21.566-11.074-34.795
		c-15-57.002-19.004-250.996-6.006-263.994c4.004-5,12.002-2.002,17.002,5.996c7.002,10.996,10,5.996,10-17.998
		c0-11.738,1.406-20.254,3.76-24.58c1.411-8.047,3.34-16.016,6.006-23.867c1.953-5.746,10.522-4.834,10.664,1.445
		c0.122,5.449,1.719,10.557,3.755,15.537c1.494-7.842,3.198-15.635,5.176-23.412c0.317-1.256,0.625-2.584,0.938-3.867
		c-0.176-2.604-0.298-5.318-0.298-8.258c0-19.004,4.004-35,9.004-35c2.656,0,5.244,2.252,7.559,5.865
		c0.845,0.521,1.538,1.299,1.563,2.471c0,0.082-0.02,0.16-0.02,0.244C5634.428,10770.848,5637.919,10793.344,5632.998,10805.994z"/>
	<path d="M5705.434,10006.658c0.854,2.408,1.724,4.775,2.598,7.109c-1.724-1.309-3.423-2.65-5.205-3.891
		c-5.527-3.848-12.188-5.977-16.362-11.344c-1.875-2.406-1.558-5.195,0.2-6.924c-21.67-23.896-23.55-49.512-1.665-31.611
		c2.305,1.865,4.282,3.35,6.04,4.58c0.054,0.094,0.112,0.182,0.166,0.273c2.417,10.465,5.386,20.928,9.038,31.422
		C5700.419,9999.988,5702.031,10003.607,5705.434,10006.658z"/>
	<path d="M5667.773,9852.088c0.562,25.426,3.057,59.078,12.827,88.408c-14.644-16.83-18.579-33.842-16.597-69.502
		c0.986-13.438,2.217-25.283,3.589-35.762C5667.597,9841.053,5667.656,9846.736,5667.773,9852.088z"/>
	<path d="M6472.207,9984.506c0.947,0.645,1.338,1.738,1.348,2.852c-8.115,1.361-16.123,4.033-23.633,7.598
		c0.264-0.42,0.488-0.943,0.752-1.373c6.553-8.496,12.715-17.197,17.354-26.596
		C6482.089,9957.898,6483.076,9967.357,6472.207,9984.506z"/>
	<path d="M6474.003,9945.994c-0.654,0.898-1.182,1.715-1.777,2.574c-0.098-1.797-0.361-3.525-0.771-5.205
		c7.715-26.523,13.154-56.934,16.621-86.969C6490.947,9904.334,6488.857,9923.221,6474.003,9945.994z"/>
	<path d="M6135.996,9144.002c-1.885,8.809-6.152,15.625-10.801,18.98c-36.074-3.164-69.375,45.453-78.857,75.131
		c-9.678,30.264-12.344,60.859-10.488,91.754c-8.975-1.344-10.732-18.887-7.852-66.871c3.057-42.729,15.43-88.705,28.467-115.625
		c-1.064,1.133-2.109,2.285-3.184,3.404c-3.457,3.598-7.285,7.412-11.27,11.25c-0.996,1.771-2.129,3.457-3.096,5.258
		c-1.133,2.115-3.057,2.555-4.775,2.047c-14.512,12.998-31.226,25.189-47.959,29.961c-4.355,1.244-7.393-4.277-4.331-7.441
		c16.689-17.252,38.765-29.482,56.45-46.041c1.338-1.25,2.637-2.549,3.965-3.828c3.828-6.621,7.832-13.154,11.924-19.648
		c8.311-13.197,16.475-29.57,28.379-39.766c0.645-0.551,1.396-0.82,2.139-0.873c0.215-0.596,0.498-1.158,0.703-1.758
		c0.859-2.467,2.646-3.74,4.59-4.225c0.049-54.795,12.021-79.662,24.004-48.711c3.994,8.994,3.994,42.002,0.996,72.998
		c-4.004,42.998-2.998,50,5,30.996C6132.998,9100.994,6145,9109.998,6135.996,9144.002z"/>
	<path d="M5522.001,9764.998c-6.006,12.998-17.998,67.998-27.002,120c-14.004,90-40.996,170-105.996,310.996
		c-30,67.002-45,135-54.004,259.004l-5.996,80l31.992-50c36.006-57.998,68.008-95,82.002-95c5,0,2.002,10-7.002,22.998
		c-26.245,36.27-47.173,67.676-61.421,91.988c1.138,1.035,1.831,2.65,1.533,4.574c-1.665,10.918-7.139,19.971-11.846,29.938
		c-3.276,6.938-6.206,14.008-9.082,21.098c3.13,16.514-4.473,39.141-13.232,35.771c-2.544,7.627-4.834,15.328-6.909,23.092
		c1.138,9.428,3.862,18.676,7.959,21.537c9.004,6.006-35.996,136.006-70,204.004c-25.996,50-72.998,94.004-72.998,67.002
		c0-4.004,4.004-12.002,9.004-17.002c5-5.996,20.996-39.004,35.996-75c24.004-59.004,27.998-82.998,35-250
		c12.002-254.004,14.004-264.004,55-355c52.998-115.996,102.998-245.996,115-300.996c15-64.004,10.996-224.004-7.002-293.008
		c-7.998-30.996-38.994-105-67.998-165.996c-30-60-57.998-122.998-64.004-137.998L5300,9289.002l5.493,3.789
		c-7.061-11.156-14.517-22.055-21.514-33.301c-3.086-4.951-0.337-10.293,4.136-12.367c11.665,8.051,23.135,16.191,33.525,25.068
		c11.338,9.688,22.305,19.814,32.734,30.4c6.201,13.324,11.475,26.977,14.443,41.514c25.796,27.539,45.444,60.463,61.182,102.895
		c10.996,32.002,27.998,72.002,35.996,90c8.008,17.998,17.002,75.996,21.006,128.994c5,84.004,7.998,94.004,18.994,79.004
		C5525,9719.998,5535.996,9734.002,5522.001,9764.998z"/>
</g>
</svg>
