<?xml version="1.0" standalone="no"?>
<!DOCTYPE svg PUBLIC "-//W3C//DTD SVG 20010904//EN"
 "http://www.w3.org/TR/2001/REC-SVG-20010904/DTD/svg10.dtd">
<svg version="1.0" xmlns="http://www.w3.org/2000/svg"
 width="1200.000000pt" height="1600.000000pt" viewBox="0 0 1200.000000 1600.000000"
 preserveAspectRatio="xMidYMid meet">

<g transform="translate(0.000000,1600.000000) scale(0.100000,-0.100000)"
fill="#000000" stroke="none">
<path d="M5820 11544 c-66 -9 -259 -44 -337 -62 -63 -15 -87 -26 -122 -58
-146 -130 -213 -260 -198 -387 4 -29 22 -77 47 -121 28 -52 40 -85 40 -114 0
-32 6 -47 27 -67 28 -25 28 -26 30 -173 3 -195 9 -244 37 -300 13 -26 45 -108
71 -182 37 -106 49 -156 55 -230 4 -53 3 -97 -1 -101 -5 -3 -8 -39 -7 -80 2
-66 -1 -81 -31 -144 -33 -69 -52 -145 -35 -145 15 0 98 44 110 59 8 11 14 8
27 -13 9 -14 17 -37 17 -51 0 -28 15 -32 45 -12 27 19 64 27 70 16 3 -4 18 -6
33 -3 22 5 39 -3 83 -37 43 -35 176 -109 195 -109 2 0 4 8 4 18 0 9 11 30 24
46 l23 30 7 -51 c8 -62 35 -103 54 -81 6 8 18 41 25 74 l14 59 21 -35 c12 -19
22 -41 22 -47 0 -7 2 -13 4 -13 19 0 152 74 195 109 44 34 61 42 83 37 15 -3
30 -1 33 3 6 11 43 3 70 -16 28 -19 45 -16 45 7 0 12 7 35 16 52 14 26 18 29
28 17 12 -16 104 -64 110 -58 16 17 0 97 -30 144 -21 33 -45 116 -37 128 9 15
4 79 -7 92 -5 6 -5 53 0 105 9 104 57 258 128 416 39 89 40 90 50 273 8 133
15 190 27 207 8 13 15 41 15 63 0 27 11 58 34 98 96 162 65 303 -102 472 -93
94 -77 88 -332 137 -121 24 -161 27 -390 29 -140 2 -271 1 -290 -1z"/>
</g>
</svg>
