<svg version="1.1" xmlns="http://www.w3.org/2000/svg" xmlns:xlink="http://www.w3.org/1999/xlink" x="0px" y="0px" width="1200px"
	 height="1600px" viewBox="0 0 1200 1600" enable-background="new 0 0 1200 1600" xml:space="preserve">
<g id="Layer_2">
	<g transform="translate(0.000000,1600.000000) scale(0.100000,-0.100000)" opacity="0.1">
		<path d="M5800,13917.996c-85.996-6.997-182.998-27.998-340-71.997c-69.004-20-187.002-81.001-272.998-141.001
			c-66.006-46.001-92.002-70-62.998-58.999c8.994,2.998,21.992-1.001,30-8.999c12.998-12.002,2.998-25-72.002-99.004
			c-85-82.998-156.006-133.999-217.002-155.996c-104.004-37.002-250.996-65-319.004-60c-33.994,2.998-55.996,0-55.996-6.001
			c0-5,22.002-31.001,49.004-57.002c40-37.998,60-48.999,106.992-60c64.004-12.998,87.002-26.001,78.008-41.001
			c-5-7.998-45-27.998-64.004-31.997c-2.998-1.001-47.002-23.003-97.998-48.999c-307.998-157.002-528.003-347.002-627.002-542.002
			c-57.002-112.002-147.002-239.004-193.999-272.998c-18.003-12.998-55-31.006-83.999-39.004L3605,12207l43.999-10
			c27.002-5,83.999-5,143.003,0c61.997,5,101.997,5,107.998-1.006c6.001-5.996-17.998-36.992-67.998-86.992
			c-42.002-42.002-91.001-94.004-108.003-115c-115-145-176.001-243.008-226.001-364.004c-25-59.004-35.996-92.998-77.998-229.004
			c-32.002-100.996-92.002-192.998-180-273.994c-63.999-59.004-68.999-76.006-8.999-31.006
			C3337.998,11177.996,3490,11217,3775,11234.998c50,4.004,113.999,10.996,142.998,15.996c43.003,9.004,55,8.008,68.003-5
			c13.999-13.994,10-23.994-37.002-102.998c-27.998-48.994-63.999-103.994-78.999-122.998c-52.998-67.002-102.002-200-158.999-425
			c-36.001-145.996-53.003-264.004-52.002-369.004c0-43.994-6.001-106.992-12.998-141.992l-13.003-62.002l49.004,48.994
			c83.999,84.004,170.996,113.008,383.999,129.004c112.998,7.998,141.997,14.004,219.995,45c49.004,20,93.008,40,98.008,45
			c10.996,10.996,40-15.996,30.996-29.004c-2.998-5-17.002-53.994-30-107.998c-32.998-125.996-42.002-292.002-25-443.994
			c10.996-103.008,19.004-151.006,60.996-339.004c6.006-30,10-55,8.008-55c-2.002,0,5-10,15.996-22.002
			c10-12.002,20-27.998,22.002-35c17.998-78.994,25-113.994,37.998-180.996c7.998-42.002,17.998-85,22.998-94.004
			c7.998-13.994,11.006-12.998,17.002,7.998c15,49.004,95.996,176.006,155,241.006c72.002,80,205.996,173.994,225,157.998
			c7.002-5.996,17.002-62.002,25-132.002c15-155,62.998-365,100-444.999c15-32.998,47.998-92.002,72.002-130
			c23.994-37.002,53.994-83.994,65.996-103.994c12.002-19.004,31.006-44.004,42.998-55c21.006-19.004,22.002-19.004,15,0.996
			c-6.992,25.996,37.002,122.998,61.006,132.002c10,2.998,25,12.002,35,20c12.002,10.996,17.998,10.996,22.998,2.998
			c5.996-9.004,10-9.004,15.996,0.996c6.006,10,20,1.006,56.006-31.992c57.998-53.008,150-123.008,217.998-166.006
			c85-52.998,225-122.998,245-122.998c10,0,20.996-4.004,24.004-9.004c2.998-5,20.996-10.996,40-12.998l32.998-3.994l17.002,71.992
			c8.994,39.004,23.994,81.006,32.998,93.008c13.994,20.996,15.996,20.996,32.998,5.996c40.996-37.002,110-217.002,110-287.002
			c0-20.996,2.998-37.998,7.998-37.998c22.998,0.996,194.004,97.002,257.998,144.004c43.008,32.998,216.006,211.992,298.008,307.998
			l47.998,57.002l35-26.006c38.994-30,58.994-65,70.996-120l7.998-37.998l28.008,40c75.996,110,165,267.002,183.994,324.999
			c32.002,97.002,72.998,312.998,79.004,415c2.998,50,10,95.996,15.996,102.002c15,20,97.998-30,182.998-110
			c84.004-77.998,129.004-136.006,173.008-224.004c17.998-33.994,35.996-65,40.996-67.998s14.004,20.996,20,52.002
			c7.002,32.002,20.996,93.994,32.002,137.998c10,44.004,20,87.002,22.002,97.002c0.996,8.994,6.992,22.002,12.998,30
			c15,18.994,58.994,197.998,77.002,315c18.994,120,21.992,338.994,6.992,437.998c-5.996,39.004-20,100.996-31.992,137.998
			c-18.008,60-18.008,69.004-5,82.998c13.994,13.008,20.996,12.002,65-10c77.998-40,186.992-65.996,272.998-65.996
			c72.002,0,168.994-17.002,247.998-42.998c44.004-14.004,120.996-67.998,155.996-110l27.002-32.002l-7.002,30
			c-3.994,17.002-10.996,92.998-15.996,170c-12.002,180-25,265-60.996,400c-66.006,242.998-108.008,355-154.004,405
			c-12.998,14.004-47.998,67.002-77.998,119.004c-71.005,121.992-67.998,126.992,70,105.996c53.994-7.998,120.996-15,150-15
			c58.994,0,185-15,257.998-32.002c57.998-12.002,172.998-55.996,195-72.998c7.998-5.996,32.998-22.002,55-35
			c35.996-20,30.996-14.004-37.002,55.996c-97.002,101.006-130.996,159.004-180,314.004
			c-82.002,257.998-225,492.002-398.994,654.004c-59.004,55-76.006,75.996-67.002,82.998c7.998,5.996,55,7.002,127.998,0.996
			c115.996-8.994,165-5,155,12.002c-2.998,4.004-20,12.002-37.998,15c-17.002,4.004-44.004,14.004-59.004,20.996
			c-48.994,25-152.002,158.008-208.994,269.004c-80,157.998-181.005,267.002-380,412.998
			c-66.006,47.998-318.008,187.002-369.004,203.003c-50,16.001-62.998,27.998-49.004,45c6.006,7.998,21.006,13.999,33.008,13.999
			c70.996,0,183.994,73.999,198.994,128.999c4.004,17.002,2.002,20-7.002,12.002c-20-16.001-172.998-5-255.996,17.998
			c-40.996,12.002-82.002,23.003-90.996,25c-26.006,7.002-97.002,45-104.004,56.001c-4.004,6.001-10,7.998-14.004,5
			c-5-2.002-52.998,38.999-108.994,92.998c-87.002,84.004-97.998,99.004-86.006,110c8.008,8.003,21.006,11.001,29.004,8.003
			c30-11.001,0.996,26.001-34.004,43.999c-20.996,10-42.998,25-50,33.999c-6.992,8.003-58.994,38.999-113.994,67.002
			c-56.006,27.998-105,56.001-109.004,62.998c-3.994,6.001-7.998,7.002-7.998,1.001c0-5-5-2.998-10,5c-5.996,10-10,11.001-10,2.998
			c0-15-37.998-8.999-120,18.003c-30,8.999-80,21.001-110,23.999c-30,3.999-64.004,8.999-75,12.002
			C6347.001,13923.997,5895,13925.999,5800,13917.996z"/>
	</g>
</g>
<g id="Layer_1">
	<g transform="translate(0.000000,1600.000000) scale(0.100000,-0.100000)">
		<path d="M5807.997,13938.996c-105-8.999-177.001-22.998-282.998-56.001c-140-43.999-249.004-92.998-315-142.998
			c-19.004-13.999-52.002-37.002-72.002-50c-20.996-13.999-40-31.001-42.998-38.999c-7.998-18.999,15-32.002,35.996-20
			c28.008,15,46.006,10,25-6.001c-10.996-7.998-55.996-50-100-93.999c-107.998-105-172.998-136.001-370.996-177.002
			c-37.998-6.997-95.996-13.999-127.002-13.999c-48.994,0-57.998,2.998-57.998,17.998c0,19.004-17.998,42.002-32.002,42.002
			c-10.996,0-10-43.999,2.002-76.001c27.002-68.999,100.996-127.998,187.002-146.997c50-12.002,53.994-14.004,32.998-21.001
			c-14.004-5-27.002-8.999-30-10c-30-11.001-210.996-108.999-274.004-148.003c-186.997-115.996-380.996-298.993-444.995-418.993
			c-18.999-35-48.003-90-65-122.002c-52.002-97.998-128.999-182.998-183.999-202.002c-26.001-9.004-58.003-22.002-72.002-27.998
			c-13.999-6.006-32.002-11.006-40-11.006c-7.998-0.996-15-7.998-15-15.996c0-12.998,25-15,162.002-15h160.996l-66.997-65
			c-62.002-60-122.002-130.996-215-255c-66.001-87.002-171.001-322.998-200-450c-22.002-92.998-101.001-210.996-208.003-309.004
			c-70-65-71.997-67.998-40-61.992c18.003,2.998,53.003,20,78.003,36.992c56.001,38.008,131.997,72.002,208.999,93.008
			c67.998,17.998,295,45.996,372.002,45.996c28.999,0,75,5,102.998,10.996c27.998,6.006,53.999,9.004,57.002,6.006
			c5.996-7.002-99.004-185-127.002-215c-42.002-44.004-106.001-217.002-158.999-427.998c-36.001-145-51.001-249.004-51.001-359.004
			c0-45-7.002-117.002-16.001-159.004c-7.998-41.992-13.999-85.996-11.997-97.998c2.998-20,7.998-15.996,35,27.002
			c17.998,27.998,41.997,59.004,55,70c70.996,60,208.999,99.004,387.998,107.998c90,5,117.998,11.006,195,42.002
			c50,20,97.998,44.004,107.998,52.998c17.002,15,17.002,15,6.006-12.998c-66.006-169.004-84.004-407.002-50-640
			c16.992-112.998,62.998-300,80.996-332.002c17.998-30.996,22.998-50.996,54.004-207.998
			C4500,9002,4507.998,8982,4532.001,8955.994c15.996-16.992,17.998-17.998,17.998-2.998c0,17.998,47.998,112.998,92.002,182.998
			c40,63.008,135.996,157.002,207.998,203.008l65,41.992l17.002-137.998c20-165,60-348.994,92.998-420
			c20.996-45.996,145.996-252.998,177.998-293.994c6.006-8.008,24.004-23.008,37.998-32.002l26.006-17.002L5265,8512
			c-2.998,40,32.002,127.998,50.996,127.998c7.002,0,17.002,7.998,23.008,17.002c6.992,13.994,11.992,15,23.994,3.994
			c12.998-10,15-8.994,10,11.006s-2.002,17.998,27.998-12.002c41.006-42.998,185-154.004,254.003-197.002
			c110.996-68.994,274.004-142.002,317.998-142.998c9.004,0,17.002-4.004,17.002-10c0-5,4.004-10,9.004-10s20,44.004,32.998,97.002
			s27.998,97.998,33.994,100c11.006,3.994,66.006-115,90-192.002c8.008-27.002,14.004-72.002,14.004-102.002
			c0-28.994,5-52.998,10-52.998c5.996,0,10,5,10,10.996c0,5,4.004,8.008,9.004,5c10-6.992,200,95,255.996,137.002
			c22.002,17.002,67.998,60,102.998,96.006c100,105,212.998,227.998,229.004,250l13.994,20.996l28.008-20.996
			c35.996-26.006,51.992-59.004,60-124.004l5.996-50l35.996,35c51.006,50,192.002,282.998,217.002,360
			c32.998,100,72.002,304.004,79.004,412.998c2.998,52.998,7.998,97.002,10,97.002s28.994-15.996,60-35.996
			c67.998-43.008,152.998-122.002,197.002-184.004c40-54.004,105.996-177.002,105.996-197.002c0-7.002,4.004-12.998,9.004-12.998
			c20,0,38.994,30.996,48.994,77.002c6.006,25.996,20,90.996,31.006,142.998c11.992,52.002,20.996,99.004,20,104.004
			c0,5,3.994,11.992,10,15c11.992,7.998,55,153.994,70,236.992c47.998,265,40.996,524.004-18.008,697.002
			c-10.996,32.002-16.992,57.002-12.998,55c4.004-2.002,30-15,59.004-30c77.002-40.996,185.996-67.998,275-67.998
			c102.002,0,227.002-27.998,302.998-67.002c32.002-17.002,87.002-70.996,120.996-117.998c12.002-17.002,25-27.002,28.008-24.004
			c3.994,4.004,0,40-8.008,80c-8.994,41.006-16.992,126.006-20,189.004c-5.996,142.998-20,235-55.996,370
			c-70,257.002-109.004,359.004-155,410c-12.998,14.004-42.998,59.004-67.002,100c-23.994,40.996-52.998,87.998-63.994,105
			c-19.004,29.004-19.004,29.004,0.996,20.996c35-12.998,109.004-25,195.996-30.996c153.008-10,283.008-27.002,349.004-45
			s160.996-57.002,170-70c12.002-15.996,100.996-60.996,115.996-57.998c14.004,2.998,13.008,5-2.998,20
			c-57.002,55-155,157.002-167.002,172.998c-38.994,57.998-75.996,140.996-100,225c-70.996,247.998-218.994,489.004-408.994,665.996
			l-62.002,59.004l159.004-2.998c120.996-2.998,160.996,0,166.992,8.994c10,17.002,2.002,29.004-20.996,29.004
			c-10.996,0-34.004,5.996-52.002,14.004c-17.998,7.998-47.998,20-67.002,26.992c-58.994,22.002-131.992,117.002-231.992,304.004
			c-64.004,117.998-165,225.995-324.004,345.995c-102.002,77.002-300,193.003-402.998,235.005c-40,16.997-50,23.999-32.002,23.999
			c82.998,0,204.004,86.001,225.996,160c18.008,62.998-6.992,100-26.992,40l-11.006-30l-85.996,3.999
			c-47.998,2.002-121.006,13.003-162.002,25c-40.996,12.002-82.002,23.003-90,25c-62.998,17.002-135,65-230,157.002
			c-65.996,62.998-94.004,95-74.004,85c34.004-17.002,58.008-8.003,48.008,17.998c-6.006,16.001-96.006,81.001-176.006,128.999
			c-90.996,54.004-367.998,140-487.998,152.002C6294.999,13943.996,5909.003,13946.999,5807.997,13938.996z M6439.999,13883.996
			c189.004-28.999,415.996-107.998,402.998-140c-2.998-7.998,0-13.999,5-13.999c6.006,0,12.998-8.999,17.002-20
			c2.998-10,55-62.998,115-116.001c60-52.998,112.002-103.999,115-112.998c7.002-22.002,95-88.003,165-123.003
			c60-30,207.002-57.998,302.998-57.998c31.006,0,57.002-2.998,57.002-6.001c0-12.998-45.996-46.997-87.998-66.001
			c-24.004-10.996-80-21.997-124.004-25.996c-92.998-8.003-110-24.004-50.996-48.003c20.996-7.998,55.996-22.998,77.998-32.998
			s50.996-22.002,65-26.001c49.004-13.999,267.002-140.996,300-175c2.998-2.998,30-24.004,60.996-47.998
			c31.006-22.998,103.008-90,160-149.004c92.002-94.999,114.004-123.993,175-237.001c76.006-140.996,135-215.996,198.008-248.994
			c36.992-19.004,38.994-22.002,17.998-25c-42.002-6.006-225,17.998-241.006,32.002c-30.996,26.992-262.998,125.996-295,125.996
			c-5.996,0,41.006-25.996,105-57.998c64.004-32.002,136.006-74.004,160-92.002c163.008-127.002,306.006-265,368.008-354.004
			c45.996-66.992,140.996-258.994,140.996-285c0-5.996,5.996-21.992,14.004-33.994c6.992-12.002,25.996-67.002,40.996-122.002
			c25.996-94.004,45.996-144.004,65.996-169.004c17.002-20,58.008-85.996,54.004-85.996c-2.002,0-15.996,5-32.002,10.996
			c-115,45-192.998,60-352.998,69.004c-90.996,5-195.996,15.996-235,25c-67.998,15.996-72.002,19.004-147.002,100
			c-52.002,55-112.998,105.996-185,154.004c-60,40-92.002,60-72.998,45c72.002-56.006,269.004-266.006,330.996-353.008
			c114.004-160.996,213.008-361.992,263.008-530.996c35.996-122.998,65.996-290,65.996-372.998
			c0.996-40,7.002-102.998,14.004-142.002c7.998-37.998,12.998-70.996,10.996-72.998s-27.002,12.002-57.002,32.002
			c-28.994,20-60,35.996-67.998,35.996c-9.004,0-20,4.004-25.996,9.004c-26.006,23.994-113.008,40.996-214.004,40.996
			c-177.002,0-272.002,35.996-450,169.004c-57.998,43.994-107.002,76.992-110,73.994c-2.998-2.002,2.002-10,10.996-15.996
			c28.008-21.006,121.006-150,140-195c63.008-146.006,86.006-384.004,55-567.998c-20-117.002-61.992-287.002-80.996-329.004
			c-14.004-30.996-32.002-85.996-60-187.002c-15-55-35-85.996-35-53.994c0,28.994-210,228.994-277.002,263.994
			c-37.998,20-78.994,52.002-103.994,82.998c-23.008,27.002-44.004,48.008-45,46.006c-2.002-2.002,2.998-27.002,10.996-57.002
			c9.004-30,15.996-82.002,15.996-115c2.002-120.996-62.998-440-106.992-527.998c-18.008-36.006-123.008-195-141.006-214.004
			c-17.998-18.994-20.996-17.002-47.002,35c-12.998,26.006-37.998,60-53.994,75l-30,29.004l-29.004-32.998
			c-158.994-184.004-283.994-304.004-385.996-372.002c-47.002-31.006-89.004-57.002-92.998-57.002
			c-4.004,0-16.006-7.002-26.006-17.002c-10-8.994-20-13.994-20.996-12.002c-2.002,2.002-29.004,55-61.006,118.008
			c-60,120-108.994,190.996-130.996,190.996c-7.002,0-17.998,5.996-24.004,14.004c-12.998,15-60.996,27.998-60.996,15
			c0-4.004,5-9.004,10.996-11.006c16.006-5,17.002-37.998,2.002-87.002c-7.002-23.994-12.998-58.994-12.998-77.998
			c0-20.996-5-32.998-12.998-32.998c-25,0-132.002,40-157.998,59.004c-14.004,10.996-72.002,45.996-128.008,80
			c-112.998,66.992-192.998,125.996-280.996,206.992c-32.998,31.006-60.996,50-65,44.004c-2.998-5-4.004-14.004-0.996-17.998
			c2.998-5-7.002-21.006-22.002-35c-16.006-15-39.004-49.004-52.998-77.002c-25-52.998-32.002-57.002-49.004-37.002
			c-19.004,21.006-120.996,180-140,217.002c-27.998,57.002-67.998,215-90.996,364.004c-22.002,140.996-21.006,183.994,6.992,310.996
			l7.002,30l-18.994-20.996c-11.006-12.002-30-35-44.004-51.006c-14.004-15.996-47.002-42.002-75-57.002
			c-62.998-35.996-130.996-90-170-135c-15.996-18.994-49.004-51.992-72.002-73.994c-23.994-22.002-45-49.004-48.994-59.004
			c-10-32.002-21.006-8.994-48.008,94.004c-13.994,53.994-33.994,117.002-45,140C4450,9399.998,4415,9535.994,4395,9649.998
			c-34.004,192.002-27.998,352.002,20,512.998c27.002,92.998,60.996,154.004,137.998,250c26.006,31.006,45,57.002,42.002,57.002
			c-2.002,0-50.996-35-107.002-77.998c-95.996-72.002-155.996-107.002-252.998-147.998c-27.998-12.002-86.001-18.008-195-23.008
			l-155-6.992l-85-42.002c-47.002-22.998-96.001-50-108.999-59.004l-23.999-17.998l6.997,35
			c13.003,64.004,27.002,190.996,22.002,199.004c-16.001,25,63.999,391.992,103.999,475.996c10,22.002,28.999,65,41.001,95
			c96.001,227.998,271.997,465,483.999,649.004c59.004,50.996,49.004,46.992-69.004-33.008
			c-48.994-32.998-111.997-87.998-143.994-123.994c-31.001-36.006-64.004-72.998-73.003-82.998
			c-26.997-27.002-151.001-50-318.999-59.004s-212.998-17.002-316.001-54.004c-37.998-13.994-68.999-23.994-70-22.998
			c-1.997,1.006,17.002,32.998,41.001,70c27.002,42.998,51.001,96.006,65,149.004c66.001,247.002,181.001,467.002,312.998,600
			c96.001,97.998,318.003,277.998,341.001,277.998c3.999,0,18.999,7.998,33.003,17.002c15,10,58.999,32.998,97.002,50.996
			c77.998,37.002,46.992,34.004-54.004-3.994c-85-33.008-148.999-63.008-181.001-85c-26.997-19.004-172.998-43.008-230-37.002
			l-33.999,2.998l57.998,37.998c64.004,41.006,99.004,85,165,209.004c78.003,147.998,90,163.994,184.004,259.999
			c98.994,100,205,188.994,302.998,252.998c67.002,45,262.998,145,282.998,145c25,0,112.998,51.001,109.004,62.998
			c-2.002,7.002-37.002,15-85,19.004c-89.004,8.999-155,33.999-192.002,73.999l-22.998,23.999h63.994
			c75,0,203.008,21.001,274.004,45c47.998,17.002,185,108.999,185,125c0,11.001,42.998,55,129.004,130
			c95,82.998,106.992,96.001,125,135c11.992,26.001,30,37.998,87.998,62.998c192.998,80,320.996,99.004,687.998,100
			C6265.995,13897.995,6372.997,13893.996,6439.999,13883.996z"/>
		<path d="M5994.003,13699.997c-68.008-6.001-108.008-15-161.006-38.999c-38.994-17.002-75.996-31.001-80.996-31.001
			s-36.006-17.002-69.004-38.999c-85-55-190-156.001-197.998-190c-7.998-36.001-82.998-158.999-137.002-223.003
			c-48.994-58.999-77.998-75-170.996-93.999c-39.004-7.998-75-16.997-79.004-20c-15.996-10,22.002-41.997,69.004-59.995
			c23.994-9.004,40-20,35.996-24.004c-3.994-2.998-45.996-20.996-92.998-40c-112.002-44.004-209.004-107.998-295-195
			c-95.996-95.995-109.004-112.997-165-217.997c-47.002-90-97.002-229.004-125.996-354.004
			c-27.002-115.996-73.008-193.994-171.006-290.996c-35-35-62.998-67.002-60.996-72.002s38.994,12.002,83.994,37.998
			c45,26.006,105,54.004,135,61.006c30,7.998,82.002,25.996,116.006,40.996c37.998,17.998,75.996,27.002,100.996,27.002
			c22.002-1.006,37.998,2.002,35,7.002c-3.994,5,7.002,5.996,22.998,1.992c18.008-3.994,24.004-2.998,16.006,2.002
			c-9.004,6.006,8.994,14.004,53.994,25c73.008,19.004,85,16.006,61.006-10c-7.998-10-41.006-52.998-72.002-97.002
			c-45-63.994-60.996-96.992-85-180c-55-190-135-383.994-180-436.992c-22.998-27.002-39.004-53.008-35.996-58.008
			c2.998-5,56.992,11.006,117.998,35c98.994,39.004,220.996,69.004,310.996,76.006c34.004,2.998,35,15.996,2.002,23.994
			c-49.004,12.002-250-30-317.002-65.996c-17.002-10-35.996,4.004-20,14.004c27.002,15.996,96.006,187.998,152.002,375.996
			c35.996,122.998,37.002,125,77.998,190c62.998,97.998,142.998,189.004,226.006,257.002c93.994,77.002,123.994,105,85.996,80
			c-14.004-9.004-42.998-25-65.996-37.002c-22.002-10.996-58.008-35-80-54.004c-29.004-23.994-53.008-35-92.002-40
			c-57.002-6.992-204.004-48.994-236.006-66.992c-10-6.006-63.994-26.006-120-44.004c-55-17.998-110-35.996-120.996-40.996
			c-19.004-8.008-20-7.002-2.002,15.996c27.002,37.998,87.002,157.998,87.002,172.998c0,46.006,85,297.998,132.002,392.002
			c68.994,137.002,222.002,287.001,365.996,359.003c85,42.998,202.002,85,217.998,78.994c9.004-2.998,14.004,2.002,14.004,16.006
			c0,12.998-9.004,25-22.002,30s-42.998,17.998-67.998,28.994l-45,19.004l57.998,12.998c85,20,154.004,65,199.004,130
			c62.002,90,115.996,183.999,123.994,213.999c8.008,35,139.003,146.001,218.007,186.001c32.998,17.002,66.992,37.002,75.996,45
			c27.002,23.999,162.998,37.998,315,31.001c169.004-7.002,169.004-7.002,194.004-30c10.996-10,42.998-28.999,71.992-42.002
			c82.002-38.999,229.004-161.997,229.004-192.998c0-28.003,135.996-241.001,174.004-273.003
			c27.998-21.997,100.996-55,155.996-68.999l45-11.997l-65-31.006c-70-33.994-92.002-65-42.998-63.994
			c60,2.002,268.994-100,362.002-177.002c71.992-59.004,176.992-187.997,215.996-264.999c47.002-94.004,125-325,125-372.002
			c0-20,75.996-173.994,89.004-182.998c5.996-2.998,8.994-10,6.992-14.004c-5-6.992-175,48.008-305.996,98.008
			c-30,11.992-97.002,30-149.004,40.996c-85,17.002-120,34.004-150.996,70.996c-2.998,4.004-25,16.006-50,29.004
			c-25,12.002-52.998,29.004-62.998,37.998c-9.004,7.998-19.004,12.998-21.006,11.006c-2.998-3.008,27.002-29.004,66.006-59.004
			c155-122.002,288.994-297.002,327.998-430c60-209.004,129.004-384.004,172.002-437.002c13.994-17.998-2.002-17.002-40,2.002
			c-44.004,22.998-217.998,65-261.006,64.004c-30.996,0-85-15-70.996-19.004c17.002-5,52.002-10.996,100-15.996
			c65.996-8.008,177.002-41.006,280-82.002c40.996-17.002,77.998-27.998,82.002-25c7.998,3.994,3.994,10.996-54.004,83.994
			c-37.002,47.002-117.998,260-172.002,449.004c-13.994,47.998-57.998,120.996-143.994,237.998
			c-12.998,17.998-19.004,32.002-15,32.002c5,0,47.002-10.996,93.994-25c46.006-12.998,98.008-25,116.006-25
			c17.002,0,53.994-10.996,80.996-25c27.998-14.004,65-27.998,84.004-30.996c42.998-9.004,138.994-52.002,202.998-92.002
			c27.002-17.002,52.998-27.998,57.998-25s-28.994,43.994-75.996,92.002c-92.002,95-135,170.996-157.002,275.996
			c-19.004,95.996-77.998,262.998-122.998,350c-102.002,195.995-277.998,352.001-477.998,422.001
			c-44.004,15.996-79.004,30.996-79.004,33.994c0,4.004,22.002,16.006,49.004,28.008c40,16.997,60.996,35.996,60.996,55.996
			c0,2.002-19.004,6.001-42.002,10c-107.998,17.998-162.998,42.998-203.994,91.001c-57.002,68.999-103.008,138.999-135,207.998
			c-15,33.999-38.008,72.002-51.006,86.001c-37.998,42.002-143.994,130-155,130c-5.996,0-12.998,3.999-15,7.998
			c-3.994,10-102.002,52.002-122.002,52.002c-8.994,0-15.996,3.999-15.996,8.999c0,12.002-110.996,38.999-180,43.999
			C6109.999,13704.997,6044.003,13703.996,5994.003,13699.997z"/>
		<path d="M4415,11619.998c-2.998-5.996,0.996-7.002,9.004-4.004c17.998,7.002,20.996,14.004,6.992,14.004
			C4425,11629.998,4417.998,11625.994,4415,11619.998z"/>
		<path d="M5099.003,11410.994c-30-26.992-48.008-50-42.002-53.994c10-6.006,15.996-1.006,72.998,62.998
			c29.004,32.002,30.996,32.998,25,10c-40-162.002-42.998-229.004-19.004-384.004c14.004-95,49.004-200,83.008-255
			c18.994-30,50-145,50.996-185.996c0-15.996,4.004-37.002,10-45c7.002-12.002,10-10.996,15.996,5
			c22.002,57.998,148.008,190,213.008,225c30.996,15.996,35.996,10,130-149.004c66.992-112.998,161.992-233.994,167.998-213.994
			c2.002,5-25,52.998-59.004,105.996c-35,52.998-90,142.002-122.998,197.002c-65.996,110-75.996,115-142.998,80.996
			c-46.006-22.998-137.998-115-161.006-158.994l-16.992-34.004l-12.002,52.998c-7.002,29.004-27.998,87.002-47.002,129.004
			c-75,167.002-110,399.004-80.996,545c8.994,44.004,15.996,85,15.996,90.996C5180,11464.998,5147.998,11454.998,5099.003,11410.994
			z"/>
		<path d="M6974.003,11432.996c35.996-125,32.998-312.002-8.008-472.002c-15-56.992-35.996-120.996-45.996-140.996
			c-30-57.998-60-142.998-60-167.002c0-30-14.004-28.994-27.998,2.002c-27.998,60.996-157.002,169.004-212.002,177.002
			c-15.996,2.002-29.004-2.998-35-14.004c-97.998-160.996-160-260-212.998-337.002l-64.004-93.994l46.006,37.998
			c45.996,37.002,132.998,160,210.996,297.002c20.996,37.002,45,70,52.998,72.998c31.006,12.002,157.002-102.002,217.002-197.002
			c17.002-25.996,32.998-47.002,37.998-47.998c4.004,0,7.002,14.004,7.002,32.002c0,45,40,187.998,60,217.998
			c10,14.004,20.996,35.996,25,50s10.996,30,15.996,35.996c5,6.006,18.008,57.002,29.004,113.008
			c25,125,27.002,287.998,4.004,372.998c-8.008,32.998-13.008,62.002-11.006,65c2.998,2.002,19.004-14.004,37.002-36.006
			c35-42.998,60-58.994,60-35.996c0,15.996-85,77.998-112.998,82.002C6974.003,11449.002,6969.999,11444.998,6974.003,11432.996z"/>
		<path d="M5972.997,10444.998c-45-19.004-92.998-65-92.998-89.004c0-18.994,2.002-17.998,27.998,6.006
			c15,13.994,39.004,32.998,52.998,42.002c26.006,15.996,26.006,15.996,57.002-35c21.006-33.008,32.002-63.008,32.002-88.008
			c0-35,2.002-37.998,30.996-37.998c29.004,0,30,2.002,24.004,34.004c-5,27.998,0,42.998,24.004,80
			c16.992,25.996,30.996,50,30.996,55c0,12.002,52.002-16.006,74.004-41.006c23.994-26.992,37.998-26.992,55,2.002
			c12.998,19.004,11.992,21.006-1.006,10c-12.002-10-18.994-7.998-40.996,15c-64.004,67.002-132.998,77.002-161.006,24.004
			c-8.994-16.006-15-21.006-15.996-11.006c0,19.004-30.996,49.004-50.996,49.004
			C6010.995,10459.002,5990.995,10452.996,5972.997,10444.998z M6034.003,10434.002c3.994-10,0.996-14.004-6.006-12.002
			c-15,5-22.998,27.998-10,27.998C6022.997,10449.998,6030.995,10442.996,6034.003,10434.002z M6144.003,10429.002
			c-3.008-5-10-7.002-15-3.008c-5,3.008-7.002,10-3.008,15c3.008,5,10,7.002,15,3.008
			C6145.995,10440.994,6147.997,10434.002,6144.003,10429.002z"/>
		<path d="M5834.999,10399.998c10-10.996,20-20,22.998-20s-2.998,9.004-12.998,20s-20,20-22.998,20
			S5824.999,10410.994,5834.999,10399.998z"/>
	</g>
</g>
</svg>
