<svg version="1.0" xmlns="http://www.w3.org/2000/svg"
 width="1200.000000pt" height="1600.000000pt" viewBox="0 0 1200.000000 1600.000000"
 preserveAspectRatio="xMidYMid meet">

<g transform="translate(0.000000,1600.000000) scale(0.100000,-0.100000)"
fill="#000000" stroke="none">
<path d="M5995 12251 c-52 -14 -111 -49 -143 -85 -38 -43 -60 -131 -44 -173 6
-15 11 -48 11 -73 0 -25 5 -61 11 -80 16 -54 14 -56 -52 -88 -60 -27 -228
-155 -228 -172 0 -15 -145 -79 -176 -78 -49 2 -74 -23 -36 -36 9 -3 37 -17 62
-31 25 -13 53 -25 63 -25 9 0 17 -7 17 -16 0 -12 5 -14 18 -8 18 8 31 8 97 5
22 -1 76 5 120 14 119 24 171 29 179 16 4 -6 17 -11 29 -11 12 0 36 -9 52 -20
23 -15 47 -20 100 -20 53 0 77 5 100 20 17 11 40 20 52 20 12 0 25 5 28 10 8
13 60 13 105 0 19 -6 73 -15 119 -20 46 -6 92 -15 101 -20 16 -8 80 7 96 23 4
4 17 7 28 7 13 1 30 15 43 36 22 34 22 35 3 54 -11 11 -29 20 -41 20 -11 0
-33 8 -47 19 -15 10 -40 22 -57 28 -20 6 -36 22 -48 46 -19 41 -60 71 -169
126 -81 40 -76 29 -64 151 4 36 12 81 18 101 8 27 7 50 -2 89 -25 102 -117
169 -244 175 -39 3 -84 1 -101 -4z"/>
</g>
</svg>
