<?xml version="1.0" standalone="no"?>
<!DOCTYPE svg PUBLIC "-//W3C//DTD SVG 20010904//EN"
 "http://www.w3.org/TR/2001/REC-SVG-20010904/DTD/svg10.dtd">
<svg version="1.0" xmlns="http://www.w3.org/2000/svg"
 width="1200.000000pt" height="1600.000000pt" viewBox="0 0 1200.000000 1600.000000"
 preserveAspectRatio="xMidYMid meet">

<g transform="translate(0.000000,1600.000000) scale(0.100000,-0.100000)"
fill="#000000" stroke="none">
<path d="M5750 9630 c-86 -4 -150 -12 -177 -22 -49 -19 -193 -135 -193 -155 0
-11 4 -11 23 -2 21 12 21 11 7 -7 -8 -10 -34 -41 -58 -68 -24 -27 -55 -70 -69
-95 -14 -25 -57 -98 -94 -162 -38 -64 -82 -145 -99 -180 -16 -35 -29 -60 -30
-55 0 5 -9 1 -19 -8 -25 -23 -35 -64 -20 -82 20 -24 -4 -15 -33 13 -27 25 -28
26 -47 9 -21 -19 -38 -117 -41 -233 0 -12 -13 -36 -30 -53 -22 -23 -30 -40
-30 -68 0 -25 -8 -46 -25 -66 -14 -16 -25 -32 -25 -36 0 -4 -16 -25 -34 -46
-75 -84 -89 -102 -147 -179 -32 -44 -68 -98 -79 -120 -11 -22 -40 -71 -65
-110 -25 -38 -49 -79 -54 -90 -5 -11 -30 -51 -55 -88 -25 -38 -46 -72 -46 -76
0 -5 -15 -28 -33 -52 -40 -52 -137 -215 -137 -230 0 -5 -10 -26 -23 -47 -13
-20 -35 -62 -49 -92 -14 -30 -44 -93 -67 -140 -48 -101 -101 -244 -101 -275 0
-11 -4 -25 -9 -30 -17 -17 -51 -157 -66 -269 -17 -127 -20 -399 -5 -513 13
-99 32 -152 86 -233 46 -72 68 -95 92 -95 10 0 19 -14 24 -38 8 -37 70 -161
112 -223 58 -86 164 -170 225 -179 14 -2 40 -7 56 -10 38 -8 74 19 200 149
l90 93 102 11 c95 10 106 9 162 -11 78 -28 146 -81 166 -130 8 -21 18 -78 22
-127 5 -83 8 -89 30 -95 19 -4 36 7 93 64 66 65 89 111 58 111 -9 0 -8 3 2 10
10 6 22 4 37 -5 12 -8 29 -15 37 -15 27 0 130 125 170 206 21 43 44 86 51 94
35 41 104 230 150 413 14 55 23 70 45 82 15 8 33 27 39 42 7 15 19 40 27 55
28 52 35 187 24 472 -18 436 -26 537 -45 586 -13 35 -16 68 -13 145 3 85 8
110 32 163 49 106 139 166 215 143 78 -23 139 -100 171 -214 15 -56 10 -221
-9 -255 -14 -27 -29 -274 -38 -649 -6 -289 1 -370 38 -418 11 -13 19 -28 19
-33 0 -5 6 -15 14 -22 8 -6 12 -18 9 -26 -3 -8 1 -22 10 -32 8 -9 27 -57 42
-107 52 -176 69 -221 118 -325 77 -161 134 -245 188 -275 73 -42 91 -46 111
-29 13 12 18 13 18 4 0 -55 130 -198 169 -185 16 5 19 19 23 103 6 123 26 166
100 214 80 51 115 60 205 52 43 -4 85 -8 93 -10 8 -1 23 -3 32 -3 15 -1 88
-64 88 -76 0 -10 89 -92 94 -87 4 3 6 -2 6 -11 0 -10 4 -17 8 -17 5 0 19 -10
32 -22 14 -13 27 -23 30 -24 3 0 12 -4 20 -7 17 -7 39 -5 58 6 6 5 16 6 21 3
11 -7 123 47 167 79 26 20 144 200 144 221 0 4 6 15 14 23 8 9 20 41 28 71 11
46 17 55 36 56 12 1 24 3 26 5 38 47 99 153 114 201 44 136 54 372 25 603 -18
148 -73 346 -130 471 -13 28 -23 53 -23 57 0 3 -18 45 -41 94 -22 48 -47 104
-56 123 -9 19 -20 42 -25 50 -5 8 -20 38 -34 65 -33 65 -122 211 -194 320 -22
33 -43 67 -47 75 -7 17 -97 162 -125 202 -10 15 -22 38 -27 50 -5 13 -37 63
-72 111 -35 48 -74 101 -86 118 -12 16 -33 39 -46 50 -14 10 -37 40 -52 65
-15 25 -36 55 -46 65 -11 11 -19 33 -19 53 0 22 -8 41 -24 58 -19 18 -26 39
-31 88 -12 123 -27 199 -41 211 -12 10 -21 6 -47 -19 l-33 -32 4 35 c4 36 -21
90 -38 80 -5 -3 -25 29 -45 70 -71 148 -255 445 -276 445 -4 0 -18 14 -30 31
l-22 31 21 -11 c47 -25 21 16 -45 74 -102 87 -130 97 -318 106 -183 8 -439 8
-635 -1z m604 -3566 c4 -10 1 -14 -6 -12 -15 5 -23 28 -10 28 5 0 13 -7 16
-16z"/>
</g>
</svg>
