<?xml version="1.0" standalone="no"?>
<!DOCTYPE svg PUBLIC "-//W3C//DTD SVG 20010904//EN"
 "http://www.w3.org/TR/2001/REC-SVG-20010904/DTD/svg10.dtd">
<svg version="1.0" xmlns="http://www.w3.org/2000/svg"
 width="1200.000000pt" height="1600.000000pt" viewBox="0 0 1200.000000 1600.000000"
 preserveAspectRatio="xMidYMid meet">

<g transform="translate(0.000000,1600.000000) scale(0.100000,-0.100000)"
fill="#000000" stroke="none">
<path d="M5779 9633 l-106 -4 -6 -45 c-3 -30 -15 -58 -35 -82 -41 -52 -78
-129 -87 -179 -3 -23 -20 -61 -37 -84 -49 -68 -98 -179 -98 -223 0 -24 10 -56
25 -83 47 -79 77 -173 79 -248 1 -61 7 -79 41 -140 27 -48 42 -88 46 -125 3
-30 18 -95 33 -145 15 -49 30 -122 33 -160 5 -63 2 -79 -26 -148 -26 -66 -31
-92 -31 -160 0 -82 -21 -212 -42 -251 -6 -12 -18 -28 -28 -36 -10 -8 -20 -33
-23 -55 -6 -39 -5 -40 45 -70 67 -40 116 -97 163 -192 32 -63 40 -91 43 -151
4 -70 5 -72 38 -88 30 -15 74 -80 74 -111 0 -6 7 -16 16 -24 24 -20 36 7 29
66 -3 28 -9 95 -14 150 -6 55 -18 120 -27 145 -13 33 -18 76 -18 165 -1 115 0
123 31 186 51 107 137 163 212 140 77 -23 131 -91 171 -215 16 -51 8 -216 -15
-276 -14 -39 -21 -87 -41 -300 -6 -55 7 -80 30 -61 9 8 16 18 16 24 0 6 10 31
21 55 15 30 32 49 54 58 32 13 33 15 37 86 8 130 97 278 206 343 50 30 51 31
45 70 -3 22 -13 47 -23 55 -10 8 -23 25 -29 37 -21 40 -41 164 -41 248 0 70
-5 96 -31 162 -29 71 -31 85 -26 153 3 41 20 120 37 174 16 55 30 115 30 134
0 23 15 62 42 111 37 66 42 85 44 142 2 77 23 148 70 238 21 39 34 78 34 100
0 41 -51 155 -99 221 -17 24 -31 48 -31 55 0 36 -37 124 -77 182 -30 45 -48
81 -51 109 l-4 41 -157 6 c-150 7 -315 6 -542 0z"/>
<path d="M5411 7690 c-25 -34 -53 -66 -63 -71 -25 -13 -13 -29 21 -29 93 0
152 80 104 139 -18 22 -18 22 -62 -39z"/>
<path d="M6676 7729 c-45 -65 11 -139 105 -139 31 0 48 17 25 26 -8 3 -34 31
-57 62 -24 32 -46 61 -50 65 -4 5 -14 -2 -23 -14z"/>
<path d="M5650 6952 c0 -21 8 -37 26 -51 15 -12 30 -21 35 -21 14 0 -11 57
-37 81 l-24 22 0 -31z"/>
<path d="M6473 6958 c-25 -27 -47 -78 -33 -78 5 0 21 10 35 23 20 16 26 30 23
51 l-3 28 -22 -24z"/>
</g>
</svg>
