<?xml version="1.0" standalone="no"?>
<!DOCTYPE svg PUBLIC "-//W3C//DTD SVG 20010904//EN"
 "http://www.w3.org/TR/2001/REC-SVG-20010904/DTD/svg10.dtd">
<svg version="1.0" xmlns="http://www.w3.org/2000/svg"
 width="1200.000000pt" height="1600.000000pt" viewBox="0 0 1200.000000 1600.000000"
 preserveAspectRatio="xMidYMid meet">

<g transform="translate(0.000000,1600.000000) scale(0.100000,-0.100000)"
fill="#000000" stroke="none">
<path d="M5334 14605 c3 -27 8 -67 12 -89 3 -21 2 -55 -4 -75 -5 -20 -15 -58
-22 -86 -6 -29 -23 -63 -39 -80 -29 -31 -80 -106 -105 -153 -33 -62 -114 -132
-198 -171 -87 -41 -122 -54 -150 -56 -9 -1 -34 -18 -55 -37 -21 -20 -51 -48
-67 -62 -16 -14 -25 -26 -20 -26 5 0 2 -6 -6 -13 -24 -19 -51 -67 -45 -77 3
-6 2 -10 -4 -10 -5 0 -13 -10 -17 -22 -3 -13 -16 -43 -27 -67 -15 -31 -17 -46
-9 -49 7 -2 9 -15 5 -33 -3 -16 -1 -29 4 -29 6 0 27 -43 48 -95 21 -53 44 -99
52 -104 8 -4 14 -11 14 -14 -2 -16 45 -74 80 -99 42 -30 97 -49 85 -29 -4 6
-3 11 3 11 5 0 12 -4 15 -9 3 -5 21 -9 38 -9 18 0 62 -8 98 -16 36 -9 79 -16
97 -16 17 0 35 -4 38 -10 10 -17 61 -11 78 8 10 10 25 41 34 67 15 46 15 50
-1 59 -53 32 -52 31 -12 70 31 29 37 40 32 61 -4 14 -3 26 1 26 5 1 18 3 31 4
37 4 38 14 9 66 -32 59 -33 69 -6 103 24 30 18 46 -17 46 -13 0 -24 2 -24 5 0
12 32 67 83 144 111 168 116 181 128 320 14 155 3 249 -48 407 -30 95 -41 118
-75 150 l-40 39 6 -50z"/>
<path d="M6772 14607 c-38 -39 -93 -200 -112 -328 -17 -116 -1 -340 28 -379
11 -14 29 -46 42 -70 12 -25 41 -72 65 -105 40 -57 75 -117 75 -130 0 -3 -11
-5 -24 -5 -30 0 -54 -25 -31 -34 8 -3 20 -18 26 -33 9 -24 6 -36 -18 -80 -15
-28 -25 -55 -21 -58 6 -6 30 -13 54 -14 7 -1 9 -12 6 -26 -3 -20 4 -33 34 -61
40 -39 41 -38 -12 -70 -16 -9 -16 -13 -1 -59 9 -26 24 -57 34 -67 17 -19 68
-25 78 -8 3 6 21 10 38 10 18 0 69 9 114 19 45 10 85 16 88 13 3 -3 16 1 29 8
14 7 38 10 54 7 24 -5 35 0 65 31 55 56 98 110 101 124 1 7 14 39 29 72 15 32
27 62 27 66 0 4 9 17 20 30 20 23 29 100 12 100 -4 0 -8 8 -9 18 -2 28 -22 72
-32 72 -6 0 -8 7 -5 15 4 8 1 15 -6 15 -6 0 -8 5 -5 10 3 6 1 10 -5 10 -6 0
-9 4 -5 9 3 6 -5 19 -17 30 -12 12 -18 21 -14 21 5 0 -22 29 -58 65 -37 36
-71 63 -76 60 -6 -4 -10 -2 -10 2 0 5 -8 9 -17 10 -32 3 -161 61 -208 93 -25
17 -45 28 -45 25 0 -13 -76 90 -123 166 -26 42 -56 84 -67 94 -31 28 -71 179
-64 240 2 17 7 51 10 78 3 26 2 47 -3 47 -5 0 -23 -15 -41 -33z"/>
</g>
</svg>
