<svg width="2400" height="3200" xmlns="http://www.w3.org/2000/svg" viewBox="0 0 2400 3200"><path d="M 964.3 1245.0 C 963.58 1245.0 963.0 1244.74 963.0 1244.42 C 963.0 1244.1 964.96 1239.9 967.36 1235.08 C 969.75 1230.25 972.61 1225.0 973.71 1223.4 C 974.81 1221.81 976.46 1219.38 977.38 1218.0 C 978.3 1216.62 980.56 1213.25 982.41 1210.5 C 984.27 1207.75 986.62 1204.48 987.64 1203.24 C 988.66 1202.0 990.76 1199.3 992.31 1197.24 C 993.85 1195.18 997.6 1190.35 1000.63 1186.5 C 1003.66 1182.65 1006.84 1178.15 1007.71 1176.5 C 1008.57 1174.85 1009.6 1173.28 1009.98 1173.0 C 1010.37 1172.72 1012.41 1170.03 1014.52 1167.0 C 1016.64 1163.97 1019.86 1159.42 1021.68 1156.88 C 1023.51 1154.34 1025.0 1151.99 1025.0 1151.65 C 1025.0 1151.31 1026.61 1148.52 1028.59 1145.43 C 1030.56 1142.35 1034.21 1135.93 1036.7 1131.16 C 1039.18 1126.4 1042.91 1119.58 1044.97 1116.0 C 1047.04 1112.42 1049.5 1107.7 1050.44 1105.5 C 1051.38 1103.3 1052.79 1100.15 1053.57 1098.5 C 1054.36 1096.85 1055.77 1093.03 1056.71 1090.0 C 1058.04 1085.72 1058.39 1081.16 1058.28 1069.5 C 1058.19 1059.88 1057.58 1052.17 1056.58 1048.0 C 1055.73 1044.42 1055.02 1040.91 1055.01 1040.19 C 1055.01 1039.47 1055.41 1039.14 1055.92 1039.45 C 1056.43 1039.76 1058.51 1045.08 1060.55 1051.26 C 1062.59 1057.44 1064.91 1063.24 1065.7 1064.15 C 1066.89 1065.53 1066.95 1067.11 1066.03 1073.65 C 1065.42 1077.97 1064.5 1084.73 1063.99 1088.68 C 1063.38 1093.47 1061.92 1098.14 1059.63 1102.68 C 1057.75 1106.43 1055.87 1111.06 1055.47 1112.96 C 1055.08 1114.86 1053.47 1118.79 1051.9 1121.69 C 1050.33 1124.59 1047.16 1130.01 1044.87 1133.73 C 1042.57 1137.45 1039.21 1142.97 1037.41 1146.0 C 1035.62 1149.03 1032.42 1154.19 1030.32 1157.47 C 1028.22 1160.75 1025.58 1165.03 1024.47 1166.97 C 1023.35 1168.91 1021.1 1172.48 1019.47 1174.89 C 1017.83 1177.31 1015.3 1181.11 1013.82 1183.35 C 1012.35 1185.58 1010.55 1188.27 1009.82 1189.32 C 1009.1 1190.37 1006.25 1194.17 1003.5 1197.78 C 1000.75 1201.38 995.9 1207.9 992.73 1212.26 C 989.56 1216.61 985.03 1222.55 982.67 1225.45 C 980.31 1228.35 975.5 1233.93 971.98 1237.86 C 968.47 1241.79 965.01 1245.0 964.3 1245.0 Z M 1466.37 1244.92 C 1465.89 1244.88 1462.91 1242.04 1459.73 1238.62 C 1456.56 1235.2 1453.21 1231.3 1452.29 1229.95 C 1451.37 1228.6 1449.91 1226.82 1449.06 1226.0 C 1448.2 1225.17 1446.11 1222.7 1444.41 1220.5 C 1442.71 1218.3 1440.74 1215.4 1440.02 1214.06 C 1439.31 1212.71 1437.66 1210.47 1436.36 1209.07 C 1435.06 1207.67 1434.0 1206.06 1434.0 1205.49 C 1434.0 1204.93 1432.31 1202.38 1430.25 1199.84 C 1428.19 1197.3 1425.74 1193.93 1424.82 1192.36 C 1423.9 1190.79 1420.88 1186.12 1418.1 1182.0 C 1415.33 1177.88 1411.25 1171.96 1409.03 1168.86 C 1406.81 1165.77 1405.0 1162.92 1405.0 1162.54 C 1405.0 1162.17 1403.66 1159.91 1402.02 1157.53 C 1400.38 1155.15 1397.61 1150.6 1395.86 1147.41 C 1394.11 1144.22 1390.28 1138.08 1387.34 1133.77 C 1384.4 1129.45 1381.99 1125.38 1381.98 1124.71 C 1381.97 1124.05 1380.56 1121.03 1378.84 1118.0 C 1377.13 1114.97 1373.53 1108.29 1370.86 1103.15 C 1368.19 1098.01 1366.0 1092.65 1366.0 1091.24 C 1366.0 1089.82 1365.26 1083.55 1364.37 1077.31 C 1362.91 1067.21 1362.9 1065.76 1364.23 1064.23 C 1365.06 1063.28 1367.22 1057.78 1369.03 1052.0 C 1370.85 1046.22 1372.77 1040.93 1373.31 1040.23 C 1373.85 1039.53 1374.46 1039.13 1374.68 1039.35 C 1374.9 1039.57 1374.32 1043.07 1373.39 1047.12 C 1372.21 1052.26 1371.68 1059.21 1371.63 1070.0 C 1371.58 1082.19 1371.95 1086.73 1373.35 1091.23 C 1374.33 1094.38 1375.55 1097.22 1376.07 1097.54 C 1376.58 1097.86 1377.0 1098.84 1377.0 1099.71 C 1377.0 1100.59 1378.08 1102.72 1379.4 1104.45 C 1380.71 1106.18 1385.12 1114.1 1389.19 1122.05 C 1393.26 1130.0 1399.46 1140.78 1402.97 1146.0 C 1406.48 1151.22 1411.68 1158.65 1414.52 1162.5 C 1417.36 1166.35 1421.25 1171.75 1423.16 1174.5 C 1425.07 1177.25 1428.99 1182.88 1431.86 1187.0 C 1434.73 1191.12 1438.63 1196.53 1440.52 1199.0 C 1442.41 1201.47 1445.19 1205.53 1446.7 1208.0 C 1448.22 1210.47 1450.48 1213.54 1451.74 1214.81 C 1452.99 1216.07 1454.69 1218.55 1455.51 1220.31 C 1456.33 1222.06 1458.76 1225.7 1460.91 1228.4 C 1463.26 1231.34 1465.01 1234.73 1465.3 1236.9 C 1465.56 1238.88 1466.1 1241.51 1466.5 1242.75 C 1466.9 1243.99 1466.84 1244.97 1466.37 1244.92 Z M 1543.92 1203.55 C 1543.41 1203.87 1542.8 1203.54 1542.57 1202.81 C 1542.35 1202.09 1541.88 1200.15 1541.54 1198.5 C 1541.19 1196.85 1540.5 1193.92 1540.0 1192.0 C 1539.5 1190.08 1538.81 1187.15 1538.47 1185.5 C 1538.13 1183.85 1537.5 1181.6 1537.06 1180.5 C 1536.63 1179.4 1535.73 1176.7 1535.05 1174.5 C 1534.38 1172.3 1532.35 1166.45 1530.56 1161.5 C 1528.76 1156.55 1526.74 1150.7 1526.08 1148.5 C 1525.41 1146.3 1523.94 1142.47 1522.82 1140.0 C 1521.7 1137.53 1520.38 1134.72 1519.89 1133.76 C 1519.4 1132.81 1519.0 1131.15 1519.0 1130.07 C 1519.0 1129.0 1518.55 1127.84 1518.0 1127.5 C 1517.45 1127.16 1517.0 1126.22 1517.0 1125.42 C 1517.0 1124.62 1515.96 1122.28 1514.7 1120.23 C 1513.43 1118.18 1511.78 1114.47 1511.01 1112.0 C 1510.25 1109.53 1508.89 1106.38 1507.98 1105.0 C 1507.07 1103.62 1505.55 1100.5 1504.6 1098.06 C 1503.65 1095.62 1497.86 1083.47 1491.75 1071.06 C 1485.63 1058.65 1479.27 1046.47 1477.61 1044.0 C 1475.94 1041.53 1474.22 1039.05 1473.78 1038.5 C 1473.33 1037.95 1471.85 1035.79 1470.49 1033.71 C 1469.12 1031.62 1468.0 1029.39 1468.0 1028.76 C 1468.0 1028.13 1466.95 1026.01 1465.66 1024.05 C 1464.37 1022.1 1461.34 1017.12 1458.94 1013.0 C 1456.53 1008.88 1454.27 1005.27 1453.92 1005.0 C 1453.56 1004.73 1452.24 1002.48 1450.99 1000.0 C 1449.74 997.52 1447.7 994.15 1446.47 992.5 C 1445.24 990.85 1443.93 988.5 1443.56 987.28 C 1443.19 986.05 1441.63 984.16 1440.1 983.07 C 1438.18 981.71 1436.99 981.41 1436.28 982.12 C 1435.57 982.83 1434.9 982.14 1434.12 979.93 C 1433.51 978.15 1433.05 974.86 1433.12 972.6 C 1433.18 970.35 1433.44 969.29 1433.69 970.25 C 1433.94 971.21 1434.56 972.0 1435.07 972.0 C 1435.58 972.0 1436.0 971.52 1436.0 970.93 C 1436.0 970.35 1435.52 968.97 1434.94 967.88 C 1434.35 966.79 1433.42 963.1 1432.88 959.7 C 1432.28 955.99 1430.08 949.86 1427.39 944.44 C 1423.81 937.23 1421.37 933.9 1415.43 928.13 C 1409.49 922.36 1406.08 920.0 1398.73 916.6 C 1393.65 914.25 1388.15 911.85 1386.5 911.26 C 1384.85 910.68 1380.26 909.64 1376.3 908.95 C 1371.8 908.17 1365.92 907.94 1360.61 908.35 C 1353.08 908.93 1351.72 908.76 1348.56 906.9 C 1346.6 905.75 1344.94 904.51 1344.87 904.15 C 1344.8 903.79 1344.64 902.48 1344.51 901.23 C 1344.34 899.6 1344.91 898.81 1346.56 898.39 C 1347.82 898.08 1349.77 898.11 1350.89 898.47 C 1352.01 898.82 1353.84 898.62 1354.96 898.02 C 1356.47 897.22 1359.98 897.32 1368.35 898.42 C 1374.59 899.24 1381.68 900.6 1384.1 901.44 C 1386.52 902.28 1389.29 902.98 1390.26 902.99 C 1391.23 902.99 1394.15 903.94 1396.76 905.1 C 1399.37 906.25 1403.3 908.12 1405.5 909.25 C 1407.7 910.38 1411.53 912.77 1414.01 914.56 C 1416.49 916.35 1420.31 920.37 1422.51 923.49 C 1424.7 926.61 1427.48 930.39 1428.68 931.89 C 1429.88 933.39 1432.05 937.29 1433.52 940.56 C 1434.98 943.83 1437.05 949.17 1438.11 952.43 C 1439.17 955.7 1441.11 960.65 1442.42 963.43 C 1443.73 966.22 1445.3 969.62 1445.91 971.0 C 1446.53 972.38 1449.23 977.33 1451.92 982.0 C 1454.61 986.67 1459.27 995.01 1462.26 1000.53 C 1465.26 1006.05 1468.17 1011.45 1468.73 1012.53 C 1469.29 1013.61 1470.77 1016.52 1472.02 1019.0 C 1473.27 1021.48 1475.75 1026.2 1477.53 1029.5 C 1479.31 1032.8 1482.65 1038.88 1484.96 1043.0 C 1487.26 1047.12 1497.44 1067.09 1507.57 1087.38 C 1517.71 1107.66 1526.0 1124.7 1526.0 1125.25 C 1526.0 1125.8 1529.34 1133.05 1533.41 1141.37 C 1537.49 1149.69 1541.37 1158.3 1542.05 1160.5 C 1542.72 1162.7 1543.61 1165.4 1544.02 1166.5 C 1544.42 1167.6 1545.28 1170.78 1545.92 1173.56 C 1546.56 1176.34 1546.98 1180.19 1546.85 1182.1 C 1546.73 1184.01 1546.96 1186.13 1547.37 1186.8 C 1547.8 1187.49 1547.31 1189.06 1546.26 1190.4 C 1544.89 1192.14 1544.45 1194.14 1544.62 1197.87 C 1544.75 1200.68 1544.44 1203.23 1543.92 1203.55 Z M 887.08 1202.96 C 886.76 1202.94 886.02 1202.38 885.44 1201.71 C 884.86 1201.04 883.86 1196.83 883.23 1192.35 C 882.3 1185.76 882.34 1183.48 883.44 1180.35 C 884.19 1178.23 885.38 1174.47 886.08 1172.0 C 886.78 1169.53 887.72 1167.07 888.17 1166.55 C 888.63 1166.03 889.0 1164.6 889.0 1163.38 C 889.0 1162.16 889.38 1161.02 889.84 1160.83 C 890.3 1160.65 897.34 1147.0 905.47 1130.5 C 913.6 1114.0 920.65 1099.71 921.13 1098.75 C 921.61 1097.79 922.39 1096.21 922.88 1095.25 C 923.36 1094.29 925.2 1090.12 926.97 1086.0 C 928.75 1081.88 931.09 1076.03 932.19 1073.0 C 933.29 1069.97 935.67 1064.53 937.49 1060.91 C 939.3 1057.28 941.27 1053.45 941.85 1052.41 C 942.43 1051.36 943.81 1048.47 944.91 1046.0 C 946.02 1043.53 948.58 1038.58 950.6 1035.0 C 952.62 1031.42 958.38 1020.4 963.41 1010.5 C 968.43 1000.6 973.73 990.66 975.19 988.4 C 976.64 986.15 980.71 978.5 984.23 971.4 C 987.75 964.31 991.22 956.48 991.93 954.0 C 992.64 951.52 993.56 948.6 993.96 947.5 C 994.37 946.4 995.93 942.82 997.44 939.55 C 998.94 936.28 1001.01 932.68 1002.04 931.55 C 1003.07 930.42 1005.85 927.17 1008.23 924.32 C 1010.61 921.46 1013.9 918.1 1015.53 916.83 C 1017.16 915.57 1019.37 913.74 1020.44 912.77 C 1021.5 911.79 1022.97 911.0 1023.69 911.0 C 1024.41 911.0 1025.0 910.6 1025.0 910.12 C 1025.0 909.64 1026.33 908.69 1027.96 908.02 C 1029.58 907.34 1031.27 906.76 1031.71 906.72 C 1032.14 906.68 1033.1 906.04 1033.83 905.31 C 1034.56 904.58 1035.59 904.25 1036.12 904.58 C 1036.65 904.9 1037.63 904.78 1038.29 904.29 C 1038.96 903.81 1041.22 902.83 1043.31 902.12 C 1045.41 901.41 1048.56 900.64 1050.31 900.41 C 1052.07 900.18 1056.88 899.48 1061.0 898.86 C 1065.12 898.24 1070.08 897.78 1072.0 897.86 C 1073.92 897.93 1077.68 898.16 1080.34 898.38 C 1083.0 898.6 1085.63 899.23 1086.18 899.78 C 1086.73 900.33 1087.03 901.59 1086.84 902.56 C 1086.65 903.54 1084.47 905.43 1082.0 906.76 C 1077.96 908.94 1076.69 909.13 1069.51 908.61 C 1065.11 908.29 1058.59 908.51 1055.01 909.1 C 1051.43 909.69 1045.8 911.09 1042.5 912.21 C 1039.2 913.33 1033.67 915.78 1030.22 917.66 C 1026.76 919.54 1022.71 922.06 1021.22 923.27 C 1019.72 924.48 1016.02 927.96 1012.98 930.99 C 1009.94 934.02 1005.96 939.42 1004.13 943.0 C 1002.31 946.58 1000.13 952.42 999.29 956.0 C 998.45 959.58 997.55 964.47 997.27 966.87 C 996.95 969.71 997.21 971.51 998.0 972.0 C 998.95 972.59 998.92 973.6 997.87 976.63 C 997.12 978.76 995.95 981.62 995.26 983.0 C 994.02 985.49 994.01 985.48 993.9 982.0 L 993.79 978.5 C 992.11 982.75 990.8 984.24 989.81 984.56 C 988.81 984.88 988.0 985.44 988.0 985.82 C 987.99 986.19 986.99 988.08 985.76 990.0 C 984.53 991.92 981.94 996.26 980.01 999.63 C 978.08 1003.0 973.46 1010.77 969.75 1016.89 C 966.04 1023.02 963.0 1028.39 963.0 1028.84 C 963.0 1029.29 960.71 1034.35 957.92 1040.08 C 955.12 1045.81 952.34 1051.4 951.73 1052.5 C 951.13 1053.6 945.62 1064.62 939.49 1077.0 C 933.36 1089.38 927.74 1101.08 927.0 1103.0 C 926.26 1104.92 924.83 1107.69 923.83 1109.15 C 922.82 1110.61 922.0 1112.31 922.0 1112.93 C 922.0 1113.55 920.43 1117.16 918.52 1120.96 C 916.61 1124.75 914.09 1130.26 912.93 1133.18 C 911.77 1136.11 909.8 1141.2 908.55 1144.5 C 907.31 1147.8 905.1 1153.1 903.64 1156.28 C 902.19 1159.46 901.0 1163.14 901.0 1164.47 C 901.0 1165.8 900.58 1167.14 900.08 1167.45 C 899.57 1167.77 898.84 1169.48 898.45 1171.26 C 898.06 1173.04 896.73 1176.75 895.49 1179.5 C 894.25 1182.25 892.28 1186.71 891.11 1189.41 C 889.91 1192.17 889.24 1195.19 889.59 1196.28 C 889.93 1197.36 889.64 1199.31 888.94 1200.62 C 888.24 1201.93 887.4 1202.98 887.08 1202.96 Z " opacity="1.0" fill="#000000" stroke="none" fill-rule="evenodd"/></svg>