<svg width="2400" height="3200" xmlns="http://www.w3.org/2000/svg" viewBox="0 0 2400 3200"><path d="M 964.92 1245.04 C 963.56 1245.77 963.0 1245.75 963.0 1244.96 C 963.0 1244.34 964.99 1239.84 967.42 1234.95 C 969.85 1230.07 973.98 1223.24 976.6 1219.78 C 979.22 1216.33 984.33 1209.9 987.96 1205.5 C 991.6 1201.1 998.38 1192.1 1003.05 1185.5 C 1007.71 1178.9 1014.27 1169.22 1017.62 1164.0 C 1020.97 1158.78 1027.15 1148.56 1031.35 1141.3 C 1035.55 1134.05 1041.86 1122.35 1045.37 1115.3 C 1048.88 1108.26 1053.38 1098.15 1055.37 1092.82 C 1058.01 1085.75 1059.13 1080.91 1059.54 1074.82 C 1059.97 1068.58 1059.53 1063.07 1057.78 1052.77 C 1056.49 1045.22 1055.8 1039.4 1056.23 1039.83 C 1056.66 1040.26 1058.59 1045.32 1060.5 1051.06 C 1062.42 1056.8 1064.51 1062.39 1065.14 1063.47 C 1065.78 1064.56 1066.49 1069.4 1066.72 1074.22 C 1066.95 1079.05 1066.62 1085.51 1065.99 1088.57 C 1065.35 1091.63 1063.5 1096.92 1061.87 1100.32 C 1060.25 1103.72 1058.49 1107.28 1057.96 1108.24 C 1057.43 1109.19 1057.0 1110.59 1057.0 1111.34 C 1057.0 1112.09 1055.03 1116.48 1052.62 1121.1 C 1050.22 1125.72 1047.62 1130.62 1046.86 1132.0 C 1046.09 1133.38 1044.61 1135.85 1043.56 1137.5 C 1042.51 1139.15 1040.09 1142.97 1038.17 1146.0 C 1036.26 1149.03 1032.66 1154.65 1030.18 1158.5 C 1027.7 1162.35 1022.72 1170.0 1019.12 1175.5 C 1015.52 1181.0 1009.43 1190.0 1005.59 1195.5 C 1001.74 1201.0 996.96 1207.53 994.95 1210.0 C 992.94 1212.47 987.15 1219.9 982.1 1226.5 C 977.04 1233.1 972.52 1238.5 972.05 1238.5 C 971.57 1238.5 970.21 1239.74 969.01 1241.26 C 967.82 1242.77 965.98 1244.48 964.92 1245.04 Z M 1466.61 1245.0 C 1465.82 1245.0 1464.02 1243.62 1462.6 1241.93 C 1461.18 1240.25 1459.57 1239.15 1459.02 1239.49 C 1458.42 1239.86 1458.29 1239.41 1458.69 1238.38 C 1459.19 1237.07 1458.95 1236.8 1457.72 1237.28 C 1456.53 1237.73 1456.26 1237.48 1456.72 1236.29 C 1457.12 1235.24 1456.94 1234.92 1456.21 1235.37 C 1455.57 1235.77 1454.34 1234.88 1453.34 1233.28 C 1452.38 1231.75 1446.83 1224.42 1441.01 1217.0 C 1435.19 1209.58 1427.86 1199.75 1424.72 1195.17 C 1421.57 1190.59 1419.0 1186.63 1419.0 1186.38 C 1419.0 1186.12 1418.52 1185.37 1417.94 1184.71 C 1417.35 1184.04 1413.97 1179.07 1410.44 1173.67 C 1406.9 1168.26 1404.0 1163.63 1404.0 1163.37 C 1404.0 1163.12 1402.88 1161.7 1401.5 1160.22 C 1400.12 1158.73 1399.0 1157.16 1399.0 1156.72 C 1399.0 1156.28 1397.31 1153.56 1395.25 1150.67 C 1393.19 1147.79 1390.96 1144.55 1390.31 1143.46 C 1389.66 1142.38 1387.41 1138.58 1385.31 1135.0 C 1383.21 1131.42 1379.61 1124.67 1377.3 1120.0 C 1374.99 1115.33 1371.47 1107.9 1369.47 1103.5 C 1367.48 1099.1 1365.2 1093.03 1364.41 1090.0 C 1363.62 1086.95 1363.03 1080.51 1363.1 1075.5 C 1363.17 1070.34 1363.75 1065.65 1364.45 1064.5 C 1365.13 1063.4 1367.18 1057.78 1369.0 1052.0 C 1370.83 1046.22 1372.76 1041.05 1373.29 1040.5 C 1373.91 1039.85 1374.06 1040.92 1373.71 1043.5 C 1373.41 1045.7 1372.4 1052.45 1371.47 1058.5 C 1370.4 1065.48 1370.0 1071.92 1370.38 1076.11 C 1370.72 1079.74 1371.67 1084.69 1372.51 1087.11 C 1373.35 1089.52 1375.86 1095.85 1378.09 1101.16 C 1380.32 1106.47 1384.5 1115.25 1387.39 1120.66 C 1390.27 1126.07 1397.26 1138.36 1402.91 1147.96 C 1408.56 1157.57 1414.81 1167.92 1416.79 1170.96 C 1418.78 1174.01 1425.46 1183.25 1431.63 1191.5 C 1437.8 1199.75 1446.32 1210.78 1450.57 1216.0 C 1454.81 1221.22 1459.8 1227.84 1461.64 1230.7 C 1463.49 1233.56 1465.0 1236.62 1465.0 1237.5 C 1465.0 1238.38 1465.69 1240.43 1466.53 1242.05 C 1467.83 1244.57 1467.84 1245.0 1466.61 1245.0 Z M 1544.07 1203.46 C 1543.63 1203.73 1542.99 1203.66 1542.64 1203.31 C 1542.29 1202.95 1542.0 1201.76 1542.0 1200.65 C 1542.0 1199.55 1541.58 1197.26 1541.07 1195.57 C 1540.56 1193.88 1539.68 1190.7 1539.13 1188.5 C 1538.58 1186.3 1537.38 1181.58 1536.46 1178.0 C 1535.55 1174.42 1533.21 1167.22 1531.27 1162.0 C 1529.33 1156.78 1526.64 1150.03 1525.29 1147.0 C 1523.95 1143.97 1522.03 1139.7 1521.04 1137.5 C 1520.04 1135.3 1518.04 1130.66 1516.58 1127.2 C 1515.12 1123.73 1512.43 1117.66 1510.59 1113.7 C 1508.75 1109.74 1506.11 1104.03 1504.72 1101.0 C 1503.34 1097.97 1500.17 1091.18 1497.69 1085.91 C 1495.21 1080.63 1489.11 1068.15 1484.14 1058.16 C 1479.16 1048.18 1474.61 1039.44 1474.03 1038.75 C 1473.45 1038.06 1471.85 1035.79 1470.49 1033.71 C 1469.12 1031.62 1468.0 1029.39 1468.0 1028.76 C 1468.0 1028.13 1466.95 1026.01 1465.66 1024.05 C 1464.37 1022.1 1461.34 1017.12 1458.94 1013.0 C 1456.53 1008.88 1454.27 1005.27 1453.92 1005.0 C 1453.56 1004.73 1452.25 1002.49 1451.0 1000.03 C 1449.76 997.57 1447.78 994.28 1446.62 992.7 L 1444.51 989.84 L 1443.2 994.5 C 1442.93 990.62 1442.68 988.83 1442.49 988.0 C 1442.29 987.17 1440.94 982.23 1439.48 977.0 C 1438.02 971.77 1434.81 963.23 1432.34 958.0 C 1429.87 952.77 1427.14 947.15 1426.27 945.5 C 1425.41 943.85 1423.08 940.48 1421.1 938.02 C 1419.12 935.55 1416.15 932.29 1414.5 930.76 C 1412.85 929.23 1408.58 926.02 1405.0 923.64 C 1401.42 921.26 1396.47 918.52 1394.0 917.54 C 1391.53 916.57 1386.58 914.9 1383.0 913.84 C 1379.42 912.78 1374.25 911.19 1371.5 910.32 C 1368.7 909.44 1362.62 908.69 1357.66 908.62 C 1349.38 908.51 1348.69 908.33 1346.66 905.85 C 1345.47 904.39 1343.73 902.18 1342.79 900.94 C 1341.85 899.7 1341.31 898.31 1341.6 897.84 C 1341.88 897.38 1344.19 897.0 1346.73 897.0 C 1349.26 897.0 1359.7 899.26 1369.92 902.03 C 1380.14 904.8 1392.1 908.46 1396.5 910.16 C 1400.9 911.87 1407.2 914.58 1410.5 916.19 C 1413.8 917.8 1417.9 920.55 1419.61 922.31 C 1421.32 924.06 1424.92 928.43 1427.61 932.02 C 1430.3 935.61 1433.7 941.23 1435.17 944.52 C 1436.64 947.81 1438.84 953.2 1440.06 956.5 C 1441.28 959.8 1445.4 968.8 1449.22 976.5 C 1453.04 984.2 1457.25 991.93 1458.58 993.68 C 1459.91 995.43 1461.0 997.08 1461.0 997.33 C 1461.0 997.59 1462.62 1000.21 1464.61 1003.15 C 1466.6 1006.09 1470.91 1013.86 1474.2 1020.41 C 1477.48 1026.95 1481.27 1034.05 1482.61 1036.17 C 1483.95 1038.29 1491.07 1052.06 1498.43 1066.76 C 1505.8 1081.47 1513.61 1097.33 1515.79 1102.0 C 1517.97 1106.67 1520.89 1112.97 1522.28 1116.0 C 1523.66 1119.03 1527.13 1126.82 1529.98 1133.33 C 1532.83 1139.84 1536.0 1146.59 1537.03 1148.33 C 1538.06 1150.07 1540.59 1156.0 1542.66 1161.5 C 1545.47 1168.97 1546.47 1173.22 1546.61 1178.27 C 1546.72 1182.0 1547.07 1185.75 1547.4 1186.61 C 1547.74 1187.47 1547.19 1189.21 1546.2 1190.48 C 1544.9 1192.13 1544.46 1194.2 1544.62 1197.87 C 1544.75 1200.68 1544.5 1203.19 1544.07 1203.46 Z M 887.14 1202.96 C 886.79 1202.94 886.02 1202.38 885.44 1201.71 C 884.86 1201.04 883.86 1196.8 883.22 1192.29 C 882.24 1185.33 882.29 1183.54 883.6 1180.42 C 884.61 1177.99 884.8 1176.4 884.15 1175.75 C 883.5 1175.1 884.03 1172.67 885.71 1168.63 C 887.11 1165.26 890.5 1157.33 893.25 1151.0 C 896.0 1144.67 898.49 1138.83 898.77 1138.0 C 899.06 1137.17 900.15 1134.47 901.2 1132.0 C 902.25 1129.53 903.51 1126.6 904.0 1125.5 C 904.49 1124.4 905.88 1121.25 907.08 1118.5 C 908.28 1115.75 911.01 1109.79 913.13 1105.25 C 915.26 1100.71 918.83 1093.06 921.06 1088.25 C 923.3 1083.44 927.29 1075.22 929.93 1070.0 C 932.57 1064.78 936.64 1056.9 938.98 1052.5 C 941.32 1048.1 947.31 1036.62 952.29 1027.0 C 957.27 1017.38 964.6 1004.33 968.58 998.0 C 972.55 991.67 978.48 981.1 981.74 974.5 C 985.0 967.9 988.68 959.8 989.92 956.5 C 991.15 953.2 993.36 947.81 994.83 944.53 C 996.3 941.24 999.7 935.66 1002.39 932.13 C 1005.08 928.6 1008.68 924.22 1010.4 922.4 C 1012.12 920.58 1017.4 917.3 1022.15 915.11 C 1026.9 912.91 1035.67 909.5 1041.64 907.52 C 1047.61 905.54 1057.9 902.54 1064.5 900.85 C 1071.1 899.16 1079.03 897.56 1082.12 897.28 C 1085.22 897.01 1087.98 897.17 1088.27 897.64 C 1088.56 898.11 1088.06 900.03 1087.15 901.9 C 1086.24 903.77 1083.92 906.14 1082.0 907.16 C 1079.4 908.55 1076.58 909.0 1071.0 908.91 C 1066.57 908.83 1061.05 909.48 1057.5 910.49 C 1054.2 911.43 1047.17 913.68 1041.88 915.49 C 1036.49 917.34 1029.22 920.79 1025.35 923.34 C 1021.55 925.84 1016.65 929.64 1014.47 931.78 C 1012.29 933.91 1009.76 936.59 1008.86 937.72 C 1007.96 938.84 1005.28 943.31 1002.91 947.63 C 1000.54 951.96 997.79 957.17 996.8 959.2 C 995.81 961.24 995.0 963.57 995.0 964.39 C 995.0 965.21 994.55 966.16 994.0 966.5 C 993.45 966.84 993.0 968.14 993.0 969.39 C 993.0 970.64 992.67 972.0 992.27 972.4 C 991.86 972.8 990.99 975.47 990.34 978.32 C 989.68 981.17 988.48 985.98 987.66 989.0 C 986.84 992.02 986.13 993.62 986.09 992.55 C 986.02 991.04 985.73 990.87 984.8 991.8 C 984.15 992.45 982.01 995.86 980.05 999.38 C 978.1 1002.89 973.46 1010.77 969.75 1016.89 C 966.04 1023.02 963.0 1028.46 963.0 1028.99 C 963.0 1029.52 961.36 1033.0 959.35 1036.72 C 957.35 1040.45 952.57 1048.9 948.74 1055.5 C 944.91 1062.1 936.94 1077.4 931.03 1089.5 C 925.12 1101.6 919.38 1113.53 918.26 1116.0 C 917.15 1118.47 911.91 1130.66 906.62 1143.08 C 901.33 1155.5 897.0 1166.33 897.0 1167.13 C 897.0 1167.94 896.58 1169.03 896.08 1169.55 C 895.57 1170.07 894.64 1173.42 894.02 1177.0 C 893.39 1180.58 892.18 1185.53 891.32 1188.0 C 890.46 1190.47 889.68 1194.08 889.59 1196.0 C 889.5 1197.92 889.06 1200.29 888.61 1201.25 C 888.15 1202.21 887.5 1202.98 887.14 1202.96 Z M 1065.67 1079.67 C 1066.03 1079.3 1066.03 1078.7 1065.67 1078.33 C 1065.3 1077.97 1065.0 1078.27 1065.0 1079.0 C 1065.0 1079.73 1065.3 1080.03 1065.67 1079.67 Z M 992.73 1013.25 C 992.52 1015.59 992.35 1013.67 992.35 1009.0 C 992.35 1004.33 992.52 1002.41 992.73 1004.75 C 992.94 1007.09 992.94 1010.91 992.73 1013.25 Z M 1437.73 1013.25 C 1437.52 1015.59 1437.35 1013.67 1437.35 1009.0 C 1437.35 1004.33 1437.52 1002.41 1437.73 1004.75 C 1437.94 1007.09 1437.94 1010.91 1437.73 1013.25 Z M 1441.69 1007.76 C 1441.44 1008.72 1441.24 1007.7 1441.25 1005.5 C 1441.26 1003.3 1441.47 1002.52 1441.71 1003.76 C 1441.95 1005.01 1441.94 1006.81 1441.69 1007.76 Z M 988.69 1006.75 C 988.44 1007.71 988.23 1006.92 988.23 1005.0 C 988.23 1003.08 988.44 1002.29 988.69 1003.25 C 988.94 1004.21 988.94 1005.79 988.69 1006.75 Z M 1443.67 1002.67 C 1443.3 1003.03 1443.0 1002.73 1443.0 1002.0 C 1443.0 1001.27 1443.3 1000.97 1443.67 1001.33 C 1444.03 1001.7 1444.03 1002.3 1443.67 1002.67 Z M 1441.56 1000.75 C 1441.44 1000.89 1441.03 1000.7 1440.67 1000.33 C 1440.3 999.97 1440.05 998.05 1440.11 996.08 L 1440.23 992.5 C 1441.44 998.7 1441.69 1000.61 1441.56 1000.75 Z M 986.66 999.27 C 986.38 999.95 986.17 999.15 986.19 997.5 C 986.22 995.85 986.44 995.3 986.69 996.27 C 986.95 997.24 986.93 998.59 986.66 999.27 Z M 989.56 1000.0 C 989.32 1000.0 988.89 999.62 988.6 999.16 C 988.32 998.7 988.48 997.02 988.96 995.41 C 989.82 992.52 989.83 992.52 989.91 996.25 C 989.96 998.31 989.8 1000.0 989.56 1000.0 Z M 1444.1 999.3 C 1443.3 1000.1 1443.01 999.6 1443.03 997.45 C 1443.06 994.86 1443.19 994.73 1444.13 996.35 C 1444.9 997.67 1444.89 998.51 1444.1 999.3 Z M 1437.67 998.67 C 1437.3 999.03 1437.0 998.73 1437.0 998.0 C 1437.0 997.27 1437.3 996.97 1437.67 997.33 C 1438.03 997.7 1438.03 998.3 1437.67 998.67 Z M 989.95 992.0 C 989.29 992.0 989.16 990.62 989.59 988.25 C 989.96 986.19 990.43 984.31 990.63 984.08 C 990.83 983.85 991.0 985.54 991.0 987.83 C 991.0 990.12 990.53 992.0 989.95 992.0 Z M 1440.05 992.0 C 1439.47 992.0 1439.0 990.12 1439.0 987.83 C 1439.0 985.54 1439.17 983.85 1439.37 984.08 C 1439.57 984.31 1440.04 986.19 1440.41 988.25 C 1440.84 990.62 1440.71 992.0 1440.05 992.0 Z M 1436.67 973.67 C 1436.3 974.03 1436.0 973.73 1436.0 973.0 C 1436.0 972.27 1436.3 971.97 1436.67 972.33 C 1437.03 972.7 1437.03 973.3 1436.67 973.67 Z " opacity="1.0" fill="#000000" stroke="none" fill-rule="evenodd"/></svg>