<svg width="2400" height="3200" xmlns="http://www.w3.org/2000/svg" viewBox="0 0 2400 3200"><path d="M 955.94 1254.0 C 955.42 1254.0 955.0 1253.79 955.0 1253.53 C 955.0 1253.27 956.12 1250.51 957.5 1247.4 C 958.88 1244.29 960.0 1240.68 960.0 1239.38 C 960.0 1238.07 959.59 1237.0 959.08 1237.0 C 958.58 1237.0 957.51 1236.75 956.72 1236.45 C 955.93 1236.14 953.85 1237.1 952.1 1238.57 C 950.35 1240.04 948.64 1240.97 948.3 1240.63 C 947.96 1240.29 948.18 1238.32 948.79 1236.25 C 949.4 1234.19 950.12 1231.09 950.4 1229.37 C 950.68 1227.64 950.45 1224.6 949.9 1222.61 C 949.33 1220.55 947.08 1217.23 944.72 1214.96 C 942.42 1212.75 938.86 1210.44 936.81 1209.83 C 933.82 1208.93 931.68 1209.05 925.92 1210.45 C 921.98 1211.41 916.45 1213.46 913.64 1215.01 C 910.83 1216.57 906.17 1219.93 903.27 1222.48 C 900.37 1225.04 898.0 1227.97 898.0 1229.0 C 898.0 1230.04 897.62 1231.12 897.15 1231.41 C 896.68 1231.7 895.95 1227.79 895.54 1222.72 C 895.13 1217.65 894.84 1212.04 894.9 1210.25 C 894.98 1207.51 894.64 1207.0 892.74 1207.0 C 891.35 1207.0 890.09 1207.87 889.49 1209.24 C 888.94 1210.48 887.71 1211.64 886.75 1211.82 C 885.78 1212.0 884.74 1211.48 884.43 1210.67 C 884.11 1209.85 885.11 1207.23 886.64 1204.84 C 888.83 1201.43 889.43 1199.27 889.47 1194.75 C 889.51 1191.29 889.12 1189.12 888.51 1189.32 C 887.96 1189.5 886.91 1190.85 886.2 1192.32 C 885.48 1193.8 884.46 1195.0 883.93 1195.0 C 883.38 1195.0 883.25 1193.81 883.62 1192.25 C 883.99 1190.74 885.14 1187.8 886.18 1185.72 C 887.22 1183.64 889.44 1176.66 891.11 1170.22 C 892.77 1163.77 895.23 1155.24 896.56 1151.26 C 898.34 1145.93 900.17 1142.75 903.49 1139.26 C 905.96 1136.64 907.99 1134.19 907.99 1133.82 C 908.0 1133.45 908.56 1132.55 909.25 1131.82 C 909.94 1131.09 911.7 1128.25 913.17 1125.5 C 914.63 1122.75 917.73 1115.78 920.05 1110.0 C 922.37 1104.22 925.51 1095.67 927.02 1091.0 C 928.54 1086.33 932.2 1077.78 935.16 1072.0 C 938.13 1066.22 942.07 1057.67 943.93 1053.0 C 945.79 1048.33 949.59 1040.22 952.37 1035.0 C 955.16 1029.78 959.03 1022.96 960.97 1019.86 C 962.91 1016.76 966.92 1010.59 969.87 1006.13 C 972.82 1001.68 975.97 996.71 976.87 995.08 C 977.77 993.46 980.62 988.02 983.22 982.99 C 985.81 977.97 988.22 972.2 988.56 970.18 C 988.91 968.16 990.34 963.12 991.75 959.0 C 993.15 954.88 995.83 948.58 997.69 945.0 C 999.55 941.42 1002.18 936.92 1003.54 935.0 C 1004.89 933.08 1008.81 928.65 1012.25 925.16 C 1015.69 921.67 1020.3 917.91 1022.5 916.79 C 1024.7 915.68 1027.17 914.24 1028.0 913.59 C 1028.83 912.94 1031.3 911.81 1033.5 911.07 C 1035.7 910.33 1038.72 908.87 1040.21 907.83 C 1042.44 906.25 1043.25 906.14 1044.87 907.15 C 1046.47 908.15 1047.56 908.06 1050.67 906.7 C 1052.78 905.78 1057.98 904.33 1062.24 903.48 C 1066.5 902.62 1071.79 902.14 1073.99 902.41 C 1076.78 902.74 1078.0 902.51 1078.0 901.64 C 1078.0 900.96 1077.46 899.86 1076.8 899.2 C 1075.87 898.27 1075.9 898.0 1076.94 898.0 C 1077.67 898.0 1079.25 899.01 1080.45 900.25 C 1081.65 901.49 1083.43 902.95 1084.4 903.51 C 1085.8 904.3 1086.49 907.07 1087.64 916.47 C 1088.45 923.05 1088.85 929.35 1088.54 930.47 C 1088.23 931.59 1085.15 935.49 1081.68 939.14 C 1078.22 942.79 1073.32 948.86 1070.79 952.64 C 1068.27 956.41 1064.86 962.2 1063.22 965.5 C 1061.58 968.8 1059.1 975.1 1057.71 979.5 C 1056.33 983.9 1054.9 989.75 1054.55 992.5 C 1054.19 995.25 1053.42 1000.58 1052.84 1004.34 C 1052.06 1009.41 1052.11 1013.28 1053.04 1019.34 C 1053.72 1023.83 1056.01 1034.36 1058.11 1042.75 C 1060.22 1051.13 1062.63 1059.32 1063.47 1060.95 C 1064.31 1062.57 1065.0 1064.68 1065.0 1065.62 C 1065.0 1066.57 1065.7 1068.11 1066.55 1069.05 C 1067.8 1070.44 1067.9 1071.58 1067.09 1075.13 C 1066.54 1077.53 1065.17 1083.6 1064.05 1088.61 C 1062.93 1093.62 1061.14 1100.44 1060.07 1103.78 C 1059.01 1107.11 1057.37 1111.34 1056.43 1113.17 C 1055.49 1115.0 1053.42 1117.59 1051.83 1118.92 C 1050.24 1120.25 1047.57 1124.21 1045.9 1127.71 C 1044.22 1131.22 1040.72 1137.56 1038.11 1141.79 C 1035.5 1146.03 1029.49 1155.35 1024.75 1162.5 C 1020.01 1169.65 1013.07 1179.6 1009.32 1184.61 C 1005.57 1189.61 993.59 1205.59 982.71 1220.11 C 971.82 1234.62 961.56 1248.19 959.9 1250.25 C 958.24 1252.31 956.46 1254.0 955.94 1254.0 Z M 1474.1 1254.0 C 1473.61 1254.0 1471.81 1252.41 1470.1 1250.47 C 1468.4 1248.52 1466.22 1245.71 1465.27 1244.22 C 1464.32 1242.72 1456.11 1231.64 1447.02 1219.6 C 1437.94 1207.55 1427.2 1193.38 1423.16 1188.1 C 1419.12 1182.82 1411.2 1171.53 1405.57 1163.0 C 1399.93 1154.47 1393.18 1143.97 1390.56 1139.67 C 1387.95 1135.36 1384.93 1129.83 1383.85 1127.39 C 1382.77 1124.95 1380.38 1121.44 1378.53 1119.6 C 1376.69 1117.75 1374.43 1114.8 1373.52 1113.03 C 1372.6 1111.26 1370.79 1106.46 1369.48 1102.35 C 1368.18 1098.25 1365.93 1089.23 1364.48 1082.3 C 1362.79 1074.26 1362.2 1069.49 1362.84 1069.1 C 1363.39 1068.76 1364.6 1066.46 1365.51 1063.99 C 1366.43 1061.52 1368.5 1054.78 1370.12 1049.0 C 1371.73 1043.22 1373.52 1036.47 1374.08 1034.0 C 1374.65 1031.53 1375.74 1025.45 1376.52 1020.5 C 1377.62 1013.46 1377.69 1009.65 1376.85 1003.0 C 1376.26 998.33 1374.69 990.0 1373.36 984.5 C 1372.03 979.0 1369.22 970.9 1367.12 966.5 C 1365.01 962.1 1360.46 954.67 1357.01 950.0 C 1353.55 945.33 1348.53 939.16 1345.86 936.31 C 1342.37 932.58 1341.01 930.33 1341.05 928.31 C 1341.07 926.76 1341.68 920.8 1342.4 915.04 C 1343.42 906.83 1344.1 904.37 1345.54 903.54 C 1346.55 902.97 1348.35 901.49 1349.55 900.25 C 1350.75 899.01 1352.33 898.0 1353.06 898.0 C 1354.1 898.0 1354.13 898.27 1353.2 899.2 C 1352.54 899.86 1352.0 900.87 1352.0 901.45 C 1352.0 902.05 1354.45 902.53 1357.75 902.58 C 1360.91 902.62 1366.2 903.02 1369.5 903.46 C 1372.8 903.9 1376.26 904.92 1377.19 905.73 C 1378.11 906.54 1379.37 906.89 1379.98 906.52 C 1380.58 906.14 1383.42 906.37 1386.29 907.03 C 1389.15 907.68 1394.85 909.79 1398.94 911.72 C 1403.03 913.65 1407.0 915.85 1407.76 916.62 C 1408.52 917.38 1409.57 918.0 1410.09 918.0 C 1410.61 918.0 1413.1 920.14 1415.63 922.75 C 1418.15 925.36 1422.71 930.84 1425.75 934.93 C 1428.79 939.01 1432.7 945.09 1434.45 948.43 C 1436.2 951.77 1438.18 956.75 1438.86 959.5 C 1439.54 962.25 1440.53 966.52 1441.06 968.98 C 1441.59 971.44 1443.37 976.17 1445.01 979.48 C 1446.66 982.79 1449.91 988.88 1452.25 993.0 C 1454.59 997.12 1457.4 1002.01 1458.5 1003.84 C 1459.6 1005.68 1462.55 1009.96 1465.06 1013.34 C 1467.56 1016.73 1472.01 1024.22 1474.94 1030.0 C 1477.87 1035.78 1480.58 1040.95 1480.96 1041.5 C 1481.34 1042.05 1483.78 1047.67 1486.39 1054.0 C 1489.0 1060.33 1491.64 1066.4 1492.25 1067.5 C 1492.86 1068.6 1495.08 1072.71 1497.18 1076.63 C 1499.28 1080.55 1501.0 1084.28 1501.0 1084.92 C 1501.0 1085.55 1503.44 1092.77 1506.42 1100.95 C 1509.4 1109.14 1513.48 1119.11 1515.49 1123.11 C 1517.5 1127.11 1520.57 1132.21 1522.32 1134.44 C 1524.06 1136.68 1526.55 1139.58 1527.84 1140.89 C 1529.14 1142.21 1530.98 1145.13 1531.93 1147.39 C 1532.89 1149.65 1534.9 1156.0 1536.41 1161.5 C 1537.91 1167.0 1539.81 1173.97 1540.63 1177.0 C 1541.45 1180.03 1542.93 1184.08 1543.91 1186.0 C 1544.9 1187.92 1546.01 1190.74 1546.37 1192.25 C 1546.75 1193.81 1546.62 1195.0 1546.07 1195.0 C 1545.54 1195.0 1544.52 1193.8 1543.8 1192.32 C 1543.09 1190.85 1542.0 1189.49 1541.39 1189.29 C 1540.65 1189.05 1540.34 1190.86 1540.46 1194.71 C 1540.59 1198.67 1541.33 1201.6 1542.82 1204.0 C 1544.01 1205.92 1544.99 1208.51 1545.0 1209.75 C 1545.0 1210.99 1544.5 1212.0 1543.89 1212.0 C 1543.29 1212.0 1541.45 1210.88 1539.82 1209.5 C 1538.18 1208.12 1536.22 1207.0 1535.45 1207.0 C 1534.36 1207.0 1534.27 1207.57 1535.03 1209.58 C 1535.57 1211.01 1535.74 1212.61 1535.4 1213.16 C 1535.07 1213.7 1534.48 1218.28 1534.1 1223.32 L 1533.42 1232.5 C 1530.97 1226.98 1528.09 1223.52 1525.44 1221.26 C 1522.79 1218.99 1518.25 1215.98 1515.35 1214.56 C 1512.46 1213.14 1507.31 1211.27 1503.92 1210.4 C 1500.48 1209.52 1496.31 1209.09 1494.49 1209.44 C 1492.69 1209.77 1489.21 1211.59 1486.74 1213.47 C 1483.91 1215.64 1481.64 1218.44 1480.57 1221.12 C 1479.42 1224.0 1479.08 1226.63 1479.52 1229.42 C 1479.87 1231.66 1480.66 1234.95 1481.27 1236.72 C 1481.88 1238.5 1482.09 1240.24 1481.73 1240.6 C 1481.38 1240.96 1479.68 1240.07 1477.97 1238.62 C 1476.25 1237.18 1474.47 1236.0 1474.01 1236.0 C 1473.54 1236.0 1472.45 1236.27 1471.58 1236.61 C 1470.71 1236.94 1470.0 1238.28 1470.0 1239.58 C 1470.0 1240.88 1471.12 1244.49 1472.5 1247.6 C 1473.88 1250.71 1475.0 1253.42 1475.0 1253.62 C 1475.0 1253.83 1474.6 1254.0 1474.1 1254.0 Z " opacity="1.0" fill="#000000" stroke="none" fill-rule="evenodd"/></svg>