<svg version="1.0" xmlns="http://www.w3.org/2000/svg"
 width="1200.000000pt" height="1600.000000pt" viewBox="0 0 1200.000000 1600.000000"
 preserveAspectRatio="xMidYMid meet">

<g transform="translate(0.000000,1600.000000) scale(0.100000,-0.100000)"
fill="#000000" stroke="none">
<path d="M5390 11492 c0 -4 -18 -8 -40 -9 -22 -1 -56 -7 -76 -13 -19 -7 -40
-10 -47 -7 -7 3 -21 -1 -32 -9 -10 -8 -27 -14 -37 -14 -10 0 -18 -4 -18 -10 0
-5 -6 -10 -14 -10 -18 0 -111 -91 -129 -127 -8 -15 -27 -66 -41 -113 -14 -47
-37 -102 -51 -122 -14 -20 -25 -39 -25 -42 0 -2 -17 -31 -38 -63 -53 -81 -94
-158 -122 -228 -13 -33 -32 -73 -41 -90 -10 -16 -33 -73 -53 -126 -42 -119
-59 -152 -102 -205 -22 -27 -40 -68 -55 -120 -12 -43 -28 -91 -35 -106 -19
-35 -18 -57 1 -32 13 18 14 17 15 -16 0 -20 -7 -45 -15 -57 -10 -14 -12 -24
-5 -28 6 -3 13 1 16 9 8 22 36 20 33 -1 -1 -10 -1 -36 0 -59 l1 -41 40 38 c47
45 133 75 171 60 53 -20 72 -63 55 -126 -6 -24 -5 -28 5 -17 7 6 21 12 31 12
21 0 24 -30 7 -62 -21 -40 9 -8 67 70 32 42 101 136 155 207 54 72 127 180
163 240 36 61 74 122 86 137 25 32 47 92 64 173 10 49 9 65 -1 87 -20 39 -53
175 -59 243 -12 122 35 260 127 374 l51 64 -7 61 c-4 46 -11 65 -26 74 -10 7
-19 9 -19 4z"/>
<path d="M6737 11486 c-11 -9 -19 -33 -23 -73 l-7 -60 51 -63 c80 -99 115
-184 128 -310 5 -52 1 -87 -20 -175 -15 -60 -33 -122 -40 -137 -12 -24 -12
-37 4 -100 23 -93 35 -124 61 -157 11 -14 50 -77 87 -139 63 -107 369 -530
384 -531 4 -1 0 15 -8 34 -13 31 -13 36 0 41 8 3 23 1 34 -5 19 -10 19 -8 12
25 -12 54 10 97 59 115 38 15 124 -15 171 -60 l40 -38 0 60 0 59 26 -17 c27
-17 27 -17 19 6 -4 13 -9 42 -12 64 -4 39 -3 39 13 20 l17 -20 -8 20 c-4 11
-21 65 -37 119 -20 68 -40 113 -63 140 -42 52 -59 87 -100 202 -19 51 -45 115
-59 141 -14 26 -34 71 -45 98 -27 68 -80 162 -178 318 -18 27 -38 75 -44 106
-15 71 -37 113 -88 175 -63 74 -122 112 -186 119 -17 2 -36 6 -42 10 -6 4 -35
8 -64 9 -30 1 -56 5 -59 9 -3 4 -13 2 -23 -5z"/>
</g>
</svg>
