<svg version="1.0" xmlns="http://www.w3.org/2000/svg"
 width="1200.000000pt" height="1600.000000pt" viewBox="0 0 1200.000000 1600.000000"
 preserveAspectRatio="xMidYMid meet">

<g transform="translate(0.000000,1600.000000) scale(0.100000,-0.100000)"
fill="#000000" stroke="none">
<path d="M4953 13060 c-18 -4 -54 -21 -80 -38 -67 -43 -318 -166 -378 -185
-59 -19 -170 -37 -237 -37 -44 0 -48 -2 -48 -23 0 -43 125 -150 226 -194 26
-11 83 -19 179 -24 87 -5 185 -18 260 -34 139 -31 125 -29 195 -17 114 21 170
70 170 150 0 35 -6 47 -37 76 -61 56 -89 75 -140 98 -43 19 -57 20 -168 13
-66 -4 -133 -9 -150 -10 -16 -1 -52 -12 -80 -24 -83 -37 -159 -54 -201 -46
l-39 7 68 18 c37 10 85 30 107 44 22 14 42 26 45 26 2 0 58 25 122 56 65 31
157 69 204 85 77 26 92 28 139 19 72 -14 82 -13 78 7 -6 34 -148 54 -235 33z
m126 -292 c66 -49 141 -122 141 -136 0 -18 -103 -77 -146 -83 -23 -4 -79 -2
-125 5 l-83 12 32 23 c33 23 66 74 55 84 -3 4 -7 21 -9 39 -3 23 -16 43 -42
65 l-37 32 79 1 c78 0 80 -1 135 -42z m-213 -4 c19 -19 34 -44 34 -55 0 -21
16 -26 23 -6 2 6 7 -3 11 -21 9 -40 -8 -63 -68 -94 -34 -18 -46 -19 -95 -9
-31 5 -81 13 -111 16 -30 3 -66 9 -78 12 -23 6 -23 6 6 20 42 20 56 55 38 97
l-14 34 46 12 c26 6 55 14 66 16 10 2 21 6 24 9 3 3 23 5 45 5 32 0 46 -6 73
-36z m-536 -13 c0 -9 8 -11 26 -7 15 4 59 2 99 -5 57 -9 80 -18 105 -41 18
-16 35 -26 38 -23 3 3 -7 17 -22 32 -26 23 -27 27 -11 36 13 7 22 4 38 -12 17
-17 19 -25 11 -48 -5 -15 -23 -34 -39 -43 -17 -8 -31 -18 -33 -22 -6 -14 -50
-8 -104 13 -29 11 -55 24 -58 28 -3 4 -26 20 -52 35 -27 15 -48 34 -48 42 0 8
-7 14 -15 14 -8 0 -15 3 -15 8 0 4 18 7 40 7 27 0 40 -4 40 -14z m63 12 c-7
-2 -19 -2 -25 0 -7 3 -2 5 12 5 14 0 19 -2 13 -5z"/>
<path d="M5130 12665 c0 -15 -5 -35 -10 -46 -7 -12 -7 -19 -1 -19 24 0 42 72
21 85 -6 4 -10 -5 -10 -20z"/>
<path d="M7005 13057 c-22 -7 -41 -20 -43 -29 -3 -15 6 -16 85 -11 78 4 96 2
153 -20 91 -35 271 -117 363 -166 43 -22 97 -44 119 -48 34 -5 38 -8 23 -14
-11 -4 -31 -8 -45 -8 -29 -1 -179 46 -198 62 -16 13 -121 22 -257 22 -96 0
-103 -1 -150 -32 -138 -88 -170 -155 -115 -231 33 -45 90 -72 155 -72 25 0 45
-4 45 -9 0 -6 13 -6 33 0 29 9 100 24 237 49 25 5 90 9 145 10 56 0 117 7 138
14 80 29 223 130 247 176 18 34 2 50 -50 50 -159 0 -328 60 -592 212 -82 47
-92 50 -170 54 -50 2 -99 -1 -123 -9z m243 -280 c-34 -29 -38 -37 -40 -88 -2
-63 7 -80 52 -99 17 -7 30 -16 30 -20 0 -8 -147 -24 -202 -21 -25 1 -60 15
-99 40 l-62 39 64 64 c110 112 122 118 214 118 l80 -1 -37 -32z m162 13 c29
-6 70 -15 91 -20 l38 -10 -15 -35 c-18 -43 -4 -77 38 -98 36 -18 25 -23 -68
-32 -38 -3 -89 -11 -114 -16 -36 -8 -53 -7 -82 5 -44 19 -92 66 -79 79 5 5 8
15 7 21 -2 6 -1 8 1 3 8 -12 23 3 23 23 0 25 63 90 87 90 11 0 44 -5 73 -10z
m373 -27 c-7 -2 -19 -2 -25 0 -7 3 -2 5 12 5 14 0 19 -2 13 -5z m117 -3 c0 -5
-7 -10 -15 -10 -8 0 -15 -6 -15 -13 0 -29 -179 -127 -231 -127 -32 0 -98 48
-105 76 -9 34 21 66 54 58 22 -6 21 -7 -10 -35 -18 -15 -29 -31 -25 -35 4 -4
13 -1 20 7 43 50 57 55 182 63 33 2 67 6 75 9 8 3 26 8 40 10 14 2 26 5 28 6
1 0 2 -3 2 -9z"/>
<path d="M7006 12672 c-5 -15 -2 -31 8 -47 19 -29 32 -33 21 -7 -4 9 -11 31
-14 47 -7 29 -8 29 -15 7z"/>
</g>
</svg>
