<svg version="1.0" xmlns="http://www.w3.org/2000/svg"
 width="1200.000000pt" height="1600.000000pt" viewBox="0 0 1200.000000 1600.000000"
 preserveAspectRatio="xMidYMid meet">

<g transform="translate(0.000000,1600.000000) scale(0.100000,-0.100000)"
fill="#000000" stroke="none">
<path d="M6062 14453 c-5 -10 -15 -56 -21 -103 -13 -89 -46 -260 -61 -320 -20
-76 -60 -424 -60 -520 1 -125 37 -255 87 -311 50 -56 88 -54 140 5 77 88 102
287 68 541 -8 61 -20 146 -26 190 -5 44 -14 96 -20 115 -12 44 -43 209 -60
318 -13 87 -30 118 -47 85z"/>
</g>
</svg>
