<?xml version="1.0" encoding="utf-8"?>
<!-- Generator: Adobe Illustrator 16.0.0, SVG Export Plug-In . SVG Version: 6.00 Build 0)  -->
<!DOCTYPE svg PUBLIC "-//W3C//DTD SVG 1.1//EN" "http://www.w3.org/Graphics/SVG/1.1/DTD/svg11.dtd">
<svg version="1.1" xmlns="http://www.w3.org/2000/svg" xmlns:xlink="http://www.w3.org/1999/xlink" x="0px" y="0px" width="1200px"
	 height="1600px" viewBox="0 0 1200 1600" enable-background="new 0 0 1200 1600" xml:space="preserve">
<g id="Layer_1">
	<g transform="translate(0.000000,1600.000000) scale(0.100000,-0.100000)">
		<path d="M1624.956,9633.494c-5.146-0.322-101.172-37.148-214.736-80.805c-236.65-90.348-314.482-178.072-441.885-294.361
			c-247.246-227.553-374.678-473.798-450-938.563c-35.254-217.168-35.737-407.949-8.335-644.766c85-340,105.713-573.828,245-820
			c121.943-216.191,282.085-495.215,386.567-593.516c141.543-132.598,130.068-110.674,66.768,156.846
			c-84.063,354.121-85.43,851.865-28.896,1038.975c6.279,21.68,12.021,57.617,13.154,78.965c0.771,22.578,9.834,43.789,19.824,49.57
			c15.596,8.848,22.178,0.43,34.219-37.773c8.662-27.461,19.004-47.832,24.98-45.957c9.541,3.027,61.543-61.973,78.73-99.863
			c5.332-12.754,19.854-21.309,30.146-20.684c13.877,1.738-1.938,88.184,14.507,173.438c38.623,206.426,83.574,357.979,100,393.33
			c43.896,93.901,360.62,420.684,546.665,563.335l190,113.335l-128.623-158.613c-49.287-85.098-41.064-90.386,13.33-8.926
			c63.701,93.574,67.324,73.721,7.646-40.908c-30.264-58.096-53.271-109.985-52.148-113.564c1.504-4.771,39.502,42.7,76.465,75.347
			c150.693,134.116,244.414,207.056,480,280c193.418,60.962,218.047,31.821,333.33,36.665
			c130.762,5.767,180.186-10.894,206.67-36.665c7.793-8.047,37.021-57.944,50-86.67c34.785-76.978,18.887-89.072,61.367-57.3
			c19.248,13.94,43.447,41.25,54.463,60.474c19.561,33.721,19.561,33.721,44.619,16.694c13.311-8.936,65.166-56.909,113.828-107.192
			c48.281-49.106,97.471-92.671,108.516-94.429c12.627-2.578,29.785,5.454,42.744,22.666c23.838,28.506,38.467,27.861,47.871-1.987
			c3.379-10.742,19.014-22.876,35.976-26.719c24.443-6.738,31.025-15.161,33.652-48.457c1.982-22.998,9.326-58.755,15.732-79.053
			c11.357-31.855,8.828-40.527-12.656-47.3c-21.113-7.954-29.121-36.733-45.703-154.844
			c-19.756-141.416-22.256-150.078-116.406-313.633c-53.77-91.758-118.779-193.652-145.068-226.855
			c-48.467-58.594-296.919-312.344-292.271-318.73c5.039-7.617,112.5,2.5,112.5,2.5s-300.313-254.766-490-402.5
			c-157.5-85-211.797-87.129-177.5-96.25c219.385-58.34,443.081,94.316,608.062,208.008
			c58.457,39.434,143.359,98.984,191.006,131.074c210.244,145.02,430.771,361.523,550.918,542.461
			c114.902,172.715,181.953,326.426,204.902,470.161c5.605,28.013,12.334,52.451,17.109,53.96
			c4.785,1.504,7.051,19.282,4.619,39.521c-2.686,29.336-19.116,51.982,10.054,67.729c89.863,48.013,214.326,111.626,275,165
			c76.284,67.104,87.725,49.785,128.33,36.46c49.58-16.274,94.497-56.611,89.907-71.187c-2.959-11.44,1.807-9.937,16.709,5.269
			c29.805,30.391,21.694,93.179,32.759,212.168c5.684,56.919,26.26,116.616,31.045,118.125c4.775,1.504,38.193-6.836,49.58-13.75
			c24.668-15.845,20.981-20.151,41.665,10c16.582,22.29,6.343,158.135-2.29,265.624c-4.351,54.186,22.192,31.299,84.712,149.443
			c74.785,141.699,49.868,206.979,40.913,360.348c-4.033,66.982,31.021,90.209,14.565,100.771
			c-16.445,10.57-28.892,24.301-14.565,28.813c20.293,6.402,81.074,129.039,96.25,185c8.809,30.352,41.665,40.322,55.425,34.156
			c31.465-12.389,31.416,8.594,0.654,39.58c-15.586,16.098-29.941,32.568-32.656,36.967c-3.066,5.596-33.779,40.537-71.143,79.951
			c-35.781,38.6-68.379,79.518-72.139,91.455c-7.9,25.068-69.336,45.084-159.492,52.105c-38.75,2.221-91.641,11.807-116.846,20.932
			c-50.01,17.057-122.373,21.807-159.385,10.143c-71.641-22.584-275.195-242.936-262.012-284.723
			c2.256-7.158-18.691-28.188-45.898-45.961c-27.207-17.764-104.971-75.088-173.545-128.203
			c-77.002-59.697-161.406-112.549-225.234-143.184c-57.09-27.164-115.029-59.873-131.113-75.439
			c-23.311-21.783-28.105-23.287-32.617-8.975c-10.156,32.24-29.141,9.199-53.32-64.049l-23.34-71.68l-98.438,33.297
			c-54.336,18.314-135.542,28.252-195.151,63.285c-133.33,77.412-364.717,171.988-520,214.928
			c-115.078,31.982-311.001,87.445-459.458,87.9c-81.162-0.645-376.611-29.439-566.299-56.406
			C1680.122,9641.688,1628.921,9633.426,1624.956,9633.494z M1961.02,9629.148c395.713,60.416,937.412-54.99,1401.767-299.766
			c81.65-42.523,171.211-85.166,196.035-93.096c26.387-8.74,51.445-25.785,55.586-38.916c3.75-11.943,40.918-63.242,82.852-113.021
			c50.127-59.023,84.072-112.627,96.933-149.268l20.02-59.322l-70.117-98.222c-45.771-62.988-74.013-119.141-80.127-153.877
			c-10.146-63.574-37.959-116.973-64.219-125.249c-10.752-3.384-35.811,13.662-56.016,36.152
			c-53.682,57.896-164.531,130.591-189.609,122.69c-11.953-3.765-28.535-26.055-36.475-50.869
			c-22.021-63.379-47.412-66.133-65.84-7.632c-19.961,63.281-105.986,152.983-128.848,133.965
			c-8.428-6.597-63.828-5.684-122.715,2.017c-231.484,30.723-464.932-32.358-687.236-189.053
			c-76.514-52.983-80.908-55.679-60.586-24.346c30.43,45.034,132.461,158.569,146.777,163.081c5.977,1.885,8.877,9.36,6.992,15.327
			c-2.256,7.158-47.949-1.978-112.402-22.295c-220.879-69.624-487.51-273.091-661.992-506.597
			c-38.857-51.621-65.82-78.491-62.432-64.297c1.836,15.015,9.648,31.904,17.246,36.934c10.43,8.54,8.477,10.552-3.457,6.787
			c-25.449-6.709-109.004-128.862-146.074-215.356c-18.477-41.27-47.744-135.801-65.957-207.188
			c-48.604-187.246-46.963-184.102-54.414-131.328c-6.826,42.48-10.351,45.293-44.463,41.094
			c-20.215-2.422-51.143-4.277-67.793-5.605c-29.707-1.484-33.857-13.301-58.682-126.113
			c-59.902-272.207-73.486-424.805-58.74-659.043c9.658-159.707,36.27-323.262,67.119-421.152
			c32.744-103.887-6.826-78.301-103.438,65.84C807.202,6851.737,725.62,7018.964,627.866,7358.3
			c-81.328,278.867-115.215,482.129-106.387,633.223c16.455,301.826,135.449,748.833,256.055,957.485
			c103.125,180.82,261.68,335.795,463.535,453.232C1434.956,9515.848,1639.136,9580.199,1961.02,9629.148z M4608.188,10067.098
			c22.49-4.717,54.473-10.391,71.436-14.232c17.773-2.266,28.691-11.953,25.43-18.232c-2.9-7.48-0.508-6.725,5.527-0.895
			c8.877,9.361,142.686,9.541,161.162,0.928c9.795-6.104,3.174-143.383-9.863-189.492l-12.646-47.299l-156.396-49.293
			l-157.598-49.672l-36.475,44.941c-19.414,24.066-49.795,78.813-66.104,122.236l-30.361,79.688l51.484,49.037
			C4517.768,10058.289,4558.061,10076.238,4608.188,10067.098z M4357.29,9905.33c9.561,3.014,15.84-0.258,14.512-8.549
			c-1.699-7.1-8.174-15.709-15.332-17.959c-5.967-1.881-12.627,2.582-14.521,8.555
			C4339.702,9894.539,4346.547,9901.951,4357.29,9905.33z M4399.223,9830.609c8.271-26.27,32.07-72.584,53.721-103.824
			c52.539-79.258,90.107-81.85,273.301-17.549l138.555,47.607l-6.436-54.525c-5.625-52.975-8.828-55.289-68.604-78.066
			c-34.229-12.109-126.494-35.928-204.717-50.088l-142.178-27.75l-34.082,95.582c-18.135,53.35-37.559,123.35-42.568,155.898
			C4355.581,9873.289,4378.52,9896.273,4399.223,9830.609z M4292.954,9797.113c1.504-4.771,24.834-78.789,50.732-165.133
			c26.729-84.766,56.348-162.07,66.504-169.355c12.51-10.492,13.828-2.207,3.73,33.984c-7.07,26.646-6.504,37.32,0.02,24.947
			c6.904-13.574,27.695-25.406,47.031-28.502c36.758-4.154,308.545,78.877,405.879,123.994c55.879,26.797,57.07,27.174,48.867,82.35
			c-9.512,71.807,2.383,96.557,26.67,56.957c10.791-17.592,15.498-44.99,11.963-67.1c-2.715-20.541-3.916-45.869-0.537-56.605
			c1.836-9.938,2.139-110.895-0.137-224.492l-3.369-205.816l-52.891-86.23c-29.307-48.607-58.164-94.473-64.258-104.262
			c-6.494-8.604-9.16-75.074-5.557-144.82c3.994-70.937,4.951-132.304,3.32-135.453c-2.451-4.702-20.303-6.396-39.648-3.301
			c-31.221,3.281-39.199-0.552-55.127-29.194c-10.986-19.219-23.223-88.701-29.854-155.098
			c-5.449-66.035-16.66-122.07-25.02-124.707c-8.35-2.627-45.41,6.685-82.422,19.966l-66.895,24.854l-118.086-79.224
			c-98.486-66.484-138.408-85.625-243.467-118.74c-82.002-27.148-140-38.867-170.859-36.777
			c-41.895,3.853-45.781,7.871-51.045,49.541c-3.936,25.005-20.098,126.226-37.051,225.884
			c-45.029,271.938-47.803,247.441,20.244,268.887c51.338,16.187,60.586,24.351,74.688,62.915
			c9.551,27.949,18.857,40.063,27.461,33.599c7.422-6.851,12.256-1.393,12.949,17.207c0.156,32.861-51.826,122.793-106.182,187.031
			c-50.107,59.027-204.609,199.336-224.697,204.818c-30.342,8.805-94.311,29.059-90.913,43.262
			c5.498,20.104,37.251,64.521,69.927,52.5c20.449-6.674,30.771-6.055,33.74,5.381c3.818,16.959,91.26,85.211,283.154,221.822
			c74.102,52.23,147.9,109.609,164.805,126.758C4209.692,9765.629,4287.25,9811.068,4292.954,9797.113z M4933.569,9942.586
			c7.168,2.262,131.006-99.154,134.385-109.893c2.266-7.172-5.596-28.018-15.41-46.859l-20.381-35.309l-29.004,42.057
			c-15.43,24.004-42.754,48.203-58.906,53.623c-28.76,8.002-29.883,11.576-22.891,51.846
			C4925.698,9921.723,4931.186,9941.84,4933.569,9942.586z M3685.288,9222.322c11.66-12.055,28.193-18.666,37.744-15.654
			c14.346,4.512,71.416-39.189,78.184-60.678c1.123-3.58-21.426-2.813-51.826,2.045c-40.273,6.998-58.301,18.375-73.301,45.143
			C3651.86,9236.732,3655.639,9249.744,3685.288,9222.322z M3755.2,9092.113c0.43,2.768,26.133,0.365,55.352-4.873
			c54.082-9.199,119.648-67.295,166.592-149.609c31.943-55.557,5.85-101.855-70.557-125.938l-63.281-19.946l-0.791-72.437
			c-0.654-39.58,5.596-92.739,13.135-116.621c6.318-24.253,7.871-50.02,2.236-57.041c-12.52-14.453-101.914,40.073-112.129,68.35
			c-3.75,11.938,21.045,74.888,53.809,141.646c34.336,65.952,60.371,133.222,59.883,151.45
			c-1.67,17.836-25.107,62.959-54.092,105.014C3775.532,9052.582,3753.569,9088.973,3755.2,9092.113z M3857.5,8442.499
			c16.943-28.789,18.481-70.962,15.659-74.478c-1.631-3.145-23.74,0.386-49.746,7.944
			c-48.047,15.044-138.349,109.961-131.162,137.168C3704.516,8561.62,3804.648,8526.918,3857.5,8442.499z M3835.629,8324.687
			c11.445-2.959,26.514-0.815,34.941,5.767c18.848,15.132,30.83-27.026,17.549-64.028c-10.762-28.335-10.762-28.335-35.82-11.284
			c-13.691,10.117-29.199,30.166-34.092,45.684C3808.422,8331.864,3808.422,8331.864,3835.629,8324.687z M3806.997,8124.032
			c20.596-23.691,26.494-25.767,31.895-9.629c4.688,18.53,7.051,19.277,22.695,7.148c8.984-7.666,19.463-20.117,22.1-28.472
			c2.256-7.163,17.52-18.105,33.672-23.516c16.143-5.41,26.699-13.901,22.607-21.743c-3.281-6.299,35.303,4.565,85.137,25.518
			l91.689,38.081l8.208-73.086c-16.016-82.476-167.437-378.354-266.665-513.335c-168.115-232.813-556.855-528.945-908.232-734.199
			c-67.939-38.477-161.948-59.941-165.103-58.301c-3.135,1.621,94.8,44.004,171.05,106.113
			c174.541,141.641,264.238,227.656,339.502,326.191c59.922,80.586,57.852,99.609-10.586,79.355
			c-25.059-7.891-27.021-5.879-17.197,12.969c6.543,12.559,55.645,60.84,109.453,106.68
			c146.191,127.441,172.49,160.684,287.705,378.125c93.574,177.803,105.976,209.287,108.72,279.712
			C3778.295,8160.932,3778.676,8159.745,3806.997,8124.032z M3939.34,8178.871c7.227,6.216,24.629,5.137,37.568-2.593
			c12.939-7.734,40.889-17.314,63.828-19.258c39.521-4.614,37.129-5.371-40.107-31.016c-77.598-24.463-80.371-24.023-89.404,4.634
			c-5.264,16.719-4.629,31.353,1.348,33.232C3918.54,8165.751,3930.913,8172.284,3939.34,8178.871z"/>
		<path d="M1961.02,9196.02c356.777,75.697,510.146,84.662,768.398,43.998c84.131-12.865,222.529-47.998,306.748-77.895
			c166.914-58.965,410.303-185.699,494.639-257.559c90.166-77.886,109.014-87.7,116.953-62.886
			c7.549,26.001-12.393,89.286-47.051,149.243c-22.334,37.588-21.201,33.998,2.764-25.387c16.006-38.266,27.9-84.385,26.836-101.796
			c-0.908-30.469-4.053-28.833-57.871,21.138c-154.033,143.086-478.506,298.076-742.412,356.65
			c-288.789,62.543-534.766,55.898-862.334-25.025C1667.593,9144.223,1664.624,9132.787,1961.02,9196.02z"/>
		<path d="M1033.784,8352.509c-101.26-186.787-152.031-313.057-169.688-423.623c-17.588-106.602-10.371-125.332,9.854-27.09
			c10.205,42.598,32.432,117.856,52.236,167.417c41.035,111.372,247.705,496.772,335.801,629.541
			c34.512,52.876,63.008,99.922,62.246,102.305C1318.208,8820.16,1130.151,8529.882,1033.784,8352.509z"/>
		<path d="M4901.264,9591.141c-1.318-8.281,3.828-7.982,12.266-1.391c9.6,6.982,16.084,15.586,15.332,17.963
			C4925.844,9617.27,4904.663,9605.346,4901.264,9591.141z"/>
		<path d="M4620.18,9495.99l-0.137-32.857c0.488-18.223,3.232-43.607,7.373-56.738l6.338-24.252l3.223,27.26
			c1.826,15.016-2.129,40.02-7.393,56.738L4620.18,9495.99z"/>
		<path d="M4432.534,9400.096c2.822-21.426,66.025-101.25,71.758-90.264c1.26,4.346-14.551,29.541-35.088,57.197
			C4448.295,9395.873,4431.899,9410.398,4432.534,9400.096z"/>
		<path d="M4622.28,9335.213c-2.061-5.908-20.977-24.994-40.654-41.693c-52.168-42.691-280.977-257.877-271.045-256.061
			c29.014,7.842,339.424,297.301,325.664,303.467C4629.975,9344.203,4624.008,9342.322,4622.28,9335.213z"/>
		<path d="M4076.831,9004.471c44.941-59.326,78.164-85.605,93.389-75.566c7.227,6.227-19.893,42.295-63.477,88.945
			C4028.93,9102.264,4008.208,9093.1,4076.831,9004.471z"/>
		<path d="M4744.663,9071.898c-1.475-41.158-10.674-95.24-20.557-118.037c-15.732-41.705-18.115-42.461-71.211-44.756
			c-30.898-1.875-64.961-2.1-75.625-1.529c-42.734,2.285-6.748-24.443,51.23-37.666c73.75-17.445,102.783-9.604,128.389,29.957
			c25.576,39.574,50.82,226.029,34.189,249.662C4767.475,9182.771,4748.344,9151.814,4744.663,9071.898z M4779.077,9141.811
			c2.08,5.898,7.9-0.137,10.859-13.633c4.141-13.145,1.67-17.857-4.912-9.434
			C4778.803,9125.975,4776.606,9137.098,4779.077,9141.811z"/>
		<path d="M4475.356,8706.137l-12.461-60.366l-65.596-16.743l-66.787-17.109l37.725-15.664
			c103.467-40.889,160.557,11.226,145.156,134.995C4507.202,8788.363,4489.975,8776.366,4475.356,8706.137z"/>
		<path d="M4338.471,10060.844c-5.723-10.996-6.289-21.67-1.582-24.127c4.707-2.451,9.98,5.781,9.805,18.844
			C4348.588,10074.529,4347.026,10075.355,4338.471,10060.844z"/>
		<path d="M5033.095,8158.847"/>
	</g>
	<g transform="translate(0.000000,1600.000000) scale(0.100000,-0.100000)">
		<path d="M10432.128,9649.826c-189.688,26.969-485.137,55.762-566.299,56.406c-148.457-0.453-344.385-55.918-459.463-87.9
			c-155.273-42.939-386.66-137.514-520-214.926c-59.609-35.035-140.811-44.971-195.146-63.287l-98.438-33.295l-23.34,71.68
			c-24.18,73.246-43.164,96.289-53.32,64.047c-4.512-14.311-9.307-12.807-32.617,8.975c-16.084,15.566-74.023,48.277-131.113,75.439
			c-63.828,30.635-148.232,83.486-225.234,143.184c-68.574,53.115-146.338,110.439-173.545,128.203
			c-27.207,17.773-48.154,38.805-45.898,45.963c13.184,41.787-190.371,262.139-262.012,284.721
			c-37.012,11.666-109.375,6.914-159.385-10.141c-25.205-9.127-78.096-18.711-116.846-20.934
			c-90.156-7.021-151.592-27.035-159.492-52.104c-3.76-11.939-36.357-52.857-72.139-91.455
			c-37.363-39.414-68.076-74.355-71.143-79.951c-2.715-4.4-17.07-20.869-32.656-36.969c-30.762-30.986-30.811-51.967,0.654-39.58
			c13.76,6.168,46.611-3.803,55.42-34.154c15.176-55.963,75.957-178.6,96.25-185c14.336-4.512,1.885-18.242-14.561-28.814
			c-16.455-10.561,18.604-33.789,14.561-100.771c-8.945-153.369-33.867-218.646,40.918-360.346
			c62.52-118.145,89.063-95.26,84.707-149.443c-8.633-107.49-18.867-243.335-2.285-265.625c20.684-30.151,16.992-25.845,41.66-10
			c11.387,6.914,44.805,15.254,49.59,13.75c4.785-1.509,25.352-61.206,31.035-118.125c11.074-118.989,2.959-181.777,32.764-212.168
			c14.902-15.205,19.668-16.709,16.709-5.269c-4.59,14.575,40.332,54.912,89.902,71.187c40.605,13.325,52.051,30.645,128.34-36.46
			c60.664-53.374,185.137-116.987,275-165c29.16-15.747,12.734-38.394,10.049-67.729c-2.432-20.239-0.166-38.018,4.619-39.521
			c4.775-1.509,11.504-25.947,17.109-53.96c22.949-143.735,90-297.446,204.902-470.161
			c120.146-180.938,340.674-397.441,550.918-542.461c47.646-32.09,132.549-91.641,191.006-131.074
			c164.98-113.691,388.682-266.348,608.057-208.008c34.297,9.121-20,11.25-177.5,96.25c-189.688,147.734-490,402.5-490,402.5
			s107.461-10.117,112.5-2.5c4.648,6.387-243.799,260.137-292.266,318.73c-26.289,33.203-91.299,135.098-145.068,226.855
			c-94.15,163.555-96.65,172.217-116.406,313.633c-16.582,118.11-24.59,146.89-45.703,154.844
			c-21.484,6.772-24.014,15.444-12.656,47.3c6.406,20.298,13.75,56.055,15.732,79.053c2.627,33.296,9.209,41.719,33.652,48.457
			c16.963,3.843,32.598,15.977,35.977,26.719c9.404,29.849,24.033,30.493,47.871,1.987c12.959-17.212,30.117-25.244,42.744-22.666
			c11.045,1.758,60.234,45.322,108.516,94.429c48.662,50.283,100.518,98.257,113.828,107.192
			c25.059,17.026,25.059,17.026,44.619-16.694c11.016-19.224,35.215-46.533,54.463-60.474c42.48-31.772,26.582-19.678,61.367,57.3
			c12.979,28.726,42.207,78.623,50,86.67c26.484,25.771,75.908,42.432,206.67,36.665c115.283-4.844,139.912,24.297,333.33-36.665
			c235.586-72.944,329.307-145.884,480-280c36.963-32.646,74.961-80.117,76.465-75.347c1.123,3.579-21.885,55.469-52.148,113.564
			c-59.678,114.629-56.055,134.482,7.646,40.908c54.395-81.46,62.617-76.172,13.33,8.926l-128.623,158.613l190-113.335
			c186.045-142.651,502.773-469.434,546.66-563.335c16.426-35.352,61.387-186.904,100-393.33
			c16.445-85.254,0.635-171.699,14.512-173.438c10.293-0.625,24.814,7.93,30.146,20.684c17.188,37.891,69.189,102.891,78.73,99.863
			c5.977-1.875,16.318,18.496,24.98,45.957c12.041,38.203,18.623,46.621,34.219,37.773c9.99-5.781,19.053-26.992,19.824-49.57
			c1.133-21.348,6.875-57.285,13.154-78.965c56.533-187.109,55.166-684.854-28.896-1038.975
			c-63.301-267.52-74.775-289.443,66.768-156.846c104.482,98.301,264.629,377.324,386.563,593.516c139.297,246.172,160,480,245,820
			c27.402,236.816,26.924,427.598-8.33,644.766c-75.322,464.766-202.754,711.01-450,938.564
			c-127.402,116.289-205.234,204.014-441.885,294.359c-113.564,43.658-209.59,80.484-214.736,80.807
			C10542.45,9633.426,10491.249,9641.688,10432.128,9649.826z M10930.302,9402.238c201.855-117.436,360.41-272.412,463.535-453.232
			c120.605-208.651,239.6-655.658,256.055-957.484c8.828-151.094-25.059-354.355-106.387-633.223
			c-97.754-339.336-179.336-506.563-422.852-866.875c-96.611-144.141-136.182-169.727-103.438-65.84
			c30.85,97.891,57.461,261.445,67.119,421.152c14.746,234.238,1.162,386.836-58.74,659.043
			c-24.824,112.813-28.975,124.629-58.682,126.113c-16.65,1.328-47.578,3.184-67.793,5.605
			c-34.111,4.199-37.637,1.387-44.463-41.094c-7.451-52.773-5.811-55.918-54.414,131.328
			c-18.213,71.387-47.48,165.918-65.957,207.188c-37.07,86.494-120.625,208.647-146.074,215.356
			c-11.934,3.765-13.887,1.753-3.457-6.787c7.598-5.029,15.41-21.919,17.246-36.934c3.389-14.194-23.574,12.676-62.432,64.297
			c-174.482,233.506-441.113,436.973-661.992,506.597c-64.453,20.317-110.146,29.453-112.402,22.295
			c-1.885-5.967,1.016-13.442,6.992-15.327c14.316-4.512,116.348-118.047,146.777-163.081
			c20.322-31.333,15.928-28.638-60.586,24.346c-222.305,156.694-455.752,219.775-687.236,189.053
			c-58.887-7.7-114.287-8.613-122.715-2.017c-22.861,19.019-108.887-70.684-128.848-133.965
			c-18.428-58.501-43.818-55.747-65.84,7.632c-7.939,24.814-24.521,47.104-36.475,50.869c-25.078,7.9-135.928-64.795-189.609-122.69
			c-20.205-22.49-45.264-39.536-56.016-36.152c-26.26,8.276-54.072,61.675-64.219,125.249
			c-6.113,34.736-34.355,90.889-80.127,153.877l-70.117,98.223l20.02,59.32c12.861,36.641,46.807,90.244,96.934,149.268
			c41.934,49.781,79.102,101.08,82.852,113.023c4.141,13.129,29.199,30.176,55.586,38.916c24.824,7.93,114.385,50.57,196.035,93.096
			c464.355,244.775,1006.055,360.18,1401.768,299.766C10532.235,9580.197,10736.415,9515.848,10930.302,9402.238z
			 M7717.587,9994.813l51.484-49.039l-30.361-79.688c-16.309-43.422-46.689-98.168-66.104-122.236l-36.475-44.941l-157.598,49.674
			l-156.396,49.291l-12.646,47.301c-13.037,46.107-19.658,183.389-9.863,189.492c18.477,8.613,152.285,8.432,161.162-0.928
			c6.035-5.83,8.428-6.588,5.527,0.893c-3.262,6.279,7.656,15.967,25.43,18.232c16.963,3.844,48.945,9.518,71.436,14.234
			C7613.31,10076.238,7653.603,10058.289,7717.587,9994.813z M7829.423,9887.375c-1.895-5.971-8.555-10.434-14.521-8.555
			c-7.158,2.252-13.633,10.859-15.332,17.959c-1.328,8.291,4.951,11.563,14.512,8.551
			C7824.823,9901.951,7831.669,9894.539,7829.423,9887.375z M7805.155,9797.893c-5.01-32.549-24.434-102.549-42.568-155.898
			l-34.082-95.58l-142.178,27.748c-78.223,14.16-170.488,37.979-204.717,50.088c-59.775,22.779-62.979,25.094-68.604,78.066
			l-6.436,54.527l138.555-47.607c183.193-64.303,220.762-61.709,273.301,17.549c21.65,31.24,45.449,77.553,53.721,103.822
			C7792.851,9896.271,7815.79,9873.289,7805.155,9797.893z M7994.745,9728.957c16.904-17.148,90.703-74.525,164.805-126.758
			c191.895-136.611,279.336-204.863,283.154-221.82c2.969-11.436,13.291-12.057,33.74-5.381
			c32.676,12.021,64.434-32.398,69.922-52.5c3.398-14.205-60.566-34.459-90.908-43.262c-20.088-5.484-174.59-145.791-224.697-204.82
			c-54.355-64.238-106.338-154.17-106.182-187.031c0.693-18.598,5.527-24.057,12.949-17.207c8.604,6.465,17.91-5.648,27.461-33.598
			c14.102-38.564,23.35-46.729,74.688-62.915c68.047-21.445,65.273,3.052,20.244-268.887
			c-16.953-99.658-33.115-200.879-37.051-225.884c-5.264-41.67-9.15-45.688-51.045-49.541c-30.859-2.09-88.857,9.629-170.859,36.777
			c-105.059,33.115-144.98,52.256-243.467,118.74l-118.086,79.224l-66.895-24.854c-37.012-13.281-74.072-22.593-82.422-19.966
			c-8.359,2.637-19.57,58.672-25.02,124.707c-6.631,66.396-18.867,135.879-29.854,155.098
			c-15.928,28.643-23.906,32.476-55.127,29.194c-19.346-3.096-37.197-1.401-39.648,3.301c-1.631,3.149-0.674,64.517,3.32,135.454
			c3.604,69.746,0.938,136.215-5.557,144.818c-6.094,9.791-34.951,55.654-64.258,104.264l-52.891,86.23l-3.369,205.814
			c-2.275,113.6-1.973,214.557-0.137,224.492c3.379,10.738,2.178,36.064-0.537,56.607c-3.535,22.109,1.172,49.506,11.963,67.1
			c24.287,39.6,36.182,14.848,26.67-56.959c-8.203-55.176-7.012-55.551,48.867-82.348c97.334-45.117,369.121-128.15,405.879-123.994
			c19.336,3.096,40.127,14.926,47.031,28.5c6.523,12.373,7.09,1.699,0.02-24.945c-10.098-36.191-8.779-44.479,3.73-33.984
			c10.156,7.285,39.775,84.59,66.504,169.355c25.898,86.342,49.229,160.361,50.732,165.131
			C7884.12,9811.066,7961.679,9765.627,7994.745,9728.957z M7250.009,9898.049c6.992-40.268,5.869-43.842-22.891-51.846
			c-16.152-5.42-43.477-29.619-58.906-53.623l-29.004-42.055l-20.381,35.307c-9.814,18.844-17.676,39.688-15.41,46.861
			c3.379,10.736,127.217,112.152,134.385,109.893C7240.185,9941.838,7245.673,9921.721,7250.009,9898.049z M8495.282,9193.176
			c-15-26.768-33.027-38.145-73.301-45.141c-30.4-4.859-52.949-5.625-51.826-2.047c6.768,21.49,63.838,65.191,78.184,60.68
			c9.551-3.014,26.084,3.598,37.744,15.654C8515.731,9249.744,8519.511,9236.73,8495.282,9193.176z M8366.015,9012.107
			c-28.984-42.057-52.422-87.178-54.092-105.016c-0.488-18.227,25.547-85.497,59.883-151.449
			c32.764-66.758,57.559-129.707,53.809-141.646c-10.215-28.276-99.609-82.803-112.129-68.35
			c-5.635,7.021-4.082,32.788,2.236,57.041c7.539,23.882,13.789,77.041,13.135,116.621l-0.791,72.437l-63.281,19.946
			c-76.406,24.082-102.5,70.38-70.557,125.937c46.943,82.314,112.51,140.41,166.592,149.609c29.219,5.24,54.922,7.643,55.352,4.873
			C8417.802,9088.973,8395.839,9052.58,8366.015,9012.107z M8479.12,8513.133c7.188-27.207-83.115-122.124-131.162-137.168
			c-26.006-7.559-48.115-11.089-49.746-7.944c-2.822,3.516-1.279,45.688,15.654,74.478
			C8366.718,8526.917,8466.854,8561.619,8479.12,8513.133z M8353.163,8300.823c-4.893-15.518-20.4-35.566-34.092-45.684
			c-25.059-17.051-25.059-17.051-35.82,11.284c-13.281,37.002-1.299,79.16,17.549,64.028c8.428-6.582,23.496-8.726,34.941-5.767
			C8362.948,8331.863,8362.948,8331.863,8353.163,8300.823z M8397.724,8021.644c2.744-70.425,15.146-101.909,108.721-279.712
			c115.215-217.441,141.514-250.684,287.705-378.125c53.809-45.84,102.91-94.121,109.453-106.68
			c9.824-18.848,7.861-20.859-17.197-12.969c-68.438,20.254-70.508,1.23-10.586-79.355
			c75.264-98.535,164.961-184.551,339.502-326.191c76.25-62.109,174.189-104.492,171.045-106.113
			c-3.145-1.641-97.158,19.824-165.098,58.301c-351.377,205.254-740.117,501.387-908.232,734.199
			c-99.229,134.98-250.654,430.859-266.67,513.335l8.213,73.086l91.689-38.081c49.834-20.952,88.418-31.816,85.137-25.518
			c-4.092,7.842,6.465,16.333,22.607,21.743c16.152,5.41,31.416,16.353,33.672,23.516c2.637,8.354,13.115,20.806,22.1,28.472
			c15.645,12.129,18.008,11.382,22.695-7.148c5.4-16.138,11.299-14.063,31.895,9.629
			C8392.694,8159.744,8393.075,8160.931,8397.724,8021.644z M8258.798,8163.87c5.977-1.88,6.611-16.514,1.348-33.232
			c-9.033-28.657-11.807-29.097-89.404-4.634c-77.236,25.645-79.629,26.401-40.107,31.016c22.939,1.943,50.889,11.523,63.828,19.258
			c12.939,7.729,30.342,8.809,37.568,2.593C8240.458,8172.283,8252.831,8165.75,8258.798,8163.87z"/>
		<path d="M10203.681,9216.502c-327.568,80.922-573.545,87.568-862.334,25.023c-263.906-58.574-588.379-213.564-742.412-356.65
			c-53.818-49.97-56.963-51.605-57.871-21.137c-1.064,17.412,10.83,63.529,26.836,101.797c23.965,59.385,25.098,62.973,2.764,25.385
			c-34.658-59.955-54.6-123.242-47.051-149.242c7.939-24.814,26.787-15,116.953,62.885
			c84.336,71.861,327.725,198.594,494.639,257.559c84.219,29.898,222.617,65.029,306.748,77.896
			c258.252,40.664,411.621,31.699,768.398-44C10506.747,9132.785,10503.778,9144.221,10203.681,9216.502z"/>
		<path d="M10847.138,8801.058c-0.762-2.383,27.734-49.429,62.246-102.305c88.096-132.769,294.766-518.169,335.801-629.541
			c19.805-49.561,42.031-124.819,52.236-167.417c20.225-98.242,27.441-79.512,9.854,27.09
			c-17.656,110.566-68.428,236.836-169.688,423.623C11041.22,8529.881,10853.163,8820.159,10847.138,8801.058z"/>
		<path d="M7242.509,9607.713c-0.752-2.379,5.732-10.982,15.332-17.965c8.438-6.592,13.584-6.889,12.266,1.393
			C7266.708,9605.344,7245.526,9617.268,7242.509,9607.713z"/>
		<path d="M7541.786,9466.141c-5.264-16.719-9.219-41.725-7.393-56.738l3.223-27.262l6.338,24.254
			c4.141,13.129,6.885,38.516,7.373,56.738l-0.137,32.855L7541.786,9466.141z"/>
		<path d="M7702.167,9367.029c-20.537-27.656-36.348-52.852-35.088-57.197c5.732-10.986,68.936,68.838,71.758,90.264
			C7739.472,9410.398,7723.075,9395.871,7702.167,9367.029z"/>
		<path d="M7535.126,9340.926c-13.76-6.168,296.65-295.625,325.664-303.467c9.932-1.816-218.877,213.369-271.045,256.059
			c-19.678,16.699-38.594,35.787-40.654,41.695C7547.362,9342.322,7541.396,9344.201,7535.126,9340.926z"/>
		<path d="M8064.628,9017.85c-43.584-46.65-70.703-82.721-63.477-88.945c15.225-10.039,48.447,16.24,93.389,75.566
			C8163.163,9093.098,8142.44,9102.264,8064.628,9017.85z"/>
		<path d="M7380.292,9149.529c-16.631-23.633,8.613-210.088,34.189-249.664c25.605-39.56,54.639-47.401,128.389-29.955
			c57.979,13.223,93.965,39.951,51.23,37.666c-10.664-0.572-44.727-0.348-75.625,1.527c-53.096,2.295-55.479,3.053-71.211,44.756
			c-9.883,22.799-19.082,76.881-20.557,118.037C7423.026,9151.814,7403.896,9182.771,7380.292,9149.529z M7386.347,9118.742
			c-6.582-8.422-9.053-3.711-4.912,9.434c2.959,13.496,8.779,19.531,10.859,13.633
			C7394.765,9137.098,7392.567,9125.975,7386.347,9118.742z"/>
		<path d="M7657.978,8731.248c-15.4-123.77,41.689-175.884,145.156-134.995l37.725,15.664l-66.787,17.109l-65.596,16.743
			l-12.461,60.366C7681.396,8776.365,7664.169,8788.362,7657.978,8731.248z"/>
		<path d="M7824.677,10055.559c-0.176-13.061,5.098-21.293,9.805-18.842c4.707,2.455,4.141,13.129-1.582,24.125
			C7824.345,10075.354,7822.782,10074.529,7824.677,10055.559z"/>
		<path d="M7138.28,8158.846"/>
	</g>
</g>
<g id="Layer_2">
</g>
</svg>
