<svg version="1.0" xmlns="http://www.w3.org/2000/svg"
 width="1200.000000pt" height="1600.000000pt" viewBox="0 0 1200.000000 1600.000000"
 preserveAspectRatio="xMidYMid meet">

<g transform="translate(0.000000,1600.000000) scale(0.100000,-0.100000)"
fill="#000000" stroke="none">
<path d="M5785 9630 c-134 -5 -169 -9 -213 -28 -61 -25 -192 -127 -192 -148 0
-12 4 -13 23 -3 21 12 21 11 8 -7 -36 -47 -66 -74 -83 -74 -17 0 -80 -85 -142
-192 -15 -26 -33 -45 -39 -42 -32 12 -100 -160 -133 -337 -10 -52 -22 -100
-27 -106 -5 -7 -26 -13 -47 -13 l-38 0 -20 -67 c-11 -38 -22 -77 -24 -88 -2
-14 -12 -21 -36 -23 -38 -4 -46 -17 -62 -102 -6 -36 -13 -75 -16 -87 -2 -13
-13 -23 -25 -25 -15 -2 -34 -25 -60 -70 -41 -73 -116 -242 -131 -297 -7 -25
-12 -30 -18 -20 -5 7 -11 11 -13 9 -14 -15 -37 -72 -37 -90 0 -11 -13 -46 -29
-78 -23 -47 -77 -188 -86 -227 -1 -5 -4 -17 -7 -25 -19 -56 -23 -97 -11 -109
15 -14 18 -137 3 -146 -5 -3 -10 -27 -10 -52 0 -36 -4 -46 -20 -50 -18 -5 -20
-14 -21 -112 -4 -226 1 -309 25 -441 2 -14 7 -50 10 -80 4 -30 13 -86 21 -125
7 -38 16 -135 20 -215 3 -80 9 -153 11 -162 3 -11 0 -18 -9 -18 -8 0 -21 -8
-30 -18 -15 -16 -14 -26 2 -127 15 -98 16 -113 2 -136 -14 -24 -13 -31 9 -85
17 -42 24 -80 24 -133 1 -65 4 -75 24 -88 12 -9 22 -23 22 -32 0 -10 14 -30
31 -47 l31 -29 83 88 c46 48 91 87 100 87 8 0 20 -12 25 -26 11 -29 13 -29 78
31 18 16 47 32 64 35 27 4 34 11 43 42 5 20 14 40 18 45 7 7 5 -25 -8 -137 -4
-33 -4 -34 7 -10 7 14 13 27 15 29 5 7 113 -71 133 -96 l19 -25 7 50 6 50 32
-41 c45 -60 56 -91 56 -152 0 -58 15 -80 29 -43 5 13 29 33 54 46 47 23 97 73
97 96 0 7 14 28 31 45 17 18 42 57 55 86 28 61 43 155 25 155 -17 0 -13 15 19
70 40 68 71 163 69 208 -2 20 3 47 10 60 11 20 10 27 -5 43 -17 19 -17 22 -2
52 10 18 24 49 32 69 8 21 27 49 41 64 15 15 36 58 51 102 51 158 89 256 110
282 7 8 30 57 52 107 32 76 39 101 35 137 -4 29 2 68 16 114 26 85 25 82 2 82
-11 0 -23 5 -26 10 -7 12 17 102 50 180 21 52 32 136 40 317 3 54 17 83 41 83
8 0 28 25 45 55 42 74 65 74 109 1 18 -30 44 -59 57 -65 12 -6 24 -19 25 -28
1 -10 2 -25 3 -33 5 -52 16 -175 20 -233 3 -38 12 -79 21 -92 17 -27 54 -140
54 -168 0 -11 -9 -21 -20 -24 -24 -6 -25 -23 -4 -83 19 -54 25 -120 11 -137
-6 -9 2 -39 27 -97 20 -47 36 -89 36 -93 0 -5 11 -20 25 -33 20 -19 48 -80 61
-135 18 -72 83 -226 110 -261 19 -25 34 -52 34 -59 0 -8 9 -33 21 -55 17 -32
19 -43 9 -55 -6 -8 -9 -23 -5 -34 3 -12 8 -48 10 -81 3 -44 15 -84 45 -147 22
-48 46 -91 53 -95 9 -6 7 -12 -7 -23 -16 -12 -18 -22 -12 -61 8 -60 44 -140
85 -186 17 -20 31 -40 31 -46 0 -21 52 -72 97 -94 26 -13 49 -33 54 -47 13
-34 22 -19 26 44 4 68 13 92 57 150 l36 47 1 -34 c0 -18 4 -42 8 -52 7 -17 8
-18 14 -3 6 16 122 107 136 107 4 0 12 -12 19 -27 l11 -28 -4 30 c-15 111 -16
147 -6 141 6 -4 11 -17 11 -30 0 -32 24 -61 44 -53 11 4 34 -9 71 -43 30 -28
58 -50 60 -50 3 0 10 11 15 25 5 14 16 25 24 25 8 0 53 -39 100 -87 l85 -88
30 29 c17 17 31 37 31 47 0 9 10 23 23 32 19 13 22 23 23 88 0 53 7 91 24 133
22 54 23 61 9 85 -14 23 -13 37 2 131 15 91 15 108 3 128 -8 12 -20 22 -27 22
-10 0 -12 18 -9 68 8 159 21 264 75 604 15 94 23 393 12 451 -4 21 -12 34 -17
31 -16 -10 -28 17 -28 64 0 23 -4 42 -10 42 -6 0 -10 30 -10 70 0 55 4 71 18
79 16 10 16 12 -2 26 -12 9 -15 15 -7 15 10 0 11 10 6 38 -9 51 -68 207 -105
278 -17 33 -28 64 -26 71 3 6 -2 30 -11 53 -13 31 -21 40 -37 38 -15 -2 -21 4
-26 27 -4 17 -16 52 -28 79 -12 27 -22 52 -22 56 0 4 -26 54 -59 111 -43 76
-65 105 -82 109 -21 5 -25 14 -32 68 -4 34 -13 78 -20 99 -10 33 -17 39 -47
43 -25 4 -36 11 -38 25 -2 11 -13 50 -24 88 l-20 67 -38 0 c-21 0 -42 6 -47
13 -5 6 -16 46 -23 87 -31 182 -108 375 -141 355 -4 -3 -20 16 -35 42 -51 89
-126 193 -140 193 -13 0 -58 39 -84 74 -14 18 -14 19 8 7 46 -24 22 15 -43 71
-100 87 -143 100 -365 109 -204 8 -316 8 -555 -1z"/>
</g>
</svg>
