<?xml version="1.0" encoding="UTF-8" standalone="no"?>
<!-- Created with Inkscape (http://www.inkscape.org/) -->

<svg
   version="1.1"
   id="svg1"
   width="1200"
   height="1600"
   viewBox="0 0 1200 1600"
   xml:space="preserve"
   xmlns="http://www.w3.org/2000/svg"
   xmlns:svg="http://www.w3.org/2000/svg"><defs
     id="defs1" /><path
     style="fill:#000000"
     d="m 546.20595,691.39427 c 0.48647,-13.01879 3.31786,-22.67242 8.32798,-28.39427 3.14117,-3.5874 8.44904,-23.05077 8.49879,-31.16413 0.018,-2.93473 0.42836,-8.40556 0.91193,-12.1574 0.79041,-6.13258 0.64008,-7.34455 -1.48842,-12 -1.30219,-2.84816 -4.18903,-11.02847 -6.41518,-18.17847 -2.22616,-7.15 -5.80166,-16.61189 -7.94556,-21.02641 -4.66996,-9.61599 -5.74034,-13.35459 -6.96436,-24.32491 -0.68462,-6.13595 -1.75406,-9.91997 -4.03146,-14.26462 -3.87159,-7.3859 -3.8679,-7.5363 0.51852,-21.15255 4.61137,-14.31452 5.08879,-15.19737 12.08464,-22.34693 3.20495,-3.27538 7.17044,-8.63933 8.81218,-11.91991 1.64174,-3.28057 5.37118,-8.84091 8.28763,-12.35631 3.60017,-4.33953 5.08498,-6.90802 4.62473,-8 -5.61739,-13.32746 15.55455,-24.10883 43.17418,-21.98555 15.62349,1.20107 33.06009,14.1883 27.29119,20.32719 -1.64318,1.74857 -0.92453,3.35171 4.35726,9.72002 2.8875,3.48149 6.58695,9.02998 8.221,12.32998 1.63405,3.3 5.57893,8.63089 8.76641,11.84642 7.10495,7.16746 7.08691,7.13394 11.86098,22.0447 4.66764,14.57836 4.63995,13.89635 0.86174,21.22214 -2.31244,4.48373 -3.38407,8.51647 -4.47825,16.85243 -1.21062,9.22307 -2.15505,12.46853 -5.96442,20.49628 -2.48933,5.24591 -6.37075,15.38803 -8.62538,22.53803 -2.25463,7.15 -5.21248,15.36694 -6.573,18.25987 -1.63366,3.47373 -2.27817,6.19035 -1.89798,8 0.31662,1.50707 0.77417,7.0473 1.01677,12.31163 0.56552,12.27164 5.20856,30.12703 9.08266,34.9285 6.37252,7.89795 12.37517,40 7.47947,40 -0.55,0 -1,-0.75792 -1,-1.68428 C 665,698.88682 661.01059,691 659.78196,691 c -0.66146,0 -0.8277,1.90967 -0.45702,5.25 0.57438,5.17597 0.56256,5.20542 -0.83784,2.08871 -0.78125,-1.73871 -1.58648,-4.66799 -1.78941,-6.50952 -0.56251,-5.10441 -5.22359,-11.73328 -9.50848,-13.52271 -2.02907,-0.84737 -5.16846,-2.83893 -6.97644,-4.42571 -4.49215,-3.94255 -9.19019,-5.73662 -15.71319,-6.00053 -3.74649,-0.15157 -7.41427,-1.17024 -11.49378,-3.19224 l -5.99143,-2.96963 -6.25719,3.00861 c -4.29992,2.06751 -7.97759,3.06492 -11.75718,3.18865 -6.25816,0.20486 -11.86645,2.57616 -17.57557,7.43132 -2.15844,1.83558 -5.16108,3.6418 -6.67253,4.01381 -3.53533,0.87015 -7.933,7.45022 -8.45273,12.64749 -0.2171,2.17103 -1.06231,5.19482 -1.87825,6.71954 -1.43008,2.67235 -1.45974,2.5831 -0.82339,-2.47779 0.42626,-3.39005 0.29182,-5.25 -0.37949,-5.25 -1.21271,0 -5.21804,7.87297 -5.21804,10.25671 0,0.89389 -0.51207,1.94173 -1.13794,2.32854 -0.83732,0.51749 -1.01065,-2.70309 -0.65611,-12.19098 z m 24.28672,-18.16763 c 2.74597,-1.49965 4.91072,-3.17664 4.81055,-3.72664 -0.10017,-0.55 0.76907,-2.0125 1.93164,-3.25 l 2.11377,-2.25 h -3.27002 c -4.15308,0 -8.06259,2.30336 -10.87432,6.40681 -4.22894,6.17174 -2.51885,7.08358 5.28838,2.81983 z M 650,674.81188 c 0,-4.33653 -6.58946,-9.91764 -12.49109,-10.57965 l -4.00891,-0.44969 2.25915,2.43292 c 1.24253,1.3381 2.01915,2.6729 1.72583,2.96623 -0.74644,0.74643 2.0883,2.94817 6.38183,4.95675 4.40321,2.05989 6.13319,2.24985 6.13319,0.67344 z M 673.68311,520.8125 c -0.31922,-0.79773 -0.55618,-0.56078 -0.60416,0.60417 -0.0434,1.05416 0.19293,1.64479 0.52522,1.3125 0.33229,-0.33229 0.36781,-1.1948 0.0789,-1.91667 z M 586,672.60699 c 0,-0.21616 0.69837,-0.661 1.55194,-0.98855 0.88992,-0.34149 1.29132,-0.17385 0.94098,0.39301 C 587.90566,672.96166 586,673.4169 586,672.60699 Z m -38.8026,-84.18128 c -3.19813,-2.24006 -4.12129,-4.56277 -3.3372,-8.39655 l 0.6969,-3.40746 2.81178,6.26548 c 3.09945,6.9065 3.07148,7.80999 -0.17148,5.53853 z M 663,589.41023 c 0,-0.36308 1.22465,-3.38903 2.72145,-6.72434 l 2.72145,-6.06419 0.7145,3.43915 c 0.48696,2.34393 0.25721,4.14447 -0.72145,5.65397 C 666.99738,587.93367 663,590.65113 663,589.41023 Z M 539,481.16736 c 0,-0.73479 2.234,-2.71301 10.70787,-9.48184 l 2.27155,-1.81449 -0.62786,4.81449 c -0.34532,2.64796 -1.07079,5.37698 -1.61215,6.06448 C 548.65365,482.12884 539,482.50401 539,481.16736 Z M 663.25896,480.75 c -1.13981,-1.44511 -2.5762,-9.75 -1.68632,-9.75 1.07185,0 12.42736,9.2723 12.42736,10.14752 0,1.35049 -9.64382,0.99358 -10.74104,-0.39752 z"
     id="path2" /></svg>
