<svg
   version="1.1"
   id="svg1"
   width="1200"
   height="1600"
   viewBox="0 0 1200 1600"
   xml:space="preserve"
   xmlns="http://www.w3.org/2000/svg"
   xmlns:svg="http://www.w3.org/2000/svg"><defs
     id="defs1" /><g><path
     style="fill:#000000"
     d="m 546.31856,716.75 c -8.24107,-9.13387 -13.87237,-39.57276 -8.83038,-47.73088 0.3028,-0.48994 0.93745,-3.97212 1.41033,-7.73818 0.53742,-4.28002 2.11688,-9.45951 4.21256,-13.81416 3.03515,-6.30678 3.3288,-7.70098 3.09971,-14.71678 -0.13919,-4.2625 0.13886,-7.75 0.61789,-7.75 3.83115,0 -3.86859,-31.59795 -12.47235,-51.1836 l -3.37531,-7.6836 -0.33646,-18.55897 -0.33646,-18.55896 -2.65404,-2.45969 c -1.45973,-1.35282 -2.69061,-3.49367 -2.73529,-4.75743 -0.21507,-6.0828 -0.68947,-7.7039 -3.67376,-12.554 -7.72424,-12.55348 -6.83618,-24.83805 2.80078,-38.74375 5.25022,-7.57582 15.64771,-17.2265 19.30871,-17.92185 1.18003,-0.22413 6.64551,-1.33732 12.14551,-2.47375 23.44199,-4.84369 40.49514,-6.11564 66.5,-4.96006 14.82522,0.65878 19.98805,1.34166 37.5,4.96006 5.5,1.13643 10.96548,2.24962 12.14551,2.47375 3.661,0.69535 14.05849,10.34603 19.30871,17.92185 9.76062,14.08412 10.53356,25.80499 2.57347,39.02404 -2.50563,4.16101 -3.52769,7.04221 -3.52769,9.94463 0,2.24747 -0.67776,5.05396 -1.50614,6.23664 -1.09368,1.56144 -1.79821,7.16795 -2.57263,20.4725 -1.02846,17.66904 -1.18984,18.59666 -4.5271,26.02169 -9.18195,20.42879 -16.81503,50.46151 -13.41972,52.8005 1.14573,0.78928 1.93553,8.93762 0.92674,9.56109 -1.19419,0.73805 -0.18193,4.8526 2.57784,10.47825 3.18795,6.49848 4.68265,11.45168 5.06799,16.7945 0.18509,2.56639 0.74977,8.04116 1.25485,12.16616 1.88336,15.38144 1.02584,23.50638 -3.48288,33 -6.0634,12.76718 -8.20714,14.16948 -7.54652,4.93647 0.49951,-6.98129 -0.38504,-14.34966 -3.41373,-28.43647 -2.67824,-12.4568 -4.59508,-18.5 -5.86803,-18.5 -0.68518,0 -1.76462,-0.62517 -2.39876,-1.38926 -1.43343,-1.72717 -5.68765,-2.615 -6.8691,-1.43355 -0.50689,0.50689 -1.99082,0.007 -3.499,-1.1798 -8.42528,-6.62732 -21.76849,-8.98189 -26.52191,-4.68011 -1.73251,1.56791 -1.9273,1.43273 -3.6889,-2.56003 l -1.85981,-4.21535 -1.43665,5.16429 c -2.23875,8.04755 -5.28227,8.24628 -7.57519,0.49463 l -1.39049,-4.70082 -1.77492,3.6751 c -1.70966,3.53995 -1.86054,3.61901 -4.10286,2.14978 -6.43951,-4.21933 -15.71439,-2.79463 -24.82181,3.81284 -2.17794,1.58011 -4.33114,2.48241 -4.80149,2.01206 -1.1587,-1.1587 -5.42334,-0.24804 -6.84169,1.46096 -0.63414,0.76409 -1.72358,1.38926 -2.42098,1.38926 -1.24813,0 -4.44615,10.2976 -6.36648,20.5 -2.85569,15.17173 -3.37026,19.98239 -2.82858,26.44362 0.67097,8.00333 0.74603,7.82053 -1.97349,4.80638 z M 585.5,668 c 2.73138,-1.17371 3.5,-1.17371 3.5,0 0,0.55 -1.2375,0.96837 -2.75,0.92971 -2.43684,-0.0623 -2.52225,-0.16815 -0.75,-0.92971 z m 40.5,0 c 0,-1.17371 0.76862,-1.17371 3.5,0 1.77225,0.76156 1.68684,0.86743 -0.75,0.92971 C 627.2375,668.96837 626,668.55 626,668 Z"
     id="path1" /></g></svg>
