<?xml version="1.0" encoding="UTF-8" standalone="no"?>
<!-- Created with Inkscape (http://www.inkscape.org/) -->

<svg
   version="1.1"
   id="svg1"
   width="1200"
   height="1600"
   viewBox="0 0 1200 1600"
   xml:space="preserve"
   xmlns="http://www.w3.org/2000/svg"
   xmlns:svg="http://www.w3.org/2000/svg"><defs
     id="defs1" /><g><path
     style="fill:#000000"
     d="m 614.5,1567.3163 c -11.04363,-2.494 -26.01848,-6.5059 -26.45396,-7.0873 -0.30032,-0.401 -1.70553,-1.404 -3.12268,-2.229 -12.99086,-7.5627 -15.04929,-12.0013 -10.96053,-23.6346 1.82943,-5.205 1.86259,-6.0019 0.48792,-11.725 -6.27669,-26.1315 -7.55893,-64.2067 -2.39576,-71.1404 0.40956,-0.55 2.42283,-8.65 4.47395,-18 2.05111,-9.35 6.16159,-27.0621 9.1344,-39.3601 8.59015,-35.5362 8.57787,-35.614 -3.7267,-23.6399 -4.23883,4.125 -8.16825,7.5 -8.73204,7.5 -0.5638,0 -2.93479,3.7125 -5.26889,8.25 -22.63973,44.0119 -47.74776,65.2861 -58.29593,49.3946 -8.9637,-13.5044 -16.09523,-40.7094 -15.11097,-57.6446 1.18769,-20.4354 2.74199,-23.3811 19.65741,-37.2549 4.16585,-3.4168 9.823,-13.0528 14.82101,-25.2451 12.98601,-31.6785 19.74268,-55.6405 24.95478,-88.5 1.29454,-8.1614 1.52857,-12.0567 0.80612,-13.4177 -0.57505,-1.0833 -0.75567,-4.4274 -0.41512,-7.6856 1.39652,-13.3612 -7.75935,-41.5144 -25.08936,-77.1467 -9.93794,-20.4334 -8.5627,-19.4858 -17.02509,-11.7316 -3.61244,3.3102 -9.30643,7.3751 -12.65332,9.0332 -11.2421,5.5695 -12.59445,8.2146 -18.63487,36.4484 -3.98694,18.6355 -6.6789,58.5 -3.95037,58.5 0.55,0 1,1.6187 1,3.597 0,1.9784 1.88388,11.7659 4.1864,21.75 5.75815,24.9684 5.99707,38.4891 0.92158,52.153 -5.08659,13.6938 -5.47015,14.628 -8.21169,20 -2.91872,5.7193 -6.20776,17.5666 -7.91213,28.5 -0.64304,4.125 -2.47753,12.6111 -4.07666,18.858 -1.59912,6.2468 -2.9075,12.3889 -2.9075,13.649 0,6.6265 -17.75072,9.7655 -23.21475,4.1053 -7.72234,-7.9996 -11.61909,-12.8521 -13.80593,-17.192 C 421.61569,1363.7141 420.275,1361.275 420,1361 c -8.21265,-8.2126 -12.74069,-35.3613 -7.28623,-43.6859 4.77283,-7.2843 7.25091,-26.5676 4.47391,-34.8141 -1.84094,-5.4668 -2.04544,-8.9773 -2.301,-39.5 -0.2995,-35.7703 -1.02054,-49.5693 -3.42257,-65.5 -0.82929,-5.5 -2.17291,-14.6173 -2.98582,-20.2607 -0.81292,-5.6433 -2.56733,-15.3067 -3.89869,-21.474 -2.50678,-11.6124 -2.5007,-12.7653 0.0673,-12.7653 1.80192,0 1.3292,-4.192 -1.7456,-15.4799 -3.07401,-11.285 -2.40183,-12.8084 6.59869,-14.9549 3.09608,-0.7384 11.49504,-5.6045 11.49821,-6.6618 0.002,-0.6272 4.37667,-5.217 10.10231,-10.5987 4.91842,-4.623 5.36612,-5.2918 7.93618,-11.856 4.96539,-12.6821 2.85512,-33.162 -6.23433,-60.5036 -3.25542,-9.79255 -5.11084,-8.52002 -8.82848,6.0549 -6.6824,26.1982 -21.60363,62.5074 -28.69304,69.8214 -0.70447,0.7268 -1.29288,1.6268 -1.30758,2 -0.0147,0.3732 -2.70267,3.6036 -5.97327,7.1786 -3.2706,3.575 -5.95857,6.8615 -5.97327,7.3034 -0.0516,1.5505 -5.54103,7.6965 -6.87429,7.6966 -0.74116,0 -5.7327,4.3875 -11.09232,9.75 l -9.74475,9.75 -1.16907,6.5 c -13.25961,73.7228 -9.56331,135.6716 10.10148,169.2979 12.92895,22.1081 15.73624,31.4073 17.72143,58.7021 0.58003,7.975 1.47626,17.2 1.99162,20.5 0.51537,3.3 1.4689,9.825 2.11897,14.5 0.65007,4.675 1.81908,11.1211 2.59778,14.3246 2.1812,8.9732 7.32242,34.7733 7.32242,36.7459 0,11.7575 -33.82473,7.4533 -55.294,-7.0362 -2.47283,-1.6688 -5.00443,-3.0343 -5.62578,-3.0343 -2.13037,0 -2.96154,-4.8272 -2.37911,-13.8171 0.74396,-11.4831 -0.25318,-15.3666 -8.15929,-31.7776 -3.46966,-7.2021 -6.64663,-14.1771 -7.05993,-15.5 -0.4133,-1.3229 -1.05679,-2.6303 -1.42998,-2.9053 -0.3732,-0.275 -1.73584,-3.425 -3.0281,-7 -1.29226,-3.575 -2.67553,-6.95 -3.07393,-7.5 -0.8721,-1.2039 -5.32715,-12.6108 -6.8348,-17.5 -0.5936,-1.925 -2.63542,-11.15 -4.53738,-20.5 -13.13532,-64.5728 -19.48998,-84.373 -35.46375,-110.5 -5.34407,-8.7409 -8.68586,-15.6318 -10.04429,-20.712 -3.19118,-11.9341 -10.22679,-23.4202 -20.43174,-33.356 -3.47746,-3.3858 -4.14665,-5.932 -1.55903,-5.932 3.39091,0 8.5322,-5.0578 10.28563,-10.1186 1.83888,-5.3074 15.8893,-20.8814 18.83861,-20.8814 0.60945,0 2.50056,-1.0501 4.20248,-2.3335 3.97864,-3.0002 15.95792,-9.6665 17.37072,-9.6665 2.47592,0 14.94557,-6.5086 17.72367,-9.2509 1.65,-1.6288 4.08879,-3.6904 5.41953,-4.5813 8.60421,-5.7608 13.95604,-34.7291 11.3006,-61.1678 l -0.95416,-9.5 -6.77162,-12 c -3.72439,-6.6 -7.90489,-14.025 -9.29,-16.5 -1.38511,-2.475 -6.49772,-11.18112 -11.36136,-19.34693 C 281.97934,962.48725 278,955.64946 278,955.45797 c 0,-0.19148 -3.39992,-6.11036 -7.55538,-13.15306 -9.72456,-16.48124 -29.02601,-55.52167 -39.45527,-79.80491 -7.60985,-17.71859 -9.09205,-21.1448 -12.54555,-29 -0.72542,-1.65 -2.54181,-5.925 -4.03642,-9.5 -1.49462,-3.575 -4.24529,-10.1 -6.1126,-14.5 -10.72654,-25.27517 -12.54567,-33.74343 -14.82242,-69 -0.48348,-7.4869 -1.54739,-12.76441 -4.23347,-21 -2.80484,-8.59971 -3.63397,-12.85477 -3.79974,-19.5 -0.11661,-4.675 -0.79263,-10.525 -1.50225,-13 -0.70962,-2.475 -1.20529,-4.85378 -1.1015,-5.28617 0.10379,-0.43239 -0.68284,-4.25739 -1.74807,-8.5 -1.06522,-4.24261 -2.21394,-10.86383 -2.55269,-14.71383 -0.33876,-3.85 -0.83323,-8.41029 -1.09883,-10.13398 -0.58761,-3.81351 0.79499,-4.55094 6.23915,-3.32772 27.80876,6.24822 46.47224,2.95206 66.00832,-11.65773 1.7508,-1.30931 3.40986,-2.38057 3.68679,-2.38057 2.60608,0 21.91044,-15.40462 33.50409,-26.7358 l 6.38024,-6.23581 -1.30877,-3.15964 c -1.22854,-2.96597 -1.14107,-3.30389 1.42701,-5.51286 l 2.73577,-2.35321 -1.95006,-5.75134 c -1.07253,-3.16324 -2.58084,-9.37842 -3.35179,-13.81152 l -1.40174,-8.06018 5.31612,1.95832 c 8.76709,3.22956 7.83343,-2.60657 -2.12393,-13.2763 -18.09873,-19.39354 -32.56332,-56.63318 -27.08767,-69.73825 0.80921,-1.93673 1.13066,-4.76697 0.78402,-6.90307 -0.38865,-2.39498 -0.15912,-3.88527 0.6781,-4.4027 0.99356,-0.61405 0.82957,-2.04357 -0.76284,-6.64992 -8.84607,-25.58898 -8.41536,-41.76307 1.95376,-73.36772 5.17399,-15.77008 18.11729,-40.01479 26.97821,-50.53412 C 308.55046,320.5462 313.62811,315.514 327.55868,304.33802 333.54937,299.5319 356.00475,285 357.4407,285 c 0.20337,0 3.65422,-2.025 7.66855,-4.5 8.00108,-4.933 11.22038,-5.5463 13.12282,-2.5 1.69465,2.71357 1.80493,2.67099 7.37507,-2.84738 10.93447,-10.83285 42.65521,-13.7529 52.62008,-4.84394 4.7137,4.21422 5.76238,8.09456 5.59194,20.69132 -0.63019,46.57638 6.03335,67.30433 27.96843,87 18.27985,16.41362 24.08284,22.8056 32.68271,36 8.56252,13.13708 15.49661,27.89457 18.11521,38.55369 0.93857,3.82047 2.06394,7.41007 2.50083,7.97689 2.31997,3.00991 4.14525,19.47742 3.01345,27.18705 -0.62836,4.2803 -1.30835,9.4173 -1.51108,11.41554 -1.28474,12.66335 -5.78499,31.86759 -11.13912,47.5348 -3.76702,11.02304 -2.86412,12.11812 4.24159,5.1444 5.65209,-5.54711 5.9049,-4.8738 2.8812,7.67339 C 521.15757,565.35664 520,570.34908 520,570.58005 c 0,1.36254 3.47616,0.0347 5.68085,-2.16999 3.47092,-3.47092 4.55405,-1.77966 3.99475,6.23765 l -0.42887,6.14771 6.12663,4.50929 C 551.42839,597.12143 574,622.36063 574,628.49638 c 0,1.88661 0.86503,1.87679 11.13953,-0.1264 C 615.80771,622.39069 664,629.98121 664,640.79089 c 0,0.42542 2.58932,3.459 5.75404,6.7413 7.71174,7.99822 12.95739,14.65444 23.74596,30.13125 2.2,3.15603 6.925,9.15206 10.5,13.32451 6.96874,8.13336 8.19513,9.84979 10.36893,14.51205 0.76931,1.65 3.02603,6.43559 5.01491,10.63465 1.98889,4.19906 3.61616,8.33501 3.61616,9.19099 0,0.85598 0.41084,1.81024 0.91299,2.12058 0.50214,0.31034 1.20847,2.3132 1.56961,4.45079 0.5744,3.39983 6.06766,13.41747 8.24032,15.02724 0.42739,0.31666 2.16517,3.27575 3.86173,6.57575 1.69655,3.3 5.54612,10.275 8.5546,15.5 3.00848,5.225 8.07126,15.575 11.25064,23 3.17937,7.425 6.35862,14.85 7.06499,16.5 2.54263,5.9393 10.5155,29.15014 12.42281,36.16562 l 1.94813,7.16562 -2.83909,10.83438 c -4.80659,18.34264 -7.36875,26.54117 -10.88626,34.83438 -0.46655,1.1 -5.00361,12.575 -10.08234,25.5 -5.07873,12.925 -9.83761,24.85 -10.57529,26.5 -1.88171,4.20888 -11.10599,27.69685 -13.9417,35.5 -1.29917,3.575 -3.53777,9.65 -4.97465,13.5 -1.43689,3.85 -3.27986,9.1182 -4.09549,11.707 -0.81563,2.5889 -1.92127,4.978 -2.45698,5.3091 -0.53571,0.331 -0.97402,1.2689 -0.97402,2.0841 0,0.8152 -2.34947,7.4261 -5.22105,14.691 -5.84957,14.7989 -6.0608,17.0288 -3.26295,34.448 2.13633,13.3006 1.90519,18.8776 -1.00548,24.2608 -3.06568,5.6699 -8.81519,17.4072 -10.77668,22 -0.82212,1.925 -2.05585,7.325 -2.74161,12 -0.68577,4.675 -2.50495,12.3282 -4.04263,17.007 -8.88102,27.0233 -15.00778,75.3679 -15.50859,122.3741 -0.3251,30.513 -0.72455,36.8974 -2.44758,39.1189 -0.42659,0.55 -1.76789,5.275 -2.98067,10.5 -1.21277,5.225 -3.1186,12.65 -4.23517,16.5 -7.18729,24.7823 -7.08056,24.1729 -7.0115,40.0298 0.0697,16.0036 1.30768,34.2194 3.87177,56.9702 2.47759,21.9834 0.1588,37.7087 -9.02653,61.2151 -6.59599,16.88 -6.67024,19.0138 -1.14085,32.7849 5.16196,12.856 8.92512,28.9808 7.89272,33.8196 -1.96848,9.226 -27.99085,16.0329 -45.8632,11.9967 z m 1.51988,-403.5663 c 0.0109,-1.2375 0.70237,-8.325 1.53653,-15.75 3.50987,-31.2419 4.32879,-40.2923 4.97668,-55 0.63029,-14.3083 0.9628,-16.3073 4.32485,-26 l 3.64206,-10.5 -0.0917,-16 c -0.0902,-15.7385 -2.72017,-48.64217 -4.43609,-55.5 -0.48166,-1.925 -2.13495,-7.1 -3.67398,-11.5 l -2.79823,-8 -5.5,-0.83025 c -3.025,-0.45664 -9.82093,-1.04759 -15.10206,-1.31323 l -9.60205,-0.48299 -1.20589,12.04154 c -2.62261,26.18833 -16.52814,67.02093 -22.84,67.06813 -3.01568,0.023 -3.63341,-1.9881 9.06855,29.5168 30.75533,76.283 41.62986,100.3392 41.70133,92.25 z"
     id="path2" /></g></svg>
