<svg width="2400" height="3200" xmlns="http://www.w3.org/2000/svg" viewBox="0 0 2400 3200"><path d="M 757.0 2899.82 C 754.52 2899.74 750.7 2899.51 748.5 2899.32 C 746.3 2899.12 741.38 2898.23 737.57 2897.33 C 733.76 2896.43 728.36 2894.81 725.57 2893.73 C 722.78 2892.65 717.35 2890.66 713.5 2889.31 C 709.65 2887.96 701.95 2884.62 696.39 2881.89 C 690.83 2879.16 685.24 2875.82 683.96 2874.46 C 682.69 2873.11 681.16 2872.0 680.55 2872.0 C 679.95 2872.0 677.89 2870.71 675.98 2869.13 C 674.07 2867.56 671.06 2865.95 669.31 2865.57 C 666.77 2865.01 665.86 2864.11 664.88 2861.18 C 664.02 2858.6 663.73 2850.54 663.9 2834.2 C 664.13 2812.29 664.02 2810.56 661.96 2805.2 C 660.75 2802.06 659.38 2798.82 658.9 2798.0 C 658.42 2797.18 656.27 2792.9 654.12 2788.5 C 651.97 2784.1 647.62 2775.1 644.46 2768.5 C 641.3 2761.9 637.2 2752.92 635.36 2748.54 C 633.51 2744.16 632.0 2740.04 632.0 2739.39 C 632.0 2738.75 631.41 2737.99 630.7 2737.71 C 629.98 2737.44 628.77 2735.25 628.01 2732.86 C 627.26 2730.46 625.68 2726.47 624.5 2724.0 C 623.32 2721.53 621.74 2717.47 620.97 2715.0 C 620.21 2712.53 618.76 2709.35 617.74 2707.94 C 616.73 2706.53 614.52 2701.58 612.84 2696.94 C 611.16 2692.3 608.48 2684.9 606.88 2680.5 C 605.29 2676.1 602.17 2663.28 599.95 2652.0 C 597.74 2640.72 595.01 2627.22 593.89 2622.0 C 592.77 2616.78 590.77 2608.0 589.45 2602.5 C 588.13 2597.0 585.88 2587.1 584.46 2580.5 C 583.04 2573.9 580.55 2561.75 578.94 2553.5 C 577.33 2545.25 575.57 2536.93 575.03 2535.0 C 574.5 2533.07 572.22 2524.75 569.97 2516.5 C 567.72 2508.25 565.19 2499.93 564.34 2498.0 C 563.48 2496.07 561.53 2490.68 560.0 2486.0 C 558.47 2481.32 556.53 2475.93 555.69 2474.0 C 554.85 2472.07 552.95 2467.8 551.47 2464.5 C 549.98 2461.2 548.19 2456.93 547.49 2455.0 C 546.8 2453.07 543.21 2445.65 539.51 2438.5 C 535.82 2431.35 531.29 2423.03 529.45 2420.0 C 527.6 2416.97 524.51 2411.5 522.57 2407.82 C 520.63 2404.15 518.62 2400.88 518.1 2400.56 C 517.58 2400.24 514.91 2395.37 512.17 2389.74 C 509.43 2384.11 506.68 2377.47 506.05 2375.0 C 505.42 2372.53 504.14 2368.25 503.21 2365.5 C 502.27 2362.75 499.82 2357.0 497.76 2352.72 C 495.69 2348.44 494.0 2344.48 494.0 2343.92 C 494.0 2343.36 492.42 2339.84 490.49 2336.11 C 488.56 2332.38 485.86 2328.28 484.49 2326.99 C 483.12 2325.7 482.0 2324.26 482.0 2323.79 C 482.0 2323.31 479.3 2320.15 476.0 2316.76 C 472.7 2313.36 470.0 2310.04 470.0 2309.36 C 470.0 2308.69 469.07 2307.84 467.94 2307.48 C 466.81 2307.12 465.41 2305.79 464.83 2304.52 C 464.25 2303.26 462.7 2301.73 461.38 2301.12 C 460.05 2300.52 458.43 2298.85 457.77 2297.41 C 456.75 2295.15 456.84 2294.59 458.48 2293.39 C 459.53 2292.63 460.95 2292.0 461.64 2292.0 C 462.33 2292.0 464.9 2290.65 467.34 2289.0 C 469.79 2287.35 472.2 2286.0 472.71 2286.0 C 473.21 2286.0 474.8 2284.76 476.23 2283.25 C 477.67 2281.74 479.17 2278.7 479.56 2276.5 C 479.95 2274.3 481.32 2270.41 482.6 2267.85 C 483.88 2265.29 486.26 2261.24 487.88 2258.85 C 489.5 2256.46 494.66 2250.9 499.35 2246.5 C 504.03 2242.1 509.63 2237.04 511.79 2235.26 C 513.95 2233.48 517.02 2231.45 518.61 2230.76 C 520.2 2230.06 522.85 2228.62 524.5 2227.56 C 526.15 2226.5 528.41 2224.83 529.52 2223.86 C 530.63 2222.89 534.68 2220.28 538.52 2218.07 C 542.36 2215.87 549.08 2212.25 553.45 2210.03 C 557.82 2207.81 561.97 2206.0 562.67 2206.0 C 563.37 2206.0 566.9 2204.65 570.5 2203.0 C 574.1 2201.35 577.6 2199.99 578.28 2199.98 C 578.95 2199.97 580.62 2199.08 582.0 2198.0 C 583.38 2196.92 585.01 2196.03 585.64 2196.02 C 586.26 2196.01 587.84 2195.44 589.14 2194.75 C 590.44 2194.06 594.65 2190.49 598.5 2186.81 C 602.35 2183.13 607.08 2179.09 609.0 2177.81 C 611.54 2176.13 613.82 2172.9 617.32 2166.0 C 619.96 2160.78 622.8 2154.7 623.61 2152.5 C 624.42 2150.3 626.02 2145.12 627.15 2141.0 C 628.29 2136.88 629.83 2129.22 630.59 2124.0 C 631.45 2118.05 631.97 2105.35 631.99 2090.0 C 632.0 2076.53 631.52 2059.65 630.93 2052.5 C 630.33 2045.35 629.33 2038.38 628.71 2037.0 C 628.09 2035.62 627.06 2033.83 626.41 2033.0 C 625.77 2032.17 622.87 2026.88 619.99 2021.23 C 617.1 2015.58 614.37 2010.73 613.93 2010.46 C 613.49 2010.18 611.95 2007.4 610.52 2004.26 C 609.08 2001.12 607.3 1997.87 606.55 1997.03 C 605.8 1996.19 603.31 1991.9 601.0 1987.5 C 598.7 1983.1 595.3 1977.03 593.45 1974.0 C 591.61 1970.97 588.48 1965.58 586.5 1962.0 C 584.52 1958.42 581.37 1953.03 579.5 1950.0 C 577.63 1946.97 574.93 1942.47 573.51 1940.0 C 572.09 1937.53 569.98 1933.92 568.82 1932.0 C 567.66 1930.08 565.69 1926.92 564.43 1925.0 C 563.17 1923.08 560.63 1918.58 558.79 1915.0 C 556.95 1911.42 554.3 1906.7 552.91 1904.5 C 551.52 1902.3 549.61 1898.83 548.67 1896.79 C 547.72 1894.75 546.51 1892.81 545.97 1892.48 C 545.43 1892.15 544.07 1889.99 542.94 1887.69 C 541.81 1885.39 539.36 1881.03 537.49 1878.0 C 535.62 1874.97 531.56 1867.78 528.47 1862.0 C 525.38 1856.22 521.69 1849.25 520.26 1846.5 C 518.84 1843.75 517.3 1840.83 516.84 1840.0 C 516.38 1839.17 509.73 1825.9 502.07 1810.5 C 494.41 1795.1 485.41 1776.78 482.07 1769.79 C 478.73 1762.8 476.0 1756.68 476.0 1756.2 C 476.0 1755.71 474.2 1751.62 472.0 1747.12 C 469.8 1742.62 468.0 1738.51 468.0 1738.0 C 468.0 1737.48 466.65 1734.4 465.0 1731.16 C 463.35 1727.91 462.0 1724.82 462.0 1724.28 C 462.0 1723.75 460.2 1719.68 458.0 1715.24 C 455.8 1710.8 454.0 1706.69 454.0 1706.11 C 454.0 1705.53 452.72 1702.46 451.16 1699.28 C 449.6 1696.1 447.71 1691.47 446.96 1689.0 C 446.22 1686.53 444.8 1683.43 443.81 1682.12 C 442.81 1680.8 442.0 1679.2 442.0 1678.55 C 442.0 1677.91 441.1 1675.51 440.0 1673.24 C 438.9 1670.96 438.0 1668.58 438.0 1667.95 C 438.0 1667.32 437.2 1665.61 436.21 1664.15 C 435.23 1662.69 433.84 1659.7 433.12 1657.5 C 432.41 1655.3 430.51 1650.72 428.91 1647.31 C 427.31 1643.91 426.0 1640.72 426.0 1640.23 C 426.0 1639.73 424.39 1636.03 422.43 1632.0 C 420.47 1627.96 418.18 1622.6 417.36 1620.08 C 416.53 1617.56 414.31 1612.24 412.43 1608.26 C 410.54 1604.28 409.0 1600.58 409.0 1600.05 C 409.0 1599.51 408.36 1597.59 407.58 1595.78 C 406.8 1593.98 405.23 1590.37 404.08 1587.76 C 402.94 1585.15 402.0 1582.43 402.0 1581.71 C 402.0 1580.99 401.58 1579.97 401.08 1579.45 C 400.57 1578.93 399.02 1573.1 397.64 1566.5 C 396.25 1559.9 394.66 1550.9 394.1 1546.5 C 393.54 1542.1 392.41 1533.1 391.59 1526.5 C 390.77 1519.9 389.64 1508.42 389.08 1501.0 C 388.52 1493.58 387.54 1480.75 386.91 1472.5 C 386.27 1464.25 385.1 1455.92 384.3 1454.0 C 383.5 1452.08 381.06 1445.13 378.88 1438.56 C 376.7 1431.99 373.99 1422.54 372.86 1417.56 C 371.62 1412.07 370.87 1405.55 370.97 1401.0 C 371.06 1396.88 371.17 1391.7 371.22 1389.5 C 371.26 1387.3 370.75 1382.35 370.09 1378.5 C 369.43 1374.65 368.27 1369.47 367.51 1367.0 C 366.75 1364.53 365.39 1359.35 364.49 1355.5 C 363.58 1351.65 362.47 1346.92 362.02 1345.0 C 361.56 1343.08 360.71 1339.03 360.11 1336.0 C 359.52 1332.97 358.37 1324.65 357.57 1317.5 C 356.76 1310.35 356.0 1301.7 355.88 1298.27 C 355.7 1293.4 356.06 1291.6 357.5 1290.0 C 358.52 1288.87 359.61 1288.34 359.93 1288.82 C 360.24 1289.3 362.07 1289.96 364.0 1290.28 C 365.93 1290.6 372.9 1291.98 379.5 1293.33 C 386.1 1294.68 395.77 1296.29 401.0 1296.92 C 408.55 1297.81 413.57 1297.74 425.5 1296.59 C 433.75 1295.78 443.2 1294.46 446.51 1293.63 C 449.81 1292.81 454.69 1291.21 457.34 1290.07 C 459.99 1288.93 462.88 1288.0 463.75 1288.0 C 464.63 1288.0 466.05 1287.38 466.92 1286.62 C 467.79 1285.86 472.1 1283.35 476.5 1281.03 C 480.9 1278.71 486.52 1275.64 489.0 1274.21 C 491.48 1272.79 495.52 1270.12 498.0 1268.29 C 500.48 1266.46 504.39 1264.06 506.71 1262.95 C 509.02 1261.85 511.19 1260.5 511.52 1259.97 C 511.85 1259.43 515.22 1256.97 519.01 1254.49 C 522.8 1252.02 526.28 1250.0 526.76 1250.0 C 527.24 1250.0 528.92 1248.65 530.5 1247.0 C 532.08 1245.35 533.79 1244.0 534.29 1244.0 C 534.79 1244.0 537.66 1241.86 540.67 1239.25 C 543.68 1236.64 549.37 1231.66 553.32 1228.18 C 557.27 1224.71 560.95 1221.42 561.5 1220.88 C 562.05 1220.34 563.33 1219.14 564.35 1218.2 C 565.36 1217.27 570.65 1212.07 576.1 1206.65 C 581.54 1201.23 586.0 1196.21 586.0 1195.48 C 586.0 1194.76 585.08 1192.02 583.95 1189.39 C 581.94 1184.69 581.94 1184.56 583.78 1182.05 C 584.82 1180.65 587.1 1178.6 588.85 1177.5 C 591.33 1175.95 591.95 1174.94 591.65 1173.0 C 591.43 1171.62 590.08 1167.36 588.64 1163.53 C 587.19 1159.69 585.34 1152.01 584.52 1146.47 C 583.69 1140.92 582.57 1134.16 582.02 1131.44 C 581.47 1128.72 580.61 1124.79 580.11 1122.71 C 579.39 1119.72 579.46 1119.13 580.44 1119.95 C 581.12 1120.51 585.14 1122.11 589.37 1123.49 C 593.6 1124.87 598.17 1126.0 599.53 1126.0 C 601.65 1126.0 602.0 1125.54 602.0 1122.75 C 602.0 1120.96 600.48 1116.43 598.63 1112.69 C 596.19 1107.74 592.41 1102.91 584.88 1095.09 C 579.17 1089.15 573.15 1082.42 571.5 1080.13 C 569.85 1077.83 567.07 1074.16 565.31 1071.96 C 563.56 1069.76 560.97 1065.52 559.56 1062.54 C 558.15 1059.56 556.6 1056.87 556.11 1056.57 C 555.63 1056.27 553.15 1051.73 550.62 1046.47 C 548.08 1041.22 546.0 1036.36 546.0 1035.66 C 546.0 1034.97 545.59 1033.97 545.09 1033.45 C 544.59 1032.93 543.06 1029.12 541.69 1025.0 C 540.32 1020.88 538.44 1014.35 537.5 1010.5 C 536.57 1006.65 535.15 1001.5 534.35 999.06 C 533.55 996.63 532.03 987.68 530.96 979.19 C 529.9 970.7 529.31 962.57 529.65 961.13 C 530.0 959.68 531.17 956.73 532.26 954.56 C 533.8 951.48 534.1 949.49 533.62 945.4 C 533.28 942.52 532.74 939.49 532.42 938.66 C 532.1 937.83 532.78 936.22 533.92 935.08 C 535.07 933.93 536.0 931.87 536.0 930.49 C 536.0 929.11 535.13 926.07 534.08 923.74 C 533.02 921.41 530.94 915.45 529.46 910.5 C 527.98 905.55 526.19 899.25 525.48 896.5 C 524.77 893.75 523.46 887.16 522.57 881.86 C 521.68 876.56 520.59 867.56 520.15 861.86 C 519.6 854.78 519.73 849.44 520.56 845.0 C 521.22 841.42 522.32 834.67 522.99 830.0 C 523.66 825.33 525.07 817.67 526.13 813.0 C 527.19 808.33 528.99 800.67 530.13 796.0 C 531.27 791.33 533.12 784.58 534.24 781.0 C 535.35 777.42 536.63 773.6 537.09 772.5 C 537.54 771.4 539.03 767.09 540.39 762.92 C 541.76 758.75 544.96 750.88 547.52 745.42 C 550.07 739.96 552.66 734.6 553.27 733.5 C 553.87 732.4 556.58 727.23 559.28 722.0 C 561.98 716.77 565.39 710.57 566.85 708.21 C 568.31 705.85 573.5 697.82 578.4 690.37 C 583.29 682.92 587.91 676.59 588.65 676.3 C 589.39 676.02 590.0 675.33 590.0 674.76 C 590.0 674.2 591.56 671.89 593.46 669.62 C 595.36 667.35 599.53 662.43 602.71 658.67 C 605.9 654.91 613.75 646.59 620.17 640.17 C 626.59 633.75 634.91 625.88 638.67 622.67 C 642.43 619.47 647.52 615.28 650.0 613.36 C 652.48 611.45 656.45 608.22 658.83 606.19 C 661.21 604.16 663.91 602.09 664.83 601.59 C 665.75 601.09 669.42 598.71 673.0 596.3 C 676.58 593.89 680.91 590.93 682.64 589.71 C 684.37 588.49 687.29 586.61 689.14 585.52 C 690.99 584.44 694.52 582.31 697.0 580.81 C 699.48 579.3 703.3 577.09 705.5 575.9 C 707.7 574.71 710.69 572.9 712.15 571.87 C 713.61 570.84 715.26 570.0 715.82 570.0 C 716.38 570.0 720.2 567.75 724.31 565.0 C 728.42 562.25 732.23 560.0 732.77 560.0 C 733.31 560.0 734.34 559.3 735.05 558.44 C 735.76 557.59 737.95 556.19 739.92 555.34 C 741.89 554.5 744.79 553.41 746.37 552.94 C 748.33 552.34 750.31 552.52 752.63 553.49 C 755.14 554.54 756.19 555.71 756.64 557.96 C 757.12 560.37 757.77 561.0 759.73 561.0 C 761.56 561.0 764.37 558.71 770.36 552.34 C 776.57 545.72 779.92 543.03 784.5 540.96 C 787.8 539.46 794.33 537.33 799.0 536.21 C 803.67 535.09 810.65 533.69 814.5 533.09 C 818.35 532.49 826.18 531.57 831.9 531.06 C 838.51 530.47 845.45 530.48 850.9 531.1 C 855.63 531.64 861.3 532.59 863.5 533.22 C 865.7 533.85 868.85 535.25 870.5 536.34 C 872.15 537.43 874.55 539.26 875.83 540.41 C 877.11 541.56 879.36 543.67 880.83 545.1 C 882.3 546.52 884.17 549.9 885.0 552.6 C 886.12 556.27 886.5 562.66 886.51 578.0 C 886.52 589.27 887.32 612.23 888.3 629.0 C 889.27 645.77 890.74 663.44 891.56 668.26 C 892.39 673.08 894.35 680.95 895.92 685.76 C 897.5 690.57 899.56 696.3 900.51 698.5 C 901.46 700.7 902.63 703.17 903.11 704.0 C 903.59 704.83 905.3 707.99 906.9 711.03 C 908.5 714.08 912.13 719.93 914.96 724.03 C 917.79 728.14 921.43 733.52 923.05 736.0 C 924.68 738.48 927.21 741.96 928.68 743.75 C 930.15 745.54 931.84 747.0 932.45 747.0 C 933.05 747.0 936.9 750.37 941.0 754.5 C 945.1 758.62 948.88 762.0 949.4 762.0 C 949.93 762.0 953.99 765.4 958.43 769.56 C 962.87 773.71 967.31 777.88 968.3 778.81 C 969.29 779.74 970.55 780.95 971.1 781.5 C 971.65 782.05 972.74 783.17 973.53 784.0 C 974.32 784.83 977.91 788.88 981.51 793.0 C 985.11 797.12 990.27 802.98 992.98 806.0 C 995.69 809.02 1001.53 816.98 1005.95 823.67 C 1010.38 830.36 1014.0 836.06 1014.0 836.33 C 1014.0 836.6 1015.57 839.22 1017.5 842.14 C 1019.42 845.06 1021.0 847.99 1021.0 848.65 C 1021.0 849.31 1022.07 851.12 1023.38 852.67 C 1024.68 854.23 1026.45 857.52 1027.29 860.0 C 1028.14 862.48 1030.45 867.75 1032.42 871.72 C 1034.39 875.69 1036.0 879.25 1036.0 879.63 C 1036.0 880.0 1037.2 882.83 1038.66 885.9 C 1040.13 888.98 1042.2 894.65 1043.27 898.5 C 1044.33 902.35 1045.58 907.08 1046.03 909.0 C 1046.49 910.92 1047.29 914.13 1047.8 916.13 C 1048.32 918.13 1049.06 920.29 1049.45 920.92 C 1049.85 921.56 1050.99 925.55 1051.99 929.79 C 1052.99 934.03 1054.57 942.0 1055.5 947.5 C 1056.42 953.0 1057.19 959.3 1057.21 961.5 C 1057.22 963.7 1056.7 970.19 1056.05 975.92 C 1055.4 981.65 1054.26 988.17 1053.52 990.42 C 1052.79 992.66 1052.15 996.94 1052.11 999.92 C 1052.06 1002.9 1051.81 1006.05 1051.54 1006.92 C 1051.27 1007.79 1050.61 1011.42 1050.07 1015.0 C 1049.54 1018.58 1048.4 1026.0 1047.54 1031.5 C 1046.68 1037.0 1045.09 1044.42 1043.99 1048.0 C 1042.9 1051.58 1040.85 1058.78 1039.43 1064.0 C 1038.02 1069.22 1036.01 1076.52 1034.99 1080.2 C 1033.96 1083.89 1032.62 1087.85 1032.0 1088.99 C 1031.39 1090.14 1029.79 1094.55 1028.44 1098.78 C 1027.1 1103.01 1026.0 1107.72 1026.0 1109.24 C 1026.0 1111.57 1026.42 1112.0 1028.68 1112.0 C 1030.69 1112.0 1033.47 1109.95 1039.72 1103.84 C 1044.69 1098.99 1048.44 1096.05 1048.98 1096.59 C 1049.5 1097.13 1049.1 1100.59 1048.01 1105.0 C 1046.99 1109.12 1044.93 1117.45 1043.43 1123.5 C 1041.93 1129.55 1040.5 1136.19 1040.25 1138.25 L 1039.79 1142.0 C 1047.32 1142.0 1048.33 1141.43 1051.79 1137.5 C 1053.97 1135.03 1056.24 1133.0 1056.83 1133.0 C 1057.42 1133.0 1058.18 1134.46 1058.5 1136.25 C 1058.83 1138.04 1059.17 1141.53 1059.27 1144.0 C 1059.36 1146.47 1059.07 1151.5 1058.61 1155.17 L 1057.78 1161.84 C 1063.76 1165.85 1067.53 1168.59 1070.0 1170.51 C 1072.47 1172.44 1075.69 1174.81 1077.15 1175.78 C 1078.6 1176.76 1084.85 1182.27 1091.02 1188.03 C 1097.2 1193.79 1106.13 1202.38 1110.88 1207.11 C 1115.62 1211.85 1122.06 1218.6 1125.2 1222.11 C 1128.33 1225.63 1133.39 1231.65 1136.44 1235.5 C 1139.49 1239.35 1141.99 1243.14 1141.99 1243.92 C 1142.0 1244.7 1142.69 1246.1 1143.52 1247.03 C 1144.36 1247.95 1145.89 1251.09 1146.91 1254.0 C 1147.94 1256.91 1149.5 1259.7 1150.39 1260.2 C 1151.27 1260.69 1152.0 1261.52 1152.0 1262.03 C 1152.0 1262.54 1153.51 1266.23 1155.36 1270.23 C 1157.21 1274.23 1160.34 1281.78 1162.31 1287.0 C 1164.28 1292.22 1166.79 1299.65 1167.88 1303.5 C 1168.98 1307.35 1170.76 1314.1 1171.83 1318.5 C 1172.91 1322.9 1174.07 1327.74 1174.41 1329.25 C 1174.76 1330.76 1175.69 1332.0 1176.48 1332.0 C 1177.28 1332.0 1178.4 1332.87 1178.96 1333.93 C 1179.53 1335.0 1180.0 1336.61 1180.0 1337.52 C 1180.0 1338.42 1181.37 1342.59 1183.04 1346.76 C 1184.72 1350.94 1188.35 1358.11 1191.11 1362.69 C 1193.88 1367.26 1198.92 1373.86 1202.32 1377.35 C 1205.72 1380.83 1211.14 1385.39 1214.37 1387.48 C 1217.6 1389.56 1223.57 1392.55 1227.63 1394.11 C 1231.7 1395.68 1237.83 1397.42 1241.26 1397.97 C 1244.69 1398.53 1251.55 1398.97 1256.5 1398.96 C 1261.45 1398.95 1268.83 1398.51 1272.89 1397.98 C 1276.95 1397.45 1287.11 1395.43 1295.47 1393.49 C 1303.82 1391.55 1313.72 1389.59 1317.47 1389.14 C 1321.22 1388.69 1326.14 1388.71 1328.4 1389.17 C 1330.65 1389.64 1335.35 1390.47 1338.83 1391.02 C 1342.98 1391.67 1346.6 1393.01 1349.33 1394.9 C 1351.62 1396.49 1355.3 1399.54 1357.5 1401.67 C 1359.7 1403.8 1362.98 1407.56 1364.79 1410.02 C 1366.6 1412.49 1369.15 1416.08 1370.47 1418.0 C 1371.78 1419.92 1375.69 1426.41 1379.15 1432.41 C 1382.61 1438.41 1387.2 1447.41 1389.35 1452.41 C 1391.5 1457.41 1394.61 1465.1 1396.26 1469.5 C 1397.91 1473.9 1400.38 1481.1 1401.74 1485.5 C 1403.1 1489.9 1405.25 1497.78 1406.52 1503.0 C 1407.79 1508.22 1409.73 1517.67 1410.84 1524.0 C 1411.95 1530.33 1413.12 1537.97 1413.46 1541.0 C 1413.79 1544.03 1414.45 1553.11 1414.92 1561.18 C 1415.41 1569.51 1415.4 1582.71 1414.9 1591.68 C 1414.41 1600.38 1413.09 1612.67 1411.96 1619.0 C 1410.83 1625.32 1408.78 1635.0 1407.4 1640.5 C 1406.03 1646.0 1404.27 1652.3 1403.49 1654.5 C 1402.71 1656.7 1400.08 1664.12 1397.64 1671.0 C 1395.2 1677.88 1391.6 1689.58 1389.63 1697.0 C 1387.67 1704.42 1384.97 1713.65 1383.64 1717.5 C 1382.31 1721.35 1379.56 1727.88 1377.53 1732.0 C 1375.49 1736.12 1373.12 1740.85 1372.25 1742.5 C 1371.38 1744.15 1368.53 1748.88 1365.91 1753.0 C 1363.3 1757.12 1360.49 1761.25 1359.66 1762.17 C 1358.83 1763.1 1357.66 1764.77 1357.05 1765.9 C 1356.45 1767.03 1353.66 1771.0 1350.86 1774.73 C 1348.06 1778.45 1343.46 1784.18 1340.63 1787.45 C 1337.81 1790.73 1332.35 1796.75 1328.5 1800.84 C 1324.65 1804.93 1319.06 1810.58 1316.07 1813.39 C 1313.09 1816.2 1307.01 1822.1 1302.56 1826.5 C 1298.11 1830.9 1292.26 1836.3 1289.56 1838.5 C 1286.86 1840.7 1283.21 1843.85 1281.46 1845.5 C 1279.7 1847.15 1276.49 1849.91 1274.33 1851.64 C 1272.16 1853.36 1266.59 1857.43 1261.95 1860.67 C 1257.3 1863.91 1250.12 1868.18 1246.0 1870.17 C 1241.88 1872.16 1236.86 1874.51 1234.85 1875.39 C 1232.84 1876.28 1230.88 1877.0 1230.5 1877.0 C 1230.12 1877.0 1228.38 1877.64 1226.65 1878.41 C 1224.92 1879.19 1220.12 1880.8 1216.0 1881.98 C 1211.88 1883.17 1207.6 1884.53 1206.5 1885.0 C 1205.4 1885.47 1201.45 1886.83 1197.73 1888.02 C 1192.57 1889.66 1190.64 1890.81 1189.61 1892.84 C 1188.87 1894.3 1187.96 1897.19 1187.59 1899.26 C 1187.21 1901.33 1185.07 1907.61 1182.82 1913.2 C 1179.96 1920.34 1178.49 1925.79 1177.91 1931.44 C 1177.45 1935.87 1176.83 1941.3 1176.53 1943.5 C 1176.22 1945.7 1175.5 1952.22 1174.91 1958.0 C 1174.32 1963.78 1173.41 1970.97 1172.89 1974.0 C 1172.36 1977.03 1171.52 1981.3 1171.02 1983.5 C 1170.52 1985.7 1169.16 1991.55 1168.01 1996.5 C 1166.85 2001.45 1165.42 2007.3 1164.83 2009.5 C 1164.24 2011.7 1163.09 2015.3 1162.28 2017.5 C 1161.46 2019.7 1159.49 2025.49 1157.89 2030.37 C 1156.29 2035.25 1154.38 2040.65 1153.64 2042.37 C 1152.9 2044.09 1151.28 2047.97 1150.05 2051.0 C 1148.82 2054.03 1146.04 2060.1 1143.87 2064.5 C 1141.71 2068.9 1139.0 2074.3 1137.85 2076.5 C 1136.7 2078.7 1135.43 2081.18 1135.03 2082.0 C 1134.6 2082.88 1132.59 2083.63 1130.15 2083.81 C 1126.58 2084.07 1126.0 2084.44 1126.0 2086.4 C 1126.0 2087.66 1126.7 2090.1 1127.56 2091.83 C 1129.08 2094.86 1129.02 2095.16 1125.68 2101.23 C 1123.79 2104.68 1121.4 2108.92 1120.37 2110.66 C 1119.34 2112.4 1116.97 2116.45 1115.11 2119.66 C 1113.25 2122.87 1109.25 2129.32 1106.23 2134.0 C 1103.21 2138.68 1098.48 2145.88 1095.72 2150.0 C 1092.96 2154.12 1088.63 2160.13 1086.1 2163.34 C 1083.57 2166.55 1077.53 2173.98 1072.69 2179.84 C 1067.84 2185.7 1057.67 2197.04 1050.08 2205.03 C 1042.49 2213.02 1035.99 2220.45 1035.64 2221.55 C 1035.3 2222.64 1031.75 2226.77 1027.76 2230.72 C 1023.77 2234.67 1018.92 2239.03 1017.0 2240.41 C 1015.08 2241.79 1010.58 2244.88 1007.0 2247.27 C 1003.42 2249.66 997.58 2252.88 994.0 2254.43 C 990.42 2255.98 986.38 2258.25 985.0 2259.48 C 983.62 2260.7 981.75 2261.97 980.83 2262.29 C 979.9 2262.62 978.46 2264.37 977.61 2266.19 C 976.77 2268.01 974.96 2273.32 973.6 2278.0 C 972.24 2282.68 970.4 2288.97 969.52 2292.0 C 968.63 2295.03 967.53 2298.4 967.06 2299.5 C 966.59 2300.6 965.74 2302.85 965.18 2304.5 C 964.62 2306.15 963.85 2308.85 963.48 2310.5 C 963.1 2312.15 962.42 2316.2 961.97 2319.5 C 961.52 2322.8 960.02 2330.9 958.64 2337.5 C 957.26 2344.1 955.65 2354.22 955.07 2360.0 C 954.49 2365.78 953.56 2376.55 953.01 2383.95 C 952.45 2391.35 952.0 2407.16 952.0 2419.09 C 952.0 2436.38 952.3 2441.35 953.49 2443.64 C 954.32 2445.21 954.99 2448.49 954.99 2450.93 C 955.0 2453.37 956.16 2460.34 957.57 2466.43 C 958.98 2472.52 961.22 2482.0 962.55 2487.5 C 963.88 2493.0 965.38 2499.53 965.88 2502.0 C 966.38 2504.47 967.77 2511.22 968.96 2517.0 C 970.15 2522.78 971.72 2534.19 972.44 2542.37 C 973.26 2551.71 973.46 2559.89 972.95 2564.38 C 972.51 2568.31 971.47 2575.44 970.63 2580.22 C 969.8 2585.0 968.66 2589.77 968.1 2590.81 C 967.55 2591.85 965.49 2597.49 963.53 2603.35 C 961.57 2609.21 959.07 2615.6 957.98 2617.53 C 956.89 2619.47 956.0 2621.59 956.0 2622.23 C 956.0 2622.88 953.42 2628.6 950.27 2634.95 C 947.12 2641.3 943.79 2649.2 942.87 2652.5 C 941.95 2655.8 940.22 2661.88 939.03 2666.0 C 937.83 2670.12 935.79 2679.57 934.49 2687.0 C 933.19 2694.43 931.15 2705.68 929.97 2712.0 C 928.78 2718.32 927.15 2725.75 926.34 2728.5 C 925.52 2731.25 923.82 2737.55 922.56 2742.5 C 921.29 2747.45 919.95 2753.97 919.56 2757.0 C 919.18 2760.02 918.15 2763.28 917.28 2764.25 C 916.4 2765.21 915.1 2766.0 914.39 2766.0 C 913.67 2766.0 911.47 2767.1 909.49 2768.44 C 907.52 2769.78 903.33 2771.43 900.2 2772.11 C 897.06 2772.78 892.0 2773.28 888.95 2773.22 C 885.9 2773.16 882.1 2772.61 880.51 2772.0 C 878.91 2771.4 875.24 2768.42 872.35 2765.39 C 869.46 2762.35 866.82 2759.0 866.48 2757.94 C 866.14 2756.87 865.46 2756.0 864.97 2756.0 C 864.47 2756.0 862.44 2754.57 860.46 2752.83 C 858.47 2751.08 854.74 2746.47 852.17 2742.58 C 849.6 2738.69 845.82 2732.35 843.76 2728.5 C 841.71 2724.65 839.45 2720.38 838.75 2719.0 C 838.05 2717.62 836.32 2714.7 834.91 2712.5 C 833.5 2710.3 831.14 2705.93 829.66 2702.8 C 828.19 2699.66 826.49 2695.84 825.88 2694.3 C 825.28 2692.76 824.18 2689.01 823.45 2685.96 C 822.72 2682.91 821.82 2677.06 821.45 2672.96 C 821.08 2668.86 821.3 2659.74 821.94 2652.7 C 822.95 2641.5 823.52 2639.07 826.44 2633.2 C 828.27 2629.52 830.71 2623.12 831.86 2619.0 C 833.01 2614.88 834.86 2607.39 835.98 2602.38 C 837.3 2596.41 838.0 2589.62 838.0 2582.76 C 838.0 2574.5 837.56 2571.12 835.91 2566.88 C 834.76 2563.92 833.32 2560.6 832.7 2559.5 C 832.02 2558.29 831.31 2548.2 830.9 2534.0 C 830.52 2521.07 830.1 2490.03 829.97 2465.0 C 829.83 2439.97 829.34 2413.88 828.88 2407.0 C 828.42 2400.12 827.56 2389.1 826.97 2382.5 C 826.38 2375.9 825.03 2364.43 823.96 2357.0 C 822.9 2349.57 821.59 2340.8 821.05 2337.5 C 820.51 2334.2 819.14 2324.97 818.0 2317.0 C 816.86 2309.03 815.03 2297.55 813.94 2291.5 C 812.84 2285.45 811.02 2276.45 809.89 2271.5 C 808.77 2266.55 807.17 2259.65 806.35 2256.16 C 804.97 2250.3 804.99 2249.67 806.58 2247.91 C 807.53 2246.86 809.14 2246.0 810.15 2246.0 C 811.61 2246.0 812.0 2245.23 812.0 2242.31 C 812.0 2240.28 811.5 2235.89 810.88 2232.56 C 810.27 2229.23 808.5 2222.22 806.95 2217.0 C 805.4 2211.78 803.63 2205.2 803.0 2202.38 C 802.08 2198.23 802.14 2196.61 803.31 2193.81 C 804.65 2190.59 805.47 2190.12 815.13 2186.95 C 820.83 2185.07 826.4 2183.07 827.5 2182.5 C 828.6 2181.92 832.3 2179.66 835.72 2177.48 C 839.15 2175.29 842.23 2172.66 842.58 2171.64 C 842.92 2170.62 847.99 2165.1 853.83 2159.39 C 859.67 2153.67 865.25 2148.74 866.23 2148.43 C 867.2 2148.12 868.0 2147.27 868.0 2146.54 C 868.0 2145.81 869.35 2143.77 871.0 2142.0 C 872.65 2140.23 874.0 2138.38 874.0 2137.89 C 874.0 2137.4 874.9 2135.31 876.0 2133.26 C 877.1 2131.21 878.0 2128.84 878.0 2127.99 C 878.0 2127.14 878.67 2125.49 879.49 2124.32 C 880.31 2123.15 881.65 2119.34 882.47 2115.85 C 883.5 2111.49 883.98 2103.99 883.99 2091.93 C 883.99 2082.27 883.55 2071.7 882.99 2068.43 C 882.44 2065.17 881.09 2059.57 879.99 2056.0 C 878.9 2052.43 876.61 2043.65 874.91 2036.5 C 873.2 2029.35 870.3 2019.0 868.45 2013.5 C 866.61 2008.0 864.22 2001.03 863.14 1998.0 C 861.59 1993.68 860.67 1992.44 858.83 1992.21 C 857.08 1992.0 856.22 1992.62 855.37 1994.71 C 854.75 1996.25 853.34 1999.97 852.24 2003.0 C 851.14 2006.03 849.7 2010.53 849.04 2013.0 C 848.38 2015.47 847.02 2020.42 846.01 2024.0 C 845.0 2027.58 839.6 2044.42 834.01 2061.43 C 828.43 2078.45 823.21 2093.28 822.43 2094.4 C 821.64 2095.53 821.0 2097.13 820.99 2097.97 C 820.99 2098.81 820.32 2100.79 819.49 2102.36 C 818.67 2103.94 818.0 2105.62 818.0 2106.1 C 818.0 2106.58 816.65 2109.76 815.0 2113.16 C 813.35 2116.57 812.0 2119.77 812.0 2120.27 C 812.0 2120.78 810.46 2124.41 808.58 2128.35 C 806.7 2132.28 802.69 2139.32 799.68 2144.0 C 796.67 2148.68 793.37 2153.43 792.35 2154.58 C 791.33 2155.72 789.6 2158.25 788.5 2160.2 C 787.4 2162.15 783.58 2167.0 780.0 2170.99 C 776.42 2174.97 771.55 2180.4 769.18 2183.05 C 766.8 2185.7 764.08 2189.39 763.13 2191.25 C 762.17 2193.12 759.65 2196.73 757.52 2199.29 C 755.38 2201.84 752.26 2204.41 750.58 2205.0 C 748.89 2205.58 746.39 2207.13 745.01 2208.44 C 743.63 2209.74 735.98 2217.31 728.0 2225.27 C 720.02 2233.22 712.35 2241.25 710.94 2243.11 C 709.3 2245.27 707.58 2249.94 706.18 2256.0 C 704.97 2261.22 702.89 2272.47 701.54 2281.0 C 700.19 2289.53 697.96 2304.38 696.57 2314.0 C 695.18 2323.62 693.14 2342.2 692.02 2355.27 C 690.54 2372.74 690.0 2387.33 690.01 2410.27 C 690.02 2429.13 690.61 2448.43 691.5 2459.0 C 692.31 2468.62 693.24 2478.53 693.55 2481.0 C 693.86 2483.47 694.54 2488.65 695.06 2492.5 C 695.58 2496.35 696.91 2506.25 698.01 2514.5 C 699.12 2522.75 700.44 2531.07 700.95 2533.0 C 701.45 2534.93 702.87 2539.88 704.09 2544.0 C 705.32 2548.12 706.64 2551.95 707.03 2552.5 C 707.42 2553.05 708.29 2555.97 708.96 2559.0 C 709.63 2562.03 711.04 2566.41 712.09 2568.74 C 713.14 2571.07 714.0 2573.42 714.0 2573.96 C 714.0 2574.51 715.62 2578.0 717.6 2581.72 C 719.58 2585.45 722.71 2590.97 724.56 2594.0 C 726.4 2597.03 729.52 2602.43 731.5 2606.0 C 733.47 2609.57 735.82 2613.85 736.71 2615.5 C 737.6 2617.15 738.7 2619.18 739.17 2620.0 C 739.63 2620.82 740.87 2623.3 741.93 2625.5 C 742.98 2627.7 744.78 2631.63 745.92 2634.24 C 747.07 2636.85 748.0 2639.63 748.0 2640.43 C 748.0 2641.23 748.39 2642.12 748.86 2642.42 C 749.34 2642.71 750.29 2645.1 750.99 2647.72 C 751.68 2650.35 752.86 2654.4 753.6 2656.73 C 754.35 2659.06 755.87 2666.26 756.99 2672.73 C 758.1 2679.2 759.46 2689.0 760.01 2694.5 C 760.56 2700.0 761.66 2714.87 762.46 2727.56 C 763.25 2740.24 764.42 2752.84 765.06 2755.56 C 765.7 2758.27 766.8 2764.78 767.51 2770.0 C 768.21 2775.22 769.56 2784.68 770.49 2791.0 C 771.42 2797.32 773.32 2807.0 774.7 2812.5 C 776.08 2818.0 777.81 2825.43 778.53 2829.0 C 779.26 2832.57 781.02 2841.35 782.44 2848.5 C 783.86 2855.65 785.65 2864.43 786.43 2868.0 C 787.21 2871.57 788.15 2877.65 788.53 2881.5 C 789.12 2887.58 788.97 2888.72 787.35 2890.18 C 786.33 2891.1 782.87 2893.23 779.66 2894.92 C 776.45 2896.6 771.05 2898.43 767.66 2898.98 C 764.27 2899.53 759.48 2899.91 757.0 2899.82 Z " opacity="1.0" fill="#000000" stroke="none" fill-rule="evenodd"/></svg>