<?xml version="1.0" encoding="UTF-8" standalone="no"?>
<!-- Created with Inkscape (http://www.inkscape.org/) -->

<svg
   version="1.1"
   id="svg1"
   width="1200"
   height="1600"
   viewBox="0 0 1200 1600"
   xml:space="preserve"
   xmlns="http://www.w3.org/2000/svg"
   xmlns:svg="http://www.w3.org/2000/svg"><defs
     id="defs1" /><g><path
     style="display:inline;fill:#000000"
     d="m 615.85705,1567.7983 c -1.84638,-0.3859 -4.92065,-0.962 -6.83171,-1.2802 -30.06428,-5.0064 -41.34643,-15.4801 -35.41771,-32.88 0.8842,-2.5949 1.38169,-5.9376 1.10554,-7.4281 -0.27615,-1.4905 -1.22073,-6.2169 -2.09906,-10.5031 -5.98115,-29.188 -6.62617,-54.76 -1.64476,-65.2069 1.28873,-2.7027 3.92075,-12.2987 4.38853,-16 0.20854,-1.65 0.6474,-3.675 0.97525,-4.5 0.32785,-0.825 2.45662,-9.825 4.73059,-20 2.27398,-10.175 5.43991,-23.5383 7.03539,-29.6963 C 589.6946,1374.1458 591,1367.8048 591,1366.2126 v -2.8949 l -6.75,6.7052 c -3.7125,3.6879 -7.95065,7.469 -9.41811,8.4025 -1.56771,0.9973 -4.07696,4.6621 -6.08409,8.886 -8.36539,17.6043 -24.4283,39.6318 -35.73693,49.0069 -9.49997,7.8758 -23.62163,7.859 -24.17528,-0.029 -0.0305,-0.4343 -0.88154,-1.9499 -1.89122,-3.3678 -3.63991,-5.1118 -11.87968,-31.1553 -12.80158,-40.462 -0.93104,-9.3991 0.34961,-28.4156 2.31139,-34.3219 1.62001,-4.8774 4.74654,-8.3508 15.68611,-17.4261 10.83424,-8.9879 24.88173,-42.8042 34.81224,-83.8029 5.26418,-21.7335 8.59644,-40.8156 7.44575,-42.6379 -0.49405,-0.7824 -0.67154,-4.7992 -0.39441,-8.9263 0.27713,-4.127 0.31818,-7.6894 0.0912,-7.9164 -0.22696,-0.2269 -1.66102,-5.2258 -3.18681,-11.1086 -1.52579,-5.8828 -3.42593,-12.2988 -4.22253,-14.2579 -0.79661,-1.959 -3.35858,-8.5119 -5.69326,-14.5619 -4.90748,-12.717 -20.67559,-45.5 -21.88482,-45.5 -0.44969,0 -1.92369,1.3351 -3.27556,2.967 -3.49684,4.2209 -11.18823,9.8914 -17.72554,13.068 -8.02509,3.8996 -13.66142,15.5353 -16.45261,33.965 -0.29154,1.925 -0.79656,4.85 -1.12226,6.5 -0.3257,1.65 -1.05797,5.475 -1.62728,8.5 -0.56931,3.025 -1.27111,13.825 -1.55956,24 -0.54753,19.3138 -0.53602,19.4148 4.50222,39.5107 6.37698,25.4358 7.18826,42.4719 2.70151,56.7288 -0.21818,0.6933 -0.94986,3.0605 -1.62595,5.2605 -0.6761,2.2 -3.13,8.05 -5.45312,13 -4.30787,9.179 -8.80151,24.0111 -9.99796,33 -0.36603,2.75 -1.93936,10.4 -3.49628,17 -1.55692,6.6 -2.97578,13.125 -3.15303,14.5 -0.51229,3.9742 -9.72304,8.2686 -16.59719,7.7383 -6.49205,-0.5009 -30.38779,-24.6382 -24.5058,-24.7536 0.4294,-0.01 0.33073,-0.3459 -0.21927,-0.75 -8.32323,-6.115 -12.53111,-34.0934 -7.07661,-47.0527 5.57302,-13.2409 7.09823,-25.5237 3.97109,-31.98 l -2.27745,-4.702 -0.0814,-32.7488 c -0.0884,-35.5959 -0.91354,-50.3058 -4.0769,-72.6835 -1.13262,-8.0122 -2.30191,-16.3677 -2.59841,-18.5677 -0.29651,-2.2 -1.81253,-9.7954 -3.36895,-16.8787 -2.86025,-13.017 -2.92237,-15.6213 -0.37258,-15.6213 1.76901,0 1.07348,-5.7764 -1.76903,-14.6919 -3.19018,-10.0059 -2.43563,-12.3889 4.70987,-14.8746 9.80588,-3.4111 10.58302,-4.0444 27.98711,-22.8051 1.38587,-1.4939 5.14172,-11.2204 6.03488,-15.6284 1.97182,-9.7316 -0.9682,-26.6244 -8.8681,-50.9545 l -2.42046,-7.4546 -2.20008,7.4546 c -14.55769,49.3258 -22.90625,68.2521 -37.25365,84.4545 -2.43516,2.75 -6.13354,7.3625 -8.21863,10.25 -2.08508,2.8875 -4.34228,5.25 -5.01599,5.25 -2.98219,0 -21.2488,20.4012 -22.38426,25 -1.00231,4.0595 -4.33278,24.3443 -5.6644,34.5 -2.47643,18.8865 -3.48813,51.2924 -2.0471,65.5704 3.71359,36.795 7.54571,51.8466 17.77939,69.833 14.14217,24.8559 16.67708,34.5288 18.17268,69.3448 0.23032,5.3616 0.73042,10.2526 1.11133,10.8689 0.70195,1.1358 0.92901,2.5142 1.85368,11.2528 0.28342,2.6785 0.74292,5.6035 1.02111,6.5 0.27819,0.8966 0.76617,3.4301 1.0844,5.6301 0.31822,2.2 0.98513,5.35 1.48202,7 1.68099,5.582 6.05589,28.7639 5.52797,29.2918 -0.28831,0.2883 -0.023,1.1281 0.58957,1.8662 0.82433,0.9932 0.79026,1.7318 -0.13112,2.842 -1.03082,1.2421 -0.9229,1.5038 0.62756,1.5222 2.39069,0.028 -1.83734,3.6366 -5.37756,4.5892 -1.2375,0.333 -2.25,0.9212 -2.25,1.3073 0,6.0554 -37.77056,-4.1025 -49.46081,-13.3018 -2.17844,-1.7143 -4.49014,-2.9963 -5.13709,-2.849 -1.2693,0.2891 -2.83781,-4.0185 -2.64647,-7.2679 0.0648,-1.1 0.18688,-6.275 0.27135,-11.5 l 0.15357,-9.5 -6.21198,-13 c -18.7361,-39.2096 -23.11723,-50.7013 -27.4495,-72 -5.60127,-27.5376 -12.23015,-57.7837 -13.93783,-63.5953 -4.52353,-15.3946 -14.4845,-37.8707 -22.20071,-50.0939 -3.46103,-5.4827 -9.63335,-17.875 -9.84791,-19.772 -0.0957,-0.8464 -0.54653,-2.4388 -1.00178,-3.5388 -0.45525,-1.1 -1.93017,-4.7 -3.2776,-8 -2.79741,-6.8512 -5.05537,-10.1175 -13.92917,-20.1496 -7.64738,-8.6455 -7.61646,-8.1513 -0.74112,-11.8504 3.06677,-1.65 6.1027,-3.6489 6.7465,-4.442 0.90963,-1.1205 0.89193,-1.2745 -0.0795,-0.6909 -1.7668,1.0614 -1.57812,0.2139 1.15168,-5.1731 5.36604,-10.5893 22.64017,-23.5489 43.40056,-32.5604 14.6017,-6.3381 23.8193,-14.8485 26.6806,-24.6336 0.0804,-0.275 0.70284,-2.3 1.38317,-4.5 5.48935,-17.7511 4.70948,-45.9393 -1.59082,-57.5 -1.94828,-3.575 -5.11398,-9.425 -7.03487,-13 -3.2872,-6.11786 -17.57679,-30.68535 -28.20985,-48.5 -10.49227,-17.57878 -33.35773,-61.84931 -38.22055,-74 -0.88047,-2.2 -2.72249,-6.475 -4.0934,-9.5 -1.37091,-3.025 -3.47026,-7.75 -4.66523,-10.5 -1.19497,-2.75 -2.82036,-6.4625 -3.61198,-8.25 -3.45129,-7.79312 -4.55068,-10.35021 -8.92122,-20.75 -2.54253,-6.05 -5.02909,-11.9 -5.52568,-13 -0.49659,-1.1 -2.07613,-4.925 -3.51008,-8.5 -1.43396,-3.575 -3.18659,-7.85 -3.89475,-9.5 -3.61196,-8.4158 -5.85707,-17.38573 -7.13335,-28.5 -0.41053,-3.575 -0.88512,-7.625 -1.05464,-9 -0.16953,-1.375 -0.56125,-5.875 -0.8705,-10 -0.30925,-4.125 -0.82082,-10.875 -1.13682,-15 -0.316,-4.125 -0.93989,-7.95 -1.38642,-8.5 -2.50177,-3.08148 -8.31783,-29.37717 -6.97735,-31.54612 0.41529,-0.67195 0.42303,-2.39896 0.0172,-3.8378 -0.40583,-1.43885 -0.56091,-3.12976 -0.34462,-3.7576 0.21629,-0.62783 -0.5199,-3.85217 -1.63598,-7.1652 -4.25613,-12.63412 -6.62253,-36.38167 -3.73575,-37.48942 0.73114,-0.28057 4.89364,0.34719 9.25,1.39502 11.96583,2.87812 28.28969,3.08333 35.92064,0.45156 0.55,-0.18969 2.125,-0.69285 3.5,-1.11814 16.85773,-5.21411 66.86222,-43.08419 63.9859,-48.45865 -1.64481,-3.07335 -1.1155,-5.84262 1.43631,-7.51464 2.26497,-1.48406 2.33607,-1.79393 1.09517,-4.77305 -0.72987,-1.75228 -1.64487,-5.43596 -2.03332,-8.18596 -0.38845,-2.75 -1.3131,-7.68067 -2.05478,-10.95705 -1.58333,-6.99436 -1.59985,-6.95484 2.15839,-5.16341 4.27914,2.03972 8.41233,2.83549 8.41233,1.61964 0,-1.84242 -5.19583,-9.38526 -9.2988,-13.49918 -13.34935,-13.38496 -23.19447,-34.60514 -26.21323,-56.5 -1.17694,-8.53628 -1.13986,-9.85784 0.36554,-13.02745 1.26633,-2.66626 1.43742,-4.204 0.70076,-6.29866 -0.69073,-1.96409 -0.61546,-3.34626 0.25843,-4.74559 0.91321,-1.46228 0.94959,-2.50396 0.14024,-4.01623 -0.60102,-1.12302 -1.25713,-2.80016 -1.458,-3.72697 -0.20088,-0.9268 -1.2468,-5.0601 -2.32426,-9.1851 -12.4807,-47.78163 19.17525,-114.75194 71.61198,-151.5 6.29525,-4.41176 12.44299,-8.33272 14.71734,-9.38656 1.1,-0.5097 5.94258,-3.41644 10.7613,-6.45944 12.8869,-8.13802 22.38766,-10.11471 20.112,-4.18442 -1.04424,2.72125 0.6126,1.63944 5.32632,-3.47772 14.70577,-15.96445 59.13705,-13.62348 59.34169,3.12656 0.67022,54.85832 3.40395,69.5203 15.97084,85.65743 1.1668,1.49828 5.67536,8.23665 10.01903,14.97415 4.34367,6.7375 8.16517,12.25 8.49222,12.25 0.72062,0 0.27214,-0.75737 -5.2134,-8.80414 -7.25929,-10.64868 -6.95744,-10.98732 2.28215,-2.56033 17.999,16.41604 28.15423,29.03679 36.90466,45.86447 6.41876,12.34372 10.06864,21.90893 13.35524,35 4.16279,16.58108 4.44968,19.1649 3.12414,28.13742 -0.63886,4.32442 -1.34018,9.21258 -1.55849,10.86258 -2.54413,19.22886 -4.61729,28.27651 -10.39842,45.38057 l -3.8466,11.38058 5.40569,-5.33855 c 7.80944,-7.71243 8.55999,-6.28084 4.74871,9.0577 l -2.99595,12.05725 2.55574,-2.26877 c 1.40565,-1.24783 3.0491,-2.88118 3.65211,-3.62968 2.30242,-2.85793 4.6649,1.51619 4.29425,7.95076 l -0.333,5.7808 9.49989,7.89642 c 18.26956,15.18588 35.91269,35.69059 34.30797,39.87244 -0.67316,1.75422 0.93509,1.72622 12.69191,-0.22099 28.31601,-4.68982 65.43554,-0.44968 73.59821,8.40707 17.72219,19.22913 24.87075,27.87353 35.40179,42.80958 3.025,4.29033 7.76854,10.40399 10.5412,13.58593 5.93495,6.81102 14.31233,23.0902 18.54011,36.02772 1.88084,5.7556 4.42192,11.06044 6.81866,14.23491 2.10129,2.78313 4.13518,6.05166 4.51977,7.2634 0.3846,1.21174 2.43009,4.80184 4.54556,7.97801 12.66137,19.00986 35.31124,73.80207 37.58094,90.91189 1.2297,9.26996 -9.94787,46.26068 -22.66288,74.99983 -1.00665,2.27527 -2.5714,6.3198 -3.47722,8.98784 -0.90582,2.66804 -2.86347,7.55645 -4.35033,10.86314 -1.48686,3.30668 -3.3048,7.58715 -4.03987,9.51215 -0.73507,1.925 -1.71437,3.9275 -2.17622,4.45 -0.46184,0.5225 -0.83972,1.55674 -0.83972,2.29831 0,0.74156 -0.9,3.21109 -2,5.48783 -1.1,2.27673 -2,4.674 -2,5.32726 0,0.65326 -1.05861,3.60623 -2.35248,6.56217 -1.29386,2.95594 -4.72785,12.12443 -7.63109,20.37443 -2.90324,8.25 -6.11963,16.8878 -7.14753,19.1951 -1.02789,2.3074 -1.8689,4.6578 -1.8689,5.2233 0,0.5654 -0.96585,3.1776 -2.14633,5.8048 -2.63926,5.8739 -3.25728,7.3662 -5.86322,14.158 -2.25066,5.8659 -2.15532,9.9694 0.59467,25.5949 2.69968,15.3397 2.36901,17.1667 -6.16607,34.0687 -6.63308,13.1355 -7.72126,16.0544 -8.57443,23 -0.53745,4.3754 -1.91651,11.1052 -3.06457,14.9552 -2.39531,8.0326 -6.61421,23.8103 -7.35338,27.5 -3.68158,18.3769 -6.20719,37.0466 -7.98144,59 -0.37783,4.675 -0.83877,9.625 -1.02431,11 -0.18555,1.375 -0.38132,15.55 -0.43506,31.5 -0.0928,27.5325 -0.21872,29.4048 -2.48911,37 -1.31527,4.4 -3.37864,12.2734 -4.58525,17.4964 -1.20662,5.2231 -3.06907,11.5231 -4.13877,14 -5.78197,13.3884 -7.25279,35.4488 -4.23395,63.5036 0.76938,7.15 1.68253,15.925 2.02923,19.5 0.3467,3.575 0.99325,9.65 1.43677,13.5 1.80982,15.71 -1.25846,35.0744 -8.32055,52.5123 -8.00353,19.7625 -8.02258,20.358 -1.27733,39.9171 9.66145,28.0152 9.74097,31.8817 0.75708,36.8118 -10.17318,5.5827 -26.64995,7.7026 -39.30693,5.0571 z m 22.95917,-7.2126 c 6.27229,-1.1223 7.89139,-1.8639 11.34715,-5.1974 l 4.03093,-3.8883 -0.53887,-6.0288 c -0.4654,-5.2069 -2.76495,-13.1742 -6.86669,-23.7914 -4.72352,-12.2266 -27.39737,-9.8678 -52.03561,5.4133 -4.26422,2.6448 -7.75313,4.5216 -7.75313,4.1707 0,-0.3509 -1.35,0.6554 -3,2.2362 -16.18523,15.5064 19.89484,33.3342 54.81622,27.0857 z m -51.64261,-32.7593 c 1.5851,-1.5851 1.99972,-1.7205 1.53138,-0.5 -0.66598,1.7355 0.75114,2.3626 1.73643,0.7684 1.09093,-1.7652 16.16153,-9.9938 23.05858,-12.5901 10.77979,-4.0578 18.85865,-4.4027 26.04671,-1.1119 4.71962,2.1607 5.49608,2.312 4.13243,0.8051 -0.92353,-1.0204 -1.67914,-2.4255 -1.67914,-3.1223 0,-0.6968 -0.89234,-2.52 -1.98298,-4.0517 -2.24556,-3.1536 -1.75855,-4.7161 3.90358,-12.5239 14.41606,-19.8791 19.78746,-46.283 14.44369,-71 -5.89897,-27.285 -6.51374,-31.6457 -6.43988,-45.6802 0.0788,-14.9759 0.39725,-16.7571 8.28112,-46.3198 6.52614,-24.4715 9.20958,-41.071 5.47059,-33.8406 -0.80925,1.5649 -2.49478,3.7443 -3.74564,4.843 -2.57473,2.2615 -2.19961,1.4608 3.08234,-6.5797 l 3.66385,-5.5774 0.67776,-23.9226 c 0.62581,-22.0895 1.54269,-36.2864 3.15957,-48.9227 2.72415,-21.2899 8.16241,-56.1674 8.95879,-57.456 0.19484,-0.3152 0.6702,-3.7166 1.05637,-7.5586 0.92707,-9.2235 2.72162,-17.3775 5.77394,-26.2354 1.37404,-3.9875 2.30211,-7.25 2.06239,-7.25 -0.23972,0 0.0109,-0.8348 0.557,-1.8552 0.54607,-1.0203 1.48246,-4.9199 2.08086,-8.6657 0.88774,-5.5571 1.79036,-7.6544 4.90391,-11.3949 6.43309,-7.7283 7.01199,-9.5323 6.4653,-20.1478 -0.45502,-8.8353 -2.45366,-19.388 -4.36253,-23.0338 -0.49166,-0.939 -0.28794,-3.4119 0.4943,-6 0.73186,-2.4214 2.09732,-7.7776 3.03436,-11.9026 0.93704,-4.125 2.50827,-9.075 3.49161,-11 0.98335,-1.925 2.19899,-4.625 2.70142,-6 0.50243,-1.375 2.11834,-4.9821 3.5909,-8.0158 1.47256,-3.0338 2.67738,-6.0713 2.67738,-6.75 0,-0.6788 0.45,-1.2342 1,-1.2342 0.55,0 1,-0.665 1,-1.4778 0,-0.8129 1.09937,-3.85036 2.44305,-6.75005 1.34368,-2.89968 3.02853,-6.73465 3.74411,-8.52215 0.71558,-1.7875 1.56621,-3.25 1.89028,-3.25 0.32408,0 0.60614,-0.5625 0.62682,-1.25 0.0207,-0.6875 1.39328,-4.175 3.05023,-7.75 5.45423,-11.76796 7.53823,-16.48471 7.78644,-17.62318 0.13468,-0.61775 0.93449,-2.64275 1.77734,-4.5 C 744.53609,941.37925 746,937.7718 746,936.41135 c 0,-0.9014 0.47406,-1.2364 1.15451,-0.81586 0.64004,0.39557 0.88566,0.27852 0.55118,-0.26268 -0.33183,-0.53692 0.0486,-2.23288 0.84549,-3.76882 0.79685,-1.53593 1.44882,-3.31033 1.44882,-3.94311 0,-0.63277 0.9128,-2.85359 2.02845,-4.93515 1.11565,-2.08155 1.78784,-4.17396 1.49377,-4.64978 -0.29407,-0.47582 -0.15521,-1.01606 0.30859,-1.20054 1.54448,-0.61432 9.03331,-25.19804 11.54905,-37.91228 5.08238,-25.68582 5.49748,-44.46673 1.24708,-56.42313 -6.73758,-18.95282 -14.34327,-35.28167 -22.82334,-49 -2.71989,-4.4 -5.47588,-8.86443 -6.12443,-9.92096 -1.44302,-2.35081 -2.91773,-4.31115 -5.70149,-7.57904 l -2.12962,-2.5 0.71651,2.5 c 1.04259,3.63768 1.75494,14.62663 0.89323,13.77908 -0.40314,-0.39651 -2.64956,-8.27151 -4.99204,-17.5 -9.39932,-37.02977 -17.90127,-54.18051 -36.3258,-73.27908 -1.85706,-1.925 -7.55963,-9.80526 -12.67237,-17.51168 -13.40615,-20.20706 -18.26421,-25.37769 -24.52894,-26.10711 -1.43159,-0.16668 -3.91594,-0.83979 -5.52077,-1.49579 -4.27646,-1.74808 -6.2556,-2.19356 -15.41788,-3.47037 -8.40958,-1.17193 -37.9595,-0.85555 -39.23512,0.42007 -0.63741,0.63741 -2.82089,0.84481 -5.30686,0.50407 -2.6554,-0.36396 -8.0735,0.2429 -14.59094,1.63428 l -10.36708,2.21321 -7.74193,8.01522 c -4.25806,4.40836 -7.494,8.41636 -7.19098,8.90665 0.30302,0.4903 -0.0483,0.89145 -0.78067,0.89145 -0.73239,0 -2.18403,1.58285 -3.22589,3.51745 -1.95252,3.62561 -8.68679,10.85747 -19.09849,20.50967 -12.3697,11.46736 -24.14926,29.66719 -32.6678,50.47288 -0.90075,2.2 -2.34795,5.74246 -3.21599,7.87212 -0.86804,2.12967 -1.63149,6.40467 -1.69656,9.5 -0.17427,8.28911 -1.5782,13.34773 -1.83945,6.62788 l -0.1944,-5 -1.26314,3.5 c -0.69473,1.925 -1.6657,3.32536 -2.15773,3.11191 -0.49202,-0.21345 -2.81741,2.93655 -5.16753,7 -2.35012,4.06345 -4.67679,8.06309 -5.17039,8.88809 -6.35224,10.61715 -20.53412,42.038 -26.51405,58.74357 -6.97633,19.48911 -7.64297,23.12294 -5.55192,30.26303 1.2532,4.27919 1.62581,8.75586 2.95427,35.4934 1.19099,23.97105 1.5065,28.05816 3.55096,46 0.81474,7.15 1.72873,15.475 2.03109,18.5 0.30236,3.025 0.81297,7.525 1.13468,10 0.32172,2.475 0.63466,12.15 0.69543,21.5 0.11807,18.1659 0.40411,19.3573 5.24079,21.8283 4.66348,2.3826 16.13311,16.7343 35.8697,44.8832 3.58388,5.1114 14.36721,22.3978 22.26932,35.6992 3.13325,5.2741 6.24761,10.4893 6.92081,11.5893 0.6732,1.1 1.64076,2.9036 2.15014,4.0079 0.50938,1.1044 2.35603,4.433 4.10367,7.397 7.64933,12.9733 27.48048,52.9567 31.08519,62.6736 l 3.94733,10.6406 -0.45517,11.1404 c -2.01117,49.2245 -27.42914,132.0856 -45.23272,147.4561 -2.92656,2.5266 -6.74243,5.0642 -8.47969,5.6391 -6.53994,2.1642 -3.5764,4.3578 16.21304,12.0004 13.58383,5.2461 28.33361,13.1599 33.9664,18.2243 3.56606,3.2062 5.05495,4.0465 5.16168,2.9133 0.0825,-0.876 0.195,-2.1552 0.25,-2.8427 0.055,-0.6875 0.6625,-1.8446 1.35,-2.5714 0.6875,-0.7268 1.25,-1.896 1.25,-2.5982 0,-0.7021 1.81824,-2.0966 4.04054,-3.0987 13.42012,-6.0516 23.12003,-22.3415 29.4642,-49.4817 3.66822,-15.6926 4.3701,-21.5945 4.99442,-41.9967 0.58949,-19.2643 4.47415,-38.0186 10.77169,-52.0033 8.37783,-18.6043 9.68704,-33.4716 3.74256,-42.5 -0.36213,-0.55 -2.35499,-5.275 -4.42858,-10.5 -4.01753,-10.1233 -11.8964,-29.4176 -18.3759,-45 -2.17266,-5.225 -5.61893,-13.775 -7.65836,-19 -8.24907,-21.134 -12.89302,-32.7059 -14.67429,-36.5657 -1.03195,-2.2362 -1.87628,-4.5622 -1.87628,-5.169 0,-0.6068 -0.66316,-2.3772 -1.4737,-3.9343 -1.29956,-2.4965 -2.79221,-5.9621 -5.5263,-12.831 -0.43784,-1.1 -1.48084,-3.575 -2.31776,-5.5 -8.11052,-18.6549 -10.91061,-24.4086 -18.42762,-37.8653 l -3.5557,-6.3653 -4.09946,0.5988 c -5.40983,0.7902 -8.6651,1.4339 -16.00249,3.1643 -3.35333,0.7909 -6.77197,1.4102 -7.59697,1.3763 -2.92095,-0.1201 11.4662,-3.8675 19.17606,-4.9949 6.12065,-0.8949 7.82061,-1.4999 7.80863,-2.7789 -0.009,-0.9672 -0.31542,-1.2139 -0.75,-0.6042 -0.40408,0.567 -4.60172,1.0969 -9.3281,1.1776 -7.59815,0.1298 -16.57947,1.2612 -23.76235,2.9934 l -2.35577,0.5681 1.82801,-2.1349 c 1.83334,-2.1412 4.0429,-3.0109 2.88352,-1.135 -0.91511,1.4807 0.83674,1.2125 3.05887,-0.4682 2.34043,-1.7702 3.82844,-1.9675 2.84564,-0.3773 -0.93968,1.5204 1.36247,0.2079 4.34549,-2.4776 2.29416,-2.06528 3.23358,-1.06048 1.05,1.1231 -0.93333,0.9333 -0.85244,1.2 0.364,1.2 0.8602,0 2.78812,-1.7664 4.28427,-3.92535 1.49614,-2.15894 3.3956,-4.18449 4.221,-4.50123 0.82541,-0.31674 0.0747,1.22466 -1.66829,3.42534 L 522.83194,1002 h 2.38508 c 2.44179,0 12.19015,-13.22309 16.4032,-22.25 0.96261,-2.0625 2.10274,-3.75 2.53361,-3.75 0.43087,0 0.53996,-0.63438 0.24243,-1.40974 -0.29753,-0.77536 0.22149,-2.88418 1.15339,-4.68626 2.06058,-3.98473 1.508,-13.64088 -0.99962,-17.46799 -0.89823,-1.37088 -1.38531,-2.89351 -1.0824,-3.38364 0.30291,-0.49012 -0.0224,-1.48991 -0.72282,-2.22175 -5.43945,-5.68309 -11.58693,-15.99116 -8.49179,-14.239 0.68584,0.38825 2.36936,1.65147 3.74116,2.80715 1.37181,1.15567 -0.0907,-0.67786 -3.25,-4.07453 C 531.58488,927.92757 529,924.61639 529,923.96608 c 0,-0.65032 2.77343,1.81124 6.16318,5.47013 3.38975,3.65889 6.70992,6.44273 7.37815,6.1863 1.71536,-0.65824 3.41564,1.32606 2.71059,3.16339 -0.34306,0.894 -0.17041,1.28176 0.41078,0.92256 0.55142,-0.34079 3.86416,2.31166 7.36164,5.89433 11.66706,11.95125 28.64975,16.24658 43.63666,11.03676 3.16158,-1.09904 4.89775,-1.10808 9.839,-0.0512 13.90103,2.97316 30.34426,-1.54871 40.09323,-11.0256 0.60127,-0.58449 3.20204,-2.99671 5.77948,-5.36049 2.57745,-2.36377 4.45465,-4.67254 4.17156,-5.13059 -0.28309,-0.45805 3.43612,-4.37405 8.26492,-8.70223 4.82879,-4.32817 10.10964,-9.53606 11.73522,-11.5731 2.77536,-3.47785 5.03476,-4.97568 4.28892,-2.84327 -0.18333,0.52416 -3.37083,4.0985 -7.08333,7.94297 -3.7125,3.84447 -6.75,7.32849 -6.75,7.74225 0,0.41377 -1.2375,2.1199 -2.75,3.7914 -4.60106,5.08473 0.90092,0.38613 11.03617,-9.42471 4.8324,-4.67772 9.08568,-8.72994 9.45174,-9.00494 2.3022,-1.72953 -8.5462,10.47933 -13.32852,15 -3.20009,3.025 -5.62202,5.5 -5.38206,5.5 0.23996,0 -0.34302,1.11263 -1.29552,2.47251 -0.9525,1.35987 -1.73181,2.01237 -1.73181,1.45 0,-0.56238 0.5625,-1.63795 1.25,-2.39015 0.6875,-0.7522 -1.59063,0.82128 -5.0625,3.49662 -6.34751,4.8912 -7.94664,6.47098 -6.55027,6.47098 1.26086,0 8.36277,-5.21088 8.36277,-6.136 0,-0.4752 0.47656,-0.864 1.05902,-0.864 0.58246,0 0.7494,0.50097 0.37098,1.11326 -0.37841,0.61229 1.73253,-0.40683 4.69099,-2.26471 2.95845,-1.85788 8.07901,-4.42202 11.37901,-5.69809 6.76673,-2.6166 13.73294,-6.10909 14.53505,-7.28709 0.29427,-0.43219 2.31927,-1.48928 4.5,-2.3491 l 3.96495,-1.56331 -4,3.71032 c -3.94919,3.66318 -3.32833,3.45512 4.21132,-1.41128 1.55079,-1.00094 2.37323,-1.20143 1.92145,-0.46839 -2.2066,3.58031 -29.92574,20.42693 -32.18416,19.5603 -0.73623,-0.28252 -3.35694,0.87497 -5.82378,2.57221 C 663.15798,945.61135 660.65602,947 660.06492,947 656.35063,947 645,954.35171 645,956.75742 c 0,1.04474 0.45962,1.07176 2.25,0.13225 l 2.25,-1.18069 -1.88989,2.12883 c -1.7483,1.96934 -1.79807,2.69803 -0.66426,9.72644 1.45957,9.04782 0.91565,10.69535 -0.95568,2.89476 -1.48764,-6.20114 -2.43477,-7.36531 -3.84636,-4.72773 -0.68243,1.27514 -0.40872,2.91355 0.95515,5.71751 1.05142,2.16161 2.34573,5.53243 2.87625,7.4907 l 0.96457,3.56051 -1.9323,-2.5 c -1.06276,-1.375 -2.20314,-3.70641 -2.53416,-5.1809 -0.33103,-1.4745 -1.24263,-3.21268 -2.02577,-3.86263 -2.44871,-2.03225 -2.88581,1.63093 -0.62979,5.2781 4.52935,7.32229 7.4038,13.1942 5.81235,11.87341 -0.89656,-0.74408 -1.64508,-1.86027 -1.66338,-2.48042 -0.0464,-1.57373 -3.89022,-6.03741 -4.59342,-5.33421 -0.31717,0.31718 1.04408,3.81639 3.02501,7.77602 1.98092,3.95964 3.60168,8.14169 3.60168,9.29345 0,1.15176 -2.25,-2.29795 -5,-7.66602 -5.20404,-10.15841 -6.10535,-13.33494 -3.5,-12.33517 1.9793,0.75953 1.86352,-0.33126 -0.3391,-3.19457 l -1.79463,-2.33294 -1.31586,4.33294 c -1.7012,5.6018 -1.4638,24.64894 0.49832,39.98094 2.89049,22.5862 1.82191,48.6242 -2.15886,52.605 -0.76443,0.7644 -1.42975,3.2702 -1.4785,5.5684 -0.14621,6.8932 -0.72981,15.8678 -1.3772,21.1786 -0.33523,2.75 -0.82505,7.25 -1.08849,10 -0.26344,2.75 -0.68269,6.35 -0.93166,8 -0.24898,1.65 -0.72184,5.611 -1.05081,8.8021 -0.32896,3.1912 -0.817,6.7912 -1.08452,8 -1.80036,8.1353 -3.49359,21.167 -4.37903,33.7027 l -1.0313,14.6007 4.49973,9.9473 c 2.47486,5.4709 4.50698,11.1581 4.51582,12.6382 0.009,1.48 0.46609,2.9691 1.01609,3.309 1.93868,1.1982 0.94957,5.007 -3.88283,14.9516 -12.46975,25.6616 -17.25203,44.8129 -18.60645,74.5121 -0.92593,20.3036 -3.45324,38.0162 -6.90668,48.4054 -1.30369,3.922 -2.89116,11.1809 -3.5277,16.1309 -0.63654,4.95 -1.78405,12.15 -2.55002,16 -0.76597,3.85 -1.66767,8.8 -2.00377,11 -0.89308,5.8458 -5.80177,27.3277 -11.08238,48.5 -9.92421,39.7905 -10.14938,58.6825 -1.06673,89.5 1.85766,6.3031 3.67027,7.4563 6.80017,4.3264 z M 646,1303.1224 c 0,-0.4826 0.675,-1.4377 1.5,-2.1224 0.825,-0.6847 1.5,-1.8648 1.5,-2.6224 0,-0.7577 0.45,-1.3776 1,-1.3776 1.39158,0 1.26045,0.7505 -0.71561,4.0957 -1.66368,2.8164 -3.28439,3.8165 -3.28439,2.0267 z m 10.04192,-0.8724 c 0.0747,-1.3367 3.87289,-7.7856 3.91616,-6.6492 0.0771,2.0248 -2.14253,7.3992 -3.05591,7.3992 -0.49619,0 -0.88331,-0.3375 -0.86025,-0.75 z m -24.22942,-3.9331 c 0.72187,-0.2889 1.58438,-0.2534 1.91667,0.079 0.33229,0.3323 -0.25834,0.5687 -1.3125,0.5253 -1.16495,-0.048 -1.4019,-0.285 -0.60417,-0.6042 z m -23.20655,-84.469 c 1.04173,-1.4586 2.09405,-2.4586 2.33849,-2.2222 0.24445,0.2364 -0.60787,1.4299 -1.89404,2.6521 l -2.3385,2.2222 z m 5.03256,-2.5252 c 0.84505,-2.0225 1.35003,-4.9475 1.12217,-6.5 -0.22786,-1.5525 -0.0422,-2.8227 0.41251,-2.8227 1.23706,0 0.99657,7.5333 -0.33371,10.4529 -1.82367,4.0026 -2.91604,2.9746 -1.20097,-1.1302 z m 3.83525,2.1773 c 0.46653,-1.1 1.16242,-4.25 1.54644,-7 l 0.6982,-5 0.1408,5.6276 c 0.10493,4.1938 -0.28905,5.9772 -1.54643,7 -1.50332,1.2228 -1.59477,1.1544 -0.83901,-0.6276 z M 614,1200 c 0,-0.7333 0.3,-1.0333 0.66667,-0.6667 0.36666,0.3667 0.36666,0.9667 0,1.3334 C 614.3,1201.0333 614,1200.7333 614,1200 Z m 83.07895,-114.5833 c 0.048,-1.165 0.28494,-1.4019 0.60416,-0.6042 0.28887,0.7219 0.25335,1.5844 -0.0789,1.9167 -0.33229,0.3323 -0.56864,-0.2584 -0.52522,-1.3125 z m -13.46983,-9.9337 c 0.90556,-2.7407 2.32785,-5.658 3.16065,-6.483 1.34842,-1.3358 1.4327,-1.2811 0.76992,0.5 -0.40934,1.1 -1.20733,3.35 -1.77332,5 -0.56599,1.65 -1.65337,3.6673 -2.4164,4.483 -1.07221,1.1461 -1.01335,0.3511 0.25915,-3.5 z m -29.16799,2.0307 c -1.77591,-1.3597 -1.6645,-1.3939 1.30887,-0.4021 3.39349,1.1319 4.17108,1.8884 1.94113,1.8884 -0.71988,0 -2.18238,-0.6688 -3.25,-1.4863 z M 669,1077.441 c 0,-0.8575 0.38986,-1.3181 0.86635,-1.0236 0.4765,0.2945 1.67124,-0.354 2.65499,-1.441 0.98375,-1.087 2.25308,-1.9764 2.82074,-1.9764 0.56766,0 -0.26128,1.35 -1.84208,3 -3.2065,3.3469 -4.5,3.7611 -4.5,1.441 z m 7,-1.3696 c 0,-1.214 2.87362,-4.0714 4.09448,-4.0714 0.52339,0 0.2145,1.125 -0.68644,2.5 -1.63949,2.5022 -3.40804,3.3176 -3.40804,1.5714 z M 689,1076 c 0,-0.7333 0.3,-1.0333 0.66667,-0.6667 0.36666,0.3667 0.36666,0.9667 0,1.3334 C 689.3,1077.0333 689,1076.7333 689,1076 Z m 3.69808,-2 c 0.42174,-1.375 0.74042,-3.975 0.70818,-5.7778 -0.0322,-1.8028 0.25072,-2.7772 0.62882,-2.1654 0.96426,1.5602 2.00619,-2.9066 1.40579,-6.0267 l -0.48687,-2.5301 1.07324,2.4729 c 1.33223,3.0697 0.45704,8.4239 -2.12938,13.0271 -1.33035,2.3677 -1.7185,2.6912 -1.19978,1 z m -44.2392,-0.066 c -1.02606,-1.6602 -0.10511,-1.8905 1.33055,-0.3326 0.70918,0.7695 0.84824,1.3991 0.30901,1.3991 -0.53922,0 -1.27702,-0.4799 -1.63956,-1.0665 z M 690,1073 c 0,-0.7333 0.3,-1.0333 0.66667,-0.6667 0.36666,0.3667 0.36666,0.9667 0,1.3334 C 690.3,1074.0333 690,1073.7333 690,1073 Z m 4,-10 c 0,-0.7333 0.3,-1.0333 0.66667,-0.6667 0.36666,0.3667 0.36666,0.9667 0,1.3334 C 694.3,1064.0333 694,1063.7333 694,1063 Z m 5,-15 c 0,-0.7333 0.3,-1.0333 0.66667,-0.6667 0.36666,0.3667 0.36666,0.9667 0,1.3334 C 699.3,1049.0333 699,1048.7333 699,1048 Z m -58.92105,-36.5833 c 0.048,-1.165 0.28494,-1.4019 0.60416,-0.6042 0.28887,0.7219 0.25335,1.5844 -0.0789,1.9167 -0.33229,0.3323 -0.56864,-0.2584 -0.52522,-1.3125 z M 639,1007 c 0,-0.7333 0.3,-1.0333 0.66667,-0.6667 0.36666,0.3667 0.36666,0.9667 0,1.3334 C 639.3,1008.0333 639,1007.7333 639,1007 Z m -148,-2.9476 c 0.825,-0.562 2.8125,-1.0287 4.41667,-1.0371 3.84249,-0.02 3.04405,0.5585 -1.91667,1.3891 -2.86606,0.4799 -3.57477,0.3801 -2.5,-0.352 z m 151.62354,-1.5911 c -0.34295,-0.8937 -0.59502,-2.1506 -0.56015,-2.79309 0.0349,-0.64251 0.49453,-0.0904 1.02148,1.22699 0.52695,1.3173 0.77902,2.5742 0.56015,2.7931 -0.21887,0.2189 -0.67854,-0.3333 -1.02148,-1.227 z M 639.5,995 c -0.33992,-0.55 -0.14148,-1 0.44098,-1 0.58246,0 1.05902,0.45 1.05902,1 0,0.55 -0.19844,1 -0.44098,1 -0.24254,0 -0.7191,-0.45 -1.05902,-1 z m -99.65296,-70.25 c -6.74906,-9.12547 -12.47942,-18.21077 -8.65221,-13.71779 7.0485,8.27461 18.23056,23.96779 17.07808,23.96779 -0.46482,0 -4.25646,-4.6125 -8.42587,-10.25 z M 695,931.59783 c 0,-0.2212 1.4625,-0.89002 3.25,-1.48627 2.97337,-0.99181 3.08478,-0.95758 1.30887,0.40218 -1.789,1.36978 -4.55887,2.02844 -4.55887,1.08409 z m 10,-5.02068 c 2.78621,-1.67872 4.97746,-2.11668 3.45,-0.68954 -0.5225,0.48818 -2.075,1.18195 -3.45,1.54171 l -2.5,0.65411 z m 5.05136,1.11415 c 1.1166,-1.2705 7.94864,-3.68845 7.94864,-2.81313 0,0.49776 -1.08319,1.17688 -2.4071,1.50916 -1.3239,0.33228 -3.2364,0.90276 -4.25,1.26773 -1.01359,0.36498 -1.59479,0.38129 -1.29154,0.0362 z M 664.5,923 c 0.99549,-1.1 2.03498,-2 2.30998,-2 0.275,0 -0.31449,0.9 -1.30998,2 -0.99549,1.1 -2.03498,2 -2.30998,2 -0.275,0 0.31449,-0.9 1.30998,-2 z m -5,-2 c 0.99549,-1.1 2.03498,-2 2.30998,-2 0.275,0 -0.31449,0.9 -1.30998,2 -0.99549,1.1 -2.03498,2 -2.30998,2 -0.275,0 0.31449,-0.9 1.30998,-2 z m -122.50744,-9.1305 c -5.76523,-8.67974 -8.22199,-14.04007 -6.99652,-15.26554 0.55218,-0.55218 1.0374,-0.80146 1.07827,-0.55396 0.68159,4.12752 1.78648,6.4639 6.41433,13.56365 3.00657,4.61249 5.04112,8.38635 4.52121,8.38635 -0.51991,0 -2.77769,-2.75873 -5.01729,-6.1305 z M 664.5,916 c 0.99549,-1.1 2.03498,-2 2.30998,-2 0.275,0 -0.31449,0.9 -1.30998,2 -0.99549,1.1 -2.03498,2 -2.30998,2 -0.275,0 0.31449,-0.9 1.30998,-2 z m 2.83333,-3.66667 c 0.36667,-0.36666 0.96667,-0.36666 1.33334,0 C 669.03333,912.7 668.73333,913 668,913 c -0.73333,0 -1.03333,-0.3 -0.66667,-0.66667 z M 674,911.05902 c 0,-0.51754 0.44485,-1.21592 0.98855,-1.55194 0.56686,-0.35034 0.7345,0.0511 0.39301,0.94098 C 674.71677,912.18048 674,912.49745 674,911.05902 Z m -2.43571,-3.35215 c 0.37553,-0.98622 0.93469,-1.54122 1.24258,-1.23333 0.30789,0.30789 6.4e-4,1.11479 -0.68278,1.79313 -0.98762,0.98026 -1.10248,0.8654 -0.5598,-0.5598 z M 667,906.62244 c 0,-0.20765 0.7875,-0.99515 1.75,-1.75 1.58606,-1.24387 1.62143,-1.2085 0.37756,0.37756 C 667.82119,906.91575 667,907.44548 667,906.62244 Z M 535.57565,901.89747 C 534.09749,898.20319 530.02559,882.73975 530.00701,880.75 530.00315,880.3375 530.45,880 531,880 c 0.55,0 1,1.06648 1,2.36996 0,1.30347 1.37044,6.98303 3.04542,12.62124 3.1637,10.64939 3.43337,14.16193 0.53023,6.90627 z M 674.03063,905.5 c 0,-0.55 0.43621,-1.675 0.96937,-2.5 0.53316,-0.825 0.96937,-1.05 0.96937,-0.5 0,0.55 -0.43621,1.675 -0.96937,2.5 -0.53316,0.825 -0.96937,1.05 -0.96937,0.5 z m 3.53366,-5.79313 c 0.37553,-0.98622 0.93469,-1.54122 1.24258,-1.23333 0.30789,0.30789 6.4e-4,1.11479 -0.68278,1.79313 -0.98762,0.98026 -1.10248,0.8654 -0.5598,-0.5598 z M 670.5,898 c 0.33992,-0.55 0.84303,-1 1.11803,-1 0.275,0 0.22189,0.45 -0.11803,1 -0.33992,0.55 -0.84303,1 -1.11803,1 -0.275,0 -0.22189,-0.45 0.11803,-1 z m 2.58029,-4 C 674.5381,890.93897 675,890.37166 675,891.6422 c 0,0.53655 -0.69982,1.84905 -1.55517,2.91667 -1.46637,1.83031 -1.48719,1.7984 -0.36454,-0.55887 z m -0.39788,-8 c 1.02101,-8.33022 2.33134,-12.15683 1.72154,-5.02749 -0.30448,3.55987 -0.94049,7.15987 -1.41335,8 -0.52499,0.93274 -0.64498,-0.22466 -0.30819,-2.97251 z M 489.54882,756.80296 c 1.14242,-13.6059 3.69825,-28.58371 5.51999,-32.34847 1.05245,-2.17497 1.70179,-3.05449 1.44297,-1.95449 -2.49417,10.60054 -4.67957,23.5566 -5.19259,30.78403 -0.34301,4.83236 -1.00074,9.01916 -1.46163,9.304 -0.46088,0.28484 -0.59981,-2.31844 -0.30874,-5.78507 z M 388.25,1442.4738 c 2.73079,-1.0733 2.20205,-5.7929 -2.82957,-25.2578 -6.7259,-26.0191 -9.70171,-26.4363 -32.33322,-4.5331 -11.59442,11.2213 -15.63453,14.0824 -8.60454,6.0935 14.23566,-16.1773 26.62704,-24.7909 33.26657,-23.1245 2.37518,0.5961 2.49652,0.4503 1.87854,-2.2573 -0.36337,-1.592 -1.31855,-9.4196 -2.12263,-17.3946 -1.54077,-15.2815 -1.86081,-17.9569 -3.58875,-30 -0.59185,-4.125 -1.23027,-9.3769 -1.41871,-11.6709 -0.18843,-2.2939 -0.8275,-5.0768 -1.42015,-6.1842 -0.59265,-1.1074 -1.07942,-2.8305 -1.08173,-3.8292 -0.006,-2.4471 -6.5823,-15.1063 -8.99581,-17.3157 -15.14583,-13.8648 -25.22171,-82.9575 -18.95807,-130 1.92584,-14.4639 4.48079,-29.843 6.52066,-39.25 0.69279,-3.1949 -0.52666,-3.5522 -2.95717,-0.8665 -1.95747,2.163 -7.00356,1.5496 -10.89342,-1.3242 -1.2166,-0.8988 -4.3495,-3.0346 -6.962,-4.7462 -6.22039,-4.0754 -5.69745,-4.7108 1.5651,-1.9019 9.52947,3.6857 23.4685,-3.2107 23.70378,-11.7276 0.0104,-0.376 3.48853,-3.8336 7.7292,-7.6836 13.35739,-12.1268 25.80427,-24.8871 27.31239,-28 2.19211,-4.5247 7.20699,-12.8301 8.63486,-14.3005 3.64533,-3.7541 19.023,-38.1995 17.05361,-38.1995 -0.5824,0 -0.30319,-0.8351 0.62047,-1.8557 1.7063,-1.8854 8.60472,-22.7113 11.14442,-33.6443 2.96037,-12.74386 2.10471,-46.96687 -1.47515,-59 -1.14537,-3.85 -2.25915,-7.675 -2.47507,-8.5 -2.67607,-10.22514 -11.75397,-27 -14.61134,-27 -1.98282,0 -1.25572,3.39339 1.07136,5 0.96689,0.66754 6.80048,13.24016 9.04783,19.5 0.98729,2.75 3.21033,8.6 4.94009,13 3.63632,9.24968 4.82502,13.57958 2.33354,8.5 -2.16883,-4.42176 -3.39815,-7.32633 -7.82992,-18.5 -1.96329,-4.95 -4.48652,-10.2587 -5.60716,-11.79711 -1.12065,-1.5384 -7.0425,-12.5634 -13.15968,-24.5 C 391.63115,878.2663 383.31323,862.2 379.26407,854.5 c -4.04916,-7.7 -9.88176,-19.175 -12.96134,-25.5 -3.07958,-6.325 -12.17002,-24.75509 -20.20098,-40.95575 -8.03096,-16.20066 -14.7705,-29.92566 -14.97675,-30.5 -2.18733,-6.09099 17.69683,28.8887 22.29224,39.21595 2.86036,6.42805 2.86007,4.66719 -10e-4,-7.35033 C 350.54382,777.34627 348.62357,735 350.94876,735 351.52694,735 352,733.65 352,732 c 0,-1.65 -0.37866,-3 -0.84146,-3 -0.46281,0 -0.51633,-2.1375 -0.11893,-4.75 0.3974,-2.6125 0.51199,-7.3882 0.25464,-10.61268 -0.2986,-3.74142 -0.1084,-5.64049 0.52567,-5.24862 0.55074,0.34038 0.83971,-0.16652 0.64836,-1.13732 C 351.54698,702.57718 351.12865,690 351.89448,690 c 0.47793,0 1.18745,3.82332 1.5767,8.49627 0.81345,9.76533 1.6843,11.09267 3.5563,5.42045 0.72915,-2.20934 1.64728,-4.21571 2.0403,-4.45861 0.39301,-0.24289 -0.39957,3.04216 -1.76129,7.30013 -7.40243,23.14661 -5.75314,72.5511 3.39649,101.74176 9.98066,31.84196 54.17454,99.44713 62.83633,96.12329 C 424.34269,904.315 425,904.5252 425,905.0904 c 0,0.5652 0.3485,0.81225 0.77445,0.549 1.00352,-0.62021 10.596,6.32348 9.81484,7.10465 -0.32594,0.32593 -2.61686,-0.8611 -5.09095,-2.63786 -5.50784,-3.95543 -5.9295,-2.7761 -0.49834,1.39381 3.93532,3.02145 5.28118,5.23242 2.5,4.10699 -5.08375,-2.05719 -4.83168,-2.14907 -3.13026,1.14112 0.86453,1.67181 2.85263,4.3249 4.41801,5.89577 1.56539,1.57087 3.39746,3.75612 4.07128,4.85612 1.06279,1.73498 1.15873,1.46995 0.72406,-2 -0.27559,-2.2 -0.7589,-9.175 -1.07402,-15.5 -1.19261,-23.93756 -1.66391,-29.61856 -3.10658,-37.44647 -2.43829,-13.23002 -2.75192,-18.93242 -1.35769,-24.68511 0.71561,-2.95263 1.36517,-6.04342 1.44347,-6.86842 0.21134,-2.22674 3.48205,-11.86002 5.77187,-17 1.1026,-2.475 3.34379,-7.425 4.98042,-11 1.63663,-3.575 4.71311,-10.325 6.83662,-15 6.25947,-13.7805 16.96007,-34.41514 25.56758,-49.30358 1.84538,-3.19196 3.35524,-6.01341 3.35524,-6.26987 0,-0.25646 1.13682,-2.26713 2.52626,-4.46814 1.38944,-2.20102 3.21627,-6.69526 4.05963,-9.9872 3.58666,-14.00013 7.84159,-21.87947 20.77485,-38.47121 9.50317,-12.19136 10.77116,-13.62435 21.26126,-24.02784 5.0171,-4.97568 12.5073,-13.52992 16.64488,-19.00942 10.57482,-14.00452 15.75248,-17.87966 22.48312,-16.82714 9.35817,1.46341 -14.66443,-26.96909 -37.52177,-44.40975 l -3.27176,-2.49643 -1.97824,1.79028 c -2.56089,2.31757 -2.7063,0.3404 -0.39905,-5.42599 3.44954,-8.62125 -0.53867,-8.77526 -9.81637,-0.37906 -3.04969,2.75993 -2.96673,0.74723 0.17874,-4.3364 1.66012,-2.68304 3.9205,-8.47825 5.02307,-12.87825 2.50072,-9.97955 2.49922,-10.24899 -0.0408,-7.36078 -1.1419,1.29843 -1.77689,1.68578 -1.41109,0.86078 0.80671,-1.81939 -9.93768,9.13272 -13.70571,13.97069 l -2.693,3.45766 0.80818,-3.46417 c 1.26506,-5.4226 7.10259,-24.13793 8.5664,-27.46418 6.35593,-14.44274 11.93994,-48.27443 9.57305,-58 -0.66926,-2.75 -1.85631,-9.19762 -2.63788,-14.32804 -2.92594,-19.20663 -7.0497,-31.59172 -17.20478,-51.67196 -1.56377,-3.09213 -14.12697,-20.5 -14.79478,-20.5 -0.47552,0 1.44452,5.09288 2.43818,6.46723 1.36723,1.89103 3.16559,6.66809 2.31156,6.14027 -0.46268,-0.28595 -2.1536,-2.4432 -3.75759,-4.79388 -4.70041,-6.88855 -5.47809,-7.80695 -14.85057,-17.53779 -12.0619,-12.5231 -12.21115,-11.74006 -0.94809,4.97417 l 9.60251,14.25 -5.19865,-5 C 465.40368,390.32608 451.6373,366.89533 447.93857,352 c -2.61674,-10.53802 -3.38435,-11.42588 -2.59369,-3 0.36141,3.85151 0.26646,5.68508 -0.23303,4.5 -0.80242,-1.90379 -2.22414,-13.1419 -3.73201,-29.5 -0.38024,-4.125 -0.75092,-16.94066 -0.82372,-28.47925 l -0.13238,-20.97924 -4.29612,-3.02076 c -6.99293,-4.91697 -30.78656,-4.33146 -41.17948,1.01334 -6.87344,3.53482 -18.87511,20.37644 -22.77955,31.96591 l -1.01069,3 -0.18026,-3 c -0.30774,-5.12151 0.15465,-9.80132 1.48209,-15 1.53729,-6.0205 1.0465,-7.89078 -1.84763,-7.04091 -1.16165,0.34112 -2.96122,0.81341 -3.99905,1.04952 -1.03783,0.23612 -2.61283,1.02518 -3.5,1.75348 -0.88717,0.72829 -2.96304,1.95633 -4.61304,2.72898 -33.62892,15.74736 -66.94811,51.65888 -81.19195,87.50893 -3.18758,8.02275 -7.09848,20.51808 -7.82473,25 -0.44561,2.75 -0.98648,5.675 -1.20194,6.5 -2.64721,10.13627 -2.51322,33.30598 0.25641,44.33756 1.68972,6.73025 6.37737,20.56617 7.5087,22.16244 0.3898,0.55 1.04861,2.125 1.46402,3.5 l 0.75529,2.5 -2.06989,-1.84796 c -6.59812,-5.8907 -3.05489,3.8682 4.89473,13.48122 2.10734,2.54829 3.96154,5.23757 4.12045,5.97619 0.1589,0.73861 0.85141,1.94829 1.53891,2.68817 0.6875,0.73988 1.25,1.80762 1.25,2.37275 0,1.39119 -11.51208,-8.66411 -14.69114,-12.83208 -3.51937,-4.61413 -4.55309,-4.22827 -3.78195,1.41171 0.66928,4.895 0.8473,5.62237 4.45344,18.19652 3.94422,13.75302 13.93649,30.63857 23.97583,40.51589 2.82814,2.78249 5.04382,5.86957 5.04382,7.02749 0,3.48759 2.92701,6.77607 5.36697,6.02975 1.17317,-0.35883 4.83303,-0.64356 8.13303,-0.63272 3.3,0.0108 5.4375,-0.22179 4.75,-0.51695 C 316.94607,559.52222 327.42735,555 336.01388,555 c 5.63476,0 12.73802,1.91107 13.38673,3.60159 0.64387,1.67791 0.50481,1.69315 -3.065,0.33591 -3.24098,-1.23222 -13.25796,-1.29445 -18.33561,-0.11391 l -3.5,0.81374 4.21016,2.18133 c 2.31559,1.19974 4.87095,2.18134 5.67857,2.18134 0.80763,0 2.06306,0.5721 2.78984,1.27132 0.72679,0.69923 2.61962,2.27423 4.20629,3.5 3.53822,2.73343 3.39858,2.73563 -6.71825,0.10579 -4.49163,-1.16759 -10.86661,-2.27267 -14.16661,-2.45575 -6.16347,-0.34192 -10.50387,-0.80528 -18.69444,-1.99569 -7.59863,-1.10438 -7.93296,-0.69145 -5.87877,7.26094 2.88682,11.17575 6.9025,17.22428 15.04572,22.66227 4.31155,2.87922 -0.54152,1.988 -5.72905,-1.05209 -2.53697,-1.48676 -4.34077,-2.26326 -4.00845,-1.72555 1.20515,1.94997 -22.58795,25.11834 -34.23501,33.3361 -40.78733,28.77813 -58.61578,33.73852 -85,23.64943 -1.1164,-0.4269 -1.52723,0.19576 -1.60648,2.43482 -0.0586,1.65463 0.32817,3.00841 0.85941,3.00841 0.53799,0 0.74529,1.66128 0.46794,3.75 -1.00308,7.55427 6.79732,34.04668 13.86652,47.09472 3.86487,7.13361 4.8632,10.15528 3.35519,10.15528 -0.51842,0 -0.96087,-0.3375 -0.98322,-0.75 -0.0224,-0.4125 -1.34843,-2.27935 -2.94684,-4.14855 l -2.9062,-3.39854 1.32829,4.39854 c 0.73056,2.4192 2.96995,7.94774 4.97642,12.28563 4.89859,10.59048 4.08419,10.50247 -1.69076,-0.18273 C 194.13286,718.41696 191.12233,713.375 190.03018,712 l -1.98571,-2.5 -0.0114,2.5 c -0.0247,5.40302 8.18783,25.14916 18.08964,43.49476 l 4.31507,7.99475 -2.92507,-2.30086 c -1.60879,-1.26548 -3.91785,-3.51312 -5.13125,-4.99476 -6.81736,-8.32446 -6.31253,-7.8712 -6.34181,-5.69389 -0.0538,4.00036 6.08381,25.09782 9.58509,32.94789 1.97526,4.42866 7.29082,18.85211 11.81235,32.05211 4.52153,13.2 8.9729,25.74246 9.89194,27.87212 0.91904,2.12967 1.67098,4.49217 1.67098,5.25 0,0.75784 0.3375,1.37957 0.75,1.38163 0.4125,0.002 1.57822,2.13956 2.59049,4.75 3.04196,7.84457 6.67305,16.39353 9.66126,22.74625 10.46372,22.24506 12.85889,27.48579 13.53211,29.60872 0.41708,1.3152 1.70508,3.96628 2.86223,5.89128 2.05691,3.42181 2.99838,5.30108 7.76516,15.5 1.28529,2.75 2.57933,5.225 2.87564,5.5 0.29631,0.275 2.53295,4.55 4.97031,9.5 2.43736,4.95 5.26349,10.2375 6.28028,11.75 1.01679,1.5125 1.52332,2.75 1.12563,2.75 -0.3977,0 -0.0485,0.7875 0.77593,1.75 0.82446,0.9625 4.78682,7.35387 8.80524,14.20305 4.01842,6.84918 7.69423,12.92418 8.16845,13.5 26.09013,31.67945 30.75624,77.06145 10.52585,102.37315 -0.76257,0.9541 -0.69824,1.5498 0.22926,2.123 0.84088,0.5197 -1.26811,1.7562 -6.0643,3.5554 C 280.50546,1104.2635 247,1126.7272 247,1133.6221 c 0,2.0796 0.61545,1.8086 8.8688,-3.905 10.17215,-7.042 13.49561,-9.1157 12.79665,-7.9848 -0.31944,0.5169 -5.66235,4.4635 -11.87313,8.7703 -20.27525,14.0597 -21.39128,15.6181 -16.47829,23.0107 1.82271,2.7427 4.99973,8.0331 7.06003,11.7565 2.06031,3.7234 7.83783,12.256 12.83895,18.9614 5.36057,7.1872 9.40431,13.644 9.85152,15.7301 0.621,2.8969 0.54792,3.2024 -0.40298,1.6845 -0.63885,-1.0198 -2.61968,-3.7198 -4.40184,-6 -1.78217,-2.2802 -3.24467,-4.9599 -3.25,-5.9548 -0.005,-0.995 -0.42049,-1.5552 -0.92255,-1.2449 -0.50206,0.3103 -1.85465,-0.6756 -3.00576,-2.1909 -2.72906,-3.5926 10.24677,23.1584 15.64066,32.2448 2.70195,4.5516 5.07218,10.4977 6.77662,17 1.4417,5.5 3.01344,11.35 3.49276,13 0.47933,1.65 3.34533,12.4734 6.3689,24.052 5.14439,19.7001 7.92599,28.5709 9.70436,30.948 0.41147,0.55 1.06548,3.25 1.45337,6 3.61072,25.5993 13.01451,46.6015 28.91872,64.5865 5.51553,6.2371 7.88165,11.7305 6.49476,15.0788 -5.96697,14.4055 3.85451,43.5015 16.97425,50.286 7.69037,3.9768 27.48405,5.7188 34.3442,3.0225 z M 354.65758,1350 c 1.47016,-1.65 2.83946,-3 3.0429,-3 0.67629,0 -1.98153,4.4877 -3.10018,5.2347 -2.47969,1.6557 -2.45215,0.5817 0.0573,-2.2347 z m 7.97271,-5.25 c -1.06757,-3.9836 -0.62872,-5.3712 0.86971,-2.75 0.78602,1.375 1.44508,3.0625 1.46456,3.75 0.0603,2.1283 -1.69777,1.3751 -2.33427,-1 z m -1.55134,-7.3333 c 0.048,-1.165 0.28494,-1.4019 0.60416,-0.6042 0.28887,0.7219 0.25335,1.5844 -0.0789,1.9167 -0.33229,0.3323 -0.56864,-0.2584 -0.52522,-1.3125 z m 3.52804,0 c -0.76618,-1.9966 -0.79911,-6.9437 -0.0412,-6.1857 0.58791,0.5879 1.45829,7.7675 0.94165,7.7675 -0.16142,0 -0.56664,-0.7118 -0.90048,-1.5818 z M 350.07895,732.41667 c 0.048,-1.16495 0.28494,-1.4019 0.60416,-0.60417 0.28887,0.72187 0.25335,1.58438 -0.0789,1.91667 -0.33229,0.33229 -0.56864,-0.25834 -0.52522,-1.3125 z M 201,716 c 0,-0.73333 0.3,-1.03333 0.66667,-0.66667 0.36666,0.36667 0.36666,0.96667 0,1.33334 C 201.3,717.03333 201,716.73333 201,716 Z m 148.46249,-11.75 c -0.31659,-1.5125 -0.95298,-4.44011 -1.41419,-6.50579 -0.46122,-2.06569 -0.48377,-3.97508 -0.0501,-4.24309 0.87713,-0.5421 1.52428,1.6838 2.54359,8.74888 0.72974,5.05797 -0.11252,6.61873 -1.07929,2 z M 357,698 c 0,-0.73333 0.3,-1.03333 0.66667,-0.66667 0.36666,0.36667 0.36666,0.96667 0,1.33334 C 357.3,699.03333 357,698.73333 357,698 Z m 2.3589,-0.77169 c 0.26231,-0.42443 0.12204,-3.68693 -0.31171,-7.25 -0.81037,-6.65675 -0.28683,-9.83852 1.05503,-6.41193 1.18189,3.0181 1.05437,14.43362 -0.16124,14.43362 -0.58246,0 -0.8444,-0.34726 -0.58208,-0.77169 z m -3.27995,-3.81164 c 0.048,-1.16495 0.28494,-1.4019 0.60416,-0.60417 0.28887,0.72187 0.25335,1.58438 -0.0789,1.91667 -0.33229,0.33229 -0.56864,-0.25834 -0.52522,-1.3125 z m -1.34774,-4.33651 c -0.43497,-1.66335 -0.30483,-2.05378 0.43724,-1.31171 0.5811,0.5811 0.85979,1.64682 0.61931,2.36826 -0.24965,0.74895 -0.70294,0.29565 -1.05655,-1.05655 z M 363.15445,686.5 c -0.1,-1.65 -0.43158,-4.125 -0.73691,-5.5 -0.47745,-2.15012 -0.39726,-2.25267 0.57299,-0.73276 0.62048,0.97198 0.95209,3.44698 0.73691,5.5 -0.33777,3.22264 -0.41607,3.32278 -0.57299,0.73276 z M 351,687 c 0,-0.73333 0.3,-1.03333 0.66667,-0.66667 0.36666,0.36667 0.36666,0.96667 0,1.33334 C 351.3,688.03333 351,687.73333 351,687 Z m 5.73121,-7.91984 c -0.43497,-1.66335 -0.30483,-2.05378 0.43724,-1.31171 0.5811,0.5811 0.85979,1.64682 0.61931,2.36826 -0.24965,0.74895 -0.70294,0.29565 -1.05655,-1.05655 z m 151.08817,-10.19179 c -0.6938,-0.42879 -0.92805,-1.11303 -0.52055,-1.52053 0.9687,-0.96871 -10.68798,-6.71216 -16.9289,-8.34116 -8.6277,-2.25201 -18.15272,-3.30166 -29.61993,-3.26411 -5.40569,0.0177 -8.75,-0.36857 -8.75,-1.01065 0,-3.25044 37.90951,1.40416 47.62308,5.84724 2.88682,1.32046 5.62176,2.40084 6.07765,2.40084 0.45589,0 2.59512,0.94665 4.75385,2.10366 3.17192,1.70004 4.89583,1.97693 8.9852,1.44314 4.69641,-0.61302 4.94312,-0.54188 3.43147,0.98938 -1.75903,1.78186 -12.75789,2.76995 -15.05187,1.35219 z M 491.5,662.27593 c -7.65661,-2.26 -13.24686,-2.96636 -30.5,-3.85387 -11.15749,-0.57394 -15.17274,-1.58265 -13.39125,-3.36414 0.275,-0.275 0.81303,-0.008 1.19562,0.59342 0.40971,0.644 4.60038,1.16491 10.19563,1.26735 15.12254,0.27687 36.01842,3.68407 37.52288,6.11834 0.32734,0.52963 0.4561,0.90712 0.28614,0.83886 -0.16996,-0.0683 -2.55902,-0.78824 -5.30902,-1.59996 z m 34.5,-11.4995 c 0,-0.42704 2.5875,-0.72423 5.75,-0.66043 6.10312,0.12313 5.50505,0.56471 -1.5,1.10752 -2.3375,0.18113 -4.25,-0.0201 -4.25,-0.44709 z M 531.5,647 c -0.38401,-0.62134 1.50929,-1 5,-1 3.49071,0 5.38401,0.37866 5,1 -0.33992,0.55 -2.58992,1 -5,1 -2.41008,0 -4.66008,-0.45 -5,-1 z M 482,645.82874 c 0,-0.64419 -0.74724,-1.99695 -1.66054,-3.00613 -0.91329,-1.00918 -1.35864,-2.13676 -0.98966,-2.50574 0.90337,-0.90338 3.57861,2.7439 3.6184,4.93313 0.0175,0.9625 -0.1932,1.75 -0.4682,1.75 -0.275,0 -0.5,-0.52707 -0.5,-1.17126 z M 532.5,643 c -2.19804,-0.55931 -0.91249,-0.795 4.80902,-0.88169 4.97937,-0.0754 7.58507,0.24405 7.19098,0.88169 -0.70368,1.13857 -7.52549,1.13857 -12,0 z m -62,-9.08722 c -3.85,-2.71592 -9.7,-6.3156 -13,-7.99928 -3.3,-1.68369 -6.675,-3.46091 -7.5,-3.94939 C 442.9552,617.7929 414.93224,608 410.0409,608 408.91841,608 408,607.58991 408,607.08869 c 0,-1.62077 16.0746,2.61153 29,7.63545 11.95231,4.6457 29.2052,13.88071 36.5,19.53748 8.19047,6.35132 6.16388,6.11567 -3,-0.34884 z m 21.5,3.27835 c 0,-0.44488 0.66069,-1.68238 1.4682,-2.75 1.49888,-1.9817 2.01804,-0.87182 0.92481,1.97708 C 493.76603,638.0521 492,638.62251 492,637.19113 Z m -4.87244,-5.91156 c 3.51917,-4.41147 8.55975,-9.49882 10.37244,-10.4687 2.03267,-1.08757 -0.0394,1.42511 -7.28333,8.83195 -3.44766,3.5252 -5.43603,4.57873 -3.08911,1.63675 z m -4.56327,-1.5727 c 0.37553,-0.98622 0.93469,-1.54122 1.24258,-1.23333 0.30789,0.30789 6.4e-4,1.11479 -0.68278,1.79313 -0.98762,0.98026 -1.10248,0.8654 -0.5598,-0.5598 z m -13.15978,-1.86138 c -0.44208,-0.7153 -0.27432,-0.88306 0.44098,-0.44098 1.15275,0.71244 1.54767,1.59549 0.71353,1.59549 -0.24254,0 -0.76207,-0.51953 -1.15451,-1.15451 z M 485.03063,626.5 c 0,-0.55 0.43621,-1.675 0.96937,-2.5 0.53316,-0.825 0.96937,-1.05 0.96937,-0.5 0,0.55 -0.43621,1.675 -0.96937,2.5 -0.53316,0.825 -0.96937,1.05 -0.96937,0.5 z M 460.5,621.93792 c -6.02764,-3.92274 -27.29088,-14.76267 -30.35825,-15.47653 -0.90296,-0.21014 -2.76675,-0.66846 -4.14175,-1.01849 -1.85585,-0.47243 -1.46937,0.0246 1.5,1.92914 6.75194,4.3306 3.32848,2.9644 -13.17341,-5.25708 -17.56085,-8.74908 -30.76143,-15.03602 -36.82659,-17.53912 -7.94544,-3.2791 -15.47959,-6.92958 -15.09519,-7.31399 0.58331,-0.5833 14.89376,5.51264 34.09519,14.52383 9.35,4.38793 21.5,9.43411 27,11.21374 15.23309,4.92893 44.5,19.78497 44.5,22.58842 0,0.93426 -1.80798,0.0544 -7.5,-3.64992 z m 89.2766,1.25492 c -1.8048,-1.78454 -2.44192,-3.1429 -1.88889,-4.02713 0.93801,-1.49977 5.11229,2.9659 5.11229,5.46915 0,1.74655 0.002,1.74765 -3.2234,-1.44202 z M 492,615 c 0.5887,-1.1 1.29537,-2 1.57037,-2 0.275,0 0.0183,0.9 -0.57037,2 -0.5887,1.1 -1.29537,2 -1.57037,2 -0.275,0 -0.0183,-0.9 0.57037,-2 z m 19.8125,1.31689 c 0.72187,-0.28887 1.58438,-0.25335 1.91667,0.0789 0.33229,0.33229 -0.25834,0.56864 -1.3125,0.52522 -1.16495,-0.048 -1.4019,-0.28494 -0.60417,-0.60416 z M 495,611 c 0,-0.73333 0.3,-1.03333 0.66667,-0.66667 0.36666,0.36667 0.36666,0.96667 0,1.33334 C 495.3,612.03333 495,611.73333 495,611 Z m -22,-3 c 0,-0.73333 0.3,-1.03333 0.66667,-0.66667 0.36666,0.36667 0.36666,0.96667 0,1.33334 C 473.3,609.03333 473,608.73333 473,608 Z m 1.07895,-5.58333 c 0.048,-1.16495 0.28494,-1.4019 0.60416,-0.60417 0.28887,0.72187 0.25335,1.58438 -0.0789,1.91667 -0.33229,0.33229 -0.56864,-0.25834 -0.52522,-1.3125 z M 475,599.30609 c 0,-0.56498 0.72841,-7.27748 1.6187,-14.91666 1.18817,-10.19524 1.50583,-19.60782 1.19436,-35.38943 -0.25359,-12.84848 -0.10296,-19.28682 0.37432,-16 1.94938,13.42452 -0.0156,64.1616 -2.58444,66.7304 C 475.27132,600.06201 475,599.87108 475,599.30609 Z m -11.54539,-25.11398 c -0.031,-15.47933 0.19425,-20.46713 0.70854,-15.69211 1.08328,10.05795 1.22662,36.51165 0.20333,37.52563 -0.4884,0.48396 -0.88629,-9.04287 -0.91187,-21.83352 z m -163.0501,-0.34662 c -0.44208,-0.7153 -0.27432,-0.88306 0.44098,-0.44098 0.63498,0.39244 1.15451,0.91197 1.15451,1.15451 0,0.83414 -0.88305,0.43922 -1.59549,-0.71353 z m 54.49553,-13.99939 c -22.84896,-16.37788 -37.84687,-32.89829 -42.36068,-46.66088 -2.49293,-7.60093 -1.37147,-7.3587 1.5233,0.32902 1.34054,3.56009 2.72025,6.47579 3.06602,6.47933 0.34577,0.004 1.20078,1.38759 1.9,3.07568 1.46753,3.54293 10.18409,10.39932 30.31057,23.84212 15.97696,10.67126 17.71094,13.40379 2.46364,3.88238 -14.1113,-8.81202 -13.20206,-8.32434 -12.17934,-6.53257 0.48205,0.84453 4.25145,4.12394 8.37645,7.28756 13.66634,10.48126 19.15533,17.08182 6.90004,8.29736 z m 106.43018,-15.84299 c -0.64337,-4.12329 -1.02018,-7.64648 -0.83736,-7.82931 0.61747,-0.61747 2.64997,10.79932 2.32721,13.07222 -0.17604,1.23969 -0.84647,-1.11962 -1.48985,-5.24291 z M 329.82305,522.77437 c -8.15747,-9.64366 -17.50646,-22.61982 -24.79387,-34.41325 -7.43947,-12.03952 -6.1044,-11.11761 2.61729,1.80734 8.2297,12.19585 13.55748,19.43396 22.16377,30.1108 6.46471,8.02004 6.47557,10.1353 0.0128,2.49511 z M 476.15789,525 c 0,-1.375 0.22698,-1.9375 0.50439,-1.25 0.27741,0.6875 0.27741,1.8125 0,2.5 -0.27741,0.6875 -0.50439,0.125 -0.50439,-1.25 z M 328.7924,503.25 C 324.16769,498.32397 305,467.98642 305,465.59272 c 0,-1.36104 1.88281,0.46546 3.27511,3.17716 4.57636,8.91307 8.06576,14.35744 22.59686,35.25687 1.95951,2.81828 0.93698,2.43635 -2.07957,-0.77675 z m -3.98192,-28.52868 c -0.86911,-1.77173 -4.33202,-8.74274 -7.69534,-15.49114 -6.04827,-12.13564 -7.81073,-16.54277 -4.29112,-10.73018 4.73763,7.82413 14.60454,28.40477 13.93771,29.0716 -0.20407,0.20407 -1.08213,-1.07855 -1.95125,-2.85028 z m -21.18694,-12.25998 c -0.96498,-2.51469 -0.68031,-3.16355 0.49853,-1.13634 0.58369,1.00375 0.8506,2.03566 0.59313,2.29313 -0.25747,0.25747 -0.74872,-0.26309 -1.09166,-1.15679 z M 308.14426,441.25 c -1.0912,-2.55004 -1.06651,-2.60886 0.33949,-0.80887 0.83394,1.06762 1.51625,2.30512 1.51625,2.75 0,1.51991 -0.67833,0.81036 -1.85574,-1.94113 z m 19.47928,1.21134 c -0.96498,-2.51469 -0.68031,-3.16355 0.49853,-1.13634 0.58369,1.00375 0.8506,2.03566 0.59313,2.29313 -0.25747,0.25747 -0.74872,-0.26309 -1.09166,-1.15679 z m -3.93123,-9.15365 c -0.94192,-2.54142 -1.54798,-4.78535 -1.34682,-4.98652 0.20117,-0.20117 1.15339,1.69661 2.11605,4.21729 0.96265,2.52068 1.56872,4.76461 1.34681,4.98652 -0.22191,0.22191 -1.17413,-1.67587 -2.11604,-4.21729 z M 494.85716,413.75 c -1.617,-2.30592 -1.76616,-2.83816 -0.51349,-1.83224 1.78215,1.4311 4.12389,5.08224 3.25961,5.08224 -0.2569,0 -1.49265,-1.4625 -2.74612,-3.25 z m -165.23362,-4.28866 c -0.96498,-2.51469 -0.68031,-3.16355 0.49853,-1.13634 0.58369,1.00375 0.8506,2.03566 0.59313,2.29313 -0.25747,0.25747 -0.74872,-0.26309 -1.09166,-1.15679 z m -4.38825,-10.69663 c -1.22361,-3.35972 -2.06247,-6.27086 -1.86413,-6.46921 0.19835,-0.19834 1.38133,2.36868 2.62884,5.7045 1.24751,3.33582 2.08637,6.24696 1.86413,6.4692 -0.22224,0.22225 -1.40522,-2.34478 -2.62884,-5.70449 z m 29.3717,-9.3465 c -0.93873,-2.44628 -0.7352,-2.7695 0.89301,-1.41821 1.66238,1.37965 1.99022,3 0.60699,3 -0.49116,0 -1.16616,-0.7118 -1.5,-1.58179 z m 13.95046,-12.76095 C 366.60085,373.59861 365,370.2941 365,369.31391 c 0,-0.98019 1.80926,1.31393 4.02057,5.09805 4.86706,8.32878 4.51628,10.02936 -0.46312,2.2453 z m -9.18316,2.87573 c -0.30962,-0.80686 -0.36997,-2.04436 -0.1341,-2.75 0.23587,-0.70564 0.66592,-0.0455 0.95566,1.46701 0.56574,2.95322 0.099,3.68204 -0.82156,1.28299 z M 451,380 c 0,-0.73333 0.3,-1.03333 0.66667,-0.66667 0.36666,0.36667 0.36666,0.96667 0,1.33334 C 451.3,381.03333 451,380.73333 451,380 Z m -59.24871,-6.75611 c -5.56959,-12.33147 -8.74628,-21.55383 -8.63529,-25.06945 0.0638,-2.02094 0.30344,-2.77444 0.53252,-1.67444 1.25648,6.03316 2.80837,11.28844 3.98659,13.5 2.01592,3.78395 7.4962,18.20202 7.07765,18.62057 -0.20196,0.20196 -1.53462,-2.21754 -2.96147,-5.37668 z M 422,378 c 0,-0.73333 0.3,-1.03333 0.66667,-0.66667 0.36666,0.36667 0.36666,0.96667 0,1.33334 C 422.3,379.03333 422,378.73333 422,378 Z m 27.45162,-2.632 c -0.35515,-1.5774 -1.04954,-4.443 -1.54309,-6.368 -0.49356,-1.925 -0.893,-4.4 -0.88764,-5.5 0.0179,-3.67179 1.74461,0.45743 3.02176,7.22605 1.18032,6.25544 0.67167,10.25033 -0.59103,4.64195 z m -21.33589,-7.55484 c -3.5489,-10.69183 -8.16105,-32.37185 -8.02034,-37.70068 0.0692,-2.62149 0.49392,-1.55504 1.54816,3.88752 2.7684,14.29197 6.53113,30.52778 8.43966,36.41629 1.05465,3.25396 1.73895,6.09489 1.52067,6.31316 -0.21828,0.21828 -1.78795,-3.79405 -3.48815,-8.91629 z M 375.55786,370.75 c -1.01048,-2.8875 -2.22437,-5.6775 -2.69755,-6.2 -0.47317,-0.5225 -0.83611,-2.5475 -0.80653,-4.5 l 0.0538,-3.55 1.82443,5.5 c 1.00344,3.025 2.55424,7.17305 3.44623,9.21788 1.84512,4.22985 1.93974,4.78212 0.81933,4.78212 -0.44135,0 -1.62921,-2.3625 -2.63968,-5.25 z m 45.06568,3.71134 c -0.34295,-0.8937 -0.59502,-2.15061 -0.56015,-2.79313 0.0349,-0.64251 0.49453,-0.0904 1.02148,1.22697 0.52695,1.31735 0.77902,2.57426 0.56015,2.79313 -0.21887,0.21887 -0.67854,-0.33327 -1.02148,-1.22697 z M 438.32313,364.75 c -3.16917,-10.67077 -3.75335,-15.48419 -0.92623,-7.63179 2.21775,6.15984 4.22752,14.88179 3.42917,14.88179 -0.19234,0 -1.31867,-3.2625 -2.50294,-7.25 z m -36.55937,0.13184 C 397.83191,355.40707 396.24934,349 397.84087,349 c 0.46248,0 1.4001,2.5875 2.08361,5.75 0.6835,3.1625 2.14369,7.65927 3.24485,9.99282 1.10117,2.33354 1.83127,4.75537 1.62245,5.38184 -0.20882,0.62646 -1.57143,-1.7328 -3.02802,-5.24282 z m 14.80767,-1.45327 c -0.36782,-1.46551 -0.47591,-2.85742 -0.24019,-3.09314 0.23571,-0.23571 0.72951,0.77049 1.09733,2.236 0.36782,1.46551 0.47591,2.85742 0.24019,3.09314 -0.23571,0.23571 -0.72951,-0.77049 -1.09733,-2.236 z M 446.19495,358.5 c 0.0204,-1.65 0.2445,-2.20394 0.49804,-1.23097 0.25354,0.97297 0.23687,2.32297 -0.0371,3 -0.27393,0.67703 -0.48137,-0.11903 -0.46099,-1.76903 z m -32.10404,-3.59091 c -0.67624,-2.25709 -1.04544,-4.28789 -0.82044,-4.51289 0.225,-0.225 0.96238,1.43762 1.63862,3.69471 0.67624,2.25709 1.04544,4.28789 0.82044,4.51289 -0.225,0.225 -0.96238,-1.43762 -1.63862,-3.69471 z m 18.39845,-12.08861 c -3.27039,-14.05798 -2.99078,-37.82474 0.32787,-27.86878 0.28957,0.86871 -1.5e-4,1.05328 -0.83928,0.53467 -1.50527,-0.93031 -0.85368,8.87782 1.61992,24.38396 1.81527,11.37925 1.22059,12.96191 -1.10851,2.95015 z M 397.25218,344.5 c 0.0111,-2.2 0.21589,-2.98225 0.45508,-1.73834 0.23919,1.24391 0.23011,3.04391 -0.0202,4 -0.25029,0.95609 -0.446,-0.0617 -0.4349,-2.26166 z m 12.90571,-3.5 c 0,-1.375 0.22698,-1.9375 0.50439,-1.25 0.27741,0.6875 0.27741,1.8125 0,2.5 -0.27741,0.6875 -0.50439,0.125 -0.50439,-1.25 z m -1,-5 c 0,-1.375 0.22698,-1.9375 0.50439,-1.25 0.27741,0.6875 0.27741,1.8125 0,2.5 -0.27741,0.6875 -0.50439,0.125 -0.50439,-1.25 z m 10.17544,-13.66667 c 0.36667,-0.36666 0.96667,-0.36666 1.33334,0 C 421.03333,322.7 420.73333,323 420,323 c -0.73333,0 -1.03333,-0.3 -0.66667,-0.66667 z M 526.34591,1432.8943 c 2.57884,-1.7082 5.24349,-3.8938 5.92144,-4.857 0.67796,-0.9632 3.13744,-3.9914 5.46551,-6.7295 2.32807,-2.738 5.28071,-6.5149 6.56142,-8.393 16.88326,-24.7591 16.27485,-23.6284 14.04192,-26.0958 -5.71006,-6.3095 -19.8991,-14.2197 -39.08972,-21.7919 -7.28944,-2.8762 -13.50349,-5.6339 -13.80902,-6.1283 -4.45611,-7.2101 -8.46942,24.4885 -4.96301,39.1997 7.14927,29.9947 15.71897,41.5205 25.87146,34.7958 z m -70.91876,-53.2661 c 1.77994,-2.8837 5.38608,-23.0587 6.10017,-34.1282 0.31932,-4.95 0.78469,-9.9918 1.03415,-11.204 1.96347,-9.5413 -19.37347,-9.5695 -39.81147,-0.053 -8.40399,3.9133 -8.36354,3.5685 -2.06815,17.625 5.10326,11.3946 20.31032,29.5647 25.3518,30.2914 4.3888,0.6327 8.04931,-0.3538 9.3935,-2.5315 z M 433,1328.0519 c 12.16182,-3.9661 23.99653,-4.4554 27.32226,-1.1296 1.64643,1.6464 2.67774,1.2912 2.67774,-0.9223 0,-1.1 0.3375,-2.0106 0.75,-2.0236 2.96071,-0.093 9.77866,-13.9608 13.50879,-27.4764 2.85879,-10.3584 3.10354,-32.9005 0.48315,-44.5 -6.61855,-29.2978 -6.08286,-75.5066 1.15052,-99.2435 1.55141,-5.0911 3.1129,-10.4703 3.46998,-11.9538 l 0.64923,-2.6974 -5.75583,2.6746 c -4.86454,2.2604 -6.97697,2.6487 -13.64169,2.5074 l -7.88585,-0.1671 -3.61415,-3.8799 c -4.95878,-5.3234 -10.15802,-16.1651 -11.5048,-23.9903 -0.73953,-4.2969 -0.30212,-4.1078 2.81947,1.2188 12.37045,21.1085 39.31306,25.2112 53.47816,8.1433 0.73585,-0.8867 1.87038,-1.6121 2.52119,-1.6121 1.49055,0 5.6488,-3.0845 12.88767,-9.5597 l 5.65641,-5.0597 -8.78313,-14.9403 c -18.52148,-31.5054 -40.1401,-60.8576 -59.80075,-81.193 -7.27801,-7.5279 -10.06528,-20.96204 -6.30679,-30.39781 2.11106,-5.29986 2.19096,-9.29918 0.4457,-22.30774 -1.29257,-9.63432 -1.79021,-13.2055 -2.02637,-14.54175 -0.14581,-0.825 -0.56694,-3.3191 -0.93584,-5.54245 -0.58261,-3.51134 -3.86629,-7.48967 -5.13484,-6.22111 -0.20626,0.20626 -1.06777,9.12494 -1.91447,19.81929 -0.84669,10.69435 -1.97509,23.76852 -2.50754,29.05372 l -0.9681,9.60945 2.90659,5.39055 c 20.79354,38.56355 18.32688,74.63725 -5.94123,86.88775 -3.16459,1.5975 -6.0213,3.6016 -6.34825,4.4537 -0.32695,0.852 -1.28358,1.5491 -2.12585,1.5491 -0.84226,0 -1.53138,0.4766 -1.53138,1.059 0,0.5825 -0.38114,0.8235 -0.84698,0.5356 -0.46583,-0.2879 -2.0937,0.7778 -3.61747,2.3683 -1.52378,1.5905 -4.00052,3.4013 -5.50387,4.024 l -2.73337,1.1322 2.31042,8.8954 c 1.27074,4.8924 2.62542,11.2781 3.01041,14.1904 l 0.69998,5.2951 -1.85152,-1.5 c -1.01833,-0.825 -1.56627,-1.0228 -1.21764,-0.4395 0.34863,0.5833 0.74475,3.4904 0.88027,6.4603 0.13551,2.9699 1.25832,9.2958 2.49514,14.0577 2.08231,8.0171 3.99791,20.8594 6.25314,41.9215 1.20978,11.2983 1.10842,47.9583 -0.16739,60.5461 l -1.01821,10.0461 3.75152,15.6104 c 2.71695,11.3055 3.63605,17.084 3.33284,20.9539 -0.43088,5.4992 -2.74922,14.9567 -3.88379,15.8435 -1.44328,1.1281 -5.00653,18.5838 -4.42563,21.6803 l 0.60968,3.2499 5.71124,-2.8793 c 3.14117,-1.5836 8.63623,-3.8332 12.21123,-4.999 z m 41.11831,-46.1352 c 0.0651,-2.4292 0.45775,-5.7667 0.87262,-7.4167 0.48651,-1.935 0.63207,-0.5546 0.41001,3.8883 -0.37902,7.5835 -1.47178,10.5896 -1.28263,3.5284 z m -12.91464,0.1288 c 1.37978,-2.2094 2.35126,-1.934 1.45125,0.4114 -0.32568,0.8487 -1.06009,1.5431 -1.63201,1.5431 -0.65816,0 -0.5918,-0.7174 0.18076,-1.9545 z m 4.99128,-2.5455 c 0.0204,-1.65 0.2445,-2.2039 0.49804,-1.231 0.25354,0.973 0.23687,2.323 -0.0371,3 -0.27393,0.6771 -0.48137,-0.119 -0.46099,-1.769 z M 260.66667,1186.3333 C 260.3,1185.9667 260,1186.2667 260,1187 c 0,0.7333 0.3,1.0333 0.66667,0.6667 0.36666,-0.3667 0.36666,-0.9667 0,-1.3334 z m 354.80276,-26.3646 c 0.31541,-3.5578 0.84042,-8.7187 1.16667,-11.4687 0.32626,-2.75 0.74606,-6.575 0.93289,-8.5 0.18683,-1.925 1.05054,-9.575 1.91935,-17 0.86881,-7.425 1.822,-20.7 2.11819,-29.5 0.55004,-16.3417 1.37081,-20.5174 6.67661,-33.9675 4.12108,-10.4468 0.7349,-60.48134 -5.59174,-82.62412 L 619.43179,965.5 l -6.9659,-0.68169 c -24.12564,-2.36097 -22.01297,-3.32356 -23.48205,10.69917 -2.97967,28.44162 -18.06773,71.13892 -23.87111,67.55222 -1.0245,-0.6332 -0.89596,-1.6024 0.62122,-4.684 8.03811,-16.3268 14.76932,-41.57662 15.83132,-59.3857 0.27879,-4.675 0.70091,-9.72005 0.93805,-11.21123 0.58978,-3.70859 -0.69532,-4.21812 -9.97647,-3.95555 -11.99121,0.33924 -23.49457,8.77544 -23.52177,17.25011 -0.003,0.87084 -0.3181,1.89636 -0.70069,2.27895 -0.68227,0.68226 -1.05804,2.09921 -1.63892,6.18002 -0.15989,1.12327 -0.61636,2.56922 -1.01438,3.21322 -1.31082,2.12096 3.36448,18.26128 8.28308,28.59528 2.65687,5.582 9.85981,22.6804 16.00653,37.9964 6.14672,15.3159 17.62958,43.0462 25.51747,61.6228 7.88788,18.5765 15.35088,36.5436 16.58444,39.9267 2.67057,7.3243 2.69582,7.3175 3.42682,-0.928 z M 470,1138.4242 l 4.5,-2.3311 -4.80718,-0.047 c -10.75997,-0.1043 -14.71024,-2.1778 -22.94999,-12.0466 l -3.75718,-4.5 2.47356,5.7984 c 6.8465,16.0493 12.77553,19.2205 24.54079,13.1258 z m -125.16052,-4.9713 c 1.54377,-3.3881 1.47374,-3.6909 -0.59741,-2.5825 -0.96687,0.5175 -4.1553,0.861 -7.0854,0.7634 l -5.32747,-0.1775 2.64116,2.2719 c 3.74176,3.2185 8.83891,3.0832 10.36912,-0.2753 z M 533.80687,999.47354 c -0.30789,-0.30789 -0.86705,0.24711 -1.24258,1.23336 -0.54268,1.4252 -0.42782,1.54 0.5598,0.5598 0.68342,-0.6784 0.99067,-1.48527 0.68278,-1.79316 z m -87.09961,-5.71188 c -0.23919,-1.24391 -0.44398,-0.46166 -0.45508,1.73834 -0.0111,2.2 0.18461,3.21775 0.4349,2.26166 0.25029,-0.95609 0.25937,-2.75609 0.0202,-4 z M 539,993.6422 c 0,-1.27054 -0.4619,-0.70323 -1.91971,2.3578 -1.12265,2.35727 -1.10183,2.38918 0.36454,0.55887 C 538.30018,995.49125 539,994.17875 539,993.6422 Z M 586.43036,970.25 C 586.895,965.37317 586.77395,963 586.06055,963 585.40537,963 585,965.93041 585,970.66667 c 0,9.36883 0.51227,9.21961 1.43036,-0.41667 z m 84.93214,-31.28982 c 0.47437,-0.43185 0.67929,-1.33482 0.45536,-2.00661 -0.29081,-0.87242 -0.88422,-0.74435 -2.07679,0.44822 -0.9183,0.9183 -1.83365,1.54107 -2.0341,1.38392 -0.5152,-0.40389 -13.50916,8.08522 -14.27672,9.32715 -0.61822,1.00031 16.22011,-7.59404 17.93225,-9.15268 z M 544,942.61501 c 0,-0.21174 -1.2375,-1.18141 -2.75,-2.1548 l -2.75,-1.76981 1.90499,2.1548 C 542.09074,942.75202 544,943.69194 544,942.61501 Z M 673.5,940 c 0.33992,-0.55 0.39303,-1 0.11803,-1 -0.275,0 -0.77811,0.45 -1.11803,1 -0.33992,0.55 -0.39303,1 -0.11803,1 0.275,0 0.77811,-0.45 1.11803,-1 z M 545,937.55902 c 0,-0.24254 -0.45,-0.7191 -1,-1.05902 -0.55,-0.33992 -1,-0.14148 -1,0.44098 0,0.58246 0.45,1.05902 1,1.05902 0.55,0 1,-0.19844 1,-0.44098 z m 139.15785,-3.8664 c 2.56183,-1.75594 4.51664,-3.33781 4.34403,-3.51526 -0.17261,-0.17746 -2.80216,1.32951 -5.84345,3.34882 -3.24876,2.15705 -6.0324,3.36072 -6.74854,2.91813 -0.80244,-0.49593 -0.96072,-0.33557 -0.46325,0.46936 0.94111,1.52273 2.78501,0.84093 8.71121,-3.22105 z m -23.08216,-1.35098 2.42431,-2.65836 -3.25,2.34642 c -3.38058,2.44069 -3.81284,2.9703 -2.42431,2.9703 0.45412,0 1.91662,-1.19626 3.25,-2.65836 z M 692.12756,928.25 c 1.24387,-1.58606 1.2085,-1.62143 -0.37756,-0.37756 -0.9625,0.75485 -1.75,1.54235 -1.75,1.75 0,0.82304 0.82119,0.29331 2.12756,-1.37244 z M 424.53434,918.0664 c -3.40782,-6.59 -4.59456,-3.31681 -1.28434,3.54237 2.03407,4.21483 2.27975,4.41571 2.56002,2.09315 0.1705,-1.41302 -0.40355,-3.949 -1.27568,-5.63552 z M 185.12409,689.73333 c -0.98762,-0.98026 -1.10248,-0.8654 -0.5598,0.5598 0.37553,0.98622 0.93469,1.54122 1.24258,1.23333 0.30789,-0.30789 6.4e-4,-1.11479 -0.68278,-1.79313 z m -4.45742,-33.4 C 180.3,655.96667 180,656.26667 180,657 c 0,0.73333 0.3,1.03333 0.66667,0.66667 0.36666,-0.36667 0.36666,-0.96667 0,-1.33334 z M 298,592.5 c 1.05275,-1.26848 0.84012,-1.5 -1.37756,-1.5 -2.53514,0 -3.33492,0.95418 -1.95577,2.33333 1.03485,1.03486 1.97871,0.79889 3.33333,-0.83333 z M 444.68933,337.25 c -0.25153,-0.9625 -0.45733,-0.175 -0.45733,1.75 0,1.925 0.2058,2.7125 0.45733,1.75 0.25152,-0.9625 0.25152,-2.5375 0,-3.5 z M 590,624.5 c 0,-0.825 0.17686,-1.5 0.39301,-1.5 0.21616,0 0.65203,0.675 0.96862,1.5 0.31658,0.825 0.13972,1.5 -0.39301,1.5 C 590.43588,626 590,625.325 590,624.5 Z m -3,-0.5 c 0,-0.73333 0.3,-1.03333 0.66667,-0.66667 0.36666,0.36667 0.36666,0.96667 0,1.33334 C 587.3,625.03333 587,624.73333 587,624 Z M 378,273 c 0,-0.73333 0.3,-1.03333 0.66667,-0.66667 0.36666,0.36667 0.36666,0.96667 0,1.33334 C 378.3,274.03333 378,273.73333 378,273 Z"
     id="path1" /><path
     style="fill:#000000;fill-opacity:0.703072"
     d="m 605.38867,1561.9923 c -24.90158,-5.5982 -36.06709,-24.18 -19.66391,-32.725 2.07638,-1.0816 7.37524,-4.0679 11.77524,-6.6361 30.45083,-17.7736 47.46082,-15.0586 55.03331,8.7839 8.65299,27.2446 -9.5251,39.0346 -47.14464,30.5772 z M 361,1444.6286 c -20.80863,-4.5543 -25.87926,-17.503 -12.25,-31.2823 16.60107,-16.7838 23.8726,-20.7535 31.58141,-17.2412 4.42716,2.0172 13.73164,42.0963 10.83297,46.6632 -2.05751,3.2416 -19.0619,4.2903 -30.16438,1.8603 z m 151.90139,-6.717 c -3.07613,-1.1569 -5.74189,-5.4711 -4.28243,-6.9306 0.63807,-0.638 -0.30219,-3.6042 -2.70232,-8.5248 -6.90112,-14.1483 -9.32106,-26.1467 -8.61303,-42.7048 0.93965,-21.9744 2.73703,-25.8581 10.30508,-22.2668 1.91781,0.91 9.42791,4.0392 16.68912,6.9537 21.51453,8.6356 37.70219,19.3053 37.70219,24.8506 0,2.2149 -3.20996,7.4699 -15.38779,25.1912 -8.98227,13.071 -20.07709,23.501 -25.03365,23.5336 -1.14321,0.01 -2.97856,0.2075 -4.07856,0.4444 -1.1,0.2369 -3.16938,-0.01 -4.59861,-0.5465 z M 440.4572,1382.137 c -1.67353,-1.0206 -3.74841,-2.9314 -4.61083,-4.2463 -0.86242,-1.3149 -3.54317,-4.4875 -5.95721,-7.0502 -8.23028,-8.7373 -16.3555,-25.4514 -15.6889,-32.273 0.8164,-8.3548 35.25879,-17.1254 46.40766,-11.8175 l 3.67578,1.75 -0.60536,13.5 c -1.67173,37.2808 -8.51325,49.1061 -23.22114,40.137 z"
     id="path5" /></g></svg>
