<?xml version="1.0" encoding="UTF-8" standalone="no"?>
<!-- Created with Inkscape (http://www.inkscape.org/) -->

<svg
   version="1.1"
   id="svg1"
   width="2400"
   height="3200"
   viewBox="0 0 2400 3200"
   xml:space="preserve"
   xmlns="http://www.w3.org/2000/svg"
   xmlns:svg="http://www.w3.org/2000/svg"><defs
     id="defs1" /><path
     style="display:inline;fill:#000000"
     d="m 1255.9934,3137.6621 c -0.2786,-0.2797 -4.1036,-0.6136 -8.5,-0.7421 -7.429,-0.217 -11.6095,-0.8002 -31.4934,-4.3934 -10.3695,-1.8739 -29.1359,-6.4252 -31.2364,-7.5756 -0.9551,-0.5231 -2.3051,-0.9514 -3,-0.952 -1.948,0 -13.8717,-6.171 -17.8754,-9.249 -1.9673,-1.5125 -4.0595,-2.75 -4.6493,-2.75 -0.5897,0 -1.2222,-0.3375 -1.4056,-0.75 -0.1833,-0.4125 -1.877,-2.0268 -3.7637,-3.5872 -8.7622,-7.2471 -10.0492,-10.043 -10.0599,-21.8538 -0.01,-6.0597 0.4235,-10.9587 0.9903,-11.309 0.55,-0.3399 1,-1.4976 1,-2.5726 0,-1.075 0.4358,-2.7359 0.9685,-3.691 0.5327,-0.955 1.6085,-3.7614 2.3908,-6.2364 1.5437,-4.8839 1.5574,-4.7581 -2.8398,-26 -4.0829,-19.724 -4.3202,-21.0147 -5.515,-30 -0.6217,-4.675 -1.5477,-10.75 -2.0579,-13.5 -0.5101,-2.75 -1.0945,-7.5296 -1.2985,-10.6213 -0.204,-3.0917 -0.6248,-6.0319 -0.935,-6.5339 -0.3102,-0.5019 -0.6791,-4.0473 -0.8198,-7.8787 -0.1407,-3.8314 -0.6904,-7.5419 -1.2215,-8.2457 -0.6314,-0.8365 -0.5642,-2.161 0.1939,-3.8249 0.6378,-1.4 0.8644,-3.0231 0.5036,-3.607 -1.0956,-1.7726 -1.1906,-12.2031 -0.1234,-13.5385 0.6788,-0.8493 0.6,-1.7308 -0.2459,-2.75 -0.85,-1.0242 -0.926,-1.8965 -0.2397,-2.75 0.5528,-0.6875 1.0722,-3.05 1.1542,-5.25 0.1931,-5.1785 0.6114,-8.6297 1.2727,-10.5 0.9801,-2.772 2.6705,-8.4668 3.7845,-12.75 0.608,-2.3375 1.538,-4.25 2.0668,-4.25 0.5288,0 0.9615,-1.5484 0.9615,-3.441 0,-1.8925 0.4003,-3.6884 0.8895,-3.9907 0.4892,-0.3024 1.1642,-2.1289 1.5,-4.059 0.3358,-1.9301 0.8852,-5.0885 1.221,-7.0186 0.3358,-1.9301 1.0108,-3.7566 1.5,-4.059 0.4892,-0.3023 0.8895,-2.5482 0.8895,-4.9907 0,-2.4809 0.4711,-4.441 1.0674,-4.441 0.6055,0 0.7979,-0.8492 0.4446,-1.9622 -0.3425,-1.0793 -0.1068,-2.9265 0.5239,-4.1049 0.6307,-1.1785 1.3095,-3.558 1.5084,-5.2878 0.3894,-3.3877 2.2435,-10.9005 3.4909,-14.1451 0.4228,-1.1 1.2981,-5.375 1.9451,-9.5 0.6469,-4.125 1.8073,-9.975 2.5786,-13 1.4957,-5.8662 6.1777,-25.6284 9.0028,-38 0.9419,-4.125 2.3716,-9.975 3.1771,-13 0.8054,-3.025 2.1275,-8.1945 2.9378,-11.4879 0.8103,-3.2933 1.839,-6.4433 2.2859,-7 1.738,-2.1649 3.7099,-23.5121 2.1719,-23.5121 -0.6239,0 -1.1344,0.3654 -1.1344,0.812 0,0.6645 -14.7094,15.5866 -23.3504,23.688 -2.4824,2.3274 -8.4696,6.5 -9.3267,6.5 -1.2179,0 -4.3229,4.3772 -4.3229,6.094 0,0.9834 -0.4354,2.057 -0.9675,2.3859 -0.5321,0.3289 -2.3454,3.3929 -4.0296,6.809 -1.6842,3.4161 -3.4642,6.8861 -3.9556,7.7111 -5.1663,8.6739 -11.0473,19.0033 -11.0473,19.4035 0,0.2754 -2.025,3.3975 -4.5,6.938 -2.475,3.5405 -4.5,6.7551 -4.5,7.1435 0,0.3885 -1.0125,2.1164 -2.25,3.8399 -1.2375,1.7235 -2.7,3.8833 -3.25,4.7995 -4.8167,8.024 -25.4467,33.0035 -33.5,40.563 -2.475,2.3232 -5.4474,5.1439 -6.6052,6.2683 -1.1579,1.1244 -2.3478,2.0443 -2.6443,2.0443 -0.2964,0 -1.9634,1.3306 -3.7042,2.9568 -1.7409,1.6262 -4.7135,3.5166 -6.6058,4.2009 -1.8923,0.6842 -3.4405,1.5863 -3.4405,2.0046 0,2.2018 -17.8152,4.9258 -23.2285,3.5517 -4.1766,-1.0601 -12.5597,-10.6297 -11.2161,-12.8036 0.3566,-0.577 -0.07,-1.8054 -0.9482,-2.7298 -3.7186,-3.9142 -6.6072,-8.0745 -6.6072,-9.5159 0,-0.8507 -0.45,-1.8248 -1,-2.1647 -0.55,-0.3399 -1,-1.674 -1,-2.9645 0,-2.0312 -1.1192,-4.8203 -5.1252,-12.7719 -0.4811,-0.9551 -0.8748,-2.6584 -0.8748,-3.7852 0,-1.1268 -0.6058,-3.0454 -1.3462,-4.2636 -0.74039,-1.2181 -2.14009,-5.1398 -3.11043,-8.7148 -0.97034,-3.575 -2.1332,-7.4 -2.58414,-8.5 -2.3647,-5.7684 -5.92266,-19.7501 -5.28741,-20.778 0.2752,-0.4453 0.0579,-1.3524 -0.48299,-2.0158 -0.89936,-1.1032 -2.89536,-21.2016 -2.45361,-24.7062 0.10399,-0.825 0.48417,-8.25 0.84484,-16.5 0.36067,-8.25 1.0527,-15.7579 1.53785,-16.6843 0.48515,-0.9263 0.88209,-3.5944 0.88209,-5.929 0,-4.0706 1.28072,-9.4701 3.10654,-13.0972 0.47357,-0.9407 0.61745,-2.3452 0.31974,-3.121 -0.29772,-0.7759 0.15958,-2.1115 1.01621,-2.9681 0.85663,-0.8567 1.55751,-2.0306 1.55751,-2.6087 0,-1.4503 13.4007,-14.5631 19.5012,-19.0823 2.7506,-2.0377 5.6182,-4.4484 6.3724,-5.3571 0.7542,-0.9088 1.7263,-1.6523 2.1601,-1.6523 0.9304,0 11.9663,-10.63 11.9663,-11.5262 0,-0.3374 1.2513,-2.4945 2.7806,-4.7936 1.5293,-2.2991 3.3818,-5.5302 4.1166,-7.1802 0.7349,-1.65 1.8122,-3.9 2.3941,-5 3.6799,-6.9567 8.261,-17.0814 9.8412,-21.75 0.6981,-2.0625 1.6289,-3.75 2.0684,-3.75 0.4395,0 0.7991,-0.8798 0.7991,-1.9551 0,-1.0753 1.2997,-4.7878 2.8883,-8.25 1.5885,-3.4622 3.4339,-7.8699 4.1009,-9.7949 1.8294,-5.2802 2.5631,-7.0868 4.8735,-12 1.1639,-2.475 2.6073,-6.8585 3.2076,-9.741 0.6004,-2.8826 1.5051,-5.4966 2.0106,-5.809 0.5055,-0.3124 0.9191,-1.6399 0.9191,-2.95 0,-1.3101 0.45,-2.6601 1,-3 0.55,-0.3399 1,-1.6899 1,-3 0,-1.3101 0.45,-2.6601 1,-3 0.55,-0.3399 1,-1.8723 1,-3.4054 0,-1.533 0.6426,-4.094 1.4281,-5.691 0.7854,-1.597 2.2475,-6.0536 3.249,-9.9036 1.0016,-3.85 2.159,-7.15 2.572,-7.3333 0.413,-0.1834 0.7509,-1.8443 0.7509,-3.691 0,-1.8467 0.45,-3.6358 1,-3.9757 0.55,-0.3399 1,-2.1399 1,-4 0,-1.8601 0.45,-3.6601 1,-4 0.55,-0.3399 1,-2.1399 1,-4 0,-1.8601 0.45,-3.6601 1,-4 0.55,-0.3399 1,-2.3915 1,-4.559 0,-2.1676 0.45,-3.941 1,-3.941 0.55,0 1,-1.8 1,-4 0,-2.2 0.45,-4 1,-4 0.55,0 1,-1.95 1,-4.3333 0,-2.3834 0.3375,-4.674 0.75,-5.0904 0.4125,-0.4164 0.7674,-1.5039 0.7886,-2.4167 0.048,-2.0597 2.3661,-13.1235 3.1765,-15.1596 0.3283,-0.825 0.7,-2.85 0.8259,-4.5 0.126,-1.65 1.4399,-9.525 2.9198,-17.5 1.5416,-8.3078 2.6752,-17.9164 2.6543,-22.5 -0.2205,-48.4169 0.2316,-44.4808 -7.0638,-61.5 -1.7683,-4.125 -4.3422,-11.1 -5.7199,-15.5 -1.3778,-4.4 -2.7624,-8.675 -3.077,-9.5 -0.3145,-0.825 -0.5149,-1.7943 -0.4451,-2.1541 0.07,-0.3597 -0.5339,-1.2023 -1.3413,-1.8724 -0.8074,-0.6701 -1.4695,-2.1758 -1.4714,-3.3459 0,-1.7968 -1.7031,-6.5574 -6.474,-18.1276 -0.4536,-1.1 -0.9533,-2.45 -1.1104,-3 -0.1571,-0.55 -1.586,-4.15 -3.1753,-8 -3.2056,-7.7654 -3.8798,-9.5309 -4.2007,-11 -0.1202,-0.55 -0.8273,-2.125 -1.5713,-3.5 -0.7441,-1.375 -3.2185,-6.55 -5.4986,-11.5 -8.4154,-18.2687 -13.2623,-28.0449 -14.7497,-29.75 -0.8396,-0.9625 -1.2332,-1.75 -0.8746,-1.75 0.8885,0 -20.3604,-41.4146 -21.4637,-41.8333 -0.4831,-0.1834 -0.8783,-1.1959 -0.8783,-2.25 0,-1.0542 -0.45,-1.9167 -1,-1.9167 -0.55,0 -1,-0.3983 -1,-0.8851 0,-0.4868 -2.8976,-5.5493 -6.4392,-11.25 -3.5416,-5.7007 -7.6513,-12.6149 -9.1328,-15.3649 -1.4814,-2.75 -3.9838,-6.8811 -5.5608,-9.1802 -1.5769,-2.2991 -2.8672,-4.4569 -2.8672,-4.7951 0,-0.3383 -2.25,-3.9494 -5,-8.0247 -2.75,-4.0753 -5.01829,-7.7675 -5.04064,-8.2048 -0.0223,-0.4374 -1.37235,-2.3532 -3,-4.2574 -1.62765,-1.9042 -2.95936,-4.0417 -2.95936,-4.75 0,-0.7083 -0.45,-1.2878 -1,-1.2878 -0.55,0 -1,-0.5901 -1,-1.3114 0,-0.7213 -0.9,-2.2775 -2,-3.4582 -1.1,-1.1807 -2.00106,-2.5031 -2.00235,-2.9386 -10e-4,-0.4355 -1.35023,-2.3668 -2.99765,-4.2918 -1.64742,-1.925 -2.99636,-4.0625 -2.99765,-4.75 -10e-4,-0.6875 -0.35533,-1.25 -0.78674,-1.25 -0.43142,0 -1.51737,-1.2375 -2.41322,-2.75 -0.89585,-1.5125 -2.79232,-4.1 -4.21438,-5.75 -1.42206,-1.65 -2.58612,-3.525 -2.58679,-4.1667 -6.7e-4,-0.6416 -0.36734,-1.3166 -0.81482,-1.5 -0.84325,-0.3454 -4.97367,-5.5906 -19.16171,-24.3333 -6.99871,-9.2454 -16.57996,-20.8253 -21.78982,-26.3351 -0.69582,-0.7359 -2.49368,-2.9866 -3.99525,-5.0015 -3.07493,-4.1261 -8.73804,-10.4041 -18.10702,-20.073 C 895.66115,2021.4117 890,2013.9631 890,2012.127 c 0,-0.557 -0.87387,-2.5009 -1.94193,-4.3198 -7.78661,-13.2609 -6.97098,-46.8118 1.26398,-51.994 0.97602,-0.6142 1.14138,-16.2543 0.18816,-17.7967 -0.49702,-0.8042 -2.61512,-15.7126 -3.05694,-21.5165 -0.20934,-2.75 -0.61198,-6.35 -0.89477,-8 -0.28278,-1.65 -0.98298,-7.95 -1.55599,-14 -1.21037,-12.7794 -1.7826,-17.8383 -2.48851,-22 -0.45503,-2.6827 -2.78421,-20.5913 -5.59251,-43 -0.9734,-7.7672 -2.38376,-30.5028 -3.41181,-55 -0.54559,-13.0006 -2.16892,-26.6335 -3.60761,-30.2971 -0.49614,-1.2633 -0.90207,-4.0493 -0.90207,-6.1909 0,-2.1417 -0.45,-4.1721 -1,-4.512 -0.55,-0.3399 -1,-2.5899 -1,-5 0,-2.4101 -0.47432,-4.6751 -1.05404,-5.0334 -1.2051,-0.7448 -1.14164,-20.0101 0.082,-24.8867 0.42505,-1.6939 1.54317,-6.6799 2.48471,-11.0799 2.63911,-12.333 6.7102,-24.7952 12.25032,-37.5 1.07926,-2.475 2.509,-6.1875 3.17721,-8.25 0.66821,-2.0625 1.63003,-3.75 2.13737,-3.75 0.50735,0 0.92245,-0.6811 0.92245,-1.5136 0,-0.8324 0.41776,-2.2949 0.92836,-3.25 2.16538,-4.0502 5.07164,-10.9566 5.07164,-12.0521 0,-0.6514 0.45,-1.1843 1,-1.1843 0.55,0 1,-0.6325 1,-1.4055 0,-1.6655 4.16977,-9.9477 5.25,-10.4278 0.4125,-0.1834 0.75,-1.1161 0.75,-2.0728 0,-0.9567 1.35,-4.5264 3,-7.9326 1.65,-3.4062 3,-6.636 3,-7.1772 0,-0.5413 0.37797,-0.9841 0.83994,-0.9841 0.46197,0 1.45361,-1.9125 2.20366,-4.25 0.75004,-2.3375 2.12975,-5.6508 3.06602,-7.363 0.93627,-1.7121 2.19463,-4.0746 2.79634,-5.25 0.60172,-1.1753 1.62262,-3.1495 2.26866,-4.387 0.64604,-1.2375 2.05264,-4.05 3.12578,-6.25 1.07314,-2.2 2.56759,-5.125 3.32101,-6.5 1.316,-2.4017 5.35545,-10.7747 7.71902,-16 1.12386,-2.4846 2.83197,-5.2956 6.65957,-10.9595 1.1,-1.6277 2,-3.8777 2,-5 0,-1.1223 0.37925,-2.0405 0.84278,-2.0405 0.46353,0 1.92603,-2.1375 3.25,-4.75 1.32397,-2.6125 2.74472,-4.9 3.15722,-5.0833 0.4125,-0.1834 0.75,-1.0139 0.75,-1.8457 0,-1.2949 3.26628,-6.7836 4.95182,-8.321 0.3015,-0.275 1.78369,-2.975 3.29376,-6 1.51007,-3.025 3.16904,-6.175 3.68659,-7 0.51755,-0.825 1.57895,-2.85 2.35866,-4.5 0.77971,-1.65 3.10585,-5.925 5.16921,-9.5 3.67774,-6.3721 7.53996,-16.5962 7.53996,-19.9598 0,-2.0447 4.89111,-16.0656 6.17041,-17.6882 0.49782,-0.6314 1.0781,-2.0461 1.28952,-3.1439 1.36579,-7.092 17.77085,-35.5299 24.21205,-41.971 1.2804,-1.2804 2.3352,-2.6451 2.344,-3.0326 0.01,-0.3875 1.2463,-2.1305 2.75,-3.8734 1.5037,-1.743 6.109,-7.554 10.234,-12.9135 4.125,-5.3595 9.075,-11.3994 11,-13.422 1.925,-2.0225 4.85,-5.36 6.5,-7.4165 8.5685,-10.6796 24.5697,-27.0467 28.3566,-29.0049 3.7726,-1.9509 16.1434,-15.9696 16.1434,-18.2938 0,-0.4968 0.7997,-1.7756 1.7772,-2.8418 0.9774,-1.0662 2.8682,-3.5136 4.2018,-5.4386 1.3336,-1.925 2.6739,-3.725 2.9785,-4 0.3046,-0.275 1.782,-2.1485 3.2831,-4.1634 1.501,-2.0149 3.2984,-4.2649 3.9943,-5 0.6958,-0.7351 2.4465,-2.9206 3.8905,-4.8565 8.1009,-10.861 16.1344,-16.5375 26.8746,-18.9896 22.5573,-5.1501 25.1077,-5.5843 47.5,-8.0861 45.6977,-5.1057 137.5,5.1824 137.5,15.4093 0,0.6903 1.4625,2.1026 3.25,3.1384 4.755,2.7555 7.2332,5.4882 9.5656,10.5479 1.2163,2.6384 5.4066,7.7338 10.1294,12.317 4.4302,4.2994 8.055,8.2065 8.055,8.6826 0,0.4761 0.8085,1.1222 1.7967,1.4359 0.9882,0.3136 3.5757,2.9076 5.75,5.7644 2.1743,2.8568 4.8533,6.1494 5.9533,7.317 1.1,1.1676 4.475,5.401 7.5,9.4076 3.025,4.0066 6.9521,8.9251 8.7268,10.9301 1.7747,2.005 3.2372,4.2079 3.25,4.8954 0.013,0.6875 0.4732,1.25 1.0232,1.25 0.55,0 1,0.6994 1,1.5542 0,0.8549 1.3479,2.9924 2.9954,4.75 1.6474,1.7577 2.9974,3.5577 3,4 0,0.4424 1.3525,2.2424 3,4 1.6474,1.7577 2.9974,3.5311 3,3.9408 0.01,1.2734 11.5877,15.9295 17.9487,22.717 3.3307,3.554 6.0559,6.7468 6.0559,7.095 0,0.3482 0.9208,1.4663 2.0462,2.4848 1.1255,1.0185 3.0949,3.9008 4.3766,6.405 1.2817,2.5043 5.3212,10.4032 8.9766,17.5532 3.6554,7.15 8.0253,16.6 9.7108,21 1.6855,4.4 3.4752,8.4275 3.9772,8.95 0.5019,0.5225 0.9126,1.895 0.9126,3.05 0,1.155 0.3972,2.5275 0.8827,3.05 0.7745,0.8335 2.1768,5.5724 5.0967,17.2226 0.9593,3.8277 2.9187,7.0071 8.1913,13.2918 2.1061,2.5104 3.8293,5.0194 3.8293,5.5756 0,0.5563 1.125,2.0683 2.5,3.36 1.375,1.2917 2.5,3.0842 2.5,3.9832 0,0.899 0.6607,2.508 1.4682,3.5757 0.8075,1.0676 1.4825,2.5513 1.5,3.2972 0.017,0.7458 1.3818,3.0606 3.0318,5.1439 1.65,2.0833 3,4.2158 3,4.7389 0,0.5231 0.9,1.7656 2,2.7611 1.1,0.9955 2,2.2217 2,2.7248 0,0.5032 1.2513,2.7959 2.7806,5.095 1.5293,2.2991 3.4411,5.5302 4.2484,7.1802 0.8073,1.65 1.6935,3.225 1.9694,3.5 0.729,0.7266 3.0608,4.9053 5.3014,9.5 1.0728,2.2 2.4373,4.9 3.0321,6 4.4638,8.2549 6.6681,12.7691 6.6681,13.6554 0,0.5697 0.8468,2.2303 1.8817,3.6902 1.0349,1.4599 2.6245,4.8506 3.5324,7.5349 0.9079,2.6843 2.8052,7.4093 4.2162,10.5 3.0413,6.6621 4.1657,9.3265 7.857,18.6195 1.5293,3.85 3.5597,8.8 4.512,11 0.9524,2.2 2.334,5.8 3.0703,8 0.7363,2.2 1.6968,4.4275 2.1345,4.95 0.4378,0.5225 0.7959,1.91 0.7959,3.0833 0,1.1734 0.3049,2.4382 0.6775,2.8109 0.3726,0.3726 1.6702,3.4851 2.8835,6.9166 4.1703,11.7951 4.7093,13.2437 5.573,14.9756 0.4763,0.9551 0.866,2.4237 0.866,3.2636 0,0.8399 0.3937,2.3085 0.875,3.2636 1.2767,2.5336 6.2433,17.3147 6.7996,20.2364 0.2618,1.375 0.8615,3.4 1.3326,4.5 3.0526,7.1279 2.951,31.1717 -0.1398,33.082 -0.4771,0.2948 -0.8674,1.715 -0.8674,3.156 0,2.4499 -1.2224,7.1232 -3.0766,11.762 -0.4396,1.1 -1.0696,3.8 -1.3998,6 -0.3302,2.2 -0.8553,5.6875 -1.167,7.75 -0.3117,2.0625 -0.9694,3.75 -1.4616,3.75 -0.4923,0 -0.895,1.26 -0.895,2.8 0,1.54 -0.3681,3.2275 -0.818,3.75 -0.4499,0.5225 -1.8818,4.55 -3.182,8.95 -1.3002,4.4 -2.7321,8.4275 -3.182,8.95 -0.4499,0.5225 -0.818,1.895 -0.818,3.05 0,1.155 -0.369,2.5275 -0.8199,3.05 -0.451,0.5225 -1.877,4.2125 -3.1689,8.2 -1.2919,3.9875 -2.723,7.25 -3.1801,7.25 -0.4571,0 -0.8311,1.5484 -0.8311,3.441 0,1.8925 -0.45,3.7191 -1,4.059 -0.55,0.3399 -1,1.4915 -1,2.559 0,1.0676 -0.45,1.941 -1,1.941 -0.55,0 -1,0.81 -1,1.8 0,0.99 -0.3581,2.2275 -0.7959,2.75 -0.4377,0.5225 -1.375,2.75 -2.0829,4.95 -0.7079,2.2 -1.9247,5.4625 -2.7041,7.25 -0.7794,1.7875 -2.0548,4.7125 -2.8342,6.5 -0.7794,1.7875 -2.0005,5.05 -2.7135,7.25 -0.7131,2.2 -2.1004,5.1945 -3.0829,6.6544 -0.9826,1.4599 -1.7865,3.3587 -1.7865,4.2196 0,0.8608 -0.9,3.1675 -2,5.126 -1.1,1.9585 -2,4.4335 -2,5.5 0,1.0665 -0.9,3.5415 -2,5.5 -1.1,1.9585 -2,4.1376 -2,4.8426 0,0.705 -0.9,3.1445 -2,5.4213 -1.1,2.2767 -2,4.6883 -2,5.3591 0,0.6707 -0.6402,1.93 -1.4226,2.7983 -0.7824,0.8683 -2.1713,3.6037 -3.0865,6.0787 -3.5016,9.47 -4.0957,10.8189 -5.522,12.5375 -0.8079,0.9735 -1.3693,2.0382 -1.2477,2.3662 0.4605,1.2412 -1.7897,7.9083 -3.0113,8.9221 -0.7016,0.5823 -1.3806,2.4357 -1.5088,4.1187 -0.1283,1.683 -1.1243,4.5215 -2.2134,6.3077 -1.0891,1.7863 -1.9819,3.9746 -1.984,4.8629 0,0.8884 -0.8087,2.6884 -1.7925,4 -0.9839,1.3117 -1.9248,3.9599 -2.0908,5.8849 -0.1661,1.925 -0.904,4.175 -1.6399,5 -0.7359,0.825 -1.3649,1.8396 -1.3978,2.2548 -0.033,0.4151 -0.74,2.3826 -1.5713,4.3721 -0.8313,1.9895 -1.5114,4.0185 -1.5114,4.5088 0,0.8788 -0.5708,2.2036 -2.8439,6.6007 -0.6358,1.2301 -1.1561,2.9237 -1.1561,3.7636 0,0.8399 -0.3915,2.3085 -0.87,3.2636 -2.7974,5.5835 -5.13,11.5233 -5.13,13.0632 0,0.9752 -0.4812,2.2544 -1.0693,2.8425 -0.5881,0.5881 -1.1951,1.6906 -1.349,2.45 -0.1538,0.7594 -0.5174,2.0557 -0.8079,2.8807 -0.2906,0.825 -1.5646,4.875 -2.8311,9 -1.2666,4.125 -2.6718,7.9275 -3.1228,8.45 -0.4509,0.5225 -0.8199,1.76 -0.8199,2.75 0,0.99 -0.45,1.8 -1,1.8 -0.55,0 -1,0.7939 -1,1.7641 0,0.9703 -0.9307,4.2328 -2.0683,7.25 -1.1375,3.0173 -2.1665,5.9808 -2.2866,6.5857 -0.1201,0.6049 -1.0216,2.3259 -2.0034,3.8243 -0.9818,1.4985 -1.9532,3.4785 -2.1586,4.4002 -0.2054,0.9216 -0.807,3.1043 -1.3369,4.8504 -0.5299,1.7461 -0.7687,3.3695 -0.5306,3.6075 0.238,0.2381 -0.2531,1.002 -1.0914,1.6977 -0.8383,0.6958 -1.5242,2.001 -1.5242,2.9005 0,0.8995 -1.125,3.7488 -2.5,6.3318 -1.375,2.5829 -2.51,5.7293 -2.5222,6.992 -0.012,1.2627 -0.9023,3.4208 -1.9778,4.7958 -1.0755,1.375 -1.9655,3.4859 -1.9778,4.691 -0.012,1.205 -0.4722,2.4691 -1.0222,2.809 -0.55,0.3399 -1,1.5073 -1,2.5942 0,1.0869 -0.6469,2.9728 -1.4376,4.191 -2.578,3.9717 -4.765,11.9107 -4.1644,15.1167 0.3193,1.7039 0.8028,6.4731 1.0745,10.5981 0.2718,4.125 0.9349,10.2 1.4736,13.5 0.5387,3.3 1.4712,9.375 2.0722,13.5 0.601,4.125 1.5178,8.8819 2.0372,10.571 2.183,7.0982 0.7373,30.6709 -2.0502,33.429 -0.2779,0.275 -1.2741,2.075 -2.2137,4 -2.448,5.0151 -5.1704,9.4462 -6.0416,9.8333 -0.4125,0.1834 -0.75,1.1584 -0.75,2.1667 0,1.0083 -0.3375,1.9833 -0.75,2.1667 -0.9298,0.4132 -13.25,25.2035 -13.25,26.6611 0,0.5819 -0.8652,2.5461 -1.9226,4.365 -1.0574,1.819 -2.4205,6.2322 -3.0291,9.8072 -0.6086,3.575 -1.6187,8.75 -2.2447,11.5 -0.626,2.75 -1.1754,7.925 -1.2209,11.5 -0.045,3.575 -0.3381,6.95 -0.6503,7.5 -0.3121,0.55 -1.5959,4.375 -2.8527,8.5 -1.2568,4.125 -2.6889,8.2814 -3.1824,9.2364 -0.4935,0.9551 -0.8973,2.8676 -0.8973,4.25 0,1.3825 -0.45,2.5136 -1,2.5136 -0.55,0 -1,1.5484 -1,3.441 0,1.8925 -0.4003,3.6884 -0.8895,3.9907 -0.4892,0.3024 -1.1429,2.0164 -1.4526,3.809 -1.524,8.8226 -1.9344,10.4998 -3.3221,13.5793 -0.8228,1.826 -1.2366,3.9961 -0.9195,4.8224 0.3171,0.8264 0.05,2.4824 -0.5926,3.68 -0.643,1.1977 -1.3034,3.3026 -1.4675,4.6776 -0.1641,1.375 -0.7197,4.525 -1.2347,7 -3.1083,14.9374 -3.4783,17.0353 -6.5247,37 -3.1679,20.7601 -3.5968,24.0945 -3.5968,27.9595 0,2.1574 -0.3735,4.1533 -0.83,4.4354 -0.4565,0.2822 -0.9213,4.4256 -1.0329,9.2078 -0.1116,4.7821 -0.4475,9.0904 -0.7464,9.5741 -0.822,1.33 -1.3159,6.2677 -1.5237,15.2332 -0.1032,4.4495 -0.5219,8.54 -0.9304,9.09 -0.4086,0.55 -0.9597,6.175 -1.2247,12.5 -0.265,6.325 -0.7823,16.45 -1.1495,22.5 -0.3673,6.05 -0.6923,33.275 -0.7223,60.5 -0.033,29.6844 -0.4399,50.2265 -1.0172,51.3149 -0.9194,1.7333 -1.2907,3.0585 -2.433,8.6851 -0.2791,1.375 -0.9311,2.65 -1.4487,2.8333 -0.5177,0.1834 -0.9412,1.8443 -0.9412,3.691 0,1.8467 -0.45,3.6358 -1,3.9757 -0.55,0.3399 -1,1.9149 -1,3.5 0,1.5851 -0.45,3.1601 -1,3.5 -0.55,0.3399 -1,2.1665 -1,4.059 0,1.8926 -0.45,3.441 -1,3.441 -0.55,0 -1,1.9984 -1,4.441 0,2.4425 -0.45,4.7191 -1,5.059 -0.55,0.3399 -1,2.1399 -1,4 0,1.8601 -0.398,3.6279 -0.8844,3.9286 -0.4865,0.3006 -1.4194,3.5897 -2.0732,7.309 -0.6538,3.7193 -1.561,7.6624 -2.0159,8.7624 -0.455,1.1 -1.7115,4.025 -2.7923,6.5 -1.0808,2.475 -2.5308,6.3 -3.2224,8.5 -0.6915,2.2 -1.6521,4.7814 -2.1346,5.7364 -0.4824,0.9551 -0.8772,2.841 -0.8772,4.191 0,1.35 -0.3903,2.6958 -0.8674,2.9906 -0.477,0.2949 -1.1813,2.6839 -1.5651,5.309 -0.3838,2.6252 -1.206,7.248 -1.8273,10.273 -2.7293,13.2902 -0.9959,81.3301 2.8152,110.5 0.7904,6.05 1.6724,14.15 1.96,18 0.2876,3.85 0.9571,9.925 1.4878,13.5 3.8486,25.9249 4.334,58.6524 0.9863,66.5 -0.8352,1.9577 -1.3709,4.6614 -2.63,13.273 -0.3436,2.3501 -1.0151,4.5141 -1.4921,4.809 -0.4771,0.2948 -0.8674,1.9945 -0.8674,3.777 0,1.7826 -0.3679,3.6685 -0.8175,4.191 -0.4496,0.5225 -1.4108,3.425 -2.1359,6.45 -0.7252,3.025 -2.1197,7.3 -3.0989,9.5 -0.9793,2.2 -2.7487,6.925 -3.932,10.5 -1.1833,3.575 -2.9902,8.3 -4.0152,10.5 -1.0251,2.2 -2.3998,5.8 -3.0549,8 -0.6551,2.2 -1.5859,4.7814 -2.0684,5.7364 -0.4824,0.9551 -0.8772,2.7776 -0.8772,4.05 0,1.2725 -0.3718,2.7411 -0.8261,3.2636 -1.0995,1.2643 -2.9408,7.9393 -3.6282,13.1523 -0.3953,2.9977 0.059,5.721 1.5834,9.5 2.4477,6.0666 11.5957,31.8069 12.9,36.2977 0.4793,1.65 1.8456,6.15 3.0364,10 1.1907,3.85 2.7781,9.475 3.5275,12.5 0.7494,3.025 2.3083,9.0921 3.4642,13.4825 1.2902,4.9005 1.8502,9.1475 1.4506,11 -0.358,1.6596 -0.8854,5.1284 -1.1719,7.7084 -0.4769,4.2945 -0.7877,4.749 -3.6784,5.3794 -1.7366,0.3788 -4.4492,1.7719 -6.028,3.096 -2.4223,2.0315 -8.0742,4.9339 -18.1295,9.3099 -1.1,0.4788 -3.8,1.1255 -6,1.4373 -2.2,0.3117 -6.25,0.9704 -9,1.4637 -6.6594,1.1945 -22.8687,2.4253 -23.5066,1.7849 z m 19.5066,-15.8265 c 34.8453,-5.5851 41.1429,-24.3164 22.3956,-66.6124 -1.0426,-2.3522 -1.8956,-4.8339 -1.8956,-5.5148 0,-9.0759 -13.9303,-20.2196 -30.2612,-24.2078 -5.2388,-1.2794 -5.2388,-1.2794 -0.9752,-1.39 2.3449,-0.061 5.0449,0.2869 6,0.7727 1.6818,0.8556 3.1122,1.4682 9.9864,4.277 1.7875,0.7303 3.25,1.6681 3.25,2.0838 0,0.4158 0.8923,0.7559 1.9829,0.7559 1.9772,0 1.9772,-0.01 0,-3.5304 -1.0906,-1.9417 -1.9829,-4.3763 -1.9829,-5.4102 0,-1.0339 -1.8,-4.157 -4,-6.9402 -4.7083,-5.9565 -4.736,-6.1186 -1.5216,-8.9134 1.5271,-1.3278 2.2462,-2.76 1.8735,-3.7312 -0.3641,-0.9488 0.6396,-3.125 2.5216,-5.4668 1.7196,-2.1398 3.1265,-4.3188 3.1265,-4.8422 0,-0.5234 0.7035,-1.2216 1.5634,-1.5515 0.8598,-0.33 1.3056,-1.0171 0.9905,-1.527 -0.3151,-0.5098 0.4677,-1.7505 1.7396,-2.757 2.2193,-1.7564 2.9409,-2.8982 7.4758,-11.8301 1.1169,-2.2 2.9386,-5.635 4.0481,-7.6333 1.1096,-1.9983 2.167,-4.6983 2.35,-6 0.1829,-1.3017 1.5701,-4.7749 3.0826,-7.7182 1.5125,-2.9434 2.75,-5.8964 2.75,-6.5622 0,-0.6659 0.9,-3.0734 2,-5.3502 1.1,-2.2767 2,-5.0347 2,-6.1288 0,-1.0941 0.45,-2.2674 1,-2.6073 0.55,-0.3399 1,-2.3015 1,-4.359 0,-2.0576 0.4052,-4.1685 0.9005,-4.691 0.4953,-0.5225 1.169,-2.975 1.4971,-5.45 0.328,-2.475 1.0565,-7.2 1.6188,-10.5 2.6475,-15.5375 1.9041,-46.1951 -1.1662,-48.0926 -0.4676,-0.289 -0.8502,-2.0817 -0.8502,-3.9839 0,-1.9021 -0.9625,-7.838 -2.1388,-13.1909 -1.1764,-5.353 -2.2238,-10.6326 -2.3275,-11.7326 -0.1038,-1.1 -0.7118,-3.8 -1.3512,-6 -1.5873,-5.4615 -5.6704,-28.4102 -7.6507,-43 -1.3643,-10.0514 -1.4638,-14.7258 -0.6125,-28.7861 0.5589,-9.2323 0.7576,-18.0796 0.4414,-19.6605 -0.3162,-1.5809 -0.1284,-4.3771 0.4173,-6.2139 0.5458,-1.8367 1.5558,-6.0395 2.2445,-9.3395 1.8196,-8.7188 5.5521,-23.8658 8.0084,-32.5 1.1735,-4.125 2.9456,-10.65 3.938,-14.5 3.914,-15.1846 8.2544,-31.3825 10.4505,-39 3.3349,-11.5672 4.3886,-16.988 5.0543,-26 0.325,-4.4 0.8409,-9.6875 1.1465,-11.75 0.3056,-2.0625 0.1465,-3.75 -0.3536,-3.75 -0.5,0 -1.0129,2.2739 -1.1397,5.0531 -0.1269,2.7792 -0.6687,6.0417 -1.2041,7.25 -0.6967,1.5723 -0.8261,0.2068 -0.4552,-4.8031 0.285,-3.85 0.5214,-12.0625 0.5253,-18.25 0,-6.8286 0.4001,-11.25 1.0071,-11.25 0.5889,0 1,3.5238 1,8.5714 0,7.6169 0.167,8.4045 1.4991,7.0723 1.2606,-1.2606 1.5552,-7.0403 1.8511,-36.3214 0.4011,-39.6941 1.3646,-65.433 2.569,-68.6294 0.4544,-1.2061 0.8889,-7.0821 0.9655,-13.0578 0.077,-5.9757 0.4136,-11.3088 0.7489,-11.8513 0.3353,-0.5425 0.7916,-3.5283 1.0139,-6.6351 0.4064,-5.6785 1.0983,-11.6487 1.3499,-11.6487 0.074,0 0.3229,-3.12 0.5522,-6.9333 0.2294,-3.8134 0.8746,-7.3909 1.4337,-7.95 0.5592,-0.5592 1.0184,-3.5142 1.0205,-6.5667 0,-3.0525 0.7049,-9.6 1.5618,-14.55 0.8568,-4.95 1.9828,-12.15 2.5022,-16 0.5193,-3.85 1.4038,-9.7 1.9655,-13 0.5617,-3.3 1.2081,-7.35 1.4364,-9 1.9596,-14.1592 2.8297,-19.2813 3.5674,-21 0.4722,-1.1 1.0669,-4.025 1.3216,-6.5 0.2546,-2.475 1.6166,-10.575 3.0266,-18 1.41,-7.425 2.5751,-15.2132 2.5892,-17.3072 0.014,-2.0939 0.4384,-5.6939 0.9432,-8 0.5047,-2.306 1.4364,-6.8928 2.0704,-10.1928 2.1634,-11.2605 3.3494,-15.2731 6.1286,-20.7364 0.4858,-0.9551 0.8833,-2.783 0.8833,-4.0622 0,-1.2792 0.9124,-4.2142 2.0275,-6.5222 1.1152,-2.3081 2.4719,-6.5393 3.0149,-9.4027 0.543,-2.8634 1.4306,-5.6495 1.9725,-6.1914 0.5418,-0.5418 0.9851,-2.6051 0.9851,-4.5851 0,-1.98 0.4011,-4.0275 0.8913,-4.55 0.4901,-0.5225 1.1574,-3.65 1.4828,-6.95 1.0812,-10.9648 1.7598,-13.1783 5.2486,-17.12 1.8888,-2.134 4.1726,-5.0822 5.0751,-6.5516 0.9025,-1.4694 2.5771,-3.1811 3.7215,-3.8037 1.9458,-1.0587 5.5271,-7.5115 8.111,-14.6148 1.6425,-4.5151 0.5137,-35.8444 -1.546,-42.9099 -0.4811,-1.65 -1.6163,-5.5881 -2.5229,-8.7513 -1.5882,-5.5415 -3.4614,-6.9002 -3.4614,-2.5107 0,1.166 -0.4381,3.502 -0.9737,5.191 -0.5355,1.6891 -2.1036,7.346 -3.4848,12.571 -2.1867,8.2726 -2.9605,7.0539 -1.0342,-1.6287 0.4155,-1.8728 0.2698,-3.391 -0.3629,-3.782 -0.5814,-0.3594 -0.773,-1.3935 -0.4259,-2.2982 0.5561,-1.4489 0.7211,-1.4154 1.3861,0.282 0.6913,1.7649 0.7607,1.7377 0.8251,-0.3231 0.039,-1.2375 -0.4001,-2.25 -0.975,-2.25 -1.3483,0 -0.086,-7.2212 1.4395,-8.2347 0.6389,-0.4244 0.6835,-0.7476 0.1058,-0.7653 -0.55,-0.017 -0.3651,-0.4325 0.4108,-0.9237 1.3092,-0.8288 6.1871,-21.7461 7.6872,-32.9644 0.3392,-2.5366 0.7697,-4.8682 0.9568,-5.1814 0.187,-0.3131 0.6237,-2.7881 0.9703,-5.5 1.0866,-8.5009 3.3867,-16.1159 6.9085,-22.8727 1.8698,-3.5872 3.6911,-7.8492 4.0473,-9.4709 0.3562,-1.6218 1.2937,-3.4849 2.0834,-4.1402 0.7896,-0.6554 1.4357,-2.6564 1.4357,-4.4467 0,-1.7903 0.6461,-3.7913 1.4357,-4.4467 0.7897,-0.6553 1.7243,-2.5052 2.077,-4.1109 0.3526,-1.6057 1.0566,-3.1762 1.5642,-3.4899 0.5077,-0.3138 0.9231,-1.3591 0.9231,-2.323 0,-0.9638 0.9,-2.7184 2,-3.8991 1.1,-1.1807 2,-2.8406 2,-3.6886 0,-0.848 0.9,-2.4418 2,-3.5418 1.2449,-1.2449 2,-3.3333 2,-5.5314 0,-2.2165 0.5585,-3.7457 1.5,-4.107 0.825,-0.3166 1.5019,-1.3149 1.5042,-2.2186 0,-0.9036 1.1273,-3.8568 2.5,-6.5625 1.3727,-2.7057 2.4958,-5.5182 2.4958,-6.25 0,-0.7318 0.45,-1.3305 1,-1.3305 0.55,0 1.003,-0.7875 1.0066,-1.75 0,-0.9625 0.9006,-3.1 1.9934,-4.75 1.0928,-1.65 1.9898,-3.9967 1.9934,-5.2148 0,-1.2182 0.8992,-2.6925 1.9901,-3.2764 1.091,-0.5838 1.8898,-1.8372 1.7752,-2.7852 -0.1145,-0.948 0.8604,-3.9736 2.1667,-6.7236 8.0708,-16.9916 10.0746,-21.5426 10.0746,-22.8816 0,-0.8252 0.45,-1.7785 1,-2.1184 0.55,-0.3399 1,-1.4364 1,-2.4366 0,-1.0002 0.6809,-2.3836 1.5132,-3.0744 0.8323,-0.6907 1.4351,-1.7583 1.3396,-2.3724 -0.2707,-1.7415 1.7675,-6.0566 3.5656,-7.5489 0.9638,-0.7998 1.3863,-2.1076 1.0368,-3.2089 -0.3245,-1.0223 -0.1659,-1.8588 0.3524,-1.8588 0.5183,0 1.2342,-1.4591 1.5909,-3.2424 0.7952,-3.9763 2.8509,-8.7576 3.7652,-8.7576 0.3716,0 1.4229,-2.25 2.3363,-5 0.9134,-2.75 2.0943,-5 2.6242,-5 0.5299,0 0.8728,-0.5625 0.7619,-1.25 -0.2381,-1.4768 0.7929,-4.4247 4.5119,-12.9011 0.8811,-2.0082 1.602,-4.1457 1.602,-4.75 0,-0.6044 0.5858,-1.0989 1.3018,-1.0989 0.799,0 1.3396,-1.3344 1.3998,-3.4548 0.054,-1.9002 1.0467,-4.7873 2.2063,-6.4159 1.1596,-1.6285 2.4046,-4.4416 2.7665,-6.2512 0.3619,-1.8096 1.2555,-4.435 1.9857,-5.8342 0.7301,-1.3991 1.3304,-3.3314 1.3337,-4.2939 0,-0.9625 0.4358,-1.75 0.9609,-1.75 0.5251,0 1.2246,-1.6875 1.5546,-3.75 0.33,-2.0625 1.0797,-4.6184 1.666,-5.6797 1.8181,-3.2908 5.8247,-15.8008 5.8247,-18.1864 0,-1.2462 0.45,-2.544 1,-2.8839 0.55,-0.3399 1.0143,-1.604 1.0318,-2.809 0.017,-1.2051 0.6925,-3.0645 1.5,-4.1321 0.8075,-1.0677 1.4682,-2.771 1.4682,-3.7852 0,-1.0142 0.6262,-2.8407 1.3916,-4.0589 0.7654,-1.2181 1.7043,-4.4648 2.0865,-7.2148 0.3821,-2.75 1.2821,-6.35 1.9998,-8 1.9639,-4.5148 2.9806,-9.0269 8.1112,-36 0.7323,-3.85 1.3494,-8.6609 1.3712,-10.691 0.022,-2.03 0.4897,-3.9691 1.0397,-4.309 0.55,-0.3399 1,-3.0961 1,-6.1248 0,-3.0287 0.4399,-6.3287 0.9776,-7.3334 2.2295,-4.1659 3.2397,-46.2354 1.3217,-55.0418 -0.6589,-3.025 -1.4797,-6.85 -1.824,-8.5 -0.6081,-2.9146 -1.0753,-4.2806 -3.2488,-9.5 -0.5726,-1.375 -1.5945,-4.6491 -2.2709,-7.2758 -0.6765,-2.6266 -1.6182,-5.0157 -2.0928,-5.309 -0.4745,-0.2933 -0.8628,-1.6051 -0.8628,-2.9152 0,-1.3101 -0.4001,-2.6293 -0.8892,-2.9315 -0.4891,-0.3023 -1.1831,-1.7205 -1.5423,-3.1516 -0.3592,-1.4311 -1.759,-4.8946 -3.1108,-7.6966 -1.3517,-2.802 -2.4577,-5.9104 -2.4577,-6.9075 0,-0.997 -0.45,-1.8128 -1,-1.8128 -0.55,0 -1,-0.6811 -1,-1.5136 0,-0.8324 -0.4178,-2.2949 -0.9284,-3.25 -0.5106,-0.955 -1.9149,-3.9864 -3.1208,-6.7364 -3.6359,-8.2919 -8.2626,-17.7182 -11.1879,-22.794 -1.5196,-2.6367 -2.7629,-5.4492 -2.7629,-6.25 0,-0.8008 -0.3438,-1.456 -0.7641,-1.456 -0.4203,0 -1.5316,-1.6875 -2.4697,-3.75 -1.9386,-4.2623 -4.9574,-9.5065 -5.9003,-10.25 -0.6098,-0.4809 -2.2968,-3.321 -7.7216,-13 -1.3871,-2.475 -4.0121,-6.4772 -5.8332,-8.8938 -1.8211,-2.4166 -3.3111,-4.8291 -3.3111,-5.3612 0,-0.5321 -1.822,-3.1437 -4.049,-5.8035 -2.2269,-2.6598 -5.8553,-8.3473 -8.063,-12.6388 -2.2078,-4.2915 -3.7601,-6.6777 -3.4497,-5.3027 1.4283,6.3263 2.683,16.2416 2.2109,17.4718 -0.2872,0.7483 -0.142,4.2108 0.3227,7.6944 1.6248,12.1823 1.9363,17.3642 1.1231,18.68 -0.501,0.8107 -1.0995,-1.5139 -1.5396,-5.9809 -0.8598,-8.7252 -5.2102,-31.874 -6.1545,-32.7484 -0.3664,-0.3393 -0.3996,0.9581 -0.074,2.8831 1.0998,6.496 2.5404,23.4252 3.0207,35.5 l 0.4774,12 -1.3773,-12.5 c -0.7575,-6.875 -2.085,-19.2082 -2.95,-27.4071 -2.829,-26.8146 -8.4172,-48.928 -18.471,-73.0929 -0.4577,-1.1 -1.87,-4.7 -3.1386,-8 -1.2686,-3.3 -4.0105,-9.375 -6.0932,-13.5 -2.0826,-4.125 -3.7886,-8.0625 -3.791,-8.75 0,-0.6875 -0.4018,-1.25 -0.8877,-1.25 -0.4858,0 -1.1485,-0.7875 -1.4726,-1.75 -0.7718,-2.2919 -4.0974,-7.9648 -5.9089,-10.0794 -0.7871,-0.9188 -1.6698,-2.3456 -1.9616,-3.1706 -0.6574,-1.8585 -9.2632,-13.4427 -13.0007,-17.5 -1.52,-1.65 -2.7656,-3.3638 -2.7682,-3.8085 0,-0.7595 -4.6952,-6.135 -9.7546,-11.1781 -1.2375,-1.2335 -2.25,-2.7536 -2.25,-3.3781 0,-0.6244 -0.6232,-1.1353 -1.385,-1.1353 -0.7617,0 -2.1871,-1.2375 -3.1674,-2.75 -0.9803,-1.5125 -2.7898,-3.65 -4.021,-4.75 -2.3594,-2.108 -9.4266,-11.1413 -9.4266,-12.0491 0,-0.2926 -0.8274,-1.7512 -1.8386,-3.2414 -8.4054,-12.387 -10.1614,-15.1457 -10.1614,-15.9635 0,-0.5148 -0.9,-1.7505 -2,-2.746 -1.1,-0.9955 -2,-2.4152 -2,-3.155 0,-0.7397 -0.45,-1.345 -1,-1.345 -0.55,0 -1,-0.4274 -1,-0.9499 0,-1.2164 -5.0756,-8.812 -11.2073,-16.7714 -2.636,-3.4218 -4.7927,-6.4919 -4.7927,-6.8225 0,-1.3302 -15.0579,-15.4562 -16.4759,-15.4562 -0.8382,0 -1.5241,-0.45 -1.5241,-1 0,-0.55 -0.9,-1 -2,-1 -1.1,0 -2,-0.5025 -2,-1.1166 0,-0.6801 -1.0749,-0.909 -2.75,-0.5857 -1.6376,0.3162 -4.6838,-0.2986 -7.5304,-1.5196 -2.6293,-1.1278 -5.0678,-1.7633 -5.4189,-1.4122 -0.3511,0.3512 -1.3499,0.037 -2.2195,-0.6974 -6.4658,-5.4629 -68.4531,-9.9996 -99.5812,-7.2882 -3.3,0.2875 -9.375,0.8007 -13.5,1.1405 -10.5292,0.8673 -32.3263,4.4486 -39.5,6.49 -4.3219,1.2299 -10.5612,2.7993 -13.7928,3.4696 -1.5361,0.3185 -3.082,1.3328 -3.4355,2.2539 -0.3534,0.9211 -5.1717,6.212 -10.7072,11.7576 -13.3121,13.3365 -17.5645,17.9039 -17.5645,18.8658 0,0.4379 -1.2375,2.0367 -2.75,3.5528 -1.5125,1.5162 -3.4191,4.0691 -4.2368,5.6731 -1.9199,3.7658 -9.0538,13.4164 -9.9177,13.4164 -0.3654,0 -1.4006,1.2375 -2.3006,2.75 -2.0292,3.4105 -11.3166,13.25 -12.5065,13.25 -0.4812,0 -3.536,2.25 -6.7884,5 -3.2524,2.75 -6.2704,5 -6.7067,5 -0.4363,0 -0.7933,0.6496 -0.7933,1.4435 0,0.7939 -1.35,2.2409 -3,3.2156 -1.65,0.9747 -3,2.3343 -3,3.0213 0,0.6871 -0.9,1.7309 -2,2.3196 -1.1,0.5887 -2,1.4699 -2,1.9582 0,0.4883 -1.8,2.6523 -4,4.8088 -2.2,2.1566 -4,4.4254 -4,5.0418 0,0.6165 -0.9,1.6025 -2,2.1912 -1.1,0.5887 -2,1.692 -2,2.4519 0,0.7598 -0.3687,1.5314 -0.8194,1.7148 -0.4506,0.1833 -2.7793,3.2583 -5.1749,6.8333 -2.3956,3.575 -4.6144,6.725 -4.9306,7 -0.3163,0.275 -1.1376,1.5125 -1.8251,2.75 -0.6875,1.2375 -1.8125,3.2625 -2.5,4.5 -0.6875,1.2375 -1.4984,2.475 -1.8021,2.75 -0.3037,0.275 -1.3273,2.1665 -2.2748,4.2034 -0.9475,2.0368 -2.274,4.2984 -2.9479,5.0256 -1.6664,1.7986 -5.73141,9.9746 -5.72798,11.521 0.002,0.6875 -0.44722,1.25 -0.99722,1.25 -0.55,0 -1,0.5329 -1,1.1843 0,0.6513 -0.8781,3.0138 -1.95134,5.25 -1.07323,2.2361 -3.2959,8.7907 -4.93927,14.5657 -1.64336,5.775 -3.01526,9.822 -3.04866,8.9934 -0.0334,-0.8286 0.35786,-2.9661 0.86946,-4.75 0.51161,-1.7839 0.62411,-3.2399 0.25,-3.2356 -0.86641,0.01 -3.18019,4.9456 -3.18019,6.7838 0,0.7661 -0.9,2.5371 -2,3.9355 -1.1,1.3985 -2,3.3554 -2,4.3487 0,0.9934 -0.45,2.0843 -1,2.4242 -0.55,0.3399 -1,1.4223 -1,2.4054 0,0.983 -0.66449,3.1193 -1.47665,4.7473 -1.79734,3.6029 -3.47669,14.6458 -3.50354,23.0383 -0.0109,3.405 -0.46981,6.4691 -1.01981,6.809 -0.55,0.3399 -1.02593,3.179 -1.05763,6.309 -0.0317,3.1301 -0.46661,7.491 -0.96647,9.691 -0.62039,2.7304 -0.74683,-0.5229 -0.39837,-10.25 0.34246,-9.5597 0.16685,-14.25 -0.53353,-14.25 -0.5742,0 -1.044,1.0887 -1.044,2.4194 0,1.4732 -1.8606,4.5042 -4.75741,7.75 -2.61657,2.9318 -5.83195,7.3556 -7.14527,9.8306 -1.31333,2.475 -3.22249,5.429 -4.24259,6.5645 -1.0201,1.1354 -1.85473,2.6451 -1.85473,3.3549 0,0.7098 -1.35,3.2909 -3,5.7357 -1.65,2.4448 -3,4.9497 -3,5.5663 0,0.6166 -0.64106,1.8316 -1.42459,2.6999 C 940.83142,1539.854 926,1569.361 926,1570.898 c 0,0.6061 -0.45,1.102 -1,1.102 -0.55,0 -1,0.6989 -1,1.5531 0,0.8541 -1.125,3.2086 -2.5,5.2321 -1.375,2.0235 -2.5,4.0871 -2.5,4.5857 0,0.4987 -1.9782,5.0067 -4.39599,10.0179 -5.79842,12.0179 -8.60401,18.381 -8.60401,19.5141 0,0.7878 -4.07216,9.5982 -7.08717,15.3335 -0.50206,0.9551 -0.91283,2.4334 -0.91283,3.2852 0,0.8518 -0.72675,2.6579 -1.61501,4.0136 -0.88826,1.3556 -1.34594,2.4648 -1.01708,2.4648 0.32886,0 -0.28288,1.5682 -1.35941,3.4849 -1.07654,1.9167 -1.71797,4.1086 -1.42541,4.871 0.29256,0.7624 -0.16895,2.0871 -1.02558,2.9437 -0.85663,0.8567 -1.55751,2.7147 -1.55751,4.129 0,1.4143 -0.45,2.5714 -1,2.5714 -0.55,0 -1,1.3234 -1,2.941 0,1.6175 -0.45,3.2191 -1,3.559 -0.55,0.3399 -1,1.5345 -1,2.6546 0,1.1202 -0.83951,3.2311 -1.86558,4.691 -1.02608,1.4599 -2.16357,4.6914 -2.52777,7.181 -0.3642,2.4896 -1.26856,5.6953 -2.00968,7.1239 -0.74113,1.4285 -1.88023,5.0165 -2.53134,7.9734 -0.65111,2.9568 -1.83224,7.4615 -2.62473,10.0103 -2.10803,6.7799 -1.79716,11.2516 1.62969,23.4424 5.74464,20.4362 6.1536,24.5417 8.45949,84.9234 1.90677,49.9302 4.87269,81.7789 10.54394,113.223 3.50915,19.4564 3.56667,22.0762 0.716,32.6104 -7.17524,26.5149 -0.84821,59.6779 12.54275,65.7424 2.84198,1.2871 6.39507,3.7091 7.89576,5.3822 4.49386,5.0101 16.09252,18.9369 18.77147,22.5392 1.375,1.849 3.4,4.3662 4.5,5.5939 1.1,1.2277 2.675,3.242 3.5,4.4762 0.825,1.2342 2.2875,2.949 3.25,3.8106 0.9625,0.8616 1.75,2.0422 1.75,2.6236 0,0.5813 0.9,1.7057 2,2.4985 1.1,0.7928 2,1.8525 2,2.3548 0,0.5022 3.23186,5.2404 7.18192,10.5292 11.21781,15.0197 14.09704,19.0379 19.78835,27.616 2.91927,4.4 5.93633,8.7283 6.70458,9.6183 1.27852,1.4813 7.01515,10.5623 9.71689,15.3817 0.61666,1.1 3.25578,5.2765 5.86476,9.2812 2.6089,4.0046 4.7435,7.4603 4.7435,7.6793 0,0.2189 1.8,3.108 4,6.4202 2.2,3.3122 4,6.494 4,7.0707 0,0.5767 0.45,1.0486 1,1.0486 0.55,0 1,0.6199 1,1.3776 0,0.7576 0.6973,1.9562 1.5495,2.6635 0.8522,0.7073 2.4437,3.1249 3.5365,5.3724 3.1273,6.4317 6.8148,12.8194 8.4318,14.6061 0.8152,0.9009 1.4822,2.0585 1.4822,2.5725 0,0.514 1.575,3.2733 3.5,6.1318 1.925,2.8585 3.5005,5.7775 3.5012,6.4866 7e-4,0.7092 1.1586,2.6353 2.5732,4.2801 1.4145,1.6449 2.8202,4.2324 3.1237,5.75 0.3036,1.5177 0.8932,2.7594 1.3103,2.7594 0.4171,0 1.0161,0.7875 1.331,1.75 0.315,0.9625 1.7812,3.775 3.2581,6.25 5.5446,9.2914 6.9679,11.9478 24.4196,45.5753 3.1613,6.0914 6.2094,11.9414 6.7737,13 3.2737,6.1419 8.7246,16.9074 11.8605,23.4247 1.9848,4.125 4.0002,7.65 4.4787,7.8333 0.4785,0.1834 0.87,0.9493 0.87,1.7021 0,0.7528 2.2988,6.0028 5.1084,11.6666 5.543,11.1739 5.6601,11.4419 8.874,20.298 1.1976,3.3 2.5915,6.7814 3.0975,7.7364 0.5061,0.9551 0.9201,2.4237 0.9201,3.2636 0,0.8399 0.4172,2.3085 0.927,3.2636 3.2813,6.1465 4.6136,13.1874 4.0183,21.2364 -0.3051,4.125 -0.2192,10.425 0.1909,14 0.4101,3.575 0.2982,9.875 -0.2487,14 -1.7493,13.1952 -2.934,21.3371 -4.0497,27.8328 -0.5983,3.4831 -1.0811,7.5331 -1.0729,9 0.01,1.467 -0.3714,3.1462 -0.8435,3.7317 -0.4721,0.5855 -0.934,3.7355 -1.0264,7 -0.092,3.2645 -0.7907,7.1683 -1.5517,8.675 -0.7611,1.5068 -1.317,2.8568 -1.2353,3 0.082,0.1433 -0.2156,2.7355 -0.6604,5.7605 -0.4449,3.025 -0.7061,6.2476 -0.5804,7.1614 0.1257,0.9138 -0.243,1.9528 -0.8194,2.309 -0.5763,0.3562 -1.0478,2.4211 -1.0478,4.5886 0,2.1676 -0.45,3.941 -1,3.941 -0.55,0 -1,1.935 -1,4.3 0,2.365 -0.4131,4.7275 -0.918,5.25 -0.5049,0.5225 -1.0386,2.75 -1.1861,4.95 -0.1475,2.2 -0.5811,4.45 -0.9635,5 -0.3825,0.55 -0.9412,2.575 -1.2416,4.5 -0.3005,1.925 -1.0082,5.3 -1.5728,7.5 -2.3698,9.2342 -3.2923,13.1805 -3.8007,16.2593 -0.2961,1.7926 -0.9386,3.5066 -1.4278,3.809 -0.4892,0.3023 -0.8895,2.0716 -0.8895,3.9317 0,1.8601 -0.45,3.6601 -1,4 -0.55,0.3399 -1,1.9149 -1,3.5 0,1.5851 -0.45,3.1601 -1,3.5 -0.55,0.3399 -1,1.6899 -1,3 0,1.3101 -0.45,2.6601 -1,3 -0.55,0.3399 -1,1.7226 -1,3.0726 0,1.35 -0.391,3.2359 -0.8689,4.191 -0.4778,0.955 -2.3451,6.4614 -4.1494,12.2364 -1.8043,5.775 -3.6633,10.9275 -4.1311,11.45 -0.4678,0.5225 -0.8506,1.9584 -0.8506,3.191 0,1.2325 -0.45,2.5191 -1,2.859 -0.55,0.3399 -1,1.449 -1,2.4645 0,1.0156 -0.9639,3.8015 -2.142,6.191 -1.1781,2.3895 -2.4832,5.2445 -2.9003,6.3445 -0.4171,1.1 -1.7032,4.1326 -2.858,6.7391 -1.1549,2.6065 -2.0997,5.1098 -2.0997,5.5628 0,0.4531 -1.0652,3.0455 -2.367,5.7609 -1.3019,2.7155 -3.5794,7.6372 -5.0611,10.9372 -1.4817,3.3 -3.0944,6.675 -3.5838,7.5 -0.4893,0.825 -1.8985,3.525 -3.1315,6 -1.233,2.475 -3.5051,6.6573 -5.0492,9.294 -1.5441,2.6367 -2.8074,5.5944 -2.8074,6.5726 0,3.4675 -24.0584,25.0335 -28,25.0992 -4.442,0.074 -12.5398,6.9554 -9.8413,8.3629 0.1877,0.098 1.6913,1.1168 3.3413,2.2641 1.65,1.1473 6.15,3.1125 10,4.3671 3.85,1.2546 8.35,2.8663 10,3.5815 1.65,0.7153 9.525,3.8478 17.5,6.9613 15.8517,6.1885 38.2255,17.4 50,25.0548 4.125,2.6817 8.5239,5.4326 9.7754,6.1131 3.3449,1.8186 11.3913,8.297 13.9303,11.2157 2.3605,2.7134 3.0732,2.6236 3.5506,-0.447 0.1659,-1.0666 0.6398,-2.4811 1.0532,-3.1433 0.4134,-0.6622 0.4641,-2.3497 0.1127,-3.75 -0.4494,-1.7906 -0.236,-2.5483 0.7194,-2.5538 1.5657,-0.01 3.8578,-4.4281 3.8597,-7.4416 0,-1.8659 7.9228,-6.5506 11.0767,-6.5506 0.5071,0 0.922,-0.3401 0.922,-0.7559 0,-0.4157 1.2819,-1.3233 2.8487,-2.0168 3.6965,-1.6363 11.3876,-8.9276 18.6991,-17.7273 3.1989,-3.85 6.3466,-7.45 6.995,-8 1.5385,-1.3051 6.6141,-9.0502 8.8469,-13.5 0.966,-1.925 2.3918,-4.625 3.1686,-6 0.7767,-1.375 1.4189,-3.2936 1.427,-4.2636 0.01,-0.9699 0.4647,-2.6574 1.0147,-3.75 0.55,-1.0925 1.45,-2.8803 2,-3.9728 0.55,-1.0926 1,-3.316 1,-4.941 0,-1.625 0.45,-3.2327 1,-3.5726 0.55,-0.3399 1,-1.9149 1,-3.5 0,-1.5851 0.45,-3.1601 1,-3.5 0.55,-0.3399 1,-2.1399 1,-4 0,-1.8601 0.45,-3.6601 1,-4 0.55,-0.3399 1,-1.9149 1,-3.5 0,-1.5851 0.45,-3.1601 1,-3.5 0.55,-0.3399 1,-1.6899 1,-3 0,-1.3101 0.4573,-2.6646 1.0163,-3.0101 0.559,-0.3454 0.8116,-0.9593 0.5614,-1.3642 -0.2502,-0.4049 -0.012,-2.5113 0.5296,-4.6809 2.212,-8.8632 4.0492,-17.0896 4.3426,-19.4448 0.1713,-1.375 0.5667,-3.175 0.8788,-4 0.663,-1.7528 1.3865,-9.6812 2.0988,-23 0.2794,-5.225 0.7704,-13.775 1.0911,-19 0.3207,-5.225 0.7677,-17.15 0.9933,-26.5 0.2256,-9.35 1.0275,-19.7 1.7819,-23 0.7545,-3.3 2.1557,-10.05 3.1138,-15 0.9581,-4.95 2.2003,-10.35 2.7604,-12 0.5601,-1.65 2.0837,-7.1562 3.3857,-12.236 2.0672,-8.0647 4.5299,-15.574 8.7922,-26.8088 0.6354,-1.6746 1.9424,-4.2463 2.9046,-5.7148 0.9622,-1.4685 1.7495,-3.5859 1.7495,-4.7052 0,-1.1194 0.45,-2.0352 1,-2.0352 0.55,0 1,-0.9061 1,-2.0136 0,-1.1074 0.4447,-2.7949 0.9883,-3.75 3.3483,-5.8832 4.8215,-12.1579 2.4969,-10.6347 -2.2823,1.4954 -2.2823,1.4954 -0.1338,-2.8032 1.955,-3.9112 2.1486,-5.8915 2.1486,-21.9781 0,-20.7232 1.1674,-21.1888 2.1382,-0.8528 0.5102,10.6878 0.9391,13.7601 1.7277,12.375 2.1527,-3.7811 0.3292,-29.3313 -2.344,-32.8426 -0.4187,-0.55 -1.308,-2.8 -1.9762,-5 -0.6682,-2.2 -2.3018,-6.3748 -3.6303,-9.2773 -1.3285,-2.9026 -2.4154,-5.4955 -2.4154,-5.7621 0,-0.2667 -1.6185,-3.9669 -3.5966,-8.2227 -4.4942,-9.6693 -5.1096,-11.1356 -5.9753,-14.2379 -0.3837,-1.375 -1.1714,-2.8037 -1.7504,-3.1749 -0.579,-0.3712 -1.1531,-2.1257 -1.2759,-3.8989 -0.1227,-1.7731 -0.668,-4.1694 -1.2116,-5.3251 -0.5436,-1.1556 -1.537,-3.6761 -2.2077,-5.6011 -0.6706,-1.925 -2.0118,-5.3 -2.9805,-7.5 -4.4143,-10.0254 -10.002,-23.4581 -10.002,-24.0446 0,-0.3557 -0.8161,-1.8411 -1.8137,-3.301 -0.9975,-1.4599 -2.3977,-4.6794 -3.1115,-7.1544 -0.7139,-2.475 -2.5978,-7.1507 -4.1864,-10.3905 -1.5886,-3.2397 -2.8884,-6.4769 -2.8884,-7.1936 0,-0.7168 -1.7427,-5.0411 -3.8726,-9.6096 -5.197,-11.147 -6.1274,-13.5542 -6.1274,-15.8534 0,-1.0741 -0.45,-1.9529 -1,-1.9529 -0.55,0 -1,-0.4549 -1,-1.0109 0,-0.556 -0.8363,-2.9185 -1.8584,-5.25 -3.465,-7.9042 -4.1416,-9.8295 -4.1416,-11.7862 0,-1.0741 -0.3596,-1.9529 -0.7991,-1.9529 -0.4395,0 -1.3693,-1.6875 -2.0661,-3.75 -1.3881,-4.1083 -2.8843,-7.7989 -4.2515,-10.4864 -0.4858,-0.9551 -0.8833,-2.6051 -0.8833,-3.6667 0,-1.0616 -0.3557,-2.0802 -0.7904,-2.2636 -0.7173,-0.3025 -2.8727,-5.4182 -6.2495,-14.8333 -0.6904,-1.925 -2.0889,-5.1363 -3.1077,-7.1362 -1.0188,-1.9998 -1.8524,-4.1591 -1.8524,-4.7983 0,-0.6391 -0.9,-3.0249 -2,-5.3016 -1.1,-2.2768 -2,-4.807 -2,-5.6227 0,-0.8157 -1.3053,-4.2187 -2.9006,-7.5622 -1.5953,-3.3434 -3.4505,-7.879 -4.1227,-10.079 -0.6722,-2.2 -1.617,-4.7875 -2.0995,-5.75 -1.6288,-3.2494 -2.8727,-5.741 -3.803,-7.6176 -0.5092,-1.0272 -1.4511,-3.8397 -2.093,-6.25 -0.642,-2.4103 -1.7585,-5.0574 -2.4812,-5.8824 -0.7227,-0.825 -1.7966,-3.3139 -2.3865,-5.5309 -0.5899,-2.217 -1.7425,-4.917 -2.5612,-6 -0.8188,-1.083 -1.503,-2.8078 -1.5205,-3.8329 -0.017,-1.0252 -0.8684,-3.5002 -1.8908,-5.5 -1.0225,-1.9999 -3.2311,-6.7862 -4.9081,-10.6362 -1.6769,-3.85 -4.7187,-10.6 -6.7594,-15 -2.0407,-4.4 -4.5293,-10.3522 -5.5302,-13.2271 -1.6609,-4.7705 -6.7919,-14.4498 -11.1954,-21.1192 -0.9636,-1.4595 -2.4672,-4.2001 -3.3413,-6.0902 -0.8741,-1.89 -2.5846,-4.815 -3.8012,-6.5 -1.2166,-1.6849 -3.4617,-5.5385 -4.9892,-8.5635 -4.7127,-9.3332 -3.5375,-8.7918 -17.1162,-7.8852 -15.4648,1.0325 -25.0311,2.2452 -31.9961,4.0559 -2.1979,0.5714 -4.6729,1.2038 -5.5,1.4053 -8.0878,1.9702 -18.2075,5.1008 -25.2767,7.8194 -8.52998,3.2803 -9.93383,3.2688 -2.7272,-0.022 17.9561,-8.2005 51.4182,-15.373 71.7201,-15.373 4.011,0 6.2799,-0.4093 6.2799,-1.1329 0,-1.1412 -30.38,-0.5961 -39.5,0.7088 -4.2759,0.6118 -21.3524,3.9989 -25.5,5.0579 -1.8384,0.4694 -2.2219,0.3374 -1.4491,-0.4986 2.8613,-3.0957 31.036,-7.1394 51.8317,-7.4391 9.7179,-0.1401 13.6061,-0.5352 13.6108,-1.3832 0,-0.8091 -1.1614,-0.9976 -3.661,-0.592 -3.2176,0.5222 -3.5843,0.3781 -2.9887,-1.1742 0.5306,-1.3827 0.3024,-1.6249 -1.0444,-1.1081 -2.3273,0.8931 -12.0356,2.0052 -16.0493,1.8386 -1.7875,-0.074 -3.25,0.3037 -3.25,0.84 0,0.5362 -1.9125,0.9333 -4.25,0.8823 -2.3375,-0.051 -9.875,0.097 -16.75,0.3292 -6.875,0.2319 -10.925,0.2396 -9,0.017 1.925,-0.2226 8.45,-1.1234 14.5,-2.0019 6.05,-0.8784 12.0095,-1.5879 13.2434,-1.5766 1.2338,0.011 2.0148,-0.3494 1.7355,-0.8014 -0.5217,-0.8441 0.071,-1.0855 7.1364,-2.9085 7.9124,-2.0415 22.9868,-21.6189 31.4135,-40.7973 8.8712,-20.1899 6.2245,-50.9947 -5.7613,-67.056 -3.1441,-4.2131 -2.7824,-3.9913 8.374,5.1356 9.9785,8.1632 11.0015,8.3624 4.6743,0.9104 -4.3442,-5.1165 -10.7048,-12.9586 -25.2818,-31.1704 -7.1591,-8.9441 -14.034,-18.3046 -14.034,-19.1079 0,-0.7499 10.9094,10.3822 19.0684,19.4577 7.8711,8.7552 20.8234,21.0771 24.1719,22.9953 2.095,1.2001 -0.5181,-2.0259 -7.3131,-9.0287 -14.2159,-14.6505 -23.1747,-26.2302 -31.7599,-41.051 -5.1644,-8.9155 -6.9518,-13.241 -4.6992,-11.3714 0.8426,0.6992 1.5319,1.7392 1.5319,2.3111 0,4.5185 21.5495,34.0013 35.3972,48.4285 5.9196,6.1673 12.0264,12.8032 13.5708,14.7465 9.0145,11.3433 24.3256,19.8068 44.2248,24.4462 5.8577,1.3657 10.8072,1.4088 10.8072,0.094 0,-1.3582 4.3292,-1.2708 5.7153,0.1153 1.5233,1.5233 16.5948,-0.6348 25.596,-3.6651 7.9202,-2.6663 14.5215,-2.4433 24.1887,0.8172 35.1311,11.8491 94.1708,-28.2232 135.9402,-92.2674 7.4696,-11.453 9.1006,-13.615 7.9208,-10.5 -2.2713,5.9973 -14.4322,24.1961 -22.3189,33.4002 -5.7535,6.7147 -7.5133,9.0998 -6.7143,9.0998 0.6715,0 15.3559,-16.6124 16.5147,-18.683 0.5541,-0.9902 1.3304,-1.4775 1.725,-1.0828 0.3946,0.3946 0.1447,1.5158 -0.5554,2.4916 -1.5469,2.1561 3.0887,-2.7877 8.2714,-8.8212 4.7651,-5.5474 2.8828,-1.3531 -2.5016,5.5743 -11.9722,15.4032 -15.9929,19.8222 -39.1054,42.9796 -9.3091,9.3271 -16.4503,17.1169 -15.8694,17.3105 2.2084,0.7362 46.5889,-23.6955 61.1929,-33.6869 9.624,-6.5843 5.3554,-2.6132 -5.5,5.1166 -11.8597,8.445 -31.1408,20.5224 -40.5,25.3685 -7.7463,4.0111 -10,5.6339 -10,7.2009 0,0.501 -1.1376,1.4292 -2.5281,2.0627 -1.3904,0.6336 -2.7885,1.8308 -3.107,2.6605 -0.3184,0.8298 -1.1133,1.5087 -1.7664,1.5087 -0.6531,0 -2.9428,2.3625 -5.0881,5.25 -6.1632,8.2952 -6.2425,8.6304 -0.5813,2.4542 6.295,-6.8676 8.0382,-6.8634 2.3752,0.01 -9.79,11.8752 -19.2054,28.5741 -23.2805,41.29 l -2.0831,6.5 0.4636,-5.8103 c 0.5059,-6.34 4.079,-14.8896 10.7267,-25.6665 l 4.0238,-6.5232 -4.0618,4.5 c -2.2339,2.475 -4.0688,4.7611 -4.0774,5.0803 -0.01,0.3192 -1.8214,2.5692 -4.0284,5 -2.2071,2.4308 -4.2941,5.5447 -4.6379,6.9197 -0.3438,1.375 -0.9412,2.95 -1.3275,3.5 -0.3863,0.55 -0.7711,4.0753 -0.855,7.834 -0.084,3.7587 -0.4517,7.3179 -0.8172,7.9094 -0.3655,0.5914 -0.5649,8.9981 -0.4431,18.6816 0.2043,16.2384 0.7445,23.6045 3.1226,42.575 2.022,16.1307 3.0001,25.7478 3.9155,38.5 0.533,7.425 1.1624,14.85 1.3987,16.5 0.515,3.597 -1.7451,26.6245 -3.7787,38.5 -0.8006,4.675 -1.4801,10.1507 -1.5101,12.1682 -0.068,4.6094 -0.9018,6.8318 -2.5617,6.8318 -1.2227,0 -2.5519,4.4385 -3.9941,13.3366 -0.342,2.1101 -0.8377,9.5351 -1.1016,16.5 -0.2639,6.9649 -0.6877,14.2384 -0.9418,16.1634 -0.2541,1.925 -0.7419,7.775 -1.084,13 -0.3421,5.225 -1.0038,9.9819 -1.4705,10.5709 -0.4666,0.589 -0.7874,2.389 -0.7128,4 0.075,1.611 -0.674,9.4541 -1.6634,17.4291 -0.9895,7.975 -1.9302,16.3 -2.0905,18.5 -0.1603,2.2 -0.7351,6.2427 -1.2773,8.9837 -0.5423,2.7411 -0.8024,5.2807 -0.5782,5.6436 0.2243,0.3628 -0.2641,2.5642 -1.0854,4.8919 -0.8213,2.3278 -1.4932,6.6507 -1.4932,9.6065 0,2.9559 -0.45,5.3743 -1,5.3743 -0.5594,0 -1.0025,2.7537 -1.0056,6.25 0,3.4375 -0.4212,7.825 -0.9292,9.75 -1.045,3.9598 -1.7703,11.8513 -3.0791,33.5 -0.4987,8.25 -1.3764,17.8715 -1.9504,21.3811 -1.0437,6.3811 -1.0437,6.3811 4.6041,17 16.9038,31.7826 18.6459,35.9606 18.6459,44.7177 0,3.8244 -0.5737,5.9518 -2.1428,7.9467 -1.1786,1.4983 -2.1475,3.226 -2.1532,3.8394 -0.01,0.6133 -3.3714,7.6401 -7.4796,15.6151 -4.1081,7.975 -7.9748,15.85 -8.5927,17.5 -0.6178,1.65 -2.034,5.025 -3.147,7.5 -1.1131,2.475 -2.3566,5.4 -2.7633,6.5 -0.4067,1.1 -1.2348,3.125 -1.8402,4.5 -1.9569,4.4446 -6.977,20.6333 -7.3213,23.6093 -0.1839,1.5899 -0.8638,3.9592 -1.5109,5.2651 -0.647,1.306 -0.9545,2.9528 -0.6832,3.6598 0.2713,0.7069 -0.1964,2.6188 -1.0393,4.2488 -0.8428,1.6299 -1.2648,3.2311 -0.9377,3.5582 0.3271,0.327 0.012,2.0014 -0.7001,3.7207 -0.7122,1.7194 -1.227,4.8598 -1.1439,6.9788 0.083,2.119 -0.2949,4.1283 -0.8398,4.465 -0.5449,0.3368 -0.9907,2.5208 -0.9907,4.8533 0,2.3326 -0.4044,4.6685 -0.8987,5.191 -0.4943,0.5225 -1.138,4.1 -1.4304,7.95 -1.7151,22.5861 -3.5954,54.0838 -3.6303,60.8157 -0.022,4.2987 -0.4533,8.5868 -0.9576,9.5293 -0.5044,0.9424 -1.1767,5.0753 -1.494,9.1842 -0.3173,4.1089 -0.9844,10.1708 -1.4824,13.4708 -0.498,3.3 -1.3984,9.825 -2.0008,14.5 -1.0171,7.8927 -3.0231,16.3073 -5.1964,21.7971 -0.5002,1.2633 -0.9094,3.3311 -0.9094,4.595 0,1.2638 -0.9,3.1124 -2,4.1079 -1.1,0.9955 -2,2.6698 -2,3.7207 0,1.0509 -0.4019,2.6687 -0.8931,3.595 -0.4912,0.9264 -1.1302,5.0593 -1.42,9.1843 -0.2897,4.125 -1.0185,9.525 -1.6195,12 -0.6009,2.475 -1.5118,9.225 -2.0242,15 -0.908,10.2355 -1.2314,12.0229 -4.4326,24.5 -0.8466,3.3 -1.5554,8.1109 -1.575,10.691 -0.02,2.58 -0.4856,4.9691 -1.0356,5.309 -0.55,0.3399 -1,3.0399 -1,6 0,2.9601 -0.45,5.6601 -1,6 -0.55,0.3399 -1,1.7768 -1,3.193 0,1.4162 -0.4326,4.2022 -0.9614,6.191 -0.5288,1.9888 -2.1518,9.016 -3.6067,15.616 -2.6814,12.164 -7.409,32.4645 -9.8976,42.5 -5.6218,22.6716 -7.7687,30.7293 -8.5891,32.2364 -0.5199,0.9551 -0.9452,3.066 -0.9452,4.691 0,1.625 -0.45,3.2327 -1,3.5726 -0.55,0.3399 -1,2.1399 -1,4 0,1.8601 -0.45,3.6601 -1,4 -0.55,0.3399 -1,2.1399 -1,4 0,1.8601 -0.45,3.6601 -1,4 -0.55,0.3399 -1,2.2268 -1,4.193 0,1.9662 -0.411,5.2022 -0.9133,7.191 -2.2561,8.9331 -3.1338,14.1661 -3.6256,21.616 -1.2749,19.3123 -0.5123,30.3516 4.5594,66 0.4695,3.3 1.1381,8.475 1.4858,11.5 0.3478,3.025 1.0172,6.4 1.4877,7.5 0.8327,1.9471 1.2638,3.7255 2.9086,12 1.2218,6.1466 4.2247,14.5 5.2125,14.5 0.4867,0 0.8849,0.8309 0.8849,1.8464 0,1.0155 0.7051,3.2597 1.5669,4.9872 0.8618,1.7275 1.2852,3.5967 0.941,4.1537 -0.791,1.2797 0.1042,1.2907 2.4597,0.03 1.5023,-0.804 1.7519,-0.6605 1.3727,0.7894 -0.2549,0.9746 -1.4211,2.2043 -2.5915,2.7327 -17.3043,7.8111 -1.7957,39.8855 23.2512,48.0877 2.475,0.8105 5.4,1.8568 6.5,2.3251 17.0067,7.2403 50.2934,9.3243 78,4.8834 z M 1184,3053.607 c 0,-0.2162 0.6984,-0.661 1.5519,-0.9886 0.89,-0.3415 1.2914,-0.1738 0.941,0.3931 -0.5872,0.9502 -2.4929,1.4054 -2.4929,0.5955 z m 5,-3.0134 c 0,-0.2 1.125,-1.1007 2.5,-2.0016 1.375,-0.901 2.5,-1.25 2.5,-0.7756 0,0.4744 -1.125,1.3752 -2.5,2.0016 -1.375,0.6265 -2.5,0.9755 -2.5,0.7756 z m 8.1151,-5.4306 c 2.6777,-2.0625 19.51,-10.2979 24.8849,-12.1751 1.925,-0.6723 5.0174,-1.8918 6.8719,-2.7099 4.157,-1.8339 8.68,-3.2436 12.6281,-3.9361 1.65,-0.2893 5.2299,-1.0934 7.9554,-1.7867 2.7255,-0.6933 5.7983,-1.0401 6.8284,-0.7707 1.0326,0.27 -3.1395,1.7532 -9.2992,3.3057 -11.6021,2.9244 -19.5854,5.5706 -21.7346,7.2044 -0.6875,0.5227 -1.25,0.661 -1.25,0.3075 0,-0.3535 -1.7821,0.2664 -3.9602,1.3776 -2.1781,1.1112 -4.6531,2.0203 -5.5,2.0203 -0.8469,0 -1.5398,0.45 -1.5398,1 0,0.55 -0.6862,1 -1.525,1 -0.8387,0 -4.6525,1.575 -8.475,3.5 -7.7787,3.9173 -9.4099,4.3783 -5.8849,1.663 z M 1309,2623.2016 c 0,-1.1724 0.6424,-4.0599 1.4277,-6.4167 1.6219,-4.8678 3.3413,-18.1573 5.0182,-38.7849 1.4097,-17.3403 2.8712,-31 3.3169,-31 0.4553,0 -0.4173,17.8526 -1.2709,26 -0.2017,1.925 -0.6592,7.325 -1.0167,12 -1.2748,16.6702 -2.3486,24.3171 -4.5488,32.3924 -2.0177,7.4056 -2.9264,9.2094 -2.9264,5.8092 z m 9.0304,-3.2701 c -0.017,-0.3127 0.6003,-2.7877 1.3712,-5.5 1.4878,-5.2346 2.2321,-9.1456 3.1272,-16.4315 0.3041,-2.475 1.2358,-8.325 2.0704,-13 1.5949,-8.9337 3.4508,-34.4338 2.6928,-37 -0.2436,-0.825 0.1057,-0.6367 0.7764,0.4184 2.5238,3.9704 -1.6622,44.883 -6.4268,62.8148 -1.3365,5.0299 -3.5254,10.3023 -3.6112,8.6983 z m -15.5432,-8.4315 c 0.3923,-5.4739 1.7693,-18.6117 3.0305,-28.9121 0.2753,-2.2483 0.9657,-7.9129 1.5341,-12.5879 1.9566,-16.092 3.5829,-18.4356 2.0178,-2.9078 -0.5215,5.1743 -1.2528,12.5578 -1.625,16.4078 -0.3723,3.85 -0.8189,7.7624 -0.9926,8.6943 -0.1736,0.9319 -0.6142,4.6194 -0.9791,8.1944 -0.3648,3.5751 -1.2826,8.8876 -2.0394,11.8057 l -1.3762,5.3056 z m -6.0462,-18.5 c 0.3282,-1.925 0.8006,-5.2499 1.0498,-7.3887 0.4406,-3.7808 1.1088,-5.3781 1.8941,-4.528 0.7389,0.7999 -1.4248,13.3563 -2.4783,14.3822 -0.7469,0.7274 -0.8851,0 -0.4656,-2.4655 z m -9.5673,-5.2493 c 0.3217,-4.5194 0.5022,-4.9079 1.296,-2.7892 1.1023,2.9417 0.7278,7.254 -0.6697,7.7121 -0.6119,0.2006 -0.855,-1.7098 -0.6263,-4.9229 z M 1276,2589.497 c 0,-0.2766 1.3757,-2.6391 3.057,-5.25 3.057,-4.747 3.057,-4.747 2.3887,-1.247 -0.8011,4.1954 -5.4457,9.7367 -5.4457,6.497 z m 23.0703,-11.688 c -0.039,-1.48 0.3797,-2.9691 0.9297,-3.309 1.1938,-0.7378 1.1938,1.2218 0,4 -0.7674,1.7858 -0.867,1.7118 -0.9297,-0.691 z M 1222.2757,2438.5 c 2.3685,-4.716 3.9233,-17.06 3.5585,-28.2522 -0.1838,-5.6387 -0.01,-10.2512 0.3967,-10.25 4.0201,0.012 1.0511,34.7054 -3.3643,39.3132 -2.0975,2.189 -2.0975,2.189 -0.5909,-0.811 z m 8.7643,-5.8557 c -0.022,-0.4706 0.6731,-3.6076 1.5447,-6.971 1.0948,-4.2251 1.4812,-9.2782 1.25,-16.3467 -0.3608,-11.0281 1.0492,-12.6465 1.8894,-2.1689 0.5855,7.3016 -1.1131,19.8432 -3.2104,23.7035 -0.7885,1.4513 -1.4516,2.2538 -1.4737,1.7831 z m -15.1346,-13.4406 c 0.3186,-9.9852 0.5516,-11.6337 1.0889,-7.7037 0.9703,7.0987 0.6871,18.2186 -0.4943,19.404 -0.6668,0.669 -0.8649,-3.2299 -0.5946,-11.7003 z m -7.8901,0.1053 c 0.01,-3.7449 0.4515,-7.484 0.9847,-8.309 0.6724,-1.0405 0.9741,0.8561 0.9847,6.191 0.01,4.23 -0.4347,7.9691 -0.9847,8.309 -0.6298,0.3892 -0.9943,-1.9027 -0.9847,-6.191 z m -9.073,1.3759 c 0.5817,-1.5483 1.0577,-4.5592 1.0577,-6.691 0,-2.1317 0.5202,-4.1974 1.1559,-4.5903 1.764,-1.0902 0.1178,10.7527 -1.7509,12.5964 -1.3582,1.34 -1.4076,1.1997 -0.4627,-1.3151 z m -18.1832,-5.0041 c -0.6732,-6.43 0.7837,-6.6419 2.2092,-0.3213 0.5724,2.5381 0.4362,3.655 -0.489,4.0101 -0.8807,0.3379 -1.4195,-0.8175 -1.7202,-3.6888 z m 8.0195,3.7645 c -0.9129,-0.9129 1.654,-10.5856 2.7214,-10.255 0.55,0.1703 0.8405,1.8757 0.6455,3.7898 -0.3617,3.5513 -2.3886,7.4434 -3.3669,6.4652 z m 28.6803,-81.5118 c -0.3626,-0.5866 -0.4447,-1.281 -0.1826,-1.5432 0.2622,-0.2621 0.7431,0.2179 1.0688,1.0666 0.6762,1.7621 0.1,2.072 -0.8862,0.4766 z m 146.6117,-153.0054 c -0.148,-1.1983 3.2406,-10.4744 4.1747,-11.4281 0.6411,-0.6545 0.7177,-0.1378 0.2217,1.4958 -0.9509,3.1317 -4.3014,10.7012 -4.3964,9.9323 z m -10.4195,-7.1466 c 1.7922,-6.0596 4.4904,-11.6149 4.0223,-8.2815 -0.4647,3.3102 -3.7634,12.4376 -4.7053,13.0197 -0.4835,0.2988 -0.1761,-1.8334 0.683,-4.7382 z m 19.075,-1.6043 c 0.9042,-2.8273 1.8305,-4.9539 2.0586,-4.7259 0.5391,0.5392 -1.775,7.7762 -2.8644,8.9576 -0.4609,0.4998 -0.098,-1.4044 0.8058,-4.2317 z M 1338,2178.9225 c 0,-0.8126 0.6079,-2.3651 1.3508,-3.45 0.7429,-1.0849 1.6612,-3.2488 2.0407,-4.8086 0.9748,-4.0075 5.9433,-14.6639 6.8369,-14.6639 0.4101,0 -0.1349,1.9125 -1.2111,4.25 -1.0762,2.3375 -3.1516,7.4 -4.6121,11.25 -2.75,7.2496 -4.4052,10.0384 -4.4052,7.4225 z m 21,-1.4225 c 0,-0.825 0.4359,-1.5 0.9686,-1.5 0.5328,0 0.7096,0.675 0.393,1.5 -0.3166,0.825 -0.7524,1.5 -0.9686,1.5 -0.2161,0 -0.393,-0.675 -0.393,-1.5 z m -10.491,-7.0944 c 1.4239,-3.7981 3.2828,-9.1556 4.1308,-11.9056 0.848,-2.75 1.9509,-5.4275 2.451,-5.95 1.6839,-1.7595 0.9588,1.493 -1.9583,8.7834 -1.5772,3.9416 -3.1811,8.598 -3.5643,10.3475 -0.3832,1.7495 -1.3608,3.732 -2.1725,4.4056 -1.0154,0.8428 -0.6682,-0.9291 1.1133,-5.6809 z m 12.5201,4.0111 c 0.028,-0.8769 0.8778,-3.9979 5.9686,-21.9167 3.2631,-11.4855 3.1573,-11.2093 3.7181,-9.7019 0.2656,0.714 -0.2835,3.639 -1.2203,6.5 -0.9368,2.861 -1.8741,6.1019 -2.0829,7.2019 -0.9353,4.9268 -6.4637,20.4436 -6.3835,17.9167 z m -25.2885,-8.1122 c 4.1432,-7.9018 4.0831,-7.8141 4.8335,-7.0637 0.7199,0.7199 -6.0382,13.0806 -7.3998,13.5344 -0.5508,0.1836 0.604,-2.7282 2.5663,-6.4707 z m 44.3083,6.0508 c -0.095,-2.2366 4.3141,-14.829 4.6626,-13.3148 0.1949,0.8473 -0.7634,4.4473 -2.1296,8 -1.3663,3.5527 -2.5061,5.9444 -2.533,5.3148 z m -11.0375,-1.4053 c 0.015,-1.9176 5.8171,-21.1213 6.6071,-21.8683 0.8073,-0.7634 -0.3039,4.6166 -2.8748,13.9183 -2.0063,7.2587 -3.7562,10.9862 -3.7323,7.95 z m -10.3762,-6.95 c 0.9409,-5.4036 4.3144,-15.8508 5.3188,-16.4716 1.0271,-0.6347 -2.4829,12.4415 -4.5556,16.9716 -1.3726,3 -1.3726,3 -0.7632,-0.5 z m 18.9449,-3.1048 c 2.0065,-8.7269 4.6681,-16.6399 5.1313,-15.256 0.4716,1.4087 -4.5289,19.5235 -5.7297,20.756 -0.4796,0.4923 -0.2104,-1.9827 0.5984,-5.5 z M 1325,2165.155 c 0,-0.4648 0.9,-1.6595 2,-2.655 2.201,-1.9918 2.5584,-1.4118 0.9648,1.5657 -1.0435,1.9499 -2.9648,2.6557 -2.9648,1.0893 z m -19.9167,-2.5158 c 0.2292,-0.1985 2.4417,-0.6549 4.9167,-1.0142 3.1446,-0.4566 4.0482,-0.3525 3,0.3455 -1.3488,0.8982 -8.9201,1.5377 -7.9167,0.6687 z M 1385.5764,2153 c 0.3214,-2.475 0.9948,-5.85 1.4965,-7.5 1.626,-5.3482 3.927,-14.8164 5.5895,-23 2.0443,-10.063 4.7555,-17.6967 3.7292,-10.5 -0.353,2.475 -1.2526,6.8542 -1.9992,9.7316 -0.7465,2.8773 -1.5953,6.5819 -1.886,8.2323 -2.177,12.3569 -8.1,32.0455 -6.93,23.0361 z m -9.0728,-8.5 c 1,-6.4672 2.4723,-11.3671 3.6307,-12.083 0.6881,-0.4253 0.873,0.013 0.5095,1.2078 -0.3137,1.0313 -1.0551,4.085 -1.6474,6.7859 -1.4209,6.4792 -3.3522,9.6474 -2.4928,4.0893 z m 6.5034,-1.75 c 0.014,-2.4023 4.0231,-17.9797 5.0471,-19.6077 1.3315,-2.1171 0.5441,2.4892 -2.2407,13.1077 -1.909,7.2791 -2.8226,9.3952 -2.8064,6.5 z M 977,2035 c 0.825,-0.5332 1.95,-0.9694 2.5,-0.9694 0.55,0 0.325,0.4362 -0.5,0.9694 -0.825,0.5332 -1.95,0.9694 -2.5,0.9694 -0.55,0 -0.325,-0.4362 0.5,-0.9694 z m 8,-3.5113 c 0,-0.7454 7.25966,-3.5624 7.79667,-3.0254 0.26927,0.2693 -0.13732,0.7119 -0.90354,0.9835 -0.76622,0.2716 -2.63063,0.9461 -4.14313,1.4988 -1.5125,0.5527 -2.75,0.7971 -2.75,0.5431 z m 13,-13.036 c 0,-0.7648 7.3297,-3.5095 8.4103,-3.1493 0.5789,0.193 -1.0766,1.0764 -3.6789,1.963 -2.6023,0.8867 -4.7314,1.4206 -4.7314,1.1863 z m 280.1082,-3.8708 c -0.15,-2.66 2.1276,-15.3124 2.5349,-14.0819 0.1821,0.55 -0.2894,4.375 -1.0478,8.5 -0.7584,4.125 -1.4276,6.6369 -1.4871,5.5819 z m -0.9664,-15.0819 c -0.239,-5.4882 6.4487,-23.9123 7.5565,-20.8178 0.2327,0.6502 -0.2438,2.4721 -1.0591,4.0486 -1.7293,3.344 -5.2601,13.6535 -5.9144,17.2692 -0.4092,2.2613 -0.4649,2.2136 -0.583,-0.5 z m -1.1114,-12.2627 c -0.053,-5.6497 3.7759,-17.3264 9.5378,-29.0895 8.4934,-17.3393 8.4434,-13.3829 -0.067,5.3522 -3.6677,8.0737 -5.2914,12.6508 -6.5627,18.5 -1.5741,7.242 -2.8672,9.5713 -2.9076,5.2373 z m -2.2804,-9.809 c -1.039,-1.0551 -0.9425,-5.1913 0.1366,-5.8582 0.4877,-0.3014 1.1982,-2.2086 1.579,-4.2382 0.9933,-5.2948 14.4708,-31.3319 16.2182,-31.3319 0.2197,0 -2.3101,5.2311 -5.6219,11.6248 -5.7962,11.1898 -10.6343,23.3132 -11.262,28.2201 -0.1649,1.2897 -0.6374,2.0022 -1.0499,1.5834 z m -2.1078,-10.1982 c -3.1025,-5.02 10.4675,-33.2477 24.8334,-51.6571 4.0394,-5.1763 1.9136,0.1172 -2.9053,7.2346 -10.6463,15.7246 -17.9451,30.3915 -19.9983,40.1869 -0.7087,3.3813 -1.451,5.0104 -1.9298,4.2356 z M 1072.1839,1964.5 c -0.014,-0.55 0.5704,-4.15 1.2992,-8 1.0606,-5.6024 1.3289,-6.2014 1.3442,-3 0.016,3.3307 -2.5642,14.0667 -2.6434,11 z m 5.5004,-12.5 c -0.3721,-1.375 -0.8508,-4.075 -1.0638,-6 -0.213,-1.925 -0.6632,-5.975 -1.0006,-9 -0.3947,-3.5393 0.1022,-2.1133 1.3939,4 1.8732,8.866 2.3908,17.3578 0.6705,11 z m 3.8164,-10.1746 c -1.0646,-3.6307 -5.3672,-14.8429 -7.6617,-19.9661 -1.1432,-2.5524 -1.877,-5.2452 -1.6308,-5.9839 0.2463,-0.7388 1.2861,0.8996 2.3108,3.6407 1.0247,2.7411 2.4047,5.8839 3.0667,6.9839 1.7219,2.8613 5.8121,16.4355 5.1514,17.0962 -0.305,0.305 -0.8613,-0.4919 -1.2364,-1.7708 z m 4.1311,-4.6122 c -0.601,-0.9725 -6.6471,-21.2367 -6.5918,-22.0932 0.1336,-2.0674 3.3389,6.1515 5.394,13.8307 2.2115,8.2639 2.5219,10.4051 1.1978,8.2625 z m 0.1,-17.4328 c -2.8535,-11.1985 -3.3425,-14.427 -1.7818,-11.7637 1.4842,2.5331 5.1786,18.0887 4.8349,20.3582 -0.177,1.1688 -1.5509,-2.6987 -3.0531,-8.5945 z m -8.1369,-6.8873 c -1.8105,-5.5723 -3.2434,-11.7941 -2.6288,-11.4143 1.094,0.6761 4.3538,11.535 3.6685,12.2203 -0.3229,0.3229 -0.7908,-0.04 -1.0397,-0.806 z m 4.4844,-8.4764 c 0.048,-1.165 0.285,-1.4019 0.6042,-0.6042 0.2889,0.7219 0.2534,1.5844 -0.079,1.9167 -0.3323,0.3323 -0.5687,-0.2584 -0.5253,-1.3125 z m -1.3282,-5.9406 c -0.2654,-1.3881 -0.093,-2.7647 0.3834,-3.059 0.4762,-0.2943 0.8659,0.8414 0.8659,2.5239 0,3.7124 -0.5934,3.9666 -1.2493,0.5351 z m 226.8526,1.3156 c 1.1569,-0.7104 1.9069,-1.8542 1.6667,-2.5417 -0.2402,-0.6875 0.1338,-1.25 0.8309,-1.25 2.2103,0 10.0763,-4.2111 19.3865,-10.3787 17.9484,-11.8899 49.6763,-28.7909 51.1959,-27.2713 0.2907,0.2906 -4.8439,3.2215 -11.4101,6.5131 -15.2065,7.6227 -29.0196,15.5869 -42.1051,24.2761 -5.6826,3.7734 -10.5631,6.8608 -10.8456,6.8608 -0.2826,0 -1.7082,0.841 -3.1681,1.8688 -1.4599,1.0278 -3.7794,2.1716 -5.1544,2.5417 -2.4003,0.6461 -2.4161,0.6214 -0.3967,-0.6188 z m 23.7133,-7.495 c 2.3269,-3.7649 52.5433,-28.7702 54.2831,-27.0303 0.1898,0.1898 -3.13,1.8777 -7.3773,3.7508 -8.6904,3.8327 -27.7277,13.4329 -39.6462,19.993 -4.3582,2.3988 -7.6249,3.8777 -7.2596,3.2865 z M 1360,1882 c 0.825,-0.5332 2.175,-0.9694 3,-0.9694 1.3333,0 1.3333,0.1077 0,0.9694 -0.825,0.5332 -2.175,0.9694 -3,0.9694 -1.3333,0 -1.3333,-0.1077 0,-0.9694 z m 6,-2.5044 c 0,-1.0277 15.7356,-7.9149 22.8752,-10.0122 4.8668,-1.4295 1.0143,1.3913 -4.137,3.0292 -2.881,0.9161 -7.249,2.574 -9.7066,3.6843 -6.1839,2.7937 -9.0316,3.8338 -9.0316,3.2987 z m 25,-4.0392 c 0,-1.2025 16.4233,-6.4331 17.3354,-5.521 0.7528,0.7528 0.604,1.0646 -0.5083,1.0646 -0.8651,0 -3.7676,0.9733 -6.45,2.1628 -4.2206,1.8717 -10.3771,3.2325 -10.3771,2.2936 z m -313.5354,-21.8722 c -11.4043,-15.6037 -22.4798,-35.859 -23.8316,-43.5842 -0.5194,-2.9679 -0.348,-2.7844 1.1273,1.207 0.9568,2.5889 2.3022,5.2664 2.9897,5.95 0.6875,0.6837 1.25,1.8039 1.25,2.4894 0,0.6856 1.683,4.0831 3.74,7.55 2.0571,3.467 4.1946,7.0785 4.75,8.0256 0.5555,0.9471 3.4226,5.5845 6.3714,10.3053 4.4936,7.194 6.8918,12.5565 3.6032,8.0569 z m 246.9872,-9.0842 c 1.0295,-1.65 3.7604,-5.475 6.0687,-8.5 11.526,-15.105 27.0021,-39.5956 28.9196,-45.7645 0.3871,-1.2455 1.1151,-2.0104 1.6178,-1.6997 3.0951,1.9129 -24.2095,44.7837 -35.9624,56.4642 -2.5154,2.5 -2.5154,2.5 -0.6437,-0.5 z m -257.7095,-18.7521 c -1.9774,-3.9863 -3.9084,-8.3729 -4.2912,-9.7479 -0.3827,-1.375 -1.0275,-2.95 -1.4328,-3.5 -1.2651,-1.7168 -2.031,-7.5 -0.9933,-7.5 0.5363,0 0.975,0.7195 0.975,1.5989 0,0.8793 0.6109,3.0168 1.3575,4.75 9.0361,20.975 11.2455,28.2302 4.3848,14.399 z m -1.1709,-14.3193 c -0.3678,-1.4655 -0.4759,-2.8575 -0.2402,-3.0932 0.2358,-0.2357 0.7296,0.7705 1.0974,2.236 0.3678,1.4655 0.4759,2.8575 0.2402,3.0932 -0.2358,0.2357 -0.7296,-0.7705 -1.0974,-2.236 z m 278.4352,-7.0825 c 0,-0.6347 1.5155,-3.8469 3.3759,-7.1382 1.8604,-3.2913 4.1465,-8.2846 5.0804,-11.0961 1.8616,-5.6049 3.1332,-6.8424 2.1912,-2.1324 -1.0862,5.4313 -10.6286,23.6839 -10.6475,20.3667 z m 4.024,-25.8461 c 0,-0.55 0.4362,-1.675 0.9694,-2.5 0.5332,-0.825 0.9694,-1.05 0.9694,-0.5 0,0.55 -0.4362,1.675 -0.9694,2.5 -0.5332,0.825 -0.9694,1.05 -0.9694,0.5 z m 3.051,-4.7821 c -0.1628,-1.5611 2.7482,-7.4941 4.0664,-8.2878 1.0655,-0.6415 1.1076,-0.5084 0.1988,0.6279 -0.6343,0.7931 -1.8351,3.017 -2.6685,4.942 -0.8333,1.925 -1.5519,3.148 -1.5967,2.7179 z m 94.2263,-193.9327 c 2.0263,-5.769 1.5904,-32.7996 -0.9317,-57.7852 -0.3609,-3.575 -0.4,-6.2694 -0.087,-5.9875 2.9664,2.6713 4.6307,61.5751 1.8136,64.1904 -1.1634,1.0801 -1.2964,1.0102 -0.7949,-0.4177 z m 8.85,-13.7852 c 0,-1.375 0.227,-1.9375 0.5044,-1.25 0.2774,0.6875 0.2774,1.8125 0,2.5 -0.2774,0.6875 -0.5044,0.125 -0.5044,-1.25 z m -1.5424,-15.75 c -0.3535,-3.7125 -1.1062,-12.6 -1.6725,-19.75 -0.5663,-7.15 -1.4512,-15.925 -1.9665,-19.5 -0.9973,-6.9189 -1.2403,-11.6015 -0.5666,-10.9167 1.3199,1.3418 6.6843,56.9167 5.4939,56.9167 -0.355,0 -0.9347,-3.0375 -1.2883,-6.75 z M 989.27236,1534 c 0,-2.475 0.19502,-3.4875 0.43337,-2.25 0.23836,1.2375 0.23836,3.2625 0,4.5 -0.23835,1.2375 -0.43337,0.225 -0.43337,-2.25 z m -11.28868,-4 c -1.19724,-18.5811 3.31892,-64.8514 6.62622,-67.889 0.69187,-0.6354 0.4857,1.0819 -2.0276,16.889 -1.45926,9.1779 -3.33855,32.9991 -3.90512,49.5 -0.27469,8 -0.27469,8 -0.6935,1.5 z m 465.21122,-17.5 c 0.02,-1.65 0.2445,-2.2039 0.4981,-1.231 0.2535,0.973 0.2369,2.323 -0.037,3 -0.2739,0.6771 -0.4813,-0.119 -0.461,-1.769 z m -453.90889,-13 c 0.008,-2.75 0.20172,-3.7563 0.43157,-2.2363 0.22986,1.5201 0.22371,3.7701 -0.0136,5 -0.23736,1.23 -0.42542,-0.014 -0.41792,-2.7637 z m 456.86549,-8.2555 c -0.656,-4.2595 -1.4212,-8.8695 -1.7004,-10.2445 -0.4469,-2.2013 -0.3971,-2.2543 0.4167,-0.4439 1.1602,2.5808 3.5788,17.3306 2.9457,17.9638 -0.258,0.258 -1.0059,-3.0159 -1.662,-7.2754 z M 990.232,1488 c 0,-1.925 0.2058,-2.7125 0.45733,-1.75 0.25152,0.9625 0.25152,2.5375 0,3.5 -0.25153,0.9625 -0.45733,0.175 -0.45733,-1.75 z m -5.15305,-28.5833 c 0.048,-1.165 0.28494,-1.4019 0.60416,-0.6042 0.28887,0.7219 0.25335,1.5844 -0.0789,1.9167 -0.33229,0.3323 -0.56864,-0.2584 -0.52522,-1.3125 z M 1044.5,2871 c 0.3399,-0.55 1.4521,-1 2.4716,-1 1.8958,0 12.1421,-7.9232 17.5284,-13.5542 5.8312,-6.0961 10.5,-11.6797 10.5,-12.5573 0,-0.4887 0.5651,-0.8885 1.2559,-0.8885 0.6907,0 1.8221,-1.2375 2.5142,-2.75 0.692,-1.5125 3.2727,-5 5.7349,-7.75 2.4621,-2.75 4.4807,-5.5074 4.4858,-6.1276 0,-0.6201 0.7454,-1.7385 1.6452,-2.4853 1.4115,-1.1714 3.6648,-4.3369 7.8436,-11.0188 0.5612,-0.8974 2.9329,-4.3602 5.2704,-7.6951 2.3375,-3.3349 4.25,-6.3119 4.25,-6.6155 0,-0.3037 2.025,-3.3029 4.5,-6.6649 2.475,-3.362 4.5,-6.8154 4.5,-7.6741 0,-0.8587 0.7675,-2.4093 1.7056,-3.4459 1.3933,-1.5396 1.4849,-2.2406 0.5,-3.8287 -0.6631,-1.0693 -1.7681,-2.9566 -2.4556,-4.1941 -0.6875,-1.2375 -1.925,-3.0862 -2.75,-4.1082 -1.702,-2.1083 -20.0136,-14.541 -26.9292,-18.2836 -2.5139,-1.3605 -7.4958,-4.0792 -11.0708,-6.0417 -26.196,-14.3801 -75,-30.1274 -75,-24.1999 0,0.4859 0.675,0.8834 1.5,0.8834 1.6814,0 2.045,2.5451 0.5,3.5 -0.55,0.3399 -1,1.7461 -1,3.1248 0,1.3787 -0.4026,3.2646 -0.8946,4.1909 -0.492,0.9264 -1.11136,5.2843 -1.37634,9.6843 -0.26499,4.4 -0.76355,9.125 -1.10792,10.5 -1.08106,4.3164 -0.79478,35.2264 0.33674,36.3579 0.57316,0.5731 1.04212,2.5005 1.04212,4.2831 0,1.7825 0.45,3.5191 1,3.859 0.55,0.3399 1,2.1399 1,4 0,1.8601 0.3907,3.6234 0.8682,3.9185 0.4775,0.2952 1.1556,2.6842 1.5069,5.3091 0.3513,2.6248 1.3106,6.0613 2.1318,7.6367 0.8212,1.5754 1.4931,3.944 1.4931,5.2636 0,1.3196 0.4282,3.1806 0.9516,4.1357 1.0796,1.9701 3.2044,7.0724 5.0958,12.2364 0.7051,1.925 1.8074,4.175 2.4496,5 0.6423,0.825 1.9387,3.1864 2.8811,5.2476 5.8866,12.875 21.9905,26.819 25.1219,21.7524 z m 185.675,-541 c 0.096,-2.2 0.3219,-5.2375 0.5013,-6.75 0.1795,-1.5125 0.5798,-7.7 0.8896,-13.75 0.3097,-6.05 0.9643,-11.9 1.4545,-13 0.4902,-1.1 1.1103,-5.15 1.3781,-9 0.9811,-14.109 1.7792,-21.046 2.6462,-23 0.4881,-1.1 1.1146,-5.375 1.3924,-9.5 0.2777,-4.125 0.9365,-11.55 1.464,-16.5 1.8026,-16.9152 3.0196,-36.9927 3.6067,-59.5 0.6207,-23.7963 1.3985,-28.9597 5.6089,-37.2364 0.4858,-0.9551 0.8833,-2.616 0.8833,-3.691 0,-1.075 0.45,-2.2327 1,-2.5726 0.55,-0.3399 1,-2.1396 1,-3.9992 0,-1.8597 1.3279,-5.9407 2.9509,-9.0689 4.7214,-9.1 7.5424,-54.4804 4.6891,-75.4319 -0.3371,-2.475 -1.1079,-9.9 -1.713,-16.5 -1.4563,-15.8845 -2.6765,-27.4545 -3.7966,-36 -0.5046,-3.85 -1.2278,-9.7 -1.6069,-13 -0.3791,-3.3 -0.9365,-6.675 -1.2386,-7.5 -0.3022,-0.825 -0.6786,-2.4602 -0.8365,-3.6339 -0.2798,-2.0787 -3.9118,-13.8605 -5.5076,-17.8661 -0.6337,-1.5905 -1.6621,-6.1529 -2.3668,-10.5 -1.0768,-6.6424 -4.1372,-11.9455 -6.9299,-12.0081 -9.3205,-0.209 -19.616,-0.9476 -27.6441,-1.9833 -8.702,-1.1226 -17.5419,-1.1972 -67.1658,-0.5669 -8.8838,0.1128 -14.1693,0.5915 -15.1049,1.368 -0.7916,0.657 -3.642,2.3531 -6.3343,3.7692 -8.2429,4.3359 -21.395,21.8649 -21.395,28.5153 0,1.4499 -0.9292,3.8174 -2.065,5.2613 -1.1357,1.4438 -1.835,2.9973 -1.554,3.452 0.2811,0.4548 -0.167,2.7948 -0.9956,5.2 -0.8287,2.4052 -1.2666,5.3298 -0.9731,6.499 0.2934,1.1692 -0.1638,3.1214 -1.0161,4.3383 -1.7093,2.4403 -1.3644,5.1056 2.6727,20.6552 4.1171,15.8579 6.1907,22.0762 8.8367,26.5 5.5068,9.2067 15.7623,33.4642 45.991,108.7834 15.6417,38.9736 39.4031,95.5693 48.7004,115.9962 1.3216,2.9038 2.403,5.478 2.403,5.7204 0,0.2424 1.0903,2.8244 2.4229,5.7377 1.3325,2.9133 3.3927,7.7641 4.578,10.7796 1.1853,3.0155 2.795,6.9452 3.5771,8.7327 0.7821,1.7875 2.0601,4.7125 2.8401,6.5 1.7749,4.0679 8.3117,20.7531 12.1449,31 3.2549,8.7009 4.3562,9.5964 4.612,3.75 z M 1071,2000.0306 c 2.563,-0.6645 4.0461,-2.9676 8.3907,-13.0306 4.4116,-10.218 4.6269,-13.0313 0.4783,-6.25 -1.2618,2.0625 -2.761,4.2412 -3.3316,4.8416 -0.5706,0.6004 -2.0574,2.435 -3.3042,4.0767 -2.9756,3.9186 -10.6892,9.6552 -13.5052,10.044 -1.2254,0.1692 -3.578,0.7115 -5.228,1.2052 -3.4594,1.0351 12.3677,0.1844 16.5,-0.8869 z m 216.1276,-80.7806 c 1.2438,-1.5861 1.2085,-1.6214 -0.3776,-0.3776 -1.6657,1.3064 -2.1955,2.1276 -1.3724,2.1276 0.2076,0 0.9951,-0.7875 1.75,-1.75 z M 1298,1901 c 0,-0.55 -0.1984,-1 -0.441,-1 -0.2425,0 -0.7191,0.45 -1.059,1 -0.3399,0.55 -0.1415,1 0.441,1 0.5824,0 1.059,-0.45 1.059,-1 z"
     id="path1" /><path
     style="display:inline;opacity:0.752;fill:#000000"
     d="m 1230.5,3131.7728 c -3.3,-0.4633 -8.25,-1.2922 -11,-1.842 -2.75,-0.5499 -6.125,-1.1884 -7.5,-1.4189 -1.375,-0.2306 -4.4125,-1.0951 -6.75,-1.9212 -2.3375,-0.8261 -4.25,-1.3199 -4.25,-1.0974 0,0.2226 -1.6875,-0.3004 -3.75,-1.1622 -2.0625,-0.8618 -3.975,-1.5268 -4.25,-1.4778 -3.4513,0.6151 -13.9727,-5.0328 -14.7234,-7.9035 -0.4546,-1.7384 -0.8422,-2.0067 -2.7871,-1.9295 -0.2807,0.011 -1.851,-0.673 -3.4895,-1.5203 -1.6385,-0.8473 -3.2281,-1.4848 -3.5324,-1.4167 -0.8153,0.1824 -6.751,-2.3446 -8.3302,-3.5463 -2.9301,-2.2298 -9.6239,-8.7373 -9.3874,-9.1261 0.1375,-0.226 0.213,-0.5234 0.1678,-0.6609 -2.3884,-7.2613 3.9302,-18.0075 8.2758,-14.0748 1.7222,1.5586 1.8079,1.3597 1.8382,-4.2702 0.04,-7.3772 0.176,-7.537 20.3618,-23.888 4.8574,-3.9346 21.7404,-14.517 23.1602,-14.517 0.2179,0 3.3437,-1.35 6.9462,-3 3.6025,-1.65 6.8763,-3.0028 7.275,-3.0062 0.3988,0 2.0167,-0.6798 3.5955,-1.5032 32.0256,-16.7023 72.1253,-6.6187 82.5323,20.7539 0.5078,1.3355 3.7203,8.3933 7.1389,15.6838 12.035,25.6661 6.6304,41.9852 -18.4013,55.5622 -2.6728,1.4497 -5.716,3.4336 -6.7626,4.4087 -4.1417,3.8586 -37.3156,5.5494 -56.3778,2.8736 z m -201.3978,-258.064 c -6.0374,-3.0323 -10.0317,-11.2705 -18.2829,-37.7088 -1.1158,-3.575 -2.3913,-6.95 -2.8345,-7.5 -0.4432,-0.55 -1.1221,-2.6925 -1.5087,-4.761 -0.3865,-2.0686 -1.1018,-4.0077 -1.5895,-4.3091 -0.4876,-0.3013 -0.8931,-1.5339 -0.9012,-2.7389 -0.01,-1.2051 -0.7512,-4.216 -1.6516,-6.691 -1.4979,-4.1175 -2.7579,-9.9593 -5.39198,-25 -1.46528,-8.3668 0.47057,-41.6472 3.28308,-56.4409 0.8598,-4.5229 0.8484,-6.0347 -0.048,-6.3334 -2.77569,-0.9252 -1.25864,-5.1201 2.0728,-5.7318 6.2638,-1.15 30.8005,5.9644 53.25,15.4399 16.9368,7.1487 41.0625,20.4649 54.3598,30.0039 11.8843,8.5254 14.0074,22.2882 4.6378,30.0643 -0.8781,0.7288 -2.4521,3.2029 -3.4976,5.498 -1.0455,2.2951 -2.5983,4.7516 -3.4505,5.4589 -0.8522,0.7073 -1.5495,1.8361 -1.5495,2.5086 0,0.6724 -0.939,2.0723 -2.0867,3.111 -2.3189,2.0986 -7.9133,10.0853 -7.9133,11.2973 0,0.4266 -1.1541,1.8598 -2.5646,3.1849 -1.4105,1.3251 -3.2969,3.9526 -4.192,5.8388 -0.895,1.8862 -3.3354,5.2679 -5.4229,7.515 -2.0876,2.247 -3.8012,4.3792 -3.808,4.7383 -0.01,0.359 -2.6985,3.509 -5.9813,7 -3.2828,3.4909 -5.9828,6.8629 -6,7.4931 -0.017,0.6303 -1.8683,2.6553 -4.1136,4.5 -2.2454,1.8448 -5.7329,4.7343 -7.75,6.4211 -2.0172,1.6869 -5.4676,3.8362 -7.6676,4.7763 -2.2,0.9401 -5.274,2.3725 -6.831,3.183 -3.8764,2.0178 -7.3746,1.7902 -12.5668,-0.8175 z"
     id="path2" /></svg>
