<svg width="2400" height="3200" xmlns="http://www.w3.org/2000/svg" viewBox="0 0 2400 3200"><path d="M 1260.5 3135.59 C 1248.95 3135.74 1237.03 3135.46 1234.0 3134.97 C 1230.97 3134.47 1226.03 3133.56 1223.0 3132.94 C 1219.97 3132.31 1213.45 3130.9 1208.5 3129.8 C 1203.55 3128.7 1196.35 3126.93 1192.5 3125.86 C 1188.65 3124.8 1183.7 3123.42 1181.5 3122.79 C 1179.3 3122.17 1177.05 3121.13 1176.5 3120.49 C 1175.95 3119.84 1173.42 3118.39 1170.88 3117.27 C 1168.34 3116.14 1164.51 3113.7 1162.38 3111.84 C 1160.24 3109.97 1157.29 3107.84 1155.82 3107.09 C 1154.35 3106.35 1151.32 3103.28 1149.1 3100.28 C 1146.88 3097.28 1144.76 3093.26 1144.4 3091.34 C 1144.04 3089.42 1144.05 3085.97 1144.41 3083.67 C 1144.77 3081.38 1145.42 3077.47 1145.85 3075.0 C 1146.28 3072.53 1147.35 3068.93 1148.22 3067.0 C 1149.09 3065.07 1150.25 3062.1 1150.8 3060.39 C 1151.42 3058.45 1151.46 3055.82 1150.9 3053.39 C 1150.4 3051.25 1148.81 3044.55 1147.36 3038.5 C 1145.91 3032.45 1144.35 3023.9 1143.91 3019.5 C 1143.46 3015.1 1142.59 3007.68 1141.98 3003.0 C 1141.37 2998.32 1140.48 2991.57 1140.0 2988.0 C 1139.52 2984.43 1138.57 2977.45 1137.88 2972.5 C 1137.2 2967.55 1136.69 2961.81 1136.74 2959.75 C 1136.8 2957.69 1136.84 2954.65 1136.83 2953.0 C 1136.83 2951.35 1136.78 2947.86 1136.72 2945.25 C 1136.67 2942.64 1137.16 2935.55 1137.81 2929.5 C 1138.46 2923.45 1139.81 2915.57 1140.81 2912.0 C 1141.81 2908.43 1143.37 2903.93 1144.26 2902.0 C 1145.16 2900.07 1147.29 2892.65 1148.99 2885.5 C 1150.69 2878.35 1152.48 2870.93 1152.97 2869.0 C 1153.45 2867.07 1154.36 2862.8 1154.99 2859.5 C 1155.61 2856.2 1156.5 2852.15 1156.97 2850.5 C 1157.43 2848.85 1158.28 2845.25 1158.86 2842.5 C 1159.43 2839.75 1160.42 2834.8 1161.06 2831.5 C 1161.69 2828.2 1164.01 2817.85 1166.22 2808.5 C 1168.43 2799.15 1172.03 2784.07 1174.22 2775.0 C 1176.42 2765.93 1179.04 2755.8 1180.05 2752.5 C 1181.07 2749.2 1182.37 2743.77 1182.95 2740.44 C 1183.53 2737.11 1184.0 2732.49 1184.0 2730.19 C 1184.0 2726.59 1183.7 2726.0 1181.89 2726.0 C 1180.52 2726.0 1174.76 2730.88 1165.64 2739.75 C 1157.86 2747.31 1149.75 2754.4 1147.61 2755.5 C 1145.46 2756.6 1143.4 2758.18 1143.01 2759.0 C 1142.63 2759.82 1141.7 2761.62 1140.96 2763.0 C 1140.22 2764.38 1137.07 2770.52 1133.95 2776.65 C 1130.83 2782.78 1127.32 2789.15 1126.14 2790.8 C 1124.96 2792.46 1124.0 2794.1 1124.0 2794.45 C 1124.0 2794.8 1121.75 2798.42 1119.0 2802.5 C 1116.25 2806.58 1114.0 2810.18 1114.0 2810.5 C 1114.0 2810.82 1111.64 2814.5 1108.75 2818.66 C 1105.86 2822.83 1101.7 2828.8 1099.5 2831.93 C 1097.3 2835.06 1093.92 2839.58 1092.0 2841.97 C 1090.08 2844.36 1084.45 2850.63 1079.51 2855.91 C 1074.56 2861.18 1068.6 2866.79 1066.26 2868.37 C 1063.92 2869.95 1062.0 2871.57 1062.0 2871.99 C 1062.0 2872.4 1060.21 2873.92 1058.02 2875.37 C 1055.83 2876.82 1053.57 2878.0 1052.99 2878.0 C 1052.41 2878.0 1050.73 2878.79 1049.26 2879.75 C 1047.8 2880.71 1044.55 2882.04 1042.05 2882.71 C 1039.55 2883.37 1036.24 2883.93 1034.7 2883.96 C 1033.16 2883.98 1030.65 2883.35 1029.12 2882.56 C 1027.59 2881.77 1024.51 2878.73 1022.27 2875.81 C 1020.03 2872.89 1017.25 2868.78 1016.08 2866.69 C 1014.92 2864.59 1013.25 2861.79 1012.38 2860.46 C 1011.51 2859.13 1010.44 2856.57 1010.0 2854.77 C 1009.56 2852.97 1007.99 2848.12 1006.51 2844.0 C 1005.03 2839.88 1003.04 2834.7 1002.09 2832.5 C 1001.14 2830.3 999.85 2826.7 999.23 2824.5 C 998.61 2822.3 996.76 2816.0 995.14 2810.5 C 993.51 2805.0 991.7 2797.57 991.12 2794.0 C 990.53 2790.43 989.51 2784.06 988.85 2779.87 C 987.92 2773.97 987.92 2769.76 988.83 2761.37 C 989.47 2755.39 990.01 2748.03 990.02 2745.0 C 990.03 2741.97 990.66 2736.12 991.42 2732.0 C 992.18 2727.88 993.76 2721.57 994.94 2718.0 C 996.11 2714.43 998.24 2709.74 999.66 2707.58 C 1001.09 2705.42 1004.88 2701.23 1008.09 2698.26 C 1011.3 2695.28 1016.76 2690.75 1020.21 2688.17 C 1023.67 2685.6 1029.09 2681.07 1032.25 2678.1 C 1035.41 2675.13 1038.0 2672.29 1038.0 2671.78 C 1038.0 2671.28 1039.25 2668.98 1040.78 2666.68 C 1042.31 2664.38 1044.16 2661.15 1044.9 2659.5 C 1045.63 2657.85 1046.67 2655.65 1047.21 2654.61 C 1047.75 2653.58 1049.05 2651.2 1050.09 2649.33 C 1051.14 2647.47 1052.0 2645.5 1052.0 2644.96 C 1052.0 2644.42 1052.94 2641.85 1054.1 2639.24 C 1055.25 2636.63 1057.05 2632.86 1058.1 2630.86 C 1059.14 2628.86 1060.01 2626.39 1060.03 2625.36 C 1060.05 2624.34 1061.4 2620.81 1063.03 2617.53 C 1064.66 2614.24 1066.0 2611.2 1066.0 2610.76 C 1066.0 2610.33 1066.84 2608.07 1067.88 2605.74 C 1068.91 2603.41 1070.71 2599.08 1071.88 2596.12 C 1073.04 2593.16 1074.0 2590.11 1074.0 2589.36 C 1074.0 2588.6 1074.88 2586.07 1075.95 2583.74 C 1077.02 2581.41 1078.77 2576.57 1079.84 2573.0 C 1080.91 2569.43 1082.74 2563.12 1083.91 2559.0 C 1085.08 2554.88 1086.74 2549.47 1087.6 2547.0 C 1088.46 2544.53 1091.53 2533.05 1094.42 2521.5 C 1097.32 2509.95 1100.24 2497.12 1100.92 2493.0 C 1101.6 2488.88 1102.38 2484.6 1102.65 2483.5 C 1102.92 2482.4 1103.58 2479.93 1104.12 2478.0 C 1104.66 2476.07 1105.5 2471.57 1106.0 2468.0 C 1106.49 2464.43 1107.39 2458.57 1108.0 2455.0 C 1108.61 2451.43 1109.5 2445.57 1109.99 2442.0 C 1110.48 2438.43 1111.17 2434.54 1111.52 2433.37 C 1111.92 2432.06 1111.32 2429.6 1109.95 2426.91 C 1107.96 2422.99 1107.82 2421.77 1108.54 2414.53 C 1108.98 2410.11 1109.35 2404.47 1109.36 2402.0 C 1109.37 2399.53 1109.04 2394.8 1108.62 2391.5 C 1108.19 2388.2 1107.47 2384.6 1107.01 2383.5 C 1106.56 2382.4 1105.65 2379.25 1105.0 2376.5 C 1104.35 2373.75 1102.01 2365.65 1099.8 2358.5 C 1097.59 2351.35 1094.88 2343.03 1093.78 2340.0 C 1092.67 2336.97 1091.18 2333.15 1090.46 2331.5 C 1089.74 2329.85 1088.41 2326.25 1087.5 2323.5 C 1086.6 2320.75 1084.8 2316.25 1083.49 2313.5 C 1082.19 2310.75 1080.39 2306.25 1079.49 2303.5 C 1078.59 2300.75 1076.54 2295.72 1074.93 2292.31 C 1073.32 2288.91 1072.0 2285.76 1072.0 2285.32 C 1072.0 2284.87 1064.97 2270.44 1056.38 2253.25 C 1047.8 2236.06 1040.18 2222.0 1039.47 2222.0 C 1038.72 2222.0 1037.73 2219.96 1037.14 2217.23 C 1036.55 2214.48 1033.14 2207.51 1029.06 2200.74 C 1025.18 2194.29 1022.0 2188.74 1022.0 2188.41 C 1022.0 2188.08 1021.15 2186.61 1020.12 2185.15 C 1019.08 2183.69 1017.28 2180.81 1016.12 2178.75 C 1014.95 2176.69 1013.16 2173.54 1012.12 2171.75 C 1011.09 2169.96 1008.33 2165.35 1005.98 2161.5 C 1003.62 2157.65 999.07 2150.55 995.85 2145.72 C 992.63 2140.89 990.0 2136.76 990.0 2136.54 C 990.0 2136.32 987.64 2132.68 984.75 2128.43 C 981.86 2124.19 979.04 2120.0 978.48 2119.11 C 977.92 2118.22 976.29 2115.7 974.86 2113.5 C 973.43 2111.3 971.3 2108.64 970.13 2107.6 C 968.96 2106.55 968.0 2105.32 968.0 2104.87 C 968.0 2104.41 965.26 2100.55 961.91 2096.27 C 958.56 2092.0 952.43 2084.0 948.29 2078.5 C 944.15 2073.0 939.13 2066.65 937.13 2064.38 C 935.13 2062.11 931.85 2058.29 929.83 2055.88 C 927.8 2053.47 925.22 2050.51 924.08 2049.29 C 922.93 2048.08 922.0 2046.71 922.0 2046.24 C 922.0 2045.78 917.51 2040.7 912.02 2034.95 C 906.53 2029.2 902.03 2024.47 902.02 2024.44 C 902.01 2024.41 899.99 2022.23 897.54 2019.59 C 895.08 2016.96 892.8 2013.83 892.47 2012.65 C 892.14 2011.47 891.06 2008.7 890.08 2006.5 C 889.09 2004.3 887.77 2000.89 887.14 1998.93 C 886.51 1996.96 886.0 1994.45 886.0 1993.35 C 886.0 1992.24 885.71 1991.04 885.35 1990.68 C 884.99 1990.33 884.53 1986.46 884.32 1982.1 C 884.09 1977.3 884.35 1973.9 884.97 1973.52 C 885.54 1973.17 886.0 1971.81 886.0 1970.5 C 886.0 1969.19 886.4 1967.87 886.89 1967.57 C 887.37 1967.27 888.09 1965.35 888.47 1963.31 C 888.85 1961.27 889.8 1958.69 890.58 1957.58 C 891.53 1956.23 891.99 1952.87 891.98 1947.53 C 891.96 1943.11 891.53 1937.7 891.0 1935.5 C 890.48 1933.3 889.82 1926.55 889.52 1920.5 C 889.23 1914.45 888.52 1905.22 887.94 1900.0 C 887.37 1894.78 886.48 1887.8 885.97 1884.5 C 885.46 1881.2 884.8 1876.25 884.49 1873.5 C 884.18 1870.75 883.43 1865.8 882.81 1862.5 C 882.2 1859.2 881.59 1848.62 881.46 1839.0 C 881.33 1829.38 880.98 1820.15 880.68 1818.5 C 880.38 1816.85 879.84 1812.13 879.48 1808.01 C 879.12 1803.9 878.66 1800.27 878.47 1799.95 C 878.27 1799.63 877.43 1792.88 876.59 1784.94 C 875.75 1777.0 874.82 1765.78 874.53 1760.0 C 874.23 1754.22 873.71 1745.56 873.38 1740.75 C 873.06 1735.94 872.39 1732.0 871.89 1732.0 C 871.4 1732.0 870.92 1734.14 870.83 1736.75 C 870.67 1741.46 870.66 1741.47 870.27 1737.5 C 870.05 1735.3 869.45 1733.07 868.93 1732.55 C 868.42 1732.03 868.0 1729.69 868.0 1727.36 C 868.0 1725.03 867.61 1722.88 867.14 1722.59 C 866.67 1722.3 866.02 1719.85 865.7 1717.14 C 865.38 1714.44 865.52 1709.36 866.02 1705.86 C 866.51 1702.36 867.89 1695.22 869.07 1690.0 C 870.26 1684.78 872.77 1675.78 874.65 1670.0 C 876.53 1664.22 878.44 1658.6 878.89 1657.5 C 879.34 1656.4 880.67 1653.35 881.85 1650.72 C 883.03 1648.1 884.0 1645.34 884.0 1644.61 C 884.0 1643.87 884.9 1642.13 886.0 1640.73 C 887.1 1639.33 888.0 1637.65 888.0 1636.99 C 888.0 1636.33 889.12 1633.55 890.5 1630.81 C 891.87 1628.08 893.0 1625.25 893.0 1624.54 C 893.0 1623.83 893.62 1622.73 894.38 1622.1 C 895.14 1621.47 896.0 1619.73 896.3 1618.23 C 896.6 1616.73 898.01 1613.79 899.43 1611.71 C 900.84 1609.62 902.0 1607.25 902.0 1606.44 C 902.0 1605.63 902.39 1604.19 902.87 1603.24 C 903.36 1602.28 904.63 1599.7 905.7 1597.5 C 906.77 1595.3 908.13 1592.6 908.71 1591.5 C 909.29 1590.4 910.21 1588.38 910.74 1587.0 C 911.28 1585.62 912.6 1582.7 913.68 1580.5 C 914.77 1578.3 916.16 1575.6 916.77 1574.5 C 917.39 1573.4 921.63 1564.85 926.2 1555.5 C 930.76 1546.15 934.75 1538.28 935.05 1538.0 C 935.36 1537.72 936.36 1535.87 937.28 1533.89 C 938.21 1531.9 939.65 1529.71 940.48 1529.02 C 941.32 1528.32 942.0 1527.22 942.0 1526.56 C 942.0 1525.9 943.38 1522.81 945.06 1519.7 C 946.75 1516.58 948.55 1513.78 949.06 1513.46 C 949.58 1513.14 950.0 1512.1 950.0 1511.15 C 950.0 1510.2 951.33 1507.87 952.96 1505.96 C 954.59 1504.06 955.94 1501.95 955.96 1501.28 C 955.98 1500.61 956.98 1498.36 958.19 1496.28 C 959.39 1494.2 961.71 1490.03 963.34 1487.0 C 964.97 1483.97 967.3 1479.61 968.5 1477.29 C 969.7 1474.98 971.2 1472.46 971.83 1471.7 C 972.47 1470.94 973.89 1467.49 974.99 1464.03 C 976.1 1460.57 977.0 1456.8 977.0 1455.64 C 977.0 1454.49 978.19 1450.38 979.63 1446.52 C 981.08 1442.66 982.66 1439.07 983.13 1438.55 C 983.61 1438.03 984.0 1436.94 984.0 1436.14 C 984.0 1435.34 986.67 1429.24 989.94 1422.59 C 993.21 1415.94 997.9 1407.8 1000.37 1404.5 C 1002.83 1401.2 1006.12 1396.78 1007.67 1394.67 C 1009.23 1392.56 1012.19 1388.91 1014.25 1386.56 C 1016.31 1384.2 1018.0 1381.93 1018.0 1381.51 C 1018.0 1381.09 1019.46 1378.99 1021.25 1376.86 C 1023.04 1374.72 1026.19 1371.02 1028.25 1368.62 C 1030.31 1366.23 1032.0 1363.78 1032.0 1363.16 C 1032.0 1362.55 1033.35 1361.35 1035.0 1360.5 C 1036.65 1359.65 1038.0 1358.47 1038.0 1357.88 C 1038.0 1357.29 1039.8 1354.76 1042.0 1352.26 C 1044.2 1349.76 1046.0 1347.33 1046.0 1346.86 C 1046.0 1346.39 1046.69 1346.0 1047.52 1346.0 C 1048.36 1346.0 1049.44 1344.99 1049.92 1343.75 C 1050.4 1342.51 1054.86 1337.67 1059.83 1333.0 C 1064.8 1328.33 1070.72 1322.96 1072.98 1321.09 C 1075.25 1319.21 1079.11 1315.04 1081.55 1311.82 C 1084.0 1308.61 1086.0 1305.78 1086.0 1305.53 C 1086.0 1305.29 1089.33 1300.68 1093.39 1295.29 C 1097.46 1289.91 1101.96 1284.41 1103.39 1283.08 C 1104.83 1281.74 1106.0 1280.15 1106.0 1279.55 C 1106.0 1278.94 1108.83 1275.64 1112.28 1272.21 C 1116.76 1267.78 1120.14 1265.41 1124.02 1263.99 C 1127.02 1262.9 1131.96 1262.0 1134.99 1262.0 C 1138.03 1262.0 1142.09 1261.52 1144.01 1260.93 C 1145.93 1260.34 1149.97 1259.71 1153.0 1259.54 C 1156.03 1259.36 1161.2 1258.74 1164.5 1258.15 C 1167.8 1257.57 1172.97 1256.61 1176.0 1256.03 C 1179.03 1255.44 1188.25 1254.54 1196.5 1254.02 C 1204.75 1253.51 1215.48 1252.77 1220.34 1252.39 C 1225.31 1252.0 1235.6 1252.21 1243.84 1252.88 C 1251.9 1253.53 1262.33 1254.53 1267.0 1255.09 C 1271.67 1255.66 1278.2 1256.56 1281.5 1257.11 C 1284.8 1257.65 1289.97 1258.57 1293.0 1259.15 C 1296.03 1259.73 1299.4 1260.57 1300.5 1261.0 C 1301.6 1261.44 1304.08 1262.37 1306.0 1263.08 C 1307.92 1263.78 1311.41 1265.65 1313.75 1267.23 C 1316.09 1268.81 1320.25 1272.35 1323.0 1275.1 C 1325.75 1277.85 1328.0 1280.52 1328.0 1281.04 C 1328.0 1281.56 1329.63 1284.12 1331.63 1286.74 C 1333.63 1289.35 1336.21 1292.12 1337.38 1292.89 C 1338.55 1293.66 1341.86 1296.57 1344.75 1299.36 C 1347.64 1302.15 1350.0 1304.78 1350.0 1305.21 C 1350.0 1305.63 1351.62 1308.11 1353.61 1310.71 C 1355.59 1313.31 1357.8 1315.9 1358.52 1316.47 C 1359.24 1317.04 1364.19 1323.35 1369.54 1330.5 C 1374.88 1337.64 1379.51 1344.17 1379.82 1345.0 C 1380.13 1345.82 1382.46 1349.2 1384.99 1352.5 C 1387.53 1355.8 1391.12 1360.75 1392.98 1363.5 C 1394.84 1366.25 1398.86 1371.33 1401.93 1374.78 C 1404.99 1378.24 1410.76 1384.67 1414.75 1389.07 C 1418.74 1393.48 1422.02 1397.85 1422.04 1398.79 C 1422.06 1399.73 1423.41 1402.06 1425.04 1403.96 C 1426.67 1405.87 1428.0 1407.89 1428.0 1408.46 C 1428.0 1409.04 1430.69 1414.9 1433.98 1421.5 C 1437.27 1428.1 1439.97 1434.11 1439.98 1434.85 C 1439.99 1435.59 1440.82 1437.39 1441.81 1438.85 C 1442.81 1440.31 1444.2 1443.53 1444.89 1446.0 C 1445.58 1448.47 1446.98 1452.3 1447.99 1454.5 C 1449.01 1456.7 1450.31 1460.75 1450.89 1463.5 C 1451.48 1466.25 1452.18 1469.66 1452.45 1471.08 C 1452.73 1472.5 1455.26 1476.78 1458.08 1480.58 C 1460.9 1484.39 1463.59 1488.49 1464.06 1489.7 C 1464.53 1490.91 1466.06 1492.65 1467.46 1493.56 C 1468.85 1494.48 1470.0 1495.78 1470.0 1496.45 C 1470.0 1497.13 1472.16 1501.91 1474.79 1507.09 C 1477.43 1512.27 1481.38 1519.2 1483.57 1522.5 C 1485.76 1525.8 1488.2 1529.85 1488.99 1531.5 C 1489.78 1533.15 1491.27 1535.74 1492.29 1537.26 C 1493.32 1538.79 1495.84 1543.29 1497.9 1547.26 C 1499.95 1551.24 1502.13 1555.4 1502.74 1556.5 C 1503.34 1557.6 1505.68 1562.39 1507.92 1567.15 C 1510.16 1571.91 1512.0 1576.2 1512.0 1576.68 C 1512.0 1577.16 1513.34 1580.24 1514.97 1583.53 C 1516.6 1586.81 1517.95 1589.99 1517.97 1590.58 C 1517.99 1591.17 1519.11 1593.86 1520.48 1596.55 C 1521.84 1599.25 1523.72 1603.93 1524.65 1606.97 C 1525.58 1610.01 1527.08 1613.62 1527.98 1615.0 C 1528.88 1616.38 1530.69 1620.88 1531.99 1625.0 C 1533.3 1629.12 1534.69 1632.95 1535.08 1633.5 C 1535.47 1634.05 1537.67 1640.12 1539.96 1647.0 C 1542.25 1653.88 1544.82 1661.02 1545.67 1662.87 C 1546.52 1664.73 1547.64 1667.65 1548.16 1669.37 C 1548.69 1671.09 1550.01 1675.65 1551.11 1679.5 C 1552.2 1683.35 1554.02 1689.88 1555.15 1694.0 C 1556.27 1698.12 1557.18 1702.17 1557.16 1703.0 C 1557.14 1703.83 1556.84 1705.85 1556.49 1707.5 C 1556.14 1709.15 1554.06 1717.92 1551.86 1727.0 C 1549.66 1736.08 1547.03 1745.75 1546.03 1748.5 C 1545.02 1751.25 1543.64 1755.75 1542.97 1758.5 C 1542.3 1761.25 1541.1 1765.53 1540.3 1768.0 C 1539.51 1770.47 1538.25 1773.85 1537.51 1775.5 C 1536.77 1777.15 1535.2 1781.42 1534.02 1785.0 C 1532.84 1788.58 1531.0 1793.14 1529.94 1795.14 C 1528.87 1797.14 1528.0 1799.5 1528.0 1800.4 C 1528.0 1801.29 1527.14 1803.93 1526.08 1806.26 C 1525.03 1808.59 1523.18 1813.42 1521.97 1817.0 C 1520.76 1820.58 1519.37 1823.93 1518.88 1824.45 C 1518.4 1824.97 1518.0 1826.01 1518.0 1826.75 C 1518.0 1827.49 1517.1 1829.96 1516.0 1832.24 C 1514.9 1834.51 1514.0 1836.76 1514.0 1837.24 C 1514.0 1837.71 1513.1 1839.96 1512.0 1842.24 C 1510.9 1844.51 1510.0 1846.76 1510.0 1847.24 C 1510.0 1847.71 1509.1 1849.96 1508.0 1852.24 C 1506.9 1854.51 1506.0 1856.77 1506.0 1857.25 C 1506.0 1857.73 1504.69 1860.91 1503.09 1864.31 C 1501.49 1867.72 1499.17 1873.42 1497.94 1876.98 C 1496.71 1880.55 1494.96 1884.82 1494.06 1886.48 C 1493.15 1888.14 1491.78 1891.53 1491.02 1894.0 C 1490.25 1896.47 1488.9 1899.62 1488.01 1901.0 C 1487.11 1902.38 1485.31 1906.79 1484.0 1910.81 C 1482.7 1914.83 1481.26 1918.34 1480.81 1918.62 C 1480.37 1918.89 1480.0 1919.77 1480.0 1920.57 C 1480.0 1921.37 1479.13 1923.93 1478.07 1926.26 C 1477.01 1928.59 1475.4 1932.75 1474.51 1935.5 C 1473.61 1938.25 1471.84 1942.75 1470.56 1945.5 C 1469.29 1948.25 1467.29 1952.92 1466.12 1955.88 C 1464.96 1958.84 1464.0 1961.89 1464.0 1962.64 C 1464.0 1963.4 1463.13 1965.93 1462.07 1968.26 C 1461.01 1970.59 1459.41 1974.7 1458.53 1977.4 C 1457.65 1980.09 1455.82 1984.72 1454.46 1987.68 C 1453.11 1990.64 1451.99 1993.61 1451.99 1994.28 C 1451.98 1994.95 1451.27 1997.51 1450.42 1999.97 C 1449.56 2002.42 1447.77 2006.82 1446.43 2009.75 C 1445.09 2012.67 1444.0 2015.7 1444.0 2016.48 C 1444.0 2017.27 1443.51 2019.16 1442.92 2020.7 C 1442.32 2022.24 1440.56 2026.2 1439.0 2029.5 C 1437.44 2032.8 1435.15 2038.88 1433.91 2043.0 C 1432.66 2047.12 1430.42 2053.2 1428.91 2056.5 C 1427.41 2059.8 1425.18 2065.43 1423.97 2069.0 C 1422.76 2072.57 1421.37 2075.93 1420.88 2076.45 C 1420.4 2076.97 1420.0 2077.99 1420.0 2078.71 C 1420.0 2079.43 1419.16 2081.93 1418.13 2084.26 C 1417.1 2086.59 1415.69 2090.38 1414.99 2092.68 C 1414.3 2094.97 1414.03 2097.9 1414.41 2099.18 C 1414.78 2100.45 1415.5 2105.55 1416.0 2110.5 C 1416.5 2115.45 1417.35 2122.88 1417.89 2127.0 C 1418.43 2131.12 1419.62 2139.22 1420.53 2145.0 C 1421.53 2151.33 1422.03 2159.07 1421.8 2164.5 C 1421.55 2170.31 1420.81 2174.71 1419.71 2176.9 C 1418.77 2178.78 1418.0 2180.71 1418.0 2181.21 C 1418.0 2181.7 1416.3 2184.67 1414.22 2187.8 C 1412.15 2190.94 1409.84 2194.85 1409.11 2196.5 C 1408.37 2198.15 1407.29 2200.4 1406.71 2201.5 C 1406.13 2202.6 1404.77 2205.3 1403.69 2207.5 C 1402.6 2209.7 1400.88 2213.14 1399.86 2215.14 C 1398.84 2217.14 1398.0 2219.54 1398.0 2220.48 C 1398.0 2221.42 1397.17 2223.39 1396.16 2224.85 C 1395.15 2226.31 1393.99 2228.4 1393.57 2229.5 C 1393.16 2230.6 1392.42 2233.97 1391.93 2237.0 C 1391.44 2240.03 1390.37 2246.1 1389.54 2250.5 C 1388.71 2254.9 1388.03 2260.37 1388.02 2262.65 C 1388.01 2264.94 1386.84 2270.11 1385.42 2274.15 C 1384.01 2278.19 1382.49 2282.85 1382.05 2284.5 C 1381.62 2286.15 1380.56 2289.3 1379.71 2291.5 C 1378.85 2293.7 1376.82 2301.12 1375.19 2308.0 C 1373.56 2314.88 1371.32 2324.55 1370.21 2329.5 C 1369.11 2334.45 1367.66 2341.2 1367.01 2344.5 C 1366.36 2347.8 1365.44 2352.53 1364.98 2355.0 C 1364.52 2357.47 1363.68 2362.88 1363.11 2367.0 C 1362.53 2371.12 1361.61 2378.1 1361.05 2382.5 C 1360.49 2386.9 1359.6 2394.55 1359.06 2399.5 C 1358.53 2404.45 1357.6 2413.22 1356.99 2419.0 C 1356.39 2424.78 1355.47 2432.65 1354.94 2436.5 C 1354.42 2440.35 1353.57 2447.78 1353.06 2453.0 C 1352.55 2458.22 1351.58 2479.6 1350.9 2500.5 C 1350.05 2526.72 1349.95 2546.25 1350.58 2563.5 C 1351.45 2587.17 1351.39 2588.92 1349.44 2596.5 C 1348.3 2600.9 1346.65 2606.07 1345.77 2608.0 C 1344.89 2609.93 1343.28 2614.65 1342.19 2618.5 C 1341.1 2622.35 1339.75 2627.53 1339.2 2630.0 C 1338.64 2632.47 1337.2 2639.0 1336.0 2644.5 C 1334.8 2650.0 1332.96 2657.44 1331.91 2661.03 C 1330.86 2664.62 1330.0 2668.11 1330.0 2668.79 C 1330.0 2669.47 1329.13 2671.93 1328.06 2674.26 C 1326.99 2676.59 1325.19 2681.39 1324.06 2684.92 C 1322.93 2688.44 1322.0 2692.09 1322.0 2693.03 C 1322.0 2693.96 1321.15 2698.27 1320.11 2702.61 C 1319.07 2706.95 1317.65 2716.0 1316.96 2722.72 C 1316.26 2729.51 1316.02 2737.72 1316.4 2741.22 C 1316.78 2744.67 1317.52 2756.5 1318.04 2767.5 C 1318.55 2778.5 1319.42 2792.9 1319.97 2799.5 C 1320.52 2806.1 1321.42 2817.12 1321.98 2824.0 C 1322.54 2830.88 1323.46 2840.78 1324.03 2846.0 C 1324.59 2851.22 1325.5 2859.32 1326.04 2864.0 C 1326.58 2868.68 1327.31 2877.61 1327.66 2883.86 C 1328.05 2890.86 1327.83 2898.54 1327.09 2903.86 C 1326.43 2908.61 1325.47 2914.53 1324.96 2917.0 C 1324.45 2919.47 1322.62 2927.35 1320.9 2934.5 C 1319.18 2941.65 1315.77 2953.57 1313.32 2961.0 C 1310.87 2968.43 1307.8 2976.75 1306.49 2979.5 C 1305.17 2982.25 1302.79 2988.55 1301.19 2993.5 C 1299.59 2998.45 1297.7 3005.49 1296.98 3009.14 C 1295.93 3014.51 1295.92 3016.7 1296.93 3020.64 C 1297.63 3023.31 1298.65 3026.85 1299.21 3028.5 C 1299.78 3030.15 1301.28 3033.75 1302.56 3036.5 C 1303.83 3039.25 1305.61 3043.75 1306.51 3046.5 C 1307.4 3049.25 1308.81 3052.98 1309.64 3054.8 C 1310.46 3056.61 1312.25 3062.46 1313.6 3067.8 C 1314.95 3073.13 1316.47 3078.85 1316.97 3080.5 C 1317.47 3082.15 1318.87 3087.95 1320.08 3093.38 C 1322.08 3102.4 1322.16 3103.88 1320.97 3110.16 C 1320.1 3114.77 1318.91 3117.82 1317.38 3119.35 C 1316.12 3120.61 1312.93 3122.71 1310.29 3124.03 C 1307.66 3125.34 1304.38 3127.13 1303.0 3128.02 C 1301.62 3128.9 1298.7 3130.15 1296.5 3130.8 C 1294.3 3131.44 1290.03 3132.72 1287.0 3133.64 C 1282.77 3134.92 1276.64 3135.37 1260.5 3135.59 Z M 1228.87 2332.0 L 1231.75 2332.0 C 1232.67 2319.21 1233.38 2311.45 1233.92 2306.5 C 1234.46 2301.55 1235.35 2293.0 1235.91 2287.5 C 1236.47 2282.0 1237.41 2274.57 1238.0 2271.0 C 1238.58 2267.43 1239.5 2260.45 1240.03 2255.5 C 1240.57 2250.55 1241.47 2241.78 1242.03 2236.0 C 1242.59 2230.22 1243.5 2216.72 1244.06 2206.0 C 1244.61 2195.28 1245.43 2178.85 1245.87 2169.5 C 1246.44 2157.38 1247.13 2151.49 1248.28 2149.0 C 1249.17 2147.07 1250.84 2142.35 1251.99 2138.5 C 1253.15 2134.65 1254.63 2129.7 1255.28 2127.5 C 1255.94 2125.3 1257.27 2121.94 1258.24 2120.04 C 1259.21 2118.13 1260.0 2114.96 1260.0 2112.99 C 1260.0 2111.01 1260.47 2108.93 1261.05 2108.35 C 1261.76 2107.64 1261.94 2099.57 1261.62 2083.9 C 1261.35 2071.03 1260.89 2057.8 1260.59 2054.5 C 1260.29 2051.2 1259.57 2042.2 1258.99 2034.5 C 1258.41 2026.8 1257.52 2016.45 1257.01 2011.5 C 1256.5 2006.55 1255.6 1997.55 1255.01 1991.5 C 1254.42 1985.45 1253.44 1977.35 1252.84 1973.5 C 1252.23 1969.65 1250.53 1963.8 1249.06 1960.5 C 1247.58 1957.2 1245.86 1952.7 1245.24 1950.5 C 1244.62 1948.3 1243.06 1943.14 1241.78 1939.04 C 1239.87 1932.91 1239.02 1931.46 1236.98 1930.89 C 1235.62 1930.51 1231.78 1930.15 1228.46 1930.1 C 1224.47 1930.03 1221.08 1929.3 1218.46 1927.94 C 1214.65 1925.95 1212.85 1925.87 1171.29 1925.74 L 1128.09 1925.61 C 1115.61 1931.95 1111.34 1935.05 1108.58 1938.13 C 1106.21 1940.76 1103.52 1944.49 1102.61 1946.42 C 1101.69 1948.34 1100.5 1950.19 1099.96 1950.53 C 1099.41 1950.86 1098.3 1952.74 1097.48 1954.69 C 1096.67 1956.65 1096.0 1959.22 1096.0 1960.42 C 1096.0 1961.62 1095.5 1963.1 1094.89 1963.71 C 1094.28 1964.32 1093.08 1967.45 1092.23 1970.66 C 1091.39 1973.87 1090.67 1978.19 1090.64 1980.25 C 1090.62 1982.31 1090.17 1984.0 1089.66 1984.0 C 1089.09 1984.0 1088.98 1986.91 1089.37 1991.25 C 1089.73 1995.24 1090.87 2001.65 1091.9 2005.5 C 1092.93 2009.35 1094.5 2015.65 1095.38 2019.5 C 1096.32 2023.55 1099.93 2032.39 1103.96 2040.5 C 1107.79 2048.2 1113.15 2059.9 1115.87 2066.5 C 1118.59 2073.1 1121.51 2080.19 1122.36 2082.25 C 1123.2 2084.31 1124.37 2086.0 1124.95 2086.0 C 1125.53 2086.0 1126.0 2086.72 1126.0 2087.6 C 1126.0 2088.47 1126.82 2090.39 1127.83 2091.85 C 1128.83 2093.31 1130.23 2096.07 1130.94 2098.0 C 1131.65 2099.93 1133.08 2103.41 1134.12 2105.74 C 1135.15 2108.07 1136.0 2110.57 1136.0 2111.29 C 1136.0 2112.01 1136.4 2113.03 1136.88 2113.55 C 1137.37 2114.07 1138.76 2117.43 1139.97 2121.0 C 1141.18 2124.57 1143.03 2129.41 1144.08 2131.74 C 1145.14 2134.07 1146.0 2136.35 1146.0 2136.8 C 1146.0 2137.25 1146.9 2139.49 1148.0 2141.76 C 1149.1 2144.04 1150.0 2146.29 1150.0 2146.76 C 1150.0 2147.24 1150.9 2149.49 1152.0 2151.76 C 1153.1 2154.04 1154.0 2156.29 1154.0 2156.76 C 1154.0 2157.24 1154.9 2159.49 1156.0 2161.76 C 1157.1 2164.04 1158.0 2166.27 1158.0 2166.73 C 1158.0 2167.18 1159.34 2170.24 1160.97 2173.53 C 1162.6 2176.81 1163.95 2179.98 1163.97 2180.56 C 1163.99 2181.15 1164.9 2183.49 1166.0 2185.76 C 1167.1 2188.04 1168.0 2190.27 1168.0 2190.73 C 1168.0 2191.18 1169.34 2194.24 1170.97 2197.53 C 1172.6 2200.81 1173.95 2203.98 1173.97 2204.56 C 1173.99 2205.15 1174.9 2207.49 1176.0 2209.76 C 1177.1 2212.04 1178.0 2214.27 1178.0 2214.73 C 1178.0 2215.18 1179.34 2218.24 1180.97 2221.53 C 1182.6 2224.81 1183.95 2227.98 1183.97 2228.56 C 1183.99 2229.15 1184.9 2231.49 1186.0 2233.76 C 1187.1 2236.04 1188.0 2238.27 1188.0 2238.73 C 1188.0 2239.18 1189.34 2242.24 1190.97 2245.53 C 1192.6 2248.81 1193.95 2251.98 1193.97 2252.56 C 1193.99 2253.15 1194.9 2255.49 1196.0 2257.76 C 1197.1 2260.04 1198.0 2262.27 1198.0 2262.73 C 1198.0 2263.18 1199.34 2266.24 1200.97 2269.53 C 1202.6 2272.81 1203.95 2275.96 1203.97 2276.53 C 1203.99 2277.09 1205.34 2280.24 1206.97 2283.53 C 1208.6 2286.81 1209.95 2289.98 1209.97 2290.56 C 1209.99 2291.15 1210.9 2293.49 1212.0 2295.76 C 1213.1 2298.04 1214.0 2300.27 1214.0 2300.73 C 1214.0 2301.18 1215.34 2304.24 1216.97 2307.53 C 1218.6 2310.81 1219.95 2314.02 1219.97 2314.65 C 1219.99 2315.28 1221.35 2318.36 1223.0 2321.5 C 1224.65 2324.64 1226.0 2328.28 1226.0 2329.6 C 1226.0 2331.58 1226.51 2332.0 1228.87 2332.0 Z " opacity="1.0" fill="#000000" stroke="none" fill-rule="evenodd"/></svg>