<?xml version="1.0" encoding="UTF-8" standalone="no"?>
<!-- Created with Inkscape (http://www.inkscape.org/) -->

<svg
   version="1.1"
   id="svg1"
   width="2400"
   height="3200"
   viewBox="0 0 2400 3200"
   xml:space="preserve"
   xmlns="http://www.w3.org/2000/svg"
   xmlns:svg="http://www.w3.org/2000/svg"><defs
     id="defs1" /><path
     style="display:inline;fill:#000000"
     d="m 726.55826,2993.0828 c -5.55916,-0.4836 -16.87437,-3.2384 -22.9285,-5.5821 -2.78933,-1.0798 -8.2215,-3.066 -12.0715,-4.4138 -8.80025,-3.0807 -26.19366,-11.8197 -29.5,-14.8217 -1.375,-1.2485 -3.98565,-3.0198 -5.80145,-3.9364 -1.81579,-0.9165 -3.55144,-2.3179 -3.85699,-3.1141 -0.30554,-0.7963 -1.43697,-1.4477 -2.51429,-1.4477 -7.31991,0 -8.11483,-3.157 -7.88553,-31.3171 0.20018,-24.5844 -0.35996,-28.6521 -5.05144,-36.6829 -3.07713,-5.2675 -23.53533,-48.9909 -25.50056,-54.5 -0.98098,-2.75 -2.36998,-5.3599 -3.08667,-5.7997 -0.71669,-0.4399 -1.30307,-1.2778 -1.30307,-1.8621 0,-1.2414 -8.63066,-23.397 -10.25999,-26.3382 -3.32636,-6.0047 -5.36538,-10.9823 -11.87948,-29 -1.59077,-4.4 -4.69286,-17.225 -6.89355,-28.5 -4.532,-23.2193 -6.88718,-34.276 -10.97001,-51.5 -3.44436,-14.5306 -7.04381,-31.409 -10.55631,-49.5 -4.88186,-25.144 -15.00013,-58.6783 -24.36466,-80.75 -1.6918,-3.9875 -4.36943,-10.3077 -5.95029,-14.0448 -3.3966,-8.0294 -13.9056,-28.4074 -18.67121,-36.2052 -1.8487,-3.025 -4.94604,-8.5041 -6.88299,-12.1756 -1.93694,-3.6716 -3.94935,-6.9399 -4.47202,-7.263 -1.67653,-1.0361 -10.92609,-20.9727 -12.11095,-26.1041 -1.33875,-5.7977 -2.94575,-10.1766 -7.50762,-20.4573 -10.99049,-24.7684 -10.69589,-24.2775 -21.73092,-36.2116 -3.1625,-3.4201 -5.75,-6.5195 -5.75,-6.8874 0,-0.944 -10.17056,-10.901 -11.13482,-10.901 -3.84791,0 -2.78169,-6.6398 1.20689,-7.5159 1.59775,-0.3509 3.167,-1.062 3.48723,-1.5801 0.32023,-0.5181 2.68789,-2.014 5.26147,-3.3241 6.3049,-3.2095 8.70431,-6.1063 10.13126,-12.2313 2.90413,-12.4656 25.97164,-39.0335 38.75014,-44.6304 3.39383,-1.4865 8.08415,-4.4609 10.81515,-6.8586 4.50192,-3.9524 30.64073,-17.8596 33.56751,-17.8596 1.57668,0 5.68663,-1.7455 21.85235,-9.2805 3.84913,-1.7941 8.6737,-5.2023 12,-8.4771 3.05955,-3.0122 7.92948,-7.2412 10.82205,-9.3979 7.12515,-5.3125 14.25583,-19.0726 19.3524,-37.3445 6.99668,-25.0841 6.7684,-97.5274 -0.34118,-108.2707 -1.42882,-2.1591 -4.68598,-7.9315 -7.23812,-12.8275 -4.97157,-9.5375 -6.81017,-12.8145 -15.16625,-27.0319 -2.95134,-5.0216 -5.36608,-9.4974 -5.36608,-9.9463 0,-0.4489 -1.05473,-2.4153 -2.34386,-4.3699 -1.28912,-1.9546 -4.14988,-6.7037 -6.35725,-10.5537 -2.20736,-3.85 -10.49863,-18.025 -18.42504,-31.5 -15.88817,-27.0101 -16.40552,-27.9105 -20.93753,-36.4391 -1.73577,-3.2664 -3.94593,-7.0914 -4.91147,-8.5 -5.01787,-7.3201 -20.73046,-35.2771 -26.16851,-46.5609 -1.06025,-2.2 -2.36446,-4.675 -2.89824,-5.5 -5.32111,-8.2243 -38.7987,-78.4869 -51.4581,-108 -2.19723,-5.1225 -7.69682,-17.6244 -14.5167,-33 -1.5857,-3.575 -3.42107,-8.3 -4.07862,-10.5 -0.65754,-2.2 -2.03009,-5.0732 -3.05011,-6.3849 -1.02001,-1.3117 -1.85665,-2.8867 -1.8592,-3.5 -0.005,-1.2935 -3.85306,-10.732 -6.16181,-15.1151 -0.8691,-1.65 -1.90136,-4.125 -2.2939,-5.5 -0.68122,-2.3862 -2.27329,-6.1174 -11.3073,-26.5 -2.19394,-4.95 -4.55518,-10.8 -5.24719,-13 -0.69201,-2.2 -2.26721,-6.025 -3.50043,-8.5 -1.23322,-2.475 -3.37977,-7.425 -4.7701,-11 -1.39033,-3.575 -4.09755,-10.55 -6.01604,-15.5 -3.51455,-9.0681 -6.88758,-23.6507 -8.67393,-37.5 -3.25748,-25.2547 -4.07682,-33.7097 -7.12271,-73.5 -0.63152,-8.25 -1.80383,-16.575 -2.60514,-18.5 -2.45551,-5.899 -9.37772,-27.2335 -10.38275,-32 -3.1807,-15.0852 -3.78039,-21.0076 -2.77868,-27.4418 0.68207,-4.381 0.68988,-7.634 0.0236,-9.8069 -0.54838,-1.7882 -1.27955,-5.5013 -1.62483,-8.2513 -0.34528,-2.75 -1.24663,-7.025 -2.00299,-9.5 -0.75636,-2.475 -1.90215,-6.975 -2.54619,-10 -0.64404,-3.025 -1.55009,-6.85 -2.01344,-8.5 -2.42259,-8.6269 -3.11382,-12.5432 -4.9561,-28.0797 -2.63688,-22.2378 -2.64002,-28.5451 -0.0154,-30.9203 1.1,-0.9955 2,-1.3495 2,-0.7867 0,0.5628 1.6875,1.2723 3.75,1.5765 2.0625,0.3043 9.15,1.6624 15.75,3.0181 29.96668,6.1555 59.18099,4.956 77.83291,-3.1958 2.6581,-1.1617 5.51363,-2.1121 6.34563,-2.1121 0.832,0 2.70719,-0.8431 4.16709,-1.8734 1.45991,-1.0303 5.35437,-3.2307 8.65437,-4.8898 7.60913,-3.8255 22.02513,-12.6595 25.68714,-15.7409 1.54114,-1.2967 3.76431,-2.6631 4.94038,-3.0364 1.17606,-0.3733 4.66599,-2.5919 7.75539,-4.9304 3.0894,-2.3384 7.19209,-5.0522 9.11709,-6.0307 3.55043,-1.8047 5.73903,-3.4325 15.45985,-11.4984 22.99151,-19.0776 46.54015,-41.8596 46.54015,-45.0252 0,-1.13 -0.9278,-3.8732 -2.06177,-6.0959 -2.4384,-4.7797 -1.42193,-7.2523 4.57924,-11.1393 3.46074,-2.2416 4.66162,-6.0719 2.59899,-8.2896 -1.88429,-2.0261 -5.18017,-13.5239 -6.60149,-23.0296 -0.81883,-5.4763 -1.94959,-12.1988 -2.51279,-14.9387 -2.59134,-12.6069 -3.27486,-11.6454 5.95617,-8.3788 19.28239,6.8235 18.80266,-6.326 -0.93406,-25.6029 -8.78327,-8.5787 -23.57056,-27.4346 -28.11511,-35.8508 -12.41505,-22.9919 -17.63613,-35.6454 -21.93032,-53.1492 -0.67465,-2.75 -1.81354,-6.833 -2.53087,-9.0733 -1.30277,-4.0686 -2.65616,-12.7162 -4.44537,-28.4038 -0.88916,-7.7961 -0.78656,-8.7219 1.63825,-14.783 2.50662,-6.2655 2.76589,-12.4104 0.74575,-17.6748 -0.29769,-0.7758 0.43762,-2.3894 1.63403,-3.5858 2.70154,-2.7015 2.41987,-4.8789 -2.42054,-18.7111 -8.94718,-25.56793 -13.76631,-56.63811 -11.05404,-71.26825 0.66277,-3.575 1.72584,-10.1 2.36238,-14.5 2.276,-15.73263 10.66044,-50.03379 14.17728,-58 0.48562,-1.1 2.27563,-6.00245 3.97781,-10.89435 7.56898,-21.75255 36.18183,-73.4893 47.06741,-85.10565 1.0308,-1.1 3.4436,-4.025 5.36177,-6.5 15.11445,-19.50205 38.04753,-42.53451 55.15662,-55.39565 3.2895,-2.47276 7.75161,-6.12296 9.91579,-8.11155 2.16418,-1.98859 6.3325,-4.9911 9.26293,-6.67226 2.93044,-1.68115 7.36247,-4.60954 9.84897,-6.50753 4.77634,-3.64586 32.98441,-20.78307 37.29051,-22.65505 2.26933,-0.98654 12.41313,-7.20283 19.03246,-11.66342 11.73185,-7.90576 21.18105,-8.33931 22.64115,-1.03882 1.10817,5.54089 4.52914,4.15503 13.66157,-5.53443 12.5474,-13.31272 24.23439,-17.52918 57.96899,-20.91417 23.03239,-2.31111 38.01489,0.41546 46.89696,8.53447 2.38174,2.17713 4.69291,3.95841 5.13592,3.95841 4.02997,0 6.18011,11.41364 6.21664,33 0.0852,50.32963 3.90925,92.62112 9.93897,109.91761 6.78619,19.46643 7.04868,19.95113 26.79053,49.46945 4.16025,6.22047 7.96878,10.61294 9.20203,10.61294 0.60776,0 4.01702,2.96899 7.57613,6.59774 3.55911,3.62876 8.04611,7.62104 9.97111,8.87174 4.2705,2.7746 31.50353,29.6654 35.55511,35.10829 1.6058,2.15723 4.79538,5.86584 7.08797,8.24135 5.13641,5.32221 28.35692,40.47109 28.35692,42.92388 0,0.60695 1.0634,2.37558 2.3631,3.93028 1.2998,1.5547 2.6908,3.95172 3.0912,5.32672 0.4004,1.375 2.7682,7 5.2619,12.5 2.4936,5.5 5.545,12.25 6.7808,15 2.1945,4.88324 4.2007,10.936 6.2978,19 2.8141,10.82155 3.4896,13.18845 4.4238,15.50005 7.4655,18.4718 9.8164,56.407 4.312,69.581 -0.7633,1.8267 -1.3928,5.7058 -1.399,8.6201 -0.01,2.9144 -0.7175,9.3194 -1.5807,14.2333 -0.8633,4.914 -2.254,13.5435 -3.0904,19.1767 -0.8365,5.6332 -2.3488,12.8627 -3.3607,16.0655 -1.0119,3.2029 -2.4098,8.0734 -3.1064,10.8234 -2.2748,8.9803 -7.8003,26.7936 -11.4341,36.862 -6.9748,19.3253 -3.7259,22.0357 10.1632,8.4788 9.7528,-9.5194 10.8931,-9.36 8.2902,1.1592 -1.0207,4.125 -3.0822,12.45 -4.5812,18.5 -4.4503,17.9623 -4.4393,18.5 0.3784,18.5 3.5111,0 4.5217,-0.5699 7.9811,-4.5 6.7286,-7.644 9.1511,-1.4169 6.8238,17.5404 -0.8029,6.5404 -0.8029,6.5404 10.8513,15.2006 25.529,18.9703 65.1981,59.2566 72.3964,73.5228 1.1756,2.3299 3.0375,6.0144 4.1375,8.1878 1.1,2.1735 2,4.6326 2,5.4649 0,0.8322 0.9,1.9948 2,2.5835 1.1,0.5887 2,1.5262 2,2.0834 0,0.5573 0.9315,2.9039 2.07,5.2149 7.3388,14.896 14.8112,37.6532 20.3421,61.9517 0.3443,1.5125 1.2766,2.75 2.0717,2.75 1.6123,0 3.5162,2.9875 3.5162,5.5176 0,3.0557 6.0476,16.7836 10.9752,24.9134 20.8594,34.4149 51.2102,43.437 104.4909,31.061 18.3165,-4.2545 27.4586,-5.4536 32.9306,-4.3192 2.2568,0.4679 6.952,1.2987 10.4337,1.8463 13.2835,2.0889 24.0098,13.1053 40.3496,41.4404 5.5025,9.542 16.82,34.1201 16.82,36.528 0,0.4657 0.9201,2.9933 2.0448,5.617 6.0435,14.099 13.8152,49.703 16.0208,73.3955 4.0259,43.2458 -1.0234,80.9969 -16.496,123.3328 -1.9765,5.408 -5.5963,17.108 -8.0439,26 -6.2724,22.787 -8.377,28.288 -17.2804,45.1672 -2.352,4.459 -10.8556,17.7506 -12.587,19.6743 -0.8288,0.9208 -2.0015,2.5984 -2.606,3.7279 -1.5524,2.9007 -10.3531,14.5011 -16.3852,21.5978 -6.5516,7.7078 -44.6969,45.7598 -51.1249,51 -2.6987,2.2 -7.8623,6.6033 -11.4745,9.7851 -8.7295,7.6894 -23.1442,17.6232 -31.1184,21.4452 -8.9063,4.2686 -15.7149,7.2697 -16.4933,7.2697 -0.3596,0 -2.0718,0.6358 -3.8049,1.413 -1.7331,0.7771 -6.5261,2.3839 -10.6511,3.5705 -4.125,1.1867 -8.4,2.5434 -9.5,3.0149 -1.1,0.4715 -5.0465,1.8295 -8.7699,3.0176 -7.3231,2.3368 -8.8342,4.0123 -10.1444,11.248 -0.3749,2.0702 -2.5187,8.3431 -4.7641,13.9396 -2.9466,7.3446 -4.3311,12.5571 -4.9765,18.7359 -2.3873,22.8583 -4.7995,42.1317 -5.8273,46.5605 -0.5106,2.2 -1.2025,5.35 -1.5377,7 -2.8891,14.2231 -6.0904,26.1951 -9.4925,35.5 -1.5083,4.125 -3.3095,9.3 -4.0027,11.5 -2.0442,6.4873 -11.9724,30.5673 -14.6259,35.4736 -2.5708,4.7537 -6.0892,11.4862 -7.33,14.0264 -0.4322,0.8847 -2.4343,1.6261 -4.8809,1.8075 -4.7516,0.3522 -5.4021,2.3715 -2.5839,8.0208 1.653,3.3135 1.0435,4.9089 -7.1946,18.8314 -1.0283,1.7378 -3.3953,5.7878 -5.2599,9 -3.6466,6.2818 -11.3184,18.2876 -19.3876,30.3403 -9.7258,14.5268 -27.3163,35.733 -45.6455,55.0277 -7.5904,7.9903 -14.0856,15.4251 -14.4337,16.5218 -2.353,7.4138 -38.35278,34.4505 -45.87128,34.4505 -0.78264,0 -2.51393,1.1727 -3.8473,2.6061 -1.33338,1.4333 -3.40461,2.9849 -4.60274,3.448 -2.78509,1.0764 -4.39957,4.6428 -8.80307,19.4459 -1.96332,6.6 -4.65669,15.15 -5.98527,19 -1.32859,3.85 -2.94389,9.925 -3.58956,13.5 -0.64568,3.575 -1.84836,9.875 -2.67264,14 -2.88327,14.4289 -3.23878,16.587 -4.69476,28.5 -3.48518,28.5157 -5.05672,83.6195 -2.45888,86.2174 0.61457,0.6145 1.49135,4.8267 1.94839,9.3604 0.45704,4.5337 1.74205,11.8834 2.85558,16.3326 3.2369,12.9335 6.97706,28.716 7.96008,33.5896 0.49923,2.475 1.86944,9.2181 3.04492,14.9848 5.49659,26.9652 5.06964,62.8115 -0.88054,73.9295 -0.59776,1.1169 -2.40404,6.0616 -4.01394,10.9881 -1.60991,4.9265 -4.07568,11.2239 -5.4795,13.9942 -1.40381,2.7703 -2.55281,5.6143 -2.55333,6.3201 -5.1e-4,0.7058 -2.51683,6.2333 -5.59182,12.2833 -3.07498,6.05 -6.40507,13.925 -7.4002,17.5 -0.99512,3.575 -2.78807,9.875 -3.98432,14 -1.19626,4.125 -3.2376,13.575 -4.53631,21 -4.51309,25.8022 -6.64485,36.5343 -8.44191,42.5 -2.55738,8.4897 -5.75181,22.0368 -6.72032,28.5 -0.70887,4.7305 -1.2439,5.7108 -3.82418,7.0068 -1.65,0.8288 -4.6523,2.5313 -6.67178,3.7833 -14.39462,8.924 -32.68193,4.7686 -41.30076,-9.3846 -0.97316,-1.5981 -3.5937,-4.2555 -5.82344,-5.9055 -4.32978,-3.2041 -12.77614,-15.0289 -18.01044,-25.2145 -4.28811,-8.3444 -5.80754,-11.0628 -8.82334,-15.7855 -14.39189,-22.5379 -18.20406,-58.4543 -8.38506,-79 9.21314,-19.278 14.55743,-54.3641 9.94375,-65.2822 -5.71245,-13.5182 -6.19114,-21.9267 -6.55936,-115.2178 -0.17032,-43.1528 -1.55114,-65.4493 -5.94527,-96 -1.06794,-7.425 -2.16144,-15.075 -2.43,-17 -5.26305,-37.7246 -8.48158,-55.5351 -15.17247,-83.9603 -1.59656,-6.7828 -0.2052,-10.0397 4.28896,-10.0397 2.40901,0 0.66336,-17.3451 -2.56638,-25.5 -0.65348,-1.65 -2.30564,-7.418 -3.67146,-12.8178 -3.8664,-15.2858 -3.19595,-16.3316 13.93553,-21.737 10.09125,-3.1841 22.60034,-10.8132 25.30391,-15.4325 2.09997,-3.588 20.17771,-21.2749 22.53007,-22.043 0.90335,-0.2949 2.20286,-1.8892 2.88781,-3.5428 0.68495,-1.6536 2.00451,-3.5512 2.93236,-4.2168 2.06215,-1.4793 9.36854,-19.2272 10.91327,-26.5094 1.66781,-7.8623 1.43662,-39.205 -0.35184,-47.7007 -7.14025,-33.9184 -19.82164,-73.8395 -23.59849,-74.2882 -2.51138,-0.2984 -2.74285,0.043 -5.95897,8.7882 -0.70793,1.925 -1.66503,3.9275 -2.12687,4.45 -0.46185,0.5225 -0.83973,1.8405 -0.83973,2.929 0,1.0884 -0.41738,3.3609 -0.9275,5.05 -0.51013,1.689 -1.89392,6.446 -3.07508,10.571 -6.55689,22.8988 -24.75441,75.105 -30.6395,87.9005 -1.36615,2.9704 -3.17964,7.4704 -4.02998,10 -2.37823,7.075 -13.44811,26.0384 -19.32182,33.0995 -1.14378,1.375 -3.07557,4.1366 -4.29286,6.137 -1.21729,2.0004 -5.13826,6.9086 -8.71326,10.9071 -12.26494,13.718 -14.50339,16.4625 -16.27592,19.9559 -2.61922,5.162 -10.18305,13 -12.54526,13 -2.44434,0 -31.47108,27.82 -37.56149,36 -4.40487,5.9161 -7.023,13.6301 -8.65467,25.5 -0.52923,3.85 -1.42522,9.475 -1.99108,12.5 -0.56586,3.025 -1.94746,11.575 -3.07023,19 -1.12276,7.425 -2.45644,16.2 -2.96373,19.5 -7.34977,47.8113 -7.93867,118.9512 -1.41554,171 5.06385,40.405 5.91083,44.8384 12.06557,63.1554 1.87679,5.5855 3.41389,10.7605 3.41578,11.5 0.0126,4.922 10.94737,26.2934 24.83209,48.533 1.09484,1.7536 2.31377,4.2286 2.70874,5.5 0.39497,1.2713 1.50383,3.4366 2.46413,4.8116 1.92263,2.7529 10.86713,25.3691 13.40495,33.8945 3.97638,13.3579 6.69066,34.679 8.60652,67.6055 0.60805,10.45 1.8129,23.275 2.67746,28.5 0.86456,5.225 2.13765,13.55 2.8291,18.5 3.33253,23.8573 4.85661,32.7823 7.1721,42 2.61671,10.4167 3.47665,14.4261 7.72142,36 1.4068,7.15 3.20334,15.925 3.99231,19.5 2.70966,12.278 3.05077,20.2806 0.94236,22.1083 -8.67619,7.5211 -21.9854,10.675 -38.85461,9.2075 z"
     id="path3" /></svg>
