<svg width="2400" height="3200" xmlns="http://www.w3.org/2000/svg" viewBox="0 0 2400 3200"><path d="M 1173.11 3063.64 C 1171.12 3063.86 1168.71 3063.57 1167.75 3062.97 C 1166.59 3062.26 1166.0 3060.65 1166.0 3058.19 C 1166.0 3055.02 1165.56 3054.29 1162.94 3053.13 C 1161.26 3052.39 1158.67 3051.78 1157.19 3051.77 C 1155.71 3051.76 1153.54 3051.59 1152.36 3051.39 C 1150.97 3051.15 1150.05 3050.07 1149.7 3048.26 C 1149.4 3046.74 1148.65 3043.7 1148.02 3041.5 C 1147.38 3039.3 1146.41 3035.7 1145.84 3033.5 C 1145.28 3031.3 1144.43 3026.35 1143.96 3022.5 C 1143.49 3018.65 1142.62 3011.68 1142.03 3007.0 C 1141.43 3002.32 1140.54 2995.35 1140.04 2991.5 C 1139.54 2987.65 1138.6 2980.45 1137.95 2975.5 C 1137.31 2970.55 1136.81 2964.14 1136.85 2961.25 C 1136.89 2958.36 1136.97 2954.76 1137.03 2953.25 C 1137.1 2951.74 1136.83 2949.02 1136.45 2947.21 C 1136.07 2945.4 1136.31 2941.8 1136.98 2939.21 C 1137.64 2936.62 1138.55 2933.38 1138.98 2932.0 C 1139.41 2930.62 1140.32 2927.47 1141.0 2925.0 C 1141.67 2922.53 1142.59 2919.6 1143.04 2918.5 C 1143.48 2917.4 1144.08 2915.38 1144.36 2914.0 C 1144.63 2912.62 1145.37 2909.7 1146.0 2907.5 C 1146.62 2905.3 1147.57 2901.7 1148.11 2899.5 C 1148.65 2897.3 1149.55 2893.7 1150.1 2891.5 C 1150.66 2889.3 1151.52 2885.7 1152.02 2883.5 C 1152.52 2881.3 1153.6 2875.78 1154.41 2871.24 C 1155.23 2866.7 1156.23 2862.44 1156.64 2861.78 C 1157.05 2861.12 1157.75 2858.53 1158.19 2856.04 C 1158.64 2853.54 1159.48 2849.03 1160.07 2846.0 C 1160.66 2842.97 1161.54 2837.35 1162.03 2833.5 C 1162.52 2829.65 1163.35 2823.8 1163.88 2820.5 C 1164.41 2817.2 1165.37 2812.25 1166.02 2809.5 C 1166.67 2806.75 1167.63 2802.7 1168.15 2800.5 C 1168.67 2798.3 1169.51 2794.47 1170.01 2792.0 C 1170.5 2789.53 1172.68 2780.53 1174.85 2772.0 C 1177.02 2763.47 1179.36 2755.15 1180.05 2753.5 C 1180.74 2751.85 1181.68 2748.03 1182.14 2745.0 C 1182.61 2741.97 1183.27 2736.49 1183.62 2732.82 C 1184.25 2726.2 1184.29 2726.12 1188.38 2724.12 C 1190.65 2723.01 1193.3 2721.86 1194.28 2721.57 C 1195.94 2721.08 1196.01 2719.96 1195.28 2706.27 C 1194.85 2698.15 1194.53 2688.57 1194.56 2685.0 C 1194.59 2681.43 1195.14 2673.55 1195.79 2667.5 C 1196.44 2661.45 1197.41 2652.9 1197.95 2648.5 C 1198.49 2644.1 1199.4 2637.12 1199.98 2633.0 C 1200.56 2628.88 1201.28 2622.57 1201.57 2619.0 C 1201.87 2615.43 1202.52 2611.6 1203.0 2610.5 C 1203.49 2609.4 1204.16 2606.47 1204.49 2604.0 C 1204.82 2601.53 1205.49 2595.9 1205.99 2591.5 C 1206.48 2587.1 1207.19 2581.7 1207.56 2579.5 C 1207.93 2577.3 1208.64 2575.0 1209.13 2574.38 C 1209.62 2573.77 1210.2 2570.62 1210.41 2567.38 C 1210.63 2564.15 1211.36 2560.15 1212.05 2558.5 C 1212.73 2556.85 1213.66 2553.47 1214.11 2551.0 C 1214.57 2548.53 1215.38 2544.25 1215.92 2541.5 C 1216.46 2538.75 1217.38 2534.36 1217.95 2531.75 C 1218.53 2529.14 1219.45 2524.97 1220.0 2522.5 C 1220.55 2520.03 1221.43 2516.09 1221.95 2513.75 C 1222.47 2511.41 1223.39 2507.47 1223.99 2505.0 C 1224.6 2502.53 1225.49 2498.93 1225.98 2497.0 C 1226.47 2495.07 1227.37 2491.7 1227.99 2489.5 C 1228.61 2487.3 1229.48 2484.15 1229.94 2482.5 C 1230.39 2480.85 1231.51 2477.25 1232.43 2474.5 C 1233.35 2471.75 1234.58 2468.38 1235.17 2467.0 C 1235.75 2465.62 1236.63 2463.72 1237.12 2462.76 C 1237.6 2461.81 1238.0 2460.54 1238.0 2459.94 C 1238.0 2459.35 1238.65 2458.2 1239.45 2457.4 C 1240.72 2456.13 1240.84 2457.05 1240.39 2464.73 C 1240.11 2469.55 1239.66 2474.4 1239.4 2475.5 C 1239.13 2476.6 1238.45 2483.12 1237.87 2490.0 C 1237.29 2496.88 1236.41 2507.45 1235.92 2513.5 C 1235.42 2519.55 1234.57 2531.25 1234.02 2539.5 C 1233.47 2547.75 1232.55 2562.15 1231.96 2571.5 C 1231.38 2580.85 1230.66 2599.52 1230.36 2613.0 C 1230.06 2626.47 1229.49 2637.72 1229.1 2638.0 C 1228.71 2638.27 1227.48 2640.53 1226.37 2643.0 C 1225.27 2645.47 1223.87 2649.3 1223.26 2651.5 C 1222.66 2653.7 1221.67 2657.9 1221.08 2660.83 C 1220.49 2663.76 1220.01 2673.66 1220.03 2682.83 C 1220.05 2692.0 1220.75 2706.25 1221.59 2714.5 C 1222.43 2722.75 1223.53 2733.32 1224.02 2738.0 C 1224.52 2742.68 1225.38 2750.1 1225.94 2754.5 C 1226.49 2758.9 1227.43 2766.1 1228.04 2770.5 C 1228.64 2774.9 1229.55 2781.43 1230.04 2785.0 C 1230.54 2788.57 1231.21 2794.65 1231.54 2798.5 C 1231.87 2802.35 1232.53 2806.4 1233.0 2807.5 C 1233.47 2808.6 1234.14 2811.75 1234.5 2814.5 C 1234.85 2817.25 1235.56 2822.2 1236.06 2825.5 C 1236.57 2828.8 1237.43 2834.65 1237.98 2838.5 C 1238.53 2842.35 1239.45 2849.1 1240.02 2853.5 C 1240.59 2857.9 1241.5 2865.32 1242.04 2870.0 C 1242.58 2874.68 1243.47 2883.45 1244.02 2889.5 C 1244.56 2895.55 1245.29 2909.24 1245.64 2919.93 C 1246.04 2932.42 1245.86 2942.24 1245.14 2947.43 C 1244.52 2951.87 1243.88 2958.76 1243.72 2962.75 L 1243.43 2970.0 C 1250.64 2970.0 1253.22 2970.73 1255.1 2972.07 C 1257.67 2973.9 1258.0 2974.73 1258.0 2979.37 C 1258.0 2982.25 1257.44 2985.81 1256.75 2987.29 C 1256.06 2988.77 1255.16 2989.99 1254.75 2989.99 C 1254.34 2990.0 1254.0 2990.57 1254.0 2991.28 C 1254.0 2991.98 1251.3 2995.42 1248.0 2998.92 C 1244.7 3002.42 1242.0 3005.44 1242.0 3005.64 C 1242.0 3005.84 1244.87 3006.0 1248.38 3006.0 C 1251.89 3006.0 1256.31 3006.65 1258.21 3007.44 C 1260.11 3008.24 1262.12 3009.47 1262.69 3010.19 C 1263.26 3010.91 1263.99 3012.94 1264.33 3014.71 C 1264.84 3017.44 1264.51 3018.21 1262.06 3019.96 C 1260.48 3021.08 1257.94 3022.0 1256.41 3022.0 C 1254.88 3022.0 1250.9 3022.93 1247.57 3024.07 C 1244.23 3025.2 1240.6 3026.5 1239.5 3026.95 C 1238.4 3027.39 1233.46 3029.73 1228.53 3032.13 C 1223.59 3034.53 1216.94 3038.19 1213.74 3040.25 C 1210.55 3042.31 1207.5 3044.0 1206.97 3044.0 C 1206.43 3044.0 1206.0 3044.34 1206.0 3044.76 C 1206.0 3045.18 1204.2 3046.64 1202.0 3048.0 C 1199.8 3049.36 1198.0 3050.82 1198.0 3051.24 C 1198.0 3051.66 1197.53 3052.0 1196.95 3052.0 C 1196.36 3052.0 1193.33 3053.72 1190.2 3055.81 C 1187.06 3057.91 1182.75 3060.44 1180.61 3061.43 C 1178.47 3062.42 1175.09 3063.41 1173.11 3063.64 Z M 1242.29 2442.49 C 1241.2 2444.39 1241.13 2444.37 1240.52 2441.92 C 1240.16 2440.51 1240.09 2424.54 1240.35 2406.43 C 1240.62 2388.32 1241.31 2368.1 1241.9 2361.5 C 1242.49 2354.9 1243.45 2345.22 1244.03 2340.0 C 1244.62 2334.78 1245.32 2326.9 1245.6 2322.5 L 1246.1 2314.5 C 1242.96 2318.38 1242.03 2319.93 1242.02 2320.45 C 1242.01 2320.97 1241.49 2320.89 1240.87 2320.27 C 1240.09 2319.49 1239.74 2310.92 1239.73 2292.52 C 1239.71 2273.81 1240.05 2265.55 1240.85 2264.75 C 1241.48 2264.12 1242.0 2262.78 1242.0 2261.79 C 1242.0 2260.79 1242.42 2259.19 1242.93 2258.24 C 1243.44 2257.28 1244.18 2255.6 1244.58 2254.5 C 1244.98 2253.4 1245.45 2251.74 1245.64 2250.81 C 1245.82 2249.88 1246.88 2247.5 1247.99 2245.53 C 1249.09 2243.55 1250.0 2241.08 1250.0 2240.03 C 1250.0 2238.98 1250.49 2237.82 1251.09 2237.45 C 1251.69 2237.08 1251.95 2235.92 1251.68 2234.88 C 1251.37 2233.72 1251.94 2232.46 1253.14 2231.62 C 1254.21 2230.87 1255.32 2228.97 1255.6 2227.41 C 1255.89 2225.84 1256.48 2224.1 1256.92 2223.53 C 1257.36 2222.96 1258.0 2221.0 1258.35 2219.17 C 1258.97 2215.92 1258.92 2215.86 1256.04 2216.49 C 1254.42 2216.85 1250.99 2216.82 1248.41 2216.43 L 1243.72 2215.73 C 1244.82 2192.3 1245.46 2178.07 1245.86 2169.0 C 1246.37 2157.36 1247.05 2151.47 1248.18 2149.0 C 1249.05 2147.07 1250.22 2144.15 1250.77 2142.5 C 1251.32 2140.85 1252.33 2137.47 1253.02 2135.0 C 1253.71 2132.53 1254.77 2128.93 1255.37 2127.0 C 1255.98 2125.07 1257.26 2122.15 1258.23 2120.5 C 1259.2 2118.85 1259.99 2115.68 1260.0 2113.45 C 1260.0 2111.22 1260.47 2108.93 1261.05 2108.35 C 1261.76 2107.64 1261.94 2099.59 1261.61 2083.9 C 1261.33 2071.03 1260.87 2057.35 1260.57 2053.5 C 1260.28 2049.65 1259.57 2040.65 1258.99 2033.5 C 1258.41 2026.35 1257.5 2016.11 1256.97 2010.75 C 1256.44 2005.39 1255.53 1996.39 1254.96 1990.75 C 1254.39 1985.11 1253.43 1977.35 1252.83 1973.5 C 1252.23 1969.65 1250.53 1963.8 1249.06 1960.5 C 1247.58 1957.2 1245.79 1952.47 1245.07 1950.0 C 1244.35 1947.53 1243.42 1944.38 1243.0 1943.0 C 1242.58 1941.62 1241.64 1938.54 1240.92 1936.15 C 1240.03 1933.19 1238.86 1931.52 1237.24 1930.9 C 1235.94 1930.41 1232.07 1930.0 1228.65 1930.0 C 1224.4 1930.0 1221.18 1929.37 1218.5 1928.0 C 1216.34 1926.9 1212.66 1926.0 1210.33 1926.0 C 1206.25 1926.0 1205.91 1925.75 1202.0 1920.0 C 1199.76 1916.7 1197.51 1914.0 1197.01 1914.0 C 1196.51 1914.0 1193.49 1914.71 1190.3 1915.57 C 1187.11 1916.44 1180.45 1917.56 1175.5 1918.06 C 1170.55 1918.55 1163.91 1919.25 1160.75 1919.61 C 1157.58 1919.96 1154.44 1919.82 1153.75 1919.3 C 1153.06 1918.78 1150.47 1917.78 1148.0 1917.08 C 1145.53 1916.37 1142.47 1915.39 1141.2 1914.9 C 1139.94 1914.4 1138.14 1913.99 1137.2 1913.98 C 1136.27 1913.97 1134.38 1913.08 1133.0 1912.0 C 1131.62 1910.92 1129.93 1910.03 1129.24 1910.02 C 1128.55 1910.01 1125.85 1909.0 1123.24 1907.77 C 1120.64 1906.55 1117.2 1904.3 1115.61 1902.77 C 1114.01 1901.25 1112.29 1900.0 1111.78 1900.0 C 1111.27 1900.0 1110.21 1899.36 1109.43 1898.57 C 1108.64 1897.79 1108.0 1896.71 1108.0 1896.17 C 1108.0 1895.64 1106.38 1893.58 1104.4 1891.6 C 1102.42 1889.62 1100.17 1888.0 1099.4 1888.0 C 1098.63 1888.0 1098.0 1887.55 1098.0 1887.0 C 1098.0 1886.45 1097.31 1886.0 1096.47 1886.0 C 1095.63 1886.0 1094.68 1886.68 1094.36 1887.51 C 1094.04 1888.34 1094.32 1889.68 1094.97 1890.47 C 1095.63 1891.26 1095.88 1892.38 1095.53 1892.95 C 1095.18 1893.52 1094.68 1895.01 1094.43 1896.25 C 1094.17 1897.49 1093.93 1902.78 1093.89 1908.0 C 1093.84 1913.22 1093.52 1917.95 1093.16 1918.5 C 1092.8 1919.05 1092.45 1923.13 1092.37 1927.57 C 1092.28 1932.0 1091.75 1938.08 1091.18 1941.07 C 1090.62 1944.06 1090.14 1947.17 1090.13 1948.0 C 1090.12 1948.83 1090.02 1951.08 1089.92 1953.0 C 1089.82 1954.92 1089.29 1957.06 1088.75 1957.74 C 1088.21 1958.42 1087.67 1960.22 1087.54 1961.74 C 1087.42 1963.26 1086.97 1965.62 1086.54 1967.0 C 1086.12 1968.38 1084.83 1970.53 1083.67 1971.79 C 1081.98 1973.64 1081.62 1975.18 1081.81 1979.7 C 1081.98 1983.87 1083.03 1987.33 1085.88 1993.12 C 1087.99 1997.42 1089.34 2001.06 1088.89 2001.21 C 1088.43 2001.37 1087.99 2005.4 1087.91 2010.16 C 1087.83 2014.92 1088.15 2019.42 1088.62 2020.16 C 1089.09 2020.9 1089.52 2021.72 1089.57 2022.0 C 1089.63 2022.28 1089.97 2023.29 1090.34 2024.25 C 1090.7 2025.21 1091.3 2026.79 1091.66 2027.75 C 1092.02 2028.71 1092.25 2029.84 1092.16 2030.25 C 1092.07 2030.66 1092.4 2031.0 1092.89 2031.0 C 1093.38 2031.0 1094.07 2032.54 1094.42 2034.43 C 1094.77 2036.31 1095.52 2038.01 1096.09 2038.2 C 1096.65 2038.38 1097.22 2039.27 1097.35 2040.17 C 1097.48 2041.06 1098.06 2042.41 1098.63 2043.15 C 1099.2 2043.89 1100.3 2046.08 1101.07 2048.0 C 1101.84 2049.93 1102.54 2051.72 1102.62 2052.0 C 1102.7 2052.28 1103.1 2053.51 1103.5 2054.75 C 1103.9 2055.99 1104.63 2057.0 1105.12 2057.0 C 1105.6 2057.0 1105.9 2057.34 1105.78 2057.75 C 1105.66 2058.16 1106.13 2060.07 1106.82 2062.0 C 1107.51 2063.93 1108.05 2065.62 1108.01 2065.76 C 1107.98 2065.9 1108.75 2067.48 1109.72 2069.26 C 1110.69 2071.04 1111.51 2072.95 1111.54 2073.5 C 1111.58 2074.05 1112.35 2075.91 1113.27 2077.63 C 1114.18 2079.35 1116.05 2083.75 1117.43 2087.42 C 1118.81 2091.08 1120.63 2095.06 1121.47 2096.26 C 1122.31 2097.46 1123.0 2099.21 1123.0 2100.14 C 1123.0 2101.07 1123.34 2101.98 1123.75 2102.17 C 1124.16 2102.35 1125.74 2104.41 1127.26 2106.75 C 1128.78 2109.09 1130.5 2111.0 1131.07 2111.0 C 1131.65 2111.0 1131.86 2111.41 1131.55 2111.92 C 1131.24 2112.42 1132.34 2113.14 1134.0 2113.5 C 1135.66 2113.86 1137.45 2114.97 1137.98 2115.96 C 1138.51 2116.95 1139.66 2119.95 1140.54 2122.63 C 1141.42 2125.31 1143.01 2129.41 1144.07 2131.74 C 1145.13 2134.07 1146.0 2136.35 1146.0 2136.8 C 1146.0 2137.25 1146.9 2139.49 1148.0 2141.76 C 1149.1 2144.04 1150.0 2146.29 1150.0 2146.76 C 1150.0 2147.24 1150.9 2149.49 1152.0 2151.76 C 1153.1 2154.04 1154.0 2156.29 1154.0 2156.76 C 1154.0 2157.24 1154.9 2159.49 1156.0 2161.76 C 1157.1 2164.04 1158.0 2166.27 1158.0 2166.73 C 1158.0 2167.18 1159.34 2170.24 1160.97 2173.53 C 1162.6 2176.81 1163.95 2179.98 1163.97 2180.56 C 1163.99 2181.15 1164.9 2183.49 1166.0 2185.76 C 1167.1 2188.04 1168.0 2190.27 1168.0 2190.73 C 1168.0 2191.18 1169.34 2194.24 1170.97 2197.53 C 1172.6 2200.81 1173.95 2203.98 1173.97 2204.56 C 1173.99 2205.15 1174.9 2207.49 1176.0 2209.76 C 1177.1 2212.04 1178.0 2214.27 1178.0 2214.73 C 1178.0 2215.18 1179.34 2218.24 1180.97 2221.53 C 1182.6 2224.81 1183.95 2227.98 1183.97 2228.56 C 1183.99 2229.15 1184.9 2231.49 1186.0 2233.76 C 1187.1 2236.04 1188.0 2238.27 1188.0 2238.73 C 1188.0 2239.18 1189.34 2242.24 1190.97 2245.53 C 1192.6 2248.81 1193.95 2251.98 1193.97 2252.56 C 1193.99 2253.15 1194.9 2255.49 1196.0 2257.76 C 1197.1 2260.04 1198.0 2262.27 1198.0 2262.73 C 1198.0 2263.18 1199.34 2266.24 1200.97 2269.53 C 1202.6 2272.81 1203.95 2275.96 1203.97 2276.53 C 1203.99 2277.09 1205.34 2280.24 1206.97 2283.53 C 1208.6 2286.81 1209.95 2290.26 1209.97 2291.19 C 1209.99 2292.12 1210.45 2293.16 1211.0 2293.5 C 1211.55 2293.84 1212.0 2295.39 1212.0 2296.95 C 1212.0 2299.18 1211.28 2300.11 1208.59 2301.39 C 1206.72 2302.28 1204.58 2302.76 1203.84 2302.47 C 1203.1 2302.17 1201.04 2298.9 1199.25 2295.19 C 1197.46 2291.49 1196.0 2287.91 1196.0 2287.23 C 1196.0 2286.55 1195.55 2286.0 1195.0 2286.0 C 1194.45 2286.0 1194.0 2285.14 1194.0 2284.08 C 1194.0 2283.03 1193.66 2282.02 1193.24 2281.83 C 1192.82 2281.65 1188.85 2274.3 1184.42 2265.5 C 1179.99 2256.7 1174.37 2245.68 1171.93 2241.0 C 1169.49 2236.32 1167.16 2232.35 1166.75 2232.17 C 1166.34 2231.98 1166.0 2230.97 1166.0 2229.92 C 1166.0 2228.86 1165.55 2228.0 1165.0 2228.0 C 1164.45 2228.0 1164.0 2227.1 1164.0 2226.0 C 1164.0 2224.9 1163.55 2224.0 1163.0 2224.0 C 1162.45 2224.0 1162.0 2223.32 1162.0 2222.49 C 1162.0 2221.65 1161.44 2219.97 1160.75 2218.74 C 1160.06 2217.51 1159.28 2216.28 1159.0 2216.0 C 1158.72 2215.72 1157.86 2214.38 1157.07 2213.0 C 1156.28 2211.62 1153.98 2207.35 1151.95 2203.5 C 1149.93 2199.65 1146.02 2192.22 1143.27 2187.0 C 1140.51 2181.78 1137.23 2175.7 1135.98 2173.5 C 1134.73 2171.3 1132.14 2166.57 1130.23 2163.0 C 1128.33 2159.43 1125.63 2154.47 1124.24 2152.0 C 1122.84 2149.53 1120.19 2144.68 1118.35 2141.24 C 1116.51 2137.79 1115.0 2134.34 1115.0 2133.56 C 1115.0 2132.79 1113.42 2130.09 1111.5 2127.57 C 1109.58 2125.05 1108.0 2122.28 1108.0 2121.42 C 1108.0 2120.56 1106.54 2117.81 1104.75 2115.3 C 1102.96 2112.79 1100.48 2109.11 1099.23 2107.12 C 1097.98 2105.13 1096.66 2102.82 1096.3 2102.0 C 1095.94 2101.18 1095.37 2100.28 1095.03 2100.0 C 1094.68 2099.72 1093.16 2096.91 1091.63 2093.75 C 1090.1 2090.58 1088.32 2087.41 1087.67 2086.71 C 1087.03 2086.0 1085.9 2084.37 1085.16 2083.07 C 1084.42 2081.78 1083.02 2079.33 1082.05 2077.61 C 1081.08 2075.9 1079.07 2072.47 1077.6 2070.0 C 1076.12 2067.53 1074.65 2064.71 1074.34 2063.75 C 1074.02 2062.79 1073.37 2062.0 1072.88 2062.0 C 1072.4 2062.0 1072.0 2061.13 1072.0 2060.06 C 1072.0 2058.99 1071.0 2056.4 1069.78 2054.31 C 1068.56 2052.21 1067.02 2049.94 1066.36 2049.25 C 1065.69 2048.57 1063.91 2045.42 1062.39 2042.25 C 1060.87 2039.09 1058.36 2034.62 1056.81 2032.32 C 1055.27 2030.02 1054.0 2027.47 1054.0 2026.66 C 1054.0 2025.84 1052.41 2021.78 1050.46 2017.62 C 1048.52 2013.47 1046.2 2009.34 1045.31 2008.45 C 1044.42 2007.56 1042.26 2002.71 1040.5 1997.67 C 1038.74 1992.63 1036.84 1987.38 1036.28 1986.0 C 1035.71 1984.62 1034.89 1980.58 1034.46 1977.0 C 1034.02 1973.42 1033.57 1969.83 1033.44 1969.0 C 1033.31 1968.17 1032.93 1965.47 1032.59 1963.0 C 1032.26 1960.53 1031.69 1957.15 1031.34 1955.5 C 1030.99 1953.85 1030.58 1950.25 1030.44 1947.5 C 1030.29 1944.75 1030.12 1935.25 1030.06 1926.39 C 1030.0 1917.53 1030.19 1908.08 1030.47 1905.39 C 1030.75 1902.7 1031.7 1894.2 1032.57 1886.5 C 1033.44 1878.8 1034.33 1870.47 1034.55 1868.0 C 1034.77 1865.53 1035.25 1861.7 1035.61 1859.5 C 1035.98 1857.3 1036.7 1854.96 1037.22 1854.29 C 1037.75 1853.63 1037.84 1852.55 1037.43 1851.89 C 1036.99 1851.17 1037.11 1850.95 1037.74 1851.34 C 1038.32 1851.69 1039.03 1850.98 1039.34 1849.74 C 1039.64 1848.51 1040.17 1845.25 1040.52 1842.5 C 1040.94 1839.08 1040.65 1836.12 1039.57 1833.12 C 1038.71 1830.72 1038.01 1825.77 1038.02 1822.12 C 1038.04 1817.8 1038.7 1814.05 1039.94 1811.33 C 1040.98 1809.04 1041.69 1807.01 1041.51 1806.83 C 1041.33 1806.65 1040.95 1804.92 1040.65 1803.0 C 1040.36 1801.08 1039.58 1795.45 1038.92 1790.5 C 1038.19 1784.92 1037.98 1777.13 1038.39 1770.0 C 1038.76 1763.67 1039.3 1756.7 1039.6 1754.5 C 1039.9 1752.3 1041.5 1744.88 1043.15 1738.0 C 1044.81 1731.12 1047.5 1721.67 1049.13 1717.0 C 1050.77 1712.33 1053.7 1704.67 1055.64 1700.0 C 1057.58 1695.33 1059.97 1689.92 1060.95 1688.0 C 1061.94 1686.08 1063.06 1683.15 1063.45 1681.5 C 1063.84 1679.85 1065.25 1677.07 1066.58 1675.32 C 1067.91 1673.57 1069.0 1671.46 1069.0 1670.64 C 1069.0 1669.82 1070.12 1667.82 1071.5 1666.18 C 1072.88 1664.55 1074.0 1662.6 1074.0 1661.85 C 1074.0 1661.11 1075.35 1659.22 1077.0 1657.66 C 1078.65 1656.1 1080.0 1654.22 1080.0 1653.46 C 1080.0 1652.71 1080.6 1651.74 1081.33 1651.3 C 1082.06 1650.86 1083.51 1649.04 1084.54 1647.25 C 1085.58 1645.46 1086.78 1644.0 1087.22 1644.0 C 1087.65 1644.0 1088.0 1643.49 1088.0 1642.88 C 1088.0 1642.26 1091.04 1638.9 1094.75 1635.41 C 1098.46 1631.92 1102.62 1628.02 1104.0 1626.74 C 1105.38 1625.46 1108.97 1622.8 1112.0 1620.83 C 1115.03 1618.85 1119.3 1616.48 1121.5 1615.54 C 1123.7 1614.6 1127.08 1613.12 1129.0 1612.24 C 1130.92 1611.36 1133.94 1610.53 1135.7 1610.38 C 1137.47 1610.24 1140.62 1609.65 1142.7 1609.07 C 1144.79 1608.49 1148.35 1608.01 1150.6 1608.01 C 1152.86 1608.0 1156.23 1608.51 1158.1 1609.14 C 1159.97 1609.76 1163.0 1611.39 1164.83 1612.75 C 1166.67 1614.12 1168.49 1614.84 1168.89 1614.37 C 1169.28 1613.89 1171.61 1610.8 1174.05 1607.51 C 1176.5 1604.21 1182.55 1597.28 1187.5 1592.1 C 1192.45 1586.92 1202.12 1577.99 1209.0 1572.25 C 1215.88 1566.51 1223.17 1560.95 1225.21 1559.91 C 1227.25 1558.86 1229.58 1558.0 1230.38 1558.0 C 1231.18 1558.0 1232.1 1557.44 1232.42 1556.75 C 1232.88 1555.75 1233.12 1555.75 1233.58 1556.75 C 1233.9 1557.44 1235.3 1558.0 1236.68 1558.0 C 1238.21 1558.0 1239.38 1558.68 1239.68 1559.75 C 1239.95 1560.71 1242.5 1563.41 1245.34 1565.75 C 1248.18 1568.09 1252.08 1571.35 1254.0 1573.0 C 1255.92 1574.65 1257.82 1576.0 1258.22 1576.0 C 1258.61 1576.0 1261.76 1578.9 1265.22 1582.44 C 1268.67 1585.98 1273.33 1591.26 1275.57 1594.19 C 1277.8 1597.11 1280.24 1601.41 1280.98 1603.75 C 1281.72 1606.09 1282.59 1608.0 1282.91 1608.0 C 1283.23 1608.01 1284.62 1610.76 1286.0 1614.11 C 1287.5 1617.78 1289.37 1620.63 1290.67 1621.23 C 1292.38 1622.03 1293.48 1621.8 1295.83 1620.12 C 1297.47 1618.96 1299.74 1618.0 1300.87 1618.0 C 1302.0 1618.0 1303.36 1617.2 1303.88 1616.22 C 1304.41 1615.24 1305.84 1614.36 1307.08 1614.27 C 1308.31 1614.18 1309.59 1613.71 1309.91 1613.24 C 1310.23 1612.77 1312.08 1611.77 1314.0 1611.02 C 1315.92 1610.27 1318.72 1608.81 1320.21 1607.78 C 1322.92 1605.92 1322.93 1605.93 1326.12 1608.71 C 1327.88 1610.24 1332.41 1614.7 1336.18 1618.61 C 1339.95 1622.52 1344.72 1627.92 1346.77 1630.61 C 1348.82 1633.3 1350.84 1635.65 1351.25 1635.83 C 1351.66 1636.02 1352.0 1636.75 1352.0 1637.46 C 1352.0 1638.17 1352.61 1639.26 1353.36 1639.89 C 1354.11 1640.51 1356.81 1644.55 1359.36 1648.87 C 1361.91 1653.19 1364.0 1657.46 1364.0 1658.36 C 1364.0 1659.26 1364.45 1660.0 1365.0 1660.0 C 1365.55 1660.0 1366.0 1660.61 1366.0 1661.35 C 1366.0 1662.08 1366.9 1663.51 1368.0 1664.5 C 1369.1 1665.5 1372.74 1671.98 1376.09 1678.91 C 1379.43 1685.83 1382.64 1692.62 1383.22 1694.0 C 1383.79 1695.38 1384.66 1697.51 1385.13 1698.75 C 1385.61 1699.99 1386.5 1702.24 1387.12 1703.75 C 1387.73 1705.26 1388.63 1707.28 1389.12 1708.24 C 1389.6 1709.19 1390.0 1710.85 1390.0 1711.93 C 1390.0 1713.0 1390.45 1714.16 1391.0 1714.5 C 1391.55 1714.84 1392.0 1716.78 1392.0 1718.81 C 1392.01 1720.84 1392.84 1723.87 1393.86 1725.54 C 1394.88 1727.21 1396.02 1730.13 1396.39 1732.04 C 1396.76 1733.94 1397.61 1737.97 1398.27 1741.0 C 1399.03 1744.5 1399.47 1756.12 1399.47 1773.0 C 1399.47 1791.35 1399.07 1801.35 1398.15 1805.5 C 1397.42 1808.8 1395.72 1816.22 1394.38 1822.0 C 1393.03 1827.78 1391.29 1834.53 1390.51 1837.0 C 1389.73 1839.47 1388.45 1843.08 1387.68 1845.0 C 1386.91 1846.92 1385.68 1849.92 1384.95 1851.66 C 1383.92 1854.13 1383.07 1854.79 1381.08 1854.66 C 1378.78 1854.52 1378.41 1855.03 1377.24 1860.0 C 1376.53 1863.03 1375.67 1866.62 1375.32 1868.0 C 1374.82 1869.94 1374.59 1870.11 1374.27 1868.75 C 1374.04 1867.79 1373.45 1867.0 1372.97 1867.0 C 1372.48 1867.0 1371.56 1868.91 1370.93 1871.25 C 1370.3 1873.59 1369.61 1876.95 1369.39 1878.72 C 1369.17 1880.49 1367.41 1889.21 1365.48 1898.1 C 1363.55 1907.0 1360.8 1918.82 1359.38 1924.39 C 1357.96 1929.95 1356.65 1935.17 1356.47 1936.0 C 1356.3 1936.83 1356.08 1937.5 1356.0 1937.5 C 1355.92 1937.5 1355.63 1938.4 1355.37 1939.5 C 1355.1 1940.6 1354.7 1942.4 1354.48 1943.5 C 1354.26 1944.6 1353.22 1949.33 1352.17 1954.0 C 1351.12 1958.67 1350.23 1963.17 1350.19 1964.0 C 1350.14 1964.83 1349.87 1966.62 1349.58 1968.0 C 1349.29 1969.38 1348.84 1971.62 1348.57 1973.0 C 1348.3 1974.38 1347.41 1978.54 1346.59 1982.27 C 1345.77 1985.99 1344.79 1989.53 1344.42 1990.13 C 1344.04 1990.74 1343.33 1992.87 1342.84 1994.87 C 1342.34 1996.87 1341.7 1999.62 1341.41 2000.98 C 1341.12 2002.35 1339.99 2006.4 1338.9 2009.98 C 1337.82 2013.57 1336.09 2019.42 1335.06 2023.0 C 1334.03 2026.58 1332.29 2032.65 1331.19 2036.5 C 1330.08 2040.35 1328.91 2044.74 1328.57 2046.25 C 1328.24 2047.76 1327.92 2049.33 1327.87 2049.75 C 1327.82 2050.16 1327.17 2052.07 1326.42 2054.0 C 1325.67 2055.93 1324.58 2059.53 1324.0 2062.0 C 1323.41 2064.47 1322.71 2067.62 1322.44 2069.0 C 1322.17 2070.38 1321.65 2072.18 1321.3 2073.0 C 1320.95 2073.82 1319.86 2077.43 1318.89 2081.0 C 1317.92 2084.57 1316.24 2090.88 1315.16 2095.0 C 1314.08 2099.12 1312.03 2106.94 1310.6 2112.36 C 1309.17 2117.79 1307.77 2123.3 1307.5 2124.61 C 1307.22 2125.93 1306.76 2128.15 1306.47 2129.55 C 1306.18 2130.95 1305.31 2133.99 1304.55 2136.3 C 1303.78 2138.61 1302.94 2141.85 1302.68 2143.5 C 1302.42 2145.15 1302.07 2146.95 1301.9 2147.5 C 1301.73 2148.05 1302.17 2150.19 1302.87 2152.25 C 1303.58 2154.31 1304.51 2156.0 1304.94 2156.0 C 1305.37 2156.0 1305.6 2160.84 1305.45 2166.75 C 1305.3 2172.66 1304.63 2182.22 1303.95 2188.0 C 1303.28 2193.78 1302.67 2201.31 1302.61 2204.75 C 1302.55 2208.18 1302.28 2211.0 1302.0 2211.0 C 1301.72 2211.01 1301.42 2214.94 1301.33 2219.75 C 1301.23 2224.56 1300.74 2230.07 1300.23 2232.0 C 1299.72 2233.93 1298.11 2238.1 1296.65 2241.28 C 1295.19 2244.46 1294.0 2247.73 1294.0 2248.54 C 1294.0 2249.36 1293.6 2250.81 1293.12 2251.76 C 1292.63 2252.72 1291.78 2254.62 1291.22 2256.0 C 1290.66 2257.38 1289.66 2260.07 1289.0 2262.0 C 1288.34 2263.93 1287.33 2266.62 1286.77 2268.0 C 1286.2 2269.38 1285.37 2271.4 1284.93 2272.5 C 1284.49 2273.6 1283.17 2277.43 1281.99 2281.0 C 1280.81 2284.57 1279.25 2288.81 1278.51 2290.41 C 1277.78 2292.01 1277.4 2293.88 1277.66 2294.56 C 1277.92 2295.24 1277.66 2296.09 1277.07 2296.46 C 1276.48 2296.82 1276.0 2298.19 1276.0 2299.5 C 1276.0 2300.81 1275.55 2302.16 1275.0 2302.5 C 1274.45 2302.84 1274.0 2304.0 1274.0 2305.07 C 1274.0 2306.15 1273.59 2307.81 1273.1 2308.76 C 1272.6 2309.72 1271.65 2312.53 1270.98 2315.0 C 1270.31 2317.47 1269.42 2320.62 1269.0 2322.0 C 1268.58 2323.38 1267.67 2326.53 1266.98 2329.0 C 1266.29 2331.47 1265.28 2335.07 1264.74 2337.0 C 1264.19 2338.93 1263.35 2341.53 1262.87 2342.8 C 1262.39 2344.06 1262.0 2346.17 1262.0 2347.49 C 1262.0 2348.8 1261.6 2350.13 1261.11 2350.43 C 1260.62 2350.73 1259.98 2352.45 1259.68 2354.24 C 1259.39 2356.03 1258.66 2359.41 1258.07 2361.75 C 1257.48 2364.09 1256.53 2367.91 1255.95 2370.25 C 1255.37 2372.59 1254.44 2376.53 1253.9 2379.0 C 1253.35 2381.47 1252.49 2385.53 1251.99 2388.0 C 1251.48 2390.47 1250.58 2394.97 1249.99 2398.0 C 1249.4 2401.03 1248.53 2405.75 1248.04 2408.5 C 1247.56 2411.25 1246.65 2416.65 1246.03 2420.5 C 1245.4 2424.35 1244.57 2430.43 1244.16 2434.0 C 1243.76 2437.57 1242.92 2441.39 1242.29 2442.49 Z M 1046.0 1804.29 C 1047.1 1804.0 1048.0 1803.59 1048.0 1803.38 C 1048.0 1803.17 1047.1 1803.0 1046.0 1803.0 C 1044.9 1803.0 1044.0 1803.41 1044.0 1803.91 C 1044.0 1804.4 1044.9 1804.58 1046.0 1804.29 Z M 1043.67 1796.67 C 1044.03 1796.3 1044.03 1795.7 1043.67 1795.33 C 1043.3 1794.97 1043.0 1795.27 1043.0 1796.0 C 1043.0 1796.73 1043.3 1797.03 1043.67 1796.67 Z M 1043.67 1788.67 C 1044.03 1788.3 1044.03 1787.7 1043.67 1787.33 C 1043.3 1786.97 1043.0 1787.27 1043.0 1788.0 C 1043.0 1788.73 1043.3 1789.03 1043.67 1788.67 Z M 1043.67 1782.67 C 1044.03 1782.3 1044.03 1781.7 1043.67 1781.33 C 1043.3 1780.97 1043.0 1781.27 1043.0 1782.0 C 1043.0 1782.73 1043.3 1783.03 1043.67 1782.67 Z " opacity="1.0" fill="#000000" stroke="none" fill-rule="evenodd"/><path d="M 1035.12 2208.0 C 1034.64 2208.0 1033.68 2207.31 1032.98 2206.48 C 1032.28 2205.64 1031.98 2204.68 1032.31 2204.35 C 1032.64 2204.02 1033.61 2204.02 1034.46 2204.35 C 1035.31 2204.67 1036.0 2205.63 1036.0 2206.47 C 1036.0 2207.31 1035.61 2208.0 1035.12 2208.0 Z M 982.8 2077.94 C 982.63 2077.9 981.52 2077.48 980.32 2076.99 C 979.11 2076.51 977.65 2075.22 977.07 2074.12 C 976.48 2073.03 976.0 2071.2 976.0 2070.07 C 976.0 2068.93 976.93 2067.07 978.06 2065.94 C 979.45 2064.55 981.12 2063.98 983.21 2064.19 C 985.16 2064.39 987.03 2065.49 988.28 2067.16 C 989.65 2069.0 990.06 2070.62 989.62 2072.39 C 989.26 2073.82 987.66 2075.64 986.04 2076.48 C 984.42 2077.32 982.96 2077.97 982.8 2077.94 Z M 966.42 2063.96 C 965.36 2063.94 963.11 2063.32 961.42 2062.58 C 959.66 2061.81 957.81 2059.95 957.09 2058.22 C 956.05 2055.71 956.1 2054.71 957.38 2052.22 C 958.23 2050.58 959.65 2048.96 960.54 2048.62 C 961.44 2048.28 963.19 2048.0 964.45 2048.0 C 965.7 2048.0 967.91 2049.19 969.36 2050.64 C 971.26 2052.54 972.0 2054.31 972.0 2056.98 C 972.0 2059.3 971.32 2061.31 970.17 2062.35 C 969.17 2063.26 967.48 2063.98 966.42 2063.96 Z M 944.3 2034.98 C 942.76 2034.96 939.96 2034.2 938.08 2033.27 C 936.2 2032.35 932.61 2029.65 930.11 2027.28 C 926.18 2023.57 925.55 2022.42 925.55 2019.0 C 925.55 2016.53 926.22 2014.36 927.31 2013.26 C 928.66 2011.92 930.52 2011.54 935.04 2011.67 C 939.61 2011.81 941.0 2011.52 941.0 2010.42 C 941.0 2009.64 941.9 2008.1 943.0 2007.0 C 944.1 2005.9 945.45 2005.0 946.0 2005.0 C 946.55 2005.0 947.9 2005.9 949.0 2007.0 C 950.1 2008.1 951.0 2009.47 951.0 2010.05 C 951.0 2010.62 949.87 2012.14 948.5 2013.41 C 946.06 2015.68 946.04 2015.79 947.79 2018.11 C 948.77 2019.43 950.12 2021.76 950.79 2023.3 C 951.46 2024.84 952.0 2026.91 952.0 2027.9 C 952.0 2028.89 950.9 2030.9 949.55 2032.35 C 948.0 2034.02 946.06 2034.99 944.3 2034.98 Z M 1517.94 1756.0 C 1515.56 1756.0 1514.94 1755.45 1514.16 1752.62 C 1513.65 1750.76 1513.55 1747.45 1513.95 1745.27 C 1514.35 1743.09 1516.41 1737.79 1518.54 1733.49 C 1520.66 1729.19 1524.12 1723.5 1526.22 1720.84 C 1528.33 1718.18 1530.85 1716.0 1531.82 1716.0 C 1532.8 1716.0 1534.14 1716.54 1534.8 1717.2 C 1535.46 1717.86 1536.0 1719.97 1536.0 1721.88 C 1536.0 1723.8 1535.07 1728.1 1533.93 1731.43 C 1532.8 1734.77 1531.49 1738.4 1531.04 1739.5 C 1530.58 1740.6 1529.45 1743.21 1528.54 1745.29 C 1527.62 1747.38 1525.5 1750.64 1523.83 1752.54 C 1521.7 1754.97 1519.94 1756.0 1517.94 1756.0 Z M 942.18 1702.94 C 941.81 1702.9 940.51 1702.47 939.3 1701.99 C 938.09 1701.5 936.36 1699.66 935.45 1697.9 C 934.19 1695.47 933.93 1693.2 934.37 1688.59 C 934.69 1685.24 935.24 1680.7 935.59 1678.5 C 935.94 1676.3 937.15 1673.49 938.29 1672.25 C 939.42 1671.01 941.34 1670.0 942.54 1670.0 C 943.98 1670.0 945.57 1671.29 947.15 1673.75 C 948.48 1675.81 950.11 1678.76 950.78 1680.3 C 951.45 1681.84 952.0 1686.14 952.0 1689.86 C 952.0 1695.34 951.6 1697.05 949.9 1698.87 C 948.75 1700.11 946.7 1701.54 945.34 1702.06 C 943.98 1702.58 942.56 1702.97 942.18 1702.94 Z M 1509.21 1692.0 C 1508.74 1692.0 1507.37 1690.96 1506.17 1689.69 C 1504.68 1688.09 1504.0 1686.1 1504.0 1683.31 C 1504.0 1681.07 1504.66 1677.67 1505.46 1675.74 C 1506.27 1673.82 1508.11 1670.84 1509.55 1669.12 C 1511.0 1667.4 1512.95 1666.0 1513.89 1666.0 C 1514.83 1666.0 1516.14 1666.54 1516.8 1667.2 C 1517.49 1667.89 1518.0 1671.22 1518.0 1675.08 C 1518.0 1678.75 1517.35 1683.32 1516.55 1685.23 C 1515.75 1687.14 1513.96 1689.45 1512.58 1690.35 C 1511.2 1691.26 1509.68 1692.0 1509.21 1692.0 Z M 912.51 1672.88 C 911.95 1672.82 910.6 1672.55 909.5 1672.28 C 908.4 1672.02 906.45 1670.83 905.16 1669.65 C 903.88 1668.47 902.19 1665.98 901.41 1664.13 C 900.64 1662.27 900.0 1659.33 900.0 1657.58 C 900.0 1655.83 899.47 1653.87 898.83 1653.23 C 897.93 1652.33 897.93 1651.45 898.83 1649.48 C 899.47 1648.06 900.01 1645.46 900.01 1643.7 C 900.02 1641.94 900.69 1638.59 901.51 1636.25 C 902.32 1633.92 904.2 1629.76 905.69 1627.0 L 908.39 1622.0 L 920.19 1622.0 C 919.4 1630.14 918.62 1634.75 917.95 1637.5 C 917.28 1640.25 916.66 1648.35 916.57 1655.5 C 916.45 1664.9 916.01 1669.12 914.96 1670.75 C 914.17 1671.99 913.06 1672.95 912.51 1672.88 Z M 1507.17 1646.0 C 1506.61 1646.0 1504.88 1644.72 1503.33 1643.17 C 1501.77 1641.61 1499.94 1639.13 1499.25 1637.67 C 1498.56 1636.2 1497.58 1633.99 1497.07 1632.75 C 1496.56 1631.51 1495.86 1628.92 1495.52 1627.0 C 1495.19 1625.08 1494.47 1621.03 1493.93 1618.0 C 1493.39 1614.97 1492.52 1609.35 1491.99 1605.5 C 1491.47 1601.65 1491.31 1596.92 1491.64 1595.0 C 1491.98 1593.08 1492.94 1590.71 1493.78 1589.75 C 1494.69 1588.71 1496.73 1588.0 1498.81 1588.0 C 1500.98 1588.0 1503.53 1588.93 1505.52 1590.44 C 1507.28 1591.79 1510.1 1595.05 1511.79 1597.69 C 1513.49 1600.34 1515.66 1604.75 1516.62 1607.5 C 1517.81 1610.91 1518.39 1615.69 1518.44 1622.57 C 1518.49 1631.36 1518.19 1633.24 1516.06 1637.39 C 1514.71 1640.0 1512.39 1643.01 1510.9 1644.07 C 1509.41 1645.13 1507.73 1646.0 1507.17 1646.0 Z M 946.0 1634.19 C 944.62 1634.46 942.52 1634.5 941.33 1634.28 C 940.13 1634.06 938.03 1632.76 936.65 1631.38 C 935.27 1630.0 933.86 1627.11 933.49 1624.92 C 933.12 1622.74 933.14 1618.61 933.53 1615.73 C 933.92 1612.85 935.14 1608.47 936.24 1606.0 C 937.34 1603.53 939.32 1599.25 940.64 1596.5 C 941.96 1593.75 944.21 1589.47 945.64 1587.0 C 947.07 1584.53 948.52 1582.28 948.87 1582.0 C 949.22 1581.72 950.76 1579.82 952.29 1577.78 C 953.81 1575.73 957.04 1572.69 959.46 1571.03 C 962.26 1569.1 965.11 1568.0 967.29 1568.0 C 969.67 1568.0 971.54 1568.81 973.36 1570.64 C 975.52 1572.79 976.0 1574.2 976.0 1578.32 C 976.0 1581.09 975.48 1584.96 974.85 1586.93 C 974.21 1588.89 973.04 1592.08 972.24 1594.0 C 971.44 1595.92 969.76 1599.75 968.51 1602.5 C 967.26 1605.25 964.77 1610.65 962.98 1614.5 C 961.19 1618.35 958.43 1623.38 956.86 1625.68 C 955.28 1627.98 952.76 1630.73 951.25 1631.79 C 949.74 1632.84 947.38 1633.93 946.0 1634.19 Z M 954.5 1557.8 C 952.25 1557.96 949.94 1557.54 949.25 1556.85 C 948.56 1556.16 948.0 1554.39 948.0 1552.91 C 948.0 1551.3 949.2 1548.93 950.97 1547.04 C 953.16 1544.69 954.64 1543.94 956.65 1544.18 C 958.6 1544.41 959.72 1545.37 960.63 1547.61 C 961.7 1550.24 961.63 1551.23 960.19 1554.11 C 958.75 1557.01 957.92 1557.54 954.5 1557.8 Z M 1003.95 1506.0 C 1002.08 1506.0 1000.33 1505.0 998.59 1502.92 C 996.45 1500.38 996.0 1498.83 996.0 1494.03 C 996.0 1488.99 996.39 1487.8 998.9 1485.11 C 1000.6 1483.29 1002.81 1482.0 1004.21 1482.0 C 1005.56 1482.0 1007.75 1483.22 1009.18 1484.75 C 1010.58 1486.26 1012.21 1488.93 1012.79 1490.69 C 1013.55 1492.96 1013.53 1494.91 1012.74 1497.48 C 1012.14 1499.47 1010.53 1502.2 1009.18 1503.55 C 1007.76 1504.97 1005.57 1506.0 1003.95 1506.0 Z " opacity="0.6" fill="#000000" stroke="none" fill-rule="evenodd"/></svg>