<?xml version="1.0" encoding="UTF-8" standalone="no"?>
<!-- Created with Inkscape (http://www.inkscape.org/) -->

<svg
   version="1.1"
   id="svg1"
   width="1200"
   height="1600"
   viewBox="0 0 1200 1600"
   xml:space="preserve"
   xmlns="http://www.w3.org/2000/svg"
   xmlns:svg="http://www.w3.org/2000/svg"><defs
     id="defs1" /><g><path
     style="fill:#000000"
     d="M 583.66667,1531.3333 C 583.3,1530.9667 583,1529.8898 583,1528.9403 c 0,-1.8874 -1.92978,-2.9403 -5.38902,-2.9403 -2.9284,0 -4.85883,-7.6247 -7.46884,-29.5 -2.58749,-21.6866 -2.53033,-23.1351 1.49511,-37.8914 4.07746,-14.947 5.67988,-22.1948 8.86769,-40.1086 1.27235,-7.15 3.96129,-19.525 5.9754,-27.5 2.01412,-7.975 4.15232,-17.6039 4.75156,-21.3975 0.99152,-6.2771 1.35165,-6.9965 4.00358,-7.9975 l 2.91406,-1.0999 -0.6511,-9.0026 c -1.66617,-23.0373 12.01996,-100.4376 21.32505,-120.6013 1.76475,-3.8241 1.9795,-4.0078 1.63774,-1.4012 -1.79946,13.7246 -5.46123,67.0601 -5.46123,79.5455 0,6.9074 -0.46328,9.7053 -2.2481,13.5774 -4.58402,9.9447 -2.72405,39.0063 6.20023,96.8771 3.16501,20.524 4.55147,42.3489 3.47808,54.75 l -0.93048,10.75 h 2.16835 c 7.34368,0 7.4142,6.9287 0.14872,14.6128 l -2.94322,3.1128 4.65018,0.5242 c 5.06183,0.5705 6.13544,1.246 6.64267,4.1793 0.27946,1.6161 -1.1263,2.4271 -8.66643,5 -9.32255,3.181 -11.04794,4.1004 -25.85944,13.7807 -8.15212,5.3279 -12.26245,6.835 -13.97389,5.1235 z M 417.5,1328.5979 c -1.1,-0.8439 -3.0125,-1.5486 -4.25,-1.5661 -3.29759,-0.047 -2.93647,-3.8512 1.30224,-13.72 5.4859,-12.7725 5.95813,-17.8407 3.03061,-32.5258 -2.21372,-11.1046 -2.50223,-15.5554 -3.00034,-46.286 -0.30311,-18.7 -0.97812,-38.05 -1.50003,-43 -1.67888,-15.9233 -6.14669,-44.2914 -9.12438,-57.9347 l -1.97404,-9.0447 2.10009,-1.5841 2.10009,-1.5841 -2.59161,-10.7541 c -3.54535,-14.7118 -3.33393,-15.2391 7.42791,-18.5265 1.93629,-0.5915 5.65615,-2.8402 8.26635,-4.9972 2.6102,-2.1569 6.79567,-4.7045 9.30105,-5.6613 7.96037,-3.0401 14.3283,-22.5474 12.971,-39.7349 -0.83517,-10.5757 -9.24911,-42.70191 -11.87023,-45.32302 -0.76783,-0.76783 -4.14194,6.84492 -5.17882,11.68452 -0.99251,4.6325 -11.53409,37.1934 -12.45146,38.4601 -0.39832,0.55 -2.24854,4.825 -4.11159,9.5 -3.16687,7.9467 -9.75646,19.8197 -12.66599,22.8214 -0.70447,0.7268 -1.28085,1.7393 -1.28085,2.25 0,0.5107 -0.675,0.9286 -1.5,0.9286 -1.79802,0 -2.00122,-4.655 -0.44742,-10.25 0.764,-2.751 1.57921,-3.75 3.06017,-3.75 8.66063,0 15.88725,-20.358 15.88725,-44.7557 0,-4.4661 0.65346,-10.9606 1.45212,-14.4322 10.43163,-45.34403 1.48894,-102.79392 -21.4353,-137.7052 l -6.16791,-9.3931 3.48871,0.56614 c 1.91879,0.31137 7.18066,2.69565 11.69304,5.29839 4.51239,2.60274 11.52968,6.17784 15.59399,7.94467 13.14133,5.71276 20.93876,15.81542 21.92364,28.40512 l 0.72706,9.29405 -2.38768,-0.74808 C 429.81124,910.57028 412.61946,895.21951 401.1989,881.5 l -4.16217,-5 5.29423,12 c 2.91182,6.6 5.91732,13.575 6.67888,15.5 0.76156,1.925 3.24118,5.15558 5.51027,7.17907 4.9232,4.39031 9.49129,12.64778 12.48641,22.57093 1.20356,3.9875 2.42798,7.25 2.72093,7.25 1.20502,0 -0.59264,-9.00804 -2.09808,-10.51349 -5.30753,-5.30753 3.54839,-11.28093 9.6311,-6.49627 2.14646,1.68841 2.70637,3.31875 3.6919,10.75 1.54938,11.68288 2.85053,17.4714 5.68269,25.28097 2.65316,7.31596 2.92093,13.68637 1.40062,33.32149 l -0.91696,11.8427 3.47472,3.4747 c 1.91109,1.9111 4.86963,6.5944 6.57452,10.4073 2.51321,5.6207 3.52797,6.9326 5.36233,6.9326 2.73839,0 7.78759,5.4716 9.55207,10.3512 0.69283,1.916 2.28608,3.9513 3.54056,4.5229 2.74929,1.2526 5.23328,5.7866 6.27435,11.4523 l 0.76689,4.1736 1.85313,-3.75 c 2.70573,-5.4753 5.36126,-3.9717 7.56993,4.2863 l 1.20637,4.5105 -5.77891,9.3423 c -9.39766,15.1924 -12.44741,17.8228 -17.51782,15.1092 -1.69,-0.9044 -1.82009,-0.6838 -1.34024,2.2731 1.22094,7.5238 -4.26835,9.4626 -8.64487,3.0534 -21.51426,-31.5067 -55.68516,31.4798 -40.78346,75.1752 1.50055,4.4 2.93609,9.575 3.19007,11.5 0.64617,4.8975 8.60999,33.9969 13.46929,49.2161 4.81339,15.0754 12.22097,30.1763 18.51291,37.7397 5.41294,6.5069 6.11249,9.567 6.06799,26.5442 -0.0271,10.3434 -0.35124,12.7167 -2.34787,17.1912 -2.15703,4.8341 -2.20647,5.3482 -0.71854,7.4725 2.24849,3.2102 1.98868,6.2704 -0.80842,9.5222 l -2.40629,2.7975 -13.34371,0.1152 c -7.33905,0.063 -15.14372,0.4343 -17.34372,0.8243 -2.92445,0.5185 -4.53777,0.2967 -6,-0.825 z M 620.0258,1205.809 c 0.0142,-8.9699 0.45892,-20.809 0.98829,-26.309 0.52938,-5.5 1.22671,-12.7 1.54964,-16 0.41372,-4.2279 0.28556,-5.5655 -0.43392,-4.529 -6.69176,9.6408 -2.46763,-27.99 4.87971,-43.471 0.52207,-1.1 1.39736,-3.2375 1.94509,-4.75 l 0.99589,-2.75 h -4.07054 -4.07053 l 0.71211,-15.25 c 0.69778,-14.9432 2.68066,-24.5076 6.7704,-32.6573 1.78596,-3.5589 1.41964,-32.1981 -0.68549,-53.5927 -1.95034,-19.82134 -2.25372,-21.40841 -6.30822,-33 l -2.79823,-8 -5,-0.69416 c -9.74655,-1.35312 -11.49934,-1.99617 -13.64163,-5.00474 -1.58821,-2.23043 -2.64053,-2.81866 -4.23579,-2.36772 -15.92193,4.50072 -32.07301,0.80309 -42.83498,-9.80663 -5.24931,-5.17505 -6.59856,-5.66634 -6.52726,-2.37675 0.0685,3.16121 -1.21607,22.73271 -1.69012,25.75 -0.21603,1.375 -0.66944,4.53191 -1.00758,7.01535 -0.33815,2.48345 -1.45355,5.79394 -2.47867,7.35665 -2.61625,3.98824 -1.88311,6.06285 11.64829,32.9616 8.12004,16.1417 11.16288,23.1132 10.31652,23.6363 -1.38738,0.8574 6.08494,20.2589 28.08391,72.9184 7.67924,18.382 13.73002,34.0271 13.44617,34.7668 -1.59862,4.1659 -4.28553,0.908 -12.4121,-15.0498 -4.58328,-9 -13.50128,-25.9805 -19.81778,-37.7345 -6.31649,-11.7539 -13.34463,-24.9708 -15.61808,-29.3708 -2.27346,-4.4 -5.55549,-10.25 -7.29341,-13 C 545.88556,1047.2973 536,1030.3315 536,1029.7221 c 0,-0.2847 -1.80957,-3.4963 -4.02127,-7.1368 -2.2117,-3.6406 -4.87313,-8.7491 -5.91429,-11.3522 -1.04117,-2.6032 -3.45233,-8.1265 -5.35814,-12.27388 -2.8956,-6.30139 -3.40703,-8.43804 -3.11169,-13 0.64651,-9.98639 0.64597,-11.39326 -0.008,-21.95922 -0.96402,-15.56457 -0.66239,-28.68092 0.88536,-38.5 0.34678,-2.2 0.76767,-4.9 0.93531,-6 0.16763,-1.1 0.90981,-4.7 1.64928,-8 0.73947,-3.3 1.25086,-6.9 1.13643,-8 -1.29441,-12.44293 -0.14851,-29.03235 2.93564,-42.5 2.50896,-10.95596 2.27383,-10.14682 3.70511,-12.75 0.6804,-1.2375 1.03488,-2.25 0.78775,-2.25 -2.78927,0 12.48705,-23.28299 19.85353,-30.25921 10.12734,-9.59081 24.74642,-14.16802 31.85514,-9.97377 l 3.41871,2.01709 3.22431,-3.8984 c 6.59679,-7.97595 21.13235,-21.89762 24.76771,-23.72169 4.50794,-2.2619 4.61051,-2.23244 10.83464,3.11192 9.79547,8.41089 15.23884,14.72924 18.27009,21.20687 1.67737,3.58445 3.27723,6.51719 3.55525,6.51719 0.75326,0 6.0224,-2.37896 6.59959,-2.97965 0.275,-0.28619 2.60132,-1.50942 5.1696,-2.71829 l 4.6696,-2.19794 5.52654,5.69794 c 6.35037,6.54733 10.38604,11.93478 14.11407,18.84173 1.44164,2.67091 3.71726,6.65621 5.05695,8.85621 2.61957,4.30179 8.17309,18.26444 11.13675,28 4.61596,15.16336 -0.10651,57.72481 -8.72356,78.62137 -1.57172,3.81146 -3.57335,10.85588 -4.44806,15.65428 -0.87472,4.79839 -1.99354,10.07435 -2.48626,11.72435 -1.67151,5.59739 -4.04029,15.37774 -4.40678,18.195 -0.51333,3.94599 -1.61299,8.45671 -2.63413,10.805 -3.15763,7.2615 -12.97538,47.9837 -13.50111,56 -0.61154,9.3247 -1.60204,14.6856 -6.4667,35 -1.58049,6.6 -3.1922,14.7 -3.58156,18 -0.38936,3.3 -2.92188,11.85 -5.62781,19 -11.23399,29.6829 -23.798,77.5334 -23.798,90.6339 0,1.5114 -0.45,3.0262 -1,3.3661 -0.65144,0.4026 -0.99101,-5.0666 -0.9742,-15.691 z M 429,882.88071 c -2.475,-2.23278 -3.62035,-3.77311 -2.54521,-3.42296 1.07513,0.35016 3.91107,0.90479 6.30209,1.23251 3.23001,0.44273 4.20541,0.96563 3.79521,2.03459 -0.30365,0.7913 -0.55209,2.07692 -0.55209,2.85694 0,2.41846 -2.31547,1.525 -7,-2.70108 z M 308,592.86221 c -1.925,-1.63531 -5.3996,-3.48819 -7.72134,-4.11749 -5.15598,-1.39753 -6.5484,-4.2919 -9.23483,-19.19607 -2.15044,-11.93052 -2.60092,-10.94815 3.8895,-8.48198 7.66187,2.91128 6.5443,-4.28848 -1.95371,-12.58657 -2.14323,-2.09281 -3.66264,-4.18397 -3.37646,-4.64701 0.28618,-0.46305 -1.86996,-3.20665 -4.79142,-6.0969 -11.56808,-11.44451 -23.94809,-48.75106 -19.70351,-59.37558 0.62856,-1.57333 1.06759,-4.73496 0.97561,-7.02583 -0.092,-2.29087 0.23879,-4.41614 0.73501,-4.72283 0.49623,-0.30668 -0.63462,-5.6268 -2.51299,-11.82247 -5.80185,-19.13696 -5.86833,-28.80223 -0.36651,-53.28948 4.57793,-20.37521 19.12651,-50.69947 31.20124,-65.03412 C 308.55046,320.5462 313.62811,315.514 327.55868,304.33802 333.54937,299.5319 356.00475,285 357.4407,285 c 0.20337,0 3.65422,-2.025 7.66855,-4.5 8.00108,-4.933 11.22038,-5.5463 13.12282,-2.5 1.72572,2.76332 2.16981,2.6042 6.82413,-2.44514 C 390.67842,269.45547 405.49034,265 420.14515,265 c 17.69257,0 24.19609,6.7639 23.71038,24.65965 -1.25836,46.36298 6.58172,69.39366 30.94899,90.91443 24.96051,22.04471 45.18914,52.5622 47.74425,72.02835 1.93251,14.72287 -3.58374,12.18111 -8.90328,-4.10243 -8.71112,-26.66541 -15.81819,-39.99058 -24.79917,-46.49636 -6.07999,-4.40433 -7.20283,-4.06573 -6.62034,1.99636 0.61326,6.38235 1.04981,6.73563 -6.79632,-5.5 -3.70323,-5.775 -7.31422,-10.5 -8.02441,-10.5 -2.32908,0 -13.34975,-11.10841 -17.16741,-17.30408 l -3.73784,-6.06614 -0.52594,4.43511 c -1.28604,10.84481 -10.04359,4.80887 -13.51497,-9.31489 -0.90973,-3.70134 -1.91636,-3.46195 -3.03272,0.72123 l -0.92637,3.47122 -2.1964,-1.72122 c -1.9977,-1.56551 -2.09667,-2.08858 -1.09401,-5.78165 1.95283,-7.19283 -0.33915,-11.88898 -5.72795,-11.73622 -3.19424,0.0905 -3.78348,-0.27076 -4.69202,-2.87702 -2.36581,-6.78657 -9.71594,-0.47456 -11.77109,10.10855 -1.62227,8.35399 -3.12559,11.21672 -2.35988,4.49387 2.2779,-19.99994 -15.08699,-13.40999 -27.01057,10.25047 -4.71802,9.36216 -6.60105,6.75916 -4.87743,-6.7423 0.97928,-7.67088 0.5356,-12.78038 -1.41197,-16.26048 -2.62536,-4.69127 -17.5918,12.77627 -22.49285,26.25172 -5.82926,16.02756 -8.26747,23.79103 -11.32876,36.07183 -1.85086,7.425 -3.77285,14.57073 -4.27108,15.87941 -0.59845,1.5719 -0.44235,4.1172 0.45994,7.5 1.13816,4.26703 1.64885,48.59389 0.56012,48.61621 -0.11767,0.002 -1.35517,-1.67508 -2.75,-3.72775 -4.82665,-7.10306 -0.72362,8.79911 4.64064,17.98581 6.79674,11.63991 7.00564,14.65717 0.30367,4.38602 -1.84452,-2.82684 -4.48579,-6.4897 -5.86949,-8.1397 l -2.51582,-3 1.78721,6.00694 c 0.98296,3.30382 2.38691,7.12882 3.11987,8.5 0.77851,1.45639 -1.02384,0.15631 -4.33444,-3.12651 C 316.12167,488.40606 303,478.41736 303,480.38616 c 0,2.92876 11.19022,17.53175 24.49605,31.96679 5.50217,5.96913 10.87187,11.9905 11.93266,13.38083 l 1.9287,2.52787 -2.21091,-1.18325 c -2.08605,-1.11642 -2.17293,-1.02497 -1.53837,1.61918 1.57189,6.54984 11.54859,18.22519 25.32187,29.63318 L 367.36,562 h -2.9985 c -4.48913,0 -13.17985,-2.78503 -19.24841,-6.16835 -6.38711,-3.56091 -12.6519,-3.553 -16.45602,0.0208 -1.25729,1.18116 -2.72641,2.14756 -3.26472,2.14756 -0.53832,0 -1.40932,1.45272 -1.93555,3.22827 -1.43998,4.85856 -5.1605,6.53325 -11.02795,4.96394 -11.95116,-3.19644 -12.59436,5.01826 -1.83099,23.38456 3.33374,5.6886 2.08701,7.2653 -2.59786,3.28544 z M 313.25624,429.5 c 2.56047,-5.02883 6.0032,-8.8656 8.69451,-9.68963 0.91568,-0.28037 1.0612,-0.68495 0.39456,-1.09696 -3.59468,-2.22163 -13.60882,12.27538 -14.7042,21.28659 l -0.547,4.5 1.80817,-5 c 0.9945,-2.75 2.95378,-7.25 4.35396,-10 z m 203.27098,141.08909 c 2.5681,-6.14631 1.33895,-8.96861 -3.61646,-8.30395 -3.72452,0.49957 -3.94454,0.39203 -3.32496,-1.62509 0.99948,-3.25398 3.32857,-7.33351 3.37416,-5.91005 0.074,2.30941 2.4346,1.27918 6.73122,-2.93763 6.84267,-6.71557 5.05743,11.6287 -1.88886,19.40905 l -2.8934,3.24081 z"
     id="path3" /><path
     style="fill:#000000;fill-opacity:0.501706"
     d="m 464.66667,1177.3333 c -0.36667,-0.3666 -0.66667,-1.7166 -0.66667,-3 0,-2.7029 3.67194,-3.3518 4.64326,-0.8206 0.93862,2.446 -2.2692,5.528 -3.97659,3.8206 z m 3.51411,-29.4038 c 0.37393,-3.781 3.09581,-6.0529 4.98655,-4.1622 1.87322,1.8733 -0.16276,6.6548 -3.00668,7.0613 -2.04329,0.2921 -2.26358,-0.031 -1.97987,-2.8991 z m -188.27146,-0.9936 c -1.08081,-0.6741 -1.15082,-1.2935 -0.30033,-2.6574 1.51478,-2.4293 3.82522,-2.2396 4.19388,0.3442 0.34115,2.391 -1.76384,3.6416 -3.89355,2.3132 z m -6.8861,-10.5698 c -4.22053,-3.5514 -3.96719,-7.7245 0.49551,-8.1622 4.43956,-0.4355 9.05975,4.6931 8.59975,9.5461 -0.21063,2.2222 -5.8249,1.3679 -9.09526,-1.3839 z m 17.4976,-4.7544 c -4.62988,-4.6299 -3.71507,-16.0431 1.21052,-15.1025 0.97276,0.1858 2.33777,0.3722 3.03336,0.4143 0.69558,0.042 2.1564,1.539 3.24626,3.3265 5.26452,8.6344 -0.8867,17.9652 -7.49014,11.3617 z m 16.8747,-17.9479 c -2.84041,-2.4432 -2.6075,-4.6638 0.48918,-4.6638 2.7349,0 6.39044,4.3249 4.9083,5.807 -1.65866,1.6587 -2.2974,1.5234 -5.39748,-1.1432 z M 516.5,1103 c -0.33992,-0.55 -0.14148,-1 0.44098,-1 0.58246,0 1.05902,0.45 1.05902,1 0,0.55 -0.19844,1 -0.44098,1 -0.24254,0 -0.7191,-0.45 -1.05902,-1 z m -199.82411,-9.4022 c -0.29595,-0.7713 -0.3001,-1.6403 -0.009,-1.9311 0.91851,-0.9185 3.33333,0.4871 3.33333,1.9403 0,1.8149 -2.62692,1.8076 -3.32411,-0.01 z m 172.36398,-56.0498 c -1.88295,-2.2688 -0.85625,-5.048 1.86484,-5.048 3.15441,0 4.9413,2.7757 3.16486,4.9162 -1.63805,1.9737 -3.46141,2.0215 -5.0297,0.1318 z m -9.46517,-7.1162 c -1.99797,-1.9979 -1.7303,-4.3046 0.6753,-5.8195 2.56521,-1.6155 5.25,0.4284 5.25,3.9967 0,3.4661 -3.27464,4.4735 -5.9253,1.8228 z M 468.00035,1015.75 c -7.03555,-4.8036 -6.78367,-11.387 0.38323,-10.017 1.94916,0.3726 2.61642,0.088 2.61642,-1.1164 0,-0.9499 0.82479,-1.6166 2,-1.6166 2.19971,0 2.87946,3.5402 0.81207,4.2293 -0.84249,0.2808 -0.69709,1.0968 0.5,2.8059 4.10598,5.8621 -0.27986,9.8332 -6.31172,5.7148 z M 281.06092,879.03765 c -1.91011,-1.18051 -0.83529,-4.53765 1.45278,-4.53765 1.26279,0 2.09662,0.7732 2.28917,2.12272 0.33033,2.31518 -1.74071,3.65177 -3.74195,2.41493 z m 475.94885,-4.2181 c 0.0203,-6.90731 7.53881,-18.67097 10.2197,-15.99008 2.68159,2.68159 -3.93995,18.41037 -7.9945,18.99008 -1.93014,0.27597 -2.23364,-0.13321 -2.2252,-3 z M 467.98526,849.48224 C 465.46055,846.44015 468.1634,835 471.40684,835 c 3.42853,0 6.18225,12.01091 3.39316,14.8 -1.66897,1.66897 -5.30668,1.49935 -6.81474,-0.31776 z m 285.02384,-4.97128 c -2.50121,-3.01377 1.23275,-12.3996 4.44286,-11.16777 2.05762,0.78958 2.05206,7.49221 -0.009,10.4343 -1.82761,2.60928 -2.7507,2.76197 -4.4342,0.73347 z M 272.34184,841.2576 c -5.69891,-6.22176 -3.4097,-11.1852 3.78442,-8.2053 4.38709,1.81719 6.49149,6.35594 4.41577,9.5239 -2.20241,3.3613 -4.20914,3.03861 -8.20019,-1.3186 z m 181.68298,-5.5579 C 446.661,832.02843 449.32792,811 457.15735,811 h 3.10599 l -0.74008,4.25 c -0.40704,2.3375 -0.89927,7.52204 -1.09384,11.5212 -0.44789,9.20573 -1.11916,10.56646 -4.4046,8.9285 z m 297.09864,-14.79755 c -2.56204,-2.75004 -5.35245,-14.89415 -4.93532,-21.47902 0.52117,-8.22738 6.35522,-7.13325 11.07412,2.07687 5.17203,10.09454 0.10623,26.1054 -6.1388,19.40215 z m -283.2307,-5.53136 C 462.96233,809.42998 475.54173,784 483.41089,784 c 6.0377,0 5.90423,6.68912 -0.39579,19.83537 -6.04271,12.60931 -11.0568,16.43409 -15.12234,11.53542 z M 246.71863,777.07746 c -6.6775,-7.93576 -2.42897,-16.51507 4.66526,-9.42084 4.71505,4.71505 4.99949,11.62488 0.50002,12.14688 -1.90603,0.22113 -3.30799,-0.51877 -5.16528,-2.72604 z m 49.51033,1.25325 c -3.8004,-1.52908 -5.33906,-10.28334 -2.70328,-15.38037 2.06352,-3.9904 7.59193,-4.22667 10.07911,-0.43075 4.14627,6.328 -1.39933,18.21574 -7.37583,15.81112 z m 178.16265,-0.75257 C 473.57913,775.46084 475.79789,772 477.9678,772 c 2.34177,0 3.62688,3.57852 1.99237,5.54799 -1.54254,1.85865 -4.86,1.87662 -5.56856,0.0301 z M 463.2,753.8 c -3.03419,-3.03419 0.0861,-12.48145 3.80159,-11.50984 1.50232,0.39287 1.76764,-0.23304 1.76764,-4.16992 0,-11.11844 10.5277,-24.12024 19.53042,-24.12024 5.76411,0 5.61341,5.11918 -0.62829,21.34145 -5.69024,14.78905 -9.73927,18.62203 -14.81719,14.02657 -1.68678,-1.52651 -1.86649,-1.46582 -2.78088,0.9392 -0.53765,1.41415 -1.86951,3.04854 -2.95968,3.63198 -2.46344,1.31839 -2.45574,1.31867 -3.91361,-0.1392 z m -195.54501,-2.62874 c -2.48093,-2.74139 -2.00519,-7.22749 1.32299,-12.47548 6.02298,-9.49726 15.27069,-1.98403 10.08041,8.18976 -3.10769,6.09158 -8.07846,7.95974 -11.4034,4.28572 z m 231.41267,-0.0448 c -3.83019,-7.15678 2.9565,-13.91532 6.89797,-6.86935 1.37884,2.46488 1.37893,3.02167 9.5e-4,5.49292 -1.9052,3.41674 -5.43055,4.1201 -6.89892,1.37643 z M 252.29903,735.4969 c -4.90341,-3.43449 -5.06717,-8.55044 -0.60806,-18.9969 6.90589,-16.17861 21.70194,-19.87347 23.05825,-5.75809 0.52744,5.48914 -4.89163,18.8882 -9.70975,24.00809 -2.53259,2.69122 -9.39054,3.09326 -12.74044,0.7469 z m 209.41355,-3.11766 c -0.92683,-0.92682 -0.89178,-5.56499 0.0527,-6.97954 3.75907,-5.62972 9.48314,-2.97698 7.10645,3.29338 -1.4025,3.70018 -5.19332,5.65202 -7.15918,3.68616 z M 277.97502,723.43429 C 276.51631,719.59761 279.18983,713 282.20326,713 c 1.64283,0 3.51844,6.125 2.86392,9.35244 -0.89116,4.39435 -5.56187,5.10683 -7.09216,1.08185 z m 105.47953,-2.88884 C 375.91683,713.00774 389.44575,692 401.83772,692 c 5.30886,0 5.61145,2.05154 1.34539,9.12162 -2.11677,3.50811 -5.35198,9.21968 -7.18934,12.69239 -2.02927,3.83543 -4.43073,6.87771 -6.11755,7.75 -3.58657,1.85469 -3.54124,1.86188 -6.42167,-1.01856 z m -89.41992,-15.85189 c -20.60466,-7.09674 -2.79805,-56.01543 24.97546,-68.61308 10.61081,-4.81291 19.977,0.79776 19.98617,11.97242 0.007,9.00813 -20.52853,43.38896 -28.89366,48.37316 -0.85483,0.50934 -3.52793,2.87184 -5.94022,5.25 -4.77011,4.70263 -5.01945,4.77692 -10.12775,3.0175 z M 412.2,700.8 c -2.65707,-2.65707 -0.58874,-8.23914 4.96468,-13.39888 C 425.12547,680.00468 431,678.58847 431,684.06574 431,692.68034 416.7577,705.3577 412.2,700.8 Z M 229.22251,686.4433 c -2.69559,-1.88806 -2.88013,-5.53818 -0.39377,-7.78831 2.39019,-2.1631 3.73854,-2.08771 6.17126,0.34501 4.53065,4.53065 -0.56438,11.0947 -5.77749,7.4433 z M 406.75,685.9199 c -2.3642,-1.37702 -2.20345,-3.48888 0.40461,-5.31564 4.07292,-2.85279 7.77372,1.32455 4.27396,4.82431 -1.8215,1.82151 -2.30722,1.87251 -4.67857,0.49133 z m -151.09501,-6.74864 c -4.2145,-4.65697 -1.3739,-12.58278 7.79621,-21.75289 14.8737,-14.87371 23.7188,-0.97095 9.76991,15.3564 -6.88532,8.05934 -13.78691,10.57248 -17.56612,6.39649 z m 87.91644,-22.74269 C 340.99486,653.852 343.37533,648 347,648 c 1.17809,0 5,3.65183 5,4.77749 0,4.03158 -5.61554,6.46411 -8.42857,3.65108 z m -54.25606,-6.44487 c -4.57199,-1.82259 -5.60821,-7.42051 -2.00092,-10.80939 3.05944,-2.87419 6.20333,-2.74744 9.32678,0.37601 5.10437,5.10438 -0.53754,13.1395 -7.32586,10.43338 z m 60.3513,-5.65037 c -2.38105,-2.38104 1.23751,-5.48767 3.8584,-3.31253 1.14005,0.94616 1.22752,1.57239 0.36482,2.61188 -1.21644,1.46572 -3.13917,1.78471 -4.22322,0.70065 z m 94.32399,-56.35079 c -1.67811,-3.13556 -0.50818,-5.1747 2.75365,-4.79951 2.32477,0.2674 2.75569,0.78609 2.75569,3.31697 0,3.81632 -3.72402,4.81845 -5.50934,1.48254 z m 35.04452,0.0832 c -1.6701,-3.12062 -1.20472,-4.98508 1.40798,-5.64083 4.28764,-1.07613 7.81468,3.17439 4.98343,6.00564 -2.14343,2.14343 -5.14059,1.97236 -6.39141,-0.36481 z M 430.28891,566.39031 C 419.99828,558.19592 417.97159,554 424.30422,554 429.74924,554 442,563.26068 442,567.37673 c 0,4.91884 -4.80325,4.51426 -11.71109,-0.98642 z m 9.81498,-10.05978 c -9.92002,-5.02955 -17.38429,-30.58349 -11.68457,-40.00217 6.43237,-10.62938 12.52627,-4.11342 21.98852,23.51146 l 4.43793,12.95645 -2.27949,2.14146 c -3.13105,2.94148 -8.27417,3.51627 -12.46239,1.3928 z M 487.2,555.8 c -3.30936,-3.30936 -0.74122,-9.8 3.87756,-9.8 3.20468,0 5.17244,2.09238 5.17244,5.5 0,4.777 -5.81166,7.53834 -9.05,4.3 z M 474,523 c -3.91719,-3.91719 -0.76469,-12 4.68031,-12 2.13746,0 6.31969,4.63244 6.31969,7 0,5.35443 -7.31883,8.68117 -11,5 z m -21.50368,-11.00406 c -1.49857,-1.65591 -1.61608,-2.43767 -0.67642,-4.5 1.39698,-3.06604 3.83614,-3.19855 6.3128,-0.34293 4.04534,4.66431 -1.49214,9.42226 -5.63638,4.84293 z"
     id="path4" /></g></svg>
