<?xml version="1.0" encoding="UTF-8" standalone="no"?>
<!-- Created with Inkscape (http://www.inkscape.org/) -->

<svg
   version="1.1"
   id="svg1"
   width="2400"
   height="3200"
   viewBox="0 0 2400 3200"
   xml:space="preserve"
   xmlns="http://www.w3.org/2000/svg"
   xmlns:svg="http://www.w3.org/2000/svg"><defs
     id="defs1" /><path
     style="fill:#000000"
     d="m 1236.5,3134.9818 c -4.4,-0.4938 -9.8,-1.3261 -12,-1.8496 -2.2,-0.5235 -8.5,-1.9312 -14,-3.1283 -5.5,-1.197 -12.475,-2.8458 -15.5,-3.6639 -3.025,-0.8181 -8.3405,-2.2113 -11.8123,-3.0959 -3.8679,-0.9856 -6.6891,-2.3124 -7.2852,-3.4263 -0.5351,-0.9998 -1.6183,-1.8178 -2.4073,-1.8178 -2.0505,0 -8.1938,-3.6077 -11.1112,-6.5251 -1.3676,-1.3676 -4.2635,-3.3931 -6.4353,-4.5011 -2.1718,-1.1079 -3.9498,-2.3428 -3.951,-2.7441 0,-0.4013 -1.3126,-2.2627 -2.9139,-4.1363 -6.842,-8.0053 -6.2675,-19.1866 2.0555,-40.0033 1.0125,-2.5323 0.9647,-2.8208 -3.7251,-22.4992 -1.4299,-6.0001 -3.0078,-14.7751 -3.5065,-19.5 -1.1706,-11.0909 -2.6169,-22.7921 -3.9048,-31.5909 -2.0905,-14.2819 -3.2439,-24.077 -3.15,-26.75 0.1184,-3.3708 0.094,-9.4914 -0.057,-14.5 -0.3608,-11.9284 3.3428,-33.4591 7.1816,-41.75 2.0956,-4.526 8.0227,-27.4543 8.0227,-31.0348 0,-1.291 0.3903,-2.5884 0.8674,-2.8832 0.477,-0.2949 1.1449,-2.4589 1.4841,-4.809 0.8858,-6.1375 2.1281,-12.333 3.9646,-19.773 0.8824,-3.575 2.119,-9.2 2.7479,-12.5 2.2393,-11.7497 16.2748,-70.138 18.9902,-79 9.1075,-29.7232 5.2387,-33.6806 -14.097,-14.4197 -7.2222,7.1942 -15.1832,14.286 -17.6912,15.7595 -2.508,1.4736 -4.8761,3.3499 -5.2624,4.1697 -0.3863,0.8198 -1.4591,2.8405 -2.384,4.4905 -0.9249,1.65 -4.0919,7.725 -7.0377,13.5 -2.9458,5.775 -7.726,14.325 -10.6225,19 -2.8965,4.675 -7.5598,12.2007 -10.3629,16.7239 -2.8031,4.5231 -5.8198,9.0658 -6.7039,10.0949 -0.8841,1.029 -3.5523,4.7533 -5.9294,8.2761 -2.377,3.5228 -5.0501,7.0801 -5.94,7.9051 -0.8899,0.825 -2.7098,3.0607 -4.0441,4.9683 -1.3344,1.9075 -5.9255,7.0007 -10.2026,11.3182 -4.2771,4.3175 -7.7765,8.2095 -7.7765,8.6489 0,0.4393 -1.9125,2.0632 -4.25,3.6086 -2.3375,1.5454 -5.4126,3.9677 -6.8336,5.3829 -1.421,1.4152 -3.896,3.1904 -5.5,3.9449 -1.604,0.7545 -4.1679,2.0257 -5.6975,2.8249 -10.6359,5.5571 -20.6811,4.9133 -25.5584,-1.6382 -1.457,-1.9572 -2.9377,-3.7835 -3.2904,-4.0585 -2.1204,-1.6533 -10.8701,-18.1243 -10.8701,-20.4626 0,-0.8576 -0.8624,-3.4668 -1.9164,-5.7983 -1.054,-2.3315 -2.9109,-7.1641 -4.1263,-10.7391 -1.2155,-3.575 -2.5333,-6.95 -2.9285,-7.5 -0.3951,-0.55 -1.29709,-3.25 -2.0043,-6 -0.70722,-2.75 -2.39471,-8.375 -3.74999,-12.5 -1.35529,-4.125 -2.85,-9.975 -3.32159,-13 -0.47158,-3.025 -1.59411,-10.225 -2.49449,-16 -1.34203,-8.6077 -1.44074,-12.0441 -0.54774,-19.0677 0.59912,-4.7123 1.09738,-11.2373 1.10725,-14.5 0.0539,-17.8223 6.21111,-38.8677 13.27236,-45.3649 1.5346,-1.4121 4.6846,-4.3735 7,-6.5809 2.3153,-2.2075 5.7847,-5.1261 7.7097,-6.4858 4.3612,-3.0805 6.5283,-4.8185 9.9757,-8.0007 1.4896,-1.375 3.8483,-3.4 5.2415,-4.5 2.5888,-2.0441 12.7828,-18.2237 12.7828,-20.2886 0,-0.6281 1.35,-3.2707 3,-5.8725 1.65,-2.6017 3,-5.2328 3,-5.8469 0,-0.614 0.9,-2.9791 2,-5.2559 1.1,-2.2767 2.01,-4.7237 2.0222,-5.4378 0.012,-0.7141 0.9023,-2.4233 1.9778,-3.7983 1.0755,-1.375 1.9655,-3.2835 1.9778,-4.2412 0.02,-1.5512 2.1729,-6.9665 8.1498,-20.4979 1.0298,-2.3315 1.8724,-4.6249 1.8724,-5.0964 0,-0.4715 0.7343,-2.3292 1.6318,-4.1282 0.8974,-1.799 1.9885,-4.6807 2.4246,-6.4036 0.4361,-1.723 2.3933,-7.8577 4.3493,-13.6327 1.9561,-5.775 4.5123,-13.875 5.6805,-18 1.1682,-4.125 2.946,-9.75 3.9507,-12.5 2.2775,-6.2339 11.4184,-43.565 12.9776,-53 0.6362,-3.85 1.9784,-10.375 2.9827,-14.5 1.0043,-4.125 2.3268,-11.1 2.939,-15.5 1.2334,-8.8645 2.4758,-16.8389 4.0845,-26.2155 0.9248,-5.3906 0.8289,-6.6513 -0.7229,-9.5 -1.4308,-2.6263 -1.7122,-4.9879 -1.4043,-11.7845 1.0399,-22.9539 -0.2085,-30.8002 -9.2972,-58.4344 -1.978,-6.014 -3.5963,-11.5482 -3.5963,-12.2983 0,-0.7502 -0.9,-3.2267 -2,-5.5034 -1.1,-2.2768 -2,-4.5099 -2,-4.9626 0,-0.4527 -0.8691,-2.7307 -1.9314,-5.0622 -1.0623,-2.3315 -2.6036,-6.2933 -3.4253,-8.8039 -0.8216,-2.5107 -2.6229,-7.0107 -4.0028,-10 -1.3799,-2.9894 -3.1799,-7.4894 -4,-10 C 1074.927,2289.5657 1041.5729,2222 1039.674,2222 c -0.7662,0 -1.796,-2.0141 -2.4286,-4.75 -0.604,-2.6125 -4.2813,-10.0339 -8.1717,-16.492 -3.8904,-6.458 -7.0735,-12.0136 -7.0735,-12.3456 0,-0.332 -0.8473,-1.7981 -1.8829,-3.258 -1.0356,-1.4599 -2.8356,-4.3419 -4,-6.4044 -6.7536,-11.9627 -12.8536,-21.9052 -20.26637,-33.0326 -3.2179,-4.8304 -5.85073,-8.9599 -5.85073,-9.1766 0,-0.2167 -2.3625,-3.8646 -5.25,-8.1064 -2.8875,-4.2419 -5.70919,-8.4374 -6.27043,-9.3234 -4.47144,-7.0592 -6.50906,-9.8694 -8.34986,-11.516 -1.17134,-1.0477 -2.12971,-2.2753 -2.12971,-2.728 0,-0.4527 -2.74032,-4.3204 -6.08961,-8.595 -3.34928,-4.2746 -9.47798,-12.272 -13.61932,-17.772 -4.14133,-5.5 -9.16351,-11.8541 -11.16039,-14.1202 -1.99687,-2.2662 -5.28407,-6.0912 -7.30487,-8.5 -2.02081,-2.4089 -4.60831,-5.3735 -5.75,-6.588 -1.1417,-1.2145 -2.07581,-2.5867 -2.07581,-3.0493 0,-0.4626 -4.49252,-5.5439 -9.98338,-11.2918 -5.49086,-5.7479 -9.99086,-10.4762 -10,-10.5073 -0.009,-0.031 -2.0257,-2.214 -4.48124,-4.8508 -2.45554,-2.6369 -4.73484,-5.7614 -5.06512,-6.9434 -0.33028,-1.1821 -1.40808,-3.9492 -2.39512,-6.1492 -2.4327,-5.4222 -4.07514,-10.7239 -4.07514,-13.1543 0,-1.1068 -0.29252,-2.3049 -0.65004,-2.6624 -1.14318,-1.1432 -1.48402,-16.4824 -0.38138,-17.1639 0.56728,-0.3506 1.03142,-1.7093 1.03142,-3.0194 0,-1.3101 0.41084,-2.6359 0.91299,-2.9462 0.50214,-0.3104 1.21232,-2.336 1.57817,-4.5015 0.36585,-2.1654 1.30501,-4.4682 2.08701,-5.1172 1.70779,-1.4173 2.00098,-17.4289 0.42008,-22.9412 -0.55096,-1.9211 -1.23635,-8.6681 -1.5231,-14.9934 -0.64753,-14.2839 -2.94376,-34.4917 -6.13614,-54.0005 -0.85501,-5.225 -1.67476,-16.925 -1.82166,-26 -0.14691,-9.075 -0.56529,-19.2 -0.92974,-22.5 -0.36446,-3.3 -0.8851,-8.025 -1.157,-10.5 -0.2719,-2.475 -0.91165,-6.975 -1.42167,-10 -1.17039,-6.9418 -2.73037,-24.8006 -3.58137,-41 -0.36116,-6.875 -0.78446,-14.075 -0.94066,-16 -0.1562,-1.925 -0.32966,-4.5125 -0.38546,-5.75 -0.19457,-4.3152 -2.10275,-2.2132 -2.26955,2.5 -0.16664,4.7085 -0.17159,4.715 -0.56683,0.75 -0.2193,-2.2 -0.81865,-4.4275 -1.3319,-4.95 -0.51324,-0.5225 -0.93317,-2.8584 -0.93317,-5.191 0,-2.3325 -0.38576,-4.4794 -0.85725,-4.7708 -4.09767,-2.5325 -0.42913,-28.239 7.50478,-52.5882 3.68946,-11.3229 3.97259,-12.0803 7.20614,-19.2768 1.18048,-2.6272 2.14633,-5.379 2.14633,-6.1151 0,-0.7361 0.9,-2.4825 2,-3.881 1.1,-1.3984 2,-3.0812 2,-3.7396 0,-0.6584 1.125,-3.4369 2.5,-6.1744 1.375,-2.7376 2.5,-5.5604 2.5,-6.2728 0,-0.7125 0.62077,-1.8106 1.37949,-2.4403 0.75871,-0.6297 1.62497,-2.3723 1.92501,-3.8724 0.30005,-1.5002 1.70428,-4.4351 3.12052,-6.522 1.41624,-2.0869 2.57498,-4.4555 2.57498,-5.2636 0,-0.808 0.39366,-2.2505 0.8748,-3.2056 0.48114,-0.955 1.75256,-3.5364 2.82538,-5.7364 1.07282,-2.2 2.42665,-4.9 3.00853,-6 0.58187,-1.1 1.49655,-3.125 2.03262,-4.5 1.05513,-2.7064 4.22841,-9.2845 6.02997,-12.5 0.61631,-1.1 4.85739,-9.65 9.42463,-19 4.56724,-9.35 8.55252,-17.225 8.85617,-17.5 0.30366,-0.275 1.30786,-2.1255 2.23155,-4.1122 0.92369,-1.9868 2.36275,-4.1794 3.1979,-4.8725 0.83515,-0.6931 1.51845,-1.8002 1.51845,-2.4602 0,-1.5319 5.82495,-12.3289 7.06485,-13.0952 0.51433,-0.3179 0.93515,-1.3559 0.93515,-2.3067 0,-0.9508 1.33171,-3.2868 2.95936,-5.191 1.62765,-1.9042 2.97765,-4.011 3,-4.6818 0.0224,-0.6708 1.02403,-2.9208 2.22595,-5 2.45341,-4.2442 7.02503,-12.6613 10.31328,-18.9885 1.20283,-2.3144 2.70367,-4.8307 3.33522,-5.5916 1.45827,-1.7572 5.16619,-13.2834 5.16619,-16.0594 0,-2.3166 4.76239,-15.5848 6.13452,-17.0909 0.47602,-0.5225 0.86548,-1.607 0.86548,-2.41 0,-2.6883 11.83448,-25.5686 16.3653,-31.64 2.4626,-3.3 5.7504,-7.7242 7.3061,-9.8315 1.5557,-2.1073 4.5161,-5.7577 6.5786,-8.1118 2.0625,-2.3542 3.75,-4.6253 3.75,-5.047 0,-0.7467 2.5903,-4.0028 10.25,-12.8849 2.0625,-2.3917 3.75,-4.8491 3.75,-5.461 0,-0.6118 1.35,-1.8106 3,-2.6638 1.65,-0.8532 3,-2.0333 3,-2.6222 0,-0.589 1.8,-3.1158 4,-5.6151 2.2,-2.4994 4,-4.9309 4,-5.4035 0,-0.4726 0.6861,-0.8592 1.5248,-0.8592 0.8386,0 1.9176,-1.0125 2.3978,-2.25 0.8372,-2.1573 14.4341,-15.5201 23.0611,-22.6641 3.55,-2.9397 13.0163,-14.2518 13.0163,-15.5542 0,-0.9066 14.8792,-20.1149 17.3949,-22.456 1.4328,-1.3334 2.6051,-2.9214 2.6051,-3.5289 0,-6.3709 18.8979,-17.5468 29.6708,-17.5468 3.4094,0 7.4635,-0.4807 9.0089,-1.0683 1.5455,-0.5876 5.5123,-1.2114 8.8151,-1.3862 3.3029,-0.1748 8.7052,-0.8021 12.0052,-1.3941 16.4215,-2.9455 25.693,-4.1171 32.7108,-4.1335 4.2409,-0.01 12.3409,-0.5263 18,-1.1477 7.7505,-0.8511 13.8668,-0.838 24.7892,0.053 25.2946,2.0631 54.5175,6.0183 59.5,8.0531 13.8929,5.6738 22.5301,12.0666 27.1706,20.1103 2.5182,4.3652 5.0709,7.6057 8.1509,10.3471 6.439,5.7314 11.984,11.4227 14.1919,14.5664 3.006,4.2801 4.7396,6.4507 7.9866,10 3.2841,3.5898 5.0147,5.7623 7.9661,10 1.3406,1.925 2.7059,3.725 3.0339,4 0.328,0.275 1.6849,2.075 3.0153,4 1.3304,1.925 3.011,4.1094 3.7347,4.8543 0.7237,0.7449 2.1862,3.0605 3.25,5.1457 1.0638,2.0852 2.5263,4.4008 3.25,5.1457 0.7237,0.7449 2.4043,2.9293 3.7347,4.8543 1.3304,1.925 2.6994,3.725 3.0422,4 0.3428,0.275 2.5898,3.425 4.9935,7 2.4036,3.575 5.9843,8.075 7.9571,10 1.9728,1.925 4.688,5.0642 6.0337,6.9759 1.3457,1.9118 5.0437,6.1135 8.2178,9.3373 3.174,3.2237 5.7721,6.6095 5.7733,7.5241 0,0.9145 1.3503,3.2377 2.9977,5.1627 1.6474,1.925 2.9964,4.0466 2.9977,4.7148 0,0.6681 2.7023,6.6832 6.0023,13.367 3.3,6.6837 6,12.5926 6,13.1308 0,0.5383 0.8383,2.1731 1.8628,3.633 1.0245,1.4599 2.4669,5.1294 3.2051,8.1544 0.7383,3.025 1.9318,6.4438 2.6522,7.5973 1.4945,2.393 4.2799,12.4945 4.2799,15.5213 0,1.8863 4.7341,9.6806 7.7354,12.7357 0.7317,0.7449 2.2214,3.1008 3.3104,5.2354 1.0889,2.1346 3.0991,4.6144 4.4671,5.5107 1.3679,0.8963 2.4871,2.2629 2.4871,3.0368 0,1.9283 7.5731,16.8594 11.3186,22.3158 3.1941,4.6529 7.6709,12.4283 15.8302,27.4942 2.6651,4.921 5.2969,9.3985 5.8484,9.95 0.5515,0.5515 1.0028,1.5735 1.0028,2.271 0,0.6975 1.8,4.9517 4,9.4537 2.2,4.5019 4,8.5591 4,9.0158 0,0.4567 1.35,3.6174 3,7.0236 1.65,3.4062 3,6.5562 3,7 0,0.4438 1.2484,3.4015 2.7743,6.5728 1.5258,3.1712 3.4097,7.7909 4.1863,10.2659 0.7767,2.475 2.1419,5.625 3.0338,7 0.892,1.375 2.6917,5.875 3.9994,10 1.3076,4.125 3.1684,9.3 4.1351,11.5 0.9667,2.2 3.3921,8.95 5.3897,15 1.9977,6.05 4.2596,12.35 5.0266,14 1.3899,2.9903 2.2863,6.0481 7.3288,25 1.4633,5.5 3.0411,10.6017 3.5062,11.3371 0.4968,0.7857 0.3865,1.7962 -0.2673,2.45 -0.6121,0.6121 -1.1129,2.0659 -1.1129,3.2308 0,2.5326 -8.2947,35.6988 -9.9993,39.9821 -0.6566,1.65 -2.2844,7.275 -3.6172,12.5 -1.3329,5.225 -3.2309,11.3 -4.2178,13.5 -0.9869,2.2 -2.8643,7.375 -4.1719,11.5 -1.3077,4.125 -3.1273,8.625 -4.0435,10 -0.9163,1.375 -1.905,3.625 -2.1972,5 -0.6956,3.2731 -5.4139,16.3528 -7.8421,21.7391 -1.0511,2.3315 -1.911,4.6095 -1.911,5.0622 0,0.4527 -0.9,2.6858 -2,4.9626 -1.1,2.2767 -2,4.5267 -2,5 0,0.4732 -0.9,2.7232 -2,5 -1.1,2.2767 -2,4.5267 -2,5 0,0.4732 -0.9,2.7232 -2,5 -1.1,2.2767 -2,4.527 -2,5.0006 0,0.4737 -1.1405,3.2253 -2.5344,6.1148 -1.394,2.8895 -3.2219,7.3612 -4.062,9.9372 -0.8402,2.5759 -2.7622,7.3835 -4.2713,10.6835 -1.509,3.3 -3.365,8.025 -4.1243,10.5 -0.7594,2.475 -2.1007,5.625 -2.9808,7 -0.8801,1.375 -2.1841,4.3 -2.8977,6.5 -0.7137,2.2 -2.1598,5.9076 -3.2136,8.2391 -1.0537,2.3315 -1.9159,4.829 -1.9159,5.55 0,0.721 -0.3976,1.7384 -0.8835,2.2609 -0.486,0.5225 -1.8706,3.875 -3.077,7.45 -1.2064,3.575 -3.5088,9.3327 -5.1165,12.7949 -1.6076,3.4622 -2.923,6.6556 -2.923,7.0964 0,0.4408 -0.7343,2.2734 -1.6318,4.0724 -0.8974,1.799 -1.9786,4.6807 -2.4025,6.4036 -1.1691,4.7521 -5.8266,17.4547 -8.665,23.6327 -1.3898,3.025 -3.1639,7.975 -3.9424,11 -0.7785,3.025 -2.5785,7.975 -4,11 -1.4215,3.025 -3.2143,7.975 -3.9841,11 -1.5203,5.9747 -2.8273,9.0513 -5.5882,13.1544 -0.9823,1.4599 -1.786,3.2981 -1.786,4.0848 0,2.25 -3.8606,13.7172 -6.631,19.696 -1.3852,2.9893 -3.1907,7.4893 -4.0123,10 -0.8217,2.5106 -2.363,6.4724 -3.4253,8.8039 -1.0623,2.3315 -1.9314,4.829 -1.9314,5.55 0,0.721 -0.4113,1.7384 -0.914,2.2609 -3.1252,3.2484 -5.1741,14.0115 -4.1784,21.95 0.5518,4.4 1.5014,12.5 2.1102,18 0.6087,5.5 1.5096,12.025 2.0018,14.5 5.1151,25.7171 3.627,38.5057 -6.2696,53.8783 -2.6125,4.0581 -4.75,7.9799 -4.75,8.7153 0,0.7353 -1.35,3.4657 -3,6.0675 -1.65,2.6017 -3.01,5.4299 -3.0222,6.2847 -0.012,0.8548 -0.9023,2.6792 -1.9778,4.0542 -1.0755,1.375 -1.9655,3.3605 -1.9778,4.4121 -0.012,1.0517 -1.1862,3.8984 -2.6089,6.326 -1.4227,2.4277 -2.9997,6.9672 -3.5045,10.0879 -0.5048,3.1207 -1.3613,7.924 -1.9033,10.674 -0.5421,2.75 -1.4201,9.0736 -1.9511,14.0525 -1.0379,9.7302 -1.2786,10.7242 -4.1626,17.1866 -1.0405,2.3315 -1.8918,4.859 -1.8918,5.6166 0,0.7577 -0.8697,3.5751 -1.9327,6.2609 -1.7261,4.3613 -3.992,13.1748 -9.611,37.3834 -0.9574,4.125 -2.0851,9.3 -2.506,11.5 -4.6401,24.2555 -4.7293,24.829 -7.9289,51 -0.6052,4.95 -1.5191,13.05 -2.0308,18 -1.629,15.7566 -2.8452,26.6711 -4.346,39 -2.3769,19.5274 -4.0188,72.6486 -3.3926,109.7659 0.5949,35.2587 -0.077,43.1228 -4.3404,50.812 -2.0129,3.6302 -5.5915,16.8069 -9.8918,36.4221 -1.9664,8.9694 -3.3889,14.636 -6.0246,24 -0.4645,1.65 -2.4287,7.725 -4.3649,13.5 -6.9213,20.6433 -10.3087,42.7604 -9.245,60.3641 0.37,6.1248 1.0977,19.6859 1.6171,30.1359 0.5194,10.45 1.4064,24.5125 1.971,31.25 0.5646,6.7375 1.4671,17.5375 2.0054,24 0.5384,6.4625 1.4384,15.9125 2,21 5.4952,49.7761 5.4821,50.0972 -3.5773,87.75 -4.0285,16.7435 -9.2092,33.2009 -13.0638,41.5 -5.1428,11.0725 -11.2367,31.5681 -11.3021,38.0121 -0.041,4.0347 3.5655,15.9452 7.2633,23.9879 3.3705,7.3307 7.4607,18.9051 9.7183,27.5 1.0113,3.85 2.5126,9.475 3.3363,12.5 4.7053,17.2798 5.8768,24.8631 4.6723,30.2434 -2.086,9.3177 -2.7876,10.3534 -9.3574,13.815 -3.3926,1.7875 -7.2934,4.0075 -8.6684,4.9334 -1.375,0.9259 -4.75,2.2622 -7.5,2.9697 -2.75,0.7074 -7.025,1.9416 -9.5,2.7425 -5.4991,1.7795 -37.6378,2.6092 -49.5,1.2778 z m -4.1762,-810.2318 c 0.265,-3.9875 0.9518,-11.3 1.5263,-16.25 0.5744,-4.95 1.5135,-13.725 2.0868,-19.5 0.5733,-5.775 1.5248,-13.425 2.1144,-17 1.0843,-6.5749 2.1173,-15.3014 3.9656,-33.5 0.9902,-9.7507 1.9603,-26.0955 3.8705,-65.2128 0.8787,-17.9955 1.1579,-19.8647 4.4063,-29.5 1.9075,-5.658 4.0502,-12.5372 4.7617,-15.2872 0.7115,-2.75 1.9778,-6.0674 2.814,-7.372 2.6837,-4.1867 3.4483,-12.1061 3.4878,-36.128 0.04,-24.4217 -1.2043,-44.4077 -5.2932,-85 -3.1598,-31.369 -3.3876,-32.646 -7.2353,-40.554 -1.3525,-2.7797 -3.0434,-7.2797 -3.7576,-10 -4.8255,-18.3799 -5.11,-18.7403 -15.4233,-19.5423 -4.5657,-0.355 -9.9496,-1.4276 -11.964,-2.3835 -5.257,-2.4946 -90.5292,-2.8249 -93.3978,-0.3618 -0.9823,0.8434 -3.9136,2.5382 -6.5139,3.7661 -5.1684,2.4405 -12.5511,9.9826 -15.1663,15.4937 -0.9126,1.9233 -2.1041,3.7717 -2.6477,4.1077 -1.3873,0.8574 -3.9581,7.285 -3.9581,9.8962 0,1.1979 -0.4997,2.6776 -1.1105,3.2884 -1.5131,1.5131 -4.1885,11.9354 -4.2456,16.5395 -0.025,2.0625 -0.4705,3.75 -0.9888,3.75 -1.3603,0 0.013,13.1654 2.2425,21.5 1.0299,3.85 2.5992,10.15 3.4872,14 0.9348,4.0526 4.5465,12.8948 8.5778,21 6.0003,12.0638 8.9426,18.7421 18.3948,41.75 0.8473,2.0625 2.0135,3.75 2.5916,3.75 0.578,0 1.051,0.5749 1.051,1.2776 0,0.7026 1.35,3.8795 3,7.0598 1.65,3.1802 3,6.227 3,6.7707 0,0.5437 0.9,2.8513 2,5.128 1.1,2.2768 2,4.5099 2,4.9626 0,0.4527 0.8624,2.7307 1.9164,5.0622 1.054,2.3315 2.9064,7.1641 4.1165,10.7391 1.21,3.575 2.5976,6.9275 3.0836,7.45 0.4859,0.5225 0.8835,1.5567 0.8835,2.2983 0,0.7416 0.9,3.2111 2,5.4878 1.1,2.2768 2,4.5268 2,5 0,0.4733 0.9,2.7233 2,5 1.1,2.2768 2,4.5268 2,5 0,0.4733 0.9,2.7233 2,5 1.1,2.2768 2,4.4979 2,4.9358 0,0.4379 1.35,3.5832 3,6.9894 1.65,3.4062 3,6.5851 3,7.0642 0,0.4791 0.9,2.7339 2,5.0106 1.1,2.2768 2,4.4979 2,4.9358 0,0.4379 1.35,3.5832 3,6.9894 1.65,3.4062 3,6.5851 3,7.0642 0,0.4791 0.9,2.7339 2,5.0106 1.1,2.2768 2,4.4979 2,4.9358 0,0.4379 1.35,3.5832 3,6.9894 1.65,3.4062 3,6.5851 3,7.0642 0,0.4791 0.9,2.7339 2,5.0106 1.1,2.2768 2,4.4979 2,4.9358 0,0.4379 1.35,3.5832 3,6.9894 1.65,3.4062 3,6.5851 3,7.0642 0,0.4791 0.9,2.7339 2,5.0106 1.1,2.2768 2,4.4979 2,4.9358 0,0.4379 1.35,3.5832 3,6.9894 1.65,3.4062 3,6.5562 3,7 0,0.4438 1.35,3.5938 3,7 1.65,3.4062 3,6.5851 3,7.0642 0,0.4791 0.9,2.7339 2,5.0106 1.1,2.2768 2,4.4848 2,4.9068 0,0.8673 4.6526,11.3414 9.0603,20.3966 1.6168,3.3218 2.9397,7.0343 2.9397,8.25 0,7.085 5.8266,2.4417 6.3238,-5.0395 z M 1047.8125,1096.3169 c 0.7219,-0.2889 1.5844,-0.2534 1.9167,0.079 0.3323,0.3323 -0.2584,0.5687 -1.3125,0.5253 -1.165,-0.048 -1.4019,-0.285 -0.6042,-0.6042 z"
     id="path3" /></svg>
