<?xml version="1.0" encoding="UTF-8" standalone="no"?>
<!-- Created with Inkscape (http://www.inkscape.org/) -->

<svg
   version="1.1"
   id="svg1"
   width="2400"
   height="3200"
   viewBox="0 0 2400 3200"
   xml:space="preserve"
   xmlns="http://www.w3.org/2000/svg"
   xmlns:svg="http://www.w3.org/2000/svg"><defs
     id="defs1" /><g
     id="g7"><path
       style="display:inline;fill:#000000"
       d="m 806.23255,2774.3494 c -26.07565,-16.3469 33.47873,-85.6246 3.98117,-128.3278 0.97502,-93.3642 -7.29489,-212.801 -26.45729,-304.2094 -5.36944,-41.0396 4.6465,-73.7391 56.50686,-86.4136 38.61179,-35.7958 19.56799,-156.6195 -9.0408,-160.7513 -13.20941,41.1041 -43.81279,163.6045 -70.3072,148.5092 45.43414,-48.5065 38.04926,-84.2197 55.45598,-162.1614 15.06734,-84.2243 -16.68906,47.2533 -7.32954,3.8118 3.54365,-64.2169 2.67583,-131.0622 -18.75252,-192.6837 29.16356,22.2651 53.09475,126.8691 45.71609,48.8938 40.11528,-12.7965 19.87933,74.4363 48.6151,38.0904 -16.21578,65.6862 12.11471,146.9667 33.38504,181.0193 21.27033,34.0526 57.56495,49.74 41.06358,40.0077 11.37905,38.0842 -50.87725,101.9464 -69.39204,65.8031 -80.17279,-13.6243 -89.72455,101.4678 -74.50342,157.4007 21.70864,72.1609 71.3391,134.861 80.33203,212.7016 7.2361,62.6339 -25.32797,108.7521 -39.41414,112.2333 -31.89896,7.8835 -30.64004,8.1392 -49.8589,26.0763 z m 24.82571,-335.0824 c 1.27747,-1.7937 1.27747,1.7937 0,0 z m -2.35502,-6.3055 c -16.08491,-31.3928 -2.33589,-94.9269 -1.6334,-27.1833 -2.7509,-0.1356 10.11334,42.2437 1.6334,27.1833 z M 787.05826,2200.267 c 1.27747,-1.7937 1.27747,1.7937 0,0 z m 1,-2 c 1.27747,-1.7937 1.27747,1.7937 0,0 z m 18,-103 c 2.37355,-5.247 0.86541,5.2821 0,0 z m 1,-3.5 c 1.07293,-2.5905 1.07304,2.5902 0,0 z m 87,-26.5 c 1.27747,-1.7937 1.27747,1.7937 0,0 z m -2.28742,-11.25 c -12.53547,-31.2188 -7.16711,-98.5048 6.60598,-24.3908 3.52859,2.0108 -1.50489,53.8234 -6.60598,24.3908 z m -104.28858,-30.0638 c -0.32501,-41.9847 -24.57093,-181.1003 -0.96762,-70.9621 11.98793,8.5614 4.22668,130.3832 0.96762,70.9621 z m 270.07604,-33.2135 c -27.9001,-4.1388 -53.3141,-9.2699 -82.31065,-11.7258 -56.06256,-17.3537 -121.61437,-36.8301 -166.73435,-82.5681 -4.45528,-19.8162 -55.30173,-78.9995 -32.31695,-34.6788 -20.29252,-25.5938 -48.01749,-83.3679 2.11191,-47.7951 28.5991,13.2227 105.63866,35.3206 28.8872,21.4988 -68.18323,-24.2945 -19.44255,9.3899 14.70573,18.6754 51.50485,15.1304 103.32813,25.4927 155.15707,41.1233 150.42264,38.1766 309.15144,-35.5475 398.00004,-157.6493 2.5163,16.2251 -0.5361,43.641 -10.4068,63.2049 -16.6252,36.5319 -41.5623,78.2449 -82.537,111.3991 -30.7759,24.902 -53.2973,45.5828 -92.5302,62.8307 -39.4615,17.0541 -88.998,19.439 -132.026,15.6849 z m 315.5,-215.4727 c -1.2775,-1.7937 -1.2775,1.7937 0,0 z m -598.00004,122.5 c 1.07293,-2.5905 1.07304,2.5902 0,0 z m 13.66667,-8.6667 c -3.07996,-4.5287 4.39984,0.8553 0,0 z m -2.66667,-6.3924 c 2.88048,-1.9053 2.33337,3.4348 0,0 z m 253.50004,0.059 c -5.2485,-2.9345 11.2508,1.6747 0,0 z m 5.5,0.085 c 42.9609,-6.8781 52.6618,-10.3871 94,-18.1447 38.4849,-6.473 82.234,-12.8878 15.764,6.3593 -35.7599,7.1272 -73.2803,16.2625 -109.764,11.7854 z m 64.6666,-8.7516 c -2.9047,-1.5174 -0.3142,2.146 0,0 z m -82.6666,8.1667 c 1.2775,-1.7937 1.2775,1.7937 0,0 z m 2,0 c 1.2775,-1.7937 1.2775,1.7937 0,0 z m 3,0 c 1.2775,-1.7937 1.2775,1.7937 0,0 z m 3,0 c 1.2775,-1.7937 1.2775,1.7937 0,0 z m -250.50004,-3.5 c 1.20936,-3.6562 2.46629,3.5623 0,0 z m 303.50004,-4.5 c 1.2775,-1.7937 1.2775,1.7937 0,0 z m 3.5686,-0.4021 c 8.6022,-2.5753 1.7947,2.2834 0,0 z m -310.98569,-2.9637 c -2.35154,-4.9689 3.65629,1.4374 0,0 z m 75.41705,-7.6342 c 1.27747,-1.7937 1.27747,1.7937 0,0 z m -4,-1 c 1.27747,-1.7937 1.27747,1.7937 0,0 z m 345.00004,-7 c 1.2775,-1.7937 1.2775,1.7937 0,0 z m 169,-57 c 1.2775,-1.7937 1.2775,1.7937 0,0 z m -0.2634,-91.25 c 0.1567,-50.2934 43.4527,-61.535 6.035,-5.5 l -6.7919,9.5512 z m 12.2634,-38.75 c -1.2775,-1.7937 -1.2775,1.7937 0,0 z m -57.9211,-25.0834 c 1.4434,-2.6631 0.4459,4.3113 0,0 z M 596.94377,1281.7148 c -40.88592,-10.0558 -50.18569,-80.1419 -18.88551,-69.5401 -37.71508,-51.3516 -86.04135,-115.722 -65.75227,-184.6562 -24.0039,-65.45543 -12.75461,-141.40218 20.75227,-203.4126 39.93793,-80.98281 114.83335,-144.95799 197.5197,-176.89517 35.32701,-17.05261 158.44491,-53.31504 134.51637,45.07443 -8.62119,79.63846 33.11828,148.52492 94.96393,194.4802 25.65896,31.10776 75.69354,96.44374 55.18914,128.11904 -8.9674,-49.95094 -58.20721,-136.35364 -82.68475,-119.44777 -24.18018,-24.79372 -57.63752,-90.33287 -74.77162,-54.60862 -15.95356,-29.89949 -12.78927,-33.27645 -30.41029,-27.01057 12.75982,-61.58017 -60.24619,-29.15925 -47.48072,-9.54204 -15.30748,-73.7203 -83.96586,91.52587 -62.24221,-2.8262 -12.31952,-57.76019 -58.49428,40.33925 -62.50208,67.08134 -27.58721,57.02964 -11.37966,116.88778 -18.97333,176.50206 -33.3947,-36.9431 46.21055,104.6423 -4.12409,26.3317 -9.67887,-4.5833 11.18585,39.1212 -20.09781,1.4027 -75.90737,-52.7422 48.25689,70.8516 40.03375,73.8075 1.8657,34.878 100.13573,92.5122 17.06406,58.4913 -32.21634,-10.0683 -67.18912,20.6318 -85.37165,34.7643 -5.61994,5.9192 34.01643,53.861 13.25711,41.8847 z m 0.33864,-310.44785 c 16.08083,-31.85724 37.9929,-58.34286 0.086,-15.5 -5.50782,7.10435 -7.2408,46.36685 -0.086,15.5 z M 1012.569,1233.1534 c -10.9284,-21.4102 -21.20987,-25.7757 15.308,-41.776 -4.8775,10.9953 -3.2292,40.4776 -15.308,41.776 z"
       id="path6" /><path
       style="display:inline;opacity:0.5;fill:#000000"
       d="m 908.80412,2447.517 c -2.52421,-1.9282 -3.17747,-6.1756 -1.24676,-8.1063 2.06421,-2.0642 3.91502,-2.0868 5.92947,-0.072 4.0448,4.0448 -0.25746,11.5589 -4.68271,8.1786 z m 6.49246,-52.9117 c -3.28013,-3.2802 0.57055,-13.8383 5.04698,-13.8383 5.08142,0 6.26359,5.4003 2.43034,11.1021 -2.44602,3.6383 -5.46897,4.7445 -7.47732,2.7362 z m -377.81567,-9.2905 c -0.84005,-3.347 1.1655,-5.7351 4.49176,-5.3484 4.36001,0.5068 3.80738,7.1825 -0.6301,7.6114 -2.73873,0.2647 -3.3115,-0.071 -3.86166,-2.263 z m -9.54747,-16.4121 c -6.22903,-3.9503 -8.87518,-7.5875 -8.87518,-12.1992 0,-9.7946 10.58837,-9.003 19.7923,1.4797 8.58121,9.7734 0.34428,17.8613 -10.91712,10.7195 z m 34.02271,-10.3868 c -12.19413,-8.0784 -11.26927,-30.7489 1.25441,-30.7489 11.44286,0 19.55073,22.5142 10.89367,30.25 -3.77062,3.3693 -7.5792,3.5257 -12.14808,0.4989 z m 30.64888,-37.842 c -5.13251,-4.5064 -4.63964,-7.4398 1.2297,-7.3187 3.2794,0.068 4.97908,0.7614 7.29001,2.9754 6.85066,6.5634 -1.2739,10.7052 -8.51971,4.3433 z m 20.1199,-38.5736 c -1.68591,-1.6859 -0.62573,-4.4666 1.58333,-4.1529 2.93928,0.4174 3.84008,4.8196 0.98622,4.8196 -1.04659,0 -2.20288,-0.3 -2.56955,-0.6667 z m -73.54965,-432.5461 c -1.08115,-2.9226 -0.42867,-5.1115 1.97023,-6.6097 4.06559,-2.539 8.13041,2.3151 5.41238,6.4634 -2.03087,3.0995 -6.25917,3.1833 -7.38261,0.1463 z m -9.72365,-68.2178 c -3.52243,-1.5333 -12.09527,-11.5336 -13.00932,-15.1754 -1.97889,-7.8845 8.80115,-10.2086 17.367,-3.7442 10.6905,8.0679 7.04757,23.8842 -4.35768,18.9196 z m -51.39337,-128.2732 c -8.22297,-2.9921 -16.22266,-22.0698 -11.17126,-26.6413 6.8523,-6.2012 21.26071,6.5173 21.13946,18.6602 -0.0568,5.688 -5.12286,9.7442 -9.9682,7.9811 z m 93.5,-3.2416 c -10.27053,-4.2037 -11.95477,-27.3223 -2.48189,-34.0675 6.61202,-4.7082 16.02354,-0.6125 17.57311,7.6474 2.85145,15.1995 -5.74322,30.2462 -15.09122,26.4201 z m 332.05671,-50.2772 c -4.70245,-6.7136 3.15146,-24.1447 9.37755,-20.8126 3.02172,1.6171 3.06511,1.5154 3.07657,-7.2148 0.0253,-19.2637 12.13853,-38.9766 28.35826,-46.1497 21.4834,-9.501 23.51811,2.9631 7.0032,42.8997 -10.74397,25.9812 -18.1493,32.3379 -27.68455,23.7645 -4.0223,-3.6165 -4.53573,-3.5428 -5.71057,0.8202 -2.20115,8.1745 -10.6395,12.0908 -14.42046,6.6927 z m -386.52669,-1.0568 c -5.48092,-2.7733 -9.8046,-15.8878 -6.011,-18.2324 0.56046,-0.3464 2.13462,-2.8313 3.49814,-5.5221 6.30064,-12.4337 14.0391,-15.504 20.59206,-8.1699 10.22797,11.447 -5.09059,38.4968 -18.0792,31.9244 z m -28.23866,-31.6741 c -14.87915,-4.6772 -17.13184,-21.7259 -5.63801,-42.6692 1.56566,-2.8528 2.84665,-5.8058 2.84665,-6.5621 0,-2.9557 16.26581,-17.3518 21.14891,-18.7179 15.31363,-4.2843 25.05364,12.5003 18.05535,31.1141 -3.26078,8.673 -11.61132,24.8082 -15.09962,29.1761 -1.70755,2.1381 -3.10464,4.2598 -3.10464,4.7148 0,2.4108 -13.14434,4.5362 -18.20864,2.9442 z m 415.52401,-8.0782 c -8.68007,-3.3993 -3.2499,-18.9049 6.71992,-19.1884 5.9444,-0.169 7.17895,3.1877 4.33691,11.7919 -2.34255,7.0921 -5.84744,9.4367 -11.05683,7.3965 z m -367.74096,-15.4826 c -4.70687,-5.0788 -4.0144,-13.8919 1.52692,-19.4332 4.74519,-4.7452 6.5636,-4.0024 8.72359,3.5635 3.7697,13.2043 -3.00307,23.6899 -10.25051,15.8697 z m 208.54053,-8.5247 c -11.8206,-11.8206 3.87512,-43.7379 26.6131,-54.1179 13.86821,-6.3309 22.38226,-1.0337 15.27196,9.5017 -1.65,2.4449 -3,4.7605 -3,5.1458 0,0.3853 -0.83078,1.8951 -1.84619,3.355 -1.0154,1.4599 -3.55806,5.8044 -5.65035,9.6544 -2.09229,3.85 -5.76699,10.6 -8.16599,15 -7.84968,14.397 -16.17684,18.5067 -23.22253,11.461 z m -174.61494,-30.8974 c -24.83852,-4.26 -30.46341,-45.3547 -10.90551,-79.6744 11.0662,-19.4186 42.54728,-50.9866 57.81831,-57.978 23.67748,-10.8399 44.79265,8.8847 36.62464,34.2127 -7.81449,24.2317 -51.99189,89.3761 -60.6101,89.3761 -0.45399,0 -4.09271,3.375 -8.08605,7.5 -4.13493,4.2712 -8.03136,7.4461 -9.05096,7.3748 -0.98468,-0.069 -3.59033,-0.4339 -5.79033,-0.8112 z m 233.07602,-9.3967 c -5.32303,-5.3231 -2.16684,-14.0941 9.1127,-25.3241 13.02672,-12.9696 24.60534,-16.56 26.65933,-8.2669 3.5532,14.3462 -26.65262,42.7104 -35.77203,33.591 z m -365.3197,-26.6958 c -3.40072,-1.3672 -6.44337,-6.888 -5.77091,-10.4711 1.35108,-7.1989 9.80185,-10.3972 14.87626,-5.63 7.64237,7.1796 0.42938,19.9345 -9.10535,16.1011 z m 352.31511,-3.5426 c -2.25191,-2.2519 -1.93835,-5.7352 0.74302,-8.2542 4.30587,-4.0452 11.68555,-1.8474 11.68555,3.4801 0,4.9868 -8.82568,8.377 -12.42857,4.7741 z m -295.57143,-9.1348 c -14.6677,-5.3618 -11.47164,-23.0418 7.85651,-43.4607 15.87093,-16.7666 28.20148,-20.3567 33.66029,-9.8006 8.86137,17.136 -24.22523,59.5824 -41.5168,53.2613 z m 171.00026,-48.5238 c -4.50012,-4.8304 -3.21957,-11.9447 2.58663,-14.3707 6.61299,-2.7631 13.07466,2.6893 11.7013,9.8735 -1.17546,6.1491 -10.12472,8.9658 -14.28793,4.4972 z m -112.57665,-16.0205 c -9.38603,-8.6017 -2.72556,-22.9453 9.98917,-21.5122 15.8997,1.7922 14.50437,24.7628 -1.50419,24.7628 -4.17709,0 -5.4845,-0.5009 -8.48498,-3.2506 z m 124.53079,-8.795 c -3.60261,-3.6027 0.73691,-8.3274 5.60937,-6.1073 2.60867,1.1885 3.23487,4.29 1.18623,5.8752 -2.75411,2.131 -4.82588,2.2018 -6.7956,0.2321 z M 868.30671,1271.517 c -5.068,-5.4296 -3.26608,-11.75 3.34984,-11.75 6.08826,0 8.48428,7.0083 3.94717,11.5454 -3.04083,3.0408 -4.60857,3.0848 -7.29701,0.2046 z m 71.64611,0.8847 c -3.03592,-1.5136 -4.98372,-5.3362 -4.65454,-9.1347 0.55527,-6.4075 12.721,-5.4878 14.37102,1.0863 1.41974,5.6567 -4.56701,10.6157 -9.71648,8.0484 z m -91.94878,-39.5035 c -12.58984,-8.124 -27.94578,-23.246 -27.94578,-27.52 0,-9.8204 29.87556,3.2967 38.05259,16.7072 5.99608,9.8337 -0.63312,16.926 -10.10681,10.8128 z m 13.66945,-25.7705 c -28.9412,-8.8866 -41.36698,-81.2231 -15.50278,-90.2491 5.11305,-1.7844 23.88755,24.0225 23.88755,32.835 0,0.5943 0.3975,1.8619 0.88333,2.8169 1.87527,3.6864 3.15931,7.1572 7.11667,19.2365 2.25236,6.875 4.46142,13.4 4.90903,14.5 4.22991,10.3949 4.06491,13.5104 -0.94252,17.7966 -5.65484,4.8404 -11.63457,5.7407 -20.35128,3.0641 z m 94.76307,-0.8219 c -7.23018,-3.0906 -8.68052,-11.4366 -2.9783,-17.1388 9.30781,-9.3079 22.88581,4.8954 13.85,14.4878 -3.37137,3.579 -6.76485,4.4065 -10.8717,2.651 z m -27.3783,-65.2365 c -9.59536,-4.9412 -8.68031,-17.9021 1.58448,-22.4427 11.5796,-5.1222 21.89405,11.1234 12.82214,20.1953 -3.93984,3.9398 -9.45071,4.7995 -14.40662,2.2474 z m -45.07692,-23.2254 c -4.31975,-4.3198 -1.71248,-14.1037 3.75,-14.0722 2.66297,0.015 8.32692,7.081 8.32692,10.3876 0,6.6182 -7.00582,8.7557 -12.07692,3.6846 z"
       id="path7" /></g></svg>
