<?xml version="1.0" encoding="UTF-8" standalone="no"?>
<!-- Created with Inkscape (http://www.inkscape.org/) -->

<svg
   version="1.1"
   id="svg1"
   width="2400"
   height="3200"
   viewBox="0 0 2400 3200"
   xml:space="preserve"
   xmlns="http://www.w3.org/2000/svg"
   xmlns:svg="http://www.w3.org/2000/svg"><defs
     id="defs1" /><path
     style="display:inline;opacity:0.5;fill:#000000"
     d="m 1033.5812,2206.3511 c -0.8481,-2.2101 -0.138,-2.727 1.3249,-0.9643 0.7101,0.8557 0.8099,1.6707 0.2472,2.0184 -0.519,0.3208 -1.2265,-0.1535 -1.5721,-1.0541 z m -54.94426,-130.857 c -5.67339,-5.6734 1.18668,-14.4606 7.87035,-10.0813 3.07682,2.016 3.43819,7.4216 0.66397,9.9322 -2.28146,2.0647 -6.54424,2.1392 -8.53432,0.1491 z m -19.00208,-14.5667 c -7.00415,-5.5094 0.81316,-16.5045 8.10377,-11.3979 2.8997,2.031 4.50154,7.8493 3.04257,11.0514 -1.44478,3.1709 -7.32335,3.3537 -11.14634,0.3465 z m -21.14967,-28.0242 c -17.12235,-9.009 -15.90934,-25.9334 1.46351,-20.4195 1.59089,0.5049 1.97168,0.047 2.2345,-2.6875 0.29218,-3.0401 0.58876,-3.2962 3.8168,-3.2962 5.59879,0 5.06347,5.3015 -0.82365,8.157 -0.17801,0.086 1.05949,2.0663 2.75,4.4 7.30159,10.0796 0.99073,19.3349 -9.44116,13.8462 z M 1515.2,1754.8 c -5.0682,-5.0682 9.5744,-38.8 16.8426,-38.8 4.2436,0 4.7364,5.0697 1.4877,15.3056 -5.924,18.6652 -13.4777,28.347 -18.3303,23.4944 z m -578.14915,-55.4625 c -2.75572,-3.5033 -3.44316,-6.5485 -2.62945,-11.6479 0.3677,-2.3043 0.92914,-6.2146 1.24764,-8.6896 2.08611,-16.2107 16.33096,-6.8439 16.33096,10.7385 0,10.7521 -9.32981,16.7429 -14.94915,9.599 z m 568.50585,-10.56 c -2.9835,-4.2595 -1.2741,-12.416 4.0925,-19.5275 4.6624,-6.1784 8.3508,-3.4677 8.3508,6.1372 0,11.6275 -7.7993,20.0205 -12.4433,13.3903 z m -596.24816,-16.9269 c -15.69623,-4.3153 -11.05052,-50.5777 4.98602,-49.6513 6.14335,0.3549 6.46739,1.9578 3.29375,16.2932 -1.09038,4.9253 -1.68636,11.2575 -1.55298,16.5 0.39294,15.4449 -0.81903,18.4823 -6.72679,16.8581 z m 594.34626,-28.9075 c -3.6992,-2.9098 -6.5179,-9.6191 -8.5885,-20.4431 -0.6313,-3.3 -1.5795,-7.919 -2.1071,-10.2644 -6.7399,-29.9627 13.5413,-32.9901 23.6835,-3.5352 6.2782,18.2333 -2.8258,42.2362 -12.9879,34.2427 z m -566.52209,-11.3018 c -6.25327,-6.6563 -5.27333,-16.082 3.6015,-34.6413 16.95649,-35.46 45.92136,-39.9867 31.99343,-5 -14.37479,36.1092 -26.36668,49.4643 -35.59493,39.6413 z m 12.52228,-75.47 c -2.39264,-2.6439 -2.05723,-4.6436 1.4486,-8.6365 3.57458,-4.0712 6.12606,-4.4727 8.33971,-1.3123 4.7359,6.7615 -4.33197,15.978 -9.78831,9.9488 z m 51.45511,-51.5668 c -7.66092,-4.2461 -6.05368,-20.4611 2.1227,-21.4162 9.0985,-1.0626 13.2484,13.8632 5.6356,20.269 -3.4171,2.8753 -4.3828,3.0181 -7.7583,1.1472 z"
     id="path5" /><path
     style="display:inline;fill:#000000"
     d="m 1167.25,3062.3377 c -0.6875,-0.2774 -1.2535,-2.1544 -1.2578,-4.171 -0.01,-4.3578 -2.5954,-6.1048 -10.4547,-7.0622 -4.49,-0.5469 -5.0314,-0.8902 -5.6853,-3.6045 -0.3975,-1.65 -1.2318,-4.8 -1.8539,-7 -2.4452,-8.6462 -3.2007,-12.2855 -4.0476,-19.5 -0.4842,-4.125 -1.3761,-11.325 -1.9819,-16 -4.1876,-32.3164 -5.3069,-42.2304 -5.1088,-45.25 0.1974,-3.0092 0.2059,-8.6582 0.022,-14.5 -0.1278,-4.0574 0.2231,-5.6173 5.1182,-22.75 0.55,-1.925 1.4754,-5.1875 2.0564,-7.25 0.581,-2.0625 1.5109,-5.325 2.0665,-7.25 0.5555,-1.925 1.4507,-5.3 1.9893,-7.5 0.5386,-2.2 1.4333,-5.8 1.9882,-8 1.843,-7.3064 2.82,-11.9185 4.3426,-20.5 0.8295,-4.675 1.9385,-9.4 2.4645,-10.5 0.9797,-2.049 1.6785,-5.5777 2.6734,-13.5 0.3109,-2.475 0.9636,-5.4 1.4505,-6.5 0.487,-1.1 1.1041,-4.7 1.3714,-8 0.2673,-3.3 0.9253,-8.7 1.4622,-12 0.8939,-5.4937 1.4666,-8.1673 4.284,-20 0.5239,-2.2 1.3595,-6.025 1.8569,-8.5 1.4023,-6.977 8.6323,-34.9744 10.3295,-40 2.0052,-5.9379 3.6646,-15.5171 3.6646,-21.1552 0,-5.3348 1.529,-7.0877 7.8644,-9.0163 l 4.3644,-1.3285 -0.8375,-16.5 c -1.1164,-21.9918 -0.6237,-32.6326 2.5694,-55.5 1.7917,-12.8306 3.1191,-22.9261 4.0104,-30.5 0.9484,-8.0602 2.4966,-16.5736 3.4551,-19 0.3259,-0.825 0.8106,-4.65 1.0771,-8.5 0.6964,-10.0613 1.5863,-15.8321 2.6438,-17.1441 0.5071,-0.6293 1.1693,-3.5543 1.4715,-6.5 0.3022,-2.9458 1.159,-7.3809 1.904,-9.8559 0.745,-2.475 1.8688,-7.2 2.4972,-10.5 0.6285,-3.3 1.5195,-7.8 1.9802,-10 0.4607,-2.2 1.367,-6.7 2.0141,-10 0.6472,-3.3 1.5837,-7.0337 2.0813,-8.2971 0.4975,-1.2633 0.9046,-3.2564 0.9046,-4.429 0,-1.1725 0.4195,-3.5139 0.9322,-5.2029 0.5128,-1.6891 1.4128,-4.9835 2,-7.321 3.0034,-11.9542 4.4247,-16.869 8.0746,-27.9202 7.7015,-23.3193 8.2774,-21.8073 5.0161,13.1702 -2.1066,22.5936 -3.4564,40.5079 -6.0655,80.5 -0.5562,8.525 -1.2492,27.2 -1.5401,41.5 -0.5254,25.8302 -0.5467,26.0359 -3.2635,31.5 -2.8933,5.8193 -4.2695,10.0522 -6.1772,19 -1.3656,6.4051 -0.6777,49.2934 1.0105,63 0.5758,4.675 1.5142,12.55 2.0853,17.5 1.8091,15.6802 4.0393,32.9996 5.9878,46.5 0.516,3.575 1.1915,9.2 1.5012,12.5 0.3096,3.3 0.9633,6.9 1.4526,8 0.4892,1.1 1.1163,4.25 1.3934,7 0.2772,2.75 1.0019,8.375 1.6104,12.5 2.6826,18.1823 3.0744,20.9072 4.0264,28 4.639,34.5607 6.9159,74.5753 5.1134,89.8597 -2.6238,22.2485 -2.366,25.1398 2.2426,25.144 14.8701,0.014 14.2544,14.6513 -1.2933,30.7483 -5.1455,5.3274 -5.3293,4.9508 2.6431,5.417 15.7094,0.9187 21.8336,11.575 8.5452,14.8691 -3.4126,0.846 -6.5251,1.8585 -6.9166,2.25 -0.3916,0.3916 -1.7354,0.7119 -2.9862,0.7119 -1.2509,0 -2.5525,0.45 -2.8924,1 -0.3399,0.55 -1.2714,1 -2.0699,1 -1.4149,0 -6.2943,2.0043 -15.4301,6.3383 -2.475,1.1741 -4.725,2.3658 -5,2.6482 -0.4749,0.4878 -3.0833,2.0411 -7.5,4.4665 -1.1,0.604 -3.9798,2.4367 -6.3996,4.0726 -2.4198,1.6359 -5.1198,3.4244 -6,3.9744 -0.8802,0.55 -1.8254,1.2547 -2.1004,1.566 -1.1701,1.3245 -9.945,6.934 -10.8468,6.934 -0.5426,0 -1.1365,0.3644 -1.3199,0.8097 -1.408,3.4204 -16.0567,7.3545 -20.5833,5.528 z m 73.2467,-623.5034 c -0.3722,-1.984 -0.4343,-17.0458 -0.1381,-33.4708 0.5106,-28.3129 1.2742,-41.5909 3.6436,-63.3635 0.5686,-5.225 1.4158,-13.325 1.8826,-18 0.4668,-4.675 1.1818,-9.2875 1.5889,-10.25 1.4052,-3.3219 -1.2434,-1.7551 -2.8865,1.7075 -2.4719,5.2091 -3.3254,5.0636 -4.146,-0.7066 -1.1591,-8.1502 -0.7617,-47.8304 0.4915,-49.0836 0.587,-0.587 1.0673,-1.8789 1.0673,-2.8709 0,-0.992 0.9,-3.4829 2,-5.5352 1.1,-2.0524 2,-4.7569 2,-6.01 0,-2.5183 1.863,-6.3395 3.6557,-7.4981 0.6357,-0.4109 1.4806,-3.1087 1.8776,-5.9952 0.4664,-3.3911 1.3844,-5.7124 2.5943,-6.5598 1.0939,-0.7663 1.8724,-2.5106 1.8724,-4.1958 0,-1.5863 0.45,-3.1624 1,-3.5023 0.55,-0.3399 1,-1.7165 1,-3.059 0,-1.3426 0.45,-2.441 1,-2.441 5.2053,0 -0.8669,-1.9862 -6.75,-2.2079 l -7.75,-0.2921 0.056,-9 c 0.1363,-21.7854 2.3061,-53.5177 3.8743,-56.6614 0.8632,-1.7302 1.5694,-3.7578 1.5694,-4.5058 0,-0.748 0.4061,-2.1413 0.9025,-3.0964 0.4964,-0.955 1.4433,-3.7614 2.1042,-6.2364 0.6609,-2.475 1.6047,-5.5337 2.0974,-6.7971 0.4928,-1.2633 0.8959,-2.9939 0.8959,-3.8456 0,-0.8517 0.8375,-2.743 1.8612,-4.2029 4.8444,-6.9091 4.9254,-51.7356 0.1827,-101.1544 -5.05,-52.6198 -4.9129,-51.7146 -9.2567,-61.1296 -2.4075,-5.2179 -3.1727,-7.4632 -5.7495,-16.8704 -0.6779,-2.475 -1.6388,-5.2814 -2.1352,-6.2364 -0.4964,-0.9551 -0.9025,-2.409 -0.9025,-3.231 0,-1.7706 -2.09,-2.2806 -11.6089,-2.8329 -3.91,-0.2269 -8.5916,-1.1521 -10.4037,-2.0561 -1.8121,-0.904 -5.0659,-1.6436 -7.2307,-1.6436 -4.3405,0 -6.2872,-1.6525 -9.8613,-8.3707 -2.3189,-4.3589 -2.0807,-4.3418 -16.395,-1.1769 -3.8498,0.8512 -9.7858,1.5476 -13.191,1.5476 -3.4053,0 -6.4695,0.45 -6.8094,1 -0.764,1.2361 -8.8974,1.3204 -11.2636,0.1167 -3.1028,-1.5784 -6.6472,-2.8651 -11.2364,-4.0791 -2.475,-0.6547 -6.3,-2.0026 -8.5,-2.9953 -11.7135,-5.2854 -15.8226,-7.446 -17.8638,-9.3928 -1.2396,-1.1822 -3.0972,-2.6296 -4.1282,-3.2163 -1.0309,-0.5868 -2.3544,-1.9069 -2.9412,-2.9335 -2.2607,-3.9557 -13.04,-12.8536 -13.6969,-11.3062 -0.2525,0.5947 -1.0918,13.3643 -1.1703,17.8065 -0.044,2.475 -0.4215,4.7376 -0.8395,5.0281 -0.4181,0.2905 -0.2664,2.473 0.337,4.8501 0.7491,2.9515 0.7704,4.5281 0.067,4.9719 -0.5666,0.3574 -1.1026,3.7999 -1.1913,7.6499 -0.089,3.85 -0.3564,8.35 -0.5948,10 -0.2385,1.65 -0.6994,5.6797 -1.0243,8.9549 -0.3249,3.2753 -1.0323,8.0003 -1.5721,10.5 -0.5398,2.4998 -1.446,6.7745 -2.0139,9.4993 -0.5679,2.7248 -1.8954,5.7026 -2.9501,6.6173 -1.0547,0.9147 -1.9176,2.3603 -1.9176,3.2125 0,0.8521 -0.5297,1.7259 -1.1771,1.9417 -0.7182,0.2394 -0.8504,0.9207 -0.3393,1.7478 0.4608,0.7455 0.9422,2.6834 1.0699,4.3064 0.2367,3.0093 0.4779,3.6538 4.4865,11.9885 1.2613,2.6226 2.2628,5.3226 2.2255,6 -0.4959,8.9979 -0.3216,18.8247 0.3526,19.8885 0.4682,0.7387 0.8872,1.5681 0.9312,1.8431 0.435,2.7224 2.9523,9 3.609,9 0.4629,0 0.7525,0.3375 0.6436,0.75 -0.3173,1.201 1.3803,5.6937 2.3994,6.3501 0.5124,0.3301 1.034,1.2972 1.159,2.1491 0.1251,0.852 0.7274,2.1569 1.3385,2.8999 0.6111,0.743 1.2664,2.2509 1.4562,3.3509 0.1897,1.1 0.8884,2.5755 1.5525,3.2789 0.6641,0.7035 0.9906,1.8443 0.7255,2.5351 -0.2651,0.6909 0.4019,2.205 1.4823,3.3647 1.0803,1.1596 1.7443,2.3284 1.4755,2.5972 -0.2689,0.2688 0.4274,2.12 1.5472,4.1137 1.1198,1.9938 2.0338,3.8487 2.0311,4.1222 -0.019,1.8892 1.4129,5.4882 2.1831,5.4882 0.5145,0 0.8243,0.5625 0.6885,1.25 -0.1359,0.6875 0.5027,2.6579 1.419,4.3786 0.9163,1.7207 2.7938,6.1247 4.1722,9.7867 1.3783,3.6619 3.195,7.6417 4.0371,8.8439 0.842,1.2022 1.531,2.9482 1.531,3.88 0,0.9318 0.3375,1.8441 0.75,2.0275 0.4125,0.1833 1.9939,2.2458 3.5142,4.5833 1.5203,2.3375 3.2343,4.25 3.809,4.25 0.5747,0 0.7893,0.4134 0.4771,0.9186 -0.3123,0.5053 0.7692,1.2123 2.4032,1.5712 3.0335,0.6663 6.0465,4.9541 6.0465,8.6048 0,0.9831 0.45,2.0655 1,2.4054 0.55,0.3399 1,1.4778 1,2.5286 0,1.0508 0.9,3.5129 2,5.4714 1.1,1.9585 2,4.2085 2,5 0,0.7915 0.9,3.0415 2,5 1.1,1.9585 2,4.2085 2,5 0,0.7915 0.9,3.0415 2,5 1.1,1.9585 2,4.2085 2,5 0,0.7915 0.9,3.0415 2,5 1.1,1.9585 2,4.1764 2,4.9289 0,0.7524 1.35,3.9344 3,7.0711 1.65,3.1367 3,6.3187 3,7.0711 0,0.7525 0.9,2.9704 2,4.9289 1.1,1.9585 2,4.1764 2,4.9289 0,0.7524 1.35,3.9344 3,7.0711 1.65,3.1367 3,6.3187 3,7.0711 0,0.7525 0.9,2.9704 2,4.9289 1.1,1.9585 2,4.1764 2,4.9289 0,0.7524 1.35,3.9344 3,7.0711 1.65,3.1367 3,6.3187 3,7.0711 0,0.7525 0.9,2.9704 2,4.9289 1.1,1.9585 2,4.1764 2,4.9289 0,0.7524 1.35,3.9344 3,7.0711 1.65,3.1367 3,6.3187 3,7.0711 0,0.7525 0.9,2.9704 2,4.9289 1.1,1.9585 2,4.1764 2,4.9289 0,0.7524 1.35,3.9344 3,7.0711 1.65,3.1367 3,6.2867 3,7 0,0.7133 1.35,3.8633 3,7 1.65,3.1367 3,6.5308 3,7.5425 0,1.0117 0.45,2.1176 1,2.4575 3.11,1.9221 -0.779,7.5 -5.2291,7.5 -2.2862,0 -3.2174,-1.3043 -8.3894,-11.75 -3.1998,-6.4625 -6.1697,-11.9 -6.5997,-12.0833 -0.43,-0.1834 -0.7818,-1.1959 -0.7818,-2.25 0,-1.0542 -0.45,-1.9167 -1,-1.9167 -0.55,0 -1,-0.9 -1,-2 0,-1.1 -0.45,-2 -1,-2 -0.55,0 -1,-0.9 -1,-2 0,-1.1 -0.45,-2 -1,-2 -0.55,0 -1,-0.8625 -1,-1.9167 0,-1.0541 -0.339,-2.0666 -0.7533,-2.25 -0.4144,-0.1833 -3.0556,-4.8333 -5.8693,-10.3333 -11.804,-23.0729 -13.9143,-27.0164 -14.6274,-27.3333 -0.4125,-0.1834 -0.75,-0.9572 -0.75,-1.7196 0,-0.7625 -0.9677,-3.0875 -2.1504,-5.1667 -2.2658,-3.9834 -6.6354,-12.0975 -11.46,-21.2804 -1.5893,-3.025 -3.1173,-5.725 -3.3957,-6 -0.2784,-0.275 -1.8836,-3.2 -3.5672,-6.5 -5.1161,-10.0278 -9.8984,-18.9717 -10.4267,-19.5 -0.275,-0.275 -1.793,-2.975 -3.3733,-6 -2.7644,-5.2915 -4.9679,-9.3064 -9.423,-17.1694 -1.1435,-2.0182 -2.2196,-4.4932 -2.3914,-5.5 -0.1717,-1.0068 -1.9998,-4.3934 -4.0623,-7.5257 -2.0625,-3.1324 -3.75,-6.1562 -3.75,-6.7196 0,-1.5873 -3.932,-8.4108 -5.8138,-10.0892 -0.9274,-0.8271 -2.6201,-3.3021 -3.7616,-5.5 -2.8564,-5.4999 -4.8205,-8.9026 -5.4814,-9.4961 -0.3062,-0.275 -1.1665,-2.075 -1.9118,-4 -0.7453,-1.925 -2.1384,-4.4 -3.0957,-5.5 -0.9574,-1.1 -2.6422,-3.6258 -3.7442,-5.613 -3.8611,-6.963 -4.6955,-8.391 -5.1931,-8.887 -0.2759,-0.275 -1.1597,-1.85 -1.964,-3.5 -0.8043,-1.65 -2.266,-4.1945 -3.2484,-5.6544 -0.9823,-1.4599 -1.786,-3.5974 -1.786,-4.75 0,-1.1526 -0.45,-2.0956 -1,-2.0956 -0.55,0 -1,-0.4814 -1,-1.0698 0,-0.5884 -1.2961,-2.9537 -2.8802,-5.2561 -1.5841,-2.3025 -3.9167,-6.4335 -5.1834,-9.1802 -1.2667,-2.7466 -3.3458,-6.2661 -4.6201,-7.821 -1.2743,-1.5549 -2.5842,-4.0299 -2.9109,-5.5 -0.8257,-3.7153 -7.3345,-17.2487 -9.4616,-19.6729 -0.9652,-1.1 -2.9579,-5.6 -4.4282,-10 -1.4703,-4.4 -3.3363,-9.4675 -4.1466,-11.2611 -0.8104,-1.7936 -1.2303,-3.6544 -0.9331,-4.1351 0.2971,-0.4807 0.1153,-2.1633 -0.404,-3.7389 -0.5192,-1.5757 -1.1766,-4.8899 -1.4609,-7.3649 -0.2843,-2.475 -0.7829,-6.3 -1.108,-8.5 -1.85,-12.5163 -2.2206,-20.1966 -1.9545,-40.5 0.1621,-12.375 0.5555,-24.075 0.874,-26 0.3186,-1.925 1.5265,-11.6 2.6843,-21.5 1.4993,-12.8198 2.6483,-18.9388 3.9926,-21.2621 2.734,-4.7253 3.4859,-14.6708 1.5206,-20.1136 -2.1696,-6.0086 -2.0144,-16.5711 0.319,-21.7088 1.7356,-3.8216 1.7586,-4.562 0.357,-11.5 -3.2585,-16.1297 -1.6702,-43.5177 3.7319,-64.3512 4.0612,-15.6623 11.6716,-37.1321 14.184,-40.0143 0.4555,-0.5225 0.8281,-1.985 0.8281,-3.25 0,-1.265 0.3375,-2.3035 0.75,-2.3078 0.8046,-0.01 3.25,-4.7729 3.25,-6.332 0,-1.6158 4.3113,-9.6602 5.1773,-9.6602 0.4525,0 0.8227,-0.8655 0.8227,-1.9233 0,-1.0578 1.125,-3.2602 2.5,-4.8943 1.375,-1.6341 2.5,-3.7227 2.5,-4.6413 0,-0.9186 1.35,-2.8062 3,-4.1946 1.65,-1.3883 3,-3.3361 3,-4.3284 0,-0.9923 0.6274,-2.0449 1.3943,-2.3392 0.7669,-0.2943 3.0809,-3.2674 5.1422,-6.607 2.0613,-3.3395 4.0646,-6.0719 4.4519,-6.0719 0.3872,0 3.725,-2.9331 7.4173,-6.5179 7.0224,-6.8181 17.2921,-14.0392 24.0943,-16.942 2.2,-0.9388 5.4934,-2.3519 7.3187,-3.1401 1.8253,-0.7882 3.7575,-1.1619 4.2938,-0.8305 0.5363,0.3315 1.5179,0.1813 2.1813,-0.3337 1.939,-1.5053 13.3223,-3.5327 16.3917,-2.9194 7.0876,1.4162 8.9623,2.1901 11.7895,4.8667 3.025,2.8639 3.025,2.8639 5.025,0.307 23.2276,-29.695 64.5,-65.1713 64.5,-55.4418 0,0.5976 0.7962,0.8338 1.7694,0.5249 1.2284,-0.3899 3.1565,0.8889 6.3065,4.1826 5.6807,5.9398 14.3642,13.2442 15.7448,13.2442 0.5737,0 1.9529,1.2777 3.0649,2.8394 1.112,1.5617 3.6184,3.9242 5.5696,5.25 1.9513,1.3258 3.807,3.2126 4.1239,4.1927 0.3168,0.9802 1.5537,2.7992 2.7485,4.0422 2.9895,3.1101 6.6724,8.3908 6.6724,9.5671 0,0.5348 1.8,4.5796 4,8.9884 2.2,4.4089 4,8.4414 4,8.9612 0,2.6594 5.9695,2.7677 8.7696,0.159 1.1807,-1.1 3.2906,-2 4.6886,-2 1.398,0 2.5418,-0.4173 2.5418,-0.9274 0,-0.51 2.5875,-2.1254 5.75,-3.5896 3.1625,-1.4642 7.4718,-3.5325 9.5762,-4.5963 3.8262,-1.934 3.8262,-1.934 7.5,0.9868 4.7354,3.7649 16.0079,15.6159 19.144,20.1265 1.3384,1.925 2.7018,3.725 3.0298,4 0.328,0.275 1.678,2.075 3,4 1.322,1.925 2.6564,3.725 2.9653,4 0.3089,0.275 1.6389,2.6375 2.9554,5.25 1.3166,2.6125 2.773,4.75 3.2365,4.75 0.4635,0 0.8428,0.4549 0.8428,1.0109 0,1.9728 4.4713,10.5228 6.6494,12.715 1.2164,1.2243 4.2915,6.6243 6.8337,12 2.5422,5.3758 5.4984,11.5041 6.5695,13.6186 1.0711,2.1145 1.9474,4.2737 1.9474,4.7983 0,0.5246 0.9,2.8166 2,5.0933 1.1,2.2768 2,4.88 2,5.7851 0,0.905 0.3084,1.9539 0.6853,2.3308 1.2045,1.2044 3.2841,8.0538 3.2996,10.8676 0.01,1.4958 0.8487,4.2037 1.8675,6.0176 1.0188,1.8139 2.1641,4.8651 2.545,6.7804 0.3809,1.9153 1.1883,5.9574 1.7942,8.9824 2.7627,13.7934 1.4133,57.8124 -2.2378,73 -4.727,19.663 -6.2625,25.5546 -6.9068,26.5 -0.3748,0.55 -1.7565,3.7827 -3.0706,7.1837 -2.2103,5.7208 -2.5849,6.1446 -5.0037,5.6608 -2.4809,-0.4961 -2.6784,-0.2244 -3.8648,5.3163 -1.9333,9.0294 -2.2145,9.7848 -3.1054,8.3432 -1.7572,-2.8432 -2.9118,-0.1341 -4.6865,10.996 -0.8242,5.1691 -5.6238,27.0353 -9.1093,41.5 -4.2875,17.7937 -3.7397,15.6708 -4.5164,17.5 -0.8317,1.9585 -2.616,9.5921 -3.2465,13.8887 -0.2735,1.8638 -0.7043,3.7238 -0.9574,4.1333 -0.2531,0.4096 -0.7257,2.4846 -1.0502,4.6113 -0.3245,2.1267 -0.9556,5.6667 -1.4025,7.8667 -0.4468,2.2 -0.8348,4.675 -0.8621,5.5 -0.027,0.825 -0.5647,3.525 -1.1942,6 -0.6294,2.475 -1.3259,5.4 -1.5477,6.5 -0.2217,1.1 -0.8226,3.125 -1.3352,4.5 -0.5125,1.375 -1.2639,3.85 -1.6696,5.5 -0.4057,1.65 -0.8923,3.5625 -1.0813,4.25 -0.189,0.6875 -0.4938,1.8125 -0.6774,2.5 -0.1835,0.6875 -1.1718,3.95 -2.1961,7.25 -1.0244,3.3 -1.7681,6.3557 -1.6528,6.7905 0.1154,0.4348 -0.3181,1.7768 -0.9632,2.9822 -0.9881,1.8463 -3.7972,11.3309 -5.3481,18.0572 -0.2321,1.0064 -0.6848,2.658 -1.006,3.6701 -0.3212,1.0121 -0.7902,2.7762 -1.042,3.9201 -0.2519,1.144 -0.6854,2.8674 -0.9633,3.8299 -0.2779,0.9625 -1.3317,4.675 -2.3419,8.25 -1.0101,3.575 -2.1197,7.175 -2.4658,8 -0.346,0.825 -0.8581,2.625 -1.138,4 -0.2798,1.375 -1.1915,4.975 -2.026,8 -0.8344,3.025 -2.7696,10.225 -4.3004,16 -1.5308,5.775 -3.1337,11.0625 -3.562,11.75 -0.4282,0.6875 -0.5513,1.25 -0.2735,1.25 0.2778,0 -0.1244,2.1375 -0.8938,4.75 -0.7694,2.6125 -1.6405,6.1 -1.9358,7.75 -0.7725,4.3166 -1.2381,6.2694 -3.0995,13 -4.3193,15.618 -4.3886,16.2679 -2.2152,20.7663 2.8161,5.8287 2.8566,12.6395 0.2246,37.7337 -0.7609,7.2545 -1.2366,13.4821 -1.9094,25 -0.9249,15.8322 -1.3146,17.6223 -5.6895,26.1362 -1.0277,1.9998 -1.8685,4.3684 -1.8685,5.2635 0,0.8951 -0.414,2.4088 -0.9201,3.3639 -0.506,0.955 -1.8999,4.4364 -3.0975,7.7364 -2.5048,6.9023 -3.2012,8.6749 -5.3033,13.5 -0.8387,1.925 -1.8196,4.85 -2.1798,6.5 -0.6573,3.0109 -1.0242,4.0269 -3.7919,10.5 -0.823,1.925 -1.7951,5.075 -2.1602,7 -0.365,1.925 -1.0362,4.4 -1.4915,5.5 -0.4552,1.1 -1.3803,4.025 -2.0557,6.5 -0.6754,2.475 -1.5754,5.4 -2,6.5 -0.4246,1.1 -1.3342,4.025 -2.0212,6.5 -2.546,9.1716 -3.255,11.5538 -4.1067,13.7971 -0.4797,1.2633 -0.8721,3.3743 -0.8721,4.6909 0,1.3167 -0.45,2.6721 -1,3.012 -0.55,0.3399 -1,1.9149 -1,3.5 0,1.5851 -0.4003,3.1294 -0.8895,3.4317 -0.4892,0.3024 -1.1317,2.0164 -1.4278,3.809 -0.296,1.7926 -1.0484,5.2843 -1.672,7.7593 -0.6236,2.475 -1.3617,5.85 -1.6404,7.5 -0.2786,1.65 -0.8953,3.9 -1.3703,5 -0.475,1.1 -1.1364,3.575 -1.4697,5.5 -0.3333,1.925 -1.039,5.6375 -1.5682,8.25 -4.2148,20.8084 -6.2484,32.569 -7.7377,44.75 -1.0704,8.755 -2.7795,11.8884 -3.7277,6.8343 z M 1048,1803.3834 c 0,-0.2109 -0.9,-0.3834 -2,-0.3834 -1.1,0 -2,0.4079 -2,0.9064 0,0.4985 0.9,0.671 2,0.3833 1.1,-0.2876 2,-0.6955 2,-0.9063 z m -4.3377,-8.6334 c -0.2774,-0.6875 -0.5044,-0.125 -0.5044,1.25 0,1.375 0.227,1.9375 0.5044,1.25 0.2774,-0.6875 0.2774,-1.8125 0,-2.5 z m 0,-8 c -0.2774,-0.6875 -0.5044,-0.125 -0.5044,1.25 0,1.375 0.227,1.9375 0.5044,1.25 0.2774,-0.6875 0.2774,-1.8125 0,-2.5 z m 0,-6 c -0.2774,-0.6875 -0.5044,-0.125 -0.5044,1.25 0,1.375 0.227,1.9375 0.5044,1.25 0.2774,-0.6875 0.2774,-1.8125 0,-2.5 z"
     id="path4" /></svg>
