<svg width="2400" height="3200" xmlns="http://www.w3.org/2000/svg" viewBox="0 0 2400 3200"><path d="M 844.22 2659.96 C 842.17 2659.94 839.15 2659.21 837.5 2658.33 C 835.85 2657.46 833.82 2656.16 833.0 2655.44 C 832.17 2654.73 829.47 2654.0 827.0 2653.82 C 822.55 2653.5 822.5 2653.46 822.18 2649.58 C 821.99 2647.28 822.77 2643.16 824.05 2639.64 C 825.26 2636.33 827.09 2632.12 828.12 2630.28 C 829.15 2628.44 830.0 2626.32 830.0 2625.56 C 830.0 2624.81 830.96 2622.23 832.14 2619.84 C 833.32 2617.46 834.61 2614.6 835.0 2613.5 C 835.4 2612.4 836.24 2609.89 836.86 2607.93 C 837.49 2605.96 838.0 2602.12 838.0 2599.38 C 838.0 2596.64 838.5 2593.9 839.12 2593.28 C 839.85 2592.55 840.03 2589.93 839.65 2585.83 C 839.32 2582.35 838.62 2577.03 838.1 2574.0 C 837.57 2570.97 836.62 2566.25 835.97 2563.5 C 835.33 2560.75 834.39 2556.7 833.89 2554.5 C 833.39 2552.3 832.52 2547.8 831.97 2544.5 C 831.41 2541.2 830.48 2513.07 829.91 2482.0 C 829.33 2450.93 828.9 2424.49 828.94 2423.25 C 828.99 2422.01 829.04 2419.76 829.06 2418.25 C 829.08 2416.74 828.65 2409.65 828.1 2402.5 C 827.56 2395.35 826.63 2384.55 826.04 2378.5 C 825.45 2372.45 824.51 2364.57 823.94 2361.0 C 823.38 2357.43 822.52 2351.35 822.02 2347.5 C 821.52 2343.65 820.6 2337.57 819.96 2334.0 C 819.32 2330.43 818.43 2325.03 817.97 2322.0 C 817.51 2318.97 816.65 2313.12 816.06 2309.0 C 815.47 2304.88 814.56 2299.03 814.03 2296.0 C 813.51 2292.97 812.63 2288.25 812.09 2285.5 C 811.55 2282.75 810.59 2278.03 809.96 2275.0 C 809.34 2271.97 808.44 2267.7 807.97 2265.5 C 807.5 2263.3 806.67 2259.7 806.13 2257.5 C 805.59 2255.3 804.87 2252.58 804.52 2251.46 C 804.1 2250.13 804.51 2248.86 805.69 2247.81 C 806.68 2246.93 808.4 2246.04 809.5 2245.83 C 811.14 2245.52 811.47 2244.74 811.32 2241.48 C 811.22 2239.29 810.7 2234.8 810.16 2231.5 C 809.63 2228.2 808.43 2223.03 807.52 2220.0 C 806.6 2216.97 805.32 2212.7 804.67 2210.5 C 804.03 2208.3 803.5 2203.42 803.5 2199.66 C 803.5 2193.32 803.71 2192.64 806.36 2190.53 C 807.94 2189.27 811.09 2187.71 813.36 2187.06 C 815.64 2186.4 819.08 2185.41 821.0 2184.85 C 822.92 2184.29 825.9 2183.2 827.61 2182.44 C 829.32 2181.67 831.29 2180.35 831.98 2179.52 C 832.68 2178.68 833.63 2178.0 834.11 2178.0 C 834.59 2178.0 835.94 2177.21 837.12 2176.25 C 838.3 2175.29 840.57 2173.27 842.16 2171.76 C 843.75 2170.25 846.96 2168.0 849.28 2166.76 C 851.6 2165.52 856.19 2163.6 859.47 2162.5 C 863.97 2160.99 866.0 2159.66 867.72 2157.1 C 868.97 2155.23 870.0 2152.7 870.0 2151.47 C 870.0 2150.25 870.7 2148.66 871.56 2147.95 C 872.41 2147.24 873.75 2145.15 874.52 2143.3 C 875.29 2141.45 876.41 2137.14 877.01 2133.72 C 877.61 2130.3 878.82 2125.94 879.7 2124.03 C 880.59 2122.12 881.9 2117.17 882.63 2113.03 C 883.36 2108.89 883.97 2100.55 883.97 2094.5 C 883.98 2088.45 883.54 2079.45 883.01 2074.5 C 882.47 2069.55 881.51 2063.7 880.87 2061.5 C 880.23 2059.3 879.04 2055.47 878.22 2053.0 C 877.4 2050.53 876.34 2046.59 875.86 2044.25 C 875.39 2041.91 874.57 2038.09 874.05 2035.75 C 873.53 2033.41 872.61 2029.47 871.99 2027.0 C 871.38 2024.53 870.63 2021.26 870.32 2019.74 C 870.02 2018.22 869.37 2016.73 868.88 2016.43 C 868.4 2016.13 868.0 2014.81 868.0 2013.5 C 868.0 2012.19 867.55 2010.84 867.0 2010.5 C 866.45 2010.16 866.0 2009.09 866.0 2008.13 C 866.0 2007.16 865.1 2004.51 864.0 2002.24 C 862.9 1999.96 862.0 1997.26 862.0 1996.25 C 862.0 1995.23 861.46 1993.86 860.8 1993.2 C 860.14 1992.54 859.04 1992.0 858.35 1992.0 C 857.66 1992.0 856.45 1993.46 855.66 1995.25 C 854.87 1997.04 853.43 2000.53 852.47 2003.0 C 851.51 2005.47 850.37 2009.08 849.93 2011.0 C 849.49 2012.92 848.65 2016.19 848.07 2018.25 C 847.48 2020.31 846.52 2023.69 845.93 2025.75 C 845.35 2027.81 844.5 2031.08 844.06 2033.0 C 843.62 2034.92 839.57 2047.51 835.06 2060.98 C 830.56 2074.44 825.51 2088.61 823.84 2092.48 C 822.17 2096.34 820.17 2100.81 819.4 2102.4 C 818.63 2104.0 818.0 2105.72 818.0 2106.22 C 818.0 2106.72 816.68 2109.91 815.07 2113.31 C 813.46 2116.72 811.41 2121.75 810.5 2124.5 C 809.6 2127.25 808.29 2130.18 807.6 2131.0 C 806.9 2131.82 805.59 2134.13 804.69 2136.11 C 803.78 2138.1 802.35 2140.29 801.52 2140.98 C 800.68 2141.68 800.0 2142.81 800.0 2143.5 C 800.0 2144.19 799.32 2145.32 798.48 2146.02 C 797.65 2146.71 796.21 2148.9 795.29 2150.89 C 794.37 2152.87 792.69 2155.46 791.56 2156.62 C 790.43 2157.79 788.52 2159.93 787.33 2161.37 C 785.96 2163.02 784.57 2163.77 783.58 2163.39 C 782.4 2162.94 782.0 2161.37 782.0 2157.21 C 782.0 2154.15 782.45 2150.26 782.99 2148.57 C 783.54 2146.88 784.62 2143.47 785.39 2141.0 C 786.76 2136.6 786.89 2136.49 791.64 2135.99 C 794.31 2135.71 797.7 2134.59 799.16 2133.49 C 800.63 2132.4 803.22 2129.39 804.91 2126.81 C 806.61 2124.23 808.01 2121.53 808.03 2120.81 C 808.05 2120.09 809.4 2116.81 811.03 2113.53 C 812.66 2110.24 814.0 2107.16 814.0 2106.68 C 814.0 2106.2 814.93 2104.51 816.06 2102.92 C 817.54 2100.84 818.03 2098.83 817.81 2095.76 L 817.5 2091.5 C 813.19 2100.41 811.76 2103.0 811.53 2103.0 C 811.31 2103.0 812.71 2098.61 814.64 2093.25 C 816.58 2087.89 818.76 2081.35 819.5 2078.73 C 820.23 2076.1 820.83 2073.73 820.84 2073.46 C 820.84 2073.19 821.15 2071.51 821.52 2069.73 C 821.9 2067.96 823.47 2062.45 825.02 2057.5 C 826.58 2052.55 828.36 2046.25 828.99 2043.5 C 829.61 2040.75 830.25 2037.83 830.4 2037.0 C 830.55 2036.17 831.19 2033.03 831.82 2030.0 C 832.45 2026.97 834.33 2015.05 835.99 2003.5 C 837.65 1991.95 839.24 1980.92 839.51 1979.0 C 839.78 1977.08 840.44 1972.12 840.97 1968.0 C 841.5 1963.88 841.92 1958.47 841.9 1956.0 C 841.88 1952.45 841.38 1953.82 839.54 1962.5 C 838.26 1968.55 835.36 1979.99 833.1 1987.93 C 830.83 1995.86 828.76 2002.58 828.49 2002.84 C 828.22 2003.11 828.0 2002.91 828.0 2002.4 C 828.0 2001.88 828.83 1998.47 829.84 1994.82 C 831.06 1990.41 831.37 1987.63 830.76 1986.53 C 830.25 1985.62 830.16 1984.12 830.55 1983.19 C 830.94 1982.26 831.67 1976.55 832.17 1970.5 C 832.66 1964.45 833.04 1957.92 833.01 1956.0 C 832.98 1954.08 832.54 1938.78 832.04 1922.0 C 831.54 1905.22 830.65 1887.0 830.07 1881.5 C 829.49 1876.0 828.78 1869.47 828.49 1867.0 C 828.2 1864.53 827.5 1860.03 826.92 1857.0 C 826.35 1853.97 825.42 1849.03 824.87 1846.0 C 824.31 1842.97 823.43 1838.81 822.93 1836.75 C 822.42 1834.69 821.59 1831.31 821.08 1829.25 C 820.58 1827.19 819.63 1823.47 818.97 1821.0 C 818.31 1818.53 817.43 1815.6 817.01 1814.5 C 816.58 1813.4 815.2 1809.12 813.94 1805.0 C 812.67 1800.88 811.27 1797.07 810.82 1796.55 C 810.37 1796.03 810.0 1794.76 810.0 1793.74 C 810.0 1792.72 810.45 1792.16 811.0 1792.5 C 811.55 1792.84 812.01 1793.88 812.02 1794.81 C 812.03 1795.74 812.92 1797.62 814.0 1799.0 C 815.08 1800.38 815.97 1802.16 815.98 1802.96 C 815.99 1803.76 817.01 1807.08 818.25 1810.34 C 819.91 1814.7 821.42 1816.85 824.0 1818.52 C 825.92 1819.77 829.36 1822.75 831.63 1825.15 C 833.9 1827.54 837.35 1831.87 839.31 1834.77 C 841.27 1837.67 844.07 1842.62 845.54 1845.77 C 847.01 1848.92 848.61 1852.51 849.1 1853.75 C 849.6 1854.99 850.4 1857.01 850.9 1858.25 C 851.39 1859.49 852.74 1863.66 853.9 1867.53 C 855.05 1871.39 856.0 1875.02 856.0 1875.58 C 856.0 1876.14 856.56 1877.81 857.25 1879.29 C 857.94 1880.77 858.84 1881.99 859.25 1881.99 C 859.66 1882.0 860.0 1878.87 860.0 1875.05 C 860.0 1871.22 859.45 1866.84 858.77 1865.3 C 858.1 1863.76 856.97 1862.14 856.26 1861.69 C 855.56 1861.25 854.29 1859.23 853.44 1857.2 C 852.28 1854.43 852.16 1852.94 852.95 1851.21 C 853.53 1849.93 856.27 1847.86 859.12 1846.54 C 863.89 1844.33 864.54 1844.26 868.76 1845.53 C 871.26 1846.28 874.75 1848.31 876.53 1850.03 C 879.19 1852.61 879.88 1854.19 880.38 1858.84 C 880.71 1861.95 881.44 1867.42 882.01 1871.0 C 882.57 1874.58 883.27 1880.42 883.57 1884.0 C 883.87 1887.58 884.48 1891.4 884.92 1892.5 C 885.36 1893.6 886.24 1896.11 886.86 1898.07 C 887.49 1900.04 888.01 1902.96 888.03 1904.57 L 888.06 1907.5 C 891.64 1901.68 893.87 1898.65 895.33 1897.01 C 896.79 1895.38 899.14 1893.75 900.56 1893.4 C 902.03 1893.03 903.63 1893.23 904.27 1893.87 C 905.11 1894.71 904.99 1895.0 903.82 1895.0 C 902.94 1895.0 901.57 1896.01 900.77 1897.25 C 899.96 1898.49 898.56 1901.77 897.64 1904.55 C 896.72 1907.33 895.62 1912.53 895.19 1916.11 C 894.76 1919.69 894.78 1924.17 895.24 1926.06 C 895.7 1927.95 896.58 1930.5 897.19 1931.73 C 898.0 1933.33 898.07 1939.09 897.43 1952.23 C 896.94 1962.28 896.62 1975.45 896.72 1981.5 C 896.82 1987.55 897.41 1996.55 898.02 2001.5 C 898.64 2006.45 899.52 2011.94 899.98 2013.7 C 900.44 2015.46 903.33 2020.24 906.41 2024.33 C 909.48 2028.42 912.0 2032.39 912.0 2033.15 C 912.0 2033.91 913.36 2037.45 915.03 2041.01 C 916.69 2044.58 918.62 2048.62 919.32 2050.0 C 920.34 2052.03 921.19 2052.44 923.84 2052.17 C 925.7 2051.98 928.18 2052.54 929.61 2053.48 C 931.0 2054.39 933.7 2056.79 935.62 2058.81 C 937.55 2060.84 940.67 2065.75 942.56 2069.72 C 944.45 2073.69 946.0 2077.52 946.0 2078.22 C 946.0 2078.93 948.0 2080.56 950.44 2081.86 C 952.88 2083.15 955.95 2085.85 957.26 2087.86 C 958.57 2089.86 959.99 2092.4 960.43 2093.5 C 960.86 2094.6 961.83 2097.97 962.57 2101.0 C 963.32 2104.03 963.94 2107.96 963.96 2109.75 C 963.98 2111.54 964.36 2113.0 964.8 2113.0 C 965.24 2113.0 967.52 2109.62 969.87 2105.5 C 972.22 2101.38 974.35 2098.0 974.61 2098.0 C 974.88 2098.0 976.08 2099.04 977.3 2100.31 C 978.51 2101.57 980.06 2103.59 980.75 2104.79 C 981.44 2105.99 982.0 2107.85 982.0 2108.93 C 982.0 2110.0 982.45 2111.16 983.0 2111.5 C 983.55 2111.84 984.0 2113.19 984.0 2114.5 C 984.0 2115.81 984.45 2117.16 985.0 2117.5 C 985.55 2117.84 986.0 2119.2 986.0 2120.53 C 986.0 2121.85 985.14 2124.47 984.09 2126.34 C 983.04 2128.2 980.43 2132.61 978.28 2136.12 C 976.14 2139.63 973.73 2143.6 972.94 2144.95 C 972.15 2146.3 970.71 2148.29 969.75 2149.39 C 968.79 2150.48 968.0 2151.76 968.0 2152.23 C 968.0 2152.7 967.1 2154.05 966.0 2155.23 C 964.9 2156.41 964.0 2157.97 964.0 2158.69 C 964.0 2159.41 963.65 2160.0 963.22 2160.0 C 962.78 2160.0 961.7 2161.24 960.8 2162.75 C 959.91 2164.26 958.35 2166.43 957.34 2167.56 C 956.33 2168.69 954.39 2170.37 953.03 2171.31 C 951.67 2172.24 948.72 2173.0 946.47 2173.0 C 944.22 2173.0 941.51 2172.34 940.44 2171.53 C 939.37 2170.72 937.92 2170.05 937.22 2170.03 C 936.25 2170.01 936.1 2171.24 936.59 2174.95 C 936.95 2177.67 936.95 2181.44 936.6 2183.33 C 936.24 2185.23 934.78 2187.95 933.34 2189.39 C 931.9 2190.82 930.33 2192.0 929.84 2192.0 C 929.35 2192.0 926.72 2189.65 923.98 2186.78 C 921.24 2183.91 919.0 2180.96 919.0 2180.22 C 919.0 2179.49 917.54 2177.53 915.75 2175.86 C 913.96 2174.2 910.28 2171.75 907.56 2170.42 C 903.65 2168.5 901.06 2168.0 895.06 2168.01 C 890.9 2168.02 885.55 2168.71 883.16 2169.54 C 880.77 2170.37 876.97 2172.0 874.71 2173.15 C 872.46 2174.3 867.43 2178.45 863.55 2182.37 C 859.67 2186.29 855.67 2190.71 854.66 2192.18 C 853.65 2193.66 851.98 2196.36 850.95 2198.18 C 849.92 2200.01 847.89 2203.97 846.43 2207.0 C 844.98 2210.03 842.99 2214.3 842.01 2216.5 C 841.03 2218.7 839.67 2222.53 838.98 2225.0 C 838.29 2227.47 837.37 2230.85 836.93 2232.5 C 836.49 2234.15 835.7 2237.3 835.16 2239.5 C 834.62 2241.7 833.69 2246.23 833.09 2249.56 C 832.48 2252.93 832.0 2267.24 832.0 2281.8 C 832.0 2296.19 832.43 2309.89 832.96 2312.24 C 833.49 2314.58 834.46 2319.2 835.13 2322.5 C 835.79 2325.8 836.63 2328.95 836.99 2329.5 C 837.35 2330.05 838.25 2332.53 839.0 2335.0 C 839.75 2337.47 840.64 2339.95 840.99 2340.5 C 841.34 2341.05 842.16 2343.75 842.83 2346.5 C 843.49 2349.25 844.22 2353.85 844.45 2356.72 C 844.69 2359.59 845.54 2363.42 846.36 2365.22 C 847.17 2367.02 848.07 2369.85 848.35 2371.5 C 848.64 2373.15 849.33 2376.3 849.89 2378.5 C 850.45 2380.7 851.35 2384.3 851.89 2386.5 C 852.43 2388.7 853.38 2392.3 854.0 2394.5 C 854.62 2396.7 855.52 2400.07 856.0 2402.0 C 856.48 2403.93 857.32 2407.07 857.87 2409.0 C 858.42 2410.93 859.58 2415.43 860.44 2419.0 C 861.31 2422.57 862.41 2426.4 862.9 2427.5 C 863.38 2428.6 864.32 2431.53 865.0 2434.0 C 865.68 2436.47 866.57 2439.4 866.99 2440.5 C 867.42 2441.6 869.7 2448.57 872.06 2456.0 C 874.43 2463.43 876.73 2469.93 877.18 2470.45 C 877.63 2470.97 878.0 2472.67 878.0 2474.21 C 878.0 2475.76 878.56 2478.03 879.25 2479.26 C 879.94 2480.49 880.73 2481.72 881.0 2482.0 C 881.28 2482.28 882.02 2483.62 882.65 2485.0 C 883.28 2486.38 884.55 2489.3 885.48 2491.5 C 886.41 2493.7 889.15 2499.45 891.57 2504.29 C 893.99 2509.12 897.85 2515.83 900.13 2519.19 C 902.42 2522.56 905.01 2526.2 905.89 2527.29 C 906.78 2528.39 909.8 2531.9 912.61 2535.11 C 916.86 2539.96 917.84 2541.82 918.47 2546.22 C 918.88 2549.12 919.6 2554.2 920.07 2557.5 C 920.54 2560.8 921.23 2568.82 921.61 2575.32 C 922.06 2582.97 921.87 2590.2 921.08 2595.82 C 920.41 2600.59 918.97 2607.43 917.88 2611.0 C 916.79 2614.57 914.79 2619.79 913.45 2622.6 C 912.1 2625.4 911.0 2627.97 911.0 2628.3 C 911.0 2628.63 912.11 2630.1 913.48 2631.57 C 914.84 2633.04 916.24 2635.79 916.6 2637.68 C 916.95 2639.57 916.98 2642.74 916.66 2644.73 C 916.28 2647.03 914.7 2649.76 912.28 2652.25 C 910.2 2654.4 907.73 2656.58 906.79 2657.09 C 905.71 2657.68 903.32 2657.63 900.29 2656.95 C 897.66 2656.36 887.17 2655.77 877.0 2655.65 C 859.65 2655.43 858.17 2655.56 853.22 2657.71 C 850.32 2658.97 846.27 2659.98 844.22 2659.96 Z M 852.78 2343.55 C 852.59 2343.74 851.63 2341.78 850.64 2339.19 C 849.66 2336.61 847.76 2331.22 846.43 2327.22 C 845.09 2323.22 843.74 2317.59 843.41 2314.72 C 843.08 2311.85 842.7 2305.12 842.57 2299.77 C 842.44 2294.42 842.74 2287.0 843.23 2283.27 C 843.73 2279.55 844.55 2276.08 845.05 2275.57 C 845.55 2275.05 846.15 2274.83 846.37 2275.07 C 846.58 2275.31 847.06 2282.47 847.42 2291.0 C 847.78 2299.53 849.2 2314.76 850.59 2324.86 C 851.98 2334.96 852.96 2343.37 852.78 2343.55 Z M 916.66 1972.0 C 916.57 1972.0 915.27 1966.94 913.77 1960.75 C 912.28 1954.56 910.57 1946.66 909.97 1943.19 C 909.38 1939.71 908.74 1935.66 908.55 1934.19 C 908.36 1932.71 907.68 1927.0 907.03 1921.5 C 906.38 1916.0 905.54 1909.92 905.17 1908.0 C 904.8 1906.08 904.64 1903.04 904.81 1901.25 C 905.05 1898.82 905.61 1898.0 907.05 1898.0 C 908.32 1898.0 909.51 1899.27 910.56 1901.75 C 911.44 1903.81 913.48 1909.55 915.1 1914.5 C 916.72 1919.45 918.99 1928.67 920.13 1935.0 C 921.6 1943.16 922.02 1948.39 921.58 1953.0 C 921.23 1956.58 920.02 1962.31 918.89 1965.75 C 917.76 1969.19 916.76 1972.0 916.66 1972.0 Z M 810.29 1951.23 C 809.84 1952.76 809.46 1943.58 809.41 1930.23 C 809.36 1917.03 808.77 1902.95 808.09 1898.5 C 807.42 1894.1 806.7 1889.38 806.5 1888.0 C 806.31 1886.62 805.42 1881.14 804.54 1875.82 C 803.65 1870.5 802.74 1864.3 802.5 1862.04 C 802.27 1859.79 801.62 1855.37 801.07 1852.22 C 800.52 1849.07 799.84 1845.15 799.55 1843.5 C 799.27 1841.85 798.77 1838.03 798.44 1835.0 C 798.11 1831.97 797.43 1826.58 796.94 1823.0 C 796.44 1819.42 796.04 1814.03 796.04 1811.0 C 796.03 1807.97 796.47 1804.83 797.0 1804.0 C 797.7 1802.91 797.97 1803.78 797.98 1807.14 C 797.99 1809.69 798.9 1816.22 800.01 1821.64 C 801.11 1827.06 802.89 1835.1 803.96 1839.5 C 805.02 1843.9 807.68 1856.28 809.85 1867.0 C 812.03 1877.72 814.36 1890.65 815.04 1895.73 C 815.82 1901.54 816.07 1910.22 815.7 1919.23 C 815.32 1928.83 814.47 1935.95 813.1 1941.0 C 811.99 1945.12 810.72 1949.73 810.29 1951.23 Z M 1099.08 1897.88 C 1089.41 1897.81 1079.25 1897.38 1076.5 1896.92 C 1073.75 1896.47 1070.15 1895.87 1068.5 1895.58 C 1066.85 1895.3 1064.38 1894.79 1063.0 1894.44 C 1061.62 1894.1 1059.71 1893.83 1058.75 1893.84 C 1057.79 1893.86 1057.0 1893.5 1057.0 1893.03 C 1057.0 1892.57 1056.14 1892.41 1055.1 1892.69 C 1053.84 1893.01 1052.99 1892.56 1052.61 1891.34 C 1052.29 1890.32 1051.0 1888.85 1049.76 1888.05 C 1048.52 1887.26 1045.04 1886.53 1042.04 1886.43 C 1039.04 1886.32 1036.43 1885.8 1036.25 1885.25 C 1036.07 1884.71 1034.59 1884.43 1032.96 1884.62 C 1031.33 1884.81 1030.0 1884.6 1030.0 1884.16 C 1030.0 1883.72 1028.76 1883.31 1027.25 1883.25 C 1025.74 1883.19 1023.49 1883.01 1022.25 1882.86 C 1021.01 1882.7 1020.0 1882.28 1020.0 1881.92 C 1020.0 1881.57 1018.88 1881.4 1017.5 1881.55 C 1016.12 1881.7 1015.0 1881.37 1015.0 1880.8 C 1015.0 1880.24 1014.31 1880.05 1013.46 1880.38 C 1012.6 1880.71 1011.68 1880.34 1011.38 1879.54 C 1010.97 1878.47 1010.22 1878.35 1008.41 1879.03 C 1006.83 1879.64 1006.0 1879.6 1006.0 1878.92 C 1006.0 1878.35 1005.5 1878.19 1004.89 1878.57 C 1004.28 1878.95 1003.38 1878.64 1002.9 1877.88 C 1002.18 1876.74 1002.02 1876.76 1001.98 1878.0 C 1001.95 1879.2 1001.67 1879.14 1000.58 1877.71 C 999.75 1876.62 997.33 1875.7 994.36 1875.34 C 991.69 1875.03 989.01 1874.37 988.41 1873.89 C 987.81 1873.41 987.02 1873.31 986.66 1873.68 C 986.3 1874.04 986.0 1873.84 986.0 1873.23 C 986.0 1872.62 983.97 1871.82 981.49 1871.45 C 979.01 1871.07 976.74 1870.39 976.46 1869.93 C 976.17 1869.47 975.33 1869.32 974.6 1869.6 C 973.86 1869.88 973.03 1869.51 972.74 1868.77 C 972.46 1868.03 970.71 1867.31 968.86 1867.18 C 967.01 1867.04 964.6 1866.76 963.5 1866.54 C 962.4 1866.33 961.39 1866.06 961.25 1865.95 C 961.11 1865.84 960.55 1865.64 960.0 1865.5 C 959.45 1865.36 958.89 1865.16 958.75 1865.05 C 958.61 1864.94 957.82 1864.71 957.0 1864.55 C 956.17 1864.38 950.07 1862.86 943.43 1861.15 C 936.8 1859.45 929.73 1857.37 927.72 1856.53 C 925.71 1855.69 923.3 1855.0 922.36 1855.0 C 921.43 1855.0 914.32 1852.47 906.58 1849.38 C 898.84 1846.29 888.9 1841.92 884.5 1839.66 C 880.1 1837.41 875.49 1834.47 874.25 1833.14 C 873.01 1831.8 872.0 1831.05 872.0 1831.48 C 872.0 1831.9 871.33 1831.68 870.5 1831.0 C 869.67 1830.32 869.0 1830.09 869.0 1830.5 C 869.0 1830.91 868.33 1830.68 867.5 1830.0 C 866.67 1829.32 866.0 1829.09 866.0 1829.5 C 866.0 1829.9 864.42 1829.04 862.5 1827.57 C 860.58 1826.1 859.0 1825.22 859.0 1825.6 C 859.0 1825.99 858.18 1825.56 857.17 1824.65 C 856.16 1823.74 855.04 1823.3 854.67 1823.66 C 854.3 1824.03 854.0 1823.81 854.0 1823.17 C 854.0 1822.53 853.31 1822.0 852.47 1822.0 C 851.63 1822.0 850.68 1821.33 850.36 1820.51 C 850.05 1819.68 849.46 1819.22 849.05 1819.47 C 848.64 1819.72 847.33 1819.03 846.15 1817.93 C 844.97 1816.82 844.0 1816.2 844.0 1816.54 C 844.0 1816.88 842.83 1815.77 841.41 1814.07 C 839.98 1812.38 838.43 1811.23 837.96 1811.53 C 837.49 1811.82 836.61 1811.13 836.0 1810.0 C 835.39 1808.87 834.47 1808.21 833.95 1808.53 C 833.43 1808.85 833.0 1808.52 833.0 1807.79 C 833.0 1807.06 831.95 1804.9 830.66 1802.98 C 829.03 1800.55 828.39 1798.3 828.54 1795.53 C 828.74 1791.91 828.22 1790.98 822.57 1785.03 C 819.17 1781.44 812.01 1773.23 806.67 1766.8 C 801.33 1760.36 796.49 1754.8 795.91 1754.45 C 795.34 1754.09 794.62 1754.05 794.31 1754.36 C 794.0 1754.67 795.64 1758.8 797.96 1763.54 C 800.28 1768.28 801.98 1772.36 801.73 1772.6 C 801.49 1772.84 800.1 1771.24 798.65 1769.04 C 797.19 1766.84 796.0 1764.81 796.0 1764.54 C 796.0 1764.26 793.65 1760.08 790.79 1755.26 C 787.92 1750.44 785.33 1746.28 785.04 1746.0 C 784.74 1745.72 783.86 1744.26 783.08 1742.75 C 782.3 1741.24 781.29 1740.0 780.83 1740.0 C 780.37 1740.0 780.0 1739.44 780.0 1738.75 C 780.0 1738.06 778.74 1736.03 777.2 1734.23 C 775.67 1732.44 773.62 1729.62 772.65 1727.98 C 771.08 1725.33 771.06 1724.92 772.42 1724.39 C 773.66 1723.92 773.4 1723.25 771.05 1720.89 C 769.45 1719.29 767.98 1716.97 767.78 1715.74 C 767.58 1714.51 767.81 1712.3 768.28 1710.83 C 768.78 1709.27 770.52 1707.51 772.47 1706.58 C 774.3 1705.71 776.08 1705.0 776.42 1705.0 C 776.76 1705.0 776.76 1706.1 776.43 1707.44 C 775.89 1709.59 776.44 1710.2 781.16 1712.64 C 784.1 1714.16 786.84 1715.48 787.25 1715.58 C 787.66 1715.67 788.34 1715.86 788.75 1715.99 C 789.16 1716.13 789.84 1716.18 790.25 1716.12 C 790.66 1716.05 791.0 1716.45 791.0 1717.0 C 791.0 1717.55 791.65 1718.0 792.43 1718.0 C 793.22 1718.0 795.14 1718.52 796.68 1719.16 C 798.23 1719.8 799.84 1720.25 800.25 1720.16 C 800.66 1720.07 801.0 1720.45 801.0 1721.0 C 801.0 1721.55 801.87 1722.0 802.94 1722.0 C 804.01 1722.0 805.16 1722.46 805.51 1723.02 C 805.86 1723.58 806.56 1723.77 807.07 1723.46 C 807.58 1723.14 808.0 1723.29 808.0 1723.78 C 808.0 1724.28 809.91 1725.29 812.25 1726.03 C 814.59 1726.77 816.73 1727.44 817.0 1727.52 C 817.27 1727.6 818.85 1728.26 820.5 1728.99 C 822.15 1729.71 823.95 1730.43 824.5 1730.59 C 825.05 1730.74 827.98 1731.82 831.0 1733.0 C 834.02 1734.17 842.8 1737.17 850.5 1739.65 C 858.2 1742.13 865.09 1744.35 865.81 1744.58 C 866.54 1744.8 866.82 1745.49 866.44 1746.1 C 865.98 1746.84 863.67 1747.01 859.62 1746.61 C 856.26 1746.28 851.02 1745.58 848.0 1745.06 C 844.98 1744.54 838.45 1743.41 833.5 1742.54 C 828.55 1741.68 821.45 1740.3 817.73 1739.47 C 814.01 1738.64 807.71 1736.9 803.73 1735.59 C 799.75 1734.29 794.57 1732.44 792.21 1731.48 C 789.85 1730.53 787.65 1730.01 787.33 1730.34 C 787.01 1730.66 788.94 1732.96 791.62 1735.46 C 794.3 1737.96 796.86 1740.0 797.3 1740.0 C 797.74 1740.0 800.66 1741.65 803.8 1743.68 C 806.93 1745.7 810.44 1747.28 811.59 1747.2 C 812.74 1747.12 814.65 1747.96 815.84 1749.06 C 817.03 1750.17 818.0 1750.83 818.0 1750.52 C 818.0 1750.21 819.12 1750.69 820.5 1751.59 C 821.88 1752.49 823.0 1752.9 823.0 1752.5 C 823.0 1752.1 824.14 1752.52 825.53 1753.43 C 826.92 1754.34 828.44 1754.84 828.91 1754.55 C 829.39 1754.26 830.35 1754.71 831.05 1755.56 C 831.75 1756.4 832.91 1756.87 833.63 1756.59 C 834.35 1756.31 835.2 1756.52 835.53 1757.04 C 835.85 1757.57 837.13 1758.0 838.36 1758.0 C 839.59 1758.0 841.14 1758.54 841.8 1759.2 C 842.46 1759.86 843.0 1760.05 843.0 1759.63 C 843.0 1759.2 843.73 1759.59 844.63 1760.49 C 845.52 1761.38 846.86 1761.88 847.6 1761.6 C 848.33 1761.32 849.19 1761.5 849.5 1762.0 C 849.81 1762.5 850.72 1762.66 851.53 1762.35 C 852.34 1762.04 853.0 1762.33 853.0 1763.0 C 853.0 1763.67 853.58 1763.99 854.29 1763.72 C 855.0 1763.45 856.4 1763.82 857.39 1764.54 C 858.38 1765.27 859.83 1765.62 860.6 1765.32 C 861.37 1765.03 862.0 1765.36 862.0 1766.06 C 862.0 1766.76 862.28 1767.05 862.63 1766.7 C 862.98 1766.35 864.1 1766.52 865.13 1767.07 C 866.43 1767.77 867.0 1767.73 867.0 1766.96 C 867.0 1766.35 867.71 1766.57 868.58 1767.44 C 869.45 1768.31 870.54 1768.78 871.01 1768.49 C 871.48 1768.2 872.14 1768.42 872.49 1768.98 C 872.84 1769.54 873.57 1770.0 874.12 1770.0 C 874.67 1770.0 874.79 1769.44 874.39 1768.75 C 873.99 1768.06 874.56 1768.29 875.66 1769.25 C 876.76 1770.21 877.99 1771.0 878.39 1771.0 C 878.79 1771.0 878.79 1770.44 878.39 1769.75 C 877.99 1769.06 878.64 1769.36 879.83 1770.41 C 881.03 1771.46 882.31 1772.03 882.66 1771.67 C 883.02 1771.31 883.92 1771.52 884.66 1772.13 C 885.67 1772.97 886.0 1772.91 886.02 1771.87 C 886.03 1770.74 886.19 1770.75 886.93 1771.92 C 887.43 1772.7 889.18 1773.41 890.84 1773.48 C 892.49 1773.56 894.55 1774.21 895.42 1774.94 C 896.73 1776.02 897.0 1776.01 897.02 1774.87 C 897.03 1773.79 897.24 1773.82 898.02 1775.0 C 898.83 1776.25 899.15 1776.27 899.88 1775.14 C 900.49 1774.19 900.87 1774.12 901.14 1774.93 C 901.36 1775.57 903.1 1776.33 905.01 1776.62 C 906.93 1776.91 909.4 1777.33 910.5 1777.54 C 911.6 1777.76 913.17 1778.08 914.0 1778.25 C 914.83 1778.42 915.95 1778.82 916.5 1779.14 C 917.05 1779.46 918.51 1779.64 919.75 1779.53 C 920.99 1779.42 922.0 1779.76 922.0 1780.28 C 922.0 1780.81 923.12 1781.02 924.5 1780.76 C 925.88 1780.49 927.0 1780.69 927.0 1781.2 C 927.0 1781.7 927.5 1781.81 928.11 1781.43 C 928.72 1781.05 929.62 1781.36 930.1 1782.12 C 930.63 1782.96 930.98 1783.05 930.98 1782.35 C 930.99 1781.64 935.47 1782.69 942.75 1785.13 C 949.21 1787.29 955.85 1789.66 957.5 1790.4 C 959.15 1791.14 963.65 1792.71 967.5 1793.88 C 971.35 1795.05 975.85 1796.23 977.5 1796.51 C 979.15 1796.79 983.42 1797.68 987.0 1798.5 C 990.58 1799.31 996.65 1800.65 1000.5 1801.46 C 1004.35 1802.28 1008.4 1803.13 1009.5 1803.37 C 1010.6 1803.6 1015.1 1804.31 1019.5 1804.95 C 1023.9 1805.58 1030.2 1806.52 1033.5 1807.02 C 1036.8 1807.52 1042.88 1808.24 1047.0 1808.63 C 1051.12 1809.01 1055.85 1809.45 1057.5 1809.6 C 1059.15 1809.76 1069.95 1810.08 1081.5 1810.31 C 1093.05 1810.55 1106.78 1810.38 1112.0 1809.94 C 1117.22 1809.5 1124.43 1808.87 1128.0 1808.55 C 1131.58 1808.22 1135.63 1807.75 1137.0 1807.49 C 1138.38 1807.23 1140.62 1806.78 1142.0 1806.49 C 1143.38 1806.2 1146.08 1805.73 1148.0 1805.43 C 1149.92 1805.14 1152.17 1804.66 1153.0 1804.37 C 1153.83 1804.07 1155.67 1803.67 1157.1 1803.48 C 1158.53 1803.29 1162.58 1802.39 1166.1 1801.48 C 1169.62 1800.58 1177.0 1798.49 1182.5 1796.85 C 1188.0 1795.2 1194.28 1793.42 1196.46 1792.88 C 1198.64 1792.34 1201.0 1791.41 1201.71 1790.83 C 1202.42 1790.24 1203.0 1790.06 1203.0 1790.43 C 1203.0 1790.81 1204.24 1790.45 1205.75 1789.63 C 1207.26 1788.82 1211.2 1787.14 1214.5 1785.91 C 1217.8 1784.68 1222.53 1782.78 1225.0 1781.69 C 1227.47 1780.6 1235.35 1776.84 1242.5 1773.32 C 1249.65 1769.81 1258.48 1765.27 1262.11 1763.22 C 1265.75 1761.17 1269.35 1759.01 1270.11 1758.42 C 1270.88 1757.83 1274.54 1755.6 1278.25 1753.46 C 1281.96 1751.33 1285.0 1749.23 1285.0 1748.79 C 1285.0 1748.36 1285.48 1748.0 1286.07 1748.0 C 1286.66 1748.0 1289.25 1746.56 1291.82 1744.79 C 1294.39 1743.03 1297.37 1740.78 1298.44 1739.79 C 1299.5 1738.81 1300.72 1738.0 1301.14 1738.0 C 1301.56 1738.0 1303.05 1736.85 1304.45 1735.45 C 1305.85 1734.05 1307.0 1733.18 1307.0 1733.51 C 1307.0 1733.83 1308.09 1732.92 1309.43 1731.48 C 1310.76 1730.04 1312.0 1729.01 1312.19 1729.18 C 1312.37 1729.36 1314.71 1727.7 1317.39 1725.5 C 1320.07 1723.3 1323.33 1720.47 1324.63 1719.2 C 1325.93 1717.94 1327.0 1717.23 1327.0 1717.63 C 1327.0 1718.03 1328.83 1716.58 1331.06 1714.43 C 1333.3 1712.27 1336.41 1709.26 1337.98 1707.75 C 1339.56 1706.24 1341.22 1704.95 1341.67 1704.89 C 1342.13 1704.84 1345.42 1701.51 1349.0 1697.5 C 1352.58 1693.49 1356.06 1690.16 1356.75 1690.11 C 1357.44 1690.05 1358.0 1689.65 1358.0 1689.23 C 1358.0 1688.8 1361.74 1684.64 1366.32 1679.98 C 1370.89 1675.31 1378.38 1667.0 1382.95 1661.5 C 1387.53 1656.0 1391.77 1651.17 1392.39 1650.77 C 1393.0 1650.36 1393.18 1650.02 1392.8 1650.02 C 1392.41 1650.01 1393.2 1648.81 1394.55 1647.35 C 1395.9 1645.9 1397.0 1644.32 1397.0 1643.85 C 1397.0 1643.38 1397.69 1643.0 1398.54 1643.0 C 1399.69 1643.0 1399.84 1643.44 1399.14 1644.75 C 1398.62 1645.71 1397.92 1648.24 1397.59 1650.36 C 1397.25 1652.48 1396.6 1654.89 1396.15 1655.7 C 1395.66 1656.58 1396.05 1659.8 1397.1 1663.59 C 1398.07 1667.12 1398.56 1670.0 1398.19 1670.0 C 1397.81 1670.0 1397.54 1671.38 1397.59 1673.07 C 1397.64 1674.75 1397.03 1678.24 1396.24 1680.82 C 1395.45 1683.39 1394.55 1686.17 1394.25 1687.0 C 1393.94 1687.83 1393.78 1689.07 1393.89 1689.76 C 1394.0 1690.46 1393.43 1691.28 1392.61 1691.6 C 1391.79 1691.91 1391.37 1692.81 1391.68 1693.6 C 1391.98 1694.38 1391.73 1695.62 1391.12 1696.35 C 1390.51 1697.09 1390.31 1697.98 1390.68 1698.34 C 1391.04 1698.7 1390.88 1699.0 1390.33 1699.0 C 1389.77 1699.0 1388.82 1700.1 1388.21 1701.43 C 1387.42 1703.17 1387.41 1703.97 1388.19 1704.23 C 1388.84 1704.45 1388.59 1705.26 1387.56 1706.29 C 1386.62 1707.23 1386.2 1708.0 1386.63 1708.0 C 1387.05 1708.0 1386.86 1708.54 1386.2 1709.2 C 1385.54 1709.86 1385.0 1711.21 1385.0 1712.2 C 1385.0 1713.22 1384.24 1714.03 1383.25 1714.08 C 1382.29 1714.12 1382.02 1714.37 1382.65 1714.63 C 1383.48 1714.97 1383.39 1715.92 1382.33 1718.05 C 1381.52 1719.67 1380.41 1721.0 1379.87 1721.0 C 1379.33 1721.0 1379.18 1721.48 1379.54 1722.06 C 1379.9 1722.65 1379.41 1724.0 1378.44 1725.06 C 1377.48 1726.13 1377.05 1727.0 1377.5 1727.0 C 1377.95 1727.0 1377.5 1727.9 1376.5 1729.0 C 1375.5 1730.1 1375.1 1731.01 1375.6 1731.03 C 1376.09 1731.05 1375.38 1732.03 1374.0 1733.2 C 1371.97 1734.93 1371.87 1735.2 1373.5 1734.6 C 1375.07 1734.03 1374.87 1734.53 1372.56 1736.94 C 1370.95 1738.62 1370.0 1740.0 1370.47 1740.0 C 1370.93 1740.0 1370.49 1740.9 1369.49 1742.01 C 1368.49 1743.11 1367.08 1745.02 1366.35 1746.26 C 1365.63 1747.49 1364.75 1749.29 1364.4 1750.25 C 1364.05 1751.21 1363.37 1752.0 1362.88 1752.0 C 1362.4 1752.0 1362.0 1752.62 1362.0 1753.38 C 1362.0 1754.14 1361.31 1755.32 1360.48 1756.02 C 1359.64 1756.72 1359.18 1757.51 1359.46 1757.79 C 1359.74 1758.07 1359.18 1759.02 1358.22 1759.9 C 1357.27 1760.78 1355.14 1763.53 1353.49 1766.0 C 1351.85 1768.47 1350.02 1770.95 1349.43 1771.5 C 1348.85 1772.05 1345.72 1776.02 1342.48 1780.33 C 1339.25 1784.64 1333.88 1790.43 1330.55 1793.2 C 1327.22 1795.97 1323.95 1799.19 1323.29 1800.37 C 1322.62 1801.54 1322.05 1802.09 1322.04 1801.59 C 1322.02 1801.1 1320.09 1802.6 1317.75 1804.94 C 1315.41 1807.28 1312.39 1809.62 1311.03 1810.15 C 1309.68 1810.68 1307.1 1810.99 1305.31 1810.84 C 1302.75 1810.61 1301.31 1811.28 1298.53 1813.97 C 1296.59 1815.85 1295.0 1817.02 1295.0 1816.57 C 1295.0 1816.12 1294.33 1816.31 1293.51 1816.99 C 1292.69 1817.67 1292.23 1818.57 1292.49 1818.98 C 1292.74 1819.39 1292.02 1820.58 1290.87 1821.62 C 1289.73 1822.65 1288.5 1823.39 1288.15 1823.25 C 1287.79 1823.11 1287.48 1823.56 1287.45 1824.25 C 1287.43 1824.94 1286.75 1825.35 1285.95 1825.17 C 1285.15 1824.98 1284.83 1825.16 1285.23 1825.56 C 1285.62 1825.96 1283.98 1827.68 1281.58 1829.39 C 1279.18 1831.1 1277.05 1832.95 1276.85 1833.5 C 1276.66 1834.05 1276.16 1834.39 1275.75 1834.25 C 1275.34 1834.11 1275.11 1834.56 1275.25 1835.25 C 1275.39 1835.94 1274.73 1836.44 1273.79 1836.37 C 1272.85 1836.29 1272.17 1836.74 1272.29 1837.37 C 1272.41 1837.99 1271.9 1838.38 1271.18 1838.23 C 1270.45 1838.07 1270.12 1838.39 1270.45 1838.93 C 1270.78 1839.46 1270.03 1840.45 1268.78 1841.12 C 1267.53 1841.79 1266.39 1842.26 1266.25 1842.17 C 1266.11 1842.08 1266.0 1842.22 1266.0 1842.5 C 1265.99 1842.77 1263.4 1845.37 1260.24 1848.28 C 1257.07 1851.19 1252.37 1855.02 1249.79 1856.8 C 1247.2 1858.58 1240.91 1862.21 1235.8 1864.88 C 1230.68 1867.54 1222.22 1871.41 1217.0 1873.47 C 1211.78 1875.53 1206.38 1877.69 1205.0 1878.26 C 1203.62 1878.84 1202.05 1879.41 1201.5 1879.53 C 1200.95 1879.65 1195.53 1881.39 1189.45 1883.4 C 1183.37 1885.4 1177.46 1887.22 1176.31 1887.44 C 1175.16 1887.66 1170.68 1888.77 1166.36 1889.91 C 1162.04 1891.04 1154.0 1892.85 1148.5 1893.92 C 1143.0 1894.99 1133.58 1896.35 1127.58 1896.93 C 1121.57 1897.52 1108.74 1897.94 1099.08 1897.88 Z M 1086.0 1789.55 C 1073.62 1789.74 1062.6 1789.5 1061.5 1789.02 C 1059.89 1788.31 1060.27 1788.1 1063.5 1787.95 C 1065.7 1787.85 1067.91 1787.84 1068.41 1787.93 C 1068.91 1788.03 1069.69 1787.52 1070.14 1786.8 C 1070.75 1785.84 1070.97 1785.82 1070.98 1786.73 C 1071.0 1787.62 1071.68 1787.69 1073.49 1787.0 C 1074.86 1786.48 1076.66 1786.32 1077.49 1786.64 C 1078.32 1786.95 1079.0 1786.79 1079.0 1786.28 C 1079.0 1785.76 1080.69 1785.32 1082.75 1785.29 C 1084.81 1785.26 1087.85 1784.99 1089.5 1784.69 C 1091.15 1784.39 1092.5 1784.07 1092.5 1783.99 C 1092.5 1783.91 1094.4 1783.72 1096.72 1783.57 C 1099.04 1783.42 1101.52 1782.86 1102.22 1782.34 C 1102.92 1781.81 1104.62 1781.47 1106.0 1781.58 C 1107.38 1781.69 1109.15 1781.27 1109.94 1780.64 C 1111.05 1779.76 1111.21 1779.79 1110.63 1780.75 C 1110.06 1781.71 1111.86 1782.0 1118.44 1782.0 C 1124.04 1782.0 1127.0 1781.62 1127.0 1780.89 C 1127.0 1780.22 1126.05 1780.02 1124.58 1780.39 C 1123.25 1780.72 1121.45 1780.73 1120.59 1780.39 C 1119.72 1780.06 1119.23 1779.44 1119.49 1779.01 C 1119.76 1778.58 1121.67 1777.87 1123.74 1777.43 C 1125.81 1776.99 1128.38 1776.54 1129.46 1776.44 C 1130.53 1776.34 1131.57 1775.79 1131.76 1775.23 C 1131.94 1774.67 1132.97 1774.44 1134.03 1774.72 C 1135.1 1775.0 1136.76 1774.88 1137.74 1774.46 C 1138.71 1774.04 1140.17 1773.53 1141.0 1773.32 C 1141.83 1773.11 1150.83 1772.04 1161.0 1770.94 C 1171.17 1769.84 1183.33 1768.26 1188.0 1767.43 C 1192.67 1766.59 1198.75 1765.51 1201.5 1765.02 C 1204.25 1764.53 1209.58 1763.47 1213.35 1762.67 C 1217.12 1761.86 1219.82 1761.55 1219.35 1761.97 C 1218.88 1762.39 1214.9 1764.19 1210.5 1765.96 C 1206.1 1767.74 1197.33 1770.98 1191.0 1773.17 C 1184.67 1775.36 1175.0 1778.24 1169.5 1779.56 C 1164.0 1780.89 1154.33 1782.85 1148.0 1783.93 C 1141.67 1785.01 1130.2 1786.64 1122.5 1787.55 C 1114.8 1788.47 1098.38 1789.37 1086.0 1789.55 Z M 1386.51 1618.0 C 1386.28 1618.0 1386.8 1615.86 1387.65 1613.25 C 1388.51 1610.64 1390.53 1603.55 1392.13 1597.5 C 1393.74 1591.45 1395.14 1585.49 1395.25 1584.25 C 1395.35 1583.01 1395.75 1582.0 1396.14 1582.0 C 1396.52 1582.0 1397.14 1580.66 1397.5 1579.02 C 1397.86 1577.38 1398.15 1575.69 1398.15 1575.27 C 1398.14 1574.84 1398.86 1573.71 1399.73 1572.75 C 1400.6 1571.79 1400.9 1570.99 1400.4 1570.98 C 1399.91 1570.98 1400.05 1570.62 1400.72 1570.19 C 1401.4 1569.76 1402.13 1568.31 1402.35 1566.96 C 1402.63 1565.23 1403.3 1564.58 1404.62 1564.76 C 1405.65 1564.91 1407.42 1565.16 1408.54 1565.33 C 1409.67 1565.49 1411.13 1565.96 1411.79 1566.37 C 1412.59 1566.86 1412.81 1568.55 1412.43 1571.31 C 1412.11 1573.61 1411.16 1577.3 1410.32 1579.5 C 1409.48 1581.7 1408.1 1584.85 1407.27 1586.5 C 1406.43 1588.15 1401.51 1595.91 1396.34 1603.75 C 1391.16 1611.59 1386.74 1618.0 1386.51 1618.0 Z M 623.31 1190.73 C 622.73 1190.92 619.88 1189.05 616.97 1186.57 C 614.07 1184.09 608.86 1180.7 605.41 1179.03 C 601.95 1177.36 597.83 1176.0 596.25 1176.0 C 593.75 1176.0 593.07 1175.32 591.0 1170.75 C 589.7 1167.86 587.6 1162.58 586.34 1159.0 C 585.08 1155.42 584.04 1150.82 584.03 1148.76 C 584.01 1146.71 583.57 1143.11 583.04 1140.76 C 582.51 1138.42 581.57 1133.8 580.95 1130.5 C 580.32 1127.2 579.38 1123.42 578.86 1122.1 C 578.33 1120.78 578.26 1119.35 578.7 1118.92 C 579.14 1118.5 581.08 1118.91 583.0 1119.85 C 584.92 1120.78 588.52 1122.18 591.0 1122.95 C 593.48 1123.72 595.93 1124.72 596.45 1125.17 C 596.97 1125.63 598.44 1126.0 599.7 1126.0 C 601.31 1126.0 602.0 1125.42 602.0 1124.06 C 602.0 1122.99 601.55 1121.84 601.0 1121.5 C 600.45 1121.16 600.0 1120.02 600.0 1118.97 C 600.0 1117.92 598.86 1114.56 597.46 1111.52 C 596.07 1108.47 592.58 1103.58 589.71 1100.66 C 586.85 1097.73 583.16 1093.89 581.52 1092.12 C 579.08 1089.49 578.8 1088.74 579.98 1088.01 C 581.13 1087.3 580.42 1086.02 576.46 1081.67 C 573.73 1078.67 571.03 1076.17 570.45 1076.11 C 569.88 1076.05 567.74 1074.29 565.7 1072.21 C 563.67 1070.12 562.0 1067.87 562.0 1067.21 C 562.0 1066.54 561.6 1066.0 561.12 1066.0 C 560.64 1066.0 559.66 1064.54 558.94 1062.75 C 558.23 1060.96 556.45 1057.7 555.0 1055.5 C 553.55 1053.3 550.93 1048.49 549.18 1044.81 C 547.43 1041.14 546.0 1037.73 546.0 1037.25 C 546.0 1036.77 545.1 1034.51 544.0 1032.24 C 542.9 1029.96 542.0 1027.43 542.0 1026.61 C 542.0 1025.79 541.55 1024.84 541.0 1024.5 C 540.45 1024.16 540.0 1022.81 540.0 1021.5 C 540.0 1020.19 539.6 1018.87 539.11 1018.57 C 538.62 1018.27 537.98 1016.55 537.68 1014.76 C 537.39 1012.97 536.69 1009.7 536.14 1007.5 C 535.59 1005.3 534.62 1001.7 533.98 999.5 C 533.35 997.3 532.43 993.25 531.94 990.5 C 531.45 987.75 530.6 981.67 530.06 977.0 C 529.52 972.33 528.79 967.53 528.44 966.33 C 528.08 965.1 528.76 961.45 530.03 957.83 C 531.25 954.35 532.72 950.92 533.28 950.21 C 534.0 949.31 533.96 948.56 533.16 947.76 C 532.52 947.12 532.0 944.13 532.0 941.11 C 532.0 936.83 532.48 935.11 534.21 933.27 C 536.07 931.29 536.23 930.6 535.21 928.97 C 534.55 927.9 534.0 926.57 534.0 926.0 C 534.0 925.44 533.14 923.07 532.09 920.74 C 531.04 918.41 529.92 915.26 529.59 913.75 C 529.27 912.24 528.74 909.76 528.42 908.25 C 528.11 906.74 527.48 904.6 527.04 903.5 C 526.59 902.4 525.76 899.7 525.18 897.5 C 524.6 895.3 523.68 891.48 523.14 889.0 C 522.6 886.52 521.68 881.35 521.1 877.5 C 520.52 873.65 519.85 866.0 519.61 860.5 C 519.36 854.61 519.73 847.42 520.51 843.0 C 521.24 838.88 522.34 832.35 522.97 828.5 C 523.59 824.65 524.56 819.48 525.12 817.0 C 525.68 814.52 526.54 810.7 527.02 808.5 C 527.51 806.3 528.45 802.02 529.11 799.0 C 529.77 795.98 531.42 790.12 532.78 786.0 C 534.13 781.88 535.6 777.15 536.04 775.5 C 536.49 773.85 538.26 768.45 539.99 763.5 C 541.72 758.55 545.16 750.23 547.63 745.0 C 550.11 739.77 552.75 734.38 553.5 733.0 C 554.26 731.62 555.51 729.15 556.29 727.5 C 557.08 725.85 558.25 723.38 558.91 722.0 C 559.56 720.62 561.14 717.58 562.41 715.23 C 563.68 712.88 565.38 710.18 566.19 709.23 C 567.0 708.28 568.41 705.87 569.31 703.89 C 570.22 701.9 571.65 699.71 572.48 699.02 C 573.32 698.32 574.0 697.2 574.0 696.53 C 574.0 695.86 574.9 694.5 576.0 693.5 C 577.1 692.5 578.0 691.15 578.0 690.5 C 578.0 689.85 578.9 688.5 580.0 687.5 C 581.1 686.5 582.0 685.15 582.0 684.5 C 582.0 683.85 582.9 682.5 584.0 681.5 C 585.1 680.5 586.0 679.29 586.0 678.81 C 586.0 678.32 588.25 675.58 591.0 672.71 C 593.75 669.85 596.0 667.04 596.0 666.47 C 596.0 665.9 598.7 662.77 602.0 659.5 C 605.3 656.23 608.0 653.11 608.0 652.55 C 608.0 651.99 613.28 646.24 619.73 639.77 C 626.19 633.29 631.94 628.0 632.52 628.0 C 633.09 628.0 636.23 625.3 639.5 622.0 C 642.77 618.7 645.9 616.0 646.47 616.0 C 647.04 616.0 649.85 613.75 652.71 611.0 C 655.58 608.25 658.31 606.0 658.79 606.0 C 659.26 606.0 660.74 604.84 662.08 603.41 C 663.41 601.99 666.34 599.99 668.59 598.96 C 670.83 597.94 673.25 596.4 673.96 595.55 C 674.67 594.7 675.79 594.0 676.45 594.0 C 677.11 594.0 678.74 592.84 680.08 591.41 C 681.41 589.99 684.39 587.97 686.69 586.92 C 688.99 585.87 691.16 584.55 691.5 584.0 C 691.84 583.45 694.09 582.1 696.5 581.0 C 698.91 579.9 701.16 578.55 701.5 578.0 C 701.84 577.45 704.01 576.06 706.31 574.92 C 708.61 573.77 712.75 571.55 715.5 569.98 C 718.25 568.41 721.47 566.67 722.65 566.12 C 723.84 565.57 725.1 564.64 725.46 564.06 C 725.83 563.47 728.09 562.1 730.5 561.0 C 732.91 559.9 735.16 558.55 735.5 558.0 C 735.84 557.45 738.12 556.08 740.56 554.97 C 743.0 553.86 746.24 552.72 747.75 552.44 C 749.53 552.1 751.68 552.66 753.86 554.01 C 755.7 555.16 757.44 556.98 757.72 558.05 C 758.08 559.41 759.1 560.0 761.12 560.0 C 762.78 560.0 764.0 559.46 764.0 558.73 C 764.0 558.03 767.49 554.02 771.75 549.82 C 779.0 542.68 780.08 541.99 788.5 539.22 C 793.45 537.6 799.98 535.77 803.0 535.16 C 806.02 534.56 810.75 533.62 813.5 533.09 C 816.25 532.55 823.73 531.57 830.12 530.91 C 839.16 529.97 843.81 529.97 851.09 530.9 C 856.23 531.56 862.57 532.8 865.18 533.65 C 867.79 534.51 870.45 535.83 871.09 536.6 C 871.72 537.37 872.64 538.0 873.13 538.0 C 873.62 538.0 876.03 539.89 878.49 542.21 C 882.01 545.52 883.45 547.92 885.23 553.46 C 887.16 559.43 887.45 562.24 887.2 572.0 C 887.04 578.33 886.86 585.98 886.81 589.0 C 886.76 592.02 887.24 600.12 887.89 607.0 C 888.53 613.88 889.49 627.6 890.03 637.5 C 890.56 647.4 891.44 659.1 891.97 663.5 C 892.51 667.9 893.36 673.52 893.85 676.0 C 894.35 678.48 895.7 683.33 896.85 686.78 C 898.0 690.24 899.67 694.74 900.55 696.78 C 901.44 698.83 902.66 701.4 903.27 702.5 C 903.87 703.6 906.0 707.67 908.01 711.54 C 910.01 715.42 913.6 721.49 916.0 725.04 C 918.39 728.6 920.63 731.73 920.97 732.0 C 921.32 732.27 922.6 733.94 923.82 735.69 C 925.05 737.44 930.85 743.66 936.72 749.51 C 942.59 755.36 948.75 761.11 950.42 762.3 C 952.09 763.49 956.09 767.05 959.31 770.23 C 962.54 773.4 965.62 776.0 966.17 776.0 C 966.71 776.0 969.07 777.92 971.41 780.26 C 973.76 782.6 975.86 785.04 976.09 785.69 C 976.31 786.34 979.09 789.55 982.25 792.84 C 985.41 796.12 988.0 799.22 988.0 799.72 C 988.0 800.22 989.46 801.98 991.25 803.63 C 993.04 805.27 995.26 807.58 996.19 808.76 C 997.13 809.93 1001.51 816.3 1005.94 822.92 C 1010.37 829.53 1014.0 835.2 1014.0 835.53 C 1014.0 835.85 1015.8 838.76 1018.0 842.0 C 1020.2 845.24 1022.0 848.51 1022.0 849.26 C 1022.0 850.01 1022.8 851.5 1023.79 852.56 C 1024.77 853.63 1026.2 856.08 1026.96 858.0 C 1027.71 859.92 1030.06 865.2 1032.17 869.73 C 1034.28 874.26 1036.01 878.53 1036.02 879.23 C 1036.03 879.93 1036.92 881.62 1038.0 883.0 C 1039.08 884.38 1039.97 886.26 1039.98 887.19 C 1039.99 888.12 1040.4 889.13 1040.88 889.43 C 1041.37 889.73 1042.03 891.22 1042.34 892.74 C 1042.65 894.26 1043.41 897.75 1044.03 900.5 C 1044.64 903.25 1045.38 907.43 1045.68 909.79 C 1046.07 912.97 1045.6 915.5 1043.85 919.53 C 1042.56 922.52 1041.25 924.97 1040.94 924.98 C 1040.63 924.99 1039.26 923.76 1037.89 922.25 C 1036.53 920.74 1034.1 915.45 1032.51 910.5 C 1030.92 905.55 1029.33 901.05 1028.99 900.5 C 1028.64 899.95 1027.77 897.48 1027.05 895.0 C 1026.32 892.52 1024.85 887.8 1023.78 884.5 C 1022.71 881.2 1020.97 876.59 1019.92 874.26 C 1018.86 871.93 1018.0 869.79 1018.0 869.5 C 1018.0 869.21 1017.15 867.07 1016.12 864.74 C 1015.08 862.41 1013.69 858.92 1013.02 857.0 C 1012.35 855.08 1011.47 852.6 1011.07 851.5 C 1010.67 850.4 1008.81 846.35 1006.95 842.5 C 1005.09 838.65 1002.32 833.62 1000.78 831.32 C 999.25 829.02 998.0 826.77 998.0 826.32 C 998.0 825.87 996.87 824.19 995.5 822.59 C 994.12 821.0 993.0 819.32 993.0 818.86 C 993.0 818.41 989.51 814.54 985.25 810.27 C 980.99 806.0 975.54 801.49 973.16 800.25 C 970.77 799.01 967.77 798.0 966.49 798.0 C 964.84 798.0 963.9 798.8 963.25 800.75 C 962.7 802.38 962.69 805.11 963.21 807.43 C 963.69 809.59 963.96 812.28 963.8 813.41 C 963.59 814.85 960.61 811.06 953.65 800.48 C 948.23 792.24 942.41 783.48 940.72 781.0 C 938.65 777.95 936.01 775.71 932.58 774.05 C 929.64 772.63 923.63 767.86 918.3 762.71 C 912.54 757.13 906.65 750.11 902.53 743.9 C 898.91 738.44 895.44 732.86 894.81 731.49 C 894.19 730.12 893.3 729.0 892.84 729.0 C 892.38 729.0 892.0 732.21 892.0 736.13 C 892.0 741.68 891.52 744.07 889.83 746.88 C 888.63 748.87 887.54 750.65 887.4 750.84 C 887.26 751.03 886.21 750.89 885.07 750.52 C 883.93 750.16 881.63 748.72 879.98 747.33 C 878.32 745.94 875.18 741.73 872.99 737.98 C 870.8 734.23 867.83 727.42 866.39 722.83 C 864.95 718.25 863.61 713.94 863.41 713.25 C 863.22 712.56 862.61 712.0 862.05 712.0 C 861.49 712.0 860.79 713.24 860.48 714.75 C 860.18 716.26 859.5 718.88 858.97 720.57 C 858.43 722.26 858.0 724.44 858.0 725.4 C 858.0 726.37 857.66 727.02 857.25 726.83 C 856.84 726.65 854.82 725.38 852.76 724.0 C 850.71 722.62 849.04 720.83 849.06 720.0 C 849.07 719.17 849.74 716.7 850.53 714.5 C 851.32 712.3 851.98 707.73 851.98 704.34 C 852.0 700.0 851.39 697.04 849.92 694.29 C 848.26 691.19 846.93 690.12 843.44 689.09 C 840.24 688.15 838.23 688.07 836.09 688.82 C 833.48 689.73 832.95 689.57 831.57 687.46 C 830.7 686.15 830.0 684.2 830.0 683.15 C 830.0 682.09 829.21 680.31 828.25 679.19 C 826.54 677.2 826.39 677.2 821.12 678.91 C 816.79 680.31 815.05 681.57 812.23 685.38 C 810.28 688.02 808.29 692.2 807.76 694.81 C 807.23 697.39 806.36 701.3 805.82 703.5 C 805.28 705.7 804.5 709.52 804.08 712.0 C 803.66 714.48 802.96 717.51 802.54 718.75 C 802.11 719.99 801.32 721.0 800.78 721.0 C 800.19 721.0 800.12 720.28 800.6 719.25 C 801.04 718.29 801.58 714.2 801.79 710.16 C 802.02 705.65 801.67 701.59 800.89 699.66 C 800.19 697.92 798.69 695.04 797.56 693.26 C 795.63 690.23 795.14 690.02 789.74 690.01 C 785.97 690.0 782.45 690.72 779.57 692.07 C 777.14 693.21 772.59 696.7 769.46 699.82 C 766.32 702.95 761.66 708.65 759.1 712.5 C 756.55 716.35 753.8 720.85 753.01 722.5 C 752.22 724.15 750.77 726.69 749.79 728.15 C 748.8 729.61 748.0 731.33 748.0 731.96 C 748.0 732.59 746.18 735.79 743.96 739.05 C 741.74 742.32 739.55 745.0 739.09 745.0 C 738.63 745.0 737.7 743.0 737.02 740.57 C 736.34 738.13 736.03 734.19 736.34 731.82 C 736.65 729.44 737.35 723.43 737.91 718.45 C 738.46 713.47 739.21 708.61 739.58 707.65 C 739.95 706.69 739.71 703.11 739.05 699.7 C 738.39 696.29 736.9 691.36 735.75 688.75 C 734.6 686.14 733.33 684.0 732.92 684.0 C 732.52 684.0 730.3 685.01 728.0 686.24 C 725.69 687.47 722.03 690.0 719.85 691.86 C 717.67 693.72 713.67 698.54 710.95 702.58 C 708.23 706.61 706.0 710.38 706.0 710.95 C 706.0 711.53 705.58 712.0 705.07 712.0 C 704.55 712.0 703.86 712.86 703.53 713.92 C 703.19 714.98 700.67 718.88 697.93 722.59 C 695.2 726.3 692.7 730.5 692.39 731.92 C 692.08 733.34 690.47 738.1 688.8 742.5 C 687.14 746.9 685.18 751.85 684.46 753.5 C 683.74 755.15 682.41 758.75 681.52 761.5 C 680.63 764.25 679.53 767.4 679.07 768.5 C 678.61 769.6 677.22 773.88 675.98 778.0 C 674.75 782.12 673.14 786.88 672.41 788.56 C 671.68 790.25 670.8 793.62 670.46 796.06 C 670.12 798.5 669.46 801.4 669.0 802.5 C 668.53 803.6 667.87 805.85 667.52 807.5 C 667.18 809.15 666.47 812.41 665.95 814.75 C 665.43 817.09 664.55 821.02 664.0 823.5 C 663.45 825.98 662.61 829.91 662.13 832.25 C 661.66 834.59 660.94 837.4 660.54 838.5 C 660.14 839.6 659.36 841.62 658.79 843.0 C 658.23 844.38 657.35 846.31 656.84 847.31 C 656.2 848.55 656.51 850.9 657.84 854.81 C 658.89 857.94 660.33 863.74 661.03 867.7 C 661.97 873.04 662.1 880.26 661.51 895.7 C 661.08 907.14 660.58 919.65 660.41 923.5 C 660.24 927.35 660.08 935.56 660.05 941.75 C 660.02 947.94 659.66 953.0 659.25 952.99 C 658.84 952.99 656.92 950.52 655.0 947.5 C 653.08 944.48 651.16 942.01 650.75 942.01 C 650.34 942.0 650.0 943.43 650.0 945.18 C 650.0 946.93 650.45 949.85 651.0 951.68 C 651.55 953.51 652.49 956.69 653.08 958.75 C 653.68 960.81 655.03 964.41 656.08 966.74 C 657.14 969.07 658.0 971.97 658.0 973.17 C 658.0 974.38 658.85 976.3 659.88 977.44 C 660.92 978.57 664.12 984.0 667.0 989.5 C 669.87 995.0 672.63 999.93 673.11 1000.45 C 673.6 1000.97 674.0 1001.98 674.0 1002.7 C 674.0 1003.41 673.65 1004.0 673.22 1004.0 C 672.78 1004.0 671.64 1002.67 670.68 1001.04 C 669.72 999.41 668.38 997.48 667.71 996.76 C 667.05 996.04 665.49 994.01 664.25 992.26 C 663.01 990.51 662.0 988.61 662.0 988.04 C 662.0 987.47 660.2 985.2 658.0 983.0 C 655.8 980.8 654.0 978.4 654.0 977.67 C 654.0 976.95 652.92 975.34 651.61 974.1 C 650.29 972.86 648.96 972.25 648.66 972.74 C 648.36 973.23 648.81 975.63 649.68 978.07 C 650.54 980.51 651.58 983.85 652.0 985.5 C 652.41 987.15 653.71 990.88 654.87 993.78 L 657.0 999.07 C 653.61 997.26 650.47 994.72 647.85 992.26 C 645.22 989.8 642.8 986.94 642.47 985.9 C 642.14 984.85 641.28 984.0 640.56 984.0 C 639.84 984.0 636.56 981.64 633.27 978.75 C 629.97 975.86 626.42 972.8 625.37 971.95 C 624.32 971.1 621.36 968.97 618.8 967.2 C 616.24 965.44 613.84 964.0 613.47 964.0 C 613.11 964.0 611.48 963.05 609.85 961.89 C 608.22 960.73 606.61 960.05 606.28 960.39 C 605.94 960.72 607.36 964.28 609.42 968.29 C 611.49 972.3 614.71 977.36 616.59 979.53 C 618.46 981.7 620.0 983.79 620.0 984.18 C 620.0 984.56 621.85 987.04 624.1 989.69 C 626.36 992.34 628.94 995.41 629.85 996.52 C 630.76 997.64 634.08 1001.69 637.22 1005.52 C 640.37 1009.36 644.01 1013.49 645.32 1014.7 C 646.62 1015.91 649.67 1019.51 652.09 1022.7 C 654.52 1025.89 656.83 1028.65 657.22 1028.82 C 657.62 1029.0 659.2 1030.35 660.72 1031.82 C 662.25 1033.3 667.27 1038.68 671.89 1043.78 C 676.5 1048.88 679.99 1053.35 679.64 1053.69 C 679.29 1054.04 677.88 1053.81 676.5 1053.18 C 674.29 1052.17 674.0 1052.27 674.0 1054.04 C 674.0 1055.13 674.39 1056.81 674.88 1057.76 C 675.36 1058.72 676.31 1061.3 676.99 1063.5 C 677.68 1065.7 680.98 1071.32 684.35 1075.98 C 687.71 1080.65 693.57 1087.4 697.38 1090.98 C 701.18 1094.57 707.04 1100.13 710.4 1103.36 C 713.75 1106.58 718.06 1110.4 719.96 1111.86 C 721.87 1113.31 725.35 1116.27 727.71 1118.44 C 730.07 1120.61 732.0 1122.74 732.0 1123.19 C 732.0 1123.64 730.68 1124.0 729.06 1124.0 C 727.45 1124.0 723.17 1123.31 719.56 1122.48 C 715.95 1121.64 709.9 1119.84 706.13 1118.48 C 702.35 1117.11 695.15 1113.73 690.12 1110.96 C 681.1 1105.99 680.89 1105.92 672.74 1106.07 C 665.86 1106.2 664.01 1106.6 661.5 1108.5 C 659.85 1109.75 657.38 1111.76 656.01 1112.96 C 654.65 1114.16 652.28 1115.39 650.76 1115.7 C 648.66 1116.12 648.0 1116.83 648.0 1118.67 C 648.0 1120.01 647.37 1122.31 646.59 1123.8 C 645.81 1125.28 643.8 1127.81 642.11 1129.42 C 639.69 1131.72 637.89 1132.43 633.54 1132.79 C 629.93 1133.09 626.24 1132.66 622.81 1131.53 C 618.34 1130.07 617.01 1130.01 613.73 1131.09 C 611.55 1131.81 608.94 1133.69 607.7 1135.42 C 605.96 1137.86 605.56 1139.73 605.7 1144.7 C 605.84 1149.77 606.66 1152.57 610.12 1159.72 C 612.45 1164.55 615.63 1170.38 617.18 1172.68 C 618.73 1174.98 620.0 1177.15 620.0 1177.5 C 620.0 1177.85 621.42 1180.2 623.15 1182.72 C 625.48 1186.1 626.05 1187.7 625.33 1188.84 C 624.79 1189.69 623.88 1190.54 623.31 1190.73 Z M 1036.72 1140.49 C 1033.84 1141.93 1033.79 1141.91 1034.36 1139.6 C 1034.68 1138.31 1035.23 1136.07 1035.58 1134.64 C 1035.94 1133.2 1035.61 1129.94 1034.86 1127.4 L 1033.5 1122.77 C 1024.36 1123.72 1021.14 1124.47 1020.44 1125.05 C 1019.6 1125.75 1018.97 1125.76 1018.56 1125.09 C 1018.21 1124.53 1018.36 1123.28 1018.88 1122.29 C 1019.41 1121.31 1020.77 1118.37 1021.92 1115.76 C 1023.06 1113.15 1024.0 1110.57 1024.0 1110.01 C 1024.0 1109.45 1024.45 1109.0 1025.0 1109.0 C 1025.55 1109.0 1026.0 1109.67 1026.0 1110.5 C 1026.0 1111.44 1026.95 1112.0 1028.57 1112.0 C 1030.43 1112.0 1033.51 1109.74 1039.64 1103.87 C 1045.56 1098.2 1048.45 1096.05 1049.18 1096.78 C 1049.91 1097.51 1049.86 1099.44 1049.0 1103.16 C 1048.33 1106.1 1047.38 1109.53 1046.89 1110.8 C 1046.4 1112.06 1046.0 1114.18 1046.0 1115.5 C 1046.0 1116.82 1045.6 1118.94 1045.1 1120.2 C 1044.61 1121.47 1043.71 1124.41 1043.1 1126.75 C 1042.5 1129.09 1041.48 1132.8 1040.84 1135.01 C 1040.02 1137.82 1038.79 1139.46 1036.72 1140.49 Z M 615.0 889.0 C 615.55 889.0 616.0 887.95 616.0 886.67 C 616.0 885.38 616.28 884.05 616.62 883.71 C 616.97 883.37 618.34 879.84 619.68 875.87 C 621.02 871.89 623.51 865.69 625.23 862.07 C 626.94 858.46 629.85 853.19 631.69 850.37 C 633.53 847.55 636.82 844.06 638.99 842.62 C 641.17 841.18 643.64 840.0 644.48 840.0 C 645.32 840.0 646.0 839.74 646.0 839.43 C 646.0 839.11 645.31 838.17 644.47 837.33 C 643.1 835.96 642.57 836.09 639.26 838.62 C 637.23 840.17 633.38 843.66 630.71 846.39 C 628.04 849.12 624.59 853.18 623.05 855.43 C 621.51 857.67 619.46 861.75 618.51 864.5 C 617.55 867.25 616.15 872.88 615.4 877.0 C 614.65 881.12 614.03 885.51 614.02 886.75 C 614.01 887.99 614.45 889.0 615.0 889.0 Z " opacity="1.0" fill="#000000" stroke="none" fill-rule="evenodd"/><path d="M 932.09 2355.0 C 931.52 2355.0 930.29 2353.84 929.36 2352.42 C 928.08 2350.48 927.9 2349.19 928.6 2347.17 C 929.21 2345.46 930.41 2344.38 931.96 2344.16 C 933.45 2343.94 934.89 2344.5 935.69 2345.6 C 936.41 2346.58 937.0 2348.63 937.0 2350.16 C 937.0 2351.87 936.26 2353.32 935.07 2353.96 C 934.0 2354.53 932.66 2355.0 932.09 2355.0 Z M 940.16 2302.0 C 939.19 2302.0 937.86 2301.46 937.2 2300.8 C 936.54 2300.14 936.0 2297.95 936.0 2295.93 C 936.0 2293.74 936.83 2291.21 938.07 2289.63 C 939.46 2287.87 941.1 2287.0 943.04 2287.0 C 944.93 2287.0 946.31 2287.71 947.03 2289.05 C 947.82 2290.53 947.82 2292.01 947.04 2294.39 C 946.44 2296.19 945.05 2298.65 943.94 2299.84 C 942.83 2301.03 941.13 2302.0 940.16 2302.0 Z M 563.25 2294.97 C 562.84 2294.95 561.71 2294.48 560.75 2293.92 C 559.79 2293.36 559.0 2291.83 559.0 2290.52 C 559.0 2289.21 559.71 2287.44 560.57 2286.57 C 561.44 2285.71 562.72 2285.0 563.42 2285.0 C 564.12 2285.0 565.43 2285.82 566.35 2286.83 C 567.26 2287.83 568.0 2289.18 568.0 2289.83 C 568.0 2290.47 567.1 2291.9 566.0 2293.0 C 564.9 2294.1 563.66 2294.99 563.25 2294.97 Z M 557.55 2277.94 C 555.06 2277.91 552.12 2276.98 549.91 2275.53 C 547.94 2274.24 545.13 2271.75 543.66 2270.01 C 542.2 2268.27 540.74 2265.8 540.42 2264.53 C 540.1 2263.24 540.55 2260.83 541.44 2259.11 C 542.81 2256.46 543.6 2256.01 546.78 2256.04 C 548.82 2256.05 551.44 2256.62 552.58 2257.29 C 553.73 2257.95 555.76 2259.4 557.1 2260.5 C 558.43 2261.6 560.53 2263.8 561.76 2265.38 C 563.15 2267.17 564.0 2269.67 564.0 2271.93 C 564.0 2273.95 563.46 2276.14 562.8 2276.8 C 562.14 2277.46 559.78 2277.97 557.55 2277.94 Z M 589.8 2266.92 C 588.53 2266.88 586.83 2266.6 586.0 2266.3 C 585.17 2266.0 583.22 2264.57 581.66 2263.13 C 580.1 2261.68 578.25 2259.38 577.56 2258.0 C 576.86 2256.62 575.78 2253.41 575.16 2250.86 C 574.32 2247.42 574.32 2245.35 575.15 2242.86 C 575.77 2241.01 577.29 2238.13 578.53 2236.46 C 580.55 2233.74 581.22 2233.47 585.12 2233.84 C 587.5 2234.07 590.48 2234.93 591.73 2235.75 C 592.99 2236.57 595.36 2240.06 597.01 2243.51 C 598.98 2247.64 600.0 2251.34 600.0 2254.35 C 600.0 2256.85 599.46 2260.09 598.81 2261.53 C 598.15 2262.97 596.37 2264.79 594.85 2265.57 C 593.34 2266.36 591.06 2266.96 589.8 2266.92 Z M 622.0 2229.77 C 619.84 2229.94 617.26 2229.28 615.28 2228.05 C 613.5 2226.96 611.76 2224.88 611.4 2223.45 C 610.96 2221.7 611.25 2220.32 612.29 2219.29 C 613.3 2218.27 614.7 2217.96 616.4 2218.38 C 617.81 2218.74 620.57 2220.44 622.53 2222.16 C 624.89 2224.24 626.0 2226.01 625.8 2227.4 C 625.57 2229.01 624.69 2229.56 622.0 2229.77 Z M 636.93 2190.0 C 636.48 2190.0 635.43 2189.03 634.6 2187.84 C 633.77 2186.65 633.32 2185.3 633.6 2184.84 C 633.89 2184.38 635.17 2184.0 636.45 2184.0 C 637.74 2184.0 639.07 2184.73 639.41 2185.63 C 639.75 2186.52 639.52 2187.87 638.89 2188.63 C 638.27 2189.38 637.39 2190.0 636.93 2190.0 Z M 565.3 1757.81 C 562.91 1758.04 561.86 1757.6 561.01 1756.02 C 560.39 1754.87 560.18 1753.01 560.53 1751.9 C 560.88 1750.79 562.28 1749.37 563.63 1748.76 C 565.7 1747.81 566.42 1747.98 568.24 1749.8 C 570.03 1751.59 570.23 1752.43 569.43 1754.73 C 568.69 1756.85 567.72 1757.57 565.3 1757.81 Z M 554.68 1688.96 C 554.03 1688.94 552.29 1688.26 550.8 1687.45 C 549.32 1686.65 546.05 1683.47 543.54 1680.4 C 541.04 1677.32 538.7 1673.65 538.35 1672.25 C 537.99 1670.84 538.15 1668.97 538.7 1668.1 C 539.25 1667.22 540.84 1665.85 542.24 1665.06 C 544.38 1663.84 545.46 1663.82 549.14 1664.91 C 551.88 1665.73 555.02 1667.79 557.6 1670.46 C 559.85 1672.8 561.97 1676.11 562.31 1677.81 C 562.65 1679.51 562.44 1682.31 561.84 1684.02 C 561.22 1685.8 559.7 1687.54 558.31 1688.07 C 556.97 1688.58 555.34 1688.98 554.68 1688.96 Z M 502.58 1560.0 C 501.2 1560.0 498.5 1558.62 496.59 1556.94 C 494.67 1555.26 492.0 1551.9 490.64 1549.48 C 489.29 1547.05 487.64 1543.45 486.99 1541.47 C 486.08 1538.71 486.08 1537.23 486.99 1535.03 C 487.64 1533.46 489.43 1531.65 490.98 1531.01 C 493.33 1530.03 494.42 1530.18 497.78 1531.89 C 499.97 1533.01 503.08 1535.63 504.68 1537.71 C 506.28 1539.8 508.13 1542.76 508.79 1544.3 C 509.46 1545.84 510.0 1548.89 510.0 1551.09 C 510.0 1554.0 509.33 1555.76 507.55 1557.55 C 506.2 1558.9 503.96 1560.0 502.58 1560.0 Z M 596.8 1556.96 C 596.08 1556.94 594.15 1556.32 592.5 1555.58 C 590.85 1554.84 588.89 1553.22 588.15 1551.98 C 587.42 1550.74 586.14 1547.47 585.32 1544.71 C 584.07 1540.49 584.03 1538.64 585.07 1533.1 C 586.04 1527.93 587.02 1525.79 589.56 1523.25 C 592.29 1520.51 593.53 1520.0 597.48 1520.0 C 601.28 1520.0 602.68 1520.53 604.99 1522.83 C 606.54 1524.39 608.39 1527.56 609.08 1529.88 C 610.11 1533.31 610.1 1535.35 609.03 1540.74 C 608.3 1544.39 606.82 1548.89 605.73 1550.73 C 604.65 1552.57 602.49 1554.73 600.93 1555.54 C 599.37 1556.34 597.51 1556.98 596.8 1556.96 Z M 931.96 1508.48 C 930.17 1508.92 928.61 1508.48 926.71 1506.98 C 924.51 1505.25 924.0 1504.04 924.0 1500.51 C 924.0 1498.12 924.84 1494.22 925.87 1491.83 C 926.9 1489.45 928.67 1486.67 929.8 1485.66 C 931.32 1484.3 932.68 1483.99 934.9 1484.48 L 937.93 1485.14 C 937.88 1470.53 938.43 1466.92 940.1 1462.46 C 941.32 1459.18 943.26 1454.85 944.41 1452.83 C 945.56 1450.81 948.63 1446.43 951.23 1443.1 C 953.83 1439.78 957.65 1436.0 959.73 1434.72 C 961.8 1433.44 965.92 1431.4 968.88 1430.2 C 971.84 1428.99 975.35 1428.0 976.68 1428.0 C 978.01 1428.0 980.15 1429.14 981.44 1430.53 C 982.73 1431.93 984.07 1434.54 984.4 1436.34 C 984.74 1438.15 984.58 1441.84 984.05 1444.56 C 983.51 1447.28 982.66 1450.85 982.15 1452.5 C 981.65 1454.15 979.79 1459.1 978.03 1463.5 C 976.26 1467.9 974.01 1473.3 973.02 1475.5 C 972.03 1477.7 969.79 1482.97 968.03 1487.22 C 965.96 1492.23 963.63 1495.99 961.39 1497.97 C 958.7 1500.32 956.99 1501.0 953.7 1501.0 C 950.83 1501.0 948.28 1500.19 945.79 1498.5 C 943.76 1497.12 941.87 1496.0 941.59 1496.0 C 941.31 1496.0 940.61 1497.72 940.05 1499.82 C 939.48 1501.91 938.0 1504.58 936.76 1505.74 C 935.52 1506.9 933.36 1508.14 931.96 1508.48 Z M 542.77 1505.98 C 540.97 1505.97 538.57 1505.18 537.44 1504.23 C 536.3 1503.28 534.61 1501.28 533.69 1499.79 C 532.74 1498.26 532.0 1495.04 532.0 1492.44 C 532.0 1489.64 532.71 1486.76 533.79 1485.15 C 534.78 1483.69 536.46 1480.79 537.54 1478.7 C 538.62 1476.61 540.71 1473.58 542.19 1471.95 C 544.14 1469.82 545.8 1469.0 548.19 1469.01 C 550.01 1469.01 552.85 1469.72 554.5 1470.58 C 556.15 1471.44 557.94 1472.9 558.48 1473.82 C 559.02 1474.74 560.0 1477.53 560.65 1480.0 C 561.69 1483.97 561.58 1485.08 559.71 1489.5 C 558.54 1492.25 556.71 1496.0 555.65 1497.83 C 554.58 1499.66 551.98 1502.25 549.87 1503.58 C 547.77 1504.91 544.57 1505.99 542.77 1505.98 Z M 518.92 1473.48 C 514.23 1473.89 511.56 1473.62 509.01 1472.47 C 507.09 1471.6 504.46 1469.9 503.16 1468.7 C 501.87 1467.49 500.1 1465.15 499.22 1463.5 C 498.25 1461.66 497.62 1457.97 497.61 1453.95 C 497.6 1450.35 498.18 1445.85 498.9 1443.95 C 499.62 1442.05 501.96 1436.81 504.11 1432.31 C 506.25 1427.8 508.0 1423.83 508.0 1423.47 C 508.0 1423.12 510.7 1419.79 514.01 1416.07 C 517.31 1412.35 522.21 1408.11 524.89 1406.65 C 527.82 1405.06 531.32 1404.01 533.64 1404.02 C 535.78 1404.03 539.28 1405.04 541.5 1406.3 C 544.63 1408.07 545.99 1409.76 547.72 1414.03 C 549.07 1417.37 549.95 1421.69 549.97 1425.11 C 549.99 1429.26 549.2 1432.52 546.94 1437.61 C 545.25 1441.4 542.34 1447.65 540.47 1451.51 C 538.6 1455.36 535.02 1461.42 532.52 1464.98 C 530.01 1468.53 527.37 1471.77 526.65 1472.17 C 525.93 1472.58 522.45 1473.16 518.92 1473.48 Z M 928.7 1465.99 C 927.72 1465.99 925.8 1464.9 924.45 1463.55 C 922.75 1461.84 922.0 1459.98 922.0 1457.45 C 922.0 1455.42 922.88 1452.58 923.98 1451.03 C 925.07 1449.5 927.56 1447.49 929.51 1446.56 C 931.66 1445.54 933.93 1445.15 935.28 1445.58 C 936.5 1445.96 937.83 1446.77 938.23 1447.38 C 938.64 1448.0 938.95 1449.85 938.93 1451.5 C 938.91 1453.15 938.07 1456.53 937.08 1459.0 C 936.08 1461.49 934.2 1464.05 932.88 1464.74 C 931.57 1465.41 929.69 1465.98 928.7 1465.99 Z M 563.68 1452.0 C 562.45 1452.0 560.48 1451.32 559.3 1450.5 C 558.12 1449.67 556.63 1447.41 555.99 1445.48 C 555.33 1443.46 555.12 1440.25 555.51 1437.95 C 555.94 1435.42 557.42 1432.64 559.54 1430.39 C 561.53 1428.27 563.62 1426.97 564.69 1427.18 C 565.68 1427.37 567.15 1428.87 567.95 1430.51 C 568.76 1432.16 569.59 1436.65 569.8 1440.5 C 570.12 1446.56 569.88 1447.8 568.04 1449.75 C 566.88 1450.99 564.91 1452.0 563.68 1452.0 Z M 776.0 1444.39 C 774.62 1444.68 772.38 1444.46 771.02 1443.91 C 769.66 1443.35 767.74 1442.17 766.76 1441.28 C 765.78 1440.4 764.32 1437.46 763.52 1434.75 C 762.36 1430.84 762.28 1428.77 763.15 1424.67 C 763.76 1421.82 765.17 1417.47 766.29 1415.0 C 767.42 1412.53 770.59 1407.41 773.35 1403.63 C 776.12 1399.84 780.6 1394.99 783.31 1392.85 C 786.03 1390.7 790.68 1387.83 793.65 1386.47 C 796.72 1385.07 800.89 1384.01 803.28 1384.02 C 805.6 1384.02 807.95 1384.36 808.5 1384.77 C 809.05 1385.17 810.33 1386.48 811.34 1387.68 C 813.15 1389.82 813.1 1389.97 808.59 1397.41 C 806.06 1401.57 804.0 1405.21 804.0 1405.5 C 804.0 1405.8 802.91 1407.72 801.57 1409.77 C 800.24 1411.82 796.93 1417.69 794.22 1422.81 C 791.51 1427.94 787.91 1434.09 786.22 1436.49 C 784.52 1438.9 782.09 1441.54 780.82 1442.36 C 779.54 1443.19 777.38 1444.1 776.0 1444.39 Z M 597.79 1410.87 C 596.53 1410.81 593.65 1410.45 591.38 1410.07 C 589.11 1409.7 586.19 1408.69 584.88 1407.83 C 583.57 1406.97 581.22 1404.97 579.65 1403.39 C 578.08 1401.82 575.9 1398.76 574.8 1396.61 C 573.7 1394.45 572.09 1390.39 571.23 1387.59 C 570.2 1384.27 569.68 1378.85 569.71 1372.0 C 569.74 1365.85 570.4 1359.22 571.29 1356.0 C 572.12 1352.97 573.57 1348.25 574.5 1345.5 C 575.43 1342.75 577.53 1337.83 579.17 1334.57 C 580.81 1331.3 583.55 1326.58 585.26 1324.07 C 586.97 1321.56 590.97 1316.28 594.16 1312.36 C 597.35 1308.43 605.68 1299.76 612.68 1293.11 C 619.67 1286.45 628.35 1279.02 631.95 1276.6 C 635.56 1274.18 640.9 1271.42 643.81 1270.47 C 647.54 1269.25 650.88 1268.89 655.06 1269.27 C 658.89 1269.62 662.58 1270.74 665.47 1272.43 C 667.92 1273.87 671.06 1276.53 672.45 1278.34 C 673.83 1280.15 675.64 1283.58 676.48 1285.94 C 677.32 1288.31 678.0 1292.78 678.0 1295.88 C 678.0 1299.4 677.05 1304.13 675.46 1308.5 C 674.07 1312.35 671.28 1318.88 669.27 1323.0 C 667.26 1327.12 662.23 1336.12 658.09 1343.0 C 653.95 1349.88 647.21 1360.0 643.11 1365.5 C 639.01 1371.0 635.39 1375.72 635.07 1376.0 C 634.76 1376.28 631.8 1379.65 628.5 1383.5 C 625.2 1387.35 622.08 1390.68 621.57 1390.89 C 621.06 1391.11 619.66 1392.35 618.45 1393.64 C 617.25 1394.94 615.9 1396.0 615.44 1396.0 C 614.98 1396.0 611.33 1399.38 607.34 1403.5 C 602.19 1408.82 599.42 1410.96 597.79 1410.87 Z M 830.44 1402.98 C 828.76 1402.99 826.64 1402.44 825.74 1401.75 C 824.83 1401.06 823.63 1399.26 823.06 1397.74 C 822.26 1395.56 822.49 1393.76 824.16 1389.24 C 825.84 1384.7 827.99 1381.81 834.42 1375.43 C 839.69 1370.19 844.54 1366.42 848.21 1364.68 C 851.33 1363.21 854.8 1362.0 855.94 1362.0 C 857.07 1362.0 858.95 1362.95 860.12 1364.12 C 861.8 1365.8 862.14 1367.09 861.76 1370.41 C 861.5 1372.7 860.45 1376.36 859.42 1378.54 C 858.39 1380.72 853.94 1386.28 849.52 1390.89 C 845.11 1395.51 839.7 1400.11 837.5 1401.12 C 835.3 1402.13 832.12 1402.97 830.44 1402.98 Z M 464.65 1374.67 C 461.49 1375.18 460.62 1374.82 457.53 1371.73 C 455.14 1369.34 454.0 1367.28 454.0 1365.35 C 454.01 1363.78 454.88 1361.06 455.96 1359.3 C 457.3 1357.11 458.94 1355.91 461.21 1355.49 C 463.03 1355.15 465.78 1355.34 467.31 1355.93 C 469.05 1356.59 470.66 1358.33 471.58 1360.55 C 472.51 1362.75 472.83 1365.39 472.44 1367.49 C 472.09 1369.35 471.0 1371.59 470.03 1372.48 C 469.05 1373.36 466.63 1374.35 464.65 1374.67 Z M 819.0 1372.4 C 817.62 1372.67 815.83 1372.63 815.0 1372.33 C 814.17 1372.02 812.94 1371.06 812.25 1370.19 C 811.56 1369.33 811.0 1367.58 811.0 1366.31 C 811.0 1365.04 811.9 1363.1 813.0 1362.0 C 814.22 1360.78 816.33 1360.0 818.43 1360.0 C 820.31 1360.0 822.56 1360.71 823.43 1361.57 C 824.29 1362.44 825.0 1364.19 825.0 1365.46 C 825.0 1366.74 824.21 1368.71 823.25 1369.85 C 822.29 1370.98 820.38 1372.13 819.0 1372.4 Z M 522.7 1361.73 C 518.74 1362.02 516.74 1361.63 514.3 1360.1 C 512.54 1358.99 510.4 1356.74 509.55 1355.09 C 508.7 1353.45 508.0 1349.78 508.0 1346.94 C 508.0 1343.28 508.86 1340.01 510.96 1335.64 C 512.59 1332.26 515.38 1327.92 517.15 1326.0 C 518.93 1324.08 522.43 1320.25 524.93 1317.5 C 527.43 1314.75 531.5 1310.87 533.99 1308.89 C 536.47 1306.9 539.94 1304.54 541.7 1303.64 C 543.46 1302.74 546.3 1302.0 548.0 1302.0 C 549.7 1302.0 552.36 1302.65 553.9 1303.45 C 555.44 1304.25 557.51 1306.13 558.49 1307.63 C 559.72 1309.5 560.25 1312.16 560.2 1316.11 C 560.15 1319.72 559.35 1323.44 558.06 1326.12 C 556.93 1328.46 556.0 1331.16 556.0 1332.11 C 556.0 1333.07 554.74 1335.12 553.21 1336.67 C 551.68 1338.23 547.82 1342.78 544.64 1346.79 C 541.46 1350.8 536.39 1355.71 533.38 1357.71 C 529.28 1360.44 526.61 1361.44 522.7 1361.73 Z M 693.1 1315.99 C 692.77 1315.98 691.38 1315.4 690.0 1314.71 C 688.62 1314.01 686.89 1312.18 686.15 1310.64 C 685.36 1308.97 685.06 1306.5 685.42 1304.55 C 685.76 1302.75 686.97 1300.44 688.1 1299.41 C 689.36 1298.27 691.66 1297.55 694.0 1297.55 C 696.32 1297.55 698.64 1298.27 699.86 1299.38 C 700.98 1300.38 702.17 1302.49 702.51 1304.06 C 702.9 1305.83 702.51 1308.22 701.49 1310.38 C 700.43 1312.61 698.73 1314.25 696.77 1314.93 C 695.08 1315.52 693.43 1315.99 693.1 1315.99 Z M 584.17 1299.97 C 581.56 1299.96 578.29 1299.2 576.76 1298.25 C 575.25 1297.31 573.33 1295.12 572.51 1293.37 C 571.68 1291.63 571.0 1288.78 571.0 1287.05 C 571.0 1285.32 571.68 1282.58 572.52 1280.97 C 573.35 1279.35 575.3 1277.38 576.84 1276.58 C 578.38 1275.78 580.74 1275.03 582.07 1274.91 C 583.41 1274.79 585.5 1274.76 586.72 1274.84 C 587.93 1274.93 590.51 1276.38 592.43 1278.08 C 594.59 1279.97 596.18 1282.44 596.57 1284.51 C 596.91 1286.36 596.67 1289.46 596.03 1291.4 C 595.39 1293.34 593.51 1296.07 591.86 1297.47 C 589.56 1299.4 587.74 1299.99 584.17 1299.97 Z M 703.0 1290.0 C 702.07 1290.0 700.52 1289.13 699.56 1288.07 C 698.45 1286.84 698.06 1285.39 698.48 1284.07 C 698.84 1282.94 700.3 1281.71 701.72 1281.36 C 703.14 1281.0 705.03 1281.16 705.9 1281.71 C 706.78 1282.26 707.65 1283.49 707.84 1284.43 C 708.02 1285.38 707.39 1287.02 706.43 1288.07 C 705.47 1289.13 703.93 1290.0 703.0 1290.0 Z M 894.02 1180.0 C 893.01 1180.0 891.01 1178.62 889.59 1176.92 C 888.17 1175.23 887.0 1172.83 887.0 1171.58 C 887.0 1170.33 887.82 1168.57 888.83 1167.65 C 889.83 1166.74 892.01 1166.0 893.67 1166.0 C 895.33 1166.0 897.43 1166.82 898.35 1167.83 C 899.26 1168.83 900.0 1170.8 900.0 1172.19 C 900.0 1173.59 899.07 1175.92 897.93 1177.37 C 896.79 1178.81 895.03 1180.0 894.02 1180.0 Z M 965.0 1180.0 C 964.05 1180.0 962.12 1179.09 960.71 1177.98 C 959.3 1176.88 957.61 1174.35 956.96 1172.38 C 955.98 1169.42 956.03 1168.54 957.25 1167.32 C 958.06 1166.51 960.6 1165.59 962.9 1165.29 C 966.35 1164.82 967.51 1165.13 969.54 1167.04 C 971.18 1168.57 972.0 1170.44 972.0 1172.6 C 972.0 1174.93 971.25 1176.45 969.37 1177.93 C 967.92 1179.07 965.95 1180.0 965.0 1180.0 Z M 876.4 1141.78 C 874.14 1141.99 871.54 1140.58 864.67 1135.4 C 859.81 1131.74 852.98 1125.99 849.48 1122.62 C 845.83 1119.11 842.82 1115.26 842.41 1113.59 C 841.87 1111.38 842.14 1110.37 843.54 1109.34 C 844.55 1108.6 847.14 1108.0 849.3 1108.0 C 851.45 1108.0 855.39 1109.1 858.06 1110.44 C 860.73 1111.78 865.34 1114.66 868.3 1116.85 C 871.25 1119.03 875.52 1122.92 877.77 1125.48 C 880.03 1128.04 882.17 1131.51 882.54 1133.19 C 883.03 1135.42 882.69 1136.94 881.26 1138.87 C 880.08 1140.46 878.15 1141.61 876.4 1141.78 Z M 891.0 1114.95 C 889.08 1114.93 885.87 1114.33 883.89 1113.62 C 881.9 1112.91 878.83 1111.3 877.07 1110.05 C 875.3 1108.79 872.16 1105.62 870.09 1102.99 C 868.01 1100.37 864.9 1095.28 863.16 1091.69 C 861.43 1088.09 858.66 1081.12 857.01 1076.18 C 855.35 1071.24 854.0 1065.84 854.0 1064.17 C 854.0 1062.5 853.62 1060.09 853.15 1058.82 C 852.67 1057.52 852.69 1052.79 853.2 1048.07 C 853.78 1042.75 855.04 1037.68 856.61 1034.36 C 857.98 1031.46 860.77 1027.78 862.8 1026.18 C 864.84 1024.58 867.45 1022.97 868.62 1022.61 C 870.28 1022.09 871.86 1023.04 875.87 1026.97 C 878.69 1029.73 881.0 1032.41 881.0 1032.92 C 881.0 1033.44 881.56 1034.46 882.25 1035.2 C 882.94 1035.94 884.92 1039.45 886.65 1043.02 C 888.38 1046.58 890.36 1051.08 891.06 1053.0 C 891.75 1054.92 892.7 1056.93 893.16 1057.45 C 893.62 1057.97 894.0 1059.41 894.0 1060.64 C 894.0 1061.87 894.36 1063.11 894.8 1063.38 C 895.24 1063.65 896.23 1066.18 897.0 1069.0 C 897.77 1071.82 898.76 1074.35 899.2 1074.62 C 899.64 1074.89 900.0 1076.19 900.0 1077.5 C 900.0 1078.81 900.45 1080.16 901.0 1080.5 C 901.55 1080.84 902.0 1082.13 902.0 1083.36 C 902.0 1084.59 902.37 1086.03 902.83 1086.55 C 903.28 1087.07 904.22 1089.53 904.92 1092.0 C 905.62 1094.47 906.6 1097.28 907.1 1098.24 C 907.59 1099.19 908.0 1101.5 908.0 1103.37 C 908.0 1105.87 907.16 1107.59 904.8 1109.89 C 903.04 1111.61 900.01 1113.46 898.05 1114.0 C 896.1 1114.54 892.92 1114.97 891.0 1114.95 Z M 982.32 1113.92 C 981.32 1113.88 979.83 1113.6 979.0 1113.3 C 978.17 1113.0 976.26 1111.6 974.75 1110.19 C 972.47 1108.06 972.0 1106.78 972.0 1102.71 C 972.0 1098.51 972.45 1097.39 975.11 1094.9 C 977.41 1092.75 979.2 1092.0 982.03 1092.0 C 984.96 1092.0 986.56 1092.72 988.92 1095.08 C 991.49 1097.65 992.0 1098.93 991.98 1102.83 C 991.96 1105.74 991.3 1108.3 990.23 1109.63 C 989.28 1110.81 987.52 1112.27 986.32 1112.88 C 985.11 1113.5 983.31 1113.96 982.32 1113.92 Z M 956.35 1048.99 C 954.78 1048.98 952.39 1048.41 951.03 1047.72 C 949.67 1047.03 947.53 1044.95 946.28 1043.09 C 945.03 1041.23 944.0 1038.26 944.0 1036.5 C 944.0 1034.74 945.02 1031.77 946.26 1029.9 C 947.51 1028.03 950.22 1025.67 952.3 1024.65 C 954.64 1023.5 957.02 1023.04 958.58 1023.43 C 959.97 1023.78 962.68 1025.51 964.61 1027.28 C 967.19 1029.64 968.27 1031.6 968.67 1034.61 C 969.05 1037.38 968.68 1039.88 967.54 1042.28 C 966.53 1044.4 964.5 1046.48 962.52 1047.42 C 960.69 1048.29 957.92 1048.99 956.35 1048.99 Z M 912.0 1027.0 C 910.37 1027.0 907.79 1025.86 905.97 1024.32 C 903.12 1021.92 902.84 1021.22 903.32 1017.63 C 903.67 1015.05 904.69 1012.97 906.18 1011.83 C 907.46 1010.85 909.07 1010.03 909.76 1010.02 C 910.46 1010.01 912.58 1011.46 914.48 1013.25 C 916.38 1015.04 918.2 1017.64 918.52 1019.04 C 918.93 1020.79 918.45 1022.43 916.98 1024.29 C 915.56 1026.1 913.91 1027.0 912.0 1027.0 Z " opacity="0.6" fill="#000000" stroke="none" fill-rule="evenodd"/></svg>