<?xml version="1.0" standalone="no"?>
<!DOCTYPE svg PUBLIC "-//W3C//DTD SVG 20010904//EN"
 "http://www.w3.org/TR/2001/REC-SVG-20010904/DTD/svg10.dtd">
<svg version="1.0" xmlns="http://www.w3.org/2000/svg"
 width="1200.000000pt" height="1600.000000pt" viewBox="0 0 1200.000000 1600.000000"
 preserveAspectRatio="xMidYMid meet">

<g transform="translate(0.000000,1600.000000) scale(0.100000,-0.100000)"
fill="#000000" stroke="none">
<path d="M6020 9310 c-19 -4 -48 -14 -65 -23 -19 -11 -31 -13 -36 -6 -6 10
-22 -10 -140 -181 -28 -41 -84 -109 -124 -150 -41 -41 -88 -91 -105 -111 -17
-20 -43 -42 -58 -48 -39 -17 -154 -180 -226 -321 -24 -47 -61 -116 -81 -155
-45 -87 -111 -253 -170 -430 -48 -142 -99 -407 -110 -568 -3 -45 -7 -102 -10
-127 -2 -25 -7 -101 -10 -170 -9 -194 -15 -304 -20 -320 -2 -8 -7 -44 -10 -80
-4 -36 -8 -67 -10 -70 -2 -3 -6 -26 -10 -50 -3 -25 -10 -56 -14 -70 -5 -14
-14 -52 -21 -85 -13 -68 -90 -303 -121 -374 -65 -145 -164 -315 -228 -391 -34
-40 -35 -43 -69 -92 -44 -64 -111 -131 -238 -238 -115 -98 -238 -168 -459
-264 -155 -67 -249 -114 -328 -163 -37 -24 -69 -43 -71 -43 -2 0 -28 -15 -57
-33 -30 -18 -70 -43 -89 -54 -19 -12 -39 -26 -45 -30 -5 -5 -25 -20 -44 -33
-56 -40 -70 -51 -155 -125 -260 -224 -440 -479 -576 -818 -13 -31 -27 -52 -31
-46 -3 6 -11 -20 -17 -58 -6 -37 -18 -102 -27 -143 -32 -144 -21 -523 20 -660
72 -244 145 -422 197 -482 25 -30 63 -41 90 -26 34 17 49 67 59 191 16 224 48
410 82 492 40 94 160 325 181 348 11 13 27 35 35 50 13 25 107 119 216 217 56
50 223 178 300 230 114 78 314 181 389 201 22 6 75 24 116 39 76 29 261 84
535 160 83 23 176 51 209 62 32 10 65 17 73 14 8 -3 11 -1 8 4 -3 6 2 10 11
10 26 0 224 67 331 111 51 21 134 53 185 71 162 57 356 162 528 287 129 94
302 275 423 444 29 40 63 84 75 97 13 14 52 81 88 150 36 69 72 132 80 141 8
9 41 76 75 150 33 74 64 143 69 154 100 221 206 617 255 950 37 255 42 348 31
610 -6 144 -29 273 -90 505 -62 234 -106 349 -232 604 -46 93 -91 196 -99 230
-9 33 -22 70 -29 81 -7 11 -25 56 -39 100 -14 44 -33 97 -42 118 -22 52 -88
122 -160 170 -49 32 -55 38 -30 33 24 -5 27 -4 12 4 -9 6 -26 9 -36 5 -11 -3
-22 -2 -25 3 -6 11 -69 12 -116 2z m99 -25 c18 -4 29 -10 23 -14 -6 -4 11 -14
37 -24 65 -23 150 -115 181 -195 12 -31 28 -72 36 -90 8 -18 14 -39 14 -47 0
-22 31 -95 39 -91 3 2 7 -11 8 -29 1 -19 8 -49 16 -67 9 -18 27 -64 42 -103
14 -38 30 -79 35 -90 54 -119 152 -370 196 -503 32 -97 56 -204 83 -357 33
-198 50 -493 29 -507 -9 -5 -9 -8 -2 -8 29 0 -47 -467 -127 -785 -41 -161
-149 -470 -149 -426 0 16 -13 7 -16 -12 -5 -27 -37 -112 -51 -134 -9 -13 -12
-23 -9 -23 4 0 -1 -11 -10 -25 -9 -14 -13 -25 -9 -25 5 0 0 -9 -9 -19 -10 -11
-15 -24 -12 -30 4 -5 0 -13 -7 -18 -8 -4 -26 -33 -41 -63 -29 -60 -29 -61
-100 -175 -28 -44 -54 -81 -58 -83 -4 -2 -8 -8 -8 -14 0 -9 -51 -86 -81 -122
-5 -6 -26 -33 -46 -61 -73 -98 -229 -258 -321 -329 -92 -71 -247 -176 -259
-176 -6 0 -13 -3 -15 -8 -3 -9 -181 -85 -333 -144 -55 -21 -109 -42 -120 -47
-140 -61 -146 -63 -435 -141 -58 -16 -143 -40 -190 -53 -121 -35 -343 -97
-368 -102 -96 -21 -337 -97 -386 -122 -79 -40 -310 -178 -421 -252 -99 -65
-279 -234 -371 -346 -46 -58 -124 -170 -124 -181 0 -4 -6 -15 -14 -23 -20 -22
-86 -153 -86 -171 0 -8 -7 -23 -15 -33 -7 -11 -11 -25 -8 -33 3 -8 0 -14 -6
-14 -10 0 -18 -24 -40 -120 -13 -56 -47 -311 -57 -435 -2 -27 -10 -52 -16 -56
-20 -13 -61 41 -114 151 -124 254 -145 355 -139 690 4 245 6 273 31 355 27 86
99 260 114 275 3 3 15 27 28 54 81 172 249 371 496 590 179 158 339 267 523
357 374 181 474 232 553 283 47 30 90 58 95 63 6 5 22 17 36 28 14 11 54 45
88 75 35 30 67 55 71 55 5 0 12 4 17 9 5 5 2 6 -7 1 -8 -4 -1 6 15 23 17 16
34 27 39 24 5 -3 6 0 3 5 -4 6 17 36 46 66 68 73 71 77 85 115 6 18 26 54 43
80 43 64 130 229 174 332 20 47 42 99 50 115 33 77 82 259 92 340 2 22 9 56
14 75 5 19 9 49 9 67 0 17 4 33 9 35 4 2 11 75 14 163 4 88 13 232 22 320 9
97 11 163 5 169 -5 5 -7 21 -5 35 3 14 14 87 26 161 33 210 113 500 173 630
14 30 26 61 26 69 0 14 125 273 152 316 80 127 124 191 158 230 22 25 40 50
40 54 0 10 194 211 203 211 3 0 1 -15 -4 -32 -5 -18 -9 -35 -9 -37 0 -3 14 17
31 45 81 128 123 189 131 192 4 2 8 10 8 17 0 19 79 94 106 101 13 3 24 10 24
15 0 5 6 6 14 3 8 -3 17 0 21 6 4 6 14 9 23 6 10 -2 32 -8 51 -11z"/>
<path d="M5590 8190 c0 -19 65 -180 72 -180 12 0 9 22 -7 54 -20 37 -19 48 6
80 11 14 16 26 10 26 -6 0 -16 -10 -22 -22 -11 -21 -12 -21 -25 -3 -8 10 -14
27 -14 37 0 10 -4 18 -10 18 -5 0 -10 -4 -10 -10z"/>
<path d="M6471 8174 c0 -11 3 -14 6 -6 3 7 2 16 -1 19 -3 4 -6 -2 -5 -13z"/>
<path d="M5565 8140 c3 -11 9 -32 11 -47 3 -16 13 -42 23 -58 10 -17 21 -43
25 -59 4 -16 10 -26 13 -22 3 3 12 1 20 -5 9 -8 13 -8 13 0 0 11 -45 116 -61
141 -5 8 -15 27 -22 43 -13 31 -32 37 -22 7z"/>
<path d="M6457 8133 c-7 -11 -21 -159 -14 -153 7 7 29 152 23 157 -2 2 -6 1
-9 -4z"/>
<path d="M6492 8068 c-1 -18 -3 -48 -5 -67 -3 -46 18 -51 33 -7 9 27 8 41 -4
70 -8 20 -17 36 -18 36 -2 0 -5 -15 -6 -32z m15 -60 c-3 -8 -6 -5 -6 6 -1 11
2 17 5 13 3 -3 4 -12 1 -19z"/>
<path d="M5557 8018 c-5 -34 2 -53 10 -30 4 10 9 8 19 -5 7 -10 14 -22 14 -27
0 -6 -7 -1 -15 10 -11 15 -14 16 -15 4 0 -9 3 -20 8 -26 4 -5 -1 -1 -11 10
-16 17 -20 18 -28 5 -5 -7 -9 -18 -9 -24 0 -5 4 -4 9 3 6 10 12 7 24 -12 10
-14 17 -30 17 -36 0 -5 5 -10 11 -10 6 0 9 9 6 19 -3 13 0 18 8 15 24 -10 24
26 -1 81 -14 30 -29 55 -34 55 -4 0 -10 -15 -13 -32z"/>
<path d="M6526 7968 c-14 -67 -17 -102 -8 -93 10 11 26 115 18 115 -3 0 -8
-10 -10 -22z"/>
<path d="M5520 7916 c0 -10 39 -76 46 -76 2 0 4 6 4 13 0 14 -49 77 -50 63z"/>
<path d="M5510 7882 c0 -7 4 -21 10 -31 6 -13 5 -24 -5 -37 -8 -11 -14 -28
-14 -39 0 -18 1 -18 7 -3 6 16 16 12 76 -28 71 -46 241 -135 254 -132 4 0 14
-1 22 -4 108 -41 292 -57 415 -37 53 8 130 19 179 24 16 2 38 8 50 13 12 6 29
13 39 16 19 6 24 26 5 22 -7 -2 -24 -8 -38 -13 -124 -51 -446 -64 -595 -24
-116 31 -178 57 -290 124 -120 71 -113 66 -95 77 8 6 11 10 5 10 -5 0 -5 4 2
8 9 6 7 15 -7 37 -11 17 -20 24 -20 17z"/>
<path d="M6530 7828 c0 -38 3 -49 10 -38 13 20 13 90 0 90 -5 0 -10 -24 -10
-52z"/>
<path d="M6541 7709 c-17 -49 -12 -58 9 -19 22 40 24 50 11 50 -5 0 -14 -14
-20 -31z"/>
<path d="M5440 7530 c0 -24 177 -113 297 -149 235 -70 513 -81 703 -28 79 22
159 59 138 64 -9 2 -31 -3 -48 -12 -33 -17 -116 -42 -180 -53 -61 -12 -372 -8
-430 5 -241 54 -257 58 -273 71 -7 5 -27 13 -44 17 -18 3 -33 11 -33 16 0 5
-6 9 -13 9 -7 0 -36 16 -65 35 -28 20 -52 31 -52 25z"/>
<path d="M5371 7404 c0 -11 3 -14 6 -6 3 7 2 16 -1 19 -3 4 -6 -2 -5 -13z"/>
<path d="M5352 7355 c-21 -46 -42 -162 -41 -223 1 -31 3 -46 5 -32 2 14 9 59
15 100 6 41 18 94 26 118 17 50 13 77 -5 37z"/>
<path d="M5380 7262 c0 -20 188 -122 226 -122 8 0 14 -4 14 -8 0 -4 28 -13 63
-20 34 -6 94 -19 132 -27 139 -31 396 -46 519 -30 98 13 296 72 296 87 0 6 -8
7 -17 4 -33 -13 -168 -48 -233 -61 -80 -16 -400 -13 -480 4 -30 7 -77 16 -105
21 -83 15 -149 29 -170 39 -11 4 -37 16 -58 25 -21 9 -43 16 -50 16 -7 0 -28
11 -47 23 -76 51 -90 59 -90 49z"/>
<path d="M5330 6982 c0 -32 182 -115 345 -157 222 -57 283 -64 490 -60 172 4
188 6 310 41 90 26 135 48 122 60 -4 4 -12 2 -20 -4 -17 -15 -174 -57 -262
-71 -154 -24 -449 -2 -625 48 -186 52 -264 84 -337 137 -13 9 -23 12 -23 6z"/>
<path d="M5320 6750 c0 -7 -6 -10 -13 -7 -18 7 -16 -37 4 -59 12 -15 50 -188
49 -227 0 -5 -14 3 -31 18 -17 14 -34 23 -38 20 -3 -4 1 -12 10 -18 46 -35 66
-54 77 -72 6 -11 12 -15 12 -8 0 7 32 -7 73 -30 88 -51 194 -97 305 -131 89
-28 111 -32 242 -45 81 -8 103 -8 210 4 95 10 250 64 250 86 0 12 -17 11 -25
-1 -6 -10 -133 -51 -172 -56 -13 -1 -40 -5 -60 -9 -222 -37 -506 31 -772 185
-52 29 -57 38 -75 130 -24 127 -25 125 32 96 122 -64 295 -117 482 -148 95
-15 358 -15 475 1 92 12 195 53 203 79 3 10 -4 10 -28 -3 -131 -68 -377 -86
-670 -49 -89 11 -286 65 -350 95 -82 39 -170 106 -170 130 0 10 -4 21 -10 24
-5 3 -10 1 -10 -5z m0 -40 c0 -5 -2 -10 -4 -10 -3 0 -8 5 -11 10 -3 6 -1 10 4
10 6 0 11 -4 11 -10z m41 -37 c13 -16 12 -17 -3 -4 -10 7 -18 15 -18 17 0 8 8
3 21 -13z"/>
<path d="M5351 6204 c17 -21 110 -80 160 -102 21 -9 39 -20 39 -24 0 -5 5 -8
10 -8 10 0 88 -33 124 -52 24 -13 121 -39 165 -44 19 -3 41 -8 50 -13 9 -4 38
-9 65 -10 27 -1 52 -3 55 -3 3 -1 40 2 81 6 111 11 260 66 274 102 3 9 -19 2
-62 -20 -93 -47 -181 -65 -299 -61 -201 6 -418 80 -606 205 -65 44 -77 49 -56
24z"/>
<path d="M5470 5897 c18 -17 119 -58 210 -86 128 -39 306 -49 440 -25 50 9
128 45 135 62 4 12 3 12 -9 3 -7 -6 -54 -23 -102 -37 -81 -24 -99 -26 -209
-21 -161 8 -326 47 -431 102 -36 19 -53 19 -34 2z"/>
<path d="M6081 5720 c-24 -17 -50 -30 -57 -30 -7 0 -14 -4 -16 -10 -4 -13 -98
-30 -169 -30 -55 0 -190 30 -234 52 -18 9 -18 9 -5 -4 8 -8 44 -26 80 -39 53
-20 84 -24 166 -24 56 0 112 5 125 11 13 7 42 19 65 29 36 15 94 58 94 70 0 8
-2 6 -49 -25z"/>
<path d="M5675 5570 c3 -5 10 -10 16 -10 5 0 9 5 9 10 0 6 -7 10 -16 10 -8 0
-12 -4 -9 -10z"/>
<path d="M2522 3848 c-11 -18 -27 -51 -37 -73 -9 -22 -21 -49 -26 -60 -13 -30
-27 -103 -21 -110 9 -9 62 -6 82 5 10 5 21 24 25 42 4 18 20 57 36 86 33 59
31 88 -7 121 -13 12 -26 21 -28 21 -3 0 -13 -15 -24 -32z m58 -17 c15 -29 12
-48 -9 -79 -11 -15 -27 -50 -36 -79 -11 -35 -23 -53 -37 -56 -59 -16 -56 15
18 181 25 54 46 65 64 33z"/>
<path d="M2526 3805 c-3 -9 -6 -22 -5 -28 0 -7 5 -1 10 12 5 13 8 26 5 28 -2
2 -6 -3 -10 -12z"/>
<path d="M2551 3581 c-24 -33 -40 -111 -22 -111 6 0 11 11 11 24 0 13 7 41 16
62 l16 39 12 -35 c13 -38 9 -53 -24 -87 -29 -32 -12 -29 22 4 28 27 36 57 18
68 -5 3 -10 19 -10 36 0 37 -13 37 -39 0z"/>
<path d="M2442 3503 c-7 -3 -17 -14 -23 -26 -9 -20 -9 -20 4 -4 29 35 36 20
33 -65 -2 -51 -9 -94 -18 -111 l-16 -28 -11 32 c-6 18 -11 45 -11 61 0 19 -4
27 -11 22 -18 -11 11 -134 32 -134 5 0 19 21 31 48 35 71 27 218 -10 205z"/>
</g>
</svg>
