<?xml version="1.0" standalone="no"?>
<!DOCTYPE svg PUBLIC "-//W3C//DTD SVG 20010904//EN"
 "http://www.w3.org/TR/2001/REC-SVG-20010904/DTD/svg10.dtd">
<svg version="1.0" xmlns="http://www.w3.org/2000/svg"
 width="1200.000000pt" height="1600.000000pt" viewBox="0 0 1200.000000 1600.000000"
 preserveAspectRatio="xMidYMid meet">

<g transform="translate(0.000000,1600.000000) scale(0.100000,-0.100000)"
fill="#000000" stroke="none">
<path d="M6009 9290 c-86 -15 -155 -66 -220 -160 -13 -19 -47 -60 -75 -91 -29
-31 -55 -70 -59 -87 -5 -22 -22 -42 -59 -69 -71 -51 -169 -162 -200 -226 -14
-29 -46 -83 -71 -122 -78 -123 -200 -390 -259 -570 -9 -27 -19 -57 -23 -65 -6
-14 -9 -24 -16 -52 -2 -7 -9 -31 -15 -53 -17 -59 -59 -262 -67 -325 -4 -30 -9
-64 -11 -75 -2 -11 -6 -72 -9 -135 -3 -63 -7 -131 -10 -150 -3 -19 -10 -127
-15 -240 -10 -190 -20 -268 -66 -490 -21 -100 -63 -249 -80 -280 -7 -14 -25
-54 -39 -90 -29 -71 -63 -146 -77 -170 -4 -8 -17 -33 -28 -55 -22 -43 -30 -56
-74 -125 -16 -25 -42 -67 -56 -95 -15 -27 -44 -68 -66 -91 -21 -22 -56 -58
-76 -80 -82 -88 -268 -246 -268 -228 0 5 -6 2 -13 -6 -7 -8 -21 -21 -32 -27
-49 -31 -291 -152 -395 -199 -63 -28 -144 -67 -180 -86 -36 -19 -89 -47 -117
-63 -29 -15 -53 -32 -53 -36 0 -5 -4 -9 -9 -9 -14 0 -121 -73 -163 -111 -44
-40 -44 -40 -128 -104 -36 -27 -131 -115 -211 -195 -118 -118 -162 -171 -232
-277 -48 -72 -95 -151 -106 -177 -11 -25 -24 -46 -29 -46 -4 0 -8 -10 -9 -21
-1 -12 -9 -29 -17 -38 -9 -10 -13 -20 -10 -24 4 -3 -6 -27 -20 -52 -15 -25
-23 -45 -19 -45 4 0 2 -4 -4 -8 -7 -5 -15 -22 -16 -39 -2 -16 -8 -36 -12 -43
-4 -6 -9 -29 -12 -49 -2 -20 -8 -45 -13 -56 -15 -34 -20 -133 -7 -138 9 -3 8
-10 -2 -30 -11 -20 -12 -54 -7 -157 4 -72 9 -137 11 -143 3 -10 12 -86 20
-167 1 -14 4 -27 5 -30 1 -3 2 -9 1 -14 -1 -4 3 -14 9 -21 6 -7 8 -20 4 -29
-3 -9 -1 -16 5 -16 7 0 11 -6 10 -12 -1 -7 2 -24 8 -38 6 -14 19 -45 29 -70
29 -74 92 -184 126 -224 30 -34 36 -37 60 -27 31 12 55 75 37 97 -7 8 -6 13 2
16 8 3 12 24 11 59 -3 103 51 409 77 444 5 6 11 23 15 39 4 17 14 46 22 65 8
20 16 38 16 41 4 17 70 126 114 190 127 180 259 323 381 411 46 33 83 65 83
71 0 6 3 8 6 5 7 -7 37 9 207 111 59 36 107 68 107 73 0 5 9 9 19 9 11 0 27 7
35 16 9 8 16 12 16 7 0 -4 6 -1 13 7 7 8 19 16 27 16 8 1 78 20 155 43 272 81
328 97 360 102 6 0 26 7 45 15 19 7 49 15 65 18 17 2 31 5 33 6 1 2 5 3 10 4
28 6 111 29 127 37 11 5 35 11 54 14 19 3 41 9 50 14 9 5 58 18 109 31 51 12
95 26 98 31 3 5 10 7 15 4 5 -4 15 -3 22 2 6 4 23 9 37 11 14 1 67 23 118 47
50 25 98 45 105 45 7 0 38 12 68 26 61 30 123 53 157 60 13 3 37 14 52 26 16
11 41 22 56 24 15 1 31 10 36 18 5 9 20 16 34 16 14 0 36 11 49 25 14 13 25
22 25 20 0 -3 8 2 18 10 21 17 113 85 143 105 65 44 374 350 353 350 -3 0 33
44 64 77 12 13 22 26 22 28 0 11 64 105 71 105 5 0 8 3 7 8 -4 11 52 102 63
102 4 0 6 6 3 14 -3 8 3 20 14 27 11 7 18 18 15 25 -2 7 5 18 17 24 20 11 122
208 170 330 11 29 29 64 40 77 10 13 22 38 25 54 4 17 13 42 21 57 8 15 14 34
14 43 0 9 7 29 14 45 8 16 18 45 21 64 6 38 24 99 34 115 3 6 6 12 7 15 9 52
18 88 24 100 4 8 11 37 14 64 4 27 9 53 11 57 6 8 33 138 41 189 3 19 8 49 11
65 3 17 5 40 4 52 0 12 4 25 9 28 6 4 8 10 6 14 -3 4 -1 32 4 62 20 112 26
301 14 429 -4 41 -8 94 -9 116 -1 23 -5 46 -9 52 -4 6 -6 28 -5 49 2 71 -61
357 -111 498 -37 106 -98 264 -107 279 -4 6 -8 16 -9 21 -1 6 -17 44 -36 85
-19 41 -43 94 -53 118 -11 23 -23 42 -27 42 -5 0 -6 15 -3 33 6 33 -2 51 -83
187 -11 19 -44 94 -72 165 -57 143 -74 166 -162 221 -65 40 -112 48 -189 34z"/>
</g>
</svg>
