<svg version="1.0" xmlns="http://www.w3.org/2000/svg"
 width="1200.000000pt" height="1600.000000pt" viewBox="0 0 1200.000000 1600.000000"
 preserveAspectRatio="xMidYMid meet">

<g transform="translate(0.000000,1600.000000) scale(0.100000,-0.100000)"
fill="#000000" stroke="none">
<path d="M5920 14003 c-14 -2 -45 -8 -70 -14 -25 -6 -52 -12 -60 -14 -50 -10
-155 -63 -214 -107 -114 -85 -236 -252 -280 -383 -10 -27 -20 -53 -24 -59 -3
-6 -8 -15 -9 -21 -18 -70 -25 -114 -30 -190 -5 -77 -14 -114 -63 -250 -78
-213 -108 -291 -120 -312 -47 -84 -205 -453 -269 -628 -26 -72 -99 -290 -151
-449 -28 -88 -94 -326 -130 -476 -15 -63 -39 -160 -54 -214 -32 -123 -82 -423
-96 -576 -12 -143 -13 -487 0 -640 5 -63 10 -134 11 -157 5 -75 16 -35 18 59
3 194 62 653 92 710 4 9 6 25 4 37 -4 22 19 48 30 32 3 -6 7 -142 9 -303 3
-282 23 -541 46 -593 4 -11 21 -74 36 -140 14 -66 35 -158 46 -205 25 -110 36
-444 19 -575 -19 -144 -41 -227 -70 -257 -19 -22 -21 -28 -8 -28 8 0 19 5 22
10 4 6 22 17 42 25 57 24 194 169 230 245 37 77 70 172 79 229 7 46 27 70 40
49 5 -7 18 -51 30 -98 33 -130 79 -279 103 -334 12 -27 23 -56 24 -65 1 -9 6
-22 11 -30 5 -7 8 -59 7 -115 -2 -112 -5 -142 -16 -169 -4 -10 -5 -21 -1 -24
3 -3 1 -12 -5 -20 -6 -7 -8 -13 -4 -13 4 0 2 -6 -4 -14 -6 -8 -11 -18 -9 -22
1 -5 -4 -19 -11 -32 -7 -13 -10 -30 -7 -37 2 -7 2 -16 -2 -20 -4 -4 -8 -11 -8
-16 -1 -5 -3 -11 -4 -14 -1 -3 -3 -8 -4 -12 -1 -5 -10 -23 -19 -41 -10 -18
-16 -36 -13 -41 3 -4 -6 -23 -19 -41 -20 -27 -22 -36 -12 -49 8 -10 9 -13 0
-8 -6 4 -14 4 -17 -1 -2 -4 6 -9 19 -10 13 -1 26 5 29 14 3 9 13 14 21 10 8
-3 17 -1 21 5 3 6 12 8 20 5 7 -3 16 -1 19 5 4 5 10 7 15 4 5 -3 11 -1 15 5 4
6 11 8 16 4 13 -7 80 15 101 34 10 8 31 15 48 14 16 0 30 3 30 8 0 10 68 51
92 55 24 5 61 26 73 42 6 8 17 15 26 16 22 4 113 58 122 74 5 7 12 11 17 8 4
-3 11 2 14 11 3 8 10 13 16 9 5 -3 20 5 32 17 13 13 25 23 28 23 14 0 79 48
84 62 4 9 9 13 12 10 4 -3 15 4 25 16 10 12 18 19 19 15 0 -3 12 3 26 15 75
62 113 100 111 110 -1 6 5 12 13 12 8 0 14 7 12 14 -1 7 2 10 7 7 10 -6 34 18
26 26 -7 6 55 68 67 68 5 0 7 4 4 9 -3 5 10 23 29 40 20 17 33 31 30 31 -3 0
14 27 39 59 25 33 46 64 46 69 0 5 7 15 15 22 18 15 65 98 71 125 2 11 11 25
19 31 9 7 15 16 14 20 -1 5 0 12 1 17 3 8 3 10 14 57 12 52 57 164 71 175 6 6
17 19 24 30 12 19 12 19 6 -2 -3 -12 -1 -24 5 -28 6 -3 7 -12 3 -18 -11 -17
-12 -277 -1 -283 5 -3 6 -20 2 -39 -3 -19 -1 -35 5 -39 6 -4 8 -18 5 -31 -3
-12 -1 -26 5 -30 6 -3 9 -11 5 -16 -3 -5 -1 -15 4 -22 5 -7 8 -21 6 -32 -1
-10 2 -25 7 -32 6 -7 8 -17 5 -22 -4 -5 -2 -13 4 -16 6 -4 8 -15 5 -25 -3 -10
-1 -21 5 -25 6 -3 8 -11 4 -16 -3 -5 0 -16 6 -24 7 -8 9 -15 5 -15 -4 0 -2 -6
4 -13 6 -8 8 -17 4 -20 -3 -4 0 -13 7 -22 7 -8 9 -15 5 -15 -4 0 -2 -7 5 -15
7 -8 9 -15 5 -15 -4 0 -2 -6 4 -13 6 -8 8 -17 4 -20 -3 -4 0 -13 7 -22 7 -8
10 -15 6 -15 -4 0 0 -10 9 -23 8 -13 12 -27 8 -30 -3 -4 1 -15 9 -24 23 -26
48 -80 41 -86 -7 -8 79 -115 109 -135 29 -21 50 4 52 62 1 25 5 49 9 52 4 4 4
18 1 30 -4 15 -2 24 6 24 6 0 9 4 5 9 -3 5 0 13 6 17 7 4 9 21 5 46 -5 28 -3
37 5 32 8 -4 9 0 4 15 -7 23 11 91 24 91 13 0 34 87 26 101 -6 8 -4 10 4 5 8
-5 11 -3 10 5 -4 20 11 59 22 59 5 0 9 6 8 13 -3 27 2 48 10 43 5 -4 13 8 16
26 4 18 10 35 14 38 17 14 69 139 59 142 -7 3 -2 18 14 41 13 20 28 34 31 31
10 -10 46 57 42 77 -2 10 1 18 8 16 6 -1 11 5 12 14 0 15 45 84 145 223 25 34
53 77 64 96 85 158 107 203 102 208 -3 3 -1 11 5 19 6 7 8 13 4 13 -4 0 -2 7
5 15 7 8 13 32 15 52 2 21 15 92 29 158 14 66 29 164 32 218 7 96 20 131 41
105 14 -17 41 -189 50 -318 17 -233 2 -561 -33 -707 -4 -15 -4 -26 -1 -23 9 9
84 312 101 410 53 315 51 656 -8 990 -3 19 -8 53 -11 75 -66 474 -146 842
-251 1165 -15 47 -29 92 -30 100 -2 8 -17 49 -35 90 -17 41 -37 93 -44 115
-50 152 -114 322 -198 525 -32 76 -127 284 -152 331 -17 31 -93 232 -145 384
-30 89 -39 129 -43 210 -6 109 -30 191 -95 320 -51 102 -86 150 -176 240 -98
97 -186 146 -322 181 -82 20 -118 24 -238 23 -77 -1 -152 -3 -166 -6z"/>
</g>
</svg>
