<svg width="2400" height="3200" xmlns="http://www.w3.org/2000/svg" viewBox="0 0 2400 3200"><path d="M 1216.0 706.58 C 1211.88 706.79 1206.03 706.39 1203.0 705.68 C 1199.97 704.98 1195.55 703.17 1193.17 701.64 C 1190.59 699.99 1188.27 697.51 1187.42 695.47 C 1186.64 693.6 1186.0 690.48 1186.0 688.54 C 1186.0 686.61 1186.85 682.78 1187.9 680.03 C 1188.94 677.29 1192.4 672.08 1195.58 668.45 C 1198.77 664.82 1203.0 661.02 1204.99 660.01 C 1206.97 659.0 1210.19 657.87 1212.14 657.5 C 1214.09 657.14 1217.47 657.32 1219.67 657.91 C 1221.86 658.5 1225.79 660.65 1228.42 662.7 C 1231.04 664.74 1234.92 668.83 1237.04 671.8 C 1239.3 674.96 1241.39 679.37 1242.08 682.47 C 1242.73 685.39 1242.96 689.38 1242.59 691.35 C 1242.22 693.33 1240.81 696.26 1239.46 697.86 C 1238.04 699.55 1234.14 701.94 1230.25 703.5 C 1225.63 705.35 1221.13 706.33 1216.0 706.58 Z " opacity="0.10196078431372549" fill="#000000" stroke="none" fill-rule="evenodd"/><path d="M 1199.69 703.99 C 1196.2 703.98 1194.79 703.31 1191.25 700.03 C 1188.91 697.86 1187.0 695.87 1187.0 695.61 C 1187.0 695.34 1187.44 693.98 1187.98 692.57 C 1188.51 691.15 1189.3 690.0 1189.73 690.01 C 1190.15 690.01 1192.75 692.06 1195.5 694.55 C 1198.25 697.05 1201.51 699.79 1202.74 700.65 C 1203.97 701.51 1204.74 702.62 1204.43 703.11 C 1204.13 703.6 1202.0 703.99 1199.69 703.99 Z M 1230.81 704.0 C 1228.78 704.0 1226.91 703.66 1226.65 703.24 C 1226.39 702.82 1227.97 700.91 1230.17 698.99 C 1232.37 697.07 1235.58 694.25 1237.3 692.72 C 1239.02 691.19 1241.12 690.07 1241.96 690.23 C 1242.81 690.39 1243.51 691.42 1243.52 692.51 C 1243.54 693.61 1242.95 695.76 1242.23 697.29 C 1241.5 698.83 1239.46 700.97 1237.7 702.04 C 1235.94 703.11 1232.84 703.99 1230.81 704.0 Z M 1233.25 679.99 C 1232.84 679.98 1231.55 679.41 1230.39 678.74 C 1229.22 678.06 1226.37 676.46 1224.04 675.18 C 1221.71 673.9 1217.71 672.69 1215.15 672.47 C 1212.59 672.25 1208.92 672.57 1207.0 673.16 C 1205.08 673.76 1202.72 674.64 1201.76 675.12 C 1200.81 675.61 1199.01 675.99 1197.76 675.97 L 1195.5 675.93 C 1198.73 673.23 1202.9 671.37 1206.85 670.05 C 1213.89 667.7 1214.15 667.68 1219.39 669.33 C 1222.33 670.26 1226.82 672.61 1229.37 674.56 C 1231.92 676.5 1234.0 678.52 1234.0 679.05 C 1234.0 679.57 1233.66 679.99 1233.25 679.99 Z M 1226.7 668.0 C 1225.99 668.0 1224.97 667.61 1224.45 667.13 C 1223.93 666.65 1221.38 665.47 1218.78 664.51 C 1214.33 662.85 1213.76 662.85 1208.92 664.43 C 1206.09 665.36 1203.52 665.86 1203.21 665.55 C 1202.9 665.23 1203.51 664.32 1204.57 663.52 C 1205.63 662.72 1207.26 662.05 1208.19 662.03 C 1209.12 662.01 1210.16 661.55 1210.5 661.0 C 1210.84 660.45 1213.53 660.0 1216.48 660.0 C 1221.14 660.0 1222.25 660.41 1224.92 663.08 C 1226.62 664.77 1228.0 666.57 1228.0 667.08 C 1228.0 667.58 1227.41 668.0 1226.7 668.0 Z " opacity="1.0" fill="#000000" stroke="none" fill-rule="evenodd"/></svg>