<?xml version="1.0" standalone="no"?>
<!DOCTYPE svg PUBLIC "-//W3C//DTD SVG 20010904//EN"
 "http://www.w3.org/TR/2001/REC-SVG-20010904/DTD/svg10.dtd">
<svg version="1.0" xmlns="http://www.w3.org/2000/svg"
 width="1200.000000pt" height="1600.000000pt" viewBox="0 0 1200.000000 1600.000000"
 preserveAspectRatio="xMidYMid meet">

<g transform="translate(0.000000,1600.000000) scale(0.100000,-0.100000)"
fill="#000000" stroke="none">
<path d="M5325 11512 c-44 -4 -145 -32 -180 -50 -86 -44 -152 -123 -184 -221
-12 -36 -37 -94 -58 -130 -37 -67 -139 -262 -198 -381 -18 -36 -52 -110 -75
-165 -23 -54 -77 -169 -121 -255 -87 -173 -104 -225 -92 -285 10 -43 26 -50
31 -13 3 22 30 98 89 248 83 214 343 728 414 819 17 21 19 22 20 5 0 -15 2
-14 11 6 5 14 10 48 9 76 -1 37 6 65 29 110 53 107 165 174 299 179 79 2 125
17 118 38 -4 13 -65 24 -112 19z"/>
<path d="M6753 11512 c-24 -2 -33 -8 -33 -22 0 -24 25 -31 119 -35 173 -6 322
-134 322 -278 1 -59 18 -115 29 -96 6 8 12 4 23 -12 39 -61 127 -210 127 -215
0 -3 14 -25 31 -50 80 -117 277 -568 323 -742 15 -57 25 -80 29 -68 4 10 4 22
1 27 -3 6 -2 15 3 22 29 37 3 124 -99 337 -92 190 -207 420 -218 435 -4 6 -28
48 -52 95 -25 47 -67 125 -93 173 -26 49 -60 121 -75 161 -35 94 -96 175 -158
209 -74 40 -202 67 -279 59z"/>
<path d="M6850 10753 c-13 -37 -26 -72 -30 -78 -5 -5 -3 -44 4 -85 16 -99 67
-196 241 -463 44 -67 82 -124 85 -127 3 -3 18 -25 35 -50 37 -57 134 -170 145
-170 5 0 5 12 1 28 -8 25 -22 49 -103 163 -189 266 -243 347 -284 424 -26 50
-55 106 -66 125 -21 40 -25 188 -7 253 18 67 2 51 -21 -20z"/>
<path d="M5277 10785 c4 -16 8 -78 8 -136 l0 -106 -63 -124 c-73 -142 -121
-217 -242 -379 -109 -146 -184 -270 -162 -270 36 1 385 495 443 628 11 23 28
61 38 85 10 24 22 73 26 109 6 55 3 78 -15 135 -23 69 -49 115 -33 58z"/>
</g>
</svg>
