<svg version="1.0" xmlns="http://www.w3.org/2000/svg"
 width="1200.000000pt" height="1600.000000pt" viewBox="0 0 1200.000000 1600.000000"
 preserveAspectRatio="xMidYMid meet">

<g transform="translate(0.000000,1600.000000) scale(0.100000,-0.100000)"
fill="#000000" stroke="none">
<path d="M5885 9629 c-60 -5 -133 -6 -161 -3 -73 7 -188 -31 -251 -84 -26 -23
-59 -50 -73 -61 -14 -10 -22 -23 -18 -27 4 -4 14 -1 23 6 36 30 20 -1 -33 -62
-92 -106 -301 -475 -302 -533 0 -11 -9 -45 -20 -75 -44 -118 -58 -167 -65
-229 -10 -90 -20 -119 -48 -141 -44 -35 -99 -140 -107 -205 -4 -34 -19 -83
-33 -111 -59 -117 -164 -416 -202 -579 -9 -38 -23 -83 -30 -100 -13 -31 -40
-149 -50 -220 -3 -22 -12 -69 -20 -105 -35 -163 -47 -249 -80 -610 -17 -182
-23 -373 -19 -635 2 -159 7 -305 10 -322 5 -26 3 -33 -10 -33 -9 0 -16 5 -16
12 0 6 -3 9 -6 6 -3 -4 4 -44 16 -90 17 -63 29 -90 52 -111 l31 -29 71 71 c39
39 75 71 79 71 14 0 7 -28 -14 -54 -11 -14 -17 -26 -12 -26 16 0 89 53 141
103 40 40 59 51 85 52 30 0 33 3 44 49 19 77 26 68 19 -24 -5 -57 -4 -80 3
-70 8 12 13 12 38 0 15 -8 49 -36 75 -61 l48 -45 0 40 c0 62 14 74 34 32 9
-20 21 -36 25 -36 21 0 46 -87 45 -154 l-1 -70 17 34 c11 22 40 48 76 70 68
41 75 54 105 175 12 50 47 160 79 245 158 420 321 881 361 1015 47 159 87 345
120 555 42 270 52 303 113 368 l50 53 48 -48 c40 -40 53 -62 73 -126 14 -43
25 -89 25 -103 0 -26 49 -314 55 -324 2 -3 6 -26 10 -50 18 -125 87 -371 154
-550 18 -47 39 -107 47 -133 8 -27 47 -135 85 -240 39 -106 79 -219 91 -252
11 -33 41 -114 68 -180 26 -66 50 -141 54 -166 4 -25 17 -79 29 -120 22 -72
24 -75 87 -117 36 -23 72 -56 80 -73 l16 -30 0 68 c-1 66 25 153 45 153 4 0
16 16 25 36 15 32 19 34 25 18 4 -10 8 -35 8 -55 l1 -35 48 45 c26 25 60 53
75 61 25 12 30 12 38 0 7 -10 8 13 5 70 l-6 85 18 -55 c17 -51 20 -55 49 -55
24 -1 46 -15 95 -60 60 -56 136 -109 126 -89 -2 5 -10 21 -17 37 -27 52 0 41
73 -32 l73 -72 31 26 c18 15 32 34 32 42 0 8 10 46 21 84 12 39 19 73 15 76
-3 4 -6 1 -6 -5 0 -7 -7 -12 -15 -12 -12 0 -13 5 -4 28 6 15 9 76 7 139 -1 61
0 114 2 117 10 9 -3 575 -15 634 -1 9 -6 61 -9 114 -4 53 -9 107 -11 120 -2
13 -6 48 -9 78 -12 127 -50 366 -76 485 -5 22 -17 76 -26 120 -9 44 -21 85
-25 90 -4 6 -19 57 -34 115 -26 101 -72 246 -115 360 -12 30 -27 71 -35 91 -7
19 -27 63 -44 97 -17 34 -35 88 -39 121 -9 63 -74 187 -113 215 -17 11 -24 34
-35 118 -9 61 -28 139 -48 194 -19 49 -38 108 -42 130 -3 21 -22 71 -41 109
-54 112 -215 374 -253 414 -19 20 -44 47 -55 60 l-20 24 23 -12 c36 -19 41 -2
7 26 -103 85 -130 103 -183 119 -35 11 -96 18 -162 19 -58 1 -172 4 -255 7
-82 4 -199 2 -260 -3z"/>
</g>
</svg>
