<svg version="1.0" xmlns="http://www.w3.org/2000/svg"
 width="1200.000000pt" height="1600.000000pt" viewBox="0 0 1200.000000 1600.000000"
 preserveAspectRatio="xMidYMid meet">

<g transform="translate(0.000000,1600.000000) scale(0.100000,-0.100000)"
fill="#000000" stroke="none">
<path d="M5235 11513 c-27 -2 -54 -8 -59 -13 -5 -5 -17 -5 -28 1 -11 6 -26 8
-33 5 -21 -7 -61 -75 -71 -119 -10 -42 -26 -50 -34 -17 -3 12 -9 22 -15 22
-17 2 -85 -145 -96 -208 -6 -32 -19 -77 -29 -99 -10 -22 -21 -51 -25 -65 -4
-14 -20 -38 -35 -55 -16 -16 -41 -57 -57 -90 -33 -68 -131 -238 -177 -305 -36
-53 -61 -119 -140 -370 -30 -93 -32 -165 -6 -165 10 0 17 14 21 40 4 22 14 60
22 85 9 25 28 81 43 125 14 44 39 116 54 160 43 123 190 385 272 485 44 54 46
57 73 96 20 29 24 44 19 74 -6 35 13 132 37 193 11 26 13 27 30 11 27 -25 45
-11 64 48 21 66 64 135 74 119 11 -17 107 -26 124 -12 19 15 88 17 115 2 18
-10 26 -10 38 0 13 10 12 15 -7 36 -23 24 -41 26 -174 16z"/>
<path d="M6743 11498 c-25 -26 -18 -48 12 -40 24 5 108 4 185 -2 39 -3 58 -1
66 9 19 25 46 -12 83 -112 25 -67 54 -84 70 -41 9 25 13 20 34 -47 26 -82 39
-168 26 -176 -16 -9 -1 -34 96 -164 154 -206 246 -388 326 -645 16 -52 36
-113 44 -135 8 -22 16 -51 18 -65 4 -36 15 -50 33 -43 20 7 14 67 -17 163 -12
36 -29 92 -39 125 -32 105 -70 199 -95 235 -45 67 -136 222 -171 293 -20 40
-49 86 -64 102 -15 17 -35 54 -45 83 -9 28 -20 52 -24 52 -3 0 -12 30 -19 68
-17 92 -31 128 -70 191 l-34 55 -15 -35 -15 -34 -12 41 c-16 52 -56 124 -70
125 -6 1 -27 3 -46 3 -19 1 -80 6 -135 10 -97 8 -101 7 -122 -16z"/>
<path d="M5372 10640 c-18 -29 -15 -38 4 -12 9 13 14 25 12 27 -2 2 -9 -5 -16
-15z"/>
<path d="M6769 10638 c4 -12 13 -24 20 -26 9 -3 9 2 0 22 -15 32 -32 35 -20 4z"/>
<path d="M5323 10558 c-38 -62 -184 -280 -249 -373 -31 -44 -91 -122 -133
-173 -42 -52 -89 -111 -106 -132 -16 -22 -45 -57 -63 -79 -29 -36 -31 -41 -14
-41 18 0 82 38 106 63 6 7 29 39 51 71 22 33 71 98 108 145 37 47 102 138 145
201 86 128 85 127 127 207 16 32 40 73 52 92 13 19 23 40 23 47 0 26 -20 14
-47 -28z"/>
<path d="M6790 10585 c0 -8 14 -37 30 -63 17 -27 30 -54 30 -61 0 -6 4 -11 9
-11 5 0 11 -10 15 -22 8 -33 178 -288 262 -394 39 -49 88 -115 108 -147 44
-66 97 -114 141 -126 35 -9 47 -4 22 10 -9 6 -17 16 -17 24 0 7 -10 22 -23 32
-13 10 -32 32 -43 48 -10 17 -37 50 -59 73 -88 95 -411 553 -445 630 -11 25
-30 30 -30 7z"/>
</g>
</svg>
