<svg version="1.0" xmlns="http://www.w3.org/2000/svg"
 width="1200.000000pt" height="1600.000000pt" viewBox="0 0 1200.000000 1600.000000"
 preserveAspectRatio="xMidYMid meet">

<g transform="translate(0.000000,1600.000000) scale(0.100000,-0.100000)"
fill="#000000" stroke="none">
<path d="M5085 11465 c-16 -15 -25 -36 -25 -55 0 -44 -37 -91 -66 -84 -34 9
-69 -60 -87 -172 -8 -51 -21 -102 -28 -115 -7 -13 -12 -27 -11 -31 1 -4 -26
-49 -59 -100 -33 -51 -68 -106 -77 -122 -9 -15 -34 -49 -54 -74 -21 -26 -38
-53 -38 -60 0 -7 -21 -49 -46 -93 -49 -85 -114 -253 -114 -297 -1 -32 -34
-162 -49 -191 -16 -29 -13 -48 4 -25 14 18 14 17 15 -14 0 -18 -7 -44 -16 -58
-19 -28 -9 -48 10 -21 20 26 38 21 30 -7 -11 -45 4 -49 62 -16 54 30 54 30 54
8 1 -22 2 -22 16 5 22 40 27 33 21 -25 -4 -34 -2 -45 3 -32 16 41 30 37 30 -8
1 -41 1 -42 14 -19 l14 24 6 -21 c4 -12 13 -23 19 -23 7 -1 17 -2 23 -3 6 0
18 -9 28 -18 32 -32 60 -20 91 41 13 26 31 53 40 61 9 7 28 34 42 59 14 25 52
73 84 106 64 67 139 179 221 330 72 132 143 242 181 283 29 30 30 32 9 32 -33
0 -89 30 -100 54 -5 11 -8 54 -7 95 l3 73 -34 -5 c-63 -10 -27 39 49 68 42 16
45 19 37 44 -6 21 -3 34 11 52 11 13 31 41 45 63 28 42 31 40 -36 20 -15 -5
-20 -2 -20 14 0 12 8 23 19 27 31 10 35 35 5 35 l-26 0 35 40 c32 38 33 43 26
87 -4 27 -8 55 -8 63 -1 12 -15 15 -78 13 -43 -1 -96 -4 -117 -7 -25 -3 -47 0
-60 10 -30 21 -64 17 -91 -11z"/>
<path d="M6970 11475 c-10 -12 -22 -14 -44 -9 -17 4 -70 7 -118 8 -72 1 -88
-2 -89 -14 0 -8 -4 -37 -8 -64 -8 -47 -7 -51 27 -87 l34 -39 -26 0 c-30 0 -26
-25 5 -35 11 -4 19 -15 19 -27 0 -21 1 -21 -63 -1 -15 5 -14 0 7 -33 14 -22
33 -48 42 -59 9 -12 14 -33 12 -52 -4 -30 -1 -33 40 -49 75 -28 110 -77 48
-67 l-33 5 1 -73 c1 -41 -2 -84 -7 -95 -10 -23 -66 -54 -98 -54 -18 0 -16 -5
18 -44 21 -24 82 -118 137 -209 61 -102 147 -225 225 -324 77 -97 144 -194
174 -250 55 -105 77 -122 113 -85 10 9 22 18 28 18 6 1 16 2 23 3 6 0 15 11
19 23 l6 21 14 -24 c13 -23 13 -22 14 20 0 39 2 42 16 30 15 -12 16 -10 12 24
-5 44 6 48 26 10 14 -27 15 -27 16 -5 0 22 0 22 54 -8 58 -33 73 -29 61 17 -6
26 -6 26 19 10 29 -20 42 -8 21 19 -8 10 -14 35 -14 54 0 33 1 34 14 16 11
-15 15 -16 15 -5 0 8 -4 19 -9 24 -9 10 -40 132 -61 237 -6 31 -42 120 -81
197 -38 77 -69 146 -69 153 0 8 -17 34 -37 60 -21 25 -47 61 -58 79 -29 47
-76 120 -108 168 -15 22 -26 44 -25 48 0 5 -6 24 -15 43 -8 19 -20 71 -26 115
-14 101 -51 170 -86 161 -31 -8 -65 34 -65 79 0 62 -85 112 -120 70z"/>
<path d="M7521 9874 c0 -11 3 -14 6 -6 3 7 2 16 -1 19 -3 4 -6 -2 -5 -13z"/>
</g>
</svg>
