<svg version="1.0" xmlns="http://www.w3.org/2000/svg"
 width="1200.000000pt" height="1600.000000pt" viewBox="0 0 1200.000000 1600.000000"
 preserveAspectRatio="xMidYMid meet">

<g transform="translate(0.000000,1600.000000) scale(0.100000,-0.100000)"
fill="#000000" stroke="none">
<path d="M5327 14929 c-27 -16 -47 -64 -47 -113 0 -41 -2 -45 -27 -48 -22 -2
-33 -14 -53 -53 -21 -43 -25 -64 -25 -146 l0 -95 -44 -59 c-33 -43 -49 -77
-63 -134 -10 -42 -21 -83 -25 -91 -3 -8 -7 -22 -8 -30 -5 -36 -40 -156 -47
-160 -8 -6 -14 -214 -8 -295 2 -27 7 -55 12 -62 6 -7 2 -13 -11 -18 -30 -9
-61 -53 -61 -86 0 -28 25 -86 79 -186 23 -42 28 -62 26 -108 -2 -51 0 -57 27
-78 16 -12 46 -37 68 -55 74 -63 143 -51 182 31 10 23 28 56 38 72 22 34 40
134 40 218 0 37 7 71 19 96 34 66 153 158 192 148 32 -9 86 12 112 43 14 16
30 52 37 80 8 32 15 47 20 40 17 -27 34 35 34 120 0 66 -6 101 -27 159 -14 41
-32 78 -39 82 -7 5 -9 9 -4 9 6 0 1 7 -10 15 -10 8 -15 15 -10 15 4 0 -3 15
-16 33 -13 17 -28 39 -32 47 -3 8 -22 40 -41 70 -55 91 -117 221 -135 288 -6
24 -19 51 -29 61 -12 12 -20 41 -24 86 -9 94 -47 135 -100 104z"/>
<path d="M6751 14916 c-17 -18 -23 -40 -28 -95 -3 -39 -10 -71 -15 -71 -12 0
-45 -76 -51 -117 -3 -17 -12 -44 -20 -60 -8 -15 -27 -53 -41 -83 -38 -77 -91
-165 -126 -210 -16 -20 -27 -40 -23 -44 3 -3 1 -6 -6 -6 -7 0 -9 -4 -6 -10 3
-5 1 -10 -5 -10 -6 0 -8 -4 -5 -10 3 -5 2 -10 -3 -10 -13 0 -38 -64 -57 -146
-19 -82 -12 -155 20 -204 13 -19 28 -52 35 -72 19 -63 70 -95 138 -89 45 4
160 -85 191 -148 12 -24 20 -71 25 -144 6 -104 21 -164 51 -197 7 -8 17 -27
20 -43 4 -15 21 -38 37 -52 45 -38 101 -32 150 15 20 19 49 45 63 57 21 19 25
31 25 75 0 52 17 96 91 228 27 50 24 92 -8 131 l-28 33 0 165 c0 152 -2 173
-27 254 -15 48 -25 94 -22 102 4 8 0 22 -7 31 -7 9 -14 21 -16 28 -20 87 -48
153 -85 201 l-43 55 0 98 c0 83 -3 104 -25 147 -20 39 -31 51 -52 53 -25 3
-28 7 -28 43 0 72 -37 129 -83 129 -7 0 -24 -11 -36 -24z"/>
</g>
</svg>
