<?xml version="1.0" encoding="utf-8"?>
<!-- Generator: Adobe Illustrator 16.0.0, SVG Export Plug-In . SVG Version: 6.00 Build 0)  -->
<!DOCTYPE svg PUBLIC "-//W3C//DTD SVG 1.1//EN" "http://www.w3.org/Graphics/SVG/1.1/DTD/svg11.dtd">
<svg version="1.1" xmlns="http://www.w3.org/2000/svg" xmlns:xlink="http://www.w3.org/1999/xlink" x="0px" y="0px" width="1200px"
	 height="1600px" viewBox="0 0 1200 1600" enable-background="new 0 0 1200 1600" xml:space="preserve">
<g id="Layer_2">
</g>
<g id="Layer_1">
	<g transform="translate(0.000000,1600.000000) scale(0.100000,-0.100000)">
		<path d="M5932.065,12727c-3.711-2.998-56.953-7.998-117.637-11.006c-61.914-2.998-143.633-11.992-182.031-20
			c-84.199-17.998-272.417-100.996-368.999-161.992c-89.16-57.002-292.227-232.002-343.003-296.006
			c-73.052-92.998-65.63-143.994,19.819-132.002c42.095,6.006,43.34,5,18.569-8.994c-30.952-19.004-116.401-129.004-116.401-151.006
			c0-8.994,8.672-18.994,18.574-21.992c13.618-5,6.196-20-38.384-70c-69.346-78.008-81.733-126.006-42.104-156.006
			c23.535-17.998,27.246-27.998,21.055-67.002c-7.432-50,13.618-88.994,37.148-70c9.907,8.008,9.907-2.998,1.235-36.992
			c-16.099-58.008,12.383-121.006,49.531-109.004c11.147,2.998,35.913,9.004,55.718,12.002
			c18.579,2.998,33.438,12.002,33.438,18.994c0,8.008-13.613,14.004-33.438,15l-34.663,1.006l30.952,7.998
			c44.575,10.996,64.395,10.996,55.723,0c-3.711-5,1.235-10,11.147-10c11.138,0,19.81,4.004,19.81,9.004s12.383,6.992,27.246,2.998
			c17.324-2.998,23.521-2.002,17.324,5.996c-22.285,29.004,116.406,1.006,175.84-35c22.285-12.998,178.989-27.998,175.947-32.998
			c-3.052-4.004-2.036-10,2.041-12.006c25.171-9.053,51.831-59.029,68.418-82.643c72.314-102.953,156.729-183.164,241.563-269.906
			c94.272-96.393,212.534-126.973,325.469-174.85c-12.598,5.342-29.98,18.287-38.613,30.752
			c-12.529,18.066-10.098,20.293-22.876,30.273c-32.3,25.24-71.812,26.783-102.92,52.412c-22.554,18.58-46.069,35.371-69.609,52.002
			c-46.03,32.51-93.125,63.316-136.514,100.977c-40.615,35.244-71.704,79.795-103.662,125.934
			c-17.896,25.84-41.187,45.854-59.785,71.01c-7.051,9.541-22.729,26.334-24.517,39.736c-1.05,7.857,12.476,50.221,20.488,37.686
			c-7.495,11.725-141.924,22.314-154.473,30.557c-21.025,13.805-42.808,26.607-65.864,36.699
			c-44.478,19.463-91.016,24.932-139.292,24.365c-91.641-0.996-236.504-15.996-260.039-27.998
			c-35.913-17.998,0,94.004,59.438,187.998c12.378,20-39.629,4.004-65.625-20c-16.099-15.996-32.192-25.996-35.918-22.002
			c-3.711,3.008-7.427,41.006-8.662,85c-2.476,67.002,2.476,89.004,26.001,130c16.094,27.002,33.438,51.006,37.148,54.004
			c4.961,2.998,13.618,12.002,19.81,22.002c6.191,8.994,32.202,35,58.203,57.002c26.006,22.998,42.104,40.996,35.908,40.996
			c-4.951,0-14.858-4.004-21.05-9.004c-7.422-3.994-30.957-12.998-54.487-18.994l-40.859-12.002l21.05,27.998
			c12.383,15,40.859,41.006,63.149,59.004c47.065,37.998,54.487,52.002,39.624,75.996c-7.427,11.006-24.761,17.002-54.473,17.002
			c-39.629,0-42.109,2.002-29.727,20c7.427,12.002,12.383,29.004,9.907,37.998c-3.711,17.998,61.914,86.006,188.218,197.002
			c128.789,112.998,367.769,235,529.98,270.996c92.871,21.006,542.363,30,720.674,16.006c117.637-10,141.172-16.006,255.078-61.006
			c148.604-60,239.004-113.994,323.203-195.996c34.668-32.998,84.199-77.998,108.955-100
			c87.93-75.996,116.406-110.996,110.225-132.002c-3.74-10.996,1.23-27.002,12.373-35.996
			c27.227-22.002,25.996-22.998-27.236-19.004c-32.207,2.998-52.021-0.996-63.164-12.002c-14.854-13.994-8.662-23.994,35.918-70.996
			c29.717-30.996,58.193-57.998,63.145-60.996c6.191-3.008,11.143-10,11.143-16.006c0-13.994-61.904-0.996-91.631,20
			c-34.668,24.004-14.854-2.002,48.301-62.998c96.582-94.004,108.965-119.004,112.666-227.002c2.49-53.994,0-97.998-6.182-97.998
			c-4.941,0-22.285,10.996-38.389,25c-24.766,20.996-61.914,34.004-61.914,20.996c0-1.992,12.393-27.998,28.486-56.992
			c16.084-30,29.717-71.006,32.197-91.006l2.471-37.002l-60.674,6.006c-48.291,3.994-61.914,2.002-68.105-11.006
			c-4.951-10-1.24-15.996,11.143-15.996c9.912,0,14.854,5,11.143,10c-8.662,10.996,11.162,10.996,55.732,0
			c28.467-7.002,28.467-7.998,3.711-9.004c-40.859-1.992-47.051-20-9.902-30.996c76.768-24.004,87.91-22.998,104.023,7.002
			c16.084,33.994,18.574,68.994,6.182,102.998c-4.951,14.004-3.721,22.002,1.23,17.998c23.535-17.998,43.34,16.006,43.34,72.998
			c0,44.004,4.961,60,21.055,67.002c32.197,15,23.525,65-22.285,127.002c-23.525,30.996-52.002,65-64.385,75.996
			c-18.584,16.006-18.584,19.004-2.48,19.004c11.143,0,18.574,9.004,18.574,22.002c0,32.998-75.537,147.002-101.543,153.994
			c-12.383,3.008-19.805,9.004-16.094,14.004s21.045,5,40.859-0.996c50.771-16.006,65.625,6.992,44.58,71.992
			c-9.912,29.004-24.766,59.004-33.428,68.008c-8.682,8.994-55.723,51.992-102.773,95.996
			c-48.311,44.004-99.063,92.998-113.936,109.004c-37.148,40-138.691,98.994-252.607,147.998c-52.012,22.998-92.861,45-89.15,48.994
			c6.182,8.008-99.072,42.002-184.502,60C6443.466,12722,5943.212,12735.994,5932.065,12727z"/>
		<path d="M6756.748,12122c-13.613-11.006,8.672-22.002,43.34-22.002c21.055,0,34.688,4.004,30.957,9.004
			C6822.382,12119.002,6765.419,12129.002,6756.748,12122z"/>
		<path d="M5319.121,12109.998c-4.956-5.996,9.902-10,35.918-10c23.516,0,47.046,5,50.757,10c4.961,5.996-9.897,10-35.913,10
			C5346.367,12119.998,5322.832,12115.994,5319.121,12109.998z"/>
		<path d="M5356.269,12049.998c-19.81-4.004-28.481-7.998-18.574-9.004c12.383-0.996,8.672-5.996-11.147-16.992
			c-32.192-19.004-23.521-29.004,33.433-39.004c43.34-7.002,54.487,7.002,18.574,24.004c-18.574,8.994-16.099,10.996,14.858,11.992
			c65.63,2.002,97.832-1.992,164.692-21.992c75.537-22.002,80.488-23.008,69.351-8.008c-4.961,8.008,0,8.008,18.574,0
			c14.849-6.992,33.423-8.994,40.854-5c7.427,4.004,9.912,3.008,6.196-2.998c-4.956-5.996,17.329-10,53.242-10.996
			c34.673,0,61.914,2.998,61.914,7.998s-29.727,15.996-64.395,25c-35.898,10-76.772,25-89.155,34.004
			c-14.849,10-24.766,11.992-28.477,5c-2.48-8.008-22.285-9.004-56.958-4.004
			C5472.67,12054.002,5393.413,12057.996,5356.269,12049.998z"/>
		<path d="M6650.263,12049.002c-44.57-4.004-90.391-10-101.543-13.008c-12.373-1.992-22.285-0.996-22.285,4.004
			c0,4.004-25.996-2.998-58.203-15.996c-33.428-13.008-68.105-24.004-79.238-24.004c-11.152,0-38.389-5.996-60.674-14.004
			c-39.629-12.998-38.389-12.998,47.041-11.992c50.771,0,84.209,5,80.498,10c-4.951,5,1.24,5.996,14.863,2.998
			c17.324-6.006,104.014,5.996,208.027,30c13.613,2.998,19.805,0,18.564-7.998c-2.48-10,17.344-14.004,73.066-14.004
			c80.488-0.996,90.391,9.004,24.766,24.004c-32.197,6.992-34.678,8.994-11.143,10c18.564,0.996,26.006,5,19.814,12.998
			c-6.201,7.998-2.49,8.994,12.373,5c12.393-4.004,18.584-2.998,13.623,2.998
			C6821.142,12060.994,6766.669,12060.994,6650.263,12049.002z"/>
		<path d="M5051.655,12032.996c-16.104-15.996-14.858-17.002,4.951-3.994c19.819,12.998,26.006,20.996,16.089,20.996
			C5070.229,12049.998,5060.317,12042,5051.655,12032.996z"/>
		<path d="M5731.464,11962.996c7.437-2.002,14.858-10,14.858-15.996c0-7.002,17.344-20,37.148-29.004
			c35.913-17.002,37.148-17.002,24.766,2.002c-14.858,22.002-60.684,50-80.483,49.004
			C5721.557,11969.002,5722.792,11965.994,5731.464,11962.996z"/>
		<path d="M6384.033,11952c-14.854-9.004-32.188-24.004-40.859-32.998c-14.854-16.006-12.383-16.006,27.246-1.006
			c23.525,9.004,39.619,20,35.898,25c-3.711,5,1.24,12.998,9.912,17.998c9.902,5,12.373,9.004,4.951,9.004
			C6414.99,11969.998,6397.656,11962,6384.033,11952z"/>
		<path d="M5886.25,11927.996c1.245-7.002,9.902-17.998,19.819-23.994c24.761-16.006-3.73-28.008-34.688-14.004
			c-47.046,20-43.335,10,4.961-17.002c125.063-67.998,231.558-182.998,204.321-222.002c-16.104-25.996-16.104-32.998,4.951-55.996
			c19.805-22.002,17.334-32.002,23.516,95c2.48,64.004,3.711,65,69.355,117.998c37.148,29.004,82.949,60,102.773,67.998
			c18.574,8.008,34.668,17.002,34.668,20c0,2.002-11.152,0-24.766-5.996c-17.334-7.002-32.188-7.998-47.041-0.996
			c-19.824,8.994-19.824,10,3.711,17.998c28.467,8.994,38.379,32.998,14.863,32.998c-9.912,0-21.064-2.998-26.025-7.002
			c-8.652-7.998-9.893-7.998-100.293-22.998c-44.57-7.998-80.479-7.002-130.02,2.002c-37.144,5.996-71.816,12.002-76.772,12.002
			c-3.716,0.996-12.378,3.994-17.329,8.994C5897.397,11944.002,5882.534,11940.994,5886.25,11927.996z M6102.949,11872.996
			c-12.393-2.002-32.197-2.002-43.34,0c-12.393,2.998-2.48,5,21.055,5C6104.189,11877.996,6114.091,11875.994,6102.949,11872.996z
			 M6086.845,11822c-3.711-2.998-13.613,0-22.285,7.002c-11.152,10-9.893,10.996,7.422,5
			C6084.375,11830.994,6090.556,11824.998,6086.845,11822z M6062.089,11782c-3.711-2.998-13.623,0-22.295,7.002
			c-11.152,10-9.902,10.996,7.422,5C6059.609,11790.994,6065.8,11784.998,6062.089,11782z M6110.38,11790.994
			c3.711-5-1.25-13.994-9.912-20c-14.854-10-16.094-7.998-11.143,8.008C6096.748,11802,6100.468,11804.002,6110.38,11790.994z"/>
		<path d="M6894.482,11494.984c-59.102-15.918-239.57-45.553-275.254-90.234c70.84,15.453,28.096-53.131,1.602-83.639
			c-64.307-74.023-129.639-149.516-196.094-220.6c-39.355-42.1-82.227-57.588-127.979-85.299
			c-22.9-13.871-36.338-35.576-56.572-52.549c-45.957-38.559-102.627-26.963-137.393-91.967
			c57.686,7.563,101.855,43.266,151.768,75.531c53.223,34.404,108.311,63.932,158.135,105.703
			c69.385,58.184,131.729,127.891,191.836,199.654c27.197,32.471,55.449,64.467,81.104,98.754
			c49.023,65.514,235.84,112.77,326.475,133.346c25.195,5.717,44.141,7.992,68.008,1.723c13.555-3.555,18.164-31.479,34.434-2.686
			c-59.58,28.092-101.367,31.592-168.74,22.529C6928.408,11502.914,6911.259,11499.5,6894.482,11494.984z"/>
		<path d="M6075.693,11429.002c-3.711-17.002-5.811-39.004-5.811-48.008c1.016-13.994,2.031-13.994,9.15-0.996
			c15.254,25,28.867,80,16.484,80C6089.326,11459.998,6080.664,11445.994,6075.693,11429.002z"/>
	</g>
</g>
</svg>
