<?xml version="1.0" standalone="no"?>
<!DOCTYPE svg PUBLIC "-//W3C//DTD SVG 20010904//EN"
 "http://www.w3.org/TR/2001/REC-SVG-20010904/DTD/svg10.dtd">
<svg version="1.0" xmlns="http://www.w3.org/2000/svg"
 width="1200.000000pt" height="1600.000000pt" viewBox="0 0 1200.000000 1600.000000"
 preserveAspectRatio="xMidYMid meet">

<g transform="translate(0.000000,1600.000000) scale(0.100000,-0.100000)"
fill="#000000" stroke="none">
<path d="M5960 12727 c-3 -3 -46 -8 -95 -11 -50 -3 -116 -12 -147 -20 -68 -18
-220 -101 -298 -162 -72 -57 -236 -232 -277 -296 -59 -93 -53 -144 16 -132 34
6 35 5 15 -9 -25 -19 -94 -129 -94 -151 0 -9 7 -19 15 -22 11 -5 5 -20 -31
-70 -56 -78 -66 -126 -34 -156 19 -18 22 -28 17 -67 -6 -50 11 -89 30 -70 8 8
8 -3 1 -37 -13 -58 10 -121 40 -109 9 3 29 9 45 12 15 3 27 12 27 19 0 8 -11
14 -27 15 l-28 1 25 8 c36 11 52 11 45 0 -3 -5 1 -10 9 -10 9 0 16 4 16 9 0 5
10 7 22 3 14 -3 19 -2 14 6 -18 29 94 1 142 -35 18 -13 30 -28 27 -33 -3 -4
-2 -10 2 -12 11 -4 67 -78 83 -108 13 -25 224 -238 289 -293 24 -20 36 -25 41
-16 6 8 17 3 37 -18 17 -17 48 -39 69 -49 21 -10 43 -24 47 -31 4 -7 20 -13
34 -13 l26 0 -27 21 c-17 13 -25 27 -21 37 4 11 2 12 -8 4 -11 -9 -19 -6 -37
13 -27 29 -45 33 -36 8 4 -10 -12 4 -35 30 -28 33 -48 47 -59 44 -12 -3 -55
33 -140 119 -77 78 -113 120 -99 117 15 -4 1 15 -46 59 -45 43 -66 69 -61 77
5 7 17 11 27 8 28 -7 23 5 -14 34 -61 49 -98 63 -167 62 -74 -1 -191 -16 -210
-28 -29 -18 0 94 48 188 10 20 -32 4 -53 -20 -13 -16 -26 -26 -29 -22 -3 3 -6
41 -7 85 -2 67 2 89 21 130 13 27 27 51 30 54 4 3 11 12 16 22 5 9 26 35 47
57 21 23 34 41 29 41 -4 0 -12 -4 -17 -9 -6 -4 -25 -13 -44 -19 l-33 -12 17
28 c10 15 33 41 51 59 38 38 44 52 32 76 -6 11 -20 17 -44 17 -32 0 -34 2 -24
20 6 12 10 29 8 38 -3 18 50 86 152 197 104 113 297 235 428 271 75 21 438 30
582 16 95 -10 114 -16 206 -61 120 -60 193 -114 261 -196 28 -33 68 -78 88
-100 71 -76 94 -111 89 -132 -3 -11 1 -27 10 -36 22 -22 21 -23 -22 -19 -26 3
-42 -1 -51 -12 -12 -14 -7 -24 29 -71 24 -31 47 -58 51 -61 5 -3 9 -10 9 -16
0 -14 -50 -1 -74 20 -28 24 -12 -2 39 -63 78 -94 88 -119 91 -227 2 -54 0 -98
-5 -98 -4 0 -18 11 -31 25 -20 21 -50 34 -50 21 0 -2 10 -28 23 -57 13 -30 24
-71 26 -91 l2 -37 -49 6 c-39 4 -50 2 -55 -11 -4 -10 -1 -16 9 -16 8 0 12 5 9
10 -7 11 9 11 45 0 23 -7 23 -8 3 -9 -33 -2 -38 -20 -8 -31 62 -24 71 -23 84
7 13 34 15 69 5 103 -4 14 -3 22 1 18 19 -18 35 16 35 73 0 44 4 60 17 67 26
15 19 65 -18 127 -19 31 -42 65 -52 76 -15 16 -15 19 -2 19 9 0 15 9 15 22 0
33 -61 147 -82 154 -10 3 -16 9 -13 14 3 5 17 5 33 -1 41 -16 53 7 36 72 -8
29 -20 59 -27 68 -7 9 -45 52 -83 96 -39 44 -80 93 -92 109 -30 40 -112 99
-204 148 -42 23 -75 45 -72 49 5 8 -80 42 -149 60 -44 11 -448 25 -457 16z"/>
<path d="M6626 12122 c-11 -11 7 -22 35 -22 17 0 28 4 25 9 -7 10 -53 20 -60
13z"/>
<path d="M5465 12110 c-4 -6 8 -10 29 -10 19 0 38 5 41 10 4 6 -8 10 -29 10
-19 0 -38 -4 -41 -10z"/>
<path d="M5495 12050 c-16 -4 -23 -8 -15 -9 10 -1 7 -6 -9 -17 -26 -19 -19
-29 27 -39 35 -7 44 7 15 24 -15 9 -13 11 12 12 53 2 79 -2 133 -22 61 -22 65
-23 56 -8 -4 8 0 8 15 0 12 -7 27 -9 33 -5 6 4 8 3 5 -3 -4 -6 14 -10 43 -11
28 0 50 3 50 8 0 5 -24 16 -52 25 -29 10 -62 25 -72 34 -12 10 -20 12 -23 5
-2 -8 -18 -9 -46 -4 -78 14 -142 18 -172 10z"/>
<path d="M6540 12049 c-36 -4 -73 -10 -82 -13 -10 -2 -18 -1 -18 4 0 4 -21 -3
-47 -16 -27 -13 -55 -24 -64 -24 -9 0 -31 -6 -49 -14 -32 -13 -31 -13 38 -12
41 0 68 5 65 10 -4 5 1 6 12 3 14 -6 84 6 168 30 11 3 16 0 15 -8 -2 -10 14
-14 59 -14 65 -1 73 9 20 24 -26 7 -28 9 -9 10 15 1 21 5 16 13 -5 8 -2 9 10
5 10 -4 15 -3 11 3 -7 11 -51 11 -145 -1z"/>
<path d="M5249 12033 c-13 -16 -12 -17 4 -4 16 13 21 21 13 21 -2 0 -10 -8
-17 -17z"/>
<path d="M5798 11963 c6 -2 12 -10 12 -16 0 -7 14 -20 30 -29 29 -17 30 -17
20 2 -12 22 -49 50 -65 49 -5 0 -4 -3 3 -6z"/>
<path d="M6325 11952 c-12 -9 -26 -24 -33 -33 -12 -16 -10 -16 22 -1 19 9 32
20 29 25 -3 5 1 13 8 18 8 5 10 9 4 9 -5 0 -19 -8 -30 -18z"/>
<path d="M5923 11928 c1 -7 8 -18 16 -24 20 -16 -3 -28 -28 -14 -38 20 -35 10
4 -17 101 -68 187 -183 165 -222 -13 -26 -13 -33 4 -56 16 -22 14 -32 19 95 2
64 3 65 56 118 30 29 67 60 83 68 15 8 28 17 28 20 0 2 -9 0 -20 -6 -14 -7
-26 -8 -38 -1 -16 9 -16 10 3 18 23 9 31 33 12 33 -8 0 -17 -3 -21 -7 -7 -8
-8 -8 -81 -23 -36 -8 -65 -7 -105 2 -30 6 -58 12 -62 12 -3 1 -10 4 -14 9 -12
11 -24 8 -21 -5z m175 -55 c-10 -2 -26 -2 -35 0 -10 3 -2 5 17 5 19 0 27 -2
18 -5z m-13 -51 c-3 -3 -11 0 -18 7 -9 10 -8 11 6 5 10 -3 15 -9 12 -12z m-20
-40 c-3 -3 -11 0 -18 7 -9 10 -8 11 6 5 10 -3 15 -9 12 -12z m39 9 c3 -5 -1
-14 -8 -20 -12 -10 -13 -8 -9 8 6 23 9 25 17 12z"/>
<path d="M6737 11496 c-33 -12 -127 -80 -127 -92 0 -2 11 -2 25 2 45 11 29
-27 -36 -87 -33 -31 -56 -59 -50 -60 5 -2 -39 -55 -98 -118 -80 -83 -115 -114
-136 -116 -27 -3 -46 -19 -78 -65 -15 -21 -17 -22 -17 -5 0 17 -2 17 -24 -4
-13 -12 -28 -21 -34 -19 -5 2 -9 0 -9 -3 1 -3 -11 -17 -28 -31 -51 -44 -18
-43 50 2 17 11 39 24 51 29 11 5 33 24 47 41 15 17 27 27 27 21 0 -6 8 -11 17
-11 20 0 299 274 320 315 9 17 26 41 39 54 13 13 24 30 24 37 0 8 4 14 9 14 5
0 11 9 14 20 3 12 27 30 59 45 53 25 115 34 103 15 -3 -5 1 -10 9 -10 8 0 18
5 21 10 3 6 -1 10 -10 10 -9 0 -14 3 -11 8 8 14 -118 12 -157 -2z"/>
<path d="M6076 11429 c-3 -17 -6 -39 -6 -48 1 -14 2 -14 9 -1 15 25 23 80 13
80 -5 0 -12 -14 -16 -31z"/>
</g>
</svg>
