<?xml version="1.0" standalone="no"?>
<!DOCTYPE svg PUBLIC "-//W3C//DTD SVG 20010904//EN"
 "http://www.w3.org/TR/2001/REC-SVG-20010904/DTD/svg10.dtd">
<svg version="1.0" xmlns="http://www.w3.org/2000/svg"
 width="1200.000000pt" height="1600.000000pt" viewBox="0 0 1200.000000 1600.000000"
 preserveAspectRatio="xMidYMid meet">

<g transform="translate(0.000000,1600.000000) scale(0.100000,-0.100000)"
fill="#000000" stroke="none">
<path d="M5851 12709 c-89 -10 -145 -25 -214 -60 -71 -36 -204 -126 -253 -171
-77 -71 -226 -248 -221 -262 3 -8 0 -25 -8 -39 -16 -31 -3 -47 36 -47 15 0 30
-4 33 -9 3 -5 -17 -37 -44 -72 -31 -38 -46 -65 -40 -69 20 -12 7 -75 -26 -125
-61 -94 -66 -115 -48 -231 4 -27 8 -31 29 -26 34 6 43 -20 15 -48 -21 -21 -23
-50 -4 -84 11 -18 13 -18 74 3 90 31 181 27 234 -11 21 -15 47 -28 56 -28 10
0 23 -7 31 -16 11 -13 10 -15 -6 -12 -32 6 -27 -20 13 -64 22 -24 42 -52 46
-63 3 -11 34 -40 67 -65 34 -25 72 -62 86 -83 55 -86 150 -176 130 -123 -9 23
21 8 74 -36 26 -21 52 -38 57 -38 6 0 27 -10 47 -21 l36 -22 6 22 c7 26 30 27
38 2 6 -19 7 -19 56 4 28 12 60 32 72 43 12 11 41 31 63 45 41 26 42 26 36 4
-5 -21 -5 -21 19 -6 13 9 47 47 75 85 60 80 62 82 132 135 28 22 52 44 52 50
0 6 19 32 41 59 42 50 48 86 12 73 -41 -15 10 27 65 54 53 26 64 27 197 28
l140 0 -3 24 c-2 13 -10 31 -18 38 -8 8 -14 25 -14 38 0 19 4 23 18 18 9 -3
23 -10 30 -16 9 -7 12 6 12 60 0 38 4 73 10 79 6 6 -7 42 -36 99 -39 78 -43
91 -29 101 30 22 18 63 -35 115 -27 28 -52 60 -56 71 -6 20 -3 20 45 16 28 -3
54 -2 56 2 3 4 -5 20 -16 34 -13 16 -19 35 -16 47 4 15 -15 44 -76 112 -189
214 -235 253 -398 331 -76 36 -112 46 -184 55 -104 13 -372 12 -494 0z m86
-701 c29 -12 53 -26 53 -31 0 -4 9 -6 20 -2 11 4 29 0 42 -9 20 -14 24 -14 46
0 13 8 31 13 40 9 8 -3 19 0 23 6 7 12 64 36 109 46 l25 6 -25 -28 c-14 -15
-43 -34 -65 -43 l-40 -17 40 -5 40 -5 -40 -22 c-51 -28 -27 -29 49 -2 37 12
62 17 68 11 6 -6 -7 -15 -34 -25 -24 -9 -70 -27 -103 -41 -65 -28 -105 -33
-105 -14 0 6 -6 4 -13 -6 -12 -16 -17 -15 -87 14 -41 17 -94 38 -118 47 -27
10 -40 19 -34 25 6 6 31 1 68 -11 76 -27 100 -26 49 2 l-40 22 40 5 40 5 -40
17 c-44 18 -98 68 -74 68 7 0 37 -10 66 -22z"/>
</g>
</svg>
