<?xml version="1.0" standalone="no"?>
<!DOCTYPE svg PUBLIC "-//W3C//DTD SVG 20010904//EN"
 "http://www.w3.org/TR/2001/REC-SVG-20010904/DTD/svg10.dtd">
<svg version="1.0" xmlns="http://www.w3.org/2000/svg"
 width="1200.000000pt" height="1600.000000pt" viewBox="0 0 1200.000000 1600.000000"
 preserveAspectRatio="xMidYMid meet">

<g transform="translate(0.000000,1600.000000) scale(0.100000,-0.100000)"
fill="#000000" stroke="none">
<path d="M5988 12251 c-61 -20 -125 -64 -151 -103 -31 -49 -44 -120 -29 -161
6 -17 9 -33 6 -38 -2 -4 3 -42 11 -83 16 -78 10 -141 -18 -174 -15 -19 -159
-90 -227 -113 -148 -51 -197 -89 -171 -138 25 -46 204 -60 360 -27 91 19 125
15 202 -25 25 -13 58 -19 104 -19 46 0 79 6 104 19 77 40 111 44 202 25 156
-33 335 -19 360 27 26 49 -23 87 -171 138 -68 23 -212 94 -227 113 -27 33 -34
96 -19 170 8 39 13 75 10 80 -3 5 0 25 7 45 9 28 9 48 -1 90 -23 106 -116 172
-249 179 -42 2 -88 0 -103 -5z"/>
</g>
</svg>
