<svg version="1.0" xmlns="http://www.w3.org/2000/svg"
 width="1200.000000pt" height="1600.000000pt" viewBox="0 0 1200.000000 1600.000000"
 preserveAspectRatio="xMidYMid meet">

<g transform="translate(0.000000,1600.000000) scale(0.100000,-0.100000)"
fill="#000000" stroke="none">
<path d="M5350 15256 c-17 -10 -30 -11 -43 -4 -25 13 -101 1 -151 -23 -42 -21
-108 -83 -103 -98 1 -4 -29 -43 -68 -86 -38 -43 -90 -101 -115 -129 -178 -201
-282 -270 -538 -355 -137 -45 -199 -53 -319 -40 -91 10 -105 10 -128 -5 -21
-14 -25 -24 -25 -62 0 -63 19 -101 81 -165 86 -89 237 -177 351 -204 35 -9 72
-18 83 -21 11 -3 25 -6 31 -8 7 -1 18 -7 25 -13 24 -18 112 -59 168 -78 82
-27 218 -17 341 25 52 17 99 36 104 41 39 37 33 -35 -9 -117 -20 -38 -41 -91
-46 -119 -6 -27 -17 -55 -25 -61 -13 -11 -15 -47 -3 -59 3 -2 32 2 64 10 72
19 84 8 53 -45 -12 -19 -27 -44 -33 -55 -7 -11 -13 -42 -14 -70 -2 -27 -5 -54
-8 -59 -4 -5 0 -6 7 -1 10 6 12 0 6 -31 -3 -21 -9 -65 -13 -98 -6 -57 -6 -58
15 -47 21 11 22 10 18 -23 -6 -40 8 -48 62 -33 19 4 40 6 48 3 25 -9 46 40 51
117 4 66 3 70 -11 53 -9 -11 -26 -46 -38 -78 -20 -50 -26 -58 -49 -58 -25 0
-26 1 -19 45 7 45 0 62 -20 50 -12 -7 -12 -9 0 120 7 91 12 108 52 181 52 99
57 116 25 86 -22 -20 -30 -22 -60 -14 -20 6 -40 6 -48 1 -8 -5 -20 -9 -27 -9
-30 0 16 134 80 233 25 39 30 55 25 87 -4 35 -2 42 28 64 l32 25 6 -52 c8 -78
34 -137 61 -136 15 1 16 3 4 6 -22 6 -28 23 -38 117 l-10 80 53 55 c66 70 121
154 163 251 39 92 47 137 36 216 -8 56 -7 61 10 56 14 -3 18 1 18 19 0 13 -4
30 -9 38 -7 11 -11 10 -20 -5 -10 -18 -12 -18 -21 -2 -6 10 -20 23 -31 29 -20
10 -19 9 2 -33 77 -151 -5 -371 -210 -563 -60 -56 -68 -62 -131 -99 -214 -126
-385 -138 -594 -42 -37 17 -69 29 -70 27 -3 -10 -126 62 -194 114 -40 30 -72
51 -72 47 0 -3 17 -23 37 -44 27 -28 32 -38 20 -38 -36 0 -187 106 -253 178
-32 35 -60 105 -49 123 4 6 47 7 119 3 87 -5 125 -3 167 9 30 9 92 25 138 37
130 32 436 168 418 186 -2 3 36 46 86 97 49 50 131 142 182 202 50 61 99 116
108 123 9 8 14 19 11 27 -3 8 15 23 51 40 53 27 60 28 130 19 61 -8 75 -7 84
6 8 13 15 9 43 -21 18 -20 41 -49 51 -63 24 -34 41 -34 33 2 l-6 27 14 -25
c18 -33 97 -243 129 -345 46 -145 72 -303 83 -493 l7 -123 19 31 c39 65 62 -1
33 -94 l-17 -53 37 -69 c42 -77 75 -116 82 -97 2 7 11 9 19 6 18 -7 18 7 -1
33 -37 53 -56 128 -58 224 -2 103 -20 150 -56 150 -16 0 -19 12 -24 108 -6
108 -56 346 -92 443 -47 122 -80 199 -107 247 -32 56 -75 102 -95 102 -6 0
-18 8 -25 18 -15 21 -50 42 -70 42 -7 -1 -24 -7 -38 -14z"/>
<path d="M6710 15243 c-20 -16 -44 -33 -55 -39 -31 -17 -91 -108 -123 -187
-29 -73 -41 -103 -42 -112 0 -3 -9 -25 -19 -49 -31 -71 -89 -343 -97 -448 -6
-90 -8 -97 -30 -102 -31 -8 -43 -51 -47 -167 -3 -87 -6 -102 -40 -168 -20 -40
-37 -74 -37 -75 0 -5 47 1 57 7 6 4 30 40 53 80 35 61 41 77 35 107 -23 118
-23 125 -8 140 15 16 16 15 50 -37 10 -15 12 2 12 86 1 172 41 395 101 571 43
128 94 262 108 285 11 19 11 19 12 -2 0 -35 15 -27 50 26 42 67 59 80 74 60 7
-11 21 -15 41 -12 79 13 152 7 188 -16 21 -12 37 -29 37 -36 0 -7 20 -35 44
-61 24 -27 88 -101 142 -164 54 -63 123 -139 153 -167 31 -29 52 -53 47 -53
-18 0 72 -54 154 -93 112 -52 198 -81 349 -118 113 -28 136 -30 232 -25 84 4
108 2 112 -8 8 -21 -37 -108 -74 -142 -87 -79 -234 -172 -248 -158 -3 3 14 23
37 46 24 22 41 43 38 45 -3 3 -15 -5 -28 -16 -79 -74 -314 -196 -438 -227
-118 -29 -249 -14 -365 42 -126 61 -166 88 -240 159 -106 103 -172 199 -210
305 -23 65 -21 179 5 237 23 53 21 65 -6 31 -21 -27 -45 -44 -43 -31 1 4 1 17
0 28 -1 16 -3 17 -10 5 -5 -8 -11 -27 -15 -42 -5 -23 -3 -28 12 -28 17 0 18
-8 14 -88 -4 -81 -2 -93 27 -162 43 -101 109 -204 170 -267 46 -48 51 -57 51
-98 0 -62 -19 -137 -38 -152 -14 -12 -14 -13 2 -13 24 0 55 75 58 139 1 28 3
51 4 51 1 0 17 -12 36 -27 30 -25 33 -31 24 -55 -8 -22 -4 -36 17 -75 102
-183 126 -287 58 -244 -8 5 -26 5 -43 -1 -22 -8 -34 -6 -53 6 -14 9 -25 13
-25 9 0 -5 20 -45 45 -91 41 -76 45 -92 50 -173 4 -49 8 -98 10 -109 3 -17 1
-19 -17 -9 -19 10 -20 9 -15 -45 l6 -56 -30 0 c-18 0 -29 5 -29 14 0 23 -49
126 -60 126 -13 0 -2 -103 16 -148 11 -27 17 -32 37 -27 12 3 34 2 49 -4 43
-16 65 -5 60 31 -4 25 -2 30 11 25 22 -8 26 12 16 69 -5 27 -11 64 -14 82 -5
25 -3 32 6 26 25 -15 2 111 -31 166 -46 79 -39 90 45 64 43 -14 58 -15 67 -6
9 9 9 12 -3 12 -12 0 -12 2 1 10 12 7 12 12 -4 29 -10 11 -22 39 -28 63 -5 24
-24 73 -43 109 -18 36 -37 83 -41 104 -6 35 -5 38 12 30 10 -5 69 -26 129 -47
96 -33 122 -38 201 -38 97 0 178 23 268 75 46 27 112 50 171 60 41 6 192 79
249 118 57 40 145 129 160 162 9 18 16 58 16 89 0 76 -15 83 -142 67 -66 -8
-114 -9 -164 -2 -130 19 -400 126 -489 194 -69 52 -242 233 -369 383 -14 18
-26 36 -26 42 0 5 -19 27 -43 49 -57 53 -130 77 -203 68 -36 -4 -54 -3 -54 4
0 21 -56 11 -90 -16z"/>
<path d="M6633 14611 c-5 -27 -11 -79 -12 -116 -1 -37 -6 -78 -12 -91 -5 -14
-9 -33 -8 -42 0 -9 8 6 18 33 15 42 38 265 27 265 -2 0 -8 -22 -13 -49z"/>
<path d="M5505 14619 c3 -19 8 -70 9 -114 2 -44 11 -97 19 -117 20 -47 28 -49
17 -5 -5 17 -14 83 -21 145 -6 62 -16 115 -21 118 -5 3 -6 -9 -3 -27z"/>
<path d="M6587 14323 c-3 -10 -15 -45 -27 -78 -12 -33 -23 -64 -24 -70 -2 -5
-11 -28 -21 -50 -24 -54 -35 -95 -26 -95 4 0 15 24 26 53 10 28 21 57 25 62
12 16 63 186 57 191 -2 3 -7 -3 -10 -13z"/>
<path d="M5560 14312 c0 -17 37 -128 60 -177 10 -22 27 -64 37 -92 10 -29 21
-53 25 -53 11 0 10 18 -1 24 -5 3 -12 20 -15 38 -3 18 -13 47 -22 63 -9 17
-27 64 -40 105 -24 77 -44 117 -44 92z"/>
<path d="M5300 14151 c0 -17 155 -171 171 -171 7 0 -6 16 -29 35 -23 20 -64
61 -92 92 -27 32 -50 51 -50 44z"/>
<path d="M6794 14097 c-33 -34 -77 -76 -97 -94 -43 -38 -49 -53 -9 -25 53 38
189 184 170 182 -2 0 -30 -29 -64 -63z"/>
<path d="M5354 14121 c20 -22 26 -25 26 -13 0 4 -10 13 -22 21 -23 14 -23 14
-4 -8z"/>
<path d="M6784 14118 l-19 -23 23 19 c21 18 27 26 19 26 -2 0 -12 -10 -23 -22z"/>
<path d="M5425 14065 c22 -19 45 -35 51 -35 6 0 25 -7 43 -16 17 -8 37 -14 44
-11 7 3 4 7 -8 12 -53 19 -135 59 -135 66 0 4 -8 10 -17 13 -10 3 0 -10 22
-29z"/>
<path d="M6738 14084 c-8 -9 -42 -29 -74 -44 -33 -16 -53 -29 -46 -30 27 -1
151 74 141 85 -3 2 -12 -3 -21 -11z"/>
<path d="M6470 14005 c0 -8 5 -15 10 -15 6 0 10 7 10 15 0 8 -4 15 -10 15 -5
0 -10 -7 -10 -15z"/>
<path d="M6505 14001 c-4 -8 -9 -32 -10 -55 -1 -23 -6 -50 -10 -60 -6 -13 -5
-17 3 -12 13 8 37 107 30 127 -4 11 -6 11 -13 0z"/>
<path d="M5639 13988 c-3 -36 19 -118 32 -118 6 0 6 7 -1 19 -5 11 -10 38 -10
60 0 36 -18 70 -21 39z"/>
<path d="M5497 13959 c7 -7 15 -10 18 -7 3 3 -2 9 -12 12 -14 6 -15 5 -6 -5z"/>
<path d="M6630 13950 c-9 -6 -10 -10 -3 -10 6 0 15 5 18 10 8 12 4 12 -15 0z"/>
<path d="M5535 13930 c3 -5 11 -10 16 -10 6 0 7 5 4 10 -3 6 -11 10 -16 10 -6
0 -7 -4 -4 -10z"/>
<path d="M5251 13913 c0 -13 4 -23 9 -23 6 0 10 -23 10 -51 0 -35 3 -48 12
-43 7 5 8 3 3 -6 -4 -7 -2 -15 5 -20 9 -5 4 -30 -20 -96 -23 -66 -32 -112 -35
-179 l-5 -90 14 80 c15 88 37 178 61 245 9 25 12 47 6 54 -5 6 -12 37 -16 69
-5 43 -10 57 -20 53 -8 -3 -16 3 -18 12 -3 12 -5 11 -6 -5z"/>
<path d="M5480 13893 c-42 -29 -80 -71 -80 -88 0 -11 -7 -15 -22 -13 -21 3
-24 -5 -46 -107 -31 -150 -38 -200 -24 -191 6 3 10 20 10 36 -1 17 4 41 10 53
6 12 20 58 31 101 12 49 27 84 37 90 10 6 36 22 58 35 37 21 28 24 -16 6 -34
-14 -18 12 33 53 51 41 57 58 9 25z"/>
<path d="M6866 13879 c-3 -17 -6 -44 -6 -59 0 -16 -5 -30 -12 -32 -9 -3 -9
-15 1 -49 45 -169 71 -278 72 -304 1 -18 3 -23 6 -12 8 32 -15 172 -43 251
-25 73 -25 78 -9 102 10 16 15 41 14 65 -3 29 2 42 16 54 19 14 19 14 -6 15
-22 0 -28 -6 -33 -31z"/>
<path d="M6698 13854 c26 -25 39 -43 29 -40 -50 16 -70 19 -63 7 4 -6 11 -9
15 -6 5 2 28 -8 53 -24 43 -27 46 -33 67 -112 13 -46 29 -109 36 -139 9 -39
15 -50 20 -38 4 10 2 32 -4 50 -17 46 -43 187 -42 222 1 25 -1 28 -24 22 -20
-5 -27 -2 -34 17 -9 24 -75 87 -91 87 -5 0 12 -21 38 -46z"/>
</g>
</svg>
