<svg version="1.0" xmlns="http://www.w3.org/2000/svg"
 width="1200.000000pt" height="1600.000000pt" viewBox="0 0 1200.000000 1600.000000"
 preserveAspectRatio="xMidYMid meet">

<g transform="translate(0.000000,1600.000000) scale(0.100000,-0.100000)"
fill="#000000" stroke="none">
<path d="M6000 14159 c-327 -6 -387 -13 -524 -56 -89 -29 -116 -49 -242 -185
-90 -97 -181 -263 -214 -393 -10 -41 -26 -88 -35 -106 -13 -25 -15 -37 -6 -56
6 -13 11 -33 11 -44 0 -41 -61 -166 -105 -214 -44 -49 -44 -50 -25 -68 11 -10
20 -22 20 -27 0 -23 -50 -119 -83 -158 -21 -24 -37 -54 -37 -67 0 -13 -9 -30
-21 -39 -24 -16 -24 -17 23 -138 16 -43 34 -79 39 -79 5 -1 15 -2 22 -3 7 0
14 -22 17 -52 5 -48 10 -56 101 -152 52 -55 107 -110 122 -122 25 -20 27 -26
27 -103 0 -45 -5 -156 -10 -247 -5 -91 -14 -264 -20 -385 -8 -160 -16 -243
-32 -305 -11 -47 -21 -103 -20 -125 0 -48 57 -194 112 -289 67 -114 201 -297
227 -309 49 -22 77 21 49 77 -8 17 -32 74 -53 126 l-38 95 -2 405 c-2 223 -7
423 -13 445 -10 42 -25 433 -25 625 2 420 12 662 31 751 5 27 6 27 100 28 96
2 205 21 253 45 14 7 45 16 69 20 111 17 242 120 300 235 25 50 32 58 37 41 3
-11 3 -24 0 -30 -3 -5 -1 -10 4 -10 6 0 11 -10 11 -23 0 -31 48 -104 94 -145
40 -35 102 -69 111 -61 7 8 -26 90 -47 118 -10 13 -15 28 -11 34 4 7 12 -1 19
-18 11 -28 88 -78 184 -122 14 -6 46 -21 71 -32 54 -25 65 -28 174 -47 80 -14
134 -14 168 1 40 17 42 1 41 -418 0 -221 -3 -465 -8 -542 -5 -104 -4 -136 4
-125 8 11 9 -16 5 -105 -4 -66 -9 -133 -12 -150 -2 -16 -6 -223 -8 -460 -2
-245 -8 -443 -13 -460 -6 -16 -29 -75 -52 -130 -51 -122 -57 -147 -36 -164 25
-21 61 -5 97 41 18 24 58 72 89 108 69 79 100 135 133 237 59 179 70 250 51
329 -13 55 -25 233 -54 801 l-12 223 114 120 c109 117 113 123 118 173 4 44 8
52 25 52 22 0 40 31 78 137 35 95 17 169 -50 213 -29 20 -76 119 -68 145 3 10
12 21 21 24 16 6 4 25 -45 73 -35 34 -61 98 -71 178 -24 185 -69 333 -134 448
-73 127 -222 293 -300 334 -30 16 -101 38 -216 67 -77 20 -170 23 -530 15z
m73 -654 c-7 -21 -13 -19 -13 6 0 11 4 18 10 14 5 -3 7 -12 3 -20z m-12 -115
c-9 -23 -10 -23 -10 11 -1 20 2 39 7 43 11 12 14 -27 3 -54z m689 -200 c0 -5
-4 -10 -10 -10 -5 0 -10 5 -10 10 0 6 5 10 10 10 6 0 10 -4 10 -10z m-1357
-121 c-20 -34 -86 -76 -91 -59 -7 19 8 60 21 61 6 0 28 11 47 23 41 27 49 18
23 -25z m1402 17 c29 -13 35 -20 35 -45 0 -29 -1 -30 -26 -19 -14 7 -32 24
-40 39 -23 45 -21 46 31 25z m-1697 -610 c2 -119 -1 -166 -8 -161 -6 4 -10 21
-9 39 2 17 0 36 -4 42 -8 14 -17 240 -9 248 21 22 27 -13 30 -168z m1969 7
c-2 -21 -4 -6 -4 32 0 39 2 55 4 38 2 -18 2 -50 0 -70z m-1970 -250 c-2 -16
-4 -5 -4 22 0 28 2 40 4 28 2 -13 2 -35 0 -50z"/>
</g>
</svg>
<svg version="1.0" xmlns="http://www.w3.org/2000/svg"
 width="1200.000000pt" height="1600.000000pt" viewBox="0 0 1200.000000 1600.000000"
 preserveAspectRatio="xMidYMid meet">

<g transform="translate(0.000000,1600.000000) scale(0.100000,-0.100000)"
fill="#000000" stroke="none">
<path d="M6000 14159 c-327 -6 -387 -13 -524 -56 -89 -29 -116 -49 -242 -185
-90 -97 -181 -263 -214 -393 -10 -41 -26 -88 -35 -106 -13 -25 -15 -37 -6 -56
6 -13 11 -33 11 -44 0 -41 -61 -166 -105 -214 -44 -49 -44 -50 -25 -68 11 -10
20 -22 20 -27 0 -23 -50 -119 -83 -158 -21 -24 -37 -54 -37 -67 0 -13 -9 -30
-21 -39 -24 -16 -24 -17 23 -138 16 -43 34 -79 39 -79 5 -1 15 -2 22 -3 7 0
14 -22 17 -52 5 -48 10 -56 101 -152 52 -55 107 -110 122 -122 25 -20 27 -26
27 -103 0 -45 -5 -156 -10 -247 -5 -91 -14 -264 -20 -385 -8 -160 -16 -243
-32 -305 -11 -47 -21 -103 -20 -125 0 -48 57 -194 112 -289 67 -114 201 -297
227 -309 49 -22 77 21 49 77 -8 17 -32 74 -53 126 l-38 95 -2 405 c-2 223 -7
423 -13 445 -10 43 -25 434 -24 625 4 908 5 935 50 1020 13 25 41 83 63 130
40 85 137 248 171 285 10 11 20 29 24 40 3 12 20 29 37 39 16 10 44 31 60 47
23 23 34 27 48 20 27 -15 73 -21 106 -15 38 7 46 50 11 57 -12 3 -7 5 15 6 59
2 63 -14 20 -78 -21 -31 -41 -69 -45 -86 l-6 -30 22 25 c23 26 49 41 101 60
23 8 27 7 27 -9 0 -12 -9 -21 -24 -25 -21 -5 -29 -21 -56 -103 -43 -134 -43
-131 -23 -108 10 11 31 28 46 38 15 10 32 30 38 45 5 15 14 36 19 47 5 11 19
45 30 76 23 64 44 89 102 122 48 28 163 43 213 28 24 -7 26 -9 8 -10 -22 -1
-44 -21 -23 -21 7 0 10 -6 7 -14 -7 -18 42 -25 94 -13 33 8 42 4 104 -37 37
-25 73 -54 79 -64 6 -11 32 -46 59 -78 57 -71 85 -129 89 -180 1 -24 15 -58
35 -87 18 -27 33 -55 33 -62 0 -8 9 -17 20 -20 11 -4 28 -21 38 -38 16 -29 17
-75 16 -537 0 -278 -4 -568 -8 -645 -5 -104 -4 -136 4 -125 8 11 9 -16 5 -105
-4 -66 -9 -133 -12 -150 -2 -16 -6 -223 -8 -460 -2 -245 -8 -443 -13 -460 -6
-16 -29 -75 -52 -130 -51 -122 -57 -147 -36 -164 25 -21 61 -5 97 41 18 24 58
72 89 108 69 79 100 135 133 237 59 179 70 250 51 329 -13 55 -25 233 -54 801
l-12 223 114 120 c109 117 113 123 118 173 4 44 8 52 25 52 22 0 40 31 78 137
35 95 17 169 -50 213 -29 20 -76 119 -68 145 3 10 12 21 21 24 16 6 4 25 -45
73 -35 34 -61 98 -71 178 -24 185 -69 333 -134 448 -73 127 -222 293 -300 334
-30 16 -101 38 -216 67 -77 20 -170 23 -530 15z m0 -363 c0 -2 -8 -10 -17 -17
-16 -13 -17 -12 -4 4 13 16 21 21 21 13z m-902 -1320 c2 -119 -1 -166 -8 -161
-6 4 -10 21 -9 39 2 17 0 36 -4 42 -8 14 -17 240 -9 248 21 22 27 -13 30 -168z
m1969 7 c-2 -21 -4 -6 -4 32 0 39 2 55 4 38 2 -18 2 -50 0 -70z m-1970 -250
c-2 -16 -4 -5 -4 22 0 28 2 40 4 28 2 -13 2 -35 0 -50z"/>
</g>
</svg>
