<svg width="2400" height="3200" xmlns="http://www.w3.org/2000/svg" viewBox="0 0 2400 3200"><path d="M 1085.99 1142.0 C 1085.57 1142.0 1084.5 1140.89 1083.62 1139.54 C 1082.73 1138.18 1082.0 1136.44 1082.0 1135.67 C 1082.0 1134.9 1078.65 1130.9 1074.55 1126.78 C 1070.46 1122.66 1065.82 1118.75 1064.24 1118.1 C 1062.46 1117.36 1060.08 1114.75 1057.96 1111.2 C 1056.09 1108.07 1052.76 1102.8 1050.57 1099.5 C 1048.37 1096.2 1046.28 1093.28 1045.92 1093.0 C 1045.56 1092.72 1044.26 1090.47 1043.02 1088.0 C 1041.79 1085.53 1038.29 1079.45 1035.24 1074.5 C 1032.2 1069.55 1028.7 1063.92 1027.46 1062.0 C 1026.23 1060.08 1023.97 1056.25 1022.45 1053.5 C 1020.93 1050.75 1018.43 1046.03 1016.9 1043.0 C 1015.37 1039.97 1013.45 1035.92 1012.63 1034.0 C 1011.81 1032.08 1010.47 1028.47 1009.66 1026.0 C 1008.84 1023.52 1006.83 1017.0 1005.2 1011.5 C 1003.57 1006.0 1001.7 999.25 1001.04 996.5 C 1000.38 993.75 998.91 988.41 997.76 984.64 L 995.68 977.79 C 999.13 958.96 1000.52 951.25 1001.0 948.5 C 1001.48 945.75 1002.35 939.9 1002.94 935.5 C 1003.53 931.1 1004.5 921.65 1005.11 914.5 C 1005.71 907.35 1006.37 901.23 1006.57 900.89 C 1006.78 900.55 1007.19 895.15 1007.49 888.89 C 1007.79 882.63 1008.24 874.8 1008.51 871.5 C 1008.77 868.2 1009.21 856.27 1009.5 845.0 C 1009.79 833.73 1010.51 813.92 1011.12 801.0 C 1011.72 788.08 1012.05 775.25 1011.85 772.5 C 1011.62 769.25 1011.07 767.58 1010.28 767.74 C 1009.61 767.87 1008.64 767.2 1008.12 766.24 C 1007.61 765.28 1005.37 762.59 1003.15 760.26 C 1000.92 757.93 998.32 754.33 997.35 752.26 C 996.39 750.19 994.39 746.92 992.92 745.0 C 991.44 743.08 989.97 740.38 989.65 739.0 C 989.33 737.62 984.57 731.95 979.06 726.39 C 973.56 720.83 968.61 715.1 968.06 713.65 C 967.42 711.97 967.36 706.44 967.9 698.26 C 968.37 691.24 968.37 685.09 967.91 684.58 C 967.41 684.04 966.89 684.25 966.64 685.08 C 966.41 685.86 965.66 689.19 964.98 692.48 L 963.75 698.46 C 957.04 690.74 954.44 686.7 953.65 684.5 C 952.86 682.3 950.11 675.1 947.53 668.5 C 944.96 661.9 942.22 654.7 941.44 652.5 C 940.66 650.3 940.02 647.79 940.01 646.93 C 940.01 646.07 941.37 642.7 943.03 639.43 C 944.7 636.17 947.98 631.48 950.32 629.0 C 952.66 626.52 955.94 622.7 957.62 620.5 C 959.3 618.3 962.78 612.52 965.34 607.65 C 967.9 602.79 970.0 598.63 970.0 598.4 C 970.0 598.18 969.38 598.0 968.62 598.0 C 967.86 598.0 966.67 597.31 965.97 596.47 C 964.92 595.2 965.03 594.67 966.6 593.39 C 968.42 591.92 968.39 591.87 966.04 592.39 C 964.68 592.68 960.9 592.65 957.64 592.3 C 953.03 591.82 952.04 591.44 953.19 590.59 C 954.01 589.99 955.99 588.49 957.59 587.25 C 959.19 586.01 963.46 582.8 967.08 580.1 C 970.7 577.4 975.58 573.24 977.93 570.85 C 980.27 568.46 982.92 565.15 983.81 563.5 C 984.69 561.85 986.22 557.58 987.19 554.0 C 988.16 550.42 989.26 543.85 989.62 539.39 C 990.05 534.03 989.91 531.06 989.2 530.62 C 988.47 530.18 988.71 528.6 989.95 525.73 C 990.95 523.4 992.31 518.35 992.97 514.5 C 993.63 510.65 994.86 504.12 995.71 500.0 C 996.56 495.88 997.61 490.4 998.05 487.82 C 998.49 485.25 999.49 482.1 1000.27 480.82 C 1001.05 479.55 1002.28 476.48 1003.02 474.0 C 1003.75 471.52 1004.72 469.07 1005.17 468.55 C 1005.63 468.03 1006.0 466.61 1006.0 465.39 C 1006.0 464.18 1006.84 461.46 1007.86 459.34 C 1008.89 457.23 1012.08 450.55 1014.97 444.5 C 1017.85 438.45 1022.73 429.69 1025.81 425.04 C 1028.89 420.38 1033.43 414.08 1035.9 411.04 C 1038.37 407.99 1042.89 403.01 1045.95 399.96 C 1049.0 396.92 1053.97 392.62 1057.0 390.41 C 1060.03 388.21 1063.78 385.76 1065.34 384.98 C 1066.9 384.21 1069.16 382.65 1070.37 381.54 C 1071.58 380.42 1073.91 378.9 1075.54 378.16 C 1077.17 377.42 1082.1 375.99 1086.5 374.98 C 1090.9 373.98 1096.3 372.64 1098.5 372.01 C 1100.7 371.38 1104.3 370.41 1106.5 369.86 C 1108.7 369.31 1112.08 368.64 1114.0 368.37 C 1115.92 368.1 1118.4 367.49 1119.5 367.01 C 1120.6 366.54 1123.75 365.85 1126.5 365.5 C 1129.25 365.14 1134.42 364.44 1138.0 363.94 C 1141.58 363.44 1148.55 362.77 1153.5 362.45 C 1158.45 362.14 1164.53 361.56 1167.0 361.18 C 1169.47 360.8 1178.52 360.72 1187.1 361.0 C 1196.63 361.3 1203.24 361.95 1204.1 362.65 C 1204.87 363.28 1207.75 363.96 1210.5 364.15 C 1214.57 364.43 1216.39 363.98 1220.26 361.7 C 1222.88 360.16 1225.5 359.19 1226.07 359.54 C 1226.64 359.9 1233.31 360.13 1240.87 360.06 C 1248.44 359.99 1260.9 360.42 1268.57 361.02 C 1276.23 361.62 1287.0 362.77 1292.5 363.58 C 1298.0 364.39 1304.75 365.49 1307.5 366.02 C 1310.25 366.55 1314.53 367.47 1317.0 368.07 C 1319.47 368.66 1322.97 369.39 1324.76 369.68 C 1326.55 369.98 1328.27 370.62 1328.57 371.11 C 1328.87 371.6 1330.24 372.0 1331.61 372.0 C 1332.98 372.0 1335.36 372.65 1336.89 373.44 C 1338.43 374.24 1342.12 375.2 1345.09 375.58 C 1348.07 375.96 1352.3 377.16 1354.5 378.24 C 1356.7 379.32 1361.65 382.28 1365.5 384.81 C 1369.35 387.35 1374.08 390.71 1376.0 392.28 C 1377.92 393.85 1381.69 397.02 1384.37 399.32 C 1387.05 401.62 1390.2 404.91 1391.37 406.63 C 1392.54 408.36 1396.31 413.39 1399.75 417.82 C 1403.19 422.26 1406.0 426.29 1406.0 426.79 C 1406.0 427.28 1406.96 428.55 1408.13 429.6 C 1409.3 430.64 1411.26 433.07 1412.47 435.0 C 1413.69 436.93 1416.05 440.98 1417.72 444.0 C 1419.38 447.02 1422.58 454.45 1424.81 460.5 C 1427.05 466.55 1429.78 474.65 1430.89 478.5 C 1432.0 482.35 1434.05 489.94 1435.45 495.36 C 1436.85 500.78 1438.0 506.55 1438.0 508.17 C 1438.0 509.79 1438.42 513.0 1438.92 515.31 C 1439.43 517.61 1440.36 525.35 1440.98 532.5 C 1441.6 539.65 1442.62 548.42 1443.24 552.0 C 1443.87 555.58 1445.14 560.3 1446.06 562.5 C 1446.98 564.7 1449.88 568.64 1452.5 571.26 C 1455.13 573.87 1461.95 579.49 1467.67 583.75 C 1473.39 588.0 1477.71 591.56 1477.28 591.66 C 1476.85 591.76 1473.91 592.14 1470.74 592.5 C 1467.57 592.85 1465.21 593.53 1465.5 593.99 C 1465.78 594.46 1465.31 595.55 1464.44 596.42 C 1463.57 597.29 1462.21 598.0 1461.43 598.0 C 1460.64 598.0 1460.0 598.19 1460.0 598.41 C 1460.0 598.64 1461.86 602.36 1464.13 606.66 C 1466.4 610.97 1469.18 615.85 1470.3 617.5 C 1471.43 619.15 1474.75 623.49 1477.7 627.14 C 1481.51 631.87 1483.48 635.42 1484.53 639.44 C 1485.34 642.55 1486.0 646.36 1486.0 647.9 C 1486.0 649.44 1485.51 652.23 1484.92 654.1 C 1484.32 655.97 1483.36 658.62 1482.78 660.0 C 1482.21 661.38 1481.37 663.4 1480.94 664.5 C 1480.5 665.6 1479.15 669.2 1477.94 672.5 C 1476.73 675.8 1474.94 680.64 1473.96 683.24 C 1472.98 685.85 1470.7 689.9 1468.9 692.24 C 1467.09 694.59 1465.48 696.69 1465.31 696.92 C 1465.14 697.15 1464.76 697.09 1464.46 696.79 C 1464.16 696.5 1463.04 693.84 1461.96 690.89 C 1460.88 687.94 1460.0 684.51 1460.0 683.26 C 1460.0 682.02 1459.5 681.0 1458.89 681.0 C 1458.12 681.0 1457.95 683.54 1458.32 689.25 C 1458.62 693.79 1459.18 701.11 1459.56 705.51 L 1460.26 713.53 C 1443.52 731.14 1441.0 734.5 1440.49 737.19 C 1440.12 739.16 1438.85 742.25 1437.66 744.07 C 1436.47 745.88 1434.38 749.27 1433.0 751.6 C 1431.62 753.92 1428.7 757.93 1426.5 760.5 C 1424.3 763.08 1421.66 766.09 1420.63 767.21 C 1418.91 769.08 1418.81 770.53 1419.39 786.37 C 1419.74 795.79 1420.26 811.6 1420.57 821.5 C 1420.87 831.4 1421.57 848.73 1422.13 860.0 C 1422.68 871.27 1423.49 887.02 1423.92 895.0 C 1424.35 902.98 1424.97 910.17 1425.3 911.0 C 1425.63 911.83 1426.38 918.12 1426.97 925.0 C 1427.57 931.88 1428.52 940.42 1429.1 944.0 C 1429.68 947.58 1430.54 952.08 1431.01 954.0 C 1431.48 955.92 1432.37 960.88 1433.0 965.0 C 1433.62 969.12 1434.57 974.18 1435.1 976.23 C 1435.81 978.97 1435.68 981.48 1434.59 985.64 C 1433.77 988.76 1432.57 991.65 1431.91 992.06 C 1431.25 992.46 1430.37 994.75 1429.95 997.15 C 1429.53 999.54 1428.44 1005.24 1427.52 1009.8 C 1426.58 1014.46 1423.97 1022.14 1421.56 1027.3 C 1419.21 1032.36 1416.05 1039.2 1414.55 1042.5 C 1413.05 1045.8 1410.51 1050.64 1408.91 1053.27 C 1407.31 1055.89 1406.0 1058.48 1406.0 1059.02 C 1406.0 1059.57 1404.65 1061.88 1403.0 1064.16 C 1401.35 1066.44 1400.0 1068.73 1400.0 1069.26 C 1400.0 1069.78 1398.75 1071.85 1397.23 1073.86 C 1395.71 1075.86 1393.38 1079.53 1392.05 1082.0 C 1390.72 1084.47 1388.87 1087.62 1387.93 1089.0 C 1387.0 1090.38 1383.69 1095.43 1380.59 1100.24 C 1377.49 1105.04 1374.7 1109.62 1374.4 1110.41 C 1374.09 1111.2 1374.35 1112.78 1374.96 1113.92 C 1375.73 1115.36 1375.75 1116.54 1375.05 1117.75 C 1374.49 1118.71 1373.35 1120.37 1372.52 1121.44 C 1371.04 1123.33 1370.93 1123.31 1368.0 1120.5 L 1365.0 1117.62 C 1353.41 1129.15 1350.01 1133.17 1349.95 1134.0 C 1349.9 1134.83 1349.06 1136.85 1348.1 1138.5 C 1347.13 1140.15 1345.59 1141.65 1344.67 1141.82 C 1343.75 1142.0 1342.71 1141.41 1342.36 1140.5 C 1342.01 1139.59 1342.28 1136.97 1342.96 1134.68 C 1343.64 1132.38 1344.6 1129.72 1345.1 1128.76 C 1345.59 1127.81 1346.0 1126.21 1346.0 1125.21 C 1346.0 1124.22 1345.47 1122.87 1344.83 1122.23 C 1343.94 1121.34 1344.04 1120.17 1345.25 1117.28 C 1346.12 1115.2 1347.58 1109.22 1348.5 1104.0 C 1349.42 1098.78 1350.83 1092.25 1351.63 1089.5 C 1352.43 1086.75 1353.55 1081.35 1354.12 1077.5 C 1354.69 1073.65 1355.57 1068.03 1356.08 1065.0 C 1356.58 1061.97 1357.51 1056.12 1358.14 1052.0 C 1358.77 1047.88 1359.39 1036.27 1359.52 1026.22 C 1359.71 1010.95 1360.01 1007.64 1361.37 1006.14 C 1362.74 1004.63 1363.0 1001.6 1363.01 986.92 C 1363.01 977.34 1363.44 962.08 1363.96 953.0 C 1364.48 943.92 1365.15 929.75 1365.46 921.5 C 1365.77 913.25 1366.46 897.95 1366.99 887.5 C 1367.52 877.05 1368.42 857.7 1368.99 844.5 C 1369.56 831.3 1370.45 805.2 1370.96 786.5 C 1371.47 767.8 1371.91 738.55 1371.93 721.5 C 1371.95 704.45 1372.37 682.85 1372.87 673.5 C 1373.38 664.15 1373.54 651.38 1373.24 645.12 C 1372.79 635.54 1372.44 633.67 1371.01 633.29 C 1369.63 632.93 1369.12 630.78 1368.25 621.81 C 1367.66 615.74 1366.8 610.41 1366.34 609.96 C 1365.88 609.52 1363.47 609.59 1361.0 610.12 C 1358.53 610.65 1355.15 611.23 1353.5 611.4 C 1351.85 611.57 1349.83 611.36 1349.0 610.94 C 1348.18 610.52 1343.0 609.65 1337.5 609.02 C 1332.0 608.38 1326.38 607.71 1325.0 607.53 C 1323.62 607.35 1321.25 606.71 1319.72 606.11 C 1318.18 605.51 1316.61 605.09 1316.22 605.18 C 1315.82 605.26 1314.15 604.98 1312.5 604.56 C 1310.85 604.14 1306.8 602.92 1303.5 601.83 C 1300.2 600.75 1296.6 599.52 1295.5 599.09 C 1294.4 598.66 1290.58 596.88 1287.0 595.14 C 1283.42 593.39 1278.25 590.58 1275.5 588.89 C 1272.75 587.2 1269.57 584.95 1268.44 583.91 C 1267.3 582.86 1265.91 582.0 1265.35 582.0 C 1264.79 582.0 1263.02 580.66 1261.42 579.03 C 1259.81 577.39 1257.94 576.04 1257.25 576.03 C 1256.56 576.01 1256.0 576.56 1256.01 577.25 C 1256.01 577.94 1258.25 581.37 1260.97 584.88 C 1264.91 589.96 1265.73 591.64 1264.96 593.07 C 1264.43 594.06 1264.0 595.09 1264.0 595.36 C 1264.0 595.63 1264.78 596.63 1265.72 597.58 C 1267.36 599.22 1267.26 599.27 1263.84 598.63 C 1261.85 598.26 1258.42 596.95 1256.22 595.73 C 1254.02 594.5 1250.08 592.26 1247.48 590.75 C 1244.88 589.24 1242.38 588.0 1241.92 588.0 C 1241.47 588.0 1238.89 586.76 1236.2 585.25 C 1233.5 583.74 1229.99 581.38 1228.39 580.0 C 1226.78 578.62 1224.05 575.7 1222.3 573.5 C 1220.55 571.3 1217.52 566.64 1215.56 563.15 C 1213.6 559.66 1211.3 554.38 1210.43 551.42 C 1209.57 548.46 1208.48 545.8 1208.01 545.51 C 1207.54 545.22 1205.79 547.38 1204.11 550.31 C 1202.43 553.25 1197.22 559.53 1192.53 564.27 C 1187.84 569.01 1184.0 573.39 1184.0 574.0 C 1184.0 574.6 1182.31 575.87 1180.25 576.82 C 1178.19 577.77 1172.41 581.28 1167.4 584.62 C 1162.4 587.97 1155.88 591.84 1152.9 593.23 C 1149.93 594.63 1145.92 596.31 1144.0 596.98 C 1142.08 597.65 1139.6 598.57 1138.5 599.02 C 1137.4 599.47 1135.6 600.07 1134.5 600.35 C 1133.4 600.63 1130.65 601.55 1128.4 602.38 C 1126.14 603.21 1122.54 604.14 1120.4 604.45 C 1118.25 604.75 1114.7 605.43 1112.5 605.96 C 1110.3 606.48 1107.38 607.13 1106.0 607.4 C 1104.62 607.67 1100.12 608.36 1096.0 608.94 C 1091.88 609.52 1084.67 610.06 1080.0 610.13 C 1075.33 610.2 1069.47 609.95 1067.0 609.56 C 1062.73 608.9 1062.44 609.01 1061.32 611.68 C 1060.67 613.23 1059.63 616.45 1059.0 618.84 C 1058.26 621.72 1057.88 636.01 1057.9 661.13 C 1057.92 682.0 1058.22 699.54 1058.57 700.11 C 1058.92 700.68 1059.35 723.5 1059.53 750.82 C 1059.7 778.15 1060.34 811.3 1060.95 824.5 C 1061.55 837.7 1062.71 861.77 1063.53 878.0 C 1064.35 894.23 1065.5 917.85 1066.09 930.5 C 1066.68 943.15 1067.46 964.98 1067.83 979.0 C 1068.2 993.02 1068.96 1005.17 1069.5 1006.0 C 1070.05 1006.83 1070.53 1012.9 1070.57 1019.5 C 1070.6 1026.1 1070.94 1035.78 1071.33 1041.0 C 1071.71 1046.22 1072.29 1051.17 1072.61 1052.0 C 1072.93 1052.83 1073.64 1056.42 1074.17 1060.0 C 1074.71 1063.58 1075.56 1068.97 1076.06 1072.0 C 1076.57 1075.03 1077.39 1079.53 1077.89 1082.0 C 1078.4 1084.47 1080.02 1092.8 1081.5 1100.5 C 1082.98 1108.2 1084.76 1115.67 1085.46 1117.09 C 1086.46 1119.14 1086.47 1120.3 1085.52 1122.59 C 1084.53 1125.0 1084.61 1126.2 1086.0 1129.5 C 1086.93 1131.7 1088.0 1134.78 1088.39 1136.35 C 1088.81 1138.06 1088.62 1139.75 1087.92 1140.6 C 1087.28 1141.37 1086.41 1142.0 1085.99 1142.0 Z M 1075.27 1116.0 C 1075.9 1116.0 1075.9 1115.56 1075.28 1114.75 C 1074.75 1114.06 1073.79 1111.47 1073.15 1109.0 C 1072.51 1106.53 1071.27 1100.22 1070.39 1095.0 C 1069.52 1089.78 1068.59 1084.15 1068.34 1082.5 C 1068.09 1080.85 1067.2 1075.45 1066.37 1070.5 C 1065.54 1065.55 1064.41 1058.35 1063.85 1054.5 C 1063.3 1050.65 1062.68 1043.9 1062.49 1039.5 C 1062.3 1035.1 1061.79 1018.67 1061.37 1003.0 C 1060.95 987.33 1060.6 968.88 1060.59 962.0 C 1060.57 955.12 1060.76 943.5 1061.0 936.17 C 1061.24 928.84 1061.75 922.66 1062.12 922.42 C 1062.5 922.19 1062.62 919.41 1062.38 916.25 C 1062.15 913.09 1061.3 900.83 1060.49 889.0 C 1059.69 877.17 1058.58 861.88 1058.03 855.0 C 1057.48 848.12 1056.55 834.62 1055.96 825.0 C 1055.38 815.38 1054.42 784.55 1053.85 756.5 C 1053.27 728.45 1052.67 683.31 1052.52 656.2 L 1052.25 606.89 C 1048.08 602.45 1047.92 601.8 1049.0 600.51 C 1049.7 599.65 1050.01 598.67 1049.67 598.33 C 1049.33 597.99 1048.47 598.14 1047.77 598.65 C 1047.07 599.16 1044.72 600.19 1042.55 600.93 C 1040.38 601.67 1035.88 602.4 1032.55 602.56 C 1029.22 602.72 1025.03 603.16 1023.24 603.54 C 1021.02 604.01 1019.84 604.91 1019.55 606.36 C 1019.31 607.54 1018.89 613.0 1018.61 618.5 C 1018.33 624.0 1018.46 657.3 1018.91 692.5 C 1019.36 728.35 1019.34 759.8 1018.85 764.0 C 1018.37 768.12 1016.83 795.35 1015.43 824.5 C 1014.03 853.65 1012.24 890.77 1011.45 907.0 C 1010.66 923.23 1009.77 939.42 1009.47 943.0 C 1009.18 946.58 1008.51 951.98 1008.0 955.0 C 1007.5 958.02 1006.65 962.98 1006.12 966.0 C 1005.6 969.02 1005.35 976.59 1005.58 982.8 C 1005.8 989.02 1006.44 994.95 1006.99 995.99 C 1007.55 997.02 1008.0 998.92 1008.0 1000.21 C 1008.0 1001.5 1009.13 1006.14 1010.52 1010.53 C 1011.91 1014.91 1013.48 1019.28 1014.02 1020.24 C 1014.56 1021.19 1015.0 1022.62 1015.0 1023.41 C 1015.0 1024.19 1015.66 1026.11 1016.47 1027.67 C 1017.28 1029.23 1020.32 1035.56 1023.22 1041.74 C 1026.13 1047.93 1028.9 1052.99 1029.38 1052.99 C 1029.87 1053.0 1029.98 1051.31 1029.63 1049.25 C 1029.28 1047.19 1028.73 1040.33 1028.4 1034.0 C 1028.02 1026.89 1028.19 1021.55 1028.83 1020.0 C 1029.84 1017.59 1029.88 1017.62 1029.96 1021.0 C 1030.0 1022.92 1030.66 1028.33 1031.41 1033.0 C 1032.17 1037.67 1033.55 1045.55 1034.48 1050.5 C 1035.41 1055.45 1037.04 1061.41 1038.09 1063.74 C 1039.14 1066.07 1040.0 1068.44 1040.0 1069.0 C 1040.0 1069.57 1040.4 1070.81 1040.89 1071.76 C 1041.38 1072.72 1043.01 1075.97 1044.52 1079.0 C 1046.04 1082.03 1048.71 1086.08 1050.46 1088.0 C 1052.21 1089.92 1056.75 1095.33 1060.54 1100.0 C 1064.33 1104.67 1067.9 1109.1 1068.47 1109.84 C 1069.03 1110.58 1070.58 1112.27 1071.9 1113.59 C 1073.21 1114.92 1074.73 1116.0 1075.27 1116.0 Z M 1356.75 1115.96 C 1357.16 1115.94 1360.2 1112.52 1363.5 1108.36 C 1366.8 1104.2 1371.53 1098.42 1374.0 1095.51 C 1376.47 1092.6 1379.9 1088.47 1381.62 1086.33 C 1383.34 1084.19 1385.93 1080.11 1387.37 1077.25 C 1388.82 1074.4 1390.0 1071.46 1390.0 1070.72 C 1390.0 1069.98 1390.85 1067.6 1391.9 1065.44 C 1392.94 1063.27 1394.95 1056.33 1396.37 1050.0 C 1397.78 1043.67 1399.2 1035.8 1399.52 1032.5 C 1399.84 1029.2 1400.38 1024.92 1400.72 1023.0 L 1401.33 1019.5 C 1402.51 1025.7 1402.43 1032.45 1401.92 1038.5 C 1401.4 1044.55 1400.71 1050.74 1400.38 1052.25 C 1399.99 1053.97 1400.18 1055.0 1400.88 1055.0 C 1401.5 1055.0 1402.0 1054.14 1402.0 1053.08 C 1402.0 1052.03 1402.34 1051.02 1402.75 1050.83 C 1403.16 1050.65 1404.83 1047.58 1406.46 1044.0 C 1408.09 1040.42 1410.0 1036.79 1410.71 1035.92 C 1411.42 1035.05 1412.0 1033.39 1412.0 1032.23 C 1412.0 1031.07 1412.39 1029.87 1412.88 1029.58 C 1413.36 1029.28 1414.66 1026.66 1415.78 1023.77 C 1416.89 1020.87 1418.77 1015.12 1419.95 1011.0 C 1421.13 1006.88 1422.51 1002.15 1423.02 1000.5 C 1423.52 998.85 1424.27 995.02 1424.68 992.0 C 1425.09 988.98 1425.41 982.45 1425.39 977.5 C 1425.37 972.55 1424.82 965.8 1424.15 962.5 C 1423.49 959.2 1422.52 951.77 1422.0 946.0 C 1421.48 940.23 1420.6 925.6 1420.04 913.5 C 1419.48 901.4 1418.57 883.85 1418.02 874.5 C 1417.46 865.15 1416.04 839.5 1414.86 817.5 C 1413.15 785.74 1412.65 763.18 1412.44 708.0 C 1412.29 669.77 1411.87 631.75 1411.5 623.5 C 1411.14 615.25 1410.63 607.58 1410.37 606.46 C 1410.02 604.96 1408.53 604.11 1404.67 603.21 C 1401.79 602.55 1397.88 601.99 1395.97 601.97 C 1394.06 601.95 1390.03 601.08 1387.01 600.04 C 1383.99 599.0 1381.29 598.4 1381.01 598.71 C 1380.73 599.02 1381.06 599.47 1381.75 599.72 C 1382.44 599.97 1383.0 601.03 1383.0 602.08 C 1383.0 603.14 1382.56 604.0 1382.03 604.0 C 1381.49 604.0 1380.33 605.4 1379.45 607.1 C 1378.04 609.82 1377.87 615.34 1378.03 651.85 C 1378.14 674.76 1377.73 719.15 1377.13 750.5 C 1376.54 781.85 1375.59 815.15 1375.02 824.5 C 1374.45 833.85 1373.01 853.2 1371.83 867.5 C 1370.31 885.72 1369.7 900.68 1369.78 917.5 C 1369.85 930.7 1369.9 951.62 1369.89 964.0 C 1369.89 976.38 1369.75 994.83 1369.59 1005.0 C 1369.43 1015.17 1368.96 1028.22 1368.55 1034.0 C 1368.14 1039.78 1367.13 1048.33 1366.31 1053.0 C 1365.49 1057.67 1364.42 1065.46 1363.94 1070.3 C 1363.45 1075.14 1362.86 1079.42 1362.62 1079.81 C 1362.38 1080.2 1362.06 1082.76 1361.92 1085.51 C 1361.78 1088.25 1361.28 1091.01 1360.81 1091.63 C 1360.34 1092.25 1359.77 1095.4 1359.54 1098.63 C 1359.32 1101.86 1358.44 1106.75 1357.58 1109.5 C 1356.72 1112.25 1356.02 1114.84 1356.01 1115.25 C 1356.0 1115.66 1356.34 1115.98 1356.75 1115.96 Z M 1009.19 753.77 C 1009.79 753.57 1010.55 750.73 1010.88 747.45 C 1011.21 744.18 1011.34 734.75 1011.18 726.5 C 1011.01 718.25 1010.79 701.6 1010.69 689.5 C 1010.58 677.4 1010.66 653.84 1010.86 637.14 L 1011.22 606.78 C 998.26 606.43 992.64 605.98 990.37 605.56 C 986.27 604.79 986.24 604.8 985.69 608.14 C 985.39 609.99 984.66 613.52 984.07 616.0 C 983.47 618.48 982.32 624.77 981.5 630.0 C 980.68 635.23 979.33 644.23 978.49 650.0 C 977.65 655.77 976.49 662.75 975.91 665.5 C 975.33 668.25 974.63 679.05 974.35 689.5 C 973.85 708.21 973.88 708.55 976.17 711.66 C 977.45 713.4 980.23 717.11 982.34 719.91 C 984.46 722.71 986.6 725.0 987.09 725.0 C 987.59 725.0 988.0 723.69 988.0 722.08 C 988.0 720.48 988.27 718.45 988.61 717.58 C 988.94 716.71 989.55 716.0 989.97 716.0 C 990.38 716.0 991.03 719.49 991.41 723.75 C 991.79 728.01 992.52 733.12 993.04 735.09 C 993.57 737.07 995.46 740.29 997.25 742.24 C 999.04 744.2 1002.21 747.67 1004.3 749.97 C 1006.39 752.26 1008.59 753.97 1009.19 753.77 Z M 1421.03 754.0 C 1421.6 754.0 1422.32 753.33 1422.64 752.51 C 1422.95 751.68 1423.56 751.23 1423.98 751.49 C 1424.41 751.75 1425.96 750.22 1427.43 748.1 C 1428.91 745.97 1431.42 743.07 1433.01 741.65 C 1434.6 740.23 1436.35 737.37 1436.89 735.29 C 1437.43 733.2 1438.19 727.79 1438.57 723.25 C 1438.95 718.71 1439.61 715.0 1440.05 715.0 C 1440.48 715.0 1441.14 716.35 1441.5 718.0 C 1441.86 719.65 1442.77 721.0 1443.51 721.0 C 1444.26 721.0 1445.15 720.11 1445.49 719.02 C 1445.84 717.93 1447.67 715.19 1449.56 712.93 L 1453.0 708.81 C 1452.91 689.97 1452.48 680.0 1451.98 674.5 C 1451.48 669.0 1450.57 662.25 1449.95 659.5 C 1449.34 656.75 1448.45 650.9 1447.99 646.5 C 1447.53 642.1 1446.7 636.02 1446.15 633.0 C 1445.6 629.98 1444.61 625.02 1443.96 622.0 C 1443.31 618.98 1442.46 614.61 1442.06 612.3 C 1441.66 609.99 1440.79 607.46 1440.14 606.67 C 1439.23 605.57 1438.05 605.43 1435.22 606.09 C 1433.17 606.56 1428.62 606.96 1425.11 606.98 L 1418.72 607.0 C 1420.13 699.0 1420.06 702.8 1418.5 704.36 C 1416.95 705.91 1416.9 707.75 1417.96 727.27 C 1418.6 738.95 1419.28 749.62 1419.48 751.0 C 1419.67 752.38 1419.87 753.61 1419.92 753.75 C 1419.96 753.89 1420.46 754.0 1421.03 754.0 Z M 1013.61 693.0 C 1013.82 693.0 1014.0 690.3 1014.0 687.0 C 1014.0 683.67 1013.56 681.0 1013.0 681.0 C 1012.45 681.0 1012.0 682.99 1012.0 685.42 C 1012.0 687.85 1012.27 690.55 1012.61 691.42 C 1012.94 692.29 1013.39 693.0 1013.61 693.0 Z M 969.0 682.5 C 969.55 682.16 970.0 681.46 970.0 680.94 C 970.0 680.42 969.55 680.0 969.0 680.0 C 968.45 680.0 968.0 680.7 968.0 681.56 C 968.0 682.42 968.45 682.84 969.0 682.5 Z M 1466.84 681.0 C 1467.25 681.0 1468.82 677.29 1470.33 672.75 C 1471.84 668.21 1473.71 661.8 1474.5 658.5 C 1475.29 655.2 1475.94 651.05 1475.96 649.28 C 1475.98 647.5 1475.03 642.33 1473.84 637.78 C 1472.23 631.61 1470.61 628.1 1467.49 624.0 C 1465.18 620.98 1461.31 614.77 1458.9 610.22 L 1454.5 601.94 C 1448.3 602.94 1446.31 603.4 1446.08 603.62 C 1445.85 603.83 1446.16 605.01 1446.77 606.25 C 1447.38 607.49 1448.64 611.88 1449.56 616.0 C 1450.48 620.12 1452.05 627.33 1453.05 632.0 C 1454.06 636.67 1455.6 643.88 1456.48 648.0 C 1457.36 652.12 1458.49 656.62 1458.99 658.0 C 1459.49 659.38 1461.29 665.11 1462.99 670.75 C 1464.69 676.39 1466.42 681.0 1466.84 681.0 Z M 959.93 680.0 C 960.48 680.0 961.34 679.21 961.85 678.25 C 962.35 677.29 963.07 674.92 963.44 673.0 C 963.81 671.08 964.49 668.6 964.94 667.5 C 965.4 666.4 966.33 663.48 967.0 661.0 C 967.68 658.52 968.62 655.38 969.09 654.0 C 969.56 652.62 971.52 643.62 973.44 634.0 C 975.36 624.38 977.61 614.25 978.45 611.5 C 979.29 608.75 979.98 605.49 979.99 604.25 C 980.0 602.53 979.43 602.0 977.56 602.0 C 975.6 602.0 974.56 603.13 972.19 607.79 C 970.57 610.97 967.67 616.04 965.75 619.04 C 963.82 622.04 960.44 626.69 958.22 629.36 C 955.91 632.16 953.69 636.2 953.01 638.86 C 952.36 641.41 951.48 644.4 951.05 645.5 C 950.58 646.7 951.16 651.72 952.48 658.0 C 953.69 663.78 955.39 670.3 956.25 672.5 C 957.1 674.7 958.06 677.29 958.37 678.25 C 958.68 679.21 959.39 680.0 959.93 680.0 Z M 1074.45 603.98 C 1079.37 603.99 1087.24 603.52 1091.95 602.93 C 1096.65 602.34 1102.97 601.41 1106.0 600.85 C 1109.03 600.3 1113.3 599.38 1115.5 598.81 C 1117.7 598.24 1120.85 597.32 1122.5 596.77 C 1124.15 596.22 1128.33 594.48 1131.79 592.89 C 1135.26 591.3 1138.75 590.0 1139.56 590.0 C 1140.37 590.0 1141.81 589.6 1142.76 589.12 C 1143.72 588.63 1145.62 587.76 1147.0 587.18 C 1148.38 586.61 1156.05 582.95 1164.05 579.05 C 1172.32 575.03 1180.45 570.31 1182.86 568.12 C 1185.2 566.01 1188.1 562.92 1189.31 561.27 C 1190.51 559.61 1194.53 554.32 1198.23 549.5 C 1201.93 544.68 1205.51 539.23 1206.18 537.37 C 1206.85 535.52 1207.79 534.0 1208.27 534.0 C 1208.74 534.0 1208.83 533.05 1208.46 531.88 C 1208.09 530.71 1208.1 526.41 1208.48 522.32 C 1208.95 517.38 1209.57 515.02 1210.34 515.28 C 1211.08 515.52 1211.72 519.79 1212.1 527.08 C 1212.43 533.36 1213.52 541.42 1214.52 545.0 C 1215.51 548.58 1217.39 553.94 1218.69 556.92 C 1219.98 559.91 1222.64 564.29 1224.59 566.67 C 1226.54 569.05 1229.79 572.57 1231.82 574.49 C 1233.84 576.41 1235.91 577.99 1236.41 577.99 C 1236.91 578.0 1239.61 579.73 1242.41 581.84 C 1245.21 583.94 1249.69 586.89 1252.37 588.38 C 1255.05 589.87 1257.45 590.88 1257.72 590.62 C 1257.98 590.36 1256.81 587.52 1255.13 584.32 C 1253.44 581.12 1251.63 576.5 1251.09 574.05 C 1250.56 571.6 1249.25 568.9 1248.19 568.05 C 1247.12 567.2 1245.46 565.25 1244.49 563.72 C 1243.52 562.19 1243.04 560.62 1243.43 560.24 C 1243.82 559.85 1246.06 561.55 1248.41 564.02 C 1250.77 566.48 1254.11 569.62 1255.84 571.0 C 1257.56 572.38 1261.57 574.94 1264.74 576.71 C 1267.91 578.47 1272.08 580.78 1274.0 581.83 C 1275.92 582.88 1278.85 584.42 1280.5 585.26 C 1282.15 586.1 1285.08 587.47 1287.0 588.31 C 1288.92 589.15 1291.4 590.1 1292.5 590.41 C 1293.6 590.72 1294.85 590.96 1295.28 590.94 C 1295.7 590.92 1298.4 592.1 1301.28 593.56 C 1304.15 595.03 1307.28 596.62 1308.24 597.11 C 1309.19 597.6 1311.24 598.0 1312.79 598.0 C 1314.33 598.0 1316.03 598.4 1316.55 598.9 C 1317.07 599.39 1319.3 600.03 1321.5 600.32 C 1323.7 600.61 1329.78 601.57 1335.0 602.46 C 1341.41 603.54 1348.08 603.92 1355.5 603.62 C 1361.55 603.37 1368.41 602.86 1370.75 602.48 C 1373.09 602.1 1375.0 601.39 1375.0 600.89 C 1375.0 600.4 1374.13 600.0 1373.06 600.0 C 1371.99 600.0 1370.84 599.55 1370.5 599.0 C 1370.16 598.45 1369.21 598.0 1368.39 598.0 C 1367.57 598.0 1364.34 596.36 1361.21 594.36 C 1358.07 592.35 1354.96 589.99 1354.29 589.11 C 1353.61 588.22 1353.05 586.86 1353.03 586.08 C 1353.01 585.3 1352.34 583.93 1351.53 583.03 C 1350.72 582.14 1349.95 579.94 1349.81 578.13 C 1349.68 576.32 1349.21 574.63 1348.78 574.36 C 1348.35 574.1 1348.02 571.32 1348.04 568.19 L 1348.09 562.5 C 1351.14 568.28 1353.26 570.63 1354.76 571.45 C 1356.27 572.26 1359.13 574.42 1361.12 576.25 C 1363.1 578.07 1367.83 581.07 1371.62 582.9 C 1375.4 584.74 1379.4 586.61 1380.5 587.06 C 1381.6 587.5 1385.23 588.8 1388.57 589.93 C 1391.9 591.07 1395.59 592.0 1396.76 592.0 C 1397.93 592.0 1399.16 592.45 1399.5 593.0 C 1399.84 593.55 1401.58 594.0 1403.36 594.0 C 1405.14 594.0 1407.03 594.41 1407.55 594.9 C 1408.07 595.4 1410.75 596.11 1413.5 596.47 C 1416.25 596.84 1422.93 597.36 1428.35 597.64 C 1436.44 598.05 1439.4 597.77 1445.0 596.07 C 1448.75 594.93 1452.75 594.0 1453.91 594.0 C 1455.06 594.0 1456.0 593.36 1456.0 592.56 C 1456.0 591.77 1455.54 590.84 1454.98 590.49 C 1454.42 590.14 1454.23 589.44 1454.54 588.93 C 1454.86 588.42 1456.27 588.0 1457.68 588.0 C 1459.9 588.0 1460.07 587.79 1458.94 586.43 C 1458.22 585.56 1455.81 583.92 1453.57 582.78 C 1451.34 581.64 1448.93 579.99 1448.22 579.1 C 1447.51 578.22 1445.84 575.25 1444.52 572.5 C 1443.2 569.75 1440.96 563.98 1439.54 559.69 C 1438.13 555.39 1436.53 548.87 1435.99 545.19 C 1435.45 541.51 1434.58 534.67 1434.06 530.0 C 1433.53 525.33 1432.88 519.53 1432.61 517.13 C 1432.34 514.73 1431.57 510.45 1430.9 507.63 C 1430.23 504.81 1428.59 498.23 1427.26 493.0 C 1425.93 487.77 1423.71 480.57 1422.34 477.0 C 1420.97 473.43 1419.25 469.15 1418.53 467.5 C 1417.81 465.85 1416.51 462.93 1415.63 461.0 C 1414.76 459.07 1413.0 455.7 1411.74 453.5 C 1410.47 451.3 1408.28 447.7 1406.87 445.5 C 1405.47 443.3 1404.13 440.97 1403.91 440.33 C 1403.68 439.68 1401.03 435.93 1398.0 431.99 C 1394.97 428.05 1388.94 420.7 1384.6 415.66 C 1380.25 410.62 1374.13 404.02 1370.99 401.0 C 1367.85 397.98 1363.08 393.54 1360.39 391.15 C 1357.7 388.75 1352.92 385.49 1349.77 383.89 C 1346.61 382.29 1342.11 380.36 1339.77 379.6 C 1337.42 378.83 1333.03 377.65 1330.0 376.98 C 1326.97 376.31 1323.6 375.38 1322.5 374.93 C 1321.4 374.48 1318.25 373.85 1315.5 373.54 C 1312.75 373.23 1306.67 372.54 1302.0 372.0 C 1297.33 371.47 1291.25 370.55 1288.5 369.96 C 1285.75 369.37 1270.03 368.64 1253.56 368.35 C 1226.4 367.85 1223.13 367.97 1218.29 369.62 C 1213.11 371.38 1212.85 371.37 1209.49 369.56 C 1206.3 367.85 1203.38 367.7 1173.16 367.73 C 1150.96 367.76 1139.63 368.13 1138.22 368.88 C 1137.07 369.5 1134.82 370.0 1133.21 370.0 C 1131.61 370.0 1128.99 370.39 1127.4 370.88 C 1125.8 371.36 1122.03 372.28 1119.0 372.92 C 1115.97 373.56 1111.7 374.55 1109.5 375.12 C 1107.3 375.7 1103.7 376.61 1101.5 377.16 C 1099.3 377.71 1094.35 379.11 1090.5 380.27 C 1086.65 381.43 1082.38 383.1 1081.0 383.98 C 1079.62 384.85 1077.24 386.21 1075.69 386.99 C 1074.15 387.76 1067.4 393.87 1060.69 400.55 C 1053.99 407.23 1046.57 414.91 1044.21 417.6 C 1041.85 420.3 1037.55 425.65 1034.65 429.5 C 1031.75 433.35 1028.05 438.74 1026.44 441.48 C 1024.82 444.22 1023.05 447.21 1022.5 448.12 C 1021.95 449.03 1019.81 452.69 1017.75 456.24 C 1015.69 459.79 1014.0 463.13 1014.0 463.67 C 1014.0 464.21 1012.67 467.39 1011.05 470.73 C 1009.43 474.08 1007.14 480.35 1005.97 484.66 C 1004.79 488.97 1003.16 494.85 1002.33 497.71 C 1001.51 500.58 1000.43 505.53 999.92 508.71 C 999.42 511.9 998.55 517.42 997.99 521.0 C 997.43 524.58 996.55 531.1 996.03 535.5 C 995.52 539.9 993.75 548.12 992.11 553.76 C 990.47 559.41 987.92 566.51 986.43 569.55 C 984.73 573.03 981.38 577.22 977.37 580.9 C 973.86 584.11 971.0 587.02 971.0 587.37 C 971.0 587.72 971.93 588.0 973.06 588.0 C 974.43 588.0 975.07 588.59 974.95 589.75 C 974.85 590.71 974.82 592.04 974.88 592.7 C 974.95 593.37 976.69 594.18 978.75 594.52 C 980.81 594.86 984.1 595.81 986.05 596.63 C 988.78 597.78 992.36 598.02 1001.55 597.66 C 1008.12 597.4 1016.2 596.75 1019.5 596.21 C 1022.8 595.67 1028.2 594.35 1031.5 593.28 C 1034.8 592.21 1039.08 590.63 1041.0 589.78 C 1042.92 588.93 1047.2 587.19 1050.5 585.92 C 1053.8 584.66 1058.08 582.73 1060.0 581.64 C 1061.92 580.55 1065.3 578.79 1067.5 577.71 C 1069.7 576.64 1073.53 574.33 1076.0 572.58 C 1078.47 570.83 1081.12 569.02 1081.89 568.55 C 1083.02 567.87 1083.15 568.43 1082.57 571.61 C 1082.18 573.75 1080.88 578.39 1079.68 581.92 C 1078.48 585.45 1076.33 589.52 1074.9 590.95 C 1073.47 592.38 1068.87 595.12 1064.68 597.03 C 1060.49 598.94 1057.05 600.84 1057.03 601.25 C 1057.02 601.66 1058.24 602.01 1059.75 602.02 C 1061.26 602.02 1063.17 602.47 1064.0 603.0 C 1064.83 603.53 1069.53 603.98 1074.45 603.98 Z M 1261.0 593.0 C 1261.73 593.0 1262.03 592.7 1261.67 592.33 C 1261.3 591.97 1260.7 591.97 1260.33 592.33 C 1259.97 592.7 1260.27 593.0 1261.0 593.0 Z M 1359.0 584.0 C 1359.73 584.0 1360.03 583.7 1359.67 583.33 C 1359.3 582.97 1358.7 582.97 1358.33 583.33 C 1357.97 583.7 1358.27 584.0 1359.0 584.0 Z M 1215.08 488.49 C 1214.66 489.58 1214.5 485.53 1214.73 479.49 C 1214.96 473.44 1215.31 468.05 1215.5 467.5 C 1215.69 466.95 1215.85 471.0 1215.85 476.5 C 1215.86 482.0 1215.51 487.39 1215.08 488.49 Z M 1215.69 388.75 C 1215.44 389.71 1215.23 388.93 1215.23 387.0 C 1215.23 385.07 1215.44 384.29 1215.69 385.25 C 1215.94 386.21 1215.94 387.79 1215.69 388.75 Z " opacity="1.0" fill="#000000" stroke="none" fill-rule="evenodd"/></svg>