<svg width="2400" height="3200" xmlns="http://www.w3.org/2000/svg" viewBox="0 0 2400 3200"><path d="M 1074.33 1115.96 C 1072.22 1115.94 1069.1 1115.31 1067.38 1114.56 C 1065.26 1113.64 1062.4 1110.39 1058.4 1104.35 C 1055.17 1099.48 1047.96 1088.97 1042.37 1080.99 C 1036.77 1073.0 1029.85 1062.65 1026.99 1057.99 C 1024.12 1053.32 1020.32 1046.58 1018.53 1043.0 C 1016.74 1039.42 1013.7 1032.67 1011.76 1028.0 C 1009.82 1023.33 1006.84 1015.9 1005.13 1011.5 C 1003.43 1007.1 1001.33 1000.7 1000.46 997.27 C 999.29 992.62 999.15 990.21 999.91 987.77 C 1000.46 985.97 1001.82 981.98 1002.92 978.89 C 1004.03 975.81 1005.42 970.63 1006.02 967.39 C 1006.62 964.15 1007.49 959.25 1007.96 956.5 C 1008.42 953.75 1009.04 950.6 1009.35 949.5 C 1009.65 948.4 1010.15 941.65 1010.46 934.5 C 1010.78 927.35 1011.47 911.15 1011.99 898.5 C 1012.52 885.85 1013.39 867.4 1013.93 857.5 C 1014.46 847.6 1015.18 833.2 1015.52 825.5 C 1015.86 817.8 1016.31 810.15 1016.52 808.5 C 1016.73 806.85 1017.21 796.28 1017.58 785.0 L 1018.27 764.5 C 1008.85 757.71 1003.5 752.78 1000.31 749.16 C 997.11 745.55 992.05 739.87 989.06 736.55 C 986.06 733.22 981.29 728.19 978.45 725.37 C 975.6 722.54 972.01 718.57 970.45 716.53 C 967.83 713.09 967.64 712.23 967.81 704.53 C 967.94 698.16 967.63 695.94 966.46 694.97 C 965.21 693.93 964.71 694.01 963.69 695.4 C 962.54 696.98 962.29 696.93 960.37 694.8 C 959.23 693.54 957.38 690.7 956.28 688.5 C 955.17 686.3 953.75 683.26 953.13 681.75 C 952.51 680.24 951.59 677.99 951.09 676.75 C 950.59 675.51 948.34 669.73 946.09 663.9 C 943.84 658.08 942.0 652.84 942.0 652.26 C 942.0 651.69 943.11 650.94 944.47 650.6 C 945.83 650.26 947.86 649.0 948.97 647.8 C 950.35 646.32 951.0 644.26 951.0 641.35 C 951.0 637.96 951.68 636.28 954.25 633.29 C 956.04 631.21 959.03 627.83 960.89 625.78 C 962.76 623.72 964.83 621.25 965.49 620.27 C 966.16 619.3 968.35 614.66 970.35 609.96 C 972.36 605.26 974.0 600.48 974.0 599.34 C 974.0 598.2 973.07 596.08 971.93 594.63 C 970.25 592.5 969.02 592.0 965.43 592.0 C 961.71 592.0 961.0 591.69 961.0 590.06 C 961.0 588.99 961.56 587.77 962.25 587.35 C 962.94 586.92 964.67 586.7 966.09 586.85 C 968.02 587.05 969.52 586.17 971.92 583.44 C 973.7 581.41 975.61 578.76 976.16 577.54 C 976.72 576.33 978.49 574.55 980.11 573.6 C 981.82 572.59 984.25 569.47 985.93 566.13 C 987.52 562.98 990.52 556.15 992.6 550.95 C 995.66 543.26 996.33 540.38 996.17 535.5 C 996.04 531.3 995.38 528.68 993.97 526.77 L 991.96 524.03 C 998.07 511.88 1000.58 505.68 1001.48 502.43 C 1002.38 499.17 1003.73 493.8 1004.48 490.5 C 1005.23 487.2 1006.5 482.7 1007.31 480.5 C 1008.11 478.3 1009.88 474.02 1011.24 471.0 C 1012.61 467.98 1014.26 464.15 1014.93 462.5 C 1015.59 460.85 1019.33 454.1 1023.24 447.5 C 1027.15 440.9 1031.34 434.38 1032.54 433.0 C 1033.75 431.62 1035.13 429.75 1035.62 428.82 C 1036.1 427.9 1038.53 424.79 1041.0 421.9 C 1043.47 419.02 1047.08 415.02 1049.0 413.02 C 1050.92 411.01 1054.75 406.94 1057.5 403.97 C 1060.24 400.99 1065.19 396.28 1068.5 393.48 C 1071.8 390.69 1076.53 387.04 1079.0 385.37 C 1081.47 383.7 1085.65 381.75 1088.28 381.03 C 1090.9 380.31 1093.29 379.34 1093.58 378.86 C 1093.88 378.39 1095.46 378.0 1097.11 378.0 C 1098.75 378.0 1101.99 377.08 1104.3 375.97 C 1106.61 374.85 1113.45 373.05 1119.5 371.96 C 1125.55 370.88 1138.14 369.14 1147.48 368.09 C 1158.22 366.88 1165.09 366.51 1166.17 367.09 C 1167.12 367.6 1188.12 368.0 1213.88 368.0 C 1243.47 368.0 1260.1 367.64 1260.5 367.0 C 1260.84 366.45 1264.35 366.0 1268.31 366.0 C 1272.26 366.0 1280.45 366.47 1286.5 367.05 C 1292.55 367.62 1299.97 368.57 1303.0 369.15 C 1306.03 369.73 1309.4 370.58 1310.5 371.04 C 1311.6 371.49 1314.3 372.4 1316.5 373.06 C 1318.7 373.72 1320.95 374.6 1321.5 375.0 C 1322.05 375.41 1324.08 376.06 1326.0 376.43 C 1327.92 376.81 1331.19 377.36 1333.26 377.66 C 1335.32 377.96 1337.26 378.61 1337.57 379.11 C 1337.87 379.6 1338.91 380.0 1339.87 380.0 C 1340.84 380.0 1343.62 380.96 1346.06 382.13 C 1348.5 383.31 1352.53 385.65 1355.0 387.33 C 1357.47 389.02 1365.59 396.5 1373.03 403.95 C 1380.46 411.4 1390.08 422.16 1394.38 427.85 C 1398.69 433.54 1402.74 439.16 1403.38 440.35 C 1404.01 441.53 1405.27 443.62 1406.18 445.0 C 1407.08 446.38 1409.01 449.52 1410.45 452.0 C 1411.9 454.48 1414.23 458.98 1415.62 462.0 C 1417.02 465.02 1418.57 468.51 1419.08 469.75 C 1419.59 470.99 1420.44 473.01 1420.97 474.25 C 1421.51 475.49 1422.83 478.98 1423.92 482.0 C 1425.0 485.02 1426.59 490.3 1427.46 493.73 C 1428.33 497.15 1429.53 502.33 1430.11 505.23 C 1430.7 508.13 1431.42 512.3 1431.71 514.5 C 1432.0 516.7 1433.05 520.3 1434.04 522.5 C 1435.03 524.7 1436.33 528.88 1436.92 531.8 C 1437.52 534.71 1438.0 540.11 1438.01 543.8 C 1438.02 547.48 1438.65 552.56 1439.41 555.09 C 1440.18 557.61 1442.19 562.41 1443.88 565.77 C 1445.75 569.46 1448.13 572.56 1449.94 573.62 C 1451.58 574.59 1453.41 576.57 1454.01 578.03 C 1454.61 579.48 1456.41 582.09 1458.0 583.84 C 1459.59 585.58 1461.8 587.0 1462.91 587.0 C 1464.02 587.0 1465.4 587.87 1465.96 588.93 C 1466.53 590.0 1467.0 591.12 1467.0 591.43 C 1467.0 591.75 1465.46 592.0 1463.57 592.0 C 1461.06 592.0 1459.59 592.7 1458.07 594.63 C 1456.93 596.08 1456.0 598.32 1456.0 599.61 C 1456.0 600.89 1457.12 604.4 1458.5 607.41 C 1459.88 610.41 1461.0 613.3 1461.0 613.82 C 1461.0 614.35 1465.42 619.21 1470.81 624.64 C 1476.69 630.55 1481.46 636.3 1482.69 639.0 C 1484.25 642.39 1484.67 645.0 1484.4 649.59 C 1484.21 652.94 1483.15 657.66 1482.05 660.09 C 1480.94 662.52 1480.03 665.42 1480.02 666.55 C 1480.01 667.68 1479.59 669.03 1479.09 669.55 C 1478.6 670.07 1476.71 674.33 1474.91 679.0 C 1473.1 683.67 1470.28 689.41 1468.64 691.75 C 1467.0 694.09 1465.15 696.0 1464.53 696.0 C 1463.91 696.0 1462.86 695.46 1462.2 694.8 C 1461.31 693.91 1460.71 693.89 1459.87 694.73 C 1459.17 695.43 1458.8 699.23 1458.9 704.68 L 1459.07 713.5 C 1452.83 721.02 1449.87 724.1 1448.48 725.19 C 1447.09 726.29 1442.19 731.53 1437.58 736.84 C 1432.98 742.15 1427.7 748.08 1425.84 750.0 C 1423.99 751.92 1420.27 755.45 1417.58 757.83 L 1412.69 762.16 C 1413.73 791.1 1414.91 817.05 1415.98 838.5 C 1417.06 859.95 1418.17 880.88 1418.46 885.0 C 1418.76 889.12 1419.22 898.12 1419.5 905.0 C 1419.78 911.88 1420.48 925.83 1421.07 936.0 C 1421.65 946.17 1422.51 956.08 1422.99 958.0 C 1423.46 959.92 1424.78 965.66 1425.92 970.74 C 1427.07 975.82 1428.0 981.51 1428.0 983.38 C 1428.0 985.25 1427.08 991.45 1425.96 997.14 C 1424.83 1002.84 1422.82 1011.56 1421.48 1016.53 C 1420.15 1021.5 1418.19 1028.25 1417.14 1031.53 C 1416.08 1034.81 1413.96 1040.65 1412.41 1044.5 C 1410.87 1048.35 1407.61 1055.33 1405.16 1060.0 C 1402.72 1064.67 1399.34 1070.3 1397.66 1072.5 C 1395.99 1074.7 1392.34 1078.98 1389.56 1082.0 C 1386.78 1085.03 1382.79 1089.53 1380.7 1092.0 C 1378.61 1094.48 1374.37 1100.27 1371.27 1104.87 C 1367.3 1110.79 1364.68 1113.65 1362.36 1114.62 C 1360.55 1115.38 1357.44 1116.0 1355.46 1116.0 C 1352.8 1116.0 1351.07 1115.23 1348.92 1113.08 C 1346.95 1111.1 1346.0 1109.15 1346.0 1107.05 C 1346.0 1105.35 1347.63 1100.72 1349.61 1096.78 C 1351.6 1092.83 1353.9 1087.35 1354.71 1084.6 C 1355.53 1081.84 1358.41 1074.44 1361.11 1068.14 C 1363.81 1061.84 1366.66 1054.17 1367.44 1051.09 C 1368.22 1048.02 1368.82 1043.21 1368.77 1040.4 C 1368.73 1037.6 1369.02 1034.77 1369.42 1034.13 C 1369.82 1033.48 1370.05 1027.23 1369.94 1020.23 C 1369.83 1013.23 1369.89 1003.45 1370.08 998.5 C 1370.27 993.55 1370.43 981.17 1370.44 971.0 C 1370.46 960.83 1370.36 939.9 1370.23 924.5 C 1370.09 909.1 1370.03 895.38 1370.09 894.0 C 1370.15 892.62 1370.59 888.12 1371.06 884.0 C 1371.53 879.88 1372.21 872.45 1372.56 867.5 C 1372.91 862.55 1373.33 856.48 1373.49 854.0 C 1373.65 851.52 1374.08 843.65 1374.44 836.5 C 1374.81 829.35 1375.35 822.04 1375.66 820.25 C 1375.97 818.46 1375.96 817.0 1375.64 817.0 C 1375.31 817.0 1374.11 819.07 1372.96 821.6 C 1371.8 824.13 1370.73 826.04 1370.58 825.85 C 1370.42 825.66 1370.66 814.31 1371.1 800.64 C 1371.54 786.96 1372.35 773.46 1372.9 770.64 C 1373.44 767.81 1374.16 762.8 1374.49 759.5 C 1374.82 756.2 1375.14 731.67 1375.2 705.0 C 1375.26 678.33 1374.76 644.8 1374.1 630.5 C 1372.97 606.19 1372.75 604.39 1370.8 602.73 C 1368.91 601.12 1368.51 601.09 1366.4 602.48 C 1364.76 603.55 1361.48 604.0 1355.4 604.0 C 1350.63 604.0 1342.63 603.5 1337.61 602.9 C 1332.6 602.29 1327.6 601.42 1326.5 600.96 C 1325.4 600.5 1322.7 599.86 1320.5 599.53 C 1318.3 599.21 1315.03 598.68 1313.24 598.36 C 1311.45 598.04 1309.73 597.38 1309.43 596.89 C 1309.13 596.4 1308.0 596.0 1306.92 596.0 C 1305.84 596.0 1303.18 594.87 1300.99 593.5 C 1298.81 592.12 1296.68 591.06 1296.26 591.15 C 1295.84 591.24 1294.6 590.97 1293.5 590.54 C 1292.4 590.11 1289.47 588.81 1287.0 587.66 C 1284.53 586.5 1282.01 585.48 1281.41 585.39 C 1280.81 585.3 1278.56 584.12 1276.41 582.76 C 1274.26 581.41 1267.74 577.84 1261.93 574.83 L 1251.36 569.37 C 1252.51 576.66 1253.82 580.68 1255.01 583.02 C 1256.9 586.73 1256.99 587.44 1255.72 588.71 C 1254.44 589.99 1253.71 589.91 1249.88 588.07 C 1247.47 586.91 1244.6 585.41 1243.5 584.73 C 1242.4 584.05 1239.47 581.93 1237.0 580.02 C 1234.53 578.11 1229.92 573.88 1226.78 570.63 C 1222.93 566.67 1219.57 561.73 1216.53 555.61 C 1214.04 550.59 1212.0 545.72 1212.0 544.79 C 1212.0 543.86 1211.23 542.67 1210.3 542.15 C 1208.87 541.35 1208.81 540.94 1209.91 539.61 C 1210.63 538.74 1210.92 537.23 1210.55 536.26 C 1210.03 534.93 1208.84 536.46 1205.67 542.5 C 1203.37 546.9 1199.6 553.2 1197.29 556.5 C 1194.99 559.8 1191.62 564.14 1189.8 566.15 C 1187.99 568.16 1183.8 571.89 1180.5 574.43 C 1177.2 576.98 1174.0 579.46 1173.38 579.95 C 1172.77 580.43 1170.07 581.95 1167.38 583.31 C 1164.69 584.67 1159.57 586.97 1156.0 588.43 C 1151.51 590.25 1147.18 591.18 1142.0 591.41 C 1137.88 591.6 1133.15 592.31 1131.5 593.0 C 1129.85 593.69 1127.6 594.6 1126.5 595.03 C 1125.4 595.47 1123.6 596.16 1122.5 596.57 C 1121.4 596.99 1116.9 598.16 1112.5 599.17 C 1108.1 600.19 1100.67 601.46 1096.0 602.01 C 1091.33 602.56 1082.48 603.25 1076.34 603.56 C 1069.0 603.92 1064.97 603.75 1064.54 603.06 C 1064.18 602.48 1063.08 602.0 1062.1 602.0 C 1060.63 602.0 1060.12 603.45 1059.14 610.25 C 1058.49 614.79 1057.54 622.66 1057.03 627.75 C 1056.52 632.84 1055.54 649.18 1054.85 664.06 C 1053.86 685.54 1053.85 691.54 1054.83 693.1 C 1055.51 694.19 1055.77 695.56 1055.41 696.14 C 1055.06 696.72 1054.84 705.59 1054.93 715.85 C 1055.06 729.31 1054.71 736.03 1053.67 740.01 C 1052.43 744.76 1052.42 748.69 1053.58 768.51 C 1054.32 781.15 1055.41 808.38 1055.98 829.0 C 1056.56 849.62 1057.46 870.33 1057.99 875.0 C 1058.51 879.67 1059.44 886.88 1060.06 891.0 C 1060.75 895.59 1061.05 908.21 1060.84 923.5 C 1060.65 937.25 1060.54 958.17 1060.58 970.0 C 1060.63 981.83 1060.94 1004.6 1061.26 1020.61 C 1061.83 1048.11 1061.99 1050.1 1064.3 1056.61 C 1065.64 1060.4 1068.18 1066.88 1069.95 1071.0 C 1071.71 1075.12 1074.25 1081.74 1075.59 1085.71 C 1076.93 1089.67 1079.37 1095.37 1081.01 1098.36 C 1082.65 1101.36 1084.0 1105.24 1084.0 1106.98 C 1084.0 1109.15 1083.08 1111.07 1081.08 1113.08 C 1078.84 1115.31 1077.25 1115.99 1074.33 1115.96 Z M 1019.0 742.0 C 1019.73 742.0 1020.03 741.7 1019.67 741.33 C 1019.3 740.97 1018.7 740.97 1018.33 741.33 C 1017.97 741.7 1018.27 742.0 1019.0 742.0 Z M 1018.54 736.0 C 1018.79 736.0 1019.0 733.3 1019.0 730.0 C 1019.0 725.33 1018.67 724.0 1017.5 724.0 C 1016.41 724.0 1016.0 725.12 1016.0 728.07 C 1016.0 730.3 1016.47 733.0 1017.04 734.07 C 1017.6 735.13 1018.28 736.0 1018.54 736.0 Z M 1018.79 699.93 C 1018.95 687.04 1018.82 675.04 1018.5 673.25 C 1018.08 670.94 1017.36 670.0 1016.02 670.0 C 1014.98 670.0 1013.91 670.79 1013.63 671.75 C 1013.36 672.71 1013.27 680.25 1013.44 688.5 C 1013.62 696.75 1014.1 707.24 1014.51 711.81 C 1015.01 717.31 1015.82 720.67 1016.88 721.74 C 1018.37 723.23 1018.52 721.5 1018.79 699.93 Z M 1413.0 694.0 C 1413.55 694.0 1414.0 691.75 1414.0 689.0 C 1414.0 686.25 1413.55 684.0 1413.0 684.0 C 1412.45 684.0 1412.0 686.25 1412.0 689.0 C 1412.0 691.75 1412.45 694.0 1413.0 694.0 Z M 1062.1 598.5 C 1063.42 598.1 1066.81 596.47 1069.63 594.88 C 1072.46 593.29 1075.23 591.43 1075.79 590.74 C 1076.36 590.06 1077.59 587.57 1078.54 585.21 C 1079.48 582.85 1080.01 580.67 1079.71 580.37 C 1079.41 580.08 1076.66 581.44 1073.59 583.4 C 1070.52 585.36 1066.43 587.63 1064.5 588.43 C 1061.95 589.5 1061.0 590.52 1060.99 592.2 C 1060.98 593.46 1060.69 595.56 1060.34 596.86 C 1059.77 598.99 1059.95 599.15 1062.1 598.5 Z M 1365.25 596.98 C 1365.66 596.99 1365.96 595.76 1365.9 594.25 C 1365.85 592.74 1365.5 590.44 1365.14 589.13 C 1364.64 587.35 1362.94 586.21 1358.3 584.53 L 1352.13 582.3 C 1352.71 586.83 1353.46 588.85 1354.19 589.72 C 1354.91 590.6 1357.53 592.58 1360.0 594.13 C 1362.47 595.69 1364.84 596.97 1365.25 596.98 Z M 1245.17 561.0 C 1245.62 561.0 1246.0 560.33 1246.0 559.5 C 1246.0 558.67 1245.58 558.0 1245.06 558.0 C 1244.54 558.0 1243.88 558.39 1243.59 558.86 C 1243.29 559.33 1243.34 560.01 1243.69 560.36 C 1244.05 560.71 1244.71 561.0 1245.17 561.0 Z M 1211.0 519.0 C 1211.55 519.0 1212.0 518.33 1212.0 517.5 C 1212.0 516.67 1211.55 516.0 1211.0 516.0 C 1210.45 516.0 1210.0 516.67 1210.0 517.5 C 1210.0 518.33 1210.45 519.0 1211.0 519.0 Z " opacity="1.0" fill="#000000" stroke="none" fill-rule="evenodd"/></svg>