<svg version="1.1" xmlns="http://www.w3.org/2000/svg" xmlns:xlink="http://www.w3.org/1999/xlink" x="0px" y="0px" width="1200px"
	 height="1600px" viewBox="0 0 1200 1600" enable-background="new 0 0 1200 1600" xml:space="preserve">
<g id="Layer_2">
	<path fill="#EFEFEF" d="M625.651,377.441c0,0,1.375,2.571,2.403,3.111s3.298,1.747,5.063-0.54c1.767-2.286,2.169-4.635-1.106-6.096
		c-3.275-1.46-5.724,2.096-5.689,1.556C626.355,374.933,625.651,377.441,625.651,377.441z"/>
</g>
<g id="Layer_1">
	<g transform="translate(0.000000,1600.000000) scale(0.100000,-0.100000)">
		<path d="M5595.996,12402.996c-5-12.002,3.008-23.994,24.004-40.996c17.998-14.004,26.392-33.471,30-47.002
			c10-37.5,70.415-65.834,125.918-75.893c27.998,1.992,78.086,3.891,89.082,3.891c19.004,0,138.086-42.592,180.625-91.748
			c28.125-32.5,45.654-31.143,78.379,1.748c29.854,30,106.992,67.002,106.992,67.002s56.104-35.385,59.004-44.004
			c9.375-27.871,70,52.129,70,52.129s20.234-6.205,25.996-3.125c78.379,41.875,127.002,74.004,122.002,90.996
			c-3.994,16.006,22.002,54.004,37.002,54.004c15.996,0,20.996,35,5.996,44.004c-10.996,6.992-60-52.002-66.992-79.004
			c-3.008-10.996-24.004-32.998-47.002-47.002C6400,12264.002,6390,12262,6355,12269.998c-79.375,25-275-102.002-275-102.002
			s-169.165,111.168-255,96.168c-25-4.004-57.998,2.836-67.998,3.832C5735,12269.002,5670,12317,5670,12330.994
			c0,13.008-52.002,88.008-60.996,89.004C5605,12419.998,5599.003,12412,5595.996,12402.996z M6260,12232
			c0,8.994,51.26,18.209,74.385,7.584c10.625-6.67-19.385-53.961-30.635-45.836C6288.935,12204.447,6260,12229.877,6260,12232z"/>
	</g>
</g>
</svg>
