<svg version="1.0" xmlns="http://www.w3.org/2000/svg"
 width="1200.000000pt" height="1600.000000pt" viewBox="0 0 1200.000000 1600.000000"
 preserveAspectRatio="xMidYMid meet">

<g transform="translate(0.000000,1600.000000) scale(0.100000,-0.100000)"
fill="#000000" stroke="none">
<path d="M4628 5866 c-51 -14 -95 -44 -154 -106 -50 -52 -112 -153 -125 -205
-5 -22 -15 -51 -21 -65 -9 -21 -12 -22 -15 -7 -5 19 -18 22 -28 7 -4 -6 -10
-8 -14 -5 -14 8 -164 -164 -242 -279 -87 -128 -88 -134 -95 -356 -2 -74 -6
-184 -9 -245 -3 -60 -7 -162 -10 -226 l-5 -117 -44 -43 c-26 -27 -48 -60 -55
-84 -17 -62 -14 -270 5 -340 9 -33 16 -67 17 -75 0 -8 6 -21 14 -28 16 -16 17
-32 2 -32 -6 0 -7 -5 -2 -12 4 -7 6 -22 5 -33 -2 -17 -1 -17 7 -5 9 13 11 12
12 -5 1 -11 2 -29 3 -40 0 -11 -3 -23 -9 -27 -6 -4 -2 -8 8 -8 20 0 24 -40 5
-40 -7 0 -5 -5 5 -11 18 -11 24 -69 7 -69 -16 0 -12 -40 5 -46 12 -5 14 -15 9
-42 -5 -23 -3 -33 4 -28 6 4 9 -7 7 -31 -2 -22 1 -41 8 -45 9 -6 9 -10 -2 -17
-7 -5 -10 -14 -6 -20 4 -7 8 -24 10 -38 1 -14 10 -30 18 -35 12 -6 14 -15 6
-40 -5 -17 -5 -36 0 -42 11 -15 20 -76 9 -70 -9 6 -11 -10 -2 -19 8 -7 16 -80
15 -124 -1 -18 4 -33 10 -33 5 0 7 -5 4 -11 -11 -17 -6 -237 7 -326 9 -63 16
-83 28 -83 9 0 11 -3 5 -8 -16 -11 -16 -109 0 -122 10 -9 11 -18 4 -37 -5 -13
-6 -29 -3 -34 3 -6 5 -34 4 -62 0 -29 -1 -56 -1 -62 0 -5 3 -74 7 -153 4 -89
2 -142 -4 -142 -5 0 -9 -15 -9 -32 0 -18 -3 -77 -6 -130 -4 -85 -3 -98 12
-103 9 -3 23 -26 30 -52 8 -27 17 -52 21 -58 4 -5 13 -28 20 -50 7 -22 19 -55
28 -73 14 -31 13 -37 -10 -95 -25 -62 -25 -62 -13 -207 10 -129 15 -154 46
-222 22 -51 39 -76 47 -73 18 7 62 -39 62 -64 0 -27 31 -91 41 -85 5 3 14 -4
21 -16 20 -31 35 -24 58 27 25 57 32 62 79 56 26 -4 41 0 50 11 7 9 18 16 23
16 6 0 27 13 47 29 54 43 69 42 118 -5 46 -45 86 -59 104 -37 13 15 39 1 39
-21 0 -7 6 -20 13 -30 11 -16 17 -17 36 -6 12 6 27 25 33 41 8 22 16 29 36 28
24 0 25 -1 7 -9 -16 -7 -12 -9 18 -9 47 -1 71 11 120 61 21 21 41 38 44 38 3
0 22 -12 42 -27 20 -16 39 -27 43 -26 4 2 23 -4 42 -12 46 -19 109 -19 147 1
30 15 31 15 24 -8 -4 -13 -7 -25 -7 -28 -1 -39 17 -39 59 0 30 28 31 32 26 90
-6 58 -5 61 29 92 65 62 69 76 67 211 -3 147 -12 254 -20 247 -4 -3 -16 4 -28
14 -13 12 -21 14 -21 7 0 -22 -17 -2 -23 26 -3 16 -18 40 -32 55 -14 16 -21
28 -15 28 8 0 8 6 0 20 -6 11 -8 25 -5 30 9 14 -14 88 -30 97 -7 4 -27 51 -43
103 -36 114 -94 311 -96 324 -2 19 34 18 41 -1 13 -38 25 -45 44 -27 22 20 24
46 7 77 -7 12 -11 32 -9 45 1 12 -5 45 -14 72 -14 43 -15 62 -5 145 11 95 11
97 -12 120 -13 13 -30 36 -38 52 -8 15 -23 37 -32 47 -10 11 -20 27 -23 37 -3
9 -17 24 -30 33 -13 8 -38 43 -56 76 -18 34 -50 81 -71 104 -42 49 -45 56 -22
56 8 0 12 5 9 10 -4 6 -10 8 -13 6 -15 -9 -114 420 -128 554 -3 25 -11 98 -19
163 -23 187 -21 238 16 313 27 54 32 75 32 141 0 51 -5 91 -16 116 -9 21 -12
37 -6 37 6 0 8 4 4 9 -3 6 0 41 7 78 6 37 11 83 11 101 -1 22 3 32 13 32 8 0
14 10 14 25 0 33 55 201 91 279 6 13 9 28 6 33 -3 5 3 16 14 23 10 8 19 25 19
37 0 13 5 23 11 23 5 0 7 5 4 10 -4 6 14 54 40 106 26 52 52 121 58 154 6 33
15 60 19 60 5 0 5 18 2 40 -5 30 -1 53 15 91 29 67 37 136 20 185 -7 22 -13
84 -14 139 -1 55 -7 116 -13 136 -32 95 -141 165 -287 181 -44 5 -123 16 -175
24 -52 8 -106 17 -120 19 -14 2 -46 -2 -72 -9z"/>
<path d="M7385 5864 c-38 -7 -119 -18 -179 -24 -161 -17 -251 -55 -305 -130
-37 -52 -55 -133 -48 -224 3 -49 0 -80 -10 -105 -19 -46 -12 -123 18 -188 14
-31 23 -72 24 -114 2 -37 6 -77 10 -90 15 -50 95 -209 106 -209 5 0 8 -4 5 -9
-9 -13 12 -62 31 -76 10 -7 14 -19 10 -29 -4 -9 3 -40 14 -69 12 -28 29 -77
39 -107 10 -30 23 -54 29 -53 13 3 15 -14 2 -19 -5 -1 -2 -25 6 -53 8 -27 19
-68 25 -90 6 -22 14 -51 19 -65 15 -45 13 -124 -5 -184 -22 -73 -15 -148 21
-226 14 -30 28 -62 30 -70 20 -73 -31 -508 -83 -715 -9 -33 -20 -78 -24 -100
-30 -136 -48 -187 -78 -218 -17 -17 -46 -62 -65 -98 -19 -36 -45 -77 -58 -90
-42 -43 -79 -93 -79 -105 0 -7 -14 -23 -31 -35 -21 -15 -27 -24 -19 -29 9 -6
9 -9 -1 -12 -11 -4 -13 -22 -10 -73 1 -38 7 -79 11 -90 5 -14 1 -46 -10 -88
-10 -36 -21 -90 -25 -119 -6 -45 -4 -56 13 -71 19 -17 20 -17 46 28 15 25 31
45 36 45 12 0 13 -47 2 -52 -4 -2 -18 -41 -30 -88 -37 -134 -52 -183 -67 -216
-8 -16 -17 -49 -21 -71 -4 -29 -12 -43 -25 -46 -14 -4 -19 -14 -19 -42 0 -20
-4 -34 -9 -30 -5 3 -9 -10 -8 -30 1 -19 5 -35 9 -35 3 0 -7 -14 -22 -30 -16
-17 -34 -47 -41 -67 -7 -23 -14 -31 -19 -23 -6 9 -11 7 -19 -9 -7 -12 -16 -19
-20 -16 -13 7 -20 -45 -27 -205 -7 -146 -7 -146 20 -188 14 -23 30 -42 34 -42
4 0 16 -14 26 -31 15 -25 17 -43 12 -85 -6 -50 -4 -54 26 -83 43 -40 61 -40
60 -1 0 3 -3 16 -7 29 -7 23 -7 23 16 7 26 -18 103 -21 144 -6 14 5 37 12 52
14 14 3 38 17 53 31 14 14 31 25 36 25 6 0 24 -16 40 -35 43 -52 126 -84 162
-62 8 6 15 0 22 -17 8 -21 37 -46 54 -46 3 0 14 17 24 37 9 21 24 38 32 38 8
0 19 5 23 10 6 6 10 6 14 -2 5 -15 53 -18 53 -4 0 5 14 14 30 21 18 8 30 20
30 31 0 20 34 27 44 10 3 -5 31 -26 61 -46 39 -26 69 -37 101 -39 25 -2 47 -5
49 -7 2 -3 13 -26 24 -52 21 -50 45 -61 56 -26 4 11 13 18 19 16 15 -6 46 53
46 88 0 13 7 30 15 38 8 8 12 17 9 20 -3 2 8 3 25 1 24 -3 31 1 40 24 6 15 15
34 20 42 29 47 41 109 52 252 11 153 11 157 -10 179 -29 32 -38 84 -16 105 10
11 15 27 12 42 -3 16 1 31 12 41 10 9 26 36 36 61 11 25 28 58 38 73 17 25 18
41 14 128 -3 56 -8 103 -11 106 -3 4 -1 13 6 20 9 11 9 16 0 22 -7 4 -12 18
-11 32 0 13 -2 81 -4 152 -3 70 -1 127 3 127 5 0 5 13 0 29 -10 37 -2 123 13
134 9 6 9 10 0 14 -7 2 -13 11 -13 19 0 8 6 23 13 34 10 17 9 22 -3 30 -13 8
-12 10 4 10 15 0 16 3 6 15 -10 12 -10 15 1 15 12 0 12 2 0 9 -8 6 -10 14 -5
22 5 8 10 19 11 24 17 65 23 128 24 243 1 78 6 143 11 150 7 7 8 34 4 66 -3
33 -2 56 4 58 5 2 11 29 11 61 1 31 5 57 9 57 5 0 6 9 3 20 -3 11 -9 20 -14
20 -18 0 -8 29 12 35 17 6 19 9 8 16 -11 7 -12 9 -1 9 10 0 13 11 9 39 -3 26
0 42 8 45 8 3 12 24 11 58 -1 34 3 59 13 71 11 13 12 20 3 29 -14 14 -16 48
-3 48 5 0 7 9 4 20 -3 11 2 32 12 46 9 14 16 40 15 57 -4 76 0 107 15 107 11
0 15 11 15 40 0 21 7 65 15 97 18 68 20 279 4 338 -7 23 -29 57 -55 84 l-44
44 -1 91 c0 50 -2 107 -4 126 -1 19 -5 114 -8 210 -7 227 -15 348 -26 387 -5
17 -26 57 -47 89 -22 31 -43 64 -49 73 -5 9 -27 38 -47 65 -21 27 -38 52 -38
57 0 4 -9 11 -20 14 -11 3 -20 13 -20 21 0 8 -11 14 -27 15 -16 0 -22 3 -15 6
10 4 8 11 -9 29 -12 13 -28 24 -34 24 -6 0 -30 21 -54 46 -30 33 -47 62 -57
100 -15 60 -61 137 -78 131 -6 -2 -37 20 -68 49 -80 74 -139 90 -253 68z"/>
</g>
</svg>
