<svg version="1.1" xmlns="http://www.w3.org/2000/svg" xmlns:xlink="http://www.w3.org/1999/xlink" x="0px" y="0px" width="1200px"
	 height="1600px" viewBox="0 0 1200 1600" enable-background="new 0 0 1200 1600" xml:space="preserve">
<g id="Layer_2">
</g>
<g id="Layer_1">
	<g transform="translate(0.000000,1600.000000) scale(0.100000,-0.100000)">
		<path d="M5847.998,13529.998c-222.183-36.479-469.521-161.602-565.581-375.82c-60.239-134.326-98.833-298.657-113.506-444.629
			c-27.192-270.541,57.256-553.662-56.094-812.422c-38.076-86.914-94.565-158.223-158.33-227.26
			c-38.394-41.572-89.468-93.945-79.648-155.338c8.911-55.742,51.836-106.064,84.038-150.166
			c35.391-48.461,77.959-91.045,121.357-132.279c20.098-19.092,89.766-67.047,89.766-97.086c0-7.002,5-15,10.996-17.002
			c6.006-2.002-6.992-12.002-30-22.002c-42.998-20-45.996-22.998-32.998-42.998c9.004-13.994,107.998-60,189.004-87.998
			c57.002-19.004,63.994-20,77.998-5.996c15,15,15,13.994,7.002-9.004c-5-14.004-12.002-42.002-16.006-62.002
			c-5-30-3.994-37.998,8.008-37.998c17.998,0,60,49.004,87.998,104.004c17.002,30.996,22.998,36.992,25.996,21.992
			c4.004-16.992-8.994-81.992-23.994-120c-5-12.998,0-15.996,25.996-15.996c39.004,0,70-15.996,70-35c0-7.998,5-15,10.996-15
			c5,0,8.008-4.004,5-9.004c-6.992-10.996,28.008-3.994,69.004,14.004c17.002,7.998,59.004,17.998,94.004,24.004
			c35,5.996,68.994,15,76.992,20.996c22.002,19.004,27.002-29.004,10-104.004c-8.994-36.992-15.996-70.996-15.996-76.992
			c0-23.008,34.004-4.004,95,55c52.002,48.994,67.998,60,72.002,46.992c15-46.992,25.996-70,32.998-67.998
			c4.004,1.006,27.002-15.996,50.996-38.994c24.004-22.002,59.004-49.004,77.002-59.004c17.002-10.996,32.002-22.002,32.002-25.996
			c0-4.004,7.002-10,15.996-13.008c10-3.994,15,0,13.008,12.002c-1.006,9.004-1.006,41.006,0,70c0.996,65,35,107.998,76.992,97.998
			c20-5,27.002-2.998,31.006,13.008c5,18.994,7.002,18.994,33.994,5.996c29.004-15,141.006-45,171.006-45
			c8.994,0,20,12.002,25.996,27.998c14.004,42.002,59.004,90,91.006,97.002c15,2.998,48.994,0.996,75.996-5
			c47.002-10.996,47.998-10,75,22.002c15.996,17.998,30,30.996,32.002,27.998c37.998-45.996,78.994-115,83.994-139.004
			c7.002-35,11.006-35.996,37.002-15.996c12.002,7.998,17.998,24.004,17.002,42.002c-0.996,15-2.002,47.998-0.996,72.002
			c0.996,40.996,1.992,42.998,15,25.996c12.998-19.004,15-17.998,20.996,17.002c4.004,20,5,60.996,2.998,90.996l-2.998,55
			l50.996,4.004c42.002,3.994,66.006,15,140,65c49.004,32.998,104.004,63.994,122.002,67.998c17.998,2.998,30,10.996,26.006,15.996
			c-3.008,5,0,9.004,5,9.004c27.998,0,6.992,27.998-33.008,44.004c-45.996,18.994-68.994,43.994-105.01,113.027
			c-31.24,59.859,17.871,98.506,60.313,133.219c35.186,28.773,113.77,108.564,36.699,142.748
			c-27.002,10-112.998,147.998-145.996,235.006c-46.445,119.541-73.096,248.891-87.588,376.059
			c-16.748,146.875,13.418,295.459-9.277,443.105c-21.357,138.999-66.133,278.027-133.945,401.44
			c-57.168,104.043-134.189,197.432-227.188,271.392c-171.006,136.001-410,212.002-559.004,177.998
			c-47.998-10.996-70-10.996-110-1.997C5967.001,13539.998,5915,13540.999,5847.998,13529.998z M6045,13499.998
			c7.998-13.999,52.002-12.998,60.996,1.001c5,7.998,39.004,10,108.008,6.997c157.998-7.998,320.996-68.999,453.994-170.996
			c56.006-43.003,170-169.004,189.004-209.004c5.996-12.998,25-50,42.002-83.999C6970,12902.996,7010,12669.002,7010,12392
			c0-172.998,14.004-286.006,50.996-417.002c21.006-72.998,136.006-322.002,166.006-355.996c7.002-9.004,15-25,17.002-35
			c1.992-11.006,5.996-26.006,7.998-34.004c0.996-7.998-2.002-14.004-9.004-12.998c-7.002,2.002-10-2.998-7.002-11.006
			c3.008-8.994-17.998-30.996-55-60c-52.998-40.996-65-45.996-93.994-40.996c-36.006,7.002-49.004,22.002-72.998,87.002
			c-82.002,227.002-104.004,300-112.002,382.998c-9.004,87.998-9.004,89.004-10,25c-1.006-135.996,38.994-292.998,117.998-455.996
			c40-82.002,102.998-165,115.996-151.006c4.004,4.004-0.996,16.006-10,26.006c-18.994,20.996-13.994,40.996,9.004,40.996
			c17.002,0,24.004-27.998,14.004-55.996c-6.006-16.006,0-26.006,22.998-45c15.996-13.008,47.002-39.004,68.994-58.008
			c12.842-10.912,28.359-21.299,35.811-35.205c-46.367-35.297-109.102-55.732-163.213-76.357
			c-47.363-18.066-78.867-48.949-124.59-16.436c-45,32.002-88.008,101.006-103.008,164.004c-20,77.998-33.994,230-35,387.998
			c-1.992,135-15,315.996-30.996,420c-5.996,32.998-10,80-10,105.996c0,25-5,50-10,55c-5.996,6.006-15.996,47.002-22.002,92.002
			c-7.002,45-15.996,82.002-20.996,82.002s-6.006-12.002-2.998-27.002c48.887-243.818,61.748-496.205,71.484-744.082
			c3.213-81.713,5.723-163.447,8.584-245.176c1.25-35.58-11.25-117.748,7.93-149.736c2.998-5,8.994-31.006,12.002-58.008
			c3.994-26.992,10.996-56.992,16.992-66.992c18.008-35,59.004-205,59.004-247.002v-44.004l-32.998,34.004
			c-17.998,17.998-29.004,37.002-26.006,40.996c8.008,10,0,47.002-10.996,47.002c-4.004,0-25.996-14.004-50-30.996
			c-30.996-23.008-49.004-29.004-67.002-24.004c-45,10.996-127.002-20.996-167.002-65c-20-22.002-35.996-50-35.996-60.996
			c0-19.004-4.004-21.006-37.002-14.004c-20.996,4.004-60,15-87.998,24.004c-57.002,20-70,38.994-87.002,127.998
			c-18.994,102.998-27.002,102.998-27.002,0.996c-0.996-57.998-5-97.998-10.996-97.998c-5,0-10-5.996-10-14.004
			c0-12.998-54.004-41.992-64.004-35c-12.998,9.004-35-41.992-37.998-85l-2.998-47.998l-22.002,19.004
			c-72.002,62.998-112.002,103.994-130,135.996l-20.996,35l42.002,189.004c41.992,182.998,62.998,322.998,47.998,322.998
			c-7.998,0-11.006-10-77.998-315c0,0-47.988-219.916-48.008-220c-3.833-17.568-75.02-56.439-88.999-67.006
			c29.346,229.467,41.489,454.711,40.498,685.947c-0.156,37.021-0.327,74.047-0.493,111.068
			c-2.324-78.07-7.002-157.412-7.002-235.01c-4.004-129.004-10.996-235-15.996-237.002s-16.006-7.998-24.004-12.998
			c-12.998-9.004-12.998-12.002,2.998-20.996c17.998-11.006,21.006-44.004,11.006-122.002c-6.006-44.004-7.002-45-23.008-26.006
			c-15.996,20-15.996,20-100.996,0c-47.002-10.996-87.002-17.998-89.004-15.996c-1.992,2.002,5,24.004,17.007,47.018
			c29.932,57.367,69.731,140.303,60.117,206.605c-25.356-44.145-28.174-100.908-46.177-148.51
			c-14.292-37.803-46.616-154.898-99.961-105.098c-29.849,27.855-61.694,12.666-66.26,53.496
			c-3.242,28.998,13.516,59.58,8.916,88.959c-8.208,52.467-28.843,67.76-2.163,119.15c-3.965-7.641-28.55,17.52-30.278,19.678
			c-13.833-16.25-16.836-44.414-22.197-65.303c-10-40-12.002-41.992-25-25c-7.998,11.006-15,30-15.996,44.004
			c-1.006,20-3.008,17.998-13.008-14.004c-6.992-21.992-23.994-48.994-38.994-60l-26.006-18.994l-85,37.998l-85,37.998
			c0,0,44.004,39.004,44.014,39.014c83.589,73.574,87.808,190.479,94.775,294.234c14.331,213.428,3.213,426.469,28.613,639.58
			c8.32,69.854,18.14,139.512,26.621,209.346c3.477,28.604,28.965,86.914,8.491,109.379c-5.112-5.84-7.036-12.686-8.511-20.547
			c-2.998-16.006-12.002-49.004-20-74.004s-22.002-112.002-30-195c-7.998-82.002-17.998-160.996-20.996-175
			c-3.008-14.004-7.002-124.004-10-245c-4.004-285-25-447.998-58.008-460.996c-6.992-3.008-28.994,10-47.998,27.998
			c-18.994,17.998-62.002,57.002-96.001,85.006c-50.386,43.721-182.998,152.402-159.575,229.932
			c15.366,50.844,59.883,86.816,88.477,129.883c30.151,45.41,51.89,96.826,76.069,145.531
			c39.448,79.459,70.459,162.861,93.032,248.643c20,77.002,22.002,111.006,25,409.004c2.002,327.002,5,360.996,45.996,525
			c36.006,148.999,156.006,310,307.002,413.999c42.002,28.999,139.004,68.999,227.002,92.002
			C5880,13509.998,6035,13515.999,6045,13499.998z M6940,11067.996c24.004-32.002,30-50.996,30-90c0-53.994-14.004-57.002-25-5.996
			c-4.004,17.002-17.998,52.002-30,77.002c-20.996,40-24.004,60.996-9.004,60.996
			C6907.998,11109.998,6922.998,11090.994,6940,11067.996z M5445.996,10974.002l-15-29.004l4.004,35
			c2.002,19.004,4.004,37.002,4.004,40c0.996,2.002,5.996-0.996,11.992-7.002
			C5459.003,11004.998,5457.001,10994.002,5445.996,10974.002z"/>
		<path d="M6635,12132.996c57.998-150.996,65.996-232.002,69.004-673.994c1.992-324.004,3.994-381.006,18.994-426.006
			c22.998-68.994,37.998-75.996,20-10c-8.994,36.006-12.998,125-12.998,302.002c0,422.998-22.002,667.998-70,780
			C6642.001,12147,6620,12170.994,6635,12132.996z"/>
		<path d="M6495,11892.996c-0.996-92.002-7.002-265-14.004-382.998c-10-167.002-10.996-247.998-1.992-360
			c11.992-157.998,26.992-257.002,42.998-280c7.002-10.996,7.998-9.004,3.994,10c-30,132.998-37.998,422.998-22.998,860
			c5,135,5,262.002,0,282.998C6497.998,12049.002,6495,12007.996,6495,11892.996z"/>
		<path d="M5735.996,11829.998c4.004-57.998,8.008-117.998,9.004-135c2.002-15.996,4.004-65.996,5.996-110
			c2.002-67.002,3.008-72.998,8.008-35c2.998,25,2.998,80.996-1.006,125c-2.998,44.004-8.994,117.002-10.996,162.998
			c-2.998,46.006-7.998,86.006-12.002,90C5732.001,11930.994,5732.001,11887,5735.996,11829.998z"/>
		<path d="M5610,11864.998c-7.002-20-10-39.004-7.002-42.002s10,12.002,16.006,32.998
			C5632.998,11904.998,5625.996,11912,5610,11864.998z"/>
		<path d="M5575,11749.002c-25-89.004-32.002-305-10-374.004c7.998-27.002,12.002-35.996,9.004-20
			c-15,72.998-11.006,260.996,6.992,350C5604.003,11814.002,5600.996,11837.996,5575,11749.002z"/>
		<path d="M5457.001,11499.998c-17.998-187.002-27.998-287.002-34.004-317.002c-2.998-18.994-0.996-32.998,5-32.998
			c5,0,12.002,27.998,15,62.998c2.998,34.004,11.006,110,17.002,167.998c5.996,58.008,10,128.008,7.998,155
			C5465,11577.996,5464.003,11572.996,5457.001,11499.998z"/>
		<path d="M5607.001,11259.998c2.998-14.004,12.002-40.996,20-60c10.996-30,12.002-30.996,7.998-5.996
			c-4.004,15.996-12.998,42.998-20,60C5604.003,11277,5602.001,11279.002,5607.001,11259.998z"/>
		<path d="M5790.996,10994.002c0-11.006,3.008-14.004,6.006-6.006c2.998,7.002,2.002,16.006-1.006,19.004
			C5792.998,11010.994,5790,11004.998,5790.996,10994.002z"/>
		<path d="M5842.998,10949.002c-5.996-21.006-7.002-42.002-2.998-44.004c7.998-5,25,72.998,17.998,80
			C5855.996,10987.996,5849.003,10970.994,5842.998,10949.002z"/>
		<path d="M5765,10939.002c-4.004-6.006-5-12.002-2.002-15c2.002-3.008,7.002,1.992,10,10.996
			C5780,10952,5774.003,10954.998,5765,10939.002z"/>
		<path d="M5255.996,13092.996c-5.996-13.999-5-15,5-5.996c7.002,6.997,10,15,7.002,17.998S5259.003,13102.996,5255.996,13092.996z"
			/>
	</g>
	<g transform="translate(0.000000,1600.000000) scale(0.100000,-0.100000)">
		<path opacity="0.1" d="M5844.999,13508.996c-129.004-30-262.998-91.001-332.998-151.001
			c-171.006-148.999-236.006-273.999-287.998-552.998c-4.004-22.002-6.006-177.997-5-345.995c1.992-281.006,0-313.008-19.004-390
			c-42.002-169.004-122.998-337.002-235-486.006l-54.004-72.998l51.006-67.002c75.996-100.996,250-262.998,282.998-262.998
			c17.998,0,30.996,29.004,40,94.004c5,31.992,10.996,43.994,17.002,37.998c7.002-7.002,5.996-27.998-2.998-64.004
			c-16.006-65-14.004-57.002-28.008-92.998c-10-27.998-20.996-37.998-77.998-80c-15.996-12.002-12.998-15,27.002-30.996
			c24.004-10,64.004-28.008,89.004-40c40.996-21.006,45.996-22.002,72.998-8.008c15.996,8.008,30.996,21.006,33.994,28.008
			c3.008,7.998,14.004,11.992,25,8.994c10-2.998,19.004,0,19.004,6.006c0,5.996,5,10,12.002,8.994
			c5.996-2.002,17.002,15,22.998,37.002c7.002,24.004,14.004,34.004,17.002,25c2.998-7.998,2.002-22.002-2.998-30.996
			c-5-11.006-3.008-29.004,7.998-49.004c12.002-24.004,13.994-47.998,10-95.996c-6.006-62.002-6.006-63.008,22.002-69.004
			c15.996-2.998,36.992-15,48.994-25c20-19.004,20-17.998,37.001,0.996c12.002,12.002,22.002,16.006,29.004,10
			c6.992-5.996,40.996-3.994,90,5c70,14.004,80,14.004,95,0c10-8.994,20.996-12.998,25.996-8.994c4.004,5,5-1.006,2.002-12.002
			c-12.002-45-17.002-114.004-9.004-119.004c5-2.998,20,6.006,32.998,20c13.008,15,34.004,30,47.002,35
			c12.002,5,22.002,16.006,22.002,26.006c-0.996,33.994,34.004,172.998,42.998,172.998c7.998,0,5-29.004-7.002-65
			c-30-92.998-15-137.002,77.002-219.004c39.004-35.996,74.004-62.998,77.998-60c4.004,2.002,10,26.006,14.004,53.008
			c5.996,42.998,10.996,50.996,37.002,61.992c17.002,7.002,43.994,23.008,58.994,37.002c24.004,20,29.004,31.006,29.004,70
			c0,52.002,10.996,47.002,27.998-13.994c15-52.002,24.004-60,97.002-79.004c32.998-7.998,67.002-17.998,77.002-20.996
			c12.998-4.004,20.996,3.994,32.002,27.998c33.994,77.002,83.994,108.994,167.998,112.002c35,0,68.994,5,75,8.994
			c7.998,5,22.002,2.002,35-7.002c12.002-8.994,33.994-15.996,47.998-15.996c15,0,30.996-9.004,37.998-20
			c15-24.004,32.002-17.998,32.002,10.996c0,11.006,9.004,32.002,20,47.002c22.998,31.006,27.002,72.998,15,152.002
			c-7.998,54.004-7.998,55,12.002,37.998c10.996-10,25-17.998,32.002-17.998c22.998,0,215.996,80,240.996,100l25,20l-32.998,29.004
			c-17.998,15.996-47.998,60-67.002,97.998c-17.998,37.998-40.996,75-49.004,82.002c-13.994,11.992-10.996,16.992,27.002,40.996
			c24.004,15,57.998,45,75,65.996c37.002,44.004,36.006,66.006-2.998,124.004c-74.004,112.002-165.996,337.998-180.996,445
			c-3.008,27.998-10,55-14.004,60c-4.004,5.996-10,122.998-12.998,260c-7.002,329.999-34.004,485.995-114.004,654.999
			c-73.994,156.001-212.002,298.999-362.002,373.999c-145.996,73.999-345,115-415.996,86.001c-37.998-16.001-65-17.002-92.002-2.002
			C6007.997,13521.999,5902.997,13521.999,5844.999,13508.996z M5359.003,12109.998c-19.004-144.004-27.002-182.998-28.008-145
			c-0.996,30,28.008,260.996,35,280C5379.003,12277.996,5377.998,12250.994,5359.003,12109.998z M6787.997,12183.992
			c-0.674-8.74-0.225-16.416-5.166-21.787c-7.344,22.797-10.684,42.451,1.055,59.125
			C6788.993,12209.686,6788.749,12193.84,6787.997,12183.992z M6797.001,12092.996c-2.998-10-5-3.994-5,12.002
			c0,17.002,2.002,24.004,5,17.998C6799.003,12115.994,6799.003,12102,6797.001,12092.996z M6807.001,12002.996
			c-2.998-10-5-2.002-5,17.002s2.002,27.002,5,17.998C6809.003,12027.996,6809.003,12012,6807.001,12002.996z M6817.001,11907.996
			c-2.002-12.998-4.004-2.998-4.004,22.002s2.002,35,4.004,22.998C6819.003,11939.998,6819.003,11919.998,6817.001,11907.996z
			 M6825.937,11813.709c-1.875,8.877-0.684,18.643-2.705,27.24C6825.341,11831.984,6827.089,11822.098,6825.937,11813.709z
			 M6487.001,11192.996c-2.998-10-5-2.002-5,17.002s2.002,27.002,5,17.998C6489.003,11217.996,6489.003,11202,6487.001,11192.996z
			 M5899.999,11019.998c0-15.996-4.004-30-7.998-30c-9.004,0-12.998,27.002-6.006,47.998
			C5892.001,11059.998,5899.999,11050.994,5899.999,11019.998z M5887.001,10917.996c-2.002-12.998-4.004-2.998-4.004,22.002
			s2.002,35,4.004,22.998C5889.003,10949.998,5889.003,10929.998,5887.001,10917.996z"/>
	</g>
</g>
</svg>
