<svg version="1.1" id="Layer_1" xmlns="http://www.w3.org/2000/svg" xmlns:xlink="http://www.w3.org/1999/xlink" x="0px" y="0px"
	 width="1200px" height="1600px" viewBox="0 0 1200 1600" enable-background="new 0 0 1200 1600" xml:space="preserve" fill="#000000">
<g transform="translate(0.000000,1600.000000) scale(0.100000,-0.100000)">
	<path d="M5797.089,12709.002c-110.205-10-179.551-25-264.985-60c-87.925-36.006-252.612-126.006-313.276-171.006
		c-95.356-70.996-279.863-247.998-273.672-262.002c3.711-7.998,0-25-9.902-38.994c-19.81-31.006-3.711-47.002,44.57-47.002
		c18.579,0,37.153-4.004,40.874-9.004c3.716-5-21.055-36.992-54.487-71.992c-38.379-38.008-56.953-65-49.531-69.004
		c24.766-12.002,8.672-75-32.192-125c-75.537-94.004-81.733-115-59.448-230.996c4.961-27.002,9.922-31.006,35.918-26.006
		c42.109,6.006,53.247-20,18.574-47.998c-26.001-20.996-28.477-50-4.956-84.004c13.628-17.998,16.108-17.998,91.636,3.008
		c111.445,30.996,224.126,26.992,289.761-11.006c26.001-15,187.539-27.998,196.787-27.998c10.273,0,23.628-7.002,31.841-15.996
		c11.309-13.008,10.278-15-6.162-12.002c-32.871,5.996-27.739-20,13.354-64.004c22.607-23.994,43.149-52.002,47.266-62.998
		c3.076-10.996,34.922-40,68.818-65c34.937-25,73.97-62.002,88.359-82.998c56.494-86.006,154.097-176.006,133.55-122.998
		c-9.253,22.998,21.567,7.998,76.016-36.006c26.719-20.996,53.428-37.998,58.56-37.998c6.172,0,27.739-10,48.286-20.996
		l36.982-22.002l6.162,22.002c7.188,25.996,30.83,26.992,39.053,1.992c6.152-18.994,7.178-18.994,57.529,4.004
		c28.76,12.002,61.621,32.002,73.945,42.998c12.334,11.006,42.129,31.006,64.736,45c42.119,26.006,43.145,26.006,36.992,4.004
		c-5.137-21.006-5.137-21.006,19.502-6.006c13.359,9.004,48.291,47.002,77.051,85c61.641,80,63.701,82.002,135.615,135
		c28.76,22.002,53.418,44.004,53.418,50c0,6.006,19.521,32.002,42.109,59.004c43.154,50,49.326,85.996,12.334,72.998
		c-42.129-15,134.492,27.002,202.598,54.004c65.625,25.996,79.258,27.002,243.936,27.998h173.369l-3.711,24.004
		c-2.49,12.998-12.393,30.996-22.285,37.998c-9.922,7.998-17.344,25-17.344,37.998c0,19.004,4.951,22.998,22.285,17.998
		c11.143-2.998,28.477-10,37.148-15.996c11.143-7.002,14.854,5.996,14.854,60c0,37.998,4.971,72.998,12.393,78.994
		c7.422,6.006-8.682,42.002-44.57,99.004c-48.311,77.998-53.262,90.996-35.918,100.996c37.148,22.002,22.285,63.008-43.34,115
		c-33.438,28.008-64.395,60-69.336,71.006c-7.441,20-3.721,20,55.713,15.996c34.668-2.998,66.855-2.002,69.346,2.002
		c3.711,4.004-6.201,20-19.805,34.004c-16.113,15.996-23.545,35-19.824,46.992c4.951,15-18.574,44.004-94.111,112.002
		c-234.033,214.004-290.986,252.998-492.832,331.006c-94.111,35.996-138.682,45.996-227.832,55
		C6280.009,12722,5948.164,12720.994,5797.089,12709.002z M5903.583,12007.996c35.908-12.002,65.63-25.996,65.63-30.996
		c0-4.004,11.147-6.006,24.766-2.002s35.913,0,52.007-9.004c24.766-13.994,29.707-13.994,56.963,0
		c16.094,8.008,38.389,13.008,49.521,9.004c9.912-2.998,23.535,0,28.486,5.996c8.672,12.002,79.248,36.006,134.971,46.006
		l30.967,5.996l-30.967-27.998c-17.344-15-53.232-34.004-80.488-42.998l-49.521-17.002l49.521-5l49.541-5l-49.541-22.002
		c-63.145-27.998-33.428-28.994,60.684-2.002c45.801,12.002,76.768,17.002,84.199,11.006c7.432-6.006-8.672-15-42.109-25
		c-29.707-9.004-86.68-27.002-127.539-41.006c-80.488-27.998-130.01-32.998-130.01-13.994c0,5.996-7.432,3.994-16.104-6.006
		c-14.863-15.996-21.055-15-107.734,14.004c-50.757,17.002-116.401,37.998-146.113,47.002c-33.433,10-49.526,18.994-42.104,25
		c7.437,5.996,38.394,0.996,84.199-11.006c94.121-26.992,123.828-25.996,60.684,2.002l-49.531,22.002l49.531,5l49.531,5
		l-49.531,17.002c-54.487,17.998-121.348,67.998-91.641,67.998C5830.522,12029.998,5867.67,12019.998,5903.583,12007.996z"/>
</g>
</svg>
