<svg version="1.0" xmlns="http://www.w3.org/2000/svg"
 width="1200.000000pt" height="1600.000000pt" viewBox="0 0 1200.000000 1600.000000"
 preserveAspectRatio="xMidYMid meet">

<g transform="translate(0.000000,1600.000000) scale(0.100000,-0.100000)"
fill="#000000" stroke="none">
<path d="M6005 12802 c-54 -50 -57 -56 -41 -68 25 -18 13 -32 -59 -64 -34 -15
-65 -35 -68 -44 -4 -10 -3 -14 2 -11 21 12 20 -16 -1 -51 -12 -21 -17 -35 -12
-31 20 12 44 -18 56 -69 l12 -51 28 14 c15 8 28 20 28 27 0 6 16 18 35 25 23
8 37 20 41 37 5 18 11 23 23 18 9 -3 21 -6 26 -6 6 0 17 3 26 6 12 5 18 0 23
-18 4 -17 18 -29 41 -37 19 -7 35 -19 35 -25 0 -7 13 -19 29 -27 28 -14 29
-14 34 17 9 51 26 86 42 86 19 0 19 20 -1 48 -15 22 -11 47 7 37 5 -3 6 1 2
11 -3 9 -34 29 -68 44 -72 32 -83 44 -61 66 15 14 11 20 -40 67 -31 28 -62 52
-68 53 -6 1 -38 -23 -71 -54z"/>
</g>
</svg>
