<svg version="1.0" xmlns="http://www.w3.org/2000/svg"
 width="1200.000000pt" height="1600.000000pt" viewBox="0 0 1200.000000 1600.000000"
 preserveAspectRatio="xMidYMid meet">

<g transform="translate(0.000000,1600.000000) scale(0.100000,-0.100000)"
fill="#000000" stroke="none">
<path d="M5960 11241 c0 -21 13 -41 26 -41 17 0 18 22 2 38 -14 14 -28 16 -28
3z"/>
<path d="M6174 11236 c-16 -41 17 -72 36 -36 9 16 8 25 -1 36 -15 18 -28 18
-35 0z"/>
<path d="M6065 11173 c-11 -3 -31 -16 -44 -29 -13 -13 -34 -24 -47 -24 -34 0
-38 -16 -15 -64 15 -29 19 -52 15 -73 -6 -28 -2 -33 38 -57 56 -32 78 -33 127
-1 49 30 55 39 41 65 -9 16 -7 26 10 50 29 40 23 72 -14 81 -17 5 -40 20 -52
34 -22 26 -24 26 -59 18z"/>
<path d="M5843 11081 c-10 -16 -8 -24 10 -45 21 -25 55 -38 42 -16 -3 6 -2 10
4 10 15 0 1 32 -22 53 -24 21 -20 21 -34 -2z"/>
<path d="M6296 11061 c-9 -10 -16 -27 -16 -39 0 -17 6 -22 25 -22 14 0 25 6
26 13 0 6 2 22 5 34 5 28 -20 37 -40 14z"/>
<path d="M5466 9815 c-20 -15 -12 -40 10 -31 7 3 16 0 20 -6 6 -10 23 7 24 24
0 17 -36 26 -54 13z"/>
<path d="M6668 9787 c-37 -21 -51 -47 -25 -47 26 0 77 39 71 55 -4 8 -7 15 -8
15 0 -1 -18 -11 -38 -23z"/>
<path d="M5423 9700 c-8 -30 -7 -46 3 -65 7 -14 9 -25 5 -25 -12 0 -19 -46
-10 -61 12 -20 -12 -66 -89 -168 -79 -105 -79 -107 -9 -143 22 -11 45 -24 51
-29 26 -21 113 -91 135 -110 50 -42 58 -42 96 -2 29 31 35 45 34 78 -1 22 2
49 6 60 4 11 13 37 21 58 19 51 18 70 -7 85 -11 7 -19 20 -16 30 2 9 -2 28 -8
42 -7 14 -17 54 -24 90 -7 36 -14 74 -16 85 -4 18 -22 31 -130 96 l-31 19 -11
-40z"/>
<path d="M6664 9706 c-92 -57 -103 -68 -109 -111 -3 -22 -12 -65 -21 -95 -9
-30 -18 -69 -21 -87 -3 -20 -12 -35 -24 -38 -10 -4 -19 -12 -19 -18 1 -15 33
-108 44 -125 4 -7 5 -31 1 -53 -7 -38 -4 -44 31 -80 21 -21 41 -39 44 -39 3 0
15 8 26 18 36 34 189 147 219 162 40 20 58 38 52 53 -5 14 -105 149 -115 157
-25 19 -36 63 -37 156 -2 133 -6 139 -71 100z"/>
<path d="M6440 9496 c0 -51 16 -68 37 -40 21 28 12 78 -15 82 -20 3 -22 -1
-22 -42z"/>
<path d="M5680 9495 c0 -29 3 -36 18 -33 11 2 17 13 17 33 0 20 -6 31 -17 33
-15 3 -18 -4 -18 -33z"/>
<path d="M5707 9298 c-21 -53 -21 -58 -3 -58 18 0 78 68 73 83 -2 7 -15 13
-29 15 -21 3 -27 -3 -41 -40z"/>
<path d="M6375 9310 c-7 -22 18 -70 35 -70 12 0 12 6 -1 53 -11 41 -24 48 -34
17z"/>
<path d="M5238 9165 c-6 -14 -15 -25 -19 -25 -4 0 -10 -7 -13 -16 -4 -11 15
-38 61 -85 61 -63 69 -68 103 -65 49 4 61 13 56 41 -5 29 -24 65 -34 65 -10 0
-65 44 -105 83 -16 15 -31 27 -33 27 -2 0 -10 -11 -16 -25z"/>
<path d="M6880 9172 c-8 -10 -33 -31 -55 -47 -68 -50 -95 -82 -95 -115 0 -16
3 -30 8 -31 4 0 24 -2 44 -4 35 -4 42 0 103 63 36 36 65 69 65 73 0 10 -44 78
-50 78 -3 1 -12 -7 -20 -17z"/>
</g>
</svg>
