<svg version="1.0" xmlns="http://www.w3.org/2000/svg"
 width="1200.000000pt" height="1600.000000pt" viewBox="0 0 1200.000000 1600.000000"
 preserveAspectRatio="xMidYMid meet">

<g transform="translate(0.000000,1600.000000) scale(0.100000,-0.100000)"
fill="#000000" stroke="none">
<path d="M6025 13090 c-129 -25 -165 -33 -212 -50 -29 -11 -61 -24 -70 -29
-10 -6 -61 -29 -113 -51 -136 -60 -297 -140 -308 -153 -5 -7 -15 -55 -21 -107
-19 -163 -61 -299 -131 -415 -41 -69 -60 -88 -162 -166 -54 -41 -80 -68 -84
-87 -15 -69 -30 -99 -66 -135 -21 -21 -36 -42 -33 -48 10 -15 85 -50 85 -40 0
6 16 -1 36 -14 42 -28 77 -31 117 -11 32 17 34 10 6 -24 -60 -74 -109 -158
-102 -176 6 -17 -25 -154 -41 -179 -26 -40 0 -48 139 -45 22 0 78 7 125 15 47
8 117 17 155 21 66 6 74 4 118 -22 39 -23 53 -41 77 -92 17 -34 30 -66 30 -70
0 -28 42 -43 148 -54 118 -12 142 -6 142 32 0 15 37 116 47 129 2 3 9 -1 15
-7 16 -16 299 -17 315 -1 13 13 15 10 42 -73 12 -36 29 -72 36 -78 11 -9 41
-10 121 -2 124 12 136 20 174 112 28 69 32 74 88 106 52 29 61 29 270 -2 100
-14 105 -14 135 5 18 11 44 32 58 48 37 40 82 137 83 181 1 35 -2 38 -46 59
-32 16 -65 45 -104 93 -31 39 -79 90 -107 114 -27 23 -48 48 -46 54 2 6 44
-27 92 -75 86 -84 89 -86 114 -72 34 18 122 118 129 146 13 51 -75 162 -182
231 -115 74 -244 384 -244 587 0 52 -18 69 -125 123 -203 101 -402 182 -495
201 -130 27 -159 30 -205 21z m-815 -1183 c0 -2 -15 -16 -32 -33 l-33 -29 29
33 c28 30 36 37 36 29z"/>
</g>
</svg>
