<?xml version="1.0" encoding="utf-8"?>
<!-- Generator: Adobe Illustrator 16.0.0, SVG Export Plug-In . SVG Version: 6.00 Build 0)  -->
<!DOCTYPE svg PUBLIC "-//W3C//DTD SVG 1.1//EN" "http://www.w3.org/Graphics/SVG/1.1/DTD/svg11.dtd">
<svg version="1.1" id="Layer_1" xmlns="http://www.w3.org/2000/svg" xmlns:xlink="http://www.w3.org/1999/xlink" x="0px" y="0px"
	 width="1200px" height="1600px" viewBox="0 0 1200 1600" enable-background="new 0 0 1200 1600" xml:space="preserve">
<g transform="translate(0.000000,1600.000000) scale(0.100000,-0.100000)">
	<path d="M6415,13273.997c-105.996-22.998-160.996-51.001-202.998-105c-12.998-16.001-22.002-36.001-19.004-42.998
		c10-25,56.006-28.003,100-7.002c77.002,37.002,159.004,43.999,290,27.002l42.002-6.001l-50,15
		c-77.998,22.998-170.996,18.999-260.996-11.001C6260.996,13127,6230,13122,6215.996,13127c-16.992,7.998-15.996,11.997,20,45.996
		c99.004,94.004,248.008,106.001,331.006,28.003c33.994-32.002,40-25,7.998,8.999c-22.002,22.998-125.996,75-137.998,68.999
		C6435.996,13277.996,6425.996,13275.999,6415,13273.997z"/>
	<path d="M5655,13257.996c-30.996-11.997-132.998-87.998-117.002-87.998c5,0,26.006,12.998,46.006,28.999
		c80.996,65,177.998,73.003,268.994,23.003c55-30,102.827-79.829,89.004-94.004c-38.877-39.873-69.937,1.44-91.426,13.452
		c-12.383,6.924-41.572,12.549-60.576,17.549c-50,15-157.002,13.003-210-3.999l-45-15l50,7.002
		c117.998,15,259.004-1.001,285.996-33.003c16.006-18.999,53.008-16.997,79.004,3.999l22.998,19.004l-40,38.999
		c-55.996,55-62.002,57.998-117.998,76.997C5760,13272,5700,13273.997,5655,13257.996z"/>
	<path d="M5610,13085.999c-25-7.002-57.002-18.003-70.996-23.999c-27.002-11.001-103.008-80-129.004-117.998
		c-27.998-39.004-75-66.006-102.998-59.004c-17.998,5-24.004,12.002-21.006,22.998c4.004,12.998,3.008,12.998-5.996-0.996
		c-10-16.006-7.002-25,20-59.004c30-35.996,30.996-40.996,17.002-55.996c-14.004-12.998-21.006-14.004-42.998-2.998l-27.002,11.992
		l25-32.998c48.994-65,72.002-70,327.998-70c125,0,232.998,2.998,239.004,6.006c5.996,3.994,10.996,11.992,10.996,18.994
		c0,6.006,10.996,22.002,24.004,36.006c42.998,46.992,45.996,77.998,20,162.998c-18.008,55-34.004,85.996-60,111.997
		C5782.001,13085.999,5685,13107.996,5610,13085.999z M5722.998,13048.997c67.002-34.995,90-86.997,89.004-204.995
		c0-121.006,10-114.004-157.998-114.004h-145l-19.004,42.998c-29.004,62.002-25,111.006,10.996,176.006
		c36.006,63.994,48.008,74.995,104.004,94.995C5654.003,13062,5695,13062.996,5722.998,13048.997z M5849.003,12945.994
		c16.992-52.998,20-98.994,10.996-140c-24.375-81.621-33.125-69.746-22.002,33.008c2.998,75.996-5.244,94.873-24.248,132.871
		c-22.002,43.008-19.375,51.504,0.625,32.5C5826.376,12994.373,5844.003,12964.002,5849.003,12945.994z M5437.001,12847.996
		c0.996-35,5.996-75,12.002-90c10-27.002,8.994-27.998-23.008-27.998c-40.996,0-47.998,14.004-35,67.998
		c7.002,32.002,38.008,112.002,44.004,112.002C5435,12909.998,5435.996,12882,5437.001,12847.996z"/>
	<path fill="#FFFFFF" d="M5632.001,13012.996c-12.002-2.002-27.002-12.998-32.002-23.994c-9.004-15-5.996-23.008,14.004-40
		c13.994-12.002,30-36.006,35.996-53.008c14.004-43.994,60-70,94.004-55c30.996,15,53.994,60,47.998,99.004
		C5785,12987.996,5700,13027,5632.001,13012.996z"/>
	<path fill="#FFFFFF" d="M5520,12827.996c0-40,14.746-65.259,38.325-71.338c11.304-2.915,32.339,0.728,36.851,6.108
		c4.37,5.215-1.172,14.233-14.18,23.228c-11.992,9.004-23.75,30.581-34.746,48.589c0,0-8.75,34.546-17.5,32.08
		C5519.848,12864.153,5520,12827.996,5520,12827.996z"/>
	<path d="M6367.001,13068.997c-51.006-26.997-91.006-86.001-112.998-164.995l-18.008-66.006l24.004-43.994
		c12.002-24.004,27.002-44.004,30.996-44.004c5,0,9.004-9.004,9.004-19.004s7.998-21.992,17.998-25.996
		c9.004-4.004,119.004-7.002,242.998-7.002c243.008,0,245,0,307.002,56.006c35,32.998,42.998,52.998,12.998,35
		c-23.994-16.006-50.996-5-50.996,20.996c0,10.996,2.998,20,7.998,20c4.004,0,14.004,12.998,22.998,29.004
		c17.002,28.994,17.002,28.994-10,25.996c-38.994-4.004-70,15.996-133.994,89.004c-80,89.995-132.002,115.996-234.004,115.996
		C6425,13088.997,6395,13083.997,6367.001,13068.997z M6577.998,13027.996c57.832-32.998,68.467-66.655,82.998-92.998
		c33.008-59.004,40-124.004,19.004-175l-12.002-30h-153.994c-141.006,0-154.004,2.002-164.004,19.004
		c-12.998,25.996-12.998,140.996,0.996,195.996c11.006,42.998,50,96.001,79.004,107.998
		C6455,13062.996,6532.001,13049.998,6577.998,13027.996z M6338.33,12966.663c-12.002-23.994-15.313-64.971-18.33-120.835
		c-3.33-61.665,19.131-123.545-15.996-70.83c-20,25.996-17.002,130.996,5,180c10.996,25,41.865,71.25,47.871,71.25
		C6361.875,13026.248,6347.324,12983.665,6338.33,12966.663z M6745,12864.002c7.998-19.004,17.002-57.002,20.996-85l7.002-49.004
		H6735c-34.004,0-37.002,2.002-30.996,22.998c3.994,12.002,10,50,12.998,85c2.998,34.004,7.002,62.002,8.994,62.002
		C6727.998,12899.998,6735.996,12884.002,6745,12864.002z"/>
	<path fill="#FFFFFF" d="M6465.996,12999.002c-38.994-31.006-32.998-57.002,28.008-113.008
		c28.994-27.998,55.996-58.994,58.994-67.998c7.998-22.002,52.002-23.994,72.002-3.994c35,35,25.996,112.998-19.004,155
		c-12.998,11.992-43.994,27.998-68.994,35.996C6494.003,13017.996,6489.003,13017,6465.996,12999.002z"/>
	<path fill="#FFFFFF" d="M6360,12802.996c0-25.996,14.004-42.998,37.998-47.998c34.004-5.996,36.006,12.002,5,40
		C6370,12824.002,6360,12825.994,6360,12802.996z"/>
	<path d="M6865,12909.998c-2.998-5-0.996-10,4.004-10c5.996,0,10.996,5,10.996,10c0,5.996-2.002,10-4.004,10
		C6872.998,12919.998,6867.998,12915.994,6865,12909.998z"/>
</g>
</svg>
