<?xml version="1.0" standalone="no"?>
<!DOCTYPE svg PUBLIC "-//W3C//DTD SVG 20010904//EN"
 "http://www.w3.org/TR/2001/REC-SVG-20010904/DTD/svg10.dtd">
<svg version="1.0" xmlns="http://www.w3.org/2000/svg"
 width="1200.000000pt" height="1600.000000pt" viewBox="0 0 1200.000000 1600.000000"
 preserveAspectRatio="xMidYMid meet">

<g transform="translate(0.000000,1600.000000) scale(0.100000,-0.100000)"
fill="#000000" stroke="none">
<path d="M5680 13073 c-79 -11 -95 -17 -136 -55 -24 -22 -55 -64 -69 -93 -23
-49 -24 -58 -14 -105 6 -28 22 -64 37 -81 l26 -31 82 7 c59 5 93 3 119 -6 31
-11 40 -11 63 2 25 14 27 20 33 104 4 50 2 108 -3 130 -15 60 -94 135 -138
128z"/>
<path d="M6434 13064 c-43 -18 -92 -79 -98 -123 -3 -20 -8 -72 -11 -116 -7
-101 3 -120 66 -117 24 1 94 2 155 2 109 -1 111 0 128 25 26 40 32 126 13 177
-18 47 -67 106 -108 132 -40 25 -109 35 -145 20z"/>
</g>
</svg>
