<?xml version="1.0" encoding="utf-8"?>
<!-- Generator: Adobe Illustrator 16.0.0, SVG Export Plug-In . SVG Version: 6.00 Build 0)  -->
<!DOCTYPE svg PUBLIC "-//W3C//DTD SVG 1.1//EN" "http://www.w3.org/Graphics/SVG/1.1/DTD/svg11.dtd">
<svg version="1.1" xmlns="http://www.w3.org/2000/svg" xmlns:xlink="http://www.w3.org/1999/xlink" x="0px" y="0px" width="1200px"
	 height="1600px" viewBox="0 0 1200 1600" enable-background="new 0 0 1200 1600" xml:space="preserve">
<g id="Layer_2">
	<g transform="translate(0.000000,1600.000000) scale(0.100000,-0.100000)" opacity="0.7">
		<path d="M6379.677,14040.379c-29.766-180.64-75.938-429.487-90.293-488.11c-20.566-83.286-30.537-265.854,8.955-291.436
			c79.014-50.249,85.029-22.656,98.379-16.67c17.432,8.369,66.621,10.137,66.621,31.67c0,7.178,28.008,106.665,34.16,106.665
			c27.705,0-15.215,568.154-50.107,633.955c-11.279,20.342-24.619,38.286-29.756,38.286c-5.127,0-9.238,7.178-9.238,16.753
			c0,9.57-4.102,20.337-9.238,25.122C6394.033,14100.198,6384.804,14075.076,6379.677,14040.379z"/>
		<path d="M5716.875,14026.873c-18.477-50.249-78.037-383.682-80.093-493.75c-2.056-108.872,6.162-150.742,43.096-223.716
			c49.253-95.708,65.674-101.689,134.414-57.427c58.491,37.09,67.729,57.427,71.826,159.121
			c2.056,33.496-3.076,51.436-19.487,68.188c-12.314,11.963-15.796,40.991-15.796,56.543c0,16.748-18.062,67.876-32.432,119.321
			s-30.786,139.971-36.938,196.201c-12.314,125.625-0.459,152.075-19.946,186.768
			C5742.016,14074.012,5735.341,14078.318,5716.875,14026.873z"/>
	</g>
</g>
<g id="Layer_1">
	<g transform="translate(0.000000,1600.000000) scale(0.100000,-0.100000)">
		<path d="M5751.571,14133.483c-0.161,0.142-0.327,0.283-0.498,0.425c-12.832-14.707-24.326-36.304-32.847-54.224
			c-25.742-54.155-37.563-118.604-53.228-176.348c-17.139-63.184-28.047-127.5-38.339-192.305
			c-13.652-85.947-15.776-175.137-4.57-261.494c5.684-43.828,14.516-87.808,29.858-129.355c10.005-27.095,25.127-66.46,53.975-79.16
			c41.206-18.135,86.279-22.603,128.081-4.023c26.992,11.997,38.994,26.997,50.996,60.996
			c23.384,66.23,10.981,136.274-3.545,202.891c-16.045,73.564-29.453,147.671-45.591,221.216
			c-15.078,68.706-31.353,137.266-41.235,206.973c-5.146,36.323-4.663,73.203-8.916,109.629c-2.144,18.35-5.127,36.714-10.781,54.37
			C5770.194,14107.858,5763.515,14123.107,5751.571,14133.483z M5763.192,13928.015c7.07-73.818,16.045-146.724,32.28-219.258
			c9.79-43.74,20.493-87.441,32.358-130.664c25.757-93.818,80.654-204.941,12.534-295.713
			c-15.522-20.679-47.485-32.397-72.661-34.385c-42.178-3.335-71.87,48.027-83.701,82.256c-6.108,17.666-9.902,36.216-12.983,54.604
			c-8.706,51.929-12.017,104.512-12.017,157.144c0.996,190,15.996,283.999,76.992,475.996c4.219,13.276,9.966,7.773,14.888,1.04
			c12.515-17.109,9.419-60.171,11.284-80.176C5762.504,13935.241,5762.846,13931.628,5763.192,13928.015z"/>
		<path d="M6391.669,14132.995c-2.188-14.346-4.795-42.158-5.234-45.459c-20.938-160.459-53.369-320.645-88.779-478.472
			c-6.689-29.8-13.438-59.644-21.66-89.067c-37.998-136.001-21.992-242.002,41.006-280c25-13.999,45-20,62.002-15
			c13.994,2.998,35,7.002,45.996,8.999c10.996,2.002,22.998,3.999,27.002,5c15,2.002,47.002,78.999,57.002,137.002
			c9.482,54.98,8.74,113.198,10.195,168.804c1.826,69.678-0.566,139.546-9.922,208.672c-9.307,68.711-20.117,127.417-31.777,200.688
			c-7.09,44.58-17.412,98.652-40.898,138.35C6433.437,14097.849,6394.784,14153.415,6391.669,14132.995z M6447.997,13904.997
			c57.002-247.998,62.998-520,12.002-613.999c-15.996-31.001-69.004-51.001-110-43.003c-46.504,9.072-67.051,63.682-69.863,104.248
			c-3.633,52.607,11.621,103.667,27.559,153.174c44.15,137.08,72.256,280.747,81.24,424.526
			c0.537,8.604,12.148,106.157,32.061,73.052C6424.003,13997.995,6437.001,13954.997,6447.997,13904.997z"/>
		<path d="M5984.999,13582.995c-60.996-20.996-70.996-35-55-73.999c7.998-16.997,24.004-41.997,35.996-53.999
			c20-20,31.006-22.002,115-20c87.002,2.002,94.004,3.999,116.006,28.999c25,28.999,37.998,68.003,30,88.999
			c-7.002,18.003-106.006,47.002-157.998,46.001C6044.999,13597.995,6007.001,13590.998,5984.999,13582.995z M6139.003,13563.996
			c60-16.997,68.994-31.997,45.996-71.001c-15.996-26.997-20-27.998-105-30.996c-82.002-3.003-89.004-2.002-104.004,18.999
			c-30,43.999-20.996,66.997,32.002,82.998C6069.003,13582.995,6075.995,13582.995,6139.003,13563.996z"/>
		<path d="M6027.997,13406.999c-25.996-22.002-60-102.002-70.996-167.002c-6.006-32.998-2.998-37.002,42.998-67.002
			c27.998-17.998,59.004-32.998,70-32.998c22.998,0,82.002,28.999,120,58.999c22.998,18.999,24.004,22.002,12.002,53.003
			c-7.998,17.998-20,52.998-27.998,77.998c-18.008,56.001-59.004,100-93.008,100
			C6067.001,13429.997,6042.997,13419.997,6027.997,13406.999z M6117.997,13396.999c25.049-18.511,34.121-52.676,42.568-81.021
			c4.258-14.307,33.496-78.159,17.432-86.982c-0.01-0.01-30.996-20-30.996-20c-17.998-10-47.998-18.999-67.002-18.999
			c-45,0-103.999,35-95.996,56.001C6004.228,13299.069,6023.876,13466.55,6117.997,13396.999z M6055.995,13161.999
			c-10-2.002-21.992,0-27.998,5.996c-5.996,6.001,0,7.002,19.004,4.004C6067.997,13166.999,6069.999,13164.997,6055.995,13161.999z
			 M6117.001,13163.996c-2.998-2.998-12.002-3.999-19.004-1.001c-7.998,3.003-5,6.001,6.006,6.001
			C6114.999,13169.997,6120.995,13166.999,6117.001,13163.996z"/>
	</g>
</g>
</svg>
