<svg version="1.1" id="Layer_1" xmlns="http://www.w3.org/2000/svg" xmlns:xlink="http://www.w3.org/1999/xlink" x="0px" y="0px"
	 width="1200px" height="1600px" viewBox="0 0 1200 1600" enable-background="new 0 0 1200 1600" xml:space="preserve">
<g transform="translate(0.000000,1600.000000) scale(0.100000,-0.100000)" fill="#000000">
	<path d="M6379.677,14040.379c-29.766-180.64-75.938-429.487-90.293-488.11c-20.566-83.286-30.537-265.854,8.955-291.436
		c79.014-50.249,85.029-22.656,98.379-16.67c17.432,8.369,66.621,10.137,66.621,31.67c0,7.178,28.008,106.665,34.16,106.665
		c27.705,0-15.215,568.154-50.107,633.955c-11.279,20.342-24.619,38.286-29.756,38.286c-5.127,0-9.238,7.178-9.238,16.753
		c0,9.57-4.102,20.337-9.238,25.122C6394.033,14100.198,6384.804,14075.076,6379.677,14040.379z"/>
	<path d="M5716.875,14026.873c-18.477-50.249-78.037-383.682-80.093-493.75c-2.056-108.872,6.162-150.742,43.096-223.716
		c49.253-95.708,65.674-101.689,134.414-57.427c58.491,37.09,67.729,57.427,71.826,159.121c2.056,33.496-3.076,51.436-19.487,68.188
		c-12.314,11.963-15.796,40.991-15.796,56.543c0,16.748-18.062,67.876-32.432,119.321s-30.786,139.971-36.938,196.201
		c-12.314,125.625-0.459,152.075-19.946,186.768C5742.016,14074.012,5735.341,14078.318,5716.875,14026.873z"/>
</g>
</svg>
