<svg width="2400" height="3200" xmlns="http://www.w3.org/2000/svg" viewBox="0 0 2400 3200"><path d="M 1233.32 754.31 C 1228.82 754.58 1224.88 754.55 1224.57 754.23 C 1224.26 753.92 1224.0 753.35 1224.0 752.96 C 1224.0 752.57 1228.39 751.71 1233.75 751.05 C 1239.11 750.4 1246.45 749.0 1250.06 747.94 C 1253.98 746.8 1257.59 745.0 1259.03 743.47 C 1260.36 742.06 1262.29 741.05 1263.36 741.21 C 1264.43 741.37 1265.79 742.29 1266.39 743.25 C 1267.19 744.52 1267.19 745.48 1266.4 746.75 C 1265.8 747.71 1263.55 749.1 1261.4 749.83 C 1259.26 750.55 1253.9 751.75 1249.5 752.49 C 1245.1 753.23 1237.82 754.05 1233.32 754.31 Z M 1201.92 752.67 C 1200.59 752.76 1198.38 752.45 1197.0 751.99 C 1195.62 751.52 1192.47 750.61 1190.0 749.96 C 1187.53 749.3 1184.6 748.37 1183.5 747.89 C 1182.4 747.4 1178.35 745.85 1174.5 744.43 C 1170.65 743.01 1166.15 741.42 1164.5 740.9 C 1162.85 740.38 1160.77 739.4 1159.88 738.72 C 1158.99 738.03 1157.96 736.1 1157.59 734.41 C 1157.01 731.78 1157.28 731.19 1159.51 730.18 C 1160.93 729.53 1162.9 729.0 1163.89 729.0 C 1164.88 729.0 1166.37 729.79 1167.19 730.75 C 1168.02 731.71 1168.97 733.27 1169.3 734.22 C 1169.64 735.16 1174.32 738.15 1179.71 740.84 C 1185.09 743.54 1191.06 746.09 1192.97 746.5 C 1194.87 746.92 1197.12 747.62 1197.97 748.07 C 1198.81 748.51 1200.77 749.15 1202.32 749.48 C 1203.91 749.81 1204.97 750.6 1204.74 751.29 C 1204.52 751.95 1203.26 752.57 1201.92 752.67 Z " opacity="1.0" fill="#000000" stroke="none" fill-rule="evenodd"/></svg>