<?xml version="1.0" standalone="no"?>
<!DOCTYPE svg PUBLIC "-//W3C//DTD SVG 20010904//EN"
 "http://www.w3.org/TR/2001/REC-SVG-20010904/DTD/svg10.dtd">
<svg version="1.0" xmlns="http://www.w3.org/2000/svg"
 width="1200.000000pt" height="1600.000000pt" viewBox="0 0 1200.000000 1600.000000"
 preserveAspectRatio="xMidYMid meet">

<g transform="translate(0.000000,1600.000000) scale(0.100000,-0.100000)"
fill="#000000" stroke="none">
<path d="M5665 14120 c-11 -5 -30 -9 -42 -9 -12 -1 -34 -6 -50 -13 -15 -6 -34
-10 -42 -9 -8 1 -10 -2 -5 -10 5 -9 1 -11 -14 -7 -12 4 -20 2 -17 -2 3 -5 -14
-14 -37 -21 -155 -41 -219 -82 -311 -199 -80 -101 -146 -226 -191 -360 -59
-176 -65 -259 -31 -385 8 -27 19 -69 25 -93 9 -33 15 -42 28 -38 9 3 36 10 60
16 l43 11 -6 53 c-5 38 -3 55 7 63 22 19 38 0 45 -53 3 -27 6 -50 7 -50 11
-11 47 -12 57 -1 7 7 23 12 36 9 17 -3 25 2 32 19 5 13 7 27 5 30 -1 3 -8 42
-13 87 -8 66 -8 88 4 116 8 20 15 66 15 104 0 70 19 142 58 219 65 127 315
237 500 220 39 -4 61 -3 57 3 -9 15 1 12 47 -11 23 -12 50 -32 60 -44 10 -12
27 -25 38 -28 16 -4 20 0 20 19 0 19 5 24 25 24 20 0 25 -5 25 -24 0 -19 4
-23 20 -19 11 3 28 16 38 28 10 12 37 32 60 44 46 23 56 26 47 11 -4 -6 18 -7
57 -3 100 9 200 -11 303 -62 138 -67 177 -104 219 -205 32 -74 36 -95 36 -166
0 -51 6 -95 15 -118 13 -31 14 -50 4 -126 -6 -49 -9 -95 -6 -103 8 -20 108
-39 124 -24 3 4 8 26 10 51 11 90 50 79 55 -14 l3 -54 50 -12 c27 -7 50 -12
51 -11 6 6 53 189 59 227 14 98 -47 320 -132 482 -57 108 -157 236 -220 282
-46 33 -106 59 -201 85 -23 7 -40 16 -37 21 3 4 -5 6 -17 2 -16 -4 -19 -2 -13
8 6 10 4 12 -8 7 -9 -3 -19 -2 -22 2 -9 16 -152 44 -187 37 -18 -4 -69 -10
-113 -13 -44 -3 -86 -10 -93 -15 -15 -13 -227 -11 -252 2 -10 6 -50 10 -89 10
-38 0 -73 5 -76 10 -7 12 -92 12 -120 0z m348 -97 c-7 -2 -19 -2 -25 0 -7 3
-2 5 12 5 14 0 19 -2 13 -5z"/>
</g>
</svg>
