<?xml version="1.0" standalone="no"?>
<!DOCTYPE svg PUBLIC "-//W3C//DTD SVG 20010904//EN"
 "http://www.w3.org/TR/2001/REC-SVG-20010904/DTD/svg10.dtd">
<svg version="1.0" xmlns="http://www.w3.org/2000/svg"
 width="1200.000000pt" height="1600.000000pt" viewBox="0 0 1200.000000 1600.000000"
 preserveAspectRatio="xMidYMid meet">

<g transform="translate(0.000000,1600.000000) scale(0.100000,-0.100000)"
fill="#000000" stroke="none">
<path d="M6145 14013 c-67 -25 -72 -25 -135 -12 -109 23 -257 16 -395 -19
-134 -34 -153 -41 -210 -77 -22 -14 -47 -28 -55 -32 -26 -11 -142 -106 -181
-148 -54 -57 -134 -215 -159 -315 -21 -79 -22 -100 -16 -290 3 -113 9 -229 12
-258 l7 -53 41 6 c63 9 96 25 112 56 8 16 21 29 29 29 8 0 15 4 15 9 0 23 274
101 419 120 118 16 219 24 299 26 l73 1 22 43 c26 52 31 43 14 -25 -8 -32 -10
-60 -5 -74 5 -13 4 -38 -2 -58 -6 -22 -6 -40 -1 -45 14 -14 58 80 86 181 l24
87 0 -65 c1 -70 9 -110 21 -110 4 0 18 16 31 36 23 34 26 35 69 30 25 -3 97
-10 161 -16 215 -18 469 -83 531 -137 9 -8 25 -13 35 -12 27 5 43 -9 43 -36 0
-25 13 -32 72 -40 l35 -4 12 82 c6 45 11 169 11 276 0 168 -3 203 -21 265 -26
87 -79 195 -127 259 -41 54 -163 157 -222 187 -22 11 -43 26 -47 34 -9 17
-186 69 -295 86 -42 7 -107 11 -146 8 -52 -3 -68 -1 -61 8 10 12 2 24 -15 23
-6 0 -42 -12 -81 -26z m45 -21 c0 -5 48 -12 108 -16 151 -9 225 -23 307 -56
162 -68 298 -170 378 -282 89 -126 106 -159 128 -256 20 -87 21 -111 14 -276
-8 -203 -18 -246 -59 -246 -15 0 -26 5 -26 10 0 6 3 10 8 10 4 0 8 44 9 98 3
97 -7 103 -21 12 -10 -68 -15 -73 -61 -50 -136 67 -346 113 -610 135 -159 12
-160 12 -175 -9 -14 -19 -15 -10 -20 114 -3 79 0 184 8 254 7 65 11 123 10
128 -2 5 -22 -82 -45 -194 -50 -240 -78 -349 -85 -328 -2 8 -1 31 4 50 12 49
38 230 37 260 0 21 -28 -51 -93 -237 -10 -31 -14 -33 -56 -31 -80 3 -272 -13
-397 -33 -137 -21 -253 -55 -362 -105 -41 -19 -75 -33 -76 -32 -1 2 -7 21 -13
43 -11 38 -11 38 -6 -20 2 -32 10 -63 17 -67 18 -11 2 -20 -26 -13 -42 11 -50
51 -55 265 -3 173 -1 204 17 279 18 73 59 164 81 181 3 3 22 28 40 55 19 28
50 66 70 85 71 72 223 166 343 214 85 34 302 47 429 25 63 -11 69 -11 115 13
55 29 63 31 63 20z"/>
</g>
</svg>
