<?xml version="1.0" standalone="no"?>
<!DOCTYPE svg PUBLIC "-//W3C//DTD SVG 20010904//EN"
 "http://www.w3.org/TR/2001/REC-SVG-20010904/DTD/svg10.dtd">
<svg version="1.0" xmlns="http://www.w3.org/2000/svg"
 width="1200.000000pt" height="1600.000000pt" viewBox="0 0 1200.000000 1600.000000"
 preserveAspectRatio="xMidYMid meet">

<g transform="translate(0.000000,1600.000000) scale(0.100000,-0.100000)"
fill="#000000" stroke="none">
<path d="M5805 13989 c-95 -6 -209 -31 -229 -50 -6 -5 -16 -9 -24 -9 -43 0
-220 -109 -301 -184 -40 -38 -151 -178 -151 -191 0 -3 -11 -23 -25 -44 -36
-54 -75 -244 -75 -364 0 -98 19 -228 39 -265 26 -48 96 -49 103 -1 2 17 20 30
73 53 39 17 82 39 95 48 40 27 450 88 594 88 84 0 86 2 135 95 l32 60 -7 -60
c-11 -103 -13 -195 -5 -195 11 0 59 163 67 225 8 63 14 70 15 19 0 -21 6 -61
12 -89 l12 -50 65 -2 c225 -9 748 -92 724 -116 -3 -3 16 -20 42 -37 27 -17 50
-36 50 -43 1 -7 2 -18 3 -24 2 -20 26 -15 49 10 24 26 48 118 58 228 12 125
-36 365 -90 446 -79 118 -98 143 -152 196 -100 99 -222 171 -384 227 -57 20
-90 23 -255 27 -104 2 -230 4 -280 6 -49 1 -135 -1 -190 -4z m-520 -1009 c-11
-5 -27 -9 -35 -9 -13 -1 -13 0 0 9 8 5 24 9 35 9 l20 0 -20 -9z"/>
</g>
</svg>
