<svg version="1.0" xmlns="http://www.w3.org/2000/svg"
 width="1200.000000pt" height="1600.000000pt" viewBox="0 0 1200.000000 1600.000000"
 preserveAspectRatio="xMidYMid meet">

<g transform="translate(0.000000,1600.000000) scale(0.100000,-0.100000)"
fill="#000000" stroke="none">
<path d="M4543 10185 c-32 -16 -72 -40 -89 -52 -17 -12 -34 -20 -37 -17 -2 3
-24 -21 -48 -52 -24 -31 -91 -116 -148 -188 -109 -136 -191 -250 -191 -265 0
-5 -7 -15 -17 -22 -67 -56 -164 -235 -227 -419 -103 -303 -185 -511 -213 -543
-10 -10 -49 -37 -88 -60 -92 -53 -171 -114 -273 -209 -45 -43 -89 -78 -96 -78
-7 0 -30 -13 -51 -30 -21 -16 -43 -30 -49 -30 -7 0 -50 -18 -97 -41 -124 -60
-239 -96 -374 -114 -132 -19 -148 -28 -138 -79 8 -43 56 -90 117 -117 45 -19
62 -21 150 -16 l99 6 -39 -40 c-21 -22 -73 -61 -114 -86 -97 -60 -120 -81
-120 -110 0 -35 45 -73 86 -73 10 0 47 -12 83 -26 56 -23 76 -26 138 -22 71 5
77 7 161 66 48 34 123 80 167 103 44 23 97 55 118 72 21 16 40 28 42 25 2 -2
-17 -51 -44 -109 -45 -100 -67 -135 -142 -235 -22 -30 -29 -48 -24 -63 8 -26
58 -36 111 -22 49 13 145 97 169 148 10 21 30 56 45 78 15 22 55 82 88 134 41
63 78 106 113 131 28 22 65 59 82 84 17 24 44 52 60 61 53 32 94 74 145 152
53 82 69 130 75 226 2 31 7 60 10 64 4 3 7 14 7 23 0 44 70 166 201 350 78
109 208 281 262 345 103 122 157 205 238 370 43 88 101 203 129 255 27 52 49
102 50 110 0 8 -19 -5 -45 -30 -24 -25 -44 -50 -45 -56 0 -16 -186 -390 -223
-449 -30 -47 -82 -121 -237 -330 -37 -49 -124 -169 -194 -265 -71 -96 -145
-195 -165 -218 -38 -46 -51 -70 -32 -58 8 5 11 -10 11 -51 0 -173 -108 -367
-235 -422 -14 -6 -35 -28 -36 -38 0 -4 -21 -26 -45 -47 -34 -30 -48 -36 -56
-28 -7 7 -19 12 -28 12 -9 -1 -6 -6 9 -14 l25 -14 -32 -32 c-18 -17 -32 -35
-32 -38 0 -4 -27 -50 -59 -102 -33 -52 -79 -126 -102 -164 -24 -38 -54 -80
-68 -94 -27 -27 -96 -61 -124 -62 -25 0 -32 26 -13 45 55 55 190 308 200 373
5 36 51 89 60 69 2 -7 5 -4 5 5 2 40 -43 28 -85 -21 -13 -15 -42 -40 -66 -56
-24 -15 -55 -36 -70 -46 -15 -11 -46 -30 -70 -43 -24 -13 -79 -47 -123 -75
-116 -75 -153 -91 -210 -91 -67 0 -90 14 -49 30 64 26 92 46 154 109 56 56 77
70 143 94 86 31 146 65 269 148 46 31 101 65 123 76 90 44 215 123 253 161 13
12 28 19 34 16 7 -4 8 -2 4 4 -4 7 -1 12 8 12 9 0 13 6 10 14 -3 8 0 25 7 38
6 13 -10 1 -37 -26 -57 -57 -150 -119 -249 -167 -99 -47 -141 -75 -212 -141
-34 -32 -67 -58 -75 -58 -7 0 -26 -7 -41 -15 -17 -9 -62 -15 -112 -17 l-83 -2
-38 36 -37 37 96 47 c108 53 208 130 261 203 20 27 36 52 36 56 0 4 9 20 21
36 40 57 -1 28 -73 -52 -87 -95 -149 -144 -247 -194 -136 -68 -258 -93 -370
-74 -31 5 -67 17 -81 27 -25 19 -74 92 -52 78 7 -4 12 -2 12 3 0 6 10 11 23
11 26 0 187 33 300 62 84 21 201 70 230 95 9 9 26 17 36 18 10 0 38 17 62 37
24 19 64 48 89 63 40 25 126 90 140 106 3 3 43 33 90 67 157 112 169 123 199
177 17 29 39 80 50 112 21 61 43 117 66 169 8 17 44 114 81 215 60 168 100
266 114 279 4 3 21 30 39 60 36 60 274 380 312 420 46 47 139 162 139 170 0 8
132 100 143 100 3 0 25 11 48 25 44 24 44 25 12 22 -17 -1 -58 -15 -90 -32z
m-1606 -2407 l48 -3 -53 -34 c-28 -18 -52 -39 -52 -46 0 -37 -153 -115 -224
-115 -45 0 -94 18 -105 39 -8 14 7 28 82 79 51 34 114 82 140 107 l48 45 34
-35 c28 -27 43 -34 82 -37z"/>
<path d="M7525 10199 c99 -51 176 -104 201 -137 16 -20 30 -39 33 -42 17 -15
130 -151 221 -265 57 -71 106 -132 110 -135 16 -11 118 -169 142 -220 60 -127
77 -169 98 -240 26 -84 73 -212 94 -250 7 -14 21 -50 31 -80 10 -30 37 -96 61
-146 40 -85 49 -95 111 -140 64 -45 192 -142 203 -154 21 -22 111 -90 119 -90
5 0 16 -6 23 -12 25 -23 77 -58 87 -58 5 0 13 -9 16 -20 5 -15 12 -19 25 -15
11 4 50 -10 97 -33 43 -22 116 -53 163 -70 85 -31 277 -73 315 -69 27 3 32
-34 9 -68 -24 -37 -75 -55 -159 -55 -107 0 -218 26 -316 74 -119 59 -180 108
-256 203 -74 95 -103 102 -42 11 83 -122 159 -187 312 -263 42 -21 77 -41 77
-44 0 -4 -19 -21 -41 -40 -39 -32 -43 -33 -121 -32 -97 2 -141 22 -242 110
-44 38 -120 88 -205 134 -107 57 -150 87 -207 142 -68 66 -72 66 -39 -1 24
-47 144 -133 286 -202 59 -29 131 -74 161 -100 52 -46 174 -112 268 -146 25
-9 77 -43 115 -77 39 -34 95 -73 125 -86 53 -24 54 -26 30 -35 -50 -20 -117
-2 -214 57 -50 31 -98 60 -106 64 -203 120 -295 185 -285 201 8 13 -48 28 -70
19 -18 -7 -18 -8 5 -8 20 -1 22 -3 10 -11 -13 -8 -13 -10 1 -10 25 0 44 -29
41 -61 -6 -48 101 -255 192 -372 24 -32 27 -41 15 -48 -18 -12 -53 -3 -104 24
-28 16 -49 38 -70 78 -16 31 -37 64 -45 74 -8 10 -31 43 -50 75 -81 132 -126
190 -210 272 -49 47 -105 96 -124 108 -129 79 -224 302 -191 448 6 28 3 36
-13 48 -23 16 -222 280 -447 593 -11 16 -44 64 -74 107 -30 44 -65 92 -78 108
-24 28 -223 418 -237 463 -7 22 -67 93 -79 93 -15 0 -5 -29 38 -110 25 -47 81
-158 125 -247 82 -166 82 -166 369 -541 260 -340 351 -500 351 -616 0 -86 20
-145 76 -228 56 -81 86 -113 140 -148 16 -10 44 -39 61 -62 17 -24 56 -61 86
-83 30 -22 65 -57 77 -78 12 -21 38 -57 58 -81 48 -57 102 -144 102 -164 0
-34 89 -129 147 -157 58 -28 153 -15 153 21 0 9 -16 35 -35 58 -19 24 -35 48
-35 54 0 6 -4 12 -8 14 -14 5 -99 169 -121 231 l-20 58 50 -36 c27 -19 91 -58
141 -86 50 -28 116 -69 145 -91 30 -22 70 -46 88 -54 50 -21 144 -18 200 6 26
11 60 20 76 20 16 0 41 7 55 16 62 41 56 101 -14 141 -54 31 -199 130 -206
141 -2 4 39 6 93 5 55 -1 114 3 136 10 48 14 120 85 128 124 9 49 -6 70 -60
77 -99 13 -120 17 -183 28 -36 6 -87 19 -113 29 -26 11 -54 19 -62 19 -8 0
-42 13 -77 29 -35 15 -83 37 -108 47 -25 10 -59 30 -76 44 -17 14 -50 40 -75
57 -24 18 -78 62 -119 98 -41 36 -119 93 -173 127 -93 58 -123 88 -155 148
-32 60 -97 228 -184 480 -56 160 -88 230 -156 335 -50 78 -172 243 -214 290
-31 35 -214 270 -236 303 -8 12 -21 22 -30 22 -8 0 -39 16 -69 36 -30 20 -78
42 -106 50 -71 19 -79 17 -32 -7z m1872 -2396 c67 -64 112 -103 118 -103 13 0
90 -63 90 -73 0 -17 -45 -37 -85 -37 -61 0 -155 40 -227 98 -37 30 -80 60 -95
68 -16 8 -28 16 -28 18 0 2 21 4 48 4 41 1 51 6 77 36 17 19 35 35 41 35 6 1
33 -20 61 -46z"/>
<path d="M4483 9770 c0 -36 2 -50 4 -32 2 17 2 47 0 65 -2 17 -4 3 -4 -33z"/>
<path d="M7661 9777 c-1 -36 3 -56 9 -52 12 7 12 62 0 90 -6 14 -9 4 -9 -38z"/>
<path d="M8395 8600 c-3 -6 1 -7 9 -4 18 7 21 14 7 14 -6 0 -13 -4 -16 -10z"/>
<path d="M3687 8583 c-3 -5 5 -8 18 -8 13 0 21 3 18 8 -2 4 -10 7 -18 7 -8 0
-16 -3 -18 -7z"/>
<path d="M8371 8554 c0 -11 3 -14 6 -6 3 7 2 16 -1 19 -3 4 -6 -2 -5 -13z"/>
<path d="M3782 8525 c0 -16 2 -22 5 -12 2 9 2 23 0 30 -3 6 -5 -1 -5 -18z"/>
<path d="M8361 8514 c0 -11 3 -14 6 -6 3 7 2 16 -1 19 -3 4 -6 -2 -5 -13z"/>
<path d="M8396 8237 c3 -10 9 -15 12 -12 3 3 0 11 -7 18 -10 9 -11 8 -5 -6z"/>
</g>
</svg>
