<svg version="1.0" xmlns="http://www.w3.org/2000/svg"
 width="1200.000000pt" height="1600.000000pt" viewBox="0 0 1200.000000 1600.000000"
 preserveAspectRatio="xMidYMid meet">

<g transform="translate(0.000000,1600.000000) scale(0.100000,-0.100000)"
fill="#000000" stroke="none">
<path d="M6098 9713 c6 -2 18 -2 25 0 6 3 1 5 -13 5 -14 0 -19 -2 -12 -5z"/>
<path d="M6178 9713 c7 -3 16 -2 19 1 4 3 -2 6 -13 5 -11 0 -14 -3 -6 -6z"/>
<path d="M6268 9713 c6 -2 18 -2 25 0 6 3 1 5 -13 5 -14 0 -19 -2 -12 -5z"/>
<path d="M5497 9653 c-4 -3 -7 -16 -8 -27 0 -21 -1 -21 -9 -1 -6 14 -9 15 -9
5 -2 -44 -92 -220 -166 -325 -23 -33 -55 -82 -70 -110 -15 -27 -35 -59 -45
-70 -9 -11 -37 -57 -61 -103 -40 -77 -45 -82 -71 -78 -32 5 -58 -15 -58 -44 0
-23 -12 -31 -30 -20 -43 26 -74 -43 -89 -199 -7 -63 -18 -128 -25 -145 -14
-33 -144 -211 -199 -273 -37 -42 -82 -110 -202 -308 -43 -71 -108 -175 -145
-230 -193 -290 -352 -616 -447 -915 -72 -227 -81 -280 -90 -565 -5 -170 -3
-201 16 -298 33 -163 51 -204 126 -278 35 -35 73 -66 83 -70 12 -5 24 -25 31
-56 22 -88 56 -146 124 -212 66 -64 152 -115 210 -126 28 -5 49 4 152 71 114
72 175 116 220 157 10 9 37 22 60 28 22 6 49 15 60 19 17 8 16 9 -8 9 -15 1
-41 -6 -56 -14 -16 -8 -31 -12 -34 -8 -4 3 -21 -5 -39 -19 -88 -66 -140 -98
-150 -92 -6 4 -8 3 -5 -3 8 -12 -50 -56 -63 -48 -6 4 -26 -3 -45 -15 -19 -12
-35 -19 -35 -15 0 3 -12 -1 -27 -8 -33 -18 -64 -9 -139 39 -71 45 -176 206
-209 321 -42 147 -69 232 -71 230 -2 -1 2 -35 7 -75 6 -41 8 -79 6 -85 -5 -15
-70 74 -102 140 -68 142 -77 567 -16 811 86 341 196 580 489 1052 36 58 90
146 120 195 122 198 202 313 254 365 67 69 174 238 182 288 3 20 11 84 17 142
5 58 15 110 20 115 10 10 15 6 46 -42 12 -17 13 -17 28 2 8 11 13 25 11 31 -3
7 0 30 6 51 l11 38 14 -33 c20 -49 42 -38 63 31 32 102 56 150 145 287 34 52
72 113 85 135 13 22 41 63 61 90 47 63 99 174 99 212 0 31 -13 57 -23 46z"/>
<path d="M6648 9644 c-26 -26 19 -164 80 -244 50 -65 214 -325 247 -390 18
-36 40 -92 50 -126 18 -65 39 -79 58 -37 19 41 37 21 37 -42 0 -34 21 -61 40
-50 5 3 10 14 10 25 0 17 27 36 38 26 2 -3 11 -62 18 -133 8 -70 20 -144 28
-164 18 -48 118 -197 157 -234 66 -62 143 -176 376 -560 198 -325 221 -364
292 -510 84 -174 125 -276 167 -418 19 -66 36 -123 39 -127 15 -25 45 -291 45
-402 0 -142 -23 -329 -47 -392 -18 -44 -84 -146 -108 -166 -12 -10 -14 -8 -11
7 2 10 6 47 10 83 l6 65 -25 -80 c-14 -44 -35 -109 -45 -144 -35 -116 -116
-251 -184 -305 -22 -18 -63 -43 -89 -55 l-48 -22 -65 31 c-35 17 -68 29 -72
26 -13 -8 -53 24 -46 36 4 6 2 8 -4 4 -6 -3 -53 22 -104 57 -51 35 -105 67
-120 71 -16 3 -28 10 -28 14 0 9 -56 9 -65 0 -7 -6 9 -12 62 -23 18 -4 73 -36
122 -73 49 -37 135 -95 191 -130 112 -70 122 -71 210 -29 42 20 148 102 178
137 21 24 69 132 76 172 5 30 16 44 51 68 151 104 211 274 209 590 -3 275 -28
429 -114 675 -45 130 -83 228 -103 270 -8 17 -34 71 -58 120 -58 122 -176 326
-264 460 -68 103 -144 225 -169 270 -6 11 -21 34 -33 52 -13 17 -23 34 -23 38
0 4 -20 36 -45 72 -25 35 -45 67 -45 72 0 4 -14 20 -30 36 -31 29 -80 93 -164
210 -36 51 -45 72 -54 138 -7 43 -12 94 -12 114 0 49 -18 105 -44 138 -19 23
-26 26 -42 17 -18 -9 -22 -7 -33 24 -12 32 -23 39 -63 35 -16 -2 -35 26 -85
119 -21 40 -79 133 -139 223 -83 124 -124 198 -155 277 -19 48 -35 76 -40 69
-5 -8 -8 -7 -10 5 -2 10 -7 14 -11 10z"/>
<path d="M6679 8773 c-13 -16 -12 -17 4 -4 9 7 17 15 17 17 0 8 -8 3 -21 -13z"/>
<path d="M6636 8703 c-14 -51 -16 -85 -8 -115 5 -18 5 -45 1 -60 -4 -16 -4
-28 0 -28 4 0 12 18 18 40 5 22 6 40 2 40 -5 0 -6 32 -3 70 6 66 2 92 -10 53z"/>
<path d="M5510 8648 c0 -29 -4 -68 -9 -86 -7 -23 -7 -30 1 -26 7 5 9 2 5 -9
-3 -8 0 -17 6 -20 16 -6 23 178 7 188 -6 4 -10 -13 -10 -47z"/>
<path d="M5501 8487 c2 -1 12 -9 22 -16 15 -12 17 -12 11 3 -3 9 -13 16 -22
16 -8 0 -13 -1 -11 -3z"/>
<path d="M6620 8470 c-6 -11 -7 -20 -2 -20 6 0 12 9 15 20 3 11 3 20 1 20 -2
0 -8 -9 -14 -20z"/>
<path d="M5550 8431 c16 -31 32 -36 18 -7 -6 14 -15 26 -20 26 -5 0 -4 -9 2
-19z"/>
<path d="M5050 8429 c0 -5 5 -7 10 -4 6 3 10 8 10 11 0 2 -4 4 -10 4 -5 0 -10
-5 -10 -11z"/>
<path d="M6586 8425 c-3 -8 -1 -15 3 -15 5 0 11 7 15 15 3 8 1 15 -3 15 -5 0
-11 -7 -15 -15z"/>
<path d="M5570 8366 c0 -2 13 -28 30 -59 28 -53 28 -55 7 -49 -17 4 -13 -3 20
-35 22 -23 44 -51 48 -62 3 -12 11 -21 17 -21 5 0 8 -7 4 -15 -3 -8 -2 -15 2
-15 5 0 19 -30 32 -67 26 -76 99 -190 154 -242 43 -41 44 -56 12 -153 -42
-130 -50 -223 -32 -404 8 -87 18 -220 21 -294 3 -74 8 -162 10 -195 14 -202
16 -417 6 -483 -13 -85 -67 -204 -82 -181 -5 8 -9 37 -10 64 -2 50 -2 50 -9
-15 -8 -65 -88 -348 -114 -405 -8 -16 -25 -57 -39 -90 -31 -72 -104 -209 -138
-256 -57 -80 -108 -105 -138 -68 -21 26 -19 29 -40 -48 -8 -29 -25 -54 -57
-82 -26 -22 -51 -38 -56 -35 -5 4 -7 23 -4 43 4 28 3 31 -4 16 -7 -14 -9 0 -6
50 2 39 1 59 -3 46 -9 -33 -25 -36 -37 -9 -6 13 -8 16 -6 8 4 -13 11 -117 12
-178 0 -14 4 -20 10 -17 6 4 17 2 24 -4 26 -22 114 40 162 115 8 12 27 24 42
27 103 21 270 287 357 572 20 66 41 134 46 150 5 17 27 51 49 75 76 84 82 105
93 300 7 126 6 223 -2 345 -24 326 -29 441 -27 615 2 217 16 276 79 333 67 60
70 60 113 26 22 -17 47 -37 57 -44 10 -7 27 -45 39 -86 18 -63 21 -100 20
-254 0 -99 -8 -288 -17 -420 -12 -163 -16 -309 -13 -455 6 -246 12 -273 91
-357 40 -42 48 -61 75 -158 42 -151 73 -231 138 -355 90 -170 195 -290 255
-290 10 0 20 -9 24 -20 6 -20 86 -91 138 -124 18 -11 35 -15 50 -10 12 5 25 7
29 6 3 -1 9 38 13 86 4 48 11 97 16 110 5 12 6 22 4 22 -3 0 -10 -11 -15 -25
-12 -31 -27 -32 -33 -2 -2 12 -5 4 -6 -19 0 -23 -4 -62 -7 -86 -6 -40 -9 -45
-28 -40 -49 12 -126 98 -126 141 0 14 -5 33 -10 41 -8 13 -12 12 -25 -7 -23
-33 -48 -28 -99 20 -63 58 -209 340 -246 472 -5 17 -20 71 -35 120 -15 50 -32
114 -38 143 -12 57 -24 67 -29 25 -3 -28 -3 -28 -31 15 -40 61 -58 142 -58
257 0 118 11 432 16 490 12 115 30 454 30 550 0 110 -18 204 -51 267 -24 45
-18 81 22 119 70 67 112 139 192 329 7 17 10 22 52 71 30 37 39 56 20 44 -6
-4 4 21 21 55 17 34 29 64 26 66 -13 13 -117 -164 -158 -269 -30 -76 -90 -196
-123 -245 -16 -23 -56 -60 -89 -82 -54 -36 -65 -40 -124 -40 -77 0 -115 16
-181 75 -47 42 -103 141 -167 294 -26 63 -111 218 -139 254 -12 15 -26 23 -26
13z m415 -675 c3 -5 1 -12 -5 -16 -5 -3 -10 1 -10 9 0 18 6 21 15 7z m200 -1
c-3 -5 -11 -10 -16 -10 -6 0 -7 5 -4 10 3 6 11 10 16 10 6 0 7 -4 4 -10z"/>
</g>
</svg>
