<?xml version="1.0" standalone="no"?>
<!DOCTYPE svg PUBLIC "-//W3C//DTD SVG 20010904//EN"
 "http://www.w3.org/TR/2001/REC-SVG-20010904/DTD/svg10.dtd">
<svg version="1.0" xmlns="http://www.w3.org/2000/svg"
 width="1200.000000pt" height="1600.000000pt" viewBox="0 0 1200.000000 1600.000000"
 preserveAspectRatio="xMidYMid meet">

<g transform="translate(0.000000,1600.000000) scale(0.100000,-0.100000)"
fill="#000000" stroke="none">
<path d="M2025 8484 c-5 -33 -15 -54 -35 -73 -16 -14 -43 -54 -60 -89 -33 -67
-34 -102 -3 -150 19 -31 39 -15 48 38 11 65 59 155 84 157 36 3 107 -35 136
-73 26 -34 28 -35 46 -18 14 12 19 31 19 66 0 27 4 57 10 67 7 14 2 25 -25 51
-28 28 -37 31 -49 21 -12 -10 -14 -24 -9 -59 6 -45 5 -46 -13 -31 -10 9 -30
20 -42 24 -16 5 -32 25 -48 61 -30 67 -49 70 -59 8z"/>
<path d="M3023 8518 c-6 -7 -13 -32 -16 -55 -3 -23 -17 -80 -32 -127 -23 -72
-29 -83 -46 -79 -16 5 -19 0 -18 -33 1 -40 15 -138 18 -118 0 6 13 29 27 50
15 21 31 52 37 69 5 16 15 37 22 45 7 8 16 29 19 45 4 17 14 37 22 46 10 11
16 42 17 90 2 68 0 74 -19 77 -11 2 -25 -3 -31 -10z"/>
<path d="M9074 8515 c-10 -26 6 -143 22 -156 8 -6 14 -18 14 -26 0 -15 58
-135 94 -196 l23 -38 7 62 c10 96 9 102 -14 96 -17 -4 -23 6 -45 76 -14 45
-29 101 -32 126 -3 26 -10 52 -16 59 -13 17 -46 15 -53 -3z"/>
<path d="M10064 8476 c-16 -35 -33 -57 -47 -62 -12 -3 -31 -14 -41 -23 -18
-15 -19 -14 -13 32 5 35 3 52 -7 62 -11 12 -19 8 -49 -23 -27 -28 -34 -41 -27
-52 5 -8 10 -40 10 -71 0 -40 5 -61 16 -70 14 -12 21 -8 53 28 35 40 96 72
134 70 22 0 61 -72 78 -143 21 -88 46 -92 69 -10 11 41 10 47 -20 107 -18 35
-45 76 -60 90 -20 18 -31 41 -35 73 -10 62 -30 60 -61 -8z"/>
<path d="M5165 8453 c-97 -9 -218 -37 -312 -74 -96 -38 -106 -44 -174 -117
-119 -127 -144 -161 -130 -175 7 -7 16 -13 21 -13 6 -1 13 -2 16 -3 3 0 -4
-15 -16 -31 -28 -39 -64 -128 -85 -208 -13 -50 -13 -67 -4 -78 10 -13 19 -9
56 28 25 24 63 69 85 100 66 94 270 237 366 257 114 24 339 3 420 -38 21 -10
57 -24 82 -31 25 -6 77 -29 115 -49 72 -39 95 -42 95 -13 0 17 -70 92 -86 92
-5 0 -47 62 -94 136 -47 75 -102 156 -123 180 l-39 44 -76 -2 c-43 -1 -95 -3
-117 -5z"/>
<path d="M6763 8429 c-17 -19 -66 -88 -108 -154 -112 -174 -119 -184 -125
-182 -12 4 -80 -68 -80 -84 0 -30 23 -27 95 12 39 20 90 43 115 49 25 7 61 21
82 31 81 41 306 62 420 38 94 -19 292 -158 362 -253 25 -34 65 -80 89 -104 37
-36 46 -41 56 -28 9 11 9 28 -4 78 -21 80 -57 169 -85 208 l-21 30 25 10 c14
5 26 13 26 18 0 10 -81 104 -159 185 -48 50 -69 63 -156 96 -120 47 -230 69
-385 77 l-115 6 -32 -33z"/>
<path d="M1871 8066 c-10 -11 -9 -21 2 -43 31 -59 47 -106 35 -96 -7 5 -26 10
-42 11 -17 1 -40 12 -52 23 -31 29 -54 19 -54 -25 0 -19 5 -38 11 -42 14 -8 3
-66 -22 -118 -19 -40 -18 -67 7 -115 8 -14 14 -31 14 -36 0 -15 157 -166 207
-199 39 -26 41 -29 32 -59 -13 -46 -11 -113 4 -124 6 -6 22 -13 35 -16 24 -6
49 20 55 59 1 11 17 43 34 70 36 57 46 100 72 317 l19 158 -25 67 c-29 77
-126 188 -153 176 -38 -17 -115 -21 -135 -8 -24 17 -30 17 -44 0z"/>
<path d="M10030 8028 c-45 -42 -60 -64 -81 -125 l-26 -74 18 -154 c24 -211 36
-262 72 -319 17 -27 33 -59 34 -70 6 -39 31 -65 55 -59 13 3 29 10 36 16 14
11 16 78 3 124 -9 30 -7 33 32 59 50 33 207 184 207 199 0 5 6 21 13 35 27 51
27 73 1 127 -20 40 -25 61 -20 85 18 89 18 98 2 104 -10 4 -26 -2 -40 -15 -12
-11 -35 -22 -52 -23 -16 -1 -35 -6 -42 -12 -7 -5 -1 17 13 50 15 32 29 64 31
70 3 6 -2 17 -10 24 -13 10 -20 10 -38 -2 -22 -15 -96 -12 -138 5 -10 4 -35
-12 -70 -45z"/>
<path d="M5960 7725 c-4 -5 -17 -29 -29 -52 -19 -38 -19 -44 -6 -77 37 -87
125 -449 125 -512 0 -29 24 -49 37 -32 5 7 17 59 27 115 21 126 67 308 100
399 l25 68 -27 50 -27 49 -108 1 c-62 1 -112 -3 -117 -9z"/>
<path d="M3880 7474 c-112 -47 -117 -52 -91 -95 26 -42 26 -52 2 -44 -14 4
-27 -5 -50 -37 -29 -39 -40 -77 -23 -79 4 0 20 -2 36 -4 21 -3 34 2 43 15 8
11 20 20 27 20 8 0 19 6 26 14 6 8 18 12 26 9 15 -6 67 35 59 46 -2 4 8 7 22
6 16 0 33 10 45 25 17 24 18 30 5 78 -21 84 -28 87 -127 46z"/>
<path d="M8168 7492 c-8 -9 -20 -39 -26 -66 -12 -45 -11 -52 6 -75 14 -18 28
-25 46 -24 15 1 24 -2 22 -6 -8 -13 40 -52 56 -46 8 3 21 -1 28 -10 7 -8 18
-15 26 -15 7 0 18 -9 24 -20 13 -23 68 -22 84 2 14 23 -49 111 -75 103 -24 -8
-24 2 1 43 11 18 18 38 14 43 -6 10 -51 32 -145 69 -44 18 -48 18 -61 2z"/>
<path d="M4015 7300 c-10 -11 -14 -20 -9 -21 22 -2 -45 -17 -82 -18 -24 -1
-47 -7 -54 -16 -11 -13 -5 -25 37 -73 28 -31 68 -67 89 -79 l39 -23 -68 0
c-93 0 -103 -11 -60 -69 38 -52 111 -200 90 -182 -11 9 -17 8 -26 -3 -10 -11
-9 -21 2 -43 8 -15 24 -59 36 -98 12 -38 27 -78 32 -88 16 -30 -52 -162 -123
-238 -24 -25 -28 -26 -129 -24 -121 2 -135 -4 -113 -47 9 -16 14 -32 12 -34
-3 -2 -44 1 -92 7 -86 10 -109 8 -90 -10 13 -13 250 -71 287 -71 34 0 86 14
135 38 44 21 165 149 230 245 46 67 58 93 83 194 49 196 55 453 11 513 -11 14
-28 46 -40 72 -26 59 -70 88 -133 88 -33 0 -51 -6 -64 -20z"/>
<path d="M7995 7302 c-37 -23 -50 -39 -60 -72 -4 -14 -18 -41 -31 -60 -57 -85
-46 -384 23 -595 36 -113 249 -365 320 -380 15 -4 38 -11 51 -16 13 -5 38 -9
56 -9 40 0 277 58 290 71 19 18 -4 20 -85 11 -46 -6 -87 -8 -91 -6 -4 3 -1 18
7 34 21 41 6 47 -118 45 l-109 -3 -45 62 c-64 85 -107 179 -94 203 5 10 20 50
32 88 12 39 28 83 36 98 11 22 12 32 2 43 -9 11 -15 11 -25 3 -22 -18 51 131
88 181 44 59 34 70 -59 70 l-67 0 45 28 c24 16 64 52 88 80 51 61 45 81 -23
83 -37 1 -104 16 -82 18 5 1 1 10 -9 21 -24 26 -98 27 -140 2z"/>
<path d="M2116 6371 c-29 -30 -36 -44 -31 -61 5 -16 -3 -31 -37 -68 -57 -61
-121 -155 -179 -264 -37 -70 -44 -90 -33 -98 9 -8 18 -8 33 0 12 6 21 8 21 5
0 -3 -16 -47 -35 -96 -34 -87 -42 -146 -29 -196 4 -13 9 -23 13 -23 3 0 21 22
40 49 31 46 57 68 68 57 3 -2 -20 -49 -49 -103 -88 -160 -127 -263 -153 -407
-11 -60 -12 -83 -3 -93 9 -12 20 -6 57 33 l45 48 8 -35 c5 -19 11 -100 15
-182 7 -166 16 -189 54 -138 29 40 40 39 28 -1 -30 -107 15 -377 81 -486 17
-28 23 -32 35 -22 8 7 15 20 15 29 1 9 7 27 14 40 13 24 15 23 60 -68 37 -73
50 -90 60 -82 11 9 19 -5 41 -66 15 -43 32 -84 38 -91 15 -19 37 4 37 39 0 15
4 31 10 34 6 3 10 1 10 -4 0 -21 2 -26 12 -38 6 -7 18 -13 28 -13 21 0 54 35
46 49 -3 5 -1 22 5 38 7 15 11 59 10 97 -2 61 -1 68 13 57 24 -20 47 27 53
107 3 37 11 74 18 82 6 8 17 35 24 60 9 32 21 50 41 62 28 16 28 17 16 60 -7
23 -16 61 -19 82 l-6 39 28 -27 c24 -23 30 -25 40 -12 10 12 10 51 2 178 -10
155 -18 211 -56 408 -9 47 -14 101 -12 120 3 19 0 88 -6 152 -7 70 -9 114 -3
108 23 -23 36 13 36 97 0 46 4 82 9 79 4 -3 16 3 25 13 12 13 18 47 22 127 4
60 11 114 16 121 10 12 -12 76 -31 87 -11 7 -117 -51 -157 -86 -28 -25 -37
-23 -80 17 -20 19 -47 35 -60 35 -15 0 -48 23 -93 66 -39 36 -75 63 -81 59 -6
-4 -16 -18 -21 -32 -5 -14 -12 -23 -15 -20 -3 3 1 20 10 38 19 39 20 53 3 68
-10 8 -22 1 -51 -28z"/>
<path d="M9982 6398 c-14 -14 -16 -40 -3 -53 15 -17 23 -55 12 -55 -6 0 -11 8
-11 19 0 10 -7 24 -15 31 -13 10 -26 2 -85 -54 -46 -43 -79 -66 -94 -66 -13 0
-40 -16 -60 -35 -41 -39 -57 -43 -77 -19 -7 8 -31 25 -53 36 -22 11 -52 30
-67 40 -15 11 -32 17 -39 13 -19 -12 -42 -75 -32 -88 5 -7 12 -61 16 -121 4
-80 10 -114 22 -127 9 -10 21 -16 25 -13 5 3 9 -33 9 -79 0 -59 4 -88 13 -96
8 -6 17 -7 22 -3 4 4 4 -27 0 -68 -4 -41 -9 -122 -10 -180 -2 -58 -12 -148
-23 -200 -39 -185 -63 -489 -41 -516 10 -13 16 -11 40 12 l28 27 -6 -39 c-3
-21 -12 -59 -19 -82 -12 -43 -12 -44 16 -60 20 -12 32 -30 41 -62 7 -25 18
-52 24 -60 7 -8 15 -46 18 -83 5 -76 29 -116 54 -95 12 10 14 1 12 -63 -1 -41
3 -87 10 -102 6 -16 8 -33 5 -38 -8 -14 25 -49 47 -49 18 0 32 15 35 38 4 26
13 24 19 -4 17 -78 33 -73 70 20 21 53 35 76 47 76 12 0 33 29 64 92 45 90 47
91 60 67 7 -13 13 -34 14 -46 0 -32 21 -39 41 -15 61 76 115 353 93 476 -6 31
-8 56 -4 56 3 0 16 -14 29 -31 38 -51 47 -28 54 138 4 82 10 162 14 180 8 30
9 31 28 15 11 -9 31 -32 44 -50 32 -45 52 -29 44 36 -14 119 -54 239 -133 397
-43 87 -77 162 -74 165 6 5 60 -51 85 -90 22 -34 32 -21 37 48 3 48 -1 70 -25
128 -17 38 -33 82 -37 97 -6 25 -5 27 13 18 14 -8 22 -7 30 3 22 27 -100 239
-203 353 -36 40 -45 57 -41 75 8 31 -64 105 -83 86z"/>
<path d="M3368 6273 c-9 -10 -23 -34 -31 -54 -8 -20 -31 -49 -51 -64 -20 -15
-36 -31 -36 -35 0 -4 26 -27 58 -51 31 -24 85 -67 120 -96 34 -29 66 -53 72
-53 5 0 16 10 24 21 14 20 12 25 -15 59 -36 44 -70 148 -67 202 1 28 -4 44
-22 63 -28 30 -32 30 -52 8z"/>
<path d="M8726 6260 c-19 -23 -24 -38 -20 -59 9 -42 -25 -148 -62 -197 -33
-42 -33 -43 -15 -66 l19 -22 53 42 c30 24 87 68 127 99 39 30 72 59 72 63 0 4
-16 20 -36 35 -20 15 -43 44 -51 64 -16 38 -41 71 -54 71 -4 0 -19 -14 -33
-30z"/>
<path d="M3551 5936 c-7 -8 -25 -18 -41 -21 -34 -7 -54 -29 -47 -49 3 -8 30
-29 61 -47 61 -37 76 -67 52 -104 -11 -17 -12 -25 -3 -34 9 -10 3 -11 -28 -5
-42 7 -58 14 -33 14 8 0 25 12 39 26 l24 26 -40 34 c-40 34 -40 34 -57 14 -9
-12 -22 -46 -29 -78 l-11 -57 58 -52 c33 -29 65 -53 72 -53 7 0 31 12 53 26
51 32 65 22 50 -32 -19 -67 20 -80 81 -27 9 8 14 21 11 29 -3 8 -1 14 5 14 14
0 82 -47 120 -83 l34 -32 29 35 c33 39 38 30 9 -18 -30 -48 -44 -49 -86 -2
-33 36 -39 39 -52 26 -13 -12 -13 -26 -2 -98 16 -104 25 -118 57 -84 13 15 42
35 64 47 39 19 40 20 30 1 -13 -24 11 -51 32 -35 19 16 49 24 42 12 -4 -5 1
-21 10 -35 l16 -25 47 43 c26 24 63 55 82 70 31 23 33 28 20 42 -8 8 -46 28
-85 44 l-70 29 -7 108 c-5 75 -12 113 -23 125 -22 24 -180 97 -249 115 -33 8
-69 23 -80 34 -12 10 -43 26 -71 36 -27 10 -55 22 -61 27 -7 5 -16 2 -23 -6z"/>
<path d="M8574 5942 c-5 -5 -31 -17 -59 -27 -27 -10 -59 -26 -71 -36 -11 -11
-47 -26 -80 -34 -69 -18 -227 -91 -249 -115 -11 -12 -18 -50 -23 -125 l-7
-109 -77 -31 c-106 -42 -108 -46 -56 -85 24 -19 62 -51 85 -73 l41 -39 17 25
c9 15 14 31 10 36 -7 12 23 4 43 -12 20 -16 44 11 31 35 -10 19 -9 19 23 2 18
-9 47 -29 64 -46 40 -37 48 -28 64 80 11 72 11 86 -2 98 -13 13 -19 10 -52
-26 -42 -47 -56 -46 -86 2 -29 48 -24 57 9 18 l29 -35 34 32 c38 36 106 83
120 83 6 0 8 -6 5 -14 -6 -15 13 -36 52 -56 35 -18 56 5 41 45 -6 16 -9 39 -5
52 l5 22 44 -29 c24 -17 49 -30 56 -30 14 0 117 88 124 107 8 21 -13 110 -32
133 -17 20 -17 20 -57 -14 l-40 -34 24 -26 c14 -14 31 -26 39 -26 25 0 9 -7
-33 -14 -32 -6 -38 -5 -28 5 10 10 9 16 -3 30 -29 32 -10 70 56 111 75 47 78
73 10 93 -14 4 -32 14 -41 21 -8 8 -19 10 -25 6z"/>
<path d="M674 5415 c-4 -9 7 -30 25 -50 17 -20 31 -40 31 -46 0 -6 30 -44 66
-85 36 -40 63 -78 59 -84 -3 -5 9 -39 28 -75 30 -56 33 -69 23 -90 -12 -26
-32 -33 -38 -13 -3 7 -30 -2 -79 -27 -77 -40 -166 -64 -234 -64 -22 -1 -71 11
-110 24 -88 31 -152 27 -161 -11 -4 -14 -4 -33 -1 -45 3 -11 -1 -90 -8 -177
-28 -328 -28 -337 -11 -351 13 -11 20 -5 47 39 17 28 34 49 37 46 8 -9 -19
-130 -32 -146 -23 -26 -34 -76 -52 -219 -16 -128 -16 -141 -1 -156 15 -14 19
-11 53 40 20 30 41 55 45 55 12 0 11 -17 0 -24 -11 -7 -28 -137 -36 -271 -6
-96 10 -408 21 -427 3 -5 12 -4 20 3 10 8 18 9 27 0 8 -6 16 -8 19 -6 3 3 8
-32 12 -77 11 -123 43 -272 75 -342 15 -33 49 -85 75 -113 56 -62 71 -57 70
24 0 39 3 50 13 46 8 -3 15 6 19 26 8 40 18 33 35 -26 17 -61 94 -149 115
-132 8 6 14 29 14 50 0 40 7 48 27 28 8 -8 16 -4 28 15 13 20 21 24 31 15 17
-14 55 -8 64 11 5 8 19 62 32 120 14 63 24 94 26 78 4 -36 27 -55 47 -38 8 7
15 18 15 25 0 6 6 25 14 41 78 162 99 204 106 204 14 0 20 -43 20 -147 0 -60
4 -104 10 -108 6 -4 8 -15 5 -26 -4 -11 0 -25 8 -34 18 -17 27 -10 27 22 0 13
11 33 25 45 14 12 25 29 25 37 0 9 4 23 10 31 18 30 19 2 1 -63 -21 -78 -33
-61 123 -182 86 -67 101 -75 113 -62 13 12 11 23 -9 80 -21 62 -22 68 -6 83
14 14 14 20 2 50 -18 44 -19 85 0 78 7 -3 42 -55 76 -117 80 -143 78 -140 97
-122 13 13 12 22 -3 72 -9 32 -17 92 -18 133 -1 69 1 75 20 78 21 3 40 -15 88
-83 31 -45 48 -15 54 97 6 118 -16 240 -60 328 -17 36 -31 67 -31 70 2 10 -24
34 -67 61 -43 27 -44 29 -17 29 15 0 44 -7 64 -15 37 -16 63 -8 63 20 0 8 -26
64 -57 127 -32 62 -60 116 -61 121 -6 13 51 -13 84 -38 28 -21 34 -23 44 -10
23 28 -65 205 -159 320 -68 84 -142 217 -130 232 8 9 -5 32 -46 85 l-56 73 83
-86 c68 -71 85 -84 96 -73 10 11 6 28 -18 89 -44 111 -96 211 -148 285 -55 77
-309 340 -330 340 -10 0 -13 7 -9 21 3 12 1 29 -5 39 -14 22 21 122 54 157 29
31 10 53 -47 53 -61 0 -74 -19 -80 -121 -3 -46 -8 -92 -11 -102 -3 -9 4 -31
16 -47 15 -21 17 -30 8 -30 -7 0 -29 24 -48 52 -19 29 -51 75 -70 103 -19 29
-82 102 -139 163 -101 109 -134 131 -147 97z m243 -2547 c-3 -7 -5 -2 -5 12 0
14 2 19 5 13 2 -7 2 -19 0 -25z"/>
<path d="M5815 5420 c-33 -4 -79 -15 -103 -23 -73 -27 -222 -108 -273 -149
-38 -30 -55 -37 -74 -32 -19 5 -27 2 -32 -14 -8 -20 -8 -20 -34 2 -15 13 -30
34 -34 47 -4 13 -14 32 -22 41 -14 16 -20 13 -73 -35 -56 -49 -57 -52 -39 -68
18 -16 18 -17 -15 -55 -34 -39 -34 -39 -15 -60 l19 -21 -102 -80 c-124 -97
-268 -230 -268 -247 0 -7 -14 -22 -31 -35 l-30 -23 26 -24 c22 -20 29 -22 48
-13 12 7 -36 -48 -106 -122 -137 -144 -205 -242 -186 -265 9 -11 19 -7 52 21
22 19 46 35 52 35 7 0 20 9 31 21 10 11 27 25 38 31 24 13 18 2 -49 -82 -166
-209 -275 -423 -332 -651 -25 -101 -25 -111 -10 -126 15 -15 17 -14 34 16 34
62 105 172 109 168 2 -2 -7 -32 -21 -67 -35 -90 -61 -187 -85 -320 -19 -105
-20 -126 -9 -237 12 -129 26 -163 51 -124 22 35 43 25 58 -26 11 -36 15 -105
16 -267 0 -192 2 -221 17 -230 18 -12 57 17 57 42 0 14 30 122 37 131 1 2 9
-1 16 -8 19 -15 29 -1 51 64 9 28 29 65 45 82 l27 33 -4 -58 c-3 -43 0 -61 11
-70 12 -11 19 -7 37 23 17 28 25 33 35 25 19 -16 28 5 54 118 17 77 36 119
107 248 47 85 90 168 96 185 10 28 11 29 33 15 27 -18 39 -8 51 39 3 17 12 37
19 45 7 8 25 40 40 70 15 30 63 116 108 192 78 132 81 135 97 116 16 -20 17
-20 52 23 40 51 142 227 218 378 l52 104 23 -29 23 -29 22 20 c26 23 72 112
107 203 29 78 86 358 76 374 -4 7 10 3 29 -9 28 -16 39 -19 46 -10 12 15 25
91 24 136 -1 19 6 43 14 52 9 10 20 52 26 97 10 77 9 84 -22 178 -50 150 -104
246 -139 243 -9 -1 -43 -5 -76 -9z m19 -160 c53 -32 110 -120 132 -204 20 -75
0 -182 -37 -201 -14 -8 -40 -31 -57 -52 -56 -68 -72 -81 -148 -118 -52 -26
-78 -45 -85 -63 -9 -22 -11 -23 -27 -10 -9 8 -42 20 -72 28 -30 7 -78 22 -106
32 l-52 20 -21 92 c-12 50 -28 103 -36 119 -12 23 -12 35 -1 76 7 27 11 63 8
79 -3 24 0 30 18 35 18 5 22 11 18 32 -5 24 -4 24 12 10 15 -14 19 -12 43 15
15 16 59 46 97 65 126 63 255 82 314 45z m-1297 -2582 c-3 -7 -5 -2 -5 12 0
14 2 19 5 13 2 -7 2 -19 0 -25z"/>
<path d="M6217 5397 c-36 -48 -61 -101 -96 -209 -29 -87 -32 -106 -26 -165 4
-38 15 -84 25 -105 10 -20 18 -49 18 -65 -1 -41 13 -116 24 -130 7 -9 18 -6
46 10 19 12 32 16 28 9 -9 -14 35 -241 66 -340 26 -84 89 -211 118 -237 l22
-20 23 29 23 29 57 -114 c76 -151 170 -314 213 -368 35 -43 36 -43 52 -23 16
20 19 16 97 -116 45 -76 93 -162 108 -192 15 -30 33 -62 40 -70 7 -8 16 -28
19 -45 12 -48 24 -57 52 -38 20 12 24 13 24 1 0 -7 43 -91 95 -186 80 -145 99
-187 116 -265 26 -112 35 -133 54 -117 10 8 18 3 35 -25 19 -31 23 -33 37 -19
11 11 14 29 11 70 l-5 54 28 -32 c16 -18 34 -50 40 -71 16 -51 34 -64 50 -39
11 18 15 11 35 -65 12 -47 29 -92 38 -101 14 -14 17 -14 35 2 17 16 19 36 24
219 6 263 25 329 76 266 27 -33 37 -8 50 124 10 100 9 132 -4 210 -23 133 -59
271 -93 354 -16 40 -26 70 -21 68 4 -3 29 -40 55 -83 26 -42 54 -88 62 -101
12 -21 16 -22 29 -8 14 14 14 23 -2 94 -51 227 -158 446 -329 668 -80 103 -84
110 -60 97 11 -6 28 -20 38 -31 11 -12 24 -21 31 -21 6 0 29 -15 51 -34 32
-27 41 -31 51 -20 21 22 -46 117 -184 263 -70 74 -119 130 -108 124 31 -15 72
-3 60 18 -4 5 0 9 7 9 7 1 -1 13 -18 28 -17 15 -33 34 -36 43 -8 21 -180 177
-286 258 l-83 64 20 20 20 21 -35 39 c-35 38 -35 39 -16 56 19 16 19 18 -38
68 -54 49 -59 51 -73 35 -9 -9 -18 -28 -22 -42 -8 -29 -65 -80 -65 -58 0 24
-21 38 -40 26 -14 -9 -27 -3 -68 29 -58 47 -224 133 -297 156 -27 8 -78 18
-112 21 -60 5 -62 5 -86 -27z m279 -133 c83 -19 196 -75 231 -114 24 -27 28
-29 43 -15 16 14 17 14 12 -10 -4 -21 0 -27 18 -32 18 -5 21 -11 18 -35 -3
-16 1 -52 8 -79 11 -41 11 -53 -1 -76 -8 -16 -24 -69 -36 -120 l-21 -91 -57
-21 c-31 -11 -78 -26 -106 -32 -27 -7 -57 -18 -66 -25 -13 -12 -18 -10 -36 14
-11 15 -50 43 -87 61 -68 35 -84 48 -138 114 -17 21 -43 44 -57 52 -23 11 -28
24 -38 82 -18 102 7 184 84 281 51 63 108 75 229 46z m1121 -2596 c-3 -7 -5
-2 -5 12 0 14 2 19 5 13 2 -7 2 -19 0 -25z"/>
<path d="M11330 5321 c-56 -60 -119 -134 -139 -163 -20 -30 -52 -77 -71 -106
-19 -28 -41 -52 -48 -52 -9 0 -7 9 8 30 12 16 19 34 16 38 -3 5 -8 48 -10 97
-7 112 -20 135 -80 135 -58 0 -77 -21 -48 -53 11 -12 30 -47 42 -77 17 -43 19
-59 11 -78 -6 -13 -9 -27 -6 -32 3 -4 -54 -66 -126 -137 -155 -152 -233 -252
-298 -382 -71 -143 -87 -187 -71 -206 12 -14 23 -7 88 57 62 60 69 65 42 28
-19 -25 -66 -83 -105 -130 -100 -119 -110 -135 -93 -154 11 -12 17 -10 46 17
44 43 40 28 -8 -28 -64 -74 -119 -160 -166 -259 -36 -78 -40 -93 -28 -105 12
-13 17 -12 36 7 21 19 98 58 98 49 0 -2 -24 -50 -54 -108 -66 -128 -72 -145
-53 -164 14 -13 20 -13 52 1 20 8 48 14 62 12 22 -3 19 -6 -28 -33 -30 -17
-54 -37 -54 -45 -1 -8 -15 -44 -33 -80 -43 -86 -65 -209 -60 -327 3 -68 8 -98
20 -109 14 -15 17 -14 34 11 52 73 66 85 95 83 23 -2 28 -6 24 -23 -2 -11 -6
-47 -10 -80 -3 -33 -12 -82 -20 -109 -11 -37 -12 -52 -4 -63 17 -20 29 -6 99
117 35 60 69 111 76 114 19 7 18 -34 0 -78 -12 -30 -12 -36 2 -50 15 -15 15
-21 -7 -82 -21 -58 -22 -68 -9 -81 13 -13 28 -4 128 73 61 48 114 94 117 101
5 12 -6 67 -23 126 -3 9 -1 17 5 17 5 0 12 -13 16 -29 3 -15 17 -38 30 -49 18
-16 23 -30 23 -67 0 -57 27 -95 50 -71 12 12 12 21 -2 67 -10 35 -12 57 -6 63
6 6 10 55 10 110 0 101 6 146 19 146 11 0 121 -226 121 -247 0 -6 7 -16 15
-23 19 -16 45 3 46 34 0 11 11 -14 23 -56 12 -43 28 -85 37 -93 14 -14 18 -14
42 5 14 11 28 30 30 43 2 12 5 -7 6 -43 1 -42 7 -74 17 -88 15 -22 17 -22 35
-6 18 17 19 16 19 -23 0 -23 6 -46 14 -52 11 -10 23 -1 60 44 25 31 51 74 57
96 14 45 24 49 33 13 4 -15 12 -24 20 -21 9 4 12 -8 12 -46 -1 -80 14 -86 68
-26 83 92 126 217 147 426 7 62 14 111 17 108 3 -3 11 0 19 6 9 9 17 8 27 0 8
-7 17 -8 20 -3 11 19 26 329 20 432 -8 146 -23 249 -41 277 -14 21 -14 23 0
17 8 -3 31 -30 51 -60 33 -50 38 -53 52 -39 14 14 15 28 5 118 -16 141 -30
207 -51 243 -20 36 -45 134 -38 154 2 8 19 -10 37 -40 29 -47 34 -51 48 -38
13 14 13 38 -2 219 -10 112 -18 240 -20 284 -1 44 -3 83 -3 86 -1 4 -21 10
-44 13 -32 5 -61 0 -113 -19 -38 -13 -86 -25 -106 -25 -45 0 -148 18 -172 31
-98 53 -141 71 -145 61 -6 -20 -26 -13 -38 13 -10 21 -7 34 23 90 19 36 31 70
28 75 -4 6 23 44 59 84 36 41 66 79 66 85 0 6 14 26 31 46 18 20 29 41 25 50
-13 34 -47 12 -146 -94z"/>
</g>
</svg>
