<?xml version="1.0" standalone="no"?>
<!DOCTYPE svg PUBLIC "-//W3C//DTD SVG 20010904//EN"
 "http://www.w3.org/TR/2001/REC-SVG-20010904/DTD/svg10.dtd">
<svg version="1.0" xmlns="http://www.w3.org/2000/svg"
 width="1200.000000pt" height="1600.000000pt" viewBox="0 0 1200.000000 1600.000000"
 preserveAspectRatio="xMidYMid meet">

<g transform="translate(0.000000,1600.000000) scale(0.100000,-0.100000)"
fill="#000000" stroke="none">
<path d="M6478 13024 c-22 -11 -28 -22 -28 -47 0 -55 20 -190 33 -230 22 -62
33 -65 58 -16 17 34 23 67 27 141 2 53 2 112 -2 132 -6 31 -11 36 -34 36 -15
-1 -39 -8 -54 -16z"/>
<path d="M5585 12958 c-10 -111 25 -276 56 -266 25 8 50 104 57 215 8 126 10
123 -63 123 l-43 0 -7 -72z"/>
</g>
</svg>
