<svg version="1.0" xmlns="http://www.w3.org/2000/svg"
 width="1200.000000pt" height="1600.000000pt" viewBox="0 0 1200.000000 1600.000000"
 preserveAspectRatio="xMidYMid meet">

<g transform="translate(0.000000,1600.000000) scale(0.100000,-0.100000)"
fill="#000000" stroke="none">
<path d="M5855 13545 c-156 -29 -308 -111 -427 -230 -62 -63 -128 -164 -128
-198 0 -8 -7 -18 -16 -21 -12 -4 -14 -13 -10 -32 4 -14 -1 -60 -10 -102 -9
-42 -18 -121 -19 -174 -2 -54 -6 -106 -10 -117 -11 -35 34 -129 90 -190 52
-55 59 -71 42 -98 -29 -47 163 -248 274 -286 19 -7 34 -18 34 -26 0 -10 16
-14 60 -16 39 -1 73 -9 99 -23 21 -11 44 -18 52 -15 32 12 70 -17 93 -72 28
-68 48 -86 66 -61 12 16 14 15 17 -16 4 -44 21 -39 29 9 3 21 7 30 8 21 2 -24
19 -32 37 -17 8 7 24 34 35 60 24 55 54 79 99 79 17 0 49 9 71 21 28 14 56 20
87 18 39 -2 47 0 46 14 -1 11 6 17 18 17 88 0 319 228 292 288 -11 26 -5 44
25 77 74 81 122 183 106 221 -4 10 -7 53 -6 96 2 47 -6 117 -19 182 -11 58
-20 111 -18 118 1 7 -9 38 -24 70 -96 208 -333 374 -584 409 -66 9 -79 8 -120
-10 -58 -26 -71 -26 -125 -1 -50 22 -68 23 -164 5z"/>
</g>
</svg>
