<svg version="1.0" xmlns="http://www.w3.org/2000/svg"
 width="1200.000000pt" height="1600.000000pt" viewBox="0 0 1200.000000 1600.000000"
 preserveAspectRatio="xMidYMid meet">

<g transform="translate(0.000000,1600.000000) scale(0.100000,-0.100000)"
fill="#000000" stroke="none">
<path d="M6005 13878 c-57 -29 -64 -30 -145 -24 -143 12 -180 8 -250 -21 -36
-15 -78 -37 -95 -49 -16 -12 -44 -29 -61 -37 -42 -22 -178 -150 -217 -205 -18
-25 -53 -87 -78 -136 -42 -83 -49 -92 -82 -100 -26 -7 -37 -15 -37 -28 0 -10
7 -18 16 -18 12 0 15 -9 12 -37 -3 -39 -3 -39 44 -42 14 -1 13 -8 -10 -55 -15
-30 -29 -53 -32 -51 -3 2 -6 -4 -7 -13 0 -9 -11 -44 -23 -77 -18 -46 -23 -82
-24 -155 l-1 -96 45 -69 c41 -62 45 -74 45 -132 1 -42 6 -67 14 -72 7 -5 21
-39 32 -76 10 -37 25 -75 32 -84 15 -18 87 -175 87 -190 0 -5 -13 -14 -30 -19
-29 -11 -30 -13 -26 -65 3 -36 12 -68 30 -95 l26 -42 -22 0 c-13 0 -36 9 -53
20 -16 11 -37 20 -47 20 -37 0 -52 -149 -21 -215 9 -19 20 -35 25 -35 4 0 8
-5 8 -11 0 -7 -14 -8 -42 -4 l-41 7 6 -53 c5 -41 14 -60 39 -87 40 -41 81 -64
102 -56 12 4 16 0 16 -15 0 -12 7 -24 15 -27 8 -4 15 -12 15 -20 0 -19 25 -29
103 -44 62 -11 69 -15 85 -46 25 -48 248 -270 302 -301 25 -14 64 -39 87 -54
22 -16 52 -28 65 -27 13 1 38 -8 56 -20 39 -29 102 -55 102 -43 0 12 -67 55
-167 107 -95 49 -190 124 -343 271 -56 54 -75 78 -75 100 -1 24 -7 29 -41 36
-47 10 -145 46 -159 59 -5 4 -9 23 -10 41 0 29 -3 32 -30 32 -42 1 -75 14 -75
30 0 7 -6 15 -14 18 -8 3 -19 14 -25 24 -8 17 -5 19 26 20 49 1 57 19 26 59
-36 49 -51 106 -42 171 8 56 18 78 26 55 7 -17 57 -42 87 -42 41 0 48 27 21
80 -13 25 -26 62 -30 81 -6 31 -4 35 23 45 16 6 31 20 34 32 6 20 -1 38 -75
207 -47 109 -50 118 -48 133 1 8 -9 24 -24 38 -23 21 -25 29 -20 76 3 29 12
74 20 101 8 26 12 47 9 47 -3 0 -16 -12 -29 -26 l-24 -26 -20 33 c-21 34 -36
128 -35 214 1 57 38 155 96 255 l37 65 -35 3 c-33 3 -35 5 -29 30 3 15 15 39
25 54 11 15 20 31 20 36 0 4 11 23 25 42 14 19 25 40 25 48 0 12 91 135 149
201 12 13 39 32 62 42 22 10 38 23 35 27 -3 5 6 15 19 22 14 7 25 17 25 21 0
30 145 66 292 74 43 2 82 6 87 9 5 4 32 8 59 10 28 3 61 10 73 17 26 13 99 19
99 8 0 -11 67 -29 106 -29 17 0 34 -3 37 -7 4 -3 44 -7 89 -9 91 -3 190 -18
231 -33 37 -14 114 -75 110 -88 -2 -6 14 -18 36 -26 50 -21 172 -167 227 -273
22 -41 49 -93 61 -116 12 -22 20 -45 17 -49 -3 -5 -21 -9 -41 -9 l-35 0 22
-32 c41 -62 109 -213 117 -263 9 -52 -8 -201 -27 -233 -26 -46 -27 -46 -54
-16 -30 34 -31 28 -11 -46 25 -92 19 -160 -15 -160 -13 0 -16 -6 -12 -25 2
-14 0 -31 -6 -38 -5 -6 -15 -30 -22 -52 -7 -22 -30 -75 -52 -119 -24 -47 -40
-95 -41 -119 -2 -38 0 -41 29 -50 31 -9 31 -10 22 -49 -4 -22 -17 -57 -28 -78
-24 -47 -25 -66 -4 -74 31 -12 63 -6 92 19 17 14 32 25 35 25 3 0 8 -27 12
-60 8 -67 -12 -145 -45 -175 -11 -10 -20 -24 -20 -32 0 -16 47 -36 67 -29 23
9 14 -12 -22 -51 -30 -33 -41 -38 -77 -38 -42 0 -43 0 -43 -35 0 -32 -4 -37
-48 -58 -26 -12 -70 -27 -98 -32 -64 -12 -71 -17 -60 -39 8 -14 -4 -32 -67
-93 -42 -42 -100 -96 -128 -120 -29 -24 -71 -60 -95 -80 -24 -20 -80 -56 -124
-79 -94 -49 -165 -96 -165 -109 0 -12 22 -3 85 35 27 16 60 28 75 27 15 -2 36
7 55 24 17 14 44 33 60 41 17 9 48 29 70 46 57 43 218 208 254 261 31 45 36
47 126 62 47 8 75 21 75 35 0 6 7 17 16 26 8 9 13 22 10 30 -4 10 -1 13 12 9
24 -8 108 48 127 83 7 15 15 45 17 67 l3 39 -44 -3 -44 -4 22 27 c30 39 43 98
36 158 -8 56 -20 87 -36 87 -5 0 -27 -9 -49 -20 -65 -33 -73 -28 -45 33 14 29
25 71 25 95 0 39 -3 44 -29 53 -29 10 -29 11 -16 48 19 54 65 153 80 171 7 8
18 40 26 70 7 30 21 65 32 76 14 17 18 35 16 81 -2 55 1 63 44 128 40 60 47
79 51 130 6 101 -33 237 -101 348 -25 40 -22 43 30 39 16 -2 18 3 12 30 -6 25
-3 34 15 48 27 21 20 36 -19 45 -37 8 -40 13 -86 105 -77 155 -179 265 -329
358 -146 90 -192 101 -376 86 -82 -6 -87 -5 -146 25 -34 17 -65 31 -70 30 -5
-1 -36 -15 -69 -31z"/>
<path d="M5890 13561 c-178 -20 -357 -112 -485 -249 -62 -66 -115 -157 -114
-197 0 -26 3 -23 23 26 51 123 181 249 339 328 136 68 292 96 362 65 55 -25
74 -25 119 -2 110 56 398 -45 561 -195 73 -67 155 -183 155 -220 0 -9 5 -17
10 -17 15 0 12 15 -12 68 -56 123 -180 240 -330 314 -145 71 -317 102 -406 72
-28 -10 -47 -12 -55 -6 -18 15 -94 21 -167 13z"/>
<path d="M5264 13068 c-12 -18 -22 -88 -13 -82 5 3 9 -2 9 -11 0 -9 -5 -13
-11 -9 -8 4 -9 -1 -4 -16 5 -15 2 -25 -6 -31 -9 -5 -10 -9 -3 -9 9 0 9 -11 3
-37 -5 -21 -10 -69 -10 -108 -1 -38 -2 -93 -3 -122 -1 -47 4 -59 51 -127 29
-42 57 -95 62 -118 16 -69 49 -126 104 -181 62 -62 104 -97 116 -97 5 0 24
-14 42 -32 74 -70 119 -90 119 -52 0 32 62 9 135 -51 28 -22 52 -43 53 -47 7
-16 22 -7 22 12 0 30 27 14 40 -24 6 -18 26 -51 45 -74 20 -22 42 -55 49 -73
l14 -33 15 34 c8 19 26 47 40 63 14 15 35 47 45 71 23 50 42 67 42 37 0 -29 9
-26 58 18 38 35 118 81 141 81 5 0 13 -9 16 -20 7 -24 18 -25 34 -6 7 8 23 17
37 20 19 5 25 12 21 26 -3 13 2 20 18 24 36 9 126 75 172 125 52 57 92 128 95
169 1 18 5 32 9 32 4 0 9 10 13 23 3 12 23 46 45 75 44 57 63 110 54 145 -3
12 -6 64 -6 115 0 50 -4 92 -9 92 -4 0 -8 5 -8 11 0 5 5 7 10 4 6 -3 10 -1 10
4 0 6 -5 11 -11 11 -5 0 -7 5 -4 10 8 13 -13 140 -26 160 -7 10 -8 3 -3 -24 4
-25 3 -37 -3 -33 -7 4 -7 -9 -2 -39 23 -123 30 -262 14 -268 -5 -1 -2 -12 7
-22 16 -18 16 -22 0 -69 -18 -51 -61 -119 -106 -167 -14 -15 -26 -32 -26 -38
0 -5 -4 -10 -10 -10 -5 0 -10 -5 -10 -11 0 -6 9 -9 20 -6 25 6 25 6 0 -46 -45
-95 -167 -202 -272 -238 -29 -10 -44 -18 -34 -19 41 0 3 -14 -42 -14 -27 -1
-67 -11 -95 -25 -26 -12 -54 -21 -62 -18 -32 13 -71 -22 -105 -94 -33 -67 -35
-70 -45 -46 -14 34 -29 29 -32 -12 -4 -52 -13 -50 -13 2 0 50 -14 63 -24 22
-4 -14 -10 -25 -15 -25 -4 0 -21 28 -37 63 -21 47 -37 67 -62 80 -18 10 -38
15 -43 11 -6 -3 -37 6 -70 20 -42 20 -68 25 -91 21 -18 -3 -44 -2 -58 4 -24 9
-24 10 10 11 35 2 35 2 -12 15 -97 26 -228 136 -282 236 -25 47 -25 49 -6 49
11 0 20 5 20 10 0 6 -5 10 -11 10 -6 0 -9 5 -7 12 2 6 -11 25 -29 41 -39 34
-77 95 -102 166 -18 48 -18 49 2 70 12 12 16 21 9 21 -15 0 -16 100 -2 185 21
121 21 131 11 115 -13 -19 -14 -5 -2 38 10 33 8 41 -5 20z m1633 -80 c-3 -8
-6 -5 -6 6 -1 11 2 17 5 13 3 -3 4 -12 1 -19z"/>
</g>
</svg>
