<svg version="1.1" id="Layer_1" xmlns="http://www.w3.org/2000/svg" xmlns:xlink="http://www.w3.org/1999/xlink" x="0px" y="0px"
	 width="1200px" height="1600px" viewBox="0 0 1200 1600" enable-background="new 0 0 1200 1600" xml:space="preserve">
<g transform="translate(0.000000,1600.000000) scale(0.100000,-0.100000)">
	<path d="M5967.001,12689.002c-32.002-11.006-67.998-29.004-80-39.004c-11.006-10.996-29.004-20-37.998-20
		c-10,0-34.004-20.996-54.004-47.002c-37.998-48.994-39.004-70-2.002-35.996c26.006,23.994,62.998,37.998,94.004,33.994
		c17.002-1.992,20,2.002,17.002,17.002c-9.004,31.006,95,72.002,181.992,72.002c89.004,0,227.754-16.875,130-110
		c-35.996-39.004-35.996-40.996-5.996-14.004c19.004,17.002,45,34.004,57.998,37.002c29.004,7.002,87.002-17.002,101.006-40
		c7.998-13.994,10-15,10.996-2.998c0,20.996-60,92.002-74.004,87.002c-5.996-2.002-25.996,8.994-42.998,23.994
		C6195.996,12709.002,6070.996,12724.998,5967.001,12689.002z"/>
	<path d="M6160,12569.002c-60.996-44.004-102.998-50-140.996-21.006c-13.008,10-37.002,26.006-54.004,37.002
		c-30,17.998-30,17.998-15-0.996c27.002-34.004,107.998-84.004,137.998-84.004c15,0,117.998,79.004,126.006,97.998
		C6220.996,12612.996,6224.003,12614.998,6160,12569.002z"/>
	<path d="M5930,12555.994c0-1.992,12.002-11.992,27.998-20.996L5985,12517l-19.004,20.996
		C5949.003,12557.996,5930,12567,5930,12555.994z"/>
	<path d="M5855,12515.994l-30-12.998l25.996-7.002c15-3.994,33.008-20.996,42.002-38.994l16.006-32.002l-2.002,49.004
		C5905,12529.002,5897.998,12534.998,5855,12515.994z"/>
	<path d="M6247.001,12512.996c-2.002-10-5-33.994-6.006-52.998c-0.996-32.998,0-34.004,14.004-15.996c7.998,10.996,15,28.994,15,40
		c0,12.998,2.998,16.992,7.998,8.994s12.002-7.998,26.006,2.998c17.998,13.008,17.998,14.004-8.008,24.004
		C6259.003,12534.002,6252.001,12532.996,6247.001,12512.996z"/>
</g>
<path d="M602.243,325.807c4.118-0.304,11.614-0.21,14.003-0.02c4.784,0.421,0.81-0.209-4.556-0.71
	c-2.203-0.206-5.68-0.318-11.488,0.562C596.167,326.251,595.651,326.279,602.243,325.807z"/>
<path d="M603.156,323.702c3.352-0.247,9.455-0.175,11.4-0.023c3.893,0.334,0.66-0.168-3.709-0.566
	c-1.792-0.163-4.621-0.252-9.353,0.456C598.208,324.06,597.786,324.083,603.156,323.702z"/>
<path d="M598.831,327.89c-7.061,1.456-11.749,2.75-2.663,1.008c12.011-2.005,13.621-1.515,20.92-0.243
	c6.166,1.074,8.597,1.658,7.52,1.156c-1.159-0.538-13.764-3.234-17.251-3.091C605.524,326.765,601.774,327.481,598.831,327.89z"/>
</svg>
