<svg version="1.0" xmlns="http://www.w3.org/2000/svg"
 width="1200.000000pt" height="1600.000000pt" viewBox="0 0 1200.000000 1600.000000"
 preserveAspectRatio="xMidYMid meet">

<g transform="translate(0.000000,1600.000000) scale(0.100000,-0.100000)"
fill="#000000" stroke="none">
<path d="M5571 13061 c-45 -16 -69 -35 -136 -105 -46 -47 -91 -86 -100 -86
-10 0 -27 7 -37 17 -10 9 -18 11 -18 5 0 -6 3 -12 8 -14 4 -1 18 -18 31 -37
l24 -34 -26 -23 c-20 -17 -23 -25 -14 -33 35 -29 79 -34 300 -35 l228 -2 23
31 c46 61 51 94 26 171 -28 85 -62 133 -101 141 -16 3 -32 10 -35 14 -9 16
-117 9 -173 -10z"/>
<path d="M6405 13070 c-3 -5 -15 -10 -27 -10 -34 0 -76 -56 -102 -138 -26 -83
-24 -100 22 -173 l22 -35 237 1 c202 1 243 4 270 18 36 19 51 37 30 37 -8 0
-21 8 -30 18 -16 17 -15 21 13 58 34 45 39 63 10 34 l-21 -21 -33 26 c-18 14
-61 55 -94 91 -47 51 -71 69 -116 84 -59 21 -170 27 -181 10z"/>
</g>
</svg>
