<svg version="1.0" xmlns="http://www.w3.org/2000/svg"
 width="1200.000000pt" height="1600.000000pt" viewBox="0 0 1200.000000 1600.000000"
 preserveAspectRatio="xMidYMid meet">

<g transform="translate(0.000000,1600.000000) scale(0.100000,-0.100000)"
fill="#000000" stroke="none">
<path d="M5820 11544 c-66 -9 -259 -44 -337 -62 -63 -15 -87 -26 -122 -58
-146 -130 -213 -260 -198 -387 4 -29 22 -77 47 -121 28 -52 40 -85 40 -114 0
-32 6 -47 28 -67 25 -23 27 -31 27 -106 1 -72 -2 -83 -24 -105 -23 -23 -24
-27 -17 -120 7 -91 13 -119 35 -154 20 -31 59 -126 66 -160 4 -19 19 -69 32
-110 23 -68 25 -92 27 -268 1 -145 -2 -192 -11 -192 -14 0 -37 -40 -47 -82 -5
-22 -3 -26 9 -22 10 4 15 0 15 -15 0 -12 3 -21 8 -21 14 0 97 45 108 59 8 11
14 8 27 -13 9 -14 17 -37 17 -51 0 -28 15 -32 45 -12 27 19 64 27 70 16 3 -4
18 -6 33 -3 22 5 39 -3 83 -37 43 -35 176 -109 195 -109 2 0 4 8 4 18 0 9 11
30 24 46 l23 30 7 -51 c8 -62 35 -103 54 -81 6 8 18 41 25 74 l14 59 21 -35
c12 -19 22 -41 22 -47 0 -7 2 -13 4 -13 19 0 152 74 195 109 44 34 61 42 83
37 15 -3 30 -1 33 3 6 11 43 3 70 -16 28 -19 45 -16 45 7 0 12 7 35 16 52 14
26 18 29 28 17 11 -14 94 -59 109 -59 4 0 7 9 7 21 0 15 5 19 15 15 12 -4 14
0 9 22 -8 34 -22 62 -42 85 -13 15 -16 47 -15 186 1 93 7 188 13 212 14 53 60
208 68 229 3 8 6 20 6 25 1 6 11 10 24 9 24 -1 22 -7 47 163 19 134 19 160 -2
172 -15 8 -18 24 -17 105 1 70 5 102 18 120 9 14 16 43 16 65 0 27 11 58 34
98 96 162 65 303 -102 472 -93 94 -77 88 -332 137 -121 24 -161 27 -390 29
-140 2 -271 1 -290 -1z"/>
</g>
</svg>
