<svg version="1.0" xmlns="http://www.w3.org/2000/svg"
 width="1200.000000pt" height="1600.000000pt" viewBox="0 0 1200.000000 1600.000000"
 preserveAspectRatio="xMidYMid meet">

<g transform="translate(0.000000,1600.000000) scale(0.100000,-0.100000)"
fill="#000000" stroke="none">
<path d="M5927 11680 c-52 -14 -104 -41 -163 -89 -42 -33 -53 -48 -56 -77 -2
-19 0 -37 4 -40 18 -11 6 -44 -32 -86 -30 -35 -36 -48 -27 -57 9 -9 9 -14 -2
-20 -11 -7 -11 -10 0 -15 11 -5 11 -7 1 -12 -9 -4 -10 -10 -2 -19 8 -10 0 -15
-37 -24 -73 -18 -133 -45 -133 -59 0 -7 -12 -24 -26 -37 -23 -21 -25 -27 -13
-41 11 -14 10 -19 -14 -36 -26 -19 -37 -48 -17 -48 5 0 7 -6 4 -14 -3 -8 -13
-12 -24 -9 -27 7 -60 -15 -60 -40 -1 -24 -22 -57 -37 -57 -23 0 -44 -39 -41
-76 3 -32 11 -44 58 -82 30 -24 80 -64 110 -88 30 -24 64 -51 75 -59 19 -14
17 -15 -27 -13 -26 1 -49 0 -52 -3 -2 -2 3 -38 11 -79 8 -41 16 -84 17 -95 6
-41 57 -124 105 -170 39 -37 48 -52 40 -62 -6 -7 -15 -10 -20 -8 -10 7 -4 -49
7 -67 5 -7 34 -48 66 -91 32 -43 58 -83 58 -89 0 -5 -12 -7 -30 -3 -38 8 -39
-5 -5 -60 29 -48 33 -70 5 -35 -24 30 -24 25 -6 -28 9 -26 12 -51 7 -69 -4
-15 -3 -41 2 -56 6 -19 6 -36 -1 -50 -78 -168 -82 -180 -82 -232 l0 -54 61
-43 c62 -44 168 -107 181 -108 4 0 -1 13 -10 29 -15 27 -10 58 6 36 12 -17
118 -95 129 -95 6 0 13 14 17 30 7 35 23 38 67 11 32 -20 33 -20 70 0 50 25
54 24 69 -12 15 -36 19 -35 98 25 33 25 63 46 66 46 8 0 -5 -33 -22 -52 -8
-10 -13 -18 -10 -18 22 0 124 59 178 103 57 46 66 59 73 98 8 41 5 53 -43 152
-31 65 -48 112 -43 119 4 7 9 42 10 78 4 103 9 138 22 154 19 22 4 36 -31 29
-29 -6 -30 -5 -18 18 7 13 37 57 68 97 30 40 56 84 57 97 2 13 6 29 10 35 4 7
0 10 -10 8 -36 -6 -26 23 23 70 49 46 117 158 103 167 -5 2 0 41 10 87 10 45
16 85 13 87 -3 3 -24 4 -47 3 l-42 -3 25 22 c14 11 43 36 65 54 22 19 69 55
105 82 57 42 65 53 68 85 3 38 -7 53 -61 90 -17 12 -24 24 -20 37 6 22 -38 57
-61 48 -23 -9 -38 14 -18 30 16 12 14 15 -16 41 -26 21 -30 30 -20 40 9 9 6
18 -15 40 -15 15 -27 33 -27 39 0 12 -59 39 -121 53 l-45 11 1 47 c1 41 -4 53
-37 91 -36 42 -48 74 -30 85 4 3 6 21 4 40 -3 29 -14 44 -56 77 -94 76 -143
92 -291 95 -71 2 -147 -1 -168 -6z m553 -1870 c-6 -12 -14 -19 -17 -17 -2 3 1
15 7 27 6 12 14 19 17 17 2 -3 -1 -15 -7 -27z m-399 -613 c-1 -12 -15 -9 -19
4 -3 6 1 10 8 8 6 -3 11 -8 11 -12z"/>
</g>
</svg>
