<?xml version="1.0" encoding="utf-8"?>
<!-- Generator: Adobe Illustrator 16.0.0, SVG Export Plug-In . SVG Version: 6.00 Build 0)  -->
<!DOCTYPE svg PUBLIC "-//W3C//DTD SVG 1.1//EN" "http://www.w3.org/Graphics/SVG/1.1/DTD/svg11.dtd">
<svg version="1.1" xmlns="http://www.w3.org/2000/svg" xmlns:xlink="http://www.w3.org/1999/xlink" x="0px" y="0px" width="1200px"
	 height="1600px" viewBox="0 0 1200 1600" enable-background="new 0 0 1200 1600" xml:space="preserve">
<g id="Layer_2">
	<g opacity="0.2">
		<path d="M579.325,518.242c-0.08-14.276-1.712-24.003-5.525-35.742c-0.75-2.318-1.441-4.37-2.1-6.222
			c-0.805-2.687-1.753-5.212-2.799-7.278c-0.23-0.471-0.506-0.952-0.8-1.438c-1.633-3.219-3.268-5.375-5.3-7.262l-2.3-2.2
			l-0.547,0.491c-1.718-1.375-3.461-2.527-5.052-3.291c-8.301-3.899-8.101-3.899-16.101,2.9c-4,3.5-7.899,6.7-8.6,7.3
			c-0.8,0.5-5.601,5-10.7,9.8c-6.5,6.2-9.4,9.7-9.9,11.8c-0.8,4-20.8,24.2-42.1,42.4c-6.1,5.3-12.3,10.7-15.9,14
			c-0.6,0.6-5.8,5.1-11.6,10s-11,9.4-11.6,10c-0.601,0.6-7.8,6.7-16,13.5c-8.2,6.9-20.3,17.7-26.9,24c-6.6,6.4-15.4,14.2-19.5,17.5
			s-10.3,8.1-13.7,10.8c-7,5.601-9.5,9.9-7.1,12.3c0.183,0.194,0.335,0.371,0.495,0.512c-1.152,0.932-2.084,1.716-2.595,2.188
			c-1.3,1.2-2.9,2.2-3.5,2.3c-0.6,0-1.9,0.2-2.9,0.2c-1.1,0.101-5.3,3.7-9.5,7.9c-4.3,4.3-11.5,10.7-16.1,14.3
			c-14.3,11.2-43.4,35.5-48.9,40.9c-16.3,16.199-32.6,36.199-38,46.6c-8,15.3-9.2,33.5-3.2,47c7.9,17.9,12.5,25.1,19.6,30.4
			c2.1,1.699,6.8,5.3,10.4,8.1c13.1,10.1,30.3,16.8,52,20.1c29.1,4.5,89.1-2.199,110.4-12.199c14-6.5,51.4-53.601,69.9-87.7
			c2.3-4.3,4.9-8.9,5.7-10.4s6.8-13.2,13.4-26c6.5-12.8,12.5-24,13.199-24.899c0.801-0.801,1.4-2,1.4-2.601c0-0.6,1.5-4.899,3.4-9.5
			c5.3-12.8,8.6-21.6,8.6-22.5c0-0.7,4.2-11.3,7-17.8c0.5-1.1,1.4-3.7,2-5.8c0.6-2,1.6-3.7,2.1-3.7c0.601,0,0.801-0.4,0.5-0.9
			C539.9,637,542.7,630.4,554.8,605c6.101-12.9,11.8-22.6,14.601-24.9c2.053-1.745,4.236-8.236,6.012-16.949
			C578.284,553.54,580.885,523.767,579.325,518.242z"/>
		<path d="M996.2,769c-4.101-13.8-10.601-23.8-28-42.8c-18.101-19.9-24-25.101-62.7-54.9c-7.7-5.899-17.3-14.1-21.3-18.1
			c-4.101-3.9-7.601-7.2-7.8-7.2c-0.2,0-1.301,0.5-2.301,1.2c-2.399,1.5-5.1-0.4-4.399-3.101c0.192-0.768-0.197-1.579-1.231-2.56
			c0.194-0.716,0.072-1.579-0.369-2.839c-0.6-1.5-0.8-3.3-0.5-4c0.301-0.8-0.899-2.5-2.8-4c-1.8-1.4-7.6-5.8-12.8-9.9
			c-5.2-4-15.1-12.7-22-19.399c-6.9-6.601-19.5-18-28-25.301c-8.5-7.3-16.6-14.199-18-15.399s-5.2-4.5-8.5-7.2
			c-3.3-2.8-7.6-6.4-9.5-8.2c-1.9-1.7-4.6-4.1-6-5.3c-4-3.4-13.2-11.4-14.4-12.5c-0.6-0.6-3.6-3.2-6.6-5.9
			c-14.6-13.1-31.4-30.399-33.1-34.1c-2.2-4.9-11.801-15-21.9-23c-4.1-3.3-9-7.3-10.8-8.9c-4.2-3.8-4.601-3.8-10.8-1.1
			c-2.628,1.178-5.232,2.79-7.568,4.625c-0.149-0.078-0.267-0.125-0.332-0.125c-0.6,0-2.1,1-3.2,2.2
			c-1.988,2.209-3.544,4.86-5.503,9.733c-0.006,0.015-0.012,0.029-0.018,0.043c-0.696,1.735-1.442,3.744-2.279,6.123
			c-6.372,17.594-6.955,20.28-6.997,42.347c-0.765,4.94-0.627,16.691,0.512,26.158c0.266,3.6,0.648,6.334,1.186,8.896
			c1,4.4,1.899,9.1,2.2,10.5c1.3,7.1,4,13.2,8.5,19.1c4.899,6.5,10.899,18.301,23,45.101c2.5,5.5,8,19.6,8.6,21.8
			c0.2,0.8,1.8,4.9,3.4,9c1.699,4.1,4.6,11.8,6.5,17c6.3,17,14.699,34.5,37.899,78.6c18.8,35.801,56.3,84.101,73,93.801
			c4.2,2.5,20.601,7.199,33.2,9.5c7.1,1.3,30.6,3.699,45.5,4.6c25,1.5,56.4-4.5,73.6-14.1c8.101-4.5,24.4-17.5,28.601-22.801
			c4.399-5.5,10.6-18,13.8-27.399C998.7,790.8,998.8,778,996.2,769z"/>
	</g>
</g>
<g id="Layer_1">
	<g transform="translate(0.000000,1600.000000) scale(0.100000,-0.100000)">
		<path d="M5809.003,10932.996c-8.008,105-22.002,164.004-60,261.006c-10,26.992-19.004,55-19.004,62.998
			c0,27.002-50.996,115-87.998,150c-37.344,36.49-98.433,67.867-153.965,80.83c-8.56-3.184-18.486-4.008-29.663-1.045
			c-10.527,2.793-21.03,6.178-31.45,9.859l-11.924,1.352L5272.998,11352c-78.994-81.006-155.996-164.004-172.002-184.004
			c-15-20.996-30.996-35-33.994-30.996c-2.998,2.998-17.002-19.004-31.006-47.998c-12.998-30-43.994-72.002-67.998-94.004
			c-50-45.996-282.998-250-318.994-280c-113.008-92.998-317.002-272.002-479.004-420.996c-25-23.008-92.002-81.006-150-130
			c-57.998-48.008-125-106.006-150-128.008c-25-22.998-77.002-67.998-115-100.996c-87.998-75.996-237.998-230.996-247.002-255
			c-3.999-10-11.997-20.996-18.999-25.996c-7.998-5-10-3.008-3.999,6.992c17.998,29.004-27.998-15-57.002-55.996
			c-17.998-24.004-37.998-40-53.999-42.998c-15-1.006-37.998-17.002-51.997-35c-55-66.006-121.001-127.002-267.002-242.998
			c-180-143.008-165-130-295-242.002c-143.999-122.998-182.002-160-298.999-291.005c-188.999-212.998-255-315-291.001-455
			c-32.998-130-23.999-222.998,35-365.996s122.002-230,220-305c21.001-15.996,42.998-35,48.999-40.996
			c6.001-5,38.003-28.008,71.001-50c167.002-111.006,373.999-172.002,646.001-189.004c118.999-7.002,528.999,25.996,671.997,55.996
			C3996,7427.997,4136,7474.999,4180,7507.001c84.004,62.998,255,255,405.996,457.998c117.002,157.002,168.008,235.996,265,412.998
			c14.004,26.006,38.008,70,54.004,97.002c15,27.998,80,152.002,145,277.998c64.004,124.999,119.004,224.999,122.002,221.005
			c2.998-3.008,8.994,8.994,12.998,26.992c4.004,18.008,22.002,69.004,40,113.008c17.998,45,45,112.998,57.998,150.996
			c51.006,137.998,149.004,390.996,182.002,465c75.996,174.004,164.004,355.996,182.002,379.004
			c77.002,98.994,105,160,132.002,287.998C5805.996,10522.996,5820,10784.998,5809.003,10932.996z M3522.002,9659.998
			c5.996,22.002,12.998,40,16.997,40s23.003,15,42.002,32.998c18.999,17.002,61.997,55,93.999,82.002
			c32.002,27.998,115,100.996,183.999,162.998C3927.998,10040.994,4001,10102,4020,10114.998c32.998,22.002,80,30,80,12.998
			c0-3.994-3.999-10-10-12.998c-5-2.998-10-10.996-10-17.998c0-7.998,2.998-7.998,12.002,0.996
			c26.997,27.002,26.997,9.004-1.001-47.002c-18.999-36.992-43.003-66.992-63.999-78.994
			c-18.003-12.002-44.004-31.006-57.002-42.998c-13.999-12.002-52.002-40-85-62.002s-62.002-42.998-65-46.006
			c-7.002-8.994-260-175-286.001-188.994C3512.998,9620.994,3512.998,9622,3522.002,9659.998z M5775.996,10844.998
			c-12.998-10.996-42.998-30.996-65-45c-50.996-30-76.992-65.996-60.996-84.004c14.004-17.998,4.004-205-15.996-275.996
			c-28.008-102.002-45-172.998-41.006-182.998c1.006-5,17.998,40.996,36.006,103.994c23.994,80,35.996,147.002,41.992,229.004
			c8.008,102.002,21.006,185.996,31.006,195c7.002,5.996,67.998,35,73.994,35c8.008,0-2.998-237.002-15.996-335
			c-15-109.004-39.004-197.998-60.996-225c-19.004-24.004-19.004-22.998,0.996,20l20.996,45l-40-42.998
			c-37.998-41.006-147.998-251.006-185.996-354.004c-10-27.002-20-47.998-22.002-47.998c-2.998,0-2.998,17.998-0.996,39.004
			c7.998,92.998-25-29.004-42.002-149.004c-10-75.996-32.998-142.002-87.002-260c-22.002-47.002-55.996-132.998-77.002-192.002
			c-37.998-112.002-71.992-197.002-125-312.998c-17.998-37.998-43.994-97.002-58.994-130
			c-31.006-69.999-170-344.999-182.002-359.999c-4.004-5-29.004-50-55-100c-187.998-352.998-579.004-845.996-732.002-924.004
			c-23.999-11.992-42.998-18.994-42.998-16.992c0,2.998-15-1.006-33.999-9.004c-52.002-22.002-267.002-62.998-417.002-80
			c-76.001-7.998-223.999-15-341.001-15c-183.999,0-218.999,2.998-325,25c-65,14.004-155.996,39.004-200.996,55
			c-111.001,39.004-262.002,140-366.001,242.998c-71.001,70-90,97.002-133.999,187.002c-50,104.004-82.002,215-82.002,285.996
			c0,99.004,92.998,320,166.001,391.006c11.997,12.002,56.997,65.996,100,118.994c91.997,114.004,276.001,299.999,390,393.007
			c86.997,70.996,221.997,181.992,343.999,283.994c41.001,34.004,78.999,64.004,83.999,66.006c5,1.992,40,26.992,77.002,55
			c36.997,27.998,96.001,68.994,131.001,90c70,42.998,227.998,147.998,321.997,213.994c33.999,22.998,72.002,50,86.001,59.004
			c13.999,10,45,33.994,70,53.994s66.001,48.008,91.001,62.002c31.001,17.002,51.997,39.004,63.999,64.004
			c26.001,52.998,82.998,142.998,113.999,177.002c23.999,25.996,21.997,25.996-25-8.008c-32.998-22.998-62.998-35.996-83.999-35.996
			c-17.002,0-30,4.004-27.998,7.998c1.997,4.004,43.999,44.004,92.998,87.002c50,44.004,92.002,82.002,95,85s50,42.998,105,90
			s102.002,87.002,105,90c2.998,4.004,55,47.998,115,99.004c60.996,50.996,134.004,112.998,162.002,137.998
			c153.994,130.996,217.998,180.996,220.996,172.002c2.002-5-0.996-24.004-7.002-41.006c-15-42.998-13.994-77.998,4.004-83.994
			c7.998-4.004,15-10,15-14.004c0-5-87.002-70.996-192.002-145.996c-245-175-535-390-543.994-405
			c-4.004-7.002,5.996-3.008,21.992,7.998c16.006,10.996,61.006,40.996,99.004,67.002c39.004,25,124.004,85,190,130.996
			C4620.996,10482,4700,10537,4730,10557c30,20.996,90,65,132.998,97.998c44.004,32.998,92.998,69.004,111.006,80
			c38.994,24.004,82.998,57.002,138.994,105.996c22.998,20,65,53.008,92.002,74.004c27.998,20.996,70.996,59.004,97.002,85.996
			c43.994,44.004,87.998,61.006,87.998,35c0-5.996,5-5,12.002,2.002s22.002,12.002,35,12.002c23.994,0,32.002,15,12.002,22.002
			c-8.008,2.998-7.002,8.994,2.998,18.994c17.998,18.008,40.996,59.004,35.996,65c-2.998,2.002-18.994-15.996-37.002-40
			c-36.992-48.994-80-65.996-87.998-35c-7.998,27.002-18.994,24.004-42.002-13.994c-43.994-72.002-296.992-272.998-328.994-262.998
			c-19.004,5.996-19.004,7.998,2.998,86.992c12.998,44.004,32.002,90,42.998,102.002C5049.003,11004.998,5065,11032,5075,11052
			c9.004,20.996,50.996,70,92.998,110c162.998,155,274.004,270,277.002,285.996c5,22.998,4.004,22.002,10,22.002
			c2.998,0,34.004-14.004,69.004-30c112.998-54.004,161.992-124.004,192.998-279.004c12.002-63.994,18.994-78.994,28.994-70
			c20,16.006,31.006-15,44.004-125.996l10.996-100L5775.996,10844.998z"/>
		<path d="M5490,11392.996c0-5.996-2.998-17.998-5.996-27.002c-3.008-8.994-2.002-15.996,3.994-15.996
			c15,0,24.004,32.002,12.002,44.004C5492.998,11400.994,5490,11400.994,5490,11392.996z"/>
		<path d="M5484.003,10997.996c-5-7.002-2.002-8.994,6.992-5.996c9.004,2.998,26.006-2.998,40-12.998
			c36.006-28.008,92.002-25,126.006,6.992L5685,11012l-32.002-21.006c-38.994-25.996-70-25.996-107.998-0.996
			C5510.996,11012.996,5494.003,11014.998,5484.003,10997.996z"/>
		<path d="M4330,10204.002c-35.996-20-77.002-45-92.002-56.006c-15.996-10.996-31.997-17.002-36.997-13.994
			c-5,2.998-11.001-6.006-13.999-19.004c-4.004-25-3.003-25,16.997-10c35.005,25.996,88.003,60,138.003,87.998
			C4375,10212,4390,10215.994,4392.998,10207c2.998-6.006,4.004-2.002,4.004,10.996c-1.006,12.002-1.006,22.002-2.002,22.002
			C4395,10239.998,4365.996,10224.002,4330,10204.002z"/>
		<path d="M4382.001,10149.998c0-14.004,2.002-19.004,5-12.002c2.002,6.006,2.002,17.998,0,25
			C4384.003,10169.002,4382.001,10164.002,4382.001,10149.998z"/>
		<path d="M4260,10059.998c-7.998-5-12.002-12.002-9.004-15c4.004-2.998,12.002,0.996,19.004,10
			C4284.003,10072,4280.996,10074.002,4260,10059.998z"/>
		<path d="M5490,10044.998c-7.002-9.004-7.998-15-2.002-15c5,0,12.002,7.002,16.006,15c2.998,7.998,3.994,15,1.992,15
			C5504.003,10059.998,5497.001,10052.996,5490,10044.998z"/>
		<path d="M4181,10034.002c0-11.006,2.998-14.004,6.001-6.006c2.998,7.002,1.997,16.006-1.001,19.004
			C4182.998,10050.994,4180,10044.998,4181,10034.002z"/>
		<path d="M4210.996,10020.994c-12.998-10.996-27.998-21.992-33.994-23.994c-7.002-2.002-9.004-7.002-5-11.006
			c2.998-3.994,20.996,6.006,40,23.008C4247.998,10042,4247.001,10052,4210.996,10020.994z"/>
		<path d="M5470.996,9984.002c0-11.006,3.008-14.004,6.006-6.006c2.998,7.002,2.002,16.006-1.006,19.004
			C5472.998,10000.994,5470,9994.998,5470.996,9984.002z"/>
		<path d="M6660,11485.994c-90-25-155-71.992-194.004-140C6440,11302,6380,11132,6357.998,11039.998
			c-8.994-37.998-12.998-124.004-12.002-275c1.006-182.998,5-239.004,23.008-332.998c25-131.006,52.998-212.002,80.996-237.002
			c10.996-10,20-22.998,20-29.004c0-6.992,12.998-26.992,30-45.996c15.996-19.004,29.004-39.004,30-42.998
			c0-4.004,22.998-56.006,50.996-115c49.004-102.998,73.008-154.004,117.002-252.998c27.002-59.004,100-246.006,172.002-439.004
			c95-252.998,104.004-275,112.002-277.998c3.994-2.002,3.994-10,0.996-19.004c-3.994-10-2.002-13.994,2.998-10
			c6.006,2.998,46.006-67.002,91.006-155.995c122.998-249.004,245.996-476.006,313.994-584.004c65-102.998,190-282.002,212.002-305
			c7.002-7.002,35-42.002,62.002-77.998c75.996-100,92.002-117.998,200-225.996c55-55,120.996-113.008,145.996-128.008
			c76.006-43.994,325-100.996,504.003-116.992c355-30,370.996-30,500-20c194.004,15.996,367.002,60.996,507.998,131.992
			c81.006,41.006,246.006,168.008,302.998,233.008c48.008,55,121.006,192.998,154.004,293.994
			c14.004,44.004,20.996,89.004,20.996,150c0,217.998-102.998,392.002-425.996,716.005c-120.996,120.996-260,235.996-565,466.992
			c-47.002,35-119.004,97.002-160,139.004c-42.002,40.996-87.002,84.004-100,95.996c-14.004,12.002-39.004,39.004-57.002,60
			c-62.998,78.008-260.996,274.004-382.998,379.004c-204.003,175.996-215,185-225,192.998c-15,10-85.996,72.002-185,162.002
			c-47.002,42.002-112.002,100.996-145,130s-75.996,67.002-95,84.004c-19.004,16.992-75,65-125,105.996
			c-264.004,219.004-434.004,380-440.996,415.996c-5,30-45,75-226.006,256.006c-75,75.996-142.998,137.998-150,137.002
			C6710.996,11499.002,6685,11492.996,6660,11485.994z M6710,11445.994c0-10,60.996-72.998,280-286.992
			c65-64.004,100-106.006,94.004-112.002c-3.008-2.002,0.996-17.002,6.992-32.998c20-51.006,49.004-163.008,49.004-188.008
			c0-15-7.002-25.996-20-28.994c-25-6.006-252.002,180-300,247.002c-35,48.994-47.002,55-55.996,30.996
			c-10-25.996-41.006-15.996-73.008,24.004c-16.992,20.996-30.996,43.994-30.996,50c0,5.996-4.004,10.996-10,10.996
			c-15,0-12.002-10.996,10.996-49.004c14.004-23.994,17.002-36.992,10-43.994c-17.998-17.998-12.998-25,14.004-19.004
			c15.996,2.998,34.004-2.002,47.002-13.994c12.002-11.006,17.998-13.008,13.994-6.006c-3.994,7.002-0.996,12.002,9.004,12.002
			c7.998,0,49.004-32.002,89.004-70.996C6885,10930.994,6985,10847,7067.001,10784.998
			C7147.998,10722,7235,10654.002,7260,10634.002s77.002-58.008,115-85c279.004-194.004,430.996-309.004,407.002-309.004
			c-4.004,0-12.998,5-19.004,10.996c-8.994,9.004-10.996,7.002-8.994-6.992c1.992-12.002,35.996-38.008,91.992-70
			c55-32.002,90-59.004,92.002-70c2.002-11.006,11.006-33.008,20-51.006c22.002-43.994,11.006-50-35-17.998L7885,10062
			l39.004-36.006c20.996-18.994,42.998-32.998,48.994-28.994c6.006,2.998,7.002,0.996,2.998-5
			c-7.998-14.004,8.008-24.004,27.002-16.006c12.002,4.004,10,15-10,66.006c-18.994,45.996-22.002,62.998-12.998,67.998
			c14.004,9.004,20,4.004-105,102.002c-107.002,85-490.996,370.996-575,427.998c-19.004,12.998-49.004,35-65.996,49.004
			c-17.002,13.994-47.002,38.994-68.008,55C7130,10772,7130,10772.996,7150,10787c24.004,17.002,25,45,5,127.002l-14.004,57.998
			l27.002-22.998c39.004-36.006,45-41.006,97.998-84.004c27.002-22.002,64.004-54.004,84.004-70.996
			c39.004-34.004,42.002-37.002,230-196.006c74.004-62.002,145.996-122.998,160-135s35.996-30.996,50-42.998
			s59.004-52.002,100.996-90c41.006-37.998,98.008-87.002,126.006-109.004c52.998-40.996,67.998-58.994,60-66.992
			c-2.002-2.002-22.998-8.008-45-12.002l-41.006-7.002l23.008-55c30.996-75.996,138.994-180,185.996-180
			c17.998,0,2.002,17.998-55.996,60.996c-39.004,29.004-62.002,56.006-84.004,99.004l-30,60l35.996,15
			c45,17.998,44.004,17.998,44.004,0c0-7.998,5-15,10.996-15c11.006,0,66.006-45.996,354.003-300.996
			c125.996-111.006,152.002-139.004,162.002-173.008c20.996-70,38.994-75-182.002,62.002c-65.996,41.006-132.998,84.004-150,96.006
			c-15.996,11.992-47.998,31.992-70,45l-40,22.998l40-37.002c22.002-20,54.004-42.998,70-52.002
			c17.002-7.998,60.996-37.998,97.998-65s80-53.994,95-60c15-7.002,42.998-25,62.998-40s40-27.998,43.008-27.998
			c3.994,0,40-20,80-45c40.996-25,77.998-45,80.996-45c10,0,100-67.998,155.996-119.004c27.002-23.994,49.004-40,49.004-35.996
			s24.004-12.998,54.004-39.004c30-25,56.992-45.996,60.996-45.996c2.998,0,37.002-25.996,75-57.002
			c37.002-32.002,117.002-97.998,177.002-147.998c58.994-49.004,155-137.002,212.998-194.999
			c104.004-104.004,307.002-349.004,342.002-412.002c70-127.998,100.996-245,88.994-327.998c-15-94.004-40-169.004-81.992-249.004
			c-73.008-135.996-120-187.998-269.004-297.998c-119.004-87.998-247.002-140-452.002-182.998c-75-15.996-132.998-20-297.998-20
			c-112.998,0-240.996,4.004-285,9.004s-105,11.992-135,15c-85,8.994-117.002,15-230,41.992
			c-197.001,48.008-217.001,59.004-352.001,195c-88.994,91.006-122.002,130-280.996,338.008
			c-56.006,71.992-180,255.996-224.004,330.996c-35,59.004-75,132.998-93.994,170.996c-10,19.004-25,42.002-34.004,49.004
			c-14.004,10.996-105,190-105,205c0,5-17.002,40.996-100,219.999c-22.998,50-47.998,105.996-55,125s-25.996,64.004-42.002,100
			c-17.002,35.996-32.998,79.004-37.002,95c-10,42.002-45,132.002-115.996,295c-37.998,87.998-62.002,162.998-64.004,205
			c-3.994,54.004-30,154.004-37.998,149.004c-5-3.008-5.996-15-2.998-27.002c5.996-26.006-0.996-12.002-57.002,112.998
			c-80.996,179.004-170.996,330-197.002,330c-16.992,0-41.992,177.002-47.998,332.998c-5.996,152.998-5,157.002,12.998,150
			c51.006-20.996,67.002-42.002,76.006-100c5-32.002,8.994-82.002,7.998-110.996c0-60,29.004-200,59.004-282.002
			c27.998-79.004,25.996-37.998-5,72.002c-28.008,102.002-48.008,303.994-31.006,325.996
			c14.004,17.998-28.994,69.004-87.998,101.006c-45,25-50,30.996-52.998,66.992c-4.004,46.006,15.996,191.006,28.994,217.002
			c12.002,22.002,29.004,12.998,30-15.996c0-12.002,8.008,15.996,16.006,62.998c27.002,157.002,73.994,229.004,185,284.004
			C6690.996,11469.002,6710,11472,6710,11445.994z M6470,10244.998c0-5-9.004,4.004-20,20c-10.996,17.002-20,37.002-20,45
			C6430.996,10325.994,6469.003,10262,6470,10244.998z M8734.999,9549.998c2.998-5-0.996-10-10-10s-12.998,5-10,10
			c2.998,5.996,7.998,10,10,10S8732.001,9555.994,8734.999,9549.998z"/>
		<path d="M6640,11384.998c0-10.996,5-27.002,10-35c7.998-12.002,10-12.002,10,5c0,10.996-5,27.002-10,35
			C6642.001,11402,6640,11402,6640,11384.998z"/>
		<path d="M6610,10989.998c-30-24.004-55-25-94.004-5c-38.994,20.996-43.994,19.004-12.998-5c32.998-25.996,91.006-25.996,124.004,0
			c13.994,10.996,28.994,17.002,33.994,14.004c5-3.008,9.004,0,9.004,5C6670,11015.994,6637.001,11010.994,6610,10989.998z"/>
		<path d="M6655,10050.994c-2.998-5-0.996-11.992,5-15.996c5-2.998,10,0.996,10,9.004C6670,10062,6664.003,10064.998,6655,10050.994
			z"/>
		<path d="M6670.996,10004.002c0-11.006,3.008-14.004,6.006-6.006c2.998,7.002,2.002,16.006-1.006,19.004
			C6672.998,10020.994,6670,10014.998,6670.996,10004.002z"/>
		<path d="M6682.001,9949.998c0-14.004,2.002-19.004,5-12.002c2.002,6.006,2.002,17.998,0,25
			C6684.003,9969.002,6682.001,9964.002,6682.001,9949.998z"/>
		<path d="M8130,9915.994c0-1.992,7.002-8.994,15-15.996c9.004-7.002,15-7.998,15-2.002c0,5-7.002,12.002-15,16.006
			C8137.001,9917,8130,9917.996,8130,9915.994z"/>
	</g>
</g>
</svg>
