<?xml version="1.0" standalone="no"?>
<!DOCTYPE svg PUBLIC "-//W3C//DTD SVG 20010904//EN"
 "http://www.w3.org/TR/2001/REC-SVG-20010904/DTD/svg10.dtd">
<svg version="1.0" xmlns="http://www.w3.org/2000/svg"
 width="1200.000000pt" height="1600.000000pt" viewBox="0 0 1200.000000 1600.000000"
 preserveAspectRatio="xMidYMid meet">

<g transform="translate(0.000000,1600.000000) scale(0.100000,-0.100000)"
fill="#000000" stroke="none">
<path d="M5388 11418 c-40 -35 -79 -67 -86 -73 -8 -5 -56 -50 -107 -98 -65
-62 -94 -97 -99 -118 -8 -40 -208 -242 -421 -424 -61 -53 -123 -107 -159 -140
-6 -6 -58 -51 -116 -100 -58 -49 -110 -94 -116 -100 -6 -6 -78 -67 -160 -135
-82 -69 -203 -177 -269 -240 -66 -64 -154 -142 -195 -175 -41 -33 -103 -81
-137 -108 -70 -56 -95 -99 -71 -123 17 -18 7 -23 285 163 293 197 339 234 376
312 18 36 43 77 57 91 38 40 309 246 515 392 315 223 496 361 589 451 72 70
81 76 96 62 9 -8 23 -15 32 -15 8 0 24 -10 36 -23 12 -12 33 -24 48 -25 15 -1
41 -11 60 -22 36 -23 71 -21 111 5 14 9 27 14 30 11 13 -13 43 17 52 52 15 55
-11 195 -50 272 -25 51 -90 113 -140 137 -83 39 -81 39 -161 -29z"/>
<path d="M6624 11455 c-58 -26 -115 -73 -144 -119 -30 -49 -60 -152 -67 -227
-6 -76 12 -119 52 -119 12 0 29 -7 36 -16 10 -12 23 -14 53 -10 22 4 46 12 53
18 7 6 13 8 13 5 0 -10 64 15 89 35 13 10 35 18 48 18 14 0 21 4 18 10 -18 29
16 1 84 -67 69 -70 229 -204 241 -202 3 1 21 -14 41 -32 33 -32 86 -73 204
-159 75 -55 468 -350 560 -419 54 -41 82 -57 87 -48 9 15 10 14 47 -60 19 -38
48 -76 75 -99 30 -25 42 -41 36 -49 -16 -20 -25 -13 295 -220 158 -103 220
-135 233 -122 9 10 10 20 3 40 -6 15 -8 33 -5 40 3 8 -9 25 -28 40 -18 14 -76
58 -128 99 -52 40 -151 127 -220 194 -69 66 -195 180 -280 253 -85 73 -166
142 -180 154 -14 12 -52 45 -85 72 -33 28 -76 64 -95 82 -19 17 -46 41 -60 53
-40 34 -132 114 -144 125 -6 6 -36 32 -66 59 -146 131 -314 304 -331 341 -22
49 -118 150 -219 230 -41 33 -90 73 -108 89 -42 38 -46 38 -108 11z m76 -395
c0 -5 -5 -10 -11 -10 -5 0 -7 5 -4 10 3 6 8 10 11 10 2 0 4 -4 4 -10z"/>
<path d="M5730 10816 c-20 -13 -40 -30 -46 -37 -15 -20 -34 -135 -34 -210 0
-60 -15 -128 -73 -330 -23 -82 -32 -102 -84 -180 -32 -49 -51 -163 -30 -184
19 -19 28 -8 57 65 57 146 183 377 212 389 5 2 13 14 18 27 32 84 63 442 40
469 -16 19 -18 19 -60 -9z"/>
<path d="M6372 10828 c-15 -15 -16 -173 -1 -291 13 -104 40 -219 52 -217 13 2
58 -65 105 -155 46 -87 122 -252 122 -264 0 -4 5 -12 11 -18 9 -9 15 -8 26 3
25 24 8 119 -30 179 -51 79 -54 86 -95 232 -50 175 -59 223 -66 353 -7 117
-15 135 -73 167 -30 17 -42 20 -51 11z"/>
<path d="M4357 10220 c-14 -11 -29 -20 -35 -20 -5 0 -40 -22 -78 -49 l-69 -48
-3 -56 c-1 -31 2 -58 7 -61 4 -3 37 17 72 44 35 27 69 50 74 50 6 0 24 13 41
28 61 52 52 160 -9 112z"/>
<path d="M7753 10228 c-7 -9 -6 -30 1 -62 10 -42 16 -51 56 -73 25 -14 69 -43
99 -65 47 -36 55 -39 68 -25 13 13 13 18 -1 45 -9 17 -16 40 -16 50 0 22 -20
41 -75 73 -22 12 -59 33 -81 46 -32 18 -43 20 -51 11z"/>
</g>
</svg>
