<svg version="1.1" id="Layer_1" xmlns="http://www.w3.org/2000/svg" xmlns:xlink="http://www.w3.org/1999/xlink" x="0px" y="0px"
	 width="1200px" height="1600px" viewBox="0 0 1200 1600" enable-background="new 0 0 1200 1600" xml:space="preserve">
<g transform="translate(0.000000,1600.000000) scale(0.100000,-0.100000)">
	<path d="M6004.003,12687c-95.669-75.336-156.006-209.004-172.002-192.998c-27.002,23.994-90,20-137.002-9.004
		c-22.002-12.998-50.996-25-65-25s-35-5.996-47.998-12.998c-22.998-12.998-22.998-12.998-2.998-31.006
		c10.996-10,23.994-15,30-11.992c5.996,3.994,16.992-9.004,25-28.008c15-35,170.996-205.996,187.998-205.996
		c5.996,0,22.002-7.998,35.996-19.004c39.004-26.992,204.004-110.996,219.004-110.996c20,0,223.994,107.002,275,145
		c42.998,30.996,127.998,130,170.996,197.998c10,15,22.002,25,27.002,22.002c4.004-2.998,15.996,2.002,25,12.002
		c15.996,15.996,15.996,17.002-0.996,30c-10,7.002-32.002,12.998-48.008,12.998c-16.992,0-48.994,12.002-70.996,25
		c-47.002,29.004-150.996,6.006-160,30c-5,14.004-28.33,51.328-38.33,68.33c-9.004,15.996-59.668,46.67-91.67,82.666
		C6092.001,12747,6065,12750.994,6004.003,12687z"/>
</g>
</svg>
