<svg version="1.0" xmlns="http://www.w3.org/2000/svg"
 width="1200.000000pt" height="1600.000000pt" viewBox="0 0 1200.000000 1600.000000"
 preserveAspectRatio="xMidYMid meet">

<g transform="translate(0.000000,1600.000000) scale(0.100000,-0.100000)"
fill="#000000" stroke="none">
<path d="M6062 14474 c-7 -13 -12 -30 -12 -35 0 -6 -21 -40 -47 -75 -34 -46
-54 -64 -70 -64 -15 0 -23 -6 -23 -18 0 -18 -15 -50 -64 -132 -45 -78 -87
-173 -104 -237 -20 -74 -38 -84 -27 -15 19 120 13 159 -20 132 -16 -13 -65
-115 -65 -136 0 -26 -20 -25 -44 2 l-23 28 -47 -41 c-26 -23 -56 -54 -68 -70
-12 -15 -52 -62 -90 -105 -37 -42 -68 -79 -68 -82 0 -3 -14 -25 -31 -49 -21
-29 -29 -50 -26 -70 3 -22 0 -26 -14 -22 -9 3 -20 1 -24 -5 -3 -6 -57 -44
-120 -85 -62 -40 -116 -78 -119 -84 -11 -18 32 -131 82 -213 26 -44 25 -56 -5
-81 -13 -10 -23 -25 -23 -33 0 -17 5 -17 30 -2 14 9 23 9 30 2 14 -14 20 -122
9 -150 -5 -15 -3 -28 7 -40 14 -18 15 -18 30 4 9 12 21 22 26 22 13 0 47 -42
48 -58 0 -7 7 -21 16 -29 15 -15 16 -6 11 113 -3 71 -9 146 -13 167 -5 28 -3
37 8 37 19 0 58 37 58 55 0 7 -9 17 -21 20 -11 4 -27 21 -34 38 -11 26 -10 36
7 76 21 48 43 71 92 96 24 13 33 13 50 2 12 -7 33 -18 48 -25 26 -11 28 -9 44
24 19 41 38 52 58 35 11 -10 24 -5 60 22 24 19 68 41 96 48 39 10 55 20 66 41
16 31 54 39 54 12 0 -19 67 -105 79 -101 12 3 65 -63 66 -83 1 -17 37 -61 107
-132 27 -28 38 -33 42 -23 3 8 12 15 19 15 8 0 27 17 43 38 16 20 39 48 51 62
13 14 24 28 24 32 1 5 2 12 3 17 2 17 47 71 59 71 15 0 72 68 81 98 10 31 38
27 61 -11 11 -17 29 -33 40 -35 51 -7 66 -14 109 -47 40 -30 49 -33 66 -23 17
11 23 9 41 -8 11 -12 22 -29 23 -40 4 -23 27 -21 73 6 28 16 36 17 55 6 78
-43 88 -52 103 -98 20 -62 20 -62 -20 -101 -34 -33 -40 -67 -11 -67 7 0 22 -9
33 -20 20 -18 21 -22 7 -72 -15 -56 -20 -258 -6 -258 4 0 19 22 33 50 27 55
42 61 69 28 10 -13 22 -20 25 -16 4 4 8 51 8 104 0 102 9 120 48 96 28 -18 30
1 3 33 -13 15 -24 32 -24 37 0 4 15 38 34 76 19 37 44 91 55 121 24 61 20 70
-38 101 -20 10 -45 26 -56 34 -63 50 -155 105 -160 96 -12 -20 -21 -9 -17 21
3 18 -3 45 -14 67 -21 40 -168 216 -253 301 l-54 55 -28 -32 c-33 -36 -39 -39
-39 -16 0 17 -47 130 -63 151 -4 6 -15 9 -24 6 -13 -5 -15 -18 -10 -72 3 -36
9 -81 13 -98 11 -55 -11 -37 -25 20 -18 72 -70 204 -87 218 -8 6 -14 16 -14
22 0 5 -13 31 -28 56 -16 25 -34 63 -41 84 -7 20 -19 37 -26 37 -7 0 -22 15
-34 33 -11 18 -33 42 -49 54 -16 12 -33 34 -36 49 -4 15 -13 36 -20 46 -12 17
-13 16 -24 -8z m-342 -644 c0 -5 -4 -10 -10 -10 -5 0 -10 5 -10 10 0 6 5 10
10 10 6 0 10 -4 10 -10z"/>
</g>
</svg>
