<?xml version="1.0" standalone="no"?>
<!DOCTYPE svg PUBLIC "-//W3C//DTD SVG 20010904//EN"
 "http://www.w3.org/TR/2001/REC-SVG-20010904/DTD/svg10.dtd">
<svg version="1.0" xmlns="http://www.w3.org/2000/svg"
 width="1200.000000pt" height="1600.000000pt" viewBox="0 0 1200.000000 1600.000000"
 preserveAspectRatio="xMidYMid meet">

<g transform="translate(0.000000,1600.000000) scale(0.100000,-0.100000)"
fill="#000000" stroke="none">
<path d="M4560 10229 c-36 -12 -76 -31 -90 -44 -18 -18 -29 -22 -40 -15 -28
18 -55 10 -94 -30 -22 -22 -49 -43 -60 -46 -28 -9 -36 -22 -36 -61 0 -17 -9
-47 -19 -65 -12 -19 -23 -63 -27 -105 -3 -40 -11 -70 -16 -67 -10 6 -56 -39
-138 -136 -30 -35 -78 -89 -105 -120 -72 -78 -92 -110 -120 -183 -13 -35 -32
-80 -43 -99 -11 -18 -36 -76 -57 -128 -21 -52 -50 -122 -65 -155 -15 -33 -30
-79 -34 -102 -11 -71 -34 -109 -82 -133 -24 -12 -44 -26 -44 -31 0 -5 -5 -9
-10 -9 -15 0 -109 -67 -152 -108 -34 -33 -44 -36 -115 -42 -59 -5 -90 -13
-125 -34 -45 -26 -49 -27 -110 -15 -35 7 -82 18 -106 26 -58 18 -63 17 -150
-17 -120 -48 -224 -121 -246 -175 -33 -78 -40 -213 -12 -240 9 -9 16 -22 16
-29 0 -15 34 -48 42 -41 3 3 17 -10 32 -30 20 -26 23 -35 12 -35 -25 0 -64
-62 -81 -128 -20 -77 -8 -132 35 -164 17 -12 30 -28 30 -35 0 -7 10 -17 23
-22 13 -5 29 -16 37 -26 7 -9 36 -28 63 -41 43 -22 62 -25 146 -25 l96 1 35
-47 c19 -26 51 -56 70 -68 75 -44 253 -12 338 61 55 47 88 120 113 256 12 62
23 119 25 126 2 7 22 12 53 12 58 0 163 31 242 71 62 31 125 96 134 139 3 15
17 38 31 50 13 13 24 32 24 42 0 11 4 27 9 36 5 9 12 42 15 73 14 129 84 268
195 385 101 107 257 320 303 417 21 42 38 82 38 87 0 6 3 10 8 10 10 0 24 37
58 145 15 50 31 93 36 96 5 3 11 18 14 34 3 15 10 37 16 48 7 15 7 22 -3 28
-11 7 -10 9 3 9 29 0 78 70 78 111 0 86 70 223 130 254 29 15 30 18 30 86 0
38 -6 84 -14 102 -24 53 -89 131 -126 149 -47 23 -130 22 -210 -3z"/>
<path d="M7390 10239 c-35 -14 -66 -45 -108 -109 -34 -50 -37 -62 -40 -137
l-4 -81 31 -17 c55 -28 135 -178 130 -244 -2 -42 -1 -45 36 -89 25 -29 41 -39
53 -35 14 6 15 4 5 -9 -10 -12 -10 -24 3 -64 9 -27 20 -53 24 -59 10 -14 37
-92 50 -145 7 -25 15 -47 19 -50 5 -3 26 -47 49 -98 38 -87 134 -232 153 -232
5 0 8 -3 6 -8 -1 -4 8 -18 21 -32 12 -13 22 -27 22 -32 0 -15 72 -103 134
-164 80 -78 149 -212 170 -329 24 -133 28 -145 45 -155 9 -4 23 -31 30 -58 24
-96 108 -162 265 -211 37 -11 90 -21 117 -21 31 0 51 -5 53 -12 2 -7 13 -65
25 -128 36 -190 89 -268 215 -310 138 -45 214 -36 284 36 23 24 42 51 42 59 0
12 17 15 95 14 111 -1 184 20 220 63 13 16 28 28 34 28 18 0 86 73 100 108 31
76 -36 264 -87 245 -10 -4 -6 6 11 29 15 20 35 35 44 34 11 -1 27 18 44 49 22
41 26 60 23 110 -3 78 -14 134 -30 167 -17 34 -134 111 -233 154 -80 36 -110
41 -141 24 -11 -6 -58 -17 -106 -25 l-86 -15 -56 30 c-45 24 -67 30 -119 30
-61 0 -66 2 -111 43 -26 24 -69 59 -97 77 -27 19 -56 40 -63 47 -7 7 -18 13
-24 13 -6 0 -25 11 -43 24 -30 23 -55 79 -55 123 0 10 -11 41 -24 69 -29 59
-116 279 -116 293 0 6 -8 14 -17 20 -10 5 -17 13 -17 18 2 10 -6 29 -44 115
-21 46 -62 103 -129 180 -157 180 -216 240 -224 227 -4 -6 -10 22 -14 62 -4
43 -15 88 -26 107 -10 18 -19 43 -19 55 0 42 -12 65 -35 71 -12 3 -41 24 -64
46 -41 40 -63 48 -90 31 -10 -7 -23 -2 -43 14 -59 50 -222 80 -288 54z m2180
-2490 c0 -6 -4 -7 -10 -4 -5 3 -10 11 -10 16 0 6 5 7 10 4 6 -3 10 -11 10 -16z"/>
</g>
</svg>
