<?xml version="1.0" encoding="utf-8"?>
<!-- Generator: Adobe Illustrator 16.0.0, SVG Export Plug-In . SVG Version: 6.00 Build 0)  -->
<!DOCTYPE svg PUBLIC "-//W3C//DTD SVG 1.1//EN" "http://www.w3.org/Graphics/SVG/1.1/DTD/svg11.dtd">
<svg version="1.1" xmlns="http://www.w3.org/2000/svg" xmlns:xlink="http://www.w3.org/1999/xlink" x="0px" y="0px" width="1200px"
	 height="1600px" viewBox="0 0 1200 1600" enable-background="new 0 0 1200 1600" xml:space="preserve">
<g id="Layer_2">
	<g>
		<g>
			<g>
				<path fill="#262626" d="M248.917,796.667c0.266,1.751-4.291,0.819-7.455,1.866c-2.892,0.958-14.429,10.875-16.045,10.134
					c-3.384-1.548,3.16-20.433,7.333-24.833c4.583-4.833,10.638-9.525,11.583-5.917
					C246.167,784.917,246.979,783.922,248.917,796.667z"/>
				<path fill="#262626" d="M291.07,819.063c1.188,4.577-18.76,11.75-22.82,14.625c-1.501,1.063,2.75-13.5,8.375-20.313
					c3.011-3.646,8.688-11.533,10.375-9.438C289.028,806.457,289.526,813.112,291.07,819.063z"/>
				<path fill="#262626" d="M261.325,841.891c1.407,1.078,5.526,4.154,4.175,4.732c-2.625,1.125-7.653,23.734-9.312,24.002
					c-2.654,0.426-7.806-16.027-8.063-20.75c-0.279-5.125-0.003-17.951,2.447-16.838
					C253.517,834.373,256.396,838.109,261.325,841.891z"/>
				<path fill="#262626" d="M314.563,858.938c2.046,0.52-4.226,5.442-8.875,11.125c-4.012,4.904-7.46,10.148-8.563,10.875
					c-2.38,1.57-4.169-26.832-1.313-26.816C299.248,854.139,308.418,857.378,314.563,858.938z"/>
			</g>
		</g>
		<g>
			<g>
				<path fill="#262626" d="M966.562,796.667c-0.267,1.751,4.29,0.819,7.455,1.866c2.892,0.958,14.429,10.875,16.045,10.134
					c3.384-1.548-3.159-20.433-7.333-24.833c-4.584-4.833-10.639-9.525-11.584-5.917C969.312,784.917,968.5,783.922,966.562,796.667
					z"/>
				<path fill="#262626" d="M924.408,819.063c-1.188,4.577,18.76,11.75,22.82,14.625c1.501,1.063-2.75-13.5-8.375-20.313
					c-3.011-3.646-8.688-11.533-10.375-9.438C926.45,806.457,925.953,813.112,924.408,819.063z"/>
				<path fill="#262626" d="M954.154,841.891c-1.407,1.078-5.527,4.154-4.176,4.732c2.625,1.125,7.653,23.734,9.313,24.002
					c2.654,0.426,7.806-16.027,8.063-20.75c0.279-5.125,0.003-17.951-2.447-16.838C961.961,834.373,959.082,838.109,954.154,841.891
					z"/>
				<path fill="#262626" d="M900.916,858.938c-2.046,0.52,4.226,5.442,8.875,11.125c4.012,4.904,7.461,10.148,8.563,10.875
					c2.38,1.57,4.169-26.832,1.313-26.816C916.23,854.139,907.061,857.378,900.916,858.938z"/>
			</g>
		</g>
	</g>
</g>
<g id="Layer_1">
	<g>
		<path d="M437.5,579.5c-3.3,1.8-6.7,4.5-7.5,5.9c-0.8,1.399-2.3,2.699-3.4,2.8c-1,0.2-2.199,1-2.699,1.8
			c-0.9,1.7-5.9,15.1-8.5,22.5c-1.3,3.7-3.9,7.2-9.9,13.5c-7.3,7.6-12.6,14.1-19.1,23.5c-1.1,1.7-3.5,6.1-5.3,9.9
			c-5.2,11-11.1,24.3-11.1,25c0,1.199-11.1,27.1-12.1,28c-0.5,0.6-0.9,1.699-0.9,2.5c0,2.399-4.8,7.8-12.3,13.8
			c-17.2,13.8-18.1,14.3-25.2,14.3c-2.8,0-6.1,0.9-9.1,2.5c-2.6,1.4-5.7,2.5-7,2.5c-2.1,0-10-1.7-18.5-4c-3.1-0.9-4.7-0.5-12.5,2.9
			c-23.2,10-25,11.399-27.5,20.3c-0.5,2.1-1.3,3.8-1.8,3.8c-0.4,0-3.3,2.5-6.4,5.6c-8,7.9-12.6,17.601-13.4,27.7
			c-0.7,8.9,0.3,9.8,5.3,4.601c6.5-6.9,17.7-10.7,21.7-7.5c1.8,1.399,1.8,1.6,0.1,4.8c-3.1,5.899-5.1,16.7-4.2,22.2
			c0.4,2.8,0.6,9.199,0.3,14.199c-0.7,14.801,4.2,28.4,11.6,32.4c1.3,0.8,1.6,0.1,1.7-4.3c0.1-7.101,1.9-13.8,4.5-17
			c2.1-2.7,2.6-2.8,12.5-3.101c10.1-0.3,10.3-0.3,12.6,2.4c1.9,2.3,2.4,4.4,2.9,12.1c0.6,9.2,2.9,19.301,4.7,20.4
			c0.5,0.3,2.4-2.3,4.2-5.7c4.7-9,10.3-14.399,15.5-15.2c2.3-0.3,7.9-2.399,12.4-4.6c4.6-2.2,8.8-4,9.5-4c1.1,0,8.3-8.9,10.2-12.7
			c1.3-2.6,3.5-20.899,2.7-23.3c-0.4-1.4-0.2-2,0.9-2c3.5,0,26.5-6.9,31.1-9.3c6.7-3.5,7.6-4.3,11.3-10.5c3.4-5.5,5.3-11.4,7.8-24.4
			C404.9,761.9,413,746.9,422,737.7c13.7-13.8,23.9-29.3,33.4-51.2c2.6-6.1,5.399-12.4,6.1-14c0.7-1.7,2.7-6.4,4.5-10.5
			c1.7-4.1,4.3-9.5,5.6-12c9-16.3,12.301-24.6,12.9-32c0.5-5.4,0.4-7.1-0.4-6c-0.6,0.8-1.1,2.2-1.1,3c0,0.9-1.4,2.4-3,3.3
			c-2.3,1.4-2.9,2.3-2.5,4c0.4,1.5-0.8,4.5-3.6,9.2c-2.4,3.8-5.801,11-7.601,16c-1.8,4.9-4,10.3-4.7,12c-0.8,1.6-2.899,7.3-4.6,12.5
			c-5.6,16.4-11.4,27.5-19.7,38c-0.6,0.8-3.8,5.1-7.1,9.5c-3.2,4.4-9.5,11.9-14,16.7c-9.4,10.2-13.2,17.399-16.3,30.3
			c-1.204,5.282-4.561,21.045-5.9,25.375c-0.297,0.959-2.481-0.367-2.47-0.684c0.101-2.67,0.031-9.891-0.405-14.733
			c-0.381-4.227-1.123-6.208-1.206-7.394c-0.048-0.68,0.353,2.717,0.665,8.269c0.33,5.878,0.545,14.055-0.483,18.067
			c-1.3,5.199-2.3,6-12.7,10.5c-11.4,5-24.7,8-27.5,6.3c-3.2-2-3.8-1.4-2.7,2.5c1.1,4-0.3,18.5-2.4,25.3c-1.5,4.9-7.2,11.6-11.1,13
			c-1.8,0.6-5.6,2.2-8.5,3.6c-7.515,3.469-8.196,1.883-15.992,0.233c-0.155-0.039-1.805-3.851-2.708-10.239
			c-0.875-6.188-0.383-11.747-0.656-11.813c-0.34-0.081-0.599,5.064-0.125,9.344c0.696,6.286,1.512,10.27,1.865,11.708
			c0.226,0.921-10.956-2.319-11.346-2.7c-1.072-1.048-0.911,0.322-0.987,0.398c-0.3,0.3,1.158,3.098,1.391,2.332
			c0.656-2.156,13.159,1.937,14.459,3.037l2.3,1.899l-4.2,3.8c-2.3,2.101-5.9,6.2-7.8,9.2c-2.6,3.8-3.4,6.784-3.9,5.101
			c-0.604-2.033-3-18.101-1.7-21.601c0.8-2.3,3.294-2.237-0.9-5.2c-1.9-2.3-1.9-2.3,1.4-5.6c1.9-1.9,5.6-5.9,8.3-8.9l4.9-5.6h8.4
			h8.4l4.1-4.3c4.4-4.601,14.1-21.3,15.7-27c0.9-3.2,1.5-3.7,7.2-5.5c3.4-1.101,8-2.3,10.2-2.7c6.9-1.1,12-4.3,13.8-8.9
			c8.7-22.199,5.225-28.6,3.825-28.6c-0.265,0-2.459,3.892-9.625,11.625c-0.904,0.976-1.25,2.938-5.063,6.563
			c-8.526,8.106-19.374,17.559-19.156,17.541c0.188-0.016,0.742,0.057,0.742,0.057s2.833-2.138,3.727-3.285
			c2.611-3.352,10.199-8.271,15.846-14.221c3.554-3.745,2.883-4.515,5.514-7.514c3.577-4.078,8.476-9.993,8.485-9.861
			c0.125,1.75,0.279,7.783-1.096,12.396c-5.7,11.601-11.8,18.2-17.7,19.2c-2.2,0.4-5.7,1.4-7.6,2.2c-1.9,0.8-5,1.3-7,1.1
			c-3.5-0.3-3.6-0.2-4.7,4.4c-0.7,2.5-1.8,5.2-2.4,6c-1.9,2.2-5.6,8.1-9.5,15c-2,3.6-4.4,7.2-5.3,8c-3,2.6-12,2.899-22.8,0.7
			c-5.4-1-10-2.101-10.1-2.2c-0.2-0.101-1-1.601-1.8-3.2c0,0,8.34,1.439,10.876,0.287c2.748-1.248,9.892-4.455,16.993-9.002
			c8.157-5.225,16.556-11.707,22.188-14.754c3.87-2.094,4-2.031,4-2.031s0.263-2.203-0.469-2.406
			c-0.47-0.13-1.774,1.497-2.419,1.973c-6.322,4.662-22.836,16.583-34.956,22.996c-4.689,2.481-7.396,2.104-10.646,2.104
			c-2.611,0-6.234-2.166-6.234-2.166l-3.022-13.591L287,803.938c0,0,1.917,5.781,2.292,7.771C290,815.458,290,819.2,290,819.2
			c0,2.2-0.7,3-3.7,4.3c-7.8,3.4-9.9,4.5-13,6.5c-3,2-3.4,2-3.9,0.5c-1.8-4.5,13.4-27.3,17.1-25.8c2.173,1.637,1.6-0.8,2-2.9
			c0.4-1.8,1.9-5.7,3.4-8.6c2.3-4.9,3.3-5.7,12.3-10.7c5.3-3,11.2-6.1,13.1-6.9c1.9-0.699,4.3-2.6,5.3-4.1c4.6-6.5,6.7-8.6,8.2-8
			c0.8,0.3,2.1,0,2.8-0.6c1.8-1.5,1.8-1.4-0.5,4.6c-1.9,5.1-5.458,8.708-9.559,8.708c-1.2,0-2.51-0.667-3.917-0.958
			c-1.813-0.375,6.475,4.15,11.375,3.15c2.2-0.5,0.953-0.775-1.406-0.479c-1-0.5-1.502-0.889-2.302-0.588
			c-0.8,0.3-0.191-0.734,0.108-1.234c0.3-0.5,1.8-1.1,3.4-1.399c2.4-0.5,2.9-1.3,4.4-6.9c1.17-4.338,3.099-10.586,2.841-12.175
			c-0.095-0.588-2.402,2.363-3.667,3.604C333.314,760.27,331,761,330.2,761c-0.8,0-4.4,2.8-8.1,6.2c-5.1,4.899-8.1,6.8-13.3,8.6
			c-5.6,2-7.7,3.5-13.7,9.7c-3.9,4-7.1,7.7-7.1,8.3c0,0.601-2.1,3.101-4.6,5.7l-4.6,4.8l-7.7-0.6c-4.3-0.3-9-1.101-10.7-1.7
			c-3.392-1.292-8.675-5.193-10.635-7.594c-0.344-0.422,13.757-11.545,28.132-16.836c0.626-0.23,16.318-3.8,25.437-3.278
			c1.788,0.102,2.363,1.094,3.245,1.568c0.817,0.438,2.005,0.367,2.088,0.308c0.244-0.175,0.699-0.08,0.379-0.453
			c-0.278-0.325-2.11,0.123-2.483-0.464c-1.938-3.042-22.209,0.291-28.207,1.75c-9.596,2.336-29.064,16.625-29.427,15.672
			c-1.407-3.688-3.061-13.778-3.366-13.423c-0.179,0.208,2.2,14.616,2.138,14.75c-0.8,1.6-3.3,3.2-7.5,4.8c-3.6,1.4-7.9,4-9.8,5.9
			c-5.441,5.258-5.15,3.55-4.9-3.101c0.9-6.1,3.7-11.199,10.3-18.5c3.6-4.1,5.2-5.199,6.3-4.6c1.762,0.656,2.949,2.685,3.69,4.449
			c0.742,1.765,1.039,3.265,1.022,2.863c-0.125-3.063-0.099-8.738,0.587-12.912c1.2-6.7,3.4-9.5,10.9-14.2c9.6-6,13.2-7.7,19.6-9.7
			c5-1.6,5.6-1.6,9,0c6.1,2.9,21.5,5.3,29.5,4.5l7.1-0.7l9.1-8.7c4.9-4.699,12.1-10.399,15.8-12.6c10.4-6,15.6-12.3,15.6-18.9
			c0-1.5,0.4-3.399,1-4.399c0.5-0.9,2.5-5.5,4.4-10.2c10.4-25.7,18.5-43.4,21.3-46.5c1-1.1,7-7.9,13.3-15c6.3-7.2,13.9-15.5,17-18.5
			c3-3,7.1-7.5,9.1-10c5.101-6.4,12.601-19.4,13.4-23.2c0.4-1.8,1.4-4.2,2.1-5.3C448.8,574.9,445.8,574.9,437.5,579.5z M439,587
			c-1.2,4.3-2.1,5.5-3,4c-0.6-0.9-1-0.6-1.5,0.9c-1,3.399-2.6,2.399-2.2-1.4c0.5-4.5,1.5-5.5,6.9-6.4
			C439.6,584.1,439.5,585.3,439,587z M428.8,596.2c0.101,3.2-0.6,5.1-2.899,8c-3.7,4.7-5.4,4.899-3.601,0.5c0.8-1.7,1.7-5,2.101-7.2
			c0.899-4.8,1.3-5.5,3-5.5C428.3,592,428.8,593.4,428.8,596.2z M321.7,748.2c-0.5,1.8-7.7,1.899-7.7,0.2c0-1,1.3-1.4,4.1-1.4
			C320.9,747,322,747.4,321.7,748.2z M266,807.4c3,0.899,7.1,1.6,8.9,1.6h3.5l-3.1,3.2c-6.2,6.399-10.9,19.2-8.6,23.2
			c0.8,1.5,1.4,1.3,4.7-1.4c2.1-1.6,5.5-3.4,7.5-4c2-0.5,4.2-1.4,5-1.9c0.8-0.5,2.6-0.399,4.6,0.5c1.8,0.7,5.9,1.601,9.1,1.9
			c3.2,0.4,6,0.7,6.1,0.8c0,0.101-2,2.601-4.6,5.5c-5.6,6.3-11.4,8.3-22.8,8.101c-6-0.2-8.1-0.7-13.3-3.5l-5.805-4.018L256.9,838.2
			l3.7,4c3.9,4.399,3.9,4.2,0,13.3c-1.4,3.3-2.6,7-2.6,8.1c0,1.2-0.7,2.7-1.5,3.4c-1.3,1.1-1.8,0.5-3.6-3.4
			c-3.9-8.899-5.5-28.6-2.4-30.399c20.083,16.301,2.991,2.405,0-5.2c-1.8-5.1-1.3-9.2,2.2-17.2C255.5,804.4,255.4,804.4,266,807.4z"
			/>
		<path d="M384.656,756.281c-0.526-0.85,0.263,4.318,0.063,5.719c-0.5,2.2,0.303,2.018,0.894-0.784
			C386.295,757.974,385.063,756.938,384.656,756.281z"/>
		<path d="M386.991,759.319c-0.346-0.771,0.66,1.756,0.195,2.762c-0.577,1.624-1.394,3.11-0.223,1.197
			C388.333,761.039,387.257,759.915,386.991,759.319z"/>
		<path d="M769.879,579.5c0.699,1.1,1.699,3.5,2.1,5.3c0.8,3.8,8.3,16.8,13.4,23.2c2,2.5,6.1,7,9.1,10c3.1,3,10.7,11.3,17,18.5
			c6.3,7.1,12.3,13.9,13.3,15c2.8,3.1,10.9,20.8,21.3,46.5c1.9,4.7,3.9,9.3,4.4,10.2c0.6,1,1,2.899,1,4.399
			c0,6.601,5.2,12.9,15.6,18.9c3.7,2.2,10.9,7.9,15.801,12.6l9.1,8.7l7.1,0.7c8,0.8,23.4-1.6,29.5-4.5c3.4-1.6,4-1.6,9,0
			c6.4,2,10,3.7,19.601,9.7c7.5,4.7,9.7,7.5,10.899,14.2c0.687,4.174,0.713,9.85,0.588,12.912c-0.017,0.401,0.28-1.099,1.021-2.863
			c0.742-1.764,1.929-3.793,3.691-4.449c1.1-0.6,2.699,0.5,6.3,4.6c6.6,7.301,9.399,12.4,10.3,18.5c0.25,6.65,0.541,8.358-4.9,3.101
			c-1.899-1.9-6.199-4.5-9.8-5.9c-4.2-1.6-6.7-3.2-7.5-4.8c-0.062-0.134,2.316-14.542,2.138-14.75
			c-0.305-0.355-1.959,9.735-3.365,13.423c-0.363,0.952-19.832-13.336-29.428-15.672c-5.998-1.46-26.27-4.792-28.207-1.75
			c-0.373,0.586-2.205,0.139-2.483,0.464c-0.319,0.373,0.136,0.278,0.38,0.453c0.082,0.06,1.271,0.131,2.088-0.308
			c0.882-0.474,1.457-1.466,3.244-1.568c9.119-0.522,24.811,3.047,25.438,3.278c14.375,5.292,28.477,16.415,28.132,16.836
			c-1.96,2.401-7.243,6.302-10.636,7.594c-1.699,0.6-6.399,1.4-10.699,1.7l-7.7,0.6l-4.601-4.8c-2.5-2.6-4.6-5.1-4.6-5.7
			c0-0.6-3.2-4.3-7.1-8.3c-6-6.2-8.101-7.7-13.7-9.7c-5.2-1.8-8.2-3.7-13.3-8.6c-3.7-3.4-7.301-6.2-8.101-6.2
			s-3.114-0.73-4.175-1.771c-1.265-1.241-3.571-4.192-3.666-3.604c-0.258,1.588,1.671,7.837,2.841,12.175c1.5,5.601,2,6.4,4.4,6.9
			c1.6,0.3,3.1,0.899,3.399,1.399c0.301,0.5,0.908,1.534,0.109,1.234c-0.801-0.301-1.303,0.088-2.303,0.588
			c-2.359-0.297-3.606-0.021-1.406,0.479c4.9,1,13.188-3.525,11.375-3.15c-1.406,0.291-2.717,0.958-3.916,0.958
			c-4.101,0-7.659-3.609-9.559-8.708c-2.301-6-2.301-6.1-0.5-4.6c0.699,0.6,2,0.899,2.8,0.6c1.5-0.6,3.6,1.5,8.2,8
			c1,1.5,3.399,3.4,5.3,4.1c1.899,0.801,7.8,3.9,13.1,6.9c9,5,10,5.8,12.3,10.7c1.5,2.899,3,6.8,3.4,8.6
			c0.4,2.101-0.173,4.537,2,2.9c3.7-1.5,18.9,21.3,17.1,25.8c-0.5,1.5-0.899,1.5-3.899-0.5c-3.101-2-5.2-3.1-13-6.5
			c-3-1.3-3.7-2.1-3.7-4.3c0,0,0-3.742,0.708-7.492c0.376-1.989,2.292-7.771,2.292-7.771l-0.91-1.028l-3.023,13.591
			c0,0-3.623,2.166-6.233,2.166c-3.25,0-5.956,0.378-10.646-2.104c-12.119-6.413-28.634-18.334-34.955-22.996
			c-0.646-0.476-1.95-2.103-2.42-1.973c-0.732,0.203-0.469,2.406-0.469,2.406s0.13-0.063,4,2.031
			c5.631,3.047,14.031,9.529,22.188,14.754c7.102,4.547,14.244,7.754,16.992,9.002c2.537,1.152,10.877-0.287,10.877-0.287
			c-0.801,1.6-1.601,3.1-1.801,3.2c-0.1,0.1-4.699,1.2-10.1,2.2c-10.8,2.199-19.8,1.899-22.8-0.7c-0.9-0.8-3.3-4.4-5.3-8
			c-3.9-6.9-7.601-12.8-9.5-15c-0.601-0.8-1.7-3.5-2.4-6c-1.1-4.601-1.2-4.7-4.7-4.4c-2,0.2-5.1-0.3-7-1.1
			c-1.899-0.8-5.399-1.8-7.6-2.2c-5.9-1-12-7.6-17.7-19.2c-1.375-4.612-1.221-10.646-1.096-12.396
			c0.01-0.132,4.908,5.783,8.485,9.861c2.632,3,1.96,3.769,5.515,7.514c5.646,5.95,13.234,10.869,15.846,14.221
			c0.893,1.146,3.727,3.285,3.727,3.285s0.555-0.072,0.742-0.057c0.217,0.018-10.631-9.434-19.156-17.541
			c-3.813-3.625-4.158-5.587-5.063-6.563c-7.166-7.733-9.36-11.625-9.625-11.625c-1.4,0-4.875,6.4,3.825,28.6
			c1.8,4.601,6.899,7.801,13.8,8.9c2.2,0.4,6.8,1.6,10.2,2.7c5.7,1.8,6.3,2.3,7.2,5.5c1.6,5.7,11.3,22.399,15.699,27l4.101,4.3
			h8.399h8.4l4.9,5.6c2.699,3,6.399,7,8.3,8.9c3.3,3.3,3.3,3.3,1.399,5.6c-4.193,2.963-1.699,2.9-0.899,5.2
			c1.3,3.5-1.097,19.567-1.7,21.601c-0.5,1.684-1.3-1.301-3.9-5.101c-1.899-3-5.5-7.1-7.8-9.2l-4.2-3.8l2.301-1.899
			c1.3-1.101,13.803-5.193,14.459-3.037c0.232,0.766,1.691-2.032,1.391-2.332c-0.076-0.076,0.085-1.446-0.987-0.398
			c-0.391,0.381-11.572,3.621-11.347,2.7c0.354-1.438,1.17-5.422,1.865-11.708c0.474-4.279,0.215-9.425-0.125-9.344
			c-0.273,0.065,0.219,5.625-0.656,11.813c-0.903,6.389-2.553,10.2-2.709,10.239c-7.795,1.649-8.477,3.235-15.991-0.233
			c-2.899-1.399-6.7-3-8.5-3.6c-3.899-1.4-9.6-8.1-11.1-13c-2.101-6.8-3.5-21.3-2.4-25.3c1.101-3.9,0.5-4.5-2.7-2.5
			c-2.8,1.7-16.1-1.3-27.5-6.3c-10.399-4.5-11.399-5.301-12.699-10.5c-1.029-4.012-0.813-12.189-0.484-18.067
			c0.313-5.552,0.713-8.949,0.665-8.269c-0.083,1.186-0.825,3.167-1.206,7.394c-0.437,4.842-0.506,12.063-0.405,14.733
			c0.012,0.316-2.173,1.643-2.47,0.684c-1.34-4.33-4.696-20.093-5.9-25.375c-3.1-12.9-6.899-20.1-16.3-30.3
			c-4.5-4.8-10.8-12.3-14-16.7c-3.3-4.4-6.5-8.7-7.1-9.5c-8.3-10.5-14.101-21.6-19.7-38c-1.7-5.2-3.8-10.9-4.6-12.5
			c-0.7-1.7-2.9-7.1-4.7-12c-1.8-5-5.2-12.2-7.601-16c-2.8-4.7-4-7.7-3.6-9.2c0.4-1.7-0.2-2.6-2.5-4c-1.6-0.899-3-2.399-3-3.3
			c0-0.8-0.5-2.2-1.1-3c-0.801-1.1-0.9,0.6-0.4,6c0.6,7.4,3.9,15.7,12.9,32c1.3,2.5,3.899,7.9,5.6,12c1.8,4.1,3.8,8.8,4.5,10.5
			c0.7,1.6,3.5,7.9,6.1,14c9.5,21.9,19.7,37.4,33.4,51.2c9,9.2,17.1,24.2,19.4,36.1c2.5,13,4.399,18.9,7.8,24.4
			c3.7,6.2,4.6,7,11.3,10.5c4.6,2.399,27.6,9.3,31.1,9.3c1.101,0,1.301,0.6,0.9,2c-0.8,2.4,1.4,20.7,2.7,23.3
			c1.899,3.8,9.1,12.7,10.2,12.7c0.699,0,4.899,1.8,9.5,4c4.5,2.2,10.1,4.3,12.399,4.6c5.2,0.801,10.8,6.2,15.5,15.2
			c1.8,3.4,3.7,6,4.2,5.7c1.8-1.1,4.1-11.2,4.7-20.4c0.5-7.699,1-9.8,2.899-12.1c2.301-2.7,2.5-2.7,12.601-2.4
			c9.899,0.301,10.399,0.4,12.5,3.101c2.6,3.2,4.399,9.899,4.5,17c0.1,4.399,0.399,5.1,1.7,4.3c7.399-4,12.3-17.6,11.6-32.4
			c-0.3-5-0.1-11.399,0.3-14.199c0.9-5.5-1.1-16.301-4.2-22.2c-1.699-3.2-1.699-3.4,0.101-4.8c4-3.2,15.2,0.6,21.7,7.5
			c5,5.199,6,4.3,5.3-4.601c-0.8-10.1-5.4-19.8-13.4-27.7c-3.1-3.1-6-5.6-6.399-5.6c-0.5,0-1.301-1.7-1.801-3.8
			c-2.5-8.9-4.3-10.3-27.5-20.3c-7.8-3.4-9.399-3.801-12.5-2.9c-8.5,2.3-16.399,4-18.5,4c-1.3,0-4.399-1.1-7-2.5
			c-3-1.6-6.3-2.5-9.1-2.5c-7.1,0-8-0.5-25.2-14.3c-7.5-6-12.3-11.4-12.3-13.8c0-0.801-0.4-1.9-0.9-2.5c-1-0.9-12.1-26.801-12.1-28
			c0-0.7-5.9-14-11.1-25c-1.801-3.801-4.2-8.2-5.301-9.9c-6.5-9.4-11.8-15.9-19.1-23.5c-6-6.3-8.6-9.8-9.9-13.5
			c-2.6-7.4-7.6-20.8-8.5-22.5c-0.5-0.8-1.699-1.6-2.699-1.8c-1.101-0.101-2.601-1.4-3.4-2.8c-0.8-1.4-4.2-4.101-7.5-5.9
			C769.679,574.9,766.679,574.9,769.879,579.5z M776.278,584.1c5.4,0.9,6.4,1.9,6.9,6.4c0.399,3.8-1.2,4.8-2.2,1.4
			c-0.5-1.5-0.9-1.801-1.5-0.9c-0.9,1.5-1.8,0.3-3-4C775.979,585.3,775.879,584.1,776.278,584.1z M788.078,592
			c1.7,0,2.101,0.7,3,5.5c0.4,2.2,1.301,5.5,2.101,7.2c1.8,4.399,0.1,4.2-3.601-0.5c-2.3-2.9-3-4.8-2.899-8
			C786.679,593.4,787.179,592,788.078,592z M897.379,747c2.8,0,4.1,0.4,4.1,1.4c0,1.699-7.2,1.6-7.7-0.2
			C893.479,747.4,894.578,747,897.379,747z M962.778,810.8c3.5,8,4,12.101,2.2,17.2c-2.99,7.605-20.084,21.501,0,5.2
			c3.1,1.8,1.5,21.5-2.4,30.399c-1.8,3.9-2.3,4.5-3.6,3.4c-0.8-0.7-1.5-2.2-1.5-3.4c0-1.1-1.2-4.8-2.6-8.1c-3.9-9.1-3.9-8.9,0-13.3
			l3.699-4l-0.295-0.817l-5.805,4.018c-5.2,2.8-7.3,3.3-13.3,3.5c-11.4,0.199-17.2-1.801-22.8-8.101
			c-2.601-2.899-4.601-5.399-4.601-5.5c0.101-0.1,2.9-0.399,6.101-0.8c3.199-0.3,7.3-1.2,9.1-1.9c2-0.899,3.8-1,4.6-0.5
			c0.801,0.5,3,1.4,5,1.9c2,0.6,5.4,2.4,7.5,4c3.301,2.7,3.9,2.9,4.7,1.4c2.3-4-2.399-16.801-8.6-23.2l-3.101-3.2h3.5
			c1.801,0,5.9-0.7,8.9-1.6C960.078,804.4,959.979,804.4,962.778,810.8z"/>
		<path d="M828.516,763.278c1.172,1.913,0.354,0.427-0.223-1.197c-0.465-1.006,0.541-3.534,0.195-2.762
			C828.221,759.915,827.146,761.039,828.516,763.278z"/>
		<path d="M829.866,761.216c0.591,2.802,1.394,2.984,0.894,0.784c-0.2-1.4,0.589-6.569,0.063-5.719
			C830.416,756.938,829.184,757.974,829.866,761.216z"/>
	</g>
</g>
</svg>
