<svg width="2400" height="3200" xmlns="http://www.w3.org/2000/svg" viewBox="0 0 2400 3200"><path d="M 1133.5 672.45 C 1129.65 672.68 1124.03 672.48 1121.0 672.01 C 1117.97 671.55 1114.15 670.73 1112.5 670.2 C 1110.85 669.67 1107.47 668.47 1105.0 667.53 C 1102.53 666.59 1097.59 664.42 1094.04 662.71 C 1090.48 661.0 1085.36 657.46 1082.66 654.86 L 1077.75 650.13 C 1078.54 635.67 1079.49 630.48 1080.88 626.86 C 1082.08 623.76 1085.92 617.46 1089.42 612.86 C 1092.93 608.26 1098.42 601.99 1101.64 598.92 C 1104.87 595.85 1109.92 591.65 1112.87 589.58 C 1115.82 587.52 1121.9 584.28 1126.37 582.38 C 1131.08 580.38 1137.02 578.68 1140.5 578.35 C 1143.8 578.03 1148.32 578.27 1150.55 578.87 C 1152.78 579.48 1157.45 581.95 1160.93 584.37 C 1166.76 588.43 1167.45 589.31 1169.72 595.64 C 1171.08 599.41 1172.6 604.08 1173.1 606.0 C 1173.66 608.18 1173.58 613.74 1172.88 620.76 C 1172.06 629.05 1172.06 633.2 1172.88 636.46 C 1173.5 638.89 1173.97 642.37 1173.92 644.19 C 1173.88 646.01 1173.32 648.96 1172.67 650.75 C 1172.02 652.54 1169.92 656.02 1167.99 658.5 C 1165.72 661.42 1162.4 664.04 1158.5 665.98 C 1155.2 667.61 1149.8 669.65 1146.5 670.5 C 1143.2 671.35 1137.35 672.23 1133.5 672.45 Z M 1303.0 672.41 C 1298.33 672.67 1292.25 672.44 1289.5 671.9 C 1286.75 671.35 1281.65 670.02 1278.16 668.95 C 1274.68 667.89 1270.45 666.03 1268.77 664.84 C 1267.09 663.64 1264.22 661.05 1262.38 659.08 C 1260.55 657.11 1258.3 653.6 1257.4 651.28 C 1256.15 648.08 1255.93 645.64 1256.48 641.28 C 1256.88 638.1 1257.25 633.25 1257.29 630.5 C 1257.33 627.75 1257.02 621.62 1256.61 616.89 C 1255.91 608.81 1256.06 607.68 1259.1 598.51 L 1262.34 588.74 C 1274.44 580.84 1278.71 578.87 1281.6 578.43 C 1284.08 578.06 1288.24 578.04 1290.85 578.39 C 1293.46 578.73 1299.23 580.55 1303.68 582.42 C 1308.13 584.3 1314.18 587.52 1317.13 589.57 C 1320.08 591.63 1326.1 596.96 1330.51 601.41 C 1334.91 605.86 1340.58 612.65 1343.09 616.5 C 1345.61 620.35 1348.52 625.75 1349.57 628.5 C 1350.92 632.04 1351.48 636.08 1351.49 642.36 L 1351.5 651.22 C 1344.17 657.86 1339.22 661.15 1335.77 662.8 C 1332.32 664.46 1327.03 666.73 1324.0 667.83 C 1320.97 668.94 1316.92 670.32 1315.0 670.88 C 1313.08 671.45 1307.67 672.14 1303.0 672.41 Z " opacity="1.0" fill="#000000" stroke="none" fill-rule="evenodd"/></svg>