<svg width="2400" height="3200" xmlns="http://www.w3.org/2000/svg" viewBox="0 0 2400 3200"><path d="M 1132.48 665.93 C 1129.74 665.9 1125.53 665.25 1123.12 664.5 C 1120.7 663.75 1117.25 661.69 1115.43 659.93 C 1113.62 658.18 1111.18 654.52 1110.02 651.82 C 1108.85 649.12 1107.02 642.79 1105.95 637.77 C 1104.68 631.84 1104.0 624.76 1104.0 617.56 C 1104.0 609.16 1104.45 605.26 1105.88 601.49 C 1106.91 598.74 1108.23 595.31 1108.81 593.86 C 1109.39 592.41 1111.29 589.6 1113.04 587.61 C 1114.79 585.62 1117.63 583.35 1119.36 582.56 C 1121.09 581.77 1125.58 580.2 1129.36 579.06 C 1133.13 577.93 1138.44 577.0 1141.17 577.0 C 1143.9 577.0 1147.04 577.48 1148.14 578.08 C 1149.25 578.67 1151.04 579.91 1152.13 580.83 C 1153.21 581.75 1155.46 584.62 1157.13 587.21 C 1158.8 589.81 1160.76 594.19 1161.49 596.96 C 1162.28 599.95 1162.91 608.79 1163.05 618.74 C 1163.26 634.08 1163.07 636.19 1160.81 643.69 C 1159.17 649.12 1157.13 653.36 1154.76 656.25 C 1152.04 659.56 1149.53 661.26 1144.32 663.31 C 1139.94 665.02 1135.65 665.98 1132.48 665.93 Z M 1295.77 664.92 C 1291.77 664.88 1286.99 664.3 1285.14 663.63 C 1283.29 662.96 1280.13 661.03 1278.12 659.34 C 1276.11 657.66 1273.23 654.5 1271.73 652.33 C 1270.22 650.15 1268.37 645.93 1267.61 642.94 C 1266.86 639.95 1265.94 633.61 1265.57 628.85 C 1265.21 624.09 1265.4 615.32 1266.0 609.35 C 1266.6 603.38 1267.51 596.9 1268.03 594.93 C 1268.55 592.97 1270.16 590.27 1271.59 588.93 C 1273.03 587.6 1274.59 585.53 1275.04 584.35 C 1275.5 583.16 1277.46 580.99 1279.4 579.51 C 1282.0 577.53 1284.52 576.67 1288.94 576.27 C 1292.5 575.95 1296.9 576.25 1299.73 577.02 C 1302.35 577.73 1306.13 579.12 1308.11 580.11 C 1310.1 581.09 1313.78 584.18 1316.29 586.98 C 1318.8 589.77 1321.11 593.28 1321.42 594.78 C 1321.74 596.27 1322.4 603.12 1322.9 610.0 C 1323.39 616.88 1323.44 626.35 1323.0 631.06 C 1322.38 637.72 1321.41 641.29 1318.65 647.12 C 1316.69 651.24 1314.12 655.85 1312.92 657.37 C 1311.73 658.89 1309.02 661.23 1306.9 662.57 C 1303.68 664.6 1301.83 664.99 1295.77 664.92 Z " opacity="1.0" fill="#000000" stroke="none" fill-rule="evenodd"/></svg>