<svg width="2400" height="3200" xmlns="http://www.w3.org/2000/svg" viewBox="0 0 2400 3200"><path d="M 1154.38 670.0 C 1154.11 670.0 1154.16 669.55 1154.5 669.0 C 1154.84 668.45 1155.34 668.0 1155.62 668.0 C 1155.89 668.0 1155.84 668.45 1155.5 669.0 C 1155.16 669.55 1154.66 670.0 1154.38 670.0 Z M 1271.67 669.67 C 1271.3 670.03 1271.0 669.73 1271.0 669.0 C 1271.0 668.27 1271.3 667.97 1271.67 668.33 C 1272.03 668.7 1272.03 669.3 1271.67 669.67 Z M 1133.05 667.93 C 1131.1 667.9 1128.38 667.38 1127.0 666.8 C 1125.62 666.21 1122.24 664.68 1119.49 663.41 C 1116.73 662.13 1113.13 659.6 1111.49 657.79 C 1109.84 655.98 1107.94 653.49 1107.25 652.26 C 1106.56 651.03 1106.0 649.15 1106.0 648.07 C 1106.0 647.0 1105.55 645.84 1105.0 645.5 C 1104.45 645.16 1104.0 642.91 1104.0 640.5 C 1104.0 638.09 1103.55 635.84 1103.0 635.5 C 1102.41 635.14 1102.0 629.32 1102.0 621.44 C 1102.0 614.05 1101.59 608.0 1101.1 608.0 C 1100.6 608.0 1099.14 609.65 1097.85 611.67 C 1096.56 613.7 1094.55 617.08 1093.39 619.19 C 1092.23 621.31 1090.63 623.82 1089.83 624.77 C 1089.03 625.72 1086.44 630.55 1084.07 635.5 C 1081.7 640.45 1079.27 645.55 1078.66 646.84 C 1077.77 648.75 1077.88 649.35 1079.28 650.14 C 1080.23 650.67 1081.0 651.52 1081.0 652.03 C 1081.0 652.54 1083.08 654.88 1085.62 657.23 C 1088.16 659.58 1091.05 661.81 1092.05 662.19 C 1093.05 662.58 1094.36 663.8 1094.96 664.92 C 1095.97 666.82 1095.83 666.92 1092.86 666.32 C 1091.1 665.97 1087.13 664.0 1084.02 661.94 C 1080.92 659.88 1076.16 657.2 1073.44 656.0 C 1070.72 654.79 1067.6 653.45 1066.5 653.01 C 1065.4 652.58 1062.7 651.74 1060.5 651.14 C 1058.3 650.54 1055.6 649.92 1054.5 649.76 C 1053.4 649.6 1052.5 648.8 1052.5 647.99 C 1052.5 647.17 1053.06 646.44 1053.75 646.38 C 1054.44 646.31 1056.02 646.19 1057.26 646.12 C 1058.5 646.06 1061.86 644.54 1064.73 642.75 C 1067.6 640.96 1069.81 639.06 1069.65 638.53 C 1069.49 638.0 1067.64 637.2 1065.54 636.77 C 1063.22 636.29 1061.26 636.37 1060.51 636.99 C 1059.84 637.55 1057.76 637.72 1055.89 637.36 C 1054.03 637.01 1051.94 636.28 1051.25 635.74 C 1050.56 635.2 1050.0 634.18 1050.0 633.48 C 1050.0 632.73 1051.12 632.27 1052.75 632.34 C 1054.26 632.42 1055.81 632.91 1056.18 633.43 C 1056.6 634.02 1057.85 633.94 1059.48 633.19 C 1060.92 632.54 1063.37 632.0 1064.93 632.0 C 1066.98 632.0 1068.79 630.87 1071.46 627.91 C 1073.49 625.66 1075.44 624.11 1075.8 624.47 C 1076.15 624.82 1075.79 625.51 1075.0 626.0 C 1074.21 626.49 1073.86 627.19 1074.23 627.56 C 1074.6 627.94 1075.52 627.62 1076.26 626.87 C 1077.01 626.12 1078.88 622.93 1080.41 619.79 C 1081.94 616.65 1083.82 613.56 1084.6 612.92 C 1085.37 612.28 1086.0 611.38 1086.0 610.92 C 1086.0 610.46 1087.15 608.38 1088.55 606.29 C 1089.95 604.21 1094.34 599.2 1098.3 595.17 C 1102.26 591.13 1108.08 586.07 1111.24 583.92 C 1114.39 581.76 1117.34 580.0 1117.79 580.0 C 1118.24 580.0 1119.81 579.44 1121.29 578.75 C 1122.77 578.06 1123.99 577.02 1123.99 576.42 C 1124.0 575.81 1125.23 575.53 1126.88 575.77 C 1128.47 576.0 1130.07 575.7 1130.44 575.1 C 1130.81 574.49 1133.91 574.0 1137.36 574.0 C 1140.79 574.0 1144.09 573.51 1144.69 572.91 C 1145.47 572.13 1145.96 572.13 1146.45 572.91 C 1146.82 573.51 1148.64 574.0 1150.5 574.0 C 1152.36 574.0 1154.16 574.45 1154.5 575.0 C 1154.84 575.55 1155.93 576.0 1156.92 576.0 C 1157.92 576.0 1161.0 578.24 1163.77 580.97 C 1166.55 583.7 1169.54 587.37 1170.41 589.12 C 1171.28 590.87 1172.0 593.14 1172.0 594.15 C 1172.0 595.17 1172.45 596.0 1173.0 596.0 C 1173.55 596.0 1174.0 594.65 1174.0 593.0 C 1174.0 591.35 1173.55 590.0 1173.0 590.0 C 1172.45 590.0 1172.0 589.13 1172.0 588.06 C 1172.0 586.99 1171.55 585.84 1171.0 585.5 C 1170.45 585.16 1170.0 584.01 1170.0 582.94 C 1170.0 581.87 1169.6 581.0 1169.11 581.0 C 1168.63 581.0 1167.5 579.48 1166.62 577.61 C 1165.74 575.75 1163.77 572.89 1162.24 571.26 C 1160.72 569.63 1158.0 567.54 1156.21 566.61 C 1154.41 565.68 1152.54 565.17 1152.04 565.48 C 1151.54 565.78 1150.89 565.63 1150.58 565.13 C 1150.27 564.63 1146.68 564.28 1142.59 564.36 C 1138.51 564.44 1134.83 564.84 1134.42 565.25 C 1134.0 565.66 1132.42 566.0 1130.89 566.0 C 1129.37 566.0 1127.84 566.45 1127.5 567.0 C 1127.16 567.55 1125.8 568.0 1124.47 568.0 C 1123.15 568.0 1120.36 568.97 1118.28 570.15 C 1116.2 571.34 1112.7 573.25 1110.5 574.4 C 1108.3 575.56 1105.25 577.8 1103.72 579.39 C 1102.19 580.98 1100.65 581.98 1100.29 581.62 C 1099.93 581.27 1101.35 579.4 1103.45 577.49 C 1105.54 575.57 1107.83 574.0 1108.54 574.0 C 1109.25 574.0 1109.98 573.66 1110.17 573.25 C 1110.35 572.84 1111.85 571.68 1113.5 570.69 C 1115.15 569.69 1117.29 568.63 1118.25 568.32 C 1119.21 568.02 1120.0 567.37 1120.0 566.88 C 1120.0 566.4 1121.32 566.0 1122.94 566.0 C 1124.56 566.0 1126.16 565.55 1126.5 565.0 C 1126.84 564.45 1128.64 564.0 1130.5 564.0 C 1132.36 564.0 1134.16 563.55 1134.5 563.0 C 1134.84 562.45 1138.01 562.0 1141.54 562.0 C 1145.08 562.0 1150.08 562.56 1152.65 563.25 C 1155.59 564.03 1159.13 566.11 1162.12 568.8 C 1164.75 571.16 1167.53 574.31 1168.29 575.8 C 1169.05 577.28 1170.65 580.2 1171.84 582.28 C 1173.03 584.36 1174.0 586.95 1174.0 588.03 C 1174.0 589.11 1174.38 590.0 1174.84 590.0 C 1175.3 590.0 1176.2 591.74 1176.84 593.87 C 1177.48 595.99 1178.0 598.24 1178.0 598.87 C 1178.0 599.49 1177.55 600.0 1177.0 600.0 C 1176.45 600.0 1176.0 599.33 1176.0 598.5 C 1176.0 597.67 1175.5 597.0 1174.88 597.0 C 1174.17 597.0 1174.01 597.99 1174.44 599.75 C 1174.82 601.26 1175.37 603.74 1175.67 605.25 C 1175.98 606.76 1176.54 608.0 1176.91 608.0 C 1177.29 608.0 1178.07 607.53 1178.64 606.96 C 1179.37 606.23 1180.05 606.36 1180.89 607.37 C 1181.71 608.36 1181.76 609.03 1181.05 609.47 C 1180.47 609.83 1180.0 610.54 1180.0 611.06 C 1180.0 611.58 1180.9 612.0 1182.0 612.0 C 1183.1 612.0 1184.0 611.55 1184.0 611.0 C 1184.0 610.45 1184.45 610.0 1185.0 610.0 C 1185.55 610.0 1186.0 610.58 1186.0 611.29 C 1186.0 612.01 1183.75 614.31 1181.0 616.41 C 1178.24 618.5 1174.85 621.58 1173.45 623.24 C 1171.02 626.13 1170.85 626.18 1169.49 624.38 C 1168.55 623.14 1168.05 619.86 1168.03 614.75 C 1168.01 610.27 1167.58 607.0 1167.0 607.0 C 1166.38 607.0 1166.0 612.81 1166.0 622.44 C 1166.0 631.66 1165.6 638.13 1165.0 638.5 C 1164.45 638.84 1164.0 640.41 1164.0 642.0 C 1164.0 643.59 1163.55 645.16 1163.0 645.5 C 1162.45 645.84 1162.0 646.93 1162.0 647.92 C 1162.0 648.91 1160.69 651.47 1159.08 653.61 C 1157.47 655.75 1155.25 658.42 1154.14 659.55 C 1153.03 660.67 1150.86 662.23 1149.31 663.0 C 1147.77 663.78 1145.5 665.28 1144.28 666.35 C 1142.42 667.98 1141.8 668.08 1140.49 666.99 C 1139.3 666.0 1138.63 665.97 1137.76 666.84 C 1137.12 667.48 1135.0 667.97 1133.05 667.93 Z M 1292.15 667.5 C 1287.32 667.51 1284.28 666.92 1281.17 665.37 C 1278.81 664.2 1275.73 662.17 1274.32 660.87 C 1272.91 659.57 1270.59 656.7 1269.16 654.5 C 1267.72 652.3 1265.98 649.44 1265.28 648.14 C 1264.57 646.84 1264.0 644.95 1264.0 643.94 C 1264.0 642.94 1263.55 641.84 1263.0 641.5 C 1262.43 641.15 1262.0 635.99 1262.0 629.44 C 1262.0 623.02 1261.59 618.0 1261.07 618.0 C 1260.55 618.0 1259.99 619.19 1259.82 620.64 C 1259.64 622.09 1258.6 623.87 1257.5 624.59 C 1255.67 625.79 1254.82 625.25 1247.73 618.31 C 1243.45 614.13 1240.25 610.44 1240.61 610.11 C 1240.98 609.77 1241.47 610.06 1241.72 610.75 C 1241.97 611.44 1243.03 612.0 1244.08 612.0 C 1245.14 612.0 1246.0 611.58 1246.0 611.06 C 1246.0 610.54 1245.52 609.82 1244.94 609.46 C 1244.27 609.05 1244.55 608.31 1245.69 607.47 C 1246.76 606.68 1247.87 606.5 1248.41 607.03 C 1248.96 607.56 1249.87 606.88 1250.66 605.35 C 1251.4 603.93 1252.0 601.92 1252.0 600.89 C 1252.0 599.85 1251.42 599.0 1250.7 599.0 C 1249.79 599.0 1249.53 597.88 1249.83 595.25 C 1250.06 593.19 1251.1 590.31 1252.13 588.85 C 1253.16 587.39 1254.0 585.7 1254.0 585.1 C 1254.0 584.49 1254.45 584.0 1255.0 584.0 C 1255.55 584.0 1256.0 583.3 1256.0 582.45 C 1256.0 581.6 1256.7 579.55 1257.56 577.89 C 1258.41 576.24 1260.7 573.12 1262.65 570.97 C 1264.59 568.82 1267.56 566.37 1269.25 565.53 C 1270.93 564.69 1273.05 564.0 1273.95 564.0 C 1274.86 564.0 1276.04 563.56 1276.57 563.03 C 1277.1 562.5 1278.54 562.33 1279.77 562.65 C 1281.0 562.97 1282.0 563.66 1282.0 564.18 C 1282.0 564.71 1281.14 564.86 1280.08 564.53 C 1279.03 564.19 1277.88 564.39 1277.53 564.96 C 1277.17 565.53 1275.81 566.0 1274.5 566.0 C 1273.19 566.0 1271.84 566.45 1271.5 567.0 C 1271.16 567.55 1270.03 568.0 1268.99 568.0 C 1267.95 568.0 1265.84 569.69 1264.31 571.75 C 1262.77 573.81 1261.28 575.73 1261.01 576.0 C 1260.73 576.27 1259.94 577.51 1259.25 578.74 C 1258.56 579.97 1258.0 581.45 1258.0 582.03 C 1258.0 582.61 1257.1 584.05 1256.0 585.23 C 1254.9 586.41 1254.0 588.17 1254.0 589.13 C 1254.0 590.09 1253.55 591.16 1253.0 591.5 C 1252.45 591.84 1252.0 593.44 1252.0 595.06 C 1252.0 596.68 1252.45 598.0 1253.0 598.0 C 1253.55 598.0 1254.0 596.9 1254.0 595.56 C 1254.0 594.22 1254.45 592.84 1255.0 592.5 C 1255.55 592.16 1256.0 591.01 1256.0 589.94 C 1256.0 588.87 1256.45 588.0 1257.0 588.0 C 1257.55 588.0 1258.0 587.42 1258.0 586.7 C 1258.0 585.99 1259.71 583.74 1261.79 581.7 C 1263.88 579.67 1266.06 578.0 1266.64 578.0 C 1267.22 578.0 1268.5 577.1 1269.5 576.0 C 1270.79 574.58 1272.58 574.0 1275.72 574.0 C 1278.15 574.0 1281.05 573.51 1282.17 572.91 C 1283.65 572.12 1284.52 572.12 1285.31 572.91 C 1285.91 573.51 1288.55 574.0 1291.17 574.0 C 1294.09 574.0 1297.32 574.78 1299.5 576.0 C 1301.46 577.1 1303.89 578.0 1304.91 578.0 C 1305.92 578.0 1307.33 578.7 1308.04 579.55 C 1308.75 580.4 1311.17 581.95 1313.41 582.98 C 1315.66 584.01 1319.16 586.35 1321.19 588.18 C 1323.22 590.01 1326.47 592.85 1328.42 594.5 C 1330.37 596.15 1331.97 597.97 1331.98 598.55 C 1331.99 599.13 1333.59 601.15 1335.54 603.04 C 1337.49 604.93 1340.25 608.96 1341.68 611.99 C 1343.38 615.6 1346.86 620.0 1351.77 624.75 C 1359.17 631.91 1359.33 632.0 1364.88 632.16 C 1367.97 632.25 1371.35 632.24 1372.38 632.15 C 1373.42 632.05 1374.88 632.49 1375.63 633.11 C 1376.38 633.73 1377.0 634.59 1377.0 635.01 C 1377.0 635.42 1375.99 636.08 1374.75 636.46 C 1373.51 636.85 1371.26 637.17 1369.75 637.17 C 1368.24 637.18 1366.89 637.09 1366.75 636.98 C 1366.61 636.87 1365.05 636.66 1363.27 636.51 C 1361.41 636.35 1359.55 636.84 1358.87 637.66 C 1358.17 638.5 1358.05 639.42 1358.59 639.92 C 1359.09 640.38 1361.67 641.94 1364.33 643.4 C 1367.13 644.94 1371.0 646.13 1373.52 646.24 C 1377.03 646.39 1377.67 646.69 1376.78 647.76 C 1376.18 648.49 1375.11 648.87 1374.41 648.6 C 1373.71 648.33 1371.42 648.93 1369.32 649.93 C 1367.22 650.93 1363.7 652.32 1361.5 653.02 C 1359.3 653.71 1354.58 655.67 1351.0 657.37 C 1347.42 659.06 1342.88 661.72 1340.89 663.27 C 1338.91 664.83 1336.21 666.16 1334.89 666.23 C 1333.58 666.3 1331.87 666.84 1331.09 667.43 C 1329.88 668.34 1329.87 668.19 1331.03 666.33 C 1331.77 665.14 1334.96 662.22 1338.13 659.83 C 1341.29 657.45 1344.09 654.71 1344.35 653.75 C 1344.6 652.79 1345.53 652.0 1346.41 652.0 C 1347.5 652.0 1348.0 651.08 1348.0 649.06 C 1348.0 647.44 1347.55 645.84 1347.0 645.5 C 1346.45 645.16 1346.0 644.12 1346.0 643.18 C 1346.0 642.25 1343.94 637.44 1341.42 632.49 C 1338.9 627.55 1336.2 622.79 1335.42 621.92 C 1334.64 621.05 1334.0 620.06 1334.0 619.72 C 1334.0 619.38 1332.66 617.17 1331.02 614.8 C 1329.39 612.44 1327.15 609.38 1326.05 608.0 L 1324.04 605.5 C 1324.01 609.78 1324.55 611.9 1325.22 612.98 C 1326.15 614.47 1326.17 615.92 1325.29 619.2 C 1324.49 622.19 1324.47 623.86 1325.2 624.74 C 1325.88 625.57 1325.91 626.43 1325.27 627.25 C 1324.73 627.94 1324.24 631.17 1324.17 634.42 C 1324.11 637.68 1323.59 640.81 1323.03 641.37 C 1322.46 641.94 1322.0 643.63 1322.0 645.14 C 1322.0 646.65 1321.55 648.16 1321.0 648.5 C 1320.45 648.84 1320.0 649.96 1320.0 650.99 C 1320.0 652.02 1317.86 655.06 1315.25 657.74 C 1312.64 660.42 1308.97 663.37 1307.1 664.31 C 1305.22 665.24 1302.94 666.0 1302.01 666.0 C 1301.09 666.0 1300.0 666.34 1299.58 666.75 C 1299.17 667.16 1295.83 667.5 1292.15 667.5 Z M 1158.45 667.0 C 1158.2 667.0 1158.0 666.71 1158.0 666.36 C 1158.0 666.01 1159.69 663.79 1161.75 661.43 C 1163.81 659.06 1166.51 655.79 1167.75 654.16 C 1168.99 652.52 1170.0 649.79 1170.0 648.09 C 1170.0 646.39 1170.45 645.0 1171.0 645.0 C 1171.55 645.0 1172.0 646.04 1172.0 647.31 C 1172.0 648.59 1170.98 651.62 1169.73 654.06 C 1168.49 656.5 1166.58 659.94 1165.49 661.7 C 1164.41 663.46 1162.48 665.37 1161.21 665.95 C 1159.94 666.53 1158.7 667.0 1158.45 667.0 Z M 1267.2 666.0 C 1266.21 666.0 1263.74 664.29 1261.7 662.21 C 1259.67 660.12 1258.0 657.67 1258.0 656.77 C 1258.0 655.86 1257.55 654.84 1257.0 654.5 C 1256.45 654.16 1256.0 653.46 1256.0 652.94 C 1256.0 652.42 1256.69 652.0 1257.52 652.0 C 1258.36 652.0 1259.46 653.01 1259.96 654.25 C 1260.47 655.49 1262.71 658.43 1264.94 660.79 C 1267.17 663.15 1269.0 665.29 1269.0 665.54 C 1269.0 665.79 1268.19 666.0 1267.2 666.0 Z M 1294.5 662.15 C 1296.7 661.92 1299.26 661.34 1300.18 660.86 C 1301.11 660.39 1302.58 660.0 1303.45 660.0 C 1304.33 660.0 1306.77 658.91 1308.88 657.58 C 1310.99 656.24 1313.65 653.36 1314.8 651.16 C 1315.94 648.97 1317.16 645.67 1317.5 643.84 C 1317.84 642.0 1318.23 639.73 1318.36 638.78 C 1318.5 637.83 1318.92 636.74 1319.3 636.36 C 1319.69 635.98 1320.0 629.92 1320.0 622.89 C 1320.0 615.45 1319.58 609.86 1319.0 609.5 C 1318.45 609.16 1318.0 607.39 1318.0 605.56 C 1318.0 602.93 1317.13 601.45 1313.89 598.52 C 1311.39 596.26 1309.43 595.17 1308.87 595.73 C 1308.31 596.29 1308.39 599.56 1309.08 604.08 C 1309.7 608.16 1310.58 612.23 1311.03 613.12 C 1311.49 614.01 1311.46 615.14 1310.97 615.63 C 1310.49 616.11 1310.01 620.46 1309.92 625.28 C 1309.82 630.1 1309.35 634.28 1308.87 634.58 C 1308.39 634.88 1308.0 635.79 1308.0 636.62 C 1308.0 637.44 1306.54 639.93 1304.76 642.15 C 1302.97 644.37 1299.79 647.02 1297.69 648.04 C 1293.93 649.85 1293.79 649.85 1290.18 647.85 C 1288.16 646.72 1285.52 644.9 1284.33 643.8 C 1283.14 642.7 1281.63 640.38 1280.98 638.65 C 1280.33 636.92 1279.3 634.46 1278.69 633.18 C 1278.02 631.76 1277.61 624.32 1277.65 613.88 C 1277.69 602.51 1278.09 596.51 1278.85 595.75 C 1279.48 595.12 1280.0 593.64 1280.0 592.47 C 1280.0 590.76 1279.4 590.33 1277.01 590.33 C 1274.31 590.33 1273.82 590.85 1272.01 595.7 C 1270.9 598.66 1270.0 602.38 1270.0 603.98 C 1270.0 605.58 1269.55 607.16 1269.0 607.5 C 1268.41 607.87 1268.0 613.99 1268.0 622.5 C 1268.0 631.01 1268.41 637.13 1269.0 637.5 C 1269.55 637.84 1270.0 639.84 1270.0 641.94 C 1270.0 644.04 1270.64 647.27 1271.42 649.13 C 1272.2 650.98 1274.34 653.88 1276.17 655.57 C 1278.0 657.26 1280.67 659.36 1282.09 660.24 C 1283.51 661.12 1285.99 662.0 1287.59 662.2 C 1289.19 662.4 1292.3 662.38 1294.5 662.15 Z M 1135.55 661.98 C 1139.0 662.0 1142.25 661.18 1145.77 659.43 C 1149.15 657.74 1152.16 655.18 1154.47 652.04 C 1156.41 649.4 1158.0 646.5 1158.0 645.6 C 1158.0 644.71 1158.41 643.19 1158.91 642.24 C 1159.42 641.28 1160.23 636.67 1160.72 632.0 C 1161.21 627.33 1161.27 621.7 1160.85 619.5 C 1160.43 617.3 1160.07 612.94 1160.04 609.81 C 1160.02 606.68 1159.55 603.84 1159.0 603.5 C 1158.45 603.16 1158.0 602.02 1158.0 600.97 C 1158.0 599.92 1156.92 597.13 1155.6 594.78 C 1154.28 592.42 1152.43 590.34 1151.48 590.15 C 1150.0 589.86 1149.85 590.35 1150.44 593.65 C 1150.81 595.77 1151.36 603.76 1151.66 611.41 C 1151.99 619.99 1151.77 627.51 1151.07 631.07 C 1150.44 634.24 1149.28 638.14 1148.47 639.75 C 1147.67 641.36 1146.22 643.38 1145.26 644.24 C 1144.29 645.09 1141.75 646.77 1139.61 647.96 C 1136.87 649.48 1135.41 649.81 1134.66 649.06 C 1134.08 648.48 1132.83 648.0 1131.89 648.0 C 1130.95 648.0 1128.46 645.86 1126.34 643.25 C 1124.23 640.64 1121.94 637.49 1121.25 636.26 C 1120.51 634.94 1120.0 630.38 1120.0 625.07 C 1120.0 620.09 1119.55 615.84 1118.98 615.49 C 1118.42 615.14 1118.3 614.33 1118.72 613.68 C 1119.13 613.03 1119.78 609.8 1120.15 606.5 C 1120.53 603.2 1121.15 599.26 1121.54 597.75 C 1121.99 595.98 1121.84 595.0 1121.12 595.0 C 1120.51 595.0 1117.84 596.55 1115.2 598.46 C 1112.55 600.36 1109.76 603.08 1109.0 604.5 C 1107.96 606.44 1107.64 611.38 1107.71 624.14 C 1107.77 635.09 1108.2 641.6 1108.9 642.3 C 1109.51 642.91 1110.0 644.17 1110.0 645.11 C 1110.0 646.04 1111.01 648.7 1112.24 651.0 C 1113.59 653.53 1116.1 656.15 1118.58 657.6 C 1120.83 658.92 1123.76 660.01 1125.09 660.02 C 1126.41 660.02 1128.17 660.47 1129.0 661.0 C 1129.83 661.53 1132.77 661.98 1135.55 661.98 Z M 1171.64 660.89 C 1170.91 661.49 1170.02 661.69 1169.66 661.32 C 1169.29 660.96 1169.63 659.95 1170.4 659.08 C 1171.16 658.21 1172.46 655.49 1173.28 653.04 C 1174.1 650.58 1175.32 648.39 1175.99 648.17 C 1176.87 647.88 1177.02 648.64 1176.52 650.89 C 1176.15 652.61 1175.19 655.32 1174.4 656.9 C 1173.61 658.49 1172.36 660.28 1171.64 660.89 Z M 1256.98 662.0 C 1256.42 662.0 1254.62 659.89 1252.98 657.3 C 1251.34 654.72 1250.0 651.57 1250.0 650.3 C 1250.0 649.04 1250.45 648.0 1251.0 648.0 C 1251.55 648.0 1252.0 648.63 1252.0 649.41 C 1252.0 650.18 1253.01 652.77 1254.25 655.16 C 1255.49 657.54 1256.84 659.65 1257.25 659.83 C 1257.66 660.02 1258.0 660.58 1258.0 661.08 C 1258.0 661.59 1257.54 662.0 1256.98 662.0 Z M 1255.79 647.16 L 1255.43 649.5 C 1254.18 645.9 1254.08 644.58 1254.41 644.26 C 1254.73 643.93 1255.26 643.93 1255.58 644.25 C 1255.9 644.57 1256.0 645.88 1255.79 647.16 Z M 1049.67 647.67 C 1049.3 648.03 1049.0 647.73 1049.0 647.0 C 1049.0 646.27 1049.3 645.97 1049.67 646.33 C 1050.03 646.7 1050.03 647.3 1049.67 647.67 Z M 1349.25 625.96 C 1349.66 625.98 1350.0 625.74 1350.0 625.43 C 1350.0 625.11 1349.38 624.24 1348.62 623.48 C 1347.86 622.72 1346.99 622.35 1346.68 622.65 C 1346.37 622.96 1346.66 623.82 1347.31 624.57 C 1347.96 625.31 1348.84 625.94 1349.25 625.96 Z M 1261.0 612.0 C 1261.55 612.0 1262.0 610.2 1262.0 608.0 C 1262.0 605.8 1261.55 604.0 1261.0 604.0 C 1260.45 604.0 1260.0 605.8 1260.0 608.0 C 1260.0 610.2 1260.45 612.0 1261.0 612.0 Z M 1329.08 584.0 C 1328.57 584.0 1326.88 582.76 1325.33 581.25 C 1323.77 579.74 1321.27 577.87 1319.77 577.09 C 1318.26 576.31 1316.14 574.85 1315.06 573.84 C 1313.97 572.83 1312.39 572.0 1311.54 572.0 C 1310.69 572.0 1310.0 571.55 1310.0 571.0 C 1310.0 570.45 1309.35 570.0 1308.56 570.0 C 1307.76 570.0 1305.51 569.05 1303.55 567.9 C 1301.59 566.74 1299.34 566.04 1298.54 566.35 C 1297.75 566.65 1295.71 566.2 1294.01 565.36 C 1291.76 564.23 1290.57 564.11 1289.62 564.9 C 1288.9 565.5 1288.02 565.69 1287.66 565.32 C 1287.3 564.96 1287.0 564.34 1287.0 563.94 C 1287.0 563.54 1288.17 562.92 1289.6 562.57 C 1291.02 562.21 1292.75 562.38 1293.44 562.95 C 1294.12 563.52 1296.0 564.13 1297.61 564.3 C 1299.21 564.48 1303.22 565.93 1306.51 567.53 C 1309.81 569.13 1314.75 571.8 1317.5 573.47 C 1320.25 575.14 1323.85 577.74 1325.5 579.25 C 1327.15 580.76 1328.84 581.99 1329.25 582.0 C 1329.66 582.0 1330.0 582.45 1330.0 583.0 C 1330.0 583.55 1329.58 584.0 1329.08 584.0 Z " opacity="1.0" fill="#000000" stroke="none" fill-rule="evenodd"/><path d="M 1144.79 633.68 C 1141.6 633.89 1138.24 633.46 1136.33 632.6 C 1134.58 631.81 1132.67 630.26 1132.08 629.15 C 1131.49 628.04 1131.0 625.51 1131.0 623.52 C 1131.0 620.89 1131.73 619.23 1133.67 617.43 C 1135.14 616.07 1137.42 614.68 1138.74 614.35 C 1140.06 614.02 1143.25 614.03 1145.82 614.38 C 1148.39 614.73 1151.62 615.84 1153.0 616.86 C 1154.38 617.87 1155.92 619.9 1156.44 621.35 C 1157.03 623.01 1157.03 624.99 1156.44 626.65 C 1155.92 628.1 1154.28 630.2 1152.79 631.31 C 1151.11 632.57 1148.08 633.46 1144.79 633.68 Z M 1304.5 632.97 C 1301.75 632.96 1297.6 632.1 1295.29 631.04 C 1292.39 629.73 1290.87 628.32 1290.42 626.55 C 1290.07 625.12 1290.33 622.61 1291.02 620.95 C 1291.7 619.3 1293.63 616.98 1295.29 615.79 C 1297.29 614.37 1299.89 613.62 1302.99 613.57 C 1306.58 613.52 1308.63 614.17 1311.8 616.36 C 1314.08 617.94 1316.21 620.09 1316.54 621.14 C 1316.88 622.19 1316.85 624.42 1316.48 626.1 C 1316.06 628.02 1314.64 629.86 1312.65 631.07 C 1310.64 632.3 1307.7 632.99 1304.5 632.97 Z " opacity="1.0" fill="#FFFFFF" stroke="none" fill-rule="evenodd"/></svg>