<svg version="1.0" xmlns="http://www.w3.org/2000/svg"
 width="1200.000000pt" height="1600.000000pt" viewBox="0 0 1200.000000 1600.000000"
 preserveAspectRatio="xMidYMid meet">

<g transform="translate(0.000000,1600.000000) scale(0.100000,-0.100000)"
fill="#000000" stroke="none">
<path d="M5660 12335 c73 -94 154 -115 286 -73 90 29 179 29 261 0 113 -40
203 -23 270 52 16 17 24 28 19 24 -5 -4 -16 -3 -26 2 -13 7 -20 3 -31 -17 -26
-49 -101 -56 -258 -27 -90 17 -180 13 -261 -11 -55 -17 -209 3 -195 24 2 5 -4
16 -14 25 -13 12 -21 14 -26 6 -5 -8 -11 -7 -23 2 -16 12 -16 11 -2 -7z"/>
</g>
</svg>
