<?xml version="1.0" encoding="utf-8"?>
<!-- Generator: Adobe Illustrator 16.0.0, SVG Export Plug-In . SVG Version: 6.00 Build 0)  -->
<!DOCTYPE svg PUBLIC "-//W3C//DTD SVG 1.1//EN" "http://www.w3.org/Graphics/SVG/1.1/DTD/svg11.dtd">
<svg version="1.1" id="Layer_1" xmlns="http://www.w3.org/2000/svg" xmlns:xlink="http://www.w3.org/1999/xlink" x="0px" y="0px"
	 width="1200px" height="1600px" viewBox="0 0 1200 1600" enable-background="new 0 0 1200 1600" xml:space="preserve">
<path d="M602.828,307.167c-0.008-0.423-0.647-0.423-0.656,0c-0.071,3.436-0.622,6.571-1.265,9.928
	c-0.056,0.291,0.333,0.484,0.492,0.208C603.116,314.33,602.893,310.48,602.828,307.167z"/>
<path d="M608.033,319.111c-0.514-1.318-1.252-2.491-1.626-3.876c-0.477-1.771-0.174-3.617,0.424-5.311
	c0.149-0.421-0.51-0.593-0.662-0.183c-1.118,3.002-1.122,7.298,1.519,9.571C607.828,319.434,608.116,319.322,608.033,319.111z"/>
<path d="M613.559,316.12c-0.434-2.752-2.65-5.002-2.23-7.863c0.063-0.426-0.583-0.615-0.656-0.181
	c-0.319,1.921,0.425,3.37,0.73,5.255c0.433,2.664,0.148,5.636,0.848,8.208c0.2,0.736,1.307,0.75,1.5,0
	C614.204,319.775,613.84,317.899,613.559,316.12z"/>
<path d="M615.992,316.018c-0.187-0.769-0.389-1.532-0.664-2.274c-0.15-0.405-0.8-0.237-0.656,0.181
	c0.26,0.752,0.441,1.515,0.584,2.297c0.113,0.619,0.122,1.31,0.584,1.773c0.124,0.125,0.327,0.061,0.379-0.1
	C616.414,317.283,616.139,316.622,615.992,316.018z"/>
<g>
	<path d="M704.3,285.7c-2.5-4-2.2-4.3,3-3.9c1.601,0.2,1.8-0.3,1.2-3c-0.6-2.5-0.3-3.4,1.5-4.8c2.7-2.1,2-3.6-1.9-4.5
		c-3.699-0.8-4-1.3-8.6-10.5c-7.7-15.5-17.9-26.5-32.9-35.8c-14.6-9-19.199-10.1-37.6-8.6c-8.2,0.6-8.7,0.5-14.6-2.5
		c-3.4-1.7-6.5-3.1-7-3s-3.601,1.5-6.9,3.1c-5.7,2.9-6.4,3-14.5,2.4c-14.3-1.2-18-0.8-25,2.1c-3.6,1.5-7.8,3.7-9.5,4.9
		c-1.6,1.2-4.4,2.9-6.1,3.7c-4.2,2.2-17.801,15-21.7,20.5c-1.8,2.5-5.3,8.7-7.8,13.6c-4.2,8.3-4.9,9.2-8.2,10
		c-2.601,0.7-3.7,1.5-3.7,2.8c0,1,0.7,1.8,1.6,1.8c1.2,0,1.5,0.9,1.2,3.7c-0.3,3.9-0.3,3.9,4.4,4.2c1.399,0.1,1.3,0.8-1,5.5
		c-1.5,3-2.9,5.3-3.2,5.1s-0.6,0.4-0.7,1.3c0,0.9-1.1,4.4-2.3,7.7c-1.8,4.6-2.3,8.2-2.4,15.5l-0.1,9.6l4.5,6.9
		c4.1,6.2,4.5,7.4,4.5,13.2c0.1,4.2,0.6,6.7,1.4,7.2c0.699,0.5,2.1,3.899,3.199,7.6c1,3.7,2.5,7.5,3.2,8.4c1.5,1.8,8.7,17.5,8.7,19
		c0,0.5-1.3,1.399-3,1.899c-2.9,1.101-3,1.3-2.6,6.5c0.3,3.601,1.199,6.8,3,9.5l2.6,4.2h-2.2c-1.3,0-3.6-0.9-5.3-2
		c-1.6-1.1-3.7-2-4.7-2c-3.7,0-5.2,14.9-2.1,21.5c0.899,1.9,2,3.5,2.5,3.5c0.399,0,0.8,0.5,0.8,1.1c0,0.7-1.4,0.801-4.2,0.4
		l-4.1-0.7l0.6,5.3c0.5,4.101,1.4,6,3.9,8.7c4,4.101,8.1,6.4,10.2,5.601c1.199-0.4,1.6,0,1.6,1.5c0,1.199,0.7,2.399,1.5,2.699
		c0.8,0.4,1.5,1.2,1.5,2c0,1.9,2.5,2.9,10.3,4.4c6.2,1.1,6.9,1.5,8.5,4.6c2.5,4.801,24.8,27,30.2,30.101
		c2.5,1.399,6.4,3.899,8.7,5.399c2.2,1.601,5.2,2.801,6.5,2.7c1.3-0.1,3.8,0.8,5.6,2c3.9,2.9,10.2,5.5,10.2,4.3
		c0-1.199-6.7-5.5-16.7-10.699c-9.5-4.9-19-12.4-34.3-27.101c-5.6-5.399-7.5-7.8-7.5-10c-0.1-2.399-0.7-2.899-4.1-3.6
		c-4.7-1-14.5-4.601-15.9-5.9c-0.5-0.399-0.9-2.3-1-4.1c0-2.9-0.3-3.2-3-3.2c-4.2-0.1-7.5-1.4-7.5-3c0-0.7-0.6-1.5-1.4-1.8
		c-0.8-0.3-1.899-1.4-2.5-2.4c-0.8-1.7-0.5-1.899,2.601-2c4.899-0.1,5.7-1.899,2.6-5.899c-3.6-4.9-5.1-10.601-4.2-17.101
		c0.801-5.6,1.801-7.8,2.601-5.5c0.7,1.7,5.7,4.2,8.7,4.2c4.1,0,4.8-2.7,2.1-8c-1.3-2.5-2.6-6.2-3-8.1c-0.6-3.101-0.4-3.5,2.3-4.5
		c1.601-0.601,3.101-2,3.4-3.2c0.6-2-0.101-3.8-7.5-20.7c-4.7-10.9-5-11.8-4.8-13.3c0.1-0.8-0.9-2.4-2.4-3.8
		c-2.3-2.101-2.5-2.9-2-7.601c0.3-2.899,1.2-7.399,2-10.1c0.8-2.601,1.2-4.7,0.9-4.7c-0.301,0-1.601,1.2-2.9,2.6l-2.4,2.601l-2-3.3
		c-2.1-3.4-3.6-12.801-3.5-21.4c0.101-5.7,3.801-15.5,9.601-25.5l3.7-6.5l-3.5-0.3c-3.301-0.3-3.5-0.5-2.9-3
		c0.3-1.5,1.5-3.9,2.5-5.4c1.1-1.5,2-3.1,2-3.6c0-0.4,1.1-2.3,2.5-4.2s2.5-4,2.5-4.8c0-1.2,9.1-13.5,14.9-20.1
		c1.199-1.3,3.899-3.2,6.199-4.2c2.2-1,3.801-2.3,3.5-2.7c-0.3-0.5,0.601-1.5,1.9-2.2c1.4-0.7,2.5-1.7,2.5-2.1
		c0-3,14.5-6.6,29.2-7.4c4.3-0.2,8.2-0.6,8.7-0.9c0.5-0.4,3.199-0.8,5.899-1c2.8-0.3,6.101-1,7.3-1.7c2.601-1.3,9.9-1.9,9.9-0.8
		s6.7,2.9,10.6,2.9c1.7,0,3.4,0.3,3.7,0.7c0.4,0.3,4.4,0.7,8.9,0.9c9.1,0.3,19,1.8,23.1,3.3c3.7,1.4,11.4,7.5,11,8.8
		c-0.2,0.6,1.4,1.8,3.601,2.6c5,2.1,17.199,16.7,22.699,27.3c2.2,4.1,4.9,9.3,6.101,11.6c1.2,2.2,2,4.5,1.7,4.9
		c-0.301,0.5-2.101,0.9-4.101,0.9h-3.5l2.2,3.2c4.1,6.2,10.9,21.3,11.7,26.3c0.899,5.2-0.8,20.1-2.7,23.3
		c-2.6,4.601-2.7,4.601-5.4,1.601c-3-3.4-3.1-2.801-1.1,4.6c2.5,9.2,1.9,16-1.5,16c-1.3,0-1.6,0.6-1.2,2.5c0.2,1.4,0,3.1-0.6,3.8
		c-0.5,0.601-1.5,3-2.2,5.2s-3,7.5-5.2,11.9c-2.399,4.699-4,9.5-4.1,11.899c-0.2,3.8,0,4.101,2.899,5c3.101,0.9,3.101,1,2.2,4.9
		c-0.399,2.2-1.7,5.7-2.8,7.8c-2.4,4.7-2.5,6.6-0.4,7.4c3.101,1.199,6.301,0.6,9.2-1.9c1.7-1.4,3.2-2.5,3.5-2.5s0.8,2.7,1.2,6
		c0.8,6.7-1.2,14.5-4.5,17.5c-1.1,1-2,2.4-2,3.2c0,1.6,4.7,3.6,6.7,2.899c2.3-0.899,1.399,1.2-2.2,5.101c-3,3.3-4.1,3.8-7.7,3.8
		c-4.2,0-4.3,0-4.3,3.5c0,3.2-0.4,3.7-4.8,5.8c-2.601,1.2-7,2.7-9.8,3.2c-6.4,1.2-7.101,1.7-6,3.9c0.8,1.399-0.4,3.199-6.7,9.3
		c-4.2,4.2-10,9.6-12.8,12c-2.9,2.399-7.101,6-9.5,8c-2.4,2-8,5.6-12.4,7.899C616.1,506,609,510.7,609,512c0,1.2,2.2,0.3,8.5-3.5
		c2.7-1.6,6-2.8,7.5-2.7c1.5,0.2,3.6-0.7,5.5-2.399c1.7-1.4,4.4-3.301,6-4.101c1.7-0.899,4.8-2.899,7-4.6
		c5.7-4.3,21.8-20.8,25.4-26.101c3.1-4.5,3.6-4.699,12.6-6.199c4.7-0.801,7.5-2.101,7.5-3.5c0-0.601,0.7-1.7,1.6-2.601
		c0.801-0.899,1.301-2.2,1-3c-0.399-1-0.1-1.3,1.2-0.899c2.4,0.8,10.8-4.801,12.7-8.301c0.7-1.5,1.5-4.5,1.7-6.699l0.3-3.9l-4.4,0.3
		l-4.399,0.4l2.2-2.7c3-3.9,4.3-9.8,3.6-15.8c-0.8-5.601-2-8.7-3.6-8.7c-0.5,0-2.7,0.9-4.9,2c-6.5,3.3-7.3,2.8-4.5-3.3
		c1.4-2.9,2.5-7.101,2.5-9.5c0-3.9-0.3-4.4-2.9-5.3c-2.899-1-2.899-1.101-1.6-4.801c1.9-5.399,6.5-15.3,8-17.1c0.7-0.8,1.8-4,2.6-7
		c0.7-3,2.101-6.5,3.2-7.6c1.4-1.7,1.8-3.5,1.601-8.101c-0.2-5.5,0.1-6.3,4.399-12.8c4-6,4.7-7.9,5.101-13
		C715,310.4,711.1,296.8,704.3,285.7z"/>
	<path d="M596.375,312.75c0.087,0.682,1.091-0.633,2.022-1.894c0.022-1.008,0.268-2.064,0.808-3.14
		c0.689-1.369,1.385-2.735,2.082-4.101c0.023-0.908,0.038-1.951,0.044-3.141c-0.16-0.268-0.298-0.562-0.426-0.869
		c0.027-2.394-0.494-4.874-0.868-7.192c-0.56-3.468-1.336-6.893-2.145-10.31c-0.033-0.139-0.14-0.177-0.242-0.158
		c-5.737-9.259-19.195-32.099-25.15-31.447c-10.101,1.627-19.2,4.6-32,18.3c-6.2,6.6-11.5,15.7-11.4,19.7c0,2.6,0.301,2.3,2.301-2.6
		c5.1-12.3,18.1-24.9,33.899-32.8c0.983-0.492,2.02-0.675,3.095-0.613c2.165-0.707,4.657-0.414,6.805,1.563
		c1.392,1.281,2.698,2.632,3.921,4.045c1.813,1.785,3.374,3.97,4.689,6.372c4.691,5.834,9.361,12.916,13.484,19.173
		c0.214,0.325,0.449,1.105,0.682,2.203c0.237,1.536,0.479,3.072,0.729,4.607c0.55,4.536,0.893,10.44,0.544,15.049
		C598.947,309.503,596.117,310.735,596.375,312.75z"/>
	<path d="M614.645,300.567c0.006,1.19,0.02,2.232,0.043,3.141c0.697,1.366,1.393,2.731,2.082,4.101
		c0.541,1.075,0.785,2.132,0.809,3.14c0.932,1.26,1.935,2.576,2.021,1.894c0.259-2.015-2.572-3.247-2.875-7.25
		c-0.614-8.127,0.918-20.285,1.955-21.859c4.124-6.257,8.794-13.339,13.484-19.173c1.316-2.402,2.877-4.587,4.689-6.372
		c1.224-1.413,2.53-2.765,3.922-4.045c2.148-1.978,4.641-2.271,6.805-1.563c1.076-0.062,2.111,0.122,3.096,0.613
		c15.799,7.9,28.799,20.5,33.898,32.8c2,4.9,2.301,5.2,2.301,2.6c0.1-4-5.199-13.1-11.4-19.7c-12.799-13.7-21.898-16.673-32-18.3
		c-5.974-0.655-19.501,22.337-25.207,31.538c-0.009,0.009-0.014,0.023-0.021,0.034c-0.04,0.065-0.084,0.136-0.123,0.2
		c-0.004,0.062-0.01,0.123-0.014,0.184c-0.847,2.692-1.502,5.399-1.937,8.191c-0.382,2.449-0.904,5.132-0.677,7.618
		c-0.007,0.032-0.014,0.064-0.021,0.096C615.289,299.262,615.004,299.964,614.645,300.567z"/>
	<path d="M522.396,340.288c0.054,0.32,0.452,0.4,0.694,0.252c0.616,1.924,1.928,3.98,4.609,7.86c2.899,4.199,5.7,9.5,6.2,11.8
		c1.6,6.899,4.899,12.6,10.399,18.1c6.2,6.2,10.4,9.7,11.601,9.7c0.5,0,2.399,1.4,4.199,3.2c7.4,7,11.9,9,11.9,5.2
		c0-3.2,6.2-0.9,13.5,5.1c2.8,2.2,5.2,4.3,5.3,4.7c0.7,1.6,2.2,0.7,2.2-1.2c0-3,2.7-1.4,4,2.4c0.6,1.8,2.6,5.1,4.5,7.399
		c2,2.2,4.2,5.5,4.9,7.3l1.399,3.301l1.5-3.4c0.8-1.9,2.601-4.7,4-6.3c1.4-1.5,3.5-4.7,4.5-7.101c2.3-5,4.2-6.699,4.2-3.699
		c0,2.899,0.9,2.6,5.8-1.801c3.8-3.5,11.8-8.1,14.101-8.1c0.5,0,1.3,0.9,1.6,2c0.7,2.4,1.8,2.5,3.4,0.6c0.699-0.8,2.3-1.699,3.699-2
		c1.9-0.5,2.5-1.199,2.101-2.6c-0.3-1.3,0.2-2,1.8-2.4c3.6-0.899,12.6-7.5,17.2-12.5c5.2-5.699,9.2-12.8,9.5-16.899
		c0.1-1.8,0.5-3.2,0.899-3.2c0.4,0,0.9-1,1.301-2.3c0.3-1.2,2.3-4.601,4.5-7.5c4.399-5.7,6.3-11,5.399-14.5
		c-0.3-1.2-0.6-6.4-0.6-11.5c0-2.317-0.087-4.456-0.229-6.091c0.112-1.44,0.034-2.972-0.175-4.512
		c0.427,0.103,0.703-0.088,0.703-0.498c0-0.549-0.426-0.996-0.956-1.07c-0.116-0.636-0.242-1.264-0.381-1.88
		c0.172-3.185-1.609-13.375-2.763-15.149c-0.7-1-0.801-0.3-0.301,2.4c0.12,0.75,0.189,1.369,0.22,1.876
		c-0.062,0.09-0.094,0.205-0.07,0.339c0.027,0.163,0.05,0.326,0.077,0.488c-0.022,0.286-0.076,0.48-0.161,0.583
		c-0.008,0.008-0.016,0.016-0.023,0.025c-0.087,0.082-0.199,0.084-0.342-0.011c-0.7-0.4-0.7,0.899-0.2,3.899
		c2.301,12.301,3,26.2,1.4,26.801c-0.5,0.1-0.2,1.199,0.7,2.199c1.6,1.801,1.6,2.2,0,6.9c-1.8,5.1-6.101,11.9-10.601,16.7
		c-1.399,1.5-2.6,3.2-2.6,3.8c0,0.5-0.4,1-1,1c-0.5,0-1,0.5-1,1.1c0,0.601,0.9,0.9,2,0.601c2.5-0.601,2.5-0.601,0,4.6
		c-4.5,9.5-16.7,20.2-27.2,23.8c-2.899,1-4.399,1.801-3.399,1.9c4.1,0,0.3,1.4-4.2,1.4c-2.7,0.1-6.7,1.1-9.5,2.5
		c-2.601,1.199-5.4,2.1-6.2,1.8c-3.2-1.3-7.1,2.2-10.5,9.399c-3.3,6.7-3.5,7-4.5,4.601c-1.4-3.4-2.9-2.9-3.2,1.2
		c-0.399,5.199-1.3,5-1.3-0.2c0-5-1.4-6.3-2.4-2.2c-0.399,1.4-1,2.5-1.5,2.5c-0.399,0-2.1-2.8-3.699-6.3c-2.101-4.7-3.7-6.7-6.2-8
		c-1.8-1-3.8-1.5-4.3-1.101c-0.601,0.301-3.7-0.6-7-2c-4.2-2-6.801-2.5-9.101-2.1c-1.8,0.3-4.399,0.2-5.8-0.4
		c-2.4-0.899-2.4-1,1-1.1c3.5-0.2,3.5-0.2-1.2-1.5c-9.7-2.6-22.8-13.6-28.2-23.6c-2.5-4.7-2.5-4.9-0.6-4.9c1.1,0,2-0.5,2-1
		c0-0.6-0.5-1-1.1-1c-0.601,0-0.9-0.5-0.7-1.2c0.2-0.6-1.101-2.5-2.9-4.1c-3.899-3.4-7.7-9.5-10.2-16.601
		c-1.063-2.836-1.493-4.029-1.258-4.965c0.263,0.269,0.786,0.155,0.791-0.301c0.003-0.33-0.011-0.66-0.02-0.99
		c0.195-0.224,0.423-0.465,0.688-0.744c1.2-1.199,1.601-2.1,0.9-2.1c-0.11,0-0.21-0.074-0.305-0.179
		c0.024-1.487-0.429-3.021-0.625-4.488c-0.213-1.6-0.349-3.221-0.399-4.833c-0.008-0.256-0.217-0.371-0.412-0.353
		c-0.085-0.987-0.148-1.979-0.161-2.98c-0.001-0.115-0.043-0.202-0.099-0.272c-0.019-0.308-0.051-0.614-0.066-0.922
		c0.005-0.101,0.008-0.202,0.012-0.303c0.207-4.581,0.644-9.166,1.157-13.733c0.596-2.059,1.433-4.04,2.603-5.866
		c0.328-0.513-0.478-0.974-0.81-0.474c-0.498,0.75-0.925,1.526-1.324,2.314c0.043-0.359,0.083-0.719,0.127-1.077
		c0.029-0.239-0.179-0.375-0.388-0.385c0.036-0.073,0.068-0.147,0.104-0.22c0.419-0.849,1.039-1.424,1.756-1.767
		c0.184-0.822,0.208-1.294,0.078-1.395c0.035-0.3,0.059-0.6,0.063-0.899c0.003-0.245-0.292-0.411-0.499-0.295
		c-0.192-0.129-0.476-0.101-0.537,0.196c-0.05,0.245-0.086,0.491-0.134,0.736c-0.615,1.094-0.954,2.377-1.191,3.658
		c-0.157,0.001-0.311,0.083-0.368,0.266c-0.222,0.714-0.324,1.454-0.395,2.2c0.192-0.453,0.389-0.906,0.594-1.358
		c-0.193,1.189-0.385,2.378-0.568,3.566c-1.006,2.966-1.501,6.103-1.696,9.276c-0.111,1.807-0.094,3.619-0.017,5.428
		c-0.326,4.445-0.612,9.404,0.076,13.961c-0.011,0.497-0.022,0.99-0.033,1.479C522.259,333.653,521.865,337.12,522.396,340.288z"/>
</g>
</svg>
