<?xml version="1.0" encoding="utf-8"?>
<!-- Generator: Adobe Illustrator 16.0.0, SVG Export Plug-In . SVG Version: 6.00 Build 0)  -->
<!DOCTYPE svg PUBLIC "-//W3C//DTD SVG 1.1//EN" "http://www.w3.org/Graphics/SVG/1.1/DTD/svg11.dtd">
<svg version="1.1" id="Layer_1" xmlns="http://www.w3.org/2000/svg" xmlns:xlink="http://www.w3.org/1999/xlink" x="0px" y="0px"
	 width="1200px" height="1600px" viewBox="0 0 1200 1600" enable-background="new 0 0 1200 1600" xml:space="preserve">
<g transform="translate(0.000000,1600.000000) scale(0.100000,-0.100000)">
	<path fill="#AFAFAF" d="M6915,12675.994c-4.004,10-7.002,53.008-5.996,96.006c1.992,47.002-6.006,117.002-19.004,182.002
		c-10.996,57.998-20,110.996-17.998,117.998c0.996,6.997-9.004,37.998-24.004,70c-70.459,152.666-216.914,282.632-389.082,354.854
		c-3.506-3.198-7.441-6.216-11.914-8.965c-25.088-15.41-50.635-30.713-75.684-46.787c-16.201-14.419-31.66-29.458-46.592-44.941
		c-39.629-65.41-80.332-130.151-120.283-195.376c-17.695-28.887-18.008-7.017-24.443-41.001
		c-7.891-41.67-19.766-136.88-17.402-178.926c2.344-41.724,5.098-58.945,33.398-109.277c8.799-15.64-43.271-14.424-42.246-32.832
		c0.566-10.146-22.1-35.122,10-58.75c8.652-6.362,2.49,6.279,8.652-6.362c19.072-39.097,35.498-113.661-9.072-60.303
		c-11.982,14.341-29.932,14.507-16.885,21.665c-8.252-11.895-28.154-63.096-44.775-67.67c-12.197-3.355-8.086,80.473-21.133,84.335
		c-13.438-11.611-11.973-70.835-30.254-77.499c-20.986-7.652-19.893,55.78-36.973,69.169c-12.124,9.502-9.365-41.005-13.311-26.67
		c-4.097,14.897-38.97,35.439-34.253,48.003c3.052,8.247,33.081,55.84,31.597,63.813c-2.656,14.243-44.365,11.45-40.82,25.288
		c8.262,32.251,30.825,45.986,38.521,78.418c7.944,33.477,13.159,59.502,4.956,92.813c-7.378,29.956-17.383,101.479-20.635,140.249
		c-2.109,25.117-10.449,4.092-22.773,26.108c-13.311,23.779-30.586,44.951-45.562,67.646
		c-22.651,34.326-40.513,72.231-50.234,112.285c-12.803,19.082-26.514,37.378-41.958,54.214
		c-15.913,17.344-35.059,32.422-54.404,45.747c-11.465,7.9-23.101,15.835-35.303,22.642c-12.715-4.829-26.729-4.546-40.015-0.41
		c-95.464-41.621-185.049-102.417-261.118-178.481C5365.996,13252,5300,13150.999,5300,13117c0-8.003-7.002-18.003-15.996-21.001
		c-12.002-3.999-14.004-13.003-10-32.002c3.994-13.999-1.006-59.995-10-101.997c-9.004-42.002-18.008-121.006-19.004-174.004
		c-2.002-53.994-5.996-105.996-10-117.002c-10.996-35,34.004-128.994,90-190c52.002-55,59.004-70.996,42.002-97.998
		c-29.004-47.002,162.998-247.998,273.994-285.996c19.004-7.002,34.004-17.998,34.004-26.006c0-10,15.996-13.994,60-15.996
		c39.004-0.996,72.998-9.004,99.004-22.998c20.996-11.006,43.994-17.998,51.992-15c32.002,12.002,70-17.002,93.008-72.002
		c27.998-67.998,47.998-85.996,65.996-60.996c12.002,15.996,14.004,15,17.002-16.006c3.994-43.994,20.996-38.994,28.994,9.004
		c3.008,20.996,7.002,30,8.008,20.996c1.992-23.994,18.994-32.002,36.992-17.002c8.008,7.002,24.004,34.004,35,60
		c24.004,55,54.004,79.004,99.004,79.004c17.002,0,49.004,9.004,70.996,20.996c28.008,14.004,56.006,20,87.002,18.008
		c39.004-2.002,47.002,0,46.006,13.994c-1.006,11.006,5.996,17.002,17.998,17.002c87.998,0,318.994,227.998,292.002,287.998
		c-11.006,26.006-5,44.004,25,77.002C6882.998,12535.994,6930.996,12637.996,6915,12675.994z"/>
</g>
</svg>
