<?xml version="1.0" standalone="no"?>
<!DOCTYPE svg PUBLIC "-//W3C//DTD SVG 20010904//EN"
 "http://www.w3.org/TR/2001/REC-SVG-20010904/DTD/svg10.dtd">
<svg version="1.0" xmlns="http://www.w3.org/2000/svg"
 width="1200.000000pt" height="1600.000000pt" viewBox="0 0 1200.000000 1600.000000"
 preserveAspectRatio="xMidYMid meet">

<g transform="translate(0.000000,1600.000000) scale(0.100000,-0.100000)"
fill="#000000" stroke="none">
<path d="M4515 10180 c-3 -5 -1 -10 4 -10 6 0 11 5 11 10 0 6 -2 10 -4 10 -3
0 -8 -4 -11 -10z"/>
<path d="M7630 10180 c0 -5 5 -10 10 -10 6 0 10 5 10 10 0 6 -4 10 -10 10 -5
0 -10 -4 -10 -10z"/>
<path d="M4353 10103 c-10 -21 -33 -59 -52 -85 -28 -38 -41 -48 -63 -48 -16 0
-61 -17 -101 -39 -40 -21 -107 -57 -149 -80 l-77 -41 11 30 c34 100 -55 107
-164 12 -26 -22 -136 -100 -245 -173 -109 -73 -216 -147 -238 -164 -56 -45
-174 -123 -280 -185 -49 -29 -99 -60 -110 -70 -11 -10 -74 -49 -141 -88 -66
-39 -126 -78 -133 -86 -8 -9 -17 -16 -21 -16 -5 0 -35 -18 -67 -39 -32 -21
-119 -73 -193 -116 -74 -42 -173 -103 -220 -136 -141 -100 -231 -159 -240
-159 -4 0 -14 -10 -23 -22 -8 -13 -25 -34 -37 -48 -36 -41 -67 -83 -89 -122
-46 -84 -92 -170 -154 -290 -36 -69 -85 -157 -108 -195 -23 -37 -54 -90 -69
-118 -15 -27 -40 -72 -57 -100 -62 -106 -122 -233 -147 -310 -14 -44 -34 -105
-45 -135 -14 -38 -21 -81 -21 -140 0 -47 -11 -166 -24 -265 -39 -297 -24 -540
43 -689 30 -68 204 -269 243 -282 27 -8 39 7 76 96 28 66 40 107 71 225 9 35
9 35 46 -85 32 -105 116 -267 169 -327 40 -46 105 -93 129 -93 16 0 96 82 130
134 14 22 75 89 135 150 70 71 116 128 129 157 12 26 26 49 32 53 15 9 84 -22
189 -86 164 -101 201 -117 288 -124 66 -5 82 -4 93 9 9 12 13 68 14 214 1 180
-8 282 -30 340 -5 12 -2 15 10 10 35 -13 68 39 93 148 35 149 111 376 157 464
13 26 81 70 110 71 10 0 29 -7 42 -16 20 -13 28 -14 40 -4 8 7 15 21 15 30 0
10 9 39 20 65 16 38 24 46 38 40 41 -17 51 -16 62 5 l12 22 15 -22 c12 -16 18
-19 29 -9 8 6 14 16 14 21 0 5 10 24 23 43 20 30 24 32 42 19 24 -17 35 -18
35 -1 0 23 105 5 134 -22 55 -52 103 6 67 81 -18 37 -18 38 3 51 11 7 43 21
70 31 48 18 86 47 86 65 0 21 -34 41 -68 41 l-37 1 29 23 c32 27 30 56 -4 56
-11 0 -20 3 -20 8 1 4 41 33 90 65 106 70 118 82 103 106 -9 14 -3 27 34 72
25 30 56 70 68 89 25 41 48 118 43 147 -2 14 23 51 77 114 113 132 122 147
138 232 13 67 13 78 0 89 -11 9 -19 9 -35 -1 -17 -11 -20 -11 -15 1 63 147
107 246 181 400 31 64 56 119 56 122 0 3 21 47 46 98 25 51 59 127 75 168 51
129 80 174 147 230 78 64 84 77 47 105 -22 19 -25 24 -13 31 19 11 62 94 49
94 -6 0 -25 -19 -43 -42 -18 -23 -66 -76 -107 -119 -85 -90 -93 -129 -10 -51
30 28 63 52 73 52 14 0 8 -8 -20 -28 -84 -62 -143 -155 -205 -330 -17 -46 -67
-159 -112 -250 -123 -249 -257 -558 -257 -592 0 -15 27 -12 33 4 3 7 20 24 38
36 l32 23 -7 -49 c-8 -53 -43 -104 -165 -244 -128 -145 -161 -176 -170 -161
-7 11 -11 10 -20 -7 -22 -41 -7 -42 74 -7 32 14 60 24 62 21 11 -11 -54 -103
-125 -178 -54 -56 -75 -86 -76 -106 -1 -24 -11 -32 -78 -64 -47 -23 -78 -44
-78 -53 0 -8 3 -15 8 -15 4 0 12 -11 19 -25 9 -21 8 -27 -7 -35 -14 -7 -21 -5
-33 13 l-16 22 0 -22 c-1 -12 10 -35 24 -52 21 -24 35 -31 73 -33 l47 -3 -72
-28 c-74 -29 -82 -29 -121 7 l-23 21 9 -25 c5 -14 24 -53 41 -86 38 -74 40
-96 7 -65 -25 24 -41 29 -93 30 -31 1 -33 3 -45 61 -14 68 -34 75 -31 12 1
-29 -2 -42 -11 -42 -20 0 -53 -41 -76 -93 -12 -26 -26 -45 -31 -41 -6 4 -4 13
6 24 11 13 14 24 8 34 -8 14 -14 11 -46 -18 -37 -33 -49 -27 -27 15 7 13 7 19
1 19 -14 0 -161 -149 -161 -162 0 -7 11 -1 25 12 29 27 32 20 9 -16 -13 -19
-19 -22 -30 -13 -11 9 -19 8 -34 -6 -20 -18 -20 -18 -4 31 9 27 21 57 25 67 6
10 5 17 -1 17 -5 0 -23 -24 -40 -53 -28 -50 -95 -126 -103 -116 -5 5 17 134
27 167 14 44 -12 21 -39 -34 -17 -36 -29 -79 -33 -119 -4 -50 -8 -64 -23 -68
-10 -3 -20 0 -22 7 -6 17 -1 157 8 189 8 30 -9 39 -18 10 -3 -10 -14 -43 -25
-73 -19 -51 -23 -56 -64 -65 l-43 -11 -18 51 c-11 27 -19 60 -18 72 0 15 -8
24 -29 32 -31 10 -39 26 -17 34 6 2 22 -5 35 -17 19 -16 35 -20 81 -19 75 1
127 25 266 118 162 109 216 157 246 223 15 32 28 49 31 41 4 -12 7 -12 21 0
10 7 17 19 17 26 0 6 9 20 19 29 19 17 19 17 14 -2 -2 -11 0 -23 6 -26 5 -4 8
-13 4 -22 -4 -12 0 -14 23 -8 36 9 101 40 109 53 3 6 12 8 20 5 8 -4 20 6 30
25 10 20 23 31 38 31 33 0 42 10 58 63 7 26 19 47 26 47 7 0 29 14 49 32 35
31 36 31 32 7 -2 -19 1 -23 16 -21 20 4 99 63 92 69 -6 6 -60 -18 -68 -30 -13
-21 -17 -2 -8 38 12 52 13 98 1 91 -5 -4 -12 -24 -16 -46 -4 -25 -14 -44 -27
-51 -11 -6 -33 -25 -49 -42 -15 -18 -29 -26 -29 -19 0 24 -30 12 -36 -15 -3
-16 -10 -39 -15 -52 -9 -20 -12 -22 -20 -10 -8 11 -14 9 -34 -16 -14 -16 -25
-33 -25 -36 0 -4 -19 -19 -42 -35 -24 -16 -49 -35 -56 -41 -7 -7 -16 -13 -18
-13 -9 0 8 44 23 58 8 8 11 17 8 20 -3 3 -19 -10 -35 -29 l-29 -34 11 38 c9
29 9 40 -1 50 -10 9 -18 5 -41 -23 l-29 -35 -1 28 c0 71 -70 -19 -101 -129 -8
-32 -22 -50 -55 -73 -24 -18 -49 -38 -56 -45 -11 -11 -91 -68 -162 -116 -12
-8 -39 -28 -60 -44 -33 -26 -47 -30 -124 -34 l-87 -4 25 27 c13 14 39 35 57
46 18 11 47 41 65 67 17 26 49 72 69 102 77 112 9 69 -74 -48 -40 -56 -107
-100 -277 -185 -106 -53 -155 -72 -230 -86 -204 -41 -259 -54 -365 -88 -103
-34 -185 -72 -246 -114 -14 -10 -49 -27 -78 -39 -77 -30 -81 -23 -77 114 3
126 24 203 116 426 58 139 110 234 165 297 36 42 137 108 270 177 120 61 239
143 240 166 2 20 1 20 -19 2 -33 -30 -54 -39 -32 -14 11 12 15 22 10 22 -13
-1 -44 -26 -44 -36 0 -14 -88 -64 -225 -129 -199 -95 -225 -109 -257 -140 -26
-26 -123 -211 -134 -255 -2 -8 -22 -62 -44 -120 -22 -58 -45 -121 -50 -140 -5
-19 -18 -64 -28 -100 -21 -71 -37 -267 -27 -324 9 -45 30 -52 83 -26 58 28 92
41 92 34 0 -4 -15 -27 -34 -53 -41 -57 -91 -149 -118 -216 -62 -158 -176 -509
-219 -675 -16 -66 -54 -160 -64 -160 -1 0 -33 30 -70 68 -77 78 -162 214 -175
281 -13 65 -3 357 20 636 6 61 10 144 10 186 0 49 7 98 21 140 20 62 161 357
205 429 11 19 54 100 94 180 40 80 79 152 85 160 7 8 26 40 42 70 69 129 173
296 233 372 82 104 361 311 525 388 49 24 143 80 210 125 66 44 147 97 180
115 47 27 259 164 461 301 12 8 69 51 126 96 58 45 163 116 234 159 71 42 152
94 179 113 87 63 105 73 105 58 0 -17 -30 -59 -94 -132 -27 -30 -47 -58 -44
-60 2 -3 24 9 47 27 24 17 107 64 185 103 77 40 163 86 190 103 27 18 52 30
54 27 6 -6 -44 -73 -75 -101 -23 -22 -31 -44 -14 -44 6 0 13 5 16 10 3 6 14
10 24 10 10 0 43 20 72 44 47 38 58 54 79 115 13 39 30 71 37 71 8 0 18 11 23
24 13 35 30 41 46 17 8 -12 19 -21 25 -21 17 0 9 47 -12 74 -29 37 -56 34 -76
-11z m-822 -2236 c-10 -9 -11 -8 -5 6 3 10 9 15 12 12 3 -3 0 -11 -7 -18z
m-795 -488 c-8 -42 10 -66 33 -44 16 13 18 10 29 -45 10 -45 10 -70 1 -105 -6
-25 -9 -49 -5 -52 3 -3 9 8 12 25 7 36 19 41 27 12 7 -26 33 -26 47 0 6 11 14
18 19 16 4 -3 21 4 39 14 31 19 31 19 34 -3 2 -14 14 -24 36 -31 24 -7 31 -13
27 -25 -49 -123 -115 -319 -124 -364 -18 -96 -30 -133 -51 -152 -19 -17 -20
-16 -50 46 -16 35 -30 70 -30 77 0 6 -4 12 -10 12 -16 0 -12 -23 14 -97 38
-103 55 -230 52 -373 -3 -132 -19 -206 -45 -215 -28 -8 -114 2 -151 19 -19 9
-62 32 -95 51 -33 19 -95 53 -137 77 -53 29 -81 51 -86 68 -6 15 -4 67 4 130
15 117 17 340 3 340 -5 0 -9 -30 -9 -67 -1 -126 -9 -211 -36 -368 -12 -70 -76
-170 -173 -270 -53 -55 -122 -131 -152 -170 -85 -106 -80 -104 -142 -58 -54
41 -132 147 -167 226 -22 49 -47 142 -54 198 -10 82 53 361 110 487 13 29 24
58 24 65 0 19 57 127 73 141 24 19 123 141 143 175 32 55 205 129 379 162 28
5 59 12 69 15 15 5 18 2 13 -12 -65 -209 -83 -286 -49 -214 18 38 119 190 151
228 11 12 44 31 73 41 30 10 76 30 103 44 28 14 52 26 54 27 2 0 1 -14 -3 -31z
m-262 -84 c-4 -8 -9 -15 -13 -15 -4 0 -18 -18 -30 -41 -13 -22 -25 -38 -27
-36 -7 7 26 91 39 99 20 13 37 9 31 -7z"/>
<path d="M2775 7095 c-3 -14 -8 -37 -11 -52 -3 -18 -2 -24 4 -18 11 11 27 95
18 95 -3 0 -8 -11 -11 -25z"/>
<path d="M7731 10114 c-21 -27 -29 -74 -12 -74 6 0 17 9 25 21 16 24 33 18 46
-17 5 -13 15 -24 23 -24 7 0 24 -32 37 -71 21 -61 32 -77 79 -115 29 -24 62
-44 72 -44 10 0 21 -4 24 -10 3 -5 10 -10 16 -10 16 0 10 20 -15 45 -36 36
-80 95 -74 100 2 3 27 -9 54 -27 27 -17 113 -63 190 -103 78 -39 161 -86 185
-103 23 -18 45 -30 47 -27 3 2 -17 30 -44 60 -64 73 -94 115 -94 132 0 15 18
5 105 -58 28 -19 108 -71 179 -113 71 -43 176 -114 234 -159 57 -45 111 -86
119 -92 9 -5 104 -69 212 -140 108 -72 223 -146 255 -164 33 -18 115 -71 183
-116 68 -46 162 -102 210 -125 151 -72 432 -276 506 -368 43 -52 151 -214 186
-277 12 -22 42 -74 66 -115 24 -41 63 -113 88 -160 24 -47 64 -121 87 -165
111 -208 229 -452 248 -513 14 -46 22 -110 26 -202 4 -74 8 -148 10 -165 8
-56 20 -329 20 -470 l1 -140 -39 -75 c-21 -41 -53 -93 -70 -115 -29 -38 -138
-148 -141 -142 0 1 -9 14 -18 29 -9 15 -26 62 -38 105 -36 135 -69 243 -126
413 -99 297 -144 400 -219 501 -19 26 -34 49 -34 53 0 7 34 -6 92 -34 23 -11
50 -18 59 -15 24 8 31 62 24 184 -7 120 -40 254 -105 421 -23 58 -42 112 -44
120 -11 44 -108 229 -134 255 -32 32 -52 42 -282 153 -91 44 -162 85 -190 111
-25 22 -49 41 -55 41 -5 0 -1 -7 9 -15 11 -8 17 -17 14 -20 -3 -3 -19 5 -35
19 -27 23 -29 23 -28 5 2 -22 123 -105 250 -171 44 -22 97 -52 117 -65 21 -12
40 -23 44 -23 17 0 92 -70 128 -120 117 -159 257 -535 256 -689 0 -133 -5
-140 -80 -111 -29 11 -71 33 -94 48 -66 45 -116 68 -232 105 -105 34 -160 47
-364 88 -75 14 -123 32 -230 86 -178 89 -228 123 -275 184 -61 81 -102 123
-108 113 -3 -5 11 -34 32 -64 20 -30 52 -76 69 -102 18 -26 47 -56 65 -67 18
-11 44 -32 57 -46 l25 -27 -87 4 c-77 4 -91 8 -124 34 -21 16 -48 36 -60 44
-66 44 -150 105 -160 114 -6 6 -31 27 -57 46 -33 25 -49 46 -57 75 -30 110
-100 198 -100 128 l-1 -28 -28 34 c-43 52 -63 28 -36 -44 5 -13 -4 -7 -23 15
-17 19 -34 32 -37 28 -3 -3 0 -12 8 -20 15 -14 32 -58 23 -58 -2 0 -11 6 -18
13 -7 6 -32 25 -55 41 -23 15 -45 36 -48 46 -3 9 -15 26 -26 36 -17 15 -22 16
-29 4 -7 -11 -11 -9 -19 11 -5 13 -12 36 -15 52 -6 27 -36 39 -36 15 0 -7 -14
1 -29 19 -16 17 -38 36 -49 42 -13 7 -23 26 -27 51 -4 22 -11 42 -16 46 -12 7
-11 -39 1 -91 9 -40 5 -59 -8 -38 -8 12 -62 36 -68 30 -7 -6 72 -65 92 -69 15
-2 18 2 16 21 -4 24 -3 24 32 -7 20 -18 42 -32 49 -32 7 0 19 -21 26 -47 16
-53 25 -63 58 -63 15 0 28 -11 38 -31 10 -19 22 -29 30 -25 8 3 17 1 20 -5 7
-10 75 -43 114 -54 19 -6 23 -4 18 9 -3 8 -1 18 4 22 6 3 8 15 6 26 -5 19 -5
19 14 2 10 -9 19 -23 19 -29 0 -20 30 -41 39 -27 4 8 16 -8 30 -40 26 -61 77
-108 241 -220 137 -93 195 -120 270 -121 47 -1 63 3 82 19 13 12 29 19 36 17
21 -8 13 -24 -19 -35 -23 -8 -29 -15 -26 -29 3 -11 -3 -37 -14 -59 -10 -21
-19 -46 -19 -53 0 -13 -7 -13 -46 -3 -43 11 -47 14 -66 66 -11 30 -22 63 -25
73 -9 29 -26 20 -18 -10 9 -32 14 -172 8 -189 -2 -7 -12 -10 -22 -7 -15 4 -19
18 -24 69 -5 64 -48 174 -68 174 -11 0 -11 -1 1 -36 13 -38 28 -154 20 -154
-8 0 -80 74 -80 83 0 14 -50 87 -60 87 -6 0 -7 -7 -1 -17 4 -10 13 -31 18 -48
6 -16 14 -39 18 -50 5 -11 -37 26 -93 83 -97 98 -136 126 -112 83 22 -42 10
-48 -27 -15 -32 29 -38 32 -46 18 -6 -10 -3 -21 8 -34 10 -11 12 -20 6 -24 -5
-4 -22 21 -37 54 -18 41 -35 63 -54 72 -25 11 -27 16 -24 56 6 64 -17 50 -34
-21 -14 -55 -15 -57 -48 -57 -19 0 -35 1 -37 3 -2 1 -20 -11 -40 -26 -41 -31
-46 -21 -17 33 26 50 60 122 60 128 0 3 -10 -4 -22 -15 -39 -35 -47 -35 -121
-6 l-72 28 47 3 c38 2 52 9 73 33 14 17 25 40 24 52 l0 22 -16 -22 c-12 -18
-19 -20 -33 -13 -15 8 -16 14 -7 35 7 14 15 25 20 25 4 0 7 7 7 15 0 9 -31 30
-77 53 -68 32 -78 40 -79 64 -1 19 -24 51 -81 112 -69 72 -130 162 -119 173 2
2 29 -8 61 -22 81 -35 96 -34 74 7 -9 16 -13 18 -19 7 -10 -15 -35 10 -161
151 -131 148 -167 200 -175 254 l-7 49 32 -23 c18 -12 35 -29 38 -36 6 -16 33
-19 33 -4 0 34 -134 343 -253 585 -44 88 -94 201 -112 250 -68 185 -124 275
-209 337 -28 20 -34 28 -20 28 10 0 43 -24 73 -52 83 -78 75 -39 -10 51 -41
43 -89 96 -107 119 -18 23 -37 42 -43 42 -13 0 30 -83 49 -94 12 -7 9 -12 -13
-31 -37 -28 -31 -41 47 -105 67 -56 96 -101 147 -230 16 -41 50 -117 75 -168
25 -51 46 -97 46 -103 0 -5 11 -27 25 -49 14 -22 25 -42 25 -45 0 -3 14 -35
31 -72 33 -71 57 -124 82 -183 9 -19 30 -66 46 -104 35 -79 36 -83 16 -66 -8
7 -22 9 -31 6 -14 -5 -16 -16 -10 -67 9 -87 32 -131 132 -248 61 -71 88 -110
86 -124 -10 -55 44 -163 123 -251 38 -41 42 -52 23 -59 -24 -9 7 -40 100 -102
50 -33 91 -63 92 -67 0 -5 -9 -8 -20 -8 -34 0 -36 -29 -4 -56 l29 -23 -37 -1
c-34 0 -68 -20 -68 -41 0 -18 38 -47 86 -65 27 -10 59 -24 70 -31 21 -13 21
-15 4 -47 -37 -74 12 -136 67 -85 28 27 133 44 133 22 0 -17 11 -16 35 1 18
13 22 11 42 -19 13 -19 23 -38 23 -43 0 -5 6 -15 14 -21 11 -10 17 -7 29 9
l15 22 12 -22 c11 -21 21 -22 62 -5 14 6 22 -2 38 -40 11 -26 20 -55 20 -65 0
-9 7 -23 15 -30 12 -10 20 -9 40 4 32 21 52 20 100 -7 38 -22 59 -52 92 -133
28 -68 103 -310 114 -367 21 -109 60 -174 95 -160 12 5 15 2 11 -13 -23 -77
-31 -168 -30 -342 2 -141 5 -198 15 -209 10 -13 27 -14 91 -10 84 7 141 32
312 137 39 24 90 52 114 63 l45 20 23 -29 c13 -16 23 -37 23 -47 0 -10 52 -70
116 -135 64 -64 130 -137 146 -162 40 -59 109 -130 125 -130 24 0 89 47 129
93 50 57 143 238 174 337 13 41 25 82 28 90 3 9 8 4 12 -15 47 -182 107 -325
138 -325 19 0 126 106 196 196 36 45 84 138 91 174 1 8 6 35 10 60 4 25 9 54
12 65 2 11 6 79 8 150 4 99 -1 177 -20 327 -14 108 -25 232 -25 275 -1 53 -7
96 -21 133 -11 30 -31 91 -45 135 -25 77 -85 204 -147 310 -17 28 -42 73 -57
100 -15 28 -46 80 -69 118 -23 37 -69 120 -102 185 -161 309 -186 352 -244
417 -15 17 -34 40 -42 53 -9 12 -19 22 -24 22 -8 0 -51 29 -244 162 -115 80
-141 96 -258 160 -62 34 -133 76 -160 95 -26 18 -50 33 -53 33 -3 0 -22 13
-42 29 -20 16 -82 55 -137 86 -55 32 -109 65 -120 75 -11 9 -60 41 -109 69
-105 62 -225 141 -281 186 -22 18 -121 86 -220 152 -99 66 -207 142 -240 169
-107 87 -178 109 -191 59 -3 -13 -1 -38 4 -55 l11 -30 -75 40 c-41 22 -108 58
-149 80 -41 22 -87 40 -102 40 -32 0 -66 37 -107 118 -30 60 -53 67 -85 26z
m903 -2240 c3 -8 2 -12 -4 -9 -6 3 -10 10 -10 16 0 14 7 11 14 -7z m944 -535
c29 -10 62 -29 73 -41 30 -35 132 -188 151 -228 36 -76 11 38 -39 178 -8 24
-14 45 -12 47 6 5 131 -23 225 -50 126 -36 208 -81 241 -129 30 -44 131 -167
145 -177 11 -7 68 -120 68 -136 0 -7 11 -36 24 -65 60 -131 121 -401 110 -486
-23 -182 -125 -366 -247 -445 -28 -18 -29 -18 -49 0 -11 10 -41 45 -66 78 -26
33 -91 106 -146 163 -114 117 -159 191 -181 297 -21 99 -31 197 -33 333 -1 45
-6 82 -11 82 -14 0 -13 -216 3 -331 7 -58 12 -118 9 -132 -5 -27 -14 -32 -233
-155 -92 -52 -125 -65 -175 -68 -27 -2 -57 -1 -66 1 -26 9 -42 83 -44 215 -3
144 15 274 51 373 13 38 24 75 24 83 0 28 -17 13 -29 -26 -7 -22 -22 -57 -33
-77 l-22 -36 -21 25 c-14 16 -28 57 -39 114 -14 70 -82 276 -130 394 -5 11 3
18 26 25 23 7 34 17 36 32 3 22 3 22 34 3 18 -10 35 -17 39 -14 5 2 13 -5 19
-16 14 -26 40 -26 47 0 3 11 9 20 13 20 7 0 14 -21 40 -127 6 -24 13 -43 15
-43 6 0 -3 46 -26 139 -17 64 -17 82 -7 133 11 53 13 56 29 43 14 -14 18 -14
29 0 7 9 10 27 6 45 l-6 30 53 -26 c28 -15 76 -35 105 -45z m-675 -42 c-3 -5
-14 1 -24 14 -27 35 -23 46 6 19 13 -12 22 -27 18 -33z m814 5 c11 -7 43 -83
43 -101 0 -3 -12 12 -27 34 -15 22 -33 46 -40 53 -7 7 -13 15 -13 18 0 7 24 4
37 -4z"/>
<path d="M4352 9953 c-32 -97 -38 -151 -19 -158 13 -6 13 -13 1 -58 -8 -29
-13 -63 -13 -77 1 -18 4 -14 10 14 5 22 14 44 19 51 5 6 13 30 18 53 8 34 7
44 -5 50 -12 7 -10 20 12 86 25 73 27 106 8 106 -5 0 -19 -30 -31 -67z"/>
<path d="M7764 10006 c-3 -7 7 -49 21 -92 22 -66 24 -79 12 -86 -12 -6 -13
-16 -6 -49 5 -23 16 -51 24 -63 8 -11 16 -34 16 -51 1 -22 3 -24 6 -8 2 11 -2
46 -10 76 -13 49 -13 56 0 61 20 8 13 73 -18 159 -24 67 -35 80 -45 53z"/>
</g>
</svg>
