<?xml version="1.0" encoding="utf-8"?>
<!-- Generator: Adobe Illustrator 16.0.0, SVG Export Plug-In . SVG Version: 6.00 Build 0)  -->
<!DOCTYPE svg PUBLIC "-//W3C//DTD SVG 1.1//EN" "http://www.w3.org/Graphics/SVG/1.1/DTD/svg11.dtd">
<svg version="1.1" id="Layer_1" xmlns="http://www.w3.org/2000/svg" xmlns:xlink="http://www.w3.org/1999/xlink" x="0px" y="0px"
	 width="1200px" height="1600px" viewBox="0 0 1200 1600" enable-background="new 0 0 1200 1600" xml:space="preserve">
<g transform="translate(0.000000,1600.000000) scale(0.100000,-0.100000)">
	<path d="M5650,9599.998c-130.996-24.004-177.998-47.002-257.002-127.002c-70.996-70.996-192.998-247.002-275-397.998
		c-45-80.996-60-112.998-102.998-210c-7.002-15.995-25-64.003-39.004-104.999c-13.994-40.996-35.996-97.002-50-125
		c-12.998-27.002-21.992-52.998-20-57.002c3.008-3.994-7.998-32.998-23.994-65c-16.006-32.002-35-73.994-42.002-92.998
		c-7.998-19.004-45-65.996-82.002-104.004c-37.002-38.994-67.998-72.998-67.998-75.996c0-4.004-10.996-20-25-35.996
		c-20.996-25-77.002-132.002-130-249.004c-32.002-70.996-72.998-185.996-100-280.996c-15-52.002-15.996-72.002-5.996-125
		c11.992-69.004,2.998-91.006-43.008-103.008c-12.998-2.998-27.998-17.998-33.994-32.998
		c-12.998-32.002-42.998-147.998-47.002-177.998c-0.996-10.996-4.004-20-5-20s-4.004-9.004-5.996-20
		c-2.002-10.996-8.008-45-14.004-75c-27.998-147.998-45-385-44.004-605c1.006-90,13.008-354.004,18.008-380
		c1.992-10.996,6.992-55.996,10-100c6.992-89.004,18.994-190,40.996-340c7.998-55,17.002-125,20-155
		c22.998-229.004,62.998-449.004,85.996-474.004c4.004-5,7.002,9.004,6.006,32.002c-2.998,46.006,7.002,47.998,15.996,2.002
		c4.004-15.996,11.006-30,16.006-30s7.998,10,5.996,22.002c-2.998,12.002,0,25,5,27.998s-2.002,54.004-15.996,120
		c-14.004,62.998-27.002,130.996-30,150c-3.008,19.004-8.008,42.002-12.002,50c-2.998,7.998-7.002,25-7.998,37.002
		c-1.006,12.002-7.002,47.002-13.008,77.998c-5.996,30.996-10,59.004-8.994,62.998c0.996,4.004-2.002,14.004-5,22.002
		c-24.004,62.002-67.002,452.002-72.002,652.002c-0.996,92.002-5.996,172.002-10.996,178.994
		c-4.004,7.002-3.008,14.004,2.998,16.006c7.002,2.998,7.998,15.996,2.998,40c-7.998,35.996-5,185.996,5.996,272.998
		c3.008,25,7.002,67.998,9.004,95c2.002,27.998,12.002,89.004,20.996,135.996c13.008,64.004,21.006,85,33.008,85
		c53.994,1.006,80.996,6.006,92.998,18.008c7.998,6.992,25,16.992,37.998,20.996c37.002,10.996,160.996,145.996,157.998,170
		c-2.002,12.002-28.994,35-72.998,62.002c-37.998,22.998-77.002,47.002-85,52.002c-12.002,6.992-12.002,11.992-2.998,21.992
		c8.994,9.004,15.996,9.004,25,2.002c20.996-17.998,158.994-55,182.002-50c62.998,15,217.998,86.006,210.996,97.002
		c-2.998,5,10.996,40.996,30.996,80.996c103.008,207.002,110.254,256.504-55.996,409.004
		c-42.002,48.994-86.758,140.752-88.75,218.75c-1.006,65,29.746,78.252,56.748,135.254c17.002,35.996,32.002,65.996,34.004,65.996
		s3.994-10,2.998-22.002c0-12.998,4.004-23.994,10-25c5-0.996,12.002-10,15.996-20c7.002-15.996,8.008-15,8.008,4.004
		c0.996,12.002,11.992,57.002,25,100c12.998,42.998,35.996,118.994,50.996,167.998c27.998,92.998,44.004,132.002,100.996,249.003
		c35,70.996,43.008,102.998,23.008,90c-31.006-19.004,147.998,271.992,225,365.996c80.996,97.998,106.992,135.996,98.994,144.004
		c-10,10,29.004,46.992,77.002,70.996c45.996,22.002,107.002,40,177.002,50.996c77.002,11.006,97.002,15,102.002,20
		C5807.001,9624.002,5744.003,9617.996,5650,9599.998z M4755,8225.995c-15-22.998-15-23.994,2.998-20c16.006,5,21.006-5,36.006-60
		c20-72.998,58.994-140,117.998-200.996c65.996-70,83.164-82.5,82.168-147.5c0-40.996-13.164-83.496-29.17-117.5
		c-81.992-177.002-87.998-175.996-117.002-170.996c-3.994,0-22.002,2.998-40,5c-17.998,2.998-55,10-82.998,15.996
		c-27.002,5.996-67.998,15-90,19.004c-22.002,5-65.996,17.998-97.002,28.994c-32.002,12.002-57.998,17.002-57.998,12.998
		c0-8.994,99.004-50.996,120.996-50.996c9.004,0,19.004-2.998,23.008-7.002c2.998-3.994,12.998-7.998,21.992-8.994
		c8.008-1.006,36.006-7.002,62.002-13.008c26.006-5.996,61.006-12.998,77.002-16.992l48.335-10.674c0,0-54.004-27.852-65-31.855
		c-50.996-20.996-125.337-27.637-173.335-5.645c-143.994,65-125,71.172-125,120.166c0,52.002,15.996,102.002,104.004,324.004
		c85.996,217.998,126.992,297.002,140,267.998c2.998-7.002,2.998-2.998,0,9.004c-3.008,13.994,5,35,22.998,60.996
		C4767.001,8269.999,4782.998,8269.003,4755,8225.995z M4548.75,7389.374c33.994-19.004,75-56.25,80-61.25
		c11.992-10.996-122.002-157.627-155-170.625c-12.002-4.004-54.248-25.752-81.25-28.75l-51.504,10.254L4370,7247.001
		c40.996,157.002,54.375,184.873,89.375,184.873C4475.371,7431.874,4513.75,7409.374,4548.75,7389.374z"/>
	<path d="M6370,9610.994c7.998-5,35-11.992,60-15c100.996-12.998,179.004-35,220.996-60.996c50-30.996,61.006-44.004,54.004-62.002
		c-2.002-7.002,0-12.998,5-12.998c5.996,0,10-5,10-10.996c0-9.004,65.996-97.002,90-119.004
		c67.002-64.004,237.998-347.998,219.004-367.002c-5-5,5-37.998,30-87.998c65-134.003,86.992-192.997,135.996-369.999
		c25.996-92.998,52.002-174.004,57.002-180c5.996-5.996,7.002,0.996,2.998,20c-5,22.002-4.004,25.996,2.998,15.996
		c7.998-10.996,11.006-6.992,14.004,20l3.994,34.004l32.002-65c31.006-62.002,32.002-69.004,26.006-145
		c-3.008-44.004-10-87.002-14.004-95s-7.998-17.002-7.002-20c2.002-15.996-40.996-84.004-87.998-139.004
		c-42.002-48.994-57.002-76.992-65.996-118.994c-15-67.002-7.002-104.004,52.998-227.998c22.998-49.004,42.002-92.002,40-96.006
		c-6.006-20.996,180.996-97.998,237.998-97.998c19.004,0,65.996,10.996,105,25c50,17.002,70.996,20.996,77.002,12.002
		c5-9.004-40-47.002-57.002-47.002c-2.998,0-27.002-14.004-54.004-30c-60-37.002-67.998-60-31.992-92.998
		c13.994-12.998,42.998-42.998,63.994-65c45-49.004,115-86.006,179.004-96.006c35-5,45.996-10.996,45.996-23.994
		c-0.996-9.004,4.004-35,10-57.002c6.006-22.002,16.006-85.996,22.998-142.002c10-82.002,9.004-105-0.996-117.998
		c-10-12.002-9.004-15.996,4.004-20.996c15.996-6.006,16.992-33.008,10.996-313.008c-2.998-167.998-7.998-316.992-10-330.996
		c-2.998-14.004-7.002-52.002-10-85c-7.002-79.004-14.004-134.004-20-164.004c-2.002-13.994-7.002-46.992-10-75
		c-2.998-27.998-14.004-93.994-24.004-145.996s-23.994-124.004-30-160c-6.992-35.996-13.994-75.996-15.996-89.004
		c-5.996-31.992-44.004-197.998-55-237.998c-7.998-33.994,4.004-47.002,14.004-15c2.998,9.004,2.998,0,0-20
		c-6.006-48.994,10.996-48.994,25,0l10,37.002l-2.002-47.002c-7.998-177.002,72.998,192.998,88.994,407.002
		c3.008,39.004,14.004,124.004,24.004,190s20.996,152.002,25,190c2.998,39.004,10,102.002,15,140
		c32.998,252.998,32.998,767.998,0,1010c-24.004,172.998-35.996,232.998-62.002,315c-25,77.998-32.998,90-62.998,90
		c-32.998,0-57.998,42.002-45,75c5.996,15,10,37.002,10,50.996c0,13.008,4.004,24.004,9.004,24.004c15,0-42.002,187.998-96.006,315
		c-90.996,212.998-130.996,279.004-232.998,385.996c-55,57.002-82.002,96.006-115.996,167.002
		c-24.004,51.006-44.004,99.004-44.004,105c0,21.006-27.002,89.004-37.002,96.006c-5.996,2.998-20,40-32.998,80.996
		s-32.002,95-44.004,119.999c-10.996,25-20.996,47.002-20.996,50c-2.998,17.998-115,220.996-165,300
		c-32.998,52.002-72.998,115-87.998,139.004c-29.004,45.996-67.998,95.996-56.006,70.996c4.004-7.998-16.992,12.002-46.992,44.004
		c-65,71.992-127.002,101.992-264.004,126.992C6382.998,9622,6345.996,9624.998,6370,9610.994z M7437.998,8192.997
		c41.006-72.002,112.998-217.002,155-317.998c27.998-67.002,106.016-267.07,97.002-275c-62.5-55-258.506-87.832-297.5-95.83
		c-39.004-8.008-103.672-14.668-111.67-11.67c-17.002,7.002-92.334,187.5-108.33,247.5c-12.002,47.002-8.486,106.006,13.506,140
		c8.008,12.002,50.996,64.004,83.994,100c57.998,64.004,82.5,154.248,82.5,206.25c0,35.996,27.5,32.754,44.502,26.748
		c12.998-5,12.998-2.998,3.994,15c-10.996,21.006-13.994,32.002-6.992,32.002
		C7395.996,8259.999,7415.996,8229.999,7437.998,8192.997z M7690,7550.995c-4.004-15.996-5.996-31.992-2.998-33.994
		c5.996-6.006-101.006-57.002-121.006-57.002c-7.998,0-17.998-4.004-20.996-10c-10.996-17.998-100.996-10.996-152.002,10.996
		L7345,7482.997l45,9.004c107.998,22.002,210,48.994,250.996,67.998C7697.998,7585.995,7700,7584.999,7690,7550.995z
		 M7747.998,7404.003c-2.998-3.008,4.004-40,17.002-82.002s25.996-92.998,30-112.002s9.004-42.002,10.996-50.996
		c7.002-24.004-58.994-23.008-105.996,0.996c-40,20-162.002,147.998-154.004,160.996c12.002,20,151.006,89.004,178.008,89.004
		C7740,7409.999,7750.996,7407.001,7747.998,7404.003z"/>
	<path d="M5715.996,9332.996c-5.996-13.994-5-15,5-5.996c7.002,7.002,10,15,7.002,17.998S5719.003,9342.996,5715.996,9332.996z"/>
	<path d="M5744.003,9332.996c3.994-3.994,18.994-8.994,33.994-10.996s62.998-10,107.002-19.004
		c110.996-22.998,541.67-13.197,541.67,8.805c0,5-100.996-10.889-215-13.887c-182.002-3.994-244.009-1.494-350.005,16.514
		C5726.665,9337.426,5734.003,9342.996,5744.003,9332.996z"/>
	<path d="M7650.996,5392.001c-36.992,72.002-47.998,87.002-106.992,150l-48.008,50.996l-125-5
		c-68.994-2.002-115-0.996-100.996,2.998c20,6.006,20.996,7.002,5,8.008c-19.004,0-229.004-49.004-270-64.004
		c-10.996-2.998,12.002,12.002,50,34.004c70,40.996,177.998,80.996,217.998,80.996c16.006,0,17.998,2.998,10,10.996
		c-17.998,18.008-92.998-5-202.998-60c-52.002-25.996-100.996-45.996-107.998-42.998c-7.998,2.002-12.002-7.002-12.002-27.002
		c0-28.994,2.998-30.996,30-28.994c17.002,0.996,30,5,30,7.998c0,5.996,99.004,40,115.996,40c5,0-15.996-12.998-45.996-29.004
		c-120-60.996-117.998-60-135-133.994c-9.004-37.998-19.004-112.002-22.002-165c-5-79.004-7.998-92.002-15.996-72.002
		c-6.006,14.004-17.998,42.002-27.998,62.998c-9.004,20-13.008,37.002-8.008,37.002s9.004,10,9.004,22.002
		c0,22.002-20.996,57.002-90.996,152.998c-30,40.996-44.004,77.002-73.008,190c-41.992,165-105,329.004-233.994,607.002
		c-22.002,47.998-44.004,97.998-47.998,110c-3.008,12.998-29.004,68.994-55,125c-27.002,57.002-49.004,107.998-49.004,112.998
		c0,5.996-4.004,17.998-10,27.998c-20,37.002-89.004,266.006-90,299.004c0,5.996,15.996,20.996,35.996,32.002
		c43.008,25,41.006,38.994-1.992,15.996c-16.006-7.998-32.002-15-36.006-15c-10,0-25,57.998-40.996,160.996l-14.004,86.006
		l36.006-7.998c20-5,55-4.004,80.996,1.992c47.998,11.006,150,58.008,150,70c0,4.004-17.5-10.869-47.5-27.871
		c-60-32.002-158.633-49.121-200.625-33.125c-28.008,11.006-19.873,12.002-37.871,237.998l-7.002,82.002l38.994,0.996
		c22.002,0,57.002,4.004,79.004,8.008c35.996,7.998-15.332-8.896-79.375,2.246c-6.67,1.162-25.625,8.75-25.625,8.75v29.004
		c0,46.992,19.004,133.994,34.004,150c6.992,8.994,10.996,20.996,8.994,27.998c-2.002,5.996,26.006,40,62.002,75
		c37.002,33.994,80,82.998,97.002,107.998s27.998,35.996,23.994,25c-5.996-19.004-5.996-19.004,9.004-0.996
		c7.998,10,12.002,22.998,9.004,26.992c-3.008,5,0,9.004,5.996,9.004s9.004,4.004,5.996,9.004c-3.994,5-2.998,10.996,2.002,12.998
		c4.004,0.996,29.004,50,56.006,107.998c26.992,57.998,65,122.998,85.996,145.996c35.996,39.004,39.004,40,44.004,20
		c2.998-10.996,5.996-75.996,5.996-142.998v-122.002c0,0-57.08-47.061-85.83-65.576c-49.17-31.67-74.336-46.338-98.34-53.34
		c-37.002-10-73.828-32.08-51.826-32.08c12.998,0,130.996,60.996,160.996,84.004c17.002,12.998,40,27.998,52.998,35l22.998,11.992
		l-5.996-67.998c-9.004-108.994-15-162.998-25.996-237.002l-11.006-67.998l-55-25c-30-13.994-52.002-27.002-50-30
		c2.998-2.002,24.004,5,47.002,17.002l40.996,20.996l-5.996-37.998c-20.996-120-57.002-258.994-72.002-275.996
		c-10-10-17.002-27.002-15-37.002s-5.996-42.002-17.998-70.996c-25-66.006-25-73.008-2.002-34.004
		c22.002,35.996,67.5,191.494,89.502,277.5c35,142.002,90.498,405.498,90.498,467.5c0,7.998,2.998,70.996,7.002,140
		c7.998,137.002-5.996,342.998-25,365c-14.004,15.996-7.002,42.998,17.998,70.996c9.004,11.006,26.006,31.006,37.002,44.004l20,25
		l-25.996-22.002c-30-27.002-49.004-30.996-27.002-5c22.002,24.004,47.998,82.002,47.998,104.004c0,10,5,17.998,10.996,17.998
		c7.002,0,9.004,15.996,5,47.998c-3.994,26.006-7.998,62.998-10.996,82.002c-5,40-12.002,62.002-54.004,177.001
		c-15.996,45-38.994,90.996-50,102.002c-10.996,10.996-23.994,35-30,52.998c-27.998,95-77.998,218.994-86.992,215.996
		c-5-2.002-8.008-5-7.002-7.998c0.996-2.998,13.994-35.996,27.998-75c14.004-37.998,27.998-77.002,32.002-85
		c2.998-7.998,7.002-20,7.998-25c7.002-32.002,59.004-152.002,70-160c12.998-10.996,40-89.999,49.004-147.001
		c5.996-35.996,12.998-42.5-44.004-75.498c-123.994-70.996-232.754-90.254-533.75-86.25c-217.998,1.992-275.498,7.5-367.5,32.5
		c-88.994,24.004-189.746,91.25-188.75,109.248c2.002,32.998,34.004,132.997,55,172.997c25,48.008,69.004,161.006,100.996,258.008
		c7.002,23.994,19.004,50,25,56.992c6.006,8.008,8.008,14.004,4.004,14.004s-2.002,7.002,5,15c10,12.002,10,15-2.002,15
		c-8.994,0-22.002-22.002-32.998-57.002c-10.996-32.002-22.998-62.002-27.002-67.002c-3.994-5.996-7.998-17.998-7.998-27.998
		s-5-17.998-12.002-17.998c-5.996,0-7.998-2.998-5-7.002c4.004-2.998,2.002-12.002-3.994-18.994c-6.006-7.002-12.002-25-14.004-40
		c-0.996-15-10-33.008-17.998-39.004c-17.998-12.998-80-165.996-100-249.999c-16.006-65-27.998-182.998-17.002-164.004
		c7.002,11.006,25.996-56.992,20.996-75.996c-1.992-5,1.006-7.002,5-2.002c7.002,7.002,36.006-43.994,38.008-67.998
		c0.996-5,6.992-20,13.994-32.998c14.004-24.004,7.998-102.002-7.002-102.002c-2.241,0-3.965-11.167-5.229-30.054
		c28.325-10.742,61.235-35.122,56.968-65.41l2.266-2.534c25-27.002,60.996-87.002,85.996-142.002
		c24.004-52.002,47.002-97.002,51.006-97.998c5-2.002,5.996-7.998,2.002-12.998c-3.008-5,0-9.004,5.996-9.004
		c7.002,0,10-5.996,7.002-14.004c-2.998-7.998,2.002-20,10.996-27.998c15-12.002,16.006-10.996,2.998,5
		c-6.992,9.004-10.996,17.002-7.998,17.002s20-20.996,37.002-47.002c17.998-27.002,62.998-77.002,102.002-112.002
		c37.998-35,67.002-68.994,63.994-75.996c-1.992-7.002,0-17.002,6.006-22.998c8.994-9.004,35.996-130,37.002-169.004
		c5.161-23.828-29.004-21.748-67.339-18.828c-71.802,5.469-75.669,3.828-31.665-5.166c25-6.006,57.998-8.008,74.004-6.006
		l28.994,4.004l-5.996-116.006c-4.004-63.994-7.998-125-11.006-135.996c-1.992-10.996-5-30-5-42.002
		c-0.996-17.998-8.369-31.123-45.371-36.123c-62.002-10-133.994,15.254-205,61.25c-66.992,44.004-65.063,61.211-112.5,230
		c-33.96,120.83-13.125,115.879,9.873,106.875c75-32.002,112.002-44.004,112.002-35.996c0,7.998-12.08,0.576-100.83,36.416
		c-2.778,1.123-16.172,15.576-31.172,25.576c-22.002,16.006-27.002,29.004-32.002,81.006c-3.994,35-10.996,98.994-16.992,142.998
		c-6.006,44.004-9.004,97.002-7.002,119.004l2.998,37.998l62.998-46.006c34.004-25,65-45.996,67.998-45.996
		c3.008,0,26.006-9.004,51.006-20.996c25-11.006,47.002-18.008,50-15c7.002,5.996-48.911,35.576-64.917,35.576
		c-27.998,0-48.159,6.172-114.165,59.17c-76.992,60.996-67.92,65.254-67.92,145.254c0,40,2.998,100,5.996,133.994l2.266,19.727
		c-2.656,3.564-5.4,7.065-8.76,10.112c-1.797,1.631-3.716,3.145-5.664,4.624c-2.705-116.152,2.188-332.598,12.158-434.463
		c22.002-222.998,100.347-519.17,167.339-672.168c10-23.994,14.663-45.83,19.663-45.83c4.004,0,2.998,9.004-2.998,20.996
		c-15.996,29.004-40,112.002-35,118.008c2.998,1.992,19.004-5,35-18.008c57.002-40.996,122.002-63.994,187.002-63.994
		c70,0,65.996,18.994,35.996-144.004c-8.994-50.996-20.996-92.998-25.996-92.998s-25,9.004-42.998,20.996
		c-26.006,15-33.008,17.002-28.008,6.006c3.008-9.004,21.006-22.998,41.006-32.002c22.998-10.996,32.998-22.002,28.994-30.996
		c-2.998-8.008-12.998-43.008-21.992-77.002c-31.006-122.998-74.004-241.006-141.006-387.002
		c-18.994-40.996-37.998-84.004-42.998-95c-30-70.996-147.998-340.996-172.002-395c-40.996-92.002-82.998-217.002-115.996-345
		c-25-97.998-36.006-122.002-95-210.996c-65-98.008-82.998-142.002-52.998-131.006c7.998,2.998,0.996-17.002-17.002-48.994
		L5225,5147.997l-5.996,99.004c-3.008,53.994-13.008,122.998-22.002,153.994c-16.006,55-17.998,56.006-99.004,102.002
		c-45.996,26.006-80,47.002-77.002,47.002c4.004,0,41.006-10.996,84.004-25c49.004-15.996,82.002-22.002,87.998-15.996
		c12.998,12.998-2.002,53.994-17.998,46.992c-7.002-1.992-27.998,6.006-45.996,18.008c-47.002,30-145,72.998-197.002,83.994
		c-45,11.006-60,4.004-82.002-38.994c-7.998-14.004-7.998-20,2.002-23.008c37.002-11.992,38.994-15,5-10
		c-21.006,3.008-74.004,5-117.998,6.006c-81.006,0-81.006,0-121.006-37.998c-43.994-43.008-80.996-95-115-164.004
		c-22.998-45-30-85.996-13.994-75.996c5,2.998,10.996-9.004,13.994-27.002c17.998-107.002,96.006-222.002,195-286.006
		c55-35,64.004-37.998,56.006-15.996c-4.004,7.998-10,15-14.004,15c-5,0-40,30-79.004,67.998
		c-125,120-172.744,240.752-119.746,360.752c25.996,60,95.996,131.25,135,141.25c31.992,7.998,210.996-0.244,285-16.25
		c32.998-6.992,81.748-42.754,115.752-57.754c58.994-26.992,98.252-34.746,109.248-79.746c5.996-25-0.498-47.754,2.5-58.75
		c16.006-64.004,17.5-128.75,17.5-188.75c0-61.006-19.248-70.752-43.252-93.75c-15.996-14.004-65-44.004-110.996-65.996
		c-87.002-43.008-104.004-59.004-35-35c98.994,35,150,68.994,200.996,135l19.004,25l-5-34.004
		c-2.998-22.998-1.006-30.996,7.002-25.996c5.996,3.994,10.996,13.994,10.996,21.992c0,9.004,12.002,36.006,27.002,62.002
		c15,25,25.996,56.006,25,69.004c-1.006,12.002,10.996,42.002,27.002,65c95.996,142.002,103.994,160,156.992,340.996
		c29.004,100,62.002,207.002,73.008,237.002c60,165,92.998,244.004,118.994,282.002c15,23.994,40,63.994,55,88.994
		c49.004,85,207.998,488.008,222.002,562.002c2.998,12.002,10.996,54.004,19.004,92.002c52.998,252.998,77.998,465.996,75,642.002
		c-2.002,110.996,6.992,137.002,38.994,117.002c15-10,17.998-37.002,22.998-205c11.006-327.002,70-637.002,169.004-884.004
		c29.004-72.002,60.996-150,70.996-175c24.004-60,95-195,130-245.996c38.008-55,136.006-320,185-497.002
		c57.002-207.002,48.008-185,134.004-320c27.998-42.998,50-85,50-92.998c0-18.008,27.998-73.008,45.996-92.002
		c8.008-7.002,14.004-17.002,14.004-22.002s5.996-7.002,14.004-4.004c8.994,3.008,16.992-2.998,20.996-15
		c14.004-43.994,125-111.992,205-125c19.004-2.998,27.998-2.998,20,1.006c-80.996,33.994-148.496,57.471-177.5,84.473
		c-32.002,30-46.25,53.027-46.25,101.025c0,52.002,25.254,209.756,46.25,273.75c20.996,62.002,184.502,126.006,377.5,135
		l121.25,6.25l36.748-52.5c61.006-52.998,122.51-148.252,114.502-216.25c-10.996-99.004-60.986-187.744-194.99-303.75
		c-19.004-16.992-58.506-35-54.512-35c22.998,0,89.004,45,142.998,99.004c65,63.994,114.004,158.994,114.004,220.996
		c0,22.002,4.004,27.998,15,24.004C7687.001,5304.999,7682.998,5327.997,7650.996,5392.001z M4874.003,5627.001
		c12.998,27.002,20.996,27.998,82.998,7.002c50-16.006,180.996-80,197.002-94.004c5-5-9.004-2.998-30,5
		c-22.002,7.002-89.004,22.998-150,35.996C4865,5604.003,4864.003,5604.003,4874.003,5627.001z M6559.003,8332.997
		c5,12.002,11.992,30,15,40c2.998,10,10,16.006,15,12.002c5.996-2.998,0.996-20-10-40
		C6555,8304.999,6545.996,8299.003,6559.003,8332.997z M6570.996,8267.001c-10-9.004-10.996-7.998-5,5.996
		c3.008,10,9.004,15,12.002,12.002S6577.998,8274.003,6570.996,8267.001z M6607.998,8329.999c2.002-5.996-0.996-17.002-7.002-22.998
		c-15.996-16.006-25.996,0-10,18.994C6600,8337.001,6605.996,8337.997,6607.998,8329.999z M5585.996,8269.003
		c-8.994,6.992-15.996,20-15.996,26.992c0,8.008-4.004,14.004-10,14.004c-5,0-10,7.998-10,17.002c0,20,2.002,17.998,30-32.002
		C5595,8267.997,5597.001,8259.999,5585.996,8269.003z M5580.996,8339.999c-23.994,42.002-26.992,57.002-5.996,37.002
		c7.002-7.998,17.002-27.998,20-42.998C5600.996,8305.995,5600,8305.995,5580.996,8339.999z M5855.996,7859.999
		c-45,47.998-78.994,105-127.998,219.004c-30,67.998-30.996,66.992,36.006,12.998c26.992-22.002,116.992-71.006,132.998-72.998
		c5-1.006,18.994-6.006,32.002-11.006c12.998-5,48.994-10.996,80-12.998l55.996-4.004l-95,13.169
		c-92.285,21.938-168.33,57.637-263.33,145.635c-42.002,39.004-103.672,268.198-65.674,245.2c4.004-2.998,7.002-10.996,5-17.998
		c-0.996-7.002-0.996-9.004,2.002-4.004c2.002,4.004,12.998,12.002,24.004,17.998c12.002,7.002,17.998,7.002,13.994,1.006
		c-7.998-12.998,19.004-24.004,64.004-27.002c37.002-2.998,92.998-12.002,122.998-20.996c22.998-7.002,56.006-12.002,122.002-18.008
		l50-5l-45,10c-25,6.006-95,21.006-157.002,35c-267.998,59.004-357.002,154.004-345,367.002l2.002,27.998l42.998-28.994
		c22.998-16.006,57.998-36.006,77.002-46.006c72.002-35,219.004-61.992,330-60c82.002,1.006,184.004,2.002,245,0
		c52.998-0.996,120,5,205,18.008c77.998,11.992,165,45.996,237.002,92.998l25.996,17.002l-5-80
		c-5.996-87.002-25.996-138.008-75.996-189.004c-34.004-35-76.006-70-80-65.996c-1.006,0.996-27.998-7.002-59.004-19.004
		c-63.994-24.004-205.996-55-300-65.996c-35-3.008-62.998-10-62.998-15s5.996-7.002,12.998-4.004
		c6.006,2.002,41.006,5.996,77.002,10c35.996,2.998,80.996,10,100,15s52.998,12.002,75,15.996c22.002,3.008,47.998,10,57.998,16.006
		c10,5,26.006,7.002,34.004,3.994c8.994-3.994,20.996-1.992,27.998,4.004c12.002,10,49.004,9.004,60-2.002
		c10.996-10.996-52.002-207.998-67.002-207.998c-3.994,0-5.996-7.998-5.996-17.002c2.002-32.998-77.002-193.994-127.998-260.996
		C6197.998,7725.995,5995,7712.001,5855.996,7859.999z M5712.998,8384.003c10-3.008,15-9.004,12.002-12.002s-10.996,0-17.998,7.002
		C5697.998,8389.003,5699.003,8389.999,5712.998,8384.003z M6465,8389.999c-2.998-5-12.002-10-17.998-10
		c-7.002,0-6.006,4.004,2.998,10C6469.003,8402.001,6472.998,8402.001,6465,8389.999z M7237.001,5574.003
		c-2.998-3.008-12.002-4.004-19.004-1.006c-7.998,2.998-5,6.006,6.006,6.006C7235,5579.999,7240.996,5577.001,7237.001,5574.003z"/>
	<path d="M6395,8114.999c-57.002-49.004-117.998-89.248-190-106.25c-66.992-15.996-95.996-20.752-49.004-14.746
		c41.006,5.996,84.004,15.996,119.004,27.998c34.004,12.998,144.004,87.998,164.004,112.002
		C6462.001,8162.001,6437.001,8150.995,6395,8114.999z"/>
	<path d="M5640,9029.998c0-5.996,24.004-10,52.998-9.004c41.006,1.006,47.002,3.008,27.002,9.004
		C5684.003,9042,5640,9042,5640,9029.998z"/>
	<path d="M5760,9009.998c20-12.998,82.998-12.998,75,0c-2.998,5.996-25,10-47.998,10C5755.996,9019.998,5749.003,9017,5760,9009.998
		z"/>
	<path d="M6370,8989.998c-40.996-3.994-224.824,0.465-410.835,1.461c-26.182,0-51.631,0.01-76.084,0.02
		c17.422-3.346,34.902-6.367,52.412-9.273c243.667-0.879,546.216,1.055,570.503,5.791c13.008,2.002,24.004,7.998,24.004,12.998
		C6530,9010.994,6485,8999.998,6370,8989.998z"/>
	<path d="M5382.998,8562.001c11.006-11.006,16.006-25,12.998-30c-2.998-5,1.006-9.004,9.004-9.004
		c24.004,0,17.002,22.998-12.002,42.002L5365,8582.997L5382.998,8562.001z"/>
	<path d="M6727.001,8529.003c-50-57.002-92.998-129.004-77.998-129.004c5.996,0,10.996-9.004,10.996-19.004
		c0-10.996,2.998-26.992,5.996-35.996c7.002-17.998,74.004-55,99.004-55c29.004,0,10.996,22.002-29.004,35
		c-43.994,15-50.996,22.002-60,50.996c-5.996,21.006,4.004,35,63.008,87.002l30.996,27.002v-82.002c0-57.002,2.998-77.998,10-67.998
		c12.002,19.004,12.998,150,0.996,169.004c-7.998,11.992-11.992,11.992-23.994,1.992c-26.006-20.996-27.002,4.004-1.006,34.004
		c13.008,15,24.004,30,24.004,32.002C6780,8587.001,6767.001,8574.999,6727.001,8529.003z M6710.996,8477.001
		c-12.998-12.002-20-15-15.996-7.002c14.004,25.996,27.998,40.996,32.998,35C6730.996,8502.001,6722.998,8489.003,6710.996,8477.001
		z"/>
	<path d="M5365.996,8497.001c-12.998-47.998-2.998-167.002,14.004-167.002c5,0,5.996,37.002,2.998,82.998
		c-5,76.006-3.994,81.006,11.006,62.002c7.998-10.996,15.996-15.996,15.996-10.996c0,17.998,70-58.008,70-76.006
		c0-27.002-45-67.998-74.004-67.998c-13.994,0-27.998-5-30.996-10.996c-12.002-19.004,5-23.008,37.998-11.006
		c17.998,7.002,37.002,14.004,42.002,15c14.004,2.998,30,27.002,44.004,66.006c10,31.992,8.994,38.994-24.004,87.998
		c-19.004,28.994-40,52.998-47.002,52.998c-5.996,0-3.994-7.998,5-17.998c10-10,17.002-22.998,17.002-27.998s-9.004,1.992-19.004,15
		C5405.996,8522.001,5374.003,8525.995,5365.996,8497.001z"/>
	<path d="M5492.001,8494.003c10-10,20-15,23.994-12.002c3.008,3.994-5,12.002-17.998,17.998
		C5475.996,8512.001,5475.996,8512.001,5492.001,8494.003z"/>
	<path d="M4887.998,8252.997c20-50,72.998-133.994,112.002-182.002c24.004-28.994,24.004-22.998,2.998-65l-15.996-35.996l-25,35.996
		c-59.771,53.379-81.006,149.004-87.998,193.008c-4.004,22.998-11.006,43.994-17.002,47.998c-16.006,10,0-82.002,22.998-127.002
		c10.996-20.996,20-45,20-52.998c0-7.002,12.998-29.004,30-47.998c15.996-19.004,34.004-40,40.996-47.002
		c14.004-17.002,32.002-11.006,44.004,15.996c5,12.002,12.998,22.002,17.002,22.002c17.998,0,5.996,50.996-17.998,80
		c-83.379,71.25-114.004,160.996-114.004,172.002c0,3.994-4.004,7.998-10,7.998C4885,8269.999,4884.003,8262.001,4887.998,8252.997z
		"/>
	<path d="M7240,8229.999c-14.004-22.002-45.996-70-72.002-105.996c-60-83.008-63.994-98.008-38.994-123.008
		c11.992-11.992,20.996-25,20.996-30.996c0-17.998,25.996-10,57.998,17.998c19.004,17.002,44.004,59.004,62.002,102.998
		c17.002,41.006,30,74.004,30,74.004c-0.996,0,0.996,10.996,5,25c2.998,14.004,2.002,37.002-4.004,50
		c-7.998,22.002-10,22.002-10.996,5c16.641-46.665-2.383-110.371-44.375-184.375c-49.004-87.998-78.252-103.252-96.25-66.25
		c-9.004,17.998-17.744,42.754-13.75,48.75c32.002,55,113.877,186.04,121.885,191.04c7.998,5,23.486,5.835,15.488,5.835
		c-7.002,0-10,7.002-7.002,15C7277.001,8282.001,7264.003,8270.995,7240,8229.999z"/>
	<path d="M5034.003,7699.003c-6.006-8.008-37.002-62.002-70-121.006c-32.002-60-64.004-107.998-71.006-107.998
		s-12.998-5-12.998-10.996c0-14.004,107.002-7.002,135.996,8.994c38.008,20,46.006,40,45,104.004
		C5057.998,7664.999,5047.998,7715.995,5034.003,7699.003z M5048.334,7519.999c-3.994-15.996-23.335-27.002-30.337-30.996
		c-15-10-103.833-30.83-108.833-24.834c-3.008,2.998,31.504,44.336,47.5,68.33c17.002,24.004,31.343,56.328,43.335,83.33l36.665,65
		l9.17-67.5C5048.833,7583.329,5052.338,7536.005,5048.334,7519.999z"/>
	<path d="M7105.996,7679.003c-15-71.006-15-161.006,0-184.004c23.008-35,119.004-64.004,159.004-49.004
		c15.996,7.002,15.996,8.008,2.002,19.004c-16.006,10.996-117.002,180-117.002,194.004c0,3.994-9.004,15.996-20,25.996
		C7112.001,7702.001,7110.996,7700.995,7105.996,7679.003z M7150,7597.997c0-5,17.998-35.996,40-68.994l40.996-59.004H7195
		c-45.996,0-90,40-80.996,72.998c2.998,12.002,5.996,40,5.996,62.002c0.996,37.002,2.002,39.004,15,20.996
		C7142.998,7614.999,7150,7602.001,7150,7597.997z"/>
	<path d="M6420,7539.999c0-5,5-10,10-10c5.996,0,10,5,10,10c0,5.996-4.004,10-10,10C6425,7549.999,6420,7545.995,6420,7539.999z"/>
	<path d="M5765.996,7002.001c10-19.004,25-39.004,33.008-45c8.994-7.998,7.998,0-5,20.996c-10,19.004-25,39.004-33.008,45
		C5752.001,7030.995,5752.998,7022.997,5765.996,7002.001z"/>
	<path d="M6367.001,6990.995c-15-15.996-22.998-31.992-17.998-35c5-2.998,15,4.004,22.998,17.002
		C6409.003,7029.999,6407.998,7034.003,6367.001,6990.995z"/>
	<path d="M7850.996,6724.003c0-11.006,3.008-14.004,6.006-6.006c2.998,7.002,2.002,16.006-1.006,19.004
		C7852.998,6740.995,7850,6734.999,7850.996,6724.003z"/>
	<path d="M7850.996,6624.003c0-11.006,3.008-14.004,6.006-6.006c2.998,7.002,2.002,16.006-1.006,19.004
		C7852.998,6640.995,7850,6634.999,7850.996,6624.003z"/>
	<path d="M4457.998,5935.995c-33.994-11.992-57.002-50.996-40-67.998c7.002-7.002,12.002-20,12.002-30
		c0-25.996,12.998-22.002,37.002,10C4510.996,5907.997,4507.001,5954.003,4457.998,5935.995z M4465,5890.995
		c-15-30.996-35-33.994-35-5.996c0,14.004,40,47.998,47.998,40.996C4480,5924.003,4474.003,5907.997,4465,5890.995z"/>
	<path d="M7660,5915.995c0-22.998,9.004-45,25.996-65.996l26.006-30.996l13.994,26.992c26.006,49.004,17.002,72.002-38.994,93.008
		C7660.996,5949.003,7660,5947.997,7660,5915.995z M7710,5904.999c7.002-7.998,9.004-22.002,5.996-30.996
		c-5.996-16.006-7.998-15-20.996,1.992C7669.003,5910.995,7682.001,5937.997,7710,5904.999z"/>
	<path d="M4497.001,5847.997c-27.002-20-66.006-125-57.998-155.996c7.998-30,42.998-52.002,82.998-52.002
		c20,0,25.996-4.004,22.002-15c-4.004-7.998-2.002-15,3.994-15c5,0,12.002,10,16.006,22.998c7.998,29.004,5.996,165-3.008,197.002
		C4552.998,5859.003,4522.998,5867.001,4497.001,5847.997z M4547.998,5732.001l5-82.002l-33.994,5.996
		c-19.004,4.004-42.002,14.004-53.008,24.004c-15.996,15.996-16.992,22.002-5.996,55.996c7.002,22.002,22.998,57.002,37.002,78.008
		c22.998,35.996,25.996,37.998,35.996,20C4539.003,5824.003,4545.996,5777.997,4547.998,5732.001z"/>
	<path d="M7590,5809.003c-14.004-56.006-7.002-186.006,10-203.008c7.002-6.992,10-2.998,10,11.006
		c0,15.996,7.998,22.002,37.998,27.002c54.004,7.998,76.006,35,67.002,82.998c-12.998,72.998-54.004,132.998-90.996,132.998
		C7605.996,5859.999,7600,5852.001,7590,5809.003z M7674.003,5787.997c42.998-85.996,30.996-120.996-44.004-130
		c-22.002-2.998-25,1.006-27.998,35c-5,52.998,15.996,147.002,32.998,147.002C7642.001,5839.999,7660,5817.001,7674.003,5787.997z"
		/>
	<path d="M5060.996,5645.995c2.002-1.992,22.002-5.996,44.004-8.994c27.998-5,34.004-4.004,20,2.998
		C5105.996,5647.997,5052.001,5654.003,5060.996,5645.995z"/>
	<path d="M7030,5639.999c-10.996-7.998-7.002-9.004,15-4.004c37.002,8.008,45,14.004,19.004,14.004
		C7054.003,5649.999,7037.998,5644.999,7030,5639.999z"/>
	<path d="M7280,5619.999c5.996-10.996,17.998-20,27.002-20c13.994,0,13.994,2.002-2.002,20c-10,10.996-22.002,20-27.002,20
		S7274.003,5630.995,7280,5619.999z"/>
</g>
</svg>
