<?xml version="1.0" standalone="no"?>
<!DOCTYPE svg PUBLIC "-//W3C//DTD SVG 20010904//EN"
 "http://www.w3.org/TR/2001/REC-SVG-20010904/DTD/svg10.dtd">
<svg version="1.0" xmlns="http://www.w3.org/2000/svg"
 width="1200.000000pt" height="1600.000000pt" viewBox="0 0 1200.000000 1600.000000"
 preserveAspectRatio="xMidYMid meet">

<g transform="translate(0.000000,1600.000000) scale(0.100000,-0.100000)"
fill="#000000" stroke="none">
<path d="M5904 9624 c-34 -12 -72 -29 -86 -40 -24 -18 -108 -185 -172 -344
-19 -47 -52 -128 -74 -180 -50 -118 -85 -285 -85 -405 -1 -99 14 -147 58 -191
l26 -26 -18 -97 c-23 -130 -23 -472 1 -656 57 -432 179 -717 328 -767 l47 -15
11 49 c5 27 10 69 10 93 0 24 5 56 11 72 15 38 38 118 50 173 12 56 -7 273
-27 312 -8 14 -14 37 -14 50 0 12 -6 34 -13 48 -8 14 -18 39 -24 56 l-10 30
47 -24 c69 -34 188 -29 238 11 18 14 15 -3 -8 -54 -11 -24 -20 -55 -20 -69 0
-14 -6 -34 -13 -45 -8 -11 -19 -76 -26 -145 -13 -137 -9 -173 33 -303 14 -43
26 -95 26 -117 0 -21 5 -61 10 -88 l11 -49 47 15 c148 49 270 334 328 767 24
183 25 525 1 656 l-18 97 26 26 c44 44 58 92 58 191 -1 142 -47 339 -114 482
-16 34 -29 66 -29 70 0 4 -6 20 -14 35 -8 14 -19 42 -26 62 -6 20 -28 71 -49
114 -21 42 -43 91 -50 108 -15 38 -53 67 -123 95 -78 31 -269 32 -354 3z"/>
</g>
</svg>
