<?xml version="1.0" standalone="no"?>
<!DOCTYPE svg PUBLIC "-//W3C//DTD SVG 20010904//EN"
 "http://www.w3.org/TR/2001/REC-SVG-20010904/DTD/svg10.dtd">
<svg version="1.0" xmlns="http://www.w3.org/2000/svg"
 width="1200.000000pt" height="1600.000000pt" viewBox="0 0 1200.000000 1600.000000"
 preserveAspectRatio="xMidYMid meet">

<g transform="translate(0.000000,1600.000000) scale(0.100000,-0.100000)"
fill="#000000" stroke="none">
<path d="M5650 9600 c-131 -24 -178 -47 -257 -127 -71 -71 -193 -247 -275
-398 -45 -81 -60 -113 -103 -210 -7 -16 -25 -64 -39 -105 -14 -41 -36 -97 -50
-125 -13 -27 -22 -53 -20 -57 3 -4 -8 -33 -24 -65 -16 -32 -35 -74 -42 -93 -8
-19 -45 -66 -82 -104 -37 -39 -68 -73 -68 -76 0 -4 -11 -20 -25 -36 -21 -25
-77 -132 -130 -249 -32 -71 -73 -186 -100 -281 -15 -52 -16 -72 -6 -125 12
-69 3 -91 -43 -103 -13 -3 -28 -18 -34 -33 -13 -32 -43 -148 -47 -178 -1 -11
-4 -20 -5 -20 -1 0 -4 -9 -6 -20 -2 -11 -8 -45 -14 -75 -28 -148 -45 -385 -44
-605 1 -90 13 -354 18 -380 2 -11 7 -56 10 -100 7 -89 19 -190 41 -340 8 -55
17 -125 20 -155 23 -229 63 -449 86 -474 4 -5 7 9 6 32 -3 46 7 48 16 2 4 -16
11 -30 16 -30 5 0 8 10 6 22 -3 12 0 25 5 28 5 3 -2 54 -16 120 -14 63 -27
131 -30 150 -3 19 -8 42 -12 50 -3 8 -7 25 -8 37 -1 12 -7 47 -13 78 -6 31
-10 59 -9 63 1 4 -2 14 -5 22 -24 62 -67 452 -72 652 -1 92 -6 172 -11 179 -4
7 -3 14 3 16 7 3 8 16 3 40 -8 36 -5 186 6 273 3 25 7 68 9 95 2 28 12 89 21
136 13 64 21 85 33 85 54 1 81 6 93 18 8 7 25 17 38 21 37 11 161 146 158 170
-2 12 -29 35 -73 62 -38 23 -77 47 -85 52 -12 7 -12 12 -3 22 9 9 16 9 25 2
21 -18 159 -55 182 -50 63 15 218 86 211 97 -3 5 11 41 31 81 103 207 98 248
-48 421 -42 49 -67 123 -69 201 -1 65 2 84 29 141 17 36 32 66 34 66 2 0 4
-10 3 -22 0 -13 4 -24 10 -25 5 -1 12 -10 16 -20 7 -16 8 -15 8 4 1 12 12 57
25 100 13 43 36 119 51 168 28 93 44 132 101 249 35 71 43 103 23 90 -31 -19
148 272 225 366 81 98 107 136 99 144 -10 10 29 47 77 71 46 22 107 40 177 51
77 11 97 15 102 20 8 8 -55 2 -149 -16z m-895 -1374 c-15 -23 -15 -24 3 -20
16 5 21 -5 36 -60 20 -73 59 -140 118 -201 66 -70 73 -85 72 -150 0 -41 -7
-76 -23 -110 -82 -177 -84 -181 -113 -176 -4 0 -22 3 -40 5 -18 3 -55 10 -83
16 -27 6 -68 15 -90 19 -22 5 -66 18 -97 29 -32 12 -58 17 -58 13 0 -9 99 -51
121 -51 9 0 19 -3 23 -7 3 -4 13 -8 22 -9 8 -1 36 -7 62 -13 26 -6 61 -13 77
-17 l30 -6 -25 -10 c-14 -6 -34 -14 -45 -18 -51 -21 -94 -21 -142 1 -144 65
-133 56 -133 105 0 52 16 102 104 324 86 218 127 297 140 268 3 -7 3 -3 0 9
-3 14 5 35 23 61 30 42 46 41 18 -2z m-213 -852 c34 -19 67 -39 72 -44 12 -11
-118 -158 -151 -171 -12 -4 -45 -11 -72 -14 l-50 -6 29 108 c41 157 44 163 79
163 16 0 58 -16 93 -36z"/>
<path d="M6370 9611 c8 -5 35 -12 60 -15 101 -13 179 -35 221 -61 50 -31 61
-44 54 -62 -2 -7 0 -13 5 -13 6 0 10 -5 10 -11 0 -9 66 -97 90 -119 67 -64
238 -348 219 -367 -5 -5 5 -38 30 -88 65 -134 87 -193 136 -370 26 -93 52
-174 57 -180 6 -6 7 1 3 20 -5 22 -4 26 3 16 8 -11 11 -7 14 20 l4 34 32 -65
c31 -62 32 -69 26 -145 -3 -44 -10 -87 -14 -95 -4 -8 -8 -17 -7 -20 2 -16 -41
-84 -88 -139 -42 -49 -57 -77 -66 -119 -15 -67 -7 -104 53 -228 23 -49 42 -92
40 -96 -6 -21 181 -98 238 -98 19 0 66 11 105 25 50 17 71 21 77 12 5 -9 -40
-47 -57 -47 -3 0 -27 -14 -54 -30 -60 -37 -68 -60 -32 -93 14 -13 43 -43 64
-65 45 -49 115 -86 179 -96 35 -5 46 -11 46 -24 -1 -9 4 -35 10 -57 6 -22 16
-86 23 -142 10 -82 9 -105 -1 -118 -10 -12 -9 -16 4 -21 16 -6 17 -33 11 -313
-3 -168 -8 -317 -10 -331 -3 -14 -7 -52 -10 -85 -7 -79 -14 -134 -20 -164 -2
-14 -7 -47 -10 -75 -3 -28 -14 -94 -24 -146 -10 -52 -24 -124 -30 -160 -7 -36
-14 -76 -16 -89 -6 -32 -44 -198 -55 -238 -8 -34 4 -47 14 -15 3 9 3 0 0 -20
-6 -49 11 -49 25 0 l10 37 -2 -47 c-8 -177 73 193 89 407 3 39 14 124 24 190
10 66 21 152 25 190 3 39 10 102 15 140 33 253 33 768 0 1010 -24 173 -36 233
-62 315 -25 78 -33 90 -63 90 -33 0 -58 42 -45 75 6 15 10 37 10 51 0 13 4 24
9 24 15 0 -42 188 -96 315 -91 213 -131 279 -233 386 -55 57 -82 96 -116 167
-24 51 -44 99 -44 105 0 21 -27 89 -37 96 -6 3 -20 40 -33 81 -13 41 -32 95
-44 120 -11 25 -21 47 -21 50 -3 18 -115 221 -165 300 -33 52 -73 115 -88 139
-29 46 -68 96 -56 71 4 -8 -17 12 -47 44 -65 72 -127 102 -264 127 -112 21
-149 24 -125 10z m1068 -1418 c41 -72 113 -217 155 -318 28 -67 97 -263 97
-275 0 -12 -124 -51 -210 -67 -14 -2 -57 -11 -96 -19 -39 -8 -78 -12 -86 -9
-17 7 -102 182 -118 242 -12 47 -6 97 16 131 8 12 41 52 74 88 58 64 100 147
100 199 0 36 10 54 27 48 13 -5 13 -3 4 15 -11 21 -14 32 -7 32 2 0 22 -30 44
-67z m252 -642 c-4 -16 -6 -32 -3 -34 6 -6 -101 -57 -121 -57 -8 0 -18 -4 -21
-10 -11 -18 -101 -11 -152 11 l-48 22 45 9 c108 22 210 49 251 68 57 26 59 25
49 -9z m58 -147 c-3 -3 4 -40 17 -82 13 -42 26 -93 30 -112 4 -19 9 -42 11
-51 7 -24 -59 -23 -106 1 -40 20 -162 148 -154 161 12 20 151 89 178 89 16 0
27 -3 24 -6z"/>
<path d="M5716 9333 c-6 -14 -5 -15 5 -6 7 7 10 15 7 18 -3 3 -9 -2 -12 -12z"/>
<path d="M5744 9333 c4 -4 19 -9 34 -11 15 -2 63 -10 107 -19 111 -23 525 -25
525 -3 0 5 -93 6 -207 3 -182 -4 -223 -2 -329 16 -135 23 -140 24 -130 14z"/>
<path d="M5665 9253 c-11 -32 -23 -62 -27 -67 -4 -6 -8 -18 -8 -28 0 -10 -5
-18 -12 -18 -6 0 -8 -3 -5 -7 4 -3 2 -12 -4 -19 -6 -7 -12 -25 -14 -40 -1 -15
-10 -33 -18 -39 -18 -13 -80 -166 -100 -250 -16 -65 -28 -183 -17 -164 7 11
26 -57 21 -76 -2 -5 1 -7 5 -2 7 7 36 -44 38 -68 1 -5 7 -20 14 -33 14 -24 8
-102 -7 -102 -13 0 -9 -369 5 -512 22 -223 93 -522 160 -675 10 -24 22 -43 27
-43 4 0 3 9 -3 21 -16 29 -40 112 -35 118 3 2 19 -5 35 -18 57 -41 122 -64
187 -64 70 0 66 19 36 -144 -9 -51 -21 -93 -26 -93 -5 0 -25 9 -43 21 -26 15
-33 17 -28 6 3 -9 21 -23 41 -32 23 -11 33 -22 29 -31 -3 -8 -13 -43 -22 -77
-31 -123 -74 -241 -141 -387 -19 -41 -38 -84 -43 -95 -30 -71 -148 -341 -172
-395 -41 -92 -83 -217 -116 -345 -25 -98 -36 -122 -95 -211 -65 -98 -83 -142
-53 -131 8 3 1 -17 -17 -49 l-32 -56 -6 99 c-3 54 -13 123 -22 154 -16 55 -18
56 -99 102 -46 26 -80 47 -77 47 4 0 41 -11 84 -25 49 -16 82 -22 88 -16 13
13 -2 54 -18 47 -7 -2 -28 6 -46 18 -47 30 -145 73 -197 84 -45 11 -60 4 -82
-39 -8 -14 -8 -20 2 -23 37 -12 39 -15 5 -10 -21 3 -74 5 -118 6 -81 0 -81 0
-121 -38 -44 -43 -81 -95 -115 -164 -23 -45 -30 -86 -14 -76 5 3 11 -9 14 -27
18 -107 96 -222 195 -286 55 -35 64 -38 56 -16 -4 8 -10 15 -14 15 -5 0 -40
30 -79 68 -125 120 -159 236 -106 356 26 60 85 123 124 133 32 8 202 -5 276
-21 33 -7 88 -25 122 -40 59 -27 62 -30 73 -75 6 -25 13 -55 16 -66 16 -64 24
-126 24 -186 0 -61 -3 -71 -27 -94 -16 -14 -65 -44 -111 -66 -87 -43 -104 -59
-35 -35 99 35 150 69 201 135 l19 25 -5 -34 c-3 -23 -1 -31 7 -26 6 4 11 14
11 22 0 9 12 36 27 62 15 25 26 56 25 69 -1 12 11 42 27 65 96 142 104 160
157 341 29 100 62 207 73 237 60 165 93 244 119 282 15 24 40 64 55 89 49 85
208 488 222 562 3 12 11 54 19 92 53 253 78 466 75 642 -2 111 7 137 39 117
15 -10 18 -37 23 -205 11 -327 70 -637 169 -884 29 -72 61 -150 71 -175 24
-60 95 -195 130 -246 38 -55 136 -320 185 -497 57 -207 48 -185 134 -320 28
-43 50 -85 50 -93 0 -18 28 -73 46 -92 8 -7 14 -17 14 -22 0 -5 6 -7 14 -4 9
3 17 -3 21 -15 14 -44 125 -112 205 -125 19 -3 28 -3 20 1 -81 34 -146 70
-175 97 -32 30 -35 39 -35 87 0 52 29 211 50 275 21 62 167 111 360 120 l115
5 43 -36 c61 -53 106 -152 98 -220 -11 -99 -72 -188 -206 -304 -19 -17 -31
-31 -27 -31 23 0 89 45 143 99 65 64 114 159 114 221 0 22 4 28 15 24 22 -9
18 14 -14 78 -37 72 -48 87 -107 150 l-48 51 -125 -5 c-69 -2 -115 -1 -101 3
20 6 21 7 5 8 -19 0 -229 -49 -270 -64 -11 -3 12 12 50 34 70 41 178 81 218
81 16 0 18 3 10 11 -18 18 -93 -5 -203 -60 -52 -26 -101 -46 -108 -43 -8 2
-12 -7 -12 -27 0 -29 3 -31 30 -29 17 1 30 5 30 8 0 6 99 40 116 40 5 0 -16
-13 -46 -29 -120 -61 -118 -60 -135 -134 -9 -38 -19 -112 -22 -165 -5 -79 -8
-92 -16 -72 -6 14 -18 42 -28 63 -9 20 -13 37 -8 37 5 0 9 10 9 22 0 22 -21
57 -91 153 -30 41 -44 77 -73 190 -42 165 -105 329 -234 607 -22 48 -44 98
-48 110 -3 13 -29 69 -55 125 -27 57 -49 108 -49 113 0 6 -4 18 -10 28 -20 37
-89 266 -90 299 0 6 16 21 36 32 43 25 41 39 -2 16 -16 -8 -32 -15 -36 -15
-10 0 -25 58 -41 161 l-14 86 36 -8 c20 -5 55 -4 81 2 48 11 150 58 150 70 0
4 -25 -6 -55 -23 -60 -32 -144 -46 -186 -30 -28 11 -27 4 -45 230 l-7 82 39 1
c22 0 57 4 79 8 36 8 33 9 -32 10 l-73 1 0 29 c0 47 19 134 34 150 7 9 11 21
9 28 -2 6 26 40 62 75 37 34 80 83 97 108 17 25 28 36 24 25 -6 -19 -6 -19 9
-1 8 10 12 23 9 27 -3 5 0 9 6 9 6 0 9 4 6 9 -4 5 -3 11 2 13 4 1 29 50 56
108 27 58 65 123 86 146 36 39 39 40 44 20 3 -11 6 -76 6 -143 l0 -122 -27
-15 c-16 -8 -43 -28 -61 -44 -18 -16 -53 -35 -77 -42 -37 -10 -93 -50 -71 -50
13 0 131 61 161 84 17 13 40 28 53 35 l23 12 -6 -68 c-9 -109 -15 -163 -26
-237 l-11 -68 -55 -25 c-30 -14 -52 -27 -50 -30 3 -2 24 5 47 17 l41 21 -6
-38 c-21 -120 -57 -259 -72 -276 -10 -10 -17 -27 -15 -37 2 -10 -6 -42 -18
-71 -25 -66 -25 -73 -2 -34 22 36 75 186 97 272 35 142 83 411 83 473 0 8 3
71 7 140 8 137 -6 343 -25 365 -14 16 -7 43 18 71 9 11 26 31 37 44 l20 25
-26 -22 c-30 -27 -49 -31 -27 -5 22 24 48 82 48 104 0 10 5 18 11 18 7 0 9 16
5 48 -4 26 -8 63 -11 82 -5 40 -12 62 -54 177 -16 45 -39 91 -50 102 -11 11
-24 35 -30 53 -28 95 -78 219 -87 216 -5 -2 -8 -5 -7 -8 1 -3 14 -36 28 -75
14 -38 28 -77 32 -85 3 -8 7 -20 8 -25 7 -32 59 -152 70 -160 13 -11 40 -90
49 -147 6 -36 6 -37 -51 -70 -124 -71 -232 -88 -533 -84 -218 2 -242 4 -334
29 -89 24 -217 87 -216 105 2 33 34 133 55 173 25 48 69 161 101 258 7 24 19
50 25 57 6 8 8 14 4 14 -4 0 -2 7 5 15 10 12 10 15 -2 15 -9 0 -22 -22 -33
-57z m-45 -567 c72 -35 219 -62 330 -60 82 1 184 2 245 0 53 -1 120 5 205 18
78 12 165 46 237 93 l26 17 -5 -80 c-6 -87 -26 -138 -76 -189 -34 -35 -76 -70
-80 -66 -1 1 -28 -7 -59 -19 -64 -24 -206 -55 -300 -66 -35 -3 -63 -10 -63
-15 0 -5 6 -7 13 -4 6 2 41 6 77 10 36 3 81 10 100 15 19 5 53 12 75 16 22 3
48 10 58 16 10 5 26 7 34 4 9 -4 21 -2 28 4 12 10 49 9 60 -2 11 -11 -52 -208
-67 -208 -4 0 -6 -8 -6 -17 2 -33 -77 -194 -128 -261 -126 -166 -329 -180
-468 -32 -45 48 -79 105 -128 219 -30 68 -31 67 36 13 27 -22 117 -71 133 -73
5 -1 19 -6 32 -11 13 -5 49 -11 80 -13 l56 -4 -62 13 c-120 25 -201 68 -296
156 -42 39 -104 258 -66 235 4 -3 7 -11 5 -18 -1 -7 -1 -9 2 -4 2 4 13 12 24
18 12 7 18 7 14 1 -8 -13 19 -24 64 -27 37 -3 93 -12 123 -21 23 -7 56 -12
122 -18 l50 -5 -45 10 c-25 6 -95 21 -157 35 -268 59 -357 154 -345 367 l2 28
43 -29 c23 -16 58 -36 77 -46z m845 -296 c-3 -5 -12 -10 -18 -10 -7 0 -6 4 3
10 19 12 23 12 15 0z m-870 -56 c6 -28 5 -28 -14 6 -24 42 -27 57 -6 37 7 -8
17 -28 20 -43z m130 38 c-3 -3 -11 0 -18 7 -9 10 -8 11 6 5 10 -3 15 -9 12
-12z m854 -27 c-24 -40 -33 -46 -20 -12 5 12 12 30 15 40 3 10 10 16 15 12 6
-3 1 -20 -10 -40z m-999 -50 c15 -27 17 -35 6 -26 -9 7 -16 20 -16 27 0 8 -4
14 -10 14 -5 0 -10 8 -10 17 0 20 2 18 30 -32z m1021 12 c-16 -16 -26 0 -10
19 9 11 15 12 17 4 2 -6 -1 -17 -7 -23z m-930 -207 c24 -52 47 -97 51 -98 5
-2 6 -8 2 -13 -3 -5 0 -9 6 -9 7 0 10 -6 7 -14 -3 -8 2 -20 11 -28 15 -12 16
-11 3 5 -7 9 -11 17 -8 17 3 0 20 -21 37 -47 18 -27 63 -77 102 -112 38 -35
67 -69 64 -76 -2 -7 0 -17 6 -23 9 -9 36 -130 37 -169 1 -9 -20 -13 -71 -14
-72 -1 -72 -1 -28 -10 25 -6 58 -8 74 -6 l29 4 -6 -116 c-4 -64 -8 -125 -11
-136 -2 -11 -5 -30 -5 -42 -1 -18 -9 -23 -46 -28 -62 -10 -133 10 -204 56 -67
44 -68 44 -101 212 -25 123 -25 131 -2 122 75 -32 112 -44 112 -36 0 8 -88 47
-100 44 -3 0 -17 8 -32 18 -22 16 -27 29 -32 81 -4 35 -11 99 -17 143 -6 44
-9 97 -7 119 l3 38 63 -46 c34 -25 65 -46 68 -46 3 0 26 -9 51 -21 25 -11 47
-18 50 -15 7 6 -58 46 -74 46 -28 0 -31 2 -97 55 -77 61 -76 59 -76 139 0 40
3 100 6 134 l7 61 42 -47 c25 -27 61 -87 86 -142z m900 167 c-10 -9 -11 -8 -5
6 3 10 9 15 12 12 3 -3 0 -11 -7 -18z m-1614 -2633 c50 -16 181 -80 197 -94 5
-5 -9 -3 -30 5 -22 7 -89 23 -150 36 -109 23 -110 23 -100 46 13 27 21 28 83
7z m2280 -60 c-3 -3 -12 -4 -19 -1 -8 3 -5 6 6 6 11 1 17 -2 13 -5z"/>
<path d="M6395 8115 c-57 -49 -122 -82 -194 -99 -67 -16 -92 -28 -45 -22 41 6
84 16 119 28 34 13 144 88 164 112 23 28 -2 17 -44 -19z"/>
<path d="M5640 9030 c0 -6 24 -10 53 -9 41 1 47 3 27 9 -36 12 -80 12 -80 0z"/>
<path d="M5760 9010 c20 -13 83 -13 75 0 -3 6 -25 10 -48 10 -31 0 -38 -3 -27
-10z"/>
<path d="M6370 9001 c-41 -4 -226 -7 -412 -6 -185 0 -334 -3 -332 -7 5 -8 839
-8 880 0 13 2 24 8 24 13 0 10 -45 10 -160 0z"/>
<path d="M5383 8562 c11 -11 16 -25 13 -30 -3 -5 1 -9 9 -9 24 0 17 23 -12 42
l-28 18 18 -21z"/>
<path d="M6727 8529 c-50 -57 -93 -129 -78 -129 6 0 11 -9 11 -19 0 -11 3 -27
6 -36 7 -18 74 -55 99 -55 29 0 11 22 -29 35 -44 15 -51 22 -60 51 -6 21 4 35
63 87 l31 27 0 -82 c0 -57 3 -78 10 -68 12 19 13 150 1 169 -8 12 -12 12 -24
2 -26 -21 -27 4 -1 34 13 15 24 30 24 32 0 10 -13 -2 -53 -48z m-16 -52 c-13
-12 -20 -15 -16 -7 14 26 28 41 33 35 3 -3 -5 -16 -17 -28z"/>
<path d="M5366 8497 c-13 -48 -3 -167 14 -167 5 0 6 37 3 83 -5 76 -4 81 11
62 8 -11 16 -16 16 -11 0 18 70 -58 70 -76 0 -27 -45 -68 -74 -68 -14 0 -28
-5 -31 -11 -12 -19 5 -23 38 -11 18 7 37 14 42 15 14 3 30 27 44 66 10 32 9
39 -24 88 -19 29 -40 53 -47 53 -6 0 -4 -8 5 -18 10 -10 17 -23 17 -28 0 -5
-9 2 -19 15 -25 33 -57 37 -65 8z"/>
<path d="M5492 8494 c10 -10 20 -15 24 -12 3 4 -5 12 -18 18 -22 12 -22 12 -6
-6z"/>
<path d="M4888 8253 c20 -50 73 -134 112 -182 24 -29 24 -23 3 -65 l-16 -36
-25 36 c-40 59 -81 149 -88 193 -4 23 -11 44 -17 48 -16 10 0 -82 23 -127 11
-21 20 -45 20 -53 0 -7 13 -29 30 -48 16 -19 34 -40 41 -47 14 -17 32 -11 44
16 5 12 13 22 17 22 18 0 6 51 -18 80 -33 39 -114 161 -114 172 0 4 -4 8 -10
8 -5 0 -6 -8 -2 -17z"/>
<path d="M7240 8230 c-14 -22 -46 -70 -72 -106 -60 -83 -64 -98 -39 -123 12
-12 21 -25 21 -31 0 -18 26 -10 58 18 19 17 44 59 62 103 17 41 30 74 30 74
-1 0 1 11 5 25 3 14 2 37 -4 50 -8 22 -10 22 -11 5 -5 -60 -24 -118 -66 -192
-49 -88 -49 -88 -67 -51 -9 18 -13 37 -9 43 32 55 118 182 126 187 8 5 7 8 -1
8 -7 0 -10 7 -7 15 11 27 -2 16 -26 -25z"/>
<path d="M5034 7699 c-6 -8 -37 -62 -70 -121 -32 -60 -64 -108 -71 -108 -7 0
-13 -5 -13 -11 0 -14 107 -7 136 9 38 20 46 40 45 104 -3 93 -13 144 -27 127z
m4 -173 c-4 -16 -13 -33 -20 -37 -15 -10 -79 -22 -84 -16 -3 3 8 24 24 48 17
24 41 66 53 93 l24 49 5 -54 c3 -30 2 -67 -2 -83z"/>
<path d="M7106 7679 c-15 -71 -15 -161 0 -184 23 -35 119 -64 159 -49 16 7 16
8 2 19 -16 11 -117 180 -117 194 0 4 -9 16 -20 26 -18 17 -19 16 -24 -6z m44
-81 c0 -5 18 -36 40 -69 l41 -59 -36 0 c-46 0 -90 40 -81 73 3 12 6 40 6 62 1
37 2 39 15 21 8 -11 15 -24 15 -28z"/>
<path d="M6420 7540 c0 -5 5 -10 10 -10 6 0 10 5 10 10 0 6 -4 10 -10 10 -5 0
-10 -4 -10 -10z"/>
<path d="M5766 7002 c10 -19 25 -39 33 -45 9 -8 8 0 -5 21 -10 19 -25 39 -33
45 -9 8 -8 0 5 -21z"/>
<path d="M6367 6991 c-15 -16 -23 -32 -18 -35 5 -3 15 4 23 17 37 57 36 61 -5
18z"/>
<path d="M7851 6724 c0 -11 3 -14 6 -6 3 7 2 16 -1 19 -3 4 -6 -2 -5 -13z"/>
<path d="M7851 6624 c0 -11 3 -14 6 -6 3 7 2 16 -1 19 -3 4 -6 -2 -5 -13z"/>
<path d="M4458 5936 c-34 -12 -57 -51 -40 -68 7 -7 12 -20 12 -30 0 -26 13
-22 37 10 44 60 40 106 -9 88z m7 -45 c-15 -31 -35 -34 -35 -6 0 14 40 48 48
41 2 -2 -4 -18 -13 -35z"/>
<path d="M7660 5916 c0 -23 9 -45 26 -66 l26 -31 14 27 c26 49 17 72 -39 93
-26 10 -27 9 -27 -23z m50 -11 c7 -8 9 -22 6 -31 -6 -16 -8 -15 -21 2 -26 35
-13 62 15 29z"/>
<path d="M4497 5848 c-27 -20 -66 -125 -58 -156 8 -30 43 -52 83 -52 20 0 26
-4 22 -15 -4 -8 -2 -15 4 -15 5 0 12 10 16 23 8 29 6 165 -3 197 -8 29 -38 37
-64 18z m51 -116 l5 -82 -34 6 c-19 4 -42 14 -53 24 -16 16 -17 22 -6 56 7 22
23 57 37 78 23 36 26 38 36 20 6 -10 13 -56 15 -102z"/>
<path d="M7590 5809 c-14 -56 -7 -186 10 -203 7 -7 10 -3 10 11 0 16 8 22 38
27 54 8 76 35 67 83 -13 73 -54 133 -91 133 -18 0 -24 -8 -34 -51z m84 -21
c43 -86 31 -121 -44 -130 -22 -3 -25 1 -28 35 -5 53 16 147 33 147 7 0 25 -23
39 -52z"/>
<path d="M5061 5646 c2 -2 22 -6 44 -9 28 -5 34 -4 20 3 -19 8 -73 14 -64 6z"/>
<path d="M7030 5640 c-11 -8 -7 -9 15 -4 37 8 45 14 19 14 -10 0 -26 -5 -34
-10z"/>
<path d="M7280 5620 c6 -11 18 -20 27 -20 14 0 14 2 -2 20 -10 11 -22 20 -27
20 -5 0 -4 -9 2 -20z"/>
</g>
</svg>
