<svg version="1.1" id="Layer_1" xmlns="http://www.w3.org/2000/svg" xmlns:xlink="http://www.w3.org/1999/xlink" x="0px" y="0px"
	 width="1200px" height="1600px" viewBox="0 0 1200 1600" enable-background="new 0 0 1200 1600" xml:space="preserve">
<g transform="translate(0.000000,1600.000000) scale(0.100000,-0.100000)">
	<path d="M5921.313,11762.143c-4.487,3.861-7.686,8.617-10.063,13.734c-3.018,4.02-5.996,8.057-8.857,12.178
		c-3.438,4.947-6.606,10.01-9.663,15.127c-1.069,1.777-2.09,3.584-3.115,5.406c-10.43,18.379-18.828,37.676-26.382,57.436
		c-4.331,6.797-8.643,13.594-13.071,20.406c-4.717,7.256-7.173,14.418-7.925,21.273c-6.597,14.771-11.768,30.064-14.878,45.66
		c-12.832,25.404-21.147,51.719-18.145,80.98c-2.671-1.313-5.503-4.018-9.214-8.35c-10.996-13.994-10-28.994,5-91.992
		c12.998-54.004,15.996-95,12.002-141.006c-7.002-75.996-27.998-105-86.006-123.994c-20-7.002-77.998-32.002-128.994-56.006
		c-50-22.998-97.002-42.998-102.002-42.998c-19.004,0-130-60-130-70c0-27.998,109.004-17.002,127.007,14.01
		c15.981,25.961,253.433,123.77,267.134,132.787c42.1,27.715,95.742,45.406,96.855,105.205
		c1.006,53.994,12.002,55.996,49.004,12.998c11.924-14.18,25.903-26.631,41.118-37.324c-9.312,10.645-18.574,21.328-27.461,32.281
		C5922.875,11760.682,5922.128,11761.443,5921.313,11762.143z"/>
	<path d="M6660,11569.002c-150.996,58.994-272.002,115.996-295.996,137.998c-22.002,20-24.004,30-24.004,110
		c0,48.994,5,103.994,10.996,122.998c17.002,59.004,17.002,65,3.008,85c-8.008,10-15,17.002-17.002,14.004
		c-1.006-2.002-15-21.006-30-41.006c-0.029-0.043-0.059-0.088-0.098-0.127c-5.576-50.863-17.08-104.105-38.193-150.439
		c-18.945-56.807-52.998-110.117-104.189-137.367c-1.006-0.768-1.934-1.588-2.959-2.34c-3.633-2.676-7.363-5.102-11.094-7.523
		c3.506,2.016,7.002,4.043,10.576,5.928c17.295,9.102,36.602,15.82,51.104,29.229c3.789,3.51,7.754,6.205,11.777,8.314
		c4.922,6.475,11.523,13.721,19.072,20.332c15,13.994,27.002,30,27.002,35.996c0,27.002,19.004-4.004,25-42.002
		c7.998-45,49.004-107.998,70-107.998c7.002,0,44.004-14.004,82.002-30.996c37.002-17.002,68.994-30,70.996-30
		c5,1.992,122.998-60,157.002-84.004c40-25.996,70-30.996,95-15C6792.001,11504.998,6754.003,11532,6660,11569.002z"/>
	<path d="M6227.998,11505.994c-28.994-35.996-35.996-51.992-17.002-40.996c6.006,4.004,5-2.002-1.992-14.004
		c-8.008-10.996-34.004-28.994-58.008-38.994c-25-10-40.996-21.006-35.996-24.004c17.998-10.996,95.996,34.004,107.002,61.006
		c5.996,13.994,15.996,40.996,23.994,58.994c7.002,17.002,13.008,32.002,11.006,32.002
		C6255.996,11539.998,6242.998,11524.002,6227.998,11505.994z"/>
	<path d="M6170.996,11445.994c-6.992-7.998-25.996-17.998-41.992-20.996c-17.002-4.004-28.008-9.004-25-12.002
		c7.998-7.998,72.998,17.002,85.996,32.998c7.002,8.008,7.998,14.004,2.002,14.004
		C6187.001,11459.998,6177.001,11454.002,6170.996,11445.994z"/>
	<path d="M6237.001,11425.994c-37.998-13.994-71.006-35.996-64.004-41.992c2.002-2.002,19.004,3.994,37.998,12.998
		c38.008,18.994,94.004,20.996,284.004,8.994c69.004-3.994,130-2.998,145,2.002c17.998,7.002-7.754-1.537-93.75,3.463
		c-62.998,2.998-150.996,9.291-195,12.289C6296.25,11427.752,6262.998,11435.994,6237.001,11425.994z"/>
	<path d="M5891.918,11539.998c-2.002,0,4.004-15,11.006-32.002c7.998-17.998,17.998-45,23.994-58.994
		c11.006-27.002,88.999-72.002,107.007-61.006c5,2.998-10.996,14.004-36.001,24.004c-24.004,10-50,27.998-58.008,38.994
		c-6.992,12.002-7.998,18.008-1.992,14.004c18.994-10.996,11.992,5-17.002,40.996
		C5905.922,11524.002,5892.924,11539.998,5891.918,11539.998z"/>
	<path d="M5956.918,11459.998c-5.996,0-5-5.996,2.002-14.004c12.998-15.996,77.993-40.996,86.001-32.998
		c3.008,2.998-8.008,7.998-25,12.002c-16.001,2.998-35.005,12.998-41.997,20.996
		C5971.918,11454.002,5961.918,11459.998,5956.918,11459.998z"/>
	<path d="M5792.5,11423.748c-44.004-2.998-134.502-9.291-197.5-12.289c-85.996-5-104.077,3.539-86.079-3.463
		c15-5,75.996-5.996,145-2.002c190,12.002,245.996,10,284.004-8.994c18.994-9.004,35.996-15,37.998-12.998
		c7.002,5.996-26.006,27.998-64.004,41.992C5885.922,11435.994,5847.5,11427.752,5792.5,11423.748z"/>
</g>
<g>
	<path d="M584.081,410.809c0,0,2.939-0.422,7.367-0.857c1.106-0.113,2.305-0.237,3.575-0.336c1.269-0.117,2.612-0.188,3.999-0.288
		c2.775-0.18,5.729-0.448,8.675-0.798c2.947-0.333,5.896-0.65,8.664-0.917c1.384-0.125,2.723-0.247,3.991-0.362
		c1.269-0.12,2.471-0.204,3.58-0.283c2.22-0.158,4.068-0.289,5.363-0.38c1.296-0.072,2.037-0.113,2.037-0.113l0.004,0.05
		c0,0-0.735,0.094-2.023,0.26c-1.289,0.145-3.132,0.353-5.342,0.601c-1.105,0.125-2.303,0.261-3.572,0.373
		c-1.269,0.118-2.607,0.242-3.991,0.37c-2.77,0.241-5.728,0.465-8.686,0.674c-2.961,0.192-5.914,0.465-8.676,0.793
		c-1.381,0.155-2.715,0.329-3.984,0.444c-1.267,0.134-2.468,0.23-3.577,0.32c-4.433,0.378-7.399,0.497-7.399,0.497L584.081,410.809z
		"/>
</g>
<g>
	<path d="M584.748,412.35c0,0,2.859-0.448,7.169-0.922c1.077-0.123,2.243-0.257,3.48-0.367c1.235-0.128,2.543-0.212,3.894-0.323
		c2.703-0.204,5.578-0.499,8.445-0.875c2.868-0.359,5.738-0.702,8.433-0.994c1.348-0.138,2.65-0.271,3.886-0.397
		c1.235-0.131,2.406-0.226,3.486-0.314c2.161-0.177,3.962-0.325,5.223-0.428c1.263-0.083,1.983-0.13,1.983-0.13l0.006,0.05
		c0,0-0.717,0.101-1.97,0.278c-1.255,0.156-3.048,0.38-5.199,0.648c-1.076,0.134-2.241,0.281-3.477,0.405
		c-1.235,0.129-2.538,0.265-3.886,0.405c-2.696,0.265-5.576,0.516-8.458,0.75c-2.883,0.218-5.758,0.517-8.445,0.87
		c-1.345,0.167-2.642,0.353-3.877,0.48c-1.233,0.145-2.403,0.252-3.482,0.352c-4.315,0.417-7.206,0.562-7.206,0.563L584.748,412.35z
		"/>
</g>
<g>
	<path d="M630.752,409.275c0,0-2.946,0.425-7.386,0.863c-1.108,0.115-2.311,0.239-3.584,0.339c-1.272,0.118-2.619,0.191-4.01,0.291
		c-2.782,0.182-5.744,0.453-8.697,0.805c-2.955,0.335-5.912,0.655-8.687,0.925c-1.388,0.127-2.73,0.25-4.002,0.366
		c-1.272,0.121-2.477,0.207-3.589,0.286c-2.225,0.159-4.079,0.292-5.377,0.385c-1.3,0.073-2.042,0.114-2.042,0.114l-0.005-0.05
		c0,0,0.738-0.095,2.029-0.262c1.293-0.146,3.14-0.355,5.356-0.606c1.108-0.125,2.309-0.262,3.582-0.376
		c1.272-0.119,2.614-0.244,4.001-0.374c2.777-0.243,5.742-0.47,8.709-0.682c2.969-0.195,5.929-0.47,8.698-0.801
		c1.385-0.156,2.722-0.331,3.994-0.448c1.271-0.135,2.475-0.233,3.587-0.323c4.443-0.382,7.419-0.503,7.419-0.504L630.752,409.275z"
		/>
</g>
<g>
	<path d="M584.748,414.88c0,0,2.86-0.435,7.17-0.889c1.077-0.119,2.243-0.248,3.48-0.352c1.235-0.123,2.543-0.2,3.894-0.305
		c2.703-0.192,5.578-0.474,8.445-0.836c2.869-0.346,5.739-0.676,8.434-0.955c1.348-0.132,2.65-0.259,3.886-0.38
		c1.235-0.125,2.406-0.215,3.486-0.298c2.161-0.167,3.961-0.307,5.222-0.404c1.263-0.077,1.984-0.122,1.984-0.122l0.004,0.05
		c0,0-0.716,0.098-1.969,0.269c-1.255,0.151-3.049,0.366-5.2,0.625c-1.076,0.129-2.241,0.271-3.477,0.389
		c-1.235,0.123-2.538,0.253-3.886,0.388c-2.696,0.253-5.576,0.49-8.457,0.712c-2.883,0.206-5.758,0.491-8.446,0.832
		c-1.345,0.161-2.643,0.34-3.878,0.462c-1.233,0.14-2.403,0.241-3.482,0.336c-4.315,0.397-7.205,0.529-7.205,0.53L584.748,414.88z"
		/>
</g>
<g>
	<path d="M584.081,415.011c0,0,2.939-0.422,7.367-0.857c1.106-0.113,2.305-0.237,3.575-0.336c1.269-0.117,2.612-0.188,3.999-0.288
		c2.775-0.179,5.729-0.448,8.675-0.798c2.947-0.333,5.896-0.65,8.664-0.917c1.384-0.125,2.723-0.247,3.991-0.362
		c1.269-0.12,2.471-0.204,3.58-0.283c2.22-0.157,4.068-0.289,5.363-0.38c1.296-0.072,2.037-0.113,2.037-0.113l0.004,0.05
		c0,0-0.735,0.095-2.023,0.26c-1.289,0.145-3.132,0.353-5.342,0.602c-1.105,0.124-2.303,0.26-3.572,0.373
		c-1.269,0.117-2.607,0.241-3.991,0.37c-2.77,0.241-5.728,0.465-8.686,0.674c-2.961,0.192-5.914,0.465-8.676,0.793
		c-1.381,0.155-2.715,0.329-3.984,0.445c-1.267,0.134-2.468,0.23-3.577,0.32c-4.433,0.377-7.399,0.497-7.399,0.497L584.081,415.011z
		"/>
</g>
<g>
	<path d="M584.748,416.553c0,0,2.859-0.448,7.169-0.922c1.077-0.123,2.243-0.257,3.48-0.367c1.235-0.128,2.543-0.212,3.894-0.323
		c2.703-0.204,5.578-0.499,8.445-0.875c2.868-0.358,5.738-0.702,8.433-0.993c1.348-0.138,2.65-0.271,3.886-0.397
		c1.235-0.131,2.406-0.226,3.486-0.314c2.161-0.177,3.962-0.325,5.223-0.428c1.263-0.083,1.983-0.131,1.983-0.131l0.006,0.05
		c0,0-0.717,0.101-1.97,0.277c-1.255,0.157-3.048,0.38-5.199,0.648c-1.076,0.134-2.241,0.281-3.477,0.405
		c-1.235,0.128-2.538,0.265-3.886,0.405c-2.696,0.265-5.576,0.516-8.458,0.751c-2.883,0.218-5.758,0.517-8.445,0.87
		c-1.345,0.167-2.642,0.353-3.877,0.48c-1.233,0.145-2.403,0.252-3.482,0.352c-4.315,0.417-7.206,0.562-7.206,0.563L584.748,416.553
		z"/>
</g>
<g>
	<path d="M630.752,413.478c0,0-2.946,0.425-7.386,0.863c-1.108,0.115-2.311,0.239-3.584,0.339c-1.272,0.118-2.619,0.191-4.01,0.291
		c-2.782,0.182-5.744,0.454-8.697,0.806c-2.955,0.335-5.912,0.655-8.687,0.925c-1.388,0.127-2.73,0.25-4.002,0.366
		c-1.272,0.121-2.477,0.207-3.589,0.286c-2.225,0.159-4.079,0.292-5.377,0.385c-1.3,0.073-2.042,0.114-2.042,0.114l-0.005-0.05
		c0,0,0.738-0.095,2.029-0.262c1.293-0.146,3.14-0.355,5.356-0.606c1.108-0.125,2.309-0.262,3.582-0.376
		c1.272-0.119,2.614-0.244,4.001-0.374c2.777-0.243,5.742-0.47,8.709-0.682c2.969-0.195,5.929-0.47,8.698-0.801
		c1.385-0.157,2.722-0.332,3.994-0.448c1.271-0.135,2.475-0.233,3.587-0.323c4.443-0.382,7.419-0.504,7.419-0.504L630.752,413.478z"
		/>
</g>
<g>
	<path d="M584.748,419.083c0,0,2.86-0.435,7.17-0.889c1.077-0.119,2.243-0.248,3.48-0.352c1.235-0.122,2.543-0.2,3.894-0.305
		c2.703-0.192,5.578-0.474,8.445-0.836c2.869-0.346,5.739-0.676,8.434-0.956c1.348-0.132,2.65-0.259,3.886-0.379
		c1.235-0.126,2.406-0.215,3.486-0.299c2.161-0.167,3.961-0.307,5.222-0.404c1.263-0.077,1.984-0.122,1.984-0.122l0.004,0.05
		c0,0-0.716,0.098-1.969,0.269c-1.255,0.151-3.049,0.366-5.2,0.625c-1.076,0.129-2.241,0.27-3.477,0.389
		c-1.235,0.123-2.538,0.253-3.886,0.388c-2.696,0.252-5.576,0.49-8.457,0.712c-2.883,0.205-5.758,0.491-8.446,0.831
		c-1.345,0.162-2.643,0.341-3.878,0.462c-1.233,0.14-2.403,0.241-3.482,0.336c-4.315,0.397-7.205,0.53-7.205,0.53L584.748,419.083z"
		/>
</g>
<g>
	<path d="M589.436,420.062c0,0,2.307-0.387,5.788-0.769c0.87-0.1,1.812-0.209,2.812-0.293c0.998-0.102,2.056-0.158,3.147-0.24
		c2.185-0.146,4.508-0.38,6.822-0.694c2.315-0.297,4.634-0.58,6.81-0.813c2.177-0.225,4.209-0.431,5.955-0.563
		c3.489-0.295,5.825-0.397,5.825-0.397l0.006,0.05c0,0-2.31,0.369-5.787,0.781c-1.737,0.221-3.77,0.427-5.947,0.645
		c-2.179,0.208-4.506,0.397-6.834,0.571c-2.33,0.157-4.652,0.395-6.822,0.69c-1.086,0.139-2.133,0.296-3.131,0.397
		c-0.996,0.119-1.941,0.201-2.813,0.277c-3.486,0.325-5.824,0.409-5.824,0.41L589.436,420.062z"/>
</g>
<g>
	<path d="M589.935,421.611c0,0,2.244-0.414,5.633-0.836c0.847-0.11,1.764-0.23,2.738-0.326c0.972-0.113,2.002-0.182,3.065-0.276
		c2.129-0.172,4.391-0.433,6.644-0.774c2.254-0.324,4.51-0.633,6.629-0.893c2.119-0.25,4.099-0.479,5.8-0.632
		c3.398-0.335,5.676-0.465,5.676-0.465l0.006,0.05c0,0-2.246,0.396-5.632,0.848c-1.69,0.241-3.67,0.471-5.79,0.713
		c-2.122,0.233-4.389,0.45-6.657,0.65c-2.271,0.184-4.532,0.449-6.644,0.769c-1.057,0.151-2.076,0.321-3.047,0.434
		c-0.97,0.13-1.89,0.223-2.74,0.31c-3.396,0.365-5.674,0.477-5.674,0.477L589.935,421.611z"/>
</g>
<g>
	<path d="M626.6,418.775c0,0-2.2,0.405-5.521,0.814c-0.83,0.107-1.729,0.224-2.685,0.315c-0.952,0.11-1.963,0.174-3.005,0.265
		c-2.087,0.164-4.305,0.416-6.513,0.748c-2.21,0.316-4.421,0.616-6.498,0.867c-2.078,0.242-4.018,0.464-5.686,0.61
		c-3.332,0.322-5.564,0.442-5.564,0.443l-0.006-0.05c0,0,2.202-0.387,5.521-0.827c1.658-0.234,3.598-0.457,5.677-0.691
		c2.079-0.225,4.302-0.433,6.526-0.625c2.226-0.176,4.442-0.432,6.512-0.744c1.036-0.147,2.035-0.313,2.988-0.422
		c0.95-0.126,1.853-0.216,2.686-0.299c3.328-0.353,5.563-0.455,5.563-0.456L626.6,418.775z"/>
</g>
<g>
	<path d="M592.129,423.761c0,0,2.106-0.372,5.285-0.744c0.794-0.097,1.655-0.202,2.568-0.281c0.912-0.098,1.879-0.149,2.876-0.227
		c1.997-0.138,4.119-0.361,6.232-0.666c2.115-0.288,4.232-0.56,6.221-0.785c1.988-0.215,3.845-0.413,5.441-0.538
		c3.188-0.28,5.324-0.372,5.324-0.373l0.006,0.05c0,0-2.107,0.359-5.284,0.756c-1.587,0.213-3.443,0.411-5.433,0.619
		c-1.991,0.199-4.117,0.378-6.246,0.542c-2.13,0.147-4.252,0.375-6.233,0.661c-0.991,0.134-1.947,0.287-2.859,0.384
		c-0.91,0.115-1.773,0.192-2.57,0.266c-3.186,0.305-5.324,0.385-5.324,0.385L592.129,423.761z"/>
</g>
<g>
	<path d="M593.231,425.028c0,0,1.975-0.348,4.955-0.685c0.745-0.087,1.552-0.183,2.408-0.252c0.854-0.087,1.762-0.128,2.696-0.194
		c1.873-0.115,3.862-0.315,5.844-0.595c1.983-0.264,3.968-0.512,5.831-0.715c1.865-0.193,3.605-0.369,5.103-0.477
		c2.989-0.244,4.992-0.313,4.992-0.313l0.006,0.05c0,0-1.977,0.335-4.954,0.697c-1.487,0.195-3.229,0.373-5.094,0.558
		c-1.866,0.176-3.86,0.332-5.856,0.471c-1.997,0.124-3.986,0.328-5.844,0.591c-0.93,0.123-1.826,0.265-2.681,0.352
		c-0.853,0.104-1.663,0.173-2.41,0.236c-2.987,0.27-4.992,0.325-4.992,0.325L593.231,425.028z"/>
</g>
<g>
	<path d="M594.329,426.456c0,0,1.77-0.353,4.446-0.698c0.669-0.089,1.393-0.188,2.163-0.259c0.769-0.09,1.584-0.133,2.425-0.202
		c1.684-0.121,3.471-0.326,5.249-0.612c1.779-0.269,3.561-0.523,5.234-0.731c1.675-0.198,3.238-0.379,4.584-0.491
		c2.687-0.252,4.489-0.326,4.489-0.327l0.006,0.05c0,0-1.771,0.341-4.445,0.71c-1.335,0.199-2.898,0.381-4.574,0.572
		c-1.677,0.181-3.469,0.343-5.263,0.488c-1.796,0.129-3.583,0.339-5.249,0.607c-0.835,0.125-1.639,0.27-2.406,0.359
		c-0.766,0.106-1.493,0.177-2.165,0.243c-2.684,0.278-4.488,0.339-4.488,0.339L594.329,426.456z"/>
</g>
<g>
	<path d="M623.872,423.997c0,0-1.681,0.376-4.228,0.757c-0.637,0.099-1.325,0.207-2.059,0.288c-0.73,0.1-1.509,0.154-2.31,0.234
		c-1.604,0.143-3.306,0.372-4.996,0.682c-1.692,0.292-3.388,0.57-4.98,0.8c-1.594,0.22-3.082,0.422-4.364,0.552
		c-2.559,0.289-4.278,0.386-4.278,0.387l-0.007-0.05c0,0,1.683-0.364,4.226-0.77c1.27-0.217,2.758-0.42,4.354-0.633
		c1.597-0.204,3.304-0.389,5.013-0.559c1.712-0.153,3.412-0.386,4.997-0.677c0.793-0.136,1.558-0.292,2.288-0.391
		c0.729-0.117,1.421-0.197,2.061-0.272c2.557-0.313,4.277-0.399,4.277-0.399L623.872,423.997z"/>
</g>
<g>
	<path d="M599.628,428.742c0,0,1.393-0.354,3.511-0.7c0.528-0.09,1.102-0.188,1.712-0.261c0.608-0.09,1.257-0.134,1.924-0.204
		c1.338-0.122,2.753-0.328,4.156-0.615c2.809-0.561,5.638-0.984,7.771-1.228c2.131-0.255,3.565-0.33,3.565-0.331l0.008,0.05
		c0,0-1.396,0.341-3.51,0.712c-2.112,0.382-4.943,0.793-7.794,1.066c-1.427,0.13-2.841,0.341-4.157,0.61
		c-0.659,0.126-1.293,0.271-1.9,0.36c-0.605,0.107-1.183,0.178-1.715,0.245c-2.127,0.279-3.564,0.342-3.564,0.343L599.628,428.742z"
		/>
</g>
<g>
	<path d="M582.108,405.787c0,0,3.149-0.448,7.891-0.922c1.185-0.123,2.469-0.257,3.83-0.367c1.359-0.128,2.797-0.211,4.283-0.322
		c2.972-0.204,6.136-0.499,9.292-0.874c3.157-0.359,6.316-0.702,9.28-0.993c1.483-0.138,2.917-0.271,4.276-0.397
		c1.358-0.131,2.646-0.226,3.834-0.314c2.377-0.177,4.357-0.324,5.744-0.428c1.388-0.083,2.182-0.13,2.182-0.13l0.004,0.05
		c0,0-0.788,0.101-2.167,0.278c-1.382,0.156-3.355,0.38-5.724,0.648c-1.184,0.134-2.467,0.281-3.826,0.404
		c-1.358,0.129-2.792,0.265-4.274,0.405c-2.967,0.265-6.135,0.515-9.304,0.75c-3.17,0.218-6.333,0.517-9.292,0.87
		c-1.48,0.167-2.909,0.353-4.268,0.479c-1.357,0.146-2.644,0.252-3.831,0.352c-4.748,0.417-7.925,0.562-7.925,0.562L582.108,405.787
		z"/>
</g>
<g>
	<path d="M582.836,407.322c0,0,3.063-0.473,7.679-0.985c1.153-0.133,2.403-0.277,3.728-0.398c1.323-0.139,2.724-0.234,4.17-0.357
		c2.895-0.228,5.974-0.548,9.045-0.948c3.072-0.384,6.146-0.752,9.032-1.068c1.443-0.149,2.839-0.294,4.162-0.431
		c1.322-0.142,2.576-0.247,3.733-0.345c2.314-0.196,4.242-0.359,5.593-0.474c1.352-0.094,2.124-0.148,2.124-0.148l0.006,0.05
		c0,0-0.768,0.107-2.109,0.295c-1.345,0.167-3.265,0.407-5.569,0.694c-1.152,0.144-2.401,0.3-3.725,0.435
		c-1.322,0.14-2.718,0.287-4.161,0.439c-2.888,0.289-5.972,0.564-9.058,0.825c-3.088,0.244-6.167,0.568-9.045,0.944
		c-1.44,0.179-2.831,0.376-4.154,0.514c-1.321,0.156-2.573,0.273-3.729,0.382c-4.622,0.455-7.717,0.625-7.717,0.625L582.836,407.322
		z"/>
</g>
<g>
	<path d="M632.12,403.843c0,0-3.157,0.451-7.911,0.928c-1.188,0.125-2.476,0.26-3.84,0.371c-1.362,0.129-2.805,0.214-4.294,0.326
		c-2.98,0.206-6.152,0.503-9.316,0.882c-3.165,0.361-6.333,0.707-9.304,1.001c-1.487,0.139-2.924,0.273-4.287,0.4
		c-1.362,0.132-2.653,0.229-3.845,0.318c-2.383,0.179-4.369,0.328-5.758,0.432c-1.392,0.084-2.188,0.132-2.188,0.132l-0.005-0.05
		c0,0,0.791-0.102,2.173-0.279c1.385-0.158,3.364-0.383,5.738-0.653c1.187-0.135,2.473-0.282,3.836-0.407
		c1.363-0.13,2.8-0.267,4.286-0.409c2.975-0.268,6.151-0.521,9.328-0.758c3.179-0.221,6.351-0.522,9.316-0.877
		c1.484-0.168,2.916-0.355,4.279-0.483c1.361-0.146,2.65-0.254,3.841-0.354c4.76-0.421,7.946-0.569,7.946-0.569L632.12,403.843z"/>
</g>
<g>
	<path d="M582.857,409.853c0,0,3.064-0.46,7.68-0.952c1.153-0.128,2.403-0.268,3.728-0.382c1.323-0.133,2.724-0.223,4.169-0.339
		c2.895-0.215,5.974-0.522,9.046-0.91c3.072-0.371,6.147-0.727,9.033-1.029c1.443-0.144,2.839-0.282,4.162-0.414
		c1.322-0.136,2.576-0.236,3.733-0.329c2.313-0.186,4.242-0.341,5.592-0.45c1.352-0.088,2.124-0.139,2.124-0.139l0.006,0.05
		c0,0-0.768,0.104-2.11,0.286c-1.345,0.162-3.265,0.393-5.57,0.67c-1.152,0.139-2.4,0.29-3.724,0.419
		c-1.323,0.134-2.719,0.275-4.162,0.421c-2.888,0.277-5.972,0.54-9.057,0.787c-3.088,0.23-6.167,0.542-9.046,0.906
		c-1.441,0.173-2.831,0.364-4.154,0.496c-1.321,0.15-2.574,0.262-3.729,0.367c-4.622,0.435-7.716,0.593-7.716,0.593L582.857,409.853
		z"/>
</g>
</svg>
