<svg version="1.1" id="Layer_1" xmlns="http://www.w3.org/2000/svg" xmlns:xlink="http://www.w3.org/1999/xlink" x="0px" y="0px"
	 width="1200px" height="1600px" viewBox="0 0 1200 1600" enable-background="new 0 0 1200 1600" xml:space="preserve">
<g transform="translate(0.000000,1600.000000) scale(0.100000,-0.100000)" fill="#000000">
	<path d="M5665,14119.998c-10.996-5-30-8.999-42.002-8.999c-12.002-1.001-33.994-6.001-50-13.003c-15-5.996-33.994-10-42.002-8.999
		c-7.998,1.001-10-1.997-5-10c5-8.999,1.006-11.001-13.994-6.997c-12.002,3.999-20,1.997-17.002-2.002
		c2.998-5-14.004-13.999-37.002-21.001c-155-41.001-218.994-81.997-310.996-198.999c-80-101.001-146.006-226.001-191.006-360
		c-58.994-176.001-65-258.999-30.996-385c7.998-27.002,19.004-68.999,25-92.998c9.004-32.998,15-42.002,27.998-37.998
		c9.004,2.998,36.006,10,60,15.996l42.998,10.996l-5.996,53.003c-5,38.003-2.998,55,7.002,63.003c22.002,18.999,37.998,0,45-53.003
		c2.998-26.997,5.996-49.995,7.002-49.995c10.996-11.006,46.992-12.002,56.992-1.006c7.002,7.002,23.008,12.002,36.006,9.004
		c17.002-3.003,25,1.997,32.002,18.999c5,12.998,6.992,26.997,5,30c-1.006,2.998-8.008,41.997-13.008,86.997
		c-7.998,66.001-7.998,88.003,4.004,116.001c7.998,20,15,66.001,15,103.999c0,70,19.004,142.002,57.998,219.004
		c65,126.997,315,176.997,500,160c39.004-4.004,61.006-3.003,57.002,2.998c-9.004,15,0.996,12.002,47.002-11.001
		c22.998-11.997,50-31.997,60-43.999s27.002-25,37.998-27.998c15.996-4.004,20,0,20,18.999s5,23.999,25,23.999s25-5,25-23.999
		s4.004-23.003,20-18.999c10.996,2.998,27.998,15.996,37.998,27.998s37.002,32.002,60,43.999
		c46.006,23.003,56.006,26.001,47.002,11.001c-4.004-6.001,17.998-7.002,57.002-2.998c327.998,62.998,480-106.001,522.002-207.002
		c31.992-73.999,35.996-95,35.996-166.001c0-51.001,5.996-95,15-117.998c12.998-31.001,14.004-50,4.004-126.001
		c-6.006-48.999-9.004-95-6.006-102.998c7.998-20,107.998-39.004,124.004-24.004c2.998,4.004,7.998,26.001,10,51.001
		c10.996,90,50,78.999,55-13.999l2.998-54.004l50-11.992c27.002-7.002,50-12.002,50.996-11.006
		c6.006,6.006,53.008,189.004,59.004,227.002c14.004,97.998-47.002,320-132.002,482.002
		c-57.002,107.998-157.002,235.996-220,281.997c-45.996,33.003-105.996,58.999-200.996,85c-22.998,7.002-40,16.001-37.002,21.001
		c2.998,3.999-5,6.001-17.002,2.002c-15.996-4.004-18.994-2.002-12.998,7.998s4.004,12.002-7.998,7.002
		c-9.004-3.003-19.004-2.002-22.002,1.997c-9.004,16.001-152.002,43.999-187.002,37.002c-17.998-3.999-68.994-10-112.998-13.003
		c-44.004-2.998-85.996-10-92.998-15c-15-12.998-227.002-10.996-252.002,2.002c-10,6.001-50,10-89.004,10
		c-37.998,0-72.998,5-75.996,10C5777.998,14132,5692.998,14132,5665,14119.998z M6012.998,14022.996c-7.002-1.997-18.994-1.997-25,0
		c-7.002,3.003-2.002,5,12.002,5S6019.003,14025.999,6012.998,14022.996z"/>
</g>
</svg>
