<?xml version="1.0" standalone="no"?>
<!DOCTYPE svg PUBLIC "-//W3C//DTD SVG 20010904//EN"
 "http://www.w3.org/TR/2001/REC-SVG-20010904/DTD/svg10.dtd">
<svg version="1.0" xmlns="http://www.w3.org/2000/svg"
 width="1200.000000pt" height="1600.000000pt" viewBox="0 0 1200.000000 1600.000000"
 preserveAspectRatio="xMidYMid meet">

<g transform="translate(0.000000,1600.000000) scale(0.100000,-0.100000)"
fill="#000000" stroke="none">
<path d="M6098 14191 c-13 -9 -31 -11 -56 -5 -53 11 -268 8 -354 -5 -134 -21
-292 -63 -345 -93 -140 -79 -240 -215 -322 -440 -35 -96 -69 -250 -75 -343 -7
-99 -29 -139 -114 -206 -76 -60 -77 -66 -10 -61 11 1 15 -3 12 -13 -4 -8 -1
-15 5 -15 16 0 -23 -76 -68 -130 -48 -60 -71 -96 -71 -115 0 -23 70 -196 92
-228 23 -32 27 -31 39 15 6 25 8 14 5 -41 l-3 -73 58 -65 c33 -36 59 -69 59
-74 0 -12 46 -78 81 -117 l30 -32 -10 -278 c-12 -322 -24 -470 -52 -638 l-20
-120 30 -111 c47 -172 62 -207 173 -388 90 -148 128 -205 137 -205 13 0 90
-82 97 -102 11 -35 27 -19 19 20 -4 20 -7 46 -6 57 0 11 -13 86 -29 166 -35
171 -54 331 -46 373 3 16 2 34 -3 40 -5 6 -12 117 -16 246 -4 129 -8 237 -10
240 -1 3 -6 86 -9 185 -4 99 -9 207 -11 240 -2 33 -7 294 -10 580 -9 645 -6
678 68 815 28 52 66 124 85 160 19 36 55 97 80 135 92 142 134 182 202 187 17
1 34 6 36 10 3 5 10 6 15 3 5 -4 17 -1 26 4 14 8 4 10 -42 10 -142 1 -205 -68
-395 -430 -83 -158 -143 -233 -243 -299 -60 -40 -64 -41 -127 -37 -96 7 -132
17 -126 33 3 8 -1 14 -9 14 -8 0 4 18 28 43 50 50 79 134 98 287 6 52 15 102
19 110 4 8 10 29 14 45 12 71 61 174 132 280 51 77 209 237 256 258 21 10 95
31 165 47 112 26 147 30 280 30 139 0 153 -2 162 -19 6 -10 21 -21 34 -25 18
-4 23 -12 22 -33 -2 -19 -1 -20 2 -5 2 12 8 22 13 22 5 0 7 7 4 14 -4 10 7 20
33 31 65 28 365 10 528 -31 84 -22 111 -38 194 -118 197 -190 290 -379 321
-654 10 -90 38 -187 66 -229 8 -13 27 -29 42 -35 21 -9 23 -12 10 -15 -9 -2
-15 -10 -12 -17 6 -15 -76 -36 -139 -36 -40 0 -105 27 -132 53 -6 7 -29 26
-49 42 -56 44 -114 130 -206 309 -92 176 -179 302 -233 335 -25 15 -64 25
-128 32 -105 12 -147 7 -181 -21 -28 -23 -13 -25 35 -5 20 8 56 14 79 14 39
-1 40 -2 13 -8 -22 -5 -8 -9 57 -14 99 -8 136 -19 145 -44 4 -10 23 -40 44
-68 20 -27 44 -63 53 -80 9 -16 25 -45 36 -63 11 -18 37 -65 58 -105 21 -40
51 -92 66 -116 39 -62 53 -107 60 -197 4 -43 9 -104 12 -134 6 -51 5 -53 -12
-40 -16 14 -17 13 -10 -20 17 -83 25 -158 21 -200 -3 -25 -7 -220 -10 -435 -2
-214 -7 -421 -10 -460 -3 -38 -12 -230 -20 -425 -8 -195 -18 -371 -21 -390 -4
-19 -6 -58 -5 -86 3 -65 -13 -187 -45 -339 -14 -66 -27 -136 -29 -155 -1 -19
-6 -50 -10 -69 -6 -27 -5 -33 6 -29 8 2 19 15 25 27 7 12 27 38 45 57 29 30
35 32 49 19 14 -12 17 -12 28 6 7 11 10 24 7 30 -4 5 31 69 76 142 97 155 175
314 190 389 5 29 14 62 19 73 19 46 19 62 1 173 -32 201 -41 289 -51 557 -6
143 -12 288 -14 323 -3 57 0 65 28 100 50 60 76 100 76 116 0 8 23 41 51 73
l51 58 -6 80 -5 80 16 -44 16 -44 18 24 c24 32 89 202 89 233 0 37 -16 73 -54
119 -18 23 -43 60 -54 83 l-21 41 29 16 c15 9 36 17 46 17 10 0 -12 23 -54 56
-40 31 -79 68 -87 84 -8 15 -21 90 -30 166 -32 282 -92 433 -246 619 -49 59
-186 155 -221 155 -13 0 -49 9 -82 20 -138 46 -516 81 -558 51z m-844 -1097
c-3 -17 -1 -23 6 -19 8 5 9 -9 4 -47 -16 -118 4 -1082 27 -1303 6 -55 12 -289
14 -520 3 -375 5 -433 25 -544 11 -69 24 -143 27 -165 3 -23 10 -50 16 -61 9
-18 9 -19 -7 -5 -41 33 -139 163 -161 213 -20 46 -40 135 -59 262 -3 17 -3
-14 -1 -69 3 -81 1 -95 -9 -80 -21 33 -64 136 -86 212 -24 78 -24 85 -1 367 5
66 12 196 16 289 4 92 8 180 10 195 12 99 18 386 18 748 l-1 422 67 50 c37 27
73 57 80 65 18 22 20 20 15 -10z m1689 -14 c18 -17 51 -43 74 -57 29 -19 43
-35 45 -55 3 -15 3 -30 0 -32 -4 -5 -2 -703 3 -811 1 -38 6 -128 9 -200 3 -71
8 -150 11 -175 2 -25 7 -115 10 -200 8 -228 14 -309 26 -369 13 -62 5 -139
-22 -231 -19 -67 -78 -200 -88 -200 -3 0 -5 35 -5 77 1 43 0 62 -2 43 -8 -60
-34 -169 -53 -220 -15 -40 -154 -230 -168 -230 -2 0 -2 4 1 9 4 5 18 87 33
183 25 160 27 199 29 538 2 201 7 424 13 495 23 292 31 510 36 1015 2 228 4
423 5 433 0 23 6 22 43 -13z m-2048 -117 c-4 -16 -15 -68 -26 -118 -28 -131
-60 -245 -70 -245 -5 0 -9 2 -9 5 0 3 -9 39 -20 79 -18 67 -18 79 -6 114 8 22
31 61 51 87 20 26 43 61 51 76 19 38 39 38 29 2z m2418 -46 c27 -40 51 -89 58
-121 10 -48 9 -62 -10 -125 -12 -39 -23 -71 -25 -71 -17 0 -107 378 -92 384
18 7 22 3 69 -67z m-2348 32 l-30 -20 35 6 c19 4 40 11 45 15 6 4 20 11 32 14
21 7 21 5 11 -31 -6 -24 -9 -147 -6 -338 2 -165 2 -316 -2 -335 l-5 -35 -20
24 c-11 13 -29 32 -39 42 -13 12 -21 37 -24 74 -4 53 -22 79 -22 33 0 -21 -3
-19 -35 15 -34 38 -35 39 -35 125 1 48 5 107 10 132 5 25 12 70 15 100 4 30
13 88 22 128 15 71 15 72 47 72 l31 0 -30 -21z m2258 -70 c17 -97 28 -190 36
-294 8 -107 8 -111 -17 -154 -25 -44 -25 -45 -35 -20 -9 21 -11 16 -17 -39 -5
-42 -13 -69 -26 -81 -10 -10 -27 -29 -37 -41 -10 -12 -21 -19 -25 -15 -4 4 -7
170 -7 369 l0 363 60 -22 c58 -22 60 -24 68 -66z m-18 80 c11 -17 0 -20 -21
-4 -17 13 -17 14 -2 15 9 0 20 -5 23 -11z m-2138 -406 c-3 -10 -5 -4 -5 12 0
17 2 24 5 18 2 -7 2 -21 0 -30z"/>
<path d="M6065 13894 c-7 -10 -24 -16 -50 -16 -22 0 -44 -6 -50 -14 -20 -28
-97 -28 -186 -1 -124 37 -139 40 -133 23 3 -9 -3 -17 -15 -21 -39 -12 -120
-107 -182 -213 -90 -153 -149 -273 -147 -298 2 -26 18 -22 18 4 0 9 8 31 18
47 10 17 40 71 67 120 157 291 193 330 310 330 51 0 77 -5 97 -19 23 -15 36
-20 67 -25 3 -1 -9 -16 -27 -33 -40 -43 -62 -96 -51 -125 5 -13 10 -23 12 -23
2 0 25 20 52 45 26 25 50 44 52 42 2 -2 -8 -30 -22 -62 -32 -71 -57 -174 -47
-192 6 -10 18 -3 49 26 40 39 61 77 118 214 29 69 65 116 53 69 -5 -19 -4 -21
8 -11 19 16 30 4 14 -16 -20 -24 -2 -17 28 10 15 14 36 34 47 44 25 23 65 37
65 22 0 -16 75 -3 126 20 57 27 112 27 169 -1 40 -19 57 -38 110 -119 34 -53
79 -127 99 -164 64 -118 78 -142 87 -151 5 -6 9 -18 9 -28 0 -10 5 -18 10 -18
19 0 9 33 -36 118 -97 182 -159 279 -213 332 -84 84 -100 88 -216 55 -71 -20
-106 -26 -133 -20 -44 9 -56 9 -142 1 -72 -6 -112 0 -89 15 8 4 28 6 46 3 20
-3 33 -1 33 5 0 6 -4 11 -10 11 -5 0 -7 7 -4 15 8 20 2 19 -11 -1z m-55 -70
c0 -17 -85 -101 -97 -97 -8 3 -28 -4 -44 -16 -16 -12 -29 -18 -29 -13 0 15 56
88 85 110 25 20 85 31 85 16z m28 -31 c-23 -26 -89 -173 -82 -184 3 -5 0 -9
-5 -9 -6 0 -11 -5 -11 -11 0 -5 5 -7 10 -4 6 3 10 4 10 0 0 -9 -72 -76 -77
-71 -7 6 17 86 42 141 20 44 108 155 122 155 4 0 -1 -8 -9 -17z"/>
<path d="M6840 13340 c0 -5 7 -7 15 -4 8 4 15 8 15 10 0 2 -7 4 -15 4 -8 0
-15 -4 -15 -10z"/>
<path d="M6864 13316 c-6 -16 4 -39 53 -113 19 -29 40 -53 46 -53 5 0 3 8 -5
18 -26 30 -88 148 -81 155 3 4 3 7 -1 7 -3 0 -9 -6 -12 -14z"/>
<path d="M5272 13289 c-9 -17 -26 -45 -37 -63 -11 -17 -31 -49 -44 -71 l-24
-40 37 39 c34 37 68 93 87 144 12 32 1 27 -19 -9z"/>
</g>
</svg>
