<?xml version="1.0" standalone="no"?>
<!DOCTYPE svg PUBLIC "-//W3C//DTD SVG 20010904//EN"
 "http://www.w3.org/TR/2001/REC-SVG-20010904/DTD/svg10.dtd">
<svg version="1.0" xmlns="http://www.w3.org/2000/svg"
 width="1200.000000pt" height="1600.000000pt" viewBox="0 0 1200.000000 1600.000000"
 preserveAspectRatio="xMidYMid meet">

<g transform="translate(0.000000,1600.000000) scale(0.100000,-0.100000)"
fill="#000000" stroke="none">
<path d="M6098 14191 c-13 -9 -31 -11 -56 -5 -53 11 -268 8 -354 -5 -134 -21
-292 -63 -345 -93 -140 -79 -240 -215 -322 -440 -35 -96 -69 -250 -75 -343 -7
-99 -29 -139 -114 -206 -76 -60 -77 -66 -10 -61 11 1 15 -3 12 -13 -4 -8 -1
-15 5 -15 16 0 -23 -76 -68 -130 -48 -60 -71 -96 -71 -115 0 -23 70 -196 92
-228 23 -32 27 -31 39 15 6 25 8 14 5 -41 l-3 -73 58 -65 c33 -36 59 -69 59
-74 0 -12 46 -78 81 -117 l30 -32 -10 -278 c-12 -322 -24 -470 -52 -638 l-20
-120 30 -111 c47 -172 62 -207 173 -388 90 -148 128 -205 137 -205 13 0 90
-82 97 -102 11 -35 27 -19 19 20 -4 20 -7 46 -6 57 0 11 -13 86 -29 166 -35
171 -54 331 -46 373 3 16 2 34 -3 40 -5 6 -11 112 -15 236 -4 124 -9 239 -11
255 -2 17 -7 100 -10 185 -3 85 -8 196 -10 245 -2 50 -7 297 -11 550 -4 358
-3 466 7 488 12 26 15 27 90 27 250 0 518 127 631 298 16 24 17 25 23 7 12
-39 50 -107 75 -134 25 -27 152 -101 200 -116 21 -7 23 -6 13 7 -7 8 -10 18
-7 21 4 4 -5 22 -20 41 -14 19 -26 37 -26 41 0 6 48 -23 68 -42 7 -7 17 -13
22 -13 5 0 15 -6 22 -13 42 -43 253 -98 376 -99 l72 -1 0 -31 c0 -17 5 -47 11
-66 14 -45 10 -796 -6 -1055 -3 -49 -12 -247 -20 -440 -9 -192 -18 -366 -21
-385 -4 -19 -6 -58 -5 -86 3 -65 -13 -187 -45 -339 -14 -66 -27 -136 -29 -155
-1 -19 -6 -50 -10 -69 -6 -27 -5 -33 6 -29 8 2 19 15 25 27 7 12 27 38 45 57
29 30 35 32 49 19 14 -12 17 -12 28 6 7 11 10 24 7 30 -4 5 31 69 76 142 97
155 175 314 190 389 5 29 14 62 19 73 19 46 19 62 1 173 -32 201 -41 289 -51
557 -6 143 -12 288 -14 323 -3 57 0 65 28 100 50 60 76 100 76 116 0 8 23 41
51 73 l51 58 -6 80 -5 80 16 -44 16 -44 18 24 c24 32 89 202 89 233 0 37 -16
73 -54 119 -18 23 -43 60 -54 83 l-21 41 29 16 c15 9 36 17 46 17 10 0 -12 23
-54 56 -40 31 -79 68 -87 84 -8 15 -21 90 -30 166 -32 282 -92 433 -246 619
-49 59 -186 155 -221 155 -13 0 -49 9 -82 20 -138 46 -516 81 -558 51z m-48
-46 c10 -12 15 -12 35 1 20 13 52 15 172 13 150 -2 177 -5 338 -34 124 -22
165 -43 252 -127 199 -193 292 -381 323 -656 10 -90 38 -187 66 -229 8 -13 27
-29 42 -35 21 -9 23 -12 10 -15 -9 -2 -15 -10 -12 -17 6 -14 -75 -36 -135 -36
-55 0 -219 44 -277 73 -27 14 -66 41 -88 61 l-39 36 7 -42 c11 -66 27 -91 80
-120 l50 -26 -48 -7 c-94 -14 -222 7 -349 57 -83 33 -217 111 -230 134 -4 7
-17 19 -29 25 -20 11 -20 11 -2 -15 11 -14 22 -26 27 -26 4 0 7 -8 7 -18 0 -9
9 -34 20 -55 23 -43 16 -46 -31 -12 -19 13 -44 29 -55 34 -32 14 -81 79 -99
130 -9 25 -19 81 -22 123 -6 86 -23 96 -23 14 0 -57 -15 -85 -91 -177 -42 -50
-115 -93 -259 -152 -125 -51 -284 -78 -366 -62 l-38 7 47 25 c40 22 50 34 67
81 22 59 20 74 -7 50 -32 -27 -107 -65 -193 -98 -73 -28 -98 -33 -175 -33
-107 0 -158 10 -151 29 3 8 -1 14 -9 14 -8 0 4 18 28 43 50 50 79 134 98 287
6 52 15 102 19 110 4 8 10 29 14 45 12 71 61 174 132 280 51 77 209 237 257
259 20 9 92 30 160 46 108 25 141 29 293 29 139 1 174 -2 184 -14z m-806
-1149 c-3 -8 -1 -17 5 -21 7 -4 11 -80 11 -223 1 -317 18 -900 31 -1027 6 -60
12 -297 14 -525 3 -371 5 -428 25 -539 11 -69 24 -143 27 -165 3 -23 10 -50
16 -61 9 -18 9 -19 -7 -5 -41 33 -139 163 -161 213 -20 46 -40 135 -59 262 -3
17 -3 -14 -1 -69 3 -81 1 -95 -9 -80 -21 33 -64 136 -86 212 -24 78 -24 85 -1
367 5 66 12 196 16 289 4 92 8 180 10 195 11 93 18 383 19 738 1 226 4 414 7
417 3 4 26 8 51 11 24 2 56 9 69 14 13 5 25 10 26 10 1 1 0 -5 -3 -13z m1768
-12 l36 -6 6 -81 c3 -45 8 -271 11 -502 5 -410 7 -460 19 -635 3 -47 8 -143
11 -215 10 -234 16 -319 26 -365 20 -85 -9 -229 -73 -362 -17 -38 -34 -68 -37
-68 -3 0 -5 35 -5 77 1 43 0 62 -2 43 -8 -60 -34 -169 -53 -220 -15 -40 -154
-230 -168 -230 -2 0 -2 4 1 9 4 5 18 87 33 183 25 160 27 200 29 528 1 195 8
425 14 510 22 293 26 436 29 869 2 388 4 436 19 457 12 17 24 22 42 19 14 -2
42 -7 62 -11z m-2117 -21 c-4 -16 -15 -68 -26 -118 -28 -131 -60 -245 -70
-245 -5 0 -9 2 -9 5 0 3 -9 39 -20 79 -18 67 -18 79 -6 114 8 22 31 61 51 87
20 26 43 61 51 76 19 38 39 38 29 2z m2418 -46 c27 -40 51 -89 58 -121 10 -48
9 -62 -10 -125 -12 -39 -23 -71 -25 -71 -17 0 -107 378 -92 384 18 7 22 3 69
-67z m-2258 -314 c-1 -199 -4 -365 -7 -368 -4 -4 -15 3 -25 15 -10 12 -27 31
-37 41 -13 12 -21 37 -24 74 -4 53 -22 79 -22 33 0 -21 -3 -19 -35 15 -34 38
-35 39 -35 125 1 48 5 107 10 132 5 25 12 70 15 100 4 30 13 88 22 127 l15 73
61 -3 62 -2 0 -362z m2162 302 c19 -94 35 -211 43 -325 7 -101 6 -107 -18
-149 -25 -44 -25 -45 -35 -20 -9 21 -11 16 -17 -39 -5 -42 -13 -69 -26 -81
-10 -10 -28 -29 -39 -42 l-19 -24 -7 31 c-4 21 -3 709 1 709 0 0 24 0 53 0
l52 0 12 -60z m-2150 -352 c-3 -10 -5 -4 -5 12 0 17 2 24 5 18 2 -7 2 -21 0
-30z"/>
<path d="M6072 14075 c0 -16 2 -22 5 -12 2 9 2 23 0 30 -3 6 -5 -1 -5 -18z"/>
<path d="M6073 13615 c0 -44 2 -61 4 -37 2 23 2 59 0 80 -2 20 -4 1 -4 -43z"/>
</g>
</svg>
