<?xml version="1.0" standalone="no"?>
<!DOCTYPE svg PUBLIC "-//W3C//DTD SVG 20010904//EN"
 "http://www.w3.org/TR/2001/REC-SVG-20010904/DTD/svg10.dtd">
<svg version="1.0" xmlns="http://www.w3.org/2000/svg"
 width="1200.000000pt" height="1600.000000pt" viewBox="0 0 1200.000000 1600.000000"
 preserveAspectRatio="xMidYMid meet">

<g transform="translate(0.000000,1600.000000) scale(0.100000,-0.100000)"
fill="#000000" stroke="none">
<path d="M5515 13185 c-33 -14 -79 -61 -113 -116 -17 -28 -22 -54 -24 -120 -3
-78 0 -89 30 -151 33 -68 102 -138 135 -138 9 0 18 -4 21 -9 3 -5 23 -11 43
-13 96 -11 188 47 222 142 12 31 21 64 21 74 0 9 5 16 11 16 17 0 4 112 -18
158 -29 61 -112 138 -163 153 -64 17 -131 19 -165 4z"/>
<path d="M6510 13189 c-102 -16 -209 -130 -220 -234 -3 -30 -3 -55 1 -55 3 0
9 -20 12 -44 9 -62 55 -156 84 -169 12 -5 23 -13 23 -17 0 -4 12 -13 28 -19
141 -57 296 48 341 231 7 32 8 55 1 73 -6 15 -9 39 -8 53 2 35 -37 95 -95 150
-49 45 -66 48 -167 31z"/>
</g>
</svg>
