<?xml version="1.0" standalone="no"?>
<!DOCTYPE svg PUBLIC "-//W3C//DTD SVG 20010904//EN"
 "http://www.w3.org/TR/2001/REC-SVG-20010904/DTD/svg10.dtd">
<svg version="1.0" xmlns="http://www.w3.org/2000/svg"
 width="1200.000000pt" height="1600.000000pt" viewBox="0 0 1200.000000 1600.000000"
 preserveAspectRatio="xMidYMid meet">

<g transform="translate(0.000000,1600.000000) scale(0.100000,-0.100000)"
fill="#000000" stroke="none">
<path d="M5593 13107 c-18 -12 -42 -43 -54 -69 -18 -39 -21 -58 -17 -118 6
-81 23 -112 77 -141 29 -16 37 -16 60 -5 14 7 31 12 37 9 12 -4 66 60 76 91 3
12 6 35 7 53 l1 32 -30 -17 c-27 -15 -32 -16 -57 -2 -23 13 -29 24 -31 57 -3
36 1 44 22 59 17 10 35 14 51 10 24 -6 25 -5 15 14 -14 26 -61 50 -97 49 -15
0 -42 -10 -60 -22z"/>
<path d="M6432 13105 c-17 -14 -36 -43 -42 -63 -14 -51 -13 -165 2 -180 7 -7
9 -12 5 -12 -4 0 6 -13 21 -30 16 -16 34 -30 41 -30 6 0 11 -4 11 -8 0 -4 8
-8 18 -8 9 -1 25 -4 34 -8 11 -5 24 0 37 13 12 12 25 21 30 21 12 0 37 57 45
102 l7 37 -35 -6 c-26 -4 -39 0 -55 16 -38 38 -17 111 33 111 48 0 -23 59 -80
67 -33 4 -45 1 -72 -22z"/>
</g>
</svg>
