<?xml version="1.0" encoding="utf-8"?>
<!-- Generator: Adobe Illustrator 16.0.0, SVG Export Plug-In . SVG Version: 6.00 Build 0)  -->
<!DOCTYPE svg PUBLIC "-//W3C//DTD SVG 1.1//EN" "http://www.w3.org/Graphics/SVG/1.1/DTD/svg11.dtd">
<svg version="1.1" xmlns="http://www.w3.org/2000/svg" xmlns:xlink="http://www.w3.org/1999/xlink" x="0px" y="0px" width="1200px"
	 height="1600px" viewBox="0 0 1200 1600" enable-background="new 0 0 1200 1600" xml:space="preserve">
<g id="Layer_3">
</g>
<g id="Layer_1">
	<g transform="translate(0.000000,1600.000000) scale(0.100000,-0.100000)">
		<path d="M5570.996,13319.998c-75.996-22.998-81.992-27.002-36.992-26.001c18.994,1.001,31.992,5,28.994,8.999
			c-7.002,11.001,142.002,7.002,186.006-5c17.998-5,55-22.998,82.998-40c27.002-16.997,52.002-26.997,55.996-23.999
			c12.998,13.999-73.994,75-128.994,90C5689.003,13343.997,5650.996,13342.996,5570.996,13319.998z"/>
		<path d="M6387.001,13322.996c-50-16.997-127.002-75.996-115-87.998c2.998-2.998,23.994,5,45.996,20
			c22.002,13.999,61.006,32.998,87.998,41.001c54.004,16.001,155,18.999,170,3.999c5-5,20-7.002,33.008-2.998
			c21.992,5.996,21.992,6.997-10,20C6545.996,13338.997,6442.998,13342,6387.001,13322.996z"/>
		<path d="M5545,13216.873c-58.994-16.001-74.004-30.874-107.002-67.876c-20-23.999-40-51.997-42.998-61.001
			c-4.004-10-20-48.999-25.996-65c-7.002-15-17.002-50-24.004-77.998c-10-42.998-17.002-52.998-47.012-67.007
			c-7.778-3.721-44.336-19.033-42.651-31.289c1.274-9.263,19.658-9.072,26.304-9.609c11.426-0.928,65.22,2.974,63.486-19.141
			c-3.477-44.355-90.566,10.508-90.703-10.859c-0.044-7.158,12.241-8.589,16.943-10.747c21.895-10.044,39.375-32.588,59.81-45.845
			c24.438-15.854,50.601-28.779,75.908-43.145c53.521-30.366,108.311-64.052,170.337-72.714c35.669-4.98,73.315-2.359,108.721,3.734
			c27.646,4.756,57.69,10.436,82.188,24.844c20.537,12.086,31.714,31.396,40.688,52.822c15.732,37.554,30.054,75.723,43.979,113.955
			c4.004,10.996,6.006,10.996,6.006-2.998c0.996-10-6.006-32.998-13.008-52.002c-18.994-44.004-8.994-45,27.002,0
			c54.004,67.002,52.998,99.004-7.002,245c-32.998,81.001-132.998,178.999-200.996,196.001c-5,1.997-19.004,5-30,7.998
			C5624.003,13227,5583.007,13226.873,5545,13216.873z M5690.996,13155.999c46.006-22.002,103.008-76.001,125-117.002
			c22.002-41.997,31.006-173.003,15-221.001c-16.152-51.157-53.047-122.24-104.067-145.43
			c-39.404-17.914-77.119-22.973-119.39-13.461c-46.499,10.463-96.504,30.41-128.862,66.518
			c-29.624,33.066-51.733,76.025-63.579,118.638c-7.72,27.754-11.377,57.017-13.096,85.737
			c-4.004,67.002-1.006,82.002,20.996,126.001c25,47.998,62.002,90,102.002,112.998c14.326,8.267,54.092,17.261,90.625,13.501
			C5645.385,13179.437,5671.689,13165.428,5690.996,13155.999z"/>
		<path d="M5625.717,13122.708c-17.52-5.508-34.082-14.424-47.993-25.083c-69.106-52.939-71.323-167.471-46.299-243.496
			c7.383-22.417,19.106-43.218,36.582-59.307c32.183-29.629,79.326-44.028,121.211-27.72c27.734,10.796,55.601,28.813,70.229,55.454
			c14.941,27.202,20.288,58.696,18.55,89.443l-2.998,52.998l-14.165-78.335c-28.994-96.006-92.837-117.661-164.839-84.663
			c-58.994,25.996-83.994,150-45.996,231.997c10.654,24.092,21.245,46.909,44.81,60.454c32.729,18.813,76.211,28.911,111.87,12.373
			c29.18-13.54,37.036-43.081,59.312-63.73c-17.876,34.111-38.247,71.914-78.398,82.476
			C5667.431,13130.872,5645.937,13129.061,5625.717,13122.708z"/>
		<path d="M6502.998,13219.998c-40.996-8.999-75-31.001-137.002-88.999c-53.994-50-95.996-131.001-116.992-225.01
			c-13.896-64.077,10.508-105.273,51.074-153.062c17.744-20.898,14.795-0.386,11.035,16.04
			c-3.223,14.077-12.891,33.569-8.115,48.159c8.525-5.332,12.275-18.799,15.967-27.637c13.926-33.306,18.721-72.061,40.879-101.426
			c19.189-25.439,51.748-35.658,81.152-44.063c73.008-22.002,164.004-14.004,221.006,17.998
			c23.994,13.994,73.994,42.002,112.998,62.998c28.877,15.566,57.148,32.256,84.307,50.659c14.385,9.751,30.01,19.546,39.785,34.302
			c-16.328,8.403-46.152-10.361-64.824-8.862c-30.928,2.48-26.455,25.488,0.537,30.234c9.307,1.636,59.443-0.781,61.24,12.144
			c1.27,9.111-29.521,28.975-36.455,31.992c-8.818,3.848-19.063,3.433-27.09,9.194c-16.729,12.012-22.031,38.091-22.5,57.339
			c-0.996,40.996-47.998,160-77.002,191.997c-43.994,47.002-62.998,60-127.998,78.003
			C6572.001,13222,6520,13224.998,6502.998,13219.998z M6630.996,13163.997c66.006-33.999,124.004-127.998,128.008-206.997
			c3.994-82.002-53.008-217.002-109.004-257.002c-155.996-110.996-335.996,0.996-334.004,205.996
			c0,95,24.004,153.003,81.006,204.004C6467.001,13170.999,6570.996,13194.998,6630.996,13163.997z M6297.001,12837.996
			c-2.998-7.998-6.006-5-6.006,6.006c-0.996,10.996,2.002,16.992,5,12.998C6299.003,12854.002,6300,12844.998,6297.001,12837.996z"
			/>
		<path d="M6467.783,13125.726c-27.168-7.827-51.738-25.728-64.717-50.469c-15.029-28.647-21.328-62.246-25.723-94.009
			c-7.139-51.655-11.514-105.107,17.656-151.25c55-87.002,170-95,215.996-15c20,35,38.008,142.002,22.002,132.002
			c-5.996-4.004-12.998-29.004-17.002-56.006c-15.996-123.994-153.994-138.994-205-21.992
			c-10.361,24.404-14.98,55.576-18.242,81.763c-3.242,26.045-2.93,52.744,3.643,78.271c11.621,45.117,44.561,85.996,94.639,84.81
			c27.266-0.645,59.521-11.201,83.203-24.546c8.74-4.951,15.371-14.028,24.531-18.008c-1.953,4.229-5.977,7.715-8.77,11.704
			c-7.002,10-30,27.002-49.004,37.002C6518.847,13131.653,6492.255,13132.776,6467.783,13125.726z"/>
	</g>
</g>
<g id="Layer_2">
	<ellipse fill="#FFFFFF" cx="571.481" cy="301.519" rx="7.223" ry="8.481"/>
	<ellipse fill="#FFFFFF" cx="657.208" cy="301.519" rx="7.223" ry="8.481"/>
</g>
</svg>
