<?xml version="1.0" standalone="no"?>
<!DOCTYPE svg PUBLIC "-//W3C//DTD SVG 20010904//EN"
 "http://www.w3.org/TR/2001/REC-SVG-20010904/DTD/svg10.dtd">
<svg version="1.0" xmlns="http://www.w3.org/2000/svg"
 width="1200.000000pt" height="1600.000000pt" viewBox="0 0 1200.000000 1600.000000"
 preserveAspectRatio="xMidYMid meet">

<g transform="translate(0.000000,1600.000000) scale(0.100000,-0.100000)"
fill="#000000" stroke="none">
<path d="M6053 14457 c-11 -45 -33 -127 -48 -182 -16 -59 -28 -133 -30 -180
-2 -44 -12 -118 -23 -165 -12 -47 -24 -130 -27 -185 -3 -55 -8 -113 -10 -130
-19 -131 -13 -191 37 -340 23 -66 40 -90 80 -111 38 -20 75 -17 114 6 18 12
35 16 38 11 3 -5 -1 -11 -9 -15 -15 -5 -21 -36 -7 -36 21 1 36 22 37 57 2 21
10 63 19 93 9 30 16 75 16 100 0 25 7 78 15 119 16 72 14 123 -6 202 -15 62
-29 160 -39 274 -5 61 -20 151 -33 200 -39 142 -54 204 -72 288 -9 42 -19 77
-23 77 -4 0 -17 -37 -29 -83z m68 -232 c12 -55 27 -127 34 -160 8 -33 16 -90
19 -127 l5 -68 -27 18 c-34 21 -52 44 -45 57 4 5 3 7 -2 3 -10 -10 -37 11 -30
23 3 4 -6 27 -21 49 -24 36 -27 50 -26 111 1 38 6 77 11 87 5 10 15 56 21 102
14 106 22 119 33 55 4 -27 17 -95 28 -150z m-29 -327 c20 -15 38 -25 41 -22 3
3 14 1 24 -5 20 -10 33 -56 52 -181 8 -55 7 -271 -3 -335 -13 -92 -19 -105
-62 -144 -24 -23 -52 -41 -61 -41 -23 1 -52 23 -75 57 -24 38 -23 48 5 30 13
-8 39 -19 59 -25 30 -8 35 -7 34 7 0 9 -13 21 -27 28 -15 6 -45 28 -67 48 -31
28 -43 48 -51 86 -12 56 -14 140 -5 188 l6 31 20 -25 c30 -38 163 -123 175
-111 3 2 -14 18 -38 35 -93 68 -149 165 -149 259 0 26 7 85 15 132 8 47 15 87
15 89 0 2 13 -14 28 -35 16 -21 44 -51 64 -66z"/>
<path d="M5960 13161 c13 -25 27 -34 40 -26 14 9 -12 45 -33 45 -14 0 -16 -4
-7 -19z"/>
</g>
</svg>
