<?xml version="1.0" standalone="no"?>
<!DOCTYPE svg PUBLIC "-//W3C//DTD SVG 20010904//EN"
 "http://www.w3.org/TR/2001/REC-SVG-20010904/DTD/svg10.dtd">
<svg version="1.0" xmlns="http://www.w3.org/2000/svg"
 width="1200.000000pt" height="1600.000000pt" viewBox="0 0 1200.000000 1600.000000"
 preserveAspectRatio="xMidYMid meet">

<g transform="translate(0.000000,1600.000000) scale(0.100000,-0.100000)"
fill="#000000" stroke="none">
<path d="M5590 9590 c-115 -37 -174 -80 -278 -205 -113 -134 -261 -354 -262
-387 0 -9 -4 -20 -10 -23 -14 -9 -12 -42 3 -57 12 -10 9 -19 -15 -52 -16 -22
-40 -66 -55 -98 -22 -50 -29 -58 -53 -58 -72 0 -135 -58 -128 -116 3 -22 -2
-28 -35 -39 -51 -18 -65 -31 -77 -75 -12 -44 3 -90 28 -90 11 0 7 -9 -13 -30
-21 -22 -28 -38 -27 -66 1 -20 6 -42 12 -49 8 -10 2 -23 -25 -52 -42 -44 -125
-149 -125 -157 0 -3 -26 -45 -57 -93 -31 -48 -69 -117 -85 -153 -16 -36 -34
-73 -39 -84 -6 -10 -8 -35 -4 -56 5 -28 0 -57 -19 -109 -55 -152 -83 -408 -61
-547 22 -133 20 -181 -7 -195 -58 -31 -92 -105 -83 -180 7 -57 12 -72 45 -141
24 -48 26 -59 14 -69 -24 -20 -18 -109 11 -160 39 -69 39 -71 22 -84 -43 -31
-43 -117 -2 -236 15 -43 20 -70 14 -80 -15 -23 -10 -86 10 -139 18 -48 18 -50
0 -55 -16 -5 -31 -32 -34 -60 0 -5 4 -23 11 -40 25 -64 26 -73 6 -79 -74 -24
-44 -226 49 -333 15 -18 43 -63 61 -100 19 -39 55 -90 83 -118 32 -32 55 -65
63 -92 9 -29 26 -53 56 -78 50 -41 82 -44 155 -16 27 11 52 17 55 14 3 -4 25
-8 48 -10 51 -5 109 16 174 62 27 19 57 35 67 35 11 0 53 18 95 39 43 22 101
47 130 56 100 32 175 99 184 165 2 13 17 39 35 57 22 23 34 47 39 79 8 57 -7
92 -46 106 -32 11 -38 23 -17 31 18 7 75 107 82 144 6 39 -5 72 -40 109 -16
17 -23 34 -19 43 44 107 58 186 34 201 -14 9 -5 19 72 82 71 57 99 137 78 215
-9 30 -20 45 -40 53 l-27 11 23 72 c13 40 39 119 59 175 47 137 79 267 110
443 14 79 31 167 39 194 8 28 26 104 40 171 14 66 30 134 36 150 6 16 17 56
24 90 10 49 23 73 57 113 24 28 46 51 49 51 15 0 88 -110 93 -140 4 -19 18
-73 32 -120 20 -69 53 -207 80 -335 3 -11 9 -40 14 -65 6 -25 18 -88 27 -140
25 -146 60 -279 125 -474 59 -177 62 -195 26 -196 -16 0 -48 -89 -41 -117 11
-53 52 -128 79 -148 14 -11 36 -28 47 -37 11 -9 25 -19 31 -21 9 -3 9 -10 0
-26 -7 -11 -13 -31 -13 -43 0 -29 24 -107 44 -146 15 -29 15 -32 -2 -44 -31
-22 -54 -66 -54 -102 0 -36 39 -113 79 -157 l23 -25 -35 -13 c-28 -10 -37 -20
-45 -52 -13 -49 0 -93 42 -138 15 -16 28 -37 28 -46 0 -39 49 -99 111 -138 15
-9 54 -25 88 -37 34 -11 91 -36 127 -55 36 -19 74 -35 85 -35 10 0 41 -16 67
-34 69 -50 97 -60 187 -62 44 -1 108 -8 141 -15 l62 -12 46 43 c30 29 50 57
57 84 7 27 25 53 55 79 28 24 59 67 81 111 20 39 51 89 69 112 91 111 117 279
51 331 -23 18 -23 18 -5 58 24 55 22 82 -7 109 -25 23 -25 25 -11 62 23 62 26
88 16 125 -10 34 -4 68 25 134 7 17 13 60 14 96 2 58 -1 70 -23 96 l-25 30 31
49 c38 60 47 119 24 163 -16 31 -16 33 15 89 33 61 47 141 35 206 -8 40 -59
106 -83 106 -14 0 -15 14 -8 108 20 264 2 463 -56 629 -25 69 -29 91 -20 109
14 32 -33 144 -121 284 -36 58 -71 116 -78 129 -6 13 -41 56 -75 96 -61 69
-63 75 -53 102 13 36 4 77 -22 103 -20 20 -20 20 1 41 17 17 20 29 16 62 -6
46 -33 77 -80 93 -26 9 -33 18 -38 45 -11 71 -50 106 -122 111 -28 1 -37 7
-42 25 -6 26 -74 145 -88 154 -5 4 -3 16 6 30 14 22 14 28 -5 69 -68 152 -280
437 -385 518 -72 56 -172 93 -248 91 -25 -1 -22 -3 15 -11 25 -6 51 -15 58
-20 8 -7 12 -6 12 3 0 9 3 10 8 4 4 -5 12 -11 19 -12 29 -6 122 -74 148 -109
16 -21 36 -45 45 -54 149 -153 339 -470 281 -470 -6 0 -12 4 -15 9 -7 11 -46
22 -46 13 0 -4 22 -30 49 -58 58 -61 91 -140 99 -238 5 -75 -13 -130 -49 -141
-28 -9 -59 -54 -58 -84 l1 -26 11 26 c7 14 18 33 26 43 16 19 72 21 89 4 23
-23 25 3 2 27 -13 14 -19 25 -12 25 11 0 42 94 42 130 0 18 4 21 23 16 12 -4
34 -9 49 -12 15 -4 35 -15 44 -26 16 -16 16 -23 5 -55 -15 -39 -6 -53 35 -53
50 0 95 -70 73 -111 -4 -9 -25 -20 -44 -23 -29 -6 -47 -1 -91 23 l-56 30 42
-45 c65 -71 76 -119 35 -159 -26 -27 -72 -33 -107 -14 -11 6 -22 8 -26 5 -3
-4 13 -14 36 -23 23 -8 39 -20 36 -24 -3 -5 2 -9 12 -9 9 0 36 19 60 43 l43
43 77 -75 c81 -80 126 -137 185 -236 68 -112 138 -253 135 -272 -2 -12 -14
-20 -34 -23 l-32 -5 30 -20 c57 -38 100 -204 120 -469 6 -76 8 -141 6 -145 -3
-4 -8 -52 -12 -107 -4 -66 -13 -111 -25 -136 l-19 -37 -28 16 c-53 31 -145
-14 -205 -100 -10 -15 -28 -19 -89 -21 -60 -2 -88 -9 -130 -30 -71 -36 -148
-109 -182 -171 -41 -76 -86 -230 -105 -355 -7 -41 -14 -76 -16 -78 -2 -2 -23
8 -48 22 -27 16 -59 26 -83 26 -31 0 -49 8 -89 41 -73 61 -141 101 -209 124
l-59 20 -52 136 c-66 173 -124 401 -140 550 -4 30 -8 70 -11 89 -3 19 -7 135
-9 258 -1 123 -5 226 -9 229 -6 7 -10 -104 -9 -264 1 -51 0 -93 -2 -93 -5 0
-52 149 -69 221 -26 108 -48 322 -36 353 5 14 41 58 80 97 52 53 68 65 60 45
-12 -32 -13 -64 -2 -50 4 5 14 27 21 49 14 43 29 77 71 170 57 124 69 157 91
257 13 57 27 105 31 106 4 2 6 8 2 13 -3 5 1 9 8 9 7 0 19 9 26 21 12 19 11
19 -8 9 -20 -11 -20 -9 4 28 67 106 89 200 71 306 -7 40 -22 86 -28 86 -2 0 3
-35 10 -77 7 -43 11 -96 7 -118 -3 -22 -32 -87 -65 -145 -33 -57 -62 -122 -65
-145 -11 -74 -60 -208 -144 -390 -31 -68 -96 -146 -150 -180 -20 -13 -64 -31
-98 -40 -52 -15 -68 -16 -114 -5 -99 24 -172 75 -228 161 -56 86 -147 318
-180 459 -7 30 -21 66 -30 80 -10 14 -36 61 -60 105 l-42 80 6 85 c3 47 8 99
11 115 2 17 -4 3 -15 -30 -34 -99 -24 -179 34 -295 26 -51 40 -87 31 -80 -9 7
-15 8 -15 2 0 -6 11 -19 25 -30 16 -13 29 -36 34 -64 25 -121 35 -159 63 -228
16 -41 38 -91 49 -110 24 -47 54 -116 68 -162 16 -48 29 -57 23 -15 l-5 32 39
-35 c21 -19 53 -50 69 -69 29 -34 30 -37 29 -131 -2 -94 -21 -223 -50 -330
-21 -75 -20 -73 -27 -90 -3 -8 -10 -28 -15 -45 -8 -23 -11 0 -12 105 -4 243
-17 275 -19 44 -1 -246 -12 -370 -47 -546 -33 -163 -96 -371 -143 -473 -6 -11
-12 -30 -16 -42 -4 -15 -16 -23 -44 -28 -42 -7 -157 -73 -235 -134 -34 -27
-61 -40 -92 -44 -23 -2 -61 -14 -84 -26 -51 -26 -50 -26 -50 7 -1 46 -36 203
-65 291 -38 115 -67 162 -133 221 -67 60 -144 91 -230 95 -62 3 -65 4 -110 52
-59 62 -125 91 -173 74 -26 -9 -36 -9 -46 2 -32 32 -51 296 -34 472 17 171 66
367 97 387 6 4 21 16 34 26 l23 18 -37 -4 c-33 -4 -36 -2 -36 22 0 32 92 210
168 325 31 47 94 124 140 172 l85 88 44 -45 c45 -44 81 -59 69 -28 -3 9 -6 18
-6 20 0 2 -6 4 -14 4 -21 0 -66 50 -66 74 0 28 35 84 74 119 l31 28 -29 -11
c-16 -6 -41 -18 -56 -27 -39 -22 -104 -7 -108 26 -8 57 26 95 96 107 35 7 38
11 24 34 -16 25 -15 65 1 77 12 10 86 33 104 33 5 0 15 -34 22 -75 9 -58 16
-75 29 -75 13 0 12 -3 -6 -16 -12 -8 -22 -21 -22 -29 0 -11 5 -11 30 1 26 13
32 13 58 0 17 -9 33 -28 40 -48 l11 -33 -2 40 c-2 33 -8 43 -33 60 -18 11 -42
35 -54 53 -20 28 -22 40 -16 95 11 107 44 186 100 239 51 49 56 70 11 50 -41
-19 -41 8 0 90 64 125 143 241 236 343 20 22 54 61 75 87 26 31 57 54 91 69
29 12 50 26 48 30 -3 4 14 14 37 22 44 16 33 22 -12 7z m-814 -1251 c6 -10
-52 -79 -68 -79 -10 0 2 61 15 78 12 15 43 16 53 1z m2660 -6 c13 -17 20 -73
9 -73 -13 0 -75 71 -70 80 10 16 47 11 61 -7z m-1268 -638 c-3 -28 -16 -33
-25 -9 -3 9 0 20 8 25 19 12 19 12 17 -16z m-159 -16 c-13 -26 -19 -24 -19 6
0 17 4 23 15 19 11 -5 12 -11 4 -25z m1894 -923 c13 -13 29 -44 37 -69 20 -72
-3 -146 -85 -282 -31 -51 -32 -65 -2 -37 40 38 53 28 47 -38 -2 -32 -38 -116
-55 -130 -21 -17 -49 32 -42 73 5 28 3 27 -15 -13 -16 -37 -30 -51 -74 -74
-30 -16 -60 -38 -65 -48 -10 -19 -11 -19 -31 -1 -60 54 -198 -12 -253 -122
-30 -59 -31 -60 -67 -57 -27 3 -47 -3 -68 -18 -37 -27 -35 -34 6 -18 46 17 81
4 89 -32 7 -30 25 -42 25 -17 0 8 10 44 21 81 23 73 50 105 115 136 51 25 85
25 111 1 21 -20 21 -20 59 13 67 56 87 66 132 66 35 0 49 -6 74 -30 27 -28 29
-35 25 -83 -3 -28 -12 -72 -20 -97 -22 -66 -40 -158 -41 -216 -1 -38 -11 -72
-43 -135 -23 -47 -47 -98 -53 -114 l-10 -30 18 23 18 23 12 -27 c10 -21 10
-36 -2 -78 -22 -75 -52 -139 -75 -160 -18 -17 -19 -16 -26 16 -15 72 -74 138
-123 138 -12 0 -22 24 -22 53 0 25 -43 109 -80 156 -56 72 -152 104 -229 77
-108 -39 -184 -147 -197 -279 -5 -58 -9 -67 -23 -61 -68 29 -105 37 -133 26
-26 -9 -30 -8 -53 22 -29 38 -31 49 -10 70 16 16 63 8 91 -15 7 -6 19 -9 25
-7 7 2 -9 16 -34 32 -26 15 -51 25 -56 22 -17 -11 -120 114 -157 189 -31 64
-36 81 -31 122 4 37 12 54 38 76 28 26 37 29 78 24 25 -3 53 -8 62 -12 14 -5
16 0 12 37 -7 62 11 82 73 82 63 -1 141 -35 153 -67 19 -49 29 -37 34 41 7 94
20 165 48 257 67 222 176 331 346 348 50 5 98 29 133 67 30 32 95 70 121 70
30 0 34 -7 44 -74 11 -69 32 -62 37 13 1 24 8 45 15 48 7 3 13 10 13 16 0 9
29 47 36 47 2 0 14 -11 27 -24z m-3590 -16 c18 -20 27 -41 27 -63 0 -27 26
-84 31 -67 0 3 6 30 12 60 10 45 16 56 34 58 29 4 76 -21 127 -67 54 -50 74
-59 138 -67 55 -6 157 -49 194 -81 98 -87 180 -305 203 -543 l7 -65 16 36 c18
42 73 69 148 72 63 3 80 -13 80 -74 l0 -48 32 10 c55 15 91 10 123 -18 25 -22
30 -34 33 -87 4 -55 1 -67 -32 -125 -43 -76 -134 -183 -148 -175 -10 7 -98
-37 -98 -48 0 -12 14 -10 46 6 72 36 105 14 72 -47 -21 -40 -34 -48 -61 -36
-23 10 -82 -1 -144 -27 -7 -3 -10 2 -6 16 6 23 -22 139 -44 184 -28 56 -93
115 -149 136 -81 30 -145 17 -213 -46 -52 -46 -97 -126 -106 -185 -6 -42 -10
-47 -38 -53 -58 -12 -107 -81 -107 -150 l0 -31 -24 30 c-32 39 -86 167 -86
203 0 36 18 56 37 40 18 -14 9 9 -45 123 -38 79 -65 188 -44 175 5 -3 4 11 -4
32 -7 20 -13 49 -14 63 0 15 -7 44 -16 65 -23 55 -33 133 -22 166 19 55 105
75 163 39 17 -10 45 -32 64 -49 38 -36 41 -38 41 -17 0 8 3 14 8 13 4 0 15 2
25 7 28 12 83 -3 133 -39 49 -33 70 -69 94 -163 13 -50 25 -55 34 -13 7 38 28
46 78 33 l39 -11 -22 24 c-23 24 -62 31 -88 15 -10 -7 -21 5 -43 49 -15 32
-40 69 -54 83 -29 30 -119 77 -145 77 -25 0 -69 -21 -69 -33 0 -5 -15 4 -33
19 -18 16 -51 37 -74 48 -30 13 -40 23 -36 34 4 10 2 13 -5 8 -8 -4 -12 0 -12
11 0 10 -5 25 -10 33 -8 11 -10 5 -8 -23 1 -25 -4 -43 -16 -55 -16 -16 -18
-16 -32 2 -22 30 -54 123 -54 156 0 36 20 40 50 10 11 -11 20 -16 20 -10 0 15
-33 80 -40 80 -18 0 -64 129 -68 188 -4 55 -1 67 22 102 14 22 32 40 39 40 8
0 26 -13 40 -30z m1345 -572 c32 -32 6 -128 -51 -189 -65 -69 -69 -72 -107
-53 -23 12 -46 15 -85 10 l-53 -6 5 39 c5 34 2 41 -21 56 l-26 17 38 30 c100
80 264 132 300 96z m1004 -19 c38 -15 92 -45 122 -67 l55 -39 -28 -20 c-22
-17 -27 -27 -23 -55 l4 -35 -54 5 c-39 3 -64 -1 -87 -13 -31 -16 -34 -15 -54
2 -79 68 -108 116 -110 184 0 34 4 53 14 60 24 16 90 7 161 -22z m-1689 -511
c54 -27 94 -73 118 -137 18 -48 20 -72 17 -163 -3 -72 -9 -112 -19 -124 -11
-14 -11 -16 0 -10 10 7 12 3 6 -15 l-7 -24 19 25 c11 14 28 42 38 63 23 48 66
78 121 85 36 4 45 1 51 -14 4 -11 13 -25 20 -32 7 -7 13 -28 13 -45 1 -30 2
-31 15 -13 8 10 12 22 10 27 -9 13 80 51 111 47 29 -3 29 -4 28 -61 -2 -75
-22 -99 -78 -95 -49 3 -56 -11 -16 -34 45 -26 39 -52 -22 -92 -29 -19 -64 -37
-76 -41 -21 -6 -23 -5 -13 13 6 12 11 28 11 37 0 14 -2 14 -24 0 -24 -16 -69
-74 -47 -61 7 5 9 1 5 -8 -3 -9 -10 -13 -15 -10 -5 3 -9 1 -9 -5 0 -5 -24 -21
-54 -35 -60 -28 -70 -31 -61 -16 11 17 -48 -10 -75 -34 -41 -39 -81 -60 -130
-72 -67 -15 -77 -6 -30 28 59 44 41 46 -34 5 -64 -36 -153 -67 -188 -67 -27 0
-108 78 -108 104 0 12 11 38 25 59 24 35 26 57 5 57 -5 0 -16 -13 -25 -30 -19
-37 -44 -38 -76 -2 -40 43 -57 75 -74 141 -15 58 -13 105 6 117 5 3 6 -2 3
-10 -4 -11 0 -13 14 -9 23 6 77 -20 92 -44 8 -13 9 -2 4 42 -7 67 9 121 48
162 28 30 49 29 72 -2 10 -14 22 -25 25 -25 4 0 5 32 3 71 -5 85 13 139 66
197 71 79 146 95 235 50z m2376 8 c38 -20 89 -74 114 -121 17 -32 21 -57 21
-126 l0 -86 24 29 c15 18 32 28 45 26 46 -7 90 -116 77 -190 -4 -21 -6 -38 -4
-38 2 0 20 11 40 25 20 14 45 25 55 25 11 0 19 6 19 13 1 6 7 -1 14 -18 14
-34 7 -83 -25 -154 -47 -107 -98 -139 -131 -81 -11 19 -22 28 -32 24 -12 -5
-9 -14 15 -52 16 -25 29 -51 29 -57 0 -19 -88 -105 -107 -105 -40 0 -127 30
-189 65 -71 40 -92 42 -47 4 40 -34 41 -45 2 -41 -49 6 -96 28 -146 68 -25 20
-56 37 -71 38 -34 2 -122 44 -129 62 -3 8 -9 12 -13 9 -5 -3 -12 0 -16 6 -4 8
-3 9 4 5 26 -16 10 14 -20 40 -28 23 -33 24 -36 10 -2 -9 2 -24 9 -32 21 -25
-38 -6 -93 30 -38 24 -48 36 -48 58 0 19 7 30 29 39 37 16 31 40 -7 30 -48
-14 -74 6 -92 71 -16 56 -4 88 31 88 44 0 107 -35 111 -62 4 -30 21 -20 23 13
3 36 43 79 74 79 31 0 91 -21 91 -32 0 -4 8 -16 19 -27 10 -10 30 -38 45 -62
14 -24 26 -38 26 -31 0 7 4 11 9 7 5 -3 2 9 -7 27 -24 49 -23 217 2 283 48
124 185 192 285 141z m-3002 -53 c19 -36 19 -40 3 -78 l-17 -40 -21 42 c-24
46 -29 109 -9 116 17 6 23 2 44 -40z m3518 26 c10 -16 -3 -70 -26 -109 l-21
-34 -14 39 c-17 50 -18 44 6 83 20 32 43 41 55 21z m-2342 -36 c30 -62 -18
-168 -103 -224 -30 -20 -57 -35 -59 -33 -3 2 5 22 18 44 21 37 25 99 7 117 -7
7 102 123 116 123 4 0 14 -12 21 -27z m1195 -27 c46 -48 52 -58 45 -83 -11
-44 -7 -73 16 -104 45 -61 -6 -51 -80 15 -35 31 -79 118 -79 156 0 25 24 70
38 70 4 0 31 -25 60 -54z m-2351 -207 c13 -36 35 -77 48 -92 31 -32 31 -37 3
-37 -28 0 -41 -9 -55 -34 -9 -17 -14 -14 -47 29 -43 58 -61 111 -52 159 17 89
65 78 103 -25z m3513 62 c5 -11 10 -42 10 -69 0 -50 -17 -84 -76 -155 -20 -24
-24 -25 -24 -10 0 27 -20 43 -52 43 l-29 0 30 38 c16 20 33 49 36 65 4 15 11
30 16 33 5 3 9 12 9 21 0 23 29 53 51 53 10 0 23 -9 29 -19z"/>
<path d="M6011 8974 c28 -30 98 -31 128 -3 12 11 21 21 21 22 0 1 -38 2 -85 3
l-85 0 21 -22z"/>
<path d="M5050 8283 c0 -5 9 -18 20 -28 11 -10 20 -14 20 -8 0 5 -9 18 -20 28
-11 10 -20 14 -20 8z"/>
<path d="M7077 8267 c-23 -28 -12 -36 14 -10 12 11 17 23 12 26 -5 3 -16 -4
-26 -16z"/>
<path d="M4995 8260 c-3 -5 -2 -10 4 -10 5 0 13 5 16 10 3 6 2 10 -4 10 -5 0
-13 -4 -16 -10z"/>
<path d="M7140 8260 c0 -5 5 -10 11 -10 5 0 7 5 4 10 -3 6 -8 10 -11 10 -2 0
-4 -4 -4 -10z"/>
<path d="M4933 8224 c-18 -8 -33 -17 -33 -20 0 -8 42 6 65 22 25 18 10 17 -32
-2z"/>
</g>
</svg>
