<?xml version="1.0" standalone="no"?>
<!DOCTYPE svg PUBLIC "-//W3C//DTD SVG 20010904//EN"
 "http://www.w3.org/TR/2001/REC-SVG-20010904/DTD/svg10.dtd">
<svg version="1.0" xmlns="http://www.w3.org/2000/svg"
 width="1200.000000pt" height="1600.000000pt" viewBox="0 0 1200.000000 1600.000000"
 preserveAspectRatio="xMidYMid meet">

<g transform="translate(0.000000,1600.000000) scale(0.100000,-0.100000)"
fill="#000000" stroke="none">
<path d="M4895 8689 c-21 -5 -50 -19 -62 -31 -25 -23 -30 -67 -12 -85 9 -9 5
-14 -17 -19 -40 -9 -92 -61 -103 -102 -11 -36 -5 -62 12 -62 6 0 0 -11 -13
-25 -26 -27 -35 -110 -13 -123 7 -5 -5 -25 -38 -61 -98 -107 -279 -406 -279
-460 0 -30 13 -25 31 12 99 205 194 348 302 456 l85 83 17 -26 c22 -33 85 -73
94 -59 3 6 22 18 41 27 54 26 81 43 82 52 0 5 22 33 49 62 43 47 49 59 49 95
-1 37 -5 45 -36 65 -20 12 -43 22 -51 22 -9 0 -13 3 -10 6 3 4 -2 17 -12 31
-11 13 -22 47 -26 76 -11 79 -17 83 -90 66z"/>
<path d="M7192 8687 c-6 -7 -16 -41 -22 -77 -16 -82 -25 -100 -53 -100 -33 0
-77 -60 -77 -105 0 -29 9 -45 45 -84 25 -26 45 -53 45 -60 0 -6 6 -11 13 -11
6 0 23 -9 37 -20 18 -14 41 -20 78 -20 46 0 58 4 82 29 l29 29 83 -82 c89 -87
167 -196 241 -337 55 -106 70 -129 79 -129 36 0 -50 170 -172 339 -19 27 -42
59 -50 72 -8 12 -32 40 -53 61 -31 32 -36 41 -27 57 17 34 11 78 -15 109 -15
19 -21 33 -15 37 5 3 10 26 10 50 0 37 -5 47 -35 74 -20 17 -44 31 -54 31 -26
0 -32 10 -20 32 7 14 7 23 -2 34 -6 8 -8 14 -4 14 15 0 -30 42 -55 52 -40 15
-78 17 -88 5z"/>
<path d="M4258 6780 c-37 -22 -58 -75 -58 -148 0 -63 4 -79 39 -146 22 -42 35
-76 30 -76 -5 0 -16 -14 -24 -31 -19 -36 -11 -72 36 -155 l28 -52 -21 -18
c-23 -22 -50 -69 -42 -77 3 -3 7 -25 10 -50 2 -24 11 -61 19 -82 9 -20 20 -86
26 -147 5 -61 13 -118 18 -126 7 -12 2 -23 -16 -40 -21 -19 -24 -28 -18 -60 8
-45 47 -121 52 -104 9 24 23 12 23 -20 0 -29 -1 -30 -18 -15 -22 20 -53 22
-70 5 -17 -17 -15 -117 3 -168 8 -23 29 -60 47 -82 30 -38 32 -39 46 -22 13
18 14 17 9 -6 -17 -70 92 -265 142 -255 13 2 16 -3 13 -29 -3 -27 4 -38 52
-84 34 -32 64 -52 78 -52 31 0 116 27 143 44 19 13 24 13 38 -1 11 -12 26 -14
67 -8 41 6 64 17 108 53 41 33 69 48 103 53 47 7 136 55 125 66 -3 4 1 15 11
25 15 17 18 17 41 2 23 -15 27 -14 80 19 74 46 101 80 84 107 -15 25 -15 30 1
30 7 0 26 13 42 30 56 58 43 170 -21 170 -18 0 -21 4 -17 23 3 12 12 29 19 37
23 27 64 130 64 161 0 19 -9 39 -26 55 -25 26 -26 26 -47 8 -22 -19 -22 -19
-6 1 8 11 28 49 43 84 36 80 32 138 -10 182 -19 20 -23 29 -13 29 8 0 20 -5
27 -12 8 -8 26 3 73 48 91 87 120 174 78 229 -20 24 -27 27 -66 21 -107 -14
-319 -130 -293 -160 7 -9 -5 -11 -49 -8 -45 3 -67 -1 -99 -17 -22 -11 -44 -26
-48 -33 -7 -11 -30 72 -49 177 -26 137 -81 257 -156 339 -68 75 -132 106 -240
120 -45 5 -87 27 -114 56 -27 31 -105 80 -126 80 -10 0 -29 -14 -43 -31 -14
-17 -26 -25 -26 -18 0 11 -70 89 -80 89 -3 0 -13 -5 -22 -10z"/>
<path d="M7837 6752 c-20 -21 -37 -47 -38 -57 0 -15 -5 -11 -15 13 -8 17 -17
32 -22 33 -4 0 -18 2 -31 5 -25 5 -131 -56 -131 -75 0 -17 -67 -51 -107 -55
-22 -2 -49 -9 -60 -15 -11 -5 -23 -8 -26 -5 -9 10 -96 -38 -142 -78 -60 -53
-139 -197 -159 -290 -3 -13 -14 -63 -26 -112 -11 -50 -20 -100 -20 -113 0 -29
0 -29 -62 3 -43 22 -62 25 -109 22 -46 -3 -56 -2 -48 8 23 28 -171 141 -272
158 -70 13 -107 -35 -94 -120 5 -39 17 -56 76 -115 59 -60 71 -68 88 -59 31
16 36 12 13 -12 -30 -33 -43 -75 -36 -116 8 -44 39 -116 67 -157 20 -30 20
-30 1 -12 -29 24 -42 21 -63 -14 -18 -29 -18 -35 -4 -83 8 -28 26 -70 39 -93
30 -52 31 -83 4 -83 -32 0 -53 -43 -46 -94 5 -34 16 -53 45 -79 33 -29 37 -38
33 -70 -4 -32 0 -38 37 -65 58 -42 100 -58 120 -45 9 6 15 17 13 25 -2 7 8 2
22 -11 14 -13 24 -28 23 -34 -3 -17 95 -79 116 -73 20 5 74 -25 138 -76 38
-31 123 -48 153 -31 12 6 38 2 84 -14 37 -12 78 -23 92 -23 36 0 130 96 130
133 0 15 5 27 10 27 6 0 30 18 54 40 46 43 79 107 91 177 4 23 11 41 17 40 14
-3 100 102 93 114 -4 5 -2 9 3 9 6 0 8 9 5 20 -3 11 -1 20 3 20 18 0 9 88 -10
109 -27 30 -51 26 -80 -11 l-26 -33 11 33 c6 18 8 40 5 49 -5 13 -4 13 7 4 19
-15 32 1 56 71 16 46 17 60 7 79 -7 13 -19 23 -28 23 -14 -1 -15 3 -4 35 7 20
16 78 19 129 4 50 14 109 22 130 16 37 28 104 28 155 0 17 -11 39 -27 56 l-26
27 31 58 c37 67 45 152 17 170 -15 9 -13 17 18 77 57 115 58 211 2 274 -16 19
-33 35 -37 35 -4 0 -24 -17 -44 -38z"/>
</g>
</svg>
