<?xml version="1.0" standalone="no"?>
<!DOCTYPE svg PUBLIC "-//W3C//DTD SVG 20010904//EN"
 "http://www.w3.org/TR/2001/REC-SVG-20010904/DTD/svg10.dtd">
<svg version="1.0" xmlns="http://www.w3.org/2000/svg"
 width="1200.000000pt" height="1600.000000pt" viewBox="0 0 1200.000000 1600.000000"
 preserveAspectRatio="xMidYMid meet">

<g transform="translate(0.000000,1600.000000) scale(0.100000,-0.100000)"
fill="#000000" stroke="none">
<path d="M6004 9636 c-45 -8 -111 -21 -146 -30 -39 -10 -106 -16 -171 -16 -58
0 -109 -4 -112 -10 -3 -5 -37 -26 -76 -46 -51 -27 -87 -56 -133 -108 -66 -75
-135 -165 -177 -231 -14 -22 -42 -65 -62 -95 -57 -86 -79 -143 -67 -174 8 -21
4 -34 -19 -73 -16 -27 -42 -73 -57 -103 -27 -50 -32 -55 -73 -62 -66 -11 -87
-30 -97 -85 -9 -44 -13 -49 -56 -70 -35 -16 -49 -30 -55 -50 -10 -40 -6 -63
12 -83 16 -17 15 -20 -4 -47 -24 -34 -27 -49 -17 -91 7 -30 3 -38 -54 -105
-34 -39 -70 -89 -81 -109 -11 -21 -44 -76 -75 -124 -49 -76 -88 -151 -122
-236 -7 -17 -8 -29 -2 -33 16 -10 12 -52 -9 -103 -30 -74 -51 -176 -64 -317
-11 -108 -10 -155 1 -273 13 -133 13 -144 -3 -162 -10 -11 -25 -22 -35 -25
-29 -9 -52 -77 -52 -148 0 -52 7 -77 32 -128 30 -59 32 -66 20 -99 -19 -52
-14 -92 19 -158 l30 -59 -21 -21 c-30 -29 -29 -147 1 -215 22 -50 26 -97 12
-132 -6 -13 0 -42 15 -85 17 -46 20 -68 12 -77 -5 -7 -14 -11 -18 -8 -5 3 -13
-8 -18 -25 -11 -31 -4 -70 19 -109 13 -20 12 -24 -15 -46 -27 -22 -30 -29 -29
-87 1 -88 16 -134 67 -208 25 -36 62 -98 83 -139 24 -47 53 -86 80 -108 29
-24 47 -49 58 -83 28 -83 78 -108 170 -85 29 8 87 14 128 13 72 -2 78 0 148
43 41 24 83 44 94 45 11 0 40 13 65 29 25 16 81 42 125 58 119 42 170 78 191
135 10 26 25 56 34 67 26 30 38 57 41 90 4 60 -1 73 -37 94 l-37 22 20 22 c33
37 71 110 74 142 4 56 -1 74 -32 109 l-31 35 26 64 c27 69 33 107 22 149 -7
23 -2 30 48 67 77 57 103 114 97 210 0 13 -17 38 -36 55 l-35 33 26 69 c39
107 110 339 132 439 26 115 62 292 66 325 3 27 42 188 81 340 14 52 28 111 33
131 9 48 94 158 118 155 10 -2 39 -27 65 -56 40 -45 49 -64 65 -134 10 -44 19
-85 20 -91 0 -5 4 -17 7 -25 12 -27 86 -352 107 -470 28 -155 72 -322 137
-520 l54 -165 -32 -26 c-44 -35 -51 -103 -19 -177 18 -42 35 -61 82 -94 53
-38 58 -44 52 -67 -13 -44 -5 -101 21 -159 l25 -55 -35 -38 c-27 -30 -35 -48
-35 -77 0 -36 34 -112 71 -161 21 -27 13 -46 -27 -61 -44 -17 -35 -105 16
-164 19 -21 28 -41 25 -54 -7 -39 70 -105 166 -141 46 -18 95 -40 109 -49 14
-8 52 -25 86 -37 33 -12 74 -30 90 -42 72 -51 117 -66 189 -65 39 1 85 -3 103
-9 18 -6 53 -11 78 -11 36 -1 50 4 74 27 17 16 35 45 40 65 6 23 27 52 54 77
26 24 62 73 86 119 23 44 61 106 84 140 75 107 91 240 36 299 l-23 24 20 49
c22 53 18 71 -21 103 -17 14 -18 19 -7 47 23 56 29 101 19 137 -9 27 -7 44 10
92 12 32 25 88 30 125 8 62 7 69 -16 98 l-25 32 26 56 c35 78 39 105 23 152
-13 39 -13 43 16 100 56 113 47 225 -23 290 -37 34 -39 38 -38 95 0 33 4 96 9
140 17 155 -18 432 -69 546 -14 31 -18 56 -14 93 4 46 0 60 -42 141 -26 49
-66 119 -89 155 -23 36 -54 85 -68 110 -15 25 -51 73 -82 106 -51 57 -55 64
-46 93 10 35 -1 85 -25 111 -12 13 -13 20 -5 25 22 13 31 56 20 91 -8 23 -21
36 -49 47 -42 17 -57 33 -58 62 -3 50 -21 74 -65 85 -77 19 -86 27 -124 102
-20 40 -45 82 -55 94 -17 18 -18 25 -8 47 14 31 -4 83 -55 162 -18 28 -54 84
-81 125 -52 80 -182 240 -225 277 -50 43 -144 82 -233 97 -93 15 -110 22 -89
35 35 22 -293 35 -404 17z"/>
</g>
</svg>
