<svg version="1.0" xmlns="http://www.w3.org/2000/svg"
 width="1200.000000pt" height="1600.000000pt" viewBox="0 0 1200.000000 1600.000000"
 preserveAspectRatio="xMidYMid meet">

<g transform="translate(0.000000,1600.000000) scale(0.100000,-0.100000)"
fill="#000000" stroke="none">
<path d="M5845 13509 c-129 -30 -263 -91 -333 -151 -171 -149 -236 -274 -288
-553 -4 -22 -6 -178 -5 -346 2 -281 0 -313 -19 -390 -42 -169 -123 -337 -235
-486 l-54 -73 51 -67 c76 -101 250 -263 283 -263 18 0 31 29 40 94 5 32 11 44
17 38 7 -7 6 -28 -3 -64 -16 -65 -14 -57 -28 -93 -10 -28 -21 -38 -78 -80 -16
-12 -13 -15 27 -31 24 -10 64 -28 89 -40 41 -21 46 -22 73 -8 16 8 31 21 34
28 3 8 14 12 25 9 10 -3 19 0 19 6 0 6 5 10 12 9 6 -2 17 15 23 37 7 24 14 34
17 25 3 -8 2 -22 -3 -31 -5 -11 -3 -29 8 -49 12 -24 14 -48 10 -96 -6 -62 -6
-63 22 -69 16 -3 37 -15 49 -25 20 -19 20 -18 37 1 12 12 22 16 29 10 7 -6 41
-4 90 5 70 14 80 14 95 0 10 -9 21 -13 26 -9 4 5 5 -1 2 -12 -12 -45 -17 -114
-9 -119 5 -3 20 6 33 20 13 15 34 30 47 35 12 5 22 16 22 26 -1 34 34 173 43
173 8 0 5 -29 -7 -65 -30 -93 -15 -137 77 -219 39 -36 74 -63 78 -60 4 2 10
26 14 53 6 43 11 51 37 62 17 7 44 23 59 37 24 20 29 31 29 70 0 52 11 47 28
-14 15 -52 24 -60 97 -79 33 -8 67 -18 77 -21 13 -4 21 4 32 28 34 77 84 109
168 112 35 0 69 5 75 9 8 5 22 2 35 -7 12 -9 34 -16 48 -16 15 0 31 -9 38 -20
15 -24 32 -18 32 11 0 11 9 32 20 47 23 31 27 73 15 152 -8 54 -8 55 12 38 11
-10 25 -18 32 -18 23 0 216 80 241 100 l25 20 -33 29 c-18 16 -48 60 -67 98
-18 38 -41 75 -49 82 -14 12 -11 17 27 41 24 15 58 45 75 66 37 44 36 66 -3
124 -74 112 -166 338 -181 445 -3 28 -10 55 -14 60 -4 6 -10 123 -13 260 -7
330 -34 486 -114 655 -74 156 -212 299 -362 374 -146 74 -345 115 -416 86 -38
-16 -65 -17 -92 -2 -25 14 -130 14 -188 1z m912 -1151 c-3 -7 -5 -2 -5 12 0
14 2 19 5 13 2 -7 2 -19 0 -25z m-1398 -248 c-19 -144 -27 -183 -28 -145 -1
30 28 261 35 280 13 33 12 6 -7 -135z m1429 74 l-3 -39 -5 47 c-3 26 -1 43 3
39 5 -5 7 -26 5 -47z m9 -91 c-3 -10 -5 -4 -5 12 0 17 2 24 5 18 2 -7 2 -21 0
-30z m10 -90 c-3 -10 -5 -2 -5 17 0 19 2 27 5 18 2 -10 2 -26 0 -35z m10 -95
c-2 -13 -4 -3 -4 22 0 25 2 35 4 23 2 -13 2 -33 0 -45z m10 -105 c-2 -16 -4
-5 -4 22 0 28 2 40 4 28 2 -13 2 -35 0 -50z m-340 -610 c-3 -10 -5 -2 -5 17 0
19 2 27 5 18 2 -10 2 -26 0 -35z m-587 -173 c0 -16 -4 -30 -8 -30 -9 0 -13 27
-6 48 6 22 14 13 14 -18z m-13 -102 c-2 -13 -4 -3 -4 22 0 25 2 35 4 23 2 -13
2 -33 0 -45z"/>
</g>
</svg>
