<svg version="1.1" id="Layer_1" xmlns="http://www.w3.org/2000/svg" xmlns:xlink="http://www.w3.org/1999/xlink" x="0px" y="0px"
	 width="1200px" height="1600px" viewBox="0 0 1200 1600" enable-background="new 0 0 1200 1600" xml:space="preserve">
<g transform="translate(0.000000,1600.000000) scale(0.100000,-0.100000)">
	<path d="M6094.003,12790.994c2.998-5,15.996-10.996,27.998-13.994c22.002-6.006,22.002-5,3.994,7.998
		C6104.003,12802,6085.996,12804.998,6094.003,12790.994z"/>
	<path d="M6020,12779.998c-10.996-7.002-5-7.998,20-4.004c42.998,8.008,50.996,14.004,19.004,14.004
		C6045.996,12789.998,6027.998,12784.998,6020,12779.998z"/>
	<path d="M6007.001,12745.994c-27.002-6.992-54.004-18.994-60-25c-7.002-6.992,2.998-5.996,25,3.008
		c20.996,8.994,68.994,15.996,110,16.992c50,0,67.002,3.008,52.998,9.004C6107.001,12762,6062.998,12760.994,6007.001,12745.994z"/>
	<path d="M6160.996,12735.994c2.002-1.992,15-8.994,29.004-15c24.004-10.996,24.004-10.996,5.996,3.008
		C6180,12737,6147.001,12747.996,6160.996,12735.994z"/>
	<path d="M6000,12719.998c-7.998-4.004-27.998-12.998-42.998-19.004c-15-5.996-25-15.996-22.002-20.996
		c2.998-5.996,0.996-10-5.996-10c-7.002,0-10-2.002-8.008-4.004c2.002-2.998,30,4.004,62.002,14.004
		c32.002,10.996,65,15.996,74.004,12.998c10-3.994,13.994-2.002,10,4.004c-2.998,5,7.998,8.994,27.998,8.994
		c20-0.996,35-5.996,35-12.998s5.996-10,14.004-7.002c7.998,3.008,28.994-1.992,45.996-10.996
		c17.998-9.004,34.004-14.004,37.998-10.996c2.998,2.998,0,5.996-7.002,5.996c-6.992,0-10,4.004-5.996,10
		C6230.996,12705.994,6040.996,12742.996,6000,12719.998z M6200,12689.998c7.998-5,10.996-10,5-10c-5,0-17.002,5-25,10s-10,10-5,10
		C6180.996,12699.998,6192.001,12694.998,6200,12689.998z"/>
	<path d="M5885,12605.994c-17.002-13.994-25.996-28.994-22.998-40.996c2.998-17.002,10.996-20,47.002-17.002
		c35.996,2.002,50.996-2.998,91.992-33.994c58.008-42.002,71.924-104.838,82.344-104.838c11.66,0,21.66,61.83,51.66,89.838
		c52.002,48.994,57.002,51.992,97.002,46.992c70-8.994,88.994,24.004,35.996,64.004c-30.996,22.998-30.996,22.998-77.002,5
		c-52.998-20.996-145.996-22.998-211.992-4.004C5914.003,12629.002,5915,12629.998,5885,12605.994z M6085.888,12578.943
		c3.291-0.199,6.582-0.346,9.893-0.43c15.205-0.404,30.449,0.211,45.518,2.314c18.535,2.594,36.924,6.914,54.141,14.336
		c22.891,9.863,46.523,17.047,65.186-2.666c7.402-8.145,11.865-18.861,10.625-23.75c-2.109-8.311-22.607-9.189-40.254,0.254
		c-15,7.998-26.992,5-57.998-18.008c-20.996-15-47.002-40.996-57.002-55.996c-13.994-22.002-20-25-27.998-14.004
		c-0.908,14.834-8.086,14.004-15,1.006c-2.998-9.004-22.998,3.994-58.994,37.998c-45,42.998-60,50.996-85,47.998
		c-17.002-2.002-42.754-2.998-42.754,2.002c0,16.592,31.25,39.375,53.77,32.012
		C5986.997,12586.648,6036.406,12581.922,6085.888,12578.943z"/>
	<path d="M6485.996,12520.994c-2.998-3.994,7.002-7.998,21.006-8.994c15-1.006,22.998,0.996,18.994,5
		C6517.001,12527,6490.996,12529.998,6485.996,12520.994z"/>
	<path fill="#FFFFFF" d="M6556.572,12516.697c4.229-8.178,50.381-6.963,102.305-11.445c205.83-9.023,599.199-62.188,602.012-61.313
		C7270.732,12446.971,6553.193,12534.354,6556.572,12516.697z"/>
	<path d="M6429.687,12588.992c-1.904-3.92,5.693-5.02,15.996-2.787c11.055,2.445,16.758,5.824,13.525,8.227
		C6451.904,12600.648,6432.685,12597.445,6429.687,12588.992z"/>
	<path fill="#FFFFFF" d="M6476.66,12598.201c5.498-11.016,43.486,2.086,87.646,8.213c172.9,37.174,512.129,55.299,514.258,57.266
		C7085.976,12670.564,6469.521,12623.393,6476.66,12598.201z"/>
	<path d="M6430.107,12477.625c-3.047-3.398,4.004-9.082,14.727-12.51c11.484-3.617,18.076-3.047,15.684,1.588
		C6455.332,12478.094,6435.634,12485.59,6430.107,12477.625z"/>
	<path fill="#FFFFFF" d="M6479.501,12462.436c1.729-8.717,37.93-15.133,77.559-28.086
		c158.701-42.764,455.146-159.727,457.51-159.342C7022.822,12276.365,6480.234,12480.316,6479.501,12462.436z"/>
	<path d="M5666.162,12517c-4.004-4.004,3.994-6.006,18.994-5c14.004,0.996,24.004,5,21.006,8.994
		C5701.162,12529.998,5675.156,12527,5666.162,12517z"/>
	<path fill="#FFFFFF" d="M4931.274,12443.939c2.813-0.875,396.177,52.289,602.007,61.313c51.924,4.482,98.076,3.268,102.305,11.445
		C5638.964,12534.354,4921.43,12446.971,4931.274,12443.939z"/>
	<path d="M5732.954,12594.432c-3.242-2.402,2.461-5.781,13.516-8.227c10.313-2.232,17.91-1.133,15.996,2.787
		C5759.477,12597.445,5740.258,12600.648,5732.954,12594.432z"/>
	<path fill="#FFFFFF" d="M5113.593,12663.68c2.129-1.967,341.357-20.092,514.258-57.266c44.16-6.127,82.148-19.229,87.646-8.213
		C5722.636,12623.393,5106.181,12670.564,5113.593,12663.68z"/>
	<path d="M5731.645,12466.703c-2.402-4.635,4.199-5.205,15.684-1.588c10.723,3.428,17.773,9.111,14.727,12.51
		C5756.528,12485.59,5736.821,12478.094,5731.645,12466.703z"/>
	<path fill="#FFFFFF" d="M5177.587,12275.008c2.363-0.385,298.809,116.578,457.51,159.342c39.629,12.953,75.83,19.369,77.559,28.086
		C5711.923,12480.316,5169.335,12276.365,5177.587,12275.008z"/>
</g>
</svg>
