<svg version="1.0" xmlns="http://www.w3.org/2000/svg"
 width="1200.000000pt" height="1600.000000pt" viewBox="0 0 1200.000000 1600.000000"
 preserveAspectRatio="xMidYMid meet">

<g transform="translate(0.000000,1600.000000) scale(0.100000,-0.100000)"
fill="#000000" stroke="none">
<path d="M5236 10874 c-5 -12 -2 -23 8 -30 9 -6 13 -13 10 -17 -3 -3 1 -18 10
-35 20 -40 20 -151 -1 -284 -15 -92 -15 -119 -5 -192 13 -92 52 -196 61 -161
3 13 9 0 16 -35 7 -30 25 -100 39 -155 16 -59 30 -145 34 -210 7 -103 6 -113
-16 -158 -13 -27 -25 -61 -27 -75 -2 -15 -10 -40 -19 -57 -21 -39 -22 -99 -2
-92 8 3 16 1 18 -5 5 -14 56 12 83 42 l19 21 -29 -6 c-17 -4 -38 -9 -47 -12
-33 -8 -16 39 31 91 14 16 21 26 14 22 -14 -8 -28 10 -14 19 5 3 10 13 9 23 0
9 7 35 15 57 27 71 17 201 -26 335 -20 63 -45 156 -57 205 -28 119 -32 127
-40 90 -5 -26 -8 -19 -20 45 -7 41 -13 82 -13 90 1 31 15 99 27 132 l12 36 34
-64 c19 -35 38 -64 42 -64 13 0 9 13 -12 40 -11 14 -20 29 -20 34 0 5 -6 17
-14 25 -8 9 -18 37 -24 64 -8 38 -7 47 4 47 11 0 11 6 -1 33 -8 17 -26 67 -41
109 -14 43 -32 85 -39 94 -11 16 -12 15 -19 -2z"/>
<path d="M6887 10858 c-8 -18 -27 -69 -43 -113 -15 -44 -32 -86 -37 -92 -7 -9
-5 -13 7 -13 31 0 2 -94 -55 -176 -24 -36 -27 -44 -12 -35 11 5 33 35 49 65
l28 55 16 -35 c9 -19 19 -31 23 -27 11 10 8 -83 -5 -174 -11 -77 -13 -81 -23
-55 -11 25 -14 18 -40 -93 -15 -66 -44 -165 -63 -220 -32 -92 -34 -109 -33
-204 2 -68 7 -114 17 -132 8 -15 14 -44 14 -63 0 -23 8 -45 23 -62 12 -14 25
-37 29 -51 6 -22 4 -24 -18 -19 -13 3 -36 9 -51 12 l-28 7 21 -21 c31 -29 80
-53 98 -46 21 8 21 83 1 110 -8 10 -15 28 -15 39 0 11 -12 45 -26 75 -25 52
-26 61 -20 160 4 67 15 138 31 195 15 50 32 119 39 155 8 40 14 57 18 45 14
-56 78 173 78 280 0 51 -24 176 -39 200 -12 19 5 161 20 170 4 3 5 13 2 22 -4
11 -3 14 5 9 13 -8 14 -6 16 37 2 36 -8 34 -27 -5z"/>
<path d="M5370 10695 c0 -4 7 -20 16 -38 16 -31 39 -52 59 -52 9 -1 71 -34
133 -72 31 -19 186 -30 215 -15 12 6 49 20 81 32 33 11 64 24 70 30 9 9 0 7
-86 -20 -152 -49 -295 -15 -436 104 -44 36 -52 41 -52 31z"/>
<path d="M6725 10655 c-57 -49 -149 -93 -233 -110 -77 -16 -112 -12 -247 30
-78 24 -39 1 56 -34 60 -22 103 -31 146 -31 70 0 105 11 188 58 54 31 73 39
98 41 4 1 16 16 27 34 36 58 24 62 -35 12z"/>
<path d="M6088 10259 c-6 -17 21 -38 96 -74 65 -32 150 -92 212 -151 64 -61
84 -78 84 -70 0 5 -39 46 -87 92 -66 63 -109 95 -172 126 -46 22 -93 52 -106
66 -16 17 -24 20 -27 11z"/>
<path d="M6040 10248 c0 -8 -33 -29 -72 -48 -40 -18 -91 -46 -113 -62 -66 -49
-156 -139 -148 -151 4 -7 8 -7 11 3 12 36 143 137 258 199 48 25 87 50 86 56
-1 15 -22 18 -22 3z"/>
<path d="M5677 9933 c-4 -3 -7 -31 -7 -62 0 -69 17 -56 22 17 3 50 -1 60 -15
45z"/>
<path d="M6463 9920 c4 -14 7 -45 8 -70 0 -34 2 -40 9 -25 15 35 11 92 -7 106
-15 13 -16 11 -10 -11z"/>
<path d="M5477 9553 c-4 -3 -7 -11 -7 -17 0 -6 5 -5 12 2 6 6 9 14 7 17 -3 3
-9 2 -12 -2z"/>
<path d="M6660 9552 c0 -12 19 -26 26 -19 2 2 -2 10 -11 17 -9 8 -15 8 -15 2z"/>
<path d="M5500 9431 c-7 -15 -7 -21 0 -21 12 0 25 28 17 36 -3 3 -10 -4 -17
-15z"/>
<path d="M6630 9442 c0 -5 7 -16 16 -23 14 -12 16 -11 13 5 -4 20 -29 35 -29
18z"/>
<path d="M6124 9045 c-19 -15 -19 -15 1 -8 11 3 17 3 13 -2 -13 -14 -61 -14
-92 1 -29 14 -30 14 -11 -2 l20 -17 -20 8 c-11 4 -27 9 -35 12 -8 3 4 -14 27
-36 42 -41 43 -41 72 -26 34 17 84 79 55 68 -12 -4 -15 -3 -10 5 10 16 4 15
-20 -3z"/>
</g>
</svg>
