<?xml version="1.0" standalone="no"?>
<!DOCTYPE svg PUBLIC "-//W3C//DTD SVG 20010904//EN"
 "http://www.w3.org/TR/2001/REC-SVG-20010904/DTD/svg10.dtd">
<svg version="1.0" xmlns="http://www.w3.org/2000/svg"
 width="1200.000000pt" height="1600.000000pt" viewBox="0 0 1200.000000 1600.000000"
 preserveAspectRatio="xMidYMid meet">

<g transform="translate(0.000000,1600.000000) scale(0.100000,-0.100000)"
fill="#000000" stroke="none">
<path d="M5543 15132 c-94 -110 -214 -325 -262 -470 -36 -112 -71 -265 -91
-407 -46 -318 -52 -386 -46 -555 3 -91 8 -261 12 -379 3 -117 9 -222 13 -233
7 -19 9 -19 23 -4 16 16 22 42 34 154 5 48 10 62 22 62 17 0 69 107 57 118 -3
3 -5 0 -5 -7 0 -8 -6 -11 -16 -7 -10 4 -25 -1 -36 -11 -18 -16 -19 -16 -12 3
4 10 10 21 14 24 3 3 23 30 45 60 38 53 72 90 83 90 3 0 -4 -10 -15 -22 -23
-26 -43 -61 -43 -77 0 -29 36 -2 116 86 120 131 203 211 239 230 17 9 25 18
18 20 -7 2 -9 11 -6 19 4 12 0 13 -21 4 -15 -5 -26 -6 -26 0 0 13 50 50 69 51
9 0 3 7 -14 14 -16 8 -38 12 -47 9 -15 -4 -18 1 -18 28 0 18 -5 51 -10 73 -36
143 -45 255 -44 535 2 252 24 540 49 618 6 19 4 22 -16 22 -16 0 -38 -16 -66
-48z"/>
<path d="M6525 15158 c4 -13 13 -68 20 -123 42 -320 45 -774 5 -945 -12 -52
-24 -117 -27 -143 -3 -29 -10 -47 -17 -44 -6 2 -24 -1 -40 -8 l-29 -12 24 -6
c13 -4 30 -16 37 -28 13 -21 12 -21 -14 -15 -24 6 -26 5 -15 -8 11 -14 11 -16
-5 -16 -13 0 -6 -8 21 -27 50 -33 127 -101 140 -124 14 -25 186 -199 196 -199
17 0 9 38 -16 74 -42 62 -19 40 48 -46 67 -87 91 -123 66 -100 -7 6 -22 12
-34 12 -12 0 -27 6 -34 13 -7 7 -6 -1 4 -23 8 -19 20 -47 26 -62 6 -16 17 -28
24 -28 15 0 22 -24 31 -105 11 -105 36 -159 49 -102 4 22 16 303 14 362 0 17
0 41 1 55 13 331 6 514 -24 642 -8 31 -12 59 -9 61 11 11 -51 294 -94 432 -68
217 -267 535 -333 535 -19 0 -21 -4 -15 -22z"/>
<path d="M5627 13721 c-15 -10 -35 -28 -43 -40 -14 -19 -14 -22 0 -27 17 -7
98 54 93 70 -6 17 -21 16 -50 -3z"/>
<path d="M6476 13732 c-7 -12 6 -29 44 -57 64 -47 85 -19 25 34 -35 31 -59 39
-69 23z"/>
<path d="M5505 13586 c-5 -8 -37 -49 -69 -92 -56 -72 -58 -78 -41 -90 29 -21
41 -17 99 34 61 52 69 70 58 122 -8 37 -31 50 -47 26z"/>
<path d="M6605 13568 c-4 -18 -9 -40 -11 -49 -3 -11 17 -36 60 -73 54 -48 68
-56 90 -50 31 7 33 27 6 62 -77 100 -114 142 -125 142 -8 0 -16 -15 -20 -32z"/>
</g>
</svg>
