<?xml version="1.0" encoding="utf-8"?>
<!-- Generator: Adobe Illustrator 16.0.0, SVG Export Plug-In . SVG Version: 6.00 Build 0)  -->
<!DOCTYPE svg PUBLIC "-//W3C//DTD SVG 1.1//EN" "http://www.w3.org/Graphics/SVG/1.1/DTD/svg11.dtd">
<svg version="1.1" xmlns="http://www.w3.org/2000/svg" xmlns:xlink="http://www.w3.org/1999/xlink" x="0px" y="0px" width="1200px"
	 height="1600px" viewBox="0 0 1200 1600" enable-background="new 0 0 1200 1600" xml:space="preserve">
<g id="Layer_2">
	<g transform="translate(0.000000,1600.000000) scale(0.100000,-0.100000)" opacity="0.7">
		<path d="M5630,13932c0,17.998-5,50.996-10,72.998c-35.996,142.998-45,255-44.004,535c2.002,252.002,24.004,540,49.004,617.998
			c5.996,19.004,4.004,22.002-15.996,22.002c-16.006,0-38.008-16.001-66.006-47.998c-93.994-110-213.994-325-262.002-470
			C5245,14549.998,5210,14397,5190,14254.998c-45.996-317.998-52.002-386.001-45.996-555c1.895-57.49,4.585-146.44,7.319-233.936
			c1.685,0.21,3.364,0.459,5.054,0.527c1.978,2.51,3.955,5.024,5.928,7.544c-3.916,11.538-2.603,24.961,7.021,38.599
			c87.656,124.199,177.007,246.836,310.776,323.379c34.326,29.653,71.685,55.684,112.163,77.061
			c12.935,6.831,25.522,7.617,36.611,4.468c0.547,0.19,1.084,0.41,1.631,0.596C5630.175,13922.039,5630,13926.448,5630,13932z"/>
		<path d="M6545,15034.998c42.002-320,45-773.999,5-945c-11.035-47.808-22.051-106.523-26.084-135.894
			c45.225-23.535,83.33-56.245,121.318-89.644c29.063-15.215,57.07-32.495,83.506-52.363
			c38.32-28.799,73.613-62.915,100.068-103.154c12.559-11.836,24.785-23.999,36.396-36.782
			c49.004-53.965,96.533-114.595,134.072-180.2c0.146,6.763,0.361,13.047,0.723,18.037c12.998,331.001,5.996,513.999-24.004,642.002
			c-7.998,30.996-11.992,58.999-8.994,60.996c10.996,11.001-51.006,294.004-94.004,432.002c-67.998,217.002-267.002,535-332.998,535
			c-19.004,0-20.996-3.999-15-22.002C6529.003,15144.998,6537.998,15089.998,6545,15034.998z"/>
	</g>
</g>
<g id="Layer_1">
	<g transform="translate(0.000000,1600.000000) scale(0.100000,-0.100000)">
		<path d="M5567.998,15195.998c-15-13.003-30.996-25-35-27.002c-8.994-3.999-72.998-96.001-72.998-105
			c0-2.998-10.996-20-22.998-36.997c-12.998-18.003-42.998-77.002-67.002-132.002c-22.998-55-47.998-112.998-55.996-130
			c-42.002-95-129.004-423.999-158.008-600c-22.998-138.999-35.996-508.999-20.996-611.001c4.004-30,2.002-43.999-10-53.999
			s-15-36.001-15-128.999c0-125,9.004-197.002,40.996-331.001c20-82.002,36.006-117.002,47.002-105
			c2.998,2.998,12.002-5,19.004-17.002c12.002-20.996,12.002-18.994,7.998,22.002c-2.998,25-15.996,86.001-29.004,135
			c-12.998,50-23.994,97.002-23.994,105c-4.004,115-2.998,160,2.002,177.998c3.994,12.002,2.998,22.002-2.002,22.002
			c-16.006,0-21.006,37.002-10,80c7.002,27.998,15,38.999,23.994,36.001c7.002-3.003,16.006,0,20,6.001
			c5,6.997,2.002,7.998-6.992,3.999c-8.008-3.999-4.004,1.001,7.998,11.001s38.994,42.998,60,73.999
			c77.998,113.999,107.002,153.999,115,156.997c13.994,6.001,8.994,19.004-7.002,19.004c-17.998,0-50-33.003-72.998-75
			c-9.004-17.002-39.004-58.003-65-92.002c-65-82.998-72.002-75-75,83.999c-2.002,122.002-2.002,125,25,158.003
			c15,17.998,20,26.997,10.996,18.999c-27.998-21.001-32.002,5-18.994,141.001c10,111.997,12.998,125,42.998,170
			c23.994,35,45,52.998,75.996,63.999c37.998,15,56.006,33.999,32.002,33.999c-5,0-10-3.999-10-7.998c0-4.004-9.004-8.003-20-9.004
			c-10.996-0.996-35-12.998-54.004-27.998c-18.994-13.999-36.992-22.002-38.994-17.998c-7.998,12.998,30.996,233.999,43.994,248.999
			c6.006,6.997,8.008,17.998,4.004,22.998c-2.998,6.001,0,21.001,5.996,33.003c7.002,12.998,14.004,30,14.004,37.998
			c4.004,32.002,104.004,303.999,122.998,335c4.004,5,7.002,12.002,7.002,15c0.996,2.998,9.004,22.002,17.998,43.999
			c9.004,21.001,17.002,41.001,17.002,43.999c0,20,140.996,173.003,152.002,165c8.994-5,3.994-93.999-10-187.998
			c-6.006-38.999-12.002-50-25-48.999c-17.002,1.997-17.002,0-2.002-22.002c25-38.999,17.002-86.001-12.002-62.998
			c-7.002,6.001-12.998,7.998-12.998,3.999s-7.998-1.001-17.002,6.001c-12.002,8.999-10,2.998,5-18.003
			c12.998-17.998,27.002-35,32.002-37.998c7.998-5,4.004-173.999-5-202.998c-4.004-10-10.996-9.004-35.996,2.998
			c-17.002,8.999-38.008,13.999-47.002,10c-12.002-5-2.002-11.001,32.998-22.998c30-10,50-23.003,50-32.002s-7.002-13.999-20-12.002
			c-19.004,4.004-19.004,3.003,2.998-20.996c21.006-22.002,22.998-34.004,25-143.003c2.002-117.998,2.002-118.999-20-116.997
			c-12.998,1.997-22.998-2.002-22.998-7.002c0-6.001,5.996-10,12.998-10c27.998,0,46.006-36.001,51.006-97.002
			c1.992-33.999,6.992-65.996,10.996-71.997c9.004-15-22.002-26.001-37.998-13.003c-9.004,8.003-31.006,4.004-80-15
			c-37.002-15-67.002-30-67.002-35c0-3.999,10.996-2.998,24.004,1.001c45,18.003,135.996,30,157.998,22.002
			c12.002-3.999,27.002-23.003,33.994-42.002c10-31.001,11.006-26.997,8.008,41.001c-1.006,41.001-8.008,97.998-14.004,125
			c-14.004,58.999-20,508.999-10,665c4.004,57.998,15,141.001,24.004,185c7.998,43.999,17.998,100,21.992,125
			c3.008,25,7.002,55,9.004,67.002c2.002,15-0.996,20-10.996,15.996c-8.008-2.998-14.003,0-14.003,6.001
			C5630,15227.995,5595.996,15220.998,5567.998,15195.998z"/>
		<path d="M6517.997,15208.996c-10-5-17.998-21.001-17.998-35c0-16.001,4.004-22.998,10.996-17.998
			c8.008,3.999,9.004-3.003,5-22.002c-3.994-16.001,2.002-73.999,13.008-128.999c40-207.998,45.996-720,10-885
			c-6.006-23.999-12.002-87.002-15-140c-4.004-73.999-3.008-92.002,6.992-82.998c13.008,12.998,40,2.998,114.004-46.001
			c22.002-13.999,47.002-27.002,55-28.999c7.998-2.002,22.998-11.001,32.998-20c17.998-16.001,160-215,184.004-257.002
			c5.996-12.002,22.998-26.001,35.996-32.002c17.998-8.999,27.998-25,37.002-63.999c9.004-35,10-53.999,2.998-56.001
			c-7.002-2.998-8.994-42.998-7.002-108.999c3.008-87.998,0-116.997-20-187.998c-30-101.997-45.996-186.001-35.996-186.001
			c4.004,0,10,7.002,14.004,15c2.998,7.998,11.992,15,18.994,15c17.002,0,61.006,166.001,77.002,290
			c14.004,108.999,9.004,242.002-9.004,262.998c-10,13.003-11.992,35-6.992,89.004c5.996,63.999-8.008,471.997-19.004,537.998
			c-2.002,13.999-7.002,45-10,70c-7.002,52.998-97.998,418.999-120.996,487.002c-42.002,126.997-137.002,322.998-205,426.997
			c-22.002,32.002-39.004,63.003-39.004,68.999c0,6.001-2.998,8.003-5.996,4.004c-4.004-3.003-21.006,5-39.004,17.998
			C6549.999,15222.995,6542.997,15223.996,6517.997,15208.996z M6544.003,15168.996c-3.008-5-10-6.997-15-2.998
			c-5,2.998-7.002,10-3.008,15c3.008,5,10,6.997,15,2.998C6545.995,15180.998,6547.997,15173.996,6544.003,15168.996z
			 M6714.003,14975.998c37.998-82.002,41.992-103.003,20-98.003c-7.002,1.001-16.006-2.998-20-8.999c-5-8.999-2.002-10,8.994-6.001
			c27.998,10,55-25,90-117.998c64.004-167.998,70-185,64.004-191.001c-2.998-2.998,0.996-16.997,7.998-31.001
			c19.004-35,7.998-48.999-19.004-25.996c-58.994,52.998-136.992,65.996-217.998,36.997c-20.996-6.997-38.994-10-40-6.001
			c-7.998,36.001-12.002,282.002-3.994,289.004c2.998,2.998,1.992,10.996-3.008,16.997c-15,18.003-53.994,303.003-43.994,318.999
			C6567.001,15169.997,6687.997,15033.996,6714.003,14975.998z M6804.003,14525.998c18.994-8.003,43.994-28.003,56.992-45
			c12.002-16.001,26.006-28.003,30-25c4.004,1.997,12.002-3.003,17.002-13.003c15-30,45-210.996,37.998-228.999
			c-5.996-15-10-13.999-33.994,8.999c-16.006,15-32.002,27.002-37.998,27.002c-5,0-1.006-5,7.998-10
			c8.994-6.001,32.002-36.001,52.002-67.998c32.998-54.004,35-64.004,42.998-187.002c5.996-71.001,7.998-133.999,5-137.998
			c-2.002-5-17.002,5.996-32.998,25c-15,17.998-28.008,28.999-29.004,25c0-4.004-9.004-3.003-20,2.998s-17.998,15-15,21.001
			c4.004,5-0.996,8.999-10,8.999c-7.998,0-17.998,6.001-20.996,13.999c-8.008,20-31.006,27.002-31.006,8.999
			c0-7.998,12.002-20,26.006-27.998c40.996-21.001,140.996-131.001,141.992-157.002c4.004-60.996-3.994-213.999-10.996-220.996
			c-4.004-5-22.002,12.998-40,40c-17.998,25.996-47.002,63.999-65,82.998s-49.004,57.998-70,85
			c-45.996,62.002-132.998,127.998-205,156.001c-30,11.997-57.998,25-62.998,28.999c-6.006,5,5.996,52.998,28.994,110
			c4.004,7.998,9.004,38.999,11.006,68.999c7.002,85,33.994,111.001,115.996,111.001c24.004,0,36.006,3.999,32.002,11.001
			c-4.004,6.001-10,7.998-12.998,5c-2.998-3.003-10-2.002-17.002,3.999s-25,6.001-49.004-1.001
			c-20.996-6.001-40.996-7.998-43.994-3.999c-4.004,2.998-5,57.002-4.004,117.998c2.998,111.001,2.998,112.002,34.004,139.004
			C6677.001,14540.998,6744.999,14550.998,6804.003,14525.998z"/>
		<path d="M6749.999,14229.997c7.998-5,22.002-8.999,30-8.999c10,0,7.998,2.998-5,8.999
			C6747.997,14241.999,6732.001,14241.999,6749.999,14229.997z"/>
		<path d="M5450,14539.997l-25-7.998l27.998-1.001c15-1.001,29.004-1.001,32.002-1.001c9.004,0,7.002,13.999-2.002,16.001
			C5479.003,14546.999,5464.003,14543.996,5450,14539.997z"/>
		<path d="M5360,14270.998c0-5,22.998-11.001,50-13.003c55.996-2.998,67.002,6.001,19.004,16.001
			C5385,14282.995,5360,14281.999,5360,14270.998z"/>
		<path d="M5589.003,13924.997c-63.008-22.998-119.004-55-159.004-92.002c-22.002-18.999-40-30.996-40-26.997
			c0,10-20-17.002-20-28.003c0-11.997,25.996-1.997,50,20c12.998,12.002,27.998,22.002,32.998,22.002s42.002,21.001,82.998,46.001
			c40,25,78.008,42.998,84.004,38.999c5.996-2.998,10,2.998,10,13.999c0,12.002-0.996,21.001-2.002,20
			C5625.996,13938.996,5609.003,13932.995,5589.003,13924.997z"/>
	</g>
</g>
</svg>
