<?xml version="1.0" encoding="UTF-8" standalone="no"?>
<!-- Created with Inkscape (http://www.inkscape.org/) -->

<svg
   version="1.1"
   id="svg1"
   width="1200"
   height="1600"
   viewBox="0 0 1200 1600"
   xml:space="preserve"
   xmlns="http://www.w3.org/2000/svg"
   xmlns:svg="http://www.w3.org/2000/svg"><defs
     id="defs1" /><g><path
     style="display:inline;fill:#000000"
     d="m 588.35416,417.14621 c -7.25159,-0.46187 -10.67477,-1.11264 -12,-2.28128 -1.26749,-1.11772 -4.70183,-1.84392 -10.85416,-2.29513 -7.93378,-0.58185 -27.44003,-2.94669 -33,-4.00075 -1.1,-0.20853 -5.06761,-0.70799 -8.81691,-1.1099 -13.62191,-1.46023 -19.9527,-8.12634 -23.64345,-24.8958 -1.09192,-4.96124 -2.22844,-7.96114 -2.95418,-7.79767 -0.64874,0.14612 -3.29587,-1.1986 -5.8825,-2.98827 -2.58663,-1.78967 -6.79826,-4.23147 -9.35919,-5.42623 C 475.9278,363.59119 471,354.40922 471,346.14599 c 0,-3.63803 -0.5259,-5.57287 -1.86377,-6.85703 -3.54367,-3.40143 -5.44271,-33.24132 -3.1368,-49.28896 2.65731,-18.49305 1.84735,-16.99815 11.91994,-22 l 7.04821,-3.5 0.10146,-9 c 0.0558,-4.95 0.0306,-11.35966 -0.056,-14.24369 -0.63886,-21.27469 4.60493,-27.10446 29.48695,-32.78208 15.81629,-3.60899 92.5674,-6.78116 123,-5.08367 30.44993,1.69845 63.34645,4.48426 66,5.58913 1.1,0.45801 4.925,1.60102 8.5,2.54001 15.90278,4.17694 18,8.39929 18,36.23958 v 16.87363 l 8.05842,3.77209 c 9.61617,4.50127 9.32972,3.93384 11.51024,22.80034 2.17428,18.81241 0.30141,49.18967 -2.95686,47.95925 -1.59848,-0.60364 -2.5809,2.24146 -2.59649,7.5195 -0.0232,7.84427 -4.11213,16.52224 -8.82884,18.73736 -2.02756,0.95221 -6.47826,3.53629 -9.89044,5.74239 -3.41218,2.2061 -6.60749,3.7617 -7.10069,3.45689 -0.49319,-0.30481 -1.68432,3.14333 -2.64695,7.66253 -3.69999,17.37015 -8.89511,22.67154 -24.62736,25.13111 C 685.73946,408.22446 679.925,409.13563 678,409.4392 669.84977,410.72449 649.21859,413 645.71564,413 c -2.16372,0 -4.96197,0.83588 -6.50613,1.94348 l -2.70951,1.94347 -19,0.45274 c -10.45,0.249 -23.56563,0.16193 -29.14584,-0.19348 z m 42.64031,-4.34987 c 5.31272,-1.63252 5.72177,-2.82075 3.54671,-10.30267 l -1.60357,-5.51611 -2.71881,0.57935 -2.7188,0.57935 1.927,-1.5578 c 3.19217,-2.58057 1.57947,-2.7975 -21.86178,-2.94072 -22.87244,-0.13975 -28.49833,0.77869 -19.7515,3.22448 l 3.68628,1.03075 -3.5,-0.0478 c -1.925,-0.0263 -4.03057,-0.002 -4.67904,0.0535 -1.03229,0.0887 -4.32096,9.16682 -4.32096,11.92768 0,4.46404 39.74428,6.73428 51.99447,2.96998 z m -56.36216,-4.56165 C 575.53793,407.64708 579,399.16071 579,397.52841 c 0,-0.22093 -1.4625,-0.58319 -3.25,-0.80501 -2.68289,-0.33295 -2.4735,-0.43125 1.2,-0.56336 10.30111,-0.37047 -2.88307,-3.48325 -19.95,-4.71019 -4.675,-0.33609 -12.92058,-1.47479 -18.32351,-2.53046 C 527.31727,386.69994 528,386.77244 528,387.78565 c 0,0.76101 13.96923,4.25075 17,4.24689 0.825,-10e-4 2.175,0.4685 3,1.04345 1.13745,0.79269 0.77489,0.91401 -1.5,0.50191 -5.11916,-0.92734 -9.12917,-1.54967 -13.62592,-2.11466 -11.43243,-1.43642 -15.8809,-11.2611 -21.26426,-46.96324 -4.47201,-29.65809 -5.92054,-88.38492 -2.34627,-95.12322 0.91118,-1.71776 1.40054,-3.37936 1.08748,-3.69242 -2.52228,-2.52227 8.95838,-10.67017 17.64897,-12.5256 14.53506,-3.1032 78.28006,-7.21752 76,-4.9053 -0.275,0.27888 -8.825,0.82935 -19,1.22326 -10.175,0.39391 -20.3,0.8858 -22.5,1.09308 -2.2,0.20729 -8.95,0.81934 -15,1.36011 -20.81388,1.86044 -33.18494,6.69433 -34.93039,13.64877 -1.01564,4.04662 0.0519,4.02112 1.98255,-0.0473 2.79847,-5.89735 9.58903,-8.5857 27.94784,-11.06443 11.79565,-1.59259 34.32526,-3.08571 33.5,-2.22017 -0.275,0.28843 -5.45,0.84662 -11.5,1.24044 -6.05,0.39381 -11.25625,0.87165 -11.56945,1.06186 -0.3132,0.19021 -2.7882,0.63046 -5.5,0.97835 -29.72327,3.81303 -34.24779,8.82856 -35.15731,38.97262 -0.41645,13.80251 2.09422,54.59025 4.21649,68.5 0.88529,5.80232 1.70476,11.84768 1.97604,14.57745 1.42519,14.34105 5.16965,23.84343 9.99514,25.36484 7.9005,2.49091 22.63531,5.95884 28.03909,6.59918 3.3,0.39104 6.82168,0.85992 7.82596,1.04197 1.00427,0.18204 4.59855,0.61467 7.98727,0.9614 3.38873,0.34673 6.46612,0.81879 6.83864,1.04902 0.37252,0.23023 0.84258,-0.0772 1.04457,-0.68318 0.42204,-1.26612 54.80229,-1.92171 54.80309,-0.66068 0.002,2.59914 35.93203,-2.89379 50.50047,-7.72035 5.46978,-1.81216 7.17568,-4.53514 9.41583,-15.02965 1.69822,-7.95566 2.25074,-11.27904 3.57444,-21.5 0.55558,-4.28994 1.32382,-12.49754 3.65045,-39 1.97249,-22.46844 1.20511,-45.85797 -1.80449,-55 -3.42315,-10.39828 -6.90576,-12.63225 -24.94684,-16.00255 -14.96868,-2.79634 -19.19616,-4.17687 -10.38939,-3.39278 19.69949,1.7539 32.04379,5.66036 35.29403,11.1691 1.6979,2.87772 2.26171,3.29455 2.53523,1.87427 1.21061,-6.28619 -13.87655,-12.87921 -33.82926,-14.78323 -5.225,-0.49861 -11.3,-1.08665 -13.5,-1.30677 -2.2,-0.22012 -11.65,-0.71399 -21,-1.09749 -9.35,-0.3835 -17.225,-0.9288 -17.5,-1.21178 -2.08188,-2.14228 54.52499,1.8112 70,4.88887 9.44118,1.87766 18,7.66337 18,12.16788 0,1.00428 0.43783,2.64405 0.97295,3.64393 4.29413,8.02367 2.02896,77.10945 -3.36241,102.55055 -0.23311,1.1 -1.17688,5.825 -2.09726,10.5 -0.92039,4.675 -2.26586,10.3 -2.98995,12.5 -0.72408,2.2 -1.89602,5.94569 -2.60432,8.32375 -1.81822,6.10459 -6.38084,8.21924 -20.91901,9.69541 -2.88881,0.29332 -1.18764,-0.39046 4.75134,-1.90979 9.59551,-2.45475 11.61867,-3.51312 13.43287,-7.02713 0.91873,-1.77954 0.6564,-1.70623 -1.8046,0.5043 -2.038,1.83059 -5.30509,3.09006 -11.17852,4.30933 -8.60878,1.7871 -10.98041,2.12235 -25.20109,3.56239 -4.675,0.47341 -9.4,1.09203 -10.5,1.37473 -1.1,0.28269 -3.2375,0.54842 -4.75,0.5905 -3.87405,0.10778 -3.43904,2.04474 0.5,2.22634 l 3.25,0.14983 -2.75,0.41659 c -3.18154,0.48197 -3.48753,2.27435 -1.28726,7.54034 2.12591,5.08802 11.68071,5.24556 44.71388,0.73723 26.31268,-3.59112 29.15556,-8.73436 38.41209,-69.49382 0.41895,-2.75 0.82703,-5.225 0.90683,-5.5 0.35647,-1.2284 1.54962,-16.40032 2.00537,-25.5 0.27547,-5.5 0.97436,-18.55 1.55309,-29 2.99134,-54.01329 -1.95395,-62.03647 -40.054,-64.98313 -1.925,-0.14888 -7.1,-0.64 -11.5,-1.09137 -9.77297,-1.00256 -124.62848,-1.14621 -133,-0.16635 -3.3,0.38626 -8.7,0.95114 -12,1.25528 -3.3,0.30415 -11.12608,1.52559 -17.39128,2.71432 l -11.39128,2.16133 -3.27826,3.37551 c -7.62527,7.85149 -8.92937,15.49637 -8.05748,47.23441 0.86814,31.60133 2.35609,58.62411 3.49649,63.5 0.51455,2.2 1.2015,6.25 1.52656,9 0.88448,7.48267 2.17429,14.34843 7.22131,38.43954 l 2.81554,13.43954 3.7842,4.78736 c 4.07796,5.159 7.26787,7.20555 12.7742,8.19552 5.57885,1.003 18.9321,2.66838 26,3.24263 7.74251,0.62907 24.0861,2.06517 25.5,2.24066 0.55,0.0683 1.50954,-0.20648 2.13231,-0.61056 z M 578.05177,231.968 c 1.23089,-0.76072 19.70418,-1.36355 18.89644,-0.61663 -0.24652,0.22795 -4.86901,0.62679 -10.27221,0.8863 -5.4032,0.25951 -9.2841,0.13816 -8.62423,-0.26967 z M 626,231.913 l -5.5,-0.58701 7.5,-0.0927 c 4.125,-0.051 8.4,0.28033 9.5,0.73627 2.28754,0.94816 -2.29751,0.92561 -11.5,-0.0565 z m 16.25,0.37075 c 1.5125,-0.22913 3.9875,-0.22913 5.5,0 1.5125,0.22912 0.275,0.41659 -2.75,0.41659 -3.025,0 -4.2625,-0.18747 -2.75,-0.41659 z M 606,231.21242 c 0,-0.88296 12.86287,-0.68288 13.75978,0.21403 C 620.07524,231.7419 617.10833,232 613.16667,232 609.225,232 606,231.64559 606,231.21242 Z M 496.4943,366.25 c -0.25064,-1.5125 -1.34137,-7.925 -2.42384,-14.25 -3.61369,-21.11508 -5.15526,-30.47046 -5.60251,-34 -1.08845,-8.58978 -2.48176,-24.40121 -3.04016,-34.5 -0.72277,-13.07171 -0.78542,-13.16557 -7.25416,-10.86807 l -5.06085,1.79745 -1.99563,7.34148 -1.99564,7.34147 0.39163,19.69384 c 0.44515,22.38515 1.18256,27.16225 4.74237,30.72207 4.20946,4.20946 5.41617,8.2363 3.47941,11.61091 l -1.63092,2.84172 1.93101,4.36538 c 1.95569,4.42116 8.75551,8.65329 15.96499,9.93644 1.375,0.24472 2.60125,0.50623 2.725,0.58113 0.12375,0.0749 0.0199,-1.10132 -0.2307,-2.61382 z m 231.96089,-0.29572 7.31616,-3.04573 1.97908,-4.76219 1.97908,-4.76218 -1.8014,-2.22463 c -2.28749,-2.82494 -1.02534,-7.35294 3.19448,-11.46024 1.58257,-1.54037 2.88002,-3.11537 2.8832,-3.5 0.003,-0.38462 0.47547,-3.39931 1.04953,-6.69931 3.04917,-17.52849 0.29522,-53.98489 -4.17966,-55.32962 -0.75661,-0.22737 -2.89833,-1.11354 -4.75937,-1.96928 l -3.3837,-1.55588 -1.3663,1.86852 c -0.8693,1.18884 -1.39332,4.79994 -1.4406,9.92739 -0.0409,4.43238 -0.21862,8.95887 -0.39499,10.05887 -0.17637,1.1 -0.59654,5.825 -0.9337,10.5 -0.63049,8.74237 -4.18344,32.45719 -7.6408,51 -3.17044,17.00395 -3.47286,16.52187 7.49899,11.95428 z"
     id="path2" /><path
     style="fill:#ffffff;fill-opacity:0.497436"
     d="m 600,391.74133 c -0.275,-0.26078 -8.15,-0.77058 -17.5,-1.13289 -24.60765,-0.95353 -49.57198,-3.57989 -52.09521,-5.48066 -4.07511,-3.06981 -9.6926,-10.45444 -10.45329,-13.74165 C 515.48723,352.09442 512.9229,317.32356 512.69558,273 l -0.0846,-16.5 2.74204,-6.05158 2.74204,-6.05158 9.65524,-3.76276 C 543.37645,234.54439 555.05136,233.5 607.5,233.5 c 46.65372,0 66.32238,1.18447 75.25,4.53165 2.8875,1.08259 7.76505,2.91567 10.839,4.0735 l 5.589,2.10515 3.00175,6.64485 3.00175,6.64485 -0.59471,29 c -0.81778,39.87731 -2.37575,59.87335 -6.23544,80.02988 l -1.53761,8.02988 -5.15687,5.57062 -5.15687,5.57063 -6.5,1.1201 c -7.12743,1.22823 -24.17679,2.80095 -39,3.59757 -21.43428,1.15189 -40.53045,1.76793 -41,1.32265 z"
     id="path5" /></g></svg>
