<?xml version="1.0" encoding="UTF-8" standalone="no"?>
<!-- Created with Inkscape (http://www.inkscape.org/) -->

<svg
   version="1.1"
   id="svg1"
   width="1200"
   height="1600"
   viewBox="0 0 1200 1600"
   xml:space="preserve"
   xmlns="http://www.w3.org/2000/svg"
   xmlns:svg="http://www.w3.org/2000/svg"><defs
     id="defs1" /><g><path
     style="fill:#000000"
     d="m 494.9844,370.00818 c -1.91642,-1.0955 -6.08289,-3.35753 -9.25883,-5.02673 l -5.77443,-3.0349 -2.57026,-5.72328 c -1.41365,-3.1478 -2.93825,-8.56985 -3.38802,-12.04901 -0.46169,-3.57139 -1.46974,-6.83703 -2.31513,-7.5 -5.25506,-4.12109 -4.16057,-55.59622 1.32227,-62.18787 3.00583,-3.61371 13.02751,-6.86894 14.38497,-4.67251 0.27666,0.44764 0.9943,8.43514 1.59477,17.75 1.08167,16.77958 3.73866,36.73811 8.53565,64.11724 3.68812,21.05026 3.58165,21.82129 -2.53099,18.32706 z M 717,369.93112 c 0,-1.13789 1.10099,-8.45039 2.44665,-16.25 C 726.86448,310.68632 729,293.19781 729,275.44553 c 0,-8.46293 -0.0635,-8.41885 7.81322,-5.42508 9.48991,3.60691 10.00174,4.76781 12.20278,27.67731 C 750.55594,313.72625 748.42667,337 745.42031,337 c -1.30877,0 -1.98967,2.6076 -2.74178,10.5 -0.20965,2.2 -1.37268,6.25 -2.58451,9 l -2.20331,5 -9.36791,5.25 C 718.08045,372.60215 717,372.90043 717,369.93112 Z"
     id="path3" /></g></svg>
