<?xml version="1.0" encoding="UTF-8" standalone="no"?>
<!-- Created with Inkscape (http://www.inkscape.org/) -->

<svg
   version="1.1"
   id="svg1"
   width="1200"
   height="1600"
   viewBox="0 0 1200 1600"
   xml:space="preserve"
   xmlns="http://www.w3.org/2000/svg"
   xmlns:svg="http://www.w3.org/2000/svg"><defs
     id="defs1" /><g><path
     style="fill:#000000"
     d="m 600,391.74133 c -0.275,-0.26078 -8.15,-0.77058 -17.5,-1.13289 -24.60765,-0.95353 -49.57198,-3.57989 -52.09521,-5.48066 -4.07511,-3.06981 -9.6926,-10.45444 -10.45329,-13.74165 C 515.48723,352.09442 512.9229,317.32356 512.69558,273 l -0.0846,-16.5 2.74204,-6.05158 2.74204,-6.05158 9.65524,-3.76276 C 543.37645,234.54439 555.05136,233.5 607.5,233.5 c 46.65372,0 66.32238,1.18447 75.25,4.53165 2.8875,1.08259 7.76505,2.91567 10.839,4.0735 l 5.589,2.10515 3.00175,6.64485 3.00175,6.64485 -0.59471,29 c -0.81778,39.87731 -2.37575,59.87335 -6.23544,80.02988 l -1.53761,8.02988 -5.15687,5.57062 -5.15687,5.57063 -6.5,1.1201 c -7.12743,1.22823 -24.17679,2.80095 -39,3.59757 -21.43428,1.15189 -40.53045,1.76793 -41,1.32265 z"
     id="path4" /></g></svg>
