<?xml version="1.0" encoding="UTF-8" standalone="no"?>
<!-- Created with Inkscape (http://www.inkscape.org/) -->

<svg
   version="1.1"
   id="svg1"
   width="1200"
   height="1600"
   viewBox="0 0 1200 1600"
   xml:space="preserve"
   xmlns="http://www.w3.org/2000/svg"
   xmlns:svg="http://www.w3.org/2000/svg"><defs
     id="defs1" /><g><path
     style="fill:#000000"
     d="m 592.24636,414.9981 c -7.86654,-0.48562 -11.77925,-1.1551 -13,-2.22436 -1.19247,-1.0445 -5.86955,-1.89647 -14.74636,-2.68619 -7.15,-0.63609 -17.05,-1.80298 -22,-2.59308 -4.95,-0.7901 -12.32419,-1.87125 -16.3871,-2.40255 -13.79042,-1.80338 -19.16403,-7.47705 -22.70991,-23.97801 -1.55542,-7.23825 -2.11517,-8.42895 -4.34424,-9.24104 -3.48016,-1.2679 -3.56045,-1.30898 -11.97381,-6.12676 L 479.66989,361.5 476.87299,355 c -1.66912,-3.87905 -2.81223,-8.35361 -2.83494,-11.09699 -0.0253,-3.05561 -0.68197,-5.33944 -1.95847,-6.81125 -4.88573,-5.63329 -4.71187,-50.64877 0.23594,-61.09176 0.76265,-1.60967 3.76129,-3.74646 8.42006,-6 l 7.23558,-3.5 0.19084,-8 c 0.10497,-4.4 0.25695,-12.05 0.33775,-17 0.25692,-15.74091 4.30303,-24.30707 12.50025,-26.46467 20.98295,-5.52296 33.52088,-7.02794 76,-9.12262 45.12568,-2.22519 112.83086,1.499 133.02165,7.31699 17.09223,4.92513 18.91552,8.71404 18.95854,39.39716 l 0.0198,14.12685 4.93538,2.12315 c 2.71446,1.16773 5.34447,2.12314 5.84446,2.12314 9.05977,0 14.01177,59.3037 5.49029,65.75 -1.09522,0.82851 -1.90091,3.57583 -2.3894,8.14758 -0.40536,3.79366 -1.69394,9.08116 -2.86352,11.74999 l -2.1265,4.85243 -9.36791,5.25 c -5.15234,2.8875 -10.04585,5.25 -10.87445,5.25 -1.03176,0 -1.87525,1.81213 -2.67645,5.75 -4.37107,21.48366 -8.14614,25.03107 -30.11031,28.29452 -22.08254,3.28103 -25.9721,3.77549 -35.36159,4.49535 -5.81869,0.44609 -9.6152,1.2313 -10.74042,2.22137 -1.2433,1.09398 -5.38489,1.7618 -14.5,2.33808 -14.17986,0.89648 -15.94171,0.89091 -32.01322,-0.10122 z"
     id="path6" /></g></svg>
