<svg version="1.0" xmlns="http://www.w3.org/2000/svg"
 width="1200.000000pt" height="1600.000000pt" viewBox="0 0 1200.000000 1600.000000"
 preserveAspectRatio="xMidYMid meet">

<g transform="translate(0.000000,1600.000000) scale(0.100000,-0.100000)"
fill="#000000" stroke="none">
<path d="M5930 13954 c-115 -13 -261 -53 -310 -85 -14 -9 -46 -28 -71 -42 -81
-46 -147 -105 -209 -189 -143 -192 -178 -324 -179 -668 0 -175 -3 -222 -16
-253 -14 -34 -19 -38 -44 -32 -19 4 -35 0 -54 -15 -34 -27 -35 -68 -3 -107 13
-15 33 -47 45 -71 25 -50 31 -57 132 -160 81 -83 176 -155 304 -231 315 -187
501 -227 753 -162 62 16 118 33 125 39 7 5 55 31 107 58 52 26 106 55 120 64
14 9 57 37 95 62 93 61 123 86 228 190 57 57 96 105 109 135 11 27 31 61 44
76 13 16 24 41 24 57 0 38 -44 74 -81 66 -43 -8 -60 52 -58 200 2 251 0 305
-21 420 -11 65 -24 121 -28 124 -4 3 -27 46 -52 95 -37 73 -62 107 -135 180
-96 96 -99 98 -215 156 -116 58 -139 66 -230 85 -109 21 -235 24 -380 8z
m-733 -1006 c-3 -8 -6 -5 -6 6 -1 11 2 17 5 13 3 -3 4 -12 1 -19z"/>
</g>
</svg>
