<svg version="1.0" xmlns="http://www.w3.org/2000/svg"
 width="1200.000000pt" height="1600.000000pt" viewBox="0 0 1200.000000 1600.000000"
 preserveAspectRatio="xMidYMid meet">

<g transform="translate(0.000000,1600.000000) scale(0.100000,-0.100000)"
fill="#000000" stroke="none">
<path d="M5885 13960 c-116 -16 -280 -82 -389 -157 -119 -83 -268 -288 -299
-413 -32 -126 -40 -211 -31 -320 4 -58 7 -124 7 -148 -1 -55 -27 -123 -58
-152 -17 -16 -23 -30 -19 -45 6 -23 -15 -35 -63 -35 -20 0 -23 -5 -23 -44 0
-26 9 -60 24 -87 12 -24 42 -80 66 -124 50 -95 59 -103 208 -196 65 -40 119
-75 122 -79 11 -12 148 -99 210 -133 36 -19 124 -57 195 -83 127 -47 132 -48
245 -48 112 1 118 2 235 46 182 70 251 105 352 178 26 19 104 71 173 115 69
44 135 87 146 95 12 8 41 51 64 95 95 178 100 189 94 227 -6 33 -10 36 -46 41
-49 7 -52 10 -39 36 9 17 8 22 -9 31 -24 13 -55 72 -65 120 -9 48 -9 47 -1
115 15 132 15 154 1 250 -19 128 -50 229 -84 280 -16 22 -45 67 -67 99 -111
167 -350 307 -578 336 -84 11 -286 11 -371 0z m455 -46 c96 -28 171 -64 259
-124 157 -106 230 -197 309 -386 37 -89 37 -90 36 -224 -1 -74 -3 -175 -5
-225 -3 -83 -1 -95 27 -160 33 -74 31 -110 -5 -118 -9 -2 3 -4 25 -5 54 -1
114 -26 114 -47 0 -9 -25 -65 -55 -124 l-55 -107 -175 -125 c-239 -169 -288
-200 -373 -237 -100 -44 -310 -94 -381 -91 -52 2 -228 43 -294 68 -97 37 -218
110 -397 239 l-204 147 -57 110 c-32 61 -58 116 -59 123 0 18 61 42 112 43 24
1 36 3 27 6 -28 7 -29 54 -3 113 36 81 41 131 26 244 -14 105 -10 231 9 301
19 72 117 259 162 310 105 120 315 249 442 272 140 25 425 24 515 -3z"/>
</g>
</svg>
