<?xml version="1.0" standalone="no"?>
<!DOCTYPE svg PUBLIC "-//W3C//DTD SVG 20010904//EN"
 "http://www.w3.org/TR/2001/REC-SVG-20010904/DTD/svg10.dtd">
<svg version="1.0" xmlns="http://www.w3.org/2000/svg"
 width="1200.000000pt" height="1600.000000pt" viewBox="0 0 1200.000000 1600.000000"
 preserveAspectRatio="xMidYMid meet">

<g transform="translate(0.000000,1600.000000) scale(0.100000,-0.100000)"
fill="#000000" stroke="none">
<path d="M5945 13801 c-125 -22 -281 -72 -360 -115 -118 -65 -261 -164 -289
-201 -31 -40 -66 -123 -66 -154 0 -10 -7 -35 -15 -55 -8 -20 -15 -39 -16 -43
-1 -14 -63 -117 -97 -162 -61 -80 -106 -136 -119 -147 -7 -6 -25 -27 -40 -46
-16 -19 -72 -74 -126 -123 -53 -48 -95 -90 -93 -92 2 -3 21 6 43 20 69 43 77
46 90 32 10 -11 4 -23 -27 -63 -22 -27 -40 -54 -40 -60 0 -5 -7 -16 -16 -23
-9 -8 -28 -32 -42 -54 -13 -22 -31 -47 -39 -55 -8 -8 -29 -39 -46 -69 -18 -30
-44 -75 -59 -100 -57 -97 -160 -298 -201 -391 -9 -19 -21 -57 -28 -85 -6 -27
-15 -54 -19 -60 -26 -35 -47 -439 -28 -542 14 -76 24 -82 19 -11 -3 53 16 224
27 243 4 6 7 12 7 15 9 52 32 133 46 160 10 19 26 52 34 74 13 34 17 37 31 25
14 -11 15 -27 9 -104 -12 -153 -12 -237 -2 -305 10 -70 15 -117 16 -139 1 -10
4 -11 14 -2 17 14 23 8 48 -49 48 -104 51 -122 50 -243 -1 -65 -6 -126 -11
-135 -5 -9 -16 -40 -25 -68 -9 -29 -25 -60 -35 -69 -11 -10 -17 -21 -15 -26 7
-10 73 13 110 37 14 9 28 14 32 11 3 -4 18 2 33 13 16 11 33 20 38 20 25 0
132 114 157 165 14 30 30 57 36 61 15 9 41 -19 44 -50 2 -14 13 -41 24 -60 12
-18 21 -40 21 -48 0 -8 9 -23 20 -33 51 -46 111 -246 123 -413 2 -29 0 -55 -4
-58 -7 -4 -1 -203 6 -212 5 -5 104 78 192 162 83 79 213 231 222 259 2 7 13
28 26 47 13 19 35 54 49 78 22 35 29 40 39 29 21 -23 37 -56 29 -61 -19 -12
31 -298 57 -330 6 -7 8 -15 6 -18 -3 -3 -1 -16 4 -29 5 -13 9 -28 11 -34 1 -5
7 -17 15 -25 7 -8 16 -26 20 -40 4 -14 20 -46 36 -73 16 -26 29 -53 29 -60 0
-7 20 -35 45 -64 25 -28 45 -56 45 -61 0 -12 67 -73 147 -135 58 -44 166 -106
169 -96 1 2 10 -4 20 -13 11 -9 48 -25 84 -34 36 -10 68 -23 72 -29 5 -7 8 -6
8 1 0 6 -9 23 -21 38 -11 14 -18 26 -14 26 3 0 -3 12 -12 27 -15 23 -19 55
-22 195 -3 148 0 180 19 259 12 49 33 106 46 125 13 19 24 38 24 42 0 4 20 27
44 51 42 41 46 43 61 27 14 -14 15 -22 6 -44 -29 -73 -36 -372 -8 -372 5 0 6
7 3 16 -4 9 -2 22 3 28 4 6 12 29 16 51 24 133 119 350 196 447 16 20 29 40
29 43 0 4 21 34 48 67 26 33 52 69 59 81 6 11 33 46 60 76 26 31 61 74 76 97
15 22 41 53 57 69 17 16 30 34 30 40 0 5 23 38 50 73 28 34 48 62 45 62 -3 0
13 26 37 58 72 95 144 223 167 297 12 39 28 90 37 115 8 25 16 61 18 80 8 73
19 100 51 124 40 31 45 26 68 -59 28 -108 39 -203 34 -302 -4 -72 -3 -89 4
-63 5 19 16 58 24 85 9 28 18 82 21 120 3 39 9 89 14 112 4 23 5 45 2 48 -3 3
-7 31 -8 63 -2 31 -8 66 -13 77 -5 11 -14 48 -21 82 -6 34 -17 75 -25 90 -8
15 -15 34 -15 41 0 18 -76 181 -147 317 -14 28 -38 74 -52 102 -14 29 -29 53
-33 53 -4 0 -14 12 -22 28 -8 15 -23 36 -33 47 -36 40 -93 125 -82 125 6 0 1
13 -10 28 -13 19 -17 33 -10 43 7 12 13 11 41 -5 18 -10 53 -29 78 -43 l45
-24 -35 28 c-48 38 -227 216 -259 257 -14 18 -52 65 -83 103 -53 66 -169 278
-181 333 -10 40 -64 115 -120 166 -156 140 -354 228 -603 268 -119 19 -103 19
-229 -3z"/>
</g>
</svg>
