<svg version="1.1" id="Layer_1" xmlns="http://www.w3.org/2000/svg" xmlns:xlink="http://www.w3.org/1999/xlink" x="0px" y="0px"
	 width="1200px" height="1600px" viewBox="0 0 1200 1600" enable-background="new 0 0 1200 1600" xml:space="preserve" fill="#000000">
<path d="M1095.998,974.437c16.43-15.068,39.07-47.419,52.647-75.235c7.223-14.74,12.644-36.834,16.112-65.669
	c4.15-35.136,2.205-61.572-6.938-94.284c-6.582-23.79-12.914-29.853-21.652-41.415c-13.223-18.02-29.479-33.294-45.667-41
	c-9.879-4.678-38.945-18.044-44.117-18.696c-27.468-3.999-46.996-5.781-63.345-5.781c-24.56,0-43.558,3.887-67.761,13.862
	c-7.029,2.868-18.07,8.217-24.617,11.927c-10.888,6.234-27.416,13.083-31.574,13.084c-0.367,0-0.682-0.042-0.96-0.13
	c-0.626-0.198-1.792-0.565-4.577-8.643c-1.506-4.469-2.378-6.043-2.822-6.595c-0.243,0.292-0.688,0.619-1.446,0.619
	c-3.557,0-23.41-10.131-29.881-14.864c-26.896-19.442-30.585-22.666-32.888-28.732c-1.01-2.801-3.686-6.791-5.852-8.736
	c-2.504-2.176-6.802-6.033-9.629-8.694c-4.98-4.474-8.53-6.146-13.069-6.146c-1.471,0-3.104,0.18-4.995,0.548
	c-3.446,0.717-11.377,2.046-17.662,2.877c-10.115,1.5-10.705,2.037-12.136,4.64c-1.266,2.189-5.411,7.116-9.257,11.011
	c-3.876,3.976-6.54,6.708-7.923,8.24c1.822,1.089,3.077,4.188,3.855,6.871c1.048,3.252,3.636,9.225,5.969,13.129
	c3.388,6.115,4.129,8.432,2.939,13.165c-0.553,2.538-0.984,9.336-0.933,14.799c0.187,9.053,0.729,10.828,7.247,23.723
	c2.545,5.01,7.319,15.156,7.166,17.677c-2.322,22.113-2.09,24.007,0.256,24.747c0.001,0,0.127,0.039,0.447,0.039
	c0.924,0,2.262-0.304,3.181-0.723c1.047-0.464,1.822-0.667,2.527-0.667c3.675,0,4.321,4.312,5.65,16.779
	c0.88,7.874,1.622,13.452,3.162,13.452c0.808,0,2.201-0.629,3.459-1.245c3.992-1.924,6.79-3.036,9.305-3.036
	c2.544,0,4.575,1.087,7.028,2.841c3.706,2.827,7.443,5.03,26.788,16.146c1.113,0.638,6.697,3.973,7.164,6.896
	c0.136,1.195,0.474,3.332,0.828,4.556l0.041,0.182c0.211,1.325,1.23,6.665,2.216,11.828l0.077,0.401
	c4.31,22.446,23.207,51.126,49.317,74.846c19.84,18.057,66.226,48.109,89.087,58.246c-2.906-2.485-6.093-5.087-16.904-13.835
	c-12.709-10.189-20.475-17.475-25.964-24.355l-9.22-11.458l5.368-2.011c1.441-0.607,3.133-1.014,4.46-1.071
	c-1.097-1.023-2.898-2.555-5.85-4.785c-16.081-12.16-26.269-22.921-34.065-35.982c-15.503-25.363-16.974-28.629-19.663-43.656
	c-1.461-8.021-2.589-12.157-3.086-13.276c-1.516-0.618-2.684-1.805-3.175-3.25c-0.491-1.448-0.258-3.014,0.641-4.297l0.068-0.09
	c0.439-0.537,1.101-3.079,0.863-5.622l-0.007-0.116c-0.06-3.709,0.591-5.983,2.045-7.155l0.149-0.105
	c0.804-0.5,3.515-2.613,6.446-5.022c2.908-2.396,4.332-3.446,5.753-3.446c1.677,0,2.515,1.488,3.015,2.378
	c1.064,1.812,1.67,2.024,2.031,2.024c1.633,0,5.005-3.356,8.088-6.639c4.194-4.497,9.909-9.618,12.736-11.412l6.271-4.176
	l2.407,5.441c0.776,1.821,2.84,4.292,4.512,5.416c0.524,0.333,1.63,1.035,2.072,1.161c0.299-0.296,0.863-1.29,1.116-1.734
	c0.925-1.781,2.232-4.698,2.772-6.41c1.756-5.571,10.123-8.64,23.562-8.64c10.481,0,22.963,1.821,36.093,5.266
	c18.011,4.748,30.608,10.994,43.481,21.56l2.322,1.901c-4.438-7.453-4.104-8.51-3.961-8.964c0.421-1.333-10.773-15.855-9.388-16.657
	l17.55,10.409l16.193,7.836c6.81,5.447,11.493,14.501,15.072,17.963c8.623,8.345,27.474,29.805,30.104,34.271
	c2.466,4.515,8.999,32.29,11.109,45.843c0.467,3.382,0.994,5.925,1.383,7.427c0.241-0.314,0.513-0.704,0.8-1.172
	c1.035-1.888,3.432-4.826,4.68-6.255c1.407-1.525,3.237-4.417,4.194-6.614c1.477-3.555,3.752-5.606,6.23-5.606
	c1.821,0,3.471,1.133,4.645,3.19c1.014,1.757,1.873,4.401,1.355,6.042c-0.119,0.598,0.231,3.816,1.204,7.979
	c5.916,23.666,3.341,71.648-5.628,104.755c-1.328,4.881-4.327,15.905-3.992,18.666
	C1093.148,976.743,1094.127,976.102,1095.998,974.437z"/>
<path d="M511.069,617.623c-1.381-1.53-4.042-4.259-7.913-8.23c-3.855-3.904-8.001-8.831-9.25-10.992
	c-1.447-2.631-2.037-3.168-12.175-4.671c-6.262-0.828-14.193-2.157-17.657-2.877c-1.873-0.365-3.506-0.545-4.977-0.545
	c-4.54,0-8.088,1.672-13.095,6.169c-2.801,2.637-7.099,6.494-9.621,8.687c-2.148,1.93-4.824,5.919-5.825,8.696
	c-2.312,6.091-6.001,9.314-32.903,28.761c-6.462,4.726-26.315,14.858-29.874,14.859c-0.755,0-1.199-0.324-1.447-0.619
	c-0.444,0.55-1.315,2.123-2.819,6.585c-2.789,8.087-3.954,8.455-4.581,8.653c-0.278,0.088-0.592,0.13-0.959,0.13
	c-4.157,0-20.685-6.849-31.581-13.087c-6.542-3.706-17.583-9.055-24.606-11.921c-24.208-9.977-43.206-13.864-67.765-13.864
	c-16.35,0-35.877,1.782-63.316,5.777c-5.2,0.656-37.52,12.102-47.4,16.781c-16.187,7.705-29.595,22.916-42.804,40.919
	c-8.751,11.579-14.678,19.625-21.259,43.411C50.095,772.96,49.849,797.111,54,832.25c3.468,28.832,10.277,52.179,17.5,66.917
	c13.578,27.818,33.131,61.201,49.577,76.284c1.859,1.655,2.834,2.293,3.323,2.537c0.335-2.76-2.664-13.785-3.991-18.665
	c-8.97-33.107-11.545-81.09-5.623-104.778c0.966-4.141,1.317-7.359,1.188-7.993c-0.508-1.604,0.352-4.249,1.369-6.013
	c1.17-2.051,2.82-3.184,4.641-3.184c2.479,0,4.753,2.052,6.241,5.63c0.947,2.174,2.777,5.065,4.156,6.56
	c1.275,1.46,3.673,4.398,4.744,6.348c0.271,0.44,0.53,0.811,0.763,1.114c0.389-1.5,0.179-3.859,0.112-7.257
	c-0.268-13.602,8.392-45.277,10.833-49.75c2.655-4.509,22.293-25.155,30.917-33.5c3.579-3.462,10.957-11.899,17.75-17.333l14-7
	l17.879-9.912c1.322,0.762-9.887,16.323-9.466,17.656c0.143,0.455,0.477,1.512-3.961,8.965l2.325-1.902
	c12.871-10.564,25.468-16.811,43.478-21.558c13.132-3.445,25.612-5.266,36.094-5.266c13.438,0,21.806,3.069,23.562,8.641
	c0.54,1.711,1.848,4.628,2.8,6.458c0.229,0.4,0.792,1.392,1.09,1.687c0.432-0.123,1.546-0.83,2.102-1.184
	c1.641-1.103,3.704-3.575,4.473-5.377l2.415-5.459l6.298,4.194c2.799,1.775,8.514,6.896,12.712,11.397
	c3.08,3.279,6.452,6.635,8.084,6.635c0.362,0,0.968-0.212,2.046-2.048c0.486-0.865,1.324-2.354,3-2.354
	c1.42,0,2.844,1.05,5.754,3.447c2.93,2.409,5.641,4.521,6.445,5.021l0.149,0.105c1.455,1.172,2.104,3.446,2.045,7.155l-0.006,0.116
	c-0.238,2.543,0.424,5.085,0.863,5.622l0.068,0.09c0.898,1.283,1.132,2.85,0.641,4.297c-0.491,1.446-1.66,2.633-3.175,3.25
	c-0.497,1.119-1.625,5.255-3.087,13.28c-2.689,15.023-4.16,18.289-19.67,43.666c-7.789,13.048-17.976,23.809-34.057,35.969
	c-2.951,2.23-3.657,2.738-4.753,3.762c1.328,0.059,5.611-2.147,7.103-1.521l6.496-0.162l-14.091,17.251
	c-5.484,6.876-14.608,11.385-27.321,21.578c-10.818,8.754-11.77,11.022-14.667,13.5c24-3.5,68.373-37.083,88.21-55.138
	c26.111-23.721,45.008-52.4,49.319-74.848l0.076-0.399c0.986-5.164,2.006-10.503,2.216-11.828l0.041-0.182
	c0.355-1.225,0.692-3.361,0.819-4.487c0.476-2.992,6.06-6.327,7.174-6.965c19.344-11.116,23.081-13.319,26.749-16.118
	c2.491-1.782,4.522-2.869,7.066-2.869c2.515,0,5.313,1.111,9.297,3.032c1.265,0.619,2.659,1.249,3.467,1.249
	c1.539,0,2.282-5.579,3.162-13.459c1.328-12.46,1.975-16.771,5.65-16.771c0.706,0,1.48,0.204,2.512,0.661
	c0.935,0.426,2.272,0.73,3.196,0.73c0.32,0,0.446-0.039,0.447-0.039c2.345-0.739,2.577-2.633,0.261-24.681
	c-0.158-2.586,4.616-12.732,7.162-17.745c6.517-12.893,5.57-12.237,5.757-21.307c0.051-5.446-1.187-17.916-1.75-20.5
	c-1.179-4.686,1.857-3.762,5.22-9.834c2.358-3.947,4.946-9.919,6.006-13.213C507.995,621.803,509.248,618.71,511.069,617.623z"/>
</svg>
