<svg version="1.1" id="Layer_1" xmlns="http://www.w3.org/2000/svg" xmlns:xlink="http://www.w3.org/1999/xlink" x="0px" y="0px"
	 width="1200px" height="1600px" viewBox="0 0 1200 1600" enable-background="new 0 0 1200 1600" xml:space="preserve">
<path d="M847.728,676.095c-1.137,0.691-3.656,1.603-5.71,1.875c-3.987,0.581-8.385,5.364-7.075,7.876
	c0.57,1.1,2.558,1.463,5.921,1.21c6.243-0.657,12.126-6.416,10.165-10.185C850.047,674.988,849.569,674.837,847.728,676.095z"/>
<path d="M835.937,688.522c-4.466,0.43-5.245,1.235-12.364,11.329l-7.623,10.854l2.857,5.101c1.591,2.863,4.011,5.595,5.205,5.971
	c3.343,1.053,6.835,8.717,4.681,10.138c-1.176,0.812-1.551,2.005-1.242,3.941c0.301,1.538,0.26,3.756-0.154,5.069
	c-0.377,1.194,0.058,3.563,1.077,5.327c1.709,2.902,1.83,2.94,7.236-0.474c8.976-5.573,9.052-5.81,2.328-19.874
	c-3.202-6.916-5.814-14.039-5.766-15.861c0.17-1.784,2.352-6.216,5.449-10.621c4.449-6.21,5.178-7.688,4.158-9.453
	C840.962,688.401,839.73,688.143,835.937,688.522z"/>
<path d="M838.52,746.958c-7.638,5.075-11.685,11.674-13.527,22.512c-0.75,4.883-1.985,9.218-2.771,9.627
	c-0.627,0.328-4.07,0.424-7.677,0.205c-3.45-0.299-7.37-0.354-8.476-0.176c-3.437,0.491-3.309,3.42,0.173,5.697
	c1.842,1.237,4.048,2.982,4.935,3.917c2.696,2.688,4.72,2.933,9.166,1.315c3.461-1.403,4.121-2.246,4.458-5.814
	c0.396-2.5,1.04-4.135,1.758-3.909c1.433,0.452,8.357-9.441,9.787-13.978c0.527-1.672,1.994-3.834,3.245-4.883
	c1.368-1.012,4.012-3.985,6.11-6.475c3.452-4.293,3.602-4.771,2.332-7.402C846.064,743.429,844.277,743.26,838.52,746.958z"/>
<path d="M364.702,676.872c-1.961,3.769,3.922,9.528,10.165,10.185c3.363,0.253,5.351-0.11,5.921-1.21
	c1.31-2.512-3.088-7.295-7.075-7.876c-2.054-0.272-4.573-1.184-5.71-1.875C366.161,674.837,365.683,674.988,364.702,676.872z"/>
<path d="M373.951,689.97c-1.02,1.765-0.291,3.243,4.158,9.453c3.098,4.405,5.279,8.837,5.449,10.621
	c0.049,1.822-2.563,8.945-5.766,15.861c-6.724,14.064-6.647,14.301,2.328,19.874c5.406,3.415,5.527,3.376,7.236,0.474
	c1.02-1.764,1.454-4.133,1.077-5.327c-0.414-1.313-0.455-3.531-0.154-5.069c0.309-1.937-0.066-3.13-1.242-3.941
	c-2.154-1.421,1.338-9.084,4.681-10.138c1.194-0.376,3.614-3.108,5.205-5.971l2.857-5.101l-7.623-10.854
	c-7.119-10.094-7.898-10.899-12.364-11.329C376,688.143,374.768,688.401,373.951,689.97z"/>
<path d="M367.698,747.593c-1.27,2.631-1.12,3.109,2.332,7.402c2.099,2.49,4.742,5.463,6.11,6.475
	c1.251,1.049,2.718,3.211,3.245,4.883c1.43,4.537,8.354,14.43,9.787,13.978c0.718-0.226,1.362,1.409,1.758,3.909
	c0.337,3.569,0.997,4.411,4.458,5.814c4.446,1.617,6.47,1.373,9.166-1.315c0.887-0.936,3.093-2.681,4.935-3.917
	c3.481-2.277,3.609-5.206,0.173-5.697c-1.105-0.178-5.025-0.123-8.476,0.176c-3.606,0.219-7.05,0.123-7.677-0.205
	c-0.786-0.409-2.021-4.744-2.771-9.627c-1.843-10.837-5.89-17.437-13.527-22.512C371.453,743.26,369.666,743.429,367.698,747.593z"
	/>
<polygon points="488.354,619.26 488.354,633.28 468.243,642.462 443.983,646.608 431.144,610.092 437.285,608.822 451.877,633.397 
	"/>
<polygon points="727.493,619.594 727.493,633.614 747.604,642.796 771.863,646.942 784.703,610.426 778.562,609.156 763.97,633.731 
	"/>
</svg>
