<svg version="1.0" xmlns="http://www.w3.org/2000/svg"
 width="1200.000000pt" height="1600.000000pt" viewBox="0 0 1200.000000 1600.000000"
 preserveAspectRatio="xMidYMid meet">

<g transform="translate(0.000000,1600.000000) scale(0.100000,-0.100000)"
fill="#000000" stroke="none">
<path d="M3810 8443 c0 -6 -22 -35 -49 -65 -26 -29 -55 -67 -64 -85 -9 -17
-57 -63 -106 -102 -49 -38 -101 -86 -116 -105 -14 -19 -36 -37 -49 -40 -12 -3
-78 -46 -146 -95 -73 -54 -144 -97 -174 -107 -28 -9 -62 -25 -75 -35 -13 -10
-28 -16 -34 -12 -6 4 -28 6 -49 4 -53 -4 -82 27 -75 80 5 37 4 39 -23 39 -38
0 -196 -83 -241 -127 -20 -19 -45 -54 -55 -76 -10 -23 -23 -46 -29 -50 -7 -6
-6 -10 3 -14 6 -2 12 -10 12 -17 0 -17 71 -73 117 -92 50 -22 197 -21 232 0 6
4 15 4 21 1 5 -3 29 12 52 33 24 22 55 42 69 45 l26 7 6 -91 c8 -130 33 -159
134 -159 59 0 113 26 181 87 48 44 55 58 91 159 34 97 37 112 25 129 -21 29
-17 45 21 81 23 23 44 34 64 34 39 0 163 26 203 43 35 15 148 130 148 151 0 6
-6 18 -12 24 -8 8 -11 38 -9 86 4 112 -13 182 -60 236 -21 25 -39 40 -39 33z"/>
<path d="M8298 8406 c-43 -51 -60 -121 -57 -231 1 -47 -2 -80 -9 -87 -19 -19
-14 -33 29 -82 48 -54 98 -79 189 -96 36 -7 99 -24 140 -39 l75 -26 0 -75 c0
-41 6 -95 13 -119 8 -23 11 -49 8 -57 -3 -7 -1 -16 5 -19 5 -4 16 -22 24 -41
10 -25 26 -39 60 -54 25 -11 45 -23 45 -28 0 -7 62 -34 75 -32 3 0 19 -7 36
-15 23 -13 34 -14 44 -5 8 7 20 10 27 7 16 -6 48 10 48 24 0 6 9 24 20 39 13
19 23 53 27 93 l6 65 31 -9 c17 -5 40 -22 53 -38 25 -31 49 -38 184 -47 67 -5
88 -3 100 8 8 8 19 13 25 11 6 -2 23 10 37 27 14 16 32 28 39 25 20 -8 63 44
49 58 -6 6 -11 18 -11 27 0 32 -60 111 -105 138 -25 15 -45 33 -45 40 0 8 -9
13 -22 11 -13 -1 -43 8 -68 19 -25 12 -57 22 -72 22 -25 0 -26 -2 -21 -39 4
-31 1 -43 -17 -61 -18 -18 -30 -21 -66 -17 -27 3 -45 0 -47 -7 -3 -7 -13 -3
-28 10 -13 12 -47 29 -75 38 -31 10 -100 53 -174 107 -68 49 -134 92 -146 95
-13 3 -35 21 -49 40 -15 19 -67 67 -116 105 -54 43 -97 86 -108 108 -10 20
-29 45 -41 56 -13 11 -35 37 -50 57 l-27 37 -35 -43z m1078 -657 c59 -39 94
-69 94 -82 0 -6 -5 -5 -12 1 -31 25 -153 82 -165 78 -9 -4 -13 4 -13 24 0 27
2 29 23 21 13 -5 45 -24 73 -42z"/>
<path d="M9070 8260 c0 -5 -7 -10 -16 -10 -27 0 4 -30 51 -50 52 -22 98 -62
126 -108 34 -55 100 -132 114 -132 7 0 18 -6 24 -14 17 -21 151 3 151 27 0 8
3 7 9 -2 7 -10 13 -11 30 -2 12 7 26 9 31 6 6 -3 11 0 11 7 1 7 2 20 3 28 0 8
11 15 22 15 26 0 60 29 67 56 4 15 0 19 -18 19 -13 0 -25 -6 -28 -12 -3 -9
-18 -2 -48 19 -61 45 -156 96 -209 112 -25 7 -55 17 -67 22 -14 5 -23 4 -27
-4 -3 -9 -5 -8 -5 1 -1 7 -5 10 -11 7 -5 -3 -36 -2 -67 4 -118 19 -143 21
-143 11z"/>
<path d="M2841 8242 c-83 -17 -209 -77 -285 -136 -32 -25 -65 -46 -72 -46 -19
0 31 -55 73 -81 43 -27 125 -49 181 -49 39 0 50 6 99 53 30 28 65 73 79 99 23
45 103 118 129 118 6 0 20 9 30 20 16 18 16 20 2 20 -10 0 -17 5 -17 10 0 14
-132 9 -219 -8z"/>
</g>
</svg>
