<?xml version="1.0" standalone="no"?>
<!DOCTYPE svg PUBLIC "-//W3C//DTD SVG 20010904//EN"
 "http://www.w3.org/TR/2001/REC-SVG-20010904/DTD/svg10.dtd">
<svg version="1.0" xmlns="http://www.w3.org/2000/svg"
 width="1200.000000pt" height="1600.000000pt" viewBox="0 0 1200.000000 1600.000000"
 preserveAspectRatio="xMidYMid meet">

<g transform="translate(0.000000,1600.000000) scale(0.100000,-0.100000)"
fill="#000000" stroke="none">
<path d="M5812 9534 c-56 -13 -115 -29 -130 -36 -26 -13 -112 -131 -112 -155
0 -7 -14 -28 -30 -46 -29 -34 -30 -37 -22 -97 5 -34 15 -66 23 -71 11 -7 10
-11 -5 -22 -11 -8 -21 -27 -23 -43 -3 -15 -12 -40 -21 -56 -15 -25 -15 -31 1
-81 21 -65 21 -76 3 -113 -13 -26 -29 -102 -28 -129 0 -5 4 -20 7 -32 8 -25 6
-26 -65 -27 l-45 -1 2 -43 c1 -30 11 -60 34 -95 40 -64 99 -167 99 -173 0 -3
-16 -2 -35 2 l-35 6 5 -43 c2 -24 12 -69 21 -99 8 -30 22 -81 30 -113 8 -32
26 -82 39 -112 30 -65 30 -65 5 -65 -28 0 -25 -18 15 -105 22 -47 40 -73 47
-69 7 5 9 -1 5 -17 -15 -62 -19 -119 -8 -119 5 0 24 -13 41 -30 l30 -30 -10
-68 c-6 -37 -12 -85 -14 -107 -2 -22 -9 -69 -16 -105 -11 -56 -10 -76 4 -145
17 -81 28 -99 58 -89 20 6 23 -5 37 -109 12 -87 47 -227 60 -240 20 -20 120
298 112 358 -1 6 -11 9 -21 7 -22 -4 -25 10 -11 54 28 91 86 375 98 477 4 36
11 51 31 66 15 11 38 44 52 75 14 30 30 56 36 56 6 0 21 -23 34 -51 14 -28 37
-61 52 -73 22 -17 29 -32 33 -71 3 -28 10 -59 15 -70 5 -11 14 -58 20 -105 6
-47 20 -121 31 -165 28 -114 39 -157 46 -179 4 -16 1 -18 -21 -12 -14 3 -26 3
-26 -2 0 -24 23 -134 39 -187 10 -33 25 -80 32 -105 8 -25 13 -47 12 -50 0 -3
5 -10 12 -17 20 -18 30 0 54 97 23 96 33 154 40 238 1 8 8 11 20 7 11 -3 25 1
34 10 22 21 40 120 34 180 -30 258 -36 306 -42 314 -7 12 37 57 64 66 21 6 21
21 1 102 -6 22 -4 33 4 36 7 3 20 20 28 39 65 138 67 151 26 140 -11 -3 -19
-1 -16 4 21 35 57 127 67 169 6 28 20 82 31 120 21 75 26 135 11 135 -5 0 -21
-4 -35 -10 -14 -5 -26 -6 -25 -2 0 8 39 75 93 162 27 43 41 78 44 110 l4 48
-55 -2 c-61 -1 -73 5 -60 29 12 22 -4 141 -23 170 -13 21 -13 30 2 88 15 56
16 70 5 90 -7 14 -14 39 -16 57 -1 22 -10 37 -24 45 -19 10 -20 13 -8 23 8 7
18 40 21 76 7 60 6 64 -23 95 -17 18 -31 40 -31 49 0 8 -11 30 -25 48 -14 18
-29 44 -35 59 -12 33 -51 49 -190 81 -150 33 -366 33 -518 -2z"/>
</g>
</svg>
