<?xml version="1.0" encoding="utf-8"?>
<!-- Generator: Adobe Illustrator 16.0.0, SVG Export Plug-In . SVG Version: 6.00 Build 0)  -->
<!DOCTYPE svg PUBLIC "-//W3C//DTD SVG 1.1//EN" "http://www.w3.org/Graphics/SVG/1.1/DTD/svg11.dtd">
<svg version="1.1" xmlns="http://www.w3.org/2000/svg" xmlns:xlink="http://www.w3.org/1999/xlink" x="0px" y="0px" width="1200px"
	 height="1600px" viewBox="0 0 1200 1600" enable-background="new 0 0 1200 1600" xml:space="preserve">
<g id="Layer_2">
	<g transform="translate(0.000000,1600.000000) scale(0.100000,-0.100000)" opacity="0.1">
		<path d="M5920,14002.996c-14.004-1.997-45-7.998-70-13.999s-52.002-11.997-60-13.999c-50-10-155-62.998-214.004-107.002
			c-113.994-85-235.996-251.997-280-382.998c-10-27.002-20-52.998-23.994-58.999c-2.998-6.001-7.998-15-9.004-21.001
			c-17.998-70-25-113.999-30-190c-5-77.002-13.994-113.999-62.998-250c-77.998-212.998-107.998-290.996-120-312.002
			c-47.002-83.994-205-452.998-269.004-627.998c-25.996-72.002-98.994-290-150.996-449.004
			c-27.998-87.998-94.004-325.996-130-475.996c-15-62.998-39.004-160-54.004-214.004c-31.992-122.998-81.992-422.998-95.996-575.996
			c-12.002-142.998-12.998-487.002,0-640c5-62.998,10-134.004,10.996-157.002c5-75,16.006-35,18.008,59.004
			c2.998,193.994,61.992,652.998,91.992,710c4.004,8.994,6.006,25,4.004,37.002c-4.004,21.992,19.004,47.998,30,31.992
			c2.998-5.996,7.002-141.992,9.004-302.998c2.998-282.002,22.998-540.996,45.996-592.998c4.004-10.996,20.996-74.004,35.996-140
			c14.004-65.996,35-157.998,46.006-205c25-110,35.996-444.003,18.994-574.999c-18.994-144.004-40.996-227.002-70-257.002
			c-18.994-22.002-20.996-27.998-7.998-27.998c7.998,0,19.004,5,22.002,10c4.004,5.996,22.002,17.002,42.002,25
			c57.002,24.004,193.994,169.004,230,245c37.002,77.002,70,172.002,78.994,229.004c7.002,45.996,27.002,70,40,48.994
			c5-7.002,18.008-50.996,30-97.998c33.008-130,79.004-279.004,103.008-334.004c11.992-26.992,22.998-55.996,23.994-65
			c1.006-8.994,6.006-21.992,11.006-30c5-6.992,7.998-58.994,6.992-115c-1.992-111.992-5-141.992-15.996-168.994
			c-4.004-10-5-21.006-0.996-24.004c2.998-2.998,0.996-12.002-5-20c-6.006-7.002-8.008-12.998-4.004-12.998
			s2.002-5.996-4.004-14.004c-5.996-7.998-10.996-17.998-8.994-21.992c0.996-5-4.004-19.004-11.006-32.002
			c-6.992-12.998-10-30-6.992-37.002c1.992-7.002,1.992-15.996-2.002-20c-4.004-4.004-7.998-10.996-7.998-15.996
			c-1.006-5-3.008-11.006-4.004-14.004s-2.998-7.998-4.004-12.002c-0.996-5-10-22.998-18.994-40.996
			c-10-17.998-16.006-36.006-12.998-41.006c2.998-3.994-6.006-22.998-19.004-40.996c-20-27.002-22.002-35.996-12.002-49.004
			c7.998-10,9.004-12.998,0-7.998c-5.996,4.004-13.994,4.004-17.002-0.996c-1.992-4.004,6.006-9.004,19.004-10
			c12.998-1.006,25.996,5,29.004,13.994c2.998,9.004,12.998,14.004,20.996,10c7.998-2.998,17.002-0.996,20.996,5
			c3.008,6.006,12.002,8.008,20,5c7.002-2.998,16.006-0.996,19.004,5c4.004,5,10,7.002,15,4.004s10.996-0.996,15,5
			s10.996,7.998,15.996,4.004c13.008-7.002,80,15,101.006,33.994c10,7.998,30.996,15,47.998,14.004c15.996,0,30,2.998,30,7.998
			c0,10,67.998,50.996,92.002,55c23.994,5,60.996,25.996,72.998,42.002c5.996,7.998,17.002,15,25.996,15.996
			c22.002,4.004,113.008,57.998,122.002,74.004c5,7.002,12.002,10.996,17.002,7.998c4.004-2.998,10.996,2.002,14.004,10.996
			c2.998,8.008,10,13.008,15.996,9.004c5-2.998,20,5,32.002,17.002c12.998,12.998,25,22.998,27.998,22.998
			c14.004,0,79.004,47.998,84.004,62.002c3.994,8.994,8.994,12.998,11.992,10c4.004-2.998,15,3.994,25,15.996
			s18.008,19.004,19.004,15c0-2.998,12.002,2.998,25.996,15c75,62.002,113.008,100,111.006,110c-1.006,6.006,5,12.002,12.998,12.002
			s14.004,7.002,12.002,14.004c-1.006,6.992,2.002,10,7.002,6.992c10-5.996,33.994,18.008,25.996,26.006
			c-7.002,5.996,55,67.998,67.002,67.998c5,0,7.002,4.004,3.994,9.004c-2.998,5,10,22.998,29.004,40
			c20,16.992,32.998,30.996,30,30.996s14.004,27.002,39.004,59.004c25,32.998,45.996,63.994,45.996,68.994s7.002,15,15,22.002
			c17.998,15,65,97.998,70.996,125c2.002,10.996,11.006,25,19.004,30.996c9.004,7.002,15,16.006,14.004,20
			c-1.006,5,0,12.002,0.996,17.002c2.998,7.998,2.998,10,14.004,57.002c11.992,52.002,56.992,164.003,70.996,174.999
			c5.996,5.996,17.002,19.004,24.004,30c11.992,19.004,11.992,19.004,5.996-2.002c-2.998-12.002-0.996-23.994,5-27.998
			c5.996-2.998,7.002-12.002,2.998-17.998c-10.996-17.002-12.002-277.001-0.996-282.997c5-3.008,5.996-20,2.002-39.004
			c-3.008-19.004-1.006-35,5-39.004c5.996-3.994,7.998-17.998,5-30.996c-3.008-12.002-1.006-25.996,5-30
			c5.996-2.998,8.994-10.996,5-15.996c-3.008-5-1.006-15,3.994-22.002s7.998-21.006,6.006-32.002c-1.006-10,1.992-25,6.992-32.002
			c6.006-7.002,8.008-17.002,5-22.002c-3.994-5-1.992-12.998,4.004-15.996c5.996-4.004,7.998-15,5-25s-0.996-20.996,5-25
			c5.996-2.998,7.998-10.996,4.004-15.996c-3.008-5,0-16.006,5.996-24.004c7.002-7.998,9.004-15,5-15s-2.002-5.996,4.004-12.998
			c5.996-7.998,7.998-17.002,3.994-20c-2.998-4.004,0-12.998,7.002-22.002c7.002-7.998,9.004-15,5-15s-2.002-7.002,5-15
			s9.004-15,5-15s-2.002-5.996,4.004-12.998c5.996-7.998,7.998-17.002,3.994-20c-2.998-4.004,0-12.998,7.002-22.002
			c7.002-7.998,10-15,5.996-15c-3.994,0,0-10,9.004-22.998c7.998-12.998,12.002-27.002,7.998-30c-2.998-4.004,1.006-15,9.004-24.004
			c22.998-25.996,47.998-80,40.996-85.996c-7.002-7.998,79.004-115,109.004-135c28.994-21.006,50,3.994,52.002,62.002
			c0.996,25,5,48.994,8.994,51.992c4.004,4.004,4.004,18.008,1.006,30c-4.004,15-2.002,24.004,5.996,24.004
			c5.996,0,9.004,4.004,5,9.004c-2.998,5,0,12.998,5.996,16.992c7.002,4.004,9.004,21.006,5,46.006c-5,27.998-2.998,37.002,5,32.002
			c8.008-4.004,9.004,0,4.004,15c-7.002,22.998,10.996,90.996,24.004,90.996c12.998,0,33.994,87.002,25.996,100.996
			c-5.996,8.008-4.004,10,4.004,5c7.998-5,10.996-2.998,10,5c-4.004,20,10.996,59.004,21.992,59.004c5,0,9.004,5.996,8.008,12.998
			c-3.008,27.002,1.992,47.998,10,42.998c5-3.994,12.998,8.008,15.996,26.006c4.004,17.998,10,35,14.004,37.998
			c16.992,14.004,68.994,139.004,58.994,142.002c-7.002,2.998-2.002,17.998,14.004,40.996c12.998,20,27.998,34.004,30.996,31.006
			c10-10,46.006,56.992,42.002,76.992c-2.002,10,0.996,18.008,7.998,16.006c6.006-1.006,11.006,5,12.002,13.994
			c0,15,45,84.003,145,223.007c25,33.994,52.998,76.992,64.004,95.996c85,157.998,106.992,202.998,101.992,207.998
			c-2.998,2.998-0.996,11.006,5,19.004c6.006,7.002,8.008,12.998,4.004,12.998s-2.002,7.002,5,15s12.998,32.002,15,52.002
			c2.002,20.996,15,92.002,29.004,157.998c13.994,65.996,28.994,164.004,31.992,217.998c7.002,96.006,20,131.006,41.006,105
			c13.994-17.002,40.996-188.994,50-317.998c17.002-232.998,2.002-560.996-32.998-707.002c-4.004-14.999-4.004-25.995-1.006-22.997
			c9.004,9.004,84.004,312.001,101.006,409.999c52.998,315,50.996,655.996-8.008,990c-2.998,19.004-7.998,52.998-10.996,75
			c-65.996,474.004-145.996,842.002-250.996,1165c-15,47.002-29.004,92.002-30,100c-2.002,7.998-17.002,49.004-35,90
			c-17.002,40.996-37.002,92.998-44.004,115c-50,152.002-114.004,322.002-197.998,525C7225,12395.994,7130,12604.002,7105,12650.994
			c-17.002,31.006-92.998,232.002-145,384.004c-30,88.999-39.004,128.999-42.998,210c-6.006,108.999-30,191.001-95,320
			c-51.006,102.002-86.006,150-176.006,240c-97.998,97.002-185.996,146.001-321.992,181.001
			c-82.002,20-118.008,23.999-238.008,22.998C6009.003,14007.996,5934.003,14005.999,5920,14002.996z"/>
	</g>
</g>
<g id="Layer_1">
	<g transform="translate(0.000000,1600.000000) scale(0.100000,-0.100000)">
		<path d="M7839.999,10274.998c-79.004,552.002-147.002,874.004-252.998,1205c-17.002,52.002-32.002,100-32.998,105
			c-1.006,5.996-16.006,47.002-34.004,90c-17.998,44.004-37.998,97.998-45,120c-22.998,69.004-62.002,175-115,310
			c-27.998,72.002-52.002,135-54.004,140c-0.996,5.996-11.992,32.002-23.994,59.004c-12.998,27.998-25,60.996-29.004,75
			c-2.998,13.994-10.996,32.998-17.998,40.996c-35.996,42.002-125,244.004-195.996,444.999
			c-28.008,77.002-61.006,167.998-74.004,202.002c-17.998,43.999-25,80.996-25,130c0,128.999-22.002,207.998-102.998,371.997
			c-99.004,200-249.004,343.999-416.006,401.001c-110,37.998-332.998,71.001-343.994,52.998c-2.998-5,5-7.998,15.996-8.999
			c171.006-7.998,279.004-33.999,392.002-91.997c62.998-31.001,147.998-102.002,195.996-162.002
			c105-130,152.002-217.998,199.004-375c27.002-87.002,34.004-127.998,34.004-200c0.996-48.999,2.998-92.002,5.996-95
			s17.998-45,34.004-95c30.996-97.002,141.992-362.001,225.996-539.999c29.004-60,62.998-139.004,77.002-175
			c13.994-35.996,35-90,47.998-120c12.002-30,27.998-72.998,35-95s15.996-44.004,20-50c4.004-5,17.002-39.004,29.004-75
			c10.996-35.996,38.994-119.004,60.996-185s52.002-157.998,65-205s37.002-132.002,54.004-187.998
			c15.996-57.002,31.992-116.006,33.994-130c2.998-15,14.004-62.998,25-107.002c12.002-44.004,35-147.002,52.002-230
			c27.998-140,67.998-315,90-395c12.002-45,55-350.996,70.996-495.996c18.008-174.004-10.996-738.008-35.996-712.002
			c-2.002,2.002-5.996,90.996-9.004,197.998c-5.996,254.004-25,395-106.992,805c-52.002,260.996-112.002,507.002-180,735
			c-74.004,249.004-118.008,354.004-68.008,162.998c16.006-58.994,37.002-142.002,48.008-182.998
			c28.994-110,96.992-402.998,115.996-495c9.004-44.004,20-99.004,25-120.996c5-23.008,15-103.008,20.996-179.004
			c19.004-222.002-5.996-504.004-66.992-750c-33.008-132.998-48.008-172.998-109.004-285c-29.004-52.002-69.004-125.996-90-165
			c-20.996-37.998-57.998-95.996-82.002-130c-128.994-175-285-479.004-317.998-619.004c-2.002-10.996-10.996-40-20-65
			c-25-77.998-54.004-232.998-57.002-307.998l-2.998-72.002l-40,44.004c-110,119.004-204.004,385-250.996,710
			c-22.002,144.004-24.004,425.996-4.004,450c5,5.996,7.002,20,4.004,30.996c-3.008,12.002,20,70,57.998,149.004
			c72.998,150,73.994,154.004,60,140c-5-5-32.002-52.998-57.998-104.004c-27.002-51.992-50-87.998-52.002-78.994
			c-2.002,8.994,5.996,67.002,17.002,130c10.996,62.002,21.992,142.002,25,177.998c3.994,42.002-1.006,24.004-13.008-50
			c-27.998-175-38.994-222.002-91.992-382.998c-27.002-82.998-49.004-156.006-49.004-162.998c0-7.002-5.996-19.004-14.004-27.002
			c-7.998-7.998-33.994-56.006-56.992-107.998c-82.002-183.008-202.002-351.006-388.008-543.008
			c-83.994-85.996-280.996-255.996-296.992-255.996c-3.008,0-23.008-12.998-43.008-27.998
			c-77.998-61.006-337.998-207.002-410.996-230c-40.996-14.004-82.002-27.002-90-30s-17.002-6.006-20-7.002
			c-7.998-2.002-50.996-15-92.998-27.002c-20-5.996-40-8.994-42.002-5.996c-2.998,2.998,5.996,32.002,20,63.994
			c14.004,32.002,44.004,121.006,65,196.006c35,122.002,42.998,165,54.004,267.998c0.996,14.004,5,30.996,8.994,37.002
			c12.002,18.994-20,140.996-68.994,263.994c-39.004,99.004-91.006,279.004-108.008,374.004c-2.998,17.002-8.994,40.996-11.992,55
			c-11.006,40.996-13.008,449.004-3.008,530c5,40.996,20,115,34.004,165c12.998,49.004,22.998,90.996,20.996,92.002
			c-6.992,7.998-60-159.004-76.992-242.002c-24.004-119.004-41.006-310-32.002-365.996c3.994-24.004,7.002-89.004,7.002-144.004
			c0.996-87.998-3.008-112.002-33.008-200c-50-145-96.992-230-167.998-300.996c-57.002-58.008-122.998-105-122.998-87.002
			c0,5,9.004,50.996,19.004,102.998c36.992,185,43.994,282.998,30.996,449.004c-12.002,171.992-30,277.998-65,395.996
			c-12.998,44.004-30.996,125-40,180s-20,114.004-25,130c-5,17.002-12.002,80-15,140c-4.004,60.996-9.004,119.004-10.996,130
			c-9.004,42.002-5,405,5.996,510c10.996,110,42.998,324.004,60,400c5,22.002,12.002,55,15,74.004
			c5.996,33.994,47.998,175,65.996,220c5,12.998,8.008,25.996,5,27.998c-1.992,2.002-10.996-15-18.994-39.004
			c-79.004-218.994-142.998-417.002-152.002-472.998c-4.004-22.002-20-89.004-35-150c-47.998-185.996-90-480-105.996-755
			c-7.002-109.004-9.004-117.998-15-75c-11.006,75-10,520.996,0.996,670c12.002,157.998,42.002,349.004,75,470
			c12.998,50,37.998,152.998,54.004,230c15.996,77.002,38.994,177.998,50.996,225s22.998,95,25,105.996
			c2.998,12.002,17.002,62.002,30.996,110c14.004,49.004,32.002,112.002,39.004,139.004c22.002,80.996,152.998,469.004,170,500.996
			c7.998,16.006,15,34.004,15,41.006s10.996,35.996,24.004,65c13.994,28.994,27.998,67.002,31.992,82.998
			c7.002,27.002,29.004,79.004,101.006,235c120,259.003,225.996,519.003,237.998,582.997c4.004,20,10.996,40,15.996,42.002
			c4.004,2.998,8.008,41.001,7.002,83.999c0,93.999,4.004,117.002,45,241.001c87.998,268.999,259.004,471.001,464.003,547.002
			c37.998,12.998,75.996,25.996,85.996,28.999c50,11.997,67.998,15,132.002,20c37.998,2.998,72.002,7.998,75,11.001
			c5.996,5.996-154.004-2.002-185-10c-10.996-3.003-42.002-11.001-70-17.002c-260.996-63.999-517.998-383.999-564.003-702.002
			c-15-102.998-17.998-146.997-10-141.997c4.004,1.997,2.002-12.002-2.998-31.001c-5.996-18.999-15-32.002-18.994-28.999
			c-5,2.998-6.006-2.002-3.008-10c3.008-8.003-0.996-30-10-48.003c-7.998-17.998-35.996-90.996-60.996-162.998
			c-25-70.996-52.002-142.998-59.004-160c-7.998-15.995-16.992-40.995-20.996-54.999s-35.996-80.996-70-150
			c-77.002-155.996-102.998-214.004-160-365c-25-65.996-50-129.004-55-140c-4.004-10.996-10.996-29.004-12.998-40
			c-2.998-10.996-25-77.998-50-150c-91.006-262.998-101.006-299.004-212.002-730c-69.004-267.002-85.996-345.996-114.004-525
			c-43.994-280-50.996-520-25.996-865.996c7.998-111.006,17.002-208.008,19.004-215c1.992-8.008,6.992-48.008,10-89.004
			c7.998-110.996,37.998-290,47.998-290c5,0,7.002,7.998,3.994,17.998c-2.998,9.004-10,72.998-16.992,142.002
			c-20,209.004,2.998,555,55.996,865c45,262.998,42.002,260,37.002,44.004C4485,9862.996,4510,9595.994,4570,9334.998
			c17.998-77.002,40.996-177.998,52.002-225c13.994-62.002,20.996-139.004,25-285.996c7.998-287.002-19.004-491.006-72.998-541.006
			c-15.166-14.043-23.071-25.874-23.193-33.55c25.181,0.903,50.21,2.549,75.127,5.151c3.794,2.754,7.544,4.99,11.064,6.396
			c60.996,23.008,185.996,143.008,237.998,229.004c35,57.002,104.004,247.998,105.996,290.996c1.006,25,9.004,1.006,29.004-85.996
			c14.004-60,82.998-277.998,122.998-385.996c41.006-112.002,42.998-156.006,11.006-319.004c-17.002-90-79.004-277.002-115-347.998
			c-17.002-32.998-25-60-20-65c8.994-9.004,93.994,13.994,260,68.994c75.996,25,160.996,65,227.998,107.002
			c20.996,12.998,42.998,26.006,47.998,27.998c5.996,2.002,35.996,20,67.998,39.004c216.005,129.004,392.998,265,502.998,387.002
			c145,158.994,207.002,240,198.008,255c-4.004,7.002-2.002,7.998,3.994,3.994c6.006-2.998,16.006,3.008,22.002,14.004
			s7.998,20,5,20c-4.004,0,0,7.002,9.004,15c26.992,27.998,125,220,150,295.996c13.994,41.006,32.998,95,42.998,121.006
			l18.994,47.002L6564.999,8837c0-185,7.002-252.998,50.996-457.002c36.006-170,77.002-295,136.006-419.004
			c30-61.992,55.996-98.994,105-146.992c35.996-35,73.994-64.004,83.994-64.004c16.006,0,17.002,2.998,7.002,19.004
			c-27.998,45.996,67.002,448.994,154.004,650.996c28.994,65.996,128.994,262.998,142.998,280c7.002,7.998,20,32.002,30,52.998
			c9.004,20,20.996,37.002,25.996,37.002s9.004,5,9.004,10c0,10,77.998,127.998,107.002,160.996c7.002,9.004,30,49.004,50.996,90
			c21.006,41.006,42.998,83.008,49.004,94.004c18.994,32.998,73.994,157.002,88.994,199.004
			c42.002,116.992,93.008,387.998,95,500.996c1.006,59.004,1.006,57.998,19.004-45c47.998-277.002,45.996-672.002-5-925
			c-27.002-139.004-27.998-140-7.002-122.002c47.002,42.002,142.002,422.002,172.002,687.002
			C7907.001,9682.996,7899.003,9864.998,7839.999,10274.998z"/>
		<path d="M5692.997,13179.997c0-25,2.002-35,4.004-22.002c2.002,12.002,2.002,32.002,0,45
			C5694.999,13214.997,5692.997,13204.997,5692.997,13179.997z"/>
		<path d="M6462.997,13134.997c0-27.002,2.002-37.998,4.004-22.002c2.002,15,2.002,37.002,0,50
			C6464.999,13174.997,6462.997,13162.995,6462.997,13134.997z"/>
		<path d="M5682.997,13094.997c0-22.002,2.002-30,4.004-17.002c2.002,12.002,2.002,30,0,40
			C5684.003,13126.999,5682.001,13116.999,5682.997,13094.997z"/>
		<path d="M6475.995,13024.997c6.006-62.998,34.004-187.998,40-182.002c2.002,2.002-6.992,57.002-20.996,122.998
			C6477.997,13048.996,6472.001,13066.999,6475.995,13024.997z"/>
		<path d="M5669.999,13029.997c0-10-9.004-57.998-20-105.996c-17.998-78.008-64.003-183.008-130-299.003
			c-12.998-22.002-27.998-49.004-34.004-60c-18.994-34.004-116.992-175.996-180-262.002c-33.994-45-72.998-102.998-87.998-130
			c-15-25.996-38.994-65.996-52.002-87.998c-78.994-127.998-310-575-297.998-575c4.004,0,42.998,70.996,86.006,157.998
			c95.996,190,246.992,456.006,325,572.002c31.992,47.002,91.992,135.996,133.994,197.998
			c42.998,62.002,77.002,116.006,77.002,119.004c0,2.002,7.998,17.002,17.998,30.996c44.004,64.004,125,227.997,142.001,289.999
			c20.996,76.006,35.996,172.002,25.996,172.002C5672.997,13049.997,5669.999,13040.998,5669.999,13029.997z"/>
		<path d="M6520.995,12824.997c0-5,6.006-20.996,14.004-35s14.004-20,14.004-15c0,5.996-6.006,20.996-14.004,35
			S6520.995,12830.993,6520.995,12824.997z"/>
		<path d="M6559.999,12735.993c0-10.996,30-65.995,35.996-65.995c2.002,0-2.998,15-11.992,32.998
			C6564.999,12739.001,6559.999,12746.999,6559.999,12735.993z"/>
		<path d="M6045.78,12515.559c-0.869-8.467-2.5-18.617-4.785-31.557c-5.996-32.002-8.994-59.004-5.996-62.002
			c2.08-2.086,4.98,3.486,8.262,16.006c0.049,9.004,0.576,18.008,1.738,27.006c3.75,29.092,10.283,57.594,16.982,86.035
			C6055.917,12539.422,6050.165,12527.693,6045.78,12515.559z"/>
		<path d="M6609.999,12635.994c0-3.994,25-45,55-90.996c30-45,55-85.996,55-89.004c0-2.998,15-25,32.998-50
			c50-65,134.004-233.994,162.998-327.998c57.002-185,124.004-485.996,146.006-655.996c20-155,22.998-219.004,22.998-517.002
			c-0.996-264.004-5-367.998-17.998-465c-9.004-69.004-19.004-142.998-22.002-165c-5-39.004-5-39.004,9.004,7.998
			c32.998,111.006,50.996,352.002,50.996,667.002c0,362.998-14.004,497.002-80.996,797.998
			c-77.002,345-164.004,552.998-324.004,772.002C6602.997,12654.002,6609.999,12644.998,6609.999,12635.994z"/>
		<path d="M5740.995,12474.002c0-11.006,3.008-14.004,6.006-6.006c2.998,7.002,2.002,16.006-1.006,19.004
			C5742.997,12490.994,5739.999,12484.998,5740.995,12474.002z"/>
		<path d="M5757.997,12249.998c7.002-299.004-33.994-885-72.998-1055c-22.998-100.996-84.003-302.998-100-335
			c-7.998-15.996-15-34.004-15-40c0-10.996-119.004-320-140-365c-17.998-37.002-39.004-105-32.998-105c2.998,0,0.996-5.996-5-12.002
			c-14.004-17.998-92.002-198.994-82.998-193.994c17.998,11.992,172.998,345,165.996,355.996
			c-4.004,5.996,17.998,72.998,49.004,147.998c178.994,445,212.998,601.006,240.996,1107.998
			c17.998,328.008,17.998,451.006,0.996,594.004C5752.997,12454.002,5752.997,12452.996,5757.997,12249.998z"/>
		<path d="M6029.999,12382.996c0-13.994,2.998-22.998,7.002-18.994c10,10,10.996,45.996,0.996,45.996
			C6034.003,12409.998,6029.999,12397.996,6029.999,12382.996z"/>
		<path d="M6039.999,12344.998c-0.996-5-0.996-47.998,0-95c4.004-184.004,72.002-430.996,175-630
			c215.996-420.996,339.004-759.004,409.004-1125c18.994-97.998,32.998-232.002,41.992-390c7.002-125,10-154.004,19.004-162.998
			c7.002-7.002-2.998,215-15.996,347.998c-20,207.998-112.002,595-178.008,745c-5,10.996-36.992,87.998-71.992,170
			c-34.004,82.998-89.004,205.996-122.002,275c-32.002,69.004-67.002,149.004-77.002,177.998c-10.996,29.004-25.996,65-34.004,80
			c-52.998,94.004-122.998,360-135,510C6047.001,12307,6042.001,12350.994,6039.999,12344.998z"/>
		<path d="M7349.999,11504.998c0-5,5-17.002,10-25s10-10,10-5c0,5.996-5,17.002-10,25S7349.999,11510.994,7349.999,11504.998z"/>
		<path d="M4850,11479.002c-7.002-11.006-10-23.008-7.002-25c2.002-2.002,9.004,6.992,15,20.996
			C4872.001,11504.998,4865,11507.996,4850,11479.002z"/>
		<path d="M4825.996,11422.996c-5.996-13.994-5-15,5-5.996c7.002,7.002,10,15,7.002,17.998S4829.003,11432.996,4825.996,11422.996z"
			/>
		<path d="M7380.995,11414.998c1.006-19.004,18.008-50.996,18.008-35c0,7.998-4.004,22.002-9.004,30
			S7380.995,11420.994,7380.995,11414.998z"/>
		<path d="M4795.996,11364.998c-8.994-25.996-6.992-32.002,5-12.002c6.006,10,9.004,21.006,6.006,22.998
			C4805,11379.002,4800,11374.002,4795.996,11364.998z"/>
		<path d="M7400.995,11349.998c0-7.998,4.004-22.002,9.004-30c12.002-17.998,12.002-2.002,0,25
			C7404.003,11357.996,7400.995,11359.998,7400.995,11349.998z"/>
		<path d="M4745.996,11252.996c-5.996-13.994-5-15,5-5.996c7.002,7.002,10,15,7.002,17.998S4749.003,11262.996,4745.996,11252.996z"
			/>
		<path d="M7027.001,10199.998c-2.998-10.996-1.006-20,3.994-20s9.004,9.004,9.004,20s-2.002,20-4.004,20
			C7034.003,10219.998,7029.999,10210.994,7027.001,10199.998z"/>
		<path d="M6992.001,10037.996c-17.998-72.002-30-132.998-27.998-135c1.992-2.002,15.996,45,30.996,104.004
			c29.004,117.002,37.998,162.998,32.002,162.998C7024.999,10169.998,7009.003,10110.994,6992.001,10037.996z"/>
		<path d="M5285,10119.002c-4.004-6.006-5-12.002-2.002-15c2.002-3.008,7.002,1.992,10,10.996
			C5300,10132,5294.003,10134.998,5285,10119.002z"/>
		<path d="M5262.998,10074.998c-2.998-9.004-2.998-17.998-0.996-20.996c2.998-3.008,7.998,3.994,10.996,15.996
			C5279.003,10092.996,5272.001,10097,5262.998,10074.998z"/>
		<path d="M6930.995,9822.996c-0.996-5.996-3.994-20-6.992-30c-5-17.002-5-17.002,5.996,0c5.996,10,9.004,22.998,5.996,30
			C6932.997,9832,6930.995,9832,6930.995,9822.996z"/>
		<path d="M6672.001,9579.998c0-14.004,2.002-19.004,5-12.002c2.002,6.006,2.002,17.998,0,25
			C6674.003,9599.002,6672.001,9594.002,6672.001,9579.998z"/>
		<path d="M6770.995,9422.996c-10-25.996-10-27.002,4.004-8.994c7.998,10.996,15,22.998,15,27.998
			C6789.999,9457,6782.997,9449.998,6770.995,9422.996z"/>
	</g>
</g>
</svg>
