<?xml version="1.0" encoding="utf-8"?>
<!-- Generator: Adobe Illustrator 16.0.0, SVG Export Plug-In . SVG Version: 6.00 Build 0)  -->
<!DOCTYPE svg PUBLIC "-//W3C//DTD SVG 1.1//EN" "http://www.w3.org/Graphics/SVG/1.1/DTD/svg11.dtd">
<svg version="1.1" id="Layer_1" xmlns="http://www.w3.org/2000/svg" xmlns:xlink="http://www.w3.org/1999/xlink" x="0px" y="0px"
	 width="1200px" height="1600px" viewBox="0 0 1200 1600" enable-background="new 0 0 1200 1600" xml:space="preserve">
<g transform="translate(0.000000,1600.000000) scale(0.100000,-0.100000)" opacity="0.8">
	<path d="M5522.5,13208.372c-47.998-16.001-96.504-80.376-109.502-115.376c-33.994-92.002-45-148.994-38.994-197.002
		c7.998-58.994,32.5-148.994,83.496-200.996c40-40.996,155.498-60,206.504-50.996c16.992,2.998,41.992,7.998,55,10.996
		c13.994,2.002,46.992,25.996,73.994,52.002c117.002,115,124.004,228.994,21.006,346.997c-77.002,88.003-88.008,98.003-133.008,120
		C5620.996,13204.998,5567.5,13222.371,5522.5,13208.372z"/>
	<path d="M6519.003,13194.998c-62.002-22.002-116.006-62.002-147.002-107.998c-17.002-24.004-37.998-49.004-47.002-57.002
		c-25-20.996-45.996-67.002-55-122.998c-7.002-42.002-4.004-61.006,10.996-97.998c20-45,113.008-148.008,140-153.008
		c129.004-25,216.68-25,290.674,49.004c84.004,82.998,91.475,203.296,77.354,294.951c-4.375,12.559-27.832,75.596-65.684,122.549
		c-31.465,39.023-75.83,63.33-100.342,71.499C6569.003,13212.996,6565.996,13212.996,6519.003,13194.998z"/>
</g>
</svg>
