<?xml version="1.0" encoding="utf-8"?>
<!-- Generator: Adobe Illustrator 16.0.0, SVG Export Plug-In . SVG Version: 6.00 Build 0)  -->
<!DOCTYPE svg PUBLIC "-//W3C//DTD SVG 1.1//EN" "http://www.w3.org/Graphics/SVG/1.1/DTD/svg11.dtd">
<svg version="1.1" xmlns="http://www.w3.org/2000/svg" xmlns:xlink="http://www.w3.org/1999/xlink" x="0px" y="0px" width="1200px"
	 height="1600px" viewBox="0 0 1200 1600" enable-background="new 0 0 1200 1600" xml:space="preserve">
<g id="Layer_2">
	<g transform="translate(0.000000,1600.000000) scale(0.100000,-0.100000)" opacity="0.8">
		<path d="M5522.5,13208.372c-47.998-16.001-96.504-80.376-109.502-115.376c-33.994-92.002-45-148.994-38.994-197.002
			c7.998-58.994,32.5-148.994,83.496-200.996c40-40.996,155.498-60,206.504-50.996c16.992,2.998,41.992,7.998,55,10.996
			c13.994,2.002,46.992,25.996,73.994,52.002c117.002,115,124.004,228.994,21.006,346.997c-77.002,88.003-88.008,98.003-133.008,120
			C5620.996,13204.998,5567.5,13222.371,5522.5,13208.372z"/>
		<path d="M6519.003,13194.998c-62.002-22.002-116.006-62.002-147.002-107.998c-17.002-24.004-37.998-49.004-47.002-57.002
			c-25-20.996-45.996-67.002-55-122.998c-7.002-42.002-4.004-61.006,10.996-97.998c20-45,113.008-148.008,140-153.008
			c129.004-25,216.68-25,290.674,49.004c84.004,82.998,91.475,203.296,77.354,294.951c-4.375,12.559-27.832,75.596-65.684,122.549
			c-31.465,39.023-75.83,63.33-100.342,71.499C6569.003,13212.996,6565.996,13212.996,6519.003,13194.998z"/>
	</g>
</g>
<g id="Layer_1">
	<g transform="translate(0.000000,1600.000000) scale(0.100000,-0.100000)">
		<path d="M5727.001,13276.999l-39.004-12.002l34.004-30c17.998-17.002,45.996-47.002,60.996-67.002
			c60-77.998,84.004-100,102.998-95.996c13.008,1.997,19.004,11.997,19.004,27.998c0,13.999,5.996,31.001,12.998,37.998
			c21.006,23.003,15,86.001-10,109.004C5857.997,13291.999,5804.999,13300.998,5727.001,13276.999z M5859.003,13244.997
			c15.996-7.998,33.994-27.998,40-46.001c15-42.998,13.994-48.999-7.002-48.999c-10,0-22.002-3.999-27.002-8.999
			c-5.996-6.001-30.996,11.997-65,48.999c-39.004,42.998-50.996,61.001-40,63.999
			C5792.997,13262.995,5832.001,13258.996,5859.003,13244.997z"/>
		<path d="M6284.003,13275.998c-58.008-26.001-81.006-87.002-49.004-132.002c7.998-11.997,12.998-31.001,10-42.998
			c-2.002-13.003,2.998-25,15.996-32.002c16.006-7.998,24.004-5,43.008,18.003c12.998,15,52.998,61.997,88.994,105
			c74.004,85,74.004,85-22.002,93.999C6334.003,13288.996,6304.003,13285.998,6284.003,13275.998z M6394.003,13253.996
			c10.996-3.999,5.996-15-24.004-46.997c-20.996-23.003-50-55-64.004-72.002c-20.996-25-23.994-27.002-20-7.998
			c5,16.997,1.006,21.997-17.998,25c-22.002,2.998-23.994,5.996-15.996,35.996
			C6265.995,13239.997,6339.999,13274.997,6394.003,13253.996z"/>
		<path d="M5527.001,13215.998c-57.998-13.003-67.002-18.999-112.002-88.003c-30-45-65-167.002-65-223.994
			c0-37.002-2.998-43.008-27.002-50l-27.998-7.002l30-6.006c17.002-3.994,30.996-12.998,32.998-23.994
			c2.998-14.004-3.994-17.002-32.998-17.002c-60.996,0-40-29.004,60-82.998c140-74.003,155.996-79.999,222.002-84.999
			c92.001-6.006,155,17.998,218.994,84.999c29.004,30,62.002,73.994,73.008,97.998l20.996,45l-20.996,52.002
			c-25,65-83.008,171.997-117.002,215c-24.004,31.997-122.002,85.996-172.001,95.996
			C5595.996,13225.998,5559.003,13221.999,5527.001,13215.998z M5670.995,13169.997c67.002-33.999,97.002-68.999,139.004-157.998
			c22.998-47.998,45-95,50.996-104.004c5-10,9.004-35,9.004-55c0-63.994-85-165.995-159.004-190.995
			c-21.943-7.838-134.335-26.344-210.576,18.828c-69.668,41.273-104.253,144.911-111.416,171.171
			c-16.006,60-7.002,163.994,18.994,213.999c9.966,19.458,37.778,95.464,92.939,118.999
			C5559.858,13210.144,5646.728,13181.872,5670.995,13169.997z"/>
		<path d="M6530.995,13218.996c-50.996-10-115-46.001-152.998-86.001c-35-35.996-137.998-235.996-137.998-267.002
			c0-35.996,27.002-81.992,87.002-145.996c45-49.003,63.994-62.001,110.996-75.995c82.002-24.004,199.004-10,247.002,28.994
			c5.996,4.004,42.998,25,84.004,44.999c40.996,20,80.996,47.002,88.994,60c14.004,21.006,12.998,22.002-22.002,22.002
			c-25,0-35.996,4.004-35.996,15c0,9.004,9.004,15,22.998,15c37.002,0,40,12.002,7.002,25.996c-27.998,12.002-30,17.002-30,62.002
			c0,108.003-72.002,262.002-134.004,287.002C6619.003,13223.996,6579.003,13227.995,6530.995,13218.996z M6704.062,13134.685
			c72.998-61.001,100.771-188.154,70.771-290.156c-12.998-47.998-12.041-67.954-65.039-119.946
			c-21.074-21.074-59.17-64.896-175.107-70.209c-72.861-3.34-147.422,33.223-156.855,43.154
			c-95.996,102.001-102.002,149.999-33.994,287.997c25,49.004,52.998,98.003,62.998,110.005c25.996,30,80,65,122.002,80
			c21.113,7.632,63.701,22.222,94.912,12.905C6662.011,13177.009,6692.499,13144.597,6704.062,13134.685z"/>
		<path d="M5939.999,13063.996c-12.002-31.997-12.002-33.999,0-33.999c5.996,0,0.469,3.75,0.469,8.75
			c-4.004,22.002,13.032,53.926,30.313,29.844c4.844-7.617,12.217-10.596,0.215,4.404
			C5952.997,13094.997,5950.995,13094.997,5939.999,13063.996z"/>
		<path d="M5981.249,13029.997c7.251-51.46-20.566-18.823-22.031-17.656c-17.969,27.5-11.221,10.654,0.781-11.348
			c10.996-21.992,12.998-21.992,22.002-6.992c5,8.994,6.729,23.799,5.41,31.309
			C5981.093,13061.247,5975.448,13071.169,5981.249,13029.997z"/>
		<path d="M6211.444,13063.996c12.07-31.997,12.07-33.999,0-33.999c-6.016,0-0.469,3.75-0.469,8.75
			c4.023,22.002-13.086,53.926-30.469,29.844c-4.863-7.617-12.266-10.596-0.205,4.404
			C6198.388,13094.997,6200.399,13094.997,6211.444,13063.996z"/>
		<path d="M6169.999,13029.997c-7.285-51.46,20.664-18.823,22.139-17.656c18.057,27.5,11.279,10.654-0.791-11.348
			c-11.045-21.992-13.057-21.992-22.109-6.992c-5.02,8.994-6.758,23.799-5.439,31.309
			C6170.155,13061.247,6175.829,13071.169,6169.999,13029.997z"/>
		<path d="M6444.296,12666.473"/>
	</g>
</g>
<g id="Layer_3">
	<g transform="translate(0.000000,1600.000000) scale(0.100000,-0.100000)">
		<path fill="#FFFFFF" d="M5597.997,13000.992c-60.996-47.998-60.996-140.996,0-190.996c67.002-55,139.004-50,202.002,15
			l32.998,34.004l-17.002,40c-10,20.996-35,55.996-55.996,75.996C5709.999,13023.995,5640.995,13033.995,5597.997,13000.992z"/>
		<path fill="#FFFFFF" d="M6434.999,13009.996c-30.996-12.002-82.002-70.996-99.004-112.002c-15-35.996-15-37.998,11.006-68.994
			c30.996-36.006,77.998-59.004,122.002-59.004c37.998,0,110.996,55,123.994,92.998c24.004,72.998-30,158.003-100,156.001
			C6472.001,13018.995,6445.995,13014.996,6434.999,13009.996z"/>
	</g>
</g>
</svg>
