<?xml version="1.0" standalone="no"?>
<!DOCTYPE svg PUBLIC "-//W3C//DTD SVG 20010904//EN"
 "http://www.w3.org/TR/2001/REC-SVG-20010904/DTD/svg10.dtd">
<svg version="1.0" xmlns="http://www.w3.org/2000/svg"
 width="1200.000000pt" height="1600.000000pt" viewBox="0 0 1200.000000 1600.000000"
 preserveAspectRatio="xMidYMid meet">

<g transform="translate(0.000000,1600.000000) scale(0.100000,-0.100000)"
fill="#000000" stroke="none">
<path d="M6020 12249 c-108 -12 -177 -68 -206 -165 -12 -43 -13 -62 -5 -86 6
-17 11 -47 11 -66 0 -20 5 -62 12 -93 14 -67 -1 -134 -34 -158 -42 -29 -145
-79 -213 -104 -38 -14 -94 -37 -122 -52 -44 -23 -53 -32 -53 -55 0 -15 9 -35
20 -45 30 -27 209 -33 317 -11 44 9 91 16 104 16 27 0 89 -21 134 -44 42 -22
141 -21 185 2 82 43 112 46 221 27 131 -23 298 -18 329 10 11 10 20 30 20 45
0 24 -9 32 -62 59 -35 17 -99 44 -143 61 -44 17 -107 46 -140 64 -53 29 -61
38 -74 80 -12 39 -13 57 -3 105 7 31 12 74 12 93 0 20 4 48 10 63 13 33 -4
113 -33 157 -51 74 -160 111 -287 97z"/>
</g>
</svg>
