<?xml version="1.0" standalone="no"?>
<!DOCTYPE svg PUBLIC "-//W3C//DTD SVG 20010904//EN"
 "http://www.w3.org/TR/2001/REC-SVG-20010904/DTD/svg10.dtd">
<svg version="1.0" xmlns="http://www.w3.org/2000/svg"
 width="1200.000000pt" height="1600.000000pt" viewBox="0 0 1200.000000 1600.000000"
 preserveAspectRatio="xMidYMid meet">

<g transform="translate(0.000000,1600.000000) scale(0.100000,-0.100000)"
fill="#000000" stroke="none">
<path d="M6320 12253 c-8 -3 -26 -16 -40 -28 -40 -37 -125 -48 -187 -24 -23 8
-30 7 -41 -8 -31 -42 26 -210 85 -250 59 -39 140 -65 185 -58 91 14 105 23
134 81 24 48 26 63 22 132 -5 88 -22 122 -73 146 -34 16 -58 19 -85 9z"/>
</g>
</svg>
