<svg version="1.0" xmlns="http://www.w3.org/2000/svg"
 width="1200.000000pt" height="1600.000000pt" viewBox="0 0 1200.000000 1600.000000"
 preserveAspectRatio="xMidYMid meet">

<g transform="translate(0.000000,1600.000000) scale(0.100000,-0.100000)"
fill="#000000" stroke="none">
<path d="M4233 9792 c-18 -11 -38 -111 -25 -124 16 -16 52 1 53 25 3 70 -8
111 -28 99z"/>
<path d="M7904 9766 c-3 -7 -4 -33 -2 -57 2 -37 7 -45 26 -47 19 -3 22 1 22
32 0 63 -31 112 -46 72z"/>
<path d="M8000 9684 c0 -14 4 -23 10 -19 6 3 10 15 10 26 0 10 -4 19 -10 19
-5 0 -10 -12 -10 -26z"/>
<path d="M4140 9680 c0 -11 2 -20 4 -20 2 0 6 9 9 20 3 11 1 20 -4 20 -5 0 -9
-9 -9 -20z"/>
<path d="M4650 9513 c-160 -25 -165 -26 -143 -34 26 -9 232 16 247 31 10 10
-48 12 -104 3z"/>
<path d="M7400 9511 c0 -11 54 -20 165 -27 109 -6 98 9 -18 25 -95 13 -147 14
-147 2z"/>
<path d="M4270 9470 c-34 -7 -34 -7 12 -9 26 0 50 4 53 9 7 11 -12 11 -65 0z"/>
<path d="M7863 9463 c9 -2 23 -2 30 0 6 3 -1 5 -18 5 -16 0 -22 -2 -12 -5z"/>
<path d="M4157 9399 c-193 -39 -427 -141 -527 -229 -14 -12 -37 -28 -51 -36
-15 -7 -29 -20 -32 -29 -6 -15 4 -21 17 -8 3 4 14 8 24 10 9 1 60 25 112 52
185 98 241 122 360 156 128 37 275 57 325 44 17 -4 73 -10 124 -13 82 -4 102
-2 144 16 66 29 30 56 -51 37 -18 -4 -47 -3 -65 1 -69 18 -291 17 -380 -1z"/>
<path d="M7740 9408 c-166 -9 -209 -10 -226 -7 -22 4 -54 -2 -54 -10 0 -5 19
-18 43 -29 38 -18 53 -19 162 -11 66 5 140 9 165 8 154 -1 346 -58 549 -162
178 -91 233 -114 224 -91 -3 8 -17 21 -32 29 -14 7 -38 25 -52 38 -83 79 -351
193 -534 228 -27 5 -57 11 -65 12 -8 2 -89 0 -180 -5z"/>
<path d="M3760 9360 c-8 -5 -15 -13 -15 -19 0 -5 -11 -18 -25 -29 -14 -11 -22
-23 -18 -27 4 -4 21 4 37 18 17 14 44 31 61 38 16 8 30 17 30 21 0 11 -52 10
-70 -2z"/>
<path d="M8320 9361 c0 -9 39 -23 73 -26 21 -3 23 21 1 29 -24 9 -74 7 -74 -3z"/>
<path d="M8420 9306 c0 -20 19 -31 32 -18 7 7 3 14 -11 21 -17 10 -21 9 -21
-3z"/>
<path d="M4180 9214 c-36 -7 -81 -13 -102 -14 -20 0 -65 -13 -100 -28 -34 -16
-81 -35 -103 -42 -102 -32 -367 -158 -360 -171 3 -3 -14 -5 -37 -4 -41 3 -45
0 -162 -115 -134 -131 -344 -309 -421 -357 -27 -17 -89 -46 -136 -64 -72 -28
-90 -40 -105 -67 -31 -58 -164 -174 -239 -210 -39 -19 -77 -38 -85 -43 -8 -5
-29 -16 -46 -24 -17 -7 -61 -48 -98 -90 -57 -63 -64 -74 -40 -64 16 5 65 13
110 16 77 5 86 4 145 -25 80 -39 147 -54 185 -43 61 19 151 64 192 98 40 33
45 34 60 19 34 -34 -40 -137 -193 -266 -67 -57 -81 -76 -116 -149 -40 -87 -73
-185 -94 -284 l-13 -57 43 39 c54 50 107 76 168 85 110 16 158 35 213 84 30
27 68 70 86 96 21 32 45 54 72 66 43 18 126 100 236 233 63 75 82 88 96 66 8
-13 -28 -131 -62 -204 -12 -27 -37 -86 -53 -130 -17 -44 -49 -116 -72 -159
-22 -44 -45 -90 -50 -103 l-9 -24 33 24 c55 42 110 65 172 72 33 4 77 14 97
22 60 24 128 107 160 195 16 41 46 99 67 129 22 30 62 87 88 128 26 41 62 90
79 110 65 75 165 227 175 266 25 97 44 140 96 212 31 43 56 82 57 88 1 5 5 15
9 22 4 6 3 14 -3 18 -5 3 -9 23 -9 43 3 63 -21 120 -65 158 -22 19 -43 34 -47
34 -4 0 -9 6 -12 14 -10 26 78 12 125 -20 82 -55 112 -89 104 -117 -3 -14 -15
-29 -26 -32 -11 -3 -20 -14 -20 -23 1 -26 59 45 152 183 104 155 106 157 138
150 23 -5 23 -4 7 9 -16 12 -16 14 -1 20 8 3 24 6 35 6 34 0 20 16 -38 42 -69
31 -123 41 -218 40 -124 -1 -386 -52 -457 -88 -16 -8 -73 -24 -126 -34 -53
-10 -109 -21 -124 -25 -19 -5 -28 -3 -28 5 0 6 5 8 10 5 6 -3 10 -1 10 5 0 6
4 9 9 6 5 -3 14 1 21 9 7 8 21 15 31 15 9 0 25 7 33 15 9 9 21 15 28 14 7 -1
20 0 28 4 33 13 356 100 370 100 8 0 20 4 27 9 7 5 21 7 33 3 11 -4 20 -2 20
4 0 7 32 10 85 10 46 0 89 2 94 5 5 4 13 1 16 -5 5 -7 27 -8 66 -4 33 4 65 3
72 -2 17 -13 81 -17 73 -5 -3 5 1 15 9 22 17 14 21 55 4 44 -17 -10 -91 -6
-102 5 -6 6 -24 11 -40 11 -15 0 -36 4 -45 9 -32 16 -117 19 -182 5z m-736
-283 c-10 -10 -21 -16 -24 -14 -3 3 4 11 14 19 28 20 33 17 10 -5z"/>
<path d="M7855 9223 c-16 -2 -66 -15 -109 -29 -75 -24 -99 -26 -136 -10 -8 3
-21 2 -28 -3 -12 -7 -11 -14 3 -41 16 -31 19 -32 58 -25 67 12 379 16 392 5 7
-5 14 -7 17 -4 3 2 41 -5 84 -17 44 -11 102 -27 129 -34 28 -6 79 -22 115 -34
111 -37 123 -41 133 -34 5 3 12 1 16 -4 3 -6 33 -25 66 -42 33 -18 49 -30 35
-27 -14 3 -65 13 -115 22 -49 8 -110 24 -135 34 -64 26 -237 66 -365 85 -92
13 -125 14 -200 4 -49 -6 -101 -19 -115 -28 -14 -9 -36 -21 -50 -28 l-25 -11
33 -7 c22 -5 31 -12 28 -21 -3 -9 2 -14 12 -14 25 0 56 -37 146 -173 70 -105
95 -130 96 -94 1 37 148 142 191 135 36 -5 31 -20 -21 -63 -29 -25 -50 -51
-54 -70 -14 -61 -22 -147 -14 -151 5 -3 6 -10 3 -15 -4 -5 19 -43 49 -85 50
-69 96 -174 96 -220 0 -19 135 -219 174 -257 19 -17 43 -50 54 -72 11 -23 48
-77 81 -121 35 -47 74 -114 92 -159 39 -96 77 -154 128 -194 32 -26 54 -33
123 -42 78 -10 119 -26 191 -73 l28 -19 -10 26 c-5 14 -23 49 -40 79 -16 29
-45 94 -64 144 -19 50 -46 113 -59 140 -14 27 -35 82 -47 123 -39 130 -12 134
90 14 114 -132 176 -192 219 -209 27 -11 48 -30 70 -64 38 -59 119 -137 163
-155 17 -7 68 -19 112 -26 94 -15 140 -35 194 -87 l41 -39 -6 41 c-10 64 -61
218 -100 300 -31 64 -51 88 -153 184 -132 123 -177 190 -150 218 15 14 21 13
70 -19 110 -70 138 -80 219 -80 66 0 82 4 135 32 58 32 63 33 145 28 47 -3 98
-10 113 -16 l28 -11 -19 27 c-49 69 -139 140 -237 188 -80 39 -116 63 -178
124 -43 42 -87 90 -98 107 -11 18 -32 35 -47 39 -15 4 -72 29 -127 56 -109 54
-231 149 -430 333 -60 57 -113 103 -118 104 -4 1 -17 11 -29 22 -12 11 -28 18
-36 15 -8 -3 -10 0 -6 7 5 8 2 9 -9 5 -10 -4 -16 -2 -14 4 3 14 -71 41 -86 32
-6 -3 -7 -1 -3 6 9 13 -142 87 -299 146 -55 20 -110 46 -124 56 -16 13 -40 19
-75 19 -28 0 -78 7 -111 15 -60 14 -75 15 -130 8z"/>
<path d="M7960 8628 c11 -12 22 -19 25 -16 7 7 -23 38 -36 38 -5 0 -1 -10 11
-22z"/>
</g>
</svg>
