<?xml version="1.0" encoding="utf-8"?>
<!-- Generator: Adobe Illustrator 16.0.0, SVG Export Plug-In . SVG Version: 6.00 Build 0)  -->
<!DOCTYPE svg PUBLIC "-//W3C//DTD SVG 1.1//EN" "http://www.w3.org/Graphics/SVG/1.1/DTD/svg11.dtd">
<svg version="1.1" id="Layer_1" xmlns="http://www.w3.org/2000/svg" xmlns:xlink="http://www.w3.org/1999/xlink" x="0px" y="0px"
	 width="1200px" height="1600px" viewBox="0 0 1200 1600" enable-background="new 0 0 1200 1600" xml:space="preserve">
<path d="M658.9,357.9c-1.2-2.4-2-2.4-4.101,0.1c-1,1.1-3,2.2-4.5,2.6c-1.5,0.301-4.8,1.2-7.3,2c-5.4,1.601-12.6,3.2-19.7,4.4
	c-2.8,0.5-7,1.8-9.399,2.9c-5.4,2.6-7.4,2.6-12.9,0c-2.986-1.457-10.106-3.125-13.1-3.344c-2.86-0.786-6.885-1.729-8.801-2.057
	c-1.8-0.3-4.699-1.2-6.5-1.9c-1.699-0.699-4.8-1.6-6.899-2c-2-0.399-4.3-1.6-5-2.6c-1.2-2-2.8-2.5-4-1.3c-2,1.899-0.5,4.3,3.399,5.3
	c3.672,1.038,19.6,4.081,27.001,5.267c1.089,0.625,4.097,1.963,7.399,3.233c3.8,1.5,8.3,3.4,10.1,4.2c3,1.5,3.5,1.399,9.5-1.5
	c10-4.7,17.2-7,25.101-8.101c10.1-1.5,18.1-3.199,19.5-4.399C659.6,360.1,659.7,359.2,658.9,357.9z"/>
</svg>
