<svg version="1.0" xmlns="http://www.w3.org/2000/svg"
 width="1200.000000pt" height="1600.000000pt" viewBox="0 0 1200.000000 1600.000000"
 preserveAspectRatio="xMidYMid meet">

<g transform="translate(0.000000,1600.000000) scale(0.100000,-0.100000)"
fill="#000000" stroke="none">
<path d="M3910 14120 c-36 -5 -102 -20 -147 -35 -71 -23 -89 -34 -131 -78 -27
-29 -89 -94 -138 -144 -48 -51 -81 -93 -73 -93 9 -1 4 -9 -13 -24 -16 -15 -23
-27 -17 -33 6 -6 2 -19 -10 -34 -20 -26 -121 -198 -121 -207 0 -3 8 -15 18
-26 19 -21 18 -23 -42 -136 -55 -104 -107 -234 -106 -268 0 -8 -38 -127 -85
-265 -77 -229 -101 -298 -134 -379 -6 -16 -9 -28 -6 -28 3 0 -11 -36 -45 -115
-15 -35 -70 -191 -70 -199 0 -4 -8 -20 -19 -34 -10 -15 -22 -43 -26 -62 -4
-19 -10 -39 -14 -45 -4 -5 -25 -53 -46 -105 -21 -52 -80 -167 -130 -255 -95
-166 -179 -335 -191 -381 -7 -26 -6 -27 22 -19 65 16 129 1 119 -28 -2 -7 -14
-100 -26 -207 -31 -280 -22 -564 30 -880 5 -30 14 -89 21 -130 6 -41 18 -109
26 -150 8 -41 23 -129 35 -195 11 -66 34 -186 50 -268 16 -81 32 -195 34 -253
5 -110 37 -411 56 -526 15 -95 27 -100 78 -33 23 31 46 53 52 50 15 -10 33
-61 64 -180 64 -250 138 -473 233 -705 17 -41 47 -118 67 -170 20 -52 42 -108
50 -125 27 -64 108 -252 128 -300 12 -27 28 -59 38 -70 9 -11 31 -49 49 -85
17 -36 38 -72 46 -81 8 -8 14 -19 14 -22 0 -10 66 -104 113 -160 64 -77 64
-76 87 258 14 206 18 235 30 250 7 8 6 22 -1 44 -10 27 -9 35 5 49 16 16 19
15 36 -8 49 -65 50 -65 74 -28 33 50 77 155 98 233 22 85 58 350 59 443 0 37
6 112 12 167 11 89 15 101 35 110 13 6 20 16 17 24 -3 8 2 22 11 33 24 26 34
109 34 294 0 160 0 161 26 185 57 54 107 217 121 394 6 90 21 127 41 102 5 -7
24 -46 43 -87 60 -134 132 -254 184 -307 28 -29 56 -53 62 -53 5 0 24 23 42
51 36 59 48 56 82 -17 23 -49 85 -124 103 -124 54 0 235 232 395 507 45 79 87
145 92 149 5 3 21 -1 34 -10 24 -16 25 -15 31 11 11 44 56 135 85 173 22 28
33 66 58 190 31 156 94 411 106 430 13 22 32 -10 33 -55 2 -88 54 -228 82
-223 35 7 70 748 36 748 -8 0 -21 3 -30 6 -12 5 -16 -1 -16 -24 0 -16 -7 -35
-14 -42 -8 -6 -16 -33 -18 -58 -2 -34 -7 -47 -18 -47 -17 0 -17 6 -5 177 l8
107 39 -1 c48 0 99 43 132 112 19 40 21 65 23 220 2 181 -1 208 -45 340 -46
140 -107 237 -172 270 -21 11 -44 29 -50 40 -11 20 -123 165 -291 375 -44 55
-101 134 -127 175 -25 41 -69 107 -97 145 -172 235 -267 413 -363 675 -17 47
-38 112 -47 145 -9 33 -28 92 -42 132 -13 39 -28 96 -33 125 -14 91 -68 331
-83 374 -45 123 -105 202 -182 239 -106 50 -335 81 -475 65z"/>
<path d="M8095 14124 c-178 -20 -272 -42 -345 -79 -87 -45 -171 -203 -200
-375 -30 -183 -113 -487 -189 -690 -60 -161 -176 -379 -293 -548 -62 -90 -140
-204 -172 -253 -33 -50 -96 -134 -140 -186 -45 -53 -116 -142 -158 -197 -43
-56 -88 -114 -100 -129 -12 -16 -39 -37 -60 -48 -57 -29 -119 -132 -161 -269
-35 -116 -46 -185 -46 -315 -1 -121 12 -201 39 -256 22 -43 95 -94 131 -91
l26 2 7 -107 c12 -181 12 -178 -4 -178 -11 0 -16 13 -18 47 -2 25 -10 52 -18
58 -7 7 -14 25 -14 41 0 30 -13 36 -39 20 -20 -13 -23 -295 -5 -481 7 -80 15
-172 17 -205 2 -47 6 -61 20 -63 10 -2 21 6 27 20 5 13 14 30 19 38 15 25 41
120 41 152 0 32 24 65 35 48 12 -19 76 -280 102 -415 22 -117 43 -180 63 -195
15 -10 69 -128 75 -163 7 -33 9 -36 20 -21 7 10 19 18 28 20 24 3 27 -2 129
-179 113 -195 273 -410 338 -453 38 -25 41 -26 65 -10 14 9 38 40 53 68 37 69
66 103 81 94 6 -4 23 -25 37 -47 l25 -40 30 18 c37 22 92 93 147 190 43 77
112 224 112 241 0 5 6 15 14 21 21 18 28 0 31 -81 9 -193 66 -388 128 -438 17
-14 19 -31 19 -170 0 -178 11 -276 34 -302 9 -10 14 -26 11 -38 -3 -13 0 -20
9 -20 32 0 42 -44 54 -220 23 -355 54 -519 125 -668 54 -110 66 -117 100 -54
21 40 33 44 49 19 7 -11 7 -26 -1 -46 -8 -23 -8 -31 2 -34 8 -3 14 -40 18
-104 14 -214 28 -390 33 -420 11 -68 52 -34 159 131 31 48 69 111 83 139 15
29 36 66 48 82 11 17 27 46 34 65 7 19 33 80 58 135 24 55 77 186 118 290 41
105 84 212 95 238 48 114 140 387 174 515 60 227 76 276 95 294 18 17 20 16
49 -25 60 -84 65 -83 81 3 16 89 51 407 56 515 6 109 11 146 44 310 22 116 75
411 90 505 5 30 20 123 34 205 39 233 49 344 48 558 0 184 -5 240 -33 460 -10
79 -3 110 25 106 6 -1 19 1 28 5 10 5 27 1 43 -10 14 -9 29 -14 32 -10 18 18
-64 198 -185 406 -75 128 -110 201 -182 380 -38 92 -162 416 -175 455 -7 22
-34 99 -60 170 -26 72 -50 144 -55 160 -4 17 -20 63 -35 103 -14 40 -28 81
-31 90 -15 65 -81 280 -88 291 -5 8 -34 63 -64 123 -51 101 -53 110 -38 127 9
10 16 22 16 28 0 11 -74 141 -112 197 -14 21 -24 44 -22 51 3 7 -2 15 -11 19
-10 3 -15 12 -11 21 3 9 -16 34 -50 67 -31 29 -80 85 -110 124 -56 73 -85 93
-194 133 -47 17 -213 44 -245 39 -5 0 -23 -3 -40 -4z"/>
</g>
</svg>
