<svg version="1.0" xmlns="http://www.w3.org/2000/svg"
 width="1200.000000pt" height="1600.000000pt" viewBox="0 0 1200.000000 1600.000000"
 preserveAspectRatio="xMidYMid meet">

<g transform="translate(0.000000,1600.000000) scale(0.100000,-0.100000)"
fill="#000000" stroke="none">
<path d="M5460 13030 c-41 -4 -83 -10 -92 -15 -24 -10 -13 -24 15 -19 21 4 21
4 2 -5 -11 -5 -38 -25 -60 -44 l-40 -35 24 -43 c14 -24 33 -55 43 -68 13 -17
15 -27 7 -31 -6 -4 6 -14 28 -24 21 -9 54 -25 73 -36 29 -17 53 -20 140 -20
164 0 189 13 237 121 34 75 38 120 14 151 -11 14 -33 28 -48 31 -16 3 -53 12
-83 20 -72 20 -168 26 -260 17z m175 -20 c3 -5 -3 -10 -14 -10 -12 0 -21 5
-21 10 0 6 6 10 14 10 8 0 18 -4 21 -10z m155 -254 c0 -2 -8 -10 -17 -17 -16
-13 -17 -12 -4 4 13 16 21 21 21 13z"/>
<path d="M6509 13030 c-30 -4 -82 -15 -115 -25 -32 -9 -64 -19 -71 -21 -6 -1
-19 -13 -27 -26 -13 -20 -14 -30 -2 -73 32 -119 71 -173 136 -186 82 -15 233
-11 259 8 13 9 45 27 70 39 25 13 40 23 32 23 -12 1 -11 4 1 19 9 9 30 40 46
68 l30 52 -26 24 c-15 14 -40 35 -57 48 -16 13 -22 20 -13 17 10 -3 20 -2 23
3 14 23 -185 44 -286 30z m51 -20 c0 -5 -12 -10 -26 -10 -14 0 -23 4 -19 10 3
6 15 10 26 10 10 0 19 -4 19 -10z m-23 -295 c0 -8 -4 -15 -9 -15 -10 0 -11 14
-1 23 9 10 10 9 10 -8z"/>
</g>
</svg>
