<?xml version="1.0" encoding="utf-8"?>
<!-- Generator: Adobe Illustrator 16.0.0, SVG Export Plug-In . SVG Version: 6.00 Build 0)  -->
<!DOCTYPE svg PUBLIC "-//W3C//DTD SVG 1.1//EN" "http://www.w3.org/Graphics/SVG/1.1/DTD/svg11.dtd">
<svg version="1.1" xmlns="http://www.w3.org/2000/svg" xmlns:xlink="http://www.w3.org/1999/xlink" x="0px" y="0px" width="1200px"
	 height="1600px" viewBox="0 0 1200 1600" enable-background="new 0 0 1200 1600" xml:space="preserve">
<g id="Layer_2">
	<g>
		<path fill="#262626" d="M182,940.587c0.955,1.062,4.718,6.247,2.606,8.052c-1.929,1.65-7.28,12.453-8.849,12.491
			c-3.286,0.082-8.213-13.741-6.59-18.213c0.766-2.111,1.784-17.29,3.75-23.75c2.606-8.563,10.778-9.015,10.333-7.333
			C181.249,919.403,176,933.917,182,940.587z"/>
		<path fill="#262626" d="M216.5,948.158c-0.14,2.383,16.006,11.876,12.917,13.593c-11.25,6.25-8.292,28.423-9.583,31.166
			c-0.783,1.664-17.123-18.051-15.583-26.75c0.822-4.642,4.049-27.038,6.875-35.854c1.092-3.405,4.116-2.313,3.958-1.062
			C214.639,932.776,216.861,942.021,216.5,948.158z"/>
		<path fill="#262626" d="M318.25,973c-1.441,0.738-5.309-16.476-2.25-22.875c1.411-2.954,6.188-9.546,8.25-19
			c0.802-3.678,2.839-11.881,3.604-15.125c0.951-4.034,2.704-5.344,2.896-5.625c0.603-0.883,0.74,5.545,1.75,13.25
			c1.685,12.841,4.119,30.301,2.875,31.25C332.982,956.703,322.578,970.782,318.25,973z"/>
	</g>
	<g>
		<path fill="#262626" d="M1034.791,940.587c-0.954,1.062-4.718,6.247-2.605,8.052c1.93,1.65,7.279,12.453,8.85,12.491
			c3.285,0.082,8.213-13.741,6.59-18.213c-0.766-2.111-1.783-17.29-3.75-23.75c-2.605-8.563-10.778-9.015-10.334-7.333
			C1035.543,919.403,1040.791,933.917,1034.791,940.587z"/>
		<path fill="#262626" d="M999.001,947.333c0.141,2.383-14.716,12.701-11.626,14.418c11.25,6.25,8.293,28.423,9.583,31.166
			c0.783,1.664,17.122-18.051,15.583-26.75c-0.821-4.642-4.049-27.038-6.875-35.854c-1.092-3.405-6.656-8.981-6.499-7.729
			C999.611,926.108,998.64,941.195,999.001,947.333z"/>
		<path fill="#262626" d="M898.541,973c1.441,0.738,5.309-16.476,2.25-22.875c-1.41-2.954-6.188-9.546-8.25-19
			c-0.801-3.678-2.838-11.881-3.604-15.125c-0.951-4.034-2.703-5.344-2.896-5.625c-0.603-0.883-0.739,5.545-1.75,13.25
			c-1.684,12.841-4.118,30.301-2.875,31.25C883.81,956.703,894.213,970.782,898.541,973z"/>
	</g>
</g>
<g id="Layer_1">
	<g transform="translate(0.000000,1600.000000) scale(0.100000,-0.100000)">
		<path d="M4390,10327.996c-27.002-43.994-80-182.002-80-207.998c0-10.996-4.004-20-10-20c-5,0-10,12.998-10,29.004
			c0,56.992-52.002,45.996-103.999-21.006c-13.003-17.998-45-73.994-71.001-125c-50-100-57.002-107.002-213.999-213.994
			c-52.002-35-118.999-86.006-148.003-113.008L3700,9607.996v37.002c0,49.004-32.998,100-72.002,114.004
			c-27.998,10-38.999,7.998-85-15c-55-27.002-188.999-151.006-280-259.004c-26.997-32.998-57.998-70-68.999-82.002
			c-25-30.996-31.001-28.994-26.001,12.002c3.003,22.002-1.997,45-12.998,60.996c-16.001,25-21.001,26.006-72.002,21.006
			c-40-4.004-68.999-16.006-110.996-42.998c-76.001-50-245-220-318.003-319.004c-31.997-44.004-61.997-82.002-65-85
			c-2.998-2.998-16.997-20.996-30-40.996c-12.998-20-51.997-78.008-86.997-130c-96.001-143.007-125-207.001-211.001-469.003
			l-38.003-114.004l-16.997,32.002c-35,67.998-118.003,27.998-171.001-83.994c-40-84.004-57.002-206.006-61.001-444.004
			c-2.998-117.998-6.997-230-10-247.998c-6.997-47.002-36.001-72.002-82.998-72.002c-23.999,0-43.999-5.996-52.002-17.002
			c-16.997-20-16.001-110,1.001-142.002c6.001-12.998,10-25,7.002-26.992c-2.002-3.008-29.004-6.006-59.004-8.008
			c-65.996-2.998-77.998-10-77.998-42.998c0-40,38.999-92.998,81.001-112.002l38.999-17.998l-30-22.002
			c-32.998-23.994-38.999-55-12.998-68.994c15-9.004,15-12.002,0-51.006c-9.004-22.998-16.001-45-14.004-48.994
			c1.001-5-10-19.004-25-32.998c-25.996-22.002-28.999-35-47.998-180c-11.001-85-22.002-165-25-177.002c-3.999-25,55-150,85-177.002
			c18.999-17.002,20-17.002,25,0.996c13.999,43.008,51.001,107.002,70,119.004c11.001,7.002,42.998,15,70,17.998
			c27.998,2.998,57.002,7.998,66.001,12.002c11.001,4.004,20-5,32.998-32.998c13.999-32.002,16.001-47.998,8.003-92.002
			c-20-110.996,58.999-270.996,160.996-325.996c16.001-9.004,30-14.004,32.002-12.002c1.001,2.002,7.998,58.994,15,125.996
			c6.001,67.998,12.998,129.004,16.001,135c6.997,19.004,71.997,59.004,86.001,55c6.997-2.998,38.999,7.998,70.996,25
			c97.002,49.004,136.001,126.006,142.002,282.998c2.998,71.006,7.998,84.004,36.001,84.004c11.001,0,46.997,27.998,81.997,62.998
			c34.004,35,83.003,77.002,107.002,92.002c25,15.996,55,37.998,67.002,49.004c35.996,30.996,36.997,12.998,1.997-49.004
			c-27.998-49.004-40-60.996-87.998-82.998c-31.001-14.004-63.003-30-71.001-37.002c-7.998-5.996-35-20-60-30
			c-12.031-5-33.462-0.439-45.21-3.545c-21.846-5.781-31.128-17.363-31.665-20.215c-0.728-3.896,35.928-8.066,60.874-5.244
			c25,2.002,78.999,20,118.999,38.008l72.002,33.994l5-65.996c7.002-87.002,42.998-154.004,127.002-232.998
			c50-46.006,70.996-59.004,97.998-61.006c83.999-3.994,96.001-5,102.002-10.996c5-5,15.996-107.998,22.998-209.004
			c1.001-17.998,22.002-5,80,49.004c33.999,30.996,82.002,85,107.002,120l45,62.998l-7.002,87.998l-7.002,89.004l33.003,25.996
			l32.998,26.006l-16.997,47.998c-9.004,25.996-22.002,87.998-28.003,137.002c-12.998,103.994-5,130.996,38.999,140.996
			c32.002,7.002,65,35.996,68.003,62.002c1.997,8.994-8.003,35-22.002,57.998c-30,52.998-30,59.004,2.002,52.002
			c37.998-7.002,86.997,8.994,112.998,37.002c20,21.992,23.003,35,23.003,106.992c-1.001,74.004,1.997,88.008,35,153.008
			c28.999,57.998,60.996,95.996,176.997,210.996c141.001,140,236.001,255,273.999,330c31.001,60.996,33.003,100.996,5,107.002
			c-13.999,2.998-2.998,20,50,72.998c107.998,110.996,211.006,272.002,224.004,349.004c7.002,46.992-10,68.994-49.004,60.996
			l-27.998-7.002l25,50c14.004,27.998,25,52.998,25,56.006c0,2.998,14.004,35,30,70.996c17.002,35.996,30,67.002,30,69.004
			c0,5.996,87.002,190.995,212.998,455.995c35,74.004,67.998,145.996,72.002,160s25,62.998,47.002,110
			c32.998,70,52.002,95.996,115.996,155.996c66.006,62.002,75,75,66.006,91.006c-17.002,27.998-61.006,27.998-105-1.006
			c-44.004-30-52.002-40.996-13.008-21.992C4830,9807,4870,9804.998,4870,9790.994c0-3.994-20-22.998-45.996-40.996
			c-25-19.004-55-47.998-68.008-65c-32.998-42.998-105.996-200-152.998-330c-13.994-37.998-45-105.996-68.994-150
			c-44.004-82.998-176.006-369.003-240-522.001c-20-48.994-42.002-100.996-49.004-117.998c-15.996-35.996-29.004-85-22.998-85
			c2.998,0,23.994,17.998,47.002,40c22.998,22.002,47.998,40,55.996,40c55,0-45-155-267.998-417.998
			c-85-99.004-95-117.998-38.003-72.998c46.001,36.992,77.002,35.996,65-1.006c-20-62.998-88.999-148.994-317.998-397.002
			c-85-91.992-158.999-180.996-168.999-203.994c-28.003-65-38.003-122.002-26.001-154.004c21.001-55.996-13.003-92.998-85-92.998
			c-23.999,0-43.003,10-72.002,35.996c-22.998,22.002-40,32.002-41.997,25c-6.001-17.998,26.997-100.996,52.998-135.996
			c12.002-17.002,25-44.004,28.999-60.996c11.001-48.008-8.999-57.002-106.997-52.002c-129.004,5.996-200,47.998-311.001,182.998
			l-23.999,30l-24.004-22.002c-68.999-63.994-400.996-182.998-512.998-182.998c-75,0-83.999,12.998-60,97.998
			c10,37.002,20,77.998,22.998,92.002c4.004,25,4.004,24.004-30-7.002c-30.996-30-157.998-102.998-265.996-153.994
			c-56.001-26.006-120-33.008-236.001-24.004c-66.001,5-96.001,10.996-93.003,17.998c2.002,7.002,12.002,14.004,23.003,16.006
			c30,5.996,105,60.996,97.998,71.992c-2.998,6.006-21.997,10-42.998,9.004c-68.999-2.998-83.003,0-112.002,29.004
			c-41.997,41.992-36.997,51.992,23.999,50c32.002-1.006,65,3.994,84.004,13.994c40,21.006,50,37.002,23.999,37.002
			c-28.999,0-52.002,40.996-53.999,95.996c-2.002,44.004,0,47.002,27.998,56.006c62.002,18.994,107.002,42.002,116.001,60
			c5,8.994,11.001,120,13.999,245c2.002,125.996,7.002,255,10,287.998c12.002,127.998,76.001,275.996,122.002,282.998
			c32.998,5,55.996-75.996,46.997-167.998c-3.999-47.998-2.998-70,3.999-70c16.001,0,29.004,27.998,41.001,90
			c5,30,18.999,87.002,31.001,125c11.001,39.004,28.999,99.004,40,135c66.001,227.998,192.002,452.997,395,704.003
			c141.001,175.996,317.998,325.996,387.002,327.998c37.998,0.996,46.997-14.004,48.999-82.002
			c1.001-100.996,6.997-100.996,88.999,2.002c105,130,276.001,300,328.999,325.996c53.999,26.006,76.001,17.002,92.002-37.002
			C3667.002,9619.002,3655,9552,3620,9484.002c-28.999-55-28.999-55,87.998,63.994c114.004,116.006,181.001,169.004,309.004,246.006
			c95,56.992,166.997,148.994,190,245c5.996,27.998,30.996,60.996,45,60.996c3.994,0,7.998-17.002,7.998-37.002
			c0-20.996,4.004-53.994,9.004-72.998s11.992-47.002,15-62.002c10-45,25.996-32.002,25.996,20
			c0,69.004,65.996,284.004,85.996,282.002c5,0,8.008-64.004,7.002-142.998l-2.002-142.002l19.004,40.996
			c10,23.008,24.004,68.008,30.996,100c8.008,38.008,14.004,51.006,17.002,36.006c4.004-26.006,22.002-20,22.002,7.998
			c0,12.002,5,17.002,14.004,14.004c20.996-8.008,27.998,38.994,10,75C4500,10247.996,4470,10262,4470,10239.998c0-5-4.004-10-10-10
			c-5,0-10,20.996-10,45.996c0,47.002-12.998,84.004-30,84.004C4414.003,10359.998,4400.996,10344.998,4390,10327.996z
			 M2376.001,7132.997c-17.002-47.002-11.001-85,16.001-110c15.996-13.994,33.999-17.998,83.999-15.996
			c85,2.998,275,48.994,346.001,85c31.997,15,63.999,27.998,71.997,27.998c20,0,27.002-37.002,13.003-77.002
			c-9.004-27.998-21.001-38.994-52.002-50.996c-22.002-7.998-52.002-24.004-67.002-34.004c-35-23.994-38.999-22.998-30.996,12.002
			c8.999,50-13.003,35-42.002-27.002c-31.001-67.002-82.998-125-137.998-152.998c-41.001-22.002-57.002-19.004-57.002,9.004
			c0,8.994-6.001,25-13.999,35.996c-11.001,15.996-13.003-2.998-12.002-125.996c1.001-137.002,0-147.002-26.001-200
			c-32.998-70-67.998-99.004-118.999-99.004c-31.997,0-48.999,9.004-101.001,52.998l-61.997,52.998l1.997,164.004l3.003,165
			l-26.001-30c-48.999-55-88.999-155-100-247.002c-10-87.998-32.002-87.002-46.001,2.002c-7.998,54.004-1.001,100,16.001,100
			c40,0,76.001,80,141.001,312.998c16.001,54.004,21.001,60,82.998,102.002c36.001,24.004,80,55,96.001,69.004
			c17.002,12.998,31.001,22.998,32.998,21.992C2388.999,7174.003,2383.999,7154.999,2376.001,7132.997z M3007.998,7157.997
			c7.002-7.002,12.002-7.998,12.002-2.998c0,4.004,27.998-19.004,62.998-52.002c74.004-72.002,133.003-103.994,205-112.002
			l52.002-5.996l5-90c2.998-49.004,8.999-107.998,15-130c12.002-50,12.998-95,2.002-95c-16.001,0-35,114.004-34.004,200
			c1.001,82.998,1.001,84.004-13.999,55c-8.999-15.996-25-37.002-36.997-45.996c-11.001-9.004-17.002-21.006-13.003-28.008
			c6.001-7.998,12.002-8.994,20-1.992c18.999,15.996,26.001,2.998,26.001-54.004c0-27.998,3.999-75.996,8.999-105.996
			s11.001-92.002,13.999-138.008c4.004-82.998,4.004-83.994-35.996-141.992c-45-68.008-95-121.006-107.002-114.004
			c-7.002,4.004-20,94.004-22.998,160c0,17.002,6.997,47.002,16.997,69.004l17.002,37.998l-38.003-37.002
			c-36.997-35.996-38.999-37.002-100.996-32.002c-57.002,4.004-65,7.998-99.004,42.998c-20,22.002-51.997,55-70,75
			c-42.998,46.006-51.997,84.004-40.996,182.002c8.999,82.998,20.996,115,63.999,166.006
			c23.999,27.998,47.998,112.998,56.997,193.994C2975,7172.997,2991.001,7174.999,3007.998,7157.997z M2143.999,6992.997
			c-3.999-15.996-11.997-40.996-20-57.998c-6.997-15.996-21.997-64.004-33.999-105c-28.999-100.996-38.999-120-65-120
			c-37.002,0-47.002-22.002-41.001-94.004c6.001-73.994-2.998-85.996-67.998-85.996c-28.999,0-41.001,7.998-80,54.004
			c-25,28.994-46.001,58.994-46.001,65.996s-2.998,10-6.001,7.002c-6.997-6.006,3.999-39.004,32.002-104.004
			c13.999-30,12.998-33.994-21.001-87.998c-20-30-38.999-54.004-42.998-50.996c-4.004,1.992-18.003,25.996-31.001,50.996
			c-23.003,45-23.003,50-11.001,139.004c6.001,50,15,120.996,17.998,156.992c7.002,70,21.001,95,60,110
			c31.001,12.002,43.003,3.008,33.003-23.994c-17.002-45-22.002-79.004-11.001-72.002c5,2.998,10,15,10,25.996
			c0,34.004,38.999,108.008,67.002,126.006l25.996,17.002l-28.999,7.998c-16.001,3.994-35,5.996-41.001,2.998
			c-7.998-2.002-12.998,2.998-12.998,12.998c0,36.006,18.999,42.002,123.999,36.006c56.001-3.008,118.999-1.006,141.001,3.994
			c22.002,6.006,42.998,10,47.998,11.006C2147.002,7019.999,2147.002,7007.997,2143.999,6992.997z M2152.002,6595.995l2.998-87.998
			l65-58.994l65-59.004l-32.002-25c-38.999-30.996-56.997-105-50-200.996c2.002-36.006,0-67.002-5-70
			c-11.997-7.002-56.997,30-82.998,68.994c-12.002,17.998-32.002,62.002-45,99.004l-23.999,65.996l17.998,84.004
			c8.999,45,21.001,115,25,152.998c8.999,72.002,16.001,100,33.999,122.998C2141.001,6710.995,2147.998,6687.001,2152.002,6595.995z
			"/>
		<path d="M3260,6807.001c-17.002-25-40-146.006-28.999-152.002c6.997-5,52.998,165,46.997,170.996
			C3276.001,6827.997,3267.998,6819.003,3260,6807.001z"/>
		<path d="M3200,6590.995c1.001-25,1.001-25,15-6.992c18.999,25,18.999,32.998,0,32.998C3205,6617.001,3200,6607.001,3200,6590.995z
			"/>
		<path d="M1797.002,6752.997c-4.004-2.998-7.002-25-6.001-47.002l1.001-40.996l8.999,44.004
			C1810,6754.003,1808.999,6764.999,1797.002,6752.997z"/>
		<path d="M7710.996,10329.002C7705,10310.994,7700,10280.994,7700,10262c0-29.004-2.002-32.998-15-22.002
			c-22.002,19.004-42.002,5.996-49.004-32.998c-6.992-36.006,10-90,25-81.006c5,3.008,9.004,0,9.004-5
			c0-5.996,5-10.996,10.996-10.996c6.006,0,9.004,7.002,5,15c-2.998,7.998-0.996,15,4.004,15c5.996,0,10-7.998,10-17.998
			c0-32.002,30-134.004,45.996-155c15-21.006,16.006-20,9.004,25c-7.998,62.002-7.998,225.996,0.996,240
			c4.004,5.996,25-37.998,46.006-97.998c28.994-80,40-127.002,40.996-176.006c1.006-37.998,5-67.998,9.004-67.998
			c10.996,0,28.994,62.998,35,127.002c10.996,115,22.998,110,100.996-47.002C8015.996,9912,8040,9869.002,8040,9874.002
			c0,5.996,15-4.004,32.998-21.006c17.002-17.002,70-53.994,117.002-82.998c122.001-75,152.001-100,279.003-229.004
			c108.994-110.996,112.998-113.994,87.998-65.996c-30,59.004-47.002,112.002-47.002,147.002c0,37.998,20,87.002,39.004,97.998
			c46.992,24.004,180-87.002,357.998-300c105.996-127.002,120.996-140.996,120-117.998c-2.002,52.002,5,135,12.002,147.002
			c15,23.994,66.992,13.994,125.996-24.004c105.996-67.002,310.996-285,412.998-437.002c140-209.999,180-282.001,236.006-423.993
			c35.996-94.004,110-340,121.992-409.004c8.008-47.998,21.006-75,36.006-75c7.002,0,7.998,22.002,3.994,70
			c-8.994,87.002,13.008,170,45,170c19.004,0,79.004-72.002,79.004-95c0-7.002,5.996-25,14.004-40.996
			c26.992-53.008,46.992-266.006,45.996-469.004c-0.996-104.004,0.996-197.998,5-207.998c9.004-22.002,67.998-52.998,119.004-62.998
			l37.998-7.002l-5-46.006c-7.998-68.994-26.006-100.996-54.004-100.996c-15,0-22.002-4.004-17.002-10.996
			c13.008-21.006,79.004-42.002,127.002-40c55,1.992,59.004-8.008,17.998-50c-25.996-26.006-35.996-29.004-90-29.004
			c-41.992,0-60.996-4.004-60.996-12.002c0-15,50.996-52.002,92.998-67.002c49.004-18.994,29.004-28.994-68.994-35.996
			c-142.002-10.996-182.002-2.998-298.008,57.002c-55.996,27.998-117.998,60-137.998,70.996c-20.996,10-48.994,32.998-62.998,49.004
			c-14.004,17.002-27.998,27.998-32.002,25c-2.998-4.004,5-42.998,17.998-87.002c29.004-102.002,24.004-114.004-51.992-117.998
			c-39.004-2.002-89.004,7.002-178.008,32.998c-130.996,37.002-327.998,125-336.992,150c-9.004,22.998-31.006,17.998-51.006-10.996
			c-35.996-53.008-110-120-162.998-148.008c-49.004-26.992-64.004-30-149.004-30c-115-0.996-126.992,8.008-90.996,75
			c50,92.002,60,115,65.996,148.008c7.002,31.992,6.006,32.998-15,21.992c-10.996-6.992-20.996-17.998-20.996-25
			c0-16.992-42.998-35.996-80-35.996c-67.998,0-102.002,37.998-80.996,92.998c22.998,59.004-23.008,176.006-101.006,257.998
			c-95.996,102.002-252.002,273.008-300,330c-45.996,54.004-117.998,165-117.998,181.006c0,22.998,34.004,17.002,70-12.002
			c22.002-17.002,40-27.998,40-22.998c0,3.994-22.998,35-52.002,67.998c-110.996,129.004-275,342.002-290.996,377.998
			c-35,77.002-11.006,89.004,53.994,27.002c23.008-22.002,44.004-37.998,47.002-35c7.002,7.002-32.002,110.996-100,265
			c-32.998,74.004-67.002,150.995-75,169.999s-57.002,120.996-107.998,225c-50.996,105-95.996,200.996-100,215
			c-10.996,35.996-50,127.998-95,224.004c-37.002,80.996-70,122.998-139.004,178.994c-17.998,15-30.996,30-27.998,32.998
			c7.998,8.008,40,7.002,62.002-0.996c10.996-4.004,4.004,4.004-15,19.004c-40,30.996-85.996,31.992-104.004,2.998
			c-8.994-15,2.002-30,77.002-102.002c47.998-45.996,87.002-90,87.002-97.002s7.002-25.996,15.996-42.998
			c9.004-15.996,27.002-59.004,41.006-95c13.994-35.996,50-117.002,80-180C7645.996,9092.996,7760,8849.999,7760,8844.003
			c0-3.008,10.996-29.004,24.004-57.002c12.998-29.004,37.998-82.998,55-120l30.996-69.004l-30,7.002
			c-40.996,9.004-59.004-27.002-42.002-82.998c21.006-71.006,116.006-214.004,200-302.998c45-47.002,82.002-89.004,82.002-93.008
			c0-2.998-7.002-5.996-15-5.996c-22.998,0-19.004-54.004,10-109.004c37.998-75.996,137.998-195,280.996-335.996
			c109.004-107.002,139.004-142.998,169.004-202.002c22.998-45.996,35-85,35-110c-2.002-105.996,0.996-127.998,22.002-150
			c23.994-25.996,72.002-42.002,112.002-37.998c30.996,4.004,30.996,5,3.994-47.998c-12.002-22.998-22.002-49.004-22.002-57.002
			c-0.996-22.002,25-47.002,67.002-65c24.004-10,39.004-24.004,42.998-40c7.002-27.998-10-165-30-240
			c-13.994-50-12.998-50,16.006-75c32.002-27.002,35-40.996,22.998-135c-5.996-55.996-5-62.998,24.004-105.996
			c38.994-58.008,125.996-154.004,163.994-181.006c39.004-27.998,47.002-13.994,47.002,85c0,102.998,5.996,112.998,75.996,122.002
			c45,5,64.004,14.004,97.002,42.998c67.002,60,94.004,94.004,127.998,155c28.008,54.004,30,62.998,24.004,119.004
			c-4.004,32.998-2.998,57.998,0.996,55.996c68.008-40,210-90.996,235-85.996c9.004,2.002,16.006-27.002,24.004-102.002
			c15-137.002,47.002-194.004,130-234.004c30.996-13.994,70-25.996,87.998-25.996c20-0.996,44.004-10.996,64.004-27.998
			c30.996-27.002,32.002-30,43.994-160c12.002-127.002,13.008-132.002,33.008-126.006c52.998,17.002,121.992,97.002,153.994,179.004
			c27.002,72.002,32.998,112.998,21.006,160c-10,39.004-9.004,52.002,5.996,85.996c12.998,27.002,22.998,38.008,32.998,34.004
			c7.998-2.998,42.998-10,77.998-14.004c70-10,84.004-15.996,84.004-35c0-6.992,9.004-25,20-38.994c10.996-14.004,20-34.004,20-45
			c0-62.002,54.004-11.006,99.004,93.994l21.992,50l-20.996,131.006c-10.996,72.998-20,143.994-20,157.998
			c0,39.004-27.998,92.002-52.002,97.998c-10.996,2.998-17.002,10-13.994,16.006c3.994,5.996,0,26.992-9.004,47.998
			c-15,35-15,38.994,0.996,50c28.008,20.996,25,42.002-10.996,70l-34.004,27.002l38.008,16.992
			c86.992,39.004,110.996,162.002,30,157.002c-13.008-0.996-39.004-0.996-58.008,0c-26.992,2.002-31.992,5-25.996,20
			c5,9.004,12.002,40,17.998,69.004c14.004,70.996-5.996,102.998-62.998,102.998c-77.998,0-87.002,32.002-92.998,320
			c-6.006,249.004-21.006,357.002-62.002,442.002c-30,63.994-55,93.994-90,112.002c-35.996,18.994-62.998,10-82.002-28.008
			l-17.002-30.996l-8.994,35c-9.004,30.996-35,109.004-77.998,230c-52.002,147.998-90,219.004-208.008,389.999
			c-120,174.004-192.998,264.004-305.996,375.996c-129.004,127.002-184.004,163.008-260,171.006c-49.004,5-54.004,3.994-70-21.006
			c-10.996-15.996-15.996-38.994-12.998-60.996c3.994-39.004-1.006-42.998-22.002-17.002
			c-190.996,226.006-274.004,307.998-355,347.002c-44.004,22.002-55,24.004-82.998,14.004c-39.004-14.004-72.002-65-72.002-114.004
			v-37.002l-52.998,47.998c-29.004,27.002-72.998,63.008-97.998,79.004c-234.003,159.004-230,155-288.007,265
			c-57.998,107.998-82.998,140.996-118.994,159.004C7885,10172.996,7870,10165.994,7870,10137c0-34.004-15.996-7.002-35,57.998
			c-30,105.996-67.998,165-105,165C7725.996,10359.998,7717.001,10345.994,7710.996,10329.002z M9912.001,7084.999
			c57.002-39.004,68.994-52.002,78.994-87.998c6.006-22.998,27.002-89.004,45-147.002c19.004-57.002,34.004-110,34.004-117.002
			c0-17.002,50.996-62.998,70.996-62.998c13.008,0,15-10.996,12.002-65.996c-5.996-114.004-37.002-137.002-47.998-36.006
			c-9.004,74.004-60.996,206.006-97.002,246.006l-27.998,30l-2.002-29.004c-0.996-17.002-2.002-87.002-2.002-157.002l-0.996-127.002
			l-40-40.996c-62.002-64.004-99.004-82.998-145.996-77.002c-53.008,7.002-66.006,20-102.002,97.002
			c-30,64.004-31.006,67.998-29.004,202.998c2.002,85-0.996,136.006-7.002,132.998c-5-3.994-11.992-20-15.996-35.996
			c-7.002-32.998-15-35.996-47.002-17.002c-48.994,27.998-97.998,82.998-127.998,142.998c-34.004,68.008-55.996,84.004-45,34.004
			l7.002-30.996l-60,30.996c-32.998,15.996-65,30-71.006,30c-15,0-30.996,42.998-30.996,85.996c0,42.002,12.002,43.008,80.996,8.008
			c56.006-28.008,243.008-78.008,331.006-88.008c67.002-6.992,100.996,3.008,123.994,39.004c15,24.004,15,30,1.006,80.996
			l-16.006,56.006l32.002-26.006C9830.995,7142.001,9874.999,7109.999,9912.001,7084.999z M9197.997,7157.997
			c6.006-75,37.002-187.998,61.006-227.002c33.994-52.998,50-112.998,50.996-187.998c0-72.002-7.998-87.998-90-175.996
			l-72.002-77.002h-57.998c-55,0-60,2.002-90,37.998l-30.996,37.002l20.996-57.998c17.998-47.002,20-62.998,10.996-89.004
			c-5.996-17.002-10.996-50-10.996-73.994c0-24.004-5-46.006-10-49.004c-12.998-7.998-59.004,42.002-110,117.998
			c-34.004,50-39.004,64.004-35,100c7.998,84.004,25.996,272.998,27.998,307.002c4.004,67.002,27.998,30,44.004-67.998
			c8.994-55,20-44.004,12.002,12.002c-6.006,45-63.008,185.996-75,185.996c-3.008,0-4.004-37.002-3.008-82.002
			c2.002-87.002-15.996-197.998-31.992-197.998c-12.002,0-11.006,19.004,5.996,125c7.998,50,15,114.004,15,142.998v52.002h47.002
			c60.996,0,158.994,54.004,220,120c25,27.998,48.994,47.998,52.998,45c5-2.998,10.996-0.996,15,5
			C9174.003,7174.003,9195.995,7172.997,9197.997,7157.997z M10194.999,7004.999c65.996,0,125.996-4.004,132.998-7.998
			c14.004-9.004,17.002-51.006,2.002-42.002c-5,2.998-20.996,2.998-35-0.996l-25.996-7.002l27.998-29.004
			c15-15.996,27.998-37.002,28.994-45.996c1.006-9.004,2.002-30,3.008-45c0-16.006,5-26.006,10-22.002
			c15,9.004,23.994-14.004,11.992-29.004c-13.994-16.992-2.998-72.998,16.006-80.996c12.998-4.004,15,2.002,8.994,44.004
			c-3.994,27.998-12.998,67.998-20.996,90c-15,45-9.004,55.996,27.002,41.992c37.998-13.994,52.002-38.994,58.994-105
			c4.004-32.998,12.002-95,19.004-135.996c17.002-109.004,15-132.002-12.998-174.004c-14.004-20-29.004-37.998-32.998-38.994
			c-3.008-1.006-21.006,20.996-39.004,47.998l-32.002,50l17.998,45.996c13.008,34.004,15,49.004,7.002,57.002
			c-8.994,9.004-20-2.002-45-37.998c-30-45-37.002-50-70.996-50c-61.006,0-67.002,9.004-67.002,97.002
			c0,75.996-0.996,77.998-25,80.996c-35.996,5-57.002,27.998-65,69.004c-5.996,32.002-52.002,178.994-70.996,227.002
			c-7.002,16.992-4.004,17.998,21.992,10C10062.001,7009.003,10129.003,7004.999,10194.999,7004.999z M9329.999,6954.999
			c5.996-7.998,32.998-25.996,57.998-40.996c36.006-21.006,192.002-164.004,177.998-164.004
			c-8.994,0-192.998,95.996-202.998,105.996c-10.996,11.006-62.998,102.002-62.998,110
			C9299.999,6975.995,9319.003,6967.997,9329.999,6954.999z M10045.995,6692.997c16.006-33.994,30-87.002,35-127.998
			c4.004-37.998,15-100.996,24.004-140c15.996-67.998,17.002-125,5-155c-49.004-115-110-194.004-132.998-170.996
			c-5,5-9.004,46.992-7.998,92.998c1.992,100.996-8.008,132.998-57.002,175l-37.002,32.002l45,37.998
			c24.004,20.996,52.998,45.996,64.004,55c18.994,15,20.996,25.996,18.994,127.998
			C9999.999,6770.995,10004.999,6779.003,10045.995,6692.997z"/>
		<path d="M8940.995,6619.003c-0.996-8.008,6.006-24.004,15-35c15-19.004,15-19.004,6.006,0.996c-5,10.996-12.002,27.002-15,35
			C8942.001,6632.997,8940.995,6632.997,8940.995,6619.003z"/>
		<path d="M10364.999,6669.999c-4.004-7.002,0-19.004,9.004-27.998c12.998-14.004,15.996-14.004,15.996-2.002
			C10389.999,6664.999,10374.003,6684.003,10364.999,6669.999z"/>
		<path d="M4890.996,9929.998C4872.001,9902,4860,9877,4865,9872c4.004-4.004,10-1.006,12.002,5.996
			c2.998,6.006,10.996,12.002,18.994,12.002c15,0,44.004,49.004,44.004,75S4925.996,9982,4890.996,9929.998z"/>
		<path d="M7230,9964.998c0-25.996,29.004-75,44.004-75c7.998,0,15.996-5.996,18.994-12.002c2.002-7.002,7.998-10,12.002-5.996
			c9.004,7.998-45.996,100-62.998,105.996C7235,9979.998,7230,9974.002,7230,9964.998z"/>
		<path d="M4725,9739.998c-2.998-5.996,0.996-7.002,9.004-4.004c17.998,7.002,20.996,14.004,6.992,14.004
			C4735,9749.998,4727.998,9745.994,4725,9739.998z"/>
		<path d="M4695,9709.998c-2.998-5-0.996-10,4.004-10c5.996,0,10.996,5,10.996,10c0,5.996-2.002,10-4.004,10
			C4702.998,9719.998,4697.998,9715.994,4695,9709.998z"/>
		<path d="M7477.998,9692.996c7.002-2.998,16.006-2.002,19.004,1.006c3.994,2.998-2.002,5.996-12.998,5
			C7472.998,9699.002,7470,9695.994,7477.998,9692.996z"/>
	</g>
</g>
</svg>
