<?xml version="1.0" standalone="no"?>
<!DOCTYPE svg PUBLIC "-//W3C//DTD SVG 20010904//EN"
 "http://www.w3.org/TR/2001/REC-SVG-20010904/DTD/svg10.dtd">
<svg version="1.0" xmlns="http://www.w3.org/2000/svg"
 width="1200.000000pt" height="1600.000000pt" viewBox="0 0 1200.000000 1600.000000"
 preserveAspectRatio="xMidYMid meet">

<g transform="translate(0.000000,1600.000000) scale(0.100000,-0.100000)"
fill="#000000" stroke="none">
<path d="M4367 10243 c-8 -10 -19 -31 -22 -48 -18 -76 -48 -165 -56 -165 -5 0
-9 12 -9 28 0 34 -10 49 -34 54 -21 3 -54 -34 -61 -71 -2 -13 -11 -34 -20 -47
-8 -13 -15 -30 -15 -39 0 -23 -78 -104 -122 -126 -21 -11 -38 -24 -38 -29 0
-6 -5 -10 -10 -10 -6 0 -16 -5 -23 -10 -7 -6 -39 -28 -72 -49 -33 -22 -93 -71
-134 -110 -41 -39 -79 -71 -84 -71 -6 0 -6 5 0 13 6 6 11 36 12 65 2 49 -1 56
-33 88 -40 40 -54 40 -122 -7 -65 -44 -264 -245 -264 -266 0 -5 -23 -33 -51
-63 -28 -30 -49 -48 -46 -38 3 9 3 19 0 22 -4 3 -7 24 -7 47 -3 105 -107 97
-226 -17 -119 -114 -187 -183 -207 -210 -12 -16 -31 -40 -43 -54 -12 -14 -34
-41 -49 -60 -14 -19 -32 -41 -38 -48 -7 -7 -13 -17 -13 -22 0 -4 -16 -28 -36
-52 -20 -23 -46 -62 -57 -85 -12 -24 -25 -43 -29 -43 -4 0 -8 -7 -8 -15 0 -8
-4 -15 -9 -15 -5 0 -15 -16 -22 -35 -7 -19 -17 -35 -21 -35 -4 0 -8 -8 -8 -18
0 -10 -5 -23 -12 -30 -7 -7 -8 -12 -4 -12 4 0 -3 -19 -17 -42 -24 -41 -77
-194 -80 -230 -1 -10 -4 -18 -8 -18 -4 0 -10 -18 -14 -41 -4 -22 -13 -51 -19
-64 l-13 -24 -26 31 c-15 16 -27 39 -27 49 0 44 -69 5 -108 -60 -11 -18 -18
-40 -15 -47 3 -8 1 -14 -4 -14 -5 0 -10 -11 -11 -25 -1 -14 -8 -38 -16 -53
-18 -36 -29 -197 -27 -417 l1 -180 -30 -28 c-17 -16 -46 -31 -67 -34 -21 -3
-44 -10 -50 -16 -26 -20 -6 -115 34 -159 10 -11 12 -18 5 -19 -26 -3 -31 -4
-38 -11 -4 -5 -26 -8 -49 -8 -48 0 -80 -24 -54 -41 8 -5 11 -9 6 -9 -10 0 31
-40 41 -40 4 0 13 -5 20 -12 16 -16 42 -19 63 -7 12 6 20 5 24 -1 4 -6 -18
-21 -49 -35 -31 -14 -56 -29 -56 -33 0 -19 40 -44 77 -48 131 -15 253 -6 253
18 0 5 9 6 20 3 12 -4 20 -2 20 5 0 6 4 9 9 6 5 -3 12 1 15 9 3 8 9 15 13 14
15 -2 53 13 53 22 0 5 6 9 13 9 6 0 39 18 72 40 33 22 64 40 68 40 13 0 -1
-52 -19 -71 -11 -12 -12 -23 -5 -40 11 -28 46 -60 56 -51 3 4 10 1 14 -7 6 -9
21 -11 55 -6 25 4 46 11 46 15 0 4 19 10 43 14 23 4 56 11 72 16 17 4 57 16
90 25 64 19 169 68 180 85 3 5 15 10 25 10 10 0 26 10 35 23 l16 22 17 -24
c21 -31 97 -108 137 -140 54 -42 95 -54 184 -54 76 0 86 2 102 22 21 25 25 76
8 86 -11 8 -33 55 -31 68 1 4 -3 7 -10 7 -6 0 -9 3 -5 6 3 4 -1 13 -9 21 -24
24 -8 27 22 4 41 -32 116 -29 143 5 26 33 35 62 24 77 -10 13 -10 13 1 77 12
73 55 144 146 238 47 48 114 121 150 162 36 40 75 84 88 97 37 40 99 127 106
151 4 12 12 22 17 22 18 0 9 45 -12 58 -20 13 -20 14 -3 40 9 15 32 43 51 62
19 19 54 64 78 100 24 36 61 83 81 105 60 66 78 123 47 157 -16 17 -17 17 -49
-7 -27 -21 -32 -22 -27 -8 3 10 10 24 16 31 5 6 7 12 4 12 -8 0 43 122 88 215
19 39 35 75 36 80 0 6 7 17 14 25 7 8 14 18 14 23 -1 22 14 67 21 67 7 0 21
29 25 50 0 3 6 15 13 28 7 12 10 22 7 22 -4 0 7 19 24 43 32 44 131 266 134
298 1 11 5 19 9 19 4 0 8 11 8 25 0 14 5 25 11 25 5 0 7 5 4 10 -3 6 -1 10 5
10 6 0 8 5 5 10 -3 6 -1 10 5 10 6 0 8 5 5 10 -3 6 -2 10 3 10 5 0 21 22 36
50 15 27 52 76 81 107 30 32 55 63 55 69 0 6 -23 14 -50 18 -46 6 -49 9 -40
26 13 25 13 93 -1 123 -13 28 -58 57 -89 57 -13 0 -39 -5 -60 -11 -54 -16 -91
6 -125 76 -15 30 -31 57 -35 60 -4 2 -13 -7 -20 -20 -7 -14 -17 -25 -21 -25
-3 0 -10 30 -14 68 -9 82 -32 104 -68 65z"/>
<path d="M7732 10248 c-7 -7 -12 -37 -12 -67 0 -30 -3 -51 -7 -48 -3 4 -12 2
-19 -4 -9 -7 -14 -5 -19 11 -9 28 -21 18 -51 -46 -33 -69 -70 -91 -124 -75
-99 30 -160 -12 -160 -110 0 -22 5 -49 10 -59 9 -17 6 -20 -40 -26 -27 -4 -50
-11 -50 -16 0 -4 26 -37 59 -72 32 -34 67 -76 77 -91 11 -16 31 -42 47 -58 15
-15 25 -32 22 -38 -4 -5 -1 -9 5 -9 6 0 8 -4 5 -10 -3 -5 -1 -10 4 -10 6 0 11
-11 11 -25 0 -14 4 -25 8 -25 4 0 8 -8 9 -18 2 -31 91 -229 128 -288 19 -29
32 -54 30 -54 -3 0 0 -10 7 -22 7 -13 13 -25 13 -28 4 -21 18 -50 25 -50 4 0
11 -11 14 -25 3 -13 11 -37 18 -52 6 -15 12 -30 13 -33 0 -3 10 -23 22 -45 26
-49 105 -235 107 -252 1 -7 5 -16 9 -19 4 -4 7 -14 7 -21 0 -11 -7 -9 -29 6
-28 20 -29 20 -46 1 -13 -14 -16 -28 -11 -55 4 -19 11 -35 17 -35 6 0 7 -4 4
-10 -3 -5 -2 -10 3 -10 6 0 34 -34 64 -76 55 -79 96 -131 163 -210 l39 -46
-22 -18 c-12 -10 -22 -22 -22 -28 0 -16 54 -109 80 -139 13 -15 57 -67 97
-115 41 -49 78 -88 83 -88 6 0 10 -5 10 -11 0 -6 43 -55 96 -108 96 -95 120
-134 150 -231 13 -45 14 -74 1 -86 -13 -14 -7 -37 19 -71 22 -29 30 -33 73
-33 34 0 56 6 75 21 30 24 46 20 21 -5 -9 -9 -13 -16 -8 -16 4 0 4 -4 -2 -8
-16 -12 -55 -95 -55 -118 0 -12 8 -32 19 -45 16 -20 26 -22 102 -22 89 0 130
12 184 54 41 33 117 109 138 139 14 20 19 22 27 11 4 -8 22 -22 38 -30 16 -9
56 -30 88 -47 33 -17 86 -39 119 -49 33 -9 74 -21 90 -25 17 -5 49 -12 73 -16
23 -4 42 -10 42 -14 0 -5 23 -11 51 -15 39 -5 54 -4 60 6 5 8 9 10 9 5 0 -15
42 27 51 52 9 23 -6 70 -26 84 -6 5 -6 11 1 18 8 8 28 -1 71 -30 33 -22 66
-40 72 -40 6 0 11 -4 11 -10 0 -5 9 -10 20 -10 11 0 20 -5 20 -11 0 -5 5 -7
10 -4 6 3 13 -1 16 -9 3 -9 10 -13 15 -10 5 3 9 0 9 -6 0 -7 8 -9 20 -5 11 3
20 2 20 -3 0 -16 88 -29 175 -26 107 4 121 7 145 29 19 17 19 19 4 37 -10 10
-23 18 -31 18 -23 0 -74 30 -68 40 4 6 13 7 24 1 21 -12 47 -9 63 7 7 7 18 12
25 12 7 0 13 4 13 8 0 5 9 18 21 31 29 30 10 51 -46 51 -23 0 -45 3 -49 8 -4
4 -12 8 -17 8 -5 1 -11 2 -14 3 -2 0 5 17 16 37 26 48 36 126 18 140 -8 6 -32
14 -53 17 -48 8 -109 61 -98 86 9 21 5 329 -6 461 -5 58 -16 121 -25 141 -9
20 -13 39 -10 43 4 3 1 6 -6 6 -7 0 -11 6 -8 14 12 30 -68 125 -105 126 -12 0
-26 -17 -39 -45 -22 -46 -39 -66 -39 -44 0 6 -7 17 -16 24 -11 8 -17 30 -19
70 -1 33 -8 61 -14 63 -6 2 -11 11 -11 20 0 28 -52 175 -71 202 -10 14 -21 38
-23 54 -3 16 -9 32 -14 35 -5 3 -12 16 -16 28 -4 12 -19 37 -34 57 -15 19 -42
61 -60 94 -18 32 -43 70 -55 84 -12 15 -31 39 -42 54 -22 30 -64 82 -80 100
-5 6 -21 25 -35 43 -27 35 -125 136 -206 212 -88 81 -167 114 -199 82 -23 -22
-37 -62 -30 -83 3 -10 1 -21 -4 -24 -6 -4 -7 -14 -4 -23 4 -9 -17 8 -45 38
-29 30 -52 57 -52 62 0 21 -198 222 -260 264 -72 49 -85 50 -126 9 -32 -32
-35 -39 -33 -88 1 -29 6 -59 12 -65 6 -8 6 -13 0 -13 -5 0 -43 32 -84 71 -69
66 -128 110 -206 155 -18 10 -33 21 -33 25 0 4 -19 18 -42 32 -63 37 -116 90
-124 123 -4 16 -17 44 -30 63 -13 19 -21 37 -19 41 2 4 -8 19 -23 33 -24 23
-31 25 -46 14 -12 -8 -18 -28 -19 -55 -1 -23 -5 -42 -9 -42 -3 0 -12 24 -18
53 -7 28 -17 57 -21 63 -5 6 -12 32 -15 58 -9 61 -51 95 -82 64z"/>
</g>
</svg>
