<svg version="1.0" xmlns="http://www.w3.org/2000/svg"
 width="1200.000000pt" height="1600.000000pt" viewBox="0 0 1200.000000 1600.000000"
 preserveAspectRatio="xMidYMid meet">

<g transform="translate(0.000000,1600.000000) scale(0.100000,-0.100000)"
fill="#000000" stroke="none">
<path d="M5988 12251 c-61 -20 -125 -64 -151 -103 -31 -49 -44 -120 -29 -161
10 -26 8 -34 -13 -59 -14 -16 -25 -34 -25 -40 0 -6 13 -35 29 -64 17 -28 27
-54 24 -58 -3 -3 -9 -23 -12 -43 -6 -35 -11 -41 -86 -80 -44 -23 -102 -50
-130 -59 -27 -9 -80 -30 -117 -48 -72 -33 -89 -57 -69 -95 25 -47 196 -59 359
-27 73 15 99 16 118 7 14 -6 35 -11 48 -11 20 0 24 6 29 51 4 30 2 60 -5 72
-10 20 -10 20 17 -1 33 -26 43 -22 23 10 -57 91 -63 103 -42 88 11 -8 43 -40
69 -70 27 -30 53 -54 58 -52 5 1 20 16 34 32 32 39 48 38 28 0 -9 -17 -13 -40
-10 -51 6 -19 7 -19 33 2 l27 21 3 -22 c2 -11 -2 -28 -8 -36 -23 -27 -3 -14
39 27 47 43 63 46 36 5 -18 -27 -12 -51 11 -42 8 3 14 2 14 -3 0 -15 182 -45
270 -45 139 0 202 30 186 87 -7 23 -79 63 -176 96 -30 10 -85 33 -122 52 -65
32 -68 35 -74 76 -3 23 -12 48 -20 54 -20 16 -17 29 16 73 44 58 36 98 -22
119 -15 5 -16 11 -6 38 8 23 8 45 -2 86 -23 106 -116 172 -249 179 -42 2 -88
0 -103 -5z"/>
</g>
</svg>
