<svg version="1.1" xmlns="http://www.w3.org/2000/svg" xmlns:xlink="http://www.w3.org/1999/xlink" x="0px" y="0px" width="1200px"
	 height="1600px" viewBox="0 0 1200 1600" enable-background="new 0 0 1200 1600" xml:space="preserve">
<g id="Layer_2">
	<g transform="translate(0.000000,1600.000000) scale(0.100000,-0.100000)" opacity="0.2">
		<path fill="#FFFFFF" d="M6033.398,12512.996c-5-12.998-27.754-50.742-27.754-56.748c0-5.996-4.248,17.246-26.25,21.25
			c-10.605,2.227-27.959-32.719-45-55c-13.491-17.646-28.311-23.232-28.75-25c36.25-128.75,46.748-136.504,98.75-202.5
			c22.002-27.998,45-62.002,50.996-77.002c14.004-35,54.004-38.994,64.004-7.002c4.004,12.002,27.002,47.002,50.996,78.008
			c52.002,66.992,106.504,218.496,106.504,218.496l-38.75,17.5l-25,58.75c-29.004-5-55.752-12.754-64.746,18.252
			c-9.004,30.996-12.002,32.998-58.008,33.994C6048.398,12537,6041.396,12534.998,6033.398,12512.996z"/>
	</g>
</g>
<g id="Layer_1">
	<g transform="translate(0.000000,1600.000000) scale(0.100000,-0.100000)">
		<path d="M6339.999,12605.994c-7.998,22.002-25.996,39.004-62.998,58.008c-29.004,15.996-60,35-69.004,42.997
			c-15.996,13.994-15.996,17.002,5,33.994c19.004,16.006,20,20,7.002,29.004c-7.998,5-22.998,10-32.002,10
			c-10.996,0-17.998,7.998-17.998,20c0,10.996-4.004,20-10,20c-5,0-10-14.004-10-30c0-22.002,11.65-32.5,28.75-32.5
			c40.625,0,12.246-14.502-2.754-20.498c-15-6.006-10.996-12.998,25-42.997c23.008-19.004,57.002-41.006,74.004-49.004
			c37.002-15,55.996-35.996,25-27.998c-25.996,7.002-25-1.006,2.002-45c17.998-29.004,18.994-34.004,5.996-29.004
			c-12.998,4.004-17.998-2.002-22.998-25c-4.004-15.996-15-37.998-25.996-48.994c-11.006-11.006-16.006-26.006-12.002-36.006
			c5-15,2.998-15.996-7.002-5.996c-7.998,7.002-12.998,30.996-12.002,57.998c1.006,27.002-2.002,45-8.994,45
			c-6.006,0-9.004-7.002-5-15c2.998-7.998-2.188-29.688-7.441-19.688c-2.324,4.428-7.559,15.684-10.566,29.688
			c-3.994,14.004-10.996,25-15.996,25c-5.996,0-10-10.996-10-25c0-17.48-3.125-55-6.875-46.875
			c-2.559,5.547-15.371,39.287-22.129,66.875c-11.992,47.002-28.994,59.004-37.998,25c-7.002-27.002-42.998-25.996-50,0
			c-7.998,32.002-25,19.004-43.994-35.996c-10-27.002-21.758-70.592-22.754-63.59c-2.002,6.006-0.254,44.586-1.25,49.586
			c-0.996,5.996-2.998,15-4.004,20c-1.992,22.002-20.996,9.004-20.996-15c0-14.004-6.25-25.313-11.563-32.813
			c-2.891-4.082-8.438,16.816-8.438,28.809c0,11.006-4.004,17.002-10,14.004c-5-2.998-7.002-19.004-2.998-35
			c7.002-35-20.693-94.688-21.689-77.813c-0.352,5.996-5.313,37.813-16.309,53.809c-10,16.006-19.004,40-19.004,53.008
			c0,15.996-4.004,20.996-15,16.992c-20-6.992-19.004,4.004,5,34.004c25,32.002,25,44.004,0,37.002c-37.998-10-20,10,34.004,37.002
			c65.996,32.998,106.992,72.997,86.992,84.999c-8.994,5.996-44.331,28.081-8.496,24.746c21.25,0.415,37.5,2.246,37.5,19.248
			c0,32.998-17.002,44.004-25,17.002c-2.998-10.996-15-20-25-20c-30,0-35-20.996-10.996-40.996l21.992-18.008l-52.998-34.999
			c-28.994-20-57.998-35.996-65-35.996c-15.161,0-37.852-58.75-36.436-58.75c5.996,0,31.875,5.439,31.875,3.438
			c0-2.998-50.625-90.313-5.439-73.691c14.004,8.008,17.998,8.008,12.998,0c-3.994-5.996,2.002-25.996,13.008-45
			c25.996-41.992,25.996-41.992-5-70.996c-22.002-20.996-25-27.002-14.004-40c7.002-9.004,15.996-12.998,19.004-9.004
			c2.998,3.008,21.992-27.998,40.996-68.994c20-42.998,64.004-109.004,100-152.002l65-75.996l37.998,42.998
			c77.002,85.996,104.004,123.994,126.006,177.998c12.998,30,27.158,68.109,37.246,81.25c0,0,37.627,10.141,38.75,18.75
			c1.162,8.939-20,30-20,30c-32.002,27.002-35.996,35-14.004,57.998c10,12.002,19.004,31.006,19.004,42.002
			c0,17.998,2.998,19.004,20.996,9.004c21.006-11.006,22.002-9.004,16.006,18.994c-4.004,17.002-32.578,53.334-26.582,55.336
			C6316.425,12595.334,6347.001,12585.994,6339.999,12605.994z M6134.999,12172c-25-26.006-49.385-66.9-58.125-67.627
			c-7.5-0.625-32.48,41.186-53.877,66.621c-97.998,116.504-130.205,219.35-109.37,226.016c16.729,5.352,42.539,63.725,44.287,75.488
			c1.67,11.25,18.179-35.469,21.089-34.502c22.998,9.004,50,44.004,50.996,65c0,19.004,7.998,21.006,29.004,7.998
			c7.998-5,22.998-5.996,35-1.992c16.992,6.992,22.998,0.996,38.994-31.006c11.006-20.996,34.668-44.713,39.014-37.998
			c6.738,10.414,23.779,42.969,25.488,32.5c4.16-25.416,11.66-72.5,35-72.5C6269.159,12399.998,6177.001,12217.996,6134.999,12172z"
			/>
	</g>
</g>
</svg>
