<svg version="1.1" id="Layer_1" xmlns="http://www.w3.org/2000/svg" xmlns:xlink="http://www.w3.org/1999/xlink" x="0px" y="0px"
	 width="1200px" height="1600px" viewBox="0 0 1200 1600" enable-background="new 0 0 1200 1600" xml:space="preserve">
<g transform="translate(0.000000,1600.000000) scale(0.100000,-0.100000)">
	<path d="M6033.398,12512.996c-5-12.998-27.754-50.742-27.754-56.748c0-5.996-4.248,17.246-26.25,21.25
		c-10.605,2.227-27.959-32.719-45-55c-13.491-17.646-28.311-23.232-28.75-25c36.25-128.75,46.748-136.504,98.75-202.5
		c22.002-27.998,45-62.002,50.996-77.002c14.004-35,54.004-38.994,64.004-7.002c4.004,12.002,27.002,47.002,50.996,78.008
		c52.002,66.992,106.504,218.496,106.504,218.496l-38.75,17.5l-25,58.75c-29.004-5-55.752-12.754-64.746,18.252
		c-9.004,30.996-12.002,32.998-58.008,33.994C6048.398,12537,6041.396,12534.998,6033.398,12512.996z"/>
</g>
</svg>
