<svg version="1.1" id="Layer_1" xmlns="http://www.w3.org/2000/svg" xmlns:xlink="http://www.w3.org/1999/xlink" x="0px" y="0px"
	 width="1200px" height="1600px" viewBox="0 0 1200 1600" enable-background="new 0 0 1200 1600" xml:space="preserve">
<g transform="translate(0.000000,1600.000000) scale(0.100000,-0.100000)">
	<path d="M5843.544,8045.111c21.016-10.513,47.246-23.633,51.24-24.492h0.01c4.268,0,51.504-15.039,51.973-15.195
		c22.422-6.895,53.33-11.499,73.584-12.534c-5.42,1.152-11.777,2.437-19.063,3.862c-91.172,17.852-151.445,42.749-214.971,88.857
		c-29.326,21.504-57.129,43.027-60.605,46.523c-3.174,3.174-23.174,22.139-43.818,40.82c-2.822,2.588-7.061,6.465-11.426,10.391
		C5696.201,8146.361,5784.472,8075.629,5843.544,8045.111z"/>
	<g>
		<path d="M6163.75,8000.268c0.674,0.059,1.309,0.098,1.895,0.098c1.074,0,2.002-0.117,2.822-0.313
			c0.283-0.078,0.938-0.254,2.842-0.254c15.518,0,68.389,11.914,101.201,24.102c42.109,15.659,141.406,88.037,193.174,140.801
			c7.168,7.471,12.979,13.779,17.656,19.072c-3.115-2.9-6.621-6.26-10.596-10.146c-104.873-101.826-195.674-153.359-303.623-172.344
			C6167.285,8000.951,6165.498,8000.6,6163.75,8000.268z"/>
		<path d="M6116.064,7987.987c4.951,0.313,11.318,1.719,17.5,3.926c5.127,1.973,11.221,4.019,16.924,5.62
			C6134.511,7994.003,6122.89,7990.585,6116.064,7987.987z"/>
	</g>
	<path d="M6354.248,7920.683c-22.002-19.004-30.996-31.016-20-26.016c30,15,77.002,62.012,62.002,62.012
		C6395.244,7956.679,6376.25,7940.683,6354.248,7920.683z"/>
	<g>
		<path d="M5428.74,11268.637c43.682,4.6,103.096,7.031,171.797,7.031c130.361,0,272.422-8.867,353.525-22.07
			c56.777-9.072,88.066-14.063,118.262-14.063c30.986,0,62.451,5.029,125.137,15.059c83.027,13.32,224.111,21.924,359.434,21.924
			c64.922,0,122.256-2.031,165.791-5.869c15.664-1.611,29.58-2.451,40.322-2.451c1.475,0,2.832,0.01,4.063,0.039
			c-38.828,9.502-161.758,23.428-247.822,23.428c-90.146,0-326.26-26.23-394.746-43.848c-19.648-4.902-40.195-7.949-53.662-7.949
			c-6.855,0-11.709,0.762-14.824,2.324c-43.721,23.77-300.439,44.854-472.236,44.854c-51.182,0-93.34-1.846-121.924-5.342
			c-43.428-5.488-69.072-11.523-81.27-15.625c1.65-0.078,3.584-0.117,5.85-0.117
			C5396.904,11265.961,5411.142,11266.859,5428.74,11268.637z"/>
		<path d="M5320.244,11201.664c6.465,0,9.463,1.963,9.814,2.686c-2.178,3.867-10.059,7.314-16.807,7.314
			c-4.473,0-9.004-1.719-9.004-5C5304.697,11205.404,5310.322,11201.664,5320.244,11201.664z"/>
		<path d="M6828.251,11201.664c9.912,0,15.547,3.74,16.016,5.166c-0.02,3.115-4.551,4.834-9.023,4.834
			c-6.758,0-14.629-3.447-16.523-7.236C6818.789,11203.627,6821.787,11201.664,6828.251,11201.664z"/>
		<path d="M5403.505,11192.338c-4.902,1.289-12.441,2.842-23.926,4.365c-3.35,0.4-6.65,0.586-9.727,0.586
			c-6.445,0-10.859-0.811-13.428-1.641c4.678-1.826,14.98-3.984,29.824-3.984
			C5394.033,11191.664,5399.58,11191.957,5403.505,11192.338z"/>
		<path d="M6746.035,11192.709l1.309-0.049c31.064,0,43.457,3.262,46.68,5.01c-0.566,1.016-2.607,2.236-9.902,2.236
			c-9.277,0-24.023-2.109-47.363-6.816C6739.677,11192.973,6742.783,11192.846,6746.035,11192.709z"/>
		<path d="M7132.246,11176.664c-5,0-7.998-24.004-8.994-52.998c-1.006-92.002-76.006-212.002-166.006-266.006
			c-33.994-20-37.002-20.996-30.996-3.994c2.998,10,12.998,27.998,20.996,40.996c17.002,26.006,6.006,30-15,5
			c-13.994-17.002-13.994-17.002-8.994,0c2.998,9.004,1.992,17.002-3.008,17.002c-7.998,0-62.998-105-66.992-129.004
			c-7.314-43.271-52.549-195.098-55.254-209.121l31.25,33.125l-5.996-85c-10-170.996-36.006-347.002-64.004-450
			c-41.035-146.67-60-231.973-60-397.998c0-105,4.004-145,19.004-190c25.996-76.006,50.996-134.004,63.994-151.006
			c6.006-6.992,12.002-18.994,12.998-25.996c3.008-22.998,45-62.998,62.002-60c27.998,5.996,27.998,7.002,2.002,14.004
			c-19.004,5-25,12.998-24.004,33.994c1.006,15-1.992,27.002-5.996,27.002c-20,0-75.996,187.002-80.996,265
			c-8.008,162.998,12.998,357.002,46.992,410.996c11.006,18.008,23.008,63.008,38.008,149.004c21.992,115,27.998,179.004,31.992,355
			c7.002,250,15,285,80,319.004c39.004,20.996,96.006,70.996,132.002,115c32.002,38.994,62.002,127.998,62.002,180.996
			C7139.248,11151.664,7136.25,11176.664,7132.246,11176.664z"/>
		<path d="M6676.337,10296.547c3.389,21.035,8.613,49.385,13.223,74.404c2.158,11.709,4.17,22.627,5.771,31.592
			c2.285,12.373,10.645,52.959,22.334,56.855c2.891,1.172,6.582,6.416,6.582,11.27c0,12.119,24.844,37.91,32.461,45.527
			c12.002,11.299,26.045,28.691,36.787,43.896c-10.566-0.752-51.904-47.744-65.498-56.553
			c-27.334-17.578-50.898-27.061-53.496-38.467c0.967,0.283,2.354,0.84,4.268,1.934c4.932,3.066,9.473,2.754,12.168-0.537
			c3.35-4.082,3.145-12.1-0.791-31.787c-2.393-11.387-9.648-45.889-12.969-65.84c-4.219-24.277-13.408-35.488-32.783-40.049
			c-9.482-1.494-17.441-1.123-22.744,0.635c-6.436,2.129-7.402,6.074-7.402,8.232c0,2.129-2.803,4.004-5.996,4.004
			c-9.395,0-33.115,12.236-50.576,22.715c-19.707,12.451-39.58,22.568-44.248,23.35l-1.035,0.283
			c-2.08,0.84-11.465,3.916-23.359,7.813c-15.791,5.176-37.637,12.334-60.4,20.107c-42.266,14.434-83.721,25.732-94.385,25.732
			c-12.51,0-29.697,6.621-37.539,14.463c-7.246,5.029-84.023,10.537-211.709,10.537c-117.129,0-212.432-4.844-226.621-11.523
			c-12.939-6.475-64.717-21.758-112.959-33.34c-74.297-18.34-176.27-62.354-205.83-88.857c-4.746-4.121-10.938-6.26-17.959-6.26
			c-16.953,0-37.988,13.223-42.266,32.92c-19.795,81.133-19.521,103.301-13.018,111.582c1.445,1.846,3.281,3.076,5.391,3.633
			c-1.172,1.465-26.943,11.055-49.15,30.176c-31.748,27.324-63.525,66.631-68.037,65.693c11.074-14.307,24.268-30.498,36.494-44.775
			c9.482-11.543,19.063-23.008,27.441-33.027c12.168-14.551,21.768-26.035,24.824-30.322c7.09-8.242,10.938-28.916,10.938-44.902
			c0-15.664,5.039-41.299,9.746-55.41c5.967-14.902,13.135-45.313,16.211-68.945c14.873-120.996,104.16-341.729,164.717-407.256
			c10.674-11.729,19.326-29.834,19.326-40.381c0-8.77,6.387-40.918,14.854-74.795c25.029-102.109,28.154-125.029,27.148-293.242
			c-1.016-121.592-5.049-173.125-15.41-196.963c-28.955-61.885-74.785-171.387-81.787-195.41
			c-5.117-14.355-18.203-41.68-30.576-61.27c-19.15-30.645-50.605-106.279-76.484-183.906
			c-4.59-14.697-15.518-61.543-22.813-104.258c-6.865-40.195-15.869-86.572-20.078-103.379c-2.969-10.889-3.252-15.068-3.066-16.66
			c1.074,0.098,2.686,0.488,5.43,1.543c3.115,1.191,5.635,1.758,7.939,1.758c13.848,0,14.844-17.539,14.844-46.426
			c0-23.799,2.627-35.918,4.229-39.121c4.17-0.693,14.863-6.045,57.168-45.215c27.432-26.367,61.221-50.781,75.615-57.08
			c5.42-2.236,32.988-14.121,32.988-24.58c0.645-0.713,7.305-5.4,19.121-8.125c12.539-3.135,40.576-12.178,62.588-20.176
			c21.582-7.842,57.012-17.754,78.975-20.752c21.152-3.838,48.301-9.023,58.75-12.158c20.059-6.68,45.693-10.557,85.068-13.984
			c-246.631,44.707-394.033,113.164-449.814,208.672c-25.801,43.35-26.689,54.717-21.67,123.887
			c5.02,67.725,8.35,86.055,22.188,86.055c4.199,0,8.691-2.266,15.02-7.598c32.314-26.25,131.533-72.344,182.969-84.971
			c93.389-24.834,155.078-29.854,366.807-29.854c317.871,0,421.855,20.215,556.279,108.184c9.307,6.074,14.932,9.736,20.137,9.736
			c10.82,0,12.51-11.123,17.539-44.15c15.264-112.93,2.188-151.885-73.613-219.492c-92.939-81.953-233.799-130.127-456.748-156.24
			c-16.406-1.543-30.107-3.76-39.727-5.879c39.15,0.205,131.055,11.025,169.814,21.66c18.242,4.805,50.361,11.934,70.547,15.117
			c59.219,9.043,170.576,56.641,224.844,96.113c44.99,32.49,85.381,68.975,93.926,80.781c-0.645,0.596-1.162,1.338-1.523,2.197
			c-1.064,2.588-1.406,7.109,7.998,16.514c5.068,5.068,10.537,22.744,10.537,42.461c0,15.059,1.484,32.344,13.076,32.344
			c1.875,0,3.809-0.547,5.762-1.621c0.918,11.973-8.398,58.604-14.736,90.293c-3.115,14.521-7.1,36.631-9.053,50.273
			c-1.943,13.594-3.262,20.039-3.906,22.314c-2.178,2.441-3.516,8.057-6.025,19.316c-9.736,53.516-61.445,186.523-85.156,219.141
			c-16.045,22.471-31.777,53.555-35.82,70.801c-2.627,15.625-22.49,64.98-50.684,126.045l-45.488,97.041l0.029,1.191l5,180
			c2.002,99.121,7.031,191.65,11.201,206.24c35.732,152.168,41.563,168.311,77.832,215.664c21.377,27.48,43.76,68.018,51.27,88.672
			C6649.521,10192.152,6667.558,10247.787,6676.337,10296.547z M6447.441,9294.877l33.398-77.227
			c16.475-37.539,40.283-97.031,57.07-140.176l26.299-72.324l-186.602-13.477c-66.426-4.697-115.615-9.736-143.223-13.711
			c1.006,0,2.051-0.01,3.145-0.01c53.945,0,165.762,7.51,278.223,18.682c10.02,1.133,17.842,1.66,24.561,1.66
			c46.611,0,59.053-28.574,82.744-110.244l4.199-14.346c32.188-109.775,33.447-114.063-24.912-148.838l-7.529-4.492
			c-111.348-65.84-214.795-83.867-481.27-83.867c-14.297,0-29.053,0.049-44.326,0.156c-247.236,1.982-282.354,6.211-417.52,50.244
			c-38.486,13.115-147.451,73.105-147.451,89.756c0,28.359,53.086,185.625,72.822,215.732
			c16.914,26.924,23.428,35.459,47.354,35.459c7.979,0,18.027-0.957,30.332-2.217c27.314-1.953,71.23-8.662,100.4-14.063
			c97.461-17.236,146.699-24.277,169.912-24.277c3.242,0,5.732,0.146,7.637,0.352c-6.377,2.402-18.154,5.576-36.143,8.066
			l-4.219,0.576c-28.936,3.984-77.363,10.654-108.848,15.43c-37.715,5.713-99.004,13.672-116.895,15.977
			c-62.354,7.803-62.354,8.74-62.354,13.965c0,22.617,102.637,267.588,123.545,279.355c1.445,1.24,5.762,3.193,20.43,3.193
			c11.846,0,28.135-1.309,44.707-3.594c19.16-3.418,46.865-7.266,71.309-10.664c11.436-1.582,22.109-3.066,30.742-4.346
			c24.629-3.516,57.148-9.717,67.695-15.576c8.535-4.473,61.475-9.043,160.244-9.043c65.596,0,135.215,2.012,196.025,5.664
			L6447.441,9294.877z M6457.148,9714.662c-17.217-89.111-20.586-95.977-51.523-104.814c-11.738-3.447-44.053-5.596-84.316-5.596
			c-18.945,0-38.77,0.488-57.314,1.416c-19.111,0.947-38.965,1.436-57.402,1.436c-31.084,0-50.068-1.338-58.711-2.627
			c2.012,0,4.443,0.039,7.1,0.176c0.02,0,0.039,0,0.059,0c16.641,0,68.047-3.047,114.736-8.018
			c20.811-1.572,40.625-2.373,58.74-2.373c27.158,0,48.77,1.816,62.52,5.244l44.307,12.842l-2.09-150.752
			c0-129.854,2.666-147.461,3.486-149.766l1.396-2.324l-1.367-2.334c-3.232-6.611-81.104-11.152-231.445-13.506
			c-38.086-0.371-70.459-0.605-98.652-0.605c-125.83,0-167.939,4.619-257.363,21.689l-129.063,22.715v137.197
			c-0.762,98.525-0.186,120.43,7.676,128.35c4.414,4.443,11.436,3.135,18.271,0.264c7.725-2.813,40.205-5.811,80.771-5.811
			c5.693,0,11.445,0.059,17.178,0.195c111.24,1.436,182.5,2.451,224.082,3.584c-21.025,1.416-49.043,2.939-84.18,4.424
			c-71.035,2.959-159.072,8.916-196.201,12.012l-71.23,6.377l-9.443,115.703c-6.543,86.299-23.223,75.459-14.951,97.373
			c0,0,19.551,18.496,20.225,20.537c-3.164-1.436-7.139-3.525-8.857-4.434c-8.447-4.932-21.855-28.486-26.836-10.742
			c-9.58,34.16,130.654,66.416,217.002,75.137l24.072,2.871c17.559,2.07,34.141,4.033,36.533,4.756v-0.01
			c2.598,1.074,9.023,1.602,35.273,1.602c72.266,0,254.219-5.088,283.32-9.238c21.729-2.832,48.291-7.5,62.197-10.039
			c7.607-2.051,20.811-5.303,34.678-8.711l21.631-5.352c19.316-4.824,43.994-13.809,56.182-20.459
			c8.896-5.225,12.539-11.396,15.986-16.074c21.875-29.688-57.852-0.088-61.563-3.125c3.301-0.684,56.924-17.92,62.832-25.166
			C6475.605,9815.561,6472.353,9788.705,6457.148,9714.662z M6495.244,9911.664c-11.025,0-17.402,12.656-28.184,25.469
			c-5.811,6.898-10.225,16.973-13.926,23.334c-12.627,29.15-9.639,53.311-20.928,59.195c-8.193,4.004-31.729,26.006-52.188,47.998
			c-35.801,38.008-128.896,100-192.324,128.008c-16.367,7.998-40.928,17.998-53.203,23.994
			c-13.301,6.006-35.361,23.564-38.555,36.064c-6.006,9.951-15.986,16.357-22.939,22.627c0.313,1.279,0.752,2.5,1.299,3.662
			c-0.752-0.869-1.602-1.719-2.5-2.568c-0.889,0.85-1.738,1.699-2.49,2.568c0.557-1.162,0.996-2.383,1.309-3.662
			c-6.963-6.27-16.943-12.676-22.939-22.627c-3.203-12.5-25.264-30.059-38.555-36.064c-12.285-5.996-36.846-15.996-53.203-23.994
			c-63.438-28.008-156.523-90-192.334-128.008c-20.459-21.992-43.994-43.994-52.178-47.998
			c-15.352-7.998-4.219-49.717-41.943-91.904c-11.973-16.836,0.801-6.406,23.438,13.906c7.158,55,18.945,62.754,58.848,98.75
			c81.836,72.998,111.328,92.998,218.75,150c58.418,31.445,79.814,44.941,101.299,50.928c21.504-5.996,45.273-19.482,103.701-50.928
			c107.422-57.002,130.654-69.502,212.5-142.5c39.902-35.996,55.547-51.25,62.705-106.25c2.197-1.969,4.268-3.814,6.26-5.582
			c4.248-6.875,10.156-10.141,13.652-11.684c2.803-2.256,4.971-3.844,6.348-4.566c6.797-8.877,8.711-29.463,6.494-38.822
			c-1.924-8.135-6.592-9.346-9.209-9.346c-2.158,0-9.521,2.148-83.545,26.24c-70.4,23.467-90.615,26.689-281.563,30.762
			c-47.002,0.938-88.535,1.719-120.635,1.719c-88.076,0-113.555-5.508-197.041-26.572c-61.68-15.752-88.926-21.328-104.102-21.328
			c-7.012,0-16.689,1.094-19.863,10.596c-2.754,7.324-2.578,15.02,0.156,20.742c-2.539-1.182-5.146-1.182-6.26-1.182
			c-2.402,0-5.303,0.352-9.131,1.123c-17.695,2.939-41.113,35.908-119.57,207.822c-17.393,36.826-30.439,85.801-32.441,121.797
			l-5.273,64.268l105.059,51.494c111.768,56.396,199.912,80.342,336.797,91.504c33.389,2.998,85.322,4.658,146.182,4.658
			c89.883,0,172.178-3.594,200.137-8.73c121.27-22.861,161.67-35.635,254.268-80.41c52.48-26.777,97.822-44.502,104.824-44.502
			c12.129,0,22.002-7.178,22.002-15.996c0-6.416-5.059-11.035-11.836-10.361c0.537-0.83,1.162-1.729,1.875-2.705
			c11.758-18.779,8.369-38.643-9.258-97.373c-12.334-41.162-28.428-83.047-36.621-95.342c-6.523-11.191-17.412-35.811-23.379-55.664
			C6569.228,9993.822,6516.523,9911.664,6495.244,9911.664z"/>
		<path d="M5381.621,9154.555c2.041,5.459-1.533,28.184-11.924,51.035c-13.125,28.711-21.396,37.93-34.043,37.93
			c-1.572,0-3.262-0.127-5.098-0.4c-4.316-4.727-12.266-9.766-23.701-8.857c-1.689-6.328-6.523-14.053-14.404-26.299
			c-50.186-74.414-49.395-101.074-44.453-110.352c2.979-5.605,9.277-8.33,19.268-8.33c0.01,0,0.01,0,0.01,0
			c2.031,0,4.189,0.117,6.465,0.352C5308.056,9093.676,5373.886,9135.658,5381.621,9154.555z M5342.431,9131.811
			c-21.582-18.594-43.652-29.736-58.955-29.736c-12.041,0-19.229,6.953-19.229,18.594c0,21.484,49.795,109.072,66.406,109.072
			l1.914-0.254c7.939-3.145,21.094-20.244,29.043-34.375C5380.683,9164.828,5377.949,9161.234,5342.431,9131.811z"/>
		<path d="M5325.244,10541.664c-2.295,32.188-2.598,49.121-0.742,54.893c-0.811,4.609-0.361,9.355,1.787,13.525
			c1.777,12.041,22.754-10.781,23.789-10.918c-5.957,11.738-29.834,107.5-30.83,112.5c-0.996,5.996-5.996,20-10.996,32.998
			s-9.004,30-9.004,37.998c0,8.008-12.998,41.006-30,74.004c-22.002,44.004-35,57.998-50,57.002
			c-24.004-2.002-24.004,0.996,0-47.002l20-39.004l-42.002,29.004c-98.994,65.996-160,164.004-167.998,270
			c-5,55-7.002,60.996-14.004,37.002c-28.994-97.998,68.008-267.002,193.008-337.002c60.996-35,67.998-62.998,75.996-302.002
			c2.998-110,12.998-235.996,20.996-280c8.008-43.994,13.008-82.998,10-85.996c-2.998-2.998-1.992-10,3.008-16.006
			c5-5.996,13.994-37.998,20-70c5.996-32.998,15-61.992,20-65c22.998-15.996,45-170,45.996-320.996
			c0-132.998-2.998-164.004-22.002-220c-32.002-95.996-52.002-140-63.994-140c-6.006,0-9.004-7.002-5-15
			c2.891-7.949,3.223-15.986,1.631-23.057c2.373-0.498,4.434-1.377,6.357-2.432c1.563,0.361,4.141,0.488,8.008,0.488
			c20,0,62.002,77.002,95,175c52.998,152.998,39.004,392.998-35.996,630C5370.244,10147.66,5337.246,10384.662,5325.244,10541.664z"
			/>
		<path d="M6121.855,9021.928c-17.949-5.82-31.816-8.301-46.416-8.301c-18.73,0-39.639,3.994-74.6,14.229
			c-5.625,1.299-11.025,2.051-14.922,2.061c3.486-4.775,12.119-14.326,24.482-24.375c17.637-15.781,40.469-24.385,64.473-24.385
			c24.023,0,47.139,8.623,65.098,24.277c19.531,16.895,20.527,23.076,20.566,23.945c-0.322-0.127-1.396,0.479-4.482,0.479
			C6151.083,9029.857,6141.123,9028.48,6121.855,9021.928z"/>
		<path d="M5280.019,11056.82c1.816-1.123,4.668-1.768,8.086-1.768c9.258,0,19.189,4.629,21.543,8.613
			c0.566,0.947,0.371,1.289,0.205,1.602c-0.723,0.889-1.895,3.486-1.123,7.363c1.377,6.787,8.447,14.775,17.998,20.352
			c11.982,7.49,16.436,14.443,17.148,17.07c-1.221,0.098-3.896-0.127-8.809-2.051c-6.348-2.539-9.609-3.486-12.012-3.486
			c-3.818,0-5.371,2.383-5.869,3.408c-2.031,4.229,0.898,8.535,9.15,18.857c7.432,9.287,17.813,19.902,23.682,24.873
			c-0.244,0-0.498,0.01-0.771,0.01c-5.283,0-29.502-16.572-59.463-46.533c-26.836-26.836-45.537-54.99-45.537-63.467
			c0-0.84,0-1.68,0-2.5c1.23,1.67,2.578,3.525,3.945,5.43C5258.066,11056.947,5271.923,11062.221,5280.019,11056.82z"/>
		<path d="M6316.162,11106.547c97.422,22.861,120.859,27.051,227.754,34.111c18.975,1.27,46.963,3.164,63.564,5.107
			c-1.318,0.322-2.764,0.664-4.346,1.025c-6.934,1.387-18.174,2.129-32.354,2.129c-52.9,0-134.766-9.512-190.43-22.139
			c-14.004-2.998-47.871-9.98-76.221-15.039c-26.885-3.848-79.033-24.209-116.416-45.43c-40.361-22.012-74.385-36.65-109.473-36.65
			c-35.039,0-70.234,14.619-112.305,36.572c-73.77,38.389-104.443,46.953-252.48,70.488
			c-90.342,14.746-137.549,17.354-168.525,9.141c10.225-1.895,31.289-4.551,74.619-7.207c99.736-6.055,130.049-9.18,169.16-21.221
			c8.535-2.842,31.982-7.783,51.318-10.84c38.682-6.445,161.846-59.385,168.809-75.439c0.605-1.406,0.752-2.861,0.449-4.209
			c4.092-2.217,19.746-5.283,74.912-5.283c19.023,0.322,57.5,0.986,65.146,4.561c-0.654,1.68-0.615,3.73,0.234,5.781
			C6156.972,11049.838,6260.712,11094.213,6316.162,11106.547z"/>
		<path d="M6874.99,11081.42l-82.539,34.57l4.512-4.98c11.885-11.885,23.984-19.346,28.281-19.346
			c8.398,0,19.482-4.775,23.477-12.764c2.051-3.008,2.529-6.162,1.104-8.838c-1.113-2.07-5.283-5.43-15.635-2.324
			c7.002-3.789,18.154-7.939,29.99-10.166c15.4-2.891,33.828-10.039,39.229-18.135c0.723-1.162,1.309-1.924,1.748-2.432
			c0.361,0.654,0.83,1.68,1.348,3.242c0.605,2.588-3.506,15.225-28.086,45.547c-26.738,32.979-55.264,59.385-66.719,64.834
			c2.021-4.072,6.865-11.211,16.084-20.43L6874.99,11081.42z"/>
		<path d="M6847.451,10878.285c-0.4-0.986-0.869-2.461-1.299-4.609c-0.908-5.156-2.207-12.5-7.637-15.4
			c5.879,0.166,6.943,2.08,7.354,2.822C6849.052,10866.654,6849.687,10874.145,6847.451,10878.285z"/>
		<path d="M5364.101,10877.016c-17.9-7.412-27.227-10.176-34.375-10.176c-7.031,0-12.295,2.852-16.572,8.955
			c-0.078,0.137-0.156,0.273-0.234,0.4c-4.57-55.166-2.217-59.688,34.727-93.857c14.59-13.936,33.018-30.781,47.705-43.213
			c-12.881,13.711-29.668,30.693-43.555,43.916c-26.934,25.322-36.611,41.357-33.359,55.313
			c3.555,15.303,22.158,26.543,66.348,40.088c48.506,14.756,96.055,18.184,219.502,17.227c176.582,0,250.107-11.494,342.041-53.457
			c49.922-22.969,72.559-26.523,137.842-25.547c56.572,0.986,86.504,5.957,103.301,17.158
			c24.736,16.494,149.902,53.447,216.006,63.779c22.441,3.369,90.391,4.561,141.768,4.561c51.367,0,120.068-1.191,144.678-4.551
			c18.184-2.871,61.24-13.574,95.088-26.27c13.887-4.629,24.951-7.949,33.682-10.088c-4.971,2.256-11.309,5.508-19.785,9.99
			c-48.623,24.512-135.508,38.594-238.281,38.594c-137.881,0-277.295-24.98-355.146-63.652
			c-35.264-17.627-53.682-23.496-93.213-23.496c-9.199,0-19.766,0.303-34.248,0.977c-48.271,3.086-102.002,14.492-147.5,31.299
			c-93.496,35.068-221.592,55.996-342.686,55.996c-49.346,0-95.029-3.438-135.762-10.225
			C5424.775,10896.029,5384.472,10885.16,5364.101,10877.016z"/>
		<path d="M6847.246,10831.664c-2.002,2.002-22.998-17.998-47.998-42.998c-65-67.002-72.002-82.998-17.002-37.998
			C6826.25,10786.664,6856.25,10823.666,6847.246,10831.664z"/>
		<path d="M5419.179,10617.953c-0.186,0.059-0.625,0.02-0.928,0.039c6.729-5.303,14.517-9.42,22.778-12.408
			c36.201-25.732,89.004-34.604,131.406-38.256c16.875-4.004,33.604-6.27,48.062-6.27c3.154,0,6.191,0.107,9.102,0.322
			c39.775,3.184,85.474,9.678,126.943,16.924c0.747-0.43,1.68-0.605,2.798-0.293c2.72,0.766,5.449,1.469,8.169,2.221
			c6.572,1.191,13.013,2.398,19.268,3.604c31.313,4.072,62.368,10.225,93.501,16.91c49.131,10.551,98.071,17.012,147.407,24.115
			c14.404,0.611,30.01,0.943,46.338,0.943c30.82,0,61.152-1.113,88.164-3.076c0.42-0.582,1.006-1.045,1.855-1.197
			c60.381-10.717,119.717-25.893,179.541-39.232c56.377-12.574,120.088-28.125,178.086-20.348c0.635,0.088,1.152,0.455,1.621,0.859
			c30.381-2.832,45.195,0.195,72.617,9.766c16.533,3.213,32.852,7.701,48.936,12.793c10.42,3.301,22.09,7.125,33.75,11.68
			c5.205,1.031,9.883,1.836,13.564,2.301c20.869,2.422,40.947,14.326,52.441,31.074c8.311,12.09,11.211,25.254,8.174,37.061
			c-0.264,1.016-0.527,2.031-0.791,3.037c-4.971-11.221-15.83-23.531-29.98-35.303c-1.406-0.768-2.803-1.533-4.209-2.295
			c4.121,4.096,7.949,8.402,10.918,13.242c2.178,3.549-2.266,8.363-5.879,5.879c-24.18-16.631-46.016-31.754-73.652-42.588
			c-34.121-13.375-70.742-20.602-106.973-25.299c-21.758-2.822-44.746-4.844-67.969-5.424c-23.281,0.576-46.133,1.762-67.559,3.457
			c-19.766,2.695-39.092,6.898-57.217,13.539c-2.275,0.836-3.896-0.307-4.629-1.973c-2.246,0.488-4.502,0.943-6.748,1.436
			c-31.924,7.018-63.77,14.492-95.801,20.904c0.439,0.15,0.801,0.303,1.055,0.43c-1.504,1.865-7.236,6.318-22.363,10.303
			c-22.578,5.264-132.529,11.396-187.139,11.396c-22.109,0-27.1-1.025-28.096-1.338c-0.479-0.195-1.348-0.42-2.168-0.645
			c-37.188,0.893-78.11-9.092-113.462-15.771c-24.785-4.688-49.346-10.377-73.662-16.979c0.635,0.498,1.333,0.924,1.948,1.441
			c0.254,0.215,0.308,0.492,0.493,0.736c-23.076-5.102-46.47-8.275-69.966-9.473c-46.724-9.955-93.887-15.033-142.881-14.242
			c-31.963,0.512-75.283,3.154-113.608,14.857c-30.215,11.129-55.122,29.844-79.585,59.557c-1.465,3.139-2.939,6.27-4.048,9.678
			c-0.879,2.705-3.447,3.232-5.386,2.357c-1.763,2.35-3.525,4.713-5.293,7.184c-0.43,0.635-0.889,1.328-1.367,2.041
			c-0.713-3.037-1.396-6.23-1.943-8.76c-0.254-1.27-0.439-2.568-0.557-3.877c2.227-0.43,4.727-1.641,7.827-4.068
			c4.16-16.762,12.295-30.527,23.198-41.84l-0.439-0.918L5419.179,10617.953z"/>
		<path d="M5639.248,9197.66c0,9.004,34.004,90,47.002,112.002c2.002,4.004,2.002,7.002-1.006,7.002
			c-2.998,0-12.998-14.004-21.992-30.996c-24.004-47.002-45-111.006-34.004-104.004
			C5635.244,9184.662,5639.248,9192.66,5639.248,9197.66z"/>
		<path d="M6479.248,9287.66c0-6.992,5.996-25,14.004-38.994c6.992-15,21.992-44.004,31.992-65c35-72.002,33.008-47.998-1.992,30
			C6485.244,9297.66,6479.248,9306.664,6479.248,9287.66z"/>
		<path d="M6816.914,9244.594c-5.527,0-10.703-2.988-15.83-9.131c-11.709-13.662-35.566-62.119-36.787-72.1
			c1.338-2.363,6.943-9.658,16.65-20.342c21.221-24.238,67.402-48.691,98.887-52.393c2.041-0.313,3.789-0.459,5.42-0.459
			c0.01,0,0.01,0,0.01,0c6.885,0,11.611,2.5,14.443,7.646c7.207,13.105,2.373,45.449-24.688,88.174
			C6850.283,9225.434,6831.279,9244.594,6816.914,9244.594z M6886.318,9106.371c-1.953-3.359-5.977-7.354-14.043-7.354
			c-6.23,0-13.857,2.354-23.311,7.197c-15.176,8.096-36.963,23.525-47.559,36.25c-17.461,19.639-18.428,27.51-6.787,56.084
			c5.85,13.379,18.262,33.115,28.633,33.115c12.529,0,37.49-43.799,42.373-52.578
			C6886.25,9142.68,6893.222,9118.207,6886.318,9106.371z"/>
		<path d="M5260.244,9203.666c6.006,5.996,10,15.996,7.002,22.998c-2.002,5.996-7.002,7.998-10.996,4.004
			c-4.004-4.004-7.002-14.004-7.002-23.008C5249.248,9196.664,5252.246,9195.668,5260.244,9203.666z"/>
		<path d="M6889.248,9219.662c0-12.998,5-22.998,10-22.998c12.998,0,12.998,10.996,0,30
			C6891.25,9238.666,6889.248,9237.66,6889.248,9219.662z"/>
		<path d="M5346.933,9072.23c-6.475,3.232-10.186,4.443-13.564,3.73l20.732-25.117c7.588-9.863,20.146-27.354,20.146-35.176
			c0-14.453-41.172-34.268-55.693-34.268c-3.389,0-6.035,0.918-7.842,2.715c-5.068,7.441,1.055,36.094,4.717,48.916l10.674,37.813
			c-1.885-2.109-4.063-5-6.699-8.955c-16.543-26.787-23.135-64.932-17.91-81.055c0.791-2.432,2.236-5.557,4.658-6.553
			c2.715-0.928,6.396-1.445,10.664-1.445c12.949-0.01,30.059,4.805,44.658,12.549c13.828,7.344,22.773,16.084,22.773,22.275
			C5384.248,9033.793,5368.554,9060.941,5346.933,9072.23z"/>
		<path d="M6818.974,9074.457c-3.691,0-8.33-1.367-14.6-4.326c-17.197-8.594-33.613-36.553-36.729-55.771
			c-1.152-7.119-0.371-12.646,2.139-15.156c9.961-9.971,43.154-20.508,64.57-20.508c7.666,0,10.928,1.357,12.188,2.168
			c1.084,0.654,3.438,2.793,4.707,10.303c3.291,19.453-4.375,56.934-18.838,74.297
			C6826.777,9072.963,6822.978,9074.457,6818.974,9074.457z M6838.476,8986.43c-2.695-3.281-6.572-4.941-11.523-4.941
			c-7.002,0-16.553,3.301-30.986,10.723c-22.666,12.588-19.775,20.498-5.166,48.75c8.887,16.768,16.357,24.219,24.268,24.219
			c10.928,0,18.428-13.604,25.068-45.498C6843.662,9002.074,6843.164,8992.143,6838.476,8986.43z"/>
		<path d="M5207.46,8949.574l14.15-25.488c11.357-21.748,14.854-33.008-1.846-42.744c-20.625-13.203-40.029-12.871-47.168,0.059
			c-5.723,10.381-2.656,26.387,8.418,43.926l16.152,24.707c-9.287-2.061-17.227-10.928-22.207-25.039
			c-7.529-21.338-11.543-48.662,12.061-57.666c10.684-4.18,25.146-0.576,35.527,8.33c7.432,6.387,11.699,14.404,11.699,22.002
			C5234.248,8926.586,5221.474,8945.326,5207.46,8949.574z"/>
		<path d="M6951.796,8948.51c5.439,0,8.936-4.805,13.662-12.139c5.918-11.338,11.865-15.029,13.701-15.029
			c-0.176,0.361,0.068,4.512-4.346,13.018c-5.645,10.811-13.359,16.777-21.699,16.777c-6.572,0-13.154-3.701-19.043-10.693
			c-9.248-11.689-13.398-26.406-11.279-40.254c1.641-10.781,7.061-19.795,15.273-25.391c8.291-5.859,12.832-8.018,16.836-8.018
			c4.18,0,8.867,2.402,17.305,8.848c0.576,0.488,1.152,0.967,1.719,1.436c-1.738-0.391-3.604-0.82-5.557-1.27
			c-4.932-1.016-9.463-1.523-13.584-1.523c-14.99,0-22.021,6.465-25.283,11.885c-6.23,10.332-4.385,25.498,5.332,43.838
			C6941.757,8942.602,6945.673,8948.51,6951.796,8948.51z"/>
	</g>
</g>
</svg>
