<svg version="1.1" xmlns="http://www.w3.org/2000/svg" xmlns:xlink="http://www.w3.org/1999/xlink" x="0px" y="0px" width="1200px"
	 height="1600px" viewBox="0 0 1200 1600" enable-background="new 0 0 1200 1600" xml:space="preserve">
<g id="Layer_1">
	<g transform="translate(0.000000,1600.000000) scale(0.100000,-0.100000)">
		<path d="M5660,13230.999c-12.998-8.999-12.998-10,0-13.999c79.004-24.004,112.002-43.003,167.998-98.003
			c61.006-60,62.998-61.001,82.002-43.999c42.002,37.998,15,92.002-69.004,135C5794.003,13232.996,5682.998,13247,5660,13230.999z
			 M5815.937,13204.373c67.002-29.004,124.063-75.625,86.064-118.374c-4.004-2.002-37.002,23.999-74.004,60
			c-59.399,69.312-129.976,71.948-120.498,73.999C5724.37,13223.65,5790.41,13215.047,5815.937,13204.373z"/>
		<path d="M6335.996,13219.998c-53.994-21.001-115.996-75-115.996-100c0-13.999,34.004-60,45-60
			c2.002,0,32.998,28.999,67.998,63.999c52.002,51.001,75,66.001,116.006,77.002c27.998,6.997,50,17.998,47.998,22.998
			C6490.996,13243.997,6387.998,13240.999,6335.996,13219.998z M6391.25,13192.913c-21.689-11.27-42.246-21.914-74.248-54.917
			c-32.998-32.998-61.006-57.998-62.998-55c-3.008,2.002-26.357,42.876-3.164,68.691c50.059,55.698,180.752,68.477,203.75,67.476
			C6468.593,13219.163,6406.621,13200.901,6391.25,13192.913z"/>
		<path d="M6497.998,13149.998c-67.002-5-82.002-10-115-36.001c-67.002-55-95.996-99.995-102.998-158.999
			c-7.002-64.004,5-64.004,15,0c4.004,32.998,19.004,60.996,49.004,97.998c57.998,72.002,80.996,81.001,200.996,79.004
			c114.004-2.002,127.002-4.004,177.998-26.001c46.006-18.999,41.006-5-5.996,16.997
			C6669.003,13145.999,6587.001,13155.999,6497.998,13149.998z"/>
		<path d="M5495,13139.998c-37.998-8.999-85-27.998-85-32.998c0-3.003,30,3.999,67.998,13.999c80,21.001,209.004,20,262.998-3.003
			c45-20,97.002-91.997,122.002-167.998c15-50,17.002-50.996,12.002-15c-2.998,22.002-5,47.002-5,57.002
			c0,30-75.996,113.999-124.004,135.996c-36.992,18.003-62.998,22.002-132.998,21.001
			C5564.003,13147.996,5512.001,13143.997,5495,13139.998z"/>
		<path d="M6190,13082c0-25,25-57.002,37.998-49.004c15,10,4.004,41.001-18.994,55C6192.998,13097.996,6190,13097,6190,13082z"/>
		<path d="M5937.998,13078.997c-20.996-11.997-23.994-48.999-3.994-48.999c7.998,0,18.994,13.999,25,30
			C5970,13092,5965.996,13095.999,5937.998,13078.997z"/>
		<path d="M5444.003,12979.002c-34.004-4.004-80-17.002-103.008-28.008c-27.998-15-60-20.996-102.998-20.996
			c-52.002-0.996-60-2.998-42.998-12.002c10.996-5.996,22.002-13.994,25-17.998s30-19.004,60.996-32.998
			c44.004-21.006,60-35,74.004-64.004c10-20.996,20-42.002,22.002-45.996c2.998-5-2.998-7.998-12.998-7.002
			c-11.006,0.996-28.008,2.002-38.008,0.996c-41.992-1.992-8.994-12.998,203.008-66.992c80.996-20,116.992-24.004,160-19.004
			c67.998,7.002,122.998,24.004,132.998,39.004c15,21.992,7.998,27.998-14.004,13.994c-27.002-17.002-67.998-28.994-67.998-18.994
			c0,2.998,7.002,16.992,15.996,28.994c8.008,12.002,22.002,45,31.006,74.004l15,52.998L5820,12832
			c10.996-12.998,20.996-17.998,25-12.002c2.998,5,19.004,10,35,10c55,0,39.004,17.998-57.998,67.998
			C5672.998,12974.002,5572.001,12995.994,5444.003,12979.002z M5490,12887.996c0-45.996,20-130.996,39.004-165.996
			c13.994-26.006,11.992-26.006-36.006-7.002c-27.998,10.996-48.994,32.998-80,79.004c-57.998,86.992-55.996,112.998,12.998,125.996
			C5490.996,12932.996,5490,12932.996,5490,12887.996z M5590,12913.436c3.066-24.688-2.129-36.621,1.875-75.625
			c7.002-80.996,21.587-132.344,43.125-131.816c43.159,1.055,47.5,85.879,46.875,101.816c-0.43,10.996-22.188-3.75-34.873,16.191
			c-7.002,16.992,10.996,35.996,35,35.996c8.994,0,20.996,7.002,25,14.004c7.002,12.998,12.998,12.998,40.996-1.006
			c37.002-17.998,39.004-30,12.998-97.998c-30-80-50.996-95.996-115.996-94.004c-30,1.006-64.004,8.008-74.004,16.006
			c-32.998,22.002-56.992,123.994-51.992,215c0.996,12.998,7.998,15,27.998,12.002
			C5562.001,12920.994,5586.005,12915.438,5590,12913.436z"/>
		<path d="M6580,12982.996c-75-7.002-129.004-25.996-237.998-80c-107.998-55-124.004-72.002-65-72.998c12.002,0,25-5,28.994-10.996
			c4.004-8.008,13.008-4.004,25,11.992l18.008,24.004l10-27.998c5.996-16.006,10.996-34.004,10.996-40
			c0-7.002,7.998-25,17.998-42.002c10-15.996,21.006-37.998,25-47.002c5-15,2.998-15.996-20.996-5.996
			c-15,7.002-35,17.998-44.004,25.996c-15.996,14.004-17.998,12.998-17.998-5c0-15,10.996-22.002,47.998-30.996
			c100-25,130-25,230-2.002c152.002,35,235,62.002,222.002,70c-7.002,4.004-20.996,5-32.002,2.002
			c-17.002-4.004-18.994-1.006-12.998,18.994c10.996,38.008,39.004,73.008,70.996,88.008c16.006,6.992,47.002,25,69.004,40
			l40,25.996l-60,5.996c-32.998,3.008-85,15-115,26.006C6734.003,12977.996,6642.001,12989.998,6580,12982.996z M6774.003,12899.998
			c22.998-19.004,20.996-27.998-30-102.998c-32.002-47.002-58.008-72.002-82.002-82.998c-19.004-8.008-37.002-12.002-39.004-10
			c-2.998,1.992,2.998,18.994,12.998,36.992c9.004,18.008,19.004,63.008,21.006,99.004c2.998,35.996,5.996,70,7.998,75.996
			C6669.003,12929.998,6752.998,12917.996,6774.003,12899.998z M6635.996,12847.996c-8.994-100-33.994-152.998-75.996-162.002
			c-94.004-17.998-120-6.992-157.002,69.004c-37.002,75-37.002,92.998-0.996,115c17.998,10.996,35.996,20,38.994,20
			c4.004,0,10-19.004,13.008-42.998c3.994-22.998,13.564-63.164,25.381-94.087c11.816-30.903,22.91-46.46,37.607-45.918
			c14.131,0.522,25.508,14.653,32.178,48.003c5.244,26.201,7.715,41.665,6.875,56.25c-0.742,12.935-40.43,13.232-41.045,20.752
			c-0.781,9.487,8.203,19.81,19.063,21.436c12.363,1.855,26.865-5.273,26.865,2.715c0,9.766-1.709,53.848-2.021,59.004
			c-0.449,7.334,20.156,4.844,42.09,4.844h42.002L6635.996,12847.996z"/>
		<path d="M5210,12849.998c0-5,5-10,10.996-10c5,0,7.002,5,4.004,10c-2.998,5.996-7.998,10-10.996,10
			C5212.001,12859.998,5210,12855.994,5210,12849.998z"/>
		<path d="M6930,12849.998c0-5,7.002-7.002,15-4.004c7.998,4.004,15,8.008,15,10c0,2.002-7.002,4.004-15,4.004
			S6930,12855.994,6930,12849.998z"/>
	</g>
</g>
<g id="Layer_2">
	<ellipse fill="#FFFFFF" cx="567.401" cy="317.021" rx="3.789" ry="3.019"/>
	<ellipse fill="#FFFFFF" cx="654.119" cy="316.604" rx="4.406" ry="3.51"/>
</g>
</svg>
