<svg version="1.0" xmlns="http://www.w3.org/2000/svg"
 width="1200.000000pt" height="1600.000000pt" viewBox="0 0 1200.000000 1600.000000"
 preserveAspectRatio="xMidYMid meet">

<g transform="translate(0.000000,1600.000000) scale(0.100000,-0.100000)"
fill="#000000" stroke="none">
<path d="M6000 9472 c-123 -61 -130 -69 -219 -230 -89 -161 -261 -401 -380
-528 -38 -41 -91 -107 -117 -147 -47 -71 -144 -235 -144 -243 0 -2 -21 -48
-46 -101 -217 -455 -291 -1163 -176 -1673 101 -444 190 -770 245 -904 68 -163
140 -295 198 -361 26 -30 50 -69 54 -87 13 -62 46 -173 59 -198 7 -14 16 -38
20 -55 4 -16 14 -43 21 -60 7 -16 37 -93 65 -170 29 -77 62 -162 75 -190 43
-94 75 -166 75 -169 0 -3 25 -49 56 -103 68 -121 122 -179 185 -197 53 -16
119 -8 148 18 26 24 29 20 99 -149 9 -22 43 -94 77 -160 70 -140 100 -168 162
-154 21 4 48 19 59 33 22 25 47 123 59 226 4 36 14 66 29 85 l23 29 17 -27
c15 -22 23 -25 49 -20 97 17 128 96 162 413 9 85 18 166 20 180 31 198 39 269
49 445 3 39 7 106 10 150 4 44 10 145 16 225 5 80 14 159 21 175 20 51 58 190
78 285 47 227 104 536 137 750 3 19 26 136 51 260 40 203 45 243 50 410 8 293
-15 525 -78 767 -37 142 -52 179 -88 218 -26 28 -97 129 -130 185 -8 14 -57
95 -109 180 -52 85 -99 166 -105 180 -6 14 -21 41 -33 60 -11 19 -25 46 -29
60 -4 14 -15 36 -25 50 -9 14 -45 79 -80 145 -34 66 -85 149 -113 184 -59 74
-204 201 -229 201 -10 0 -40 9 -68 20 -70 28 -133 25 -200 -8z"/>
</g>
</svg>
