<svg version="1.0" xmlns="http://www.w3.org/2000/svg"
 width="1200.000000pt" height="1600.000000pt" viewBox="0 0 1200.000000 1600.000000"
 preserveAspectRatio="xMidYMid meet">

<g transform="translate(0.000000,1600.000000) scale(0.100000,-0.100000)"
fill="#000000" stroke="none">
<path d="M6147 9324 c-20 -11 -32 -12 -46 -4 -51 27 -135 4 -189 -51 -71 -72
-180 -270 -203 -366 -6 -26 -42 -111 -80 -188 -37 -77 -83 -183 -102 -235 -47
-128 -105 -339 -117 -425 -11 -83 -27 -187 -41 -270 -5 -33 -11 -73 -13 -90
-2 -16 -11 -57 -20 -91 -8 -33 -20 -114 -26 -180 -11 -126 -12 -412 -1 -454 4
-14 7 65 8 175 0 137 6 233 17 305 10 58 19 118 21 134 2 16 11 63 19 105 26
126 46 258 46 304 0 80 120 501 160 562 4 6 15 33 25 60 10 28 27 66 38 85 45
79 79 156 82 187 7 77 143 323 211 383 45 39 100 55 139 40 l30 -11 -27 -20
c-15 -11 -42 -41 -60 -67 -44 -61 -57 -87 -21 -42 41 52 109 120 120 120 20 0
113 -103 137 -152 14 -29 26 -45 26 -37 0 23 -55 111 -100 158 -22 24 -39 45
-38 46 17 14 69 20 98 13 84 -23 196 -191 245 -366 19 -67 42 -99 30 -41 -32
151 -135 336 -222 402 -42 31 -100 36 -146 11z"/>
<path d="M6505 9173 c10 -57 51 -134 87 -165 24 -21 28 -28 15 -28 -22 0 -22
-16 0 -24 15 -6 14 -8 -2 -20 -18 -13 -18 -14 3 -25 11 -6 31 -11 44 -11 16 0
29 -11 44 -38 11 -20 66 -119 122 -219 55 -100 125 -219 154 -265 30 -46 79
-124 109 -175 54 -91 83 -121 40 -40 -20 38 -21 39 -2 17 39 -48 105 -302 132
-505 14 -113 18 -437 6 -594 -4 -56 -16 -135 -27 -175 -27 -100 -68 -311 -160
-836 -22 -124 -53 -277 -68 -340 l-28 -115 -13 195 c-26 401 -66 724 -116 940
-19 81 -57 268 -85 420 -35 188 -61 313 -65 321 -3 4 -14 67 -25 140 -11 74
-25 157 -31 184 -6 28 -12 169 -14 315 -4 229 -7 275 -25 340 -11 41 -25 110
-31 153 -6 43 -17 95 -25 115 l-14 37 5 -63 c2 -34 8 -74 11 -87 5 -19 2 -25
-9 -25 -13 0 -12 -9 8 -54 30 -68 45 -176 45 -322 0 -63 4 -156 9 -207 6 -51
12 -122 15 -159 13 -144 69 -469 136 -778 86 -393 96 -450 105 -545 3 -38 15
-142 25 -230 10 -88 22 -214 26 -280 3 -66 8 -131 9 -145 12 -102 16 -434 6
-540 -6 -69 -13 -168 -16 -220 -3 -52 -10 -122 -15 -155 -10 -62 -35 -339 -45
-498 -11 -175 -40 -345 -73 -428 -13 -31 -58 -69 -83 -69 -37 0 -124 199 -169
386 -33 141 -59 380 -60 569 -1 80 -4 113 -10 98 -12 -30 -3 -295 15 -463 2
-19 7 -62 10 -95 8 -71 27 -153 59 -250 55 -167 55 -154 1 -444 -17 -90 -42
-121 -95 -121 -41 0 -55 12 -116 105 -107 163 -198 389 -258 640 -46 194 -70
297 -72 315 -2 8 -18 89 -37 180 -37 174 -52 272 -67 435 -6 55 -12 106 -15
113 -2 7 -7 34 -11 60 -3 26 -8 52 -11 57 -2 6 3 1 11 -9 9 -11 16 -27 16 -37
0 -9 18 -52 39 -95 41 -81 73 -112 134 -125 39 -9 33 7 -9 23 -61 22 -125 150
-177 358 -46 180 -148 748 -168 930 -36 332 -51 1061 -28 1345 6 72 10 145 9
163 -1 51 68 335 112 457 22 61 42 119 44 130 5 19 5 19 -10 1 -32 -39 -105
-273 -140 -447 -28 -138 -36 -220 -51 -539 -6 -127 -6 -796 0 -823 2 -12 12
-112 20 -222 9 -110 25 -243 35 -295 11 -52 22 -113 26 -135 5 -35 25 -156 40
-240 3 -16 14 -66 24 -110 11 -44 22 -112 26 -150 3 -39 8 -81 10 -95 2 -14 7
-50 10 -80 3 -30 9 -71 14 -90 5 -19 11 -57 14 -85 4 -27 13 -84 21 -125 8
-41 24 -140 35 -220 12 -80 28 -174 35 -210 14 -65 49 -260 60 -335 3 -22 7
-44 9 -50 1 -5 8 -30 15 -55 7 -25 26 -84 42 -132 29 -86 35 -133 21 -154 -12
-18 -76 -25 -113 -13 -49 17 -94 63 -150 155 -27 45 -49 84 -49 87 0 2 -20 47
-44 99 -25 52 -59 130 -76 174 -17 43 -35 88 -39 99 -39 89 -60 145 -144 390
-78 224 -163 694 -192 1055 -3 36 -10 117 -15 180 -5 63 -10 202 -10 309 0
107 -3 191 -7 187 -12 -11 -13 -33 -17 -306 -4 -208 0 -303 14 -445 27 -270
30 -298 35 -325 2 -14 7 -43 10 -66 12 -88 53 -320 60 -339 17 -45 -49 56 -85
130 -106 217 -151 340 -200 545 -28 113 -59 239 -70 280 -116 452 -140 733
-94 1130 32 280 109 582 197 774 13 28 37 83 53 121 15 39 31 72 35 75 3 3 17
25 29 50 40 78 127 206 192 281 35 39 74 85 87 102 23 28 23 29 3 18 -49 -26
-250 -288 -319 -414 -203 -374 -288 -663 -333 -1127 -12 -123 -6 -418 10 -540
32 -246 235 -1051 280 -1115 4 -5 11 -21 15 -35 13 -41 113 -239 147 -289 18
-25 42 -54 54 -64 21 -16 45 -70 49 -107 3 -30 39 -145 51 -165 6 -11 15 -33
19 -50 3 -16 13 -43 20 -60 7 -16 37 -93 65 -170 29 -77 62 -162 75 -190 13
-27 33 -72 45 -100 100 -229 199 -360 292 -389 54 -16 118 -8 147 18 23 21 19
26 70 -102 81 -202 155 -331 205 -354 44 -20 94 -7 132 35 32 35 54 110 69
235 3 30 11 62 17 72 11 17 13 17 31 -6 12 -16 25 -23 37 -19 10 3 27 8 38 10
86 16 124 121 157 425 9 85 18 166 20 180 31 200 39 276 50 455 2 39 6 104 10
145 3 41 9 141 15 221 5 81 15 163 24 185 34 90 71 248 120 504 49 260 67 357
92 520 3 19 26 136 52 260 l46 225 0 270 c0 322 -16 468 -76 685 -39 145 -51
173 -83 209 -17 20 -48 61 -68 91 -21 30 -40 60 -44 66 -5 5 -14 21 -22 35 -8
13 -57 93 -109 178 -51 85 -101 171 -111 190 -38 79 -146 257 -165 275 -12 10
-31 22 -42 26 -14 6 -29 30 -44 74 -26 72 -46 89 -35 29z m148 -250 c-7 -2
-21 -2 -30 0 -10 3 -4 5 12 5 17 0 24 -2 18 -5z m-796 -3345 c-3 -8 -6 -5 -6
6 -1 11 2 17 5 13 3 -3 4 -12 1 -19z"/>
<path d="M5945 9099 c-4 -6 -5 -12 -2 -15 2 -3 7 2 10 11 7 17 1 20 -8 4z"/>
<path d="M6286 8785 c11 -102 24 -141 18 -51 -3 44 -9 87 -15 95 -6 11 -7 -5
-3 -44z"/>
<path d="M5862 8785 c-7 -15 -11 -30 -8 -32 7 -7 28 36 24 49 -2 6 -9 -2 -16
-17z"/>
<path d="M6300 8408 c0 -105 -6 -212 -15 -273 -9 -55 -18 -134 -21 -175 -3
-41 -8 -78 -10 -81 -11 -19 -19 -419 -19 -1006 0 -584 3 -689 19 -672 2 2 6
333 10 734 3 402 9 798 12 880 5 126 29 335 50 435 3 15 2 20 -3 13 -4 -6 -8
61 -7 148 1 88 -3 162 -7 165 -5 3 -9 -73 -9 -168z"/>
<path d="M6246 6003 c8 -227 8 -183 0 -338 -8 -143 -18 -193 -47 -243 -26 -45
-24 -60 5 -33 13 13 28 39 32 59 4 21 8 39 9 42 0 3 7 16 14 29 11 19 14 79
13 260 -1 130 -4 245 -6 256 -2 11 -5 50 -5 88 -1 38 -5 67 -11 67 -7 0 -8
-62 -4 -187z"/>
<path d="M6325 5620 c4 -25 14 -70 22 -100 8 -30 16 -64 18 -74 8 -33 67 -209
85 -251 9 -22 20 -49 24 -59 3 -10 8 -17 11 -15 2 3 -10 43 -26 89 -17 47 -34
99 -39 115 -4 17 -13 46 -20 65 -6 19 -25 87 -41 150 -33 123 -46 153 -34 80z"/>
<path d="M6505 5073 c15 -36 25 -52 25 -41 0 11 -30 78 -35 78 -3 0 2 -17 10
-37z"/>
</g>
</svg>
