<svg version="1.0" xmlns="http://www.w3.org/2000/svg"
 width="1200.000000pt" height="1600.000000pt" viewBox="0 0 1200.000000 1600.000000"
 preserveAspectRatio="xMidYMid meet">

<g transform="translate(0.000000,1600.000000) scale(0.100000,-0.100000)"
fill="#000000" stroke="none">
<path d="M6106 9362 c-3 -5 -32 -12 -64 -14 -91 -9 -116 -27 -161 -116 -21
-42 -69 -129 -106 -192 -44 -74 -99 -193 -156 -336 -99 -251 -110 -296 -159
-664 -17 -129 -40 -298 -51 -375 -16 -112 -22 -226 -28 -561 -11 -529 -1 -865
28 -984 28 -112 27 -109 49 -103 15 3 21 17 26 54 4 27 11 47 15 45 5 -3 12
-54 16 -113 16 -239 139 -563 253 -666 20 -18 21 -18 60 18 l41 36 4 -38 c3
-33 4 -31 5 14 1 28 5 60 9 70 6 16 5 17 -13 3 -10 -8 -16 -11 -12 -6 4 4 3
18 -1 30 -5 12 -3 35 3 55 l12 34 12 -69 c7 -38 19 -121 28 -184 31 -229 144
-702 200 -838 l37 -91 27 14 c31 16 33 23 80 310 40 245 57 389 70 601 6 98
13 185 16 193 9 29 33 -11 40 -67 4 -31 10 -59 15 -62 4 -3 24 -53 43 -111 46
-141 76 -211 90 -206 6 2 10 12 8 22 -2 9 1 14 7 11 10 -6 15 13 26 94 3 25
33 178 65 340 104 520 102 501 90 868 -11 322 -29 587 -55 812 -8 69 -15 132
-15 140 0 12 -2 13 -9 1 -6 -8 -7 3 -4 30 3 24 -4 109 -16 189 -13 96 -22 220
-25 370 -2 124 -2 207 1 185 7 -64 23 -66 24 -5 1 79 6 54 24 -115 22 -213 39
-297 92 -448 95 -276 203 -500 253 -527 24 -13 50 1 50 27 0 7 9 31 20 53 16
32 20 59 20 148 0 180 -47 394 -175 797 -67 209 -67 211 -177 388 -104 170
-218 385 -218 413 0 7 -16 33 -35 59 -25 32 -43 73 -59 135 -39 144 -141 281
-236 315 -72 26 -77 27 -84 17z m33 -31 c10 -6 10 -10 1 -16 -15 -10 -62 3
-55 15 8 12 35 13 54 1z m-482 -2423 c-2 -13 -4 -5 -4 17 -1 22 1 32 4 23 2
-10 2 -28 0 -40z m40 -460 c-3 -7 -5 -2 -5 12 0 14 2 19 5 13 2 -7 2 -19 0
-25z m50 -280 c-3 -8 -6 -5 -6 6 -1 11 2 17 5 13 3 -3 4 -12 1 -19z m101 -500
c16 -62 17 -78 6 -82 -9 -3 -14 11 -19 52 -3 31 -9 71 -12 87 -10 56 5 21 25
-57z"/>
<path d="M5369 8408 c-48 -67 -184 -344 -213 -436 -33 -104 -61 -264 -80 -452
-24 -233 -29 -371 -16 -405 12 -29 12 -30 21 -7 4 12 13 22 19 22 12 0 13 -30
0 -50 -5 -9 -5 -19 2 -27 9 -11 15 -10 31 4 34 31 63 102 125 308 83 276 77
246 122 585 22 168 47 343 55 390 19 110 19 110 -10 110 -18 0 -34 -12 -56
-42z"/>
<path d="M6121 4393 c7 -12 15 -20 18 -17 3 2 -3 12 -13 22 -17 16 -18 16 -5
-5z"/>
</g>
</svg>
