<?xml version="1.0" encoding="utf-8"?>
<!-- Generator: Adobe Illustrator 16.0.0, SVG Export Plug-In . SVG Version: 6.00 Build 0)  -->
<!DOCTYPE svg PUBLIC "-//W3C//DTD SVG 1.1//EN" "http://www.w3.org/Graphics/SVG/1.1/DTD/svg11.dtd">
<svg version="1.1" xmlns="http://www.w3.org/2000/svg" xmlns:xlink="http://www.w3.org/1999/xlink" x="0px" y="0px" width="1200px"
	 height="1600px" viewBox="0 0 1200 1600" enable-background="new 0 0 1200 1600" xml:space="preserve">
<g id="Layer_1">
	<g transform="translate(0.000000,1600.000000) scale(0.100000,-0.100000)">
		<path d="M5859.003,13097c-47.002-32.002-44.004-69.004,10-119.004c70.996-67.002,120.996-60,120.996,16.006
			c0,39.995-17.002,74.995-52.002,108.994C5915.996,13125.999,5899.003,13123.997,5859.003,13097z M5922.001,13098.997
			c10.996-6.001,28.994-31.001,40-56.001c40.996-92.998-10-127.002-82.998-53.994c-46.006,44.995-49.004,71.997-13.008,99.995
			C5897.001,13112.996,5895,13112.996,5922.001,13098.997z"/>
		<path d="M6202.001,13085.999c-34.004-38.999-51.006-108.003-32.002-131.001c25.996-32.002,92.002-10.996,139.004,44.004
			c33.994,38.994,25.996,82.998-20,105.996C6247.998,13127,6235,13123.997,6202.001,13085.999z M6282.998,13094.998
			c27.002-11.001,40-41.001,27.002-65c-20.996-39.004-62.998-72.002-94.004-74.004c-30.996-0.996-30.996,0-30,46.006
			c0,37.998,6.006,53.999,28.008,76.997C6242.001,13107.996,6249.003,13109.998,6282.998,13094.998z"/>
		<path d="M5485.175,13033.196c-61.26-13.687-120.21-39.756-167.178-81.196c-17.002-15-38.994-25-57.026-25
			c-26.826,0-22.656-17.593-9.126-32.832c20.522-23.115,47.72-40.186,74.609-54.834c11.904-6.484,136.543-98.667,131.543-105.332
			c2.998,3.994-35,65-65.996,105.996c-15,19.004-17.002,30-9.004,47.002c12.002,27.002,76.006,57.998,140,67.002
			c0,0,46.987,6.992,47.002,6.992c-8.062-1.201,7.759-105.493,9.917-115.264c9.097-41.182,24.375-81.704,48.579-116.479
			c20.107-28.892,38.052-15.874,60.039,3.164c14.79,12.803,41.465,38.003,41.465,59.585c0,15-4.004,17.002-19.004,8.994
			c-10-5.996-25.996-21.992-35-35.996l-17.998-27.002L5640,12772c-9.004,17.998-20.996,65.996-25,105.996
			c-7.998,80-7.998,80,57.002,62.002c28.994-9.004,37.002-15.996,40-37.998c2.998-29.004,37.998-46.006,37.998-17.998
			c0,8.994,5,15.996,10,15.996c17.998,0,120.996-114.004,117.998-130c-2.002-7.998-32.002-30-65.996-47.998
			c-35-19.004-62.002-36.006-59.004-37.998c7.998-9.004,157.002,58.994,177.998,81.992c16.006,17.002,18.008,24.004,8.008,24.004
			c-8.008,0-30,24.004-49.004,52.002c-44.038,64.878-101.489,132.559-171.211,170.527c-48.774,26.558-105.82,35.19-160.771,31.26
			C5533.769,13042.059,5509.296,13038.587,5485.175,13033.196z"/>
		<path d="M6490.644,13028.162c-7.49-2.603-14.707-5.576-21.455-8.926c-84.57-42.031-153.701-110.371-209.189-186.24
			c-15.996-23.994-35-42.998-42.002-42.998c-5.996,0-0.996-10.996,12.002-25c22.002-24.004,167.002-90.996,177.002-82.002
			c2.002,2.998-25,20-61.006,37.002c-35.996,17.998-65.996,39.004-65.996,45.996c0,17.002,50.996,75,102.002,115l31.66,25.986
			c0.313-3.857-2.705-92.651,34.668-144.902c13.33-18.638,47.09-53.75,59.229-50.552c24.883,6.553,50.02,60.049,58.438,82.476
			c6.006,15.996,5,16.992-13.994,6.992c-12.002-5.996-27.998-22.998-35-36.992c0,0-8.652-24.805-8.672-24.839
			c0.557,1.03-38.047,53.374-40.41,60.61c-8.35,25.557-25.771,113.506-6.045,124.6c10,5.625,20.313,7.705,45.127,14.629
			c37.002,10.996,42.998,6.992,42.998-31.006c0-20.996,5-27.998,19.004-27.998c21.992,0,35,27.998,25,54.004
			c-5,12.998,0,15.996,25,15.996c43.994,0,137.998-37.998,155-62.002c13.994-18.994,12.998-23.994-6.006-52.002
			c-12.002-16.992-35-45.996-50.996-62.998c-40-42.998-30-52.002,13.994-13.994c46.064,39.8,100.576,66.426,149.375,102.319
			c13.262,9.751,27.471,20.132,37.803,33.091c13.564,17.012,11.367,25.718-10.176,20.586c-20.996-5-33.994,0.996-65,27.998
			c-74.287,64.692-192.422,107.178-291.27,98.096C6532.041,13039.28,6510.41,13035.018,6490.644,13028.162z"/>
	</g>
</g>
<g id="Layer_2">
	<ellipse fill="#FFFFFF" cx="569.888" cy="315.836" rx="6.362" ry="4.287"/>
	<ellipse fill="#FFFFFF" cx="654.805" cy="315.175" rx="6.361" ry="4.287"/>
</g>
</svg>
