<?xml version="1.0" standalone="no"?>
<!DOCTYPE svg PUBLIC "-//W3C//DTD SVG 20010904//EN"
 "http://www.w3.org/TR/2001/REC-SVG-20010904/DTD/svg10.dtd">
<svg version="1.0" xmlns="http://www.w3.org/2000/svg"
 width="1200.000000pt" height="1600.000000pt" viewBox="0 0 1200.000000 1600.000000"
 preserveAspectRatio="xMidYMid meet">

<g transform="translate(0.000000,1600.000000) scale(0.100000,-0.100000)"
fill="#000000" stroke="none">
<path d="M5863 13100 c-49 -29 -46 -69 9 -121 33 -31 49 -39 72 -37 16 2 33
10 39 19 17 27 -2 90 -38 126 -39 39 -40 39 -82 13z"/>
<path d="M6210 13089 c-34 -34 -43 -61 -38 -110 3 -30 7 -34 36 -37 28 -3 40
4 78 41 50 50 54 74 21 106 -37 34 -63 34 -97 0z"/>
</g>
</svg>
