<svg version="1.1" xmlns="http://www.w3.org/2000/svg" xmlns:xlink="http://www.w3.org/1999/xlink" x="0px" y="0px" width="1200px"
	 height="1600px" viewBox="0 0 1200 1600" enable-background="new 0 0 1200 1600" xml:space="preserve">
<g id="Layer_2">
	<g transform="translate(0.000000,1600.000000) scale(0.100000,-0.100000)" opacity="0.5">
		<path fill="#FFFFFF" d="M6020,12405.994c-19.004-5.996-39.004-13.994-45-17.998c-17.002-10.996-129.004-40-155-40
			c-37.998,0-182.998,12.998-197.002,17.002c-22.998,7.998-13.994-2.002,60-57.998c39.004-31.006,110-94.004,157.002-141.006
			c45.996-46.992,90-85.996,97.002-85.996c5.996,0,23.994-10.996,40-24.004c25.996-21.992,37.998-23.994,105-22.998
			c63.994,2.002,80,6.006,100,25c13.994,12.002,30,22.002,37.002,22.002c6.992,0,65,50.996,130,112.998
			c63.994,62.998,137.998,126.006,163.994,141.006c49.004,28.994,60,40.996,30,31.992c-10-1.992-57.998-7.998-107.998-10.996
			c-49.004-4.004-92.998-9.004-97.002-10.996c-2.998-2.002-38.994,7.998-80,21.992
			C6087.998,12425.994,6082.001,12427,6020,12405.994z"/>
	</g>
</g>
<g id="Layer_1">
	<g transform="translate(0.000000,1600.000000) scale(0.100000,-0.100000)">
		<path d="M6044.716,12433.791c-20.947-7.191-41.963-19.975-61.001-26.211c-34.888-11.426-71.221-18.5-105.259-32.543
			c-24.707-10.191-44.922-13.594-71.04-11.158c-25.249,2.354-50.43,2.344-75.659,5.557c-51.001,6.484-102.519,11.084-152.7,22.818
			c-10.845,2.533-32.153,4.443-40.054,13.74c-15,18.008-29.004,18.008-29.004-0.996c0-16.748,39.81-33.154,51.079-39.014
			c28.613-14.873,57.051-29.566,83.999-47.383c15.635-10.332,30.806-21.49,45.464-33.164
			c70.015-55.768,129.995-124.053,200.454-180.078c21.074-16.758,42.471-33.096,63.892-49.395
			c36.812-28.008,78.345-48.271,125.679-45.963c31.963,1.563,64.16,9.814,92.646,24.453c25.693,13.203,51.465,31.012,72.783,50.543
			c12.002,10.996,64.004,59.004,115,105.996c35.908,33.236,71.826,66.488,108.857,98.48c35.537,30.719,71.045,55.924,115.508,71.699
			c7.09,2.516,88.262,37.408,66.641,51.822c-6.006,4.004-17.002,1.006-24.004-7.002c-12.998-12.998-48.994-20-162.998-30.996
			c-27.002-2.998-70-7.002-95-10c-35.996-5-70,2.002-167.998,35c-66.992,21.996-125.986,38.998-130,39.004
			C6063.036,12439.012,6053.886,12436.936,6044.716,12433.791z M6020.624,12367.811c-5-12.002-46.621-204.814-56.621-234.814
			c-2.002-7.002-7.002-12.998-11.006-12.998c-17.002,0-72.998,97.998-85,147.998c-18.701,86.875,55.527,96.039,82.998,106.006
			C6024.999,12400.994,6027.626,12384.813,6020.624,12367.811z M6190.995,12379.002c38.008-12.002,83.096-24.811,95.264-33.59
			c22.168-15.996,7.314-50.645-5.264-91.41c-12.598-40.826-32.998-82.002-51.992-102.002c-17.002-19.004-32.002-32.002-33.008-30
			c-1.992,0.996-17.998,52.998-35.996,112.998c-17.998,60.996-29.404,150.938-19.404,150.938
			C6146.601,12385.936,6152.997,12390.994,6190.995,12379.002z M6107.001,12327.996c20-42.002,30-67.998,37.998-105
			c2.002-10,9.004-33.994,14.004-52.998c20-62.998,13.994-95.996-16.006-107.998c-40.996-16.006-72.998-17.002-120-2.998
			c-50,13.994-50.996,20.996-27.002,115c28.008,112.998,64.004,195.996,83.008,195.996
			C6082.997,12369.998,6095.995,12350.994,6107.001,12327.996z M5714.999,12339.162c0-7.998-4.165-37.705-0.21-48.539
			c1.885-5.166-41.621,32.836-45.625,40.834c-0.981,2.945-8.394,15.732-4.58,16.25c12.29,1.666,24.355,2.291,30.415,2.291
			C5702.997,12349.998,5714.999,12347.16,5714.999,12339.162z M5816.601,12338.41c2.002-2.002,12.402-17.416,6.396-26.41
			c-5.996-10-13.994-32.002-17.998-50c-4.585-20.928-1.416-29.098-0.938-45.439c0.083-2.813-11.777,3.857-20.938,12.813
			c-16.45,16.074-61.123,98.623-46.123,114.629C5744.003,12350.994,5806.601,12347.414,5816.601,12338.41z M6417.001,12337.996
			c13.994-17.998-2.002-70-27.002-92.998c-10.176-9.098-24.375-20.586-24.219-15.938c0.137,4.008-1.133,13.916-5.781,26.934
			c-5,16.006-15,37.002-20,46.006c-19.004,33.994-15,37.002,55.996,47.002
			C6402.001,12349.002,6412.001,12344.002,6417.001,12337.996z M6474.003,12327.996c-10-12.998-25.352-31.309-26.348-33.311
			c-1.006-2.002,2.344,16.309,0.342,30.313c-5,20.996-2.002,25,20,25C6492.997,12349.998,6492.997,12349.998,6474.003,12327.996z
			 M5875.995,12199.998l35-72.998l-42.998,35c-35,28.994-42.998,42.002-43.994,68.994c-0.63,21.875,15.225,81.996,16.934,75.879
			c1.929-6.9,2.466-24.332,8.438-44.688C5853.656,12247.586,5857.001,12239.998,5875.995,12199.998z M6339.999,12229.002
			c-1.074-19.971-10.996-38.008-35.996-61.006c-54.004-50-66.006-55-50-20.996c6.992,15,22.998,50.996,35.996,80
			c13.037,28.125,24.59,57.578,27.51,72.578C6318.153,12302.863,6342.089,12267.912,6339.999,12229.002z"/>
	</g>
</g>
</svg>
