<svg width="2400" height="3200" xmlns="http://www.w3.org/2000/svg" viewBox="0 0 2400 3200"><path d="M 894.34 2153.7 C 893.7 2153.92 892.21 2153.07 891.02 2151.8 C 889.84 2150.54 888.14 2147.93 887.26 2146.0 C 886.37 2144.07 884.86 2141.36 883.9 2139.96 C 882.95 2138.56 881.46 2134.72 880.61 2131.42 C 879.75 2128.12 878.11 2120.71 876.95 2114.96 C 875.8 2109.21 874.4 2101.8 873.84 2098.5 C 873.29 2095.2 872.43 2088.68 871.94 2084.0 C 871.46 2079.32 870.59 2064.25 870.02 2050.5 C 869.44 2036.75 868.81 2023.25 868.61 2020.5 C 868.41 2017.75 867.8 2014.38 867.25 2013.0 C 866.65 2011.51 866.37 2002.01 866.55 1989.5 C 866.72 1977.95 867.14 1963.1 867.48 1956.5 C 867.81 1949.9 868.31 1940.9 868.58 1936.5 C 868.85 1932.1 869.26 1926.25 869.48 1923.5 C 869.7 1920.75 870.13 1913.84 870.45 1908.15 C 870.76 1902.45 871.32 1897.3 871.69 1896.7 C 872.06 1896.1 872.51 1892.88 872.68 1889.55 C 872.86 1886.22 873.18 1882.15 873.39 1880.5 C 873.61 1878.85 874.32 1873.45 874.99 1868.5 C 875.65 1863.55 876.36 1857.7 876.58 1855.5 C 876.8 1853.3 877.44 1849.47 877.99 1847.0 C 878.55 1844.53 879.17 1840.47 879.37 1838.0 C 879.57 1835.53 880.25 1829.9 880.89 1825.5 C 881.53 1821.1 882.5 1815.47 883.04 1813.0 C 883.58 1810.53 884.67 1804.45 885.47 1799.5 C 886.27 1794.55 887.8 1786.22 888.88 1781.0 C 889.96 1775.78 891.74 1767.45 892.85 1762.5 C 893.95 1757.55 895.82 1749.22 897.0 1744.0 C 898.18 1738.78 899.57 1732.47 900.09 1730.0 C 900.6 1727.53 902.15 1720.78 903.53 1715.0 C 904.91 1709.22 906.44 1703.15 906.94 1701.5 C 907.44 1699.85 908.37 1695.8 909.02 1692.5 C 909.67 1689.2 910.58 1685.6 911.03 1684.5 C 911.49 1683.4 912.8 1679.12 913.93 1675.0 C 915.07 1670.88 917.09 1663.67 918.42 1659.0 C 919.74 1654.33 921.14 1649.6 921.52 1648.5 C 921.9 1647.4 923.07 1644.59 924.11 1642.26 C 925.15 1639.93 926.0 1637.43 926.0 1636.7 C 926.0 1635.97 926.9 1633.51 928.0 1631.24 C 929.1 1628.96 930.0 1626.62 930.0 1626.03 C 930.0 1625.44 931.12 1621.76 932.48 1617.85 C 933.85 1613.94 935.4 1610.22 935.93 1609.58 C 936.46 1608.94 938.3 1604.61 940.01 1599.96 C 941.72 1595.31 944.18 1589.25 945.49 1586.5 C 946.79 1583.75 949.69 1577.55 951.93 1572.73 C 954.17 1567.91 956.0 1563.64 956.0 1563.25 C 956.0 1562.85 957.38 1559.6 959.06 1556.02 C 960.75 1552.43 963.0 1547.7 964.07 1545.5 C 965.13 1543.3 966.0 1541.1 966.0 1540.62 C 966.0 1540.13 969.6 1532.46 974.0 1523.56 C 978.4 1514.66 982.0 1506.62 982.0 1505.68 C 982.0 1504.74 982.4 1503.19 982.89 1502.24 C 983.38 1501.28 984.71 1496.45 985.84 1491.5 C 986.97 1486.55 988.42 1479.8 989.05 1476.5 C 989.68 1473.2 990.8 1468.25 991.54 1465.5 C 992.27 1462.75 993.82 1457.35 994.99 1453.5 C 996.15 1449.65 997.49 1445.15 997.97 1443.5 C 998.44 1441.85 999.94 1437.58 1001.29 1434.0 C 1002.64 1430.42 1005.62 1423.45 1007.91 1418.5 C 1010.2 1413.55 1015.04 1403.65 1018.67 1396.5 C 1022.3 1389.35 1026.27 1382.15 1027.49 1380.5 C 1028.71 1378.85 1030.03 1376.49 1030.42 1375.25 C 1030.81 1374.01 1031.47 1373.0 1031.88 1373.0 C 1032.29 1373.0 1033.24 1371.42 1034.0 1369.5 C 1034.76 1367.58 1035.7 1366.0 1036.11 1366.0 C 1036.51 1366.0 1037.36 1364.42 1038.0 1362.5 C 1038.64 1360.58 1039.5 1359.0 1039.92 1359.0 C 1040.34 1359.0 1041.23 1357.76 1041.9 1356.25 C 1042.57 1354.74 1045.23 1350.22 1047.81 1346.22 C 1050.39 1342.22 1055.82 1334.2 1059.88 1328.4 C 1063.93 1322.6 1068.09 1317.33 1069.13 1316.69 C 1070.16 1316.05 1071.0 1315.19 1071.0 1314.78 C 1071.0 1314.37 1073.92 1311.11 1077.5 1307.54 C 1081.08 1303.96 1084.0 1300.69 1084.0 1300.27 C 1084.0 1299.85 1085.69 1297.69 1087.75 1295.47 C 1089.81 1293.25 1093.5 1289.99 1095.95 1288.22 C 1098.39 1286.45 1100.76 1285.0 1101.21 1285.0 C 1101.65 1285.0 1097.96 1289.0 1093.0 1293.89 C 1086.63 1300.17 1084.16 1303.26 1084.6 1304.4 C 1084.94 1305.29 1084.55 1307.02 1083.73 1308.26 C 1082.9 1309.49 1081.39 1311.47 1080.37 1312.65 C 1079.34 1313.84 1077.49 1316.09 1076.25 1317.65 C 1075.01 1319.22 1072.8 1321.99 1071.35 1323.82 C 1069.89 1325.65 1067.39 1329.02 1065.79 1331.32 C 1064.18 1333.62 1061.39 1337.75 1059.58 1340.5 C 1057.78 1343.25 1055.1 1347.53 1053.64 1350.0 C 1052.18 1352.47 1050.05 1356.3 1048.92 1358.5 C 1047.78 1360.7 1046.32 1363.41 1045.67 1364.52 C 1045.03 1365.63 1043.38 1368.08 1042.0 1369.96 C 1040.62 1371.84 1037.84 1376.33 1035.81 1379.94 C 1033.78 1383.55 1029.0 1392.66 1025.2 1400.18 C 1021.39 1407.7 1017.53 1415.73 1016.61 1418.01 C 1015.7 1420.3 1014.55 1424.72 1014.05 1427.83 C 1013.56 1430.95 1011.98 1436.88 1010.55 1441.0 C 1009.12 1445.12 1007.53 1449.4 1007.01 1450.5 C 1006.5 1451.6 1005.35 1454.97 1004.47 1458.0 C 1003.58 1461.03 1002.16 1465.08 1001.31 1467.0 C 1000.45 1468.92 999.36 1473.65 998.88 1477.5 C 998.4 1481.35 997.34 1488.33 996.53 1493.0 C 995.71 1497.67 994.37 1505.55 993.55 1510.5 C 992.72 1515.45 992.03 1520.96 992.02 1522.75 C 992.01 1524.54 991.57 1526.0 991.05 1526.0 C 990.52 1526.0 989.8 1524.42 989.43 1522.5 C 989.07 1520.58 988.21 1519.0 987.52 1519.0 C 986.76 1519.0 985.99 1521.01 985.59 1524.03 C 985.22 1526.8 984.5 1528.81 983.98 1528.49 C 983.46 1528.16 981.67 1530.7 980.02 1534.13 C 978.36 1537.55 977.0 1540.71 977.0 1541.15 C 977.0 1541.58 975.88 1544.4 974.5 1547.41 C 973.12 1550.41 972.0 1553.08 972.0 1553.34 C 972.0 1553.59 970.18 1557.78 967.95 1562.65 C 965.73 1567.52 963.38 1572.62 962.75 1574.0 C 962.11 1575.38 961.05 1577.17 960.39 1578.0 C 959.73 1578.83 956.85 1585.35 953.99 1592.5 C 951.14 1599.65 947.95 1607.41 946.9 1609.74 C 945.86 1612.07 945.0 1614.44 945.0 1615.0 C 945.0 1615.57 944.58 1616.81 944.07 1617.76 C 943.56 1618.72 941.58 1623.55 939.68 1628.5 C 937.78 1633.45 935.63 1639.3 934.9 1641.5 C 934.18 1643.7 933.54 1645.72 933.49 1646.0 C 933.44 1646.28 931.47 1652.58 929.11 1660.0 C 926.75 1667.42 924.41 1674.28 923.91 1675.24 C 923.41 1676.19 923.0 1678.1 923.0 1679.49 C 923.0 1680.87 922.55 1682.0 922.0 1682.0 C 921.45 1682.0 921.0 1683.83 921.0 1686.06 C 921.0 1688.3 920.58 1689.86 920.07 1689.54 C 919.56 1689.23 918.86 1689.88 918.5 1690.99 C 918.15 1692.09 918.15 1693.9 918.5 1695.0 C 918.86 1696.15 918.68 1697.0 918.07 1697.0 C 917.48 1697.0 917.0 1698.26 917.0 1699.8 C 917.0 1701.34 916.48 1703.12 915.85 1703.75 C 915.22 1704.38 914.35 1706.84 913.92 1709.2 C 913.5 1711.57 912.18 1717.33 911.01 1722.0 C 909.83 1726.67 908.49 1732.08 908.03 1734.0 C 907.57 1735.92 906.71 1739.97 906.13 1743.0 C 905.54 1746.03 904.82 1749.85 904.52 1751.5 C 904.22 1753.15 903.74 1756.97 903.44 1760.0 C 903.15 1763.03 902.06 1768.88 901.03 1773.0 C 900.0 1777.12 898.87 1782.3 898.51 1784.5 C 898.16 1786.7 897.67 1789.62 897.42 1791.0 C 897.18 1792.38 896.57 1795.97 896.07 1799.0 C 895.57 1802.03 894.43 1807.88 893.53 1812.0 C 892.63 1816.12 891.72 1821.97 891.5 1825.0 C 891.28 1828.03 890.63 1833.42 890.06 1837.0 C 889.49 1840.58 888.77 1846.88 888.44 1851.0 C 888.12 1855.12 887.62 1860.3 887.33 1862.5 C 887.04 1864.7 886.41 1870.33 885.94 1875.0 C 885.47 1879.67 884.83 1886.88 884.51 1891.0 C 884.19 1895.12 883.76 1900.08 883.55 1902.0 C 883.34 1903.92 882.86 1909.33 882.49 1914.0 C 882.12 1918.67 881.69 1925.65 881.53 1929.5 C 881.37 1933.35 880.69 1947.97 880.02 1962.0 C 879.35 1976.03 878.8 1999.95 878.8 2015.18 C 878.79 2030.4 879.06 2043.28 879.38 2043.81 C 879.71 2044.33 880.17 2054.83 880.4 2067.13 C 880.64 2079.43 881.32 2092.2 881.92 2095.5 C 882.52 2098.8 883.43 2103.75 883.94 2106.5 C 884.45 2109.25 885.32 2113.3 885.87 2115.5 C 886.42 2117.7 887.35 2121.19 887.93 2123.25 C 888.52 2125.31 889.4 2128.46 889.89 2130.25 C 890.38 2132.04 891.54 2135.25 892.46 2137.39 C 893.38 2139.52 894.37 2143.17 894.66 2145.48 C 894.94 2147.8 895.25 2150.51 895.34 2151.49 C 895.43 2152.48 894.98 2153.47 894.34 2153.7 Z M 1062.61 2149.0 C 1062.12 2149.0 1062.02 2146.01 1062.39 2142.25 C 1062.76 2138.54 1063.46 2130.78 1063.96 2125.0 C 1064.46 2119.22 1065.18 2112.81 1065.57 2110.75 C 1065.99 2108.49 1066.83 2107.0 1067.69 2107.0 C 1068.48 2107.0 1068.86 2106.58 1068.54 2106.07 C 1068.23 2105.56 1068.71 2103.42 1069.62 2101.32 C 1070.53 2099.22 1071.62 2096.6 1072.05 2095.5 C 1072.47 2094.4 1073.17 2092.6 1073.6 2091.5 C 1074.03 2090.4 1074.42 2089.0 1074.46 2088.39 C 1074.5 2087.77 1075.01 2086.65 1075.6 2085.89 C 1076.18 2085.12 1077.24 2082.93 1077.94 2081.0 C 1078.64 2079.07 1079.81 2076.15 1080.55 2074.5 C 1081.28 2072.85 1083.09 2068.35 1084.56 2064.5 C 1086.03 2060.65 1088.27 2054.57 1089.54 2051.0 C 1090.8 2047.42 1092.8 2042.03 1093.98 2039.0 C 1095.16 2035.97 1098.81 2026.08 1102.09 2017.0 C 1105.37 2007.92 1108.94 1998.58 1110.03 1996.22 C 1111.11 1993.87 1112.0 1991.34 1112.0 1990.61 C 1112.0 1989.87 1112.96 1986.84 1114.12 1983.88 C 1115.29 1980.92 1116.82 1977.15 1117.53 1975.5 C 1118.24 1973.85 1119.5 1970.25 1120.34 1967.5 C 1121.18 1964.75 1123.3 1958.67 1125.05 1954.0 C 1126.8 1949.33 1128.75 1943.61 1129.4 1941.3 C 1130.04 1938.99 1130.89 1936.78 1131.28 1936.38 C 1131.68 1935.99 1132.0 1934.8 1132.0 1933.74 C 1132.0 1932.68 1132.79 1930.39 1133.75 1928.65 C 1134.71 1926.92 1135.84 1925.35 1136.25 1925.17 C 1136.66 1924.98 1137.0 1923.13 1137.0 1921.04 C 1137.0 1918.95 1137.64 1916.71 1138.43 1916.06 C 1139.21 1915.41 1140.61 1912.32 1141.53 1909.19 C 1142.45 1906.06 1143.58 1902.6 1144.05 1901.5 C 1144.52 1900.4 1146.27 1895.56 1147.93 1890.75 C 1149.59 1885.94 1150.71 1882.0 1150.42 1882.0 C 1150.12 1882.0 1150.57 1880.76 1151.41 1879.25 C 1152.24 1877.74 1154.53 1870.65 1156.5 1863.5 C 1158.47 1856.35 1160.48 1849.6 1160.97 1848.5 C 1161.46 1847.4 1162.08 1845.15 1162.34 1843.5 C 1162.6 1841.85 1163.53 1838.03 1164.41 1835.0 C 1165.3 1831.97 1167.16 1824.1 1168.55 1817.5 C 1169.94 1810.9 1171.25 1804.83 1171.46 1804.0 C 1171.66 1803.17 1172.35 1800.47 1172.98 1798.0 C 1173.61 1795.53 1174.73 1790.12 1175.47 1786.0 C 1176.21 1781.88 1177.05 1777.83 1177.33 1777.0 C 1177.62 1776.17 1178.1 1772.99 1178.39 1769.92 C 1178.69 1766.86 1179.16 1763.71 1179.45 1762.92 C 1179.74 1762.14 1180.47 1758.35 1181.08 1754.5 C 1181.69 1750.65 1182.56 1745.25 1183.01 1742.5 C 1183.46 1739.75 1184.16 1735.59 1184.55 1733.25 C 1184.94 1730.91 1185.71 1729.0 1186.26 1729.0 C 1186.85 1729.0 1187.02 1727.51 1186.67 1725.35 C 1186.34 1723.35 1186.35 1719.72 1186.69 1717.28 C 1187.02 1714.85 1187.61 1713.37 1188.0 1714.0 C 1188.39 1714.64 1188.71 1712.62 1188.71 1709.53 C 1188.71 1706.43 1189.19 1702.91 1189.76 1701.7 C 1190.34 1700.49 1191.76 1691.17 1192.92 1681.0 C 1194.08 1670.83 1195.03 1660.88 1195.02 1658.9 C 1195.01 1656.71 1194.29 1654.67 1193.17 1653.65 C 1192.17 1652.74 1191.03 1652.0 1190.65 1652.0 C 1190.27 1652.0 1186.44 1649.82 1182.14 1647.14 C 1177.83 1644.47 1172.33 1640.14 1169.9 1637.52 C 1167.48 1634.9 1163.32 1629.77 1160.65 1626.13 C 1157.98 1622.48 1154.73 1617.4 1153.42 1614.83 C 1152.11 1612.26 1149.87 1608.43 1148.43 1606.33 C 1146.99 1604.22 1142.71 1596.1 1138.91 1588.28 C 1135.11 1580.46 1132.0 1573.56 1132.0 1572.95 C 1132.0 1572.34 1130.39 1567.94 1128.42 1563.17 C 1126.45 1558.4 1124.47 1553.79 1124.02 1552.93 C 1123.57 1552.07 1123.43 1550.2 1123.7 1548.77 C 1123.97 1547.35 1123.3 1543.56 1122.19 1540.34 C 1121.09 1537.13 1119.91 1532.12 1119.56 1529.21 C 1119.21 1526.3 1118.47 1522.92 1117.91 1521.7 C 1117.35 1520.48 1115.57 1518.72 1113.95 1517.79 C 1112.33 1516.85 1111.0 1515.62 1111.0 1515.05 C 1111.0 1514.47 1111.67 1514.0 1112.5 1514.0 C 1113.33 1514.0 1114.0 1513.79 1114.0 1513.52 C 1114.0 1513.26 1112.71 1510.67 1111.14 1507.77 C 1109.57 1504.87 1107.09 1500.73 1105.62 1498.57 C 1104.15 1496.41 1102.67 1493.49 1102.33 1492.07 C 1101.99 1490.66 1100.62 1487.3 1099.27 1484.62 C 1097.93 1481.94 1096.61 1478.79 1096.34 1477.62 C 1096.07 1476.45 1095.38 1471.22 1094.8 1466.0 C 1094.02 1458.91 1094.07 1454.6 1094.98 1449.0 C 1095.66 1444.88 1096.8 1440.37 1097.51 1438.99 C 1098.22 1437.6 1099.13 1434.34 1099.52 1431.72 C 1099.91 1429.11 1100.63 1426.73 1101.12 1426.43 C 1101.6 1426.13 1101.99 1426.25 1101.98 1426.69 C 1101.96 1427.14 1101.5 1429.3 1100.94 1431.5 C 1100.39 1433.7 1099.49 1438.2 1098.94 1441.5 C 1098.39 1444.8 1097.69 1451.0 1097.37 1455.28 C 1097.03 1459.84 1097.3 1465.85 1098.02 1469.78 C 1098.7 1473.48 1099.81 1477.17 1100.48 1478.0 C 1101.16 1478.83 1105.04 1485.49 1109.1 1492.82 C 1113.17 1500.15 1117.55 1508.02 1118.83 1510.32 C 1120.12 1512.62 1121.75 1515.17 1122.46 1516.0 C 1123.16 1516.83 1124.43 1519.08 1125.26 1521.0 C 1126.1 1522.92 1127.44 1526.63 1128.25 1529.23 C 1129.54 1533.4 1129.54 1534.22 1128.23 1536.08 C 1127.03 1537.79 1126.55 1537.94 1125.78 1536.85 C 1125.06 1535.84 1124.96 1535.97 1125.41 1537.33 C 1125.73 1538.34 1126.0 1539.58 1126.0 1540.08 C 1126.0 1540.59 1126.62 1541.0 1127.38 1541.0 C 1128.13 1541.0 1129.09 1542.46 1129.5 1544.25 C 1129.92 1546.04 1130.39 1547.95 1130.54 1548.5 C 1130.7 1549.05 1131.73 1552.26 1132.84 1555.63 C 1133.94 1559.0 1135.79 1563.95 1136.95 1566.63 C 1138.12 1569.31 1139.55 1572.35 1140.14 1573.4 C 1140.72 1574.44 1142.23 1578.04 1143.5 1581.4 C 1144.76 1584.75 1147.37 1590.88 1149.29 1595.0 C 1151.21 1599.12 1152.95 1602.95 1153.14 1603.5 C 1153.34 1604.05 1155.29 1607.65 1157.48 1611.5 C 1159.66 1615.35 1162.36 1619.61 1163.48 1620.96 C 1164.59 1622.31 1167.72 1625.81 1170.42 1628.74 C 1173.13 1631.67 1178.76 1636.39 1182.92 1639.23 C 1187.09 1642.08 1193.47 1645.62 1197.1 1647.1 C 1202.75 1649.41 1205.27 1649.82 1214.41 1649.92 C 1221.44 1650.0 1226.54 1649.55 1229.3 1648.6 C 1231.61 1647.8 1235.3 1646.39 1237.5 1645.46 C 1239.7 1644.53 1243.86 1642.2 1246.75 1640.29 C 1249.64 1638.37 1254.27 1634.77 1257.04 1632.27 C 1259.81 1629.78 1264.0 1625.21 1266.35 1622.12 C 1268.7 1619.03 1271.76 1614.47 1273.16 1612.0 C 1274.56 1609.53 1278.08 1602.33 1280.98 1596.0 C 1283.88 1589.67 1286.61 1583.6 1287.05 1582.5 C 1287.5 1581.4 1289.41 1577.09 1291.31 1572.92 C 1293.21 1568.75 1295.09 1564.25 1295.5 1562.92 C 1295.91 1561.59 1296.58 1560.05 1297.0 1559.5 C 1297.42 1558.95 1298.52 1555.4 1299.46 1551.6 C 1300.4 1547.81 1301.69 1543.77 1302.33 1542.62 C 1302.98 1541.48 1304.09 1540.07 1304.81 1539.49 C 1305.88 1538.63 1305.73 1537.93 1304.06 1535.81 C 1302.93 1534.37 1302.0 1532.27 1302.0 1531.15 C 1302.0 1530.03 1302.48 1528.82 1303.07 1528.46 C 1303.66 1528.09 1303.88 1527.13 1303.57 1526.31 C 1303.25 1525.49 1303.9 1523.68 1305.0 1522.28 C 1306.1 1520.88 1307.0 1519.19 1307.0 1518.52 C 1307.0 1517.85 1307.9 1516.5 1309.0 1515.5 C 1310.1 1514.5 1311.0 1513.27 1311.0 1512.75 C 1311.0 1512.23 1312.56 1509.26 1314.46 1506.15 C 1316.36 1503.04 1319.27 1498.03 1320.92 1495.0 C 1322.57 1491.97 1326.03 1485.45 1328.6 1480.5 L 1333.29 1471.5 C 1333.35 1454.45 1333.03 1447.7 1332.61 1445.5 C 1331.95 1442.02 1332.04 1441.7 1333.28 1443.0 C 1334.06 1443.83 1335.17 1448.1 1335.75 1452.5 C 1336.33 1456.9 1336.69 1462.08 1336.54 1464.0 C 1336.4 1465.92 1335.96 1469.53 1335.56 1472.0 C 1335.17 1474.47 1334.89 1476.84 1334.93 1477.26 C 1334.98 1477.67 1333.44 1481.15 1331.51 1484.98 C 1329.58 1488.81 1328.0 1492.54 1328.0 1493.26 C 1328.0 1493.98 1326.46 1497.03 1324.58 1500.03 C 1322.71 1503.04 1319.95 1507.44 1318.47 1509.8 C 1316.99 1512.17 1316.0 1514.33 1316.28 1514.61 C 1316.55 1514.88 1318.02 1513.96 1319.53 1512.56 C 1321.05 1511.15 1322.7 1510.0 1323.19 1510.0 C 1323.69 1510.0 1323.28 1511.11 1322.3 1512.47 C 1321.31 1513.83 1320.16 1514.95 1319.75 1514.97 C 1319.34 1514.99 1319.0 1515.7 1319.0 1516.56 C 1319.0 1517.61 1318.26 1518.02 1316.75 1517.81 C 1315.28 1517.61 1314.5 1518.02 1314.5 1519.0 C 1314.5 1519.83 1313.99 1521.04 1313.37 1521.7 C 1312.75 1522.36 1311.7 1525.96 1311.04 1529.7 C 1310.37 1533.44 1309.34 1538.08 1308.73 1540.0 C 1308.13 1541.92 1307.54 1544.17 1307.41 1545.0 C 1307.29 1545.83 1306.95 1548.67 1306.65 1551.33 C 1306.36 1553.99 1305.69 1556.69 1305.17 1557.33 C 1304.65 1557.97 1302.55 1563.0 1300.51 1568.5 C 1298.46 1574.0 1294.54 1583.2 1291.79 1588.93 C 1289.04 1594.67 1284.92 1602.55 1282.64 1606.43 C 1280.35 1610.32 1277.61 1615.08 1276.56 1617.0 C 1275.51 1618.92 1272.09 1623.88 1268.97 1628.0 C 1265.84 1632.12 1261.53 1637.21 1259.39 1639.31 C 1257.25 1641.4 1251.54 1645.41 1246.7 1648.21 C 1241.86 1651.01 1237.25 1654.24 1236.45 1655.38 C 1235.65 1656.51 1235.0 1659.29 1235.0 1661.54 C 1235.0 1663.8 1235.63 1667.64 1236.4 1670.07 C 1237.17 1672.51 1238.33 1681.03 1238.97 1689.0 C 1239.62 1696.97 1240.38 1704.35 1240.68 1705.38 C 1241.03 1706.6 1241.47 1706.86 1241.92 1706.13 C 1242.3 1705.51 1243.41 1711.18 1244.37 1718.75 C 1245.33 1726.31 1246.97 1737.67 1248.0 1744.0 C 1249.03 1750.33 1251.06 1762.47 1252.5 1771.0 C 1253.94 1779.53 1255.79 1787.97 1256.61 1789.76 C 1257.43 1791.55 1257.88 1793.38 1257.61 1793.83 C 1257.34 1794.27 1257.96 1798.2 1258.99 1802.56 C 1260.02 1806.93 1262.73 1818.56 1265.0 1828.42 C 1267.28 1838.28 1269.72 1848.18 1270.43 1850.42 C 1271.13 1852.66 1272.23 1856.3 1272.86 1858.5 C 1273.49 1860.7 1275.13 1866.1 1276.51 1870.5 C 1277.88 1874.9 1279.44 1879.4 1279.96 1880.5 C 1280.48 1881.6 1281.33 1884.08 1281.85 1886.0 C 1282.38 1887.92 1284.25 1893.78 1286.03 1899.0 C 1287.8 1904.22 1289.45 1909.17 1289.69 1910.0 C 1289.93 1910.83 1290.15 1911.72 1290.17 1912.0 C 1290.2 1912.28 1291.07 1914.17 1292.11 1916.21 C 1293.15 1918.25 1294.0 1920.82 1294.0 1921.93 C 1294.0 1923.03 1294.88 1925.64 1295.96 1927.72 C 1297.04 1929.8 1299.75 1936.67 1301.97 1943.0 C 1304.19 1949.33 1306.44 1955.4 1306.96 1956.5 C 1307.49 1957.6 1309.09 1962.1 1310.53 1966.5 C 1311.97 1970.9 1313.75 1975.85 1314.49 1977.5 C 1315.23 1979.15 1317.19 1984.55 1318.85 1989.5 C 1320.52 1994.45 1323.06 2001.65 1324.5 2005.5 C 1325.95 2009.35 1328.72 2017.0 1330.67 2022.5 C 1332.62 2028.0 1335.68 2036.55 1337.47 2041.5 C 1339.26 2046.45 1341.27 2051.85 1341.94 2053.5 C 1342.61 2055.15 1343.75 2058.07 1344.48 2060.0 C 1345.2 2061.93 1346.76 2065.97 1347.94 2069.0 C 1349.13 2072.03 1350.7 2076.07 1351.44 2078.0 C 1352.17 2079.93 1355.05 2087.08 1357.83 2093.9 C 1360.6 2100.72 1363.28 2106.57 1363.78 2106.9 C 1364.28 2107.23 1365.03 2108.85 1365.44 2110.5 C 1365.85 2112.15 1366.79 2120.93 1367.52 2130.0 C 1368.26 2139.07 1368.5 2146.87 1368.06 2147.32 C 1367.62 2147.78 1366.07 2146.04 1364.63 2143.46 C 1363.19 2140.88 1361.53 2136.91 1360.94 2134.63 C 1360.35 2132.36 1359.49 2129.15 1359.03 2127.5 C 1358.57 2125.85 1355.87 2117.07 1353.02 2108.0 C 1350.18 2098.93 1347.49 2090.6 1347.05 2089.5 C 1346.61 2088.4 1342.97 2078.5 1338.95 2067.5 C 1334.93 2056.5 1331.02 2046.22 1330.25 2044.66 C 1329.48 2043.09 1327.5 2038.14 1325.86 2033.66 C 1324.21 2029.17 1322.49 2024.32 1322.04 2022.87 C 1321.58 2021.43 1320.54 2018.73 1319.72 2016.87 C 1318.91 2015.02 1317.23 2010.58 1316.0 2007.0 C 1314.77 2003.42 1313.44 2000.05 1313.06 1999.5 C 1312.67 1998.95 1311.78 1996.47 1311.07 1994.0 C 1310.35 1991.53 1309.4 1988.6 1308.95 1987.5 C 1308.5 1986.4 1306.94 1981.9 1305.48 1977.5 C 1304.03 1973.1 1302.48 1968.6 1302.06 1967.5 C 1301.63 1966.4 1300.57 1963.86 1299.7 1961.85 C 1298.84 1959.84 1297.82 1956.58 1297.45 1954.59 C 1297.08 1952.6 1296.37 1950.73 1295.89 1950.43 C 1295.4 1950.13 1295.0 1948.78 1295.0 1947.44 C 1295.0 1946.1 1294.55 1945.0 1294.0 1945.0 C 1293.45 1945.0 1293.0 1944.13 1293.0 1943.06 C 1293.0 1941.99 1292.55 1940.84 1292.0 1940.5 C 1291.45 1940.16 1291.0 1939.09 1291.0 1938.13 C 1291.0 1937.16 1289.93 1934.15 1288.63 1931.44 C 1287.32 1928.72 1285.94 1925.04 1285.55 1923.26 C 1285.16 1921.48 1284.43 1919.77 1283.92 1919.45 C 1283.42 1919.14 1283.0 1917.81 1283.0 1916.5 C 1283.0 1915.19 1282.55 1913.84 1282.0 1913.5 C 1281.45 1913.16 1281.0 1911.87 1281.0 1910.64 C 1281.0 1909.41 1280.63 1907.97 1280.18 1907.45 C 1279.73 1906.93 1278.12 1903.12 1276.6 1899.0 C 1275.07 1894.88 1273.47 1890.38 1273.03 1889.0 C 1272.59 1887.62 1271.74 1884.7 1271.15 1882.5 C 1270.55 1880.3 1268.96 1874.67 1267.61 1870.0 C 1266.26 1865.33 1263.98 1856.55 1262.54 1850.5 C 1261.1 1844.45 1259.54 1838.81 1259.09 1837.97 C 1258.63 1837.13 1257.72 1833.08 1257.06 1828.97 C 1256.4 1824.86 1255.46 1819.92 1254.96 1818.0 C 1254.46 1816.08 1253.34 1811.12 1252.46 1807.0 C 1251.58 1802.88 1250.42 1797.7 1249.87 1795.5 C 1249.33 1793.3 1248.22 1787.97 1247.42 1783.64 C 1246.62 1779.32 1245.59 1775.05 1245.13 1774.14 C 1244.68 1773.24 1243.74 1768.45 1243.03 1763.5 C 1242.33 1758.55 1241.16 1752.03 1240.43 1749.0 C 1239.7 1745.97 1238.6 1739.45 1237.98 1734.5 C 1237.36 1729.55 1236.21 1721.22 1235.42 1716.0 C 1234.63 1710.78 1233.76 1705.15 1233.47 1703.5 C 1233.19 1701.85 1232.7 1699.15 1232.39 1697.5 C 1232.08 1695.85 1229.95 1691.35 1227.67 1687.5 C 1225.39 1683.65 1221.88 1677.37 1219.87 1673.53 C 1217.85 1669.7 1215.82 1666.47 1215.35 1666.35 C 1214.88 1666.23 1212.47 1670.23 1210.0 1675.24 C 1207.53 1680.25 1204.55 1685.51 1203.4 1686.92 C 1202.24 1688.34 1200.82 1690.4 1200.25 1691.5 C 1199.67 1692.6 1198.97 1694.85 1198.68 1696.5 C 1198.4 1698.15 1197.49 1703.55 1196.66 1708.5 C 1195.83 1713.45 1194.61 1721.33 1193.96 1726.0 C 1193.31 1730.67 1191.41 1742.15 1189.75 1751.5 C 1188.09 1760.85 1185.97 1772.55 1185.03 1777.5 C 1184.1 1782.45 1183.09 1787.17 1182.8 1788.0 C 1182.5 1788.83 1181.77 1791.75 1181.18 1794.5 C 1180.58 1797.25 1178.9 1804.9 1177.44 1811.5 C 1175.97 1818.1 1174.64 1824.85 1174.48 1826.5 C 1174.31 1828.15 1173.21 1833.1 1172.03 1837.5 C 1170.86 1841.9 1168.77 1849.78 1167.39 1855.0 C 1166.01 1860.22 1164.19 1866.97 1163.34 1870.0 C 1162.49 1873.03 1161.4 1876.62 1160.92 1878.0 C 1160.44 1879.38 1159.86 1881.62 1159.62 1883.0 C 1159.38 1884.38 1157.79 1889.78 1156.08 1895.0 C 1154.37 1900.22 1152.36 1905.62 1151.6 1907.0 C 1150.85 1908.38 1149.92 1910.96 1149.54 1912.74 C 1149.16 1914.52 1148.43 1916.23 1147.92 1916.55 C 1147.42 1916.86 1147.0 1918.1 1147.0 1919.31 C 1146.99 1920.51 1146.09 1922.97 1145.0 1924.77 C 1143.9 1926.57 1143.0 1929.16 1143.0 1930.52 C 1143.0 1931.89 1142.65 1933.0 1142.22 1933.0 C 1141.79 1933.0 1140.62 1936.18 1139.62 1940.07 C 1138.62 1943.96 1137.17 1947.38 1136.4 1947.68 C 1135.57 1947.99 1135.0 1949.63 1135.0 1951.67 C 1135.0 1953.71 1134.59 1954.87 1134.0 1954.5 C 1133.43 1954.15 1133.0 1954.99 1133.0 1956.44 C 1133.0 1957.85 1132.55 1959.0 1132.0 1959.0 C 1131.45 1959.0 1131.0 1960.1 1131.0 1961.44 C 1131.0 1962.78 1130.55 1964.16 1130.0 1964.5 C 1129.45 1964.84 1129.0 1966.44 1129.0 1968.06 C 1129.0 1969.68 1128.65 1971.0 1128.22 1971.0 C 1127.79 1971.0 1126.86 1973.14 1126.15 1975.75 C 1125.45 1978.36 1124.38 1981.39 1123.78 1982.48 C 1123.19 1983.57 1122.13 1986.49 1121.44 1988.98 C 1120.74 1991.46 1118.3 1998.45 1116.02 2004.5 C 1113.73 2010.55 1110.99 2017.61 1109.93 2020.19 C 1108.87 2022.76 1108.0 2025.71 1108.0 2026.74 C 1108.0 2027.76 1107.62 2029.03 1107.15 2029.55 C 1106.68 2030.07 1103.94 2036.58 1101.06 2044.0 C 1098.17 2051.43 1095.42 2058.4 1094.93 2059.5 C 1094.44 2060.6 1091.58 2068.25 1088.56 2076.51 C 1085.55 2084.76 1081.45 2096.91 1079.45 2103.51 C 1077.45 2110.1 1075.17 2116.85 1074.39 2118.5 C 1073.61 2120.15 1072.09 2125.29 1071.02 2129.92 C 1069.94 2134.55 1067.81 2140.74 1066.28 2143.67 C 1064.75 2146.6 1063.1 2149.0 1062.61 2149.0 Z M 1539.76 2143.0 C 1539.34 2143.0 1539.0 2141.85 1539.0 2140.45 C 1539.0 2139.05 1539.67 2136.61 1540.49 2135.03 C 1541.3 2133.45 1542.63 2130.2 1543.45 2127.81 C 1544.26 2125.42 1545.64 2120.37 1546.52 2116.58 C 1547.4 2112.8 1548.56 2106.73 1549.1 2103.1 C 1549.64 2099.47 1550.51 2083.22 1551.03 2067.0 C 1551.56 2050.78 1552.02 2025.8 1552.07 2011.5 C 1552.11 1997.2 1551.9 1980.1 1551.6 1973.5 C 1551.3 1966.9 1550.79 1955.42 1550.46 1948.0 C 1550.14 1940.58 1549.7 1932.03 1549.5 1929.0 C 1549.29 1925.97 1548.6 1917.2 1547.96 1909.5 C 1547.32 1901.8 1546.59 1892.8 1546.34 1889.5 C 1546.1 1886.2 1545.72 1881.47 1545.5 1879.0 C 1545.29 1876.53 1544.65 1871.12 1544.08 1867.0 C 1543.5 1862.88 1542.82 1856.12 1542.56 1852.0 C 1542.29 1847.88 1541.87 1842.92 1541.63 1841.0 C 1541.38 1839.08 1540.7 1834.12 1540.11 1830.0 C 1539.53 1825.88 1538.78 1820.47 1538.47 1818.0 C 1538.15 1815.53 1537.46 1811.58 1536.93 1809.23 C 1536.41 1806.88 1535.75 1803.28 1535.46 1801.23 C 1535.18 1799.18 1534.66 1796.38 1534.31 1795.0 C 1533.97 1793.62 1533.54 1791.83 1533.35 1791.0 C 1533.17 1790.17 1532.96 1788.38 1532.89 1787.0 C 1532.82 1785.62 1532.39 1783.38 1531.93 1782.0 C 1531.48 1780.62 1530.87 1777.92 1530.58 1776.0 C 1530.28 1774.08 1529.37 1768.93 1528.54 1764.56 C 1527.71 1760.2 1527.25 1756.42 1527.51 1756.16 C 1527.77 1755.9 1527.49 1755.09 1526.88 1754.36 C 1526.27 1753.63 1525.63 1751.11 1525.46 1748.76 C 1525.28 1746.42 1524.65 1742.47 1524.05 1740.0 C 1523.46 1737.53 1522.81 1734.38 1522.62 1733.0 C 1522.43 1731.62 1521.04 1726.0 1519.54 1720.5 C 1518.03 1715.0 1516.38 1708.74 1515.86 1706.59 C 1515.34 1704.44 1514.6 1702.19 1514.22 1701.59 C 1513.84 1700.99 1512.71 1697.58 1511.7 1694.0 C 1510.7 1690.42 1509.46 1685.47 1508.95 1683.0 C 1508.44 1680.53 1507.39 1676.92 1506.63 1675.0 C 1505.86 1673.08 1504.21 1668.12 1502.95 1664.0 C 1501.69 1659.88 1500.11 1655.6 1499.45 1654.5 C 1498.78 1653.4 1497.94 1651.15 1497.58 1649.5 C 1497.22 1647.85 1495.98 1643.35 1494.82 1639.5 C 1493.66 1635.65 1492.1 1631.61 1491.36 1630.53 C 1490.61 1629.44 1490.0 1627.81 1490.0 1626.89 C 1490.0 1625.98 1489.33 1623.94 1488.51 1622.36 C 1487.68 1620.79 1487.01 1618.71 1487.01 1617.75 C 1487.0 1616.79 1486.55 1616.0 1486.0 1616.0 C 1485.45 1616.0 1485.0 1615.33 1485.0 1614.51 C 1485.0 1613.69 1483.39 1609.08 1481.42 1604.26 C 1479.45 1599.44 1476.98 1593.8 1475.92 1591.72 C 1474.86 1589.64 1474.0 1587.52 1474.0 1587.0 C 1474.0 1586.48 1471.35 1580.54 1468.1 1573.78 C 1464.86 1567.03 1460.84 1558.12 1459.18 1554.0 C 1457.52 1549.88 1454.53 1542.69 1452.52 1538.03 C 1450.52 1533.37 1448.41 1528.99 1447.83 1528.29 C 1447.25 1527.59 1446.37 1527.27 1445.89 1527.57 C 1445.4 1527.87 1445.0 1526.7 1445.0 1524.96 C 1445.0 1523.22 1444.27 1520.26 1443.37 1518.37 C 1442.48 1516.49 1440.7 1514.12 1439.42 1513.11 C 1437.49 1511.6 1436.9 1509.76 1436.0 1502.47 C 1435.39 1497.62 1434.73 1493.37 1434.52 1493.03 C 1434.3 1492.68 1433.91 1489.95 1433.64 1486.95 C 1433.36 1483.95 1432.44 1478.24 1431.59 1474.26 C 1430.73 1470.28 1429.59 1466.23 1429.05 1465.26 C 1428.5 1464.29 1425.8 1456.69 1423.03 1448.36 C 1420.26 1440.03 1418.0 1432.19 1418.0 1430.93 C 1418.0 1429.67 1417.49 1427.04 1416.86 1425.07 C 1416.24 1423.11 1415.4 1420.6 1415.01 1419.5 C 1414.61 1418.4 1410.83 1410.53 1406.6 1402.0 C 1402.37 1393.47 1397.91 1384.63 1396.69 1382.34 C 1395.46 1380.05 1393.75 1377.35 1392.88 1376.34 C 1392.01 1375.33 1390.67 1373.04 1389.9 1371.25 C 1389.14 1369.46 1388.23 1368.0 1387.88 1368.0 C 1387.53 1368.0 1386.68 1366.65 1386.0 1365.0 C 1385.32 1363.35 1384.41 1362.0 1384.0 1362.0 C 1383.58 1362.0 1382.95 1361.21 1382.6 1360.25 C 1382.25 1359.29 1381.41 1357.6 1380.72 1356.5 C 1380.03 1355.4 1377.71 1351.35 1375.55 1347.5 C 1373.39 1343.65 1369.12 1337.16 1366.06 1333.08 C 1363.0 1328.99 1359.2 1323.82 1357.61 1321.58 C 1356.02 1319.33 1353.97 1316.83 1353.06 1316.0 C 1352.15 1315.17 1350.37 1313.02 1349.11 1311.21 C 1347.8 1309.34 1347.08 1307.23 1347.43 1306.31 C 1347.8 1305.35 1347.24 1303.94 1346.03 1302.81 C 1344.91 1301.77 1344.0 1300.32 1344.0 1299.58 C 1344.0 1298.84 1343.1 1298.0 1342.0 1297.71 C 1340.9 1297.42 1340.0 1296.47 1340.0 1295.59 C 1340.0 1294.72 1339.53 1294.0 1338.96 1294.0 C 1338.39 1294.0 1336.05 1292.2 1333.76 1290.0 C 1331.26 1287.6 1330.2 1286.0 1331.11 1286.0 C 1331.94 1286.0 1335.06 1288.08 1338.04 1290.62 C 1341.02 1293.17 1345.18 1297.56 1347.28 1300.37 C 1349.38 1303.19 1354.01 1308.52 1357.56 1312.2 C 1361.11 1315.89 1366.17 1321.74 1368.8 1325.2 C 1371.43 1328.67 1376.22 1335.55 1379.46 1340.5 C 1382.7 1345.45 1386.68 1351.75 1388.32 1354.5 C 1389.95 1357.25 1392.64 1361.97 1394.29 1365.0 C 1395.93 1368.03 1397.82 1371.17 1398.48 1372.0 C 1399.14 1372.83 1400.94 1375.75 1402.49 1378.5 C 1404.03 1381.25 1406.96 1386.65 1408.99 1390.5 C 1411.03 1394.35 1414.32 1400.65 1416.3 1404.5 C 1418.28 1408.35 1422.17 1416.64 1424.95 1422.93 C 1427.73 1429.22 1430.0 1434.78 1430.0 1435.28 C 1430.0 1435.79 1430.65 1437.62 1431.44 1439.35 C 1432.23 1441.08 1433.32 1444.08 1433.86 1446.0 C 1434.4 1447.92 1435.82 1452.65 1437.01 1456.5 C 1438.2 1460.35 1440.04 1467.55 1441.1 1472.5 C 1442.16 1477.45 1443.43 1483.75 1443.93 1486.5 C 1444.43 1489.25 1445.59 1494.42 1446.51 1498.0 C 1447.44 1501.58 1449.67 1507.65 1451.47 1511.5 C 1453.28 1515.35 1457.0 1523.22 1459.75 1529.0 C 1462.49 1534.78 1465.07 1540.55 1465.46 1541.82 C 1465.86 1543.1 1467.94 1547.71 1470.09 1552.06 C 1472.24 1556.42 1474.0 1560.44 1474.0 1561.01 C 1474.0 1561.58 1476.25 1566.57 1479.0 1572.1 C 1481.75 1577.63 1484.0 1582.55 1484.0 1583.03 C 1484.0 1583.52 1485.3 1586.74 1486.89 1590.21 C 1488.48 1593.67 1491.23 1600.1 1493.01 1604.5 C 1494.79 1608.9 1496.9 1614.3 1497.7 1616.5 C 1498.5 1618.7 1499.73 1621.85 1500.44 1623.5 C 1501.15 1625.15 1503.11 1630.55 1504.79 1635.5 C 1506.48 1640.45 1508.41 1646.08 1509.08 1648.0 C 1509.75 1649.92 1510.64 1652.4 1511.07 1653.5 C 1511.49 1654.6 1512.12 1656.62 1512.46 1658.0 C 1512.81 1659.38 1514.21 1664.78 1515.57 1670.0 C 1516.94 1675.22 1518.94 1682.0 1520.03 1685.07 C 1521.11 1688.13 1522.0 1691.81 1522.0 1693.26 C 1522.0 1694.7 1522.39 1696.12 1522.87 1696.42 C 1523.34 1696.71 1523.99 1698.42 1524.3 1700.23 C 1524.62 1702.03 1525.84 1707.78 1527.01 1713.0 C 1528.19 1718.22 1529.59 1724.3 1530.13 1726.5 C 1530.67 1728.7 1531.5 1732.3 1531.97 1734.5 C 1532.45 1736.7 1533.79 1742.78 1534.97 1748.0 C 1536.14 1753.22 1537.5 1759.3 1537.98 1761.5 C 1538.47 1763.7 1540.23 1772.25 1541.9 1780.5 C 1543.57 1788.75 1545.4 1797.53 1545.98 1800.0 C 1546.55 1802.47 1547.46 1807.88 1548.01 1812.0 C 1548.55 1816.12 1549.44 1822.2 1549.98 1825.5 C 1550.52 1828.8 1552.05 1839.57 1553.38 1849.43 C 1554.71 1859.29 1555.57 1867.95 1555.29 1868.69 C 1555.01 1869.42 1555.32 1870.68 1555.98 1871.47 C 1556.65 1872.28 1557.2 1876.11 1557.24 1880.21 C 1557.28 1884.22 1557.67 1887.97 1558.11 1888.55 C 1558.56 1889.13 1559.0 1892.73 1559.09 1896.55 C 1559.19 1900.37 1559.63 1905.3 1560.08 1907.5 C 1560.52 1909.7 1561.18 1915.78 1561.54 1921.0 C 1561.9 1926.22 1562.32 1932.08 1562.47 1934.0 C 1562.62 1935.92 1563.06 1946.95 1563.43 1958.5 C 1563.81 1970.05 1564.28 1981.86 1564.48 1984.74 C 1564.68 1987.62 1564.41 1990.25 1563.87 1990.58 C 1563.26 1990.96 1563.29 1991.64 1563.96 1992.45 C 1564.55 1993.17 1564.92 1997.13 1564.79 2001.44 C 1564.66 2005.68 1564.28 2009.33 1563.93 2009.54 C 1563.58 2009.76 1563.22 2012.72 1563.12 2016.12 C 1563.01 2019.52 1562.69 2022.69 1562.4 2023.17 C 1562.1 2023.64 1561.63 2031.34 1561.34 2040.27 C 1561.06 2049.19 1560.45 2056.95 1560.0 2057.5 C 1559.54 2058.05 1559.58 2060.72 1560.09 2063.44 C 1560.59 2066.15 1561.07 2076.5 1561.15 2086.43 C 1561.23 2096.79 1560.8 2106.85 1560.14 2110.0 C 1559.51 2113.03 1558.25 2117.97 1557.34 2121.0 C 1556.43 2124.03 1554.95 2127.4 1554.05 2128.5 C 1553.15 2129.6 1551.65 2132.19 1550.72 2134.25 C 1549.46 2137.06 1548.43 2138.0 1546.66 2138.0 C 1545.29 2138.0 1543.48 2139.06 1542.4 2140.5 C 1541.37 2141.88 1540.18 2143.0 1539.76 2143.0 Z M 1189.0 1723.5 C 1189.55 1723.16 1189.99 1722.12 1189.98 1721.19 C 1189.98 1720.26 1189.53 1718.83 1189.0 1718.0 C 1188.28 1716.89 1188.03 1717.48 1188.02 1720.31 C 1188.01 1722.6 1188.4 1723.87 1189.0 1723.5 Z M 1227.39 1672.99 C 1227.89 1672.99 1227.97 1670.03 1227.59 1666.25 C 1227.21 1662.54 1226.29 1658.88 1225.55 1658.13 C 1224.8 1657.38 1223.7 1657.07 1223.1 1657.44 C 1222.49 1657.81 1222.0 1658.83 1222.0 1659.69 C 1222.0 1660.56 1223.01 1663.9 1224.25 1667.12 C 1225.49 1670.34 1226.9 1672.98 1227.39 1672.99 Z M 1204.17 1671.27 C 1204.99 1670.59 1206.51 1667.55 1207.54 1664.52 C 1209.0 1660.22 1209.15 1658.75 1208.21 1657.81 C 1207.27 1656.87 1206.73 1656.87 1205.81 1657.79 C 1205.16 1658.44 1204.47 1659.77 1204.3 1660.74 C 1204.12 1661.71 1203.68 1664.75 1203.32 1667.5 C 1202.75 1671.86 1202.86 1672.34 1204.17 1671.27 Z M 1332.66 1440.0 C 1332.35 1441.33 1332.25 1441.33 1331.74 1440.0 C 1331.42 1439.17 1330.94 1437.38 1330.66 1436.0 C 1330.39 1434.62 1329.83 1432.43 1329.43 1431.12 C 1328.88 1429.32 1329.04 1428.85 1330.08 1429.19 C 1330.85 1429.45 1331.82 1431.65 1332.24 1434.08 C 1332.67 1436.51 1332.86 1439.17 1332.66 1440.0 Z M 1221.42 1410.0 C 1220.82 1410.0 1220.03 1409.69 1219.65 1409.32 C 1219.28 1408.95 1216.17 1408.71 1212.74 1408.79 C 1207.53 1408.9 1206.09 1408.55 1204.0 1406.66 C 1202.62 1405.41 1200.66 1403.42 1199.64 1402.24 L 1197.77 1400.09 C 1203.76 1401.01 1205.95 1401.62 1206.5 1402.03 C 1207.05 1402.44 1212.11 1402.7 1217.75 1402.59 C 1224.15 1402.47 1228.45 1401.95 1229.2 1401.2 C 1229.86 1400.54 1231.1 1400.02 1231.95 1400.03 C 1232.84 1400.05 1231.17 1402.17 1228.0 1405.03 C 1224.97 1407.76 1222.01 1410.0 1221.42 1410.0 Z M 1312.5 1279.93 C 1310.85 1279.93 1308.63 1279.28 1307.56 1278.47 C 1306.0 1277.29 1305.92 1277.0 1307.19 1277.0 C 1308.06 1277.0 1310.28 1277.66 1312.14 1278.46 L 1315.5 1279.92 Z M 1299.19 1276.89 C 1298.81 1276.82 1296.81 1276.44 1294.74 1276.04 C 1292.67 1275.64 1290.65 1274.95 1290.24 1274.51 C 1289.83 1274.08 1291.3 1274.0 1293.5 1274.35 C 1295.7 1274.69 1298.31 1274.98 1299.31 1274.99 C 1300.3 1275.0 1300.84 1275.45 1300.5 1276.0 C 1300.16 1276.55 1299.57 1276.95 1299.19 1276.89 Z M 1165.28 1274.12 C 1157.46 1274.33 1150.03 1274.21 1148.78 1273.85 C 1146.72 1273.26 1146.79 1273.18 1149.5 1272.96 C 1151.15 1272.82 1157.22 1272.66 1163.0 1272.58 C 1168.78 1272.51 1174.85 1272.74 1176.5 1273.1 C 1178.15 1273.45 1173.1 1273.91 1165.28 1274.12 Z M 1264.79 1274.28 C 1260.55 1274.4 1256.05 1274.25 1254.79 1273.95 C 1253.15 1273.56 1252.92 1273.26 1254.0 1272.89 C 1254.83 1272.6 1261.35 1272.65 1268.5 1273.01 C 1275.65 1273.37 1279.47 1273.75 1277.0 1273.86 C 1274.53 1273.98 1269.03 1274.17 1264.79 1274.28 Z " opacity="1.0" fill="#000000" stroke="none" fill-rule="evenodd"/></svg>