<svg version="1.0" xmlns="http://www.w3.org/2000/svg"
 width="1200.000000pt" height="1600.000000pt" viewBox="0 0 1200.000000 1600.000000"
 preserveAspectRatio="xMidYMid meet">

<g transform="translate(0.000000,1600.000000) scale(0.100000,-0.100000)"
fill="#000000" stroke="none">
<path d="M5773 9633 c26 -2 67 -2 90 0 23 2 2 3 -48 3 -49 0 -68 -1 -42 -3z"/>
<path d="M6288 9633 c23 -2 61 -2 85 0 23 2 4 4 -43 4 -47 0 -66 -2 -42 -4z"/>
<path d="M5658 9623 c7 -3 16 -2 19 1 4 3 -2 6 -13 5 -11 0 -14 -3 -6 -6z"/>
<path d="M6450 9626 c0 -2 11 -6 25 -8 14 -3 25 -1 25 3 0 5 -11 9 -25 9 -14
0 -25 -2 -25 -4z"/>
<path d="M6525 9610 c11 -5 29 -9 40 -9 l20 0 -20 9 c-11 5 -29 9 -40 9 l-20
0 20 -9z"/>
<path d="M5457 9537 c-126 -128 -169 -185 -282 -372 -125 -207 -189 -365 -239
-584 -14 -62 -41 -145 -59 -184 -45 -93 -74 -157 -132 -292 -26 -60 -55 -128
-65 -150 -27 -62 -106 -301 -129 -391 -64 -252 -129 -562 -156 -749 -4 -22
-10 -67 -15 -100 -5 -33 -12 -89 -15 -125 -4 -36 -8 -70 -10 -77 -2 -6 -7 -76
-12 -155 -25 -445 16 -948 87 -1077 26 -45 50 -64 50 -38 0 8 -11 49 -24 91
-46 143 -57 245 -58 534 -1 322 16 649 47 892 11 86 25 187 30 215 4 17 20
104 36 195 33 178 53 268 72 315 6 17 10 38 9 48 -2 9 1 17 6 17 5 0 13 17 17
37 19 101 128 396 214 578 26 55 56 121 66 147 10 26 21 45 26 43 4 -3 9 7 11
22 4 28 4 28 14 5 8 -19 13 -2 28 90 10 62 20 127 22 144 2 17 18 67 34 113
17 45 35 103 40 128 24 105 232 471 327 573 13 14 23 31 23 40 0 8 21 36 47
62 26 26 44 48 40 48 -4 0 -26 -19 -50 -43z"/>
<path d="M6693 9526 c24 -24 44 -51 44 -58 0 -8 22 -43 50 -79 115 -146 273
-430 303 -544 11 -44 32 -113 46 -153 14 -41 33 -131 43 -200 10 -70 19 -111
20 -92 1 27 4 31 11 20 5 -8 10 -24 10 -34 0 -10 6 -24 14 -30 7 -6 35 -63 61
-126 27 -63 52 -119 56 -125 6 -10 38 -87 99 -240 41 -104 127 -387 160 -525
44 -184 99 -541 115 -745 3 -33 7 -69 10 -80 11 -55 20 -346 19 -647 -2 -346
-8 -416 -46 -527 -19 -58 -19 -71 2 -46 7 8 18 15 24 15 18 0 55 80 67 146 6
33 8 89 5 125 -3 36 -1 135 5 220 39 530 -43 1174 -233 1849 -39 138 -127 373
-197 525 -18 39 -41 88 -51 110 -10 22 -34 75 -53 117 -20 42 -45 121 -57 175
-39 185 -94 327 -195 508 -84 151 -181 295 -241 360 -25 28 -61 67 -80 88 -19
20 -39 37 -45 37 -6 0 9 -20 34 -44z"/>
<path d="M6011 8974 c28 -30 98 -31 128 -3 12 11 21 21 21 22 0 1 -38 2 -85 3
l-85 0 21 -22z"/>
<path d="M5485 8805 c-27 -102 -18 -172 39 -285 26 -51 40 -87 31 -80 -9 7
-15 8 -15 2 0 -6 11 -19 25 -30 24 -19 40 -69 50 -152 2 -14 15 -54 30 -90 90
-219 183 -360 271 -411 54 -30 58 -36 56 -74 -3 -62 -47 -341 -92 -590 -38
-206 -97 -422 -173 -635 -19 -52 -47 -129 -62 -170 -14 -41 -40 -113 -57 -160
-16 -47 -42 -119 -58 -160 -16 -41 -47 -127 -71 -190 -23 -63 -50 -133 -59
-155 -61 -136 -78 -193 -84 -285 l-7 -95 20 33 c12 18 21 37 21 43 0 31 115
355 265 749 55 143 85 227 85 236 0 6 9 28 19 50 11 22 23 54 27 70 4 16 10
34 14 39 36 47 186 704 219 958 13 95 15 102 65 190 l33 59 42 -76 c36 -66 44
-92 61 -203 58 -377 146 -738 246 -1008 30 -82 91 -247 134 -365 43 -118 97
-262 119 -320 23 -57 59 -163 81 -235 23 -71 50 -148 61 -170 l20 -40 -5 95
c-5 85 -10 106 -49 195 -24 55 -56 132 -69 170 -30 82 -145 399 -194 535 -19
52 -39 104 -44 115 -34 72 -137 419 -170 570 -44 203 -90 463 -90 513 0 20 -4
31 -10 27 -6 -4 -10 9 -11 32 0 21 -2 46 -4 56 -2 10 -6 51 -10 90 l-7 72 55
33 c58 33 119 99 157 167 12 22 33 58 45 80 26 44 94 208 100 240 3 11 10 48
16 83 7 34 17 62 21 62 5 0 6 5 3 10 -3 6 0 10 7 10 7 0 19 9 26 21 12 19 11
19 -8 9 -20 -11 -20 -9 4 28 67 106 89 200 71 306 -7 40 -22 86 -28 86 -2 0 3
-35 10 -77 21 -123 17 -137 -101 -337 -44 -76 -53 -110 -35 -132 7 -9 8 -14 1
-14 -6 0 -17 -24 -26 -53 -22 -75 -130 -312 -160 -352 -98 -129 -251 -179
-367 -120 -75 37 -127 84 -166 148 -57 91 -168 358 -156 371 4 3 1 6 -7 6 -9
0 -10 3 -1 14 8 9 8 21 1 40 -5 14 -7 26 -4 26 2 0 -11 24 -30 54 -19 30 -53
89 -76 131 -44 84 -51 142 -29 245 16 75 5 71 -16 -5z m555 -1112 c0 -10 -5
-25 -10 -33 -7 -11 -10 -7 -10 18 0 17 5 32 10 32 6 0 10 -8 10 -17z m94 -5
c10 -40 6 -54 -9 -28 -8 14 -14 31 -15 38 0 21 17 13 24 -10z"/>
</g>
</svg>
