<svg width="2400" height="3200" xmlns="http://www.w3.org/2000/svg" viewBox="0 0 2400 3200"><path d="M 1030.74 2166.0 C 1030.05 2166.0 1029.91 2163.0 1030.33 2157.19 C 1030.67 2152.35 1030.51 2145.63 1029.96 2142.26 C 1029.42 2138.89 1027.63 2133.29 1025.99 2129.82 C 1024.35 2126.34 1022.59 2123.5 1022.09 2123.5 C 1021.59 2123.5 1020.24 2122.3 1019.09 2120.84 C 1017.94 2119.38 1017.0 2117.94 1017.0 2117.65 C 1017.0 2117.36 1016.04 2115.49 1014.88 2113.51 C 1013.71 2111.53 1012.51 2110.15 1012.22 2110.44 C 1011.93 2110.73 1011.36 2115.06 1010.94 2120.06 C 1010.53 2125.05 1009.89 2129.44 1009.52 2129.81 C 1009.15 2130.18 1008.36 2129.59 1007.76 2128.49 C 1007.16 2127.4 1005.05 2124.93 1003.07 2123.0 C 1001.09 2121.07 998.31 2118.55 996.9 2117.4 C 995.48 2116.24 991.57 2113.43 988.22 2111.15 C 984.86 2108.87 981.43 2107.0 980.6 2107.0 C 979.77 2107.0 978.17 2109.08 977.03 2111.65 C 975.9 2114.21 974.71 2116.04 974.38 2115.71 C 974.05 2115.38 974.26 2112.27 974.84 2108.8 C 975.43 2105.34 976.18 2098.0 976.52 2092.5 C 977.06 2083.5 976.97 2082.69 975.62 2084.36 C 974.79 2085.39 973.81 2088.68 973.43 2091.69 C 973.03 2094.88 972.18 2097.38 971.37 2097.69 C 970.62 2097.98 970.0 2098.89 970.0 2099.72 C 970.0 2100.81 969.37 2101.05 967.75 2100.59 C 966.51 2100.24 964.35 2099.7 962.95 2099.39 C 960.81 2098.92 959.07 2100.09 951.95 2106.76 C 947.3 2111.12 941.92 2116.03 940.0 2117.66 C 938.08 2119.29 934.48 2121.79 932.0 2123.22 C 929.52 2124.64 925.73 2127.21 923.58 2128.93 C 920.95 2131.02 919.32 2131.72 918.65 2131.05 C 917.98 2130.38 918.18 2129.46 919.24 2128.27 C 920.12 2127.3 922.0 2124.18 923.42 2121.35 C 924.84 2118.52 926.0 2115.71 926.0 2115.1 C 926.0 2114.5 925.5 2114.0 924.89 2114.0 C 924.28 2114.0 917.38 2120.3 909.57 2128.0 C 901.75 2135.7 894.89 2142.0 894.32 2142.0 C 893.74 2142.0 891.56 2140.63 889.45 2138.96 C 887.35 2137.29 884.82 2134.58 883.82 2132.94 C 882.82 2131.3 882.0 2128.64 882.0 2127.03 C 882.0 2125.43 881.55 2123.84 881.0 2123.5 C 880.45 2123.16 880.0 2121.81 880.0 2120.5 C 880.0 2119.19 879.55 2117.84 879.0 2117.5 C 878.45 2117.16 878.0 2115.36 878.0 2113.5 C 878.0 2111.64 877.55 2109.84 877.0 2109.5 C 876.45 2109.16 876.0 2107.36 876.0 2105.5 C 876.0 2103.64 875.55 2101.84 875.0 2101.5 C 874.45 2101.16 874.0 2099.78 874.0 2098.44 C 874.0 2097.1 874.4 2096.0 874.89 2096.0 C 875.38 2096.0 876.05 2096.68 876.36 2097.5 C 876.68 2098.32 877.91 2099.0 879.1 2099.0 C 881.13 2099.0 881.21 2098.68 880.56 2093.75 C 880.17 2090.86 879.9 2078.07 879.95 2065.32 C 880.0 2050.57 879.67 2041.91 879.02 2041.51 C 878.36 2041.1 878.0 2028.28 878.0 2005.0 C 878.0 1984.65 878.39 1968.88 878.91 1968.56 C 879.4 1968.25 879.87 1958.9 879.94 1947.77 C 880.01 1936.21 880.48 1927.12 881.03 1926.57 C 881.56 1926.04 882.0 1920.09 882.0 1913.36 C 882.0 1906.28 882.42 1900.86 883.0 1900.5 C 883.57 1900.15 884.0 1895.01 884.0 1888.5 C 884.0 1881.99 884.43 1876.85 885.0 1876.5 C 885.55 1876.16 886.0 1872.11 886.0 1867.5 C 886.0 1862.89 886.45 1858.84 887.0 1858.5 C 887.55 1858.16 888.0 1854.11 888.0 1849.5 C 888.0 1844.89 888.45 1840.84 889.0 1840.5 C 889.55 1840.16 890.0 1836.11 890.0 1831.5 C 890.0 1826.89 890.45 1822.84 891.0 1822.5 C 891.55 1822.16 892.0 1819.01 892.0 1815.5 C 892.0 1811.99 892.45 1808.84 893.0 1808.5 C 893.55 1808.16 894.0 1806.36 894.0 1804.5 C 894.0 1802.64 894.45 1800.84 895.0 1800.5 C 895.55 1800.16 896.0 1797.46 896.0 1794.5 C 896.0 1791.54 896.45 1788.84 897.0 1788.5 C 897.55 1788.16 898.0 1785.91 898.0 1783.5 C 898.0 1781.09 898.45 1778.84 899.0 1778.5 C 899.55 1778.16 900.0 1775.91 900.0 1773.5 C 900.0 1771.09 900.45 1768.84 901.0 1768.5 C 901.55 1768.16 902.0 1765.91 902.0 1763.5 C 902.0 1761.09 902.45 1758.84 903.0 1758.5 C 903.55 1758.16 904.0 1755.46 904.0 1752.5 C 904.0 1749.54 904.45 1746.84 905.0 1746.5 C 905.55 1746.16 906.0 1743.97 906.0 1741.64 C 906.0 1739.31 906.41 1736.97 906.92 1736.45 C 907.43 1735.93 908.04 1733.25 908.27 1730.5 C 908.51 1727.75 908.98 1724.83 909.32 1724.0 C 909.66 1723.17 910.08 1721.29 910.26 1719.81 C 910.44 1718.33 911.24 1716.3 912.04 1715.31 C 912.84 1714.31 914.06 1712.49 914.75 1711.26 C 915.44 1710.03 916.0 1707.7 916.0 1706.07 C 916.0 1704.45 916.45 1702.84 917.0 1702.5 C 917.55 1702.16 918.0 1700.81 918.0 1699.5 C 918.0 1698.19 918.45 1696.84 919.0 1696.5 C 919.55 1696.16 920.0 1693.91 920.0 1691.5 C 920.0 1689.09 920.45 1686.84 921.0 1686.5 C 921.55 1686.16 922.0 1684.36 922.0 1682.5 C 922.0 1680.64 922.45 1678.84 923.0 1678.5 C 923.55 1678.16 924.0 1676.81 924.0 1675.5 C 924.0 1674.19 924.45 1672.84 925.0 1672.5 C 925.55 1672.16 926.0 1670.36 926.0 1668.5 C 926.0 1666.64 926.45 1664.84 927.0 1664.5 C 927.55 1664.16 928.0 1662.81 928.0 1661.5 C 928.0 1660.19 928.45 1658.84 929.0 1658.5 C 929.55 1658.16 930.0 1656.81 930.0 1655.5 C 930.0 1654.19 930.45 1652.84 931.0 1652.5 C 931.55 1652.16 932.0 1650.81 932.0 1649.5 C 932.0 1648.19 932.45 1646.84 933.0 1646.5 C 933.55 1646.16 934.0 1644.81 934.0 1643.5 C 934.0 1642.19 934.45 1640.84 935.0 1640.5 C 935.55 1640.16 936.0 1639.02 936.0 1637.97 C 936.0 1636.92 936.9 1634.46 938.0 1632.5 C 939.1 1630.54 940.0 1628.08 940.0 1627.03 C 940.0 1625.98 940.45 1624.84 941.0 1624.5 C 941.55 1624.16 942.0 1623.02 942.0 1621.97 C 942.0 1620.92 942.9 1618.46 944.0 1616.5 C 945.1 1614.54 946.0 1612.29 946.0 1611.5 C 946.0 1610.71 946.9 1608.46 948.0 1606.5 C 949.1 1604.54 950.0 1602.08 950.0 1601.03 C 950.0 1599.98 950.45 1598.84 951.0 1598.5 C 951.55 1598.16 952.0 1597.05 952.0 1596.04 C 952.0 1595.03 953.35 1591.64 955.0 1588.5 C 956.65 1585.36 958.0 1582.21 958.0 1581.5 C 958.0 1580.79 959.36 1577.61 961.03 1574.45 C 963.59 1569.57 964.12 1567.31 964.47 1559.6 C 964.71 1554.59 965.48 1548.92 966.2 1547.0 C 966.91 1545.08 968.59 1541.7 969.92 1539.5 C 971.25 1537.3 975.14 1531.2 978.56 1525.94 C 981.98 1520.68 986.05 1515.54 987.61 1514.52 C 989.17 1513.5 991.23 1511.93 992.18 1511.05 C 993.42 1509.89 994.02 1507.44 994.27 1502.41 C 994.47 1498.55 994.94 1494.9 995.31 1494.3 C 995.69 1493.7 996.09 1490.87 996.22 1488.03 C 996.34 1485.18 996.79 1482.63 997.22 1482.36 C 997.65 1482.1 998.0 1479.67 998.0 1476.97 C 998.0 1473.91 998.75 1470.72 1000.0 1468.5 C 1001.1 1466.54 1002.0 1463.63 1002.0 1462.03 C 1002.0 1460.43 1002.45 1458.84 1003.0 1458.5 C 1003.55 1458.16 1004.0 1457.05 1004.0 1456.04 C 1004.0 1455.03 1005.35 1451.64 1007.0 1448.5 C 1008.65 1445.36 1010.0 1441.97 1010.0 1440.96 C 1010.0 1439.95 1010.45 1438.84 1011.0 1438.5 C 1011.55 1438.16 1012.0 1436.36 1012.0 1434.5 C 1012.0 1432.64 1012.45 1430.84 1013.0 1430.5 C 1013.55 1430.16 1014.0 1427.91 1014.0 1425.5 C 1014.0 1423.09 1014.45 1420.84 1015.0 1420.5 C 1015.55 1420.16 1016.0 1419.1 1016.0 1418.15 C 1016.0 1417.2 1018.43 1411.58 1021.4 1405.65 C 1024.37 1399.72 1027.45 1394.12 1028.23 1393.19 C 1029.01 1392.26 1030.87 1388.96 1032.35 1385.85 C 1033.83 1382.75 1035.71 1379.66 1036.52 1378.98 C 1037.34 1378.31 1038.0 1377.19 1038.0 1376.5 C 1038.0 1375.81 1038.7 1374.67 1039.55 1373.96 C 1040.4 1373.25 1041.98 1370.75 1043.05 1368.4 C 1044.12 1366.05 1045.42 1363.86 1045.93 1363.54 C 1046.44 1363.23 1049.16 1358.29 1051.96 1352.58 C 1054.76 1346.87 1057.72 1341.65 1058.53 1340.98 C 1059.34 1340.3 1060.0 1339.22 1060.0 1338.56 C 1060.0 1337.91 1061.35 1336.08 1063.0 1334.5 C 1064.65 1332.92 1066.0 1331.2 1066.0 1330.68 C 1066.0 1330.17 1067.46 1328.06 1069.25 1325.99 C 1071.04 1323.93 1073.96 1320.5 1075.74 1318.37 C 1077.51 1316.24 1079.88 1313.42 1080.99 1312.1 C 1082.09 1310.78 1083.0 1309.29 1083.0 1308.79 C 1083.0 1308.29 1082.44 1308.2 1081.75 1308.59 C 1081.06 1308.98 1079.72 1309.97 1078.77 1310.79 C 1077.24 1312.1 1076.97 1312.09 1076.44 1310.69 C 1076.1 1309.83 1075.98 1308.33 1076.17 1307.37 C 1076.35 1306.4 1078.77 1303.79 1081.54 1301.56 C 1084.32 1299.33 1088.57 1295.92 1090.99 1294.0 C 1093.42 1292.08 1096.82 1289.27 1098.56 1287.77 C 1100.29 1286.27 1104.77 1283.67 1108.5 1282.0 C 1112.24 1280.32 1118.04 1278.0 1121.4 1276.84 C 1126.81 1274.96 1130.15 1274.69 1151.0 1274.42 C 1163.92 1274.26 1180.8 1273.65 1188.5 1273.07 C 1196.2 1272.49 1208.12 1272.02 1215.0 1272.02 C 1221.88 1272.02 1234.03 1272.5 1242.0 1273.08 C 1249.97 1273.66 1267.08 1274.27 1280.0 1274.44 C 1302.58 1274.73 1303.77 1274.84 1310.5 1277.37 C 1314.35 1278.82 1318.62 1280.52 1320.0 1281.14 C 1321.38 1281.76 1324.35 1283.22 1326.62 1284.39 C 1328.88 1285.55 1333.38 1288.8 1336.62 1291.61 C 1339.85 1294.43 1344.97 1298.72 1348.0 1301.17 C 1351.22 1303.77 1353.64 1306.56 1353.83 1307.92 C 1354.02 1309.19 1353.76 1310.64 1353.26 1311.14 C 1352.7 1311.7 1351.26 1311.21 1349.62 1309.91 C 1348.12 1308.74 1346.72 1307.95 1346.5 1308.17 C 1346.28 1308.38 1347.77 1310.64 1349.8 1313.18 C 1351.84 1315.72 1354.96 1319.01 1356.75 1320.49 C 1358.54 1321.97 1360.0 1323.73 1360.0 1324.4 C 1360.0 1325.08 1361.35 1326.92 1363.0 1328.5 C 1364.65 1330.08 1366.0 1331.9 1366.0 1332.53 C 1366.0 1333.17 1366.9 1334.5 1368.0 1335.5 C 1369.1 1336.5 1370.0 1337.84 1370.0 1338.48 C 1370.0 1339.12 1371.15 1340.73 1372.56 1342.05 C 1373.97 1343.38 1376.45 1347.26 1378.09 1350.69 C 1379.73 1354.12 1381.5 1357.19 1382.04 1357.52 C 1382.57 1357.85 1383.9 1360.09 1385.0 1362.5 C 1386.1 1364.91 1387.45 1367.16 1388.0 1367.5 C 1388.55 1367.84 1389.9 1370.09 1391.0 1372.5 C 1392.1 1374.91 1393.43 1377.15 1393.96 1377.48 C 1394.5 1377.81 1396.29 1380.93 1397.96 1384.41 C 1399.62 1387.89 1401.66 1391.3 1402.49 1391.99 C 1403.32 1392.68 1404.0 1394.0 1404.0 1394.92 C 1404.0 1395.85 1404.43 1397.03 1404.95 1397.55 C 1405.47 1398.07 1407.72 1402.05 1409.95 1406.39 C 1412.18 1410.73 1414.0 1414.88 1414.0 1415.61 C 1414.0 1416.34 1414.92 1418.57 1416.04 1420.57 C 1417.54 1423.24 1417.79 1424.54 1417.0 1425.5 C 1416.21 1426.46 1416.46 1427.76 1417.96 1430.43 C 1419.08 1432.43 1420.0 1435.82 1420.0 1437.97 C 1420.0 1440.12 1420.45 1442.16 1421.0 1442.5 C 1421.55 1442.84 1422.0 1444.15 1422.0 1445.4 C 1422.0 1446.66 1422.9 1448.5 1424.0 1449.5 C 1425.1 1450.5 1426.0 1452.34 1426.0 1453.6 C 1426.0 1454.85 1426.45 1456.16 1427.0 1456.5 C 1427.55 1456.84 1428.0 1458.43 1428.0 1460.03 C 1428.0 1461.63 1428.9 1464.54 1430.0 1466.5 C 1431.1 1468.46 1432.0 1471.82 1432.0 1473.97 C 1432.0 1476.12 1432.45 1478.16 1433.0 1478.5 C 1433.55 1478.84 1434.0 1481.99 1434.0 1485.5 C 1434.0 1489.01 1434.45 1492.16 1435.0 1492.5 C 1435.55 1492.84 1436.0 1495.99 1436.0 1499.5 C 1436.0 1503.01 1436.39 1506.12 1436.87 1506.42 C 1437.35 1506.72 1438.0 1508.21 1438.32 1509.73 C 1438.65 1511.32 1440.21 1513.35 1441.99 1514.5 C 1443.69 1515.6 1446.57 1518.75 1448.39 1521.5 C 1450.2 1524.25 1453.8 1529.76 1456.38 1533.75 C 1458.96 1537.74 1462.0 1543.14 1463.13 1545.75 C 1464.52 1548.97 1465.36 1553.64 1465.74 1560.23 C 1466.18 1567.96 1466.67 1570.29 1468.14 1571.63 C 1469.16 1572.55 1470.0 1574.09 1470.0 1575.05 C 1470.0 1576.01 1471.35 1579.36 1473.0 1582.5 C 1474.65 1585.64 1476.0 1588.82 1476.0 1589.57 C 1476.0 1590.32 1476.9 1592.54 1478.0 1594.5 C 1479.1 1596.46 1480.0 1598.92 1480.0 1599.97 C 1480.0 1601.02 1480.45 1602.16 1481.0 1602.5 C 1481.55 1602.84 1482.0 1603.95 1482.0 1604.96 C 1482.0 1605.97 1483.35 1609.36 1485.0 1612.5 C 1486.65 1615.64 1488.0 1619.44 1488.0 1620.95 C 1488.0 1622.46 1488.9 1624.5 1490.0 1625.5 C 1491.1 1626.5 1492.0 1628.34 1492.0 1629.6 C 1492.0 1630.85 1492.45 1632.16 1493.0 1632.5 C 1493.55 1632.84 1494.0 1634.43 1494.0 1636.03 C 1494.0 1637.63 1494.9 1640.54 1496.0 1642.5 C 1497.1 1644.46 1498.0 1646.92 1498.0 1647.97 C 1498.0 1649.02 1498.45 1650.16 1499.0 1650.5 C 1499.55 1650.84 1500.0 1651.98 1500.0 1653.03 C 1500.0 1654.08 1500.9 1656.54 1502.0 1658.5 C 1503.1 1660.46 1504.0 1663.37 1504.0 1664.97 C 1504.0 1666.57 1504.45 1668.16 1505.0 1668.5 C 1505.55 1668.84 1506.0 1670.64 1506.0 1672.5 C 1506.0 1674.36 1506.45 1676.16 1507.0 1676.5 C 1507.55 1676.84 1508.0 1678.64 1508.0 1680.5 C 1508.0 1682.36 1508.45 1684.16 1509.0 1684.5 C 1509.55 1684.84 1510.0 1686.64 1510.0 1688.5 C 1510.0 1690.36 1510.45 1692.16 1511.0 1692.5 C 1511.55 1692.84 1512.0 1694.64 1512.0 1696.5 C 1512.0 1698.36 1512.45 1700.16 1513.0 1700.5 C 1513.55 1700.84 1514.0 1702.19 1514.0 1703.5 C 1514.0 1704.81 1514.45 1706.16 1515.0 1706.5 C 1515.55 1706.84 1516.0 1708.15 1516.0 1709.4 C 1516.0 1710.66 1516.9 1712.5 1518.0 1713.5 C 1519.1 1714.5 1520.0 1716.29 1520.0 1717.49 C 1520.0 1718.69 1520.32 1719.99 1520.72 1720.39 C 1521.12 1720.78 1521.56 1722.97 1521.72 1725.25 C 1521.87 1727.53 1522.45 1729.85 1523.0 1730.4 C 1523.55 1730.95 1524.0 1733.76 1524.0 1736.64 C 1524.0 1739.52 1524.45 1742.16 1525.0 1742.5 C 1525.55 1742.84 1526.0 1745.54 1526.0 1748.5 C 1526.0 1751.46 1526.45 1754.16 1527.0 1754.5 C 1527.55 1754.84 1528.0 1756.64 1528.0 1758.5 C 1528.0 1760.36 1528.45 1762.16 1529.0 1762.5 C 1529.55 1762.84 1530.0 1765.09 1530.0 1767.5 C 1530.0 1769.91 1530.45 1772.16 1531.0 1772.5 C 1531.55 1772.84 1532.0 1775.09 1532.0 1777.5 C 1532.0 1779.91 1532.45 1782.16 1533.0 1782.5 C 1533.55 1782.84 1534.0 1785.54 1534.0 1788.5 C 1534.0 1791.46 1534.45 1794.16 1535.0 1794.5 C 1535.55 1794.84 1536.0 1797.03 1536.0 1799.36 C 1536.0 1801.69 1536.42 1804.03 1536.94 1804.55 C 1537.45 1805.07 1537.99 1808.2 1538.13 1811.5 C 1538.27 1814.8 1538.72 1817.95 1539.12 1818.51 C 1539.52 1819.07 1539.96 1823.12 1540.09 1827.51 C 1540.23 1831.9 1540.71 1835.99 1541.17 1836.6 C 1541.62 1837.2 1542.06 1840.8 1542.14 1844.6 C 1542.23 1848.39 1542.65 1851.96 1543.07 1852.51 C 1543.5 1853.07 1543.96 1857.57 1544.09 1862.51 C 1544.22 1867.46 1544.7 1871.99 1545.16 1872.6 C 1545.62 1873.2 1546.05 1878.15 1546.11 1883.6 C 1546.18 1889.04 1546.6 1893.96 1547.05 1894.52 C 1547.49 1895.08 1547.95 1900.48 1548.07 1906.52 C 1548.19 1912.56 1548.65 1917.97 1549.1 1918.55 C 1549.54 1919.12 1549.98 1925.87 1550.07 1933.55 C 1550.16 1941.22 1550.61 1947.97 1551.08 1948.55 C 1551.54 1949.13 1551.99 1961.73 1552.08 1976.55 C 1552.17 1992.82 1552.64 2004.0 1553.24 2004.75 C 1553.89 2005.56 1553.9 2006.44 1553.27 2007.25 C 1552.74 2007.94 1552.38 2010.97 1552.47 2014.0 C 1552.56 2017.03 1553.02 2020.35 1553.48 2021.38 C 1553.96 2022.47 1553.9 2023.95 1553.33 2024.88 C 1552.79 2025.77 1552.42 2030.0 1552.5 2034.27 C 1552.61 2039.67 1552.25 2042.38 1551.33 2043.14 C 1550.6 2043.75 1550.0 2045.06 1550.0 2046.06 C 1550.0 2047.06 1550.45 2048.16 1551.0 2048.5 C 1551.62 2048.88 1552.0 2057.69 1552.0 2071.59 C 1552.0 2090.6 1551.75 2094.45 1550.38 2096.54 C 1548.84 2098.89 1548.86 2099.0 1550.92 2099.0 C 1552.1 2099.0 1553.32 2098.32 1553.64 2097.5 C 1553.95 2096.68 1554.62 2096.0 1555.11 2096.0 C 1555.6 2096.0 1556.0 2097.1 1556.0 2098.44 C 1556.0 2099.78 1555.55 2101.16 1555.0 2101.5 C 1554.45 2101.84 1554.0 2103.64 1554.0 2105.5 C 1554.0 2107.36 1553.55 2109.16 1553.0 2109.5 C 1552.45 2109.84 1552.0 2111.19 1552.0 2112.5 C 1552.0 2113.81 1551.55 2115.16 1551.0 2115.5 C 1550.45 2115.84 1550.0 2117.64 1550.0 2119.5 C 1550.0 2121.36 1549.55 2123.16 1549.0 2123.5 C 1548.45 2123.84 1548.0 2125.41 1548.0 2126.98 C 1548.0 2128.55 1547.26 2131.11 1546.36 2132.67 C 1545.45 2134.23 1542.91 2136.98 1540.7 2138.79 C 1538.49 2140.6 1536.1 2141.95 1535.38 2141.79 C 1534.67 2141.63 1527.79 2135.31 1520.09 2127.75 C 1512.4 2120.19 1505.63 2114.0 1505.05 2114.0 C 1504.47 2114.0 1504.0 2114.5 1504.0 2115.1 C 1504.0 2115.71 1505.16 2118.52 1506.58 2121.35 C 1508.0 2124.18 1509.88 2127.3 1510.76 2128.27 C 1511.93 2129.57 1512.06 2130.34 1511.24 2131.16 C 1510.43 2131.97 1509.02 2131.32 1505.96 2128.7 C 1503.67 2126.73 1500.35 2124.44 1498.59 2123.61 C 1496.83 2122.77 1493.69 2120.74 1491.62 2119.1 C 1489.55 2117.45 1483.75 2112.21 1478.73 2107.46 C 1470.99 2100.13 1469.23 2098.91 1467.06 2099.39 C 1465.65 2099.7 1463.49 2100.24 1462.25 2100.59 C 1460.63 2101.05 1460.0 2100.81 1460.0 2099.72 C 1460.0 2098.89 1459.39 2097.98 1458.64 2097.69 C 1457.89 2097.4 1456.98 2094.93 1456.61 2092.15 C 1456.25 2089.39 1455.25 2085.86 1454.39 2084.31 C 1452.94 2081.68 1452.88 2082.24 1453.48 2093.0 C 1453.84 2099.32 1454.59 2106.64 1455.15 2109.25 C 1455.71 2111.86 1455.97 2114.56 1455.72 2115.25 C 1455.48 2115.94 1454.23 2114.36 1452.94 2111.75 C 1451.65 2109.14 1449.99 2107.0 1449.25 2107.0 C 1448.5 2107.0 1445.1 2108.88 1441.7 2111.17 C 1438.29 2113.47 1435.28 2115.61 1435.0 2115.92 C 1434.72 2116.24 1432.38 2118.21 1429.78 2120.29 C 1427.19 2122.37 1424.28 2125.41 1423.32 2127.04 C 1422.36 2128.67 1421.25 2130.0 1420.86 2130.0 C 1420.48 2130.0 1419.86 2128.66 1419.51 2127.03 C 1419.15 2125.39 1418.7 2121.68 1418.51 2118.78 C 1418.32 2115.87 1418.12 2112.71 1418.08 2111.75 C 1418.04 2110.79 1417.66 2110.01 1417.25 2110.03 C 1416.84 2110.04 1415.64 2111.95 1414.58 2114.28 C 1413.53 2116.6 1411.66 2119.71 1410.44 2121.19 C 1409.22 2122.68 1407.96 2123.62 1407.63 2123.3 C 1407.31 2122.98 1405.71 2125.69 1404.08 2129.32 C 1402.45 2132.96 1400.63 2138.54 1400.03 2141.72 C 1399.38 2145.16 1399.22 2151.3 1399.62 2156.88 C 1400.16 2164.38 1400.03 2166.18 1398.99 2165.83 C 1398.27 2165.59 1396.87 2163.89 1395.89 2162.05 C 1394.9 2160.21 1393.65 2157.44 1393.12 2155.9 C 1392.42 2153.91 1390.46 2152.25 1386.32 2150.16 C 1383.12 2148.54 1377.7 2145.15 1374.28 2142.64 C 1370.33 2139.72 1367.27 2136.5 1365.87 2133.78 C 1364.66 2131.42 1361.96 2122.76 1359.86 2114.51 C 1357.76 2106.27 1355.53 2095.92 1354.9 2091.51 C 1354.22 2086.75 1352.59 2081.07 1350.88 2077.51 C 1349.3 2074.22 1348.0 2070.97 1348.0 2070.3 C 1348.0 2069.62 1347.1 2067.46 1346.0 2065.5 C 1344.9 2063.54 1344.0 2061.29 1344.0 2060.5 C 1344.0 2059.71 1343.1 2057.46 1342.0 2055.5 C 1340.9 2053.54 1340.0 2051.29 1340.0 2050.5 C 1340.0 2049.71 1339.1 2047.46 1338.0 2045.5 C 1336.9 2043.54 1336.0 2041.08 1336.0 2040.03 C 1336.0 2038.98 1335.55 2037.84 1335.0 2037.5 C 1334.45 2037.16 1334.0 2035.81 1334.0 2034.5 C 1334.0 2033.19 1333.55 2031.84 1333.0 2031.5 C 1332.45 2031.16 1332.0 2029.81 1332.0 2028.5 C 1332.0 2027.19 1331.55 2025.84 1331.0 2025.5 C 1330.45 2025.16 1330.0 2023.81 1330.0 2022.5 C 1330.0 2021.19 1329.55 2019.84 1329.0 2019.5 C 1328.45 2019.16 1328.0 2018.02 1328.0 2016.97 C 1328.0 2015.92 1327.1 2013.46 1326.0 2011.5 C 1324.9 2009.54 1324.0 2006.84 1324.0 2005.5 C 1324.0 2004.16 1323.1 2001.46 1322.0 1999.5 C 1320.9 1997.54 1320.0 1995.29 1320.0 1994.5 C 1320.0 1993.71 1319.1 1991.46 1318.0 1989.5 C 1316.9 1987.54 1316.0 1985.08 1316.0 1984.03 C 1316.0 1982.98 1315.55 1981.84 1315.0 1981.5 C 1314.45 1981.16 1314.0 1980.02 1314.0 1978.97 C 1314.0 1977.92 1313.1 1975.46 1312.0 1973.5 C 1310.9 1971.54 1310.0 1969.08 1310.0 1968.03 C 1310.0 1966.98 1309.55 1965.84 1309.0 1965.5 C 1308.45 1965.16 1308.0 1963.81 1308.0 1962.5 C 1308.0 1961.19 1307.55 1959.84 1307.0 1959.5 C 1306.45 1959.16 1306.0 1957.81 1306.0 1956.5 C 1306.0 1955.19 1305.55 1953.84 1305.0 1953.5 C 1304.45 1953.16 1304.0 1952.02 1304.0 1950.97 C 1304.0 1949.92 1303.1 1947.46 1302.0 1945.5 C 1300.9 1943.54 1300.0 1941.08 1300.0 1940.03 C 1300.0 1938.98 1299.55 1937.84 1299.0 1937.5 C 1298.45 1937.16 1298.0 1935.36 1298.0 1933.5 C 1298.0 1931.64 1297.55 1929.84 1297.0 1929.5 C 1296.45 1929.16 1296.0 1928.02 1296.0 1926.97 C 1296.0 1925.92 1295.1 1923.46 1294.0 1921.5 C 1292.9 1919.54 1292.0 1917.35 1292.0 1916.62 C 1292.0 1915.9 1291.29 1913.89 1290.43 1912.17 C 1289.57 1910.44 1289.13 1908.6 1289.45 1908.08 C 1289.77 1907.56 1289.13 1905.51 1288.02 1903.53 C 1286.91 1901.56 1286.0 1899.08 1286.0 1898.03 C 1286.0 1896.98 1285.55 1895.84 1285.0 1895.5 C 1284.45 1895.16 1284.0 1894.02 1284.0 1892.97 C 1284.0 1891.92 1283.1 1889.46 1282.0 1887.5 C 1280.9 1885.54 1280.0 1883.08 1280.0 1882.03 C 1280.0 1880.98 1279.55 1879.84 1279.0 1879.5 C 1278.45 1879.16 1278.0 1877.81 1278.0 1876.5 C 1278.0 1875.19 1277.55 1873.84 1277.0 1873.5 C 1276.45 1873.16 1276.0 1871.81 1276.0 1870.5 C 1276.0 1869.19 1275.55 1867.84 1275.0 1867.5 C 1274.45 1867.16 1274.0 1865.81 1274.0 1864.5 C 1274.0 1863.19 1273.55 1861.84 1273.0 1861.5 C 1272.45 1861.16 1272.0 1859.36 1272.0 1857.5 C 1272.0 1855.64 1271.55 1853.84 1271.0 1853.5 C 1270.45 1853.16 1270.0 1851.81 1270.0 1850.5 C 1270.0 1849.19 1269.55 1847.84 1269.0 1847.5 C 1268.45 1847.16 1268.0 1845.36 1268.0 1843.5 C 1268.0 1841.64 1267.55 1839.84 1267.0 1839.5 C 1266.45 1839.16 1266.0 1837.36 1266.0 1835.5 C 1266.0 1833.64 1265.55 1831.84 1265.0 1831.5 C 1264.45 1831.16 1264.0 1828.91 1264.0 1826.5 C 1264.0 1824.09 1263.55 1821.84 1263.0 1821.5 C 1262.45 1821.16 1262.0 1819.81 1262.0 1818.5 C 1262.0 1817.19 1261.55 1815.84 1261.0 1815.5 C 1260.45 1815.16 1260.0 1812.91 1260.0 1810.5 C 1260.0 1808.09 1259.55 1805.84 1259.0 1805.5 C 1258.45 1805.16 1258.0 1802.91 1258.0 1800.5 C 1258.0 1798.09 1257.55 1795.84 1257.0 1795.5 C 1256.45 1795.16 1256.0 1792.46 1256.0 1789.5 C 1256.0 1786.54 1255.55 1783.84 1255.0 1783.5 C 1254.45 1783.16 1254.0 1781.36 1254.0 1779.5 C 1254.0 1777.64 1253.55 1775.84 1253.0 1775.5 C 1252.45 1775.16 1252.0 1772.46 1252.0 1769.5 C 1252.0 1766.54 1251.55 1763.84 1251.0 1763.5 C 1250.45 1763.16 1250.0 1760.91 1250.0 1758.5 C 1250.0 1756.09 1249.55 1753.84 1249.0 1753.5 C 1248.45 1753.16 1248.0 1750.01 1248.0 1746.5 C 1248.0 1742.99 1247.55 1739.84 1247.0 1739.5 C 1246.45 1739.16 1246.0 1736.91 1246.0 1734.5 C 1246.0 1732.09 1245.55 1729.84 1245.0 1729.5 C 1244.45 1729.16 1244.0 1725.4 1244.0 1721.14 C 1244.0 1716.88 1243.61 1712.97 1243.14 1712.45 C 1242.66 1711.93 1240.82 1706.78 1239.03 1701.0 C 1237.25 1695.22 1235.27 1688.92 1234.65 1687.0 C 1233.93 1684.79 1230.07 1680.09 1224.22 1674.27 L 1214.94 1665.05 C 1197.48 1682.43 1196.2 1684.2 1194.61 1689.5 C 1193.62 1692.8 1191.73 1698.61 1190.41 1702.42 C 1189.08 1706.23 1188.0 1711.49 1188.0 1714.11 C 1188.0 1716.74 1187.55 1719.16 1187.0 1719.5 C 1186.45 1719.84 1186.0 1722.99 1186.0 1726.5 C 1186.0 1730.01 1185.55 1733.16 1185.0 1733.5 C 1184.45 1733.84 1184.0 1736.54 1184.0 1739.5 C 1184.0 1742.46 1183.55 1745.16 1183.0 1745.5 C 1182.45 1745.84 1182.0 1748.54 1182.0 1751.5 C 1182.0 1754.46 1181.55 1757.16 1181.0 1757.5 C 1180.45 1757.84 1180.0 1760.54 1180.0 1763.5 C 1180.0 1766.46 1179.55 1769.16 1179.0 1769.5 C 1178.45 1769.84 1178.0 1772.09 1178.0 1774.5 C 1178.0 1776.91 1177.55 1779.16 1177.0 1779.5 C 1176.45 1779.84 1176.0 1782.54 1176.0 1785.5 C 1176.0 1788.46 1175.55 1791.16 1175.0 1791.5 C 1174.45 1791.84 1174.0 1793.64 1174.0 1795.5 C 1174.0 1797.36 1173.55 1799.16 1173.0 1799.5 C 1172.45 1799.84 1172.0 1802.09 1172.0 1804.5 C 1172.0 1806.91 1171.55 1809.16 1171.0 1809.5 C 1170.45 1809.84 1170.0 1812.09 1170.0 1814.5 C 1170.0 1816.91 1169.55 1819.16 1169.0 1819.5 C 1168.45 1819.84 1168.0 1821.19 1168.0 1822.5 C 1168.0 1823.81 1167.55 1825.16 1167.0 1825.5 C 1166.45 1825.84 1166.0 1828.09 1166.0 1830.5 C 1166.0 1832.91 1165.55 1835.16 1165.0 1835.5 C 1164.45 1835.84 1164.0 1837.64 1164.0 1839.5 C 1164.0 1841.36 1163.55 1843.16 1163.0 1843.5 C 1162.45 1843.84 1162.0 1845.64 1162.0 1847.5 C 1162.0 1849.36 1161.55 1851.16 1161.0 1851.5 C 1160.45 1851.84 1160.0 1853.19 1160.0 1854.5 C 1160.0 1855.81 1159.55 1857.16 1159.0 1857.5 C 1158.45 1857.84 1158.0 1859.43 1158.0 1861.03 C 1158.0 1862.63 1157.1 1865.54 1156.0 1867.5 C 1154.9 1869.46 1154.0 1872.16 1154.0 1873.5 C 1154.0 1874.84 1153.1 1877.54 1152.0 1879.5 C 1150.9 1881.46 1150.0 1884.33 1150.0 1885.88 C 1150.0 1887.42 1149.1 1889.5 1148.0 1890.5 C 1146.9 1891.5 1146.0 1893.58 1146.0 1895.12 C 1146.0 1896.67 1145.1 1899.54 1144.0 1901.5 C 1142.9 1903.46 1142.0 1905.95 1142.0 1907.04 C 1142.0 1908.13 1141.61 1909.81 1141.13 1910.76 C 1140.64 1911.72 1139.29 1914.46 1138.13 1916.84 C 1136.96 1919.23 1136.0 1922.02 1136.0 1923.04 C 1136.0 1924.05 1135.55 1925.16 1135.0 1925.5 C 1134.45 1925.84 1134.0 1927.19 1134.0 1928.5 C 1134.0 1929.81 1133.55 1931.16 1133.0 1931.5 C 1132.45 1931.84 1132.0 1933.64 1132.0 1935.5 C 1132.0 1937.36 1131.55 1939.16 1131.0 1939.5 C 1130.45 1939.84 1130.0 1940.98 1130.0 1942.03 C 1130.0 1943.08 1129.1 1945.54 1128.0 1947.5 C 1126.9 1949.46 1126.0 1951.92 1126.0 1952.97 C 1126.0 1954.02 1125.55 1955.16 1125.0 1955.5 C 1124.45 1955.84 1124.0 1957.19 1124.0 1958.5 C 1124.0 1959.81 1123.55 1961.16 1123.0 1961.5 C 1122.45 1961.84 1122.0 1963.19 1122.0 1964.5 C 1122.0 1965.81 1121.55 1967.16 1121.0 1967.5 C 1120.45 1967.84 1120.0 1969.4 1120.0 1970.96 C 1120.0 1972.52 1118.65 1976.36 1117.0 1979.5 C 1115.35 1982.64 1114.0 1986.03 1114.0 1987.04 C 1114.0 1988.05 1113.55 1989.16 1113.0 1989.5 C 1112.45 1989.84 1112.0 1991.19 1112.0 1992.5 C 1112.0 1993.81 1111.55 1995.16 1111.0 1995.5 C 1110.45 1995.84 1110.0 1996.95 1110.0 1997.96 C 1110.0 1998.97 1108.65 2002.36 1107.0 2005.5 C 1105.35 2008.64 1104.0 2012.27 1104.0 2013.57 C 1104.0 2014.87 1103.1 2017.54 1102.0 2019.5 C 1100.9 2021.46 1100.0 2023.92 1100.0 2024.97 C 1100.0 2026.02 1099.55 2027.16 1099.0 2027.5 C 1098.45 2027.84 1098.0 2029.19 1098.0 2030.5 C 1098.0 2031.81 1097.55 2033.16 1097.0 2033.5 C 1096.45 2033.84 1096.0 2034.98 1096.0 2036.03 C 1096.0 2037.08 1095.1 2039.54 1094.0 2041.5 C 1092.9 2043.46 1092.0 2045.71 1092.0 2046.5 C 1092.0 2047.29 1091.1 2049.54 1090.0 2051.5 C 1088.9 2053.46 1088.0 2055.71 1088.0 2056.5 C 1088.0 2057.29 1087.1 2059.54 1086.0 2061.5 C 1084.9 2063.46 1084.0 2065.71 1084.0 2066.5 C 1084.0 2067.29 1083.1 2069.54 1082.0 2071.5 C 1080.9 2073.46 1080.0 2075.92 1080.0 2076.97 C 1080.0 2078.02 1079.55 2079.16 1079.0 2079.5 C 1078.45 2079.84 1078.0 2081.19 1078.0 2082.5 C 1078.0 2083.81 1077.6 2085.13 1077.1 2085.44 C 1076.61 2085.74 1075.69 2089.03 1075.05 2092.75 C 1074.41 2096.46 1072.14 2106.33 1070.0 2114.69 C 1067.86 2123.04 1065.2 2131.65 1064.09 2133.82 C 1062.98 2135.99 1060.37 2139.1 1058.29 2140.72 C 1056.2 2142.34 1051.58 2145.39 1048.0 2147.51 C 1044.42 2149.62 1040.6 2151.88 1039.5 2152.53 C 1038.4 2153.19 1036.87 2155.47 1036.1 2157.61 C 1035.33 2159.75 1034.04 2162.51 1033.24 2163.75 C 1032.43 2164.99 1031.3 2166.0 1030.74 2166.0 Z " opacity="1.0" fill="#000000" stroke="none" fill-rule="evenodd"/></svg>