<svg version="1.0" xmlns="http://www.w3.org/2000/svg"
 width="1200.000000pt" height="1600.000000pt" viewBox="0 0 1200.000000 1600.000000"
 preserveAspectRatio="xMidYMid meet">

<g transform="translate(0.000000,1600.000000) scale(0.100000,-0.100000)"
fill="#000000" stroke="none">
<path d="M5333 14598 c3 -24 9 -58 13 -77 6 -31 -4 -98 -29 -181 -5 -19 -24
-51 -41 -70 -17 -19 -50 -67 -74 -107 -66 -108 -127 -166 -224 -212 -87 -41
-122 -54 -150 -56 -9 -1 -34 -18 -55 -37 -21 -20 -51 -48 -67 -62 -16 -14 -25
-26 -20 -26 5 0 2 -6 -6 -13 -24 -19 -51 -67 -45 -77 3 -6 2 -10 -4 -10 -5 0
-13 -10 -17 -22 -3 -13 -16 -43 -27 -67 -15 -32 -17 -46 -9 -49 7 -2 10 -13 6
-29 -4 -14 -2 -28 4 -32 5 -3 27 -46 47 -96 20 -49 42 -94 49 -100 7 -5 14
-13 14 -18 7 -35 101 -121 147 -133 20 -5 26 -4 21 5 -4 6 -3 11 3 11 5 0 12
-4 15 -9 3 -5 21 -9 39 -9 18 0 50 -5 72 -10 22 -6 66 -14 98 -17 31 -4 60
-11 63 -16 10 -16 61 -9 78 10 10 11 24 40 31 65 15 49 17 46 -35 85 l-25 19
25 10 c34 13 52 36 53 69 2 32 13 43 45 43 27 0 28 19 3 52 -33 42 -37 76 -11
110 24 32 17 48 -22 48 -10 0 -18 3 -18 8 1 9 41 78 93 158 107 167 107 166
118 308 13 158 3 243 -47 401 -26 81 -44 119 -67 143 -17 17 -35 32 -40 32 -5
0 -7 -19 -4 -42z"/>
<path d="M6772 14607 c-22 -23 -40 -62 -66 -142 -50 -157 -61 -251 -47 -406
12 -139 17 -152 128 -320 51 -77 83 -132 83 -144 0 -3 -8 -5 -17 -5 -10 0 -24
-4 -32 -9 -12 -7 -10 -14 8 -36 27 -35 26 -51 -4 -100 -31 -50 -31 -65 -2 -65
31 0 42 -11 44 -43 1 -33 19 -56 53 -69 l25 -10 -21 -16 c-12 -9 -30 -22 -39
-28 -17 -9 -17 -13 -2 -59 9 -26 24 -57 34 -67 17 -19 68 -25 77 -9 3 5 32 12
63 16 32 4 84 13 115 20 31 7 59 10 62 7 3 -3 17 1 30 8 14 7 38 10 54 7 25
-5 35 0 68 36 79 84 95 104 98 123 6 28 68 157 83 172 14 14 18 92 5 92 -4 0
-8 8 -9 18 -2 28 -22 72 -32 72 -6 0 -8 7 -5 15 4 8 1 15 -6 15 -6 0 -8 5 -5
10 3 6 1 10 -5 10 -6 0 -9 4 -5 9 3 6 -5 19 -17 30 -12 12 -18 21 -14 21 5 0
-22 29 -58 65 -37 36 -71 63 -76 60 -6 -4 -10 -2 -10 2 0 5 -8 9 -17 10 -32 3
-161 61 -208 93 -25 17 -45 28 -45 24 0 -10 -81 98 -132 178 -27 40 -57 84
-68 98 -41 52 -64 205 -45 301 9 49 -5 55 -43 16z"/>
</g>
</svg>
