<svg version="1.1" xmlns="http://www.w3.org/2000/svg" xmlns:xlink="http://www.w3.org/1999/xlink" x="0px" y="0px" width="1200px"
	 height="1600px" viewBox="0 0 1200 1600" enable-background="new 0 0 1200 1600" xml:space="preserve">
<g id="Layer_2">
	<g transform="translate(0.000000,1600.000000) scale(0.100000,-0.100000)" opacity="0.7">
		<path d="M5334.003,14604.998c2.998-27.002,7.998-67.002,11.992-88.999c3.008-21.001,2.002-55-3.994-75
			c-5-20-15-58.003-22.002-86.001c-5.996-28.999-22.998-62.998-39.004-80c-28.994-31.001-80-106.001-105-152.998
			c-32.998-62.002-113.994-132.002-197.998-171.001c-87.002-41.001-122.002-53.999-150-56.001c-8.994-1.001-33.994-17.998-55-37.002
			c-20.996-20-50.996-47.998-67.002-61.997c-15.996-13.999-25-26.001-20-26.001s2.002-6.001-5.996-12.998
			c-24.004-19.004-50.996-67.002-45-77.002c2.998-6.001,2.002-10-4.004-10c-5,0-12.998-10-16.992-22.002
			c-3.008-12.998-16.006-42.998-27.002-66.997c-15-31.001-17.002-46.001-9.004-48.999c7.002-2.002,9.004-15,5-33.003
			c-2.998-16.001-0.996-28.999,4.004-28.999c5.996,0,27.002-42.998,47.998-95c20.996-52.998,44.004-98.999,52.002-103.999
			c7.998-3.999,13.994-11.001,13.994-13.999c-1.992-16.001,45-74.004,80-99.004c42.002-30,97.002-48.999,85-28.999
			c-3.994,6.001-2.998,11.001,3.008,11.001c5,0,11.992-3.999,15-8.999c2.998-5,20.996-8.999,37.998-8.999
			c17.998,0,62.002-8.003,97.998-16.001c35.996-8.999,79.004-16.001,97.002-16.001c17.002,0,35-3.999,37.998-10
			c10-17.002,60.996-11.001,77.998,7.998c10,10,25,41.001,34.004,67.002c15,46.001,15,50-1.006,58.999
			c-52.998,32.002-51.992,31.001-11.992,70c30.996,28.999,36.992,40,31.992,61.001c-3.994,13.999-2.998,26.001,1.006,26.001
			c5,1.001,17.998,2.998,30.996,3.999c37.002,3.999,37.998,13.999,9.004,66.001c-32.002,58.999-32.998,68.999-6.006,102.998
			c24.004,30,18.008,46.001-16.992,46.001c-13.008,0-24.004,2.002-24.004,5c0,12.002,32.002,67.002,82.998,143.999
			c111.006,168.003,116.006,181.001,127.998,320c14.004,155,3.008,248.999-47.998,407.002c-30,95-40.996,117.998-75,150l-40,38.999
			L5334.003,14604.998z"/>
		<path d="M6772.001,14607c-37.998-39.004-92.998-200-112.002-328.003c-17.002-116.001-0.996-340,27.998-378.999
			c11.006-13.999,29.004-46.001,42.002-70c12.002-25,40.996-72.002,65-105c40-57.002,75-117.002,75-130c0-2.998-10.996-5-24.004-5
			c-30,0-53.994-25-30.996-33.999c7.998-3.003,20-18.003,25.996-33.003c9.004-23.999,6.006-35.996-17.998-80
			c-15-27.998-25-55-20.996-57.998c5.996-6.001,30-12.998,53.994-13.999c7.002-1.001,9.004-12.002,6.006-26.001
			c-2.998-20,3.994-32.998,33.994-61.001c40-38.999,41.006-37.998-11.992-70c-16.006-8.999-16.006-12.998-1.006-58.999
			c9.004-26.001,24.004-57.002,34.004-67.002c17.002-18.999,67.998-25,77.998-7.998c2.998,6.001,20.996,10,37.998,10
			c17.998,0,69.004,8.999,114.004,18.999s85,16.001,87.998,13.003c2.998-3.003,15.996,0.996,29.004,7.998
			c13.994,7.002,37.998,10,53.994,7.002c24.004-5,35,0,65,30.996c55,56.001,97.998,110,101.006,124.004
			c0.996,6.997,13.994,38.999,28.994,71.997c15,32.002,27.002,62.002,27.002,66.001s9.004,17.002,20,30
			c20,22.998,29.004,100,12.002,100c-4.004,0-7.998,7.998-9.004,17.998c-2.002,28.003-22.002,72.002-32.002,72.002
			c-5.996,0-7.998,7.002-5,15c4.004,7.998,1.006,15-5.996,15c-5.996,0-7.998,5-5,10c2.998,6.001,0.996,10-5,10s-9.004,3.999-5,8.999
			c2.998,6.001-5,18.999-17.002,30c-12.002,12.002-17.998,21.001-13.994,21.001c5,0-22.002,28.999-58.008,65
			c-36.992,36.001-70.996,62.998-75.996,60c-5.996-3.999-10-2.002-10,2.002c0,5-7.998,8.999-17.002,10
			c-32.002,2.998-160.996,60.996-207.998,92.998c-25,17.002-45,27.998-45,25c0-12.998-75.996,90-122.998,166.001
			c-26.006,41.997-56.006,83.999-67.002,93.999c-30.996,27.998-70.996,178.999-64.004,240c2.002,17.002,7.002,51.001,10,77.998
			c3.008,26.001,2.002,47.002-2.998,47.002S6790,14624.998,6772.001,14607z"/>
	</g>
</g>
<g id="Layer_1">
	<g transform="translate(0.000000,1600.000000) scale(0.100000,-0.100000)">
		<path d="M5330,14621.999c0-95-5-149.004-19.004-204.004c-27.998-107.998-101.992-248.999-161.992-310c-10-10-23.008-25-31.006-35
			c-7.002-10-70.996-45-142.998-76.997c-257.002-116.001-284.004-135-335-237.002c-22.002-43.999-49.004-91.997-60-106.997
			c-27.002-38.003-30.996-141.001-9.004-214.004c24.004-78.999,78.008-171.997,140-240.996c61.006-69.004,89.004-85,147.002-85
			c24.004-1.001,57.002-5,75-11.001s79.004-17.002,136.006-25c95-13.999,110-13.999,160,0c30.996,8.999,60.996,21.001,65.996,26.997
			c7.002,7.002,5,7.002-5,2.002c-7.998-5,5.996,13.999,30.996,41.001c58.008,62.998,102.002,128.999,97.002,145
			c-2.002,6.997-15.996-8.003-30.996-33.003c-44.004-75-130-145.996-170-138.999c-4.004,1.001-42.998,6.001-85,11.001
			C5025,13143.996,5010,13147.995,5010,13163.996c0,8.003,10,16.001,22.998,20c12.002,3.003,35,16.001,50,28.003
			c25,20.996,29.004,31.997,37.002,108.999c5,47.998,14.004,113.999,20,146.001c10.996,53.999,15.996,61.997,49.004,78.999
			c20,10,38.994,20,41.992,21.001c3.008,1.997,18.008-8.003,33.008-22.002c25.996-23.999,28.994-25,45.996-10
			c15.996,15,20.996,15,42.002,2.002c12.002-8.003,38.994-18.003,57.998-22.002l35-6.001l-45,25c-25,13.999-52.002,30-60,35
			s-14.004,16.001-12.002,23.999c1.006,9.004-2.002,18.003-7.998,22.002s2.002,18.999,19.004,37.002
			c15.996,17.998,47.998,63.999,70,101.997c111.992,198.003,140,448.999,71.992,661.001c-15.996,50-35,110-41.992,135
			c-27.002,88.999-76.006,195-93.008,197.998C5332.001,14750.998,5330,14736.999,5330,14621.999z M5429.003,14436.999
			c10.996-26.001,20.996-51.001,21.992-55c1.006-4.004,5-18.003,10-31.001c13.008-33.999,13.008-233.999,0-316.001
			c-12.998-78.999-37.998-165-52.998-180c-7.002-7.002-7.998-2.998-3.994,10c2.998,11.001,7.998,36.001,10.996,55
			s10,52.998,15.996,75c10,43.999,25,382.998,16.006,375c-2.998-2.998-7.002-37.002-7.002-75c-5-191.001-45-441.001-84.004-527.998
			c-12.998-29.004-35-64.004-48.994-78.003c-14.004-15-22.998-30-19.004-32.998c2.998-3.999-2.002-3.999-12.002,0
			c-10.996,3.999-16.992,2.998-13.994-2.002c3.994-5-10-16.997-30-26.997c-42.998-21.001-157.002-121.001-127.002-112.002
			c19.004,6.001,19.004,6.001,2.998-7.998c-18.994-15-37.002-114.004-37.998-202.002c0-27.002-5-57.002-10-65s-10-11.001-10-6.001
			s-7.998,2.002-17.002-6.001c-32.998-27.998-107.998-65.996-143.994-71.997c-35-6.001-37.002-5-58.008,41.001
			c-15.996,35-20,40-15.996,17.998c2.998-16.001,7.998-37.998,12.002-48.999c7.998-26.001-14.004-11.001-39.004,27.998
			c-10.996,17.002-17.002,22.002-12.998,11.001c10.996-35-54.004,33.999-89.004,95c-66.992,116.001-107.998,237.002-88.994,262.998
			c5,7.002,18.994,38.003,32.002,69.004c35.996,90,80,166.997,103.994,178.999c11.006,6.997,32.002,21.997,46.006,36.001
			c13.994,12.998,48.994,31.997,75.996,41.997c185.996,70,292.998,140,365,236.001c75.996,102.998,127.998,246.001,145,398.999
			l7.002,60l17.998-50C5400,14506.999,5417.001,14463.996,5429.003,14436.999z M5390.996,13806.999c-10-9.004-10.996-8.003-5,5.996
			c3.008,10,9.004,15,12.002,12.002S5397.998,13813.996,5390.996,13806.999z"/>
		<path d="M5382.001,14459.997c0-18.999,2.002-27.002,5-17.002c2.002,9.004,2.002,25,0,35
			C5384.003,14486.999,5382.001,14478.996,5382.001,14459.997z"/>
		<path d="M5370,14375.998c0-41.001-24.004-198.003-37.002-241.001c-2.998-11.001-2.002-17.002,1.006-12.998
			c20.996,18.999,60,297.998,41.992,297.998C5372.998,14419.997,5370,14399.997,5370,14375.998z"/>
		<path d="M5240,14000.998c-40.996-42.002-102.002-93.999-135-116.001s-64.004-42.998-70-47.002c-5-5-44.004-30.996-85-57.998
			c-97.002-65-127.998-90-110.996-90c6.992,0,30,12.998,50,27.998c20,16.001,77.998,57.002,130,91.001
			c130,87.002,196.992,137.002,243.994,183.999c22.998,23.003,37.002,32.002,32.998,21.001c-5-11.997-3.994-15,2.002-8.999
			c9.004,8.999,27.002,77.002,20,73.999C5315.996,14077.995,5280.996,14042.995,5240,14000.998z"/>
		<path d="M5260,13949.997c-5.996-11.001-7.998-20-5.996-20c2.998,0,10,8.999,15.996,20s7.998,20,5.996,20
			C5272.998,13969.997,5265.996,13960.998,5260,13949.997z"/>
		<path d="M5214.003,13874.997c-15-25-31.006-45-35-45c-22.002,0-249.004-210-249.004-228.999c0-7.002,37.998,25,84.004,71.001
			c92.998,90.996,90.996,90,156.992,136.997c30,21.001,52.002,46.001,62.002,72.002c7.998,21.001,14.004,38.999,12.998,38.999
			C5244.003,13919.997,5230,13899.997,5214.003,13874.997z"/>
		<path d="M4800,13669.997c-7.998-5-10-10-5-10c5.996,0,17.002,5,25,10s10.996,10,5,10
			C4820,13679.997,4807.998,13674.997,4800,13669.997z"/>
		<path d="M4765,13639.997c-2.998-6.001,0.996-7.002,9.004-3.999c17.998,6.997,20.996,13.999,6.992,13.999
			C4775,13649.997,4767.998,13645.998,4765,13639.997z"/>
		<path d="M4897.001,13567.995c-10-10.996-17.002-21.997-14.004-23.999c2.002-1.997,12.002,5,22.002,16.001
			C4927.998,13585.998,4920.996,13592.995,4897.001,13567.995z"/>
		<path d="M4702.998,13469.997c0-47.002,2.002-66.001,4.004-42.002c2.002,23.003,2.002,61.001,0,85
			C4705,13535.998,4702.998,13516.999,4702.998,13469.997z"/>
		<path d="M4847.998,13497.995c-35.996-47.998-45-67.998-50.996-120c-9.004-67.998,5.996-60,18.994,10
			c7.002,32.002,23.008,77.002,38.008,100C4885,13537.995,4882.001,13542.995,4847.998,13497.995z"/>
		<path d="M5050,13484.997c-12.998-13.999-20.996-25-17.998-25c10,0,50.996,40,45.996,45
			C5075.996,13507.995,5062.998,13498.996,5050,13484.997z"/>
		<path d="M5002.001,13374.997c0-16.001,2.002-22.002,5-12.002c2.002,9.004,2.002,23.003,0,30
			C5004.003,13398.996,5002.001,13391.999,5002.001,13374.997z"/>
		<path d="M4717.998,13334.997c7.998-25,16.006-43.999,17.998-42.998c6.006,5.996-17.998,87.998-25.996,87.998
			C4705.996,13379.997,4709.003,13359.997,4717.998,13334.997z"/>
		<path d="M4802.998,13284.997c0-22.002,2.002-30,4.004-17.002c2.002,12.002,2.002,30,0,40
			C4804.003,13316.999,4802.001,13306.999,4802.998,13284.997z"/>
		<path d="M5020.996,13273.996c0-11.001,3.008-13.999,6.006-6.001c2.998,7.002,2.002,16.001-1.006,19.004
			C5022.998,13290.998,5020,13284.997,5020.996,13273.996z"/>
		<path d="M6772.997,14702.995c-22.998-50.996-53.994-140.996-100-287.998c-25-81.001-27.998-103.999-27.998-230
			c0-152.002,4.004-186.001,37.002-285c27.998-86.001,57.002-142.002,110.996-216.001c57.998-80,55-101.001-18.994-140
			c-65-33.999-56.006-45,11.992-15c42.002,18.999,48.008,18.999,58.008,6.001c10-13.999,15-12.998,45,8.999l33.994,25l37.998-18.999
			c46.006-23.999,54.004-48.999,73.008-211.001c10-86.997,15.996-111.997,31.992-123.999c10-7.998,25-15,32.002-15
			c6.006,0,12.002-3.999,12.002-10c0-5,9.004-10,20-10s20-3.999,20-10c0-17.002-34.004-27.998-115-35
			c-44.004-3.999-87.002-11.001-95.996-16.001c-12.002-6.001-30,1.001-61.006,21.001c-52.998,35-63.994,47.002-112.998,120
			c-20.996,31.001-34.004,43.999-30,30c10.996-36.001,60-105,114.004-160c47.998-47.998,118.994-77.998,156.992-66.001
			c11.006,3.003,44.004,8.003,74.004,11.001s82.002,12.998,115,22.002c32.998,7.998,80.996,13.999,107.002,13.999
			c40.996-2.002,50.996,2.998,95,41.001c90,78.999,162.002,193.999,192.998,307.998c14.004,50,4.004,173.999-14.004,192.998
			c-6.992,7.002-32.998,52.002-60,101.001c-25.996,48.999-52.998,93.999-58.994,101.001
			c-14.004,13.999-194.004,103.999-319.004,158.999c-67.998,30-95,48.999-125,85c-135,162.002-192.998,330-192.998,558.999
			C6819.999,14764.997,6805.995,14777.995,6772.997,14702.995z M6799.003,14467.995c5.996-45.996,22.998-116.997,37.998-157.998
			c27.998-78.999,125-232.998,172.998-273.999c40.996-33.999,164.004-98.999,247.002-130c40-15,87.002-38.003,105-51.001
			c17.998-13.999,42.998-30,55-36.001c37.998-20,142.998-241.001,142.998-300c0-25-44.004-132.998-87.002-213.999
			c-25.996-47.998-97.002-121.001-87.998-90c2.998,11.001-0.996,6.001-10-12.002c-7.998-17.998-24.004-36.997-35.996-43.999
			c-15-7.998-19.004-7.998-15,0c3.994,6.001,8.994,23.999,11.992,38.999c3.008,24.004,2.002,23.003-15.996-10.996
			c-25-45-37.998-44.004-150.996,10.996l-76.006,37.002l-12.998,127.002c-7.998,81.997-17.002,131.997-25.996,138.999
			c-8.008,6.001-12.002,13.999-9.004,17.998c9.004,16.001-149.004,141.001-177.998,141.001c-6.006,0-7.002,2.998-4.004,6.001
			c2.998,3.999-3.994,15-17.002,25c-12.998,10-30.996,36.997-40,58.999c-8.994,22.002-18.994,40-23.994,40
			c-4.004,0-7.998,7.998-7.998,17.998c0,9.004-11.006,73.003-24.004,142.002c-19.004,100-24.004,161.001-24.004,305
			c-0.996,168.999,1.006,183.999,24.004,242.002c12.998,33.999,27.002,60,30.996,56.997
			C6784.999,14551.999,6792.997,14512.995,6799.003,14467.995z M6709.003,14232.995c0-135.996,15-266.997,40.996-361.997
			c5-18.999,7.998-37.002,5-38.999c-7.998-8.003-55.996,162.998-65.996,236.997c-14.004,98.999-3.008,311.001,16.992,311.001
			C6707.001,14379.997,6709.003,14313.996,6709.003,14232.995z"/>
		<path d="M6772.997,14414.997c0-32.998,2.002-45,4.004-27.002c2.002,18.003,2.002,45,0,60S6772.997,14447.995,6772.997,14414.997z"
			/>
		<path d="M6782.997,14309.997c0-25,2.002-35,4.004-22.002c2.002,12.002,2.002,32.002,0,45
			C6784.999,14344.997,6782.997,14334.997,6782.997,14309.997z"/>
		<path d="M6792.001,14239.997c0-27.998,25-132.998,25.996-110c1.006,7.998-5,42.002-12.002,75
			C6797.997,14237.995,6792.001,14253.996,6792.001,14239.997z"/>
		<path d="M6835.995,14052.995c4.004-15.996,11.006-35,16.006-42.998c7.002-11.001,7.998-10,2.998,3.999
			c-2.998,12.002,17.998-1.997,52.002-35c32.002-30,113.994-92.998,182.998-138.999s165.996-115,217.002-152.002
			c50-36.997,95-67.998,98.994-67.998c4.004,0-15,17.002-41.992,37.002c-41.006,30.996-76.006,58.999-170,131.997
			c-6.006,5-42.002,28.003-80,52.002c-80,51.001-71.006,43.999-152.002,110c-35,27.998-76.006,68.999-90,90
			C6839.999,14085.998,6827.001,14090.998,6835.995,14052.995z"/>
		<path d="M6870.995,13984.997c0-5,6.006-21.001,14.004-35s14.004-20,14.004-15c0,6.001-6.006,21.001-14.004,35
			S6870.995,13990.998,6870.995,13984.997z"/>
		<path d="M6917.001,13885.998c5-23.999,62.998-88.003,62.998-70c0,6.001-10.996,21.001-25,33.999s-25,28.999-25,36.001
			c0,6.997-4.004,15-9.004,17.998C6917.001,13906.999,6914.999,13898.996,6917.001,13885.998z"/>
		<path d="M6989.999,13811.999c0-5,24.004-29.004,52.998-52.002c62.002-50,147.998-131.001,177.002-167.002
			c10.996-13.999,22.998-22.998,27.002-20c5.996,7.002-149.004,165-197.002,201.001c-14.004,10-32.998,26.001-42.002,33.999
			C6997.997,13815.998,6989.999,13817.995,6989.999,13811.999z"/>
		<path d="M7409.999,13605.998c0-2.002,7.002-7.002,15.996-10c8.008-3.003,12.002-2.002,9.004,3.999
			C7429.003,13609.997,7409.999,13613.996,7409.999,13605.998z"/>
		<path d="M7439.999,13540.998c0-17.002,4.004-32.002,7.998-35c4.004-2.002,6.006,11.001,4.004,30
			C7447.001,13577.995,7439.999,13580.998,7439.999,13540.998z"/>
		<path d="M7259.999,13552.995c0-3.999,5-15,10-22.998c7.998-12.998,10-12.998,10,2.002c0,8.999-4.004,20-10,22.998
			C7264.999,13557.995,7259.999,13557.995,7259.999,13552.995z"/>
		<path d="M7084.999,13483.996c22.002-21.001,42.002-35,44.004-30c3.994,8.999-27.002,37.002-64.004,58.003
			C7054.003,13517.995,7062.997,13505.998,7084.999,13483.996z"/>
		<path d="M7289.999,13513.996c0-5,12.998-35,29.004-66.997c26.992-52.002,28.994-65,25.996-140
			c-2.002-67.002-0.996-76.001,7.002-47.002c5.996,18.999,7.998,66.001,5,102.998c-5,54.004-12.998,78.003-36.006,114.004
			C7304.003,13502.995,7289.999,13518.996,7289.999,13513.996z"/>
		<path d="M7442.001,13422.995c-1.006-21.997-11.006-70-22.002-103.999c-10-35-17.002-65-15-66.997c10-10,45.996,140,42.002,173.999
			l-4.004,38.999L7442.001,13422.995z"/>
		<path d="M7142.997,13384.997c0-22.002,2.002-30,4.004-17.002c2.002,12.002,2.002,30,0,40
			C7144.003,13416.999,7142.001,13406.999,7142.997,13384.997z"/>
		<path d="M7122.001,13349.997c0-13.999,2.002-18.999,5-12.002c2.002,6.001,2.002,18.003,0,25
			C7124.003,13368.996,7122.001,13363.996,7122.001,13349.997z"/>
		<path d="M7119.999,13269.997c0-11.001,2.002-20,4.004-20c1.992,0,5.996,8.999,8.994,20s1.006,20-3.994,20
			S7119.999,13280.998,7119.999,13269.997z"/>
	</g>
</g>
</svg>
