<?xml version="1.0" encoding="utf-8"?>
<!-- Generator: Adobe Illustrator 16.0.0, SVG Export Plug-In . SVG Version: 6.00 Build 0)  -->
<!DOCTYPE svg PUBLIC "-//W3C//DTD SVG 1.1//EN" "http://www.w3.org/Graphics/SVG/1.1/DTD/svg11.dtd">
<svg version="1.1" xmlns="http://www.w3.org/2000/svg" xmlns:xlink="http://www.w3.org/1999/xlink" x="0px" y="0px" width="1200px"
	 height="1600px" viewBox="0 0 1200 1600" enable-background="new 0 0 1200 1600" xml:space="preserve">
<g id="Layer_2">
	<g transform="translate(0.000000,1600.000000) scale(0.100000,-0.100000)" opacity="0.1">
		<path d="M5834.003,13514.998c-140-42.002-374.004-205-532.002-371.001c-57.002-60-142.998-148.999-192.002-198.999
			c-87.002-87.998-174.004-194.004-147.998-180c7.002,4.004-1.006-5-17.998-20.996c-47.002-45-113.008-153.008-197.002-325
			c-72.002-147.002-162.998-387.002-155-411.006c2.002-5.996,22.998,27.998,45.996,76.006
			c22.998,47.998,57.998,110.996,77.002,141.992c32.002,50,37.002,54.004,50.996,40c14.004-13.994,11.006-26.992-30.996-132.998
			c-25-65-57.002-142.998-70-172.998s-30-79.004-39.004-109.004c-8.994-30-26.992-81.992-40.996-116.992
			s-29.004-83.008-34.004-106.006c-5-23.994-17.998-77.998-28.994-120c-47.998-177.998-57.002-262.002-57.002-515
			c0-167.998,2.998-245.996,10.996-252.998c9.004-9.004,12.002,7.002,12.002,62.002c0,78.994,27.998,255,44.004,275
			c7.998,10,12.998,8.994,23.994-2.002c12.002-12.002,13.008-30.996,4.004-117.998c-7.002-72.002-7.002-141.006,0-227.998
			c12.998-152.002,39.004-340,50-354.004c4.004-5,10-22.998,14.004-40c15-67.002,68.994-222.998,90.996-260
			c12.002-22.002,44.004-80,70-130c25.996-49.004,65.996-115.996,89.004-147.998c66.992-96.006,93.994-137.998,135.996-209.004
			c22.002-37.002,45.996-70,52.998-75c7.002-3.994,5,4.004-3.994,17.998c-37.002,55-74.004,343.008-49.004,374.004
			c7.002,7.998,17.002,12.002,22.002,9.004C5042.001,9907.996,5090,9807,5090,9792c0-12.002,32.002-81.006,70.996-152.002
			c36.006-65,127.002-285,159.004-385c12.002-37.998,30.996-92.002,40.996-120c10-27.002,37.002-105.996,60-175
			c22.002-69.004,49.004-142.997,59.004-164.999c9.004-22.002,20-47.998,22.998-57.998c4.004-10,11.006-16.006,16.006-12.002
			c5.996,2.998,5,24.004-3.008,52.998c-40,147.001-46.992,229.999-22.998,251.005c17.002,13.994,37.002-4.004,37.002-34.004
			c0-10.996,5.996-29.004,14.004-40c6.992-10.996,16.992-35.996,20.996-55c9.004-39.999,95.996-209.003,134.004-259.999
			c13.994-19.004,57.998-65.996,95.996-105c65.996-65.996,84.004-90,152.002-197.002c47.002-77.002,85.996-132.002,120-172.002
			c17.998-21.992,32.998-45,32.998-51.992c0-6.006,5.996-14.004,12.998-17.002c10-4.004,14.004,7.002,15,37.998
			c1.006,24.004,7.002,55.996,12.002,70c5.996,15,10,35,10,45c0,17.998,80,195,114.004,250c15,25.996,36.992,72.998,75.996,170
			c55,134.004,55.996,135.996,80.996,114.004c11.006-10,19.004-22.002,19.004-27.002c0-14.004,50-140,60-150
			c4.004-5,7.998,20.996,7.998,57.998c1.006,80,12.998,135,59.004,274.003c50,148.994,110.996,247.998,500.996,815.996
			c287.998,419.004,371.006,549.004,397.998,625c9.004,25,38.008,100,65,167.998c27.002,67.998,49.004,129.004,49.004,136.006
			c0,23.994,22.002,35.996,37.998,20c15-16.006,17.998-74.004,7.002-154.004c-2.998-19.004-10-75-15-125
			c-5-49.004-20.996-147.998-35-219.004c-14.004-70.996-24.004-130-22.002-131.992c2.998-3.008,66.006,177.998,102.002,295.996
			c14.004,47.002,39.004,127.998,55,180c45.996,152.002,55,225.996,55,455c0,252.998-12.002,430.996-35.996,510
			c-4.004,17.002-10,40.996-13.008,55c-28.994,157.002-128.994,455-171.992,510c-6.006,7.998-24.004,44.004-40,80
			c-15,35.996-48.008,97.998-72.002,137.998c-37.002,62.998-41.006,74.004-29.004,87.002c12.998,12.002,21.006,7.998,64.004-37.998
			c25.996-29.004,60.996-67.998,77.002-87.002c33.994-42.998,23.994-20.996-53.008,112.998c-90.996,159.004-153.994,245-292.998,395
			c-50,52.998-113.994,132.998-142.002,177.002c-140,215-341.992,407.002-525.996,500c-145.996,73.999-170.996,77.998-425,81.001
			C5947.998,13527,5862.001,13523.997,5834.003,13514.998z"/>
	</g>
</g>
<g id="Layer_1">
	<g transform="translate(0.000000,1600.000000) scale(0.100000,-0.100000)">
		<path d="M6219.999,13446.999c2.998-2.002,50-7.002,105-10c95.996-6.001,250.996-44.004,282.998-69.004
			c7.998-6.997,12.002-6.997,12.002,0c0,10-17.998,18.003-120,52.002c-42.998,13.999-102.002,22.998-175,27.002
			C6264.999,13449.997,6217.001,13449.997,6219.999,13446.999z"/>
		<path d="M6574.999,13439.997c2.998-5,7.998-10,10.996-10c2.002,0,4.004,5,4.004,10c0,6.001-5,10-10.996,10
			C6574.003,13449.997,6572.001,13445.998,6574.999,13439.997z"/>
		<path d="M6614.999,13407.995c25-13.999,87.998-67.998,80-67.998c-10.996,0-50,22.998-57.002,33.999
			c-5,8.003-7.998,7.002-7.998-1.001c0-6.997,22.002-23.999,49.004-36.997c55.996-28.999,90.996-63.999,195-198.003
			c71.992-91.997,91.992-127.998,63.994-111.997c-7.002,3.999,0-7.002,16.006-23.999c16.992-17.998,31.992-32.002,35-32.002
			c1.992,0-6.006,10.996-19.004,25s-19.004,25-14.004,25c6.006,0,23.008-20.996,40-47.002
			c16.006-25.996,43.008-60.996,61.006-78.994c17.002-18.008,63.994-70,102.998-115c39.004-46.006,107.998-126.005,152.998-178.007
			c82.998-93.994,161.006-200.996,192.998-262.998c13.008-27.002,0-17.998-66.992,47.002
			c-79.004,75-151.006,140.996-208.008,189.004c-18.994,15.996-15.996,10,9.004-24.004c19.004-25,42.998-54.004,52.998-65
			c117.998-127.002,271.006-465.996,347.002-770c17.002-65.996,34.004-135.996,39.004-155s11.992-60,15.996-90
			s12.998-82.002,22.002-115c28.994-117.002,37.998-205.996,35.996-390c-0.996-155-17.002-257.002-62.002-397.002
			c-15.996-50.996-35-112.002-40.996-135.996c-5.996-22.998-15-40-20.996-37.002c-5,4.004-7.002,9.004-5,12.998
			c1.992,4.004,11.992,60,20.996,125c69.971,505.131-52.129,1042.168-294.463,1487.314
			c-69.199,127.119-150.742,250.303-238.945,365.078c-68.311,88.896-145.723,195.137-235.596,261.66
			c97.959-139.219,223.848-256.676,318.555-400.396c73.594-111.693,133.867-233.393,190.801-354.232
			c37.1-78.74,64.658-160.176,92.646-242.422c17.002-47.002,41.006-134.004,52.998-195c12.002-60,28.008-117.002,34.004-125
			c7.002-7.998,15.996-32.998,19.004-55c45-322.998,27.998-447.002-111.006-800.996
			c-67.002-171.006-177.002-356.006-342.998-579.004c-185-249.004-350-505-562.002-870.996
			c-32.002-54.004-67.998-175-80.996-274.004c-6.006-40.996-20-25-40,47.002c-17.998,65-19.004,145.996-2.002,220.996
			c2.998,12.002,7.002,30,9.004,40c1.992,9.004,12.998,44.004,23.994,77.002c36.006,110,54.004,170,67.998,215
			c7.002,25,24.004,82.998,37.002,130c14.004,47.002,35,119.004,47.002,160c22.002,75.996,52.002,157.998,97.002,265
			c35,85,37.998,97.002,8.994,42.998c-36.992-67.002-110-265-160.996-432.998c-10-32.998-24.004-77.998-30.996-100
			c-6.006-22.002-24.004-82.998-39.004-135s-32.998-112.998-40-135c-25.996-79.004-47.998-159.004-50.996-185.996
			c-3.008-26.006-29.004-106.006-79.004-249.004c-25.996-72.998-104.004-230-130-260c-7.002-7.998-30-57.998-50-110
			s-44.004-107.998-52.002-124.004l-15-28.994l-33.994,38.994c-18.008,21.006-61.006,87.002-94.004,146.006
			c-34.004,57.998-67.002,112.002-75,117.998c-7.998,7.002-15,17.002-15,22.002c0,5.996-5.996,23.994-14.004,40.996
			c-107.109,227.417-135.85,498.461-124.277,746.309c10.752,230.248,39.712,472.793,126.494,687.875
			c42.529,105.41,104.727,201.568,171.943,292.725c61.357,83.213,133.164,167.109,145.459,273.848
			c-16.016-139.014-175.4-248.115-245.386-363.789c-209.834-346.801-236.162-791.088-201.133-1184.902
			c13.413-150.79,38.755-300.014,64.937-449.018c-279.604,336.234-408.281,842.744-381.567,1273.066
			c8.394,135.229,32.456,274.219,68.535,404.857c29.834,108.053,67.656,213.678,105.43,319.141
			c-216.421-365.316-249.541-840.117-161.431-1248.109c19.004-87.998,30.996-194.004,40-337.002c0-5-4.004-7.998-10-7.998
			c-5,0-44.004,100-85.996,222.002c-71.006,207.002-133.008,360.996-230,567.002c-64.004,135.996-81.006,213.994-83.008,375.996
			c-0.996,170.996,7.002,245.996,39.004,332.998c12.998,36.006,22.998,67.998,20.996,69.004c-6.992,7.998-66.992-137.998-80-197.002
			c-40-172.002-60.996-465.996-43.994-610l5.996-55l-18.994,24.004c-10,12.998-16.006,27.998-12.002,33.994
			c2.998,6.006,0.996,7.002-5,2.998c-6.006-3.994-17.998,4.004-25,16.006c-7.998,12.998-40,62.998-72.002,112.002
			c-30.996,48.994-72.002,115.996-90,150c-42.002,75.996-119.004,300.996-110.996,322.998c3.994,10,1.992,13.994-8.008,10
			c-32.998-12.998-75.996,268.994-76.992,500c0,78.994,1.992,145.996,3.994,150c2.998,5,7.998,45.996,12.002,92.998
			c22.998,277.002,107.998,522.998,265.029,760.043c28.003,42.637,79.063,99.199,88.818,148.672
			c-54.517-21.934-102.959-143.295-131.841-194.213c-35.513-62.604-74.131-125.879-103.032-191.934
			c-62.676-143.271-125.376-292.828-172.075-442.246c-22.178-70.963-29.014-162.598-66.592-226.715
			c-30.234,138.613,8.589,329.395,38.696,465.641c23.179,104.873,56.699,208.402,89.688,310.635
			c62.085,192.393,123.682,382.143,213.525,563.695c62.568,126.441,136.66,246.49,199.995,372.223
			c-72.124-43.521-135.508-147.764-186.929-215.537c-60.542-79.795-106.313-171.1-170-248.486
			c12.329,77.881,62.241,157.266,96.851,226.879c49.57,99.713,101.914,197.051,168.164,286.826
			c68.281,92.534,140.718,190.61,227.217,267.212c62.065,54.961,122.666,96.836,176.563,160.825
			c50.381,59.814,112.026,122.07,148.833,191.587c-74.395-21.157-126.597-118.877-170.791-176.245
			c-81.167-105.356-202.354-178.652-292.222-277.598c-169.658-186.811-292.979-422.285-382.31-657.143
			c-46.743-122.9-105.767-276.875-97.119-409.332c39.077,67.939,61.182,163.775,98.716,239.209
			c39.751,79.889,83.54,219.502,153.003,276.441c-31.187-134.029-108.359-268.691-156.04-398.115
			c-82.627-224.264-155.732-454.678-181.147-693.32c-22.002-215-4.004-514.004,39.004-628.008
			c22.998-61.992,35-77.998,25.996-35.996c-10.996,45.996-20.996,272.002-14.004,287.002c4.004,7.002,15,60.996,24.004,120
			c17.998,117.002,39.004,198.994,30,117.998c-2.998-25-10-85-15-134.004c-37.227-364.854,85.01-758.799,267.52-1070.957
			c32.651-55.846,67.871-110.127,104.39-163.506c20.737-30.313,49.385-93.922,82.095-113.535c5-2.998,10.996-12.002,11.992-20
			c1.006-7.002,17.002-38.994,36.006-70l35-55.996l-1.006,40.996c-0.996,22.998-6.992,52.002-12.998,62.998
			c-23.994,43.008-57.002,353.008-40,371.006c4.004,2.998,7.002-5,7.002-17.998c0-14.004,4.004-29.004,9.004-34.004
			c3.994-5.996,20.996-45,35.996-89.004c15-42.998,35.996-88.994,47.998-101.992c11.006-13.008,22.002-31.006,22.998-40
			c1.006-8.008,9.004-25,16.006-37.002c7.998-12.002,25-49.004,37.998-82.002c12.002-32.998,29.004-72.998,35.996-90
			c7.002-15.996,23.008-59.004,35-95c13.008-35.996,28.008-74.004,35-85c6.006-10.996,15-37.998,19.004-60s10-44.004,15-50
			c4.004-5,12.998-30,19.004-55c6.992-25,15.996-54.004,20.996-65c5.996-10.996,25-65,44.004-120
			c18.994-55,42.998-127.002,55-159.004c11.992-32.998,20.996-70.996,20.996-85c0-18.994,2.998-21.992,12.002-12.998
			c5.996,6.006,12.998,20,13.994,29.004c1.006,10,4.004,30.996,7.002,47.002c4.004,15.996,2.998,33.994,0,40
			c-3.994,5.996-8.994,30.996-10.996,55.996c-2.002,24.004-7.998,52.002-12.998,62.002c-5,8.994-9.004,45-9.004,80l0.996,62.998
			l15-40c9.004-22.002,21.006-57.998,29.004-80c15.996-50,85-182.998,127.001-250c17.998-27.002,68.994-85.996,112.998-130.996
			c44.004-44.004,90.996-101.006,104.004-125c13.994-24.004,31.992-55,40.996-69.004c57.998-87.998,89.004-130.996,127.998-177.002
			c24.004-28.994,41.006-52.998,36.006-52.998c-12.002,0,27.998-25.996,50.996-34.004c15.996-5,20.996-0.996,22.002,16.006
			c2.002,15.996,0,18.994-6.006,10c-6.992-11.006-8.994-10-13.994,2.002c-7.998,20,2.002,106.992,13.994,120.996
			c4.004,5.996,7.002,20,6.006,32.002c-1.006,22.002,50,150.996,67.998,170c7.002,5.996,17.998,25.996,25,45
			c7.998,17.998,17.002,35,20,37.998c7.998,7.002,54.004,105,75,160c9.004,25,22.998,57.998,30.996,72.998
			c8.008,16.006,14.004,37.998,14.004,47.998c0,32.002,17.002,13.008,25-26.992c2.998-20,17.998-61.006,32.002-92.002
			c13.994-31.006,30.996-74.004,37.002-96.006c5.996-21.992,16.992-40.996,25-43.994c10-2.998,11.992,12.002,7.998,72.002
			c-6.006,82.998,12.002,216.992,37.002,280.996c7.998,22.002,15,45.996,15.996,52.998c0.996,30,95.996,224.004,137.002,277.998
			c12.998,17.002,22.998,35,22.998,41.006c0,5,9.004,17.998,20,27.998s17.998,20.996,15,25c-2.002,2.998,9.004,20.996,25,39.004
			c17.002,17.998,30,36.992,30,41.992s9.004,19.004,20,31.006s25.996,33.994,32.002,50c7.002,15,15.996,27.998,18.994,27.998
			c4.004,0,29.004,35,56.006,77.998c47.002,72.998,252.998,375,270.996,397.998c32.998,39.004,182.002,269.004,182.002,280
			c0,8.008,2.998,14.004,7.998,14.004c12.002,0,60,92.998,86.006,165.996c58.994,170,100.996,272.002,107.998,268.008
			c7.998-5,5-44.004-17.002-244.004c-17.998-154.004-25-194.004-65.996-375.996c-36.006-163.008-37.002-199.004-3.008-129.004
			c13.008,27.998,24.004,55.996,24.004,62.998s4.004,20,9.004,30c5,9.004,15,37.002,21.992,62.002c7.002,25,16.006,49.004,21.006,55
			c3.994,5,7.998,15,7.998,22.998s5.996,27.998,14.004,45c13.994,34.004,75.996,231.006,105.996,337.002
			c47.002,172.002,55,230.996,55,420c0,162.998-7.998,345.996-19.004,420c-15.996,112.998-53.994,282.002-85.996,380
			c-9.004,30-22.998,75-30,100s-20.996,60.996-30,80c-10,19.004-27.002,55-37.998,80c-12.002,25-30,60.996-40,80
			c-11.006,19.004-32.002,62.002-47.002,95s-35,70.996-45,85c-9.004,14.004-27.002,42.998-40,65l-24.004,40l50-45
			c27.002-25,65-67.002,84.004-94.004c19.004-26.992,39.004-53.994,45-60c5-5.996,15.996-22.998,24.004-37.998
			c7.998-15,16.992-25,21.992-22.998c12.002,7.998-33.994,115-90,210c-27.998,47.998-50.996,89.004-50.996,92.002
			s-10,17.998-22.002,32.998c-12.998,15-30,37.002-37.998,50c-19.004,29.004-120,162.002-134.004,175.995
			c-35,36.006-157.998,174.004-176.992,199.004c-13.008,17.002-36.006,44.004-51.006,60c-15,17.002-27.998,32.998-27.998,37.002
			c0,20.996-187.002,281.997-240.996,335.996c-61.006,60-79.004,72.002-79.004,52.002c0-5,4.004-10,7.998-10
			c5,0,30-26.001,57.002-57.002l49.004-57.998l-50,45c-85,77.002-122.002,102.998-146.006,107.002
			C6595.995,13419.997,6595.995,13418.996,6614.999,13407.995z M7629.999,10364.002c0-8.008-5-12.002-10-9.004
			c-5.996,4.004-7.998,10.996-5,15.996C7624.003,10384.998,7629.999,10382,7629.999,10364.002z"/>
		<path d="M6507.997,13335.998c34.004-38.003,76.006-97.002,92.998-130c16.006-33.999,27.002-50,23.008-36.001
			c-16.006,62.002-98.008,173.999-159.004,220C6454.003,13397.995,6472.997,13373.996,6507.997,13335.998z"/>
		<path d="M5634.999,13359.997c-2.998-6.001,0.996-7.002,9.004-3.999c17.998,6.997,20.996,13.999,6.992,13.999
			C5644.999,13369.997,5637.997,13365.998,5634.999,13359.997z"/>
		<path d="M5610.996,13307.995c-16.992-46.997-25-151.997-13.994-171.997c7.002-13.003,8.994-2.002,5.996,36.001
			c-2.002,28.999,2.002,77.998,11.006,107.998C5630,13341.999,5627.998,13357.995,5610.996,13307.995z"/>
		<path d="M5890.995,13275.998c9.004-8.003,400-13.003,405-5c3.008,5-85,8.999-201.992,8.999
			C5979.999,13279.997,5889.003,13277.995,5890.995,13275.998z"/>
		<path d="M5889.999,13138.996c14.004-6.001,45-13.999,70-18.999s55.996-12.002,70-15c45.996-11.001,224.004-13.999,275-5
			c27.998,5,65,12.002,82.998,15s30,10,27.002,13.999c-2.002,5-30.996,2.002-62.002-5c-85.996-20-260-16.997-372.998,6.001
			C5875.995,13151.999,5852.001,13153.996,5889.999,13138.996z"/>
		<path d="M6635.995,13092.995c6.006-45,4.004-51.997-15-62.998c-11.992-6.001-43.994-14.004-70.996-17.002
			c-27.998-2.998-50-8.994-50-12.998s10-5.996,22.998-4.004c12.002,2.002,37.002,5,56.006,8.008
			c46.992,6.992,70.996,31.997,70.996,74.995c0,20-5,43.003-10,51.001C6632.997,13140.998,6630.995,13129.997,6635.995,13092.995z"
			/>
		<path d="M5984.999,12989.001c10.996-7.002,35.996-14.004,55-16.006c182.002-12.998,224.004-15,220-10
			c-2.998,2.002-59.004,10-125,16.006c-65.996,6.992-130.996,13.994-145,16.992
			C5965.995,13000.993,5965.995,13000.993,5984.999,12989.001z"/>
		<path d="M5562.998,12776.999c4.004-11.006,2.002-14.004-8.994-10c-7.002,2.998-15,0-15-6.006
			c-1.006-5.996-2.002-13.994-3.008-17.998c-0.996-5-43.994-50.995-95.996-102.997c-107.002-107.002-254.004-292.998-382.002-480
			c-87.998-130-108.994-162.998-90.996-145c5.996,5.996,45,62.002,87.998,125c125,184.004,262.998,355.996,399.004,492.998
			c68.994,70,125.996,132.001,125.996,137.001s-5,12.002-12.002,15.996C5560.996,12790.993,5559.003,12787.995,5562.998,12776.999z"
			/>
		<path d="M6812.997,12669.002c7.998-13.008,30-60,47.998-104.004c36.006-89.004,37.002-90,44.004-82.998
			c2.998,2.002-4.004,22.002-14.004,43.994c-10.996,21.006-30,64.004-43.994,95c-14.004,31.006-30,60-37.002,64.004
			S6804.003,12682.996,6812.997,12669.002z"/>
		<path d="M6379.999,12625.994c0-1.992,7.998-10,17.998-16.992c15-13.008,16.006-12.002,2.998,3.994
			C6387.997,12629.002,6379.999,12634.002,6379.999,12625.994z"/>
		<path d="M6419.999,12569.998c5.996-10.996,12.998-20,15.996-20c2.002,0,0,9.004-5.996,20s-12.998,20-15.996,20
			C6412.001,12589.998,6414.003,12580.994,6419.999,12569.998z"/>
		<path d="M6459.999,12509.998c5.996-10.996,12.998-20,15.996-20c2.002,0,0,9.004-5.996,20s-12.998,20-15.996,20
			C6452.001,12529.998,6454.003,12520.994,6459.999,12509.998z"/>
		<path d="M6899.999,12469.002c0-3.008,9.004-32.002,20-65c10.996-32.002,22.002-67.002,25-79.004
			c9.004-45.996,14.004-60.996,24.004-85c10-22.998,10.996-22.002,5,10C6962.001,12322,6900.995,12502,6899.999,12469.002z"/>
		<path d="M6497.001,12439.998c2.998-10.996,8.994-22.002,12.998-25c5-2.998,5.996,4.004,2.998,15s-8.994,22.002-12.998,25
			C6494.999,12457.996,6494.003,12450.994,6497.001,12439.998z"/>
		<path d="M6022.001,12364.998c0-15.996,2.002-22.002,5-12.002c2.002,9.004,2.002,22.998,0,30
			C6024.003,12389.002,6022.001,12382,6022.001,12364.998z"/>
		<path d="M6535.995,12354.998c8.008-37.002,14.004-45,14.004-19.004c0,10-5,26.006-10,34.004
			C6532.001,12380.994,6530.995,12377,6535.995,12354.998z"/>
		<path d="M6535.995,12292.996c-5.996-13.994-5-15,5-5.996c7.002,7.002,10,15,7.002,17.998S6539.003,12302.996,6535.995,12292.996z"
			/>
		<path d="M6004.999,12264.002c-4.004-22.002-17.998-88.008-30.996-148.008c-13.008-60-24.004-110.996-23.008-115
			c1.006-10,21.006,43.008,25,69.004c3.008,14.004,14.004,69.004,25,122.998c12.002,54.004,19.004,101.006,16.006,104.004
			S6007.997,12284.998,6004.999,12264.002z"/>
		<path d="M6984.999,12175.994c2.998-20.996,7.002-40.996,10-45c5-8.994,9.004-32.998,34.004-185.996
			c42.998-265.996,43.994-285.996,37.998-530.996c-7.002-273.008-20-383.008-72.998-609.004c-20-87.998-38.008-170.996-40-185
			l-4.004-25l10,25c17.002,37.002,87.002,362.002,105,482.998c37.998,261.006,25,657.002-30,917.002
			c-7.002,30.996-22.998,107.002-30.996,139.004C6994.003,12204.998,6979.003,12217.996,6984.999,12175.994z"/>
		<path d="M6550.995,12044.002c0-11.006,3.008-14.004,6.006-6.006c2.998,7.002,2.002,16.006-1.006,19.004
			C6552.997,12060.994,6549.999,12054.998,6550.995,12044.002z"/>
		<path d="M5914.003,11912.996c-16.006-42.998-29.004-80-29.004-82.998c-0.996-2.998-15-35.996-32.998-72.998
			c-17.998-37.998-32.002-70-32.002-72.002c0-17.002-137.998-247.002-187.998-314.004c-56.006-75-100-141.992-75-115.996
			c17.998,19.004,168.994,230,200,280c32.998,52.998,127.998,249.004,147.998,305c0.996,2.998,4.004,12.002,7.998,20
			c17.002,45.996,37.998,122.002,34.004,125.996C5944.999,11989.002,5929.999,11955.994,5914.003,11912.996z"/>
		<path d="M6562.001,11969.998c0-14.004,2.002-19.004,5-12.002c2.002,6.006,2.002,17.998,0,25
			C6564.003,11989.002,6562.001,11984.002,6562.001,11969.998z"/>
		<path d="M6559.999,11925.994c0-7.998,5-17.998,10-20.996c5.996-2.998,10,0.996,10,9.004c0,7.998-4.004,17.998-10,20.996
			C6564.999,11937.996,6559.999,11934.002,6559.999,11925.994z"/>
		<path d="M6572.997,11794.998c0-44.004,2.002-60.996,4.004-37.002c2.002,22.998,2.002,59.004,0,80
			C6574.999,11857.996,6572.997,11839.002,6572.997,11794.998z"/>
		<path d="M6565.995,11667.996c-10-50.996-25.996-210.996-21.992-215c2.998-3.994,8.994,37.002,30.996,205
			C6579.003,11694.002,6572.997,11702,6565.995,11667.996z"/>
		<path d="M6512.997,11344.002c-12.002-54.004-23.994-108.008-27.998-119.004c-5.996-15.996-5-17.002,4.004-5
			c12.998,19.004,53.994,195.996,48.994,210.996C6535.995,11437.996,6524.999,11397.996,6512.997,11344.002z"/>
		<path d="M6450.995,11137.996c-35.996-100.996-80.996-202.998-155-347.998c-36.992-74.004-62.998-130-56.992-125
			c13.994,14.004,140.996,264.004,173.994,345c35,85,67.998,182.002,62.998,187.002
			C6474.003,11199.002,6462.997,11172,6450.995,11137.996z"/>
		<path d="M5357.001,10967.996c-82.002-125.996-131.006-207.998-125-207.998c2.998,0,35,47.998,72.002,107.998
			c36.992,59.004,81.992,131.006,100.996,160c19.004,27.998,32.998,52.002,30,52.002S5397.001,11029.002,5357.001,10967.996z"/>
		<path d="M5615,10622.996c-7.998-20-12.998-37.998-10-40.996s5-2.998,5,0s7.002,22.002,15,42.002s12.998,35.996,10,35.996
			C5632.998,10659.998,5622.998,10644.002,5615,10622.996z"/>
		<path d="M6199.999,10609.998c-5.996-10.996-7.998-20-5.996-20c2.998,0,10,9.004,15.996,20s7.998,20,5.996,20
			C6212.997,10629.998,6205.995,10620.994,6199.999,10609.998z"/>
		<path d="M6900.995,10469.002c-11.992-39.004-20.996-72.002-18.994-75c2.002-2.002,13.994,27.998,27.002,66.992
			c11.992,39.004,20.996,72.002,18.994,75C6925.995,10537.996,6914.003,10507.996,6900.995,10469.002z"/>
		<path d="M6827.001,10257.996c-15-38.994-26.006-72.002-24.004-73.994c2.002-2.002,16.006,26.992,32.002,65.996
			s25.996,72.002,24.004,74.004C6855.995,10327,6842.001,10297,6827.001,10257.996z"/>
	</g>
</g>
</svg>
