<?xml version="1.0" standalone="no"?>
<!DOCTYPE svg PUBLIC "-//W3C//DTD SVG 20010904//EN"
 "http://www.w3.org/TR/2001/REC-SVG-20010904/DTD/svg10.dtd">
<svg version="1.0" xmlns="http://www.w3.org/2000/svg"
 width="1200.000000pt" height="1600.000000pt" viewBox="0 0 1200.000000 1600.000000"
 preserveAspectRatio="xMidYMid meet">

<g transform="translate(0.000000,1600.000000) scale(0.100000,-0.100000)"
fill="#000000" stroke="none">
<path d="M5834 13515 c-140 -42 -374 -205 -532 -371 -57 -60 -143 -149 -192
-199 -87 -88 -174 -194 -148 -180 7 4 -1 -5 -18 -21 -47 -45 -113 -153 -197
-325 -72 -147 -163 -387 -155 -411 2 -6 23 28 46 76 23 48 58 111 77 142 32
50 37 54 51 40 14 -14 11 -27 -31 -133 -25 -65 -57 -143 -70 -173 -13 -30 -30
-79 -39 -109 -9 -30 -27 -82 -41 -117 -14 -35 -29 -83 -34 -106 -5 -24 -18
-78 -29 -120 -48 -178 -57 -262 -57 -515 0 -168 3 -246 11 -253 9 -9 12 7 12
62 0 79 28 255 44 275 8 10 13 9 24 -2 12 -12 13 -31 4 -118 -7 -72 -7 -141 0
-228 13 -152 39 -340 50 -354 4 -5 10 -23 14 -40 15 -67 69 -223 91 -260 12
-22 44 -80 70 -130 26 -49 66 -116 89 -148 67 -96 94 -138 136 -209 22 -37 46
-70 53 -75 7 -4 5 4 -4 18 -37 55 -74 343 -49 374 7 8 17 12 22 9 10 -6 58
-107 58 -122 0 -12 32 -81 71 -152 36 -65 127 -285 159 -385 12 -38 31 -92 41
-120 10 -27 37 -106 60 -175 22 -69 49 -143 59 -165 9 -22 20 -48 23 -58 4
-10 11 -16 16 -12 6 3 5 24 -3 53 -40 147 -47 230 -23 251 17 14 37 -4 37 -34
0 -11 6 -29 14 -40 7 -11 17 -36 21 -55 9 -40 96 -209 134 -260 14 -19 58 -66
96 -105 66 -66 84 -90 152 -197 47 -77 86 -132 120 -172 18 -22 33 -45 33 -52
0 -6 6 -14 13 -17 10 -4 14 7 15 38 1 24 7 56 12 70 6 15 10 35 10 45 0 18 80
195 114 250 15 26 37 73 76 170 55 134 56 136 81 114 11 -10 19 -22 19 -27 0
-14 50 -140 60 -150 4 -5 8 21 8 58 1 80 13 135 59 274 50 149 111 248 501
816 288 419 371 549 398 625 9 25 38 100 65 168 27 68 49 129 49 136 0 24 22
36 38 20 15 -16 18 -74 7 -154 -3 -19 -10 -75 -15 -125 -5 -49 -21 -148 -35
-219 -14 -71 -24 -130 -22 -132 3 -3 66 178 102 296 14 47 39 128 55 180 46
152 55 226 55 455 0 253 -12 431 -36 510 -4 17 -10 41 -13 55 -29 157 -129
455 -172 510 -6 8 -24 44 -40 80 -15 36 -48 98 -72 138 -37 63 -41 74 -29 87
13 12 21 8 64 -38 26 -29 61 -68 77 -87 34 -43 24 -21 -53 113 -91 159 -154
245 -293 395 -50 53 -114 133 -142 177 -140 215 -342 407 -526 500 -146 74
-171 78 -425 81 -157 1 -243 -2 -271 -11z"/>
</g>
</svg>
