<?xml version="1.0" encoding="utf-8"?>
<!-- Generator: Adobe Illustrator 16.0.0, SVG Export Plug-In . SVG Version: 6.00 Build 0)  -->
<!DOCTYPE svg PUBLIC "-//W3C//DTD SVG 1.1//EN" "http://www.w3.org/Graphics/SVG/1.1/DTD/svg11.dtd">
<svg version="1.1" xmlns="http://www.w3.org/2000/svg" xmlns:xlink="http://www.w3.org/1999/xlink" x="0px" y="0px" width="1200px"
	 height="1600px" viewBox="0 0 1200 1600" enable-background="new 0 0 1200 1600" xml:space="preserve">
<g id="Layer_2">
	<g id="Layer_2_1_">
		<g>
			<polygon fill="#262626" points="431.75,1556.75 421.749,1528.146 436.286,1494.784 444.5,1505.75 451.121,1525.768 			"/>
			<polygon fill="#262626" points="488.75,1556.75 476.75,1529.5 484.464,1498.913 492.375,1499.5 499,1525.768 			"/>
			<polygon fill="#262626" points="548.5,1551.25 529.835,1528.483 526.219,1513.881 536.011,1490.718 551.496,1510.813 
				553.25,1526.857 			"/>
			<polygon fill="#262626" points="537.875,1413.875 520,1381.5 532.375,1383.125 539.25,1400.875 			"/>
		</g>
		<g>
			<polygon fill="#262626" points="783.893,1556.313 793.895,1527.71 779.357,1494.347 771.143,1505.313 764.521,1525.33 			"/>
			<polygon fill="#262626" points="726.893,1556.313 738.893,1529.063 731.179,1498.476 723.268,1499.063 716.643,1525.33 			"/>
			<polygon fill="#262626" points="667.143,1550.813 685.808,1528.046 689.424,1513.443 677.938,1492.479 666.417,1509.25 
				662.393,1526.42 			"/>
			<polygon fill="#262626" points="679.792,1416.708 695.643,1381.063 683.268,1382.688 676.393,1400.438 			"/>
		</g>
	</g>
</g>
<g id="Layer_1">
	<g>
		<path d="M563.298,1498.331c-0.503-13.074-1.106-17.7-2.515-20.816c-1.006-2.214-1.81-3.621-1.911-3.018
			c0,0.503-2.212-1.508-4.928-4.525c-4.526-5.128-4.927-5.934-5.43-11.968c-0.403-5.229-0.905-6.838-2.815-8.244
			c-1.308-1.006-3.017-4.125-4.023-7.543c-5.631-19.511-6.637-23.532-5.934-24.036c1.207-0.703,2.716,5.13,4.123,4.828
			c0.887-0.854,1.911-1.509,1.911-8.749c0-4.425-0.704-11.063-1.608-14.684c-2.917-11.564-3.117-16.994-1.106-24.638
			c1.308-4.726,0.705-10.055-1.206-11.563c-0.401-0.301-1.81-2.111-3.117-4.022s-4.122-5.53-6.134-8.045
			c-4.325-5.229-20.918-32.583-21.32-34.996c-0.1-1.005-0.603-2.212-0.905-2.815c-0.4-0.604-0.903-2.112-1.207-3.521
			c-0.199-1.308-1.607-7.141-2.915-12.973c-3.118-13.073-8.548-48.17-9.151-58.327c-0.301-7.442,0.402-10.458,4.928-20.615
			c1.609-3.619,2.716-25.041,1.408-26.348c-1.207-1.207-1.207-13.676,0-18.403c3.721-14.38,7.743-27.052,9.754-31.074
			c0.805-1.406,1.408-3.217,1.408-3.921s0.805-2.715,1.71-4.524c0.905-1.812,1.71-3.421,1.81-3.723
			c0-0.302,2.516-5.027,5.633-10.559c6.135-10.86,6.938-13.576,9.554-29.666c0.905-5.833,1.91-11.665,2.112-13.073
			c0.302-1.408,0.904-5.833,1.307-9.956c0.503-4.123,1.106-8.649,1.509-10.057c0.402-2.011,0.301-2.313-0.503-1.106
			c-1.206,1.609-0.905-3.419,0.804-15.084c0.806-5.833,0.102-11.968-1.005-8.949c-0.4,0.904-0.503,2.815-0.4,4.323
			c0.199,1.408,0,2.313-0.505,2.112c-0.401-0.302-1.104,0.402-1.407,1.508c-0.603,1.811-1.207,1.207-4.426-4.122
			c-2.111-3.42-4.525-6.336-5.43-6.536c-2.212-0.304-2.112,0.502,0,3.619c4.123,5.933,7.542,14.682,7.441,19.107
			c-0.2,9.151-1.006,16.09-2.112,18.101c-0.602,1.207-1.307,4.324-1.508,6.839c-0.503,6.235-1.507,14.381-2.111,16.392
			c-0.302,0.906-0.704,3.32-0.906,5.331c-0.301,2.012-3.317,9.453-6.637,16.492c-3.418,7.039-6.535,13.677-6.938,14.782
			c-0.403,1.104-1.509,3.62-2.313,5.53c-2.214,5.33-6.839,18.303-7.341,20.716c-0.202,1.207-1.107,4.023-1.912,6.337
			c-1.608,4.624-5.531,20.212-6.133,24.335c-0.202,1.408-0.807,4.827-1.408,7.542c-0.472,2.127-0.88,5.538-1.035,8.468
			c0.006,0.271-0.004,0.543-0.039,0.813c-0.019,0.516-0.032,1.018-0.032,1.479c0,5.13-0.301,5.934-2.313,6.838
			c-1.811,0.905-3.117,0.603-6.234-1.006c-2.112-1.206-4.829-2.111-5.934-2.111c-1.207,0-0.201,0.905,2.715,2.313
			c2.515,1.205,6.035,3.721,7.643,5.431c3.318,3.418,3.42,3.62,5.23,26.95c1.709,21.118,4.324,37.107,10.559,65.366
			c0.906,3.82,2.013,9.251,2.515,12.066c1.105,6.034,4.224,16.794,6.336,21.521c1.911,4.426,3.117,2.414,2.213-3.721
			c-0.804-5.633-0.804-5.531,5.43,3.921c3.319,5.13,4.425,7.542,3.521,7.744c-2.313,0.604-1.609,1.609,2.516,3.922
			c2.814,1.609,10.898,13.447,11.161,13.877c1.384,2.269-0.704,9.556-1.911,10.964c-0.604,0.702-0.905,1.508-0.604,1.81
			c0.303,0.301-1.105,0.201-3.117-0.103c-3.318-0.502-3.821-1.105-6.033-6.636c-2.113-5.028-9.553-30.17-11.263-28.46
			c-0.605,0.604-0.806,1.811-0.303,2.716c0.905,1.81,5.732,20.917,6.638,26.246c0.3,1.911,0.804,4.827,1.104,6.537
			c1.006,5.33,8.147,28.058,15.588,49.275c2.716,7.744,5.33,15.989,5.935,18.303c0.603,2.313,1.811,5.029,2.715,5.933
			c1.006,0.905,1.91,2.516,2.012,3.621c0.301,1.61-0.102,1.811-1.811,1.309c-2.111-0.704-2.011-0.504,0.504,2.715
			c1.406,1.91,2.613,3.82,2.613,4.122c0,0.403-2.515-0.302-5.631-1.406c-3.42-1.31-5.935-1.813-6.336-1.208
			c-0.604,1.006-7.24,3.52-10.156,3.822c-3.521,0.502-6.939,2.514-7.543,4.727c-0.403,1.307-1.409,4.122-2.313,6.335l-1.509,4.123
			l-3.62-7.14c-3.621-6.94-3.72-7.039-9.654-8.851c-6.096-1.859-12.078-2.333-18.108,0.015c-1.836,0.715-3.647,1.568-5.581,1.994
			c-1.356,0.298-3.176-0.185-4.375,0.418c-2.347,1.179-3.883,4.511-5.021,6.726c-2.012,3.923-2.916,3.519-6.032-2.716
			c-2.817-5.329-4.024-6.636-7.644-7.441c-1.408-0.302-5.129-1.207-8.246-2.012c-1.977-0.51-3.694-0.835-5.716-0.418
			c-0.908,0.188-1.791,0.492-2.707,0.645c-0.376,0.063-14.42,2.752-15.101,3.288c-1.317,1.112-3.228,3.426-4.134,5.136l-1.606,3.116
			l-2.918-7.943c-1.607-4.427-3.417-9.455-4.021-11.063c-0.603-1.71-1.507-3.62-2.11-4.324c-0.604-0.804-1.108-17.297-1.309-44.75
			c-0.1-23.934-0.503-46.159-0.704-49.478c-0.302-3.318-0.805-9.653-1.206-14.079c-1.007-12.066-1.408-16.593-2.012-21.621
			c-0.302-2.514-0.805-7.039-1.006-10.056c-0.202-3.019-0.603-6.438-0.905-7.543c-0.302-1.911-1.105-7.442-2.012-15.588
			c-0.401-3.317-2.111-13.575-3.117-19.105c-6.435-35.298-7.44-42.94-5.731-41.835c0.705,0.401,1.207,1.206,1.207,1.709
			c0,2.515,11.465,27.556,13.073,28.562c2.112,1.307-0.654-1.676-2.666-6.2c-11.18-23.767-1-5.567,1.661-3.856
			c1.207,0.805,0.611,0.013-0.495-1.394c-0.503-0.503-2.878-3.621-4.083-5.834l-0.652-3.833l3.621,3.821
			c2.012,2.113,4.122,3.519,4.626,3.218c0.603-0.403,0.703,0.202,0.302,1.206c-0.604,1.609-0.504,1.609,1.006,0.504
			c0.904-0.805,2.111-3.721,2.614-6.537c4.021-20.213,4.727-26.85,2.917-26.85c-0.404,0,0.256,1.336,0.232,1.637
			c-0.5,6.417-2.583,25.667-6.25,28.666c-4.162,3.404-12.083-13.166-14.297-18.739c-3.62-5.33-3.822-23.531-0.201-27.654
			c0.806-0.805,2.816-4.123,4.626-7.341c3.821-6.738,2.011-8.147-2.011-1.509c-1.408,2.313-4.022,5.629-5.731,7.44
			c-1.812,1.811-3.722,5.028-4.225,7.141c-0.905,3.619-1.006,3.521-0.905-2.212c0.201-7.744,3.117-17.499,5.632-18.403
			c0.805-0.201,0.805,1.006-0.201,4.225c-0.805,2.515-1.307,4.625-1.105,4.625c0.102,0,1.408-1.81,2.916-4.021
			c1.71-2.613,3.117-3.822,3.922-3.42c0.704,0.403,0.304-0.2-0.703-1.407c-1.71-1.911-1.71-2.212-0.303-2.212
			c1.812,0,2.213-1.105,1.006-2.415c-0.703-0.602-0.603-10.458,0.201-17.698c0.503-4.625,1.509-29.766,2.012-48.772
			c0.201-8.346,0.805-16.592,1.408-18.403c1.407-4.525,5.33-10.962,9.654-15.688c1.911-2.112,3.52-4.123,3.52-4.525
			c0-0.604,19.911-21.219,20.516-21.219c0.201,0,0,1.609-0.402,3.52c-0.503,2.413-0.402,3.821,0.503,4.525
			c1.006,0.803,1.608,0.101,2.916-3.018c0.905-2.211,2.013-4.021,2.516-4.021c0.401,0,0.804-0.805,0.804-1.811
			c0-4.023,0.403-5.33,1.308-4.728c1.208,0.704,1.208,0.603,1.408-6.134c0.2-4.224,0.905-6.033,4.022-10.359
			c4.021-5.43,6.135-6.938,10.458-7.844c1.509-0.202,4.524-0.804,6.737-1.308c3.621-0.805,3.419-0.905-2.313-0.703
			c-3.419,0.101-6.234-0.102-6.234-0.503c0-0.904,4.123-2.313,5.935-1.91c0.704,0.1,1.006-0.201,0.604-0.805
			c-0.805-1.408-0.906-1.408-8.951,1.406c-3.72,1.309-6.937,2.515-7.039,2.717c0,0.2-0.904,1.607-1.811,3.317
			c-1.006,1.609-2.916,5.33-4.224,8.246c-3.117,6.437-3.62,7.04-16.795,20.917c-13.877,14.684-18.804,21.219-24.235,32.182
			l-4.525,9.051l-0.703,18.604c-0.302,10.26-0.903,21.321-1.207,24.64c-0.2,3.318-0.604,11.666-0.805,18.604
			c-0.201,10.359-0.703,13.376-2.413,17.298c-1.206,2.614-2.715,5.028-3.318,5.329c-0.905,0.603-2.615,3.923-3.521,7.039
			c-0.2,0.504-1.106,3.219-2.011,5.935c-1.709,4.727-1.709,5.632,0,17.599c1.911,13.174,4.021,25.744,7.542,45.454
			c1.105,6.437,2.815,16.996,3.621,23.633c2.11,16.09,3.418,26.248,4.021,31.075c0.303,2.211,1.006,7.441,1.509,11.563
			c1.509,12.269,3.922,37.811,4.626,50.08c0.905,14.883,1.106,66.473,0.402,73.313c-0.704,6.032,0.704,11.463,4.425,16.794
			c1.206,1.81,3.319,7.341,4.626,12.167c2.213,8.647,2.213,8.95,0.503,13.776c-1.407,4.024-1.71,7.543-1.407,20.214
			c0.401,15.084,0.401,15.386,3.82,21.822c4.525,8.647,7.744,12.671,11.163,14.28c1.912,0.803,3.017,2.213,3.521,4.323
			c0.301,1.607,2.011,5.732,3.82,8.949c3.217,5.934,5.732,8.246,5.732,5.229c0-0.906,1.207-4.526,2.715-8.146l2.716-6.637
			l4.122,0.201c4.024,0.201,7.946-1.31,13.478-5.331c1.306-1.005,3.217-1.809,4.323-1.809c1.811,0,6.135,2.311,8.547,4.624
			c0.705,0.704,3.118,1.51,5.33,1.911c3.52,0.604,4.225,1.207,6.235,5.33c1.308,2.615,2.614,4.928,2.915,5.229
			c0.303,0.301,1.408,1.911,2.414,3.72c1.006,1.811,2.213,3.018,2.515,2.815c0.403-0.302,1.005-2.916,1.408-5.934
			c1.006-9.15,1.911-10.659,6.437-10.659c2.916,0,5.53-1.105,10.66-4.524c6.637-4.525,6.736-4.525,9.15-2.815
			c1.307,1.006,2.514,2.313,2.514,2.916c0,1.006,4.727,1.509,17.9,1.812c3.117,0.101,3.621,0.603,5.732,5.631
			c1.408,3.017,2.413,6.838,2.514,8.346c0.101,9.856,7.14-9.05,7.542-20.413c0.302-6.737,3.319-14.078,5.935-14.078
			C563.106,1523.271,564.012,1515.628,563.298,1498.331z M492.611,1202.172c1.409-6.738,2.113-7.441,1.509-1.509
			c-0.603,5.731-1.104,7.643-1.91,8.447C491.204,1210.116,491.303,1208.708,492.611,1202.172z M492.611,1218.764
			c-0.101-2.012,1.911-6.537,2.615-5.833c0.203,0.102-0.302,2.013-1.106,4.225C493.014,1220.072,492.611,1220.475,492.611,1218.764z
			 M528.312,1393.039l-2.313-8.446l2.916,0.2c2.413,0.202,3.117,0.906,4.425,4.727c0.905,2.516,1.911,5.229,2.313,6.034
			c0.503,0.806,2.212,14.079,1.508,14.079c0,0-1.507-1.809-3.318-4.022C531.63,1402.796,529.82,1398.773,528.312,1393.039z
			 M518.836,1478.218c-1.837-0.396-1.208-3-0.482-4.122c1.107-1.711,10.057-6.537,14.883-8.045c1.71-0.503,3.117-1.006,3.219-1.006
			c0.1-0.099,2.111,0.705,4.525,1.813c3.017,1.205,5.631,3.619,8.547,7.541c2.313,3.117,4.123,5.632,3.922,5.632
			c-0.2,0-3.719-1.609-7.943-3.521c-3.719-1.735-7.869-3.437-12.045-3.428c-1.652,0.003-3.438,0.085-5.023,0.583
			c-1.994,0.627-3.631,2.017-5.564,2.748c-0.875,0.332-1.916,1.312-2.942,1.688C519.563,1478.236,519.197,1478.294,518.836,1478.218
			z M469.684,1474.699c8.145-8.045,19.608-10.359,29.865-5.934c5.834,2.515,7.846,6.034,7.241,12.973
			c-0.201,2.916-0.804,5.33-1.307,5.33s-2.917-1.508-5.331-3.42c-6.837-5.229-10.255-5.431-17.899-1.006
			c-3.419,2.112-6.436,4.125-6.638,4.627c-0.703,1.51-3.72,0.805-6.737-1.709C465.294,1482.646,464.305,1479.936,469.684,1474.699z
			 M419.904,1474.798c3.418-6.537,8.647-9.755,15.586-9.453c2.616,0.102,4.728-0.2,4.728-0.704c0-1.207,3.419,0,10.86,3.723
			c4.928,2.412,6.739,3.82,7.844,6.537c0.806,1.809,1.408,3.519,1.408,3.618c0,0.203-1.81,1.812-4.021,3.521l-4.022,3.217
			l-3.822-2.212c-2.009-1.308-5.63-3.317-7.942-4.625l-4.123-2.414l-5.433,1.91c-2.915,1.005-6.937,2.814-8.948,4.023l-3.722,2.212
			l-0.503-2.111C417.491,1480.832,418.395,1477.816,419.904,1474.798z M428.954,1535.741l-0.101,7.14l-1.206-5.029
			c-1.911-7.943-1.106-15.988,2.514-25.441c3.419-8.95,4.425-10.157,3.018-3.721c-0.504,2.213-1.106,5.832-1.509,8.046
			c-0.302,2.212-1.005,5.73-1.608,7.943C429.458,1526.79,428.955,1531.718,428.954,1535.741z M434.989,1547.707
			c-1.91,5.028-3.987,1.245-4.289-11.124c-0.201-8.647,0.693-14.547,2-21.083c1.006-5.029,2.389-9.828,2.49-11.136
			c0-2.313,1.608-6.234,2.514-6.234c0.302,0,1.408,1.912,2.615,4.226c3.489,6.879,6.777,19.285,6.244,23.317
			c0.008,0.129,0.016,0.259,0.012,0.391c-0.084,3.749-2.955,6.482-4.807,9.522C441.069,1536.73,435.551,1546.302,434.989,1547.707z
			 M493.014,1539.561c-1.609,3.721-4.096,10.521-4.397,10.521c-0.704,0-1.714-15.357-2.333-21.916
			c-0.351-3.729-0.048-5.302-0.115-7.042c-0.093-2.462-0.629,0.505-0.656,2.844c-0.028,2.564,0.865,23.738,0.463,23.235
			c-0.201-0.1-2.011-4.323-4.022-9.252c-3.319-7.943-3.621-9.552-3.018-14.48c0.705-5.633,3.318-14.078,5.833-18.904
			c1.408-2.615,2.642-8.816,2.226,6.059c-0.067,2.345-1.321,9.427-0.516,7.114c0.603-1.71,1.006-6.236,0.904-10.057
			c-0.101-9.353-0.101-9.15,1.608-7.543c0.805,0.905,2.716,4.929,4.123,9.052C497.036,1520.354,497.036,1530.511,493.014,1539.561z
			 M548.726,1530.107c-0.403-4.625-1.006-9.451-1.309-10.859c-0.302-1.409-0.621-4.942-1.608-7.543
			c-5.9-15.538-1.865-3.918-0.234,5.004c0.721,3.938,1.441,13.198,1.743,19.23c0,0,0.597,10.857,0.603,10.961
			c-0.029-0.558-0.708-1.608-0.965-2.184c-0.66-1.484-11.385-13.984-12.376-15.223c-1.239-1.549-2.883-2.801-3.944-4.488
			c-0.894-1.425-1.393-3.293-1.397-4.971c-0.004-0.928,0.129-1.877,0.293-2.786c0.481-2.683,1.265-5.297,2.201-7.856
			c3.819-10.46,5.832-14.481,6.938-13.777c0.502,0.302,2.916,4.022,5.431,8.347c4.726,8.147,6.246,7.382,6.233,28.762
			C550.325,1549.25,549.732,1540.267,548.726,1530.107z M558.958,1508.213c0.082,2.996,0.359,5.674-1.171,8.328
			c-0.562,0.975-2.58,5.39-3.959,4.495c-0.998-0.649-1.081-3.966-1.264-4.967c-0.537-2.947-1.15-5.882-2.156-8.71
			c-1.909-5.371-5.26-10.059-9.09-14.234c-0.915-0.997-2.353-2.896-3.848-3.011c-1.523-0.117-2.367,1.609-2.982,2.739
			c-2.783,5.111-5.262,10.796-7.226,16.271c-4.113,11.467,3.442,22.054,10.496,30.554c-4.845-0.28-9.733-1.463-14.117-3.563
			c-3.518-1.686-5.859-3.793-6.379-7.734c-0.595-4.504-0.938-9.076-1.243-13.607c-0.296-4.382-0.38-8.801-0.979-13.156
			c-0.103-0.744-0.894-6.969-2.135-4.753c-0.462,0.824-0.109,2.53-0.063,3.415c0.098,1.864,0.14,3.741,0.283,5.599
			c1.005,12.968,0.805,19.404-0.602,21.013c-0.806,1.006-0.806,1.408-0.103,1.408c0.804,0,0.703,0.905-0.101,2.917
			c-1.71,4.021-9.554,10.155-12.973,10.155h-2.614l1.508-5.329c0.805-2.814,1.711-6.032,2.012-7.039
			c0.704-2.213-2.414-18.403-4.825-25.645c-1.007-2.916-5.943-8.949-7.854-8.546c-3.017,0.804-8.94,11.865-11.656,22.927
			c-2.012,8.045-2.012,12.771,0,18.604c1.408,3.922,1.408,4.021-0.905,4.021c-1.509,0-3.923-1.609-6.537-4.525l-4.122-4.524v-9.957
			c0-9.954-0.603-13.575-1.911-12.67c-0.403,0.2-0.604,4.022-0.302,8.347c0.302,5.431-0.101,9.655-1.105,13.374
			c-1.509,4.929-2.011,5.633-5.431,6.84c-2.111,0.805-4.022,1.709-4.324,2.012c-1.106,1.307-5.128,3.116-7.14,3.116h-2.012
			l2.012-2.917c1.206-1.608,2.11-3.217,2.11-3.52c0-0.302,1.309-2.614,2.917-5.128c2.715-4.323,2.817-4.727,1.509-8.448
			c-0.703-2.111-2.214-7.24-3.318-11.263c-1.006-4.123-2.514-8.85-3.218-10.459c-1.409-3.42-3.923-6.133-4.727-6.736
			c-2.313-1.91-6.235,3.52-12.873,18.101c-5.53,12.269-5.731,12.772-4.627,16.996c1.61,5.833,1.51,7.441-0.301,6.738
			c-0.805-0.403-1.509-1.107-1.509-1.61c0-0.602-1.407-3.116-3.219-5.73c-2.715-4.024-3.219-5.833-3.922-14.181
			c-0.401-5.229-1.106-12.569-1.407-16.189c-0.604-6.134-0.402-7.141,1.91-10.862c2.614-4.122,4.324-5.53,3.219-2.613
			c-0.304,0.805-0.304,1.508-0.102,1.508c0.402,0,11.564-5.128,17.698-8.146c1.811-0.804,8.851,2.414,14.582,6.638l3.018,2.313
			l4.728-3.419l4.626-3.419l1.509,2.814c0.904,1.509,1.507,2.313,1.608,1.911c0-0.502,1.91,0.805,4.224,2.716
			c2.313,2.01,4.424,3.317,4.727,2.815c0.805-1.107,5.531-4.226,11.363-7.543c0,0,3.734-1.455,5.074-1.493
			c2.315-0.066,7.798,3.003,7.799,3.003c0.915,0.106,2.14,1.209,2.947,1.655c1.033,0.571,2.109,1.179,3.253,1.504
			c1.83,0.522,3.616-0.519,4.937-1.7c0.558-0.498,1.191-1.777,2.041-1.548c0.313,0.084,1.835,2.438,1.78,2.536
			c0.078-0.139,0.194-0.273,0.266-0.416c0.643,0.25,0.998,0.925,1.604,1.219c0.173-0.393,0.066-0.771-0.032-1.237
			c-0.314-1.503,0.488-1.821,0.92-3.135c0.277-0.85,0.176-1.946,0.533-2.742c0.667-1.488,0.959-0.075,2.25,0.396
			c1.544,0.563,2.919-0.31,4.307-0.887c1.457-0.609,3.002-0.954,4.467-1.553c4.478-1.825,8.527-3.642,13.453-2.415
			c1.472,0.366,14.786,7.544,14.66,3.611c0.45,0.575,0.903,1.146,1.342,1.73c2.01,2.674,2.592,5.002,2.627,8.35
			c0.035,3.34,0.002,6.677-0.012,10.015C558.872,1502.495,558.876,1505.354,558.958,1508.213z"/>
		<path d="M520.963,1077.416c-0.504-6.736-0.905-14.079-1.006-16.491c-0.201-2.313-0.503-4.627-0.906-4.929
			c-0.301-0.303-0.603-1.407-0.603-2.313c0-0.905-1.207-2.814-2.716-4.323c-1.608-1.408-4.625-4.426-6.838-6.737
			c-3.722-3.723-16.795-9.755-20.315-11.565c-3.218-1.611-9.754-2.615-12.368-1.811c-9.353,2.716-20.716,9.755-23.13,14.179
			c0,0-1.278,4.555-1.911,3.722c-1.372-1.806-1.549-6.686-1.555-8.959c-0.006-2.19-0.121-7.118,1.454-8.641
			c4.921-4.755-8.045,5.23-8.045,6.336c0,0.604,1.006,0.1,2.313-1.006c4.125-3.72,4.324-3.52,3.923,3.219
			c-0.2,3.419,0,7.141,0.604,8.146c0.805,1.508,0.201,3.419-2.613,8.949l-3.721,7.039l0.804,16.594
			c0.503,9.149,0.905,19.105,1.005,22.123c0.116,3.438,0.689,5.778,3.103,8.326c3.138,3.313,6.479,6.627,10.069,9.446
			c2.099,1.647,4.372,3.213,6.716,4.489c5.343,2.912,11.981,3.036,17.866,3.844c2.979,0.41,6.316-0.408,9.148,0.698
			c-2.256,0.612-4.88,1.319-7.179,1.264c-3.843-0.093-7.732-0.124-11.562-0.475c-4.877-0.446-8.019-2.758-12.063-5.368
			c-3.153-2.036-5.397-5.209-8.604-7.141c0.063,0.169,0.027,0.515,0.093,0.729c-1.332-0.149-3.971-0.774-5.107,0.271
			c-1.17,1.075-0.156,3.103,0.342,4.271c1.906,4.459,4.281,9.422,7.587,13.015c8.887,9.655,23.688,10.706,35.118,5.632
			c3.026-1.344,6.057-3.081,8.186-5.673c1.596-1.943,3.141-4.634,3.283-7.214c0.141-2.539-2.596-1.009-4.099-0.473
			c-5.632,2.011-6.034,1.911-1.911-0.804c13.174-8.347,18.605-15.286,23.13-29.265
			C521.565,1090.086,521.667,1088.577,520.963,1077.416z M494.397,1128.938c2.426-0.874,7.616-3.457,6.875-0.344
			c-0.781,3.281-4.97,7.717-6.281,8.323c-5.685,2.629-13.359,5.5-19.583,5.167c-5.082-0.271-12.405-2.697-16.25-5.939
			c-3.352-2.826-8.828-10.105-10.917-15.978c-1.815-5.104,5.157-2.554,6.75-0.833c3.218,3.418,7.899,8.132,14.768,9.833
			C476.959,1130.95,491.877,1129.846,494.397,1128.938z M508.574,1114.917c-2.298,2.834-14.334,10.798-16.75,10.916
			c-11.183,0.548-21.175-1.352-25.084-3c-1.739-0.733-16.826-11.415-19.249-17.708c-1.276-3.315-1.863-19.85-1.875-23.75
			c-0.023-7.571-0.463-11.189-0.074-18.75c0.201-3.922,10.358-20.707,12.887-22.875c1.75-1.5,5.811-2.096,8.634-4.372
			c11.554-9.315,19.811-3.62,22.124-2.412c1.509,0.703,4.726,2.313,7.341,3.418c5.229,2.414,11.888,6.669,16.714,12.804
			c2.685,3.38,2.384,4.978,1.321,6.649c0.194,0.487,3.672,2.783,3.679,2.91c0.429,1.592,1.021,11.395,1.25,15.754
			c0.504,9.757-1.947,10.354-3.656,9.651c-1.709-0.604-2.295,0.058-0.401,1.207c2.651,1.609,3.192,4.226,2.344,4.397
			c-1.628,0.33-7.208,1.757-9.786,3.118c-8.858,4.679-26.5,19.709-39.416,7.209c-4.687-4.536-7.685-5.816-13.334-13.25
			c-0.897-1.181-9.601-23.323-10.167-24.376c-0.688,1.938,8.238,22.867,10.259,25.553c3.654,4.857,8.558,9.246,13.28,13.052
			c1.987,1.601,4.813,2.896,7.259,3.568c4.844,1.331,9.97,0.002,14.563-1.653c5.054-1.82,9.806-4.438,14.237-7.463
			c4.022-2.715,12.436-5.732,13.444-4.89C521.534,1093.48,509.706,1113.522,508.574,1114.917z"/>
		<path d="M444.943,1045.221c-0.925-1.235-1.541-2.755-1.541-3.406c0-0.174,0.042-0.316,0.116-0.391
			c0.075-0.076,0.188-0.069,0.321,0.009c0.342,0.172,0.64,0.273,0.901,0.312l-0.037,0.168l0.042-0.014
			c-0.055,0.49-0.083,1.102-0.083,1.826c0,1.218,0.88,2.286,1.883,2.286c0.626,0,1.136,0.282,1.136,0.63
			c0,0.605-0.24,0.605-0.33,0.605C446.871,1047.246,445.912,1046.612,444.943,1045.221z"/>
		<path d="M439.208,1061.036c-0.041,0-0.168-0.075-0.463-0.764c-0.749-2.155,0.449-6.56,2.34-8.545
			c1.139-1.138,2.059-1.649,2.463-1.649c0.084,0.019,0.108,0.066,0.108,0.184c-0.053,0.162-0.729,0.987-1.874,1.923
			c-1.017,1.015-2.304,3.071-2.741,4.932c-0.445,1.847-0.565,2.344-0.324,2.65l0.112,0.144l0.259,0.035
			c0.344,0,0.681-0.318,1.681-1.264c0.799-0.83,1.307-1.161,1.557-1.271c-0.089,0.309-0.434,1.016-1.485,2.151
			C440.441,1060.006,439.514,1061.035,439.208,1061.036z"/>
		<path d="M441.618,1066.453c-0.602,1.408-0.502,1.509,0.503,0.604c0.704-0.705,1.006-1.51,0.704-1.811
			C442.524,1064.945,441.92,1065.448,441.618,1066.453z"/>
		<path d="M396.365,1180.292c-0.401,0.703-0.503,1.508-0.2,1.81c0.904,0.904,1.91-0.403,1.407-1.81
			C397.168,1179.186,396.969,1179.186,396.365,1180.292z"/>
		<path d="M409.396,1204.568c-2.165-3.179-5.171-11.828-5.115-14.859c0.24,0.568,0.636,1.688,1.278,3.862
			c1.076,3.521,2.601,8.118,3.434,10.096C409.101,1203.907,409.248,1204.232,409.396,1204.568z"/>
		<path d="M413.059,1206.724c0.492,0.159,1.475,0.58,3.439,1.652c2.7,1.446,4.5,2.854,4.941,3.388
			c-0.213-0.086-0.56-0.294-0.994-0.68c-1.061-0.954-2.937-1.984-4.181-2.296C415.352,1208.454,413.888,1207.581,413.059,1206.724z"
			/>
		<path d="M439.935,1208.482c-1.948,0.411-6.103,1.427-9.073,2.218c-3.221,0.858-5.204,1.313-6.158,1.409
			c0.859-0.419,3.81-1.371,9.067-2.796c6.196-1.698,9.623-2.188,15.282-2.188c1.335,0,2.88,0.028,4.722,0.089
			c4.767,0.062,11.22,0.282,12.304,1.485c0.079,0.079,0.147,0.149,0.206,0.212c-0.38-0.104-0.82-0.25-1.016-0.314
			c-1.83-0.61-8.027-0.827-12.777-0.827C448.11,1207.77,442.51,1207.957,439.935,1208.482z"/>
		<path d="M398.275,1279.95c0.201,1.407,0.502,4.123,0.502,6.034l0.102,3.52l1.408-3.419c1.81-3.922,1.91-6.739,0.502-7.644
			c-0.704-0.402-0.905,0.302-0.502,2.213l0.604,2.815l-1.608-3.018C397.874,1277.736,397.773,1277.736,398.275,1279.95z"/>
		<path d="M404.666,1288.012c-1.505,4.584-1.752,8.465-0.661,10.38c0.343,0.603,0.812,0.974,1.384,1.101
			c2.019,0.404,3.38,0.638,4.368,0.638c0.001,0,0.001,0,0.001,0c1.923,0,2.301-0.72,2.524-4.819
			c0.477-7.434-0.767-11.395-3.697-11.771c-0.318-0.042-0.601-0.068-0.854-0.068C406.491,1283.472,406,1284.007,404.666,1288.012z
			 M404.438,1294.23c0-3.17,1.773-10.634,3.391-10.634c0.34,0,0.951,0.292,1.803,0.858c1.378,0.829,2.31,8.436,2.27,12.079
			c-0.027,2.509-0.425,3.055-0.762,3.248c-0.212,0.127-0.528,0.19-0.938,0.19c-0.837,0-1.957-0.257-2.936-0.678
			C405.019,1298.227,404.438,1297.186,404.438,1294.23z"/>
		<g>
			<path d="M403.053,1307.884c0.687-0.625,1.159-0.854,1.377-0.905c-0.063,0.476-0.562,1.183-1.193,1.499
				c-1.685,0.908-1.313,2.306,0.113,6.588c0.665,1.971,1.204,3.413,1.682,4.442c-1.769-3.198-3.868-7.738-3.868-9.087
				C401.164,1310.024,401.886,1308.942,403.053,1307.884z"/>
			<path d="M410.619,1318.184c-1.521,2.826-2.97,4.471-3.377,4.626c-0.253-0.14-0.733-0.803-1.317-1.759
				c0.395,0.492,0.772,0.692,1.186,0.692c1,0,1.845-1.325,2.967-3.615l0.454-1.029c1.231-2.785,1.696-3.874,1.696-4.263
				c0-0.675-2.878-4.08-3.206-4.467c-1.122-1.255-1.812-2.231-2.099-2.761c1.2,0.672,4.006,3.579,5.405,6.102
				C413.041,1313.134,412.707,1314.407,410.619,1318.184z"/>
		</g>
		<path d="M487.654,1354.188c0.399-0.479,0.87-0.681,1.469-0.615c-0.905-0.072-1.028,1.123-1.14,2.46
			c-0.186,2.688,2.027,9.879,3.533,11.493c0.26,0.278,0.517,0.413,0.785,0.413c0.993,0,2.563-2.337,2.629-2.437
			c1.438-2.211,1.382-3.047-0.391-5.967c-1.051-1.784-2.683-3.912-3.713-4.838c-0.68-0.638-1.104-0.987-1.49-1.092
			c1.722,0.35,4.347,2.774,6.739,7.715c0.753,1.504,1.063,2.432,0.926,2.764c-0.013,0.03-0.042,0.101-0.232,0.164
			c-0.988,0.423-2.294,2.353-3.104,3.973l-1.104,2.279l-2.243-3.818C487.126,1361.36,486.007,1356.107,487.654,1354.188z"/>
		<path d="M464.424,1368.95c-1.783,0-4.004,0.718-5.037,1.634c-0.537,0.536-1.029,0.941-1.359,1.173
			c-0.196-1.483-0.423-6.173-0.423-12.866c0.001-12.652,0.15-13.076,1.511-13.076c1.936,0,4.1,2.972,5.147,7.066
			c0.039,0.155,0.066,0.285,0.095,0.416l0.166,1.104c0.001,0.026,0.004,0.062,0.004,0.084c-0.39-0.342-0.987-1.482-1.405-3.157
			c-0.287-1.528-1.213-3.665-2.197-4.402c-0.17-0.142-0.462-0.353-0.808-0.353c-1.247,0-1.413,1.818-1.703,11.094l-0.318,12.145
			l3.566-0.985c1.45-0.428,3.31-0.389,4.118,0.038C465.482,1368.895,465.049,1368.926,464.424,1368.95L464.424,1368.95z"/>
		<path d="M434.583,1384.391C434.583,1384.39,434.583,1384.39,434.583,1384.391c0.591-6.681,0.415-9.065-0.859-11.614
			c-0.786-1.709-1.865-2.729-2.888-2.729c-0.836,0-1.594,0.681-2.139,1.925c-0.576,1.252-0.837,3.364-0.565,4.623
			C428.614,1379.094,433.306,1384.18,434.583,1384.391z M434.038,1382.477c-0.125,0.149-0.303,0.232-0.5,0.232
			c-0.406,0-0.796-0.316-1.809-1.222c-2.291-2.073-3.836-7.36-2.699-9.292c0.646-0.999,1.306-1.209,1.744-1.209
			c0.966,0,1.725,0.941,2.081,2.576c0.297,1.289,0.678,3.652,1.01,5.756C434.262,1381.509,434.354,1382.098,434.038,1382.477z"/>
		<path d="M495.92,1371.362c-0.301,0.503,0,1.104,0.703,1.407c1.811,0.703,13.97,17.31,19.2,27.064
			c5.632,10.761,16.521,39.128,17.125,41.541c0.125,2.708,1.511,10.425,1.209,10.625c-3.115,2.975-23.553,0.919-23.553,0.919
			s-2.246-3.013-2.698-4.168c-3.75-9.584-13.791-51.313-13.26-71.376c0.102-3.521,0.371-4.001-0.435-2.594
			c-0.604,1.005-0.805,4.324-0.503,7.542c0.303,3.118,1.006,9.553,1.407,14.28c1.108,10.156,11.264,50.281,11.565,52.092
			c0.906,5.329,2.716,6.033,14.684,5.73c12.369-0.3,14.48-0.904,13.576-3.819c-0.402-1.108-0.805-4.023-0.906-6.438
			c-0.202-2.413-0.703-4.928-1.307-5.632c-0.503-0.604-2.213-4.927-3.621-9.452c-1.508-4.626-10.157-24.738-11.262-26.952
			C514.425,1394.691,499.834,1374.125,495.92,1371.362z"/>
		<path d="M476.794,1452.067c-0.334,0.191-2.262,0.563-6.462,0.956c-1.39,0.14-2.366,0.201-3.167,0.201
			c-3.613,0-4.366-1.106-5.038-7.398c-0.291-2.911-0.991-7.987-1.614-11.107c-1.671-9.292-2.249-39.188-1.174-41.154
			c0.725-0.514,1.282-1.428,1.282-2.091c0-0.721-0.48-1.043-0.956-1.043c-0.274,0-0.579,0.103-0.884,0.297
			c0.01-0.134,0.04-0.338,0.116-0.642c0.312-0.849,0.699-2.443,1.042-3.85l0.265-1.079c0.374-1.588,1.521-3.837,2.612-5.127
			c1.245-1.331,2.2-1.934,3.079-1.934c2.557,0,5.804,5.462,11.278,16.218c2.367,4.53,4.628,9.466,5.207,11.013
			c0.391,1.106,1.262,3.312,2.185,5.646c0.51,1.288,1.043,2.638,1.539,3.912c2.661,6.86,5.658,17.352,7.82,27.378
			c0.72,3.372,0.935,5.289,0.112,6.405c-0.183,0.247-0.425,0.465-0.732,0.657l0.001-0.016l0.1-3.52
			c0.306-11.383-14.649-51.528-23.532-63.171c-1.725-2.296-2.798-3.464-3.872-3.464c-0.964,0-1.632,0.891-2.398,2.328
			c-4.489,8.267-5.354,32.609-1.964,55.417c0.625,3.745,1.217,8.463,1.404,10.433c0.476,3.704,1.899,5.819,3.911,5.819
			c0.315,0,0.642-0.055,0.969-0.164c2.506-0.964,13.078-2.581,18.875-2.892l5.407-0.271c-1.469,0.499-3.726,0.789-6.986,1.086
			C482.284,1451.199,477.406,1451.765,476.794,1452.067z"/>
		<g>
			<path d="M432.023,1454.321c-7.011-0.37-7.011-0.37-9.54-12.367l-0.085-0.402c-0.33-1.591-0.606-3.179-0.828-4.769
				c0.911,5.935,3.217,13.888,4.914,15.583c0.514,0.695,7.859,1.275,12.188,1.554l11.834,0.74l0.033,0.548l-5.779-0.275
				c-1.919-0.112-8.513-0.487-12.579-0.604L432.023,1454.321z"/>
			<path d="M423,1408.066c1.652-8.467,6.017-16.997,7.255-16.997c0.092,0,0.181-0.012,0.264-0.036
				c-1.636,1.919-3.434,5.264-4.544,7.89c-2.793,6.782-5.395,27.234-4.649,35.908C420.4,1426.519,420.951,1418.004,423,1408.066z"/>
			<path d="M435.672,1392.357c1.701,2.492,2.439,3.865,2.53,4.197v0.049c0,0.484,0.531,2.014,1.045,3.213
				c2.283,4.942,2.721,6.752,2.778,7.391c0.112,0.578,0.922,3.613,1.827,6.73c0.916,3.054,1.901,7.306,2.197,9.483
				c0.411,2.165,1.312,6.561,2.121,9.904c0.935,3.322,1.712,9.892,1.898,14.084l0.403,6.71l-0.416-2.393
				c-0.334-1.342-0.77-5.154-1.001-7.311c-1.704-15.444-8.416-41.746-12.824-50.255c-1.049-2-2.433-4.1-2.964-4.495
				c-0.628-0.405-1.301-0.084-2.103,0.678c0.15-0.521-0.008-1.161-0.134-1.541c-0.259-0.669-0.186-0.861-0.185-0.863
				C431.6,1387.988,433.873,1389.69,435.672,1392.357z"/>
			<polygon points="432.709,1389.999 432.709,1389.994 432.709,1389.999 			"/>
		</g>
	</g>
	<g>
		<path d="M655.699,1523.271c2.615,0,5.633,7.341,5.935,14.078c0.402,11.363,7.441,30.27,7.542,20.413
			c0.101-1.508,1.105-5.329,2.514-8.346c2.111-5.028,2.615-5.53,5.732-5.631c13.174-0.303,17.9-0.806,17.9-1.812
			c0-0.604,1.207-1.91,2.514-2.916c2.414-1.71,2.514-1.71,9.15,2.815c5.13,3.419,7.744,4.524,10.66,4.524
			c4.525,0,5.431,1.509,6.437,10.659c0.403,3.018,1.005,5.632,1.408,5.934c0.302,0.202,1.509-1.005,2.515-2.815
			c1.006-1.809,2.111-3.419,2.414-3.72c0.301-0.302,1.607-2.614,2.915-5.229c2.011-4.123,2.716-4.727,6.235-5.33
			c2.212-0.401,4.625-1.207,5.33-1.911c2.412-2.313,6.736-4.624,8.547-4.624c1.106,0,3.018,0.804,4.323,1.809
			c5.531,4.021,9.453,5.532,13.478,5.331l4.122-0.201l2.716,6.637c1.508,3.62,2.715,7.24,2.715,8.146
			c0,3.017,2.516,0.704,5.732-5.229c1.81-3.217,3.52-7.342,3.82-8.949c0.504-2.11,1.608-3.521,3.521-4.323
			c3.419-1.609,6.638-5.633,11.163-14.28c3.419-6.437,3.419-6.738,3.82-21.822c0.303-12.671,0-16.189-1.407-20.214
			c-1.71-4.826-1.71-5.129,0.503-13.776c1.307-4.826,3.42-10.357,4.626-12.167c3.721-5.331,5.129-10.762,4.425-16.794
			c-0.704-6.84-0.503-58.43,0.402-73.313c0.704-12.27,3.117-37.812,4.626-50.08c0.503-4.122,1.206-9.353,1.509-11.563
			c0.603-4.827,1.91-14.985,4.021-31.075c0.806-6.637,2.516-17.196,3.621-23.633c3.521-19.71,5.631-32.28,7.542-45.454
			c1.709-11.967,1.709-12.872,0-17.599c-0.904-2.716-1.811-5.431-2.011-5.935c-0.905-3.116-2.615-6.437-3.521-7.039
			c-0.604-0.301-2.112-2.715-3.318-5.329c-1.71-3.922-2.212-6.938-2.413-17.298c-0.201-6.938-0.604-15.285-0.805-18.604
			c-0.304-3.318-0.905-14.38-1.207-24.64l-0.703-18.604l-4.525-9.051c-5.432-10.963-10.358-17.498-24.235-32.182
			c-13.175-13.877-13.678-14.48-16.795-20.917c-1.308-2.916-3.218-6.637-4.224-8.246c-0.906-1.71-1.811-3.117-1.811-3.317
			c-0.103-0.202-3.319-1.408-7.039-2.717c-8.045-2.814-8.146-2.814-8.951-1.406c-0.402,0.604-0.101,0.904,0.604,0.805
			c1.812-0.403,5.935,1.006,5.935,1.91c0,0.401-2.815,0.604-6.234,0.503c-5.731-0.202-5.934-0.102-2.313,0.703
			c2.213,0.504,5.229,1.105,6.737,1.308c4.323,0.906,6.437,2.414,10.458,7.844c3.117,4.326,3.822,6.136,4.022,10.359
			c0.2,6.736,0.2,6.838,1.408,6.134c0.904-0.603,1.308,0.704,1.308,4.728c0,1.006,0.402,1.811,0.804,1.811
			c0.503,0,1.61,1.811,2.516,4.021c1.308,3.118,1.91,3.82,2.916,3.018c0.905-0.704,1.006-2.112,0.503-4.525
			c-0.402-1.91-0.604-3.52-0.402-3.52c0.604,0,20.516,20.615,20.516,21.219c0,0.402,1.608,2.413,3.52,4.525
			c4.324,4.726,8.247,11.162,9.654,15.688c0.604,1.812,1.207,10.058,1.408,18.403c0.503,19.007,1.509,44.147,2.012,48.772
			c0.804,7.24,0.904,17.097,0.201,17.698c-1.207,1.31-0.806,2.415,1.006,2.415c1.407,0,1.407,0.301-0.303,2.212
			c-1.007,1.207-1.407,1.811-0.703,1.407c0.805-0.402,2.212,0.807,3.922,3.42c1.508,2.212,2.814,4.021,2.916,4.021
			c0.201,0-0.301-2.11-1.105-4.625c-1.006-3.219-1.006-4.426-0.201-4.225c2.515,0.904,5.431,10.659,5.632,18.403
			c0.101,5.732,0,5.831-0.905,2.212c-0.503-2.112-2.413-5.33-4.225-7.141c-1.709-1.812-4.323-5.128-5.731-7.44
			c-4.021-6.639-5.832-5.229-2.011,1.509c1.81,3.218,3.82,6.536,4.626,7.341c3.621,4.123,3.419,22.324-0.201,27.654
			c-2.214,5.573-10.136,22.144-14.297,18.739c-3.667-2.999-5.75-22.249-6.25-28.666c-0.023-0.301,0.637-1.637,0.232-1.637
			c-1.81,0-1.104,6.637,2.917,26.85c0.503,2.816,1.71,5.732,2.614,6.537c1.51,1.105,1.609,1.105,1.006-0.504
			c-0.401-1.004-0.301-1.609,0.302-1.206c0.504,0.301,2.614-1.104,4.626-3.218l3.621-3.821l-0.651,3.833
			c-1.205,2.213-3.58,5.331-4.084,5.834c-1.105,1.406-1.701,2.198-0.494,1.394c2.662-1.711,12.841-19.91,1.661,3.856
			c-2.012,4.524-4.778,7.507-2.666,6.2c1.608-1.006,13.073-26.047,13.073-28.562c0-0.503,0.502-1.308,1.207-1.709
			c1.709-1.105,0.703,6.537-5.731,41.835c-1.006,5.53-2.716,15.788-3.117,19.105c-0.906,8.146-1.71,13.677-2.012,15.588
			c-0.303,1.105-0.703,4.524-0.905,7.543c-0.201,3.017-0.704,7.542-1.006,10.056c-0.604,5.028-1.005,9.555-2.012,21.621
			c-0.401,4.426-0.904,10.761-1.206,14.079c-0.201,3.318-0.604,25.544-0.704,49.478c-0.2,27.453-0.704,43.946-1.309,44.75
			c-0.604,0.704-1.508,2.614-2.11,4.324c-0.604,1.608-2.414,6.637-4.021,11.063l-2.918,7.943l-1.606-3.116
			c-0.906-1.71-2.816-4.023-4.134-5.136c-0.681-0.536-14.725-3.226-15.101-3.288c-0.916-0.152-1.799-0.457-2.707-0.645
			c-2.021-0.417-3.739-0.092-5.716,0.418c-3.117,0.805-6.838,1.71-8.246,2.012c-3.619,0.806-4.826,2.112-7.644,7.441
			c-3.116,6.234-4.021,6.639-6.032,2.716c-1.139-2.215-2.675-5.547-5.021-6.726c-1.199-0.603-3.019-0.12-4.375-0.418
			c-1.934-0.426-3.745-1.279-5.581-1.994c-6.03-2.348-12.013-1.874-18.108-0.015c-5.935,1.812-6.033,1.91-9.654,8.851l-3.62,7.14
			l-1.509-4.123c-0.904-2.213-1.91-5.028-2.313-6.335c-0.604-2.213-4.021-4.225-7.543-4.727c-2.916-0.303-9.553-2.816-10.156-3.822
			c-0.401-0.604-2.916-0.102-6.336,1.208c-3.116,1.104-5.631,1.81-5.631,1.406c0-0.302,1.207-2.212,2.613-4.122
			c2.515-3.219,2.615-3.419,0.504-2.715c-1.709,0.502-2.111,0.302-1.811-1.309c0.102-1.105,1.006-2.716,2.012-3.621
			c0.904-0.903,2.112-3.619,2.715-5.933c0.604-2.313,3.219-10.559,5.935-18.303c7.44-21.218,14.582-43.945,15.588-49.275
			c0.301-1.71,0.805-4.626,1.104-6.537c0.905-5.329,5.732-24.437,6.638-26.246c0.503-0.905,0.303-2.112-0.303-2.716
			c-1.71-1.71-9.149,23.432-11.263,28.46c-2.212,5.53-2.715,6.134-6.033,6.636c-2.012,0.304-3.42,0.403-3.117,0.103
			c0.302-0.302,0-1.107-0.604-1.81c-1.207-1.408-3.295-8.695-1.911-10.964c0.263-0.43,8.347-12.268,11.161-13.877
			c4.125-2.313,4.829-3.317,2.516-3.922c-0.904-0.202,0.201-2.614,3.521-7.744c6.233-9.452,6.233-9.554,5.43-3.921
			c-0.904,6.135,0.302,8.146,2.213,3.721c2.112-4.727,5.23-15.486,6.336-21.521c0.502-2.815,1.608-8.246,2.515-12.066
			c6.234-28.259,8.85-44.248,10.559-65.366c1.811-23.33,1.912-23.532,5.23-26.95c1.607-1.71,5.128-4.226,7.643-5.431
			c2.916-1.408,3.922-2.313,2.715-2.313c-1.104,0-3.821,0.905-5.934,2.111c-3.117,1.608-4.424,1.911-6.234,1.006
			c-2.012-0.904-2.313-1.708-2.313-6.838c0-0.462-0.014-0.964-0.032-1.479c-0.035-0.271-0.045-0.542-0.039-0.813
			c-0.155-2.93-0.563-6.341-1.035-8.468c-0.602-2.715-1.206-6.134-1.408-7.542c-0.602-4.123-4.524-19.711-6.133-24.335
			c-0.805-2.313-1.71-5.13-1.912-6.337c-0.502-2.413-5.127-15.386-7.341-20.716c-0.804-1.91-1.909-4.426-2.313-5.53
			c-0.403-1.105-3.521-7.743-6.938-14.782c-3.319-7.039-6.336-14.48-6.637-16.492c-0.202-2.011-0.604-4.425-0.906-5.331
			c-0.604-2.011-1.608-10.156-2.111-16.392c-0.201-2.515-0.906-5.632-1.508-6.839c-1.106-2.011-1.912-8.949-2.112-18.101
			c-0.101-4.426,3.318-13.175,7.441-19.107c2.112-3.117,2.212-3.923,0-3.619c-0.904,0.2-3.318,3.116-5.43,6.536
			c-3.219,5.329-3.823,5.933-4.426,4.122c-0.303-1.105-1.006-1.81-1.407-1.508c-0.505,0.201-0.704-0.704-0.505-2.112
			c0.103-1.508,0-3.419-0.4-4.323c-1.106-3.019-1.811,3.116-1.005,8.949c1.709,11.665,2.01,16.693,0.804,15.084
			c-0.804-1.206-0.905-0.904-0.503,1.106c0.402,1.407,1.006,5.934,1.509,10.057c0.402,4.123,1.005,8.548,1.307,9.956
			c0.202,1.408,1.207,7.24,2.112,13.073c2.615,16.09,3.419,18.806,9.554,29.666c3.117,5.531,5.633,10.257,5.633,10.559
			c0.1,0.302,0.904,1.911,1.81,3.723c0.905,1.81,1.71,3.82,1.71,4.524s0.604,2.515,1.408,3.921
			c2.011,4.022,6.033,16.694,9.754,31.074c1.207,4.728,1.207,17.196,0,18.403c-1.308,1.307-0.201,22.729,1.408,26.348
			c4.525,10.157,5.229,13.173,4.928,20.615c-0.604,10.157-6.033,45.254-9.151,58.327c-1.308,5.832-2.716,11.665-2.915,12.973
			c-0.304,1.408-0.807,2.916-1.207,3.521c-0.303,0.604-0.806,1.811-0.905,2.815c-0.402,2.413-16.995,29.767-21.32,34.996
			c-2.012,2.515-4.826,6.134-6.134,8.045s-2.716,3.722-3.117,4.022c-1.911,1.509-2.514,6.838-1.206,11.563
			c2.011,7.644,1.811,13.073-1.106,24.638c-0.904,3.62-1.608,10.259-1.608,14.684c0,7.24,1.024,7.896,1.911,8.749
			c1.407,0.302,2.916-5.531,4.123-4.828c0.703,0.504-0.303,4.525-5.934,24.036c-1.007,3.418-2.716,6.537-4.023,7.543
			c-1.91,1.406-2.412,3.016-2.815,8.244c-0.503,6.034-0.903,6.84-5.43,11.968c-2.716,3.018-4.928,5.028-4.928,4.525
			c-0.102-0.604-0.905,0.804-1.911,3.018c-1.408,3.116-2.012,7.742-2.515,20.816
			C651.979,1515.628,652.885,1523.271,655.699,1523.271z M723.781,1209.11c-0.806-0.805-1.308-2.716-1.91-8.447
			c-0.604-5.933,0.1-5.229,1.509,1.509C724.688,1208.708,724.787,1210.116,723.781,1209.11z M721.871,1217.155
			c-0.805-2.212-1.31-4.123-1.106-4.225c0.704-0.704,2.716,3.821,2.615,5.833C723.38,1220.475,722.977,1220.072,721.871,1217.155z
			 M682.148,1405.61c-1.812,2.214-3.318,4.022-3.318,4.022c-0.704,0,1.005-13.273,1.508-14.079c0.402-0.805,1.408-3.519,2.313-6.034
			c1.308-3.82,2.012-4.524,4.425-4.727l2.916-0.2l-2.313,8.446C686.171,1398.773,684.36,1402.796,682.148,1405.61z M696.06,1478.102
			c-1.026-0.377-2.067-1.356-2.942-1.688c-1.934-0.731-3.57-2.121-5.564-2.748c-1.585-0.498-3.371-0.58-5.023-0.583
			c-4.176-0.009-8.326,1.692-12.045,3.428c-4.225,1.911-7.743,3.521-7.943,3.521c-0.201,0,1.608-2.515,3.922-5.632
			c2.916-3.922,5.53-6.336,8.547-7.541c2.414-1.107,4.426-1.911,4.525-1.813c0.102,0,1.509,0.503,3.219,1.006
			c4.826,1.508,13.775,6.334,14.883,8.045c0.726,1.122,1.354,3.726-0.482,4.122C696.794,1478.294,696.428,1478.236,696.06,1478.102z
			 M747.112,1485.561c-3.018,2.514-6.034,3.219-6.737,1.709c-0.202-0.502-3.219-2.515-6.638-4.627
			c-7.645-4.425-11.063-4.223-17.899,1.006c-2.414,1.912-4.828,3.42-5.331,3.42s-1.105-2.414-1.307-5.33
			c-0.604-6.938,1.407-10.458,7.241-12.973c10.257-4.426,21.721-2.111,29.865,5.934
			C751.686,1479.936,750.696,1482.646,747.112,1485.561z M798.198,1482.04l-0.503,2.111l-3.722-2.212
			c-2.012-1.209-6.033-3.019-8.948-4.023l-5.433-1.91l-4.123,2.414c-2.313,1.308-5.934,3.317-7.942,4.625l-3.822,2.212l-4.022-3.217
			c-2.212-1.71-4.021-3.318-4.021-3.521c0-0.1,0.603-1.81,1.408-3.618c1.104-2.717,2.916-4.125,7.844-6.537
			c7.441-3.723,10.86-4.93,10.86-3.723c0,0.504,2.111,0.806,4.728,0.704c6.938-0.302,12.168,2.916,15.586,9.453
			C797.596,1477.816,798.5,1480.832,798.198,1482.04z M785.93,1524.679c-0.604-2.213-1.307-5.731-1.608-7.943
			c-0.402-2.214-1.005-5.833-1.509-8.046c-1.407-6.437-0.401-5.229,3.018,3.721c3.62,9.453,4.425,17.498,2.514,25.441l-1.206,5.029
			l-0.101-7.14C787.036,1531.718,786.533,1526.79,785.93,1524.679z M774.223,1535.586c-1.852-3.04-4.723-5.773-4.807-9.522
			c-0.004-0.132,0.004-0.262,0.012-0.391c-0.533-4.032,2.755-16.438,6.244-23.317c1.207-2.313,2.313-4.226,2.615-4.226
			c0.905,0,2.514,3.922,2.514,6.234c0.102,1.308,1.484,6.106,2.49,11.136c1.307,6.536,2.201,12.436,2,21.083
			c-0.302,12.369-2.379,16.152-4.289,11.124C780.439,1546.302,774.922,1536.73,774.223,1535.586z M722.877,1509.191
			c1.407-4.123,3.318-8.146,4.123-9.052c1.709-1.607,1.709-1.81,1.608,7.543c-0.102,3.82,0.302,8.347,0.904,10.057
			c0.806,2.313-0.448-4.77-0.516-7.114c-0.416-14.875,0.817-8.674,2.226-6.059c2.515,4.826,5.128,13.271,5.833,18.904
			c0.604,4.929,0.302,6.537-3.018,14.48c-2.012,4.929-3.821,9.152-4.022,9.252c-0.402,0.503,0.491-20.671,0.463-23.235
			c-0.027-2.339-0.563-5.306-0.656-2.844c-0.067,1.74,0.235,3.313-0.115,7.042c-0.619,6.559-1.629,21.916-2.333,21.916
			c-0.302,0-2.788-6.801-4.397-10.521C718.955,1530.511,718.955,1520.354,722.877,1509.191z M665.656,1532.724
			c-0.013-21.38,1.508-20.614,6.233-28.762c2.515-4.324,4.929-8.045,5.431-8.347c1.106-0.704,3.119,3.317,6.938,13.777
			c0.937,2.56,1.72,5.174,2.201,7.856c0.164,0.909,0.297,1.858,0.293,2.786c-0.005,1.678-0.504,3.546-1.397,4.971
			c-1.062,1.688-2.705,2.939-3.944,4.488c-0.991,1.238-11.716,13.738-12.376,15.223c-0.257,0.575-0.936,1.626-0.965,2.184
			c0.006-0.104,0.603-10.961,0.603-10.961c0.302-6.032,1.022-15.292,1.743-19.23c1.631-8.922,5.666-20.542-0.234-5.004
			c-0.987,2.601-1.307,6.134-1.608,7.543c-0.303,1.408-0.905,6.234-1.309,10.859C666.259,1540.267,665.666,1549.25,665.656,1532.724
			z M657.109,1499.638c-0.014-3.338-0.047-6.675-0.012-10.015c0.035-3.348,0.617-5.676,2.627-8.35
			c0.438-0.584,0.892-1.155,1.342-1.73c-0.126,3.933,13.188-3.245,14.66-3.611c4.926-1.227,8.976,0.59,13.453,2.415
			c1.465,0.599,3.01,0.943,4.467,1.553c1.388,0.577,2.763,1.449,4.307,0.887c1.291-0.472,1.583-1.885,2.25-0.396
			c0.357,0.796,0.256,1.893,0.533,2.742c0.432,1.313,1.234,1.632,0.92,3.135c-0.099,0.466-0.205,0.845-0.032,1.237
			c0.606-0.294,0.962-0.969,1.604-1.219c0.071,0.143,0.188,0.277,0.266,0.416c-0.055-0.098,1.468-2.452,1.78-2.536
			c0.85-0.229,1.483,1.05,2.041,1.548c1.32,1.182,3.106,2.223,4.937,1.7c1.144-0.325,2.22-0.933,3.253-1.504
			c0.808-0.446,2.032-1.549,2.947-1.655c0.001,0,5.483-3.069,7.799-3.003c1.34,0.038,5.074,1.493,5.074,1.493
			c5.832,3.317,10.559,6.436,11.363,7.543c0.303,0.502,2.414-0.806,4.727-2.815c2.313-1.911,4.224-3.218,4.224-2.716
			c0.102,0.401,0.704-0.402,1.608-1.911l1.509-2.814l4.626,3.419l4.728,3.419l3.018-2.313c5.731-4.224,12.771-7.441,14.582-6.638
			c6.134,3.018,17.296,8.146,17.698,8.146c0.202,0,0.202-0.703-0.102-1.508c-1.105-2.917,0.604-1.509,3.219,2.613
			c2.313,3.722,2.515,4.729,1.91,10.862c-0.301,3.62-1.006,10.961-1.407,16.189c-0.703,8.348-1.207,10.156-3.922,14.181
			c-1.812,2.614-3.219,5.129-3.219,5.73c0,0.503-0.704,1.207-1.509,1.61c-1.811,0.703-1.911-0.905-0.301-6.738
			c1.104-4.224,0.903-4.728-4.627-16.996c-6.638-14.581-10.561-20.011-12.873-18.101c-0.804,0.604-3.317,3.316-4.727,6.736
			c-0.704,1.609-2.212,6.336-3.218,10.459c-1.104,4.022-2.615,9.151-3.318,11.263c-1.309,3.722-1.206,4.125,1.509,8.448
			c1.608,2.514,2.917,4.826,2.917,5.128c0,0.303,0.904,1.911,2.11,3.52l2.012,2.917h-2.012c-2.012,0-6.033-1.81-7.14-3.116
			c-0.302-0.303-2.213-1.207-4.324-2.012c-3.42-1.207-3.922-1.911-5.431-6.84c-1.005-3.719-1.407-7.943-1.105-13.374
			c0.303-4.324,0.102-8.146-0.302-8.347c-1.309-0.905-1.911,2.716-1.911,12.67v9.957l-4.122,4.524
			c-2.614,2.916-5.028,4.525-6.537,4.525c-2.313,0-2.313-0.1-0.905-4.021c2.012-5.834,2.012-10.56,0-18.604
			c-2.716-11.062-8.64-22.123-11.656-22.927c-1.911-0.403-6.848,5.63-7.854,8.546c-2.411,7.241-5.529,23.432-4.825,25.645
			c0.301,1.007,1.207,4.225,2.012,7.039l1.508,5.329h-2.614c-3.419,0-11.263-6.134-12.973-10.155
			c-0.804-2.012-0.904-2.917-0.101-2.917c0.703,0,0.703-0.402-0.103-1.408c-1.406-1.608-1.606-8.045-0.602-21.013
			c0.144-1.857,0.186-3.734,0.283-5.599c0.047-0.885,0.399-2.591-0.063-3.415c-1.241-2.216-2.032,4.009-2.135,4.753
			c-0.6,4.355-0.684,8.774-0.979,13.156c-0.305,4.531-0.648,9.104-1.243,13.607c-0.52,3.941-2.861,6.049-6.379,7.734
			c-4.384,2.1-9.272,3.282-14.117,3.563c7.054-8.5,14.609-19.087,10.496-30.554c-1.964-5.475-4.442-11.159-7.226-16.271
			c-0.615-1.13-1.459-2.856-2.982-2.739c-1.495,0.115-2.933,2.014-3.848,3.011c-3.83,4.176-7.181,8.863-9.09,14.234
			c-1.006,2.828-1.619,5.763-2.156,8.71c-0.183,1.001-0.266,4.317-1.264,4.967c-1.379,0.895-3.397-3.521-3.959-4.495
			c-1.53-2.654-1.253-5.332-1.171-8.328C657.114,1505.354,657.119,1502.495,657.109,1499.638z"/>
		<path d="M696.536,1096.521c4.524,13.979,9.956,20.918,23.13,29.265c4.123,2.715,3.721,2.814-1.911,0.804
			c-1.503-0.536-4.239-2.066-4.099,0.473c0.143,2.58,1.688,5.271,3.283,7.214c2.129,2.592,5.159,4.329,8.186,5.673
			c11.43,5.074,26.231,4.023,35.118-5.632c3.306-3.593,5.681-8.556,7.587-13.015c0.498-1.168,1.512-3.195,0.342-4.271
			c-1.137-1.046-3.775-0.421-5.107-0.271c0.065-0.215,0.029-0.561,0.093-0.729c-3.207,1.932-5.451,5.104-8.604,7.141
			c-4.044,2.61-7.186,4.922-12.063,5.368c-3.829,0.351-7.719,0.382-11.562,0.475c-2.299,0.056-4.923-0.651-7.179-1.264
			c2.832-1.106,6.169-0.288,9.148-0.698c5.885-0.808,12.523-0.932,17.866-3.844c2.344-1.276,4.617-2.842,6.716-4.489
			c3.59-2.819,6.932-6.134,10.069-9.446c2.413-2.548,2.986-4.888,3.103-8.326c0.1-3.018,0.502-12.974,1.005-22.123l0.804-16.594
			l-3.721-7.039c-2.814-5.53-3.418-7.441-2.613-8.949c0.604-1.006,0.804-4.728,0.604-8.146c-0.401-6.738-0.202-6.938,3.923-3.219
			c1.307,1.105,2.313,1.61,2.313,1.006c0-1.105-12.966-11.091-8.045-6.336c1.575,1.522,1.46,6.45,1.454,8.641
			c-0.006,2.273-0.183,7.153-1.555,8.959c-0.633,0.833-1.911-3.722-1.911-3.722c-2.414-4.424-13.777-11.463-23.13-14.179
			c-2.614-0.805-9.15,0.199-12.368,1.811c-3.521,1.811-16.594,7.843-20.315,11.565c-2.213,2.312-5.229,5.329-6.838,6.737
			c-1.509,1.509-2.716,3.418-2.716,4.323c0,0.906-0.302,2.011-0.603,2.313c-0.403,0.302-0.705,2.615-0.906,4.929
			c-0.101,2.412-0.502,9.755-1.006,16.491C694.324,1088.577,694.426,1090.086,696.536,1096.521z M746.232,1129.167
			c6.868-1.701,11.55-6.415,14.768-9.833c1.593-1.721,8.565-4.271,6.75,0.833c-2.089,5.872-7.565,13.151-10.917,15.978
			c-3.845,3.242-11.168,5.669-16.25,5.939c-6.224,0.333-13.898-2.538-19.583-5.167c-1.312-0.606-5.5-5.042-6.281-8.323
			c-0.741-3.113,4.449-0.53,6.875,0.344C724.113,1129.846,739.031,1130.95,746.232,1129.167z M697.875,1090.625
			c1.009-0.843,9.422,2.175,13.444,4.89c4.432,3.024,9.184,5.643,14.237,7.463c4.593,1.655,9.719,2.984,14.563,1.653
			c2.446-0.673,5.271-1.968,7.259-3.568c4.723-3.806,9.626-8.194,13.28-13.052c2.021-2.686,10.946-23.615,10.259-25.553
			c-0.566,1.053-9.27,23.195-10.167,24.376c-5.649,7.434-8.647,8.714-13.334,13.25c-12.916,12.5-30.558-2.53-39.416-7.209
			c-2.578-1.361-8.158-2.788-9.786-3.118c-0.849-0.172-0.308-2.788,2.344-4.397c1.894-1.149,1.308-1.811-0.401-1.207
			c-1.709,0.703-4.16,0.105-3.656-9.651c0.229-4.359,0.821-14.162,1.25-15.754c0.007-0.127,3.484-2.423,3.679-2.91
			c-1.063-1.672-1.363-3.27,1.321-6.649c4.826-6.135,11.484-10.39,16.714-12.804c2.615-1.104,5.832-2.715,7.341-3.418
			c2.313-1.208,10.57-6.903,22.124,2.412c2.823,2.276,6.884,2.872,8.634,4.372c2.528,2.168,12.686,18.953,12.887,22.875
			c0.389,7.561-0.051,11.179-0.074,18.75c-0.012,3.9-0.599,20.435-1.875,23.75c-2.423,6.293-17.51,16.975-19.249,17.708
			c-3.909,1.648-13.901,3.548-25.084,3c-2.416-0.118-14.452-8.082-16.75-10.916C706.285,1113.522,694.457,1093.48,697.875,1090.625z
			"/>
		<path d="M771.048,1045.221c0.925-1.235,1.541-2.755,1.541-3.406c0-0.174-0.042-0.316-0.116-0.391
			c-0.075-0.076-0.188-0.069-0.321,0.009c-0.342,0.172-0.64,0.273-0.901,0.312l0.037,0.168l-0.042-0.014
			c0.055,0.49,0.083,1.102,0.083,1.826c0,1.218-0.88,2.286-1.883,2.286c-0.626,0-1.136,0.282-1.136,0.63
			c0,0.605,0.24,0.605,0.33,0.605C769.12,1047.246,770.079,1046.612,771.048,1045.221z"/>
		<path d="M776.782,1061.036c0.041,0,0.168-0.075,0.463-0.764c0.749-2.155-0.449-6.56-2.34-8.545
			c-1.139-1.138-2.059-1.649-2.463-1.649c-0.084,0.019-0.108,0.066-0.108,0.184c0.053,0.162,0.729,0.987,1.874,1.923
			c1.017,1.015,2.304,3.071,2.741,4.932c0.445,1.847,0.565,2.344,0.324,2.65l-0.112,0.144l-0.259,0.035
			c-0.344,0-0.681-0.318-1.681-1.264c-0.799-0.83-1.307-1.161-1.557-1.271c0.089,0.309,0.434,1.016,1.485,2.151
			C775.55,1060.006,776.477,1061.035,776.782,1061.036z"/>
		<path d="M773.166,1065.246c-0.302,0.301,0,1.105,0.704,1.811c1.005,0.905,1.104,0.805,0.503-0.604
			C774.07,1065.448,773.467,1064.945,773.166,1065.246z"/>
		<path d="M818.419,1180.292c-0.503,1.406,0.503,2.714,1.407,1.81c0.303-0.302,0.201-1.106-0.2-1.81
			C819.021,1179.186,818.822,1179.186,818.419,1180.292z"/>
		<path d="M806.595,1204.568c2.165-3.179,5.171-11.828,5.115-14.859c-0.24,0.568-0.636,1.688-1.278,3.862
			c-1.076,3.521-2.601,8.118-3.434,10.096C806.89,1203.907,806.743,1204.232,806.595,1204.568z"/>
		<path d="M802.932,1206.724c-0.492,0.159-1.475,0.58-3.439,1.652c-2.7,1.446-4.5,2.854-4.941,3.388
			c0.213-0.086,0.56-0.294,0.994-0.68c1.061-0.954,2.937-1.984,4.181-2.296C800.639,1208.454,802.103,1207.581,802.932,1206.724z"/>
		<path d="M776.056,1208.482c1.948,0.411,6.103,1.427,9.073,2.218c3.221,0.858,5.204,1.313,6.158,1.409
			c-0.859-0.419-3.81-1.371-9.067-2.796c-6.196-1.698-9.623-2.188-15.282-2.188c-1.335,0-2.88,0.028-4.722,0.089
			c-4.767,0.062-11.22,0.282-12.304,1.485c-0.079,0.079-0.147,0.149-0.206,0.212c0.38-0.104,0.82-0.25,1.016-0.314
			c1.83-0.61,8.027-0.827,12.777-0.827C767.881,1207.77,773.48,1207.957,776.056,1208.482z"/>
		<path d="M816.709,1280.452l-1.608,3.018l0.604-2.815c0.403-1.911,0.202-2.615-0.502-2.213c-1.408,0.904-1.308,3.722,0.502,7.644
			l1.408,3.419l0.102-3.52c0-1.911,0.301-4.627,0.502-6.034C818.218,1277.736,818.117,1277.736,816.709,1280.452z"/>
		<path d="M808.261,1283.472c-0.254,0-0.536,0.026-0.854,0.068c-2.931,0.376-4.174,4.337-3.697,11.771
			c0.224,4.1,0.602,4.819,2.524,4.819c0,0,0,0,0.001,0c0.988,0,2.35-0.233,4.368-0.638c0.572-0.127,1.041-0.498,1.384-1.101
			c1.091-1.915,0.844-5.796-0.661-10.38C809.99,1284.007,809.5,1283.472,808.261,1283.472z M808.726,1299.295
			c-0.979,0.421-2.099,0.678-2.936,0.678c-0.41,0-0.727-0.063-0.938-0.19c-0.337-0.193-0.734-0.739-0.762-3.248
			c-0.04-3.644,0.892-11.25,2.27-12.079c0.852-0.566,1.463-0.858,1.803-0.858c1.617,0,3.391,7.464,3.391,10.634
			C811.553,1297.186,810.972,1298.227,808.726,1299.295z"/>
		<g>
			<path d="M812.938,1307.884c-0.687-0.625-1.159-0.854-1.377-0.905c0.063,0.476,0.562,1.183,1.193,1.499
				c1.685,0.908,1.313,2.306-0.113,6.588c-0.665,1.971-1.204,3.413-1.682,4.442c1.769-3.198,3.868-7.738,3.868-9.087
				C814.827,1310.024,814.104,1308.942,812.938,1307.884z"/>
			<path d="M805.372,1318.184c1.521,2.826,2.97,4.471,3.377,4.626c0.253-0.14,0.733-0.803,1.317-1.759
				c-0.395,0.492-0.772,0.692-1.186,0.692c-1,0-1.845-1.325-2.967-3.615l-0.454-1.029c-1.231-2.785-1.696-3.874-1.696-4.263
				c0-0.675,2.878-4.08,3.206-4.467c1.122-1.255,1.812-2.231,2.099-2.761c-1.2,0.672-4.006,3.579-5.405,6.102
				C802.95,1313.134,803.284,1314.407,805.372,1318.184z"/>
		</g>
		<path d="M728.337,1354.188c-0.399-0.479-0.87-0.681-1.469-0.615c0.905-0.072,1.028,1.123,1.14,2.46
			c0.186,2.688-2.027,9.879-3.533,11.493c-0.26,0.278-0.517,0.413-0.785,0.413c-0.993,0-2.563-2.337-2.629-2.437
			c-1.438-2.211-1.382-3.047,0.391-5.967c1.051-1.784,2.683-3.912,3.713-4.838c0.68-0.638,1.104-0.987,1.49-1.092
			c-1.722,0.35-4.347,2.774-6.739,7.715c-0.753,1.504-1.063,2.432-0.926,2.764c0.013,0.03,0.042,0.101,0.232,0.164
			c0.988,0.423,2.294,2.353,3.104,3.973l1.104,2.279l2.243-3.818C728.864,1361.36,729.983,1356.107,728.337,1354.188z"/>
		<path d="M751.566,1368.95c1.783,0,4.004,0.718,5.037,1.634c0.537,0.536,1.029,0.941,1.359,1.173
			c0.196-1.483,0.423-6.173,0.423-12.866c-0.001-12.652-0.15-13.076-1.511-13.076c-1.936,0-4.1,2.972-5.147,7.066
			c-0.039,0.155-0.066,0.285-0.095,0.416l-0.166,1.104c-0.001,0.026-0.004,0.062-0.004,0.084c0.39-0.342,0.987-1.482,1.405-3.157
			c0.287-1.528,1.213-3.665,2.197-4.402c0.17-0.142,0.462-0.353,0.808-0.353c1.247,0,1.413,1.818,1.703,11.094l0.318,12.145
			l-3.566-0.985c-1.45-0.428-3.31-0.389-4.118,0.038C750.509,1368.895,750.941,1368.926,751.566,1368.95L751.566,1368.95z"/>
		<path d="M787.858,1376.595c0.271-1.259,0.011-3.371-0.565-4.623c-0.545-1.244-1.303-1.925-2.139-1.925
			c-1.022,0-2.102,1.021-2.888,2.729c-1.274,2.549-1.45,4.934-0.859,11.613c0,0,0,0,0,0.001
			C782.685,1384.18,787.377,1379.094,787.858,1376.595z M782.126,1379.318c0.332-2.104,0.713-4.467,1.01-5.756
			c0.356-1.635,1.115-2.576,2.081-2.576c0.438,0,1.098,0.21,1.744,1.209c1.137,1.932-0.408,7.219-2.699,9.292
			c-1.013,0.905-1.402,1.222-1.809,1.222c-0.197,0-0.375-0.083-0.5-0.232C781.637,1382.098,781.729,1381.509,782.126,1379.318z"/>
		<path d="M698.145,1402.133c-1.104,2.214-9.754,22.326-11.262,26.952c-1.408,4.525-3.118,8.849-3.621,9.452
			c-0.604,0.704-1.104,3.219-1.307,5.632c-0.102,2.414-0.504,5.329-0.906,6.438c-0.904,2.915,1.207,3.52,13.576,3.819
			c11.968,0.303,13.777-0.401,14.684-5.73c0.302-1.811,10.457-41.936,11.565-52.092c0.401-4.728,1.104-11.162,1.407-14.28
			c0.302-3.218,0.101-6.537-0.503-7.542c-0.806-1.407-0.536-0.927-0.435,2.594c0.531,20.063-9.51,61.792-13.26,71.376
			c-0.452,1.155-2.698,4.168-2.698,4.168s-20.438,2.056-23.553-0.919c-0.302-0.2,1.084-7.917,1.209-10.625
			c0.604-2.413,11.493-30.78,17.125-41.541c5.23-9.755,17.39-26.361,19.2-27.064c0.703-0.303,1.004-0.904,0.703-1.407
			C716.156,1374.125,701.565,1394.691,698.145,1402.133z"/>
		<path d="M739.196,1452.067c0.334,0.191,2.262,0.563,6.462,0.956c1.39,0.14,2.366,0.201,3.167,0.201
			c3.613,0,4.366-1.106,5.038-7.398c0.291-2.911,0.991-7.987,1.614-11.107c1.671-9.292,2.249-39.188,1.174-41.154
			c-0.725-0.514-1.282-1.428-1.282-2.091c0-0.721,0.48-1.043,0.956-1.043c0.274,0,0.579,0.103,0.884,0.297
			c-0.01-0.134-0.04-0.338-0.116-0.642c-0.312-0.849-0.699-2.443-1.042-3.85l-0.265-1.079c-0.374-1.588-1.521-3.837-2.612-5.127
			c-1.245-1.331-2.2-1.934-3.079-1.934c-2.557,0-5.804,5.462-11.278,16.218c-2.367,4.53-4.628,9.466-5.207,11.013
			c-0.391,1.106-1.262,3.312-2.185,5.646c-0.51,1.288-1.043,2.638-1.539,3.912c-2.661,6.86-5.658,17.352-7.82,27.378
			c-0.72,3.372-0.935,5.289-0.112,6.405c0.183,0.247,0.425,0.465,0.732,0.657l-0.001-0.016l-0.1-3.52
			c-0.306-11.383,14.649-51.528,23.532-63.171c1.725-2.296,2.798-3.464,3.872-3.464c0.964,0,1.632,0.891,2.398,2.328
			c4.489,8.267,5.354,32.609,1.964,55.417c-0.625,3.745-1.217,8.463-1.404,10.433c-0.476,3.704-1.899,5.819-3.911,5.819
			c-0.315,0-0.642-0.055-0.969-0.164c-2.506-0.964-13.078-2.581-18.875-2.892l-5.407-0.271c1.469,0.499,3.726,0.789,6.986,1.086
			C733.707,1451.199,738.585,1451.765,739.196,1452.067z"/>
		<g>
			<path d="M783.968,1454.321c7.011-0.37,7.011-0.37,9.54-12.367l0.085-0.402c0.33-1.591,0.606-3.179,0.828-4.769
				c-0.911,5.935-3.217,13.888-4.914,15.583c-0.514,0.695-7.859,1.275-12.188,1.554l-11.834,0.74l-0.033,0.548l5.779-0.275
				c1.919-0.112,8.513-0.487,12.579-0.604L783.968,1454.321z"/>
			<path d="M792.991,1408.066c-1.652-8.467-6.017-16.997-7.255-16.997c-0.092,0-0.181-0.012-0.264-0.036
				c1.636,1.919,3.434,5.264,4.544,7.89c2.793,6.782,5.395,27.234,4.649,35.908C795.591,1426.519,795.04,1418.004,792.991,1408.066z
				"/>
			<path d="M780.318,1392.357c-1.701,2.492-2.439,3.865-2.53,4.197v0.049c0,0.484-0.531,2.014-1.045,3.213
				c-2.283,4.942-2.721,6.752-2.778,7.391c-0.112,0.578-0.922,3.613-1.827,6.73c-0.916,3.054-1.901,7.306-2.197,9.483
				c-0.411,2.165-1.312,6.561-2.121,9.904c-0.935,3.322-1.712,9.892-1.898,14.084l-0.403,6.71l0.416-2.393
				c0.334-1.342,0.77-5.154,1.001-7.311c1.704-15.444,8.416-41.746,12.824-50.255c1.049-2,2.433-4.1,2.964-4.495
				c0.628-0.405,1.301-0.084,2.103,0.678c-0.15-0.521,0.008-1.161,0.134-1.541c0.259-0.669,0.186-0.861,0.185-0.863
				C784.391,1387.988,782.118,1389.69,780.318,1392.357z"/>
			<polygon points="783.281,1389.999 783.281,1389.994 783.281,1389.999 			"/>
		</g>
	</g>
</g>
</svg>
