<?xml version="1.0" standalone="no"?>
<!DOCTYPE svg PUBLIC "-//W3C//DTD SVG 20010904//EN"
 "http://www.w3.org/TR/2001/REC-SVG-20010904/DTD/svg10.dtd">
<svg version="1.0" xmlns="http://www.w3.org/2000/svg"
 width="1200.000000pt" height="1600.000000pt" viewBox="0 0 1200.000000 1600.000000"
 preserveAspectRatio="xMidYMid meet">

<g transform="translate(0.000000,1600.000000) scale(0.100000,-0.100000)"
fill="#000000" stroke="none">
<path d="M4727 11182 c-8 -9 -20 -29 -26 -45 -6 -15 -18 -27 -26 -27 -23 0
-64 -48 -87 -100 -34 -79 -17 -227 36 -301 14 -20 13 -25 -10 -54 -30 -40 -30
-62 1 -126 l24 -52 -25 -19 c-14 -11 -23 -25 -21 -32 7 -18 -24 -71 -33 -56
-6 9 -9 9 -15 0 -4 -7 -3 -15 4 -19 7 -5 6 -14 -5 -29 -8 -12 -19 -20 -24 -17
-13 8 -31 -31 -23 -51 4 -12 3 -15 -5 -10 -13 8 -87 -139 -122 -244 -23 -69
-22 -130 4 -166 12 -15 16 -16 30 -5 13 11 16 11 16 -1 0 -8 12 -21 28 -29 15
-7 29 -15 32 -16 3 -2 27 17 53 42 52 49 97 61 97 26 0 -10 6 -32 13 -48 11
-27 16 -30 50 -26 36 3 38 2 31 -19 -3 -13 -15 -35 -25 -50 -11 -14 -19 -29
-19 -32 0 -14 28 -3 60 23 29 25 32 31 21 45 -12 14 -9 20 10 18 6 -1 66 62
161 171 39 43 78 106 162 260 26 49 55 91 64 94 47 16 100 44 111 57 18 22 30
73 37 154 6 77 -3 102 -36 102 -29 0 -75 105 -71 162 4 61 -26 124 -75 157
-37 25 -75 30 -131 16 -26 -6 -33 -4 -33 7 0 9 -11 31 -24 51 l-24 35 27 11
c23 10 26 16 23 50 -3 33 -9 41 -35 52 -18 8 -40 12 -50 11 -10 -2 -27 8 -38
22 -25 32 -87 36 -112 8z"/>
<path d="M7311 11174 c-13 -17 -26 -24 -37 -20 -33 13 -84 -32 -84 -75 0 -21
7 -32 24 -40 l24 -11 -24 -36 c-13 -19 -24 -41 -24 -49 0 -11 -7 -13 -32 -7
-52 13 -88 6 -129 -22 -51 -35 -74 -85 -72 -156 2 -47 -2 -65 -22 -94 -14 -20
-25 -43 -25 -50 0 -8 -8 -14 -17 -14 -39 0 -46 -16 -44 -87 1 -38 8 -91 15
-118 11 -45 17 -53 62 -77 27 -15 56 -27 65 -27 10 -1 48 -59 100 -153 46 -83
98 -165 114 -182 17 -17 37 -41 45 -52 23 -33 123 -139 132 -140 4 -1 10 -2
13 -3 3 0 1 -10 -4 -20 -9 -16 -5 -23 24 -45 31 -24 55 -33 55 -21 0 3 -12 23
-26 45 -31 46 -24 64 20 56 27 -5 33 -2 49 25 9 17 17 39 17 50 0 38 52 18
112 -43 25 -26 58 -30 58 -7 0 5 7 9 15 9 8 0 15 7 15 16 0 13 3 14 15 4 20
-17 30 -7 45 46 12 42 11 53 -10 118 -31 98 -86 215 -104 222 -9 3 -12 12 -9
21 5 12 3 14 -7 8 -10 -6 -12 -4 -7 9 8 20 -10 59 -23 51 -5 -3 -16 5 -24 17
-11 15 -12 24 -5 29 7 4 8 12 4 19 -6 9 -9 9 -15 0 -6 -9 -13 -4 -24 17 -8 17
-12 33 -9 37 4 3 -6 19 -22 36 -23 24 -26 32 -15 45 8 10 9 15 1 15 -6 0 -11
5 -11 11 0 6 7 9 15 5 18 -6 35 22 35 60 0 15 -11 42 -24 59 -23 29 -24 34
-10 54 53 74 70 222 36 301 -23 52 -64 100 -87 100 -8 0 -20 12 -26 27 -17 46
-39 63 -80 63 -29 0 -42 -6 -58 -26z"/>
</g>
</svg>
