<?xml version="1.0" standalone="no"?>
<!DOCTYPE svg PUBLIC "-//W3C//DTD SVG 20010904//EN"
 "http://www.w3.org/TR/2001/REC-SVG-20010904/DTD/svg10.dtd">
<svg version="1.0" xmlns="http://www.w3.org/2000/svg"
 width="1200.000000pt" height="1600.000000pt" viewBox="0 0 1200.000000 1600.000000"
 preserveAspectRatio="xMidYMid meet">

<g transform="translate(0.000000,1600.000000) scale(0.100000,-0.100000)"
fill="#000000" stroke="none">
<path d="M5270 11501 c-48 -7 -181 -55 -217 -78 -12 -8 -25 -29 -28 -46 -4
-18 -19 -48 -33 -67 -16 -20 -31 -59 -37 -94 l-11 -61 -38 3 c-28 3 -46 12
-63 33 -46 54 -135 30 -153 -42 -3 -11 -8 -20 -13 -19 -18 2 -68 -33 -91 -62
-33 -44 -48 -105 -40 -170 6 -61 30 -141 52 -180 15 -25 14 -29 -1 -46 -18
-20 -24 -116 -8 -141 16 -24 -8 -86 -67 -176 -32 -50 -67 -105 -77 -124 -36
-71 -75 -195 -80 -260 l-6 -66 34 95 c48 135 60 161 134 290 48 84 85 134 136
184 39 38 62 66 51 62 -69 -27 -85 -18 -99 55 -5 26 -2 39 10 49 13 11 22 10
53 -6 20 -10 42 -20 47 -23 6 -2 -12 20 -40 51 -78 85 -109 198 -85 311 14 71
45 109 88 111 27 1 32 5 32 26 0 37 27 70 57 70 32 0 93 -62 93 -95 0 -13 -8
-29 -17 -34 -15 -9 -16 -10 -2 -11 26 0 86 -68 93 -105 7 -33 7 -33 34 -19 95
49 203 -40 199 -166 0 -29 8 -63 23 -95 19 -39 25 -66 25 -122 0 -40 4 -73 8
-73 10 0 14 14 22 73 6 42 8 47 22 35 22 -18 12 -141 -15 -194 -25 -49 -55
-69 -72 -49 -8 10 -8 19 -1 34 15 27 14 36 -3 21 -8 -6 -20 -28 -27 -48 -7
-20 -20 -48 -29 -62 -27 -40 -64 -100 -105 -169 -64 -107 -182 -259 -275 -352
-48 -48 -85 -90 -83 -93 11 -11 67 28 138 96 100 94 203 238 299 418 37 69 50
86 73 91 45 9 68 29 104 88 32 52 34 62 34 141 0 67 3 88 16 97 9 7 19 23 23
37 6 25 -24 133 -49 176 l-15 25 5 -25 c20 -91 22 -136 9 -168 -19 -46 -42
-39 -76 23 -21 37 -27 60 -24 88 15 136 -101 240 -215 193 -25 -11 -46 63 -31
112 12 39 33 156 37 206 1 20 14 40 37 61 20 17 38 41 40 55 2 14 16 31 34 42
44 26 210 61 262 55 23 -2 42 -1 42 4 0 5 8 9 18 10 11 0 7 5 -13 14 -32 15
-72 16 -145 6z m-344 -398 c-3 -8 -6 -17 -6 -19 0 -2 -4 -4 -9 -4 -10 0 -21
36 -14 44 10 10 34 -7 29 -21z"/>
<path d="M6733 11498 l-23 -11 24 -12 c13 -7 41 -11 62 -10 43 3 146 -14 209
-35 63 -21 85 -39 85 -70 0 -20 6 -31 20 -35 27 -8 50 -45 49 -76 -1 -33 26
-188 38 -219 8 -19 6 -34 -6 -60 -8 -19 -16 -36 -16 -37 -1 -2 -15 2 -31 9
-101 38 -214 -75 -197 -199 6 -48 -38 -143 -67 -143 -37 0 -46 72 -24 190 10
51 -33 -44 -46 -102 -12 -52 -11 -60 6 -85 13 -21 18 -48 19 -103 1 -62 6 -85
30 -133 35 -69 63 -97 105 -106 27 -5 37 -18 76 -91 90 -168 179 -296 273
-393 64 -66 156 -135 167 -124 3 2 -35 44 -83 93 -49 49 -109 116 -134 149
-86 112 -245 370 -285 460 -12 29 -18 35 -21 22 -3 -10 0 -24 6 -30 7 -9 5
-16 -8 -24 -29 -18 -67 29 -88 108 -14 56 -15 73 -5 108 14 44 32 55 33 19 1
-54 8 -91 17 -100 7 -7 10 12 9 58 0 53 6 84 27 136 20 49 25 76 21 101 -5 24
0 49 14 83 35 81 114 116 183 80 27 -14 27 -14 34 19 7 37 67 105 93 105 14 1
13 2 -1 11 -10 5 -18 21 -18 34 0 33 61 95 93 95 30 0 57 -33 57 -70 0 -21 5
-25 32 -26 43 -2 74 -40 88 -111 24 -113 -7 -226 -85 -311 -27 -31 -45 -53
-40 -51 6 3 27 13 47 23 31 16 40 17 53 6 12 -10 15 -23 10 -49 -14 -73 -30
-82 -99 -55 -11 4 12 -24 51 -62 51 -50 88 -100 136 -184 74 -129 86 -155 134
-290 l34 -95 -5 65 c-5 62 -44 189 -81 261 -10 19 -46 75 -79 124 l-61 90 3
104 c2 87 0 107 -15 123 -15 17 -16 21 -1 46 22 39 46 119 52 180 8 65 -7 126
-40 170 -23 29 -73 64 -91 62 -5 -1 -10 8 -13 19 -18 72 -99 94 -151 42 -19
-20 -41 -31 -66 -33 l-37 -3 -12 67 c-9 47 -21 76 -38 95 -14 15 -26 36 -26
45 0 47 -22 66 -109 97 -136 49 -239 63 -288 39z m520 -398 c-3 -11 -9 -20
-13 -20 -14 0 -21 33 -8 41 18 11 27 2 21 -21z"/>
</g>
</svg>
