<?xml version="1.0" standalone="no"?>
<!DOCTYPE svg PUBLIC "-//W3C//DTD SVG 20010904//EN"
 "http://www.w3.org/TR/2001/REC-SVG-20010904/DTD/svg10.dtd">
<svg version="1.0" xmlns="http://www.w3.org/2000/svg"
 width="1200.000000pt" height="1600.000000pt" viewBox="0 0 1200.000000 1600.000000"
 preserveAspectRatio="xMidYMid meet">

<g transform="translate(0.000000,1600.000000) scale(0.100000,-0.100000)"
fill="#000000" stroke="none">
<path d="M5745 14563 c-31 -37 -97 -116 -147 -175 -158 -188 -197 -254 -293
-492 -57 -144 -97 -220 -93 -177 3 25 3 25 -87 22 -93 -2 -179 13 -250 44 -64
28 -113 35 -127 18 -7 -8 -13 -20 -14 -27 -2 -6 -10 -42 -18 -81 -20 -89 -20
-242 0 -325 21 -91 94 -241 128 -264 15 -9 25 -20 22 -24 -7 -6 137 -158 204
-214 25 -21 50 -36 57 -34 7 3 16 -1 20 -8 12 -20 50 -37 67 -30 11 4 14 13
10 30 -4 17 0 31 12 45 10 11 17 33 16 52 -5 127 -12 188 -27 225 -16 39 -16
44 -1 61 19 21 21 54 4 81 -11 17 -8 24 17 50 42 44 63 47 91 14 l24 -29 -7
30 c-14 55 -8 130 13 165 15 27 31 38 67 48 34 9 51 21 59 38 6 13 15 24 20
24 4 0 8 5 8 10 0 21 55 71 91 82 32 9 44 8 79 -10 45 -22 61 -12 41 27 -15
28 -14 30 17 42 66 26 588 25 655 0 30 -12 31 -14 16 -42 -20 -39 -4 -49 41
-27 35 18 47 19 79 10 36 -11 91 -61 91 -82 0 -5 4 -10 8 -10 5 0 14 -11 20
-24 8 -17 25 -29 59 -38 61 -17 86 -57 86 -137 0 -31 -3 -67 -7 -80 -11 -32
12 -18 24 15 9 23 11 24 37 10 16 -8 39 -26 53 -40 21 -23 22 -30 12 -46 -17
-27 -15 -60 5 -82 16 -18 15 -21 -5 -63 -15 -31 -19 -54 -15 -79 3 -20 0 -63
-7 -97 -12 -57 -12 -62 9 -89 14 -20 19 -38 15 -54 -8 -34 22 -43 58 -16 16
12 32 19 37 16 20 -13 271 230 271 263 0 6 5 10 12 9 16 -4 93 132 118 207 37
115 44 184 31 304 -18 169 -37 210 -93 204 -18 -3 -49 -13 -68 -23 -61 -32
-167 -52 -265 -48 l-90 3 3 -25 c3 -21 -1 -19 -22 15 -14 22 -26 44 -26 49 0
15 -91 238 -121 299 -50 99 -93 159 -247 343 -164 198 -179 214 -186 193 -6
-17 -22 -110 -41 -239 -20 -136 -41 -234 -59 -269 -9 -16 -16 -36 -16 -44 0
-8 -14 -40 -30 -71 -17 -31 -28 -61 -25 -65 4 -7 -48 -19 -90 -21 -14 -1 -92
17 -82 19 4 0 -3 20 -17 44 -57 97 -121 368 -148 626 -5 42 -24 34 -83 -36z"/>
</g>
</svg>
