<svg version="1.1" id="Layer_1" xmlns="http://www.w3.org/2000/svg" xmlns:xlink="http://www.w3.org/1999/xlink" x="0px" y="0px"
	 width="1200px" height="1600px" viewBox="0 0 1200 1600" enable-background="new 0 0 1200 1600" xml:space="preserve">
<g transform="translate(0.000000,1600.000000) scale(0.100000,-0.100000)" opacity="0.6">
	<path d="M5470,11297.996c-280-250-620-525-845-682.998c-95.996-67.998-274.004-222.998-435-380
		c-252.002-245.996-567.002-530.996-671.001-607.998c-35-26.006-75-57.998-87.998-70c-13.003-12.002-28.999-22.002-35-22.998
		c-6.001,0-18.999-2.002-28.999-2.002c-11.001-1.006-53.003-37.002-95-79.004c-43.003-42.998-115-107.002-161.001-142.998
		c-143.003-112.002-433.999-355-488.999-409.004c-163.003-161.991-326.001-361.991-380-465.995c-80-152.998-92.002-335-32.002-470
		c78.999-179.004,125-250.996,196.001-304.004c21.001-16.992,67.998-52.998,103.999-80.996
		c131.001-100.996,302.998-167.998,520-200.996c291.001-45,891.001,21.992,1103.999,121.992
		c140.005,65,513.999,536.006,698.999,877.002c22.998,42.998,49.004,89.004,57.002,104.004s67.998,132.002,134.004,260
		c65,127.997,125,239.999,131.992,248.993c8.008,8.008,14.004,20,14.004,26.006c0,5.996,15,48.994,34.004,95
		c52.998,127.998,85.996,215.996,85.996,225c0,7.002,42.002,112.998,70,177.998c5,10.996,14.004,37.002,20,57.998
		c5.996,20,15.996,37.002,20.996,37.002c6.006,0,8.008,4.004,5,9.004c-6.992,10.996,21.006,76.992,142.002,330.996
		c61.006,129.004,117.998,225.996,146.006,249.004c40,33.994,85,247.998,95,455.996c11.992,242.002,0,362.998-51.006,520
		c-42.998,132.998-67.998,182.998-110,222.002l-22.998,22.002L5470,11297.996z"/>
	<path d="M6512.998,11387.996c-27.002-30-45.996-67.998-77.998-158.994c-67.002-185-70-205-70-459.004
		c0-180.996,4.004-252.998,17.002-315c10-44.004,18.994-90.996,22.002-105c12.998-70.996,40-132.002,85-190.996
		c48.994-65,108.994-183.008,230-451.006c25-55,80-195.996,85.996-217.998c2.002-7.998,17.998-49.004,34.004-90
		c16.992-40.996,45.996-117.998,65-170c62.998-170,146.992-345,378.994-785.995c187.998-358.008,562.998-841.006,730-938.008
		c42.002-25,206.005-71.992,332.001-95c70.996-12.998,305.996-36.992,455-45.996c250-15,564.004,45,735.996,140.996
		c81.006,45,244.004,175,286.006,228.008c43.994,55,105.996,180,137.998,273.994c27.002,84.004,27.998,212.002,2.002,302.002
		c-41.006,137.998-106.006,237.998-280,427.998c-181.006,199.003-240,251.005-627.002,549.003
		c-77.002,58.994-172.998,140.996-212.998,180.996c-41.006,39.004-76.006,72.002-77.998,72.002c-2.002,0-13.008-5-23.008-12.002
		c-23.994-15-50.996,4.004-43.994,31.006c2.998,11.992-7.998,25-36.006,43.994c-83.994,56.006-558.994,485-770.996,697.002
		c-115,115-270.996,247.002-415,350c-227.002,162.002-565.996,440.996-834.004,684.004c-46.992,41.992-90,75.996-95.996,75.996
		S6524.003,11399.998,6512.998,11387.996z"/>
</g>
</svg>
