<?xml version="1.0" standalone="no"?>
<!DOCTYPE svg PUBLIC "-//W3C//DTD SVG 20010904//EN"
 "http://www.w3.org/TR/2001/REC-SVG-20010904/DTD/svg10.dtd">
<svg version="1.0" xmlns="http://www.w3.org/2000/svg"
 width="1200.000000pt" height="1600.000000pt" viewBox="0 0 1200.000000 1600.000000"
 preserveAspectRatio="xMidYMid meet">

<g transform="translate(0.000000,1600.000000) scale(0.100000,-0.100000)"
fill="#000000" stroke="none">
<path d="M5514 12946 c-30 -44 -5 -208 40 -254 7 -7 42 -15 79 -19 51 -4 72
-2 90 10 25 16 69 114 81 179 7 36 6 36 -46 61 -35 17 -83 28 -141 34 -83 9
-89 8 -103 -11z"/>
<path d="M6530 12957 c-54 -5 -104 -18 -137 -34 -53 -25 -54 -25 -47 -61 12
-65 56 -163 81 -179 18 -12 39 -14 90 -10 37 4 72 12 79 19 48 49 71 217 37
255 -17 18 -25 19 -103 10z"/>
</g>
</svg>
