<?xml version="1.0" standalone="no"?>
<!DOCTYPE svg PUBLIC "-//W3C//DTD SVG 20010904//EN"
 "http://www.w3.org/TR/2001/REC-SVG-20010904/DTD/svg10.dtd">
<svg version="1.0" xmlns="http://www.w3.org/2000/svg"
 width="1200.000000pt" height="1600.000000pt" viewBox="0 0 1200.000000 1600.000000"
 preserveAspectRatio="xMidYMid meet">

<g transform="translate(0.000000,1600.000000) scale(0.100000,-0.100000)"
fill="#000000" stroke="none">
<path d="M5465 12944 c-147 -43 -162 -59 -105 -116 17 -16 30 -40 30 -54 0
-35 36 -53 162 -79 102 -20 119 -21 175 -10 34 7 66 16 72 19 6 4 17 30 26 58
l15 52 -31 32 c-18 18 -26 33 -19 36 22 7 -68 48 -139 63 -88 18 -121 18 -186
-1z"/>
<path d="M6492 12944 c-76 -16 -148 -54 -130 -66 10 -6 6 -14 -14 -29 -32 -24
-35 -51 -12 -109 10 -25 24 -42 38 -45 102 -23 108 -23 222 0 113 23 163 43
165 68 1 6 2 17 3 23 0 7 13 23 29 38 55 51 31 81 -94 115 -86 24 -118 25
-207 5z"/>
</g>
</svg>
